<svg width="40" height="40" viewBox="0 0 40 40" fill="none" xmlns="http://www.w3.org/2000/svg">
<path d="M20 39C30.4934 39 39 30.4934 39 20C39 9.50659 30.4934 1 20 1C9.50659 1 1 9.50659 1 20C1 30.4934 9.50659 39 20 39Z" fill="#020229" stroke="#23252C" stroke-width="2"/>
<path d="M22.821 19.1885L22.8842 19.2799C23.1044 19.5981 23.3189 19.9071 23.5202 20.2127C23.8367 19.9942 24.1715 19.8034 24.5208 19.6423C24.8561 19.4864 25.2061 19.3642 25.5656 19.2776C25.2678 18.8152 24.9509 18.3678 24.6358 17.9238C23.1746 15.8515 21.6628 13.708 21.6628 9.9781V8L19.9613 9.04243C12.8629 13.5328 11.059 20.2557 12.4196 24.923C13.4483 28.5449 16.2724 30.797 19.7985 30.8022C19.9136 30.8079 20.032 30.8108 20.1493 30.8108H20.1987C21.6126 30.8029 22.9899 30.3619 24.1447 29.5472C23.4586 29.2114 22.8593 28.7222 22.3931 28.1176C22.1621 27.8223 21.9594 27.506 21.7876 27.1728C21.7416 27.0843 21.6973 26.9942 21.6559 26.9045C21.1349 25.7793 20.9883 24.6002 21.2327 23.4946C21.3121 23.1359 21.4311 22.7873 21.5875 22.455C21.5185 22.3344 21.446 22.2132 21.3707 22.0925C19.465 19.0656 18.9705 16.1829 19.8928 13.5012C20.5237 15.9664 21.7807 17.7291 22.821 19.1885ZM19.4673 23.2539C20.6254 25.1102 20.7623 26.8637 19.7991 27.8488C19.6317 28.0153 19.4327 28.1468 19.2138 28.2355C18.9949 28.3243 18.7604 28.3685 18.5242 28.3657H18.5202C18.3611 28.3656 18.2031 28.34 18.0521 28.2899C16.3621 27.727 15.1131 26.3227 14.522 24.3165C13.7743 21.7433 14.1769 17.6717 17.4506 14.0164C16.8221 16.9749 17.5047 20.1317 19.4673 23.2539Z" fill="#0ACBEB"/>
<path d="M30.3249 27.3375C29.4808 28.2565 28.379 28.8493 27.1432 28.9733C26.3249 29.0554 25.5549 28.9733 24.8752 28.739C24.4452 28.5926 24.0429 28.3752 23.6849 28.0957C23.082 27.6164 22.6318 26.9722 22.3893 26.2417C22.2876 25.9446 22.2143 25.6386 22.1703 25.3278C22.1582 25.2457 22.1478 25.1619 22.1392 25.0768C22.0311 24.0016 22.2542 23.0729 22.7143 22.3228C23.287 21.3917 24.2191 20.7375 25.333 20.4153C25.6658 20.3194 26.0067 20.254 26.3514 20.22C26.7571 20.1777 27.1668 20.1898 27.5693 20.2562C27.7966 20.2954 28.0202 20.353 28.2381 20.4285C28.6996 20.5898 29.1303 20.8283 29.5118 21.1339L29.1553 21.7042L29.0978 21.7926L28.8983 22.1114L28.6159 22.56C28.3175 22.3538 27.9604 22.1051 27.6487 21.9971C27.609 21.9839 27.5699 21.9706 27.5337 21.9592C27.2088 21.8615 26.8678 21.8289 26.5302 21.8633C26.2181 21.8918 25.9117 21.9651 25.6205 22.0809C24.5233 22.5278 23.8954 23.5657 24.0288 24.8786C24.045 25.0423 24.0735 25.2045 24.1139 25.364C24.2864 26.0464 24.6694 26.58 25.1984 26.9148C25.3652 27.0221 25.5444 27.1089 25.732 27.1733C26.1539 27.314 26.6013 27.3609 27.0432 27.3105C27.923 27.2226 28.7143 26.5863 29.2502 26.0303L29.7286 26.6299L30.3249 27.3375Z" fill="#0ACBEB"/>
</svg>
