<svg width="28" height="28" viewBox="0 0 28 28" fill="none" xmlns="http://www.w3.org/2000/svg">
<path d="M14 28C21.732 28 28 21.732 28 14C28 6.26801 21.732 0 14 0C6.26801 0 0 6.26801 0 14C0 21.732 6.26801 28 14 28Z" fill="#0A0A0A"/>
<path d="M13.0461 19.6977L13.118 19.5463C13.1435 19.4934 13.1564 19.4355 13.1557 19.3769C13.155 19.3184 13.1408 19.2607 13.114 19.2085C13.0873 19.1562 13.0489 19.1107 13.0016 19.0755C12.9543 19.0403 12.8995 19.0163 12.8414 19.0053C12.6073 18.9613 12.2941 18.8611 11.9032 18.6492C11.8527 18.622 11.809 18.5839 11.7752 18.5379C11.7414 18.4918 11.7184 18.4389 11.7078 18.3829C11.6973 18.327 11.6994 18.2694 11.7141 18.2143C11.7288 18.1593 11.7556 18.1082 11.7927 18.0647L14.002 15.4882L16.2112 18.0647C16.2483 18.1081 16.2752 18.1592 16.2899 18.2143C16.3046 18.2693 16.3068 18.3268 16.2963 18.3828C16.2858 18.4388 16.2628 18.4917 16.229 18.5378C16.1953 18.5838 16.1516 18.6219 16.1012 18.6492C15.7103 18.8611 15.3966 18.9613 15.163 19.0053C15.1048 19.0162 15.05 19.0402 15.0027 19.0754C14.9553 19.1106 14.9168 19.156 14.89 19.2083C14.8632 19.2606 14.8489 19.3182 14.8483 19.3768C14.8475 19.4354 14.8604 19.4934 14.8859 19.5463L14.9582 19.6978C14.9927 19.7689 15.0482 19.8279 15.1175 19.8669C15.1868 19.9059 15.2664 19.923 15.3457 19.916C15.9377 19.8676 16.5173 19.7214 17.0604 19.4834C17.1367 19.4495 17.2221 19.4411 17.3036 19.4594C17.3851 19.4778 17.4584 19.5218 17.5125 19.585L18.9134 21.219C18.948 21.2595 18.9738 21.3066 18.9891 21.3574C19.0044 21.4082 19.0089 21.4616 19.0024 21.5142L18.995 21.5698C18.9868 21.6347 18.9956 21.7006 19.0205 21.7612C19.0454 21.8218 19.0856 21.875 19.1372 21.9158C19.2056 21.9703 19.2908 22 19.3786 22H20.2582C20.3473 22 20.4337 21.9694 20.5025 21.9134L20.8583 21.6231C20.8847 21.6016 20.9081 21.5769 20.9278 21.5495C20.9412 21.531 20.9528 21.5114 20.9627 21.4908C20.9872 21.4395 21 21.3836 21 21.3269V20.8823C21 20.7862 20.9634 20.6937 20.8977 20.6231C20.832 20.5524 20.7419 20.5089 20.6452 20.501L20.4942 20.4884C20.396 20.4803 20.3045 20.4353 20.2387 20.3626L18.7727 18.7421C18.7088 18.6716 18.6734 18.5802 18.6734 18.4854C18.6734 18.3907 18.7088 18.2992 18.7727 18.2287C19.1254 17.8355 19.4227 17.3969 19.6567 16.9247C19.6865 16.865 19.7001 16.7986 19.6961 16.7321C19.6921 16.6656 19.6706 16.6013 19.6338 16.5455C19.597 16.4897 19.5461 16.4444 19.4861 16.4141C19.4262 16.3838 19.3594 16.3695 19.2921 16.3726L18.9081 16.3905C18.8064 16.3961 18.7112 16.4413 18.6432 16.5163C18.3989 16.782 18.1667 17.02 17.9454 17.2329C17.9081 17.269 17.8639 17.2973 17.8153 17.3159C17.7667 17.3346 17.7148 17.3434 17.6627 17.3417C17.6105 17.34 17.5593 17.3278 17.5121 17.306C17.4649 17.2841 17.4226 17.253 17.3878 17.2145L14.8889 14.4538L20.9081 7.43412C20.97 7.36114 21.0026 7.2681 20.9995 7.17284L20.9619 6.12865C20.961 6.10208 20.9521 6.07639 20.9363 6.05487C20.9272 6.0424 20.916 6.03167 20.9032 6.02308C20.894 6.01686 20.884 6.01177 20.8734 6.00796C20.8481 5.9989 20.8207 5.99754 20.7947 6.00404C20.7687 6.01055 20.7452 6.02462 20.7273 6.04445L14.0022 13.4742L7.27706 6.04447C7.2591 6.0247 7.23562 6.01069 7.20956 6.00423C7.18353 5.99777 7.15614 5.99915 7.1309 6.00819C7.12224 6.01129 7.11398 6.01525 7.10623 6.01998C7.09134 6.02901 7.07829 6.04089 7.06788 6.05498C7.05204 6.07644 7.04304 6.1021 7.04202 6.12866L7.00439 7.17284C7.00103 7.26824 7.03379 7.36142 7.09625 7.43413L13.1153 14.4541L10.618 17.2131C10.5832 17.2516 10.5409 17.2827 10.4936 17.3045C10.4463 17.3264 10.3951 17.3385 10.343 17.3402C10.2908 17.342 10.2389 17.3332 10.1902 17.3145C10.1416 17.2958 10.0973 17.2676 10.06 17.2315C9.8391 17.0186 9.60699 16.7805 9.36266 16.5149C9.32866 16.4778 9.28757 16.4477 9.24178 16.4263C9.19599 16.405 9.14639 16.3928 9.09585 16.3905L8.71225 16.3726C8.64504 16.3695 8.57816 16.3838 8.51825 16.4141C8.45833 16.4444 8.40744 16.4897 8.37062 16.5455C8.33381 16.6012 8.31231 16.6656 8.3083 16.7321C8.30427 16.7986 8.31787 16.865 8.34772 16.9247C8.58167 17.3968 8.87901 17.8355 9.23169 18.2287C9.29504 18.2995 9.33002 18.3908 9.33002 18.4854C9.33002 18.58 9.29504 18.6713 9.23169 18.7421L7.76133 20.3626C7.69526 20.4353 7.60369 20.4802 7.50526 20.4884L7.35478 20.501C7.2581 20.5089 7.16798 20.5524 7.10226 20.6231C7.03653 20.6937 7.00005 20.7862 7 20.8822V21.3269C6.99993 21.3836 7.01262 21.4396 7.03713 21.4908C7.06165 21.542 7.09737 21.5872 7.14171 21.6231L7.49696 21.9134C7.56594 21.9692 7.65222 21.9998 7.74129 22H8.62087C8.70968 22.0006 8.79596 21.9708 8.8652 21.9158C8.91671 21.8749 8.9568 21.8217 8.98161 21.7611C9.00643 21.7005 9.01513 21.6347 9.0069 21.5698L9.00008 21.5142C8.99354 21.4616 8.99805 21.4082 9.01337 21.3574C9.02866 21.3066 9.05441 21.2595 9.08901 21.219L10.49 19.585C10.544 19.5218 10.6173 19.4778 10.6989 19.4594C10.7804 19.4411 10.8657 19.4495 10.942 19.4834C11.4857 19.7217 12.066 19.8679 12.6586 19.916C12.738 19.923 12.8176 19.9059 12.8869 19.8669C12.9561 19.8279 13.0117 19.7689 13.0461 19.6977Z" fill="#EBEBEC"/>
</svg>
