<svg width="166" height="26" viewBox="0 0 166 26" fill="none" xmlns="http://www.w3.org/2000/svg">
<path d="M0 24.0323C0 25.0009 0.787393 25.7935 1.74965 25.7935C2.74089 25.7935 3.52828 25.0009 3.52828 24.0323V23.2396C4.60745 24.678 6.21021 25.9685 8.77624 25.9685C12.4204 25.9685 15.9187 23.0636 15.9187 17.9277V17.8694C15.9187 12.7043 12.3914 9.82861 8.77624 9.82861C6.26917 9.82861 4.6654 11.1201 3.52828 12.7335V5.83739C3.52828 4.83958 2.74089 4.07715 1.74965 4.07715C0.758415 4.07715 0 4.84059 0 5.83739V24.0323V24.0323ZM7.92989 22.8876C5.53973 22.8876 3.44035 20.892 3.44035 17.9277V17.8694C3.44035 14.9052 5.53973 12.9095 7.92989 12.9095C10.32 12.9095 12.3325 14.876 12.3325 17.8694V17.9277C12.3325 20.9795 10.35 22.8876 7.93089 22.8876H7.92989ZM20.754 16.8133C21.0748 14.4073 22.5906 12.7345 24.7479 12.7345C27.0801 12.7345 28.4211 14.5249 28.6549 16.8133H20.754ZM30.6953 23.9448C30.9581 23.6802 31.162 23.299 31.162 22.8584C31.162 22.0367 30.5495 21.4201 29.7631 21.4201C29.3554 21.4201 29.1216 21.5377 28.8598 21.7429C27.8685 22.5647 26.7024 23.0928 25.2156 23.0928C22.9413 23.0928 21.1637 21.6836 20.784 19.1599H30.4335C31.3369 19.1599 32.0953 18.4558 32.0953 17.458C32.0953 13.8782 29.6751 9.82761 24.7779 9.82761C20.3763 9.82761 17.2567 13.4668 17.2567 17.8976V17.9559C17.2567 22.7397 20.697 25.9967 25.1566 25.9967C27.5468 25.9967 29.2964 25.2041 30.6953 23.9427V23.9448ZM36.8906 16.8133C37.2123 14.4073 38.7282 12.7345 40.8855 12.7345C43.2177 12.7345 44.5587 14.5249 44.7925 16.8133H36.8916H36.8906ZM46.8329 23.9448C47.0957 23.6802 47.2995 23.299 47.2995 22.8584C47.2995 22.0367 46.687 21.4201 45.9006 21.4201C45.4929 21.4201 45.2591 21.5377 44.9973 21.7429C44.0061 22.5647 42.84 23.0928 41.3531 23.0928C39.0789 23.0928 37.3013 21.6836 36.9215 19.1599H46.5711C47.4744 19.1599 48.2328 18.4558 48.2328 17.458C48.2328 13.8782 45.8127 9.82761 40.9155 9.82761C36.5139 9.82761 33.3943 13.4668 33.3943 17.8976V17.9559C33.3943 22.7397 36.8346 25.9967 41.2952 25.9967C43.6853 25.9967 45.435 25.2041 46.8339 23.9427L46.8329 23.9448ZM55.5362 25.9112C56.4695 25.9112 57.1979 25.7643 57.9563 25.5008C58.451 25.2956 58.8886 24.7675 58.8886 24.1218C58.8886 23.3 58.1892 22.6542 57.4028 22.6542C57.2859 22.6542 56.9361 22.7428 56.5284 22.7428C55.3324 22.7428 54.6339 22.1855 54.6339 20.8055V13.2053H57.4038C58.2491 13.2053 58.9486 12.5303 58.9486 11.6794C58.9486 10.8284 58.2491 10.1535 57.4038 10.1535H54.6339V7.51214C54.6339 6.5435 53.8465 5.75089 52.8842 5.75089C51.893 5.75089 51.1046 6.5435 51.1046 7.51214V10.1535H50.5211C50.3212 10.1525 50.1244 10.1907 49.9395 10.2672C49.7547 10.3436 49.5878 10.4563 49.4469 10.5981C49.306 10.7399 49.1941 10.9089 49.1191 11.094C49.0435 11.2797 49.0051 11.4787 49.0062 11.6794C49.0051 11.8801 49.0435 12.0791 49.1191 12.2648C49.1951 12.4509 49.306 12.6188 49.4469 12.7607C49.5879 12.9025 49.7554 13.0149 49.9398 13.0912C50.1242 13.1675 50.3217 13.2063 50.5211 13.2053H51.1046V21.3637C51.1046 24.7675 52.9422 25.9122 55.5372 25.9122L55.5362 25.9112ZM60.9031 24.0333C60.9031 25.0311 61.6905 25.7945 62.6527 25.7945C63.644 25.7945 64.4314 25.0311 64.4314 24.0333V16.9018C64.4314 14.4958 65.8602 13.0574 67.9007 13.0574C70.0001 13.0574 71.1951 14.4364 71.1951 16.8434V24.0333C71.1951 25.0311 71.9825 25.7945 72.9738 25.7945C73.965 25.7945 74.7234 25.0311 74.7234 24.0333V15.7581C74.7234 12.1783 72.712 9.83063 69.2426 9.83063C66.8525 9.83063 65.4236 11.093 64.4323 12.5303V5.8394C64.4323 4.87077 63.645 4.07916 62.6537 4.07916C61.6625 4.07916 60.9041 4.87177 60.9041 5.8394V24.0323L60.9031 24.0333ZM84.8406 25.9997C89.593 25.9997 93.0913 22.3314 93.0913 17.9298V17.8714C93.0913 13.4406 89.6219 9.83063 84.8996 9.83063C80.1772 9.83063 76.6779 13.499 76.6779 17.9298V17.9881C76.6779 22.3897 80.1472 25.9997 84.8406 25.9997ZM84.8986 22.8886C82.1577 22.8886 80.2052 20.6295 80.2052 17.9287V17.8704C80.2052 15.1707 82.0128 12.9407 84.8406 12.9407C87.6105 12.9407 89.564 15.1999 89.564 17.9298V17.9881C89.564 20.6586 87.7564 22.8886 84.8996 22.8886H84.8986ZM103.081 24.3853L108.212 12.5293C108.338 12.263 108.407 11.9732 108.415 11.6784C108.415 10.7097 107.658 9.97648 106.696 9.97648C105.762 9.97648 105.297 10.5931 105.034 11.2086L101.011 21.5388L97.0462 11.268C96.7544 10.5347 96.2588 9.97648 95.2966 9.97648C94.3343 9.97648 93.5479 10.7983 93.5479 11.6784C93.5479 12.0013 93.6648 12.295 93.7518 12.5585L98.8828 24.3853C99.2905 25.3248 99.932 25.9404 100.894 25.9404H101.069C102.031 25.9404 102.673 25.2946 103.081 24.3853ZM112.363 16.8143C112.684 14.4083 114.2 12.7355 116.357 12.7355C118.69 12.7355 120.03 14.5259 120.264 16.8143H112.363V16.8143ZM122.305 23.9458C122.597 23.6601 122.765 23.2694 122.771 22.8594C122.771 22.0377 122.159 21.4211 121.371 21.4211C121.041 21.4099 120.718 21.5252 120.468 21.7439C119.477 22.5657 118.311 23.0938 116.824 23.0938C114.55 23.0938 112.772 21.6846 112.392 19.1609H122.042C122.946 19.1609 123.704 18.4568 123.704 17.459C123.704 13.8792 121.285 9.82861 116.386 9.82861C111.985 9.82861 108.865 13.4678 108.865 17.8986V17.9569C108.865 22.7407 112.305 25.9977 116.766 25.9977C119.156 25.9977 120.906 25.2051 122.305 23.9438V23.9458ZM125.848 24.0333C125.848 25.0311 126.634 25.7945 127.597 25.7945C128.588 25.7945 129.375 25.0311 129.375 24.0333V16.9018C129.375 14.4958 130.803 13.0574 132.845 13.0574C134.943 13.0574 136.139 14.4364 136.139 16.8434V24.0333C136.139 25.0311 136.925 25.7945 137.917 25.7945C138.908 25.7945 139.666 25.0311 139.666 24.0333V15.7581C139.666 12.1783 137.655 9.83063 134.186 9.83063C131.794 9.83063 130.367 11.093 129.375 12.5303V11.7679C129.376 11.5325 129.331 11.2992 129.242 11.0809C129.153 10.8626 129.023 10.6655 128.858 10.4985C128.692 10.332 128.496 10.2002 128.279 10.1108C128.063 10.0214 127.831 9.97604 127.597 9.97748C126.605 9.97748 125.848 10.7701 125.848 11.7679V24.0323V24.0333ZM143.459 18.3985H148.94C149.872 18.3985 150.66 17.6059 150.66 16.6674C150.66 15.6988 149.872 14.9062 148.94 14.9062H143.459C142.526 14.9062 141.739 15.6988 141.739 16.6674C141.739 17.6069 142.526 18.3985 143.459 18.3985ZM151.211 24.2968C151.211 25.1769 151.94 25.8518 152.844 25.8518C153.486 25.8518 153.981 25.4405 154.389 24.9426L158.121 20.1004L161.852 24.9426C162.29 25.529 162.786 25.8518 163.485 25.8518C164.359 25.8518 165.118 25.2061 165.118 24.2083C165.118 23.7386 164.913 23.3282 164.534 22.8584L160.22 17.7225L164.388 12.7043C164.68 12.3523 164.884 12.0003 164.884 11.5013C164.884 10.6212 164.155 9.9463 163.222 9.9463C162.611 9.9463 162.115 10.3275 161.706 10.8556L158.179 15.4041L154.71 10.8264C154.272 10.2692 153.776 9.9463 153.077 9.9463C152.203 9.9463 151.444 10.5921 151.444 11.5899C151.444 12.0596 151.649 12.47 152.028 12.9397L156.08 17.7819L151.707 23.0646C151.386 23.4167 151.211 23.7979 151.211 24.2968V24.2968Z" fill="black"/>
<path d="M0 19.9571C0 20.9258 0.787393 21.7184 1.74965 21.7184C2.74089 21.7184 3.52828 20.9258 3.52828 19.9571V19.1645C4.60745 20.6029 6.21021 21.8934 8.77624 21.8934C12.4204 21.8934 15.9187 18.9885 15.9187 13.8526V13.7943C15.9187 8.62921 12.3914 5.75348 8.77624 5.75348C6.26917 5.75348 4.6654 7.04499 3.52828 8.65838V1.76226C3.52828 0.764451 2.74089 0.0010053 1.74965 0.0010053C0.758415 0.0010053 0 0.763445 0 1.76226V19.9571V19.9571ZM7.92989 18.8125C5.53973 18.8125 3.44035 16.8169 3.44035 13.8526V13.7943C3.44035 10.83 5.53973 8.83441 7.92989 8.83441C10.32 8.83441 12.3325 10.8008 12.3325 13.7943V13.8526C12.3325 16.9044 10.35 18.8125 7.93089 18.8125H7.92989ZM20.754 12.7381C21.0748 10.3321 22.5906 8.65939 24.7479 8.65939C27.0801 8.65939 28.4211 10.4498 28.6549 12.7381H20.754ZM30.6953 19.8696C30.9581 19.6051 31.162 19.2239 31.162 18.7843C31.162 17.9625 30.5495 17.3459 29.7631 17.3459C29.3554 17.3459 29.1216 17.4636 28.8598 17.6688C27.8685 18.4906 26.7024 19.0187 25.2156 19.0187C22.9413 19.0187 21.1637 17.6105 20.784 15.0858H30.4335C31.3369 15.0858 32.0953 14.3817 32.0953 13.3839C32.0953 9.80405 29.6751 5.75348 24.7779 5.75348C20.3763 5.75348 17.2567 9.39265 17.2567 13.8234V13.8818C17.2567 18.6656 20.697 21.9226 25.1566 21.9226C27.5468 21.9226 29.2964 21.13 30.6953 19.8686V19.8696ZM36.8906 12.7381C37.2123 10.3321 38.7282 8.65939 40.8855 8.65939C43.2177 8.65939 44.5587 10.4498 44.7925 12.7381H36.8916H36.8906ZM46.8329 19.8696C47.0957 19.6051 47.2995 19.2239 47.2995 18.7843C47.2995 17.9625 46.687 17.3459 45.9006 17.3459C45.4929 17.3459 45.2591 17.4636 44.9973 17.6688C44.0061 18.4906 42.84 19.0187 41.3531 19.0187C39.0789 19.0187 37.3013 17.6105 36.9215 15.0858H46.5711C47.4744 15.0858 48.2328 14.3817 48.2328 13.3839C48.2328 9.80405 45.8127 5.75348 40.9155 5.75348C36.5139 5.75348 33.3943 9.39265 33.3943 13.8234V13.8818C33.3943 18.6656 36.8346 21.9226 41.2952 21.9226C43.6853 21.9226 45.435 21.13 46.8339 19.8686L46.8329 19.8696ZM55.5362 21.8361C56.3606 21.8435 57.1799 21.7046 57.9563 21.4257C58.451 21.2205 58.8886 20.6924 58.8886 20.0466C58.8886 19.2249 58.1892 18.5791 57.4028 18.5791C57.2859 18.5791 56.9361 18.6666 56.5284 18.6666C55.3324 18.6666 54.6339 18.1094 54.6339 16.7293V9.12912H57.4038C58.2491 9.12912 58.9486 8.45419 58.9486 7.60324C58.9486 6.75229 58.2491 6.07736 57.4038 6.07736H54.6339V3.43599C54.6339 2.46736 53.8465 1.67575 52.8842 1.67575C51.893 1.67575 51.1046 2.46836 51.1046 3.43599V6.07736H50.5211C50.3212 6.07636 50.1244 6.11458 49.9395 6.19103C49.7547 6.26747 49.5878 6.38013 49.4469 6.52195C49.306 6.66378 49.1941 6.83276 49.1191 7.01784C49.0435 7.20354 49.0051 7.40251 49.0062 7.60324C49.0051 7.80397 49.0435 8.00294 49.1191 8.18865C49.1951 8.37473 49.306 8.54271 49.4469 8.68454C49.5878 8.82636 49.7557 8.93902 49.9395 9.01546C50.1234 9.0919 50.3212 9.13013 50.5211 9.12912H51.1046V17.2876C51.1046 20.6914 52.9422 21.8361 55.5372 21.8361H55.5362ZM60.9031 19.9581C60.9031 20.9559 61.6905 21.7194 62.6527 21.7194C63.644 21.7194 64.4314 20.9559 64.4314 19.9581V12.8266C64.4314 10.4206 65.8602 8.98227 67.9007 8.98227C70.0001 8.98227 71.1951 10.3613 71.1951 12.7683V19.9581C71.1951 20.9559 71.9825 21.7194 72.9738 21.7194C73.965 21.7194 74.7234 20.9559 74.7234 19.9581V11.681C74.7234 8.10114 72.712 5.75247 69.2426 5.75247C66.8525 5.75247 65.4236 7.01482 64.4323 8.45218V1.76125C64.4323 0.792611 63.645 0 62.6537 0C61.6625 0 60.9041 0.792611 60.9041 1.76125V19.9561L60.9031 19.9581ZM84.8406 21.9246C89.593 21.9246 93.0913 18.2562 93.0913 13.8546V13.7963C93.0913 9.36449 89.6219 5.75549 84.8996 5.75549C80.1772 5.75549 76.6779 9.42384 76.6779 13.8546V13.913C76.6779 18.3146 80.1472 21.9246 84.8406 21.9246V21.9246ZM84.8986 18.8135C82.1577 18.8135 80.2052 16.5543 80.2052 13.8536V13.7953C80.2052 11.0956 82.0128 8.86559 84.8406 8.86559C87.6105 8.86559 89.564 11.1247 89.564 13.8546V13.913C89.564 16.5835 87.7564 18.8135 84.8996 18.8135H84.8986ZM103.081 20.3102L108.212 8.4542C108.338 8.18788 108.407 7.89807 108.415 7.60324C108.415 6.63461 107.658 5.90134 106.696 5.90134C105.762 5.90134 105.297 6.51793 105.034 7.13351L101.011 17.4636L97.0462 7.19285C96.7544 6.45959 96.2588 5.90134 95.2966 5.90134C94.3343 5.90134 93.5479 6.72312 93.5479 7.60324C93.5479 7.92612 93.6648 8.21983 93.7518 8.48336L98.8828 20.3102C99.2905 21.2496 99.932 21.8652 100.894 21.8652H101.069C102.031 21.8652 102.673 21.2195 103.081 20.3102ZM112.363 12.7391C112.684 10.3331 114.2 8.66039 116.357 8.66039C118.69 8.66039 120.03 10.4508 120.264 12.7391H112.363V12.7391ZM122.305 19.8706C122.597 19.5852 122.765 19.195 122.771 18.7853C122.771 17.9635 122.159 17.3469 121.371 17.3469C121.041 17.3357 120.718 17.4511 120.468 17.6698C119.477 18.4916 118.311 19.0197 116.824 19.0197C114.55 19.0197 112.772 17.6115 112.392 15.0868H122.042C122.946 15.0868 123.704 14.3827 123.704 13.3849C123.704 9.80506 121.285 5.75448 116.386 5.75448C111.985 5.75448 108.865 9.39366 108.865 13.8244V13.8828C108.865 18.6666 112.305 21.9236 116.766 21.9236C119.156 21.9236 120.906 21.131 122.305 19.8696V19.8706ZM125.848 19.9581C125.848 20.9559 126.634 21.7194 127.597 21.7194C128.588 21.7194 129.375 20.9559 129.375 19.9581V12.8266C129.375 10.4206 130.803 8.98227 132.845 8.98227C134.943 8.98227 136.139 10.3613 136.139 12.7683V19.9581C136.139 20.9559 136.925 21.7194 137.917 21.7194C138.908 21.7194 139.666 20.9559 139.666 19.9581V11.681C139.666 8.10114 137.655 5.75247 134.186 5.75247C131.794 5.75247 130.367 7.01482 129.375 8.45218V7.68874C129.376 7.45337 129.331 7.22001 129.242 7.00174C129.154 6.78379 129.023 6.5858 128.858 6.41935C128.692 6.25285 128.496 6.12107 128.279 6.03163C128.063 5.9422 127.831 5.89688 127.597 5.89832C126.605 5.89832 125.848 6.69093 125.848 7.68874V19.9551V19.9581ZM143.459 14.3233H148.94C149.872 14.3233 150.66 13.5307 150.66 12.5923C150.66 11.6236 149.872 10.832 148.94 10.832H143.459C142.526 10.832 141.739 11.6246 141.739 12.5923C141.739 13.5317 142.526 14.3233 143.459 14.3233Z" fill="#00E59D"/>
<path d="M152.094 20.2216C152.094 21.1017 152.823 21.7766 153.726 21.7766C154.368 21.7766 154.864 21.3653 155.271 20.8674L159.003 16.0252L162.735 20.8674C163.172 21.4548 163.668 21.7766 164.367 21.7766C165.242 21.7766 166 21.1309 166 20.1331C166 19.6633 165.796 19.253 165.416 18.7832L161.102 13.6473L165.272 8.62914C165.562 8.27709 165.767 7.92504 165.767 7.42614C165.767 6.54602 165.038 5.87109 164.105 5.87109C163.493 5.87109 162.997 6.25231 162.589 6.78038L159.061 11.3288L155.592 6.75121C155.155 6.19397 154.66 5.87109 153.96 5.87109C153.085 5.87109 152.328 6.51685 152.328 7.51466C152.328 7.98439 152.531 8.39478 152.91 8.86451L156.963 13.7067L152.589 18.9894C152.269 19.3415 152.094 19.7227 152.094 20.2216V20.2216Z" fill="#FF0000"/>
</svg>
