<svg width="484" height="60" viewBox="0 0 484 60" fill="none" xmlns="http://www.w3.org/2000/svg">
<mask id="mask0_2881_25732" style="mask-type:alpha" maskUnits="userSpaceOnUse" x="0" y="0" width="484" height="60">
<path d="M0 12C0 5.37258 5.37258 0 12 0H472C478.627 0 484 5.37258 484 12V60H0V12Z" fill="url(#paint0_linear_2881_25732)"/>
</mask>
<g mask="url(#mask0_2881_25732)">
<path opacity="0.17" d="M434.662 109C433.951 109 433.233 108.983 432.527 108.947C411.056 108.916 393.828 95.3932 387.557 73.6396C379.266 45.609 390.258 5.2306 433.519 -21.7303L443.889 -28V-16.117C443.889 6.28354 453.099 19.156 462.006 31.6021C469.375 41.8416 476.999 52.437 476.999 67.0404C477.168 90.0015 458.311 108.833 434.964 109H434.662ZM421.874 93.8635C422.793 94.1642 423.756 94.3175 424.725 94.3175H424.749C427.649 94.3175 430.493 93.2646 432.518 91.2198C438.389 85.2938 437.554 74.762 430.498 63.6144C418.546 44.8639 414.384 25.9037 418.217 8.13428C398.251 30.088 395.8 54.5416 400.382 69.9944C403.971 82.0439 411.579 90.4783 421.874 93.8635ZM433.101 5.02337C427.48 21.1314 430.493 38.4444 442.107 56.6236C450.179 69.3344 452.188 82.2248 447.939 92.3314C459.184 86.9816 463.37 75.9563 463.37 67.0368C463.37 56.8799 457.792 48.9391 451.331 39.7453L450.946 39.1979C444.605 30.433 436.944 19.8472 433.101 5.02337Z" fill="#06EBC8"/>
</g>
<defs>
<linearGradient id="paint0_linear_2881_25732" x1="396.873" y1="56.4037" x2="393.479" y2="-15.3212" gradientUnits="userSpaceOnUse">
<stop stop-color="#1984FF"/>
<stop offset="1" stop-color="#4DD9F6"/>
</linearGradient>
</defs>
</svg>
