<svg width="74" height="60" viewBox="0 0 74 60" fill="none" xmlns="http://www.w3.org/2000/svg">
<g opacity="0.3">
<path d="M44.8788 35.5971L45.1411 35.9774C46.0545 37.3026 46.9441 38.5895 47.7788 39.862C49.0916 38.9523 50.48 38.1576 51.9287 37.4867C53.3192 36.8374 54.7708 36.3285 56.2621 35.9677C55.0265 34.0421 53.7126 32.1788 52.4055 30.3297C46.3454 21.6992 40.0754 12.7722 40.0754 -2.7618V-11L33.0185 -6.65845C3.57893 12.0426 -3.9026 40.0415 1.74014 59.4791C6.00678 74.5633 17.7191 83.9426 32.3436 83.9642C32.8205 83.9881 33.3118 84 33.7984 84H34.0035C39.8671 83.9675 45.5794 82.1306 50.3688 78.7374C47.5234 77.3391 45.0375 75.3019 43.1044 72.7838C42.1463 71.5538 41.3055 70.2364 40.5931 68.8488C40.4022 68.4804 40.2186 68.1049 40.0468 67.7316C37.8861 63.0457 37.278 58.1349 38.2916 53.5301C38.6207 52.0367 39.1142 50.5846 39.763 49.2006C39.477 48.6982 39.1764 48.1935 38.864 47.6911C30.9602 35.085 28.9092 23.0794 32.7346 11.9109C35.351 22.1777 40.5645 29.5188 44.8788 35.5971ZM30.9699 52.5278C35.7731 60.259 36.3407 67.5619 32.3459 71.6642C31.6516 72.3576 30.8263 72.9051 29.9184 73.2749C29.0106 73.6445 28.0383 73.8288 27.0585 73.817H27.042C26.3821 73.8165 25.7266 73.7099 25.1006 73.5014C18.0911 71.1572 12.9111 65.3085 10.4594 56.9532C7.35903 46.2369 9.02848 29.2797 22.6058 14.0566C19.9991 26.3781 22.83 39.5248 30.9699 52.5278Z" fill="url(#paint0_linear_3170_22421)"/>
<path d="M76 69.5333C72.499 73.3604 67.9295 75.829 62.8042 76.3457C59.4105 76.6878 56.217 76.3457 53.398 75.3698C51.6144 74.7602 49.9456 73.8546 48.4613 72.6908C45.9607 70.6947 44.0936 68.0117 43.088 64.9691C42.6662 63.7322 42.3619 62.4579 42.1794 61.1634C42.1292 60.8213 42.0863 60.4721 42.0505 60.118C41.6021 55.6402 42.5275 51.7722 44.4354 48.6483C46.8109 44.7708 50.6768 42.0462 55.2965 40.7043C56.6768 40.3047 58.0905 40.0326 59.5201 39.891C61.203 39.7145 62.9019 39.7652 64.5714 40.0417C65.5138 40.2049 66.4415 40.4449 67.3451 40.7593C69.2593 41.4311 71.0456 42.4243 72.6277 43.6967L71.1492 46.0721L70.9107 46.4405L70.083 47.768L68.9121 49.6362C67.6743 48.7774 66.1931 47.7417 64.9005 47.292C64.736 47.237 64.5738 47.182 64.4235 47.134C63.0762 46.7274 61.6617 46.5915 60.2619 46.7346C58.9673 46.8535 57.6966 47.1588 56.4889 47.6412C51.9384 49.5023 49.3341 53.8247 49.8874 59.2928C49.9548 59.9744 50.0726 60.6502 50.2403 61.3141C50.9558 64.1558 52.5443 66.378 54.7383 67.7726C55.4302 68.2195 56.1732 68.581 56.9516 68.849C58.7009 69.4351 60.5568 69.6303 62.3893 69.4208C66.0382 69.0548 69.3198 66.4043 71.5426 64.0888L73.5269 66.5862L76 69.5333Z" fill="url(#paint1_linear_3170_22421)"/>
</g>
<defs>
<linearGradient id="paint0_linear_3170_22421" x1="51.3371" y1="78.3045" x2="1.9806" y2="-6.93061" gradientUnits="userSpaceOnUse">
<stop offset="0.26" stop-color="#01AEF3"/>
<stop offset="0.86" stop-color="#14E8E3"/>
</linearGradient>
<linearGradient id="paint1_linear_3170_22421" x1="42.8975" y1="51.9816" x2="77.8985" y2="64.0658" gradientUnits="userSpaceOnUse">
<stop offset="0.26" stop-color="#01AEF3"/>
<stop offset="0.86" stop-color="#14E8E3"/>
</linearGradient>
</defs>
</svg>
