<svg width="106" height="120" viewBox="0 0 106 120" fill="none" xmlns="http://www.w3.org/2000/svg">
<g opacity="0.2">
<path d="M69.7948 119.065C67.7677 119.647 66.3805 119.921 65.9741 119.997C65.9364 120.004 65.8976 120.001 65.8613 119.989C65.825 119.976 65.7924 119.955 65.7668 119.926L62.3116 116.173L61.5968 115.458C54.7615 109.138 45.6266 86.2349 61.4417 83.6235C75.7145 81.27 82.1596 96.4241 83.2907 99.4321C83.3065 99.4749 83.3351 99.5119 83.3726 99.538C83.4101 99.5641 83.4547 99.5781 83.5004 99.5781C83.5461 99.5781 83.5907 99.5641 83.6282 99.538C83.6657 99.5119 83.6943 99.4749 83.7101 99.4321C84.5898 97.0932 85.4059 90.3837 85.4336 90.1584V90.1519C86.3362 78.6554 72.2332 77.9601 70.1767 77.9112C70.1467 77.9108 70.1171 77.9043 70.0897 77.8921C70.0622 77.88 70.0376 77.8624 70.0171 77.8404C69.9967 77.8184 69.9809 77.7926 69.9707 77.7643C69.9606 77.7361 69.9563 77.7061 69.958 77.6761C70.0331 76.1844 68.6523 71.9279 68.1497 70.4361C68.1353 70.3937 68.134 70.3479 68.1459 70.3048C68.1578 70.2616 68.1824 70.223 68.2165 70.194C68.2507 70.165 68.2927 70.1468 68.3372 70.142C68.3818 70.1372 68.4267 70.1458 68.4663 70.1668C75.2624 73.6873 78.0516 76.3933 78.9117 77.3611C78.9406 77.393 78.9781 77.4158 79.0195 77.4271C79.061 77.4383 79.1049 77.4375 79.1459 77.4246C79.1869 77.4117 79.2234 77.3874 79.251 77.3545C79.2787 77.3215 79.2963 77.2814 79.3018 77.2387C81.1069 63.609 71.0711 59.3966 58.3407 53.5928C46.8932 48.3701 35.9613 36.7283 33.6519 34.1806C33.6204 34.1457 33.5787 34.1217 33.5327 34.1119C33.4867 34.1021 33.4388 34.107 33.3958 34.126C33.3528 34.1449 33.3168 34.177 33.2931 34.2176C33.2693 34.2581 33.259 34.3052 33.2635 34.352C33.3337 35.1435 33.4185 35.9074 33.5148 36.6483C35.5908 52.6429 43.2993 57.1639 45.0783 58.0044C45.1141 58.0211 45.1448 58.0471 45.1672 58.0797C45.1896 58.1123 45.2029 58.1502 45.2058 58.1896C45.2086 58.2291 45.2008 58.2686 45.1833 58.304C45.1658 58.3394 45.1391 58.3695 45.106 58.3912C35.1991 65.0959 27.8204 75.5054 22.6874 84.9569C17.0289 95.3747 14.1107 104.635 13.5558 106.473C13.5447 106.509 13.5249 106.541 13.4983 106.567C13.4716 106.593 13.4389 106.612 13.4031 106.623C13.3672 106.633 13.3293 106.635 13.2928 106.627C13.2562 106.62 13.2221 106.603 13.1935 106.579C12.4047 105.901 11.6599 105.208 10.9592 104.5C-1.98995 91.4184 -0.277873 73.3266 0.592038 67.9178C0.601715 67.8645 0.630281 67.8165 0.672497 67.7825C0.714713 67.7486 0.767753 67.731 0.821891 67.7329C0.876028 67.7349 0.927636 67.7564 0.967255 67.7933C1.00687 67.8303 1.03185 67.8802 1.0376 67.9341C1.42114 71.9621 1.79979 74.5082 2.1409 76.0946V76.1126C2.50813 77.8149 2.82965 78.4187 3.06957 78.5803C3.10736 78.6114 3.15424 78.6293 3.20312 78.6314C3.252 78.6334 3.30023 78.6195 3.3405 78.5917C3.36553 78.5749 3.3937 78.5632 3.42333 78.5574C3.45296 78.5516 3.48345 78.5519 3.51299 78.5581C3.54253 78.5644 3.57051 78.5765 3.59527 78.5938C3.62003 78.611 3.64106 78.6331 3.65713 78.6587C3.77627 78.8464 3.89705 79.0259 4.01782 79.1989C9.89339 87.5699 18.3624 79.9317 13.4514 71.2179C12.5779 69.6443 11.8936 67.9728 11.4129 66.2383C11.2954 65.8254 11.1876 65.4092 11.0865 64.9947C9.31399 57.5115 10.618 49.9891 10.6719 49.6839V49.6644C14.0993 36.8262 36.9324 15.023 48.1744 4.88925C50.6698 2.64021 52.5941 0.972205 53.6093 0.0892371L53.6484 0.0565956C53.6868 0.0233016 53.7354 0.00408804 53.7862 0.00212074C53.837 0.000153447 53.887 0.0155514 53.9278 0.0457748C53.9687 0.0759982 53.9981 0.119244 54.0111 0.168384C54.024 0.217524 54.0199 0.269627 53.9993 0.316102C52.2008 4.51713 45.3459 22.2565 53.934 32.7019C56.6646 36.0232 59.0278 37.7859 61.0141 38.5971C62.7768 39.3185 64.2457 39.294 65.4208 38.948C66.7755 38.524 67.9515 37.6631 68.765 36.4998C68.7843 36.471 68.7966 36.438 68.8009 36.4035C69.8976 27.5755 72.145 23.6454 73.7298 21.9235C74.1084 21.4981 74.5485 21.1317 75.0355 20.8365L75.1791 20.7582C75.2127 20.7413 75.25 20.733 75.2876 20.7342C75.3251 20.7353 75.3618 20.7459 75.3943 20.7649C75.4267 20.7839 75.4539 20.8107 75.4734 20.8429C75.4928 20.875 75.5039 20.9116 75.5055 20.9491C76.0425 34.3144 79.8274 33.1507 91.1607 48.3685C102.391 63.4491 95.9591 79.948 95.7306 80.5062V80.5209C101.727 77.6467 103.708 70.7577 104.307 67.6844C104.317 67.6315 104.346 67.5839 104.388 67.5503C104.43 67.5168 104.482 67.4995 104.536 67.5017C104.59 67.5039 104.641 67.5254 104.68 67.5622C104.719 67.5991 104.744 67.6488 104.75 67.7024C104.768 67.8443 104.784 67.9863 104.8 68.1283V68.1398C108.967 104.337 80.4916 115.988 69.7948 119.065Z" fill="#F1652C"/>
<path d="M60.3499 38.7404C52.6448 40.1864 46.1506 32.6755 44.5316 30.6043C44.5023 30.5673 44.4855 30.5221 44.4836 30.475C44.4816 30.4278 44.4946 30.3813 44.5207 30.342C44.5468 30.3028 44.5846 30.2727 44.6287 30.2562C44.6729 30.2397 44.7212 30.2376 44.7666 30.2502L47.4759 30.9569C47.5155 30.9669 47.557 30.966 47.5961 30.9543C47.6352 30.9426 47.6704 30.9204 47.6978 30.8903C47.7253 30.8601 47.7441 30.823 47.7522 30.783C47.7602 30.743 47.7572 30.7015 47.7436 30.6631C47.7093 30.5717 47.6766 30.4803 47.644 30.3873C43.3891 18.4125 49.263 6.6059 53.6061 0.113398C53.618 0.0957847 53.6323 0.0798627 53.6485 0.0660659L53.6632 0.0546424C53.7016 0.0213485 53.7502 0.00213494 53.801 0.000167643C53.8518 -0.00179965 53.9017 0.0135958 53.9426 0.0438192C53.9835 0.0740426 54.0128 0.117288 54.0258 0.166429C54.0388 0.215569 54.0347 0.267671 54.0141 0.314146C52.2008 4.51681 45.346 22.2561 53.9341 32.7016C56.3823 35.69 58.5497 37.4167 60.4054 38.3225C60.4466 38.3436 60.4802 38.3769 60.5016 38.4178C60.5231 38.4587 60.5313 38.5053 60.5252 38.5511C60.5192 38.5969 60.499 38.6397 60.4676 38.6736C60.4363 38.7075 60.3951 38.7308 60.3499 38.7404V38.7404Z" fill="#F89733"/>
<path d="M95.7161 80.5072V80.5219C97.8231 60.7098 85.6574 52.3893 82.2316 50.4585C82.1879 50.4337 82.1539 50.3949 82.1349 50.3484C82.116 50.3018 82.1133 50.2503 82.1272 50.202C82.1412 50.1537 82.171 50.1115 82.2118 50.0823C82.2527 50.053 82.3022 50.0384 82.3524 50.0407L84.9817 50.1419C85.0274 50.1436 85.0726 50.1313 85.1111 50.1066C85.1497 50.082 85.1798 50.0462 85.1975 50.0041C85.2152 49.9619 85.2197 49.9153 85.2103 49.8706C85.2009 49.8258 85.1781 49.785 85.1449 49.7535C75.6787 40.9858 74.6766 28.2587 75.0145 20.9599C75.017 20.9207 75.0297 20.8829 75.0511 20.85C75.0725 20.8171 75.1021 20.7904 75.1369 20.7722L75.1646 20.7575C75.1982 20.7406 75.2355 20.7323 75.2731 20.7335C75.3106 20.7347 75.3473 20.7452 75.3798 20.7642C75.4122 20.7832 75.4394 20.81 75.4589 20.8422C75.4783 20.8744 75.4894 20.9109 75.4911 20.9485C76.028 34.3138 79.8129 33.1501 91.1462 48.3678C102.377 63.4501 95.9446 79.949 95.7161 80.5072Z" fill="#F89733"/>
<path d="M73.4427 117.407C89.7376 109.009 94.9 92.02 95.9755 87.726C95.9874 87.6761 96.0161 87.6318 96.0568 87.6006C96.0974 87.5693 96.1476 87.553 96.1989 87.5543C96.2501 87.5557 96.2994 87.5746 96.3384 87.6079C96.3773 87.6412 96.4037 87.687 96.4129 87.7374L97.4444 92.7643C97.4518 92.8009 97.4682 92.835 97.4921 92.8637C97.5159 92.8924 97.5466 92.9147 97.5812 92.9286C97.6158 92.9425 97.6534 92.9476 97.6905 92.9435C97.7276 92.9393 97.763 92.9259 97.7937 92.9046C102.155 89.8379 103.896 78.4083 104.583 70.708C104.588 70.6518 104.614 70.5994 104.655 70.5613C104.697 70.5231 104.751 70.502 104.808 70.502C104.864 70.502 104.918 70.5231 104.96 70.5613C105.002 70.5994 105.027 70.6518 105.032 70.708C107.335 101.276 85.69 113.441 73.6206 117.819C73.5661 117.842 73.5044 117.843 73.4492 117.821C73.3939 117.799 73.3496 117.757 73.326 117.702C73.3024 117.647 73.3015 117.586 73.3234 117.531C73.3452 117.475 73.3882 117.431 73.4427 117.407V117.407Z" fill="#F89733"/>
<path d="M10.0404 103.535C-3.98752 88.2814 0.727625 67.0217 0.890835 66.3394V66.3052C0.903892 66.0538 0.921845 65.8155 0.94143 65.5724C0.944829 65.5164 0.96916 65.4637 1.00959 65.4248C1.05003 65.3859 1.10361 65.3636 1.15971 65.3624C1.2158 65.3611 1.27031 65.381 1.31241 65.4181C1.35451 65.4552 1.38114 65.5068 1.38699 65.5626C1.9734 70.1603 2.85437 74.7156 4.02447 79.2004C4.25133 80.0687 4.47167 80.8717 4.67731 81.6029C5.34321 83.9253 5.89649 85.5199 6.13804 86.1989C6.15112 86.2356 6.15436 86.2751 6.14744 86.3135C6.14052 86.3519 6.12369 86.3878 6.09862 86.4176C6.07354 86.4475 6.04109 86.4703 6.00449 86.4837C5.96789 86.4972 5.92841 86.5008 5.88997 86.4943L3.64419 86.1205C3.60793 86.1145 3.57073 86.1175 3.5359 86.1292C3.50107 86.141 3.46967 86.1612 3.44449 86.188C3.41932 86.2147 3.40113 86.2473 3.39156 86.2828C3.38198 86.3183 3.3813 86.3556 3.38958 86.3915C3.89554 88.6519 7.33438 96.5105 10.4076 103.287C10.4288 103.335 10.4324 103.389 10.4178 103.44C10.4031 103.491 10.3712 103.535 10.3275 103.564C10.2838 103.594 10.2311 103.607 10.1787 103.602C10.1262 103.596 10.0773 103.573 10.0404 103.535V103.535Z" fill="#E45E22"/>
<path d="M15.0901 83.297C13.7844 84.2762 9.86733 86.0716 7.25597 84.4395C6.48561 83.9498 5.57327 82.9804 4.68377 81.6061C4.06704 80.6446 3.52992 79.6342 3.07778 78.5851V78.5851C2.72563 77.7783 2.41459 76.9541 2.14585 76.1157V76.0978C1.1419 72.9418 0.716699 69.6304 0.890767 66.3231C0.905456 66.0652 0.921779 65.8155 0.942996 65.5724C0.946395 65.5164 0.970724 65.4637 1.01116 65.4248C1.05159 65.3859 1.10517 65.3636 1.16127 65.3624C1.21736 65.3611 1.27187 65.381 1.31398 65.4181C1.35608 65.4552 1.3827 65.5068 1.38856 65.5626C1.97253 70.1464 2.84968 74.688 4.01461 79.1596C4.02093 79.1867 4.03258 79.2122 4.04889 79.2347C9.92446 87.5502 18.3624 79.9218 13.458 71.2194C13.0748 70.5368 12.7299 69.8333 12.4248 69.1124C12.4049 69.0594 12.4057 69.0008 12.427 68.9484C12.4484 68.8959 12.4887 68.8534 12.5399 68.8293C12.5911 68.8053 12.6496 68.8014 12.7036 68.8184C12.7576 68.8355 12.8031 68.8723 12.8312 68.9214C14.3001 71.6699 15.6189 73.9809 16.2325 74.6468C18.0278 76.6054 16.3957 82.3177 15.0901 83.297Z" fill="#F89733"/>
<path d="M46.784 6.76618C39.3351 16.722 26.7777 33.9162 23.001 41.4859C22.9789 41.5311 22.9421 41.5675 22.8967 41.5892C22.8513 41.6109 22.7999 41.6166 22.7508 41.6055C22.7017 41.5944 22.6578 41.567 22.6262 41.5278C22.5946 41.4886 22.5772 41.4399 22.5767 41.3896L22.4494 35.6152C22.4478 35.5689 22.4321 35.5242 22.4042 35.4872C22.3763 35.4502 22.3377 35.4226 22.2937 35.4084C22.2496 35.3941 22.2022 35.3938 22.1579 35.4074C22.1136 35.4211 22.0746 35.448 22.0462 35.4847C20.1824 37.9328 12.2047 49.1845 11.1862 63.2581C11.1836 63.3133 11.1607 63.3656 11.1219 63.4048C11.0831 63.4441 11.0311 63.4676 10.976 63.4709C10.9209 63.4741 10.8665 63.4568 10.8234 63.4224C10.7802 63.3879 10.7513 63.3387 10.7423 63.2843C9.51495 56.4066 10.6313 49.9679 10.6819 49.6856V49.666C13.9461 37.4579 34.7473 17.1447 46.4478 6.46587C46.4876 6.42129 46.5435 6.39435 46.6032 6.39098C46.6629 6.38762 46.7215 6.4081 46.7661 6.44792C46.8106 6.48774 46.8376 6.54365 46.8409 6.60333C46.8443 6.66302 46.8238 6.7216 46.784 6.76618V6.76618Z" fill="#E45E22"/>
<path d="M74.2001 37.9455L71.8335 36.1698C71.8044 36.148 71.7704 36.1337 71.7345 36.128C71.6986 36.1223 71.6619 36.1255 71.6275 36.1372C71.5931 36.149 71.5621 36.1689 71.5371 36.1954C71.5121 36.2218 71.494 36.2539 71.4843 36.2889C71.197 37.3073 69.9991 40.3218 66.0347 39.1565C65.9925 39.1419 65.9556 39.115 65.9287 39.0793C65.9018 39.0436 65.8861 39.0007 65.8836 38.9561C65.8812 38.9115 65.8921 38.8671 65.9149 38.8287C65.9377 38.7903 65.9715 38.7595 66.0118 38.7403C67.1163 38.2644 68.0667 37.4908 68.757 36.506C68.7764 36.4771 68.7887 36.4442 68.7929 36.4097C69.7346 28.8269 71.5251 24.8593 73.0168 22.798C73.0474 22.7545 73.0926 22.7233 73.1441 22.7101C73.1956 22.6969 73.2502 22.7025 73.2979 22.7259C73.3457 22.7493 73.3836 22.789 73.4047 22.8378C73.4259 22.8866 73.429 22.9413 73.4134 22.9922C72.5614 26.0018 71.7993 29.4243 72.2138 30.9128C72.8307 33.1324 74.0091 36.2856 74.5445 37.6925C74.5589 37.7375 74.5589 37.7859 74.5444 37.8309C74.5298 37.8758 74.5015 37.9151 74.4634 37.9431C74.4253 37.9711 74.3794 37.9863 74.3321 37.9868C74.2849 37.9872 74.2387 37.9728 74.2001 37.9455V37.9455Z" fill="#E45E22"/>
<path d="M45.1061 58.3912C35.8667 64.6438 28.8242 74.1198 23.7549 83.0359C23.726 83.0826 23.6811 83.1171 23.6286 83.133C23.576 83.1489 23.5195 83.1451 23.4696 83.1222C23.4197 83.0994 23.3799 83.0591 23.3576 83.0089C23.3353 82.9588 23.332 82.9022 23.3485 82.8499C27.9837 69.3654 39.1832 59.4684 40.5721 58.2835C40.6115 58.2492 40.6377 58.2023 40.6464 58.1508C40.655 58.0993 40.6455 58.0464 40.6194 58.0011C39.9421 56.8407 35.8308 49.7002 34.1857 44.6179C33.5133 42.6039 33.2183 40.4831 33.3158 38.362C33.3202 38.3078 33.3442 38.257 33.3832 38.2191C33.4221 38.1811 33.4735 38.1586 33.5279 38.1556C33.5822 38.1526 33.6358 38.1694 33.6787 38.2028C33.7216 38.2363 33.7509 38.2841 33.7613 38.3375C36.1442 52.9677 43.363 57.1948 45.0783 57.9995C45.1153 58.0158 45.1471 58.0418 45.1704 58.0749C45.1937 58.1079 45.2075 58.1467 45.2103 58.187C45.2132 58.2273 45.205 58.2676 45.1866 58.3036C45.1682 58.3396 45.1404 58.3699 45.1061 58.3912Z" fill="#E45E22"/>
</g>
</svg>
