<svg width="82" height="80" viewBox="0 0 82 80" fill="none" xmlns="http://www.w3.org/2000/svg">
<path d="M42.2666 18.2387L44.7224 17.0378L45.7768 21.0053L43.3222 22.2062L42.2666 18.2387Z" fill="#03816E" stroke="black"/>
<path d="M45.189 19.7728L45.2628 19.0714L45.8587 21.3127L45.7849 22.0141L45.189 19.7728Z" fill="#03816E" stroke="black"/>
<mask id="path-3-inside-1_2868_23468" fill="white">
<path d="M45.2355 36.363L46.5517 41.314L46.4524 41.1454L45.1362 36.1943L45.2355 36.363Z"/>
</mask>
<path d="M45.2355 36.363L46.5517 41.314L46.4524 41.1454L45.1362 36.1943L45.2355 36.363Z" fill="#03816E"/>
<path d="M45.2355 36.363L46.202 36.1061L46.1668 35.9737L46.0973 35.8556L45.2355 36.363ZM46.5517 41.314L45.69 41.8214L47.5181 41.0571L46.5517 41.314ZM46.4524 41.1454L45.486 41.4023L45.5212 41.5347L45.5907 41.6527L46.4524 41.1454ZM45.1362 36.1943L45.998 35.687L44.1698 36.4513L45.1362 36.1943ZM44.2691 36.6199L45.5853 41.571L47.5181 41.0571L46.202 36.1061L44.2691 36.6199ZM47.4134 40.8067L47.3141 40.638L45.5907 41.6527L45.69 41.8214L47.4134 40.8067ZM47.4188 40.8885L46.1027 35.9374L44.1698 36.4513L45.486 41.4023L47.4188 40.8885ZM44.2745 36.7017L44.3738 36.8704L46.0973 35.8556L45.998 35.687L44.2745 36.7017Z" fill="black" mask="url(#path-3-inside-1_2868_23468)"/>
<path d="M42.3292 40.911C39.7139 36.0589 39.1491 31.588 40.5612 27.5257C41.4708 31.238 43.236 34.0814 44.6991 36.438L44.7083 36.4528L44.8046 36.6164L44.8046 36.6164L44.807 36.6204C46.5222 39.4721 47.8859 41.7623 47.5913 44.5509L47.5913 44.5511C47.3634 46.7168 46.1627 49.2631 43.5864 50.7235C44.6267 47.8497 44.1806 44.371 42.3299 40.9124L42.3292 40.911Z" fill="#05D2B2" stroke="black"/>
<mask id="path-6-outside-2_2868_23468" maskUnits="userSpaceOnUse" x="21.3225" y="12.3223" width="33" height="47" fill="black">
<rect fill="white" x="21.3225" y="12.3223" width="33" height="47"/>
<path d="M48.7585 34.1687C50.7004 37.3212 52.7086 40.5683 52.2562 44.8589C51.5989 51.6069 45.2403 56.7881 38.0825 56.4035C37.7672 56.3846 37.5513 56.3672 37.3369 56.3436C30.7607 55.9353 25.8979 51.64 24.6495 45.1332C22.9756 36.7443 27.5909 25.0863 41.6732 17.971L45.0432 16.3223L44.676 19.8121C43.9903 26.3946 46.4146 30.3463 48.7585 34.1687ZM37.8823 51.134C39.8652 49.5026 39.9314 46.3942 38.1171 42.9863C35.034 37.2566 34.3451 31.6089 36.068 26.4592C29.2727 32.5373 27.7658 39.6762 28.6927 44.3009C29.4193 47.9074 31.4905 50.5272 34.539 51.7094C34.8141 51.8154 35.1038 51.8786 35.3981 51.8969C36.293 51.9625 37.1798 51.6891 37.8823 51.1309M42.5717 51.7472C46.1829 50.3869 47.8064 47.2249 48.0886 44.6036C48.4038 41.6197 46.9395 39.1828 45.2418 36.3629L45.1425 36.1942C43.4701 33.5004 41.4509 30.2485 40.729 25.8224C38.5096 30.4503 38.8974 35.5952 41.8939 41.15C43.973 45.0339 44.1905 48.8579 42.5764 51.7472"/>
</mask>
<path d="M48.7585 34.1687C50.7004 37.3212 52.7086 40.5683 52.2562 44.8589C51.5989 51.6069 45.2403 56.7881 38.0825 56.4035C37.7672 56.3846 37.5513 56.3672 37.3369 56.3436C30.7607 55.9353 25.8979 51.64 24.6495 45.1332C22.9756 36.7443 27.5909 25.0863 41.6732 17.971L45.0432 16.3223L44.676 19.8121C43.9903 26.3946 46.4146 30.3463 48.7585 34.1687ZM37.8823 51.134C39.8652 49.5026 39.9314 46.3942 38.1171 42.9863C35.034 37.2566 34.3451 31.6089 36.068 26.4592C29.2727 32.5373 27.7658 39.6762 28.6927 44.3009C29.4193 47.9074 31.4905 50.5272 34.539 51.7094C34.8141 51.8154 35.1038 51.8786 35.3981 51.8969C36.293 51.9625 37.1798 51.6891 37.8823 51.1309M42.5717 51.7472C46.1829 50.3869 47.8064 47.2249 48.0886 44.6036C48.4038 41.6197 46.9395 39.1828 45.2418 36.3629L45.1425 36.1942C43.4701 33.5004 41.4509 30.2485 40.729 25.8224C38.5096 30.4503 38.8974 35.5952 41.8939 41.15C43.973 45.0339 44.1905 48.8579 42.5764 51.7472" fill="black"/>
<path d="M48.7585 34.1687L47.0535 35.2142L47.0556 35.2177L48.7585 34.1687ZM52.2562 44.8589L50.2672 44.6492L50.2664 44.6571L50.2656 44.665L52.2562 44.8589ZM38.0825 56.4035L37.9627 58.3999L37.9751 58.4006L38.0825 56.4035ZM37.3369 56.3436L37.5561 54.3556L37.5086 54.3504L37.4608 54.3474L37.3369 56.3436ZM24.6495 45.1332L26.6137 44.7564L26.6123 44.7491L26.6109 44.7418L24.6495 45.1332ZM41.6732 17.971L40.7943 16.1745L40.7827 16.1802L40.7712 16.186L41.6732 17.971ZM45.0432 16.3223L47.0322 16.5316L47.4105 12.9376L44.1643 14.5257L45.0432 16.3223ZM44.676 19.8121L42.6869 19.6028L42.6867 19.6049L44.676 19.8121ZM38.1171 42.9863L39.8826 42.0465L39.8783 42.0386L38.1171 42.9863ZM36.068 26.4592L37.9647 27.0938L40.3586 19.9381L34.7346 24.9685L36.068 26.4592ZM28.6927 44.3009L26.7317 44.6939L26.7321 44.696L28.6927 44.3009ZM34.539 51.7094L33.8159 53.5741L33.82 53.5757L34.539 51.7094ZM35.3981 51.8969L35.5443 49.9023L35.5334 49.9015L35.5224 49.9008L35.3981 51.8969ZM48.0886 44.6036L50.0771 44.8176L50.0775 44.8137L48.0886 44.6036ZM45.2418 36.3629L43.5184 37.3776L43.5233 37.386L43.5284 37.3944L45.2418 36.3629ZM45.1425 36.1942L46.866 35.1795L46.8541 35.1593L46.8417 35.1393L45.1425 36.1942ZM40.729 25.8224L42.7029 25.5004L41.6782 19.2179L38.9256 24.9576L40.729 25.8224ZM41.8939 41.15L43.6571 40.2061L43.6541 40.2004L41.8939 41.15ZM47.0556 35.2177C49.0409 38.4405 50.6384 41.1288 50.2672 44.6492L54.2452 45.0686C54.7788 40.0078 52.36 36.2019 50.4613 33.1198L47.0556 35.2177ZM50.2656 44.665C49.7215 50.2515 44.3771 54.7388 38.1898 54.4064L37.9751 58.4006C46.1035 58.8374 53.4764 52.9623 54.2468 45.0528L50.2656 44.665ZM38.2022 54.4071C37.9064 54.3893 37.7261 54.3744 37.5561 54.3556L37.1176 58.3315C37.3764 58.3601 37.628 58.3798 37.9627 58.3999L38.2022 54.4071ZM37.4608 54.3474C31.8025 53.9962 27.6914 50.3734 26.6137 44.7564L22.6854 45.51C24.1045 52.9067 29.719 57.8745 37.213 58.3397L37.4608 54.3474ZM26.6109 44.7418C25.1478 37.4097 29.1227 26.5531 42.5751 19.7561L40.7712 16.186C26.059 23.6195 20.8034 36.079 22.6882 45.5246L26.6109 44.7418ZM42.5521 19.7676L45.9222 18.1188L44.1643 14.5257L40.7943 16.1745L42.5521 19.7676ZM43.0542 16.1129L42.6869 19.6028L46.665 20.0214L47.0322 16.5316L43.0542 16.1129ZM42.6867 19.6049C41.9271 26.8977 44.6838 31.3497 47.0535 35.2142L50.4635 33.1232C48.1453 29.3428 46.0535 25.8914 46.6652 20.0193L42.6867 19.6049ZM39.153 52.6785C42.274 50.1107 41.8421 45.7271 39.8825 42.0465L36.3517 43.9262C38.0208 47.0613 37.4565 48.8945 36.6116 49.5896L39.153 52.6785ZM39.8783 42.0386C37.003 36.6951 36.45 31.6212 37.9647 27.0938L34.1713 25.8247C32.2403 31.5965 33.0649 37.8181 36.3559 43.934L39.8783 42.0386ZM34.7346 24.9685C27.4578 31.4773 25.6537 39.3153 26.7317 44.6939L30.6537 43.9079C29.8779 40.0371 31.0876 33.5972 37.4013 27.9499L34.7346 24.9685ZM26.7321 44.696C27.574 48.8748 30.0445 52.1115 33.8159 53.5741L35.2621 49.8447C32.9366 48.9428 31.2646 46.9401 30.6533 43.9059L26.7321 44.696ZM33.82 53.5757C34.2856 53.755 34.7758 53.8621 35.2737 53.8931L35.5224 49.9008C35.4318 49.8952 35.3427 49.8757 35.258 49.8431L33.82 53.5757ZM35.2519 53.8916C36.6476 53.9939 38.0307 53.5674 39.1265 52.6968L36.6381 49.565C36.3288 49.8108 35.9383 49.9312 35.5443 49.9023L35.2519 53.8916ZM43.2767 53.6188C47.7427 51.9365 49.7327 48.0175 50.0771 44.8176L46.1001 44.3895C45.8802 46.4323 44.6231 48.8373 41.8666 49.8756L43.2767 53.6188ZM50.0775 44.8137C50.4751 41.0503 48.5795 38.0293 46.9553 35.3314L43.5284 37.3944C45.2994 40.3363 46.3325 42.1891 46.0996 44.3934L50.0775 44.8137ZM46.9653 35.3481L46.866 35.1795L43.4191 37.209L43.5184 37.3776L46.9653 35.3481ZM46.8417 35.1393C45.1656 32.4396 43.3538 29.4911 42.7029 25.5004L38.7551 26.1444C39.548 31.0059 41.7746 34.5612 43.4434 37.2491L46.8417 35.1393ZM38.9256 24.9576C36.3659 30.2953 36.9109 36.1254 40.1336 42.0995L43.6541 40.2004C40.8839 35.0651 40.6534 30.6054 42.5324 26.6872L38.9256 24.9576ZM40.1306 42.0939C41.9969 45.5803 42.0133 48.6543 40.8304 50.7718L44.3224 52.7226C46.3676 49.0616 45.949 44.4875 43.6571 40.2061L40.1306 42.0939Z" fill="#05D2B2" mask="url(#path-6-outside-2_2868_23468)"/>
<mask id="path-8-inside-3_2868_23468" fill="white">
<path d="M70.6984 12.7539C77.4479 20.279 80.5847 29.9352 79.5255 39.9334C78.4662 49.9316 73.3591 59.0866 65.1216 65.7037C56.8812 72.3221 46.4668 75.6257 35.9181 74.9674C25.3304 74.3243 15.7751 69.8241 9.02868 62.2974C2.28227 54.7708 -0.857645 45.1162 0.201604 35.1179C1.26085 25.1197 6.36794 15.9632 14.6055 9.3476C22.8456 2.72851 33.2601 -0.575653 43.8089 0.0823254C54.3935 0.725441 63.952 5.22567 70.6984 12.7539ZM64.335 64.8163C72.3109 58.4088 77.2604 49.5439 78.2834 39.8577C79.3064 30.1716 76.2642 20.8228 69.729 13.5342C63.1938 6.24551 53.9411 1.88557 43.6749 1.26294C33.4582 0.62487 23.3713 3.82451 15.3905 10.235C7.41458 16.6441 2.46512 25.5074 1.44212 35.1936C0.419127 44.8797 3.46131 54.2285 9.9965 61.5172C16.5317 68.8058 25.7844 73.1642 36.0458 73.7884C46.2629 74.4256 56.35 71.2261 64.3319 64.8163"/>
</mask>
<path d="M70.6984 12.7539C77.4479 20.279 80.5847 29.9352 79.5255 39.9334C78.4662 49.9316 73.3591 59.0866 65.1216 65.7037C56.8812 72.3221 46.4668 75.6257 35.9181 74.9674C25.3304 74.3243 15.7751 69.8241 9.02868 62.2974C2.28227 54.7708 -0.857645 45.1162 0.201604 35.1179C1.26085 25.1197 6.36794 15.9632 14.6055 9.3476C22.8456 2.72851 33.2601 -0.575653 43.8089 0.0823254C54.3935 0.725441 63.952 5.22567 70.6984 12.7539ZM64.335 64.8163C72.3109 58.4088 77.2604 49.5439 78.2834 39.8577C79.3064 30.1716 76.2642 20.8228 69.729 13.5342C63.1938 6.24551 53.9411 1.88557 43.6749 1.26294C33.4582 0.62487 23.3713 3.82451 15.3905 10.235C7.41458 16.6441 2.46512 25.5074 1.44212 35.1936C0.419127 44.8797 3.46131 54.2285 9.9965 61.5172C16.5317 68.8058 25.7844 73.1642 36.0458 73.7884C46.2629 74.4256 56.35 71.2261 64.3319 64.8163" fill="#03816E"/>
<path d="M70.6984 12.7539L69.9537 13.4213L69.954 13.4216L70.6984 12.7539ZM65.1216 65.7037L65.7478 66.4834L65.7478 66.4833L65.1216 65.7037ZM35.9181 74.9674L35.9804 73.9694L35.9788 73.9693L35.9181 74.9674ZM14.6055 9.3476L15.2317 10.1273L15.2317 10.1272L14.6055 9.3476ZM43.8089 0.0823254L43.7467 1.08039L43.7483 1.08048L43.8089 0.0823254ZM43.6749 1.26294L43.6126 2.261L43.6144 2.26111L43.6749 1.26294ZM15.3905 10.235L14.7642 9.4554L14.7641 9.45552L15.3905 10.235ZM36.0458 73.7884L36.1081 72.7903L36.1065 72.7902L36.0458 73.7884ZM69.954 13.4216C76.5158 20.7374 79.5603 30.1131 78.531 39.8281L80.5199 40.0388C81.6092 29.7573 78.3801 19.8206 71.4428 12.0862L69.954 13.4216ZM78.531 39.8281C77.5013 49.5478 72.5363 58.4649 64.4953 64.9241L65.7478 66.4833C74.182 59.7083 79.4311 50.3155 80.5199 40.0388L78.531 39.8281ZM64.4954 64.9241C56.4493 71.3864 46.2804 74.6121 35.9804 73.9694L35.8559 75.9655C46.6532 76.6393 57.3131 73.2578 65.7478 66.4834L64.4954 64.9241ZM35.9788 73.9693C25.639 73.3412 16.3346 68.95 9.77333 61.63L8.28403 62.9649C15.2156 70.6981 25.0218 75.3074 35.8575 75.9656L35.9788 73.9693ZM9.77333 61.63C3.21428 54.3123 0.166828 44.938 1.19604 35.2233L-0.792831 35.0126C-1.88212 45.2943 1.35027 55.2292 8.28403 62.9649L9.77333 61.63ZM1.19604 35.2233C2.22579 25.5035 7.19085 16.5849 15.2317 10.1273L13.9793 8.56791C5.54503 15.3415 0.295918 24.7359 -0.792831 35.0126L1.19604 35.2233ZM15.2317 10.1272C23.2776 3.66419 33.4465 0.43792 43.7467 1.08039L43.8712 -0.915735C33.0736 -1.58923 22.4136 1.79284 13.9792 8.56798L15.2317 10.1272ZM43.7483 1.08048C54.0849 1.70854 63.3925 6.09974 69.9537 13.4213L71.4431 12.0865C64.5115 4.3516 54.7021 -0.257654 43.8696 -0.915834L43.7483 1.08048ZM64.9613 65.5959C73.1336 59.0306 78.2254 49.9279 79.2778 39.9628L77.2889 39.7527C76.2954 49.1599 71.4882 57.787 63.7087 64.0367L64.9613 65.5959ZM79.2778 39.9628C80.3308 29.9932 77.1961 20.3642 70.4735 12.8666L68.9844 14.2017C75.3322 21.2813 78.282 30.35 77.2889 39.7527L79.2778 39.9628ZM70.4735 12.8666C63.7532 5.37146 54.2497 0.902447 43.7355 0.264779L43.6144 2.26111C53.6325 2.86869 62.6344 7.11957 68.9844 14.2017L70.4735 12.8666ZM43.7373 0.264889C33.2718 -0.388719 22.9394 2.88882 14.7642 9.4554L16.0167 11.0147C23.8033 4.76021 33.6446 1.63846 43.6126 2.261L43.7373 0.264889ZM14.7641 9.45552C6.59194 16.0223 1.50012 25.1234 0.447653 35.0886L2.43659 35.2986C3.43012 25.8915 8.23722 17.2659 16.0169 11.0146L14.7641 9.45552ZM0.447653 35.0886C-0.605272 45.0581 2.52936 54.6871 9.25196 62.1847L10.741 60.8496C4.39327 53.77 1.44353 44.7014 2.43659 35.2986L0.447653 35.0886ZM9.25196 62.1847C15.9723 69.6799 25.4757 74.1473 35.9851 74.7865L36.1065 72.7902C26.093 72.1811 17.0911 67.9317 10.741 60.8496L9.25196 62.1847ZM35.9836 74.7864C46.4493 75.4392 56.7819 72.1618 64.958 65.596L63.7057 64.0366C55.9181 70.2904 46.0765 73.4121 36.1081 72.7903L35.9836 74.7864Z" fill="black" mask="url(#path-8-inside-3_2868_23468)"/>
<mask id="path-10-inside-4_2868_23468" fill="white">
<path d="M69.7289 13.533C76.2641 20.8232 79.3015 30.172 78.2833 39.8566C77.265 49.5411 72.3108 58.4076 64.3349 64.8151C56.3532 71.2252 46.266 74.4248 36.0489 73.7872C25.7874 73.1567 16.5363 68.8062 9.99954 61.516C3.46278 54.2258 0.425323 44.888 1.44359 35.194C2.46185 25.5 7.41763 16.6429 15.3935 10.2354C23.3736 3.82566 33.4591 0.626065 43.6748 1.26334C53.941 1.88597 63.1921 6.24276 69.7289 13.533ZM37.9892 56.3947C45.2401 56.7856 51.5987 51.6045 52.256 44.8565C52.7084 40.5659 50.7002 37.3125 48.7583 34.1663C46.4144 30.3438 43.9901 26.3906 44.6821 19.8097L45.0493 16.3198L41.6793 17.967C27.597 25.087 22.9753 36.745 24.6493 45.1339C25.8977 51.6407 30.7605 55.9344 37.3367 56.3443C37.551 56.3679 37.7717 56.3853 37.9892 56.3979"/>
</mask>
<path d="M69.7289 13.533C76.2641 20.8232 79.3015 30.172 78.2833 39.8566C77.265 49.5411 72.3108 58.4076 64.3349 64.8151C56.3532 71.2252 46.266 74.4248 36.0489 73.7872C25.7874 73.1567 16.5363 68.8062 9.99954 61.516C3.46278 54.2258 0.425323 44.888 1.44359 35.194C2.46185 25.5 7.41763 16.6429 15.3935 10.2354C23.3736 3.82566 33.4591 0.626065 43.6748 1.26334C53.941 1.88597 63.1921 6.24276 69.7289 13.533ZM37.9892 56.3947C45.2401 56.7856 51.5987 51.6045 52.256 44.8565C52.7084 40.5659 50.7002 37.3125 48.7583 34.1663C46.4144 30.3438 43.9901 26.3906 44.6821 19.8097L45.0493 16.3198L41.6793 17.967C27.597 25.087 22.9753 36.745 24.6493 45.1339C25.8977 51.6407 30.7605 55.9344 37.3367 56.3443C37.551 56.3679 37.7717 56.3853 37.9892 56.3979" fill="#05D2B2"/>
<path d="M69.7289 13.533L70.4735 12.8655L70.4734 12.8654L69.7289 13.533ZM64.3349 64.8151L64.9611 65.5948L64.9612 65.5947L64.3349 64.8151ZM36.0489 73.7872L36.1111 72.7891L36.1102 72.7891L36.0489 73.7872ZM15.3935 10.2354L14.7673 9.45579L14.7672 9.45584L15.3935 10.2354ZM43.6748 1.26334L43.6126 2.2614L43.6143 2.26151L43.6748 1.26334ZM52.256 44.8565L51.2615 44.7516L51.2607 44.7595L52.256 44.8565ZM48.7583 34.1663L47.9058 34.689L47.9073 34.6915L48.7583 34.1663ZM44.6821 19.8097L43.6876 19.705L43.6875 19.7051L44.6821 19.8097ZM45.0493 16.3198L46.0438 16.4245L46.2329 14.6283L44.6102 15.4214L45.0493 16.3198ZM41.6793 17.967L41.2401 17.0685L41.2281 17.0746L41.6793 17.967ZM24.6493 45.1339L25.6314 44.9455L25.63 44.9382L24.6493 45.1339ZM37.3367 56.3443L37.4463 55.3503L37.4226 55.3477L37.3989 55.3462L37.3367 56.3443ZM68.9843 14.2005C75.3319 21.2815 78.2773 30.3502 77.2887 39.752L79.2778 39.9611C80.3258 29.9938 77.1962 20.3649 70.4735 12.8655L68.9843 14.2005ZM77.2887 39.752C76.2999 49.157 71.4883 57.7856 63.7086 64.0355L64.9612 65.5947C73.1332 59.0296 78.2301 49.9253 79.2778 39.9611L77.2887 39.752ZM63.7087 64.0354C55.9213 70.2895 46.0796 73.4112 36.1111 72.7891L35.9866 74.7853C46.4524 75.4383 56.7851 72.1609 64.9611 65.5948L63.7087 64.0354ZM36.1102 72.7891C26.0957 72.1738 17.0954 67.9318 10.7441 60.8484L9.25501 62.1836C15.9772 69.6806 25.4791 74.1396 35.9875 74.7853L36.1102 72.7891ZM10.7441 60.8484C4.39486 53.7674 1.44956 44.7096 2.43812 35.2984L0.44906 35.0895C-0.598914 45.0664 2.5307 54.6842 9.25501 62.1836L10.7441 60.8484ZM2.43812 35.2984C3.42698 25.8844 8.23982 17.2651 16.0198 11.015L14.7672 9.45584C6.59543 16.0207 1.49673 25.1155 0.44906 35.0895L2.43812 35.2984ZM16.0197 11.0151C23.8055 4.76135 33.6456 1.63964 43.6126 2.2614L43.7371 0.265282C33.2727 -0.387509 22.9416 2.88998 14.7673 9.45579L16.0197 11.0151ZM43.6143 2.26151C53.6326 2.8691 62.6328 7.1169 68.9843 14.2006L70.4734 12.8654C63.7514 5.36861 54.2495 0.902836 43.7354 0.265176L43.6143 2.26151ZM37.9354 57.3933C45.6672 57.8101 52.537 52.2863 53.2513 44.9534L51.2607 44.7595C50.6604 50.9226 44.8129 55.7612 38.0431 55.3962L37.9354 57.3933ZM53.2505 44.9613C53.7435 40.2857 51.5303 36.7534 49.6092 33.641L47.9073 34.6915C49.8702 37.8716 51.6733 40.8461 51.2615 44.7516L53.2505 44.9613ZM49.6108 33.6435C47.2798 29.8421 45.022 26.1394 45.6766 19.9142L43.6875 19.7051C42.9582 26.6417 45.549 30.8455 47.9058 34.689L49.6108 33.6435ZM45.6766 19.9143L46.0438 16.4245L44.0548 16.2151L43.6876 19.705L45.6766 19.9143ZM44.6102 15.4214L41.2402 17.0686L42.1184 18.8654L45.4884 17.2182L44.6102 15.4214ZM41.2281 17.0746C26.8314 24.3535 21.8892 36.412 23.6687 45.3296L25.63 44.9382C24.0615 37.0781 28.3625 25.8205 42.1305 18.8594L41.2281 17.0746ZM23.6672 45.3223C25.001 52.2742 30.2398 56.9039 37.2745 57.3423L37.3989 55.3462C31.2812 54.965 26.7944 51.0072 25.6314 44.9455L23.6672 45.3223ZM37.227 57.3382C37.4622 57.3642 37.7005 57.3828 37.9314 57.3962L38.0471 55.3995C37.8429 55.3877 37.6399 55.3717 37.4463 55.3503L37.227 57.3382Z" fill="black" mask="url(#path-10-inside-4_2868_23468)"/>
<path d="M35.4417 51.4021L35.4417 51.4021L35.4352 51.4017C35.19 51.3873 34.9486 51.3351 34.7194 51.247C31.8516 50.1317 29.8804 47.6661 29.1811 44.2062C28.3548 40.0722 29.5403 33.7496 35.0962 28.0786C34.0082 32.8866 34.8882 38.0416 37.6762 43.2231C39.4539 46.56 39.263 49.3478 37.5676 50.746C36.9662 51.2232 36.2076 51.4574 35.4417 51.4021Z" fill="#05D2B2" stroke="black"/>
<mask id="path-13-inside-5_2868_23468" fill="white">
<path d="M78.5701 27.2051L79.8863 32.1561C80.9826 36.3049 81.309 40.6195 80.8494 44.886C80.5393 47.8374 79.8713 50.7402 78.8601 53.5303L77.5439 48.5792C78.5544 45.7884 79.2223 42.8852 79.5332 39.9334C79.9926 35.6679 79.6662 31.3544 78.5701 27.2067"/>
</mask>
<path d="M78.5701 27.2051L79.8863 32.1561C80.9826 36.3049 81.309 40.6195 80.8494 44.886C80.5393 47.8374 79.8713 50.7402 78.8601 53.5303L77.5439 48.5792C78.5544 45.7884 79.2223 42.8852 79.5332 39.9334C79.9926 35.6679 79.6662 31.3544 78.5701 27.2067" fill="#03816E"/>
<path d="M79.8863 32.1561L80.8531 31.9006L80.8527 31.8992L79.8863 32.1561ZM80.8494 44.886L79.8551 44.7789L79.8548 44.7815L80.8494 44.886ZM78.8601 53.5303L77.8937 53.7872L78.7133 56.8703L79.8003 53.871L78.8601 53.5303ZM77.5439 48.5792L76.6037 48.2388L76.497 48.5334L76.5775 48.8361L77.5439 48.5792ZM79.5332 39.9334L78.5389 39.8263L78.5387 39.8287L79.5332 39.9334ZM77.6037 27.462L78.9198 32.413L80.8527 31.8992L79.5365 26.9482L77.6037 27.462ZM78.9195 32.4116C79.9846 36.4422 80.3017 40.6339 79.8551 44.7789L81.8436 44.9931C82.3164 40.6051 81.9807 36.1676 80.8531 31.9006L78.9195 32.4116ZM79.8548 44.7815C79.5532 47.6523 78.9035 50.4757 77.92 53.1895L79.8003 53.871C80.8391 51.0046 81.5253 48.0226 81.8439 44.9905L79.8548 44.7815ZM79.8266 53.2733L78.5104 48.3223L76.5775 48.8361L77.8937 53.7872L79.8266 53.2733ZM78.4842 48.9196C79.5222 46.0527 80.2084 43.0704 80.5277 40.0381L78.5387 39.8287C78.2363 42.7 77.5865 45.524 76.6037 48.2388L78.4842 48.9196ZM80.5274 40.0405C81 35.6535 80.6642 31.2171 79.5369 26.9512L77.6033 27.4621C78.6682 31.4917 78.9853 35.6824 78.5389 39.8263L80.5274 40.0405Z" fill="black" mask="url(#path-13-inside-5_2868_23468)"/>
<mask id="path-15-inside-6_2868_23468" fill="white">
<path d="M77.544 48.5771L78.8602 53.5282C77.9057 56.159 76.6606 58.675 75.1481 61.0296L73.8303 56.077C75.3442 53.7235 76.5899 51.2079 77.544 48.5771"/>
</mask>
<path d="M77.544 48.5771L78.8602 53.5282C77.9057 56.159 76.6606 58.675 75.1481 61.0296L73.8303 56.077C75.3442 53.7235 76.5899 51.2079 77.544 48.5771" fill="#03816E"/>
<path d="M78.8602 53.5282L79.8002 53.8693L79.9072 53.5744L79.8266 53.2713L78.8602 53.5282ZM75.1481 61.0296L74.1817 61.2868L74.7645 63.4771L75.9894 61.5701L75.1481 61.0296ZM73.8303 56.077L72.9893 55.536L72.7504 55.9074L72.8639 56.3341L73.8303 56.077ZM76.5776 48.8341L77.8937 53.7851L79.8266 53.2713L78.5104 48.3202L76.5776 48.8341ZM77.9201 53.1871C76.991 55.748 75.779 58.1971 74.3067 60.4892L75.9894 61.5701C77.5422 59.1529 78.8203 56.57 79.8002 53.8693L77.9201 53.1871ZM76.1145 60.7725L74.7967 55.8199L72.8639 56.3341L74.1817 61.2868L76.1145 60.7725ZM74.6713 56.618C76.2257 54.2017 77.5045 51.619 78.4841 48.9181L76.6039 48.2362C75.6753 50.7968 74.4628 53.2453 72.9893 55.536L74.6713 56.618Z" fill="black" mask="url(#path-15-inside-6_2868_23468)"/>
<mask id="path-17-inside-7_2868_23468" fill="white">
<path d="M73.8304 56.0771L75.1482 61.0298C73.8767 63.0066 72.4307 64.8656 70.8277 66.5845L69.5115 61.6335C71.1145 59.9144 72.56 58.0548 73.8304 56.0771"/>
</mask>
<path d="M73.8304 56.0771L75.1482 61.0298C73.8767 63.0066 72.4307 64.8656 70.8277 66.5845L69.5115 61.6335C71.1145 59.9144 72.56 58.0548 73.8304 56.0771" fill="#03816E"/>
<path d="M75.1482 61.0298L75.9892 61.5707L76.2281 61.1994L76.1146 60.7726L75.1482 61.0298ZM70.8277 66.5845L69.8612 66.8414L70.3258 68.5889L71.559 67.2665L70.8277 66.5845ZM69.5115 61.6335L68.7801 60.9515L68.403 61.3559L68.545 61.8904L69.5115 61.6335ZM72.8641 56.3343L74.1818 61.2869L76.1146 60.7726L74.7968 55.82L72.8641 56.3343ZM74.3072 60.4888C73.0679 62.4154 71.6587 64.2272 70.0963 65.9025L71.559 67.2665C73.2028 65.5039 74.6854 63.5977 75.9892 61.5707L74.3072 60.4888ZM71.7941 66.3276L70.4779 61.3766L68.545 61.8904L69.8612 66.8414L71.7941 66.3276ZM70.2428 62.3155C71.8867 60.5526 73.369 58.6456 74.6718 56.6176L72.9891 55.5367C71.751 57.4639 70.3423 59.2762 68.7801 60.9515L70.2428 62.3155Z" fill="black" mask="url(#path-17-inside-7_2868_23468)"/>
<path d="M66.1323 70.2634L66.1326 70.2631C67.5988 69.0869 68.9822 67.8112 70.2729 66.4451L69.2575 62.6252C68.0582 63.8577 66.7842 65.0155 65.4423 66.092C65.4423 66.092 65.4422 66.0921 65.4421 66.0921L65.1293 65.7021C64.8287 65.9438 64.5266 66.1803 64.2229 66.4114L66.1323 70.2634ZM66.1323 70.2634C66.0313 70.3445 65.9301 70.4251 65.8286 70.5052L64.7918 66.6052L66.1323 70.2634Z" fill="#03816E" stroke="black"/>
<mask id="path-20-inside-8_2868_23468" fill="white">
<path d="M64.2229 66.4111L65.5391 71.3669C63.3917 73.001 61.093 74.4261 58.6744 75.6228L57.3567 70.6718C59.776 69.4755 62.0752 68.0503 64.2229 66.4159"/>
</mask>
<path d="M64.2229 66.4111L65.5391 71.3669C63.3917 73.001 61.093 74.4261 58.6744 75.6228L57.3567 70.6718C59.776 69.4755 62.0752 68.0503 64.2229 66.4159" fill="#03816E"/>
<path d="M65.5391 71.3669L66.1447 72.1627L66.6774 71.7573L66.5056 71.1102L65.5391 71.3669ZM58.6744 75.6228L57.7081 75.88L58.0224 77.0611L59.1179 76.5191L58.6744 75.6228ZM57.3567 70.6718L56.9134 69.7754L56.1798 70.1381L56.3903 70.929L57.3567 70.6718ZM63.2564 66.6678L64.5726 71.6236L66.5056 71.1102L65.1894 66.1544L63.2564 66.6678ZM64.9335 70.5711C62.8368 72.1667 60.5924 73.5581 58.231 74.7265L59.1179 76.5191C61.5936 75.2942 63.9466 73.8354 66.1447 72.1627L64.9335 70.5711ZM59.6408 75.3656L58.323 70.4146L56.3903 70.929L57.7081 75.88L59.6408 75.3656ZM57.7999 71.5682C60.2764 70.3436 62.63 68.8848 64.8285 67.2116L63.6173 65.6201C61.5204 67.2159 59.2755 68.6074 56.9134 69.7754L57.7999 71.5682Z" fill="black" mask="url(#path-20-inside-8_2868_23468)"/>
<mask id="path-22-inside-9_2868_23468" fill="white">
<path d="M57.3568 70.6608L58.6746 75.6118C52.0264 78.8913 44.6362 80.3753 37.2374 79.9166C26.6417 79.2735 17.088 74.7732 10.34 67.2481C6.60927 63.1211 3.91185 58.1671 2.46975 52.7938L1.15356 47.8428C2.59534 53.2157 5.29282 58.1692 9.02385 62.2955C15.7718 69.8222 25.3256 74.3224 35.9212 74.9655C43.32 75.4245 50.7103 73.9405 57.3584 70.6608"/>
</mask>
<path d="M57.3568 70.6608L58.6746 75.6118C52.0264 78.8913 44.6362 80.3753 37.2374 79.9166C26.6417 79.2735 17.088 74.7732 10.34 67.2481C6.60927 63.1211 3.91185 58.1671 2.46975 52.7938L1.15356 47.8428C2.59534 53.2157 5.29282 58.1692 9.02385 62.2955C15.7718 69.8222 25.3256 74.3224 35.9212 74.9655C43.32 75.4245 50.7103 73.9405 57.3584 70.6608" fill="#03816E"/>
<path d="M58.6746 75.6118L59.117 76.5086L59.8516 76.1462L59.6409 75.3546L58.6746 75.6118ZM37.2374 79.9166L37.2993 78.9185L37.298 78.9184L37.2374 79.9166ZM10.34 67.2481L11.0845 66.5805L11.0819 66.5776L10.34 67.2481ZM2.46975 52.7938L1.50331 53.0507L1.50392 53.053L2.46975 52.7938ZM1.15356 47.8428L2.1194 47.5836L0.187131 48.0997L1.15356 47.8428ZM9.02385 62.2955L9.76843 61.628L9.76559 61.6248L9.02385 62.2955ZM35.9212 74.9655L35.9831 73.9674L35.9818 73.9674L35.9212 74.9655ZM56.3904 70.918L57.7082 75.869L59.6409 75.3546L58.3232 70.4036L56.3904 70.918ZM58.2322 74.715C51.7404 77.9173 44.524 79.3664 37.2993 78.9185L37.1755 80.9146C44.7484 81.3842 52.3124 79.8653 59.117 76.5086L58.2322 74.715ZM37.298 78.9184C26.9503 78.2903 17.6474 73.8991 11.0845 66.5805L9.59552 67.9158C16.5287 75.6473 26.3332 80.2566 37.1768 80.9147L37.298 78.9184ZM11.0819 66.5776C7.45728 62.5679 4.83663 57.7549 3.43557 52.5346L1.50392 53.053C2.98707 58.5792 5.76126 63.6742 9.5982 67.9187L11.0819 66.5776ZM3.43618 52.5369L2.12 47.5859L0.187131 48.0997L1.50331 53.0507L3.43618 52.5369ZM0.187733 48.1019C1.67056 53.6278 4.44484 58.7224 8.28211 62.9662L9.76559 61.6248C6.14079 57.616 3.52012 52.8035 2.1194 47.5836L0.187733 48.1019ZM8.27928 62.9631C15.2124 70.6963 25.017 75.3055 35.8606 75.9637L35.9818 73.9674C25.6341 73.3393 16.3312 68.9481 9.76842 61.628L8.27928 62.9631ZM35.8593 75.9636C43.4322 76.4334 50.9963 74.9144 57.8008 71.5576L56.916 69.764C50.4243 72.9665 43.2079 74.4156 35.9831 73.9674L35.8593 75.9636Z" fill="black" mask="url(#path-22-inside-9_2868_23468)"/>
</svg>
