<svg width="146" height="128" viewBox="0 0 146 128" fill="none" xmlns="http://www.w3.org/2000/svg">
<path opacity="0.07" fill-rule="evenodd" clip-rule="evenodd" d="M141.211 9.84187C141.211 12.0259 140.516 14.0437 139.341 15.6763L140.747 29.3392C141.969 29.9755 143.044 30.8723 143.9 31.9701C144.798 33.1224 145.432 34.4667 145.755 35.9035C146.078 37.3403 146.082 38.8331 145.766 40.2717C145.45 41.7101 144.822 43.0576 143.93 44.2141C143.037 45.3709 141.902 46.3075 140.609 46.9547C139.315 47.6019 137.896 47.9432 136.457 47.9533C135.017 47.9632 133.594 47.6419 132.292 47.0131L83.1067 110.553C84.0534 112.338 84.5346 114.344 84.5032 116.376C84.472 118.408 83.9294 120.397 82.9279 122.151C81.9266 123.905 80.5003 125.365 78.7869 126.389C77.0735 127.414 75.1311 127.968 73.1475 127.999C71.1637 128.029 69.2059 127.535 67.4632 126.564C65.7205 125.593 64.2519 124.178 63.1996 122.455C62.1469 120.733 61.5463 118.761 61.4552 116.731C61.3642 114.701 61.786 112.682 62.68 110.868L13.3752 47.1616C11.6003 47.9392 9.63801 48.1504 7.74411 47.768C5.85022 47.3859 4.11282 46.4277 2.75867 45.0187C1.40452 43.6096 0.49643 41.8152 0.153102 39.8696C-0.190225 37.924 0.046911 35.9176 0.833904 34.1123C1.62063 32.3067 2.92075 30.7861 4.56394 29.7491C4.94107 29.5109 5.3323 29.3008 5.73471 29.1197L7.1184 15.6757C5.94363 14.0432 5.24926 12.0256 5.24926 9.84187C5.24926 4.4064 9.5515 0 14.8582 0C20.1651 0 24.4674 4.4064 24.4674 9.84187C24.4674 11.944 23.8238 13.8923 22.7276 15.4912L40.1407 33.1029C40.669 32.8531 41.2196 32.6523 41.7865 32.5037C43.0811 32.1643 44.4304 32.1053 45.7486 32.3304C47.0666 32.5555 48.3244 33.0597 49.4414 33.8107C50.5587 34.5619 51.5104 35.5432 52.2362 36.6925C52.9623 37.8416 53.4461 39.1331 53.6569 40.4848C53.8679 41.8363 53.8014 43.2179 53.4615 44.5416C53.1217 45.8653 52.5159 47.1019 51.6832 48.1723L71.9259 104.433C72.2762 104.381 72.6349 104.381 72.9934 104.381C73.1265 104.381 73.2596 104.389 73.3919 104.396C73.5228 104.404 73.6545 104.411 73.7839 104.411L94.7101 48.6664C93.6783 47.5061 92.9328 46.1096 92.5363 44.5936C92.1394 43.0776 92.1027 41.4864 92.4295 39.9531C92.8479 37.9885 93.8436 36.2024 95.2826 34.8349C96.7217 33.4675 98.5352 32.5843 100.479 32.3043C102.423 32.024 104.404 32.3605 106.155 33.268L123.732 15.4909C122.636 13.892 121.993 11.944 121.993 9.84187C121.993 4.4064 126.295 0 131.602 0C136.909 0 141.211 4.4064 141.211 9.84187ZM131.602 19.684C132.106 19.684 132.602 19.644 133.085 19.5675L134.126 28.5515C132.945 28.8472 131.823 29.3717 130.822 30.104C129.192 31.2968 127.966 32.9816 127.316 34.9227L111.289 37.2349L129.373 19.4179C130.088 19.5917 130.834 19.684 131.602 19.684ZM13.3744 19.5672L12.3173 28.6891C13.4138 29.0205 14.4499 29.5517 15.3732 30.2635C16.9155 31.4523 18.0722 33.0896 18.6923 34.9621L35.2952 37.3579L17.0869 19.4179C16.3718 19.5917 15.6255 19.684 14.8582 19.684C14.3536 19.684 13.858 19.644 13.3744 19.5672ZM19.8197 42.8707L34.7414 44.9965L34.9977 45.0315C35.6173 47.0227 36.8394 48.7603 38.4869 49.9933C40.1343 51.2264 42.1221 51.8907 44.1624 51.8901C44.4272 51.8901 44.692 51.8901 44.9526 51.8552L59.601 96.4723L19.8197 42.8707ZM86.2156 96.0699L101.543 51.8901H101.834C103.879 51.8912 105.872 51.2229 107.522 49.9829C109.171 48.7429 110.39 46.996 111.003 44.9965L125.664 42.9056L86.2156 96.0699Z" fill="url(#paint0_linear_416_1591)"/>
<defs>
<linearGradient id="paint0_linear_416_1591" x1="0" y1="64.0485" x2="145.982" y2="64.0485" gradientUnits="userSpaceOnUse">
<stop stop-color="#0BADF4"/>
<stop offset="0.9341" stop-color="#30EFE4"/>
</linearGradient>
</defs>
</svg>
