<svg width="40" height="40" viewBox="0 0 40 40" fill="none" xmlns="http://www.w3.org/2000/svg">
<path d="M20 39C30.4934 39 39 30.4934 39 20C39 9.50659 30.4934 1 20 1C9.50659 1 1 9.50659 1 20C1 30.4934 9.50659 39 20 39Z" fill="#020229" stroke="#23252C" stroke-width="2"/>
<path d="M20.4823 32.4115C20.3507 32.4115 20.2179 32.4084 20.0874 32.4016C16.1178 32.3958 12.9324 29.8557 11.773 25.7697C10.2401 20.5047 12.2725 12.9204 20.2708 7.85636L22.1883 6.67871V8.91071C22.1883 13.1182 23.8911 15.5361 25.5378 17.8738C26.9002 19.7971 28.3098 21.7872 28.3098 24.5302C28.3411 28.843 24.8547 32.3802 20.5381 32.4115H20.4823ZM18.1178 29.5684C18.2878 29.6249 18.4658 29.6537 18.645 29.6537H18.6495C19.1856 29.6537 19.7115 29.4559 20.0859 29.0718C21.1713 27.9588 21.0169 25.9806 19.7124 23.8867C17.5026 20.3648 16.7331 16.8035 17.4417 13.4658C13.7503 17.5894 13.2972 22.1826 14.1443 25.0851C14.8078 27.3483 16.2145 28.9326 18.1178 29.5684ZM20.1936 12.8815C19.1544 15.9071 19.7115 19.159 21.8586 22.5736C23.3511 24.9611 23.7225 27.3823 22.9371 29.2806C25.0161 28.2758 25.7901 26.2049 25.7901 24.5295C25.7901 22.6218 24.7587 21.1302 23.5641 19.4034L23.493 19.3005C22.3206 17.6542 20.9042 15.6659 20.1936 12.8815Z" fill="url(#paint0_linear_3169_21717)"/>
<defs>
<linearGradient id="paint0_linear_3169_21717" x1="25.248" y1="30.8691" x2="11.8981" y2="7.74656" gradientUnits="userSpaceOnUse">
<stop stop-color="#1984FF"/>
<stop offset="1" stop-color="#4DD9F6"/>
</linearGradient>
</defs>
</svg>
