<svg width="260" height="80" viewBox="0 0 260 80" fill="none" xmlns="http://www.w3.org/2000/svg">
<mask id="mask0_70_583" style="mask-type:alpha" maskUnits="userSpaceOnUse" x="0" y="0" width="260" height="80">
<rect width="260" height="80" rx="12" fill="#141414"/>
</mask>
<g mask="url(#mask0_70_583)">
<path opacity="0.9" d="M209.819 47.5566L212.502 44.8732C212.881 44.4945 213.182 44.0449 213.387 43.5499C213.592 43.055 213.697 42.5246 213.697 41.9889C213.697 41.4532 213.592 40.9227 213.387 40.4278C213.182 39.9329 212.881 39.4832 212.502 39.1045L209.742 36.3442C209.172 35.7746 208.784 35.0492 208.627 34.2593C208.469 33.4695 208.549 32.6506 208.856 31.906L210.345 28.2993C210.757 27.2986 210.755 26.1752 210.339 25.1763C209.922 24.1773 209.127 23.3846 208.126 22.9724L204.618 21.5277C203.871 21.2199 203.232 20.6969 202.782 20.0251C202.332 19.3534 202.092 18.5632 202.092 17.7547V13.9618C202.091 12.8804 201.661 11.8434 200.896 11.0787C200.132 10.314 199.095 9.88414 198.013 9.88349H194.106C193.3 9.88381 192.512 9.64543 191.841 9.19838C191.17 8.75134 190.646 8.11565 190.336 7.37145L188.846 3.76226C188.64 3.26759 188.339 2.81837 187.959 2.44025C187.579 2.06213 187.128 1.76253 186.633 1.55854C186.137 1.35455 185.606 1.25017 185.07 1.25136C184.535 1.25255 184.004 1.35928 183.509 1.56547L180.01 3.02503C179.263 3.33594 178.442 3.41817 177.649 3.26128C176.856 3.10438 176.128 2.71545 175.556 2.14384L172.866 -0.532023C172.487 -0.910897 172.037 -1.21145 171.542 -1.41651C171.047 -1.62156 170.517 -1.7271 169.981 -1.7271C169.446 -1.7271 168.915 -1.62156 168.42 -1.41651C167.925 -1.21145 167.476 -0.910897 167.097 -0.532023L164.337 2.22824C163.767 2.7977 163.042 3.18575 162.252 3.34346C161.462 3.50116 160.643 3.42146 159.898 3.1144L156.292 1.62505C155.291 1.21303 154.168 1.21535 153.169 1.63151C152.17 2.04766 151.377 2.84357 150.965 3.84417L149.52 7.35159C149.212 8.09916 148.689 8.73845 148.018 9.18834C147.346 9.63823 146.556 9.87845 145.747 9.87852H141.954C140.873 9.87918 139.836 10.3091 139.071 11.0738C138.306 11.8385 137.876 12.8754 137.876 13.9569V17.8589C137.877 18.6661 137.639 19.4555 137.192 20.1275C136.745 20.7995 136.109 21.3239 135.364 21.6344L131.755 23.1238C131.26 23.33 130.811 23.6315 130.433 24.0113C130.054 24.3911 129.755 24.8417 129.551 25.3372C129.347 25.8328 129.243 26.3637 129.244 26.8996C129.245 27.4355 129.352 27.966 129.558 28.4606L131.017 31.9606C131.328 32.7066 131.411 33.5282 131.254 34.3211C131.097 35.114 130.708 35.8423 130.136 36.4137L127.46 39.1045C127.081 39.4832 126.781 39.9329 126.576 40.4278C126.371 40.9227 126.265 41.4532 126.265 41.9889C126.265 42.5246 126.371 43.055 126.576 43.5499C126.781 44.0449 127.081 44.4945 127.46 44.8732L130.221 47.6335C130.79 48.2031 131.178 48.9286 131.336 49.7184C131.494 50.5083 131.414 51.3271 131.107 52.0718L129.617 55.6785C129.205 56.6791 129.208 57.8025 129.624 58.8015C130.04 59.8004 130.836 60.5932 131.837 61.0054L135.344 62.45C136.092 62.7579 136.731 63.2809 137.181 63.9526C137.631 64.6243 137.871 65.4146 137.871 66.2231V70.0159C137.872 71.0974 138.301 72.1343 139.066 72.899C139.831 73.6637 140.868 74.0936 141.949 74.0943H145.851C146.658 74.093 147.448 74.3309 148.12 74.778C148.792 75.2251 149.316 75.8613 149.627 76.6063L151.116 80.2155C151.322 80.7102 151.624 81.1594 152.004 81.5375C152.383 81.9156 152.834 82.2152 153.33 82.4192C153.825 82.6232 154.356 82.7276 154.892 82.7264C155.428 82.7252 155.958 82.6185 156.453 82.4123L159.953 80.9527C160.699 80.6418 161.521 80.5596 162.313 80.7165C163.106 80.8734 163.835 81.2623 164.406 81.8339L167.089 84.5172C167.468 84.8961 167.918 85.1966 168.413 85.4017C168.908 85.6067 169.438 85.7123 169.974 85.7123C170.509 85.7123 171.04 85.6067 171.535 85.4017C172.03 85.1966 172.479 84.8961 172.858 84.5172L175.618 81.757C176.188 81.1875 176.913 80.7994 177.703 80.6417C178.493 80.484 179.312 80.5637 180.057 80.8708L183.663 82.3601C184.664 82.7722 185.787 82.7698 186.786 82.3537C187.785 81.9375 188.578 81.1416 188.99 80.141L190.435 76.6336C190.743 75.886 191.266 75.2467 191.937 74.7969C192.609 74.347 193.399 74.1067 194.208 74.1067H198.001C199.082 74.106 200.119 73.6761 200.884 72.9114C201.649 72.1467 202.078 71.1098 202.079 70.0283V66.1138C202.079 65.3067 202.319 64.5178 202.767 63.8467C203.216 63.1756 203.853 62.6524 204.599 62.3433L208.208 60.854C208.702 60.6478 209.152 60.3462 209.53 59.9664C209.908 59.5866 210.208 59.1361 210.412 58.6405C210.616 58.1449 210.72 57.614 210.719 57.0781C210.718 56.5422 210.611 56.0118 210.405 55.5171L208.945 52.0172C208.632 51.2709 208.547 50.4482 208.703 49.6538C208.858 48.8595 209.247 48.1294 209.819 47.5566V47.5566Z" stroke="url(#paint0_linear_70_583)" stroke-miterlimit="10"/>
<path opacity="0.9" d="M216.697 48.5172L219.842 45.3722C220.287 44.928 220.639 44.4005 220.88 43.82C221.12 43.2395 221.244 42.6173 221.244 41.9889C221.244 41.3605 221.12 40.7382 220.88 40.1577C220.639 39.5772 220.287 39.0498 219.842 38.6056L216.615 35.3786C215.946 34.7101 215.489 33.8582 215.304 32.9303C215.118 32.0025 215.212 31.0405 215.573 30.1659L217.31 25.9337C217.793 24.7605 217.79 23.4436 217.302 22.2726C216.814 21.1015 215.882 20.172 214.709 19.6884L210.596 17.9955C209.719 17.6349 208.969 17.0219 208.442 16.2343C207.914 15.4467 207.632 14.5201 207.632 13.5721V9.12392C207.632 7.85531 207.128 6.63867 206.231 5.74162C205.334 4.84458 204.117 4.34063 202.849 4.34063H198.279C197.334 4.34067 196.41 4.06087 195.623 3.53652C194.837 3.01216 194.224 2.26672 193.86 1.3942L192.101 -2.82562C191.859 -3.40556 191.506 -3.93224 191.061 -4.3756C190.616 -4.81896 190.087 -5.17029 189.507 -5.40956C188.926 -5.64882 188.303 -5.77132 187.675 -5.77005C187.047 -5.76879 186.425 -5.64379 185.845 -5.40219L181.732 -3.68448C180.859 -3.32225 179.897 -3.22702 178.969 -3.41081C178.042 -3.59459 177.189 -4.04915 176.519 -4.71709L173.374 -7.86209C172.93 -8.30656 172.403 -8.65916 171.822 -8.89972C171.242 -9.14028 170.62 -9.2641 169.991 -9.2641C169.363 -9.2641 168.741 -9.14028 168.16 -8.89972C167.58 -8.65916 167.052 -8.30656 166.608 -7.86209L163.381 -4.63517C162.712 -3.96556 161.86 -3.50914 160.933 -3.32358C160.005 -3.13801 159.043 -3.23165 158.168 -3.59263L153.936 -5.33021C152.763 -5.81291 151.446 -5.81004 150.275 -5.32224C149.104 -4.83445 148.174 -3.90163 147.691 -2.72881L145.998 1.38428C145.637 2.26102 145.024 3.01084 144.237 3.53854C143.449 4.06624 142.522 4.348 141.574 4.34807H137.116C135.848 4.34807 134.631 4.85203 133.734 5.74907C132.837 6.64611 132.333 7.86276 132.333 9.13137V13.6913C132.333 14.6363 132.053 15.5601 131.528 16.3464C131.004 17.1326 130.259 17.7461 129.387 18.1096L125.167 19.8696C124.587 20.1111 124.06 20.4645 123.617 20.9095C123.173 21.3546 122.822 21.8826 122.583 22.4635C122.344 23.0444 122.221 23.6667 122.222 24.2949C122.224 24.9231 122.349 25.5449 122.59 26.1248L124.308 30.2379C124.67 31.1116 124.765 32.073 124.582 33.0008C124.398 33.9285 123.943 34.781 123.275 35.4506L120.13 38.5956C119.686 39.0398 119.333 39.5673 119.093 40.1478C118.852 40.7283 118.728 41.3506 118.728 41.9789C118.728 42.6073 118.852 43.2296 119.093 43.8101C119.333 44.3906 119.686 44.918 120.13 45.3622L123.357 48.5892C124.027 49.2577 124.483 50.1097 124.669 51.0375C124.854 51.9653 124.761 52.9273 124.4 53.8019L122.662 58.0217C122.179 59.1949 122.182 60.5118 122.67 61.6828C123.158 62.8539 124.091 63.7834 125.264 64.267L129.377 65.9599C130.253 66.3205 131.003 66.9335 131.531 67.7211C132.059 68.5087 132.34 69.4353 132.34 70.3833V74.8538C132.34 76.1224 132.844 77.3391 133.741 78.2361C134.638 79.1332 135.855 79.6371 137.124 79.6371H141.684C142.629 79.6371 143.553 79.9169 144.339 80.4412C145.125 80.9656 145.739 81.711 146.102 82.5835L147.862 86.8033C148.103 87.3833 148.457 87.91 148.902 88.3533C149.347 88.7967 149.875 89.148 150.456 89.3873C151.037 89.6266 151.659 89.7491 152.287 89.7478C152.915 89.7465 153.537 89.6215 154.117 89.3799L158.23 87.6622C159.104 87.3 160.065 87.2047 160.993 87.3885C161.921 87.5723 162.773 88.0269 163.443 88.6948L166.588 91.8398C167.032 92.2843 167.56 92.6369 168.14 92.8775C168.721 93.118 169.343 93.2418 169.971 93.2418C170.6 93.2418 171.222 93.118 171.802 92.8775C172.383 92.6369 172.91 92.2843 173.355 91.8398L176.582 88.6129C177.25 87.9433 178.102 87.4869 179.03 87.3013C179.958 87.1158 180.92 87.2094 181.794 87.5704L186.014 89.3079C187.187 89.7906 188.504 89.7878 189.675 89.3C190.846 88.8122 191.776 87.8794 192.259 86.7066L193.952 82.5935C194.313 81.7167 194.926 80.9669 195.713 80.4392C196.501 79.9115 197.428 79.6297 198.376 79.6297H202.846C204.115 79.6297 205.331 79.1257 206.228 78.2287C207.126 77.3316 207.629 76.115 207.629 74.8464V70.2865C207.629 69.3414 207.909 68.4174 208.434 67.6311C208.958 66.8448 209.703 66.2313 210.576 65.8681L214.796 64.1082C215.376 63.8667 215.902 63.5133 216.346 63.0682C216.789 62.6231 217.14 62.0951 217.38 61.5142C217.619 60.9334 217.741 60.311 217.74 59.6828C217.739 59.0546 217.614 58.4328 217.372 57.8529L215.655 53.7398C215.291 52.8639 215.197 51.8999 215.382 50.9701C215.568 50.0403 216.026 49.1865 216.697 48.5172V48.5172Z" stroke="url(#paint1_linear_70_583)" stroke-miterlimit="10"/>
<path opacity="0.8" d="M223.575 49.4778L227.182 45.8711C227.692 45.3614 228.097 44.7562 228.373 44.0901C228.649 43.424 228.791 42.71 228.791 41.9889C228.791 41.2678 228.649 40.5538 228.373 39.8877C228.097 39.2215 227.692 38.6163 227.182 38.1067L223.459 34.3957C222.693 33.6296 222.171 32.6539 221.958 31.5915C221.746 30.5292 221.852 29.4277 222.265 28.4259L224.263 23.5706C224.818 22.2253 224.816 20.7146 224.258 19.3707C223.699 18.0268 222.629 16.9598 221.284 16.4044L216.568 14.4633C215.563 14.0487 214.703 13.3449 214.099 12.4411C213.494 11.5374 213.172 10.4744 213.172 9.38706V4.28604C213.172 2.83067 212.593 1.43509 211.564 0.405991C210.535 -0.623113 209.139 -1.20155 207.684 -1.20221H202.437C201.353 -1.20188 200.293 -1.52226 199.391 -2.123C198.489 -2.72373 197.785 -3.57795 197.368 -4.57806L195.35 -9.42341C194.789 -10.7663 193.717 -11.8314 192.371 -12.3844C191.025 -12.9374 189.514 -12.9331 188.171 -12.3723L183.455 -10.4113C182.451 -9.99317 181.346 -9.88246 180.279 -10.0933C179.212 -10.304 178.232 -10.8268 177.463 -11.5954L173.856 -15.2046C172.826 -16.2335 171.43 -16.8114 169.974 -16.8114C168.518 -16.8114 167.122 -16.2335 166.092 -15.2046L162.381 -11.4812C161.614 -10.7152 160.639 -10.193 159.576 -9.98057C158.514 -9.7681 157.413 -9.8748 156.411 -10.2872L151.555 -12.2854C150.21 -12.8406 148.699 -12.8386 147.356 -12.28C146.012 -11.7214 144.945 -10.6519 144.389 -9.30674L142.448 -4.59047C142.033 -3.58784 141.33 -2.73082 140.428 -2.12774C139.525 -1.52465 138.465 -1.20257 137.379 -1.20221H132.278C130.823 -1.20155 129.427 -0.623113 128.398 0.405991C127.369 1.43509 126.791 2.83067 126.79 4.28604V9.53351C126.79 10.6172 126.47 11.6768 125.869 12.5788C125.269 13.4808 124.414 14.1848 123.414 14.6023L118.569 16.6203C117.226 17.1813 116.161 18.2528 115.608 19.599C115.055 20.9452 115.059 22.456 115.62 23.799L117.581 28.5153C118 29.5189 118.111 30.6244 117.9 31.6914C117.689 32.7583 117.166 33.7385 116.397 34.5074L112.79 38.1141C112.28 38.6238 111.876 39.229 111.599 39.8951C111.323 40.5613 111.181 41.2753 111.181 41.9963C111.181 42.7174 111.323 43.4314 111.599 44.0976C111.876 44.7637 112.28 45.3689 112.79 45.8786L116.501 49.6019C117.265 50.367 117.785 51.3405 117.998 52.4003C118.21 53.4602 118.105 54.5591 117.695 55.5593L115.697 60.4146C115.142 61.7599 115.144 63.2707 115.702 64.6146C116.261 65.9584 117.33 67.0254 118.676 67.5809L123.392 69.522C124.396 69.9357 125.255 70.6382 125.86 71.5405C126.465 72.4428 126.789 73.5044 126.79 74.5907V79.6917C126.791 81.1471 127.369 82.5427 128.398 83.5718C129.427 84.6009 130.823 85.1793 132.278 85.18H137.526C138.61 85.1797 139.669 85.5 140.571 86.1008C141.473 86.7015 142.177 87.5557 142.595 88.5558L144.613 93.4012C145.174 94.7441 146.245 95.8092 147.591 96.3622C148.938 96.9152 150.448 96.9108 151.791 96.3501L156.508 94.3891C157.511 93.9703 158.617 93.8592 159.684 94.07C160.751 94.2809 161.731 94.8041 162.5 95.5732L166.106 99.1799C166.616 99.6899 167.221 100.095 167.887 100.371C168.554 100.647 169.268 100.789 169.989 100.789C170.71 100.789 171.424 100.647 172.09 100.371C172.756 100.095 173.361 99.6899 173.871 99.1799L177.594 95.4565C178.359 94.693 179.333 94.1723 180.393 93.9599C181.452 93.7475 182.551 93.8528 183.552 94.2625L188.407 96.2607C189.752 96.8159 191.263 96.8139 192.607 96.2553C193.951 95.6967 195.018 94.6272 195.573 93.2821L197.514 88.5658C197.93 87.5636 198.633 86.7071 199.535 86.1045C200.438 85.5019 201.498 85.1802 202.583 85.18H207.684C209.139 85.1793 210.535 84.6009 211.564 83.5718C212.593 82.5427 213.172 81.1471 213.172 79.6917V74.4443C213.172 73.3605 213.492 72.301 214.093 71.399C214.694 70.497 215.548 69.793 216.548 69.3755L221.393 67.3575C222.736 66.7964 223.801 65.725 224.354 64.3788C224.907 63.0326 224.903 61.5218 224.342 60.1788L222.381 55.4625C221.965 54.4589 221.857 53.3543 222.069 52.2888C222.282 51.2234 222.806 50.245 223.575 49.4778Z" stroke="url(#paint2_linear_70_583)" stroke-miterlimit="10"/>
<path opacity="0.8" d="M230.454 50.4285L234.525 46.3576C235.683 45.1946 236.333 43.6202 236.333 41.979C236.333 40.3377 235.683 38.7633 234.525 37.6003L230.337 33.4102C229.472 32.5463 228.882 31.4452 228.642 30.2462C228.402 29.0471 228.523 27.8038 228.989 26.6734L231.243 21.1976C231.865 19.6785 231.86 17.9749 231.228 16.4596C230.597 14.9444 229.391 13.741 227.875 13.1129L222.553 10.9211C221.419 10.4525 220.45 9.65841 219.767 8.63916C219.085 7.61992 218.719 6.42123 218.718 5.19454V-0.564272C218.714 -2.20795 218.059 -3.78319 216.896 -4.94429C215.732 -6.10538 214.156 -6.75748 212.512 -6.75748H206.599C205.378 -6.76053 204.186 -7.12367 203.17 -7.80142C202.154 -8.47918 201.361 -9.44143 200.89 -10.5677L198.614 -16.0287C197.979 -17.5427 196.771 -18.7435 195.253 -19.3683C193.735 -19.9931 192.031 -19.991 190.514 -19.3623L185.2 -17.1482C184.065 -16.6737 182.814 -16.5474 181.607 -16.7852C180.4 -17.023 179.291 -17.6141 178.421 -18.4836L174.36 -22.5495C173.197 -23.7076 171.622 -24.3578 169.981 -24.3578C168.34 -24.3578 166.766 -23.7076 165.603 -22.5495L161.412 -18.362C160.549 -17.4966 159.447 -16.9067 158.248 -16.6668C157.049 -16.4269 155.806 -16.5478 154.676 -17.0141L149.2 -19.268C147.681 -19.89 145.977 -19.8847 144.462 -19.2534C142.947 -18.6221 141.743 -17.4162 141.115 -15.8996L138.923 -10.5777C138.455 -9.44399 137.661 -8.47463 136.641 -7.79204C135.622 -7.10946 134.423 -6.74426 133.197 -6.74259H127.438C125.796 -6.73931 124.223 -6.08576 123.062 -4.92501C121.902 -3.76427 121.248 -2.19091 121.245 -0.549379V5.37574C121.242 6.59666 120.879 7.78955 120.201 8.80508C119.523 9.8206 118.561 10.6136 117.435 11.0849L111.974 13.3611C110.46 13.9957 109.259 15.2044 108.634 16.7224C108.009 18.2405 108.011 19.9442 108.64 21.4607L110.854 26.7752C111.326 27.9106 111.45 29.1606 111.211 30.3667C110.971 31.5727 110.379 32.6805 109.509 33.5493L105.443 37.6102C104.285 38.7732 103.635 40.3476 103.635 41.9889C103.635 43.6301 104.285 45.2046 105.443 46.3676L109.63 50.5576C110.496 51.4216 111.086 52.5226 111.326 53.7217C111.565 54.9208 111.445 56.164 110.978 57.2944L108.724 62.7703C108.102 64.2894 108.108 65.993 108.739 67.5082C109.37 69.0235 110.576 70.2268 112.093 70.8549L117.415 73.0468C118.548 73.5154 119.518 74.3095 120.2 75.3287C120.883 76.3479 121.248 77.5466 121.25 78.7733V84.5321C121.25 86.1758 121.902 87.7524 123.063 88.9158C124.224 90.0792 125.799 90.7345 127.443 90.7378H133.368C134.589 90.7408 135.782 91.1039 136.797 91.7817C137.813 92.4594 138.606 93.4217 139.077 94.548L141.353 100.009C141.988 101.523 143.197 102.724 144.715 103.349C146.233 103.973 147.937 103.971 149.453 103.343L154.768 101.128C155.902 100.655 157.151 100.529 158.357 100.766C159.563 101.003 160.671 101.593 161.542 102.461L165.612 106.532C166.775 107.69 168.35 108.341 169.991 108.341C171.632 108.341 173.207 107.69 174.37 106.532L178.56 102.345C179.424 101.479 180.525 100.889 181.724 100.65C182.923 100.41 184.166 100.53 185.297 100.997L190.773 103.251C192.292 103.873 193.995 103.867 195.51 103.236C197.026 102.605 198.229 101.399 198.857 99.8823L201.049 94.5604C201.518 93.4267 202.312 92.4574 203.331 91.7748C204.35 91.0922 205.549 90.727 206.776 90.7253H212.534C214.18 90.7253 215.759 90.0715 216.922 88.9077C218.086 87.744 218.74 86.1656 218.74 84.5197V78.607C218.743 77.3861 219.106 76.1932 219.784 75.1777C220.462 74.1622 221.424 73.3691 222.55 72.8978L228.011 70.6216C229.525 69.987 230.726 68.7784 231.351 67.2603C231.976 65.7423 231.973 64.0385 231.345 62.522L229.131 57.2076C228.655 56.0737 228.526 54.8239 228.762 53.617C228.997 52.41 229.586 51.3002 230.454 50.4285Z" stroke="url(#paint3_linear_70_583)" stroke-miterlimit="10"/>
<path opacity="0.7" d="M237.332 51.3991L241.865 46.8665C242.505 46.2261 243.014 45.4657 243.361 44.6288C243.707 43.7919 243.886 42.8948 243.886 41.9889C243.886 41.0829 243.707 40.1859 243.361 39.3489C243.014 38.512 242.505 37.7516 241.865 37.1113L237.2 32.4471C236.239 31.4831 235.585 30.256 235.32 28.9207C235.055 27.5853 235.191 26.2014 235.711 24.9433L238.221 18.8444C238.566 18.0069 238.743 17.1095 238.741 16.2035C238.74 15.2975 238.56 14.4008 238.211 13.5644C237.863 12.7281 237.353 11.9686 236.711 11.3293C236.069 10.6901 235.308 10.1836 234.47 9.83882L228.542 7.39876C227.278 6.88069 226.197 5.99904 225.434 4.86555C224.672 3.73206 224.264 2.39777 224.26 1.0318V-5.39226C224.26 -7.22176 223.534 -8.97634 222.24 -10.27C220.946 -11.5637 219.192 -12.2904 217.362 -12.2904H210.764C209.403 -12.2905 208.072 -12.6936 206.938 -13.449C205.805 -14.2043 204.921 -15.2781 204.398 -16.5351L201.861 -22.624C201.513 -23.461 201.004 -24.2213 200.363 -24.8614C199.721 -25.5016 198.96 -26.009 198.122 -26.3548C197.284 -26.7006 196.387 -26.8779 195.48 -26.8766C194.574 -26.8754 193.677 -26.6955 192.84 -26.3474L186.923 -23.8825C185.661 -23.3571 184.272 -23.2181 182.931 -23.4832C181.59 -23.7484 180.358 -24.4057 179.391 -25.3719L174.859 -29.9045C174.218 -30.5453 173.458 -31.0536 172.621 -31.4004C171.784 -31.7473 170.887 -31.9258 169.981 -31.9258C169.075 -31.9258 168.178 -31.7473 167.341 -31.4004C166.504 -31.0536 165.744 -30.5453 165.104 -29.9045L160.439 -25.2304C159.475 -24.2691 158.248 -23.6147 156.913 -23.3497C155.578 -23.0847 154.194 -23.2208 152.936 -23.741L146.837 -26.2506C145.999 -26.596 145.102 -26.7729 144.196 -26.7713C143.29 -26.7697 142.393 -26.5896 141.557 -26.2413C140.72 -25.893 139.961 -25.3833 139.322 -24.7413C138.682 -24.0993 138.176 -23.3377 137.831 -22.4999L135.391 -16.5723C134.873 -15.3084 133.991 -14.2267 132.858 -13.4644C131.724 -12.7022 130.39 -12.2936 129.024 -12.2904H122.6C120.771 -12.2904 119.016 -11.5637 117.722 -10.27C116.429 -8.97634 115.702 -7.22176 115.702 -5.39226V1.20556C115.702 2.56729 115.299 3.89853 114.543 5.03156C113.788 6.16459 112.714 7.04871 111.457 7.57252L105.368 10.1094C104.531 10.4569 103.771 10.966 103.131 11.6075C102.491 12.2491 101.983 13.0104 101.638 13.8481C101.292 14.6858 101.114 15.5835 101.116 16.4897C101.117 17.396 101.297 18.2931 101.645 19.1299L104.11 25.0475C104.635 26.3092 104.774 27.6986 104.509 29.0393C104.244 30.3801 103.587 31.612 102.62 32.5787L98.0879 37.1113C97.447 37.7516 96.9387 38.512 96.5919 39.3489C96.245 40.1859 96.0665 41.0829 96.0665 41.9889C96.0665 42.8948 96.245 43.7919 96.5919 44.6288C96.9387 45.4657 97.447 46.2261 98.0879 46.8665L102.752 51.5306C103.713 52.4947 104.368 53.7217 104.633 55.0571C104.898 56.3924 104.762 57.7764 104.241 59.0345L101.732 65.1334C101.386 65.9709 101.209 66.8683 101.211 67.7743C101.213 68.6802 101.393 69.577 101.741 70.4133C102.089 71.2497 102.599 72.0092 103.241 72.6484C103.883 73.2877 104.645 73.7942 105.482 74.139L111.41 76.579C112.674 77.0994 113.755 77.9836 114.516 79.1194C115.276 80.2553 115.682 81.5914 115.682 82.9584V89.37C115.682 90.2759 115.86 91.1729 116.207 92.0098C116.554 92.8468 117.062 93.6072 117.702 94.2478C118.343 94.8883 119.103 95.3964 119.94 95.7431C120.777 96.0898 121.674 96.2682 122.58 96.2682H129.198C130.56 96.2683 131.891 96.6714 133.024 97.4267C134.157 98.1821 135.041 99.2559 135.565 100.513L138.102 106.602C138.449 107.439 138.958 108.199 139.6 108.839C140.241 109.479 141.003 109.987 141.84 110.333C142.678 110.678 143.576 110.856 144.482 110.854C145.388 110.853 146.285 110.673 147.122 110.325L153.04 107.86C154.302 107.335 155.691 107.196 157.032 107.461C158.372 107.726 159.604 108.383 160.571 109.35L165.104 113.882C166.397 115.176 168.152 115.903 169.981 115.903C171.811 115.903 173.565 115.176 174.859 113.882L179.523 109.218C180.487 108.257 181.714 107.602 183.049 107.337C184.385 107.072 185.769 107.209 187.027 107.729L193.126 110.238C193.963 110.584 194.861 110.761 195.767 110.759C196.673 110.757 197.569 110.577 198.406 110.229C199.242 109.881 200.001 109.371 200.641 108.729C201.28 108.087 201.786 107.325 202.131 106.488L204.571 100.56C205.092 99.296 205.976 98.2151 207.112 97.4545C208.248 96.6939 209.584 96.2879 210.951 96.288H217.362C219.192 96.288 220.946 95.5613 222.24 94.2676C223.534 92.974 224.26 91.2194 224.26 89.3899V82.7722C224.261 81.4105 224.664 80.0792 225.419 78.9462C226.174 77.8132 227.248 76.9291 228.505 76.4052L234.594 73.8684C235.431 73.5208 236.191 73.0117 236.831 72.3702C237.472 71.7287 237.979 70.9673 238.325 70.1296C238.671 69.2919 238.848 68.3943 238.847 67.488C238.845 66.5818 238.666 65.6846 238.317 64.8479L235.853 58.9302C235.326 57.6695 235.185 56.2807 235.449 54.94C235.712 53.5993 236.368 52.3669 237.332 51.3991V51.3991Z" stroke="url(#paint4_linear_70_583)" stroke-miterlimit="10"/>
<path opacity="0.7" d="M244.2 52.3622L249.197 47.3654C250.623 45.9392 251.423 44.0053 251.423 41.9889C251.423 39.9725 250.623 38.0386 249.197 36.6123L244.056 31.4716C242.995 30.4108 242.271 29.0595 241.977 27.5881C241.682 26.1167 241.83 24.5909 242.401 23.2032L245.193 16.4788C245.574 15.5554 245.769 14.566 245.767 13.5671C245.765 12.5683 245.567 11.5796 245.183 10.6575C244.799 9.73541 244.237 8.89804 243.529 8.19324C242.821 7.48843 241.982 6.93 241.058 6.54984L234.52 3.86405C233.125 3.29246 231.932 2.31915 231.093 1.06785C230.253 -0.183448 229.804 -1.65621 229.803 -3.1632V-10.2302C229.803 -12.2466 229.002 -14.1805 227.576 -15.6064C226.151 -17.0322 224.217 -17.8333 222.2 -17.8333H214.93C213.429 -17.8333 211.962 -18.2773 210.713 -19.1095C209.465 -19.9417 208.49 -21.1248 207.912 -22.5098L205.117 -29.2119C204.342 -31.0698 202.861 -32.5441 200.999 -33.3114C199.138 -34.0788 197.048 -34.0765 195.188 -33.3051L188.665 -30.5747C187.272 -29.9941 185.738 -29.8415 184.258 -30.1364C182.777 -30.4312 181.419 -31.1602 180.355 -32.2303L175.358 -37.2271C173.932 -38.6525 171.998 -39.4533 169.981 -39.4533C167.965 -39.4533 166.031 -38.6525 164.605 -37.2271L159.464 -32.0863C158.403 -31.025 157.052 -30.3014 155.58 -30.0067C154.109 -29.7121 152.583 -29.8596 151.196 -30.4307L144.471 -33.2009C143.548 -33.5816 142.558 -33.7766 141.559 -33.7748C140.561 -33.7731 139.572 -33.5745 138.65 -33.1904C137.728 -32.8064 136.89 -32.2444 136.186 -31.5366C135.481 -30.8288 134.922 -29.9891 134.542 -29.0654L131.856 -22.5495C131.285 -21.1552 130.311 -19.9622 129.06 -19.1224C127.809 -18.2826 126.336 -17.8339 124.829 -17.8333H117.762C115.746 -17.8333 113.812 -17.0322 112.386 -15.6064C110.96 -14.1805 110.159 -12.2466 110.159 -10.2302V-2.95965C110.159 -1.45903 109.715 0.00803934 108.883 1.25677C108.051 2.5055 106.868 3.48005 105.483 4.05766L98.7804 6.85267C96.9195 7.62839 95.4429 9.11149 94.6753 10.9758C93.9077 12.8401 93.912 14.9329 94.6872 16.7941L97.4177 23.3174C97.9956 24.7089 98.1467 26.2407 97.8519 27.7183C97.5571 29.1959 96.8296 30.5524 95.762 31.6156L90.7653 36.6123C89.3398 38.0386 88.5391 39.9725 88.5391 41.9889C88.5391 44.0053 89.3398 45.9392 90.7653 47.3654L95.906 52.5062C96.9674 53.567 97.691 54.9183 97.9856 56.3897C98.2803 57.8611 98.1327 59.3868 97.5617 60.7745L94.7915 67.4989C94.4107 68.4224 94.2157 69.4118 94.2175 70.4106C94.2193 71.4095 94.4179 72.3982 94.8019 73.3203C95.186 74.2424 95.7479 75.0797 96.4557 75.7845C97.1635 76.4893 98.0032 77.0478 98.9269 77.4279L105.443 80.1137C106.837 80.6853 108.03 81.6586 108.87 82.9099C109.71 84.1612 110.158 85.634 110.159 87.141V94.2079C110.159 96.2244 110.96 98.1583 112.386 99.5841C113.812 101.01 115.746 101.811 117.762 101.811H125.033C126.533 101.811 128 102.255 129.249 103.087C130.498 103.919 131.472 105.103 132.05 106.488L134.845 113.19C135.621 115.051 137.104 116.527 138.968 117.295C140.832 118.062 142.925 118.058 144.786 117.283L151.31 114.552C152.701 113.975 154.233 113.823 155.711 114.118C157.188 114.413 158.545 115.14 159.608 116.208L164.605 121.205C166.031 122.63 167.965 123.431 169.981 123.431C171.998 123.431 173.932 122.63 175.358 121.205L180.499 116.064C181.559 115.003 182.911 114.279 184.382 113.984C185.853 113.69 187.379 113.837 188.767 114.408L195.491 117.176C196.414 117.558 197.404 117.753 198.403 117.752C199.402 117.751 200.391 117.552 201.313 117.169C202.235 116.785 203.072 116.223 203.777 115.515C204.482 114.807 205.04 113.967 205.42 113.043L208.106 106.527C208.678 105.133 209.651 103.94 210.902 103.1C212.154 102.26 213.626 101.812 215.133 101.811H222.2C224.217 101.811 226.151 101.01 227.576 99.5841C229.002 98.1583 229.803 96.2244 229.803 94.2079V86.9374C229.803 85.4368 230.247 83.9697 231.08 82.721C231.912 81.4723 233.095 80.4977 234.48 79.9201L241.182 77.1251C243.04 76.3493 244.514 74.8683 245.282 73.0069C246.049 71.1455 246.047 69.0558 245.275 67.1961L242.545 60.6728C241.964 59.2797 241.812 57.7453 242.106 56.2652C242.401 54.7851 243.13 53.4264 244.2 52.3622Z" stroke="url(#paint5_linear_70_583)" stroke-miterlimit="10"/>
<path opacity="0.6" d="M251.089 53.3228L256.55 47.8619C257.321 47.0908 257.933 46.1753 258.351 45.1675C258.768 44.1598 258.983 43.0797 258.983 41.9889C258.983 40.8981 258.768 39.818 258.351 38.8102C257.933 37.8025 257.321 36.887 256.55 36.1159L250.932 30.4986C249.773 29.3385 248.983 27.8614 248.661 26.2531C248.339 24.6448 248.501 22.9774 249.125 21.4607L252.144 14.1157C252.56 13.1069 252.773 12.0259 252.771 10.9346C252.77 9.84324 252.553 8.76294 252.134 7.75537C251.714 6.7478 251.101 5.83271 250.328 5.06239C249.555 4.29206 248.637 3.68158 247.628 3.26583L240.489 0.324368C238.968 -0.301946 237.666 -1.3664 236.75 -2.73382C235.835 -4.10125 235.346 -5.70997 235.346 -7.35571V-15.0705C235.346 -17.2733 234.471 -19.3859 232.914 -20.9435C231.356 -22.5011 229.243 -23.3761 227.041 -23.3761H219.097C217.459 -23.3772 215.856 -23.8631 214.493 -24.7725C213.13 -25.6819 212.065 -26.9743 211.435 -28.4871L208.379 -35.8196C207.531 -37.8525 205.91 -39.4653 203.873 -40.3032C201.836 -41.1411 199.55 -41.1355 197.517 -40.2877L190.39 -37.309C188.871 -36.6758 187.198 -36.5083 185.584 -36.8278C183.969 -37.1474 182.486 -37.9395 181.323 -39.1036L175.862 -44.5646C175.091 -45.3361 174.175 -45.9482 173.167 -46.3658C172.16 -46.7834 171.079 -46.9983 169.989 -46.9983C168.898 -46.9983 167.818 -46.7834 166.81 -46.3658C165.802 -45.9482 164.887 -45.3361 164.116 -44.5646L158.498 -38.9473C157.338 -37.7878 155.861 -36.9976 154.253 -36.676C152.645 -36.3545 150.977 -36.516 149.46 -37.1402L142.108 -40.1735C141.099 -40.5897 140.018 -40.803 138.927 -40.8013C137.836 -40.7996 136.755 -40.583 135.748 -40.1637C134.74 -39.7444 133.825 -39.1307 133.055 -38.3576C132.284 -37.5846 131.674 -36.6673 131.258 -35.6583L128.324 -28.5069C127.698 -26.985 126.633 -25.6836 125.266 -24.7678C123.899 -23.8521 122.29 -23.3634 120.644 -23.3637H112.922C110.719 -23.3637 108.606 -22.4887 107.049 -20.9311C105.491 -19.3735 104.616 -17.2609 104.616 -15.0581V-7.11493C104.613 -5.47809 104.126 -3.87876 103.216 -2.51771C102.307 -1.15666 101.016 -0.0945295 99.5053 0.53536L92.1727 3.59101C90.1398 4.43902 88.5271 6.05981 87.6892 8.09686C86.8513 10.1339 86.8568 12.4204 87.7047 14.4533L90.6834 21.5798C91.3166 23.099 91.484 24.772 91.1645 26.3865C90.845 28.001 90.0528 29.4841 88.8887 30.6475L83.4278 36.1084C82.6562 36.8795 82.0441 37.7951 81.6265 38.8028C81.209 39.8105 80.994 40.8906 80.994 41.9814C80.994 43.0722 81.209 44.1524 81.6265 45.1601C82.0441 46.1678 82.6562 47.0834 83.4278 47.8544L89.0451 53.4718C90.2045 54.6318 90.9947 56.109 91.3163 57.7172C91.6379 59.3255 91.4764 60.993 90.8522 62.5096L87.8188 69.862C87.4027 70.8709 87.1893 71.9519 87.191 73.0432C87.1927 74.1345 87.4094 75.2148 87.8287 76.2224C88.248 77.23 88.8617 78.1451 89.6347 78.9154C90.4078 79.6857 91.325 80.2962 92.3341 80.7119L99.4854 83.646C101.007 84.2723 102.309 85.3367 103.224 86.7042C104.14 88.0716 104.629 89.6803 104.629 91.326V99.0483C104.629 101.251 105.504 103.364 107.061 104.921C108.619 106.479 110.731 107.354 112.934 107.354H120.877C122.514 107.357 124.114 107.844 125.475 108.754C126.836 109.663 127.898 110.954 128.528 112.465L131.583 119.797C132.431 121.83 134.052 123.443 136.089 124.281C138.126 125.119 140.413 125.113 142.446 124.265L149.572 121.287C151.091 120.654 152.764 120.486 154.379 120.806C155.993 121.125 157.476 121.917 158.64 123.081L164.101 128.542C164.872 129.314 165.787 129.926 166.795 130.344C167.803 130.761 168.883 130.976 169.974 130.976C171.065 130.976 172.145 130.761 173.152 130.344C174.16 129.926 175.076 129.314 175.847 128.542L181.464 122.925C182.624 121.766 184.101 120.975 185.71 120.654C187.318 120.332 188.985 120.494 190.502 121.118L197.854 124.151C198.863 124.567 199.944 124.781 201.036 124.779C202.127 124.777 203.207 124.561 204.215 124.141C205.222 123.722 206.137 123.108 206.908 122.335C207.678 121.562 208.289 120.645 208.704 119.636L211.646 112.497C212.272 110.975 213.337 109.674 214.704 108.758C216.071 107.842 217.68 107.354 219.326 107.354H227.048C229.251 107.354 231.363 106.479 232.921 104.921C234.479 103.364 235.354 101.251 235.354 99.0483V91.1051C235.354 89.467 235.839 87.8656 236.747 86.5022C237.655 85.1388 238.946 84.0743 240.457 83.4424L247.79 80.3868C249.823 79.5388 251.435 77.918 252.273 75.8809C253.111 73.8439 253.106 71.5574 252.258 69.5245L249.279 62.3979C248.646 60.8764 248.48 59.201 248.802 57.5849C249.125 55.9688 249.921 54.4852 251.089 53.3228V53.3228Z" stroke="url(#paint6_linear_70_583)" stroke-miterlimit="10"/>
<path opacity="0.6" d="M257.967 54.2834L263.89 48.3608C265.578 46.6703 266.527 44.3785 266.527 41.9889C266.527 39.5993 265.578 37.3074 263.89 35.6169L257.796 29.523C256.537 28.2654 255.68 26.6633 255.331 24.9188C254.982 23.1743 255.157 21.3656 255.835 19.7206L259.116 11.7526C259.567 10.6583 259.797 9.48601 259.795 8.30259C259.792 7.11916 259.557 5.94782 259.102 4.85546C258.646 3.7631 257.98 2.77112 257.142 1.93617C256.303 1.10122 255.308 0.439644 254.214 -0.0107605L246.469 -3.18803C244.818 -3.8681 243.407 -5.02316 242.413 -6.50671C241.42 -7.99027 240.889 -9.73547 240.889 -11.5209V-19.9084C240.889 -22.2982 239.94 -24.5901 238.25 -26.2799C236.56 -27.9697 234.268 -28.919 231.878 -28.919H223.26C221.481 -28.9193 219.742 -29.4459 218.262 -30.4327C216.782 -31.4195 215.627 -32.8223 214.942 -34.4643L211.628 -42.4075C210.708 -44.6128 208.95 -46.3625 206.741 -47.272C204.531 -48.1815 202.051 -48.1764 199.845 -47.2578L192.113 -44.0309C190.465 -43.3436 188.65 -43.1616 186.898 -43.5081C185.147 -43.8546 183.538 -44.714 182.276 -45.977L176.353 -51.8997C174.663 -53.5886 172.371 -54.5372 169.981 -54.5372C167.592 -54.5372 165.3 -53.5886 163.609 -51.8997L157.515 -45.8057C156.258 -44.5474 154.656 -43.6897 152.911 -43.3407C151.167 -42.9918 149.358 -43.1671 147.713 -43.8448L139.745 -47.1263C138.651 -47.5769 137.478 -47.8075 136.295 -47.805C135.111 -47.8025 133.94 -47.5669 132.848 -47.1117C131.755 -46.6564 130.763 -45.9905 129.928 -45.1518C129.094 -44.3131 128.432 -43.3182 127.982 -42.2239L124.804 -34.4991C124.124 -32.8482 122.969 -31.4365 121.486 -30.4431C120.002 -29.4496 118.257 -28.9192 116.471 -28.919H108.084C105.694 -28.919 103.402 -27.9697 101.712 -26.2799C100.023 -24.5901 99.0733 -22.2982 99.0733 -19.9084V-11.2901C99.0731 -9.51112 98.5464 -7.772 97.5596 -6.2918C96.5728 -4.8116 95.17 -3.65653 93.528 -2.97208L85.5848 0.341722C83.3795 1.26167 81.6298 3.01966 80.7203 5.22924C79.8108 7.43881 79.8159 9.91913 80.7345 12.125L83.9614 19.8571C84.6487 21.505 84.8307 23.3201 84.4842 25.0717C84.1377 26.8232 83.2783 28.4322 82.0153 29.6943L76.0927 35.6169C74.4038 37.3074 73.4551 39.5993 73.4551 41.9889C73.4551 44.3785 74.4038 46.6703 76.0927 48.3608L82.1866 54.4547C83.4449 55.7124 84.3026 57.3145 84.6516 59.0589C85.0006 60.8034 84.8252 62.6122 84.1475 64.2571L80.866 72.2251C80.4154 73.3194 80.1848 74.4917 80.1873 75.6751C80.1898 76.8586 80.4254 78.0299 80.8806 79.1223C81.3359 80.2146 82.0019 81.2066 82.8405 82.0416C83.6792 82.8765 84.6741 83.5381 85.7685 83.9885L93.5131 87.1782C95.1639 87.8582 96.5757 89.0133 97.5691 90.4969C98.5626 91.9804 99.093 93.7256 99.0932 95.5111V103.886C99.0932 106.276 100.042 108.568 101.732 110.258C103.422 111.947 105.714 112.897 108.104 112.897H116.722C118.498 112.901 120.232 113.429 121.709 114.416C123.185 115.403 124.337 116.803 125.02 118.442L128.334 126.385C129.254 128.591 131.012 130.34 133.222 131.25C135.431 132.159 137.911 132.154 140.117 131.236L147.849 128.009C149.497 127.321 151.312 127.139 153.064 127.486C154.816 127.832 156.425 128.692 157.687 129.955L163.609 135.877C165.3 137.566 167.592 138.515 169.981 138.515C172.371 138.515 174.663 137.566 176.353 135.877L182.447 129.783C183.705 128.525 185.307 127.667 187.051 127.318C188.796 126.969 190.604 127.145 192.249 127.822L200.217 131.104C201.312 131.555 202.484 131.785 203.667 131.783C204.851 131.78 206.022 131.545 207.115 131.089C208.207 130.634 209.199 129.968 210.034 129.13C210.869 128.291 211.53 127.296 211.981 126.202L215.17 118.457C215.851 116.806 217.006 115.394 218.489 114.401C219.973 113.407 221.718 112.877 223.503 112.877H231.878C234.268 112.877 236.56 111.928 238.25 110.238C239.94 108.548 240.889 106.256 240.889 103.866V95.2678C240.889 93.4889 241.416 91.7497 242.403 90.2695C243.39 88.7893 244.792 87.6343 246.434 86.9498L254.378 83.636C256.583 82.7161 258.333 80.9581 259.242 78.7485C260.152 76.5389 260.146 74.0586 259.228 71.8528L256.001 64.1206C255.316 62.4708 255.137 60.6546 255.487 58.9029C255.837 57.1513 256.701 55.5433 257.967 54.2834Z" stroke="url(#paint7_linear_70_583)" stroke-miterlimit="10"/>
<path opacity="0.5" d="M264.843 55.2441L271.23 48.8597C273.051 47.037 274.074 44.5657 274.074 41.9889C274.074 39.4121 273.051 36.9408 271.23 35.118L264.659 28.55C263.303 27.1935 262.379 25.466 262.003 23.5851C261.627 21.7042 261.816 19.7541 262.547 17.9806L266.084 9.38953C266.57 8.20969 266.819 6.94566 266.816 5.66965C266.814 4.39363 266.56 3.13061 266.069 1.95274C265.578 0.774861 264.86 -0.294808 263.956 -1.19518C263.052 -2.09555 261.979 -2.80899 260.799 -3.29475L252.449 -6.73267C250.669 -7.46559 249.147 -8.71078 248.076 -10.3102C247.006 -11.9096 246.434 -13.7911 246.434 -15.7159V-24.7463C246.435 -26.0226 246.184 -27.2864 245.695 -28.4656C245.207 -29.6448 244.491 -30.7163 243.589 -31.6187C242.686 -32.5212 241.615 -33.237 240.436 -33.7253C239.257 -34.2135 237.993 -34.4647 236.716 -34.4643H227.425C225.507 -34.4644 223.632 -35.0322 222.036 -36.0964C220.44 -37.1605 219.195 -38.6733 218.457 -40.4441L214.883 -49.0202C214.392 -50.1979 213.674 -51.2675 212.77 -52.1677C211.866 -53.068 210.794 -53.7813 209.614 -54.267C208.434 -54.7527 207.17 -55.0012 205.895 -54.9983C204.619 -54.9955 203.356 -54.7413 202.178 -54.2503L193.843 -50.7752C192.066 -50.035 190.109 -49.8392 188.221 -50.2127C186.333 -50.5861 184.598 -51.5119 183.236 -52.8727L176.852 -59.2595C175.029 -61.0809 172.558 -62.104 169.981 -62.104C167.404 -62.104 164.933 -61.0809 163.11 -59.2595L156.542 -52.689C155.186 -51.3329 153.458 -50.4086 151.577 -50.0327C149.696 -49.6568 147.746 -49.846 145.973 -50.5766L137.382 -54.1138C136.202 -54.5998 134.938 -54.8486 133.662 -54.846C132.386 -54.8435 131.123 -54.5896 129.945 -54.0988C128.767 -53.6081 127.698 -52.8901 126.797 -51.9859C125.897 -51.0817 125.183 -50.009 124.698 -48.8291L121.26 -40.4788C120.527 -38.699 119.282 -37.1771 117.682 -36.1063C116.083 -35.0354 114.201 -34.4639 112.276 -34.4643H103.246C101.97 -34.4647 100.706 -34.2135 99.5267 -33.7253C98.3475 -33.237 97.2761 -32.5212 96.3736 -31.6187C95.4711 -30.7163 94.7553 -29.6448 94.2671 -28.4656C93.7788 -27.2864 93.5277 -26.0226 93.528 -24.7463V-15.4553C93.5279 -13.5371 92.9601 -11.6618 91.8959 -10.0658C90.8318 -8.46978 89.319 -7.22452 87.5482 -6.48693L78.9721 -2.91249C77.7944 -2.42191 76.7248 -1.70411 75.8246 -0.800111C74.9243 0.103893 74.211 1.1764 73.7253 2.35614C73.2396 3.53589 72.9911 4.79975 72.994 6.07556C72.9968 7.35136 73.251 8.6141 73.742 9.79166L77.2171 18.127C77.9573 19.904 78.1531 21.8607 77.7796 23.749C77.4062 25.6373 76.4804 27.3722 75.1196 28.7337L68.7328 35.118C66.9114 36.9408 65.8883 39.4121 65.8883 41.9889C65.8883 44.5657 66.9114 47.037 68.7328 48.8597L75.3033 55.4278C76.6594 56.7842 77.5837 58.5118 77.9596 60.3927C78.3355 62.2736 78.1463 64.2237 77.4157 65.9972L73.8785 74.5882C73.3925 75.7681 73.1437 77.0321 73.1463 78.3081C73.1489 79.5841 73.4028 80.8472 73.8935 82.025C74.3842 83.2029 75.1022 84.2726 76.0064 85.1729C76.9106 86.0733 77.9833 86.7868 79.1632 87.2725L87.5135 90.7104C89.2933 91.4434 90.8152 92.6886 91.886 94.288C92.9569 95.8874 93.5284 97.7689 93.528 99.6937V108.724C93.5277 110 93.7788 111.264 94.2671 112.443C94.7553 113.623 95.4711 114.694 96.3736 115.596C97.2761 116.499 98.3475 117.215 99.5267 117.703C100.706 118.191 101.97 118.442 103.246 118.442H112.537C114.455 118.442 116.331 119.01 117.927 120.074C119.523 121.138 120.768 122.651 121.505 124.422L125.08 132.998C125.57 134.176 126.288 135.245 127.192 136.146C128.096 137.046 129.169 137.759 130.348 138.245C131.528 138.73 132.792 138.979 134.068 138.976C135.344 138.973 136.606 138.719 137.784 138.228L146.119 134.753C147.896 134.013 149.853 133.817 151.741 134.19C153.63 134.564 155.365 135.49 156.726 136.85L163.11 143.237C164.933 145.059 167.404 146.082 169.981 146.082C172.558 146.082 175.029 145.059 176.852 143.237L183.42 136.667C184.777 135.311 186.504 134.386 188.385 134.01C190.266 133.635 192.216 133.824 193.989 134.554L202.581 138.092C203.76 138.578 205.024 138.826 206.3 138.824C207.576 138.821 208.839 138.567 210.017 138.077C211.195 137.586 212.265 136.868 213.165 135.964C214.066 135.06 214.779 133.987 215.265 132.807L218.703 124.457C219.436 122.677 220.681 121.155 222.28 120.084C223.88 119.013 225.761 118.442 227.686 118.442H236.716C237.993 118.442 239.257 118.191 240.436 117.703C241.615 117.215 242.686 116.499 243.589 115.596C244.491 114.694 245.207 113.623 245.695 112.443C246.184 111.264 246.435 110 246.434 108.724V99.4331C246.434 97.5148 247.002 95.6395 248.066 94.0435C249.131 92.4475 250.643 91.2023 252.414 90.4647L260.99 86.8903C262.168 86.3997 263.238 85.6819 264.138 84.7779C265.038 83.8739 265.751 82.8014 266.237 81.6216C266.723 80.4419 266.971 79.178 266.968 77.9022C266.966 76.6264 266.711 75.3637 266.22 74.1861L262.745 65.8507C262.005 64.0738 261.809 62.1171 262.183 60.2288C262.556 58.3404 263.482 56.6055 264.843 55.2441V55.2441Z" stroke="url(#paint8_linear_70_583)" stroke-miterlimit="10"/>
<path opacity="0.5" d="M271.721 56.2047L278.57 49.3562C280.522 47.4014 281.619 44.7516 281.619 41.9889C281.619 39.2261 280.522 36.5764 278.57 34.6216L271.525 27.5745C270.071 26.1198 269.08 24.2675 268.676 22.2507C268.272 20.234 268.474 18.1429 269.256 16.2405L273.052 7.02397C274.102 4.46879 274.095 1.60132 273.032 -0.948682C271.969 -3.49868 269.938 -5.52272 267.385 -6.57627L258.429 -10.2649C256.52 -11.0515 254.887 -12.3872 253.738 -14.1027C252.589 -15.8182 251.975 -17.8362 251.975 -19.901V-29.5817C251.975 -32.3467 250.876 -34.9985 248.921 -36.9536C246.966 -38.9088 244.314 -40.0072 241.549 -40.0072H231.591C229.534 -40.0078 227.523 -40.6169 225.811 -41.7578C224.1 -42.8987 222.764 -44.5204 221.972 -46.4188L218.137 -55.6155C217.073 -58.1651 215.04 -60.188 212.485 -61.2399C209.93 -62.2917 207.063 -62.2865 204.512 -61.2254L195.576 -57.502C193.67 -56.7084 191.571 -56.4985 189.546 -56.8989C187.521 -57.2992 185.66 -58.2919 184.2 -59.751L177.351 -66.5995C175.396 -68.5518 172.746 -69.6484 169.984 -69.6484C167.221 -69.6484 164.571 -68.5518 162.616 -66.5995L155.569 -59.5549C154.115 -58.1009 152.262 -57.1096 150.246 -56.7059C148.229 -56.3022 146.138 -56.5041 144.235 -57.2861L135.019 -61.0814C132.464 -62.1315 129.596 -62.1245 127.046 -61.0619C124.496 -59.9994 122.472 -57.9682 121.419 -55.4145L117.73 -46.4585C116.943 -44.5495 115.608 -42.917 113.892 -41.768C112.177 -40.619 110.159 -40.0053 108.094 -40.0047H98.4131C95.6481 -40.0047 92.9963 -38.9063 91.0412 -36.9511C89.086 -34.996 87.9876 -32.3443 87.9876 -29.5793V-19.6205C87.987 -17.5635 87.3779 -15.5527 86.237 -13.8411C85.0961 -12.1295 83.4744 -10.7937 81.576 -10.0018L72.3768 -6.1667C69.8272 -5.10245 67.8043 -3.06972 66.7524 -0.515009C65.7006 2.0397 65.7058 4.90748 66.7669 7.45836L70.4903 16.3945C71.2839 18.3003 71.4938 20.3988 71.0934 22.4241C70.6931 24.4493 69.7004 26.3101 68.2413 27.7706L61.3928 34.6191C59.4405 36.5739 58.3439 39.2237 58.3439 41.9864C58.3439 44.7492 59.4405 47.3989 61.3928 49.3537L68.4374 56.4008C69.8914 57.8555 70.8827 59.7078 71.2864 61.7246C71.6901 63.7413 71.4882 65.8325 70.7062 67.7348L66.9109 76.9513C65.8608 79.5065 65.8678 82.374 66.9304 84.924C67.9929 87.474 70.0241 89.498 72.5778 90.5516L81.5338 94.2402C83.4428 95.0268 85.0753 96.3625 86.2243 98.078C87.3733 99.7935 87.987 101.812 87.9876 103.876V113.557C87.9876 116.322 89.086 118.974 91.0412 120.929C92.9963 122.884 95.6481 123.982 98.4131 123.982H108.372C110.429 123.983 112.44 124.592 114.151 125.733C115.863 126.874 117.199 128.496 117.991 130.394L121.826 139.593C122.89 142.143 124.923 144.166 127.477 145.218C130.032 146.27 132.9 146.264 135.451 145.203L144.387 141.48C146.293 140.686 148.391 140.476 150.416 140.877C152.442 141.277 154.302 142.27 155.763 143.729L162.611 150.577C164.566 152.53 167.216 153.626 169.979 153.626C172.741 153.626 175.391 152.53 177.346 150.577L184.393 143.533C185.848 142.079 187.7 141.087 189.717 140.684C191.734 140.28 193.825 140.482 195.727 141.264L204.944 145.059C207.499 146.109 210.366 146.102 212.916 145.04C215.466 143.977 217.49 141.946 218.544 139.392L222.233 130.436C223.019 128.527 224.355 126.895 226.07 125.746C227.786 124.597 229.804 123.983 231.869 123.982H241.549C244.314 123.982 246.966 122.884 248.921 120.929C250.876 118.974 251.975 116.322 251.975 113.557V103.598C251.975 101.541 252.584 99.5305 253.725 97.8189C254.866 96.1073 256.488 94.7715 258.386 93.9796L267.586 90.1445C270.135 89.0802 272.158 87.0475 273.21 84.4928C274.262 81.9381 274.257 79.0703 273.196 76.5194L269.472 67.5833C268.678 65.6772 268.468 63.5782 268.868 61.5524C269.269 59.5267 270.261 57.6654 271.721 56.2047V56.2047Z" stroke="url(#paint9_linear_70_583)" stroke-miterlimit="10"/>
<path opacity="0.4" d="M278.599 57.1653L285.902 49.8551C287.988 47.7687 289.16 44.9392 289.16 41.9889C289.16 39.0385 287.988 36.209 285.902 34.1226L278.388 26.5989C276.836 25.0456 275.779 23.0675 275.349 20.9141C274.919 18.7607 275.136 16.5282 275.973 14.498L280.024 4.66084C280.58 3.31002 280.865 1.86286 280.862 0.402001C280.859 -1.05886 280.568 -2.5048 280.006 -3.85325C279.444 -5.2017 278.622 -6.42624 277.587 -7.45694C276.552 -8.48764 275.323 -9.30431 273.973 -9.8603L264.406 -13.7971C262.368 -14.6366 260.625 -16.0624 259.399 -17.8938C258.173 -19.7252 257.518 -21.8795 257.518 -24.0836V-34.4246C257.518 -37.3746 256.346 -40.2038 254.26 -42.2897C252.174 -44.3757 249.345 -45.5476 246.395 -45.5476H235.761C233.565 -45.5476 231.417 -46.1978 229.59 -47.4161C227.763 -48.6344 226.337 -50.3663 225.492 -52.3936L221.401 -62.2134C220.266 -64.9368 218.096 -67.0979 215.367 -68.2211C212.639 -69.3444 209.576 -69.3379 206.853 -68.203L197.308 -64.2314C195.273 -63.3843 193.033 -63.1605 190.871 -63.5882C188.708 -64.016 186.722 -65.0761 185.163 -66.6343L177.847 -73.9321C175.761 -76.0181 172.932 -77.19 169.981 -77.19C167.031 -77.19 164.201 -76.0181 162.115 -73.9321L154.591 -66.4183C153.038 -64.8662 151.06 -63.8086 148.906 -63.3788C146.753 -62.949 144.521 -63.1662 142.49 -64.0031L132.653 -68.0491C131.302 -68.6054 129.855 -68.8901 128.394 -68.887C126.934 -68.8839 125.488 -68.5931 124.139 -68.0311C122.791 -67.4691 121.566 -66.647 120.535 -65.6118C119.505 -64.5765 118.688 -63.3483 118.132 -61.9974L114.195 -52.4358C113.356 -50.3979 111.93 -48.6552 110.099 -47.4288C108.267 -46.2024 106.113 -45.5477 103.909 -45.5476H93.5677C90.6178 -45.5476 87.7886 -44.3757 85.7026 -42.2897C83.6167 -40.2038 82.4448 -37.3746 82.4448 -34.4246V-23.7907C82.4447 -21.5944 81.7946 -19.4472 80.5763 -17.6198C79.358 -15.7924 77.6261 -14.3664 75.5988 -13.5216L65.779 -9.43087C63.0555 -8.29583 60.8945 -6.12543 59.7712 -3.39709C58.648 -0.668756 58.6545 2.39404 59.7893 5.11757L63.7609 14.6618C64.608 16.6967 64.8319 18.9373 64.4041 21.0996C63.9764 23.2618 62.9162 25.2484 61.3581 26.8075L54.0603 34.1226C51.9743 36.209 50.8024 39.0385 50.8024 41.9889C50.8024 44.9392 51.9743 47.7687 54.0603 49.8551L61.5741 57.3788C63.1262 58.9322 64.1838 60.9102 64.6136 63.0637C65.0434 65.2171 64.8262 67.4496 63.9893 69.4798L59.9432 79.3169C59.387 80.6677 59.1023 82.1149 59.1054 83.5757C59.1085 85.0366 59.3993 86.4826 59.9613 87.831C60.5232 89.1794 61.3453 90.404 62.3806 91.4347C63.4159 92.4654 64.644 93.2821 65.9949 93.8381L75.5566 97.7749C77.5945 98.6143 79.3372 100.04 80.5636 101.872C81.7899 103.703 82.4447 105.857 82.4448 108.061V118.402C82.4448 121.352 83.6167 124.182 85.7026 126.267C87.7886 128.353 90.6178 129.525 93.5677 129.525H104.202C106.398 129.525 108.545 130.176 110.373 131.394C112.2 132.612 113.626 134.344 114.471 136.371L118.561 146.191C119.697 148.915 121.867 151.076 124.595 152.199C127.324 153.322 130.386 153.316 133.11 152.181L142.654 148.209C144.689 147.362 146.93 147.138 149.092 147.566C151.254 147.994 153.241 149.054 154.8 150.612L162.115 157.91C164.201 159.996 167.031 161.168 169.981 161.168C172.932 161.168 175.761 159.996 177.847 157.91L185.371 150.396C186.925 148.844 188.903 147.786 191.056 147.357C193.209 146.927 195.442 147.144 197.472 147.981L207.309 152.032C208.66 152.588 210.107 152.873 211.568 152.87C213.029 152.867 214.475 152.576 215.823 152.014C217.172 151.452 218.396 150.63 219.427 149.595C220.458 148.559 221.274 147.331 221.83 145.98L225.767 136.419C226.607 134.381 228.033 132.638 229.864 131.412C231.695 130.185 233.85 129.53 236.054 129.53H246.395C249.345 129.53 252.174 128.358 254.26 126.272C256.346 124.186 257.518 121.357 257.518 118.407V107.768C257.518 105.572 258.168 103.425 259.386 101.598C260.604 99.7701 262.336 98.3442 264.364 97.4994L274.183 93.4086C276.907 92.2736 279.068 90.1032 280.191 87.3748C281.315 84.6465 281.308 81.5837 280.173 78.8602L276.202 69.3159C275.353 67.2809 275.128 65.0396 275.554 62.8763C275.981 60.7131 277.041 58.7254 278.599 57.1653V57.1653Z" stroke="url(#paint10_linear_70_583)" stroke-miterlimit="10"/>
<path opacity="0.4" d="M285.478 58.1235L293.252 50.3491C295.471 48.1305 296.717 45.1214 296.717 41.9839C296.717 38.8464 295.471 35.8374 293.252 33.6187L285.254 25.6209C283.602 23.9711 282.476 21.8691 282.017 19.58C281.558 17.2909 281.787 14.9171 282.675 12.7579L286.982 2.29775C287.574 0.86137 287.876 -0.677493 287.873 -2.23095C287.87 -3.7844 287.561 -5.32202 286.964 -6.75599C286.366 -8.18995 285.492 -9.49218 284.391 -10.5883C283.29 -11.6844 281.984 -12.5529 280.548 -13.1443L270.371 -17.3294C268.209 -18.225 266.361 -19.7412 265.061 -21.6865C263.761 -23.6318 263.066 -25.9189 263.066 -28.2587V-39.2625C263.066 -40.8166 262.761 -42.3556 262.166 -43.7915C261.572 -45.2274 260.7 -46.5322 259.601 -47.6311C258.502 -48.73 257.198 -49.6016 255.762 -50.196C254.326 -50.7904 252.787 -51.096 251.233 -51.0954H239.921C237.585 -51.0951 235.301 -51.7863 233.358 -53.082C231.414 -54.3776 229.898 -56.2196 228.999 -58.3758L224.65 -68.8137C223.442 -71.7075 221.134 -74.0031 218.233 -75.1957C215.333 -76.3882 212.078 -76.3801 209.183 -75.1732L199.024 -70.9534C196.861 -70.0531 194.48 -69.8152 192.182 -70.2699C189.884 -70.7247 187.773 -71.8515 186.116 -73.5076L178.346 -81.282C176.128 -83.5005 173.119 -84.7469 169.981 -84.7469C166.844 -84.7469 163.835 -83.5005 161.616 -81.282L153.618 -73.2842C151.968 -71.6313 149.865 -70.5043 147.575 -70.0453C145.285 -69.5863 142.91 -69.8159 140.75 -70.7051L130.29 -75.0168C128.854 -75.6084 127.315 -75.9113 125.761 -75.9082C124.208 -75.905 122.67 -75.5959 121.236 -74.9984C119.802 -74.4009 118.5 -73.5268 117.404 -72.426C116.308 -71.3253 115.439 -70.0193 114.848 -68.5828L110.663 -58.4056C109.768 -56.243 108.252 -54.3943 106.307 -53.0931C104.362 -51.7919 102.074 -51.0967 99.7336 -51.0954H88.7298C87.1757 -51.096 85.6367 -50.7904 84.2008 -50.196C82.7649 -49.6016 81.4602 -48.73 80.3613 -47.6311C79.2624 -46.5322 78.3908 -45.2274 77.7964 -43.7915C77.2019 -42.3556 76.8963 -40.8166 76.897 -39.2625V-27.9509C76.8972 -25.615 76.206 -23.3313 74.9104 -21.3877C73.6148 -19.444 71.7728 -17.9274 69.6165 -17.029L59.1787 -12.6801C56.2848 -11.4718 53.9892 -9.16374 52.7967 -6.26335C51.6041 -3.36295 51.6122 -0.107679 52.8192 2.78676L57.039 12.9466C57.9393 15.1092 58.1771 17.4904 57.7224 19.7884C57.2677 22.0864 56.1408 24.1975 54.4847 25.8543L46.7103 33.6237C44.4918 35.8423 43.2455 38.8514 43.2455 41.9889C43.2455 45.1264 44.4918 48.1355 46.7103 50.3541L54.7081 58.3519C56.361 60.0021 57.4881 62.105 57.9471 64.3951C58.4061 66.6853 58.1765 69.0601 57.2872 71.2198L52.9755 81.68C52.3839 83.1164 52.081 84.6553 52.0842 86.2087C52.0873 87.7622 52.3965 89.2998 52.9939 90.7338C53.5914 92.1677 54.4655 93.4699 55.5663 94.5661C56.6671 95.6622 57.973 96.5307 59.4095 97.1221L69.5867 101.307C71.7493 102.202 73.5981 103.718 74.8992 105.663C76.2004 107.609 76.8956 109.896 76.897 112.236V123.23C76.895 124.785 77.1997 126.325 77.7935 127.762C78.3873 129.199 79.2587 130.505 80.3578 131.605C81.4568 132.705 82.7619 133.578 84.1985 134.173C85.6351 134.768 87.1749 135.074 88.7298 135.073H100.041C102.377 135.073 104.661 135.764 106.605 137.06C108.548 138.355 110.065 140.197 110.963 142.354L115.315 152.796C116.524 155.689 118.832 157.983 121.732 159.174C124.631 160.366 127.886 160.357 130.779 159.151L140.939 154.931C143.102 154.031 145.483 153.793 147.781 154.248C150.079 154.702 152.19 155.829 153.847 157.485L161.621 165.26C163.84 167.478 166.849 168.725 169.986 168.725C173.124 168.725 176.133 167.478 178.351 165.26L186.349 157.262C187.999 155.61 190.101 154.484 192.39 154.025C194.679 153.566 197.053 153.795 199.212 154.683L209.672 158.99C211.109 159.581 212.648 159.884 214.201 159.881C215.755 159.878 217.292 159.569 218.726 158.971C220.16 158.374 221.462 157.5 222.558 156.399C223.655 155.298 224.523 153.992 225.114 152.556L229.299 142.378C230.195 140.217 231.711 138.369 233.657 137.069C235.602 135.769 237.889 135.074 240.229 135.073H251.223C252.778 135.075 254.318 134.77 255.755 134.177C257.192 133.583 258.498 132.711 259.598 131.612C260.698 130.513 261.57 129.208 262.165 127.772C262.76 126.335 263.066 124.795 263.066 123.24V111.929C263.065 109.593 263.756 107.309 265.052 105.365C266.348 103.422 268.19 101.905 270.346 101.007L280.789 96.6554C283.681 95.4462 285.975 93.1381 287.167 90.2384C288.358 87.3387 288.35 84.0845 287.143 81.191L282.923 71.0312C282.023 68.8686 281.785 66.4873 282.24 64.1894C282.695 61.8914 283.822 59.7802 285.478 58.1235V58.1235Z" stroke="url(#paint11_linear_70_583)" stroke-miterlimit="10"/>
<path opacity="0.3" d="M292.356 59.0891L300.594 50.8505C302.944 48.4999 304.264 45.3124 304.264 41.9889C304.264 38.6654 302.944 35.4779 300.594 33.1273L292.108 24.6504C290.358 22.9013 289.165 20.6734 288.679 18.2475C288.193 15.8215 288.436 13.306 289.377 11.0179L293.94 -0.0653535C295.207 -3.13623 295.203 -6.58471 293.929 -9.65265C292.654 -12.7206 290.213 -15.1569 287.143 -16.4258L276.37 -20.8616C274.074 -21.8073 272.11 -23.4137 270.728 -25.4771C269.346 -27.5405 268.609 -29.9678 268.608 -32.4512V-44.1004C268.609 -45.7463 268.285 -47.3762 267.655 -48.8969C267.025 -50.4176 266.102 -51.7994 264.938 -52.9632C263.774 -54.1271 262.393 -55.0502 260.872 -55.6799C259.351 -56.3097 257.721 -56.6336 256.075 -56.6333H244.086C241.611 -56.6333 239.192 -57.3659 237.133 -58.7389C235.074 -60.1118 233.468 -62.0636 232.516 -64.3481L227.907 -75.4214C226.628 -78.4878 224.184 -80.921 221.112 -82.1866C218.04 -83.4521 214.592 -83.4464 211.524 -82.1706L200.761 -77.6778C198.469 -76.7238 195.945 -76.4719 193.51 -76.954C191.074 -77.4361 188.837 -78.6306 187.081 -80.3859L178.843 -88.6245C176.492 -90.974 173.305 -92.2938 169.981 -92.2938C166.658 -92.2938 163.47 -90.974 161.12 -88.6245L152.643 -80.1377C150.894 -78.3878 148.666 -77.1947 146.24 -76.7088C143.814 -76.2229 141.298 -76.4659 139.01 -77.4072L127.927 -81.9845C126.405 -82.6116 124.775 -82.9329 123.13 -82.9299C121.484 -82.927 119.855 -82.6 118.336 -81.9675C116.817 -81.335 115.437 -80.4094 114.275 -79.2437C113.114 -78.0779 112.193 -76.6947 111.566 -75.1732L107.131 -64.4002C106.185 -62.1039 104.579 -60.1403 102.515 -58.7583C100.452 -57.3764 98.0244 -56.6385 95.541 -56.6382H83.8919C82.2459 -56.6386 80.6161 -56.3146 79.0954 -55.6849C77.5747 -55.0552 76.1929 -54.132 75.0291 -52.9682C73.8652 -51.8043 72.9421 -50.4226 72.3123 -48.9019C71.6826 -47.3812 71.3587 -45.7513 71.359 -44.1054V-32.1211C71.359 -29.6464 70.6264 -27.227 69.2534 -25.1681C67.8805 -23.1091 65.9287 -21.5027 63.6442 -20.5513L52.5709 -15.9368C49.5045 -14.658 47.0712 -12.2141 45.8057 -9.14223C44.5402 -6.07033 44.5459 -2.62168 45.8216 0.445996L50.3145 11.209C51.2685 13.5011 51.5204 16.0248 51.0383 18.4602C50.5561 20.8956 49.3617 23.133 47.6064 24.8887L39.3678 33.1273C37.0183 35.4779 35.6985 38.6654 35.6985 41.9889C35.6985 45.3124 37.0183 48.4999 39.3678 50.8505L47.8546 59.3274C49.6045 61.0764 50.7976 63.3043 51.2835 65.7303C51.7694 68.1563 51.5264 70.6718 50.5851 72.9599L46.0078 84.0431C45.3807 85.5646 45.0594 87.1947 45.0623 88.8403C45.0653 90.4859 45.3923 92.1149 46.0248 93.6341C46.6573 95.1534 47.5829 96.5331 48.7486 97.6947C49.9144 98.8562 51.2975 99.7767 52.8191 100.404L63.592 104.839C65.8883 105.785 67.852 107.391 69.2339 109.455C70.6159 111.518 71.3538 113.946 71.354 116.429V128.078C71.3537 129.724 71.6777 131.354 72.3074 132.875C72.9371 134.395 73.8602 135.777 75.0241 136.941C76.1879 138.105 77.5697 139.028 79.0904 139.658C80.6111 140.287 82.241 140.611 83.8869 140.611H95.8712C98.3459 140.611 100.765 141.344 102.824 142.717C104.883 144.09 106.49 146.041 107.441 148.326L112.055 159.399C113.334 162.466 115.778 164.899 118.85 166.164C121.922 167.43 125.371 167.424 128.438 166.148L139.201 161.656C141.493 160.702 144.017 160.45 146.452 160.932C148.888 161.414 151.125 162.608 152.881 164.364L161.12 172.602C163.47 174.952 166.658 176.272 169.981 176.272C173.305 176.272 176.492 174.952 178.843 172.602L187.32 164.115C189.069 162.365 191.297 161.172 193.723 160.687C196.149 160.201 198.664 160.444 200.952 161.385L212.035 165.947C215.106 167.215 218.555 167.211 221.623 165.936C224.691 164.662 227.127 162.221 228.396 159.151L232.832 148.378C233.777 146.082 235.384 144.118 237.447 142.736C239.511 141.354 241.938 140.616 244.421 140.616H256.07C257.716 140.616 259.346 140.292 260.867 139.663C262.388 139.033 263.769 138.11 264.933 136.946C266.097 135.782 267.02 134.4 267.65 132.88C268.28 131.359 268.604 129.729 268.603 128.083V116.094C268.603 113.619 269.336 111.2 270.709 109.141C272.082 107.082 274.034 105.475 276.318 104.524L287.391 99.9146C290.458 98.6357 292.891 96.1919 294.157 93.12C295.422 90.0481 295.416 86.5994 294.141 83.5318L289.648 72.7687C288.694 70.4767 288.442 67.953 288.924 65.5176C289.406 63.0822 290.601 60.8448 292.356 59.0891Z" stroke="url(#paint12_linear_70_583)" stroke-miterlimit="10"/>
<path opacity="0.3" d="M299.234 60.0497L307.922 51.3619C309.152 50.1328 310.127 48.6735 310.793 47.0674C311.458 45.4613 311.8 43.7398 311.8 42.0013C311.8 40.2628 311.458 38.5413 310.793 36.9352C310.127 35.3291 309.152 33.8698 307.922 32.6408L298.971 23.6898C297.124 21.8421 295.865 19.4892 295.352 16.9273C294.839 14.3654 295.096 11.7091 296.089 9.29274L300.91 -2.41354C301.572 -4.02074 301.911 -5.7426 301.907 -7.48079C301.904 -9.21897 301.558 -10.9394 300.889 -12.544C300.221 -14.1485 299.243 -15.6056 298.011 -16.8322C296.78 -18.0587 295.319 -19.0306 293.711 -19.6925L282.333 -24.3789C279.908 -25.3782 277.836 -27.0751 276.377 -29.2543C274.919 -31.4335 274.141 -33.9967 274.141 -36.6189V-48.9408C274.141 -52.4517 272.747 -55.8188 270.264 -58.3013C267.781 -60.7839 264.414 -62.1786 260.903 -62.1786H248.244C245.631 -62.1783 243.076 -62.9515 240.901 -64.4009C238.726 -65.8502 237.029 -67.9107 236.024 -70.3229L231.161 -82.0093C229.811 -85.2497 227.229 -87.8211 223.983 -89.1581C220.737 -90.495 217.093 -90.4879 213.852 -89.1383L202.499 -84.4046C200.078 -83.396 197.411 -83.1293 194.838 -83.6384C192.265 -84.1475 189.902 -85.4095 188.047 -87.2642L179.359 -95.9521C178.13 -97.1816 176.671 -98.1569 175.065 -98.8224C173.459 -99.4878 171.737 -99.8304 169.999 -99.8304C168.26 -99.8304 166.539 -99.4878 164.933 -98.8224C163.326 -98.1569 161.867 -97.1816 160.638 -95.9521L151.67 -87.0135C149.822 -85.1662 147.469 -83.9069 144.907 -83.3941C142.345 -82.8813 139.689 -83.1379 137.273 -84.1316L125.561 -88.9521C123.954 -89.6141 122.232 -89.953 120.494 -89.9495C118.756 -89.946 117.036 -89.6001 115.431 -88.9317C113.826 -88.2632 112.369 -87.2853 111.143 -86.0536C109.916 -84.822 108.944 -83.3609 108.283 -81.7536L103.596 -70.375C102.597 -67.9507 100.9 -65.8779 98.7207 -64.4195C96.5415 -62.9611 93.9782 -62.1829 91.3561 -62.1836H79.0516C75.5407 -62.1836 72.1736 -60.7889 69.691 -58.3063C67.2084 -55.8237 65.8137 -52.4566 65.8137 -48.9457V-36.2863C65.814 -33.6729 65.0408 -31.118 63.5915 -28.9434C62.1422 -26.7687 60.0816 -25.0717 57.6695 -24.0662L45.9831 -19.191C42.7426 -17.8409 40.1712 -15.2589 38.8343 -12.013C37.4974 -8.76704 37.5045 -5.12301 38.8541 -1.88234L43.5877 9.47146C44.5964 11.8926 44.863 14.5588 44.3539 17.1318C43.8448 19.7048 42.5828 22.0685 40.7281 23.9231L32.0403 32.6234C30.8107 33.8525 29.8354 35.3117 29.1699 36.9178C28.5045 38.5239 28.162 40.2454 28.162 41.9839C28.162 43.7224 28.5045 45.4439 29.1699 47.05C29.8354 48.6561 30.8107 50.1154 32.0403 51.3445L40.9789 60.3004C42.8261 62.1481 44.0854 64.501 44.5982 67.0629C45.1111 69.6248 44.8545 72.2811 43.8607 74.6975L39.0402 86.4211C38.3783 88.0283 38.0393 89.7502 38.0429 91.4884C38.0464 93.2265 38.3922 94.947 39.0607 96.5515C39.7291 98.156 40.7071 99.6132 41.9387 100.84C43.1703 102.066 44.6315 103.038 46.2387 103.7L57.6174 108.387C60.0416 109.386 62.1145 111.083 63.5728 113.262C65.0312 115.441 65.8094 118.004 65.8088 120.626V132.931C65.8088 136.442 67.2035 139.809 69.686 142.292C70.9153 143.521 72.3746 144.496 73.9807 145.161C75.5868 145.826 77.3082 146.169 79.0466 146.169H91.7061C94.3194 146.169 96.8743 146.942 99.049 148.391C101.224 149.84 102.921 151.901 103.926 154.313L108.796 165.999C110.147 169.24 112.728 171.811 115.974 173.148C119.22 174.485 122.864 174.478 126.105 173.128L137.464 168.382C139.885 167.374 142.551 167.107 145.124 167.616C147.697 168.125 150.061 169.387 151.915 171.242L160.616 179.93C161.845 181.159 163.304 182.135 164.91 182.8C166.516 183.466 168.238 183.808 169.976 183.808C171.715 183.808 173.436 183.466 175.042 182.8C176.648 182.135 178.108 181.159 179.337 179.93L188.288 170.979C190.135 169.132 192.488 167.872 195.05 167.359C197.612 166.847 200.268 167.103 202.685 168.097L214.413 172.93C216.021 173.592 217.743 173.931 219.481 173.927C221.219 173.924 222.939 173.578 224.544 172.909C226.148 172.241 227.606 171.263 228.832 170.031C230.059 168.8 231.031 167.339 231.692 165.731L236.379 154.353C237.378 151.928 239.075 149.856 241.254 148.397C243.433 146.939 245.997 146.161 248.619 146.161H260.923C264.434 146.161 267.801 144.767 270.284 142.284C272.766 139.802 274.161 136.434 274.161 132.924V120.264C274.161 117.651 274.934 115.096 276.383 112.921C277.833 110.747 279.893 109.05 282.305 108.044L293.992 103.174C297.232 101.824 299.804 99.2416 301.141 95.9957C302.478 92.7498 302.47 89.1058 301.121 85.8651L296.375 74.5063C295.365 72.0845 295.098 69.4173 295.607 66.8433C296.116 64.2693 297.379 61.9047 299.234 60.0497V60.0497Z" stroke="url(#paint13_linear_70_583)" stroke-miterlimit="10"/>
<path opacity="0.1" d="M306.113 61.0104L315.275 51.8484C316.569 50.5537 317.597 49.0166 318.297 47.3249C318.998 45.6332 319.359 43.82 319.359 41.9889C319.359 40.1578 318.998 38.3446 318.297 36.6529C317.597 34.9612 316.569 33.4241 315.275 32.1294L305.842 22.6969C303.896 20.7505 302.569 18.2717 302.03 15.5728C301.49 12.8738 301.761 10.0755 302.809 7.53035L307.885 -4.79897C309.291 -8.21772 309.282 -12.0552 307.86 -15.4673C306.437 -18.8794 303.718 -21.5867 300.299 -22.9938L288.317 -27.9286C285.765 -28.9815 283.583 -30.7688 282.048 -33.0638C280.513 -35.3588 279.695 -38.0579 279.697 -40.8189V-53.7787C279.697 -55.6105 279.337 -57.4245 278.636 -59.117C277.935 -60.8095 276.908 -62.3474 275.613 -63.6427C274.318 -64.938 272.78 -65.9653 271.087 -66.666C269.395 -67.3668 267.581 -67.7271 265.749 -67.7264H252.417C249.664 -67.7259 246.973 -68.5403 244.683 -70.067C242.392 -71.5937 240.605 -73.7642 239.546 -76.3051L234.418 -88.6071C233.714 -90.2975 232.684 -91.8326 231.387 -93.1248C230.09 -94.4171 228.55 -95.4411 226.857 -96.1384C225.164 -96.8356 223.35 -97.1926 221.519 -97.1887C219.688 -97.1848 217.876 -96.8203 216.186 -96.1159L204.236 -91.1315C201.685 -90.0657 198.874 -89.7829 196.161 -90.3191C193.449 -90.8552 190.957 -92.1861 189.003 -94.1425L179.841 -103.304C178.546 -104.599 177.009 -105.626 175.317 -106.327C173.625 -107.028 171.812 -107.389 169.981 -107.389C168.15 -107.389 166.337 -107.028 164.645 -106.327C162.954 -105.626 161.416 -104.599 160.122 -103.304L150.689 -93.8719C148.743 -91.9276 146.265 -90.6026 143.567 -90.0638C140.869 -89.5249 138.072 -89.7962 135.528 -90.8436L123.198 -95.9198C121.505 -96.6169 119.691 -96.9734 117.86 -96.9692C116.028 -96.965 114.216 -96.6 112.526 -95.895C110.836 -95.1901 109.301 -94.1591 108.009 -92.8609C106.718 -91.5627 105.695 -90.0228 104.998 -88.3291L100.064 -76.3547C99.012 -73.8011 97.2251 -71.6175 94.9301 -70.0813C92.635 -68.5451 89.9352 -67.7254 87.1734 -67.7264H74.2136C72.3818 -67.7271 70.5678 -67.3668 68.8753 -66.666C67.1828 -65.9653 65.6449 -64.938 64.3496 -63.6427C63.0543 -62.3474 62.027 -60.8095 61.3263 -59.117C60.6256 -57.4245 60.2652 -55.6105 60.2659 -53.7787V-40.4465C60.2664 -37.6939 59.452 -35.0028 57.9253 -32.7124C56.3986 -30.422 54.2281 -28.6348 51.6872 -27.5761L39.3852 -22.4477C37.6949 -21.7439 36.1597 -20.7139 34.8675 -19.4167C33.5752 -18.1194 32.5512 -16.5803 31.854 -14.8872C31.1567 -13.1941 30.7998 -11.3802 30.8036 -9.54917C30.8075 -7.71813 31.172 -5.90578 31.8764 -4.21565L36.8608 7.74631C37.9239 10.2962 38.2053 13.1045 37.6692 15.8146C37.1331 18.5247 35.8037 21.0144 33.8498 22.9674L24.6878 32.1294C23.393 33.4241 22.3659 34.9612 21.6651 36.6529C20.9643 38.3446 20.6036 40.1578 20.6036 41.9889C20.6036 43.82 20.9643 45.6332 21.6651 47.3249C22.3659 49.0166 23.393 50.5537 24.6878 51.8484L34.1204 61.2809C36.0647 63.2274 37.3897 65.7056 37.9286 68.4035C38.4674 71.1014 38.1961 73.8985 37.1487 76.4425L32.0725 88.7718C31.3755 90.4652 31.0189 92.2793 31.0231 94.1106C31.0274 95.9418 31.3924 97.7542 32.0973 99.4444C32.8022 101.135 33.8332 102.669 35.1314 103.961C36.4296 105.252 37.9695 106.275 39.6632 106.972L51.645 111.906C54.1973 112.959 56.3793 114.747 57.9141 117.042C59.449 119.337 60.2675 122.036 60.2659 124.797V137.756C60.2652 139.588 60.6256 141.402 61.3263 143.095C62.027 144.787 63.0543 146.325 64.3496 147.62C65.6449 148.916 67.1828 149.943 68.8753 150.644C70.5678 151.345 72.3818 151.705 74.2136 151.704H87.5458C90.2984 151.704 92.9895 152.518 95.2799 154.045C97.5703 155.571 99.3576 157.742 100.416 160.283L105.545 172.59C106.248 174.28 107.278 175.815 108.576 177.108C109.873 178.4 111.412 179.424 113.105 180.121C114.798 180.818 116.612 181.175 118.443 181.171C120.274 181.168 122.087 180.803 123.777 180.099L135.739 175.114C138.288 174.051 141.097 173.77 143.807 174.306C146.517 174.842 149.007 176.171 150.96 178.125L160.122 187.287C161.416 188.582 162.954 189.609 164.645 190.31C166.337 191.011 168.15 191.371 169.981 191.371C171.812 191.371 173.625 191.011 175.317 190.31C177.009 189.609 178.546 188.582 179.841 187.287L189.273 177.855C191.22 175.909 193.698 174.582 196.397 174.042C199.096 173.502 201.895 173.774 204.44 174.821L216.769 179.898C218.462 180.594 220.276 180.95 222.107 180.945C223.937 180.941 225.749 180.575 227.439 179.871C229.128 179.166 230.662 178.135 231.954 176.837C233.245 175.539 234.268 174 234.964 172.307L239.899 160.325C240.952 157.773 242.739 155.591 245.034 154.056C247.329 152.521 250.028 151.703 252.789 151.704H265.749C267.581 151.705 269.395 151.345 271.087 150.644C272.78 149.943 274.318 148.916 275.613 147.62C276.908 146.325 277.935 144.787 278.636 143.095C279.337 141.402 279.697 139.588 279.697 137.756V124.422C279.697 121.67 280.511 118.979 282.038 116.689C283.564 114.399 285.735 112.612 288.275 111.554L300.582 106.426C302.273 105.722 303.808 104.692 305.1 103.394C306.392 102.097 307.416 100.558 308.113 98.865C308.811 97.1719 309.168 95.358 309.164 93.527C309.16 91.6959 308.795 89.8836 308.091 88.1935L303.102 76.2439C302.036 73.6925 301.753 70.8816 302.289 68.169C302.825 65.4564 304.156 62.9645 306.113 61.0104V61.0104Z" stroke="url(#paint14_linear_70_583)" stroke-miterlimit="10"/>
<path opacity="0.1" d="M312.991 61.971L322.617 52.3448C323.977 50.9849 325.056 49.3704 325.792 47.5935C326.528 45.8166 326.907 43.9122 326.907 41.9889C326.907 40.0656 326.528 38.1612 325.792 36.3843C325.056 34.6074 323.977 32.9929 322.617 31.633L312.713 21.7288C310.668 19.6843 309.274 17.0801 308.707 14.2446C308.14 11.4091 308.425 8.46909 309.526 5.79525L314.858 -7.1596C316.335 -10.7506 316.326 -14.7812 314.832 -18.3654C313.338 -21.9496 310.482 -24.7939 306.892 -26.2729L294.305 -31.4558C291.621 -32.5606 289.326 -34.4377 287.711 -36.849C286.096 -39.2602 285.234 -42.0969 285.234 -44.999V-58.6166C285.234 -62.5008 283.691 -66.2258 280.945 -68.9724C278.198 -71.7189 274.473 -73.2619 270.589 -73.2619H256.579C253.688 -73.262 250.861 -74.1179 248.456 -75.7219C246.05 -77.3258 244.173 -79.6059 243.061 -82.2749L237.675 -95.2049C236.935 -96.9804 235.853 -98.5928 234.49 -99.9501C233.127 -101.307 231.51 -102.383 229.731 -103.115C227.953 -103.847 226.048 -104.222 224.124 -104.218C222.201 -104.214 220.297 -103.831 218.522 -103.091L205.954 -97.8535C203.275 -96.7375 200.324 -96.4428 197.477 -97.0067C194.63 -97.5706 192.015 -98.9678 189.963 -101.021L180.337 -110.647C178.977 -112.007 177.363 -113.086 175.586 -113.822C173.809 -114.558 171.904 -114.937 169.981 -114.937C168.058 -114.937 166.153 -114.558 164.377 -113.822C162.6 -113.086 160.985 -112.007 159.625 -110.647L149.721 -100.74C147.677 -98.6954 145.072 -97.3015 142.237 -96.7343C139.401 -96.1671 136.461 -96.452 133.788 -97.5531L120.833 -102.887C117.242 -104.365 113.211 -104.356 109.627 -102.862C106.043 -101.368 103.198 -98.5122 101.719 -94.9219L96.5315 -82.3345C95.4268 -79.6509 93.5496 -77.3561 91.1384 -75.7412C88.7271 -74.1263 85.8904 -73.2642 82.9884 -73.2643H69.3757C65.4916 -73.2643 61.7665 -71.7213 59.02 -68.9748C56.2734 -66.2283 54.7305 -62.5032 54.7305 -58.6191V-44.6117C54.7303 -41.7204 53.8744 -38.8938 52.2705 -36.4881C50.6665 -34.0824 48.3864 -32.2054 45.7174 -31.0934L32.7874 -25.707C31.0119 -24.9673 29.3995 -23.8851 28.0422 -22.5222C26.685 -21.1593 25.6095 -19.5424 24.8772 -17.7639C24.1449 -15.9853 23.7701 -14.0799 23.7743 -12.1565C23.7784 -10.2331 24.1614 -8.32933 24.9013 -6.55393L30.1388 6.01369C31.2553 8.69325 31.5504 11.6442 30.9864 14.4917C30.4225 17.3393 29.025 19.9551 26.9715 22.0068L17.3453 31.633C15.9853 32.9929 14.9065 34.6074 14.1705 36.3843C13.4345 38.1612 13.0557 40.0656 13.0557 41.9889C13.0557 43.9122 13.4345 45.8166 14.1705 47.5935C14.9065 49.3704 15.9853 50.9849 17.3453 52.3448L27.2495 62.249C29.2944 64.2935 30.6884 66.8977 31.2556 69.7332C31.8228 72.5687 31.5378 75.5087 30.4367 78.1825L25.1048 91.1374C23.6275 94.7284 23.6367 98.759 25.1304 102.343C26.6241 105.927 29.4801 108.772 33.0704 110.251L45.6578 115.439C48.3414 116.543 50.6363 118.42 52.2511 120.832C53.866 123.243 54.7281 126.08 54.728 128.982V142.594C54.728 146.479 56.271 150.204 59.0175 152.95C61.764 155.697 65.4891 157.24 69.3732 157.24H83.3806C86.2719 157.24 89.0985 158.096 91.5042 159.7C93.9099 161.304 95.7869 163.584 96.8989 166.253L102.285 179.183C103.025 180.958 104.107 182.571 105.47 183.928C106.833 185.285 108.45 186.361 110.228 187.093C112.007 187.825 113.912 188.2 115.836 188.196C117.759 188.192 119.663 187.809 121.438 187.069L134.006 181.831C136.685 180.715 139.635 180.42 142.482 180.983C145.329 181.547 147.945 182.944 149.997 184.996L159.623 194.622C160.983 195.982 162.597 197.061 164.374 197.797C166.151 198.533 168.055 198.912 169.979 198.912C171.902 198.912 173.806 198.533 175.583 197.797C177.36 197.061 178.975 195.982 180.335 194.622L190.239 184.718C192.283 182.673 194.888 181.279 197.723 180.712C200.559 180.145 203.499 180.43 206.172 181.531L219.13 186.865C222.721 188.343 226.751 188.333 230.336 186.84C233.92 185.346 236.764 182.49 238.243 178.9L243.426 166.312C244.531 163.629 246.408 161.334 248.819 159.719C251.23 158.104 254.067 157.242 256.969 157.242H270.587C274.471 157.242 278.196 155.699 280.942 152.953C283.689 150.206 285.232 146.481 285.232 142.597V128.587C285.232 125.696 286.088 122.869 287.692 120.463C289.296 118.058 291.576 116.181 294.245 115.069L307.175 109.682C308.95 108.943 310.563 107.86 311.92 106.498C313.277 105.135 314.353 103.518 315.085 101.739C315.817 99.9606 316.192 98.0552 316.188 96.1318C316.184 94.2084 315.801 92.3046 315.061 90.5292L309.824 77.9616C308.708 75.2824 308.413 72.332 308.977 69.4849C309.541 66.6378 310.938 64.0225 312.991 61.971V61.971Z" stroke="url(#paint15_linear_70_583)" stroke-miterlimit="10"/>
<path d="M195.141 46.3278L198.666 42.8033C198.772 42.6979 198.856 42.5727 198.913 42.4349C198.971 42.2971 199 42.1493 199 42C199 41.8508 198.971 41.703 198.913 41.5651C198.856 41.4273 198.772 41.3021 198.666 41.1967L195.094 37.625C194.935 37.4667 194.827 37.2649 194.783 37.045C194.739 36.8251 194.761 36.5972 194.847 36.39L196.78 31.7164C196.837 31.5787 196.867 31.431 196.867 31.2819C196.867 31.1327 196.837 30.985 196.78 30.8473C196.723 30.7096 196.639 30.5845 196.533 30.4794C196.427 30.3742 196.302 30.291 196.164 30.2345L191.551 28.3358C191.343 28.2504 191.165 28.1049 191.04 27.9178C190.915 27.7307 190.848 27.5106 190.849 27.2856V22.3005C190.849 21.9992 190.729 21.7102 190.516 21.4971C190.303 21.2841 190.014 21.1644 189.712 21.1644H184.658C184.433 21.1646 184.214 21.0984 184.028 20.9742C183.841 20.85 183.695 20.6732 183.609 20.4663L181.665 15.7971C181.608 15.6595 181.524 15.5346 181.418 15.4295C181.312 15.3244 181.187 15.2411 181.049 15.1845C180.911 15.1278 180.764 15.0989 180.615 15.0994C180.466 15.0998 180.318 15.1296 180.181 15.1871L175.577 17.1051C175.369 17.1914 175.14 17.214 174.919 17.17C174.697 17.126 174.494 17.0175 174.335 16.8581L170.81 13.3336C170.705 13.2278 170.579 13.1439 170.441 13.0867C170.304 13.0295 170.156 13 170.006 13C169.857 13 169.709 13.0295 169.571 13.0867C169.434 13.1439 169.308 13.2278 169.203 13.3336L165.63 16.9053C165.472 17.0642 165.27 17.1725 165.05 17.2164C164.83 17.2604 164.602 17.2381 164.395 17.1523L159.721 15.23C159.583 15.1728 159.435 15.1433 159.286 15.1434C159.137 15.1434 158.989 15.1729 158.851 15.2301C158.713 15.2874 158.588 15.3714 158.483 15.4771C158.378 15.5829 158.295 15.7084 158.238 15.8465L156.339 20.4578C156.254 20.666 156.108 20.844 155.921 20.9691C155.734 21.0942 155.514 21.1607 155.289 21.1601H150.303C150.153 21.1601 150.006 21.1895 149.868 21.2466C149.73 21.3037 149.605 21.3874 149.499 21.4929C149.393 21.5984 149.31 21.7236 149.253 21.8615C149.196 21.9993 149.166 22.1471 149.166 22.2963V27.3521C149.166 27.5763 149.1 27.7954 148.976 27.982C148.852 28.1685 148.675 28.3141 148.468 28.4003L143.798 30.344C143.66 30.4013 143.535 30.4852 143.43 30.5908C143.325 30.6965 143.242 30.8218 143.185 30.9596C143.128 31.0975 143.099 31.2451 143.1 31.3941C143.1 31.5432 143.13 31.6906 143.188 31.8281L145.106 36.4308C145.192 36.639 145.215 36.868 145.171 37.089C145.127 37.31 145.018 37.513 144.859 37.6722L141.334 41.1967C141.228 41.3021 141.144 41.4273 141.087 41.5651C141.029 41.703 141 41.8508 141 42C141 42.1493 141.029 42.2971 141.087 42.4349C141.144 42.5727 141.228 42.6979 141.334 42.8033L144.906 46.375C145.065 46.5333 145.173 46.7351 145.217 46.955C145.261 47.1749 145.239 47.4029 145.153 47.61L143.231 52.2836C143.173 52.4213 143.144 52.569 143.144 52.7182C143.144 52.8673 143.173 53.015 143.231 53.1527C143.288 53.2905 143.372 53.4155 143.478 53.5207C143.583 53.6258 143.709 53.7091 143.847 53.7656L148.459 55.6642C148.668 55.7496 148.846 55.8952 148.971 56.0822C149.096 56.2693 149.162 56.4894 149.162 56.7145V61.6995C149.162 62.0008 149.282 62.2898 149.495 62.5029C149.708 62.716 149.997 62.8357 150.298 62.8357H155.355C155.579 62.8354 155.799 62.9016 155.985 63.0258C156.172 63.1501 156.317 63.3268 156.404 63.5337L158.348 68.203C158.405 68.3405 158.489 68.4654 158.595 68.5705C158.7 68.6756 158.826 68.7589 158.964 68.8155C159.101 68.8722 159.249 68.9011 159.398 68.9007C159.547 68.9002 159.695 68.8704 159.832 68.8129L164.436 66.895C164.644 66.8086 164.873 66.786 165.094 66.83C165.315 66.874 165.518 66.9825 165.678 67.142L169.203 70.6665C169.308 70.7722 169.434 70.8561 169.571 70.9133C169.709 70.9706 169.857 71 170.006 71C170.156 71 170.304 70.9706 170.441 70.9133C170.579 70.8561 170.705 70.7722 170.81 70.6665L174.382 67.0947C174.541 66.9359 174.743 66.8276 174.963 66.7836C175.182 66.7396 175.41 66.7619 175.618 66.8477L180.292 68.7807C180.43 68.838 180.578 68.8674 180.727 68.8674C180.876 68.8674 181.024 68.8379 181.162 68.7806C181.299 68.7233 181.424 68.6394 181.53 68.5336C181.635 68.4279 181.718 68.3023 181.775 68.1643L183.674 63.553C183.759 63.3448 183.905 63.1668 184.092 63.0417C184.279 62.9166 184.499 62.8501 184.724 62.8507H189.71C190.012 62.8507 190.301 62.731 190.514 62.5179C190.727 62.3048 190.847 62.0158 190.847 61.7145V56.6479C190.846 56.4238 190.913 56.2046 191.037 56.018C191.161 55.8315 191.338 55.686 191.545 55.5998L196.215 53.656C196.353 53.5987 196.478 53.5148 196.583 53.4092C196.688 53.3035 196.771 53.1782 196.828 53.0404C196.885 52.9026 196.914 52.7549 196.913 52.6059C196.913 52.4569 196.883 52.3094 196.825 52.1719L194.907 47.5692C194.819 47.3623 194.794 47.134 194.836 46.9131C194.878 46.6921 194.984 46.4885 195.141 46.3278Z" fill="url(#paint16_linear_70_583)" stroke="white" stroke-miterlimit="10"/>
<path d="M180.347 40.0045L183.154 40.2648L183.375 37.8766L178.978 37.4687C178.215 35.9254 177.069 34.6035 175.652 33.6289C174.234 32.6542 172.591 32.0592 170.879 31.9003C169.166 31.7415 167.442 32.0241 165.869 32.7213C164.296 33.4186 162.927 34.5072 161.893 35.8837L157.497 35.4759L157.275 37.8641L160.595 38.1721C159.86 39.9919 159.669 41.9865 160.045 43.9127L156.743 43.6063L156.521 45.9945L160.882 46.3991C161.64 47.9578 162.786 49.2944 164.21 50.2803C165.634 51.2662 167.288 51.8681 169.011 52.028C170.735 52.1879 172.471 51.9004 174.052 51.1933C175.633 50.4862 177.006 49.3832 178.038 47.9906L182.399 48.3952L182.621 46.007L179.318 45.7006C180.043 43.8765 180.222 41.8807 179.833 39.9568L180.347 40.0045ZM169.329 48.6455C168.01 48.5232 166.757 48.0118 165.729 47.1759C164.7 46.3401 163.942 45.2174 163.551 43.9498C163.159 42.6822 163.152 41.3266 163.529 40.0545C163.907 38.7824 164.652 37.6509 165.672 36.8031C166.691 35.9553 167.938 35.4292 169.256 35.2914C170.573 35.1536 171.902 35.4103 173.073 36.029C174.245 36.6477 175.207 37.6007 175.838 38.7673C176.468 39.9339 176.74 41.2619 176.617 42.5833C176.451 44.3549 175.59 45.9883 174.222 47.1248C172.855 48.2614 171.094 48.8082 169.326 48.6452L169.329 48.6455ZM170.162 39.6618C170.617 39.704 171.049 39.8803 171.403 40.1684C171.758 40.4565 172.019 40.8435 172.154 41.2804C172.289 41.7173 172.292 42.1846 172.161 42.623C172.031 43.0615 171.774 43.4515 171.423 43.7437C171.072 44.036 170.642 44.2173 170.188 44.2648C169.734 44.3123 169.276 44.2238 168.872 44.0105C168.468 43.7973 168.136 43.4688 167.919 43.0667C167.702 42.6646 167.608 42.2069 167.65 41.7514C167.707 41.1413 168.003 40.5785 168.473 40.1866C168.944 39.7948 169.55 39.6059 170.159 39.6615L170.162 39.6618Z" fill="white"/>
</g>
<defs>
<linearGradient id="paint0_linear_70_583" x1="126.265" y1="41.9932" x2="213.697" y2="41.9932" gradientUnits="userSpaceOnUse">
<stop stop-color="#E29C53"/>
<stop offset="1" stop-color="#CE4C7A"/>
</linearGradient>
<linearGradient id="paint1_linear_70_583" x1="118.728" y1="41.9896" x2="221.244" y2="41.9896" gradientUnits="userSpaceOnUse">
<stop stop-color="#E29C53"/>
<stop offset="1" stop-color="#CE4C7A"/>
</linearGradient>
<linearGradient id="paint2_linear_70_583" x1="111.181" y1="41.9895" x2="228.791" y2="41.9895" gradientUnits="userSpaceOnUse">
<stop stop-color="#E29C53"/>
<stop offset="1" stop-color="#CE4C7A"/>
</linearGradient>
<linearGradient id="paint3_linear_70_583" x1="103.635" y1="41.9923" x2="236.333" y2="41.9923" gradientUnits="userSpaceOnUse">
<stop stop-color="#E29C53"/>
<stop offset="1" stop-color="#CE4C7A"/>
</linearGradient>
<linearGradient id="paint4_linear_70_583" x1="96.0665" y1="41.9894" x2="243.886" y2="41.9894" gradientUnits="userSpaceOnUse">
<stop stop-color="#E29C53"/>
<stop offset="1" stop-color="#CE4C7A"/>
</linearGradient>
<linearGradient id="paint5_linear_70_583" x1="88.5391" y1="41.99" x2="251.423" y2="41.99" gradientUnits="userSpaceOnUse">
<stop stop-color="#E29C53"/>
<stop offset="1" stop-color="#CE4C7A"/>
</linearGradient>
<linearGradient id="paint6_linear_70_583" x1="80.994" y1="41.9902" x2="258.983" y2="41.9902" gradientUnits="userSpaceOnUse">
<stop stop-color="#E29C53"/>
<stop offset="1" stop-color="#CE4C7A"/>
</linearGradient>
<linearGradient id="paint7_linear_70_583" x1="73.4551" y1="41.9902" x2="266.527" y2="41.9902" gradientUnits="userSpaceOnUse">
<stop stop-color="#E29C53"/>
<stop offset="1" stop-color="#CE4C7A"/>
</linearGradient>
<linearGradient id="paint8_linear_70_583" x1="65.8883" y1="41.9904" x2="274.074" y2="41.9904" gradientUnits="userSpaceOnUse">
<stop stop-color="#E29C53"/>
<stop offset="1" stop-color="#CE4C7A"/>
</linearGradient>
<linearGradient id="paint9_linear_70_583" x1="58.3439" y1="41.9905" x2="281.619" y2="41.9905" gradientUnits="userSpaceOnUse">
<stop stop-color="#E29C53"/>
<stop offset="1" stop-color="#CE4C7A"/>
</linearGradient>
<linearGradient id="paint10_linear_70_583" x1="50.8024" y1="41.9906" x2="289.16" y2="41.9906" gradientUnits="userSpaceOnUse">
<stop stop-color="#E29C53"/>
<stop offset="1" stop-color="#CE4C7A"/>
</linearGradient>
<linearGradient id="paint11_linear_70_583" x1="43.2455" y1="41.9907" x2="296.717" y2="41.9907" gradientUnits="userSpaceOnUse">
<stop stop-color="#E29C53"/>
<stop offset="1" stop-color="#CE4C7A"/>
</linearGradient>
<linearGradient id="paint12_linear_70_583" x1="35.6985" y1="41.9908" x2="304.264" y2="41.9908" gradientUnits="userSpaceOnUse">
<stop stop-color="#E29C53"/>
<stop offset="1" stop-color="#CE4C7A"/>
</linearGradient>
<linearGradient id="paint13_linear_70_583" x1="28.162" y1="41.9909" x2="311.8" y2="41.9909" gradientUnits="userSpaceOnUse">
<stop stop-color="#E29C53"/>
<stop offset="1" stop-color="#CE4C7A"/>
</linearGradient>
<linearGradient id="paint14_linear_70_583" x1="20.6036" y1="41.9935" x2="319.359" y2="41.9935" gradientUnits="userSpaceOnUse">
<stop stop-color="#E29C53"/>
<stop offset="1" stop-color="#CE4C7A"/>
</linearGradient>
<linearGradient id="paint15_linear_70_583" x1="13.0557" y1="41.9899" x2="326.907" y2="41.9899" gradientUnits="userSpaceOnUse">
<stop stop-color="#E29C53"/>
<stop offset="1" stop-color="#CE4C7A"/>
</linearGradient>
<linearGradient id="paint16_linear_70_583" x1="141" y1="42.0004" x2="199" y2="42.0004" gradientUnits="userSpaceOnUse">
<stop stop-color="#E29C53"/>
<stop offset="1" stop-color="#CE4C7A"/>
</linearGradient>
</defs>
</svg>
