<svg width="84" height="60" viewBox="0 0 84 60" fill="none" xmlns="http://www.w3.org/2000/svg">
<path d="M4.18068 20.2584L13.2864 20.7855L17.2127 27.1554L8.10701 26.6283L4.18068 20.2584Z" fill="url(#paint0_linear_180_1660)" stroke="#FFBA93" stroke-width="0.5"/>
<path d="M0.464626 34.6175L11.2163 35.2405L15.1439 41.6103L4.39095 40.9874L0.464626 34.6175Z" fill="url(#paint1_linear_180_1660)" stroke="#FFBA93" stroke-width="0.5"/>
<path d="M61.0738 13.3187L61.0739 13.3188L63.1466 16.6821C59.9036 13.4792 55.3187 11.4212 49.8535 11.1087L49.8529 11.1086C47.4017 10.9744 44.9441 11.1788 42.5485 11.716L38.5798 5.2775C40.8771 4.77819 43.2309 4.59009 45.5787 4.71862C52.5778 5.12463 58.0698 8.43701 61.0738 13.3187Z" fill="url(#paint2_linear_180_1660)" stroke="#FFBA93" stroke-width="0.5"/>
<mask id="path-4-inside-1_180_1660" fill="white">
<path d="M38.1832 5.11023L42.4297 11.9995C41.3667 12.2428 40.3181 12.5463 39.2889 12.9085L35.0425 6.01931C36.0715 5.65689 37.1201 5.35338 38.1832 5.11023Z"/>
</mask>
<path d="M38.1832 5.11023L42.4297 11.9995C41.3667 12.2428 40.3181 12.5463 39.2889 12.9085L35.0425 6.01931C36.0715 5.65689 37.1201 5.35338 38.1832 5.11023Z" fill="url(#paint3_linear_180_1660)"/>
<path d="M42.4297 11.9995L42.5413 12.4869L43.2215 12.3311L42.8553 11.7371L42.4297 11.9995ZM39.2889 12.9085L38.8633 13.1709L39.0748 13.514L39.455 13.3802L39.2889 12.9085ZM35.0425 6.01931L34.8764 5.5477L34.2914 5.75371L34.6168 6.28167L35.0425 6.01931ZM37.7576 5.37259L42.0041 12.2618L42.8553 11.7371L38.6089 4.84787L37.7576 5.37259ZM42.3181 11.5121C41.2366 11.7596 40.1699 12.0684 39.1229 12.4369L39.455 13.3802C40.4662 13.0242 41.4967 12.726 42.5413 12.4869L42.3181 11.5121ZM39.7146 12.6462L35.4681 5.75695L34.6168 6.28167L38.8633 13.1709L39.7146 12.6462ZM35.2086 6.49091C36.2198 6.1348 37.2501 5.83656 38.2947 5.59764L38.0718 4.62282C36.9902 4.8702 35.9233 5.17899 34.8764 5.5477L35.2086 6.49091Z" fill="#FFBA93" mask="url(#path-4-inside-1_180_1660)"/>
<path d="M32.8852 7.1509C33.5594 6.85121 34.243 6.57534 34.936 6.32329L38.9141 12.7772C38.2214 13.0293 37.5366 13.3065 36.8663 13.6097L32.8852 7.1509Z" fill="url(#paint4_linear_180_1660)" stroke="#FFBA93" stroke-width="0.5"/>
<path d="M30.6914 8.23384C31.2575 7.92387 31.834 7.63243 32.4209 7.35951L36.4034 13.8205C35.8189 14.0945 35.2429 14.3867 34.6753 14.6972L30.6914 8.23384Z" fill="url(#paint5_linear_180_1660)" stroke="#FFBA93" stroke-width="0.5"/>
<mask id="path-8-inside-2_180_1660" fill="white">
<path d="M30.341 8.14185L34.5819 15.0311C33.9045 15.4069 33.2425 15.81 32.5958 16.2404L28.3494 9.35112C28.9951 8.92266 29.6571 8.51957 30.3354 8.14185"/>
</mask>
<path d="M30.341 8.14185L34.5819 15.0311C33.9045 15.4069 33.2425 15.81 32.5958 16.2404L28.3494 9.35112C28.9951 8.92266 29.6571 8.51957 30.3354 8.14185" fill="url(#paint6_linear_180_1660)"/>
<path d="M34.5819 15.0311L34.8245 15.4683L35.2819 15.2145L35.0077 14.769L34.5819 15.0311ZM32.5958 16.2404L32.1702 16.5027L32.4419 16.9434L32.8729 16.6566L32.5958 16.2404ZM28.3494 9.35112L28.0729 8.9345L27.67 9.20186L27.9237 9.61348L28.3494 9.35112ZM29.9152 8.40395L34.1561 15.2932L35.0077 14.769L30.7668 7.87974L29.9152 8.40395ZM34.3393 14.5939C33.6501 14.9763 32.9766 15.3863 32.3188 15.8241L32.8729 16.6566C33.5083 16.2337 34.1588 15.8376 34.8245 15.4683L34.3393 14.5939ZM33.0215 15.978L28.775 9.08876L27.9237 9.61348L32.1702 16.5027L33.0215 15.978ZM28.6258 9.76774C29.2607 9.34646 29.9116 8.95012 30.5787 8.57869L30.0922 7.705C29.4025 8.08902 28.7294 8.49886 28.0729 8.9345L28.6258 9.76774Z" fill="#FFBA93" mask="url(#path-8-inside-2_180_1660)"/>
<path d="M26.8273 10.7405C27.2999 10.3779 27.7834 10.0317 28.2778 9.70201L32.2623 16.1663C31.7689 16.498 31.285 16.8436 30.8108 17.2031L26.8273 10.7405Z" fill="url(#paint7_linear_180_1660)" stroke="#FFBA93" stroke-width="0.5"/>
<path d="M25.0497 12.2042C25.4977 11.8065 25.9578 11.4215 26.43 11.0492L30.4122 17.5098C29.9401 17.8799 29.4793 18.2637 29.0297 18.6612L25.0497 12.2042Z" fill="url(#paint8_linear_180_1660)" stroke="#FFBA93" stroke-width="0.5"/>
<path d="M23.3265 13.8645C23.7604 13.4113 24.2091 12.9715 24.6726 12.5452L28.6521 19.0013C28.1881 19.4264 27.7382 19.8646 27.3022 20.3157L23.3265 13.8645Z" fill="url(#paint9_linear_180_1660)" stroke="#FFBA93" stroke-width="0.5"/>
<mask id="path-13-inside-3_180_1660" fill="white">
<path d="M23.0125 13.8317L27.259 20.7223C26.6534 21.3622 26.0791 22.0274 25.5361 22.718L21.2854 15.8288C21.8285 15.1391 22.4032 14.4734 23.0097 13.8317"/>
</mask>
<path d="M23.0125 13.8317L27.259 20.7223C26.6534 21.3622 26.0791 22.0274 25.5361 22.718L21.2854 15.8288C21.8285 15.1391 22.4032 14.4734 23.0097 13.8317" fill="url(#paint10_linear_180_1660)"/>
<path d="M27.259 20.7223L27.6222 21.066L27.8862 20.787L27.6847 20.46L27.259 20.7223ZM25.5361 22.718L25.1105 22.9806L25.4865 23.59L25.9291 23.0271L25.5361 22.718ZM21.2854 15.8288L20.8926 15.5195L20.6764 15.794L20.8599 16.0914L21.2854 15.8288ZM22.5869 14.094L26.8333 20.9846L27.6847 20.46L23.4382 13.5693L22.5869 14.094ZM26.8959 20.3786C26.2798 21.0295 25.6955 21.7063 25.143 22.409L25.9291 23.0271C26.4627 22.3485 27.027 21.6948 27.6222 21.066L26.8959 20.3786ZM25.9616 22.4555L21.7109 15.5663L20.8599 16.0914L25.1105 22.9806L25.9616 22.4555ZM21.6782 16.1381C22.2119 15.4603 22.7769 14.806 23.3731 14.1751L22.6463 13.4882C22.0296 14.1408 21.445 14.8179 20.8926 15.5195L21.6782 16.1381Z" fill="#FFBA93" mask="url(#path-13-inside-3_180_1660)"/>
<path d="M19.8187 18.3496C20.2677 17.6335 20.7494 16.9386 21.2621 16.2674L25.2291 22.7011C24.7119 23.3665 24.2253 24.0553 23.7707 24.7653L19.8187 18.3496Z" fill="url(#paint11_linear_180_1660)" stroke="#FFBA93" stroke-width="0.5"/>
<mask id="path-16-inside-4_180_1660" fill="white">
<path d="M19.5251 18.3489L23.7715 25.2381C22.8708 26.6864 22.1172 28.2225 21.5223 29.823L17.2759 22.9337C17.8699 21.3328 18.6235 19.7967 19.5251 18.3489Z"/>
</mask>
<path d="M19.5251 18.3489L23.7715 25.2381C22.8708 26.6864 22.1172 28.2225 21.5223 29.823L17.2759 22.9337C17.8699 21.3328 18.6235 19.7967 19.5251 18.3489Z" fill="url(#paint12_linear_180_1660)"/>
<path d="M23.7715 25.2381L24.1961 25.5022L24.3596 25.2393L24.1972 24.9758L23.7715 25.2381ZM21.5223 29.823L21.0967 30.0853L21.6342 30.9573L21.991 29.9971L21.5223 29.823ZM17.2759 22.9337L16.8071 22.7598L16.7223 22.9884L16.8502 23.1961L17.2759 22.9337ZM19.0994 18.6112L23.3459 25.5005L24.1972 24.9758L19.9507 18.0865L19.0994 18.6112ZM23.347 24.974C22.4285 26.4508 21.6602 28.0169 21.0537 29.6488L21.991 29.9971C22.5743 28.428 23.313 26.922 24.1961 25.5022L23.347 24.974ZM21.948 29.5606L17.7015 22.6714L16.8502 23.1961L21.0967 30.0853L21.948 29.5606ZM17.7446 23.1077C18.327 21.5383 19.0657 20.0324 19.9495 18.6132L19.1006 18.0846C18.1812 19.561 17.4128 21.1274 16.8071 22.7598L17.7446 23.1077Z" fill="#FFBA93" mask="url(#path-16-inside-4_180_1660)"/>
<mask id="path-18-inside-5_180_1660" fill="white">
<path d="M17.2755 22.9338L21.5219 29.8231C21.2462 30.5693 21.0079 31.3289 20.8081 32.0993C20.5861 32.9526 20.4155 33.8186 20.2972 34.6926L16.0508 27.8034C16.1689 26.9293 16.3395 26.0633 16.5616 25.2101C16.7608 24.4395 16.9991 23.6798 17.2755 22.9338Z"/>
</mask>
<path d="M17.2755 22.9338L21.5219 29.8231C21.2462 30.5693 21.0079 31.3289 20.8081 32.0993C20.5861 32.9526 20.4155 33.8186 20.2972 34.6926L16.0508 27.8034C16.1689 26.9293 16.3395 26.0633 16.5616 25.2101C16.7608 24.4395 16.9991 23.6798 17.2755 22.9338Z" fill="url(#paint13_linear_180_1660)"/>
<path d="M21.5219 29.8231L21.9909 29.9964L22.0753 29.768L21.9476 29.5607L21.5219 29.8231ZM20.8081 32.0993L21.292 32.2252L21.2921 32.2248L20.8081 32.0993ZM20.2972 34.6926L19.8716 34.955L20.6053 36.1452L20.7927 34.7597L20.2972 34.6926ZM16.0508 27.8034L15.5553 27.7364L15.5313 27.9136L15.6251 28.0657L16.0508 27.8034ZM16.5616 25.2101L17.0455 25.336L17.0457 25.3352L16.5616 25.2101ZM16.8498 23.1962L21.0963 30.0854L21.9476 29.5607L17.7011 22.6715L16.8498 23.1962ZM21.0529 29.6497C20.7714 30.4116 20.5281 31.1872 20.3241 31.9737L21.2921 32.2248C21.4877 31.4706 21.7209 30.7269 21.9909 29.9964L21.0529 29.6497ZM20.3242 31.9734C20.0972 32.8461 19.9227 33.7317 19.8018 34.6256L20.7927 34.7597C20.9083 33.9055 21.075 33.0591 21.292 32.2252L20.3242 31.9734ZM20.7229 34.4303L16.4764 27.541L15.6251 28.0657L19.8716 34.955L20.7229 34.4303ZM16.5463 27.8704C16.6617 27.0162 16.8284 26.1699 17.0455 25.336L16.0778 25.0841C15.8506 25.9568 15.6761 26.8425 15.5553 27.7364L16.5463 27.8704ZM17.0457 25.3352C17.2406 24.5811 17.4738 23.8376 17.7443 23.1076L16.8066 22.7601C16.5243 23.522 16.281 24.298 16.0776 25.0849L17.0457 25.3352Z" fill="#FFBA93" mask="url(#path-18-inside-5_180_1660)"/>
<mask id="path-20-inside-6_180_1660" fill="white">
<path d="M16.051 27.8033L20.2974 34.6926C20.0827 36.2541 20.0549 37.836 20.2149 39.4043L15.967 32.5136C15.8071 30.9459 15.8348 29.3644 16.0496 27.8033"/>
</mask>
<path d="M16.051 27.8033L20.2974 34.6926C20.0827 36.2541 20.0549 37.836 20.2149 39.4043L15.967 32.5136C15.8071 30.9459 15.8348 29.3644 16.0496 27.8033" fill="url(#paint14_linear_180_1660)"/>
<path d="M20.2974 34.6926L20.7928 34.7607L20.8172 34.583L20.7231 34.4302L20.2974 34.6926ZM20.2149 39.4043L19.7892 39.6666L20.7123 39.3535L20.2149 39.4043ZM15.967 32.5136L15.4696 32.5643L15.4812 32.6784L15.5414 32.776L15.967 32.5136ZM15.6253 28.0657L19.8718 34.9549L20.7231 34.4302L16.4766 27.541L15.6253 28.0657ZM19.8021 34.6245C19.5819 36.2254 19.5535 37.8472 19.7174 39.455L20.7123 39.3535C20.5564 37.8249 20.5834 36.2829 20.7928 34.7607L19.8021 34.6245ZM20.6405 39.1419L16.3926 32.2512L15.5414 32.776L19.7892 39.6666L20.6405 39.1419ZM16.4644 32.4629C16.3086 30.9347 16.3356 29.3932 16.5449 27.8715L15.5542 27.7352C15.3341 29.3357 15.3056 30.957 15.4696 32.5643L16.4644 32.4629Z" fill="#FFBA93" mask="url(#path-20-inside-6_180_1660)"/>
<mask id="path-22-inside-7_180_1660" fill="white">
<path d="M15.9668 32.5134L20.2133 39.4041C20.3064 40.2994 20.4655 41.1865 20.6891 42.058L16.4427 35.1688C16.219 34.2967 16.0599 33.4092 15.9668 32.5134Z"/>
</mask>
<path d="M15.9668 32.5134L20.2133 39.4041C20.3064 40.2994 20.4655 41.1865 20.6891 42.058L16.4427 35.1688C16.219 34.2967 16.0599 33.4092 15.9668 32.5134Z" fill="url(#paint15_linear_180_1660)"/>
<path d="M20.2133 39.4041L20.7106 39.3523L20.6988 39.2389L20.6389 39.1418L20.2133 39.4041ZM20.6891 42.058L20.2635 42.3204L21.1734 41.9337L20.6891 42.058ZM16.4427 35.1688L15.9583 35.293L15.9772 35.3665L16.017 35.4311L16.4427 35.1688ZM15.5411 32.7757L19.7876 39.6664L20.6389 39.1418L16.3925 32.2511L15.5411 32.7757ZM19.7159 39.4558C19.8116 40.3756 19.975 41.2869 20.2048 42.1823L21.1734 41.9337C20.9559 41.086 20.8012 40.2232 20.7106 39.3523L19.7159 39.4558ZM21.1148 41.7956L16.8683 34.9064L16.017 35.4311L20.2635 42.3204L21.1148 41.7956ZM16.927 35.0445C16.7094 34.1963 16.5547 33.333 16.4641 32.4617L15.4695 32.5651C15.5651 33.4853 15.7285 34.3971 15.9583 35.293L16.927 35.0445Z" fill="#FFBA93" mask="url(#path-22-inside-7_180_1660)"/>
<path d="M17.3586 37.1704C17.3435 37.1321 17.3284 37.0938 17.3135 37.0554L20.4582 42.1572C20.4645 42.1814 20.4709 42.2056 20.4773 42.2299L17.3586 37.1704Z" fill="url(#paint16_linear_180_1660)" stroke="#FFBA93" stroke-width="0.5"/>
<mask id="path-25-inside-8_180_1660" fill="white">
<path d="M17.1343 37.2803L21.3807 44.1695C21.6254 44.7878 21.9058 45.3911 22.2205 45.9764L17.9741 39.0871C17.6593 38.5019 17.3789 37.8986 17.1343 37.2803Z"/>
</mask>
<path d="M17.1343 37.2803L21.3807 44.1695C21.6254 44.7878 21.9058 45.3911 22.2205 45.9764L17.9741 39.0871C17.6593 38.5019 17.3789 37.8986 17.1343 37.2803Z" fill="url(#paint17_linear_180_1660)"/>
<path d="M21.3807 44.1695L21.8457 43.9856L21.8295 43.9446L21.8064 43.9071L21.3807 44.1695ZM22.2205 45.9764L21.7949 46.2387L22.6609 45.7396L22.2205 45.9764ZM17.9741 39.0871L17.5337 39.324L17.5407 39.337L17.5484 39.3495L17.9741 39.0871ZM16.7086 37.5426L20.9551 44.4319L21.8064 43.9071L17.5599 37.0179L16.7086 37.5426ZM20.9158 44.3535C21.1676 44.9898 21.4562 45.6108 21.7802 46.2132L22.6609 45.7396C22.3554 45.1715 22.0832 44.5858 21.8457 43.9856L20.9158 44.3535ZM22.6462 45.714L18.3997 38.8248L17.5484 39.3495L21.7949 46.2387L22.6462 45.714ZM18.4144 38.8503C18.1089 38.2822 17.8367 37.6965 17.5992 37.0963L16.6693 37.4642C16.9211 38.1006 17.2097 38.7216 17.5337 39.324L18.4144 38.8503Z" fill="#FFBA93" mask="url(#path-25-inside-8_180_1660)"/>
<mask id="path-27-inside-9_180_1660" fill="white">
<path d="M17.9783 39.0871L22.2247 45.9763C22.3806 46.2582 22.5434 46.5401 22.7132 46.822L18.4667 39.9313C18.296 39.6495 18.1322 39.3676 17.9783 39.0857"/>
</mask>
<path d="M17.9783 39.0871L22.2247 45.9763C22.3806 46.2582 22.5434 46.5401 22.7132 46.822L18.4667 39.9313C18.296 39.6495 18.1322 39.3676 17.9783 39.0857" fill="url(#paint18_linear_180_1660)"/>
<path d="M22.2247 45.9763L22.6623 45.7344L22.6566 45.7241L22.6504 45.714L22.2247 45.9763ZM22.7132 46.822L22.2875 47.0843L23.1415 46.564L22.7132 46.822ZM18.4667 39.9313L18.0391 40.1904L18.0411 40.1937L18.4667 39.9313ZM17.5526 39.3495L21.7991 46.2387L22.6504 45.714L18.4039 38.8247L17.5526 39.3495ZM21.7871 46.2182C21.946 46.5057 22.112 46.7929 22.2849 47.08L23.1415 46.564C22.9748 46.2873 22.8151 46.0108 22.6623 45.7344L21.7871 46.2182ZM23.1389 46.5597L18.8924 39.669L18.0411 40.1937L22.2875 47.0843L23.1389 46.5597ZM18.8944 39.6723C18.7267 39.3955 18.5668 39.1202 18.4171 38.846L17.5395 39.3254C17.6976 39.615 17.8652 39.9034 18.0391 40.1904L18.8944 39.6723Z" fill="#FFBA93" mask="url(#path-27-inside-9_180_1660)"/>
<mask id="path-29-inside-10_180_1660" fill="white">
<path d="M46.2996 22.549L50.546 29.441C50.5983 29.5237 50.6473 29.6083 50.693 29.6947L46.4465 22.8026C46.4008 22.7153 46.3542 22.6307 46.3066 22.549"/>
</mask>
<path d="M46.2996 22.549L50.546 29.441C50.5983 29.5237 50.6473 29.6083 50.693 29.6947L46.4465 22.8026C46.4008 22.7153 46.3542 22.6307 46.3066 22.549" fill="url(#paint19_linear_180_1660)"/>
<path d="M50.546 29.441L50.1203 29.7033L50.1234 29.7081L50.546 29.441ZM50.693 29.6947L50.2673 29.957L51.135 29.4609L50.693 29.6947ZM46.4465 22.8026L46.0035 23.0344L46.0116 23.05L46.0208 23.0649L46.4465 22.8026ZM45.8739 22.8112L50.1203 29.7033L50.9717 29.1787L46.7252 22.2867L45.8739 22.8112ZM50.1234 29.7081C50.1687 29.7799 50.2113 29.8534 50.251 29.9285L51.135 29.4609C51.0832 29.3631 51.0278 29.2674 50.9687 29.1739L50.1234 29.7081ZM51.1187 29.4324L46.8722 22.5404L46.0208 23.0649L50.2673 29.957L51.1187 29.4324ZM46.8896 22.5708C46.8405 22.4771 46.7902 22.3859 46.7387 22.2974L45.8745 22.8005C45.9181 22.8755 45.9611 22.9534 46.0035 23.0344L46.8896 22.5708Z" fill="#FFBA93" mask="url(#path-29-inside-10_180_1660)"/>
<mask id="path-31-inside-11_180_1660" fill="white">
<path d="M46.4468 22.8026L50.6932 29.6919C50.7884 29.867 50.873 30.0477 50.9466 30.2331L46.7001 23.3438C46.6259 23.1587 46.5413 22.978 46.4468 22.8026Z"/>
</mask>
<path d="M46.4468 22.8026L50.6932 29.6919C50.7884 29.867 50.873 30.0477 50.9466 30.2331L46.7001 23.3438C46.6259 23.1587 46.5413 22.978 46.4468 22.8026Z" fill="url(#paint20_linear_180_1660)"/>
<path d="M50.6932 29.6919L51.1326 29.4532L51.1261 29.4412L51.1189 29.4295L50.6932 29.6919ZM50.9466 30.2331L50.5209 30.4954L51.4113 30.0485L50.9466 30.2331ZM46.7001 23.3438L46.236 23.5299L46.252 23.5697L46.2745 23.6062L46.7001 23.3438ZM46.0211 23.065L50.2676 29.9542L51.1189 29.4295L46.8724 22.5403L46.0211 23.065ZM50.2539 29.9305C50.3395 30.0881 50.4156 30.2508 50.4819 30.4176L51.4113 30.0485C51.3303 29.8446 51.2372 29.6459 51.1326 29.4532L50.2539 29.9305ZM51.3722 29.9707L47.1257 23.0815L46.2745 23.6062L50.5209 30.4954L51.3722 29.9707ZM47.1642 23.1578C47.083 22.9552 46.9904 22.7574 46.8869 22.5654L46.0066 23.0398C46.0922 23.1987 46.1688 23.3623 46.236 23.5299L47.1642 23.1578Z" fill="#FFBA93" mask="url(#path-31-inside-11_180_1660)"/>
<mask id="path-33-inside-12_180_1660" fill="white">
<path d="M46.7 23.344L50.9464 30.2332C51.0282 30.4397 51.0974 30.6511 51.1536 30.8661L46.9057 23.9768C46.8504 23.7617 46.7817 23.5504 46.7 23.344Z"/>
</mask>
<path d="M46.7 23.344L50.9464 30.2332C51.0282 30.4397 51.0974 30.6511 51.1536 30.8661L46.9057 23.9768C46.8504 23.7617 46.7817 23.5504 46.7 23.344Z" fill="url(#paint21_linear_180_1660)"/>
<path d="M50.9464 30.2332L51.4113 30.0491L51.3951 30.0082L51.3721 29.9709L50.9464 30.2332ZM51.1536 30.8661L50.728 31.1285L51.6373 30.7397L51.1536 30.8661ZM46.9057 23.9768L46.4214 24.1013L46.4403 24.1747L46.4801 24.2392L46.9057 23.9768ZM46.2743 23.6064L50.5208 30.4956L51.3721 29.9709L47.1256 23.0816L46.2743 23.6064ZM50.4816 30.4174C50.5559 30.605 50.6188 30.7971 50.6698 30.9924L51.6373 30.7397C51.576 30.5051 51.5005 30.2744 51.4113 30.0491L50.4816 30.4174ZM51.5792 30.6036L47.3313 23.7144L46.4801 24.2392L50.728 31.1285L51.5792 30.6036ZM47.39 23.8524C47.3295 23.617 47.2543 23.3857 47.1648 23.1598L46.2351 23.5281C46.3091 23.715 46.3714 23.9064 46.4214 24.1013L47.39 23.8524Z" fill="#FFBA93" mask="url(#path-33-inside-12_180_1660)"/>
<mask id="path-35-inside-13_180_1660" fill="white">
<path d="M46.9058 23.9768L51.1536 30.866C51.2192 31.1282 51.266 31.3948 51.2936 31.6638L47.0471 24.7731C47.02 24.5046 46.9733 24.2384 46.9072 23.9768"/>
</mask>
<path d="M46.9058 23.9768L51.1536 30.866C51.2192 31.1282 51.266 31.3948 51.2936 31.6638L47.0471 24.7731C47.02 24.5046 46.9733 24.2384 46.9072 23.9768" fill="url(#paint22_linear_180_1660)"/>
<path d="M51.1536 30.866L51.6387 30.7448L51.6199 30.6696L51.5792 30.6036L51.1536 30.866ZM51.2936 31.6638L50.8679 31.9261L51.791 31.6127L51.2936 31.6638ZM47.0471 24.7731L46.5496 24.8233L46.5612 24.9376L46.6215 25.0354L47.0471 24.7731ZM46.4802 24.2392L50.728 31.1285L51.5792 30.6036L47.3314 23.7144L46.4802 24.2392ZM50.6686 30.9873C50.7283 31.2264 50.771 31.4696 50.7962 31.7149L51.791 31.6127C51.7609 31.3201 51.71 31.03 51.6387 30.7448L50.6686 30.9873ZM51.7193 31.4015L47.4728 24.5108L46.6215 25.0354L50.8679 31.9261L51.7193 31.4015ZM47.5446 24.723C47.5151 24.43 47.464 24.1397 47.3919 23.8543L46.4224 24.0993C46.4825 24.3371 46.525 24.5791 46.5496 24.8233L47.5446 24.723Z" fill="#FFBA93" mask="url(#path-35-inside-13_180_1660)"/>
<mask id="path-37-inside-14_180_1660" fill="white">
<path d="M47.0499 24.7732L51.2963 31.6638C51.3441 32.133 51.3357 32.6062 51.2711 33.0733L47.0247 26.1868C47.0884 25.7197 47.0969 25.2466 47.0499 24.7774"/>
</mask>
<path d="M47.0499 24.7732L51.2963 31.6638C51.3441 32.133 51.3357 32.6062 51.2711 33.0733L47.0247 26.1868C47.0884 25.7197 47.0969 25.2466 47.0499 24.7774" fill="url(#paint23_linear_180_1660)"/>
<path d="M51.2963 31.6638L51.7937 31.6131L51.7821 31.4991L51.722 31.4015L51.2963 31.6638ZM51.2711 33.0733L50.8455 33.3357L51.5759 34.5202L51.7664 33.1417L51.2711 33.0733ZM47.0247 26.1868L46.5292 26.1192L46.505 26.2968L46.5991 26.4493L47.0247 26.1868ZM46.6242 25.0355L50.8707 31.9262L51.722 31.4015L47.4755 24.5109L46.6242 25.0355ZM50.7989 31.7145C50.8427 32.144 50.8349 32.5772 50.7758 33.0048L51.7664 33.1417C51.8364 32.6351 51.8456 32.1219 51.7937 31.6131L50.7989 31.7145ZM51.6967 32.8108L47.4502 25.9244L46.5991 26.4493L50.8455 33.3357L51.6967 32.8108ZM47.5201 26.2544C47.5891 25.7484 47.5983 25.2358 47.5474 24.7276L46.5523 24.8273C46.5954 25.2573 46.5877 25.691 46.5292 26.1192L47.5201 26.2544Z" fill="#FFBA93" mask="url(#path-37-inside-14_180_1660)"/>
<mask id="path-39-inside-15_180_1660" fill="white">
<path d="M47.0246 26.1868L51.2711 33.076C51.2353 33.3387 51.1839 33.5989 51.1171 33.8554C51.0581 34.0864 50.9871 34.3141 50.9044 34.5376L46.6565 27.6483C46.7397 27.4244 46.8111 27.1962 46.8706 26.9648C46.9375 26.7088 46.9889 26.449 47.0246 26.1868Z"/>
</mask>
<path d="M47.0246 26.1868L51.2711 33.076C51.2353 33.3387 51.1839 33.5989 51.1171 33.8554C51.0581 34.0864 50.9871 34.3141 50.9044 34.5376L46.6565 27.6483C46.7397 27.4244 46.8111 27.1962 46.8706 26.9648C46.9375 26.7088 46.9889 26.449 47.0246 26.1868Z" fill="url(#paint24_linear_180_1660)"/>
<path d="M51.2711 33.076L51.7665 33.1435L51.7907 32.9661L51.6967 32.8136L51.2711 33.076ZM51.1171 33.8554L50.6332 33.7295L50.6327 33.7316L51.1171 33.8554ZM50.9044 34.5376L50.4788 34.8L51.0172 35.6733L51.3733 34.7111L50.9044 34.5376ZM46.6565 27.6483L46.1878 27.4743L46.1028 27.7031L46.2309 27.9108L46.6565 27.6483ZM46.8706 26.9648L46.3869 26.8383L46.3864 26.8403L46.8706 26.9648ZM46.599 26.4491L50.8454 33.3384L51.6967 32.8136L47.4502 25.9244L46.599 26.4491ZM50.7756 33.0085C50.7425 33.2515 50.695 33.4922 50.6332 33.7295L51.601 33.9814C51.6728 33.7057 51.728 33.4259 51.7665 33.1435L50.7756 33.0085ZM50.6327 33.7316C50.5779 33.9457 50.5121 34.1569 50.4354 34.3641L51.3733 34.7111C51.462 34.4713 51.5382 34.227 51.6015 33.9792L50.6327 33.7316ZM51.33 34.2751L47.0821 27.3859L46.2309 27.9108L50.4788 34.8L51.33 34.2751ZM47.1252 27.8224C47.2144 27.5822 47.2911 27.3375 47.3549 27.0893L46.3864 26.8403C46.3312 27.055 46.2649 27.2666 46.1878 27.4743L47.1252 27.8224ZM47.3544 27.0912C47.4264 26.8158 47.4817 26.5363 47.52 26.2541L46.5292 26.1194C46.4962 26.3617 46.4487 26.6018 46.3869 26.8383L47.3544 27.0912Z" fill="#FFBA93" mask="url(#path-39-inside-15_180_1660)"/>
<mask id="path-41-inside-16_180_1660" fill="white">
<path d="M46.6566 27.6482L50.9044 34.5374C50.7257 35.0177 50.4992 35.4786 50.2284 35.913L45.9819 29.0182C46.252 28.5836 46.478 28.1227 46.6566 27.6426"/>
</mask>
<path d="M46.6566 27.6482L50.9044 34.5374C50.7257 35.0177 50.4992 35.4786 50.2284 35.913L45.9819 29.0182C46.252 28.5836 46.478 28.1227 46.6566 27.6426" fill="url(#paint25_linear_180_1660)"/>
<path d="M50.9044 34.5374L51.373 34.7118L51.4582 34.4829L51.33 34.275L50.9044 34.5374ZM50.2284 35.913L49.8027 36.1752L50.2258 36.8623L50.6527 36.1775L50.2284 35.913ZM45.9819 29.0182L45.5572 28.7543L45.394 29.017L45.5562 29.2804L45.9819 29.0182ZM46.231 27.9106L50.4788 34.7999L51.33 34.275L47.0822 27.3858L46.231 27.9106ZM50.4358 34.3631C50.2688 34.8119 50.0571 35.2426 49.8041 35.6485L50.6527 36.1775C50.9413 35.7146 51.1826 35.2235 51.373 34.7118L50.4358 34.3631ZM50.6541 35.6508L46.4077 28.756L45.5562 29.2804L49.8027 36.1752L50.6541 35.6508ZM46.4066 29.2821C46.6943 28.8191 46.935 28.3282 47.1252 27.8169L46.1879 27.4683C46.021 27.9172 45.8097 28.348 45.5572 28.7543L46.4066 29.2821Z" fill="#FFBA93" mask="url(#path-41-inside-16_180_1660)"/>
<path d="M44.2202 31.382C44.2682 31.3431 44.3159 31.3036 44.3632 31.2637L48.3444 37.7226C48.2974 37.7629 48.25 37.8028 48.2022 37.8422L44.2202 31.382Z" fill="url(#paint26_linear_180_1660)" stroke="#FFBA93" stroke-width="0.5"/>
<mask id="path-44-inside-17_180_1660" fill="white">
<path d="M43.334 31.7229L47.5805 38.6121C47.3864 38.7399 47.1877 38.8607 46.9843 38.9744L42.7378 32.0851C42.9412 31.9724 43.14 31.8516 43.334 31.7229Z"/>
</mask>
<path d="M43.334 31.7229L47.5805 38.6121C47.3864 38.7399 47.1877 38.8607 46.9843 38.9744L42.7378 32.0851C42.9412 31.9724 43.14 31.8516 43.334 31.7229Z" fill="url(#paint27_linear_180_1660)"/>
<path d="M47.5805 38.6121L47.8555 39.0297L48.2608 38.7629L48.0061 38.3498L47.5805 38.6121ZM46.9843 38.9744L46.5586 39.2367L46.81 39.6446L47.2282 39.4108L46.9843 38.9744ZM42.7378 32.0851L42.4954 31.6478L42.0374 31.9017L42.3122 32.3475L42.7378 32.0851ZM42.9084 31.9853L47.1549 38.8745L48.0061 38.3498L43.7597 31.4605L42.9084 31.9853ZM47.3055 38.1945C47.1216 38.3156 46.9332 38.4301 46.7403 38.5379L47.2282 39.4108C47.4422 39.2912 47.6512 39.1642 47.8555 39.0297L47.3055 38.1945ZM47.4099 38.712L43.1634 31.8228L42.3122 32.3475L46.5586 39.2367L47.4099 38.712ZM42.9802 32.5224C43.1952 32.4032 43.4053 32.2756 43.6104 32.1396L43.0577 31.3062C42.8746 31.4276 42.6872 31.5415 42.4954 31.6478L42.9802 32.5224Z" fill="#FFBA93" mask="url(#path-44-inside-17_180_1660)"/>
<mask id="path-46-inside-18_180_1660" fill="white">
<path d="M42.0839 32.4164L46.3388 39.307C46.0906 39.4207 45.8377 39.5227 45.5802 39.6129L41.3337 32.7236C41.5913 32.6334 41.8432 32.5305 42.0909 32.4178"/>
</mask>
<path d="M42.0839 32.4164L46.3388 39.307C46.0906 39.4207 45.8377 39.5227 45.5802 39.6129L41.3337 32.7236C41.5913 32.6334 41.8432 32.5305 42.0909 32.4178" fill="url(#paint28_linear_180_1660)"/>
<path d="M46.3388 39.307L46.547 39.7616L47.0616 39.5259L46.7642 39.0443L46.3388 39.307ZM45.5802 39.6129L45.1546 39.8752L45.3657 40.2178L45.7455 40.0848L45.5802 39.6129ZM41.3337 32.7236L41.1685 32.2517L40.5821 32.4571L40.9081 32.986L41.3337 32.7236ZM41.6585 32.6791L45.9134 39.5697L46.7642 39.0443L42.5094 32.1537L41.6585 32.6791ZM46.1306 38.8524C45.8964 38.9597 45.6579 39.0559 45.4149 39.141L45.7455 40.0848C46.0176 39.9894 46.2848 39.8817 46.547 39.7616L46.1306 38.8524ZM46.0058 39.3505L41.7594 32.4613L40.9081 32.986L45.1546 39.8752L46.0058 39.3505ZM41.499 33.1955C41.7725 33.0997 42.0384 32.9911 42.2981 32.8729L41.8838 31.9627C41.648 32.07 41.4101 32.1671 41.1685 32.2517L41.499 33.1955Z" fill="#FFBA93" mask="url(#path-46-inside-18_180_1660)"/>
<mask id="path-48-inside-19_180_1660" fill="white">
<path d="M40.3851 32.9956L44.6315 39.8848C43.9033 40.0535 43.155 40.118 42.4089 40.0765C40.2871 39.9539 38.6173 38.949 37.7006 37.4607L33.4541 30.5686C34.3709 32.0569 36.0406 33.0619 38.1624 33.1845C38.9086 33.2259 39.6568 33.1614 40.3851 32.9928"/>
</mask>
<path d="M40.3851 32.9956L44.6315 39.8848C43.9033 40.0535 43.155 40.118 42.4089 40.0765C40.2871 39.9539 38.6173 38.949 37.7006 37.4607L33.4541 30.5686C34.3709 32.0569 36.0406 33.0619 38.1624 33.1845C38.9086 33.2259 39.6568 33.1614 40.3851 32.9928" fill="url(#paint29_linear_180_1660)"/>
<path d="M44.6315 39.8848L44.7443 40.372L45.4224 40.215L45.0572 39.6225L44.6315 39.8848ZM42.4089 40.0765L42.3801 40.5757L42.3812 40.5758L42.4089 40.0765ZM37.7006 37.4607L38.1263 37.1984L38.1263 37.1984L37.7006 37.4607ZM33.4541 30.5686L33.8798 30.3063L33.0284 30.8308L33.4541 30.5686ZM38.1624 33.1845L38.1336 33.6837L38.1347 33.6837L38.1624 33.1845ZM39.9594 33.258L44.2059 40.1472L45.0572 39.6225L40.8107 32.7333L39.9594 33.258ZM44.5187 39.3977C43.8365 39.5557 43.1356 39.6161 42.4366 39.5773L42.3812 40.5758C43.1745 40.6198 43.97 40.5512 44.7443 40.372L44.5187 39.3977ZM42.4378 39.5774C40.4622 39.4632 38.9489 38.534 38.1263 37.1984L37.2748 37.7229C38.2857 39.364 40.112 40.4446 42.3801 40.5757L42.4378 39.5774ZM38.1263 37.1984L33.8798 30.3063L33.0284 30.8309L37.2749 37.7229L38.1263 37.1984ZM33.0284 30.8308C34.0392 32.472 35.8655 33.5526 38.1336 33.6836L38.1913 32.6853C36.2157 32.5711 34.7025 31.6419 33.8798 30.3064L33.0284 30.8308ZM38.1347 33.6837C38.928 33.7278 39.7235 33.6592 40.4978 33.4799L40.2723 32.5057C39.59 32.6636 38.8891 32.7241 38.1902 32.6853L38.1347 33.6837Z" fill="#FFBA93" mask="url(#path-48-inside-19_180_1660)"/>
<mask id="path-50-inside-20_180_1660" fill="white">
<path d="M65.5669 10.514L69.8134 17.4033C70.0177 17.7345 70.2123 18.0727 70.3984 18.4152L66.1505 11.526C65.9639 11.1821 65.7694 10.8448 65.5669 10.514Z"/>
</mask>
<path d="M65.5669 10.514L69.8134 17.4033C70.0177 17.7345 70.2123 18.0727 70.3984 18.4152L66.1505 11.526C65.9639 11.1821 65.7694 10.8448 65.5669 10.514Z" fill="url(#paint30_linear_180_1660)"/>
<path d="M65.5669 10.514L65.9925 10.2517L65.1405 10.7751L65.5669 10.514ZM69.8134 17.4033L69.3877 17.6656L69.3878 17.6658L69.8134 17.4033ZM70.3984 18.4152L69.9728 18.6777L70.8377 18.1765L70.3984 18.4152ZM66.1505 11.526L65.7111 11.7645L65.7177 11.7766L65.7249 11.7884L66.1505 11.526ZM65.1413 10.7764L69.3877 17.6656L70.239 17.1409L65.9925 10.2517L65.1413 10.7764ZM69.3878 17.6658C69.5868 17.9883 69.7768 18.3185 69.9591 18.654L70.8377 18.1765C70.6477 17.827 70.4486 17.4807 70.2389 17.1407L69.3878 17.6658ZM70.824 18.1528L66.5761 11.2636L65.7249 11.7884L69.9728 18.6777L70.824 18.1528ZM66.59 11.2875C66.3993 10.9361 66.2004 10.5912 65.9933 10.253L65.1405 10.7751C65.3384 11.0984 65.5286 11.4282 65.7111 11.7645L66.59 11.2875Z" fill="#FFBA93" mask="url(#path-50-inside-20_180_1660)"/>
<mask id="path-52-inside-21_180_1660" fill="white">
<path d="M66.1506 11.526L70.3985 18.4152C70.7776 19.1175 71.1159 19.8413 71.4118 20.5829L67.164 13.6937C66.8686 12.9518 66.5302 12.228 66.1506 11.526Z"/>
</mask>
<path d="M66.1506 11.526L70.3985 18.4152C70.7776 19.1175 71.1159 19.8413 71.4118 20.5829L67.164 13.6937C66.8686 12.9518 66.5302 12.228 66.1506 11.526Z" fill="url(#paint31_linear_180_1660)"/>
<path d="M70.3985 18.4152L70.8385 18.1777L70.8317 18.1651L70.8241 18.1528L70.3985 18.4152ZM71.4118 20.5829L70.9862 20.8453L71.8762 20.3976L71.4118 20.5829ZM67.164 13.6937L66.6994 13.8786L66.7155 13.9191L66.7384 13.9561L67.164 13.6937ZM65.725 11.7884L69.9729 18.6777L70.8241 18.1528L66.5762 11.2636L65.725 11.7884ZM69.9585 18.6527C70.3284 19.3381 70.6586 20.0444 70.9474 20.7682L71.8762 20.3976C71.5732 19.6381 71.2267 18.8969 70.8385 18.1777L69.9585 18.6527ZM71.8374 20.3205L67.5896 13.4313L66.7384 13.9561L70.9862 20.8453L71.8374 20.3205ZM67.6285 13.5087C67.3259 12.7487 66.9793 12.0073 66.5904 11.2882L65.7108 11.7638C66.0812 12.4487 66.4113 13.1548 66.6994 13.8786L67.6285 13.5087Z" fill="#FFBA93" mask="url(#path-52-inside-21_180_1660)"/>
<mask id="path-54-inside-22_180_1660" fill="white">
<path d="M67.1641 13.6935L71.4119 20.5827C71.741 21.4098 72.0173 22.2572 72.2391 23.1197L67.9912 16.2248C67.77 15.3621 67.4937 14.5147 67.1641 13.6879"/>
</mask>
<path d="M67.1641 13.6935L71.4119 20.5827C71.741 21.4098 72.0173 22.2572 72.2391 23.1197L67.9912 16.2248C67.77 15.3621 67.4937 14.5147 67.1641 13.6879" fill="url(#paint32_linear_180_1660)"/>
<path d="M71.4119 20.5827L71.8765 20.3979L71.8604 20.3574L71.8375 20.3203L71.4119 20.5827ZM72.2391 23.1197L71.8134 23.382L72.7233 22.9951L72.2391 23.1197ZM67.9912 16.2248L67.5069 16.349L67.5258 16.4225L67.5656 16.4871L67.9912 16.2248ZM66.7385 13.9559L70.9863 20.8452L71.8375 20.3203L67.5897 13.4311L66.7385 13.9559ZM70.9474 20.7676C71.2686 21.575 71.5383 22.4022 71.7549 23.2442L72.7233 22.9951C72.4962 22.1121 72.2134 21.2446 71.8765 20.3979L70.9474 20.7676ZM72.6648 22.8574L68.4169 15.9626L67.5656 16.4871L71.8134 23.382L72.6648 22.8574ZM68.4756 16.1006C68.2491 15.2172 67.9661 14.3494 67.6285 13.5027L66.6996 13.873C67.0214 14.68 67.291 15.507 67.5069 16.349L68.4756 16.1006Z" fill="#FFBA93" mask="url(#path-54-inside-22_180_1660)"/>
<path d="M68.63 18.0328C68.6073 17.8949 68.5832 17.7575 68.5579 17.6206L72.0061 23.2129C72.0475 23.3755 72.0872 23.5389 72.1251 23.7031L68.63 18.0328Z" fill="url(#paint33_linear_180_1660)" stroke="#FFBA93" stroke-width="0.5"/>
<path d="M68.7468 24.8464C68.7609 24.7328 68.7741 24.6192 68.7866 24.5058L72.5988 30.6905C72.589 30.8087 72.5784 30.9269 72.567 31.0453L68.7468 24.8464Z" fill="url(#paint34_linear_180_1660)" stroke="#FFBA93" stroke-width="0.5"/>
<mask id="path-58-inside-23_180_1660" fill="white">
<path d="M68.488 24.9026L72.7344 31.7932C72.5928 32.8979 72.3815 33.9924 72.1018 35.0701C71.8512 36.0366 71.5494 36.9888 71.1976 37.9228L66.9512 31.0336C67.3029 30.0997 67.6043 29.1475 67.8539 28.1809C68.1346 27.1029 68.3464 26.0079 68.488 24.9026Z"/>
</mask>
<path d="M68.488 24.9026L72.7344 31.7932C72.5928 32.8979 72.3815 33.9924 72.1018 35.0701C71.8512 36.0366 71.5494 36.9888 71.1976 37.9228L66.9512 31.0336C67.3029 30.0997 67.6043 29.1475 67.8539 28.1809C68.1346 27.1029 68.3464 26.0079 68.488 24.9026Z" fill="url(#paint35_linear_180_1660)"/>
<path d="M72.7344 31.7932L73.2304 31.8568L73.2529 31.6814L73.1601 31.5309L72.7344 31.7932ZM72.1018 35.0701L71.6178 34.9445L71.6178 34.9446L72.1018 35.0701ZM71.1976 37.9228L70.772 38.1851L71.3065 39.0523L71.6655 38.099L71.1976 37.9228ZM66.9512 31.0336L66.4833 30.8573L66.3968 31.087L66.5255 31.2959L66.9512 31.0336ZM67.8539 28.1809L67.3701 28.0549L67.3698 28.0558L67.8539 28.1809ZM68.0623 25.1649L72.3088 32.0556L73.1601 31.5309L68.9136 24.6403L68.0623 25.1649ZM72.2385 31.7296C72.0995 32.8134 71.8922 33.8872 71.6178 34.9445L72.5858 35.1957C72.8707 34.0976 73.086 32.9824 73.2304 31.8568L72.2385 31.7296ZM71.6178 34.9446C71.3717 35.8939 71.0752 36.8292 70.7297 37.7466L71.6655 38.099C72.0236 37.1485 72.3308 36.1793 72.5858 35.1956L71.6178 34.9446ZM71.6233 37.6604L67.3768 30.7712L66.5255 31.2959L70.772 38.1851L71.6233 37.6604ZM67.4191 31.2098C67.7771 30.2592 68.0839 29.2898 68.338 28.3059L67.3698 28.0558C67.1246 29.0051 66.8287 29.9403 66.4833 30.8573L67.4191 31.2098ZM68.3378 28.3069C68.6238 27.2083 68.8396 26.0924 68.9839 24.9661L67.992 24.8391C67.8531 25.9233 67.6454 26.9975 67.3701 28.0549L68.3378 28.3069Z" fill="#FFBA93" mask="url(#path-58-inside-23_180_1660)"/>
<path d="M66.6032 32.5644C66.7427 32.2448 66.8764 31.922 67.0043 31.5959L70.9207 37.9497C70.7965 38.2786 70.6661 38.6061 70.5294 38.932L66.6032 32.5644Z" fill="url(#paint36_linear_180_1660)" stroke="#FFBA93" stroke-width="0.5"/>
<path d="M75.7129 33.3713L66.2999 32.8251L65.9393 32.8042L66.0859 32.4741C66.7114 31.0658 67.2218 29.6084 67.6121 28.1165C67.6121 28.1164 67.6121 28.1164 67.6121 28.1163L67.854 28.1796C68.2338 26.7243 68.4863 25.2382 68.6084 23.7385L75.7129 33.3713ZM75.7129 33.3713L74.4205 38.4L63.2637 37.7537L63.1248 37.7456L63.0447 37.8594C56.4251 47.269 44.6809 53.4942 33.0317 52.8189C21.3939 52.1443 13.2284 44.7859 11.6103 34.9577L11.5778 34.7603L11.3781 34.7488L0.319714 34.1082L1.62107 29.0781L11.1308 29.63L11.3744 29.6441L11.3945 29.4009C11.5167 27.9157 11.7667 26.444 12.1416 25.0023C12.5301 23.5107 13.0382 22.0532 13.6609 20.6445L13.8067 20.3147L13.4468 20.2938L4.03574 19.7477L5.33708 14.7189L16.4942 15.3639L16.6331 15.3719L16.7131 15.2582C23.3328 5.84998 35.077 -0.375297 46.7261 0.30002C58.3639 0.974677 66.5295 8.33303 68.149 18.1612L68.1815 18.3586L68.3811 18.3702L79.4354 19.0121L75.7129 33.3713ZM34.1477 48.8996C47.1393 49.6532 60.2482 40.2939 63.4367 27.973C65.0331 21.804 63.8419 16.0518 60.6084 11.7453C57.3754 7.43939 52.1154 4.59814 45.6102 4.21939C32.6171 3.46287 19.5083 12.8265 16.3198 25.1502C14.7234 31.3206 15.9152 37.0728 19.1493 41.3785C22.3829 45.6835 27.6433 48.5229 34.1477 48.8996Z" fill="url(#paint37_linear_180_1660)" stroke="#FFBA93" stroke-width="0.5"/>
<path d="M46.0871 22.6758C47.7922 25.4419 46.4775 29.4642 43.0069 31.6336C39.5364 33.803 35.3734 33.2048 33.6683 30.4387C31.9631 27.6725 33.2779 23.6502 36.7484 21.4808C40.2189 19.3114 44.3819 19.9096 46.0871 22.6758Z" fill="url(#paint38_linear_180_1660)" stroke="#FFBA93" stroke-width="0.5"/>
<path d="M69.0728 24.0172L78.1799 24.5443L82.1062 30.9155L72.9991 30.3871L69.0728 24.0172Z" fill="url(#paint39_linear_180_1660)" stroke="#FFBA93" stroke-width="0.5"/>
<path d="M78.5934 24.2618L79.8488 19.4108L83.7315 25.7099L82.4761 30.5621L78.5934 24.2618Z" fill="url(#paint40_linear_180_1660)" stroke="#FFBA93" stroke-width="0.5"/>
<mask id="path-65-inside-24_180_1660" fill="white">
<path d="M63.2462 38.0033L67.4926 44.8939C67.1455 45.3872 66.7849 45.8716 66.4107 46.3471L62.1628 39.4578C62.5361 38.9814 62.8972 38.4966 63.2462 38.0033Z"/>
</mask>
<path d="M63.2462 38.0033L67.4926 44.8939C67.1455 45.3872 66.7849 45.8716 66.4107 46.3471L62.1628 39.4578C62.5361 38.9814 62.8972 38.4966 63.2462 38.0033Z" fill="url(#paint41_linear_180_1660)"/>
<path d="M67.4926 44.8939L67.9015 45.1817L68.0912 44.9122L67.9183 44.6316L67.4926 44.8939ZM66.4107 46.3471L65.9851 46.6095L66.3609 47.2189L66.8036 46.6563L66.4107 46.3471ZM62.1628 39.4578L61.7693 39.1495L61.5544 39.4237L61.7372 39.7202L62.1628 39.4578ZM62.8205 38.2656L67.067 45.1563L67.9183 44.6316L63.6718 37.741L62.8205 38.2656ZM67.0837 44.6062C66.7418 45.0922 66.3865 45.5694 66.0178 46.0378L66.8036 46.6563C67.1833 46.1738 67.5493 45.6823 67.9015 45.1817L67.0837 44.6062ZM66.8363 46.0846L62.5884 39.1954L61.7372 39.7202L65.9851 46.6095L66.8363 46.0846ZM62.5564 39.7662C62.9347 39.2834 63.3007 38.792 63.6543 38.2921L62.838 37.7145C62.4937 38.2012 62.1375 38.6795 61.7693 39.1495L62.5564 39.7662Z" fill="#FFBA93" mask="url(#path-65-inside-24_180_1660)"/>
<mask id="path-67-inside-25_180_1660" fill="white">
<path d="M62.1631 39.4578L66.411 46.354C65.7653 47.1724 65.0823 47.9631 64.3619 48.7261L60.1155 41.8298C60.8349 41.0687 61.5174 40.278 62.1631 39.4578Z"/>
</mask>
<path d="M62.1631 39.4578L66.411 46.354C65.7653 47.1724 65.0823 47.9631 64.3619 48.7261L60.1155 41.8298C60.8349 41.0687 61.5174 40.278 62.1631 39.4578Z" fill="url(#paint42_linear_180_1660)"/>
<path d="M66.411 46.354L66.8035 46.6637L67.02 46.3894L66.8367 46.0918L66.411 46.354ZM64.3619 48.7261L63.9362 48.9883L64.278 49.5433L64.7255 49.0693L64.3619 48.7261ZM60.1155 41.8298L59.7521 41.4864L59.4885 41.7652L59.6897 42.092L60.1155 41.8298ZM61.7374 39.72L65.9853 46.6163L66.8367 46.0918L62.5889 39.1955L61.7374 39.72ZM66.0185 46.0443C65.382 46.8511 64.7086 47.6306 63.9984 48.3828L64.7255 49.0693C65.4559 48.2957 66.1486 47.4938 66.8035 46.6637L66.0185 46.0443ZM64.7877 48.4639L60.5412 41.5677L59.6897 42.092L63.9362 48.9883L64.7877 48.4639ZM60.4788 42.1733C61.2086 41.4013 61.901 40.5992 62.556 39.767L61.7703 39.1485C61.1339 39.9569 60.4612 40.7362 59.7521 41.4864L60.4788 42.1733Z" fill="#FFBA93" mask="url(#path-67-inside-25_180_1660)"/>
<mask id="path-69-inside-26_180_1660" fill="white">
<path d="M60.1151 41.8298L64.3616 48.7191C63.7084 49.4153 63.0217 50.0862 62.3013 50.7317L58.0535 43.8425C58.7682 43.1988 59.4554 42.528 60.1151 41.8298Z"/>
</mask>
<path d="M60.1151 41.8298L64.3616 48.7191C63.7084 49.4153 63.0217 50.0862 62.3013 50.7317L58.0535 43.8425C58.7682 43.1988 59.4554 42.528 60.1151 41.8298Z" fill="url(#paint43_linear_180_1660)"/>
<path d="M64.3616 48.7191L64.7262 49.0612L64.9879 48.7823L64.7872 48.4567L64.3616 48.7191ZM62.3013 50.7317L61.8757 50.9941L62.1896 51.5032L62.635 51.1041L62.3013 50.7317ZM58.0535 43.8425L57.7189 43.4709L57.409 43.75L57.6279 44.1049L58.0535 43.8425ZM59.6895 42.0922L63.9359 48.9814L64.7872 48.4567L60.5408 41.5675L59.6895 42.0922ZM63.9969 48.377C63.3538 49.0626 62.6774 49.7233 61.9676 50.3593L62.635 51.1041C63.366 50.4491 64.0631 49.7681 64.7262 49.0612L63.9969 48.377ZM62.7269 50.4693L58.4791 43.5801L57.6279 44.1049L61.8757 50.9941L62.7269 50.4693ZM58.3881 44.214C59.1128 43.5614 59.8096 42.8812 60.4785 42.1732L59.7517 41.4864C59.1012 42.1748 58.4237 42.8363 57.7189 43.4709L58.3881 44.214Z" fill="#FFBA93" mask="url(#path-69-inside-26_180_1660)"/>
<mask id="path-71-inside-27_180_1660" fill="white">
<path d="M58.0536 43.8425L62.3015 50.7318C61.6156 51.3491 60.907 51.9406 60.1754 52.5062L55.929 45.617C56.6596 45.0532 57.3678 44.4617 58.0536 43.8425Z"/>
</mask>
<path d="M58.0536 43.8425L62.3015 50.7318C61.6156 51.3491 60.907 51.9406 60.1754 52.5062L55.929 45.617C56.6596 45.0532 57.3678 44.4617 58.0536 43.8425Z" fill="url(#paint44_linear_180_1660)"/>
<path d="M62.3015 50.7318L62.636 51.1034L62.946 50.8244L62.7271 50.4693L62.3015 50.7318ZM60.1754 52.5062L59.7498 52.7686L60.0415 53.2418L60.4813 52.9018L60.1754 52.5062ZM55.929 45.617L55.6235 45.2211L55.2671 45.4961L55.5033 45.8793L55.929 45.617ZM57.628 44.105L61.8759 50.9942L62.7271 50.4693L58.4792 43.5801L57.628 44.105ZM61.9669 50.3601C61.2904 50.9691 60.5913 51.5526 59.8696 52.1107L60.4813 52.9018C61.2226 52.3285 61.9409 51.7291 62.636 51.1034L61.9669 50.3601ZM60.6011 52.2439L56.3546 45.3546L55.5033 45.8793L59.7498 52.7686L60.6011 52.2439ZM56.2344 46.0128C56.9752 45.4412 57.6933 44.8415 58.3887 44.2136L57.7185 43.4714C57.0422 44.082 56.3439 44.6652 55.6235 45.2211L56.2344 46.0128Z" fill="#FFBA93" mask="url(#path-71-inside-27_180_1660)"/>
<mask id="path-73-inside-28_180_1660" fill="white">
<path d="M55.9293 45.6169L60.1758 52.5062C59.4535 53.0643 58.7136 53.5975 57.9559 54.1059L53.7095 47.2166C54.4709 46.7121 55.2131 46.1807 55.9363 45.6226"/>
</mask>
<path d="M55.9293 45.6169L60.1758 52.5062C59.4535 53.0643 58.7136 53.5975 57.9559 54.1059L53.7095 47.2166C54.4709 46.7121 55.2131 46.1807 55.9363 45.6226" fill="url(#paint45_linear_180_1660)"/>
<path d="M60.1758 52.5062L60.4815 52.9018L60.8374 52.6267L60.6014 52.2438L60.1758 52.5062ZM57.9559 54.1059L57.5303 54.3682L57.803 54.8106L58.2345 54.5211L57.9559 54.1059ZM53.7095 47.2166L53.4333 46.7998L53.03 47.0671L53.2838 47.479L53.7095 47.2166ZM55.5036 45.8793L59.7501 52.7685L60.6014 52.2438L56.3549 45.3546L55.5036 45.8793ZM59.87 52.1106C59.1566 52.6619 58.4258 53.1885 57.6774 53.6907L58.2345 54.5211C59.0015 54.0065 59.7505 53.4668 60.4815 52.9018L59.87 52.1106ZM58.3816 53.8435L54.1351 46.9543L53.2838 47.479L57.5303 54.3682L58.3816 53.8435ZM53.9857 47.6334C54.7571 47.1222 55.5091 46.5839 56.2418 46.0184L55.6308 45.2268C54.9172 45.7775 54.1847 46.3019 53.4333 46.7998L53.9857 47.6334Z" fill="#FFBA93" mask="url(#path-73-inside-28_180_1660)"/>
<mask id="path-75-inside-29_180_1660" fill="white">
<path d="M53.7022 47.2111L57.9557 54.1059C57.1803 54.619 56.3872 55.1019 55.5763 55.5548L51.3298 48.6656C52.1416 48.2127 52.9347 47.7297 53.7092 47.2167"/>
</mask>
<path d="M53.7022 47.2111L57.9557 54.1059C57.1803 54.619 56.3872 55.1019 55.5763 55.5548L51.3298 48.6656C52.1416 48.2127 52.9347 47.7297 53.7092 47.2167" fill="url(#paint46_linear_180_1660)"/>
<path d="M57.9557 54.1059L58.2316 54.5229L58.6355 54.2556L58.3812 53.8434L57.9557 54.1059ZM55.5763 55.5548L55.1507 55.8172L55.402 56.2249L55.8201 55.9913L55.5763 55.5548ZM51.3298 48.6656L51.0862 48.2289L50.6302 48.4834L50.9042 48.9279L51.3298 48.6656ZM53.2767 47.4736L57.5301 54.3684L58.3812 53.8434L54.1277 46.9485L53.2767 47.4736ZM57.6798 53.6889C56.9148 54.1951 56.1324 54.6715 55.3325 55.1183L55.8201 55.9913C56.6419 55.5323 57.4457 55.0429 58.2316 54.5229L57.6798 53.6889ZM56.0019 55.2925L51.7555 48.4032L50.9042 48.9279L55.1507 55.8172L56.0019 55.2925ZM51.5734 49.1022C52.3963 48.6431 53.2003 48.1536 53.9853 47.6335L53.4331 46.7999C52.6692 47.3059 51.8869 47.7822 51.0862 48.2289L51.5734 49.1022Z" fill="#FFBA93" mask="url(#path-75-inside-29_180_1660)"/>
<path d="M49.0622 50.0951C49.7973 49.7528 50.5203 49.3859 51.2312 48.9943L55.2151 55.4575C54.5045 55.8487 53.781 56.2152 53.0445 56.557L49.0622 50.0951Z" fill="url(#paint47_linear_180_1660)" stroke="#FFBA93" stroke-width="0.5"/>
<path d="M46.0658 51.3355C46.9235 51.0252 47.7697 50.6817 48.6044 50.305L52.5862 56.7661C51.7519 57.1401 50.9045 57.4813 50.0441 57.7898L46.0658 51.3355Z" fill="url(#paint48_linear_180_1660)" stroke="#FFBA93" stroke-width="0.5"/>
<mask id="path-79-inside-30_180_1660" fill="white">
<path d="M45.6909 51.2039L49.9374 58.0931C48.7027 58.5265 47.4448 58.8893 46.1696 59.1798L41.9231 52.2905C43.1983 51.9975 44.4562 51.6328 45.6909 51.1982"/>
</mask>
<path d="M45.6909 51.2039L49.9374 58.0931C48.7027 58.5265 47.4448 58.8893 46.1696 59.1798L41.9231 52.2905C43.1983 51.9975 44.4562 51.6328 45.6909 51.1982" fill="url(#paint49_linear_180_1660)"/>
<path d="M49.9374 58.0931L50.103 58.5649L50.6888 58.3593L50.363 57.8308L49.9374 58.0931ZM46.1696 59.1798L45.7439 59.4421L45.9317 59.7468L46.2806 59.6673L46.1696 59.1798ZM41.9231 52.2905L41.8111 51.8032L41.1316 51.9594L41.4975 52.5529L41.9231 52.2905ZM45.2653 51.4662L49.5117 58.3555L50.363 57.8308L46.1165 50.9415L45.2653 51.4662ZM49.7718 57.6213C48.555 58.0484 47.3153 58.406 46.0585 58.6923L46.2806 59.6673C47.5743 59.3726 48.8505 59.0045 50.103 58.5649L49.7718 57.6213ZM46.5952 58.9174L42.3487 52.0282L41.4975 52.5529L45.7439 59.4421L46.5952 58.9174ZM42.0351 52.7778C43.3286 52.4806 44.6045 52.1107 45.8569 51.6699L45.5249 50.7266C44.3079 51.155 43.068 51.5144 41.8111 51.8032L42.0351 52.7778Z" fill="#FFBA93" mask="url(#path-79-inside-30_180_1660)"/>
<mask id="path-81-inside-31_180_1660" fill="white">
<path d="M41.9232 52.2962L46.1696 59.1798C43.2517 59.8567 40.2537 60.1167 37.2638 59.9522C28.7779 59.4617 22.1017 55.442 18.4332 49.4901L14.1868 42.6008C17.8538 48.5514 24.5314 52.571 33.0159 53.0629C36.0063 53.2276 39.0048 52.9676 41.9232 52.2906"/>
</mask>
<path d="M41.9232 52.2962L46.1696 59.1798C43.2517 59.8567 40.2537 60.1167 37.2638 59.9522C28.7779 59.4617 22.1017 55.442 18.4332 49.4901L14.1868 42.6008C17.8538 48.5514 24.5314 52.571 33.0159 53.0629C36.0063 53.2276 39.0048 52.9676 41.9232 52.2906" fill="url(#paint50_linear_180_1660)"/>
<path d="M46.1696 59.1798L46.2826 59.6669L46.9606 59.5096L46.5952 58.9173L46.1696 59.1798ZM37.2638 59.9522L37.235 60.4513L37.2363 60.4514L37.2638 59.9522ZM18.4332 49.4901L18.8589 49.2277L18.8589 49.2277L18.4332 49.4901ZM14.1868 42.6008L14.6124 42.3385L13.7611 42.8631L14.1868 42.6008ZM33.0159 53.0629L32.987 53.5621L32.9884 53.5622L33.0159 53.0629ZM41.4976 52.5587L45.7441 59.4423L46.5952 58.9173L42.3487 52.0337L41.4976 52.5587ZM46.0566 58.6927C43.1847 59.359 40.234 59.6149 37.2913 59.4529L37.2363 60.4514C40.2734 60.6186 43.3187 60.3545 46.2826 59.6669L46.0566 58.6927ZM37.2927 59.453C28.9531 58.971 22.4333 55.0271 18.8589 49.2277L18.0076 49.7524C21.7701 55.857 28.6027 59.9524 37.235 60.4513L37.2927 59.453ZM18.8589 49.2277L14.6124 42.3385L13.7611 42.8632L18.0076 49.7524L18.8589 49.2277ZM13.7611 42.8631C17.5222 48.9664 24.3562 53.0617 32.987 53.5621L33.0449 52.5638C24.7066 52.0804 18.1854 48.1364 14.6124 42.3385L13.7611 42.8631ZM32.9884 53.5622C36.026 53.7295 39.0718 53.4654 42.0362 52.7776L41.8102 51.8035C38.9378 52.4699 35.9866 52.7258 33.0434 52.5637L32.9884 53.5622Z" fill="#FFBA93" mask="url(#path-81-inside-31_180_1660)"/>
<path d="M63.7112 38.2806L74.4643 38.9035L78.3907 45.2748L67.6375 44.6519L63.7112 38.2806Z" fill="url(#paint51_linear_180_1660)" stroke="#FFBA93" stroke-width="0.5"/>
<path d="M74.8774 38.6209L76.1327 33.7699L80.0154 40.069L78.7601 44.9213L74.8774 38.6209Z" fill="url(#paint52_linear_180_1660)" stroke="#FFBA93" stroke-width="0.5"/>
<defs>
<linearGradient id="paint0_linear_180_1660" x1="3.71606" y1="23.7069" x2="17.6773" y2="23.7069" gradientUnits="userSpaceOnUse">
<stop stop-color="#E29C53"/>
<stop offset="1" stop-color="#CE4C7A"/>
</linearGradient>
<linearGradient id="paint1_linear_180_1660" x1="0" y1="38.114" x2="15.6086" y2="38.114" gradientUnits="userSpaceOnUse">
<stop stop-color="#E29C53"/>
<stop offset="1" stop-color="#CE4C7A"/>
</linearGradient>
<linearGradient id="paint2_linear_180_1660" x1="38.1831" y1="12.254" x2="65.5332" y2="12.254" gradientUnits="userSpaceOnUse">
<stop stop-color="#E29C53"/>
<stop offset="1" stop-color="#CE4C7A"/>
</linearGradient>
<linearGradient id="paint3_linear_180_1660" x1="35.0425" y1="9.00944" x2="42.4297" y2="9.00944" gradientUnits="userSpaceOnUse">
<stop stop-color="#E29C53"/>
<stop offset="1" stop-color="#CE4C7A"/>
</linearGradient>
<linearGradient id="paint4_linear_180_1660" x1="32.5229" y1="9.97417" x2="39.2887" y2="9.97417" gradientUnits="userSpaceOnUse">
<stop stop-color="#E29C53"/>
<stop offset="1" stop-color="#CE4C7A"/>
</linearGradient>
<linearGradient id="paint5_linear_180_1660" x1="30.3411" y1="11.0356" x2="36.764" y2="11.0356" gradientUnits="userSpaceOnUse">
<stop stop-color="#E29C53"/>
<stop offset="1" stop-color="#CE4C7A"/>
</linearGradient>
<linearGradient id="paint6_linear_180_1660" x1="28.3494" y1="12.1912" x2="34.5819" y2="12.1912" gradientUnits="userSpaceOnUse">
<stop stop-color="#E29C53"/>
<stop offset="1" stop-color="#CE4C7A"/>
</linearGradient>
<linearGradient id="paint7_linear_180_1660" x1="26.4966" y1="13.4605" x2="32.6018" y2="13.4605" gradientUnits="userSpaceOnUse">
<stop stop-color="#E29C53"/>
<stop offset="1" stop-color="#CE4C7A"/>
</linearGradient>
<linearGradient id="paint8_linear_180_1660" x1="24.7271" y1="14.8634" x2="30.7426" y2="14.8634" gradientUnits="userSpaceOnUse">
<stop stop-color="#E29C53"/>
<stop offset="1" stop-color="#CE4C7A"/>
</linearGradient>
<linearGradient id="paint9_linear_180_1660" x1="23.0127" y1="16.4399" x2="28.9737" y2="16.4399" gradientUnits="userSpaceOnUse">
<stop stop-color="#E29C53"/>
<stop offset="1" stop-color="#CE4C7A"/>
</linearGradient>
<linearGradient id="paint10_linear_180_1660" x1="21.2854" y1="18.2749" x2="27.259" y2="18.2749" gradientUnits="userSpaceOnUse">
<stop stop-color="#E29C53"/>
<stop offset="1" stop-color="#CE4C7A"/>
</linearGradient>
<linearGradient id="paint11_linear_180_1660" x1="19.5247" y1="20.5336" x2="25.5333" y2="20.5336" gradientUnits="userSpaceOnUse">
<stop stop-color="#E29C53"/>
<stop offset="1" stop-color="#CE4C7A"/>
</linearGradient>
<linearGradient id="paint12_linear_180_1660" x1="17.2759" y1="24.086" x2="23.7715" y2="24.086" gradientUnits="userSpaceOnUse">
<stop stop-color="#E29C53"/>
<stop offset="1" stop-color="#CE4C7A"/>
</linearGradient>
<linearGradient id="paint13_linear_180_1660" x1="16.0508" y1="28.8133" x2="21.5219" y2="28.8133" gradientUnits="userSpaceOnUse">
<stop stop-color="#E29C53"/>
<stop offset="1" stop-color="#CE4C7A"/>
</linearGradient>
<linearGradient id="paint14_linear_180_1660" x1="15.8647" y1="33.6039" x2="20.2974" y2="33.6039" gradientUnits="userSpaceOnUse">
<stop stop-color="#E29C53"/>
<stop offset="1" stop-color="#CE4C7A"/>
</linearGradient>
<linearGradient id="paint15_linear_180_1660" x1="15.9668" y1="37.2858" x2="20.6891" y2="37.2858" gradientUnits="userSpaceOnUse">
<stop stop-color="#E29C53"/>
<stop offset="1" stop-color="#CE4C7A"/>
</linearGradient>
<linearGradient id="paint16_linear_180_1660" x1="16.4443" y1="39.6706" x2="21.3808" y2="39.6706" gradientUnits="userSpaceOnUse">
<stop stop-color="#E29C53"/>
<stop offset="1" stop-color="#CE4C7A"/>
</linearGradient>
<linearGradient id="paint17_linear_180_1660" x1="17.1343" y1="41.6284" x2="22.2205" y2="41.6284" gradientUnits="userSpaceOnUse">
<stop stop-color="#E29C53"/>
<stop offset="1" stop-color="#CE4C7A"/>
</linearGradient>
<linearGradient id="paint18_linear_180_1660" x1="17.9783" y1="42.9539" x2="22.7132" y2="42.9539" gradientUnits="userSpaceOnUse">
<stop stop-color="#E29C53"/>
<stop offset="1" stop-color="#CE4C7A"/>
</linearGradient>
<linearGradient id="paint19_linear_180_1660" x1="46.2996" y1="26.1219" x2="50.693" y2="26.1219" gradientUnits="userSpaceOnUse">
<stop stop-color="#E29C53"/>
<stop offset="1" stop-color="#CE4C7A"/>
</linearGradient>
<linearGradient id="paint20_linear_180_1660" x1="46.4468" y1="26.5179" x2="50.9466" y2="26.5179" gradientUnits="userSpaceOnUse">
<stop stop-color="#E29C53"/>
<stop offset="1" stop-color="#CE4C7A"/>
</linearGradient>
<linearGradient id="paint21_linear_180_1660" x1="46.7" y1="27.1051" x2="51.1536" y2="27.1051" gradientUnits="userSpaceOnUse">
<stop stop-color="#E29C53"/>
<stop offset="1" stop-color="#CE4C7A"/>
</linearGradient>
<linearGradient id="paint22_linear_180_1660" x1="46.9058" y1="27.8203" x2="51.2936" y2="27.8203" gradientUnits="userSpaceOnUse">
<stop stop-color="#E29C53"/>
<stop offset="1" stop-color="#CE4C7A"/>
</linearGradient>
<linearGradient id="paint23_linear_180_1660" x1="47.0247" y1="28.9233" x2="51.3268" y2="28.9233" gradientUnits="userSpaceOnUse">
<stop stop-color="#E29C53"/>
<stop offset="1" stop-color="#CE4C7A"/>
</linearGradient>
<linearGradient id="paint24_linear_180_1660" x1="46.6565" y1="30.3622" x2="51.2711" y2="30.3622" gradientUnits="userSpaceOnUse">
<stop stop-color="#E29C53"/>
<stop offset="1" stop-color="#CE4C7A"/>
</linearGradient>
<linearGradient id="paint25_linear_180_1660" x1="45.9819" y1="31.7779" x2="50.9044" y2="31.7779" gradientUnits="userSpaceOnUse">
<stop stop-color="#E29C53"/>
<stop offset="1" stop-color="#CE4C7A"/>
</linearGradient>
<linearGradient id="paint26_linear_180_1660" x1="43.8909" y1="34.5475" x2="48.6678" y2="34.5475" gradientUnits="userSpaceOnUse">
<stop stop-color="#E29C53"/>
<stop offset="1" stop-color="#CE4C7A"/>
</linearGradient>
<linearGradient id="paint27_linear_180_1660" x1="42.7378" y1="35.3487" x2="47.5805" y2="35.3487" gradientUnits="userSpaceOnUse">
<stop stop-color="#E29C53"/>
<stop offset="1" stop-color="#CE4C7A"/>
</linearGradient>
<linearGradient id="paint28_linear_180_1660" x1="41.3337" y1="36.0147" x2="46.3388" y2="36.0147" gradientUnits="userSpaceOnUse">
<stop stop-color="#E29C53"/>
<stop offset="1" stop-color="#CE4C7A"/>
</linearGradient>
<linearGradient id="paint29_linear_180_1660" x1="33.4541" y1="35.3287" x2="44.6315" y2="35.3287" gradientUnits="userSpaceOnUse">
<stop stop-color="#E29C53"/>
<stop offset="1" stop-color="#CE4C7A"/>
</linearGradient>
<linearGradient id="paint30_linear_180_1660" x1="65.5669" y1="14.4647" x2="70.3984" y2="14.4647" gradientUnits="userSpaceOnUse">
<stop stop-color="#E29C53"/>
<stop offset="1" stop-color="#CE4C7A"/>
</linearGradient>
<linearGradient id="paint31_linear_180_1660" x1="66.1506" y1="16.0545" x2="71.4118" y2="16.0545" gradientUnits="userSpaceOnUse">
<stop stop-color="#E29C53"/>
<stop offset="1" stop-color="#CE4C7A"/>
</linearGradient>
<linearGradient id="paint32_linear_180_1660" x1="67.1641" y1="18.4038" x2="72.2391" y2="18.4038" gradientUnits="userSpaceOnUse">
<stop stop-color="#E29C53"/>
<stop offset="1" stop-color="#CE4C7A"/>
</linearGradient>
<linearGradient id="paint33_linear_180_1660" x1="67.991" y1="20.6181" x2="72.6377" y2="20.6181" gradientUnits="userSpaceOnUse">
<stop stop-color="#E29C53"/>
<stop offset="1" stop-color="#CE4C7A"/>
</linearGradient>
<linearGradient id="paint34_linear_180_1660" x1="68.4878" y1="27.7666" x2="72.8546" y2="27.7666" gradientUnits="userSpaceOnUse">
<stop stop-color="#E29C53"/>
<stop offset="1" stop-color="#CE4C7A"/>
</linearGradient>
<linearGradient id="paint35_linear_180_1660" x1="66.9512" y1="31.4128" x2="72.7344" y2="31.4128" gradientUnits="userSpaceOnUse">
<stop stop-color="#E29C53"/>
<stop offset="1" stop-color="#CE4C7A"/>
</linearGradient>
<linearGradient id="paint36_linear_180_1660" x1="66.3215" y1="35.2534" x2="71.1978" y2="35.2534" gradientUnits="userSpaceOnUse">
<stop stop-color="#E29C53"/>
<stop offset="1" stop-color="#CE4C7A"/>
</linearGradient>
<linearGradient id="paint37_linear_180_1660" x1="0.00146484" y1="26.5599" x2="79.7536" y2="26.5599" gradientUnits="userSpaceOnUse">
<stop stop-color="#E29C53"/>
<stop offset="1" stop-color="#CE4C7A"/>
</linearGradient>
<linearGradient id="paint38_linear_180_1660" x1="33.4563" y1="30.5713" x2="46.3488" y2="22.6239" gradientUnits="userSpaceOnUse">
<stop stop-color="#E29C53"/>
<stop offset="1" stop-color="#CE4C7A"/>
</linearGradient>
<linearGradient id="paint39_linear_180_1660" x1="68.6082" y1="27.4664" x2="82.5708" y2="27.4664" gradientUnits="userSpaceOnUse">
<stop stop-color="#E29C53"/>
<stop offset="1" stop-color="#CE4C7A"/>
</linearGradient>
<linearGradient id="paint40_linear_180_1660" x1="78.3247" y1="24.9866" x2="84.0002" y2="24.9866" gradientUnits="userSpaceOnUse">
<stop stop-color="#E29C53"/>
<stop offset="1" stop-color="#CE4C7A"/>
</linearGradient>
<linearGradient id="paint41_linear_180_1660" x1="62.1628" y1="42.1752" x2="67.4926" y2="42.1752" gradientUnits="userSpaceOnUse">
<stop stop-color="#E29C53"/>
<stop offset="1" stop-color="#CE4C7A"/>
</linearGradient>
<linearGradient id="paint42_linear_180_1660" x1="60.1155" y1="44.092" x2="66.411" y2="44.092" gradientUnits="userSpaceOnUse">
<stop stop-color="#E29C53"/>
<stop offset="1" stop-color="#CE4C7A"/>
</linearGradient>
<linearGradient id="paint43_linear_180_1660" x1="58.0535" y1="46.2808" x2="64.3616" y2="46.2808" gradientUnits="userSpaceOnUse">
<stop stop-color="#E29C53"/>
<stop offset="1" stop-color="#CE4C7A"/>
</linearGradient>
<linearGradient id="paint44_linear_180_1660" x1="55.929" y1="48.1744" x2="62.3015" y2="48.1744" gradientUnits="userSpaceOnUse">
<stop stop-color="#E29C53"/>
<stop offset="1" stop-color="#CE4C7A"/>
</linearGradient>
<linearGradient id="paint45_linear_180_1660" x1="53.7095" y1="49.8615" x2="60.1758" y2="49.8615" gradientUnits="userSpaceOnUse">
<stop stop-color="#E29C53"/>
<stop offset="1" stop-color="#CE4C7A"/>
</linearGradient>
<linearGradient id="paint46_linear_180_1660" x1="51.3298" y1="51.383" x2="57.9557" y2="51.383" gradientUnits="userSpaceOnUse">
<stop stop-color="#E29C53"/>
<stop offset="1" stop-color="#CE4C7A"/>
</linearGradient>
<linearGradient id="paint47_linear_180_1660" x1="48.7014" y1="52.7683" x2="55.5652" y2="52.7683" gradientUnits="userSpaceOnUse">
<stop stop-color="#E29C53"/>
<stop offset="1" stop-color="#CE4C7A"/>
</linearGradient>
<linearGradient id="paint48_linear_180_1660" x1="45.6909" y1="54.0396" x2="52.948" y2="54.0396" gradientUnits="userSpaceOnUse">
<stop stop-color="#E29C53"/>
<stop offset="1" stop-color="#CE4C7A"/>
</linearGradient>
<linearGradient id="paint49_linear_180_1660" x1="41.9231" y1="55.1891" x2="49.9374" y2="55.1891" gradientUnits="userSpaceOnUse">
<stop stop-color="#E29C53"/>
<stop offset="1" stop-color="#CE4C7A"/>
</linearGradient>
<linearGradient id="paint50_linear_180_1660" x1="14.1868" y1="51.3006" x2="46.1696" y2="51.3006" gradientUnits="userSpaceOnUse">
<stop stop-color="#E29C53"/>
<stop offset="1" stop-color="#CE4C7A"/>
</linearGradient>
<linearGradient id="paint51_linear_180_1660" x1="63.2466" y1="41.7778" x2="78.8552" y2="41.7778" gradientUnits="userSpaceOnUse">
<stop stop-color="#E29C53"/>
<stop offset="1" stop-color="#CE4C7A"/>
</linearGradient>
<linearGradient id="paint52_linear_180_1660" x1="74.6086" y1="39.3457" x2="80.2841" y2="39.3457" gradientUnits="userSpaceOnUse">
<stop stop-color="#E29C53"/>
<stop offset="1" stop-color="#CE4C7A"/>
</linearGradient>
</defs>
</svg>
