<svg width="449" height="60" viewBox="0 0 449 60" fill="none" xmlns="http://www.w3.org/2000/svg">
<mask id="mask0_366_1598" style="mask-type:alpha" maskUnits="userSpaceOnUse" x="0" y="0" width="449" height="60">
<path d="M0 12C0 5.37258 5.37258 0 12 0H437C443.627 0 449 5.37258 449 12V60H0V12Z" fill="#101116"/>
</mask>
<g mask="url(#mask0_366_1598)">
<path opacity="0.9" fill-rule="evenodd" clip-rule="evenodd" d="M346.514 22.5934H362.74C360.37 31.2742 360.342 40.4274 362.66 49.1223H346.514V62.9876H368.697C373.229 70.2505 379.522 76.2595 386.997 80.4571C394.636 84.7467 403.252 87 412.016 87C420.78 87 429.396 84.7467 437.035 80.4571C444.51 76.2595 450.803 70.2505 455.335 62.9876H477.514V49.1223H461.368C463.684 40.4273 463.658 31.2749 461.292 22.5934H477.514V8.7281H455.154C450.604 1.54258 444.325 -4.39485 436.885 -8.54012C429.283 -12.7762 420.722 -15 412.016 -15C403.31 -15 394.749 -12.7762 387.147 -8.54012C379.707 -4.39485 373.428 1.54258 368.878 8.7281H346.514V22.5934ZM369.432 9.7281C373.914 2.47463 380.18 -3.5134 387.633 -7.66657C395.087 -11.8197 403.481 -14 412.016 -14C420.552 -14 428.945 -11.8197 436.399 -7.66657C443.852 -3.5134 450.118 2.47463 454.6 9.7281H476.514V21.5934H459.965C460.065 21.926 460.162 22.2593 460.255 22.5934C462.669 31.2682 462.696 40.4335 460.332 49.1223C460.242 49.4564 460.147 49.7897 460.049 50.1223H476.514V61.9876H454.777C450.313 69.3191 444.035 75.3795 436.545 79.5852C429.056 83.7908 420.608 86 412.016 86C403.424 86 394.976 83.7908 387.487 79.5852C379.997 75.3795 373.719 69.3191 369.255 61.9876H347.514V50.1223H363.979C363.881 49.7897 363.786 49.4564 363.695 49.1223C361.33 40.4335 361.358 31.2675 363.777 22.5934C363.87 22.2593 363.967 21.926 364.067 21.5934H347.514V9.7281H369.432ZM412.011 68.1934C418.383 68.1907 424.611 66.3026 429.91 62.7676C435.212 59.23 439.344 54.2021 441.784 48.3198C444.224 42.4376 444.862 35.965 443.619 29.7205C442.375 23.476 439.304 17.7399 434.795 13.2376C430.286 8.73525 424.542 5.66895 418.287 4.42668C412.033 3.18441 405.55 3.822 399.659 6.25877C393.767 8.69553 388.732 12.8219 385.189 18.116C381.647 23.41 379.756 29.6339 379.756 36.0007C379.766 44.538 383.168 52.7228 389.216 58.7586C395.263 64.7936 403.461 68.1869 412.011 68.1934ZM378.756 36.0007C378.756 29.4358 380.706 23.0184 384.358 17.5599C388.011 12.1014 393.202 7.84697 399.276 5.33469C405.35 2.82242 412.034 2.1651 418.482 3.44584C424.93 4.72659 430.853 7.88788 435.502 12.53C440.151 17.172 443.317 23.0864 444.599 29.5252C445.882 35.9639 445.224 42.6378 442.708 48.703C440.192 54.7682 435.931 59.9521 430.465 63.5994C425.003 67.2435 418.583 69.19 412.014 69.1934C412.014 69.1934 412.014 69.1934 412.014 69.1934C412.013 69.1934 412.011 69.1934 412.01 69.1934C412.006 69.1934 412.001 69.1934 411.997 69.1934C403.187 69.1834 394.741 65.6855 388.509 59.4664C382.274 53.2432 378.766 44.8038 378.756 36.0007ZM412.015 23.5597L412.014 23.5597L411.997 23.5597C409.534 23.5597 407.125 24.2892 405.077 25.6561C403.028 27.0229 401.431 28.9658 400.488 31.2393C399.545 33.5128 399.298 36.0145 399.779 38.4281C400.26 40.8417 401.446 43.0585 403.189 44.7983C404.931 46.5381 407.151 47.7228 409.567 48.2027C411.983 48.6826 414.488 48.4363 416.764 47.4949C419.04 46.5534 420.986 44.959 422.355 42.9131C423.724 40.8672 424.455 38.4616 424.455 36.0007C424.455 32.7039 423.144 29.5421 420.812 27.2096C418.479 24.8771 415.316 23.5646 412.015 23.5597ZM412.014 24.5597H411.997C409.731 24.5597 407.516 25.2307 405.632 26.4879C403.747 27.745 402.279 29.5319 401.412 31.6225C400.544 33.713 400.318 36.0134 400.76 38.2327C401.202 40.4521 402.293 42.4907 403.895 44.0907C405.498 45.6907 407.539 46.7804 409.762 47.2218C411.984 47.6633 414.288 47.4367 416.382 46.5708C418.475 45.7048 420.265 44.2384 421.524 42.357C422.783 40.4755 423.455 38.2635 423.455 36.0007C423.455 32.9693 422.25 30.0618 420.105 27.9167C417.96 25.7715 415.05 24.5642 412.014 24.5597Z" fill="#23252C"/>
<path opacity="0.8" fill-rule="evenodd" clip-rule="evenodd" d="M368.016 -14C359.395 -14 350.918 -11.798 343.39 -7.60335C335.943 -3.45404 329.67 2.50863 325.154 9.7281H303.014V22.5934H319.399C316.818 31.5847 316.789 41.1154 319.315 50.1223H303.014V62.9876H324.975C329.473 70.2848 335.759 76.3194 343.242 80.5211C350.806 84.7688 359.338 87 368.016 87V86C359.509 86 351.146 83.8128 343.731 79.6492C336.317 75.4855 330.101 69.4857 325.682 62.2276L325.536 61.9876H304.014V51.1223H320.647L320.458 50.4809C317.74 41.2578 317.77 31.4439 320.546 22.2377L320.74 21.5934H304.014V10.7281H325.711L325.857 10.4909C330.294 3.31006 336.497 -2.61811 343.877 -6.7298C351.256 -10.8415 359.566 -13 368.016 -13V-14Z" fill="#23252C"/>
<path opacity="0.7" fill-rule="evenodd" clip-rule="evenodd" d="M327.514 -14C318.893 -14 310.416 -11.798 302.888 -7.60335C295.441 -3.45404 289.168 2.50863 284.652 9.7281H262.512V22.5934H278.897C276.316 31.5847 276.287 41.1154 278.813 50.1223H262.512V62.9876H284.473C288.971 70.2848 295.257 76.3194 302.74 80.5211C310.304 84.7688 318.836 87 327.514 87V86C319.007 86 310.644 83.8128 303.229 79.6492C295.815 75.4855 289.599 69.4857 285.18 62.2276L285.034 61.9876H263.512V51.1223H280.145L279.956 50.4809C277.238 41.2578 277.268 31.4439 280.044 22.2377L280.238 21.5934H263.512V10.7281H285.209L285.355 10.4909C289.792 3.31006 295.995 -2.61811 303.375 -6.7298C310.754 -10.8415 319.064 -13 327.514 -13V-14Z" fill="#23252C"/>
<path opacity="0.6" fill-rule="evenodd" clip-rule="evenodd" d="M287.012 -14C278.391 -14 269.914 -11.798 262.386 -7.60335C254.939 -3.45404 248.666 2.50863 244.15 9.7281H222.01V22.5934H238.395C235.814 31.5847 235.785 41.1154 238.311 50.1223H222.01V62.9876H243.971C248.47 70.2848 254.755 76.3194 262.238 80.5211C269.802 84.7688 278.334 87 287.012 87V86C278.505 86 270.142 83.8128 262.727 79.6492C255.313 75.4855 249.097 69.4857 244.678 62.2276L244.532 61.9876H223.01V51.1223H239.643L239.454 50.4809C236.736 41.2578 236.766 31.4439 239.542 22.2377L239.736 21.5934H223.01V10.7281H244.707L244.853 10.4909C249.29 3.31006 255.493 -2.61811 262.873 -6.7298C270.252 -10.8415 278.562 -13 287.012 -13V-14Z" fill="#23252C"/>
<path opacity="0.5" fill-rule="evenodd" clip-rule="evenodd" d="M246.51 -14C237.889 -14 229.412 -11.798 221.884 -7.60335C214.437 -3.45404 208.164 2.50863 203.648 9.7281H181.508V22.5934H197.893C195.312 31.5847 195.283 41.1154 197.809 50.1223H181.508V62.9876H203.469C207.968 70.2848 214.254 76.3194 221.736 80.5211C229.3 84.7688 237.832 87 246.51 87V86C238.003 86 229.64 83.8128 222.225 79.6492C214.811 75.4855 208.595 69.4857 204.176 62.2276L204.03 61.9876H182.508V51.1223H199.141L198.952 50.4809C196.234 41.2578 196.264 31.4439 199.04 22.2377L199.234 21.5934H182.508V10.7281H204.205L204.351 10.4909C208.788 3.31006 214.992 -2.61811 222.371 -6.7298C229.75 -10.8415 238.06 -13 246.51 -13V-14Z" fill="#23252C"/>
<path opacity="0.35" fill-rule="evenodd" clip-rule="evenodd" d="M206.008 -14C197.387 -14 188.91 -11.798 181.382 -7.60335C173.935 -3.45404 167.662 2.50863 163.146 9.7281H141.006V22.5934H157.391C154.81 31.5847 154.781 41.1154 157.307 50.1223H141.006V62.9876H162.967C167.466 70.2848 173.752 76.3194 181.234 80.5211C188.798 84.7688 197.33 87 206.008 87V86C197.501 86 189.138 83.8128 181.723 79.6492C174.309 75.4855 168.093 69.4857 163.674 62.2276L163.528 61.9876H142.006V51.1223H158.639L158.45 50.4809C155.732 41.2578 155.762 31.4439 158.538 22.2377L158.732 21.5934H142.006V10.7281H163.703L163.849 10.4909C168.286 3.31006 174.49 -2.61811 181.869 -6.7298C189.248 -10.8415 197.558 -13 206.008 -13V-14Z" fill="#23252C"/>
<path opacity="0.25" fill-rule="evenodd" clip-rule="evenodd" d="M165.506 -14C156.885 -14 148.408 -11.798 140.88 -7.60335C133.433 -3.45404 127.161 2.50863 122.644 9.7281H100.504V22.5934H116.889C114.308 31.5847 114.279 41.1154 116.805 50.1223H100.504V62.9876H122.465C126.964 70.2848 133.25 76.3194 140.732 80.5211C148.296 84.7688 156.828 87 165.506 87V86C156.999 86 148.636 83.8128 141.222 79.6492C133.807 75.4855 127.591 69.4857 123.172 62.2276L123.026 61.9876H101.504V51.1223H118.137L117.948 50.4809C115.23 41.2578 115.26 31.4439 118.036 22.2377L118.23 21.5934H101.504V10.7281H123.201L123.347 10.4909C127.785 3.31006 133.988 -2.61811 141.367 -6.7298C148.746 -10.8415 157.056 -13 165.506 -13V-14Z" fill="#23252C"/>
<path opacity="0.15" fill-rule="evenodd" clip-rule="evenodd" d="M125.004 -14C116.383 -14 107.906 -11.798 100.378 -7.60335C92.9314 -3.45404 86.6586 2.50863 82.1421 9.7281H60.002V22.5934H76.3869C73.8063 31.5847 73.7772 41.1154 76.3028 50.1223H60.002V62.9876H81.9632C86.4617 70.2848 92.7477 76.3194 100.23 80.5211C107.794 84.7688 116.326 87 125.004 87V86C116.497 86 108.134 83.8128 100.72 79.6492C93.305 75.4855 87.0891 69.4857 82.6704 62.2276L82.5243 61.9876H61.002V51.1223H77.6354L77.4464 50.4809C74.7281 41.2578 74.7585 31.4439 77.5339 22.2377L77.7281 21.5934H61.002V10.7281H82.6988L82.8454 10.4909C87.2826 3.31006 93.4857 -2.61811 100.865 -6.7298C108.244 -10.8415 116.554 -13 125.004 -13V-14Z" fill="#23252C"/>
<path opacity="0.05" fill-rule="evenodd" clip-rule="evenodd" d="M84.5022 -14C75.8815 -14 67.4041 -11.798 59.8761 -7.60335C52.4295 -3.45404 46.1566 2.50863 41.6402 9.7281H19.5001V22.5934H35.8849C33.3043 31.5847 33.2752 41.1154 35.8008 50.1223H19.5001V62.9876H41.4613C45.9598 70.2848 52.2457 76.3194 59.728 80.5211C67.2921 84.7688 75.8241 87 84.5022 87V86C75.9955 86 67.6322 83.8128 60.2176 79.6492C52.8031 75.4855 46.5872 69.4857 42.1684 62.2276L42.0223 61.9876H20.5001V51.1223H37.1335L36.9445 50.4809C34.2261 41.2578 34.2565 31.4439 37.0319 22.2377L37.2262 21.5934H20.5001V10.7281H42.1968L42.3434 10.4909C46.7806 3.31006 52.9837 -2.61811 60.3628 -6.7298C67.742 -10.8415 76.0518 -13 84.5022 -13V-14Z" fill="#23252C"/>
</g>
</svg>
