<svg width="12" height="12" viewBox="0 0 12 12" fill="none" xmlns="http://www.w3.org/2000/svg">
<path d="M6 0C7.5913 0 9.11743 0.632141 10.2426 1.75736C11.3679 2.88258 12 4.4087 12 6C12 9.31371 9.31371 12 6 12C2.68629 12 0 9.31371 0 6C0 2.68629 2.68629 0 6 0ZM6 0.999375C3.23823 0.999375 0.999374 3.23823 0.999374 6C0.999374 8.76177 3.23823 11.0006 6 11.0006C8.75963 10.9955 10.9955 8.75963 11.0006 6C11.0006 3.23823 8.76177 0.999375 6 0.999375ZM6.00062 4.99875C6.27711 4.99875 6.50125 5.22886 6.50125 5.51271V8.49813C6.50125 8.77461 6.27711 8.99875 6.00062 8.99875C5.72413 8.99875 5.5 8.77461 5.5 8.49813V5.51271C5.5 5.22886 5.72413 4.99875 6.00062 4.99875ZM6.00187 3C6.27801 3 6.50187 3.22386 6.50187 3.5C6.50187 3.77614 6.27801 4 6.00187 4C5.72448 4 5.50062 3.77614 5.50062 3.5C5.50062 3.22386 5.72448 3 6.00062 3H6.00187Z" fill="#6F7380"/>
</svg>
