<svg width="80" height="84" viewBox="0 0 80 84" fill="none" xmlns="http://www.w3.org/2000/svg">
<path d="M73.4305 27.0304L78.9414 25.1027L75.3901 31.6369L70.2734 33.4331L73.4305 27.0304Z" fill="#FFBA93" stroke="#23252C"/>
<mask id="path-2-inside-1_2707_20537" fill="white">
<path d="M73.074 26.6255L69.2848 34.3102C68.8751 33.2265 68.3971 32.1701 67.8537 31.1476C67.3149 30.1258 66.7113 29.1398 66.0467 28.1958C64.0414 25.3411 61.5245 22.8866 58.6248 20.958C57.6616 20.3143 56.6596 19.731 55.6248 19.2115C54.5895 18.6919 53.5238 18.2358 52.4337 17.8458C51.3379 17.4571 50.22 17.1345 49.086 16.8797C48.5849 16.7664 48.0807 16.6689 47.5734 16.5839C47.0661 16.4989 46.5619 16.4297 46.0515 16.3731C45.541 16.3164 45.0337 16.2724 44.5264 16.244C44.0191 16.2157 43.5055 16.2 42.995 16.2C42.3499 16.2 41.7048 16.2189 41.0597 16.2598C40.4146 16.3007 39.7726 16.3668 39.1338 16.4549C38.4949 16.543 37.8561 16.65 37.2204 16.7696C36.5847 16.8891 35.9677 17.0528 35.3414 17.229C33.1155 17.8517 30.9757 18.7513 28.9717 19.907C27.973 20.4815 27.0117 21.1195 26.0938 21.8171C25.1738 22.5144 24.2984 23.269 23.4727 24.0766L23.8422 15.621C24.7309 14.7564 25.6722 13.9482 26.6606 13.201C29.6406 10.9619 33.009 9.29939 36.5941 8.29821C37.2642 8.11254 37.9438 7.9489 38.6233 7.81044C39.3029 7.67198 39.9887 7.55555 40.6777 7.46114C41.3666 7.36673 42.0556 7.30065 42.7445 7.2566C43.4335 7.21254 44.1318 7.19051 44.8239 7.19366C45.3719 7.19366 45.9199 7.21254 46.468 7.24401C47.016 7.27547 47.5609 7.32268 48.1089 7.38247C48.657 7.44226 49.1987 7.52093 49.7436 7.60904C50.2885 7.69716 50.8272 7.8073 51.3658 7.92373C55.0188 8.74271 58.4924 10.2251 61.6155 12.2979C63.6918 13.6808 65.5913 15.3147 67.2712 17.1629C68.1045 18.0818 68.8815 19.0507 69.598 20.0643C70.3075 21.0828 70.9538 22.1442 71.5333 23.2427C72.117 24.3388 72.6316 25.4708 73.074 26.6318"/>
</mask>
<path d="M73.074 26.6255L69.2848 34.3102C68.8751 33.2265 68.3971 32.1701 67.8537 31.1476C67.3149 30.1258 66.7113 29.1398 66.0467 28.1958C64.0414 25.3411 61.5245 22.8866 58.6248 20.958C57.6616 20.3143 56.6596 19.731 55.6248 19.2115C54.5895 18.6919 53.5238 18.2358 52.4337 17.8458C51.3379 17.4571 50.22 17.1345 49.086 16.8797C48.5849 16.7664 48.0807 16.6689 47.5734 16.5839C47.0661 16.4989 46.5619 16.4297 46.0515 16.3731C45.541 16.3164 45.0337 16.2724 44.5264 16.244C44.0191 16.2157 43.5055 16.2 42.995 16.2C42.3499 16.2 41.7048 16.2189 41.0597 16.2598C40.4146 16.3007 39.7726 16.3668 39.1338 16.4549C38.4949 16.543 37.8561 16.65 37.2204 16.7696C36.5847 16.8891 35.9677 17.0528 35.3414 17.229C33.1155 17.8517 30.9757 18.7513 28.9717 19.907C27.973 20.4815 27.0117 21.1195 26.0938 21.8171C25.1738 22.5144 24.2984 23.269 23.4727 24.0766L23.8422 15.621C24.7309 14.7564 25.6722 13.9482 26.6606 13.201C29.6406 10.9619 33.009 9.29939 36.5941 8.29821C37.2642 8.11254 37.9438 7.9489 38.6233 7.81044C39.3029 7.67198 39.9887 7.55555 40.6777 7.46114C41.3666 7.36673 42.0556 7.30065 42.7445 7.2566C43.4335 7.21254 44.1318 7.19051 44.8239 7.19366C45.3719 7.19366 45.9199 7.21254 46.468 7.24401C47.016 7.27547 47.5609 7.32268 48.1089 7.38247C48.657 7.44226 49.1987 7.52093 49.7436 7.60904C50.2885 7.69716 50.8272 7.8073 51.3658 7.92373C55.0188 8.74271 58.4924 10.2251 61.6155 12.2979C63.6918 13.6808 65.5913 15.3147 67.2712 17.1629C68.1045 18.0818 68.8815 19.0507 69.598 20.0643C70.3075 21.0828 70.9538 22.1442 71.5333 23.2427C72.117 24.3388 72.6316 25.4708 73.074 26.6318" fill="#FFBA93"/>
<path d="M69.2848 34.3102L68.3494 34.6638L69.1635 36.8173L70.1817 34.7524L69.2848 34.3102ZM67.8537 31.1476L66.9691 31.614L66.9706 31.6169L67.8537 31.1476ZM66.0467 28.1958L65.2284 28.7706L65.229 28.7715L66.0467 28.1958ZM58.6248 20.958L58.0692 21.7894L58.071 21.7907L58.6248 20.958ZM55.6248 19.2115L56.0734 18.3178L56.0734 18.3178L55.6248 19.2115ZM52.4337 17.8458L52.7705 16.9042L52.7679 16.9033L52.4337 17.8458ZM49.086 16.8797L48.8655 17.8551L48.8667 17.8554L49.086 16.8797ZM35.3414 17.229L35.6108 18.192L35.6123 18.1916L35.3414 17.229ZM28.9717 19.907L29.4704 20.7738L29.4713 20.7732L28.9717 19.907ZM26.0938 21.8171L26.6978 22.6141L26.6989 22.6133L26.0938 21.8171ZM23.4727 24.0766L22.4736 24.0329L22.3632 26.5604L24.1719 24.7915L23.4727 24.0766ZM23.8422 15.621L23.1449 14.9042L22.8605 15.1809L22.8431 15.5773L23.8422 15.621ZM26.6606 13.201L26.0599 12.4015L26.0576 12.4033L26.6606 13.201ZM36.5941 8.29821L36.3271 7.33451L36.3251 7.33506L36.5941 8.29821ZM44.8239 7.19366L44.8193 8.19366H44.8239V7.19366ZM51.3658 7.92373L51.5846 6.94792L51.5771 6.9463L51.3658 7.92373ZM61.6155 12.2979L62.1698 11.4656L62.1685 11.4647L61.6155 12.2979ZM67.2712 17.1629L68.0119 16.4911L68.0112 16.4903L67.2712 17.1629ZM69.598 20.0643L70.4185 19.4927L70.4146 19.4871L69.598 20.0643ZM71.5333 23.2427L70.6488 23.7092L70.6506 23.7126L71.5333 23.2427ZM72.1771 26.1833L68.3879 33.8679L70.1817 34.7524L73.9709 27.0678L72.1771 26.1833ZM70.2202 33.9566C69.7955 32.8333 69.3 31.7383 68.7367 30.6783L66.9706 31.6169C67.4942 32.602 67.9547 33.6197 68.3494 34.6638L70.2202 33.9566ZM68.7382 30.6811C68.1795 29.6216 67.5536 28.5991 66.8644 27.6201L65.229 28.7715C65.869 29.6805 66.4502 30.63 66.9691 31.614L68.7382 30.6811ZM66.865 27.621C64.7885 24.6648 62.1819 22.1229 59.1786 20.1254L58.071 21.7907C60.8671 23.6504 63.2944 26.0173 65.2284 28.7706L66.865 27.621ZM59.1805 20.1266C58.1829 19.4599 57.1452 18.8558 56.0734 18.3178L55.1761 20.1052C56.1741 20.6062 57.1403 21.1686 58.0692 21.7894L59.1805 20.1266ZM56.0734 18.3178C55.0019 17.78 53.8989 17.3079 52.7705 16.9042L52.0968 18.7873C53.1488 19.1637 54.1771 19.6038 55.1761 20.1053L56.0734 18.3178ZM52.7679 16.9033C51.6345 16.5013 50.4783 16.1676 49.3053 15.904L48.8667 17.8554C49.9618 18.1015 51.0412 18.413 52.0994 18.7883L52.7679 16.9033ZM49.3065 15.9043C48.7852 15.7864 48.2624 15.6854 47.7386 15.5976L47.4083 17.5702C47.8991 17.6524 48.3847 17.7464 48.8655 17.8551L49.3065 15.9043ZM47.7386 15.5976C47.2119 15.5094 46.6894 15.4377 46.1618 15.3792L45.9412 17.367C46.4345 17.4217 46.9203 17.4884 47.4083 17.5702L47.7386 15.5976ZM46.1618 15.3792C45.6357 15.3208 45.11 15.2751 44.5821 15.2456L44.4706 17.2425C44.9574 17.2697 45.4464 17.3121 45.9412 17.367L46.1618 15.3792ZM44.5821 15.2456C44.0581 15.2163 43.5258 15.2 42.995 15.2V17.2C43.4851 17.2 43.98 17.2151 44.4706 17.2425L44.5821 15.2456ZM42.995 15.2C42.3304 15.2 41.6642 15.2194 40.9964 15.2618L41.123 17.2578C41.7455 17.2183 42.3694 17.2 42.995 17.2V15.2ZM40.9964 15.2618C40.3253 15.3043 39.6588 15.373 38.9971 15.4642L39.2704 17.4455C39.8865 17.3605 40.504 17.297 41.123 17.2578L40.9964 15.2618ZM38.9971 15.4642C38.3393 15.555 37.6842 15.6648 37.0355 15.7868L37.4052 17.7523C38.028 17.6352 38.6505 17.531 39.2704 17.4455L38.9971 15.4642ZM37.0355 15.7868C36.3549 15.9148 35.7035 16.0883 35.0706 16.2664L35.6123 18.1916C36.232 18.0173 36.8144 17.8635 37.4052 17.7523L37.0355 15.7868ZM35.072 16.266C32.7656 16.9112 30.5485 17.8433 28.4722 19.0407L29.4713 20.7732C31.403 19.6593 33.4654 18.7922 35.6108 18.192L35.072 16.266ZM28.4731 19.0402C27.4374 19.636 26.4405 20.2976 25.4887 21.021L26.6989 22.6133C27.5828 21.9415 28.5086 21.3271 29.4704 20.7738L28.4731 19.0402ZM25.4898 21.0202C24.5364 21.7427 23.6292 22.5248 22.7735 23.3616L24.1719 24.7915C24.9676 24.0132 25.8113 23.286 26.6978 22.6141L25.4898 21.0202ZM24.4717 24.1202L24.8412 15.6646L22.8431 15.5773L22.4736 24.0329L24.4717 24.1202ZM24.5395 16.3377C25.3985 15.5021 26.3083 14.7209 27.2637 13.9987L26.0576 12.4033C25.0361 13.1755 24.0633 14.0108 23.1449 14.9042L24.5395 16.3377ZM27.2613 14.0005C30.142 11.836 33.398 10.229 36.863 9.26135L36.3251 7.33506C32.6201 8.36975 29.1392 10.0879 26.0599 12.4015L27.2613 14.0005ZM36.861 9.26191C37.5094 9.08228 38.1665 8.92406 38.823 8.7903L38.4237 6.83057C37.721 6.97374 37.019 7.14281 36.3271 7.33451L36.861 9.26191ZM38.823 8.7903C39.481 8.65622 40.1456 8.5434 40.8134 8.45188L40.5419 6.4704C39.8318 6.5677 39.1247 6.68773 38.4237 6.83057L38.823 8.7903ZM40.8134 8.45188C41.4757 8.36112 42.1405 8.29726 42.8083 8.25456L42.6807 6.25863C41.9706 6.30404 41.2575 6.37234 40.5419 6.4704L40.8134 8.45188ZM42.8083 8.25456C43.4758 8.21188 44.1513 8.19061 44.8193 8.19364L44.8284 6.19367C44.1123 6.19041 43.3912 6.2132 42.6807 6.25863L42.8083 8.25456ZM44.8239 8.19366C45.3491 8.19366 45.8777 8.21176 46.4106 8.24236L46.5253 6.24565C45.9622 6.21332 45.3947 6.19366 44.8239 6.19366V8.19366ZM46.4106 8.24236C46.9394 8.27272 47.4671 8.31838 48.0005 8.37657L48.2174 6.38837C47.6547 6.32698 47.0926 6.27823 46.5253 6.24565L46.4106 8.24236ZM48.0005 8.37657C48.5256 8.43386 49.0491 8.50973 49.584 8.59622L49.9033 6.62187C49.3483 6.53213 48.7883 6.45066 48.2174 6.38837L48.0005 8.37657ZM49.584 8.59622C50.1031 8.68016 50.6218 8.786 51.1545 8.90115L51.5771 6.9463C51.0325 6.82859 50.4739 6.71415 49.9033 6.62187L49.584 8.59622ZM51.147 8.89951C54.6807 9.69173 58.041 11.1257 61.0625 13.1311L62.1685 11.4647C58.9437 9.32441 55.3569 7.79368 51.5846 6.94795L51.147 8.89951ZM61.0612 13.1302C63.0692 14.4676 64.9063 16.0479 66.5312 17.8355L68.0112 16.4903C66.2762 14.5815 64.3144 12.894 62.1698 11.4656L61.0612 13.1302ZM66.5304 17.8347C67.3365 18.7236 68.0883 19.661 68.7814 20.6415L70.4146 19.4871C69.6748 18.4405 68.8724 17.44 68.0119 16.4911L66.5304 17.8347ZM68.7775 20.636C69.4635 21.6207 70.0885 22.6471 70.6488 23.7092L72.4178 22.7761C71.8192 21.6414 71.1515 20.5448 70.4185 19.4927L68.7775 20.636ZM70.6506 23.7126C71.2147 24.772 71.712 25.8659 72.1396 26.9879L74.0085 26.2757C73.5511 25.0757 73.0193 23.9057 72.416 22.7727L70.6506 23.7126Z" fill="#23252C" mask="url(#path-2-inside-1_2707_20537)"/>
<mask id="path-4-inside-2_2707_20537" fill="white">
<path d="M7.6316 3.43335L8.38318 12.7103L8.32055 28.6271L7.55957 20.4799L7.6316 3.43335Z"/>
</mask>
<path d="M7.6316 3.43335L8.38318 12.7103L8.32055 28.6271L7.55957 20.4799L7.6316 3.43335Z" fill="#FFBA93"/>
<path d="M7.6316 3.43335L8.62833 3.3526L6.63161 3.42912L7.6316 3.43335ZM8.38318 12.7103L9.38317 12.7142L9.38334 12.6718L9.37991 12.6295L8.38318 12.7103ZM8.32055 28.6271L7.32488 28.7201L9.32054 28.6311L8.32055 28.6271ZM7.55957 20.4799L6.55958 20.4757L6.55937 20.5244L6.5639 20.5729L7.55957 20.4799ZM6.63486 3.5141L7.38645 12.7911L9.37991 12.6295L8.62833 3.3526L6.63486 3.5141ZM7.38319 12.7064L7.32056 28.6232L9.32054 28.6311L9.38317 12.7142L7.38319 12.7064ZM9.31621 28.5341L8.55524 20.3869L6.5639 20.5729L7.32488 28.7201L9.31621 28.5341ZM8.55956 20.4841L8.63159 3.43757L6.63161 3.42912L6.55958 20.4757L8.55956 20.4841Z" fill="#23252C" mask="url(#path-4-inside-2_2707_20537)"/>
<path d="M13.7789 25.5148L23.2787 16.8092L22.9683 23.8519L14.0816 32.0279L13.7789 25.5148Z" fill="#FFBA93" stroke="#23252C"/>
<path d="M5.20033 39.4939L4.30791 33.1622L29.517 33.1863L28.8167 39.5L5.20033 39.4939Z" fill="#FFBA93" stroke="#23252C"/>
<mask id="path-8-inside-3_2707_20537" fill="white">
<path d="M3.74489 32.6615L4.77831 39.9968C4.35937 39.997 3.94373 39.9224 3.55073 39.7765C2.79529 39.5012 2.15943 38.9691 1.7532 38.2723C1.54995 37.9247 1.41096 37.543 1.34295 37.1457L0.0527344 29.5933C0.125438 30.0193 0.273951 30.4286 0.491156 30.8017C0.707672 31.1694 0.985171 31.4972 1.31164 31.7709C1.99508 32.3414 2.85641 32.6522 3.74489 32.6489"/>
</mask>
<path d="M3.74489 32.6615L4.77831 39.9968C4.35937 39.997 3.94373 39.9224 3.55073 39.7765C2.79529 39.5012 2.15943 38.9691 1.7532 38.2723C1.54995 37.9247 1.41096 37.543 1.34295 37.1457L0.0527344 29.5933C0.125438 30.0193 0.273951 30.4286 0.491156 30.8017C0.707672 31.1694 0.985171 31.4972 1.31164 31.7709C1.99508 32.3414 2.85641 32.6522 3.74489 32.6489" fill="#FFBA93"/>
<path d="M4.77831 39.9968L4.77873 40.9968L5.929 40.9963L5.76853 39.8573L4.77831 39.9968ZM3.55073 39.7765L3.89871 38.839L3.8932 38.837L3.55073 39.7765ZM1.7532 38.2723L2.61708 37.7686L2.61645 37.7675L1.7532 38.2723ZM1.34295 37.1457L0.357231 37.3141L0.357285 37.3144L1.34295 37.1457ZM0.0527344 29.5933L1.03845 29.4249L-0.933013 29.7615L0.0527344 29.5933ZM0.491156 30.8017L-0.373048 31.3048L-0.370558 31.3091L0.491156 30.8017ZM1.31164 31.7709L0.669157 32.5372L0.670825 32.5386L1.31164 31.7709ZM2.75467 32.801L3.78809 40.1363L5.76853 39.8573L4.73511 32.5219L2.75467 32.801ZM4.7779 38.9968C4.47794 38.9969 4.18027 38.9435 3.89871 38.839L3.20276 40.714C3.70718 40.9012 4.24079 40.997 4.77873 40.9968L4.7779 38.9968ZM3.8932 38.837C3.35785 38.6418 2.90612 38.2643 2.61708 37.7686L0.889314 38.776C1.41275 39.6738 2.23274 40.3605 3.20827 40.716L3.8932 38.837ZM2.61645 37.7675C2.47393 37.5238 2.37637 37.256 2.32862 36.977L0.357285 37.3144C0.445547 37.8301 0.625967 38.3256 0.889949 38.7771L2.61645 37.7675ZM2.32867 36.9773L1.03845 29.4249L-0.932985 29.7617L0.357231 37.3141L2.32867 36.9773ZM-0.933013 29.7615C-0.840191 30.3054 -0.650552 30.8282 -0.373037 31.3048L1.35535 30.2985C1.19845 30.029 1.09107 29.7331 1.03848 29.425L-0.933013 29.7615ZM-0.370558 31.3091C-0.0963371 31.7748 0.255258 32.1902 0.669158 32.5372L1.95413 31.0046C1.71508 30.8042 1.51168 30.564 1.35287 30.2943L-0.370558 31.3091ZM0.670825 32.5386C1.53466 33.2597 2.62412 33.653 3.74861 33.6489L3.74117 31.6489C3.08871 31.6513 2.45551 31.4231 1.95246 31.0032L0.670825 32.5386Z" fill="#23252C" mask="url(#path-8-inside-3_2707_20537)"/>
<path d="M44.735 0.500237H44.7332C43.8812 0.497132 43.0498 0.525035 42.1948 0.577953C41.3416 0.630767 40.4957 0.71146 39.6507 0.826113C38.8025 0.941211 37.9617 1.08103 37.1249 1.25169C36.2881 1.42235 35.454 1.62413 34.6288 1.85393L34.6273 1.85435C33.1563 2.25916 31.7118 2.75579 30.3023 3.34135C27.5011 4.50641 24.8541 6.01516 22.4215 7.83329L44.735 0.500237ZM44.735 0.500237C45.4069 0.500237 46.0789 0.521915 46.7509 0.56528V0.565301M44.735 0.500237L46.7509 0.565301M46.7509 0.565301L46.7554 0.565555M46.7509 0.565301L46.7554 0.565555M46.7554 0.565555C47.4275 0.60273 48.1009 0.66166 48.7728 0.736332C49.4418 0.810686 50.1122 0.906886 50.7844 1.01895C51.4546 1.13067 52.1186 1.26102 52.7797 1.41003L52.7807 1.41025M46.7554 0.565555L52.7807 1.41025M52.7807 1.41025C54.2793 1.74489 55.7562 2.17114 57.2032 2.68662L57.2034 2.68669M52.7807 1.41025L57.2034 2.68669M57.2034 2.68669C60.0876 3.71299 62.8368 5.08853 65.3901 6.78294L65.3902 6.783M57.2034 2.68669L65.3902 6.783M65.3902 6.783C69.2259 9.32734 72.5606 12.5624 75.2261 16.3252C76.1057 17.5697 76.9075 18.8679 77.6268 20.2124L77.627 20.2126M65.3902 6.783L77.627 20.2126M77.627 20.2126C78.2684 21.4101 78.8422 22.6428 79.3455 23.9049M77.627 20.2126L79.3455 23.9049M69.9956 19.7886L69.9965 19.7898C70.7206 20.8207 71.3808 21.8954 71.9734 23.0079M69.9956 19.7886L73.0728 26.6258M69.9956 19.7886C69.2675 18.7585 68.4779 17.7738 67.631 16.8399L67.6306 16.8395M69.9956 19.7886L67.6306 16.8395M71.9734 23.0079L71.5321 23.243L71.9733 23.0077C71.9733 23.0078 71.9733 23.0078 71.9734 23.0079ZM71.9734 23.0079C72.4904 23.9775 72.9542 24.9746 73.3628 25.9949M73.3628 25.9949L72.9079 26.1538L73.0728 26.6258M73.3628 25.9949L79.3455 23.9049M73.3628 25.9949C73.4231 26.1452 73.4821 26.2961 73.5399 26.4474L73.0728 26.6258M73.0728 26.6258L79.3455 23.9049M67.6306 16.8395C65.9231 14.961 63.9925 13.3003 61.8821 11.8946L61.8813 11.8941M67.6306 16.8395L61.8813 11.8941M61.8813 11.8941C58.7042 9.78602 55.1712 8.27745 51.4554 7.44249L51.4542 7.44221M61.8813 11.8941L51.4542 7.44221M51.4542 7.44221C50.9068 7.32069 50.3573 7.21409 49.8056 7.1224L49.8034 7.12205M51.4542 7.44221L49.8034 7.12205M49.8034 7.12205C49.2532 7.03308 48.6994 6.95305 48.1435 6.89205C47.5908 6.83141 47.0341 6.78343 46.4766 6.75142C45.9211 6.71952 45.3633 6.70025 44.8039 6.70025C44.1028 6.70025 43.3969 6.71938 42.6927 6.7642C41.9885 6.80903 41.2881 6.87943 40.5917 6.9721C39.8943 7.06491 39.1933 7.18337 38.5013 7.32756C37.8088 7.47186 37.1188 7.6477 36.449 7.82068L36.449 7.82059M49.8034 7.12205L36.449 7.82059M36.449 7.82059L36.4393 7.82332M36.449 7.82059L36.4393 7.82332M36.4393 7.82332C35.2225 8.16398 34.0278 8.57947 32.8618 9.06741C29.3737 10.5212 26.1903 12.6236 23.4788 15.264L12.9215 24.9387L11.976 25.8051L13.2585 25.8073L29.5345 25.8348L29.5642 32.1893M36.4393 7.82332L29.5642 32.1893M29.5642 32.1893L3.74606 32.1615H3.74518C3.30828 32.1618 2.87548 32.0764 2.47104 31.91C2.08619 31.7495 1.73574 31.5156 1.43909 31.221L1.43573 31.2177C1.13655 30.9262 0.899264 30.5766 0.738386 30.1899C0.577506 29.8032 0.496425 29.3876 0.500121 28.9684L0.500127 28.9676L0.68436 3.90723L7.14529 3.93449L7.07234 20.481L7.06732 21.6196L7.90907 20.8528L18.9417 10.8017L18.9473 10.7966L18.9527 10.7913C20.0458 9.73311 21.2042 8.74524 22.4211 7.83362L29.5642 32.1893Z" fill="url(#paint0_linear_2707_20537)" stroke="#23252C"/>
<path d="M6.56952 56.9696L1.05861 58.8973L4.60991 52.3631L9.72662 50.5669L6.56952 56.9696Z" fill="#FFBA93" stroke="#23252C"/>
<mask id="path-12-inside-4_2707_20537" fill="white">
<path d="M6.92598 57.3742L10.7152 49.6896C11.1249 50.7733 11.6029 51.8296 12.1463 52.8522C12.6851 53.874 13.2887 54.8599 13.9533 55.8039C15.9586 58.6587 18.4755 61.1131 21.3752 63.0417C22.3384 63.6855 23.3404 64.2688 24.3752 64.7882C25.4105 65.3079 26.4762 65.764 27.5663 66.154C28.6621 66.5426 29.78 66.8652 30.914 67.1201C31.4151 67.2333 31.9193 67.3309 32.4266 67.4159C32.9339 67.5008 33.4381 67.5701 33.9485 67.6267C34.459 67.6833 34.9663 67.7274 35.4736 67.7557C35.9809 67.784 36.4945 67.7998 37.005 67.7998C37.6501 67.7998 38.2952 67.7809 38.9403 67.74C39.5854 67.6991 40.2274 67.633 40.8662 67.5449C41.5051 67.4568 42.1439 67.3498 42.7796 67.2302C43.4153 67.1106 44.0323 66.947 44.6586 66.7708C46.8845 66.1481 49.0243 65.2485 51.0283 64.0928C52.027 63.5183 52.9883 62.8802 53.9062 62.1826C54.8262 61.4854 55.7016 60.7308 56.5273 59.9232L56.1578 68.3788C55.2691 69.2433 54.3278 70.0515 53.3394 70.7987C50.3594 73.0378 46.991 74.7004 43.4059 75.7015C42.7358 75.8872 42.0562 76.0509 41.3767 76.1893C40.6971 76.3278 40.0113 76.4442 39.3223 76.5386C38.6334 76.633 37.9444 76.6991 37.2555 76.7432C36.5665 76.7872 35.8682 76.8092 35.1761 76.8061C34.6281 76.8061 34.0801 76.7872 33.532 76.7557C32.984 76.7243 32.4391 76.6771 31.8911 76.6173C31.343 76.5575 30.8013 76.4788 30.2564 76.3907C29.7115 76.3026 29.1728 76.1925 28.6342 76.076C24.9812 75.257 21.5076 73.7747 18.3845 71.7019C16.3082 70.319 14.4087 68.6851 12.7288 66.8368C11.8955 65.9179 11.1185 64.949 10.402 63.9354C9.69251 62.917 9.04617 61.8555 8.46672 60.7571C7.88303 59.6609 7.36844 58.529 6.92598 57.3679"/>
</mask>
<path d="M6.92598 57.3742L10.7152 49.6896C11.1249 50.7733 11.6029 51.8296 12.1463 52.8522C12.6851 53.874 13.2887 54.8599 13.9533 55.8039C15.9586 58.6587 18.4755 61.1131 21.3752 63.0417C22.3384 63.6855 23.3404 64.2688 24.3752 64.7882C25.4105 65.3079 26.4762 65.764 27.5663 66.154C28.6621 66.5426 29.78 66.8652 30.914 67.1201C31.4151 67.2333 31.9193 67.3309 32.4266 67.4159C32.9339 67.5008 33.4381 67.5701 33.9485 67.6267C34.459 67.6833 34.9663 67.7274 35.4736 67.7557C35.9809 67.784 36.4945 67.7998 37.005 67.7998C37.6501 67.7998 38.2952 67.7809 38.9403 67.74C39.5854 67.6991 40.2274 67.633 40.8662 67.5449C41.5051 67.4568 42.1439 67.3498 42.7796 67.2302C43.4153 67.1106 44.0323 66.947 44.6586 66.7708C46.8845 66.1481 49.0243 65.2485 51.0283 64.0928C52.027 63.5183 52.9883 62.8802 53.9062 62.1826C54.8262 61.4854 55.7016 60.7308 56.5273 59.9232L56.1578 68.3788C55.2691 69.2433 54.3278 70.0515 53.3394 70.7987C50.3594 73.0378 46.991 74.7004 43.4059 75.7015C42.7358 75.8872 42.0562 76.0509 41.3767 76.1893C40.6971 76.3278 40.0113 76.4442 39.3223 76.5386C38.6334 76.633 37.9444 76.6991 37.2555 76.7432C36.5665 76.7872 35.8682 76.8092 35.1761 76.8061C34.6281 76.8061 34.0801 76.7872 33.532 76.7557C32.984 76.7243 32.4391 76.6771 31.8911 76.6173C31.343 76.5575 30.8013 76.4788 30.2564 76.3907C29.7115 76.3026 29.1728 76.1925 28.6342 76.076C24.9812 75.257 21.5076 73.7747 18.3845 71.7019C16.3082 70.319 14.4087 68.6851 12.7288 66.8368C11.8955 65.9179 11.1185 64.949 10.402 63.9354C9.69251 62.917 9.04617 61.8555 8.46672 60.7571C7.88303 59.6609 7.36844 58.529 6.92598 57.3679" fill="#FFBA93"/>
<path d="M10.7152 49.6896L11.6506 49.336L10.8365 47.1825L9.81831 49.2473L10.7152 49.6896ZM12.1463 52.8522L13.0309 52.3858L13.0294 52.3829L12.1463 52.8522ZM13.9533 55.8039L14.7716 55.2291L14.771 55.2283L13.9533 55.8039ZM21.3752 63.0417L21.9308 62.2103L21.929 62.2091L21.3752 63.0417ZM24.3752 64.7882L23.9266 65.682L23.9266 65.682L24.3752 64.7882ZM27.5663 66.154L27.2295 67.0955L27.2321 67.0964L27.5663 66.154ZM30.914 67.1201L31.1345 66.1447L31.1333 66.1444L30.914 67.1201ZM44.6586 66.7708L44.3892 65.8077L44.3877 65.8081L44.6586 66.7708ZM51.0283 64.0928L50.5296 63.226L50.5287 63.2265L51.0283 64.0928ZM53.9062 62.1826L53.3022 61.3857L53.3011 61.3865L53.9062 62.1826ZM56.5273 59.9232L57.5264 59.9668L57.6368 57.4393L55.8281 59.2083L56.5273 59.9232ZM56.1578 68.3788L56.8551 69.0956L57.1395 68.8189L57.1569 68.4225L56.1578 68.3788ZM53.3394 70.7987L53.9401 71.5982L53.9424 71.5965L53.3394 70.7987ZM43.4059 75.7015L43.6729 76.6653L43.6749 76.6647L43.4059 75.7015ZM35.1761 76.8061L35.1807 75.8061H35.1761V76.8061ZM28.6342 76.076L28.4154 77.0518L28.4229 77.0535L28.6342 76.076ZM18.3845 71.7019L17.8302 72.5342L17.8315 72.5351L18.3845 71.7019ZM12.7288 66.8368L11.9881 67.5086L11.9888 67.5094L12.7288 66.8368ZM10.402 63.9354L9.58152 64.5071L9.58545 64.5126L10.402 63.9354ZM8.46672 60.7571L9.3512 60.2905L9.34939 60.2871L8.46672 60.7571ZM7.82287 57.8165L11.6121 50.1318L9.81831 49.2473L6.02909 56.932L7.82287 57.8165ZM9.77981 50.0432C10.2045 51.1665 10.7 52.2615 11.2633 53.3215L13.0294 52.3829C12.5058 51.3978 12.0453 50.38 11.6506 49.336L9.77981 50.0432ZM11.2618 53.3186C11.8205 54.3782 12.4464 55.4006 13.1356 56.3796L14.771 55.2283C14.131 54.3192 13.5498 53.3698 13.0309 52.3858L11.2618 53.3186ZM13.135 56.3787C15.2115 59.3349 17.8181 61.8769 20.8214 63.8744L21.929 62.2091C19.1329 60.3494 16.7056 57.9824 14.7716 55.2291L13.135 56.3787ZM20.8195 63.8731C21.8171 64.5398 22.8548 65.1439 23.9266 65.682L24.8239 63.8945C23.8259 63.3936 22.8597 62.8311 21.9308 62.2103L20.8195 63.8731ZM23.9266 65.682C24.9981 66.2198 26.1011 66.6919 27.2295 67.0955L27.9032 65.2124C26.8512 64.8361 25.8229 64.396 24.8239 63.8945L23.9266 65.682ZM27.2321 67.0964C28.3655 67.4984 29.5217 67.8321 30.6947 68.0957L31.1333 66.1444C30.0382 65.8983 28.9588 65.5868 27.9006 65.2115L27.2321 67.0964ZM30.6935 68.0954C31.2148 68.2133 31.7376 68.3144 32.2614 68.4021L32.5917 66.4296C32.1009 66.3474 31.6153 66.2534 31.1345 66.1447L30.6935 68.0954ZM32.2614 68.4021C32.7881 68.4903 33.3106 68.562 33.8382 68.6206L34.0588 66.6328C33.5655 66.5781 33.0797 66.5113 32.5917 66.4296L32.2614 68.4021ZM33.8382 68.6206C34.3643 68.679 34.89 68.7247 35.4179 68.7542L35.5294 66.7573C35.0426 66.7301 34.5536 66.6877 34.0588 66.6328L33.8382 68.6206ZM35.4179 68.7542C35.9419 68.7834 36.4742 68.7998 37.005 68.7998V66.7998C36.5149 66.7998 36.02 66.7847 35.5294 66.7573L35.4179 68.7542ZM37.005 68.7998C37.6696 68.7998 38.3358 68.7803 39.0036 68.738L38.877 66.742C38.2545 66.7815 37.6306 66.7998 37.005 66.7998V68.7998ZM39.0036 68.738C39.6747 68.6954 40.3412 68.6268 41.0029 68.5355L40.7296 66.5543C40.1135 66.6392 39.496 66.7027 38.877 66.742L39.0036 68.738ZM41.0029 68.5355C41.6607 68.4448 42.3158 68.335 42.9645 68.213L42.5948 66.2474C41.972 66.3646 41.3495 66.4688 40.7296 66.5543L41.0029 68.5355ZM42.9645 68.213C43.6451 68.0849 44.2965 67.9115 44.9294 67.7334L44.3877 65.8081C43.768 65.9825 43.1856 66.1363 42.5948 66.2474L42.9645 68.213ZM44.928 67.7338C47.2344 67.0886 49.4515 66.1564 51.5278 64.959L50.5287 63.2265C48.597 64.3405 46.5346 65.2076 44.3892 65.8077L44.928 67.7338ZM51.5269 64.9596C52.5626 64.3638 53.5595 63.7022 54.5113 62.9788L53.3011 61.3865C52.4172 62.0583 51.4914 62.6727 50.5296 63.226L51.5269 64.9596ZM54.5102 62.9796C55.4636 62.257 56.3708 61.475 57.2265 60.6381L55.8281 59.2083C55.0324 59.9865 54.1887 60.7138 53.3022 61.3857L54.5102 62.9796ZM55.5283 59.8795L55.1588 68.3351L57.1569 68.4225L57.5264 59.9668L55.5283 59.8795ZM55.4605 67.662C54.6015 68.4976 53.6917 69.2788 52.7363 70.001L53.9424 71.5965C54.9639 70.8242 55.9367 69.989 56.8551 69.0956L55.4605 67.662ZM52.7387 69.9993C49.858 72.1637 46.602 73.7707 43.137 74.7384L43.6749 76.6647C47.3799 75.63 50.8608 73.9119 53.9401 71.5982L52.7387 69.9993ZM43.139 74.7378C42.4906 74.9175 41.8335 75.0757 41.177 75.2095L41.5763 77.1692C42.279 77.026 42.981 76.8569 43.6729 76.6652L43.139 74.7378ZM41.177 75.2095C40.519 75.3435 39.8544 75.4564 39.1866 75.5479L39.4581 77.5294C40.1682 77.4321 40.8753 77.312 41.5763 77.1692L41.177 75.2095ZM39.1866 75.5479C38.5243 75.6386 37.8595 75.7025 37.1917 75.7452L37.3193 77.7411C38.0294 77.6957 38.7425 77.6274 39.4581 77.5294L39.1866 75.5479ZM37.1917 75.7452C36.5242 75.7879 35.8487 75.8091 35.1807 75.8061L35.1716 77.8061C35.8877 77.8093 36.6088 77.7866 37.3193 77.7411L37.1917 75.7452ZM35.1761 75.8061C34.6509 75.8061 34.1223 75.788 33.5894 75.7574L33.4747 77.7541C34.0378 77.7864 34.6053 77.8061 35.1761 77.8061V75.8061ZM33.5894 75.7574C33.0606 75.727 32.5329 75.6814 31.9995 75.6232L31.7826 77.6114C32.3453 77.6728 32.9074 77.7215 33.4747 77.7541L33.5894 75.7574ZM31.9995 75.6232C31.4744 75.5659 30.9509 75.49 30.416 75.4035L30.0967 77.3779C30.6517 77.4676 31.2117 77.5491 31.7826 77.6114L31.9995 75.6232ZM30.416 75.4035C29.8969 75.3196 29.3782 75.2138 28.8455 75.0986L28.4229 77.0535C28.9675 77.1712 29.5261 77.2856 30.0967 77.3779L30.416 75.4035ZM28.853 75.1002C25.3193 74.308 21.959 72.874 18.9375 70.8687L17.8315 72.5351C21.0563 74.6753 24.6431 76.2061 28.4154 77.0518L28.853 75.1002ZM18.9388 70.8696C16.9308 69.5322 15.0937 67.9519 13.4688 66.1642L11.9888 67.5094C13.7238 69.4182 15.6856 71.1058 17.8302 72.5342L18.9388 70.8696ZM13.4696 66.1651C12.6635 65.2761 11.9117 64.3388 11.2186 63.3582L9.58545 64.5126C10.3252 65.5592 11.1276 66.5597 11.9881 67.5086L13.4696 66.1651ZM11.2225 63.3638C10.5365 62.379 9.91151 61.3527 9.35119 60.2905L7.58224 61.2237C8.18084 62.3584 8.84853 63.4549 9.58154 64.5071L11.2225 63.3638ZM9.34939 60.2871C8.78533 59.2278 8.28802 58.1339 7.86042 57.0118L5.99154 57.724C6.44885 58.9241 6.98073 60.094 7.58405 61.2271L9.34939 60.2871Z" fill="#23252C" mask="url(#path-12-inside-4_2707_20537)"/>
<mask id="path-14-inside-5_2707_20537" fill="white">
<path d="M72.3684 80.5667L71.6168 71.2897L71.6795 55.3729L72.4404 63.5201L72.3684 80.5667Z"/>
</mask>
<path d="M72.3684 80.5667L71.6168 71.2897L71.6795 55.3729L72.4404 63.5201L72.3684 80.5667Z" fill="#FFBA93"/>
<path d="M72.3684 80.5667L71.3717 80.6474L73.3684 80.5709L72.3684 80.5667ZM71.6168 71.2897L70.6168 71.2858L70.6167 71.3282L70.6201 71.3705L71.6168 71.2897ZM71.6795 55.3729L72.6751 55.2799L70.6795 55.3689L71.6795 55.3729ZM72.4404 63.5201L73.4404 63.5243L73.4406 63.4756L73.4361 63.4271L72.4404 63.5201ZM73.3651 80.4859L72.6136 71.2089L70.6201 71.3705L71.3717 80.6474L73.3651 80.4859ZM72.6168 71.2936L72.6794 55.3768L70.6795 55.3689L70.6168 71.2858L72.6168 71.2936ZM70.6838 55.4659L71.4448 63.6131L73.4361 63.4271L72.6751 55.2799L70.6838 55.4659ZM71.4404 63.5159L71.3684 80.5624L73.3684 80.5709L73.4404 63.5243L71.4404 63.5159Z" fill="#23252C" mask="url(#path-14-inside-5_2707_20537)"/>
<path d="M66.2211 58.4852L56.7213 67.1908L57.0317 60.1481L65.9184 51.9721L66.2211 58.4852Z" fill="#FFBA93" stroke="#23252C"/>
<path d="M74.7997 44.5061L75.6921 50.8378L50.483 50.8137L51.1833 44.5L74.7997 44.5061Z" fill="#FFBA93" stroke="#23252C"/>
<mask id="path-18-inside-6_2707_20537" fill="white">
<path d="M76.2551 51.3388L75.2217 44.0035C75.6406 44.0033 76.0563 44.0779 76.4493 44.2237C77.2047 44.4991 77.8406 45.0312 78.2468 45.7279C78.45 46.0755 78.589 46.4572 78.657 46.8545L79.9473 54.407C79.8746 53.981 79.726 53.5716 79.5088 53.1986C79.2923 52.8309 79.0148 52.5031 78.6884 52.2293C78.0049 51.6589 77.1436 51.3481 76.2551 51.3514"/>
</mask>
<path d="M76.2551 51.3388L75.2217 44.0035C75.6406 44.0033 76.0563 44.0779 76.4493 44.2237C77.2047 44.4991 77.8406 45.0312 78.2468 45.7279C78.45 46.0755 78.589 46.4572 78.657 46.8545L79.9473 54.407C79.8746 53.981 79.726 53.5716 79.5088 53.1986C79.2923 52.8309 79.0148 52.5031 78.6884 52.2293C78.0049 51.6589 77.1436 51.3481 76.2551 51.3514" fill="#FFBA93"/>
<path d="M75.2217 44.0035L75.2213 43.0035L74.071 43.0039L74.2315 44.143L75.2217 44.0035ZM76.4493 44.2237L76.1013 45.1613L76.1068 45.1633L76.4493 44.2237ZM78.2468 45.7279L77.3829 46.2316L77.3836 46.2327L78.2468 45.7279ZM78.657 46.8545L79.6428 46.6861L79.6427 46.6858L78.657 46.8545ZM79.9473 54.407L78.9615 54.5754L80.933 54.2387L79.9473 54.407ZM79.5088 53.1986L80.373 52.6954L80.3706 52.6912L79.5088 53.1986ZM78.6884 52.2293L79.3308 51.463L79.3292 51.4617L78.6884 52.2293ZM77.2453 51.1993L76.2119 43.864L74.2315 44.143L75.2649 51.4783L77.2453 51.1993ZM75.2221 45.0035C75.5221 45.0033 75.8197 45.0567 76.1013 45.1612L76.7972 43.2862C76.2928 43.099 75.7592 43.0032 75.2213 43.0035L75.2221 45.0035ZM76.1068 45.1633C76.6421 45.3584 77.0939 45.7359 77.3829 46.2316L79.1107 45.2242C78.5872 44.3265 77.7673 43.6398 76.7917 43.2842L76.1068 45.1633ZM77.3836 46.2327C77.5261 46.4764 77.6236 46.7443 77.6714 47.0232L79.6427 46.6858C79.5545 46.1701 79.374 45.6746 79.1101 45.2232L77.3836 46.2327ZM77.6713 47.0229L78.9615 54.5754L80.933 54.2386L79.6428 46.6861L77.6713 47.0229ZM80.933 54.2387C80.8402 53.6949 80.6506 53.1721 80.373 52.6954L78.6447 53.7017C78.8015 53.9712 78.9089 54.2671 78.9615 54.5752L80.933 54.2387ZM80.3706 52.6912C80.0963 52.2255 79.7447 51.8101 79.3308 51.4631L78.0459 52.9956C78.2849 53.1961 78.4883 53.4363 78.6471 53.706L80.3706 52.6912ZM79.3292 51.4617C78.4653 50.7406 77.3759 50.3472 76.2514 50.3514L76.2588 52.3514C76.9113 52.3489 77.5445 52.5771 78.0475 52.997L79.3292 51.4617Z" fill="#23252C" mask="url(#path-18-inside-6_2707_20537)"/>
<path d="M35.265 83.4998H35.2668C36.1188 83.5029 36.9502 83.475 37.8052 83.422C38.6584 83.3692 39.5043 83.2885 40.3493 83.1739C41.1975 83.0588 42.0383 82.919 42.8751 82.7483C43.7119 82.5776 44.546 82.3759 45.3712 82.1461L45.3727 82.1457C46.8437 81.7408 48.2882 81.2442 49.6977 80.6586C52.4989 79.4936 55.1459 77.9848 57.5785 76.1667L35.265 83.4998ZM35.265 83.4998C34.5931 83.4998 33.9211 83.4781 33.2491 83.4347V83.4347M35.265 83.4998L33.2491 83.4347M33.2491 83.4347L33.2446 83.4344M33.2491 83.4347L33.2446 83.4344M33.2446 83.4344C32.5725 83.3973 31.8991 83.3383 31.2272 83.2637C30.5582 83.1893 29.8878 83.0931 29.2156 82.981C28.5454 82.8693 27.8814 82.739 27.2203 82.59L27.2193 82.5898M33.2446 83.4344L27.2193 82.5898M27.2193 82.5898C25.7207 82.2551 24.2438 81.8289 22.7968 81.3134L22.7966 81.3133M27.2193 82.5898L22.7966 81.3133M22.7966 81.3133C19.9124 80.287 17.1632 78.9115 14.6099 77.2171L14.6098 77.217M22.7966 81.3133L14.6098 77.217M14.6098 77.217C10.7741 74.6727 7.43938 71.4376 4.77386 67.6748C3.89426 66.4303 3.09248 65.1321 2.37315 63.7876L2.37303 63.7874M14.6098 77.217L2.37303 63.7874M2.37303 63.7874C1.73156 62.5899 1.15781 61.3572 0.654472 60.0951M2.37303 63.7874L0.654472 60.0951M10.0044 64.2114L10.0035 64.2102C9.27941 63.1793 8.6192 62.1046 8.02663 60.9921M10.0044 64.2114L6.92719 57.3742M10.0044 64.2114C10.7325 65.2415 11.5221 66.2262 12.369 67.1601L12.3694 67.1605M10.0044 64.2114L12.3694 67.1605M8.02663 60.9921L8.46793 60.757L8.02674 60.9923C8.0267 60.9922 8.02667 60.9922 8.02663 60.9921ZM8.02663 60.9921C7.50961 60.0225 7.04577 59.0254 6.63715 58.0051M6.63715 58.0051L7.09209 57.8462L6.92719 57.3742M6.63715 58.0051L0.654472 60.0951M6.63715 58.0051C6.57693 57.8548 6.51792 57.7039 6.46011 57.5526L6.92719 57.3742M6.92719 57.3742L0.654472 60.0951M12.3694 67.1605C14.0769 69.039 16.0075 70.6997 18.1179 72.1054L18.1187 72.1059M12.3694 67.1605L18.1187 72.1059M18.1187 72.1059C21.2958 74.214 24.8288 75.7226 28.5446 76.5575L28.5458 76.5578M18.1187 72.1059L28.5458 76.5578M28.5458 76.5578C29.0932 76.6793 29.6427 76.7859 30.1944 76.8776L30.1966 76.878M28.5458 76.5578L30.1966 76.878M30.1966 76.878C30.7468 76.9669 31.3006 77.0469 31.8565 77.108C32.4092 77.1686 32.9659 77.2166 33.5234 77.2486C34.0789 77.2805 34.6367 77.2998 35.1961 77.2998C35.8972 77.2998 36.6031 77.2806 37.3073 77.2358C38.0115 77.191 38.7119 77.1206 39.4083 77.0279C40.1057 76.9351 40.8067 76.8166 41.4987 76.6724C42.1912 76.5281 42.8812 76.3523 43.551 76.1793L43.551 76.1794M30.1966 76.878L43.551 76.1794M43.551 76.1794L43.5607 76.1767M43.551 76.1794L43.5607 76.1767M43.5607 76.1767C44.7775 75.836 45.9722 75.4205 47.1382 74.9326C50.6263 73.4788 53.8097 71.3764 56.5212 68.736L67.0785 59.0613L68.024 58.1949L66.7415 58.1927L50.4655 58.1652L50.4358 51.8107M43.5607 76.1767L50.4358 51.8107M50.4358 51.8107L76.2539 51.8385H76.2548C76.6917 51.8382 77.1245 51.9236 77.529 52.09C77.9138 52.2505 78.2643 52.4844 78.5609 52.779L78.5643 52.7823C78.8634 53.0738 79.1007 53.4234 79.2616 53.8101C79.4225 54.1968 79.5036 54.6124 79.4999 55.0316L79.4999 55.0324L79.3156 80.0928L72.8547 80.0655L72.9277 63.519L72.9327 62.3804L72.0909 63.1472L61.0583 73.1983L61.0527 73.2034L61.0473 73.2087C59.9542 74.2669 58.7958 75.2548 57.5789 76.1664L50.4358 51.8107Z" fill="url(#paint1_linear_2707_20537)" stroke="#23252C"/>
<defs>
<linearGradient id="paint0_linear_2707_20537" x1="0" y1="16.3451" x2="79.9999" y2="16.3451" gradientUnits="userSpaceOnUse">
<stop stop-color="#E0974C"/>
<stop offset="1" stop-color="#C93F6F"/>
</linearGradient>
<linearGradient id="paint1_linear_2707_20537" x1="80" y1="67.6549" x2="9.91821e-05" y2="67.6549" gradientUnits="userSpaceOnUse">
<stop stop-color="#E0974C"/>
<stop offset="1" stop-color="#C93F6F"/>
</linearGradient>
</defs>
</svg>
