<svg width="32" height="14" viewBox="0 0 32 14" fill="none" xmlns="http://www.w3.org/2000/svg">
<path fill-rule="evenodd" clip-rule="evenodd" d="M0.292894 13.7071C-0.0976306 13.3166 -0.0976306 12.6834 0.292894 12.2929L5.58579 7L0.292893 1.70711C-0.0976311 1.31658 -0.0976311 0.683418 0.292893 0.292894C0.683417 -0.0976312 1.31658 -0.0976312 1.70711 0.292894L7.70711 6.29289C8.09763 6.68342 8.09763 7.31658 7.70711 7.70711L1.70711 13.7071C1.31658 14.0976 0.683418 14.0976 0.292894 13.7071Z" fill="#2E2F33"/>
<path fill-rule="evenodd" clip-rule="evenodd" d="M12.2929 13.7071C11.9024 13.3166 11.9024 12.6834 12.2929 12.2929L17.5858 7L12.2929 1.70711C11.9024 1.31658 11.9024 0.683418 12.2929 0.292894C12.6834 -0.0976312 13.3166 -0.0976312 13.7071 0.292894L19.7071 6.29289C20.0976 6.68342 20.0976 7.31658 19.7071 7.70711L13.7071 13.7071C13.3166 14.0976 12.6834 14.0976 12.2929 13.7071Z" fill="#55575F"/>
<path fill-rule="evenodd" clip-rule="evenodd" d="M24.2929 13.7071C23.9024 13.3166 23.9024 12.6834 24.2929 12.2929L29.5858 7L24.2929 1.70711C23.9024 1.31658 23.9024 0.683418 24.2929 0.292894C24.6834 -0.0976312 25.3166 -0.0976312 25.7071 0.292894L31.7071 6.29289C32.0976 6.68342 32.0976 7.31658 31.7071 7.70711L25.7071 13.7071C25.3166 14.0976 24.6834 14.0976 24.2929 13.7071Z" fill="#6F7380"/>
</svg>
