<svg width="16" height="16" viewBox="0 0 16 16" fill="none" xmlns="http://www.w3.org/2000/svg">
<path d="M8.18745 5.10866C7.84889 5.05058 7.5007 5.11421 7.20456 5.28825C6.90841 5.4623 6.68342 5.73554 6.56943 6.05958C6.43614 6.43849 6.02093 6.63759 5.64202 6.5043C5.26312 6.37102 5.06402 5.9558 5.1973 5.5769C5.42528 4.92882 5.87527 4.38234 6.46756 4.03424C7.05986 3.68615 7.75623 3.5589 8.43335 3.67505C9.11048 3.79119 9.72464 4.14323 10.1671 4.66881C10.6094 5.19428 10.8516 5.85932 10.8506 6.54618C10.8503 7.65916 10.0251 8.39416 9.43588 8.78701C9.11905 8.99822 8.80741 9.15353 8.57783 9.25556C8.46201 9.30704 8.36448 9.3461 8.2942 9.37287C8.259 9.38628 8.23047 9.39667 8.20969 9.40406L8.18443 9.4129L8.17639 9.41565L8.17356 9.41661L8.17244 9.41698C8.17244 9.41698 8.17153 9.41728 7.94155 8.72733L8.17153 9.41728C7.79048 9.5443 7.37861 9.33837 7.2516 8.95732C7.12466 8.57652 7.33024 8.16495 7.7108 8.03764L7.72241 8.03356C7.73359 8.02958 7.75193 8.02293 7.77639 8.01362C7.82543 7.99493 7.89836 7.96581 7.98708 7.92638C8.1666 7.84659 8.40041 7.72917 8.62904 7.57675C9.13057 7.2424 9.39609 6.8867 9.39609 6.54552L9.39609 6.54443C9.39661 6.20093 9.27553 5.86833 9.05431 5.60554C8.8331 5.34275 8.52601 5.16673 8.18745 5.10866Z" fill="#6F7380"/>
<path d="M8 10.9091C7.59834 10.9091 7.27273 11.2347 7.27273 11.6364C7.27273 12.038 7.59834 12.3636 8 12.3636H8.00727C8.40893 12.3636 8.73455 12.038 8.73455 11.6364C8.73455 11.2347 8.40893 10.9091 8.00727 10.9091H8Z" fill="#6F7380"/>
<path fill-rule="evenodd" clip-rule="evenodd" d="M0 8C0 3.58172 3.58172 0 8 0C12.4183 0 16 3.58172 16 8C16 12.4183 12.4183 16 8 16C3.58172 16 0 12.4183 0 8ZM8 1.45455C4.38505 1.45455 1.45455 4.38505 1.45455 8C1.45455 11.615 4.38505 14.5455 8 14.5455C11.615 14.5455 14.5455 11.615 14.5455 8C14.5455 4.38505 11.615 1.45455 8 1.45455Z" fill="#6F7380"/>
</svg>
