<svg width="1168" height="96" viewBox="0 0 1168 96" fill="none" xmlns="http://www.w3.org/2000/svg">
<rect width="1168" height="96" fill="#181A1F"/>
<path d="M317.86 61.856V60.848H321.34V61.856H317.86Z" fill="#55575F"/>
<path d="M318.916 41L316.432 32.624H317.5L318.688 36.812L319.588 39.98H319.648L320.548 36.812L321.736 32.624H322.768L320.284 41H318.916Z" fill="#55575F"/>
<path d="M326.903 41.144C326.455 41.144 326.051 41.068 325.691 40.916C325.339 40.764 325.035 40.548 324.779 40.268C324.531 39.98 324.339 39.64 324.203 39.248C324.067 38.848 323.999 38.404 323.999 37.916C323.999 37.42 324.067 36.972 324.203 36.572C324.347 36.172 324.543 35.832 324.791 35.552C325.039 35.264 325.335 35.044 325.679 34.892C326.031 34.74 326.419 34.664 326.843 34.664C327.259 34.664 327.635 34.74 327.971 34.892C328.315 35.044 328.607 35.256 328.847 35.528C329.087 35.792 329.271 36.108 329.399 36.476C329.527 36.844 329.591 37.248 329.591 37.688V38.144H325.007V38.432C325.007 38.704 325.051 38.956 325.139 39.188C325.227 39.42 325.351 39.62 325.511 39.788C325.679 39.956 325.879 40.088 326.111 40.184C326.351 40.272 326.615 40.316 326.903 40.316C327.319 40.316 327.679 40.22 327.983 40.028C328.287 39.836 328.519 39.572 328.679 39.236L329.387 39.716C329.203 40.132 328.895 40.476 328.463 40.748C328.039 41.012 327.519 41.144 326.903 41.144ZM326.843 35.456C326.579 35.456 326.335 35.504 326.111 35.6C325.887 35.696 325.691 35.828 325.523 35.996C325.363 36.164 325.235 36.364 325.139 36.596C325.051 36.82 325.007 37.068 325.007 37.34V37.424H328.559V37.292C328.559 37.02 328.515 36.772 328.427 36.548C328.347 36.324 328.231 36.132 328.079 35.972C327.935 35.804 327.755 35.676 327.539 35.588C327.331 35.5 327.099 35.456 326.843 35.456Z" fill="#55575F"/>
<path d="M334.063 41.144C333.415 41.144 332.855 41.036 332.383 40.82C331.919 40.596 331.523 40.3 331.195 39.932L331.843 39.368C332.139 39.68 332.463 39.92 332.815 40.088C333.167 40.256 333.591 40.34 334.087 40.34C334.567 40.34 334.959 40.256 335.263 40.088C335.575 39.912 335.731 39.64 335.731 39.272C335.731 39.112 335.699 38.98 335.635 38.876C335.579 38.764 335.499 38.676 335.395 38.612C335.291 38.548 335.175 38.5 335.047 38.468C334.919 38.428 334.783 38.396 334.639 38.372L333.667 38.228C333.451 38.196 333.215 38.152 332.959 38.096C332.711 38.04 332.483 37.952 332.275 37.832C332.067 37.704 331.891 37.536 331.747 37.328C331.611 37.12 331.543 36.848 331.543 36.512C331.543 36.2 331.603 35.932 331.723 35.708C331.851 35.476 332.027 35.284 332.251 35.132C332.475 34.972 332.739 34.856 333.043 34.784C333.347 34.704 333.679 34.664 334.039 34.664C334.599 34.664 335.083 34.752 335.491 34.928C335.907 35.104 336.263 35.348 336.559 35.66L335.935 36.248C335.863 36.16 335.771 36.072 335.659 35.984C335.555 35.888 335.423 35.804 335.263 35.732C335.111 35.652 334.931 35.588 334.723 35.54C334.515 35.492 334.275 35.468 334.003 35.468C333.515 35.468 333.139 35.552 332.875 35.72C332.619 35.888 332.491 36.132 332.491 36.452C332.491 36.612 332.519 36.748 332.575 36.86C332.639 36.964 332.723 37.048 332.827 37.112C332.931 37.176 333.047 37.228 333.175 37.268C333.311 37.3 333.447 37.328 333.583 37.352L334.555 37.496C334.779 37.528 335.015 37.572 335.263 37.628C335.511 37.684 335.739 37.776 335.947 37.904C336.155 38.024 336.327 38.188 336.463 38.396C336.607 38.604 336.679 38.876 336.679 39.212C336.679 39.828 336.439 40.304 335.959 40.64C335.487 40.976 334.855 41.144 334.063 41.144Z" fill="#55575F"/>
<path d="M341.486 41C341.014 41 340.666 40.868 340.442 40.604C340.226 40.34 340.118 40 340.118 39.584V35.624H338.054V34.808H339.59C339.798 34.808 339.942 34.768 340.022 34.688C340.11 34.6 340.154 34.452 340.154 34.244V32.624H341.078V34.808H343.898V35.624H341.078V40.184H343.898V41H341.486Z" fill="#55575F"/>
<path d="M357.749 41L357.041 38.612H354.101L353.393 41H352.349L354.917 32.624H356.249L358.817 41H357.749ZM355.625 33.692H355.517L354.341 37.736H356.801L355.625 33.692Z" fill="#55575F"/>
<path d="M359.82 41V34.808H360.708V35.528H360.756C360.852 35.288 360.988 35.084 361.164 34.916C361.34 34.748 361.6 34.664 361.944 34.664C362.304 34.664 362.572 34.756 362.748 34.94C362.924 35.116 363.032 35.348 363.072 35.636H363.108C363.22 35.356 363.38 35.124 363.588 34.94C363.796 34.756 364.084 34.664 364.452 34.664C364.956 34.664 365.292 34.84 365.46 35.192C365.636 35.544 365.724 36.048 365.724 36.704V41H364.836V36.86C364.836 36.332 364.78 35.968 364.668 35.768C364.564 35.56 364.368 35.456 364.08 35.456C363.824 35.456 363.616 35.54 363.456 35.708C363.296 35.868 363.216 36.116 363.216 36.452V41H362.328V36.86C362.328 36.332 362.272 35.968 362.16 35.768C362.056 35.56 361.864 35.456 361.584 35.456C361.328 35.456 361.116 35.54 360.948 35.708C360.788 35.868 360.708 36.116 360.708 36.452V41H359.82Z" fill="#55575F"/>
<path d="M369.967 41.144C369.535 41.144 369.143 41.068 368.791 40.916C368.447 40.764 368.151 40.548 367.903 40.268C367.663 39.98 367.479 39.64 367.351 39.248C367.223 38.848 367.159 38.4 367.159 37.904C367.159 37.416 367.223 36.972 367.351 36.572C367.479 36.172 367.663 35.832 367.903 35.552C368.151 35.264 368.447 35.044 368.791 34.892C369.143 34.74 369.535 34.664 369.967 34.664C370.399 34.664 370.787 34.74 371.131 34.892C371.483 35.044 371.779 35.264 372.019 35.552C372.267 35.832 372.455 36.172 372.583 36.572C372.711 36.972 372.775 37.416 372.775 37.904C372.775 38.4 372.711 38.848 372.583 39.248C372.455 39.64 372.267 39.98 372.019 40.268C371.779 40.548 371.483 40.764 371.131 40.916C370.787 41.068 370.399 41.144 369.967 41.144ZM369.967 40.316C370.503 40.316 370.935 40.156 371.263 39.836C371.591 39.516 371.755 39.02 371.755 38.348V37.46C371.755 36.788 371.591 36.292 371.263 35.972C370.935 35.652 370.503 35.492 369.967 35.492C369.431 35.492 368.999 35.652 368.671 35.972C368.343 36.292 368.179 36.788 368.179 37.46V38.348C368.179 39.02 368.343 39.516 368.671 39.836C368.999 40.156 369.431 40.316 369.967 40.316Z" fill="#55575F"/>
<path d="M378.627 39.992H378.579C378.515 40.144 378.435 40.292 378.339 40.436C378.243 40.572 378.123 40.692 377.979 40.796C377.843 40.9 377.679 40.984 377.487 41.048C377.295 41.112 377.071 41.144 376.815 41.144C376.167 41.144 375.647 40.94 375.255 40.532C374.863 40.116 374.667 39.532 374.667 38.78V34.808H375.627V38.612C375.627 39.18 375.751 39.604 375.999 39.884C376.247 40.156 376.611 40.292 377.091 40.292C377.283 40.292 377.471 40.268 377.655 40.22C377.839 40.172 378.003 40.1 378.147 40.004C378.291 39.908 378.407 39.788 378.495 39.644C378.583 39.492 378.627 39.312 378.627 39.104V34.808H379.587V41H378.627V39.992Z" fill="#55575F"/>
<path d="M381.934 41V34.808H382.894V35.816H382.942C383.006 35.664 383.086 35.52 383.182 35.384C383.278 35.24 383.394 35.116 383.53 35.012C383.674 34.908 383.842 34.824 384.034 34.76C384.226 34.696 384.45 34.664 384.706 34.664C385.354 34.664 385.874 34.872 386.266 35.288C386.658 35.696 386.854 36.276 386.854 37.028V41H385.894V37.196C385.894 36.628 385.77 36.208 385.522 35.936C385.274 35.656 384.91 35.516 384.43 35.516C384.238 35.516 384.05 35.54 383.866 35.588C383.682 35.636 383.518 35.708 383.374 35.804C383.23 35.9 383.114 36.024 383.026 36.176C382.938 36.328 382.894 36.504 382.894 36.704V41H381.934Z" fill="#55575F"/>
<path d="M391.853 41C391.381 41 391.033 40.868 390.809 40.604C390.593 40.34 390.485 40 390.485 39.584V35.624H388.421V34.808H389.957C390.165 34.808 390.309 34.768 390.389 34.688C390.477 34.6 390.521 34.452 390.521 34.244V32.624H391.445V34.808H394.265V35.624H391.445V40.184H394.265V41H391.853Z" fill="#55575F"/>
<path d="M517.86 61.856V60.848H521.34V61.856H517.86Z" fill="#55575F"/>
<path d="M518.916 41L516.432 32.624H517.5L518.688 36.812L519.588 39.98H519.648L520.548 36.812L521.736 32.624H522.768L520.284 41H518.916Z" fill="#55575F"/>
<path d="M526.903 41.144C526.455 41.144 526.051 41.068 525.691 40.916C525.339 40.764 525.035 40.548 524.779 40.268C524.531 39.98 524.339 39.64 524.203 39.248C524.067 38.848 523.999 38.404 523.999 37.916C523.999 37.42 524.067 36.972 524.203 36.572C524.347 36.172 524.543 35.832 524.791 35.552C525.039 35.264 525.335 35.044 525.679 34.892C526.031 34.74 526.419 34.664 526.843 34.664C527.259 34.664 527.635 34.74 527.971 34.892C528.315 35.044 528.607 35.256 528.847 35.528C529.087 35.792 529.271 36.108 529.399 36.476C529.527 36.844 529.591 37.248 529.591 37.688V38.144H525.007V38.432C525.007 38.704 525.051 38.956 525.139 39.188C525.227 39.42 525.351 39.62 525.511 39.788C525.679 39.956 525.879 40.088 526.111 40.184C526.351 40.272 526.615 40.316 526.903 40.316C527.319 40.316 527.679 40.22 527.983 40.028C528.287 39.836 528.519 39.572 528.679 39.236L529.387 39.716C529.203 40.132 528.895 40.476 528.463 40.748C528.039 41.012 527.519 41.144 526.903 41.144ZM526.843 35.456C526.579 35.456 526.335 35.504 526.111 35.6C525.887 35.696 525.691 35.828 525.523 35.996C525.363 36.164 525.235 36.364 525.139 36.596C525.051 36.82 525.007 37.068 525.007 37.34V37.424H528.559V37.292C528.559 37.02 528.515 36.772 528.427 36.548C528.347 36.324 528.231 36.132 528.079 35.972C527.935 35.804 527.755 35.676 527.539 35.588C527.331 35.5 527.099 35.456 526.843 35.456Z" fill="#55575F"/>
<path d="M534.063 41.144C533.415 41.144 532.855 41.036 532.383 40.82C531.919 40.596 531.523 40.3 531.195 39.932L531.843 39.368C532.139 39.68 532.463 39.92 532.815 40.088C533.167 40.256 533.591 40.34 534.087 40.34C534.567 40.34 534.959 40.256 535.263 40.088C535.575 39.912 535.731 39.64 535.731 39.272C535.731 39.112 535.699 38.98 535.635 38.876C535.579 38.764 535.499 38.676 535.395 38.612C535.291 38.548 535.175 38.5 535.047 38.468C534.919 38.428 534.783 38.396 534.639 38.372L533.667 38.228C533.451 38.196 533.215 38.152 532.959 38.096C532.711 38.04 532.483 37.952 532.275 37.832C532.067 37.704 531.891 37.536 531.747 37.328C531.611 37.12 531.543 36.848 531.543 36.512C531.543 36.2 531.603 35.932 531.723 35.708C531.851 35.476 532.027 35.284 532.251 35.132C532.475 34.972 532.739 34.856 533.043 34.784C533.347 34.704 533.679 34.664 534.039 34.664C534.599 34.664 535.083 34.752 535.491 34.928C535.907 35.104 536.263 35.348 536.559 35.66L535.935 36.248C535.863 36.16 535.771 36.072 535.659 35.984C535.555 35.888 535.423 35.804 535.263 35.732C535.111 35.652 534.931 35.588 534.723 35.54C534.515 35.492 534.275 35.468 534.003 35.468C533.515 35.468 533.139 35.552 532.875 35.72C532.619 35.888 532.491 36.132 532.491 36.452C532.491 36.612 532.519 36.748 532.575 36.86C532.639 36.964 532.723 37.048 532.827 37.112C532.931 37.176 533.047 37.228 533.175 37.268C533.311 37.3 533.447 37.328 533.583 37.352L534.555 37.496C534.779 37.528 535.015 37.572 535.263 37.628C535.511 37.684 535.739 37.776 535.947 37.904C536.155 38.024 536.327 38.188 536.463 38.396C536.607 38.604 536.679 38.876 536.679 39.212C536.679 39.828 536.439 40.304 535.959 40.64C535.487 40.976 534.855 41.144 534.063 41.144Z" fill="#55575F"/>
<path d="M541.486 41C541.014 41 540.666 40.868 540.442 40.604C540.226 40.34 540.118 40 540.118 39.584V35.624H538.054V34.808H539.59C539.798 34.808 539.942 34.768 540.022 34.688C540.11 34.6 540.154 34.452 540.154 34.244V32.624H541.078V34.808H543.898V35.624H541.078V40.184H543.898V41H541.486Z" fill="#55575F"/>
<path d="M554.893 41L552.409 32.624H553.477L554.665 36.812L555.565 39.98H555.625L556.525 36.812L557.713 32.624H558.745L556.261 41H554.893Z" fill="#55575F"/>
<path d="M565.112 41C564.736 41 564.468 40.904 564.308 40.712C564.148 40.52 564.048 40.28 564.008 39.992H563.948C563.812 40.352 563.592 40.636 563.288 40.844C562.992 41.044 562.592 41.144 562.088 41.144C561.44 41.144 560.924 40.976 560.54 40.64C560.156 40.304 559.964 39.844 559.964 39.26C559.964 38.684 560.172 38.24 560.588 37.928C561.012 37.616 561.692 37.46 562.628 37.46H563.948V36.848C563.948 36.392 563.82 36.052 563.564 35.828C563.308 35.596 562.944 35.48 562.472 35.48C562.056 35.48 561.716 35.564 561.452 35.732C561.188 35.892 560.976 36.112 560.816 36.392L560.168 35.912C560.248 35.752 560.356 35.596 560.492 35.444C560.628 35.292 560.796 35.16 560.996 35.048C561.196 34.928 561.424 34.836 561.68 34.772C561.936 34.7 562.22 34.664 562.532 34.664C563.26 34.664 563.836 34.848 564.26 35.216C564.692 35.584 564.908 36.096 564.908 36.752V40.16H565.772V41H565.112ZM562.256 40.34C562.504 40.34 562.728 40.312 562.928 40.256C563.136 40.192 563.316 40.112 563.468 40.016C563.62 39.912 563.736 39.792 563.816 39.656C563.904 39.512 563.948 39.36 563.948 39.2V38.18H562.628C562.052 38.18 561.632 38.26 561.368 38.42C561.104 38.58 560.972 38.812 560.972 39.116V39.368C560.972 39.688 561.084 39.932 561.308 40.1C561.54 40.26 561.856 40.34 562.256 40.34Z" fill="#55575F"/>
<path d="M567.327 40.184H569.487V32.936H567.327V32.12H570.447V40.184H572.607V41H567.327V40.184Z" fill="#55575F"/>
<path d="M578.627 39.992H578.579C578.515 40.144 578.435 40.292 578.339 40.436C578.243 40.572 578.123 40.692 577.979 40.796C577.843 40.9 577.679 40.984 577.487 41.048C577.295 41.112 577.071 41.144 576.815 41.144C576.167 41.144 575.647 40.94 575.255 40.532C574.863 40.116 574.667 39.532 574.667 38.78V34.808H575.627V38.612C575.627 39.18 575.751 39.604 575.999 39.884C576.247 40.156 576.611 40.292 577.091 40.292C577.283 40.292 577.471 40.268 577.655 40.22C577.839 40.172 578.003 40.1 578.147 40.004C578.291 39.908 578.407 39.788 578.495 39.644C578.583 39.492 578.627 39.312 578.627 39.104V34.808H579.587V41H578.627V39.992Z" fill="#55575F"/>
<path d="M584.466 41.144C584.018 41.144 583.614 41.068 583.254 40.916C582.902 40.764 582.598 40.548 582.342 40.268C582.094 39.98 581.902 39.64 581.766 39.248C581.63 38.848 581.562 38.404 581.562 37.916C581.562 37.42 581.63 36.972 581.766 36.572C581.91 36.172 582.106 35.832 582.354 35.552C582.602 35.264 582.898 35.044 583.242 34.892C583.594 34.74 583.982 34.664 584.406 34.664C584.822 34.664 585.198 34.74 585.534 34.892C585.878 35.044 586.17 35.256 586.41 35.528C586.65 35.792 586.834 36.108 586.962 36.476C587.09 36.844 587.154 37.248 587.154 37.688V38.144H582.57V38.432C582.57 38.704 582.614 38.956 582.702 39.188C582.79 39.42 582.914 39.62 583.074 39.788C583.242 39.956 583.442 40.088 583.674 40.184C583.914 40.272 584.178 40.316 584.466 40.316C584.882 40.316 585.242 40.22 585.546 40.028C585.85 39.836 586.082 39.572 586.242 39.236L586.95 39.716C586.766 40.132 586.458 40.476 586.026 40.748C585.602 41.012 585.082 41.144 584.466 41.144ZM584.406 35.456C584.142 35.456 583.898 35.504 583.674 35.6C583.45 35.696 583.254 35.828 583.086 35.996C582.926 36.164 582.798 36.364 582.702 36.596C582.614 36.82 582.57 37.068 582.57 37.34V37.424H586.122V37.292C586.122 37.02 586.078 36.772 585.99 36.548C585.91 36.324 585.794 36.132 585.642 35.972C585.498 35.804 585.318 35.676 585.102 35.588C584.894 35.5 584.662 35.456 584.406 35.456Z" fill="#55575F"/>
<path d="M709.86 61.856V60.848H713.34V61.856H709.86Z" fill="#55575F"/>
<path d="M709.08 41V32.624H714.24V33.5H710.088V36.32H714.096V37.196H710.088V40.124H714.24V41H709.08Z" fill="#55575F"/>
<path d="M715.927 41L718.231 37.856L715.987 34.808H717.139L718.075 36.116L718.819 37.148H718.867L719.587 36.116L720.511 34.808H721.615L719.347 37.844L721.675 41H720.523L719.479 39.548L718.771 38.564H718.723L718.039 39.548L717.031 41H715.927Z" fill="#55575F"/>
<path d="M723.531 34.808H724.491V35.816H724.539C724.939 35.048 725.575 34.664 726.447 34.664C727.207 34.664 727.799 34.948 728.223 35.516C728.655 36.084 728.871 36.88 728.871 37.904C728.871 38.928 728.655 39.724 728.223 40.292C727.799 40.86 727.207 41.144 726.447 41.144C725.575 41.144 724.939 40.76 724.539 39.992H724.491V43.4H723.531V34.808ZM726.075 40.292C726.635 40.292 727.067 40.124 727.371 39.788C727.683 39.444 727.839 38.992 727.839 38.432V37.376C727.839 36.816 727.683 36.368 727.371 36.032C727.067 35.688 726.635 35.516 726.075 35.516C725.859 35.516 725.655 35.544 725.463 35.6C725.271 35.656 725.103 35.74 724.959 35.852C724.815 35.956 724.699 36.088 724.611 36.248C724.531 36.4 724.491 36.58 724.491 36.788V39.02C724.491 39.228 724.531 39.412 724.611 39.572C724.699 39.724 724.815 39.856 724.959 39.968C725.103 40.072 725.271 40.152 725.463 40.208C725.655 40.264 725.859 40.292 726.075 40.292Z" fill="#55575F"/>
<path d="M733.57 33.44C733.29 33.44 733.094 33.384 732.982 33.272C732.87 33.152 732.814 33.004 732.814 32.828V32.636C732.814 32.46 732.87 32.316 732.982 32.204C733.094 32.084 733.29 32.024 733.57 32.024C733.85 32.024 734.046 32.084 734.158 32.204C734.27 32.316 734.326 32.46 734.326 32.636V32.828C734.326 33.004 734.27 33.152 734.158 33.272C734.046 33.384 733.85 33.44 733.57 33.44ZM730.858 40.184H733.09V35.624H730.858V34.808H734.05V40.184H736.138V41H730.858V40.184Z" fill="#55575F"/>
<path d="M737.705 40.184H739.517V35.624H737.705V34.808H740.477V36.368H740.537C740.665 35.88 740.905 35.5 741.257 35.228C741.617 34.948 742.073 34.808 742.625 34.808H743.489V35.768H742.325C741.773 35.768 741.325 35.928 740.981 36.248C740.645 36.568 740.477 36.988 740.477 37.508V40.184H742.877V41H737.705V40.184Z" fill="#55575F"/>
<path d="M749.917 41C749.541 41 749.273 40.904 749.113 40.712C748.953 40.52 748.853 40.28 748.813 39.992H748.753C748.617 40.352 748.397 40.636 748.093 40.844C747.797 41.044 747.397 41.144 746.893 41.144C746.245 41.144 745.729 40.976 745.345 40.64C744.961 40.304 744.769 39.844 744.769 39.26C744.769 38.684 744.977 38.24 745.393 37.928C745.817 37.616 746.497 37.46 747.433 37.46H748.753V36.848C748.753 36.392 748.625 36.052 748.369 35.828C748.113 35.596 747.749 35.48 747.277 35.48C746.861 35.48 746.521 35.564 746.257 35.732C745.993 35.892 745.781 36.112 745.621 36.392L744.973 35.912C745.053 35.752 745.161 35.596 745.297 35.444C745.433 35.292 745.601 35.16 745.801 35.048C746.001 34.928 746.229 34.836 746.485 34.772C746.741 34.7 747.025 34.664 747.337 34.664C748.065 34.664 748.641 34.848 749.065 35.216C749.497 35.584 749.713 36.096 749.713 36.752V40.16H750.577V41H749.917ZM747.061 40.34C747.309 40.34 747.533 40.312 747.733 40.256C747.941 40.192 748.121 40.112 748.273 40.016C748.425 39.912 748.541 39.792 748.621 39.656C748.709 39.512 748.753 39.36 748.753 39.2V38.18H747.433C746.857 38.18 746.437 38.26 746.173 38.42C745.909 38.58 745.777 38.812 745.777 39.116V39.368C745.777 39.688 745.889 39.932 746.113 40.1C746.345 40.26 746.661 40.34 747.061 40.34Z" fill="#55575F"/>
<path d="M755.072 41C754.6 41 754.252 40.868 754.028 40.604C753.812 40.34 753.704 40 753.704 39.584V35.624H751.64V34.808H753.176C753.384 34.808 753.528 34.768 753.608 34.688C753.696 34.6 753.74 34.452 753.74 34.244V32.624H754.664V34.808H757.484V35.624H754.664V40.184H757.484V41H755.072Z" fill="#55575F"/>
<path d="M762.351 33.44C762.071 33.44 761.875 33.384 761.763 33.272C761.651 33.152 761.595 33.004 761.595 32.828V32.636C761.595 32.46 761.651 32.316 761.763 32.204C761.875 32.084 762.071 32.024 762.351 32.024C762.631 32.024 762.827 32.084 762.939 32.204C763.051 32.316 763.107 32.46 763.107 32.636V32.828C763.107 33.004 763.051 33.152 762.939 33.272C762.827 33.384 762.631 33.44 762.351 33.44ZM759.639 40.184H761.871V35.624H759.639V34.808H762.831V40.184H764.919V41H759.639V40.184Z" fill="#55575F"/>
<path d="M769.163 41.144C768.731 41.144 768.339 41.068 767.987 40.916C767.643 40.764 767.347 40.548 767.099 40.268C766.859 39.98 766.675 39.64 766.547 39.248C766.419 38.848 766.355 38.4 766.355 37.904C766.355 37.416 766.419 36.972 766.547 36.572C766.675 36.172 766.859 35.832 767.099 35.552C767.347 35.264 767.643 35.044 767.987 34.892C768.339 34.74 768.731 34.664 769.163 34.664C769.595 34.664 769.983 34.74 770.327 34.892C770.679 35.044 770.975 35.264 771.215 35.552C771.463 35.832 771.651 36.172 771.779 36.572C771.907 36.972 771.971 37.416 771.971 37.904C771.971 38.4 771.907 38.848 771.779 39.248C771.651 39.64 771.463 39.98 771.215 40.268C770.975 40.548 770.679 40.764 770.327 40.916C769.983 41.068 769.595 41.144 769.163 41.144ZM769.163 40.316C769.699 40.316 770.131 40.156 770.459 39.836C770.787 39.516 770.951 39.02 770.951 38.348V37.46C770.951 36.788 770.787 36.292 770.459 35.972C770.131 35.652 769.699 35.492 769.163 35.492C768.627 35.492 768.195 35.652 767.867 35.972C767.539 36.292 767.375 36.788 767.375 37.46V38.348C767.375 39.02 767.539 39.516 767.867 39.836C768.195 40.156 768.627 40.316 769.163 40.316Z" fill="#55575F"/>
<path d="M773.934 41V34.808H774.894V35.816H774.942C775.006 35.664 775.086 35.52 775.182 35.384C775.278 35.24 775.394 35.116 775.53 35.012C775.674 34.908 775.842 34.824 776.034 34.76C776.226 34.696 776.45 34.664 776.706 34.664C777.354 34.664 777.874 34.872 778.266 35.288C778.658 35.696 778.854 36.276 778.854 37.028V41H777.894V37.196C777.894 36.628 777.77 36.208 777.522 35.936C777.274 35.656 776.91 35.516 776.43 35.516C776.238 35.516 776.05 35.54 775.866 35.588C775.682 35.636 775.518 35.708 775.374 35.804C775.23 35.9 775.114 36.024 775.026 36.176C774.938 36.328 774.894 36.504 774.894 36.704V41H773.934Z" fill="#55575F"/>
<path d="M95.9839 55L93.0239 46.744H94.3199L95.5039 50.2L96.7839 53.928H96.8479L98.1279 50.2L99.3119 46.744H100.576L97.6159 55H95.9839Z" fill="#55575F"/>
<path d="M106.538 55.192C105.94 55.192 105.402 55.0907 104.922 54.888C104.452 54.6854 104.047 54.3974 103.706 54.024C103.375 53.64 103.119 53.1867 102.938 52.664C102.756 52.1307 102.666 51.5387 102.666 50.888C102.666 50.2267 102.756 49.6294 102.938 49.096C103.13 48.5627 103.391 48.1094 103.722 47.736C104.052 47.352 104.447 47.0587 104.906 46.856C105.375 46.6534 105.892 46.552 106.458 46.552C107.012 46.552 107.514 46.6534 107.962 46.856C108.42 47.0587 108.81 47.3414 109.13 47.704C109.45 48.056 109.695 48.4774 109.866 48.968C110.036 49.4587 110.122 49.9974 110.122 50.584V51.192H104.01V51.576C104.01 51.9387 104.068 52.2747 104.186 52.584C104.303 52.8934 104.468 53.16 104.682 53.384C104.906 53.608 105.172 53.784 105.482 53.912C105.802 54.0294 106.154 54.088 106.538 54.088C107.092 54.088 107.572 53.96 107.978 53.704C108.383 53.448 108.692 53.096 108.906 52.648L109.85 53.288C109.604 53.8427 109.194 54.3014 108.618 54.664C108.052 55.016 107.359 55.192 106.538 55.192ZM106.458 47.608C106.106 47.608 105.78 47.672 105.482 47.8C105.183 47.928 104.922 48.104 104.698 48.328C104.484 48.552 104.314 48.8187 104.186 49.128C104.068 49.4267 104.01 49.7574 104.01 50.12V50.232H108.746V50.056C108.746 49.6934 108.687 49.3627 108.57 49.064C108.463 48.7654 108.308 48.5094 108.106 48.296C107.914 48.072 107.674 47.9014 107.386 47.784C107.108 47.6667 106.799 47.608 106.458 47.608Z" fill="#55575F"/>
<path d="M112.707 43.832H115.827C117.193 43.832 118.211 44.3014 118.883 45.24C119.555 46.1787 119.891 47.5707 119.891 49.416C119.891 51.2614 119.555 52.6534 118.883 53.592C118.211 54.5307 117.193 55 115.827 55H112.707V43.832ZM115.763 53.832C116.659 53.832 117.331 53.5227 117.779 52.904C118.238 52.2854 118.467 51.4107 118.467 50.28V48.552C118.467 47.4214 118.238 46.5467 117.779 45.928C117.331 45.3094 116.659 45 115.763 45H114.051V53.832H115.763Z" fill="#55575F"/>
<path d="M122.221 55V43.832H129.101V45H123.565V48.76H128.909V49.928H123.565V53.832H129.101V55H122.221Z" fill="#55575F"/>
<path d="M132.999 43.832V50.536C132.999 51.08 133.015 51.5654 133.047 51.992C133.079 52.4187 133.164 52.7867 133.303 53.096C133.442 53.3947 133.655 53.624 133.943 53.784C134.242 53.944 134.652 54.024 135.175 54.024C135.698 54.024 136.103 53.944 136.391 53.784C136.69 53.624 136.908 53.3947 137.047 53.096C137.186 52.7867 137.271 52.4187 137.303 51.992C137.335 51.5654 137.351 51.08 137.351 50.536V43.832H138.695V50.216C138.695 51.048 138.652 51.7734 138.567 52.392C138.492 53.0107 138.327 53.528 138.071 53.944C137.826 54.36 137.468 54.6747 136.999 54.888C136.54 55.0907 135.932 55.192 135.175 55.192C134.418 55.192 133.804 55.0907 133.335 54.888C132.876 54.6747 132.519 54.36 132.263 53.944C132.018 53.528 131.852 53.0107 131.767 52.392C131.692 51.7734 131.655 51.048 131.655 50.216V43.832H132.999Z" fill="#55575F"/>
<path d="M144.737 55.192C143.734 55.192 142.913 55.0107 142.273 54.648C141.633 54.2747 141.105 53.8 140.689 53.224L141.665 52.424C142.102 52.968 142.561 53.3734 143.041 53.64C143.531 53.9067 144.113 54.04 144.785 54.04C145.595 54.04 146.214 53.8534 146.641 53.48C147.067 53.1067 147.281 52.584 147.281 51.912C147.281 51.368 147.126 50.9467 146.817 50.648C146.507 50.3387 145.969 50.12 145.201 49.992L143.953 49.784C143.409 49.688 142.95 49.544 142.577 49.352C142.214 49.16 141.921 48.9307 141.697 48.664C141.473 48.3867 141.313 48.088 141.217 47.768C141.121 47.4374 141.073 47.096 141.073 46.744C141.073 45.72 141.409 44.9467 142.081 44.424C142.753 43.9014 143.659 43.64 144.801 43.64C145.697 43.64 146.449 43.7894 147.057 44.088C147.675 44.3867 148.171 44.808 148.545 45.352L147.601 46.168C147.291 45.7627 146.918 45.432 146.481 45.176C146.043 44.92 145.478 44.792 144.785 44.792C144.027 44.792 143.446 44.952 143.041 45.272C142.635 45.592 142.433 46.072 142.433 46.712C142.433 47.2134 142.582 47.624 142.881 47.944C143.19 48.2534 143.739 48.4774 144.529 48.616L145.729 48.824C146.273 48.92 146.731 49.064 147.105 49.256C147.478 49.448 147.777 49.6774 148.001 49.944C148.235 50.2107 148.401 50.5094 148.497 50.84C148.593 51.1707 148.641 51.5174 148.641 51.88C148.641 52.9147 148.299 53.7254 147.617 54.312C146.945 54.8987 145.985 55.192 144.737 55.192Z" fill="#55575F"/>
<path d="M161.764 45.544H161.652V55H160.436V43.832H162.34L166.148 53.192H166.26V43.832H167.476V55H165.572L161.764 45.544Z" fill="#55575F"/>
<path d="M173.55 55.192C172.974 55.192 172.451 55.0907 171.982 54.888C171.523 54.6854 171.129 54.3974 170.798 54.024C170.478 53.64 170.233 53.1867 170.062 52.664C169.891 52.1307 169.806 51.5334 169.806 50.872C169.806 50.2214 169.891 49.6294 170.062 49.096C170.233 48.5627 170.478 48.1094 170.798 47.736C171.129 47.352 171.523 47.0587 171.982 46.856C172.451 46.6534 172.974 46.552 173.55 46.552C174.126 46.552 174.643 46.6534 175.102 46.856C175.571 47.0587 175.966 47.352 176.286 47.736C176.617 48.1094 176.867 48.5627 177.038 49.096C177.209 49.6294 177.294 50.2214 177.294 50.872C177.294 51.5334 177.209 52.1307 177.038 52.664C176.867 53.1867 176.617 53.64 176.286 54.024C175.966 54.3974 175.571 54.6854 175.102 54.888C174.643 55.0907 174.126 55.192 173.55 55.192ZM173.55 54.088C174.265 54.088 174.841 53.8747 175.278 53.448C175.715 53.0214 175.934 52.36 175.934 51.464V50.28C175.934 49.384 175.715 48.7227 175.278 48.296C174.841 47.8694 174.265 47.656 173.55 47.656C172.835 47.656 172.259 47.8694 171.822 48.296C171.385 48.7227 171.166 49.384 171.166 50.28V51.464C171.166 52.36 171.385 53.0214 171.822 53.448C172.259 53.8747 172.835 54.088 173.55 54.088Z" fill="#55575F"/>
<path d="M183.544 55C182.914 55 182.45 54.824 182.152 54.472C181.864 54.12 181.72 53.6667 181.72 53.112V47.832H178.968V46.744H181.016C181.293 46.744 181.485 46.6907 181.592 46.584C181.709 46.4667 181.768 46.2694 181.768 45.992V43.832H183V46.744H186.76V47.832H183V53.912H186.76V55H183.544Z" fill="#55575F"/>
<path d="M198.971 55V43.832H206.011V45H200.315V48.76H205.531V49.928H200.315V55H198.971Z" fill="#55575F"/>
<path d="M211.925 55.192C211.349 55.192 210.826 55.0907 210.357 54.888C209.898 54.6854 209.504 54.3974 209.173 54.024C208.853 53.64 208.608 53.1867 208.437 52.664C208.266 52.1307 208.181 51.5334 208.181 50.872C208.181 50.2214 208.266 49.6294 208.437 49.096C208.608 48.5627 208.853 48.1094 209.173 47.736C209.504 47.352 209.898 47.0587 210.357 46.856C210.826 46.6534 211.349 46.552 211.925 46.552C212.501 46.552 213.018 46.6534 213.477 46.856C213.946 47.0587 214.341 47.352 214.661 47.736C214.992 48.1094 215.242 48.5627 215.413 49.096C215.584 49.6294 215.669 50.2214 215.669 50.872C215.669 51.5334 215.584 52.1307 215.413 52.664C215.242 53.1867 214.992 53.64 214.661 54.024C214.341 54.3974 213.946 54.6854 213.477 54.888C213.018 55.0907 212.501 55.192 211.925 55.192ZM211.925 54.088C212.64 54.088 213.216 53.8747 213.653 53.448C214.09 53.0214 214.309 52.36 214.309 51.464V50.28C214.309 49.384 214.09 48.7227 213.653 48.296C213.216 47.8694 212.64 47.656 211.925 47.656C211.21 47.656 210.634 47.8694 210.197 48.296C209.76 48.7227 209.541 49.384 209.541 50.28V51.464C209.541 52.36 209.76 53.0214 210.197 53.448C210.634 53.8747 211.21 54.088 211.925 54.088Z" fill="#55575F"/>
<path d="M223.471 53.656H223.407C223.321 53.8587 223.215 54.056 223.087 54.248C222.959 54.4294 222.799 54.5894 222.607 54.728C222.425 54.8667 222.207 54.9787 221.951 55.064C221.695 55.1494 221.396 55.192 221.055 55.192C220.191 55.192 219.497 54.92 218.975 54.376C218.452 53.8214 218.191 53.0427 218.191 52.04V46.744H219.471V51.816C219.471 52.5734 219.636 53.1387 219.967 53.512C220.297 53.8747 220.783 54.056 221.423 54.056C221.679 54.056 221.929 54.024 222.175 53.96C222.42 53.896 222.639 53.8 222.831 53.672C223.023 53.544 223.177 53.384 223.295 53.192C223.412 52.9894 223.471 52.7494 223.471 52.472V46.744H224.751V55H223.471V53.656Z" fill="#55575F"/>
<path d="M227.88 55V46.744H229.16V48.088H229.224C229.31 47.8854 229.416 47.6934 229.544 47.512C229.672 47.32 229.827 47.1547 230.008 47.016C230.2 46.8774 230.424 46.7654 230.68 46.68C230.936 46.5947 231.235 46.552 231.576 46.552C232.44 46.552 233.134 46.8294 233.656 47.384C234.179 47.928 234.44 48.7014 234.44 49.704V55H233.16V49.928C233.16 49.1707 232.995 48.6107 232.664 48.248C232.334 47.8747 231.848 47.688 231.208 47.688C230.952 47.688 230.702 47.72 230.456 47.784C230.211 47.848 229.992 47.944 229.8 48.072C229.608 48.2 229.454 48.3654 229.336 48.568C229.219 48.7707 229.16 49.0054 229.16 49.272V55H227.88Z" fill="#55575F"/>
<path d="M242.706 53.656H242.642C242.109 54.68 241.261 55.192 240.098 55.192C239.085 55.192 238.29 54.8134 237.714 54.056C237.149 53.2987 236.866 52.2374 236.866 50.872C236.866 49.5067 237.149 48.4454 237.714 47.688C238.29 46.9307 239.085 46.552 240.098 46.552C241.261 46.552 242.109 47.064 242.642 48.088H242.706V43.16H243.986V55H242.706V53.656ZM240.594 54.056C240.882 54.056 241.154 54.0187 241.41 53.944C241.666 53.8694 241.89 53.7627 242.082 53.624C242.274 53.4747 242.423 53.2987 242.53 53.096C242.648 52.8827 242.706 52.6374 242.706 52.36V49.384C242.706 49.1067 242.648 48.8667 242.53 48.664C242.423 48.4507 242.274 48.2747 242.082 48.136C241.89 47.9867 241.666 47.8747 241.41 47.8C241.154 47.7254 240.882 47.688 240.594 47.688C239.848 47.688 239.266 47.9174 238.85 48.376C238.445 48.824 238.242 49.4214 238.242 50.168V51.576C238.242 52.3227 238.445 52.9254 238.85 53.384C239.266 53.832 239.848 54.056 240.594 54.056Z" fill="#55575F"/>
<path d="M78.3281 46.3372C78.0952 46.3372 77.8624 46.3795 77.6508 46.4854L69.5238 38.3513C69.6085 38.1395 69.672 37.9276 69.672 37.6734C69.672 36.7414 68.9101 36 68 36C67.0899 36 66.328 36.7626 66.328 37.6734C66.328 37.9064 66.3704 38.1395 66.4762 38.3513L58.3492 46.4643C58.1376 46.3795 57.9259 46.316 57.672 46.316C56.7407 46.316 56 47.0786 56 47.9894C56 48.9003 56.7619 49.6628 57.672 49.6628C57.9048 49.6628 58.1376 49.6205 58.3492 49.5146L66.4762 57.6487C66.3915 57.8606 66.328 58.0723 66.328 58.3265C66.328 59.2586 67.0899 60 68 60C68.9101 60 69.672 59.2374 69.672 58.3265C69.672 58.0935 69.6296 57.8606 69.5238 57.6487L77.6508 49.5146C77.8624 49.5993 78.074 49.6628 78.3281 49.6628C79.2593 49.6628 80 48.9003 80 47.9894C80 47.0786 79.2593 46.3372 78.3281 46.3372ZM76.7618 47.4175L73.6085 48.1801C73.3334 47.8199 72.9101 47.5658 72.4232 47.5658C72.0635 47.5658 71.746 47.6929 71.4921 47.9047L69.4391 46.9515C69.4391 46.9303 69.4391 46.9303 69.4391 46.9091C69.4391 46.316 69.1005 45.8288 68.5926 45.5958V39.241C68.6138 39.241 68.6349 39.2198 68.6561 39.2198L76.783 47.3539C76.783 47.3539 76.7618 47.3963 76.7618 47.4175ZM68 56.6744C67.9577 56.6744 67.9153 56.6744 67.873 56.6744L64.6984 49.9594C64.9101 49.7052 65.037 49.3875 65.037 49.0274L67.1111 48.053C67.3651 48.2436 67.6825 48.3707 68 48.3707C68.3386 48.3707 68.6561 48.2436 68.9101 48.053L70.9841 49.0274C70.9841 49.0274 70.9841 49.0274 70.9841 49.0485C70.9841 49.4086 71.1111 49.7264 71.3228 49.9806L68.1058 56.6744C68.0847 56.6744 68.0423 56.6744 68 56.6744ZM67.3862 39.241V45.5958C66.8995 45.8288 66.5397 46.3372 66.5397 46.9091C66.5397 46.9303 66.5397 46.9515 66.5397 46.9515L64.4868 47.9047C64.2328 47.6929 63.9153 47.5658 63.5556 47.5658C63.0688 47.5658 62.6455 47.7988 62.3704 48.1801L59.2381 47.4175C59.2381 47.3963 59.2169 47.3751 59.2169 47.3327L67.3439 39.1986C67.3439 39.2198 67.3651 39.2198 67.3862 39.241ZM59.2169 48.6673L62.1587 49.3875C62.328 50.0229 62.8783 50.4889 63.5767 50.4889H63.5979L65.9259 55.4034L59.2169 48.6673ZM72.4021 50.4889H72.4232C73.1005 50.4889 73.672 50.0229 73.8412 49.3875L76.783 48.6673C76.783 48.6673 76.783 48.6673 76.783 48.6884L70.0741 55.4034L72.4021 50.4889Z" fill="#55575F"/>
<g filter="url(#filter0_b_553_8363)">
<rect x="872" y="24" width="128" height="48" rx="8" fill="#23252C"/>
</g>
<path d="M925.256 46.4886H923.131C923.07 46.1402 922.958 45.8314 922.795 45.5625C922.633 45.2898 922.43 45.0587 922.188 44.8693C921.945 44.6799 921.669 44.5379 921.358 44.4432C921.051 44.3447 920.72 44.2955 920.364 44.2955C919.731 44.2955 919.17 44.4545 918.682 44.7727C918.193 45.0871 917.811 45.5492 917.534 46.1591C917.258 46.7652 917.119 47.5057 917.119 48.3807C917.119 49.2708 917.258 50.0208 917.534 50.6307C917.814 51.2367 918.197 51.6951 918.682 52.0057C919.17 52.3125 919.729 52.4659 920.358 52.4659C920.706 52.4659 921.032 52.4205 921.335 52.3295C921.642 52.2348 921.917 52.0966 922.159 51.9148C922.405 51.733 922.612 51.5095 922.778 51.2443C922.949 50.9792 923.066 50.6761 923.131 50.3352L925.256 50.3466C925.176 50.8996 925.004 51.4186 924.739 51.9034C924.477 52.3883 924.134 52.8163 923.71 53.1875C923.286 53.5549 922.79 53.8428 922.222 54.0511C921.653 54.2557 921.023 54.358 920.33 54.358C919.307 54.358 918.394 54.1212 917.591 53.6477C916.788 53.1742 916.155 52.4905 915.693 51.5966C915.231 50.7027 915 49.6307 915 48.3807C915 47.1269 915.233 46.0549 915.699 45.1648C916.165 44.2708 916.799 43.5871 917.602 43.1136C918.405 42.6402 919.314 42.4034 920.33 42.4034C920.977 42.4034 921.58 42.4943 922.136 42.6761C922.693 42.858 923.189 43.125 923.625 43.4773C924.061 43.8258 924.419 44.2538 924.699 44.7614C924.983 45.2652 925.169 45.8409 925.256 46.4886Z" fill="#2E2F33"/>
<path d="M929.152 42.5625V54.1989H927.095V42.5625H929.152Z" fill="#2E2F33"/>
<path d="M933.778 54.375C933.225 54.375 932.727 54.2765 932.284 54.0795C931.845 53.8788 931.496 53.5833 931.239 53.1932C930.985 52.803 930.858 52.322 930.858 51.75C930.858 51.2576 930.949 50.8504 931.131 50.5284C931.312 50.2064 931.561 49.9489 931.875 49.7557C932.189 49.5625 932.544 49.4167 932.938 49.3182C933.335 49.2159 933.746 49.142 934.17 49.0966C934.682 49.0436 935.097 48.9962 935.415 48.9545C935.733 48.9091 935.964 48.8409 936.108 48.75C936.256 48.6553 936.33 48.5095 936.33 48.3125V48.2784C936.33 47.8504 936.203 47.5189 935.949 47.2841C935.695 47.0492 935.33 46.9318 934.852 46.9318C934.348 46.9318 933.949 47.0417 933.653 47.2614C933.362 47.4811 933.165 47.7405 933.062 48.0398L931.142 47.767C931.294 47.2367 931.544 46.7936 931.892 46.4375C932.241 46.0777 932.667 45.8087 933.17 45.6307C933.674 45.4489 934.231 45.358 934.841 45.358C935.261 45.358 935.68 45.4072 936.097 45.5057C936.513 45.6042 936.894 45.767 937.239 45.9943C937.583 46.2178 937.86 46.5227 938.068 46.9091C938.28 47.2955 938.386 47.7784 938.386 48.358V54.1989H936.409V53H936.341C936.216 53.2424 936.04 53.4697 935.812 53.6818C935.589 53.8902 935.307 54.0587 934.966 54.1875C934.629 54.3125 934.233 54.375 933.778 54.375ZM934.312 52.8636C934.725 52.8636 935.083 52.7822 935.386 52.6193C935.689 52.4527 935.922 52.233 936.085 51.9602C936.252 51.6875 936.335 51.3902 936.335 51.0682V50.0398C936.271 50.0928 936.161 50.142 936.006 50.1875C935.854 50.233 935.684 50.2727 935.494 50.3068C935.305 50.3409 935.117 50.3712 934.932 50.3977C934.746 50.4242 934.585 50.447 934.449 50.4659C934.142 50.5076 933.867 50.5758 933.625 50.6705C933.383 50.7652 933.191 50.8977 933.051 51.0682C932.911 51.2348 932.841 51.4508 932.841 51.7159C932.841 52.0947 932.979 52.3807 933.256 52.5739C933.532 52.767 933.884 52.8636 934.312 52.8636Z" fill="#2E2F33"/>
<path d="M940.455 54.1989V45.4716H942.511V54.1989H940.455ZM941.489 44.233C941.163 44.233 940.883 44.125 940.648 43.9091C940.413 43.6894 940.295 43.4261 940.295 43.1193C940.295 42.8087 940.413 42.5455 940.648 42.3295C940.883 42.1098 941.163 42 941.489 42C941.818 42 942.098 42.1098 942.33 42.3295C942.564 42.5455 942.682 42.8087 942.682 43.1193C942.682 43.4261 942.564 43.6894 942.33 43.9091C942.098 44.125 941.818 44.233 941.489 44.233Z" fill="#2E2F33"/>
<path d="M944.626 54.1989V45.4716H946.592V46.9545H946.695C946.876 46.4545 947.178 46.0644 947.598 45.7841C948.018 45.5 948.52 45.358 949.104 45.358C949.695 45.358 950.193 45.5019 950.598 45.7898C951.007 46.0739 951.295 46.4621 951.462 46.9545H951.553C951.746 46.4697 952.071 46.0833 952.53 45.7955C952.992 45.5038 953.539 45.358 954.172 45.358C954.975 45.358 955.63 45.6117 956.138 46.1193C956.645 46.6269 956.899 47.3674 956.899 48.3409V54.1989H954.837V48.6591C954.837 48.1174 954.693 47.7216 954.405 47.4716C954.117 47.2178 953.765 47.0909 953.348 47.0909C952.852 47.0909 952.464 47.2462 952.183 47.5568C951.907 47.8636 951.768 48.2633 951.768 48.7557V54.1989H949.751V48.5739C949.751 48.1231 949.615 47.7633 949.342 47.4943C949.073 47.2254 948.721 47.0909 948.286 47.0909C947.99 47.0909 947.721 47.1667 947.479 47.3182C947.236 47.4659 947.043 47.6761 946.899 47.9489C946.755 48.2178 946.683 48.5322 946.683 48.892V54.1989H944.626Z" fill="#2E2F33"/>
<g filter="url(#filter1_b_553_8363)">
<rect x="1016" y="24" width="128" height="48" rx="8" fill="#23252C"/>
</g>
<defs>
<filter id="filter0_b_553_8363" x="854" y="6" width="164" height="84" filterUnits="userSpaceOnUse" color-interpolation-filters="sRGB">
<feFlood flood-opacity="0" result="BackgroundImageFix"/>
<feGaussianBlur in="BackgroundImage" stdDeviation="9"/>
<feComposite in2="SourceAlpha" operator="in" result="effect1_backgroundBlur_553_8363"/>
<feBlend mode="normal" in="SourceGraphic" in2="effect1_backgroundBlur_553_8363" result="shape"/>
</filter>
<filter id="filter1_b_553_8363" x="998" y="6" width="164" height="84" filterUnits="userSpaceOnUse" color-interpolation-filters="sRGB">
<feFlood flood-opacity="0" result="BackgroundImageFix"/>
<feGaussianBlur in="BackgroundImage" stdDeviation="9"/>
<feComposite in2="SourceAlpha" operator="in" result="effect1_backgroundBlur_553_8363"/>
<feBlend mode="normal" in="SourceGraphic" in2="effect1_backgroundBlur_553_8363" result="shape"/>
</filter>
</defs>
</svg>
