<svg width="380" height="140" viewBox="0 0 380 140" fill="none" xmlns="http://www.w3.org/2000/svg">
<rect width="380" height="140" fill="#14161C"/>
<path d="M362.665 61.856V60.848H366.145V61.856H362.665Z" fill="#55575F"/>
<path d="M14.916 65L12.432 56.624H13.5L14.688 60.812L15.588 63.98H15.648L16.548 60.812L17.736 56.624H18.768L16.284 65H14.916ZM22.9033 65.144C22.4553 65.144 22.0513 65.068 21.6913 64.916C21.3393 64.764 21.0353 64.548 20.7793 64.268C20.5313 63.98 20.3393 63.64 20.2033 63.248C20.0673 62.848 19.9993 62.404 19.9993 61.916C19.9993 61.42 20.0673 60.972 20.2033 60.572C20.3473 60.172 20.5433 59.832 20.7913 59.552C21.0393 59.264 21.3353 59.044 21.6793 58.892C22.0313 58.74 22.4193 58.664 22.8433 58.664C23.2593 58.664 23.6353 58.74 23.9713 58.892C24.3153 59.044 24.6073 59.256 24.8473 59.528C25.0873 59.792 25.2713 60.108 25.3993 60.476C25.5273 60.844 25.5913 61.248 25.5913 61.688V62.144H21.0073V62.432C21.0073 62.704 21.0513 62.956 21.1393 63.188C21.2273 63.42 21.3513 63.62 21.5113 63.788C21.6793 63.956 21.8793 64.088 22.1113 64.184C22.3513 64.272 22.6153 64.316 22.9033 64.316C23.3193 64.316 23.6793 64.22 23.9833 64.028C24.2873 63.836 24.5193 63.572 24.6793 63.236L25.3873 63.716C25.2033 64.132 24.8953 64.476 24.4633 64.748C24.0393 65.012 23.5193 65.144 22.9033 65.144ZM22.8433 59.456C22.5793 59.456 22.3353 59.504 22.1113 59.6C21.8873 59.696 21.6913 59.828 21.5233 59.996C21.3633 60.164 21.2353 60.364 21.1393 60.596C21.0513 60.82 21.0073 61.068 21.0073 61.34V61.424H24.5593V61.292C24.5593 61.02 24.5153 60.772 24.4273 60.548C24.3473 60.324 24.2313 60.132 24.0793 59.972C23.9353 59.804 23.7553 59.676 23.5393 59.588C23.3313 59.5 23.0993 59.456 22.8433 59.456ZM30.0626 65.144C29.4146 65.144 28.8546 65.036 28.3826 64.82C27.9186 64.596 27.5226 64.3 27.1946 63.932L27.8426 63.368C28.1386 63.68 28.4626 63.92 28.8146 64.088C29.1666 64.256 29.5906 64.34 30.0866 64.34C30.5666 64.34 30.9586 64.256 31.2626 64.088C31.5746 63.912 31.7306 63.64 31.7306 63.272C31.7306 63.112 31.6986 62.98 31.6346 62.876C31.5786 62.764 31.4986 62.676 31.3946 62.612C31.2906 62.548 31.1746 62.5 31.0466 62.468C30.9186 62.428 30.7826 62.396 30.6386 62.372L29.6666 62.228C29.4506 62.196 29.2146 62.152 28.9586 62.096C28.7106 62.04 28.4826 61.952 28.2746 61.832C28.0666 61.704 27.8906 61.536 27.7466 61.328C27.6106 61.12 27.5426 60.848 27.5426 60.512C27.5426 60.2 27.6026 59.932 27.7226 59.708C27.8506 59.476 28.0266 59.284 28.2506 59.132C28.4746 58.972 28.7386 58.856 29.0426 58.784C29.3466 58.704 29.6786 58.664 30.0386 58.664C30.5986 58.664 31.0826 58.752 31.4906 58.928C31.9066 59.104 32.2626 59.348 32.5586 59.66L31.9346 60.248C31.8626 60.16 31.7706 60.072 31.6586 59.984C31.5546 59.888 31.4226 59.804 31.2626 59.732C31.1106 59.652 30.9306 59.588 30.7226 59.54C30.5146 59.492 30.2746 59.468 30.0026 59.468C29.5146 59.468 29.1386 59.552 28.8746 59.72C28.6186 59.888 28.4906 60.132 28.4906 60.452C28.4906 60.612 28.5186 60.748 28.5746 60.86C28.6386 60.964 28.7226 61.048 28.8266 61.112C28.9306 61.176 29.0466 61.228 29.1746 61.268C29.3106 61.3 29.4466 61.328 29.5826 61.352L30.5546 61.496C30.7786 61.528 31.0146 61.572 31.2626 61.628C31.5106 61.684 31.7386 61.776 31.9466 61.904C32.1546 62.024 32.3266 62.188 32.4626 62.396C32.6066 62.604 32.6786 62.876 32.6786 63.212C32.6786 63.828 32.4386 64.304 31.9586 64.64C31.4866 64.976 30.8546 65.144 30.0626 65.144ZM37.4859 65C37.0139 65 36.6659 64.868 36.4419 64.604C36.2259 64.34 36.1179 64 36.1179 63.584V59.624H34.0539V58.808H35.5899C35.7979 58.808 35.9419 58.768 36.0219 58.688C36.1099 58.6 36.1539 58.452 36.1539 58.244V56.624H37.0779V58.808H39.8979V59.624H37.0779V64.184H39.8979V65H37.4859ZM53.7486 65L53.0406 62.612H50.1006L49.3926 65H48.3486L50.9166 56.624H52.2486L54.8166 65H53.7486ZM51.6246 57.692H51.5166L50.3406 61.736H52.8006L51.6246 57.692ZM55.8199 65V58.808H56.7079V59.528H56.7559C56.8519 59.288 56.9879 59.084 57.1639 58.916C57.3399 58.748 57.5999 58.664 57.9439 58.664C58.3039 58.664 58.5719 58.756 58.7479 58.94C58.9239 59.116 59.0319 59.348 59.0719 59.636H59.1079C59.2199 59.356 59.3799 59.124 59.5879 58.94C59.7959 58.756 60.0839 58.664 60.4519 58.664C60.9559 58.664 61.2919 58.84 61.4599 59.192C61.6359 59.544 61.7239 60.048 61.7239 60.704V65H60.8359V60.86C60.8359 60.332 60.7799 59.968 60.6679 59.768C60.5639 59.56 60.3679 59.456 60.0799 59.456C59.8239 59.456 59.6159 59.54 59.4559 59.708C59.2959 59.868 59.2159 60.116 59.2159 60.452V65H58.3279V60.86C58.3279 60.332 58.2719 59.968 58.1599 59.768C58.0559 59.56 57.8639 59.456 57.5839 59.456C57.3279 59.456 57.1159 59.54 56.9479 59.708C56.7879 59.868 56.7079 60.116 56.7079 60.452V65H55.8199ZM65.9672 65.144C65.5352 65.144 65.1432 65.068 64.7912 64.916C64.4472 64.764 64.1512 64.548 63.9032 64.268C63.6632 63.98 63.4792 63.64 63.3512 63.248C63.2232 62.848 63.1592 62.4 63.1592 61.904C63.1592 61.416 63.2232 60.972 63.3512 60.572C63.4792 60.172 63.6632 59.832 63.9032 59.552C64.1512 59.264 64.4472 59.044 64.7912 58.892C65.1432 58.74 65.5352 58.664 65.9672 58.664C66.3992 58.664 66.7872 58.74 67.1312 58.892C67.4832 59.044 67.7792 59.264 68.0192 59.552C68.2672 59.832 68.4552 60.172 68.5832 60.572C68.7112 60.972 68.7752 61.416 68.7752 61.904C68.7752 62.4 68.7112 62.848 68.5832 63.248C68.4552 63.64 68.2672 63.98 68.0192 64.268C67.7792 64.548 67.4832 64.764 67.1312 64.916C66.7872 65.068 66.3992 65.144 65.9672 65.144ZM65.9672 64.316C66.5032 64.316 66.9352 64.156 67.2632 63.836C67.5912 63.516 67.7552 63.02 67.7552 62.348V61.46C67.7552 60.788 67.5912 60.292 67.2632 59.972C66.9352 59.652 66.5032 59.492 65.9672 59.492C65.4312 59.492 64.9992 59.652 64.6712 59.972C64.3432 60.292 64.1792 60.788 64.1792 61.46V62.348C64.1792 63.02 64.3432 63.516 64.6712 63.836C64.9992 64.156 65.4312 64.316 65.9672 64.316ZM74.6265 63.992H74.5785C74.5145 64.144 74.4345 64.292 74.3385 64.436C74.2425 64.572 74.1225 64.692 73.9785 64.796C73.8425 64.9 73.6785 64.984 73.4865 65.048C73.2945 65.112 73.0705 65.144 72.8145 65.144C72.1665 65.144 71.6465 64.94 71.2545 64.532C70.8625 64.116 70.6665 63.532 70.6665 62.78V58.808H71.6265V62.612C71.6265 63.18 71.7505 63.604 71.9985 63.884C72.2465 64.156 72.6105 64.292 73.0905 64.292C73.2825 64.292 73.4705 64.268 73.6545 64.22C73.8385 64.172 74.0025 64.1 74.1465 64.004C74.2905 63.908 74.4065 63.788 74.4945 63.644C74.5825 63.492 74.6265 63.312 74.6265 63.104V58.808H75.5865V65H74.6265V63.992ZM77.9338 65V58.808H78.8938V59.816H78.9418C79.0058 59.664 79.0858 59.52 79.1818 59.384C79.2778 59.24 79.3938 59.116 79.5298 59.012C79.6738 58.908 79.8418 58.824 80.0338 58.76C80.2258 58.696 80.4498 58.664 80.7058 58.664C81.3538 58.664 81.8738 58.872 82.2658 59.288C82.6578 59.696 82.8538 60.276 82.8538 61.028V65H81.8938V61.196C81.8938 60.628 81.7698 60.208 81.5218 59.936C81.2738 59.656 80.9098 59.516 80.4298 59.516C80.2378 59.516 80.0498 59.54 79.8658 59.588C79.6818 59.636 79.5178 59.708 79.3738 59.804C79.2298 59.9 79.1138 60.024 79.0258 60.176C78.9378 60.328 78.8938 60.504 78.8938 60.704V65H77.9338ZM87.8531 65C87.3811 65 87.0331 64.868 86.8091 64.604C86.5931 64.34 86.4851 64 86.4851 63.584V59.624H84.4211V58.808H85.9571C86.1651 58.808 86.3091 58.768 86.3891 58.688C86.4771 58.6 86.5211 58.452 86.5211 58.244V56.624H87.4451V58.808H90.2651V59.624H87.4451V64.184H90.2651V65H87.8531Z" fill="#6F7380"/>
<path d="M362.665 89.856V88.848H366.145V89.856H362.665Z" fill="#55575F"/>
<path d="M14.916 93L12.432 84.624H13.5L14.688 88.812L15.588 91.98H15.648L16.548 88.812L17.736 84.624H18.768L16.284 93H14.916ZM22.9033 93.144C22.4553 93.144 22.0513 93.068 21.6913 92.916C21.3393 92.764 21.0353 92.548 20.7793 92.268C20.5313 91.98 20.3393 91.64 20.2033 91.248C20.0673 90.848 19.9993 90.404 19.9993 89.916C19.9993 89.42 20.0673 88.972 20.2033 88.572C20.3473 88.172 20.5433 87.832 20.7913 87.552C21.0393 87.264 21.3353 87.044 21.6793 86.892C22.0313 86.74 22.4193 86.664 22.8433 86.664C23.2593 86.664 23.6353 86.74 23.9713 86.892C24.3153 87.044 24.6073 87.256 24.8473 87.528C25.0873 87.792 25.2713 88.108 25.3993 88.476C25.5273 88.844 25.5913 89.248 25.5913 89.688V90.144H21.0073V90.432C21.0073 90.704 21.0513 90.956 21.1393 91.188C21.2273 91.42 21.3513 91.62 21.5113 91.788C21.6793 91.956 21.8793 92.088 22.1113 92.184C22.3513 92.272 22.6153 92.316 22.9033 92.316C23.3193 92.316 23.6793 92.22 23.9833 92.028C24.2873 91.836 24.5193 91.572 24.6793 91.236L25.3873 91.716C25.2033 92.132 24.8953 92.476 24.4633 92.748C24.0393 93.012 23.5193 93.144 22.9033 93.144ZM22.8433 87.456C22.5793 87.456 22.3353 87.504 22.1113 87.6C21.8873 87.696 21.6913 87.828 21.5233 87.996C21.3633 88.164 21.2353 88.364 21.1393 88.596C21.0513 88.82 21.0073 89.068 21.0073 89.34V89.424H24.5593V89.292C24.5593 89.02 24.5153 88.772 24.4273 88.548C24.3473 88.324 24.2313 88.132 24.0793 87.972C23.9353 87.804 23.7553 87.676 23.5393 87.588C23.3313 87.5 23.0993 87.456 22.8433 87.456ZM30.0626 93.144C29.4146 93.144 28.8546 93.036 28.3826 92.82C27.9186 92.596 27.5226 92.3 27.1946 91.932L27.8426 91.368C28.1386 91.68 28.4626 91.92 28.8146 92.088C29.1666 92.256 29.5906 92.34 30.0866 92.34C30.5666 92.34 30.9586 92.256 31.2626 92.088C31.5746 91.912 31.7306 91.64 31.7306 91.272C31.7306 91.112 31.6986 90.98 31.6346 90.876C31.5786 90.764 31.4986 90.676 31.3946 90.612C31.2906 90.548 31.1746 90.5 31.0466 90.468C30.9186 90.428 30.7826 90.396 30.6386 90.372L29.6666 90.228C29.4506 90.196 29.2146 90.152 28.9586 90.096C28.7106 90.04 28.4826 89.952 28.2746 89.832C28.0666 89.704 27.8906 89.536 27.7466 89.328C27.6106 89.12 27.5426 88.848 27.5426 88.512C27.5426 88.2 27.6026 87.932 27.7226 87.708C27.8506 87.476 28.0266 87.284 28.2506 87.132C28.4746 86.972 28.7386 86.856 29.0426 86.784C29.3466 86.704 29.6786 86.664 30.0386 86.664C30.5986 86.664 31.0826 86.752 31.4906 86.928C31.9066 87.104 32.2626 87.348 32.5586 87.66L31.9346 88.248C31.8626 88.16 31.7706 88.072 31.6586 87.984C31.5546 87.888 31.4226 87.804 31.2626 87.732C31.1106 87.652 30.9306 87.588 30.7226 87.54C30.5146 87.492 30.2746 87.468 30.0026 87.468C29.5146 87.468 29.1386 87.552 28.8746 87.72C28.6186 87.888 28.4906 88.132 28.4906 88.452C28.4906 88.612 28.5186 88.748 28.5746 88.86C28.6386 88.964 28.7226 89.048 28.8266 89.112C28.9306 89.176 29.0466 89.228 29.1746 89.268C29.3106 89.3 29.4466 89.328 29.5826 89.352L30.5546 89.496C30.7786 89.528 31.0146 89.572 31.2626 89.628C31.5106 89.684 31.7386 89.776 31.9466 89.904C32.1546 90.024 32.3266 90.188 32.4626 90.396C32.6066 90.604 32.6786 90.876 32.6786 91.212C32.6786 91.828 32.4386 92.304 31.9586 92.64C31.4866 92.976 30.8546 93.144 30.0626 93.144ZM37.4859 93C37.0139 93 36.6659 92.868 36.4419 92.604C36.2259 92.34 36.1179 92 36.1179 91.584V87.624H34.0539V86.808H35.5899C35.7979 86.808 35.9419 86.768 36.0219 86.688C36.1099 86.6 36.1539 86.452 36.1539 86.244V84.624H37.0779V86.808H39.8979V87.624H37.0779V92.184H39.8979V93H37.4859ZM50.8926 93L48.4086 84.624H49.4766L50.6646 88.812L51.5646 91.98H51.6246L52.5246 88.812L53.7126 84.624H54.7446L52.2606 93H50.8926ZM61.1119 93C60.7359 93 60.4679 92.904 60.3079 92.712C60.1479 92.52 60.0479 92.28 60.0079 91.992H59.9479C59.8119 92.352 59.5919 92.636 59.2879 92.844C58.9919 93.044 58.5919 93.144 58.0879 93.144C57.4399 93.144 56.9239 92.976 56.5399 92.64C56.1559 92.304 55.9639 91.844 55.9639 91.26C55.9639 90.684 56.1719 90.24 56.5879 89.928C57.0119 89.616 57.6919 89.46 58.6279 89.46H59.9479V88.848C59.9479 88.392 59.8199 88.052 59.5639 87.828C59.3079 87.596 58.9439 87.48 58.4719 87.48C58.0559 87.48 57.7159 87.564 57.4519 87.732C57.1879 87.892 56.9759 88.112 56.8159 88.392L56.1679 87.912C56.2479 87.752 56.3559 87.596 56.4919 87.444C56.6279 87.292 56.7959 87.16 56.9959 87.048C57.1959 86.928 57.4239 86.836 57.6799 86.772C57.9359 86.7 58.2199 86.664 58.5319 86.664C59.2599 86.664 59.8359 86.848 60.2599 87.216C60.6919 87.584 60.9079 88.096 60.9079 88.752V92.16H61.7719V93H61.1119ZM58.2559 92.34C58.5039 92.34 58.7279 92.312 58.9279 92.256C59.1359 92.192 59.3159 92.112 59.4679 92.016C59.6199 91.912 59.7359 91.792 59.8159 91.656C59.9039 91.512 59.9479 91.36 59.9479 91.2V90.18H58.6279C58.0519 90.18 57.6319 90.26 57.3679 90.42C57.1039 90.58 56.9719 90.812 56.9719 91.116V91.368C56.9719 91.688 57.0839 91.932 57.3079 92.1C57.5399 92.26 57.8559 92.34 58.2559 92.34ZM63.3272 92.184H65.4872V84.936H63.3272V84.12H66.4472V92.184H68.6072V93H63.3272V92.184ZM74.6265 91.992H74.5785C74.5145 92.144 74.4345 92.292 74.3385 92.436C74.2425 92.572 74.1225 92.692 73.9785 92.796C73.8425 92.9 73.6785 92.984 73.4865 93.048C73.2945 93.112 73.0705 93.144 72.8145 93.144C72.1665 93.144 71.6465 92.94 71.2545 92.532C70.8625 92.116 70.6665 91.532 70.6665 90.78V86.808H71.6265V90.612C71.6265 91.18 71.7505 91.604 71.9985 91.884C72.2465 92.156 72.6105 92.292 73.0905 92.292C73.2825 92.292 73.4705 92.268 73.6545 92.22C73.8385 92.172 74.0025 92.1 74.1465 92.004C74.2905 91.908 74.4065 91.788 74.4945 91.644C74.5825 91.492 74.6265 91.312 74.6265 91.104V86.808H75.5865V93H74.6265V91.992ZM80.4658 93.144C80.0178 93.144 79.6138 93.068 79.2538 92.916C78.9018 92.764 78.5978 92.548 78.3418 92.268C78.0938 91.98 77.9018 91.64 77.7658 91.248C77.6298 90.848 77.5618 90.404 77.5618 89.916C77.5618 89.42 77.6298 88.972 77.7658 88.572C77.9098 88.172 78.1058 87.832 78.3538 87.552C78.6018 87.264 78.8978 87.044 79.2418 86.892C79.5938 86.74 79.9818 86.664 80.4058 86.664C80.8218 86.664 81.1978 86.74 81.5338 86.892C81.8778 87.044 82.1698 87.256 82.4098 87.528C82.6498 87.792 82.8338 88.108 82.9618 88.476C83.0898 88.844 83.1538 89.248 83.1538 89.688V90.144H78.5698V90.432C78.5698 90.704 78.6138 90.956 78.7018 91.188C78.7898 91.42 78.9138 91.62 79.0738 91.788C79.2418 91.956 79.4418 92.088 79.6738 92.184C79.9138 92.272 80.1778 92.316 80.4658 92.316C80.8818 92.316 81.2418 92.22 81.5458 92.028C81.8498 91.836 82.0818 91.572 82.2418 91.236L82.9498 91.716C82.7658 92.132 82.4578 92.476 82.0258 92.748C81.6018 93.012 81.0818 93.144 80.4658 93.144ZM80.4058 87.456C80.1418 87.456 79.8978 87.504 79.6738 87.6C79.4498 87.696 79.2538 87.828 79.0858 87.996C78.9258 88.164 78.7978 88.364 78.7018 88.596C78.6138 88.82 78.5698 89.068 78.5698 89.34V89.424H82.1218V89.292C82.1218 89.02 82.0778 88.772 81.9898 88.548C81.9098 88.324 81.7938 88.132 81.6418 87.972C81.4978 87.804 81.3178 87.676 81.1018 87.588C80.8938 87.5 80.6618 87.456 80.4058 87.456Z" fill="#6F7380"/>
<path d="M362.665 117.856V116.848H366.145V117.856H362.665Z" fill="#55575F"/>
<path d="M13.08 121V112.624H18.24V113.5H14.088V116.32H18.096V117.196H14.088V120.124H18.24V121H13.08ZM19.9273 121L22.2313 117.856L19.9873 114.808H21.1393L22.0753 116.116L22.8193 117.148H22.8673L23.5873 116.116L24.5113 114.808H25.6153L23.3473 117.844L25.6753 121H24.5233L23.4793 119.548L22.7713 118.564H22.7233L22.0393 119.548L21.0313 121H19.9273ZM27.5306 114.808H28.4906V115.816H28.5386C28.9386 115.048 29.5746 114.664 30.4466 114.664C31.2066 114.664 31.7986 114.948 32.2226 115.516C32.6546 116.084 32.8706 116.88 32.8706 117.904C32.8706 118.928 32.6546 119.724 32.2226 120.292C31.7986 120.86 31.2066 121.144 30.4466 121.144C29.5746 121.144 28.9386 120.76 28.5386 119.992H28.4906V123.4H27.5306V114.808ZM30.0746 120.292C30.6346 120.292 31.0666 120.124 31.3706 119.788C31.6826 119.444 31.8386 118.992 31.8386 118.432V117.376C31.8386 116.816 31.6826 116.368 31.3706 116.032C31.0666 115.688 30.6346 115.516 30.0746 115.516C29.8586 115.516 29.6546 115.544 29.4626 115.6C29.2706 115.656 29.1026 115.74 28.9586 115.852C28.8146 115.956 28.6986 116.088 28.6106 116.248C28.5306 116.4 28.4906 116.58 28.4906 116.788V119.02C28.4906 119.228 28.5306 119.412 28.6106 119.572C28.6986 119.724 28.8146 119.856 28.9586 119.968C29.1026 120.072 29.2706 120.152 29.4626 120.208C29.6546 120.264 29.8586 120.292 30.0746 120.292ZM37.5699 113.44C37.2899 113.44 37.0939 113.384 36.9819 113.272C36.8699 113.152 36.8139 113.004 36.8139 112.828V112.636C36.8139 112.46 36.8699 112.316 36.9819 112.204C37.0939 112.084 37.2899 112.024 37.5699 112.024C37.8499 112.024 38.0459 112.084 38.1579 112.204C38.2699 112.316 38.3259 112.46 38.3259 112.636V112.828C38.3259 113.004 38.2699 113.152 38.1579 113.272C38.0459 113.384 37.8499 113.44 37.5699 113.44ZM34.8579 120.184H37.0899V115.624H34.8579V114.808H38.0499V120.184H40.1379V121H34.8579V120.184ZM41.7053 120.184H43.5173V115.624H41.7053V114.808H44.4773V116.368H44.5373C44.6653 115.88 44.9053 115.5 45.2573 115.228C45.6173 114.948 46.0733 114.808 46.6253 114.808H47.4893V115.768H46.3253C45.7733 115.768 45.3253 115.928 44.9813 116.248C44.6453 116.568 44.4773 116.988 44.4773 117.508V120.184H46.8773V121H41.7053V120.184ZM53.9166 121C53.5406 121 53.2726 120.904 53.1126 120.712C52.9526 120.52 52.8526 120.28 52.8126 119.992H52.7526C52.6166 120.352 52.3966 120.636 52.0926 120.844C51.7966 121.044 51.3966 121.144 50.8926 121.144C50.2446 121.144 49.7286 120.976 49.3446 120.64C48.9606 120.304 48.7686 119.844 48.7686 119.26C48.7686 118.684 48.9766 118.24 49.3926 117.928C49.8166 117.616 50.4966 117.46 51.4326 117.46H52.7526V116.848C52.7526 116.392 52.6246 116.052 52.3686 115.828C52.1126 115.596 51.7486 115.48 51.2766 115.48C50.8606 115.48 50.5206 115.564 50.2566 115.732C49.9926 115.892 49.7806 116.112 49.6206 116.392L48.9726 115.912C49.0526 115.752 49.1606 115.596 49.2966 115.444C49.4326 115.292 49.6006 115.16 49.8006 115.048C50.0006 114.928 50.2286 114.836 50.4846 114.772C50.7406 114.7 51.0246 114.664 51.3366 114.664C52.0646 114.664 52.6406 114.848 53.0646 115.216C53.4966 115.584 53.7126 116.096 53.7126 116.752V120.16H54.5766V121H53.9166ZM51.0606 120.34C51.3086 120.34 51.5326 120.312 51.7326 120.256C51.9406 120.192 52.1206 120.112 52.2726 120.016C52.4246 119.912 52.5406 119.792 52.6206 119.656C52.7086 119.512 52.7526 119.36 52.7526 119.2V118.18H51.4326C50.8566 118.18 50.4366 118.26 50.1726 118.42C49.9086 118.58 49.7766 118.812 49.7766 119.116V119.368C49.7766 119.688 49.8886 119.932 50.1126 120.1C50.3446 120.26 50.6606 120.34 51.0606 120.34ZM59.0719 121C58.5999 121 58.2519 120.868 58.0279 120.604C57.8119 120.34 57.7039 120 57.7039 119.584V115.624H55.6399V114.808H57.1759C57.3839 114.808 57.5279 114.768 57.6079 114.688C57.6959 114.6 57.7399 114.452 57.7399 114.244V112.624H58.6639V114.808H61.4839V115.624H58.6639V120.184H61.4839V121H59.0719ZM66.3512 113.44C66.0712 113.44 65.8752 113.384 65.7632 113.272C65.6512 113.152 65.5952 113.004 65.5952 112.828V112.636C65.5952 112.46 65.6512 112.316 65.7632 112.204C65.8752 112.084 66.0712 112.024 66.3512 112.024C66.6312 112.024 66.8272 112.084 66.9392 112.204C67.0512 112.316 67.1072 112.46 67.1072 112.636V112.828C67.1072 113.004 67.0512 113.152 66.9392 113.272C66.8272 113.384 66.6312 113.44 66.3512 113.44ZM63.6392 120.184H65.8712V115.624H63.6392V114.808H66.8312V120.184H68.9192V121H63.6392V120.184ZM73.1625 121.144C72.7305 121.144 72.3385 121.068 71.9865 120.916C71.6425 120.764 71.3465 120.548 71.0985 120.268C70.8585 119.98 70.6745 119.64 70.5465 119.248C70.4185 118.848 70.3545 118.4 70.3545 117.904C70.3545 117.416 70.4185 116.972 70.5465 116.572C70.6745 116.172 70.8585 115.832 71.0985 115.552C71.3465 115.264 71.6425 115.044 71.9865 114.892C72.3385 114.74 72.7305 114.664 73.1625 114.664C73.5945 114.664 73.9825 114.74 74.3265 114.892C74.6785 115.044 74.9745 115.264 75.2145 115.552C75.4625 115.832 75.6505 116.172 75.7785 116.572C75.9065 116.972 75.9705 117.416 75.9705 117.904C75.9705 118.4 75.9065 118.848 75.7785 119.248C75.6505 119.64 75.4625 119.98 75.2145 120.268C74.9745 120.548 74.6785 120.764 74.3265 120.916C73.9825 121.068 73.5945 121.144 73.1625 121.144ZM73.1625 120.316C73.6985 120.316 74.1305 120.156 74.4585 119.836C74.7865 119.516 74.9505 119.02 74.9505 118.348V117.46C74.9505 116.788 74.7865 116.292 74.4585 115.972C74.1305 115.652 73.6985 115.492 73.1625 115.492C72.6265 115.492 72.1945 115.652 71.8665 115.972C71.5385 116.292 71.3745 116.788 71.3745 117.46V118.348C71.3745 119.02 71.5385 119.516 71.8665 119.836C72.1945 120.156 72.6265 120.316 73.1625 120.316ZM77.9338 121V114.808H78.8938V115.816H78.9418C79.0058 115.664 79.0858 115.52 79.1818 115.384C79.2778 115.24 79.3938 115.116 79.5298 115.012C79.6738 114.908 79.8418 114.824 80.0338 114.76C80.2258 114.696 80.4498 114.664 80.7058 114.664C81.3538 114.664 81.8738 114.872 82.2658 115.288C82.6578 115.696 82.8538 116.276 82.8538 117.028V121H81.8938V117.196C81.8938 116.628 81.7698 116.208 81.5218 115.936C81.2738 115.656 80.9098 115.516 80.4298 115.516C80.2378 115.516 80.0498 115.54 79.8658 115.588C79.6818 115.636 79.5178 115.708 79.3738 115.804C79.2298 115.9 79.1138 116.024 79.0258 116.176C78.9378 116.328 78.8938 116.504 78.8938 116.704V121H77.9338Z" fill="#6F7380"/>
<path d="M46.608 21.544H46.496V31H45.28V19.832H47.184L50.992 29.192H51.104V19.832H52.32V31H50.416L46.608 21.544ZM58.3938 31.192C57.8178 31.192 57.2951 31.0907 56.8258 30.888C56.3671 30.6853 55.9724 30.3973 55.6418 30.024C55.3218 29.64 55.0764 29.1867 54.9058 28.664C54.7351 28.1307 54.6497 27.5333 54.6497 26.872C54.6497 26.2213 54.7351 25.6293 54.9058 25.096C55.0764 24.5627 55.3218 24.1093 55.6418 23.736C55.9724 23.352 56.3671 23.0587 56.8258 22.856C57.2951 22.6533 57.8178 22.552 58.3938 22.552C58.9698 22.552 59.4871 22.6533 59.9458 22.856C60.4151 23.0587 60.8098 23.352 61.1298 23.736C61.4604 24.1093 61.7111 24.5627 61.8818 25.096C62.0524 25.6293 62.1378 26.2213 62.1378 26.872C62.1378 27.5333 62.0524 28.1307 61.8818 28.664C61.7111 29.1867 61.4604 29.64 61.1298 30.024C60.8098 30.3973 60.4151 30.6853 59.9458 30.888C59.4871 31.0907 58.9698 31.192 58.3938 31.192ZM58.3938 30.088C59.1084 30.088 59.6844 29.8747 60.1218 29.448C60.5591 29.0213 60.7778 28.36 60.7778 27.464V26.28C60.7778 25.384 60.5591 24.7227 60.1218 24.296C59.6844 23.8693 59.1084 23.656 58.3938 23.656C57.6791 23.656 57.1031 23.8693 56.6658 24.296C56.2284 24.7227 56.0098 25.384 56.0098 26.28V27.464C56.0098 28.36 56.2284 29.0213 56.6658 29.448C57.1031 29.8747 57.6791 30.088 58.3938 30.088ZM68.3875 31C67.7582 31 67.2942 30.824 66.9955 30.472C66.7075 30.12 66.5635 29.6667 66.5635 29.112V23.832H63.8115V22.744H65.8595C66.1368 22.744 66.3288 22.6907 66.4355 22.584C66.5528 22.4667 66.6115 22.2693 66.6115 21.992V19.832H67.8435V22.744H71.6035V23.832H67.8435V29.912H71.6035V31H68.3875ZM83.815 31V19.832H90.855V21H85.159V24.76H90.375V25.928H85.159V31H83.815ZM96.7688 31.192C96.1928 31.192 95.6701 31.0907 95.2008 30.888C94.7421 30.6853 94.3474 30.3973 94.0168 30.024C93.6968 29.64 93.4514 29.1867 93.2808 28.664C93.1101 28.1307 93.0247 27.5333 93.0247 26.872C93.0247 26.2213 93.1101 25.6293 93.2808 25.096C93.4514 24.5627 93.6968 24.1093 94.0168 23.736C94.3474 23.352 94.7421 23.0587 95.2008 22.856C95.6701 22.6533 96.1928 22.552 96.7688 22.552C97.3448 22.552 97.8621 22.6533 98.3208 22.856C98.7901 23.0587 99.1848 23.352 99.5048 23.736C99.8354 24.1093 100.086 24.5627 100.257 25.096C100.427 25.6293 100.513 26.2213 100.513 26.872C100.513 27.5333 100.427 28.1307 100.257 28.664C100.086 29.1867 99.8354 29.64 99.5048 30.024C99.1848 30.3973 98.7901 30.6853 98.3208 30.888C97.8621 31.0907 97.3448 31.192 96.7688 31.192ZM96.7688 30.088C97.4834 30.088 98.0594 29.8747 98.4968 29.448C98.9341 29.0213 99.1528 28.36 99.1528 27.464V26.28C99.1528 25.384 98.9341 24.7227 98.4968 24.296C98.0594 23.8693 97.4834 23.656 96.7688 23.656C96.0541 23.656 95.4781 23.8693 95.0408 24.296C94.6034 24.7227 94.3848 25.384 94.3848 26.28V27.464C94.3848 28.36 94.6034 29.0213 95.0408 29.448C95.4781 29.8747 96.0541 30.088 96.7688 30.088ZM108.315 29.656H108.251C108.165 29.8587 108.059 30.056 107.931 30.248C107.803 30.4293 107.643 30.5893 107.451 30.728C107.269 30.8667 107.051 30.9787 106.795 31.064C106.539 31.1493 106.24 31.192 105.899 31.192C105.035 31.192 104.341 30.92 103.819 30.376C103.296 29.8213 103.035 29.0427 103.035 28.04V22.744H104.315V27.816C104.315 28.5733 104.48 29.1387 104.811 29.512C105.141 29.8747 105.627 30.056 106.266 30.056C106.523 30.056 106.773 30.024 107.019 29.96C107.264 29.896 107.483 29.8 107.675 29.672C107.867 29.544 108.021 29.384 108.139 29.192C108.256 28.9893 108.315 28.7493 108.315 28.472V22.744H109.595V31H108.315V29.656ZM112.724 31V22.744H114.004V24.088H114.068C114.154 23.8853 114.26 23.6933 114.388 23.512C114.516 23.32 114.671 23.1547 114.852 23.016C115.044 22.8773 115.268 22.7653 115.524 22.68C115.78 22.5947 116.079 22.552 116.42 22.552C117.284 22.552 117.978 22.8293 118.5 23.384C119.023 23.928 119.284 24.7013 119.284 25.704V31H118.004V25.928C118.004 25.1707 117.839 24.6107 117.508 24.248C117.178 23.8747 116.692 23.688 116.052 23.688C115.796 23.688 115.546 23.72 115.3 23.784C115.055 23.848 114.836 23.944 114.644 24.072C114.452 24.2 114.298 24.3653 114.18 24.568C114.063 24.7707 114.004 25.0053 114.004 25.272V31H112.724ZM127.55 29.656H127.486C126.953 30.68 126.105 31.192 124.942 31.192C123.929 31.192 123.134 30.8133 122.558 30.056C121.993 29.2987 121.71 28.2373 121.71 26.872C121.71 25.5067 121.993 24.4453 122.558 23.688C123.134 22.9307 123.929 22.552 124.942 22.552C126.105 22.552 126.953 23.064 127.486 24.088H127.55V19.16H128.83V31H127.55V29.656ZM125.438 30.056C125.726 30.056 125.998 30.0187 126.254 29.944C126.51 29.8693 126.734 29.7627 126.926 29.624C127.118 29.4747 127.267 29.2987 127.374 29.096C127.491 28.8827 127.55 28.6373 127.55 28.36V25.384C127.55 25.1067 127.491 24.8667 127.374 24.664C127.267 24.4507 127.118 24.2747 126.926 24.136C126.734 23.9867 126.51 23.8747 126.254 23.8C125.998 23.7253 125.726 23.688 125.438 23.688C124.691 23.688 124.11 23.9173 123.694 24.376C123.289 24.824 123.086 25.4213 123.086 26.168V27.576C123.086 28.3227 123.289 28.9253 123.694 29.384C124.11 29.832 124.691 30.056 125.438 30.056Z" fill="#55575F"/>
<path d="M34.3281 22.3372C34.0952 22.3372 33.8624 22.3795 33.6508 22.4854L25.5238 14.3513C25.6085 14.1395 25.672 13.9276 25.672 13.6734C25.672 12.7414 24.9101 12 24 12C23.0899 12 22.328 12.7626 22.328 13.6734C22.328 13.9064 22.3704 14.1395 22.4762 14.3513L14.3492 22.4643C14.1376 22.3795 13.9259 22.316 13.672 22.316C12.7407 22.316 12 23.0786 12 23.9894C12 24.9003 12.7619 25.6628 13.672 25.6628C13.9048 25.6628 14.1376 25.6205 14.3492 25.5146L22.4762 33.6487C22.3915 33.8606 22.328 34.0723 22.328 34.3265C22.328 35.2586 23.0899 36 24 36C24.9101 36 25.672 35.2374 25.672 34.3265C25.672 34.0935 25.6296 33.8606 25.5238 33.6487L33.6508 25.5146C33.8624 25.5993 34.074 25.6628 34.3281 25.6628C35.2593 25.6628 36 24.9003 36 23.9894C36 23.0786 35.2593 22.3372 34.3281 22.3372ZM32.7618 23.4175L29.6085 24.1801C29.3334 23.8199 28.9101 23.5658 28.4232 23.5658C28.0635 23.5658 27.746 23.6929 27.4921 23.9047L25.4391 22.9515C25.4391 22.9303 25.4391 22.9303 25.4391 22.9091C25.4391 22.316 25.1005 21.8288 24.5926 21.5958V15.241C24.6138 15.241 24.6349 15.2198 24.6561 15.2198L32.783 23.3539C32.783 23.3539 32.7618 23.3963 32.7618 23.4175ZM24 32.6744C23.9577 32.6744 23.9153 32.6744 23.873 32.6744L20.6984 25.9594C20.9101 25.7052 21.037 25.3875 21.037 25.0274L23.1111 24.053C23.3651 24.2436 23.6825 24.3707 24 24.3707C24.3386 24.3707 24.6561 24.2436 24.9101 24.053L26.9841 25.0274C26.9841 25.0274 26.9841 25.0274 26.9841 25.0485C26.9841 25.4086 27.1111 25.7264 27.3228 25.9806L24.1058 32.6744C24.0847 32.6744 24.0423 32.6744 24 32.6744ZM23.3862 15.241V21.5958C22.8995 21.8288 22.5397 22.3372 22.5397 22.9091C22.5397 22.9303 22.5397 22.9515 22.5397 22.9515L20.4868 23.9047C20.2328 23.6929 19.9153 23.5658 19.5556 23.5658C19.0688 23.5658 18.6455 23.7988 18.3704 24.1801L15.2381 23.4175C15.2381 23.3963 15.2169 23.3751 15.2169 23.3327L23.3439 15.1986C23.3439 15.2198 23.3651 15.2198 23.3862 15.241ZM15.2169 24.6673L18.1587 25.3875C18.328 26.0229 18.8783 26.4889 19.5767 26.4889H19.5979L21.9259 31.4034L15.2169 24.6673ZM28.4021 26.4889H28.4232C29.1005 26.4889 29.672 26.0229 29.8412 25.3875L32.783 24.6673C32.783 24.6673 32.783 24.6673 32.783 24.6884L26.0741 31.4034L28.4021 26.4889Z" fill="#55575F"/>
<g filter="url(#filter0_b_681_8236)">
<rect x="283" y="8" width="85" height="32" rx="8" fill="#23252C"/>
</g>
<g filter="url(#filter1_b_681_8236)">
<rect x="191" y="8" width="84" height="32" rx="8" fill="#23252C"/>
</g>
<path d="M226.907 23.0923H225.799C225.756 22.8556 225.677 22.6473 225.561 22.4673C225.445 22.2874 225.303 22.1347 225.135 22.0092C224.967 21.8838 224.779 21.7891 224.57 21.7251C224.364 21.6612 224.145 21.6293 223.913 21.6293C223.494 21.6293 223.119 21.7346 222.788 21.9453C222.458 22.156 222.198 22.465 222.006 22.8722C221.817 23.2794 221.722 23.7765 221.722 24.3636C221.722 24.9555 221.817 25.455 222.006 25.8622C222.198 26.2694 222.46 26.5772 222.791 26.7855C223.123 26.9938 223.495 27.098 223.91 27.098C224.139 27.098 224.357 27.0672 224.563 27.0057C224.771 26.9418 224.96 26.8482 225.128 26.7251C225.296 26.602 225.438 26.4517 225.554 26.2741C225.672 26.0942 225.754 25.8883 225.799 25.6562L226.907 25.6598C226.848 26.0173 226.733 26.3464 226.562 26.647C226.394 26.9453 226.178 27.2034 225.913 27.4212C225.65 27.6366 225.349 27.8035 225.011 27.9219C224.672 28.0402 224.303 28.0994 223.903 28.0994C223.273 28.0994 222.712 27.9503 222.219 27.652C221.727 27.3513 221.339 26.9216 221.055 26.3629C220.773 25.8042 220.632 25.1378 220.632 24.3636C220.632 23.5871 220.774 22.9207 221.058 22.3643C221.342 21.8056 221.73 21.3771 222.223 21.0788C222.715 20.7782 223.275 20.6278 223.903 20.6278C224.289 20.6278 224.648 20.6835 224.982 20.7947C225.318 20.9036 225.62 21.0646 225.888 21.2777C226.155 21.4884 226.377 21.7464 226.552 22.0518C226.727 22.3549 226.845 22.7017 226.907 23.0923ZM229.196 20.7273V28H228.135V20.7273H229.196ZM232.212 28.1207C231.867 28.1207 231.554 28.0568 231.275 27.929C230.995 27.7988 230.774 27.6106 230.611 27.3643C230.45 27.1181 230.369 26.8163 230.369 26.4588C230.369 26.151 230.428 25.8977 230.547 25.6989C230.665 25.5 230.825 25.3426 231.026 25.2266C231.227 25.1106 231.452 25.023 231.701 24.9638C231.949 24.9046 232.203 24.8596 232.461 24.8288C232.788 24.791 233.053 24.7602 233.256 24.7365C233.46 24.7105 233.608 24.669 233.7 24.6122C233.793 24.5554 233.839 24.4631 233.839 24.3352V24.3104C233.839 24.0002 233.751 23.7599 233.576 23.5895C233.403 23.419 233.145 23.3338 232.802 23.3338C232.444 23.3338 232.163 23.4131 231.957 23.5717C231.753 23.728 231.612 23.902 231.534 24.0938L230.536 23.8665C230.655 23.535 230.827 23.2675 231.055 23.0639C231.284 22.858 231.548 22.7088 231.847 22.6165C232.145 22.5218 232.458 22.4744 232.788 22.4744C233.005 22.4744 233.236 22.5005 233.48 22.5526C233.726 22.6023 233.956 22.6946 234.169 22.8295C234.384 22.9645 234.561 23.1574 234.698 23.4084C234.835 23.657 234.904 23.9801 234.904 24.3778V28H233.867V27.2543H233.824C233.756 27.3916 233.653 27.5265 233.516 27.6591C233.378 27.7917 233.202 27.9018 232.986 27.9893C232.771 28.0769 232.513 28.1207 232.212 28.1207ZM232.443 27.2685C232.737 27.2685 232.988 27.2105 233.196 27.0945C233.407 26.9785 233.566 26.8269 233.675 26.6399C233.787 26.4505 233.842 26.2481 233.842 26.0327V25.3295C233.804 25.3674 233.731 25.4029 233.622 25.4361C233.516 25.4669 233.394 25.4941 233.256 25.5178C233.119 25.5391 232.985 25.5592 232.855 25.5781C232.725 25.5947 232.616 25.6089 232.528 25.6207C232.322 25.6468 232.134 25.6906 231.964 25.7521C231.796 25.8137 231.661 25.9025 231.559 26.0185C231.459 26.1321 231.41 26.2836 231.41 26.473C231.41 26.7358 231.507 26.9347 231.701 27.0696C231.895 27.2022 232.142 27.2685 232.443 27.2685ZM236.318 28V22.5455H237.38V28H236.318ZM236.854 21.7038C236.67 21.7038 236.511 21.6423 236.379 21.5192C236.248 21.3937 236.183 21.2446 236.183 21.0717C236.183 20.8965 236.248 20.7474 236.379 20.6243C236.511 20.4988 236.67 20.4361 236.854 20.4361C237.039 20.4361 237.197 20.4988 237.327 20.6243C237.459 20.7474 237.526 20.8965 237.526 21.0717C237.526 21.2446 237.459 21.3937 237.327 21.5192C237.197 21.6423 237.039 21.7038 236.854 21.7038ZM238.809 28V22.5455H239.828V23.4332H239.895C240.009 23.1326 240.195 22.8982 240.453 22.7301C240.711 22.5597 241.02 22.4744 241.38 22.4744C241.744 22.4744 242.05 22.5597 242.296 22.7301C242.544 22.9006 242.728 23.1349 242.846 23.4332H242.903C243.033 23.142 243.24 22.91 243.524 22.7372C243.809 22.562 244.147 22.4744 244.54 22.4744C245.035 22.4744 245.438 22.6295 245.751 22.9396C246.066 23.2498 246.223 23.7173 246.223 24.3423V28H245.161V24.4418C245.161 24.0724 245.061 23.8049 244.86 23.6392C244.658 23.4735 244.418 23.3906 244.139 23.3906C243.793 23.3906 243.524 23.4972 243.333 23.7102C243.141 23.9209 243.045 24.192 243.045 24.5234V28H241.987V24.3743C241.987 24.0784 241.894 23.8404 241.71 23.6605C241.525 23.4806 241.285 23.3906 240.989 23.3906C240.788 23.3906 240.602 23.4439 240.431 23.5504C240.263 23.6546 240.127 23.8002 240.023 23.9872C239.921 24.1742 239.87 24.3909 239.87 24.6371V28H238.809Z" fill="#2E2F33"/>
<defs>
<filter id="filter0_b_681_8236" x="265" y="-10" width="121" height="68" filterUnits="userSpaceOnUse" color-interpolation-filters="sRGB">
<feFlood flood-opacity="0" result="BackgroundImageFix"/>
<feGaussianBlur in="BackgroundImage" stdDeviation="9"/>
<feComposite in2="SourceAlpha" operator="in" result="effect1_backgroundBlur_681_8236"/>
<feBlend mode="normal" in="SourceGraphic" in2="effect1_backgroundBlur_681_8236" result="shape"/>
</filter>
<filter id="filter1_b_681_8236" x="173" y="-10" width="120" height="68" filterUnits="userSpaceOnUse" color-interpolation-filters="sRGB">
<feFlood flood-opacity="0" result="BackgroundImageFix"/>
<feGaussianBlur in="BackgroundImage" stdDeviation="9"/>
<feComposite in2="SourceAlpha" operator="in" result="effect1_backgroundBlur_681_8236"/>
<feBlend mode="normal" in="SourceGraphic" in2="effect1_backgroundBlur_681_8236" result="shape"/>
</filter>
</defs>
</svg>
