<svg width="1088" height="48" viewBox="0 0 1088 48" fill="none" xmlns="http://www.w3.org/2000/svg">
<path d="M261.86 37.856V36.848H265.34V37.856H261.86Z" fill="#55575F"/>
<path d="M262.916 17L260.432 8.62402H261.5L262.688 12.812L263.588 15.98H263.648L264.548 12.812L265.736 8.62402H266.768L264.284 17H262.916Z" fill="#55575F"/>
<path d="M270.903 17.144C270.455 17.144 270.051 17.068 269.691 16.916C269.339 16.764 269.035 16.548 268.779 16.268C268.531 15.98 268.339 15.64 268.203 15.248C268.067 14.848 267.999 14.404 267.999 13.916C267.999 13.42 268.067 12.972 268.203 12.572C268.347 12.172 268.543 11.832 268.791 11.552C269.039 11.264 269.335 11.044 269.679 10.892C270.031 10.74 270.419 10.664 270.843 10.664C271.259 10.664 271.635 10.74 271.971 10.892C272.315 11.044 272.607 11.256 272.847 11.528C273.087 11.792 273.271 12.108 273.399 12.476C273.527 12.844 273.591 13.248 273.591 13.688V14.144H269.007V14.432C269.007 14.704 269.051 14.956 269.139 15.188C269.227 15.42 269.351 15.62 269.511 15.788C269.679 15.956 269.879 16.088 270.111 16.184C270.351 16.272 270.615 16.316 270.903 16.316C271.319 16.316 271.679 16.22 271.983 16.028C272.287 15.836 272.519 15.572 272.679 15.236L273.387 15.716C273.203 16.132 272.895 16.476 272.463 16.748C272.039 17.012 271.519 17.144 270.903 17.144ZM270.843 11.456C270.579 11.456 270.335 11.504 270.111 11.6C269.887 11.696 269.691 11.828 269.523 11.996C269.363 12.164 269.235 12.364 269.139 12.596C269.051 12.82 269.007 13.068 269.007 13.34V13.424H272.559V13.292C272.559 13.02 272.515 12.772 272.427 12.548C272.347 12.324 272.231 12.132 272.079 11.972C271.935 11.804 271.755 11.676 271.539 11.588C271.331 11.5 271.099 11.456 270.843 11.456Z" fill="#55575F"/>
<path d="M278.063 17.144C277.415 17.144 276.855 17.036 276.383 16.82C275.919 16.596 275.523 16.3 275.195 15.932L275.843 15.368C276.139 15.68 276.463 15.92 276.815 16.088C277.167 16.256 277.591 16.34 278.087 16.34C278.567 16.34 278.959 16.256 279.263 16.088C279.575 15.912 279.731 15.64 279.731 15.272C279.731 15.112 279.699 14.98 279.635 14.876C279.579 14.764 279.499 14.676 279.395 14.612C279.291 14.548 279.175 14.5 279.047 14.468C278.919 14.428 278.783 14.396 278.639 14.372L277.667 14.228C277.451 14.196 277.215 14.152 276.959 14.096C276.711 14.04 276.483 13.952 276.275 13.832C276.067 13.704 275.891 13.536 275.747 13.328C275.611 13.12 275.543 12.848 275.543 12.512C275.543 12.2 275.603 11.932 275.723 11.708C275.851 11.476 276.027 11.284 276.251 11.132C276.475 10.972 276.739 10.856 277.043 10.784C277.347 10.704 277.679 10.664 278.039 10.664C278.599 10.664 279.083 10.752 279.491 10.928C279.907 11.104 280.263 11.348 280.559 11.66L279.935 12.248C279.863 12.16 279.771 12.072 279.659 11.984C279.555 11.888 279.423 11.804 279.263 11.732C279.111 11.652 278.931 11.588 278.723 11.54C278.515 11.492 278.275 11.468 278.003 11.468C277.515 11.468 277.139 11.552 276.875 11.72C276.619 11.888 276.491 12.132 276.491 12.452C276.491 12.612 276.519 12.748 276.575 12.86C276.639 12.964 276.723 13.048 276.827 13.112C276.931 13.176 277.047 13.228 277.175 13.268C277.311 13.3 277.447 13.328 277.583 13.352L278.555 13.496C278.779 13.528 279.015 13.572 279.263 13.628C279.511 13.684 279.739 13.776 279.947 13.904C280.155 14.024 280.327 14.188 280.463 14.396C280.607 14.604 280.679 14.876 280.679 15.212C280.679 15.828 280.439 16.304 279.959 16.64C279.487 16.976 278.855 17.144 278.063 17.144Z" fill="#55575F"/>
<path d="M285.486 17C285.014 17 284.666 16.868 284.442 16.604C284.226 16.34 284.118 16 284.118 15.584V11.624H282.054V10.808H283.59C283.798 10.808 283.942 10.768 284.022 10.688C284.11 10.6 284.154 10.452 284.154 10.244V8.62402H285.078V10.808H287.898V11.624H285.078V16.184H287.898V17H285.486Z" fill="#55575F"/>
<path d="M301.749 17L301.041 14.612H298.101L297.393 17H296.349L298.917 8.62402H300.249L302.817 17H301.749ZM299.625 9.69202H299.517L298.341 13.736H300.801L299.625 9.69202Z" fill="#55575F"/>
<path d="M303.82 17V10.808H304.708V11.528H304.756C304.852 11.288 304.988 11.084 305.164 10.916C305.34 10.748 305.6 10.664 305.944 10.664C306.304 10.664 306.572 10.756 306.748 10.94C306.924 11.116 307.032 11.348 307.072 11.636H307.108C307.22 11.356 307.38 11.124 307.588 10.94C307.796 10.756 308.084 10.664 308.452 10.664C308.956 10.664 309.292 10.84 309.46 11.192C309.636 11.544 309.724 12.048 309.724 12.704V17H308.836V12.86C308.836 12.332 308.78 11.968 308.668 11.768C308.564 11.56 308.368 11.456 308.08 11.456C307.824 11.456 307.616 11.54 307.456 11.708C307.296 11.868 307.216 12.116 307.216 12.452V17H306.328V12.86C306.328 12.332 306.272 11.968 306.16 11.768C306.056 11.56 305.864 11.456 305.584 11.456C305.328 11.456 305.116 11.54 304.948 11.708C304.788 11.868 304.708 12.116 304.708 12.452V17H303.82Z" fill="#55575F"/>
<path d="M313.967 17.144C313.535 17.144 313.143 17.068 312.791 16.916C312.447 16.764 312.151 16.548 311.903 16.268C311.663 15.98 311.479 15.64 311.351 15.248C311.223 14.848 311.159 14.4 311.159 13.904C311.159 13.416 311.223 12.972 311.351 12.572C311.479 12.172 311.663 11.832 311.903 11.552C312.151 11.264 312.447 11.044 312.791 10.892C313.143 10.74 313.535 10.664 313.967 10.664C314.399 10.664 314.787 10.74 315.131 10.892C315.483 11.044 315.779 11.264 316.019 11.552C316.267 11.832 316.455 12.172 316.583 12.572C316.711 12.972 316.775 13.416 316.775 13.904C316.775 14.4 316.711 14.848 316.583 15.248C316.455 15.64 316.267 15.98 316.019 16.268C315.779 16.548 315.483 16.764 315.131 16.916C314.787 17.068 314.399 17.144 313.967 17.144ZM313.967 16.316C314.503 16.316 314.935 16.156 315.263 15.836C315.591 15.516 315.755 15.02 315.755 14.348V13.46C315.755 12.788 315.591 12.292 315.263 11.972C314.935 11.652 314.503 11.492 313.967 11.492C313.431 11.492 312.999 11.652 312.671 11.972C312.343 12.292 312.179 12.788 312.179 13.46V14.348C312.179 15.02 312.343 15.516 312.671 15.836C312.999 16.156 313.431 16.316 313.967 16.316Z" fill="#55575F"/>
<path d="M322.627 15.992H322.579C322.515 16.144 322.435 16.292 322.339 16.436C322.243 16.572 322.123 16.692 321.979 16.796C321.843 16.9 321.679 16.984 321.487 17.048C321.295 17.112 321.071 17.144 320.815 17.144C320.167 17.144 319.647 16.94 319.255 16.532C318.863 16.116 318.667 15.532 318.667 14.78V10.808H319.627V14.612C319.627 15.18 319.751 15.604 319.999 15.884C320.247 16.156 320.611 16.292 321.091 16.292C321.283 16.292 321.471 16.268 321.655 16.22C321.839 16.172 322.003 16.1 322.147 16.004C322.291 15.908 322.407 15.788 322.495 15.644C322.583 15.492 322.627 15.312 322.627 15.104V10.808H323.587V17H322.627V15.992Z" fill="#55575F"/>
<path d="M325.934 17V10.808H326.894V11.816H326.942C327.006 11.664 327.086 11.52 327.182 11.384C327.278 11.24 327.394 11.116 327.53 11.012C327.674 10.908 327.842 10.824 328.034 10.76C328.226 10.696 328.45 10.664 328.706 10.664C329.354 10.664 329.874 10.872 330.266 11.288C330.658 11.696 330.854 12.276 330.854 13.028V17H329.894V13.196C329.894 12.628 329.77 12.208 329.522 11.936C329.274 11.656 328.91 11.516 328.43 11.516C328.238 11.516 328.05 11.54 327.866 11.588C327.682 11.636 327.518 11.708 327.374 11.804C327.23 11.9 327.114 12.024 327.026 12.176C326.938 12.328 326.894 12.504 326.894 12.704V17H325.934Z" fill="#55575F"/>
<path d="M335.853 17C335.381 17 335.033 16.868 334.809 16.604C334.593 16.34 334.485 16 334.485 15.584V11.624H332.421V10.808H333.957C334.165 10.808 334.309 10.768 334.389 10.688C334.477 10.6 334.521 10.452 334.521 10.244V8.62402H335.445V10.808H338.265V11.624H335.445V16.184H338.265V17H335.853Z" fill="#55575F"/>
<path d="M461.86 37.856V36.848H465.34V37.856H461.86Z" fill="#55575F"/>
<path d="M462.916 17L460.432 8.62399H461.5L462.688 12.812L463.588 15.98H463.648L464.548 12.812L465.736 8.62399H466.768L464.284 17H462.916Z" fill="#55575F"/>
<path d="M470.903 17.144C470.455 17.144 470.051 17.068 469.691 16.916C469.339 16.764 469.035 16.548 468.779 16.268C468.531 15.98 468.339 15.64 468.203 15.248C468.067 14.848 467.999 14.404 467.999 13.916C467.999 13.42 468.067 12.972 468.203 12.572C468.347 12.172 468.543 11.832 468.791 11.552C469.039 11.264 469.335 11.044 469.679 10.892C470.031 10.74 470.419 10.664 470.843 10.664C471.259 10.664 471.635 10.74 471.971 10.892C472.315 11.044 472.607 11.256 472.847 11.528C473.087 11.792 473.271 12.108 473.399 12.476C473.527 12.844 473.591 13.248 473.591 13.688V14.144H469.007V14.432C469.007 14.704 469.051 14.956 469.139 15.188C469.227 15.42 469.351 15.62 469.511 15.788C469.679 15.956 469.879 16.088 470.111 16.184C470.351 16.272 470.615 16.316 470.903 16.316C471.319 16.316 471.679 16.22 471.983 16.028C472.287 15.836 472.519 15.572 472.679 15.236L473.387 15.716C473.203 16.132 472.895 16.476 472.463 16.748C472.039 17.012 471.519 17.144 470.903 17.144ZM470.843 11.456C470.579 11.456 470.335 11.504 470.111 11.6C469.887 11.696 469.691 11.828 469.523 11.996C469.363 12.164 469.235 12.364 469.139 12.596C469.051 12.82 469.007 13.068 469.007 13.34V13.424H472.559V13.292C472.559 13.02 472.515 12.772 472.427 12.548C472.347 12.324 472.231 12.132 472.079 11.972C471.935 11.804 471.755 11.676 471.539 11.588C471.331 11.5 471.099 11.456 470.843 11.456Z" fill="#55575F"/>
<path d="M478.063 17.144C477.415 17.144 476.855 17.036 476.383 16.82C475.919 16.596 475.523 16.3 475.195 15.932L475.843 15.368C476.139 15.68 476.463 15.92 476.815 16.088C477.167 16.256 477.591 16.34 478.087 16.34C478.567 16.34 478.959 16.256 479.263 16.088C479.575 15.912 479.731 15.64 479.731 15.272C479.731 15.112 479.699 14.98 479.635 14.876C479.579 14.764 479.499 14.676 479.395 14.612C479.291 14.548 479.175 14.5 479.047 14.468C478.919 14.428 478.783 14.396 478.639 14.372L477.667 14.228C477.451 14.196 477.215 14.152 476.959 14.096C476.711 14.04 476.483 13.952 476.275 13.832C476.067 13.704 475.891 13.536 475.747 13.328C475.611 13.12 475.543 12.848 475.543 12.512C475.543 12.2 475.603 11.932 475.723 11.708C475.851 11.476 476.027 11.284 476.251 11.132C476.475 10.972 476.739 10.856 477.043 10.784C477.347 10.704 477.679 10.664 478.039 10.664C478.599 10.664 479.083 10.752 479.491 10.928C479.907 11.104 480.263 11.348 480.559 11.66L479.935 12.248C479.863 12.16 479.771 12.072 479.659 11.984C479.555 11.888 479.423 11.804 479.263 11.732C479.111 11.652 478.931 11.588 478.723 11.54C478.515 11.492 478.275 11.468 478.003 11.468C477.515 11.468 477.139 11.552 476.875 11.72C476.619 11.888 476.491 12.132 476.491 12.452C476.491 12.612 476.519 12.748 476.575 12.86C476.639 12.964 476.723 13.048 476.827 13.112C476.931 13.176 477.047 13.228 477.175 13.268C477.311 13.3 477.447 13.328 477.583 13.352L478.555 13.496C478.779 13.528 479.015 13.572 479.263 13.628C479.511 13.684 479.739 13.776 479.947 13.904C480.155 14.024 480.327 14.188 480.463 14.396C480.607 14.604 480.679 14.876 480.679 15.212C480.679 15.828 480.439 16.304 479.959 16.64C479.487 16.976 478.855 17.144 478.063 17.144Z" fill="#55575F"/>
<path d="M485.486 17C485.014 17 484.666 16.868 484.442 16.604C484.226 16.34 484.118 16 484.118 15.584V11.624H482.054V10.808H483.59C483.798 10.808 483.942 10.768 484.022 10.688C484.11 10.6 484.154 10.452 484.154 10.244V8.62399H485.078V10.808H487.898V11.624H485.078V16.184H487.898V17H485.486Z" fill="#55575F"/>
<path d="M498.893 17L496.409 8.62399H497.477L498.665 12.812L499.565 15.98H499.625L500.525 12.812L501.713 8.62399H502.745L500.261 17H498.893Z" fill="#55575F"/>
<path d="M509.112 17C508.736 17 508.468 16.904 508.308 16.712C508.148 16.52 508.048 16.28 508.008 15.992H507.948C507.812 16.352 507.592 16.636 507.288 16.844C506.992 17.044 506.592 17.144 506.088 17.144C505.44 17.144 504.924 16.976 504.54 16.64C504.156 16.304 503.964 15.844 503.964 15.26C503.964 14.684 504.172 14.24 504.588 13.928C505.012 13.616 505.692 13.46 506.628 13.46H507.948V12.848C507.948 12.392 507.82 12.052 507.564 11.828C507.308 11.596 506.944 11.48 506.472 11.48C506.056 11.48 505.716 11.564 505.452 11.732C505.188 11.892 504.976 12.112 504.816 12.392L504.168 11.912C504.248 11.752 504.356 11.596 504.492 11.444C504.628 11.292 504.796 11.16 504.996 11.048C505.196 10.928 505.424 10.836 505.68 10.772C505.936 10.7 506.22 10.664 506.532 10.664C507.26 10.664 507.836 10.848 508.26 11.216C508.692 11.584 508.908 12.096 508.908 12.752V16.16H509.772V17H509.112ZM506.256 16.34C506.504 16.34 506.728 16.312 506.928 16.256C507.136 16.192 507.316 16.112 507.468 16.016C507.62 15.912 507.736 15.792 507.816 15.656C507.904 15.512 507.948 15.36 507.948 15.2V14.18H506.628C506.052 14.18 505.632 14.26 505.368 14.42C505.104 14.58 504.972 14.812 504.972 15.116V15.368C504.972 15.688 505.084 15.932 505.308 16.1C505.54 16.26 505.856 16.34 506.256 16.34Z" fill="#55575F"/>
<path d="M511.327 16.184H513.487V8.93599H511.327V8.12H514.447V16.184H516.607V17H511.327V16.184Z" fill="#55575F"/>
<path d="M522.627 15.992H522.579C522.515 16.144 522.435 16.292 522.339 16.436C522.243 16.572 522.123 16.692 521.979 16.796C521.843 16.9 521.679 16.984 521.487 17.048C521.295 17.112 521.071 17.144 520.815 17.144C520.167 17.144 519.647 16.94 519.255 16.532C518.863 16.116 518.667 15.532 518.667 14.78V10.808H519.627V14.612C519.627 15.18 519.751 15.604 519.999 15.884C520.247 16.156 520.611 16.292 521.091 16.292C521.283 16.292 521.471 16.268 521.655 16.22C521.839 16.172 522.003 16.1 522.147 16.004C522.291 15.908 522.407 15.788 522.495 15.644C522.583 15.492 522.627 15.312 522.627 15.104V10.808H523.587V17H522.627V15.992Z" fill="#55575F"/>
<path d="M528.466 17.144C528.018 17.144 527.614 17.068 527.254 16.916C526.902 16.764 526.598 16.548 526.342 16.268C526.094 15.98 525.902 15.64 525.766 15.248C525.63 14.848 525.562 14.404 525.562 13.916C525.562 13.42 525.63 12.972 525.766 12.572C525.91 12.172 526.106 11.832 526.354 11.552C526.602 11.264 526.898 11.044 527.242 10.892C527.594 10.74 527.982 10.664 528.406 10.664C528.822 10.664 529.198 10.74 529.534 10.892C529.878 11.044 530.17 11.256 530.41 11.528C530.65 11.792 530.834 12.108 530.962 12.476C531.09 12.844 531.154 13.248 531.154 13.688V14.144H526.57V14.432C526.57 14.704 526.614 14.956 526.702 15.188C526.79 15.42 526.914 15.62 527.074 15.788C527.242 15.956 527.442 16.088 527.674 16.184C527.914 16.272 528.178 16.316 528.466 16.316C528.882 16.316 529.242 16.22 529.546 16.028C529.85 15.836 530.082 15.572 530.242 15.236L530.95 15.716C530.766 16.132 530.458 16.476 530.026 16.748C529.602 17.012 529.082 17.144 528.466 17.144ZM528.406 11.456C528.142 11.456 527.898 11.504 527.674 11.6C527.45 11.696 527.254 11.828 527.086 11.996C526.926 12.164 526.798 12.364 526.702 12.596C526.614 12.82 526.57 13.068 526.57 13.34V13.424H530.122V13.292C530.122 13.02 530.078 12.772 529.99 12.548C529.91 12.324 529.794 12.132 529.642 11.972C529.498 11.804 529.318 11.676 529.102 11.588C528.894 11.5 528.662 11.456 528.406 11.456Z" fill="#55575F"/>
<path d="M653.86 37.856V36.848H657.34V37.856H653.86Z" fill="#55575F"/>
<path d="M653.08 17V8.62405H658.24V9.50005H654.088V12.32H658.096V13.196H654.088V16.124H658.24V17H653.08Z" fill="#55575F"/>
<path d="M659.927 17L662.231 13.856L659.987 10.808H661.139L662.075 12.116L662.819 13.148H662.867L663.587 12.116L664.511 10.808H665.615L663.347 13.844L665.675 17H664.523L663.479 15.548L662.771 14.564H662.723L662.039 15.548L661.031 17H659.927Z" fill="#55575F"/>
<path d="M667.531 10.808H668.491V11.816H668.539C668.939 11.048 669.575 10.664 670.447 10.664C671.207 10.664 671.799 10.948 672.223 11.516C672.655 12.084 672.871 12.88 672.871 13.904C672.871 14.928 672.655 15.724 672.223 16.292C671.799 16.86 671.207 17.144 670.447 17.144C669.575 17.144 668.939 16.76 668.539 15.992H668.491V19.4H667.531V10.808ZM670.075 16.292C670.635 16.292 671.067 16.124 671.371 15.788C671.683 15.444 671.839 14.992 671.839 14.432V13.376C671.839 12.816 671.683 12.368 671.371 12.032C671.067 11.688 670.635 11.516 670.075 11.516C669.859 11.516 669.655 11.544 669.463 11.6C669.271 11.656 669.103 11.74 668.959 11.852C668.815 11.956 668.699 12.088 668.611 12.248C668.531 12.4 668.491 12.58 668.491 12.788V15.02C668.491 15.228 668.531 15.412 668.611 15.572C668.699 15.724 668.815 15.856 668.959 15.968C669.103 16.072 669.271 16.152 669.463 16.208C669.655 16.264 669.859 16.292 670.075 16.292Z" fill="#55575F"/>
<path d="M677.57 9.44005C677.29 9.44005 677.094 9.38405 676.982 9.27205C676.87 9.15205 676.814 9.00405 676.814 8.82805V8.63605C676.814 8.46005 676.87 8.31605 676.982 8.20405C677.094 8.08405 677.29 8.02405 677.57 8.02405C677.85 8.02405 678.046 8.08405 678.158 8.20405C678.27 8.31605 678.326 8.46005 678.326 8.63605V8.82805C678.326 9.00405 678.27 9.15205 678.158 9.27205C678.046 9.38405 677.85 9.44005 677.57 9.44005ZM674.858 16.184H677.09V11.624H674.858V10.808H678.05V16.184H680.138V17H674.858V16.184Z" fill="#55575F"/>
<path d="M681.705 16.184H683.517V11.624H681.705V10.808H684.477V12.368H684.537C684.665 11.88 684.905 11.5 685.257 11.228C685.617 10.948 686.073 10.808 686.625 10.808H687.489V11.768H686.325C685.773 11.768 685.325 11.928 684.981 12.248C684.645 12.568 684.477 12.988 684.477 13.508V16.184H686.877V17H681.705V16.184Z" fill="#55575F"/>
<path d="M693.917 17C693.541 17 693.273 16.904 693.113 16.712C692.953 16.52 692.853 16.28 692.813 15.992H692.753C692.617 16.352 692.397 16.636 692.093 16.844C691.797 17.044 691.397 17.144 690.893 17.144C690.245 17.144 689.729 16.976 689.345 16.64C688.961 16.304 688.769 15.844 688.769 15.26C688.769 14.684 688.977 14.24 689.393 13.928C689.817 13.616 690.497 13.46 691.433 13.46H692.753V12.848C692.753 12.392 692.625 12.052 692.369 11.828C692.113 11.596 691.749 11.48 691.277 11.48C690.861 11.48 690.521 11.564 690.257 11.732C689.993 11.892 689.781 12.112 689.621 12.392L688.973 11.912C689.053 11.752 689.161 11.596 689.297 11.444C689.433 11.292 689.601 11.16 689.801 11.048C690.001 10.928 690.229 10.836 690.485 10.772C690.741 10.7 691.025 10.664 691.337 10.664C692.065 10.664 692.641 10.848 693.065 11.216C693.497 11.584 693.713 12.096 693.713 12.752V16.16H694.577V17H693.917ZM691.061 16.34C691.309 16.34 691.533 16.312 691.733 16.256C691.941 16.192 692.121 16.112 692.273 16.016C692.425 15.912 692.541 15.792 692.621 15.656C692.709 15.512 692.753 15.36 692.753 15.2V14.18H691.433C690.857 14.18 690.437 14.26 690.173 14.42C689.909 14.58 689.777 14.812 689.777 15.116V15.368C689.777 15.688 689.889 15.932 690.113 16.1C690.345 16.26 690.661 16.34 691.061 16.34Z" fill="#55575F"/>
<path d="M699.072 17C698.6 17 698.252 16.868 698.028 16.604C697.812 16.34 697.704 16 697.704 15.584V11.624H695.64V10.808H697.176C697.384 10.808 697.528 10.768 697.608 10.688C697.696 10.6 697.74 10.452 697.74 10.244V8.62405H698.664V10.808H701.484V11.624H698.664V16.184H701.484V17H699.072Z" fill="#55575F"/>
<path d="M706.351 9.44005C706.071 9.44005 705.875 9.38405 705.763 9.27205C705.651 9.15205 705.595 9.00405 705.595 8.82805V8.63605C705.595 8.46005 705.651 8.31605 705.763 8.20405C705.875 8.08405 706.071 8.02405 706.351 8.02405C706.631 8.02405 706.827 8.08405 706.939 8.20405C707.051 8.31605 707.107 8.46005 707.107 8.63605V8.82805C707.107 9.00405 707.051 9.15205 706.939 9.27205C706.827 9.38405 706.631 9.44005 706.351 9.44005ZM703.639 16.184H705.871V11.624H703.639V10.808H706.831V16.184H708.919V17H703.639V16.184Z" fill="#55575F"/>
<path d="M713.163 17.144C712.731 17.144 712.339 17.068 711.987 16.916C711.643 16.764 711.347 16.548 711.099 16.268C710.859 15.98 710.675 15.64 710.547 15.248C710.419 14.848 710.355 14.4 710.355 13.904C710.355 13.416 710.419 12.972 710.547 12.572C710.675 12.172 710.859 11.832 711.099 11.552C711.347 11.264 711.643 11.044 711.987 10.892C712.339 10.74 712.731 10.664 713.163 10.664C713.595 10.664 713.983 10.74 714.327 10.892C714.679 11.044 714.975 11.264 715.215 11.552C715.463 11.832 715.651 12.172 715.779 12.572C715.907 12.972 715.971 13.416 715.971 13.904C715.971 14.4 715.907 14.848 715.779 15.248C715.651 15.64 715.463 15.98 715.215 16.268C714.975 16.548 714.679 16.764 714.327 16.916C713.983 17.068 713.595 17.144 713.163 17.144ZM713.163 16.316C713.699 16.316 714.131 16.156 714.459 15.836C714.787 15.516 714.951 15.02 714.951 14.348V13.46C714.951 12.788 714.787 12.292 714.459 11.972C714.131 11.652 713.699 11.492 713.163 11.492C712.627 11.492 712.195 11.652 711.867 11.972C711.539 12.292 711.375 12.788 711.375 13.46V14.348C711.375 15.02 711.539 15.516 711.867 15.836C712.195 16.156 712.627 16.316 713.163 16.316Z" fill="#55575F"/>
<path d="M717.934 17V10.808H718.894V11.816H718.942C719.006 11.664 719.086 11.52 719.182 11.384C719.278 11.24 719.394 11.116 719.53 11.012C719.674 10.908 719.842 10.824 720.034 10.76C720.226 10.696 720.45 10.664 720.706 10.664C721.354 10.664 721.874 10.872 722.266 11.288C722.658 11.696 722.854 12.276 722.854 13.028V17H721.894V13.196C721.894 12.628 721.77 12.208 721.522 11.936C721.274 11.656 720.91 11.516 720.43 11.516C720.238 11.516 720.05 11.54 719.866 11.588C719.682 11.636 719.518 11.708 719.374 11.804C719.23 11.9 719.114 12.024 719.026 12.176C718.938 12.328 718.894 12.504 718.894 12.704V17H717.934Z" fill="#55575F"/>
<path d="M39.9839 31L37.0239 22.744H38.3199L39.5039 26.2L40.7839 29.928H40.8479L42.1279 26.2L43.3119 22.744H44.5759L41.6159 31H39.9839Z" fill="#55575F"/>
<path d="M50.5377 31.192C49.9403 31.192 49.4017 31.0907 48.9217 30.888C48.4523 30.6854 48.047 30.3974 47.7057 30.024C47.375 29.64 47.119 29.1867 46.9377 28.664C46.7563 28.1307 46.6657 27.5387 46.6657 26.888C46.6657 26.2267 46.7563 25.6294 46.9377 25.096C47.1297 24.5627 47.391 24.1094 47.7217 23.736C48.0523 23.352 48.447 23.0587 48.9057 22.856C49.375 22.6534 49.8923 22.552 50.4577 22.552C51.0123 22.552 51.5137 22.6534 51.9617 22.856C52.4203 23.0587 52.8097 23.3414 53.1297 23.704C53.4497 24.056 53.695 24.4774 53.8657 24.968C54.0363 25.4587 54.1217 25.9974 54.1217 26.584V27.192H48.0097V27.576C48.0097 27.9387 48.0683 28.2747 48.1857 28.584C48.303 28.8934 48.4683 29.16 48.6817 29.384C48.9057 29.608 49.1723 29.784 49.4817 29.912C49.8017 30.0294 50.1537 30.088 50.5377 30.088C51.0923 30.088 51.5723 29.96 51.9777 29.704C52.383 29.448 52.6923 29.096 52.9057 28.648L53.8497 29.288C53.6043 29.8427 53.1937 30.3014 52.6177 30.664C52.0523 31.016 51.359 31.192 50.5377 31.192ZM50.4577 23.608C50.1057 23.608 49.7803 23.672 49.4817 23.8C49.183 23.928 48.9217 24.104 48.6977 24.328C48.4843 24.552 48.3137 24.8187 48.1857 25.128C48.0683 25.4267 48.0097 25.7574 48.0097 26.12V26.232H52.7457V26.056C52.7457 25.6934 52.687 25.3627 52.5697 25.064C52.463 24.7654 52.3083 24.5094 52.1057 24.296C51.9137 24.072 51.6737 23.9014 51.3857 23.784C51.1083 23.6667 50.799 23.608 50.4577 23.608Z" fill="#55575F"/>
<path d="M56.7074 19.832H59.8274C61.1928 19.832 62.2114 20.3014 62.8834 21.24C63.5554 22.1787 63.8914 23.5707 63.8914 25.416C63.8914 27.2614 63.5554 28.6534 62.8834 29.592C62.2114 30.5307 61.1928 31 59.8274 31H56.7074V19.832ZM59.7634 29.832C60.6594 29.832 61.3314 29.5227 61.7794 28.904C62.2381 28.2854 62.4674 27.4107 62.4674 26.28V24.552C62.4674 23.4214 62.2381 22.5467 61.7794 21.928C61.3314 21.3094 60.6594 21 59.7634 21H58.0514V29.832H59.7634Z" fill="#55575F"/>
<path d="M66.2212 31V19.832H73.1012V21H67.5652V24.76H72.9092V25.928H67.5652V29.832H73.1012V31H66.2212Z" fill="#55575F"/>
<path d="M76.9989 19.832V26.536C76.9989 27.08 77.0149 27.5654 77.0469 27.992C77.0789 28.4187 77.1643 28.7867 77.3029 29.096C77.4416 29.3947 77.6549 29.624 77.9429 29.784C78.2416 29.944 78.6523 30.024 79.1749 30.024C79.6976 30.024 80.1029 29.944 80.3909 29.784C80.6896 29.624 80.9083 29.3947 81.0469 29.096C81.1856 28.7867 81.2709 28.4187 81.3029 27.992C81.3349 27.5654 81.3509 27.08 81.3509 26.536V19.832H82.6949V26.216C82.6949 27.048 82.6523 27.7734 82.5669 28.392C82.4923 29.0107 82.3269 29.528 82.0709 29.944C81.8256 30.36 81.4683 30.6747 80.9989 30.888C80.5403 31.0907 79.9323 31.192 79.1749 31.192C78.4176 31.192 77.8043 31.0907 77.3349 30.888C76.8763 30.6747 76.5189 30.36 76.2629 29.944C76.0176 29.528 75.8523 29.0107 75.7669 28.392C75.6923 27.7734 75.6549 27.048 75.6549 26.216V19.832H76.9989Z" fill="#55575F"/>
<path d="M88.7367 31.192C87.734 31.192 86.9127 31.0107 86.2727 30.648C85.6327 30.2747 85.1047 29.8 84.6887 29.224L85.6647 28.424C86.102 28.968 86.5607 29.3734 87.0407 29.64C87.5313 29.9067 88.1127 30.04 88.7847 30.04C89.5953 30.04 90.214 29.8534 90.6407 29.48C91.0673 29.1067 91.2807 28.584 91.2807 27.912C91.2807 27.368 91.126 26.9467 90.8167 26.648C90.5073 26.3387 89.9687 26.12 89.2007 25.992L87.9527 25.784C87.4087 25.688 86.95 25.544 86.5767 25.352C86.214 25.16 85.9207 24.9307 85.6967 24.664C85.4727 24.3867 85.3127 24.088 85.2167 23.768C85.1207 23.4374 85.0727 23.096 85.0727 22.744C85.0727 21.72 85.4087 20.9467 86.0807 20.424C86.7527 19.9014 87.6593 19.64 88.8007 19.64C89.6967 19.64 90.4487 19.7894 91.0567 20.088C91.6753 20.3867 92.1713 20.808 92.5447 21.352L91.6007 22.168C91.2913 21.7627 90.918 21.432 90.4807 21.176C90.0433 20.92 89.478 20.792 88.7847 20.792C88.0273 20.792 87.446 20.952 87.0407 21.272C86.6353 21.592 86.4327 22.072 86.4327 22.712C86.4327 23.2134 86.582 23.624 86.8807 23.944C87.19 24.2534 87.7393 24.4774 88.5287 24.616L89.7287 24.824C90.2727 24.92 90.7313 25.064 91.1047 25.256C91.478 25.448 91.7767 25.6774 92.0007 25.944C92.2353 26.2107 92.4007 26.5094 92.4967 26.84C92.5927 27.1707 92.6407 27.5174 92.6407 27.88C92.6407 28.9147 92.2993 29.7254 91.6167 30.312C90.9447 30.8987 89.9847 31.192 88.7367 31.192Z" fill="#55575F"/>
<path d="M105.764 21.544H105.652V31H104.436V19.832H106.34L110.148 29.192H110.26V19.832H111.476V31H109.572L105.764 21.544Z" fill="#55575F"/>
<path d="M117.55 31.192C116.974 31.192 116.451 31.0907 115.982 30.888C115.523 30.6854 115.129 30.3974 114.798 30.024C114.478 29.64 114.233 29.1867 114.062 28.664C113.891 28.1307 113.806 27.5334 113.806 26.872C113.806 26.2214 113.891 25.6294 114.062 25.096C114.233 24.5627 114.478 24.1094 114.798 23.736C115.129 23.352 115.523 23.0587 115.982 22.856C116.451 22.6534 116.974 22.552 117.55 22.552C118.126 22.552 118.643 22.6534 119.102 22.856C119.571 23.0587 119.966 23.352 120.286 23.736C120.617 24.1094 120.867 24.5627 121.038 25.096C121.209 25.6294 121.294 26.2214 121.294 26.872C121.294 27.5334 121.209 28.1307 121.038 28.664C120.867 29.1867 120.617 29.64 120.286 30.024C119.966 30.3974 119.571 30.6854 119.102 30.888C118.643 31.0907 118.126 31.192 117.55 31.192ZM117.55 30.088C118.265 30.088 118.841 29.8747 119.278 29.448C119.715 29.0214 119.934 28.36 119.934 27.464V26.28C119.934 25.384 119.715 24.7227 119.278 24.296C118.841 23.8694 118.265 23.656 117.55 23.656C116.835 23.656 116.259 23.8694 115.822 24.296C115.385 24.7227 115.166 25.384 115.166 26.28V27.464C115.166 28.36 115.385 29.0214 115.822 29.448C116.259 29.8747 116.835 30.088 117.55 30.088Z" fill="#55575F"/>
<path d="M127.544 31C126.914 31 126.45 30.824 126.152 30.472C125.864 30.12 125.72 29.6667 125.72 29.112V23.832H122.968V22.744H125.016C125.293 22.744 125.485 22.6907 125.592 22.584C125.709 22.4667 125.768 22.2694 125.768 21.992V19.832H127V22.744H130.76V23.832H127V29.912H130.76V31H127.544Z" fill="#55575F"/>
<path d="M142.971 31V19.832H150.011V21H144.315V24.76H149.531V25.928H144.315V31H142.971Z" fill="#55575F"/>
<path d="M155.925 31.192C155.349 31.192 154.826 31.0907 154.357 30.888C153.898 30.6854 153.504 30.3974 153.173 30.024C152.853 29.64 152.608 29.1867 152.437 28.664C152.266 28.1307 152.181 27.5334 152.181 26.872C152.181 26.2214 152.266 25.6294 152.437 25.096C152.608 24.5627 152.853 24.1094 153.173 23.736C153.504 23.352 153.898 23.0587 154.357 22.856C154.826 22.6534 155.349 22.552 155.925 22.552C156.501 22.552 157.018 22.6534 157.477 22.856C157.946 23.0587 158.341 23.352 158.661 23.736C158.992 24.1094 159.242 24.5627 159.413 25.096C159.584 25.6294 159.669 26.2214 159.669 26.872C159.669 27.5334 159.584 28.1307 159.413 28.664C159.242 29.1867 158.992 29.64 158.661 30.024C158.341 30.3974 157.946 30.6854 157.477 30.888C157.018 31.0907 156.501 31.192 155.925 31.192ZM155.925 30.088C156.64 30.088 157.216 29.8747 157.653 29.448C158.09 29.0214 158.309 28.36 158.309 27.464V26.28C158.309 25.384 158.09 24.7227 157.653 24.296C157.216 23.8694 156.64 23.656 155.925 23.656C155.21 23.656 154.634 23.8694 154.197 24.296C153.76 24.7227 153.541 25.384 153.541 26.28V27.464C153.541 28.36 153.76 29.0214 154.197 29.448C154.634 29.8747 155.21 30.088 155.925 30.088Z" fill="#55575F"/>
<path d="M167.471 29.656H167.407C167.321 29.8587 167.215 30.056 167.087 30.248C166.959 30.4294 166.799 30.5894 166.607 30.728C166.425 30.8667 166.207 30.9787 165.951 31.064C165.695 31.1494 165.396 31.192 165.055 31.192C164.191 31.192 163.497 30.92 162.975 30.376C162.452 29.8214 162.191 29.0427 162.191 28.04V22.744H163.471V27.816C163.471 28.5734 163.636 29.1387 163.967 29.512C164.297 29.8747 164.783 30.056 165.423 30.056C165.679 30.056 165.929 30.024 166.175 29.96C166.42 29.896 166.639 29.8 166.831 29.672C167.023 29.544 167.177 29.384 167.295 29.192C167.412 28.9894 167.471 28.7494 167.471 28.472V22.744H168.751V31H167.471V29.656Z" fill="#55575F"/>
<path d="M171.88 31V22.744H173.16V24.088H173.224C173.31 23.8854 173.416 23.6934 173.544 23.512C173.672 23.32 173.827 23.1547 174.008 23.016C174.2 22.8774 174.424 22.7654 174.68 22.68C174.936 22.5947 175.235 22.552 175.576 22.552C176.44 22.552 177.134 22.8294 177.656 23.384C178.179 23.928 178.44 24.7014 178.44 25.704V31H177.16V25.928C177.16 25.1707 176.995 24.6107 176.664 24.248C176.334 23.8747 175.848 23.688 175.208 23.688C174.952 23.688 174.702 23.72 174.456 23.784C174.211 23.848 173.992 23.944 173.8 24.072C173.608 24.2 173.454 24.3654 173.336 24.568C173.219 24.7707 173.16 25.0054 173.16 25.272V31H171.88Z" fill="#55575F"/>
<path d="M186.706 29.656H186.642C186.109 30.68 185.261 31.192 184.098 31.192C183.085 31.192 182.29 30.8134 181.714 30.056C181.149 29.2987 180.866 28.2374 180.866 26.872C180.866 25.5067 181.149 24.4454 181.714 23.688C182.29 22.9307 183.085 22.552 184.098 22.552C185.261 22.552 186.109 23.064 186.642 24.088H186.706V19.16H187.986V31H186.706V29.656ZM184.594 30.056C184.882 30.056 185.154 30.0187 185.41 29.944C185.666 29.8694 185.89 29.7627 186.082 29.624C186.274 29.4747 186.423 29.2987 186.53 29.096C186.647 28.8827 186.706 28.6374 186.706 28.36V25.384C186.706 25.1067 186.647 24.8667 186.53 24.664C186.423 24.4507 186.274 24.2747 186.082 24.136C185.89 23.9867 185.666 23.8747 185.41 23.8C185.154 23.7254 184.882 23.688 184.594 23.688C183.848 23.688 183.266 23.9174 182.85 24.376C182.445 24.824 182.242 25.4214 182.242 26.168V27.576C182.242 28.3227 182.445 28.9254 182.85 29.384C183.266 29.832 183.848 30.056 184.594 30.056Z" fill="#55575F"/>
<path d="M22.3281 22.3372C22.0952 22.3372 21.8624 22.3795 21.6508 22.4854L13.5238 14.3513C13.6085 14.1395 13.672 13.9276 13.672 13.6734C13.672 12.7414 12.9101 12 12 12C11.0899 12 10.328 12.7626 10.328 13.6734C10.328 13.9064 10.3704 14.1395 10.4762 14.3513L2.3492 22.4643C2.13756 22.3795 1.92592 22.316 1.67196 22.316C0.740741 22.316 0 23.0786 0 23.9894C0 24.9003 0.761905 25.6628 1.67196 25.6628C1.90476 25.6628 2.13756 25.6205 2.3492 25.5146L10.4762 33.6487C10.3915 33.8606 10.328 34.0723 10.328 34.3265C10.328 35.2586 11.0899 36 12 36C12.9101 36 13.672 35.2374 13.672 34.3265C13.672 34.0935 13.6296 33.8606 13.5238 33.6487L21.6508 25.5146C21.8624 25.5993 22.074 25.6628 22.3281 25.6628C23.2593 25.6628 24 24.9003 24 23.9894C24 23.0786 23.2593 22.3372 22.3281 22.3372ZM20.7618 23.4175L17.6085 24.1801C17.3334 23.8199 16.9101 23.5658 16.4232 23.5658C16.0635 23.5658 15.746 23.6929 15.4921 23.9047L13.4391 22.9515C13.4391 22.9303 13.4391 22.9303 13.4391 22.9091C13.4391 22.316 13.1005 21.8288 12.5926 21.5958V15.241C12.6138 15.241 12.6349 15.2198 12.6561 15.2198L20.783 23.3539C20.783 23.3539 20.7618 23.3963 20.7618 23.4175ZM12 32.6744C11.9577 32.6744 11.9153 32.6744 11.873 32.6744L8.69841 25.9594C8.91005 25.7052 9.03704 25.3875 9.03704 25.0274L11.1111 24.053C11.3651 24.2436 11.6825 24.3707 12 24.3707C12.3386 24.3707 12.6561 24.2436 12.9101 24.053L14.9841 25.0274C14.9841 25.0274 14.9841 25.0274 14.9841 25.0485C14.9841 25.4086 15.1111 25.7264 15.3228 25.9806L12.1058 32.6744C12.0847 32.6744 12.0423 32.6744 12 32.6744ZM11.3862 15.241V21.5958C10.8995 21.8288 10.5397 22.3372 10.5397 22.9091C10.5397 22.9303 10.5397 22.9515 10.5397 22.9515L8.48677 23.9047C8.23281 23.6929 7.91534 23.5658 7.55556 23.5658C7.06878 23.5658 6.6455 23.7988 6.37037 24.1801L3.2381 23.4175C3.2381 23.3963 3.21694 23.3751 3.21694 23.3327L11.3439 15.1986C11.3439 15.2198 11.3651 15.2198 11.3862 15.241ZM3.21694 24.6673L6.15873 25.3875C6.32805 26.0229 6.8783 26.4889 7.57671 26.4889H7.59789L9.92593 31.4034L3.21694 24.6673ZM16.4021 26.4889H16.4232C17.1005 26.4889 17.672 26.0229 17.8412 25.3875L20.783 24.6673C20.783 24.6673 20.783 24.6673 20.783 24.6884L14.0741 31.4034L16.4021 26.4889Z" fill="#55575F"/>
<g filter="url(#filter0_b_738_4620)">
<rect x="816" width="128" height="48" rx="8" fill="#23252C"/>
</g>
<path d="M869.256 22.4886H867.131C867.07 22.1402 866.958 21.8314 866.795 21.5625C866.633 21.2898 866.43 21.0587 866.188 20.8693C865.945 20.6799 865.669 20.5379 865.358 20.4432C865.051 20.3447 864.72 20.2955 864.364 20.2955C863.731 20.2955 863.17 20.4545 862.682 20.7727C862.193 21.0871 861.811 21.5492 861.534 22.1591C861.258 22.7652 861.119 23.5057 861.119 24.3807C861.119 25.2708 861.258 26.0208 861.534 26.6307C861.814 27.2367 862.197 27.6951 862.682 28.0057C863.17 28.3125 863.729 28.4659 864.358 28.4659C864.706 28.4659 865.032 28.4205 865.335 28.3295C865.642 28.2348 865.917 28.0966 866.159 27.9148C866.405 27.733 866.612 27.5095 866.778 27.2443C866.949 26.9792 867.066 26.6761 867.131 26.3352L869.256 26.3466C869.176 26.8996 869.004 27.4186 868.739 27.9034C868.477 28.3883 868.134 28.8163 867.71 29.1875C867.286 29.5549 866.79 29.8428 866.222 30.0511C865.653 30.2557 865.023 30.358 864.33 30.358C863.307 30.358 862.394 30.1212 861.591 29.6477C860.788 29.1742 860.155 28.4905 859.693 27.5966C859.231 26.7027 859 25.6307 859 24.3807C859 23.1269 859.233 22.0549 859.699 21.1648C860.165 20.2708 860.799 19.5871 861.602 19.1136C862.405 18.6402 863.314 18.4034 864.33 18.4034C864.977 18.4034 865.58 18.4943 866.136 18.6761C866.693 18.858 867.189 19.125 867.625 19.4773C868.061 19.8258 868.419 20.2538 868.699 20.7614C868.983 21.2652 869.169 21.8409 869.256 22.4886Z" fill="#2E2F33"/>
<path d="M873.152 18.5625V30.1989H871.095V18.5625H873.152Z" fill="#2E2F33"/>
<path d="M877.778 30.375C877.225 30.375 876.727 30.2765 876.284 30.0795C875.845 29.8788 875.496 29.5833 875.239 29.1932C874.985 28.803 874.858 28.322 874.858 27.75C874.858 27.2576 874.949 26.8504 875.131 26.5284C875.313 26.2064 875.561 25.9489 875.875 25.7557C876.189 25.5625 876.544 25.4167 876.938 25.3182C877.335 25.2159 877.746 25.142 878.17 25.0966C878.682 25.0436 879.097 24.9962 879.415 24.9545C879.733 24.9091 879.964 24.8409 880.108 24.75C880.256 24.6553 880.33 24.5095 880.33 24.3125V24.2784C880.33 23.8504 880.203 23.5189 879.949 23.2841C879.695 23.0492 879.33 22.9318 878.852 22.9318C878.348 22.9318 877.949 23.0417 877.653 23.2614C877.362 23.4811 877.165 23.7405 877.062 24.0398L875.142 23.767C875.294 23.2367 875.544 22.7936 875.892 22.4375C876.241 22.0777 876.667 21.8087 877.17 21.6307C877.674 21.4489 878.231 21.358 878.841 21.358C879.261 21.358 879.68 21.4072 880.097 21.5057C880.513 21.6042 880.894 21.767 881.239 21.9943C881.583 22.2178 881.86 22.5227 882.068 22.9091C882.28 23.2955 882.386 23.7784 882.386 24.358V30.1989H880.409V29H880.341C880.216 29.2424 880.04 29.4697 879.812 29.6818C879.589 29.8902 879.307 30.0587 878.966 30.1875C878.629 30.3125 878.233 30.375 877.778 30.375ZM878.312 28.8636C878.725 28.8636 879.083 28.7822 879.386 28.6193C879.689 28.4527 879.922 28.233 880.085 27.9602C880.252 27.6875 880.335 27.3902 880.335 27.0682V26.0398C880.271 26.0928 880.161 26.142 880.006 26.1875C879.854 26.233 879.684 26.2727 879.494 26.3068C879.305 26.3409 879.117 26.3712 878.932 26.3977C878.746 26.4242 878.585 26.447 878.449 26.4659C878.142 26.5076 877.867 26.5758 877.625 26.6705C877.383 26.7652 877.191 26.8977 877.051 27.0682C876.911 27.2348 876.841 27.4508 876.841 27.7159C876.841 28.0947 876.979 28.3807 877.256 28.5739C877.532 28.767 877.884 28.8636 878.312 28.8636Z" fill="#2E2F33"/>
<path d="M884.455 30.1989V21.4716H886.511V30.1989H884.455ZM885.489 20.233C885.163 20.233 884.883 20.125 884.648 19.9091C884.413 19.6894 884.295 19.4261 884.295 19.1193C884.295 18.8087 884.413 18.5455 884.648 18.3295C884.883 18.1098 885.163 18 885.489 18C885.818 18 886.098 18.1098 886.33 18.3295C886.564 18.5455 886.682 18.8087 886.682 19.1193C886.682 19.4261 886.564 19.6894 886.33 19.9091C886.098 20.125 885.818 20.233 885.489 20.233Z" fill="#2E2F33"/>
<path d="M888.626 30.1989V21.4716H890.592V22.9545H890.695C890.876 22.4545 891.178 22.0644 891.598 21.7841C892.018 21.5 892.52 21.358 893.104 21.358C893.695 21.358 894.193 21.5019 894.598 21.7898C895.007 22.0739 895.295 22.4621 895.462 22.9545H895.553C895.746 22.4697 896.071 22.0833 896.53 21.7955C896.992 21.5038 897.539 21.358 898.172 21.358C898.975 21.358 899.63 21.6117 900.138 22.1193C900.645 22.6269 900.899 23.3674 900.899 24.3409V30.1989H898.837V24.6591C898.837 24.1174 898.693 23.7216 898.405 23.4716C898.117 23.2178 897.765 23.0909 897.348 23.0909C896.852 23.0909 896.464 23.2462 896.183 23.5568C895.907 23.8636 895.768 24.2633 895.768 24.7557V30.1989H893.751V24.5739C893.751 24.1231 893.615 23.7633 893.342 23.4943C893.073 23.2254 892.721 23.0909 892.286 23.0909C891.99 23.0909 891.721 23.1667 891.479 23.3182C891.236 23.4659 891.043 23.6761 890.899 23.9489C890.755 24.2178 890.683 24.5322 890.683 24.892V30.1989H888.626Z" fill="#2E2F33"/>
<g filter="url(#filter1_b_738_4620)">
<rect x="960" width="128" height="48" rx="8" fill="#23252C"/>
</g>
<defs>
<filter id="filter0_b_738_4620" x="798" y="-18" width="164" height="84" filterUnits="userSpaceOnUse" color-interpolation-filters="sRGB">
<feFlood flood-opacity="0" result="BackgroundImageFix"/>
<feGaussianBlur in="BackgroundImage" stdDeviation="9"/>
<feComposite in2="SourceAlpha" operator="in" result="effect1_backgroundBlur_738_4620"/>
<feBlend mode="normal" in="SourceGraphic" in2="effect1_backgroundBlur_738_4620" result="shape"/>
</filter>
<filter id="filter1_b_738_4620" x="942" y="-18" width="164" height="84" filterUnits="userSpaceOnUse" color-interpolation-filters="sRGB">
<feFlood flood-opacity="0" result="BackgroundImageFix"/>
<feGaussianBlur in="BackgroundImage" stdDeviation="9"/>
<feComposite in2="SourceAlpha" operator="in" result="effect1_backgroundBlur_738_4620"/>
<feBlend mode="normal" in="SourceGraphic" in2="effect1_backgroundBlur_738_4620" result="shape"/>
</filter>
</defs>
</svg>
