<svg width="502" height="457" viewBox="0 0 502 457" fill="none" xmlns="http://www.w3.org/2000/svg">
<mask id="mask0_272_13560" style="mask-type:alpha" maskUnits="userSpaceOnUse" x="0" y="0" width="502" height="457">
<rect width="502" height="457" rx="12" fill="#101116"/>
</mask>
<g mask="url(#mask0_272_13560)">
<path d="M426.714 244V466" stroke="#14161C" stroke-width="2" stroke-miterlimit="10"/>
<path d="M458.429 244V466" stroke="#14161C" stroke-width="2" stroke-miterlimit="10"/>
<path d="M490.143 244V466" stroke="#14161C" stroke-width="2" stroke-miterlimit="10"/>
<path d="M617 275.714H395" stroke="#14161C" stroke-width="2" stroke-miterlimit="10"/>
<path d="M617 307.429H395" stroke="#14161C" stroke-width="2" stroke-miterlimit="10"/>
<path d="M617 339.143H395" stroke="#14161C" stroke-width="2" stroke-miterlimit="10"/>
<path d="M617 370.857H395" stroke="#14161C" stroke-width="2" stroke-miterlimit="10"/>
<path d="M617 402.572H395" stroke="#14161C" stroke-width="2" stroke-miterlimit="10"/>
<path d="M617 434.286H395" stroke="#14161C" stroke-width="2" stroke-miterlimit="10"/>
<path d="M426.714 434V656" stroke="#14161C" stroke-width="2" stroke-miterlimit="10"/>
<path d="M458.429 434V656" stroke="#14161C" stroke-width="2" stroke-miterlimit="10"/>
<path d="M490.143 434V656" stroke="#14161C" stroke-width="2" stroke-miterlimit="10"/>
<path d="M46.7144 244V466" stroke="#14161C" stroke-width="2" stroke-miterlimit="10"/>
<path d="M78.4294 244V466" stroke="#14161C" stroke-width="2" stroke-miterlimit="10"/>
<path d="M110.143 244V466" stroke="#14161C" stroke-width="2" stroke-miterlimit="10"/>
<path d="M141.857 244V466" stroke="#14161C" stroke-width="2" stroke-miterlimit="10"/>
<path d="M173.571 244V466" stroke="#14161C" stroke-width="2" stroke-miterlimit="10"/>
<path d="M205.285 244V466" stroke="#14161C" stroke-width="2" stroke-miterlimit="10"/>
<path d="M237 275.714H15" stroke="#14161C" stroke-width="2" stroke-miterlimit="10"/>
<path d="M237 307.429H15" stroke="#14161C" stroke-width="2" stroke-miterlimit="10"/>
<path d="M237 339.143H15" stroke="#14161C" stroke-width="2" stroke-miterlimit="10"/>
<path d="M237 370.857H15" stroke="#14161C" stroke-width="2" stroke-miterlimit="10"/>
<path d="M237 402.572H15" stroke="#14161C" stroke-width="2" stroke-miterlimit="10"/>
<path d="M237 434.286H15" stroke="#14161C" stroke-width="2" stroke-miterlimit="10"/>
<path d="M46.7144 434V656" stroke="#14161C" stroke-width="2" stroke-miterlimit="10"/>
<path d="M78.4294 434V656" stroke="#14161C" stroke-width="2" stroke-miterlimit="10"/>
<path d="M110.143 434V656" stroke="#14161C" stroke-width="2" stroke-miterlimit="10"/>
<path d="M141.857 434V656" stroke="#14161C" stroke-width="2" stroke-miterlimit="10"/>
<path d="M173.571 434V656" stroke="#14161C" stroke-width="2" stroke-miterlimit="10"/>
<path d="M205.285 434V656" stroke="#14161C" stroke-width="2" stroke-miterlimit="10"/>
<path d="M237.714 244V466" stroke="#14161C" stroke-width="2" stroke-miterlimit="10"/>
<path d="M269.429 244V466" stroke="#14161C" stroke-width="2" stroke-miterlimit="10"/>
<path d="M301.143 244V466" stroke="#14161C" stroke-width="2" stroke-miterlimit="10"/>
<path d="M332.857 244V466" stroke="#14161C" stroke-width="2" stroke-miterlimit="10"/>
<path d="M364.571 244V466" stroke="#14161C" stroke-width="2" stroke-miterlimit="10"/>
<path d="M396.285 244V466" stroke="#14161C" stroke-width="2" stroke-miterlimit="10"/>
<path d="M428 275.714H206" stroke="#14161C" stroke-width="2" stroke-miterlimit="10"/>
<path d="M428 307.429H206" stroke="#14161C" stroke-width="2" stroke-miterlimit="10"/>
<path d="M428 339.143H206" stroke="#14161C" stroke-width="2" stroke-miterlimit="10"/>
<path d="M428 370.857H206" stroke="#14161C" stroke-width="2" stroke-miterlimit="10"/>
<path d="M428 402.572H206" stroke="#14161C" stroke-width="2" stroke-miterlimit="10"/>
<path d="M428 434.286H206" stroke="#14161C" stroke-width="2" stroke-miterlimit="10"/>
<path d="M237.714 434V656" stroke="#14161C" stroke-width="2" stroke-miterlimit="10"/>
<path d="M269.429 434V656" stroke="#14161C" stroke-width="2" stroke-miterlimit="10"/>
<path d="M301.143 434V656" stroke="#14161C" stroke-width="2" stroke-miterlimit="10"/>
<path d="M332.857 434V656" stroke="#14161C" stroke-width="2" stroke-miterlimit="10"/>
<path d="M364.571 434V656" stroke="#14161C" stroke-width="2" stroke-miterlimit="10"/>
<path d="M396.285 434V656" stroke="#14161C" stroke-width="2" stroke-miterlimit="10"/>
<path d="M426.714 -135V87" stroke="#14161C" stroke-width="2" stroke-miterlimit="10"/>
<path d="M458.429 -135V87" stroke="#14161C" stroke-width="2" stroke-miterlimit="10"/>
<path d="M490.143 -135V87" stroke="#14161C" stroke-width="2" stroke-miterlimit="10"/>
<path d="M617 23.5715H395" stroke="#14161C" stroke-width="2" stroke-miterlimit="10"/>
<path d="M617 55.2856H395" stroke="#14161C" stroke-width="2" stroke-miterlimit="10"/>
<path d="M426.714 55V277" stroke="#14161C" stroke-width="2" stroke-miterlimit="10"/>
<path d="M458.429 55V277" stroke="#14161C" stroke-width="2" stroke-miterlimit="10"/>
<path d="M490.143 55V277" stroke="#14161C" stroke-width="2" stroke-miterlimit="10"/>
<path d="M617 86.7144H395" stroke="#14161C" stroke-width="2" stroke-miterlimit="10"/>
<path d="M617 118.429H395" stroke="#14161C" stroke-width="2" stroke-miterlimit="10"/>
<path d="M617 150.143H395" stroke="#14161C" stroke-width="2" stroke-miterlimit="10"/>
<path d="M617 181.857H395" stroke="#14161C" stroke-width="2" stroke-miterlimit="10"/>
<path d="M617 213.571H395" stroke="#14161C" stroke-width="2" stroke-miterlimit="10"/>
<path d="M617 245.286H395" stroke="#14161C" stroke-width="2" stroke-miterlimit="10"/>
<path d="M46.7144 -135V87" stroke="#14161C" stroke-width="2" stroke-miterlimit="10"/>
<path d="M78.4294 -135V87" stroke="#14161C" stroke-width="2" stroke-miterlimit="10"/>
<path d="M110.143 -135V87" stroke="#14161C" stroke-width="2" stroke-miterlimit="10"/>
<path d="M141.857 -135V87" stroke="#14161C" stroke-width="2" stroke-miterlimit="10"/>
<path d="M173.571 -135V87" stroke="#14161C" stroke-width="2" stroke-miterlimit="10"/>
<path d="M205.285 -135V87" stroke="#14161C" stroke-width="2" stroke-miterlimit="10"/>
<path d="M237 23.5715H15" stroke="#14161C" stroke-width="2" stroke-miterlimit="10"/>
<path d="M237 55.2856H15" stroke="#14161C" stroke-width="2" stroke-miterlimit="10"/>
<path d="M46.7144 55V277" stroke="#14161C" stroke-width="2" stroke-miterlimit="10"/>
<path d="M78.4294 55V277" stroke="#14161C" stroke-width="2" stroke-miterlimit="10"/>
<path d="M110.143 55V277" stroke="#14161C" stroke-width="2" stroke-miterlimit="10"/>
<path d="M141.857 55V277" stroke="#14161C" stroke-width="2" stroke-miterlimit="10"/>
<path d="M173.571 55V277" stroke="#14161C" stroke-width="2" stroke-miterlimit="10"/>
<path d="M205.285 55V277" stroke="#14161C" stroke-width="2" stroke-miterlimit="10"/>
<path d="M237 86.7144H15" stroke="#14161C" stroke-width="2" stroke-miterlimit="10"/>
<path d="M237 118.429H15" stroke="#14161C" stroke-width="2" stroke-miterlimit="10"/>
<path d="M237 150.143H15" stroke="#14161C" stroke-width="2" stroke-miterlimit="10"/>
<path d="M237 181.857H15" stroke="#14161C" stroke-width="2" stroke-miterlimit="10"/>
<path d="M237 213.571H15" stroke="#14161C" stroke-width="2" stroke-miterlimit="10"/>
<path d="M237 245.286H15" stroke="#14161C" stroke-width="2" stroke-miterlimit="10"/>
<path d="M237.714 -135V87" stroke="#14161C" stroke-width="2" stroke-miterlimit="10"/>
<path d="M269.429 -135V87" stroke="#14161C" stroke-width="2" stroke-miterlimit="10"/>
<path d="M301.143 -135V87" stroke="#14161C" stroke-width="2" stroke-miterlimit="10"/>
<path d="M332.857 -135V87" stroke="#14161C" stroke-width="2" stroke-miterlimit="10"/>
<path d="M364.571 -135V87" stroke="#14161C" stroke-width="2" stroke-miterlimit="10"/>
<path d="M396.285 -135V87" stroke="#14161C" stroke-width="2" stroke-miterlimit="10"/>
<path d="M428 23.5715H206" stroke="#14161C" stroke-width="2" stroke-miterlimit="10"/>
<path d="M428 55.2856H206" stroke="#14161C" stroke-width="2" stroke-miterlimit="10"/>
<path d="M237.714 55V277" stroke="#14161C" stroke-width="2" stroke-miterlimit="10"/>
<path d="M269.429 55V277" stroke="#14161C" stroke-width="2" stroke-miterlimit="10"/>
<path d="M301.143 55V277" stroke="#14161C" stroke-width="2" stroke-miterlimit="10"/>
<path d="M332.857 55V277" stroke="#14161C" stroke-width="2" stroke-miterlimit="10"/>
<path d="M364.571 55V277" stroke="#14161C" stroke-width="2" stroke-miterlimit="10"/>
<path d="M396.285 55V277" stroke="#14161C" stroke-width="2" stroke-miterlimit="10"/>
<path d="M428 86.7144H206" stroke="#14161C" stroke-width="2" stroke-miterlimit="10"/>
<path d="M428 118.429H206" stroke="#14161C" stroke-width="2" stroke-miterlimit="10"/>
<path d="M428 150.143H206" stroke="#14161C" stroke-width="2" stroke-miterlimit="10"/>
<path d="M428 181.857H206" stroke="#14161C" stroke-width="2" stroke-miterlimit="10"/>
<path d="M428 213.571H206" stroke="#14161C" stroke-width="2" stroke-miterlimit="10"/>
<path d="M428 245.286H206" stroke="#14161C" stroke-width="2" stroke-miterlimit="10"/>
</g>
</svg>
