<svg width="74" height="60" viewBox="0 0 74 60" fill="none" xmlns="http://www.w3.org/2000/svg">
<path d="M73.0909 6.00501C73.0909 7.1528 72.7724 8.27655 72.1731 9.24311C71.5737 10.2097 70.7187 10.9785 69.7093 11.4586C68.7 11.9387 67.5785 12.1098 66.4778 11.9518C65.3772 11.7938 64.3434 11.3132 63.4991 10.5669L51.4351 22.8601C52.0013 23.6155 52.3848 24.4995 52.5538 25.4387C52.7228 26.3779 52.6724 27.3452 52.4068 28.2603C52.1412 29.1753 51.668 30.0117 51.0266 30.6999C50.3852 31.3882 49.5941 31.9084 48.719 32.2174C47.8438 32.5264 46.9099 32.6153 45.9948 32.4767C45.0797 32.338 44.2099 31.9759 43.4576 31.4203C42.7052 30.8647 42.092 30.1316 41.669 29.2821C41.246 28.4326 41.0254 27.4911 41.0254 26.5358C41.0253 26.2333 41.0472 25.9313 41.0908 25.6321L31.8471 23.4395C31.515 24.4445 30.9309 25.3405 30.1542 26.0363C29.3776 26.732 28.4363 27.2027 27.4261 27.4002C26.416 27.5977 25.3732 27.515 24.4041 27.1605C23.435 26.8061 22.5743 26.1925 21.9095 25.3825L21.9276 25.4103L10.9341 33.1088C11.648 34.4618 11.8318 36.0463 11.4476 37.5353C11.0633 39.0243 10.1404 40.3041 8.86911 41.1106C7.59786 41.9171 6.07538 42.1888 4.61585 41.8695C3.15632 41.5503 1.87113 40.6645 1.02552 39.3949C0.179919 38.1254 -0.161575 36.569 0.0715189 35.047C0.304612 33.5249 1.0945 32.1534 2.27818 31.2154C3.46185 30.2774 4.94898 29.8446 6.43265 30.0062C7.91632 30.1678 9.2833 30.9116 10.2515 32.084L21.2454 24.3855C20.82 23.5827 20.5779 22.6901 20.5376 21.7759C20.4972 20.8617 20.6597 19.95 21.0126 19.1106C21.3656 18.2712 21.8996 17.5262 22.5739 16.9325C23.2482 16.3389 24.045 15.9123 24.9033 15.6853C25.7617 15.4583 26.6589 15.437 27.5264 15.623C28.394 15.809 29.2089 16.1973 29.9089 16.7583C30.6089 17.3193 31.1756 18.0382 31.5655 18.8599C31.9554 19.6817 32.1583 20.5847 32.1587 21.4999C32.1587 21.7427 32.1446 21.9853 32.1165 22.2264L41.3936 24.4286C41.7211 23.5263 42.2542 22.7187 42.9476 22.074C43.641 21.4293 44.4745 20.9664 45.3776 20.7245C46.2807 20.4826 47.2269 20.4687 48.1363 20.6841C49.0457 20.8994 49.8915 21.3377 50.6024 21.9619L62.6695 9.66451C62.1062 8.90789 61.7257 8.02346 61.5594 7.08457C61.3932 6.14568 61.446 5.17938 61.7136 4.2658C61.9812 3.35222 62.4557 2.51769 63.098 1.83141C63.7402 1.14513 64.5315 0.62687 65.4064 0.319616C66.2813 0.0123615 67.2145 -0.0750367 68.1286 0.0646681C69.0427 0.204373 69.9114 0.567155 70.6627 1.12293C71.4139 1.67871 72.0261 2.41146 72.4484 3.26043C72.8707 4.1094 73.0909 5.05054 73.0909 6.00501Z" fill="#6F727F"/>
<path d="M11.3458 45.5998H0.636294C0.284879 45.5998 0 45.8763 0 46.2173V59.3822C0 59.7233 0.284879 59.9998 0.636294 59.9998H11.3458C11.6972 59.9998 11.9821 59.7233 11.9821 59.3822V46.2173C11.9821 45.8763 11.6972 45.5998 11.3458 45.5998Z" fill="#6F727F"/>
<path d="M31.778 31.1996H22.1394C21.8232 31.1996 21.5668 31.4759 21.5668 31.8168V59.3824C21.5668 59.7232 21.8232 59.9996 22.1394 59.9996H31.778C32.0943 59.9996 32.3507 59.7232 32.3507 59.3824V31.8168C32.3507 31.4759 32.0943 31.1996 31.778 31.1996Z" fill="#6F727F"/>
<path d="M50.9499 36H41.3113C40.995 36 40.7386 36.2763 40.7386 36.6172V59.3828C40.7386 59.7237 40.995 60 41.3113 60H50.9499C51.2661 60 51.5225 59.7237 51.5225 59.3828V36.6172C51.5225 36.2763 51.2661 36 50.9499 36Z" fill="#6F727F"/>
<path d="M72.3984 18.5455H61.6889C61.3374 18.5455 61.0526 18.8041 61.0526 19.1231V59.4224C61.0526 59.7414 61.3374 60 61.6889 60H72.3984C72.7498 60 73.0347 59.7414 73.0347 59.4224V19.1231C73.0347 18.8041 72.7498 18.5455 72.3984 18.5455Z" fill="#6F727F"/>
</svg>
