<svg width="103" height="80" viewBox="0 0 103 80" fill="none" xmlns="http://www.w3.org/2000/svg">
<path d="M28.325 0V80" stroke="#23252C" stroke-miterlimit="10"/>
<path d="M39.7124 0V80" stroke="#23252C" stroke-miterlimit="10"/>
<path d="M51.0999 0V80" stroke="#23252C" stroke-miterlimit="10"/>
<path d="M62.4871 0V80" stroke="#23252C" stroke-miterlimit="10"/>
<path d="M73.8745 0V80" stroke="#23252C" stroke-miterlimit="10"/>
<path d="M85.2617 0V80" stroke="#23252C" stroke-miterlimit="10"/>
<path d="M96.6493 11.4286H16.9373" stroke="#23252C" stroke-miterlimit="10"/>
<path d="M96.6493 22.8571H16.9373" stroke="#23252C" stroke-miterlimit="10"/>
<path d="M96.6493 34.2857H16.9373" stroke="#23252C" stroke-miterlimit="10"/>
<path d="M96.6493 45.7143H16.9373" stroke="#23252C" stroke-miterlimit="10"/>
<path d="M96.6493 57.1429H16.9373" stroke="#23252C" stroke-miterlimit="10"/>
<path d="M96.6493 68.5714H16.9373" stroke="#23252C" stroke-miterlimit="10"/>
<path d="M8.03931 59.1191L22.2625 43.881L8.04089 59.1191" fill="#23252C"/>
<path d="M8.03931 59.1191L22.2625 43.881L8.04089 59.1191" stroke="#6F7380" stroke-width="0.3"/>
<path d="M8.0459 59.1224L22.2675 43.8843L22.2834 43.8938L8.06172 59.1319H8.0459" fill="#23252C"/>
<path d="M8.0459 59.1224L22.2675 43.8843L22.2834 43.8938L8.06172 59.1319H8.0459" stroke="#6F7380" stroke-width="0.3"/>
<path d="M8.06152 59.1302L22.2832 43.8921H22.3022L8.08208 59.1302H8.06152Z" fill="#23252C" stroke="#6F7380" stroke-width="0.3"/>
<path d="M8.08044 59.1302L22.3005 43.8921C22.309 43.8914 22.317 43.8874 22.3226 43.881L21.6568 44.6032L20.9846 45.3222L20.3093 46.046L19.6292 46.7746L18.946 47.5064L18.258 48.2429L17.57 48.9857L16.8741 49.7317L16.1671 50.4762L15.4617 51.2333L14.75 51.9952L14.0335 52.7619L13.3123 53.5349L12.5864 54.3127L11.8557 55.0968L11.1187 55.8905L10.3753 56.6841L9.62723 57.4857L8.87124 58.2968L8.11207 59.1095C8.10345 59.1198 8.09182 59.127 8.07886 59.1302" fill="#23252C"/>
<path d="M8.08044 59.1302L22.3005 43.8921C22.309 43.8914 22.317 43.8874 22.3226 43.881L21.6568 44.6032L20.9846 45.3222L20.3093 46.046L19.6292 46.7746L18.946 47.5064L18.258 48.2429L17.57 48.9857L16.8741 49.7317L16.1671 50.4762L15.4617 51.2333L14.75 51.9952L14.0335 52.7619L13.3123 53.5349L12.5864 54.3127L11.8557 55.0968L11.1187 55.8905L10.3753 56.6841L9.62723 57.4857L8.87124 58.2968L8.11207 59.1095C8.10345 59.1198 8.09182 59.127 8.07886 59.1302" stroke="#6F7380" stroke-width="0.3"/>
<path d="M18.3891 34.6032L1.6891 52.4889H1.65747L18.3828 34.5762C18.3835 34.5846 18.3835 34.5931 18.3828 34.6016" fill="#23252C"/>
<path d="M18.3891 34.6032L1.6891 52.4889H1.65747L18.3828 34.5762C18.3835 34.5846 18.3835 34.5931 18.3828 34.6016" stroke="#6F7380" stroke-width="0.3"/>
<path d="M18.383 34.5762L1.65768 52.4921H1.61182L18.3767 34.5349C18.3801 34.5474 18.3827 34.5602 18.3846 34.573" fill="#23252C"/>
<path d="M18.383 34.5762L1.65768 52.4921H1.61182L18.3767 34.5349C18.3801 34.5474 18.3827 34.5602 18.3846 34.573" stroke="#6F7380" stroke-width="0.3"/>
<path d="M18.3752 34.5381L1.61032 52.4952H1.56445L18.3688 34.5016C18.3688 34.5143 18.3688 34.5254 18.3688 34.5381" fill="#23252C"/>
<path d="M18.3752 34.5381L1.61032 52.4952H1.56445L18.3688 34.5016C18.3688 34.5143 18.3688 34.5254 18.3688 34.5381" stroke="#6F7380" stroke-width="0.3"/>
<path d="M18.3686 34.5016L1.56577 52.4984H1.52148L18.3607 34.4651C18.3607 34.4762 18.3607 34.4889 18.3686 34.5016Z" fill="#23252C" stroke="#6F7380" stroke-width="0.3"/>
<path d="M18.3608 34.4651L1.52158 52.5032H1.47729L18.3608 34.4302C18.3617 34.4418 18.3617 34.4535 18.3608 34.4651Z" fill="#23252C"/>
<path d="M18.3608 34.4651L1.52158 52.5032H1.47729L18.3608 34.4302C18.3617 34.4418 18.3617 34.4535 18.3608 34.4651" stroke="#6F7380" stroke-width="0.3"/>
<path d="M18.3609 34.4302L1.4774 52.5079H1.43628L18.3498 34.3952V34.4302" fill="#23252C"/>
<path d="M18.3609 34.4302L1.4774 52.5079H1.43628L18.3498 34.3952V34.4302" stroke="#6F7380" stroke-width="0.3"/>
<path d="M18.3498 34.3952L1.43785 52.5127H1.39673L18.345 34.3635V34.3952" fill="#23252C"/>
<path d="M18.3498 34.3952L1.43785 52.5127H1.39673L18.345 34.3635V34.3952" stroke="#6F7380" stroke-width="0.3"/>
<path d="M18.3449 34.3635L1.39501 52.519H1.35547L18.3417 34.3254C18.341 34.3365 18.341 34.3476 18.3417 34.3587" fill="#23252C"/>
<path d="M18.3449 34.3635L1.39501 52.519H1.35547L18.3417 34.3254C18.341 34.3365 18.341 34.3476 18.3417 34.3587" stroke="#6F7380" stroke-width="0.3"/>
<path d="M18.3416 34.3302L1.35534 52.5238H1.31738L18.3384 34.2984C18.3377 34.309 18.3377 34.3196 18.3384 34.3302" fill="#23252C"/>
<path d="M18.3416 34.3302L1.35534 52.5238H1.31738L18.3384 34.2984C18.3377 34.309 18.3377 34.3196 18.3384 34.3302" stroke="#6F7380" stroke-width="0.3"/>
<path d="M18.3388 34.2984L1.31774 52.5302L1.27979 52.5397L18.3356 34.2667C18.3349 34.2772 18.3349 34.2878 18.3356 34.2984" fill="#23252C"/>
<path d="M18.3388 34.2984L1.31774 52.5302L1.27979 52.5397L18.3356 34.2667C18.3349 34.2772 18.3349 34.2878 18.3356 34.2984" stroke="#6F7380" stroke-width="0.3"/>
<path d="M18.3354 34.2667L1.27953 52.5397L1.23999 52.5476L18.3338 34.2349C18.3331 34.2455 18.3331 34.2561 18.3338 34.2667" fill="#23252C"/>
<path d="M18.3354 34.2667L1.27953 52.5397L1.23999 52.5476L18.3338 34.2349C18.3331 34.2455 18.3331 34.2561 18.3338 34.2667" stroke="#6F7380" stroke-width="0.3"/>
<path d="M18.3337 34.2349L17.4764 35.1524L16.6224 36.0667L15.7699 36.9841L14.9174 37.8952L14.0681 38.8064L13.2188 39.7175L12.3695 40.627L11.5202 41.5365L10.6709 42.446L9.81996 43.3524L8.96907 44.2635L8.11817 45.1746L7.2657 46.0873L6.41164 47.0032L5.556 47.9191L4.69719 48.8397L3.83681 49.7603L2.97326 50.6857L2.10655 51.6143L1.23668 52.546L1.19556 52.5556L18.3321 34.2016C18.3313 34.2127 18.3313 34.2238 18.3321 34.2349" fill="#23252C"/>
<path d="M18.3337 34.2349L17.4764 35.1524L16.6224 36.0667L15.7699 36.9841L14.9174 37.8952L14.0681 38.8064L13.2188 39.7175L12.3695 40.627L11.5202 41.5365L10.6709 42.446L9.81996 43.3524L8.96907 44.2635L8.11817 45.1746L7.2657 46.0873L6.41164 47.0032L5.556 47.9191L4.69719 48.8397L3.83681 49.7603L2.97326 50.6857L2.10655 51.6143L1.23668 52.546L1.19556 52.5556L18.3321 34.2016C18.3313 34.2127 18.3313 34.2238 18.3321 34.2349" stroke="#6F7380" stroke-width="0.3"/>
<path d="M18.3324 34.2016L17.4736 35.1206L16.6212 36.0317L15.7671 36.9476L14.913 37.8619L14.0606 38.7746L13.2097 39.6857L12.3509 40.6032L11.5 41.5143L10.6491 42.4254L9.80451 43.3333L8.95203 44.246L8.09955 45.1587L7.2455 46.0746L6.38986 46.9921L5.53105 47.9111L4.67067 48.8317L3.81028 49.7603L2.94357 50.6889L2.0737 51.6206L1.20066 52.5556L1.15796 52.5667L2.03574 51.627L2.90878 50.6921L3.77865 49.7603L4.64536 48.8333L5.50733 47.9079L6.36772 46.9873L7.22652 46.0667L8.08216 45.1508L8.9378 44.2349L9.79027 43.3206L10.6428 42.4079L11.4952 41.4952L12.3477 40.5825L13.1986 39.6698L14.0527 38.7556L14.9051 37.8413L15.7608 36.927L16.6164 36.0079L17.4752 35.0889L18.3372 34.1667C18.3364 34.1783 18.3364 34.19 18.3372 34.2016" fill="#23252C"/>
<path d="M18.3324 34.2016L17.4736 35.1206L16.6212 36.0317L15.7671 36.9476L14.913 37.8619L14.0606 38.7746L13.2097 39.6857L12.3509 40.6032L11.5 41.5143L10.6491 42.4254L9.80451 43.3333L8.95203 44.246L8.09955 45.1587L7.2455 46.0746L6.38986 46.9921L5.53105 47.9111L4.67067 48.8317L3.81028 49.7603L2.94357 50.6889L2.0737 51.6206L1.20066 52.5556L1.15796 52.5667L2.03574 51.627L2.90878 50.6921L3.77865 49.7603L4.64536 48.8333L5.50733 47.9079L6.36772 46.9873L7.22652 46.0667L8.08216 45.1508L8.9378 44.2349L9.79027 43.3206L10.6428 42.4079L11.4952 41.4952L12.3477 40.5825L13.1986 39.6698L14.0527 38.7556L14.9051 37.8413L15.7608 36.927L16.6164 36.0079L17.4752 35.0889L18.3372 34.1667C18.3364 34.1783 18.3364 34.19 18.3372 34.2016" stroke="#6F7380" stroke-width="0.3"/>
<path d="M18.3337 34.1667L1.15451 52.5667L1.10864 52.5825L18.3369 34.127C18.3361 34.1397 18.3361 34.1524 18.3369 34.1651" fill="#23252C"/>
<path d="M18.3337 34.1667L1.15451 52.5667L1.10864 52.5825L18.3369 34.127C18.3361 34.1397 18.3361 34.1524 18.3369 34.1651" stroke="#6F7380" stroke-width="0.3"/>
<path d="M18.3372 34.127L1.10895 52.5825C1.07574 52.5923 1.045 52.6091 1.0188 52.6317L1.91081 51.6794L2.79809 50.727L3.67903 49.7825L4.55681 48.8429L5.42827 47.9079L6.29814 46.9778L8.0284 45.1254L8.88878 44.2016L9.74917 43.281L10.608 42.3619L11.4652 41.4429L12.324 40.5238L13.1812 39.6048L14.04 38.6841L14.9004 37.7635L16.6212 35.9143L17.4879 34.9873L18.3578 34.0556C18.3423 34.0769 18.3335 34.1023 18.3325 34.1286" fill="#23252C"/>
<path d="M18.3372 34.127L1.10895 52.5825C1.07574 52.5923 1.045 52.6091 1.0188 52.6317L1.91081 51.6794L2.79809 50.727L3.67903 49.7825L4.55681 48.8429L5.42827 47.9079L6.29814 46.9778L8.0284 45.1254L8.88878 44.2016L9.74917 43.281L10.608 42.3619L11.4652 41.4429L12.324 40.5238L13.1812 39.6048L14.04 38.6841L14.9004 37.7635L16.6212 35.9143L17.4879 34.9873L18.3578 34.0556C18.3423 34.0769 18.3335 34.1023 18.3325 34.1286" stroke="#6F7380" stroke-width="0.3"/>
<path d="M1.68925 52.4889L5.91842 56.5841V56.6095L1.66553 52.4905H1.68925" fill="#23252C"/>
<path d="M1.68925 52.4889L5.91842 56.5841V56.6095L1.66553 52.4905H1.68925" stroke="#6F7380" stroke-width="0.3"/>
<path d="M1.66578 52.4905L5.91867 56.6095V56.6444L1.63257 52.4936H1.66578" fill="#23252C"/>
<path d="M1.66578 52.4905L5.91867 56.6095V56.6444L1.63257 52.4936H1.66578" stroke="#6F7380" stroke-width="0.3"/>
<path d="M1.63208 52.4936L5.91818 56.6444V56.681L5.70783 56.4698L5.49116 56.2603L5.2729 56.0492L5.0578 55.8397L4.84112 55.6302L4.62603 55.4222L4.41093 55.2127L4.19584 55.0048L3.96809 54.7968L3.75299 54.5889L3.53789 54.381L3.33545 54.173L3.11245 53.9683L2.89735 53.7603L2.68225 53.5508L2.46558 53.3333L2.2489 53.1238L2.03222 52.9127L1.81554 52.7032L1.5957 52.4952H1.6305" fill="#23252C"/>
<path d="M1.63208 52.4936L5.91818 56.6444V56.681L5.70783 56.4698L5.49116 56.2603L5.2729 56.0492L5.0578 55.8397L4.84112 55.6302L4.62603 55.4222L4.41093 55.2127L4.19584 55.0048L3.96809 54.7968L3.75299 54.5889L3.53789 54.381L3.33545 54.173L3.11245 53.9683L2.89735 53.7603L2.68225 53.5508L2.46558 53.3333L2.2489 53.1238L2.03222 52.9127L1.81554 52.7032L1.5957 52.4952H1.6305" stroke="#6F7380" stroke-width="0.3"/>
<path d="M1.59583 52.4952L5.91673 56.681V56.719L1.56104 52.4984H1.59583" fill="#23252C"/>
<path d="M1.59583 52.4952L5.91673 56.681V56.719L1.56104 52.4984H1.59583" stroke="#6F7380" stroke-width="0.3"/>
<path d="M1.56274 52.4984L5.91844 56.719C5.91844 56.7317 5.91844 56.7444 5.91844 56.7571L1.52637 52.5032H1.56116" fill="#23252C"/>
<path d="M1.56274 52.4984L5.91844 56.719C5.91844 56.7317 5.91844 56.7444 5.91844 56.7571L1.52637 52.5032H1.56116" stroke="#6F7380" stroke-width="0.3"/>
<path d="M1.52808 52.5032L1.75108 52.719L1.9725 52.9333L2.19393 53.1476L2.41377 53.3603L2.63361 53.573L2.85187 53.7857L3.07013 53.9968L3.28838 54.2079L3.50664 54.419L3.72332 54.6302L3.94158 54.8413L4.15984 55.0508L4.37652 55.2619L4.59478 55.4746L4.81462 55.6857L5.03446 55.8984L5.2543 56.1111L5.47414 56.3254L5.69714 56.5413L5.92015 56.7571C5.92015 56.7698 5.92015 56.7825 5.92015 56.7952L1.4917 52.5095H1.52649" fill="#23252C"/>
<path d="M1.52808 52.5032L1.75108 52.719L1.9725 52.9333L2.19393 53.1476L2.41377 53.3603L2.63361 53.573L2.85187 53.7857L3.07013 53.9968L3.28838 54.2079L3.50664 54.419L3.72332 54.6302L3.94158 54.8413L4.15984 55.0508L4.37652 55.2619L4.59478 55.4746L4.81462 55.6857L5.03446 55.8984L5.2543 56.1111L5.47414 56.3254L5.69714 56.5413L5.92015 56.7571C5.92015 56.7698 5.92015 56.7825 5.92015 56.7952L1.4917 52.5095H1.52649" stroke="#6F7380" stroke-width="0.3"/>
<path d="M1.49279 52.5063L5.92124 56.7921C5.92124 56.8063 5.92124 56.819 5.92124 56.8333L1.45483 52.5063H1.49121" fill="#23252C"/>
<path d="M1.49279 52.5063L5.92124 56.7921C5.92124 56.8063 5.92124 56.819 5.92124 56.8333L1.45483 52.5063H1.49121" stroke="#6F7380" stroke-width="0.3"/>
<path d="M1.45667 52.5095L5.92308 56.8365C5.92308 56.8492 5.92308 56.8635 5.92308 56.8762L1.42188 52.5143H1.45667" fill="#23252C"/>
<path d="M1.45667 52.5095L5.92308 56.8365C5.92308 56.8492 5.92308 56.8635 5.92308 56.8762L1.42188 52.5143H1.45667" stroke="#6F7380" stroke-width="0.3"/>
<path d="M1.42175 52.5143L5.92453 56.8762C5.92531 56.8905 5.92531 56.9048 5.92453 56.919L1.38379 52.519H1.41858" fill="#23252C"/>
<path d="M1.42175 52.5143L5.92453 56.8762C5.92531 56.8905 5.92531 56.9048 5.92453 56.919L1.38379 52.519H1.41858" stroke="#6F7380" stroke-width="0.3"/>
<path d="M1.38693 52.519L5.92767 56.919V56.9635L1.34106 52.519H1.37902" fill="#23252C"/>
<path d="M1.38693 52.519L5.92767 56.919V56.9635L1.34106 52.519H1.37902" stroke="#6F7380" stroke-width="0.3"/>
<path d="M1.34912 52.5254L5.93573 56.9698C5.93489 56.9852 5.93489 57.0005 5.93573 57.0159L1.31274 52.5397H1.34912" fill="#23252C"/>
<path d="M1.34912 52.5254L5.93573 56.9698C5.93489 56.9852 5.93489 57.0005 5.93573 57.0159L1.31274 52.5397H1.34912" stroke="#6F7380" stroke-width="0.3"/>
<path d="M1.313 52.5397L5.93598 57.0175C5.93598 57.0349 5.93598 57.0524 5.93598 57.0698L1.27979 52.5397L1.31932 52.5317" fill="#23252C"/>
<path d="M1.313 52.5397L5.93598 57.0175C5.93598 57.0349 5.93598 57.0524 5.93598 57.0698L1.27979 52.5397L1.31932 52.5317" stroke="#6F7380" stroke-width="0.3"/>
<path d="M1.27962 52.5397L1.5216 52.7746L1.762 53.0063L1.99924 53.2365L2.23331 53.4635L2.46739 53.6889L2.6983 53.9143L2.92763 54.1365L3.15696 54.3587L3.38471 54.5794L3.61404 54.8L3.84179 55.0206L4.06954 55.2429L4.29887 55.4635L4.5282 55.6873L4.76069 55.9111L4.99319 56.1365L5.22726 56.3635L5.4645 56.5937L5.7049 56.8254L5.94846 57.0619C5.94846 57.081 5.94846 57.1 5.94846 57.1206L1.229 52.5476L1.27962 52.5397Z" fill="#23252C" stroke="#6F7380" stroke-width="0.3"/>
<path d="M1.22883 52.5476L5.94829 57.1206C5.94829 57.1444 5.94829 57.1683 5.95937 57.1905L1.17822 52.5603L1.22883 52.5476Z" fill="#23252C"/>
<path d="M1.22883 52.5476L5.94829 57.1206C5.94829 57.1444 5.94829 57.1683 5.95937 57.1905L1.17822 52.5603L1.22883 52.5476" stroke="#6F7380" stroke-width="0.3"/>
<path d="M1.17845 52.5603L5.95959 57.1905C5.96912 57.3367 6.01537 57.4781 6.09403 57.6016L5.822 57.3381L5.54996 57.0809L5.289 56.827L5.03278 56.5794L4.77973 56.3349L4.52983 56.0921L4.28311 55.854L4.03796 55.6159L3.7944 55.3794L3.55083 55.1444L3.30885 54.9079L3.0637 54.673L2.81856 54.4349L2.57183 54.1952L2.32194 53.954L2.07047 53.7095L1.81267 53.4603L1.5517 53.2079L1.286 52.9508L1.01397 52.6873C0.969681 52.6429 1.03294 52.5984 1.17212 52.5603" fill="#23252C"/>
<path d="M1.17845 52.5603L5.95959 57.1905C5.96912 57.3367 6.01537 57.4781 6.09403 57.6016L5.822 57.3381L5.54996 57.0809L5.289 56.827L5.03278 56.5794L4.77973 56.3349L4.52983 56.0921L4.28311 55.854L4.03796 55.6159L3.7944 55.3794L3.55083 55.1444L3.30885 54.9079L3.0637 54.673L2.81856 54.4349L2.57183 54.1952L2.32194 53.954L2.07047 53.7095L1.81267 53.4603L1.5517 53.2079L1.286 52.9508L1.01397 52.6873C0.969681 52.6429 1.03294 52.5984 1.17212 52.5603" stroke="#6F7380" stroke-width="0.3"/>
<path d="M20.325 42.3714L22.2625 43.881L8.03925 59.1191L6.10181 57.6079L20.325 42.3714Z" fill="#23252C" stroke="#6F7380" stroke-width="0.3"/>
<path d="M5.91857 56.5841L19.9742 41.5286V41.5381L5.91699 56.5968V56.5841" fill="#23252C"/>
<path d="M5.91857 56.5841L19.9742 41.5286V41.5381L5.91699 56.5968V56.5841" stroke="#6F7380" stroke-width="0.3"/>
<path d="M5.91846 56.5968L19.9756 41.5381C19.9756 41.5492 19.9756 41.5603 19.9835 41.5714L5.91846 56.6397V56.5968Z" fill="#23252C" stroke="#6F7380" stroke-width="0.3"/>
<path d="M5.91844 56.6397L19.9835 41.5714L19.9914 41.6032L5.91528 56.6825V56.6429" fill="#23252C"/>
<path d="M5.91844 56.6397L19.9835 41.5714L19.9914 41.6032L5.91528 56.6825V56.6429" stroke="#6F7380" stroke-width="0.3"/>
<path d="M5.91846 56.6794L19.9946 41.6C19.9946 41.6095 19.9946 41.6191 20.0025 41.6286L5.92637 56.7079V56.6714" fill="#23252C"/>
<path d="M5.91846 56.6794L19.9946 41.6C19.9946 41.6095 19.9946 41.6191 20.0025 41.6286L5.92637 56.7079V56.6714" stroke="#6F7380" stroke-width="0.3"/>
<path d="M5.91844 56.7159L19.9946 41.6365C19.9963 41.6468 19.9989 41.6569 20.0025 41.6667L5.91528 56.7571C5.91528 56.746 5.91528 56.7333 5.91528 56.7206" fill="#23252C"/>
<path d="M5.91844 56.7159L19.9946 41.6365C19.9963 41.6468 19.9989 41.6569 20.0025 41.6667L5.91528 56.7571C5.91528 56.746 5.91528 56.7333 5.91528 56.7206" stroke="#6F7380" stroke-width="0.3"/>
<path d="M5.91979 56.7524L20.007 41.6619C20.0063 41.6714 20.0063 41.681 20.007 41.6905L5.91346 56.7889C5.91264 56.7767 5.91264 56.7645 5.91346 56.7524" fill="#23252C"/>
<path d="M5.91979 56.7524L20.007 41.6619C20.0063 41.6714 20.0063 41.681 20.007 41.6905L5.91346 56.7889C5.91264 56.7767 5.91264 56.7645 5.91346 56.7524" stroke="#6F7380" stroke-width="0.3"/>
<path d="M5.92139 56.7889L20.0149 41.6905L20.0244 41.7254L5.92297 56.8254C5.92218 56.8111 5.92218 56.7968 5.92297 56.7825" fill="#23252C"/>
<path d="M5.92139 56.7889L20.0149 41.6905L20.0244 41.7254L5.92297 56.8254C5.92218 56.8111 5.92218 56.7968 5.92297 56.7825" stroke="#6F7380" stroke-width="0.3"/>
<path d="M5.9231 56.8254L20.0245 41.719L20.0388 41.7635L5.92626 56.8889C5.92626 56.8698 5.92626 56.8508 5.92626 56.8317" fill="#23252C"/>
<path d="M5.9231 56.8254L20.0245 41.719L20.0388 41.7635L5.92626 56.8889C5.92626 56.8698 5.92626 56.8508 5.92626 56.8317" stroke="#6F7380" stroke-width="0.3"/>
<path d="M5.92627 56.8889L20.0388 41.7698C20.0483 41.8032 20.0578 41.8349 20.0688 41.8667L5.93576 57.0064L5.92627 56.8889Z" fill="#23252C" stroke="#6F7380" stroke-width="0.3"/>
<path d="M5.93579 57.0064L20.0689 41.8667L20.0831 41.9095L5.94054 57.0587V57.0064" fill="#23252C"/>
<path d="M5.93579 57.0064L20.0689 41.8667L20.0831 41.9095L5.94054 57.0587V57.0064" stroke="#6F7380" stroke-width="0.3"/>
<path d="M5.94067 57.0587L20.0832 41.9048L20.0959 41.9365L5.94542 57.0952V57.054" fill="#23252C"/>
<path d="M5.94067 57.0587L20.0832 41.9048L20.0959 41.9365L5.94542 57.0952V57.054" stroke="#6F7380" stroke-width="0.3"/>
<path d="M5.94531 57.1L20.1005 41.9413C20.1035 41.9521 20.1072 41.9627 20.1116 41.973L5.95164 57.1429C5.95164 57.1317 5.95164 57.119 5.95164 57.1063" fill="#23252C"/>
<path d="M5.94531 57.1L20.1005 41.9413C20.1035 41.9521 20.1072 41.9627 20.1116 41.973L5.95164 57.1429C5.95164 57.1317 5.95164 57.119 5.95164 57.1063" stroke="#6F7380" stroke-width="0.3"/>
<path d="M5.95153 57.1429L20.1004 41.973L20.1115 42.0016L5.94995 57.173V57.1365" fill="#23252C"/>
<path d="M5.95153 57.1429L20.1004 41.973L20.1115 42.0016L5.94995 57.173V57.1365" stroke="#6F7380" stroke-width="0.3"/>
<path d="M5.9563 57.173L20.1178 42.0016L20.1305 42.0333L5.96262 57.2111C5.96186 57.1984 5.96186 57.1857 5.96262 57.173" fill="#23252C"/>
<path d="M5.9563 57.173L20.1178 42.0016L20.1305 42.0333L5.96262 57.2111C5.96186 57.1984 5.96186 57.1857 5.96262 57.173" stroke="#6F7380" stroke-width="0.3"/>
<path d="M5.96289 57.2111L20.1308 42.0333L20.1434 42.0651L5.96922 57.2492C5.96846 57.2365 5.96846 57.2238 5.96922 57.2111" fill="#23252C"/>
<path d="M5.96289 57.2111L20.1308 42.0333L20.1434 42.0651L5.96922 57.2492C5.96846 57.2365 5.96846 57.2238 5.96922 57.2111" stroke="#6F7380" stroke-width="0.3"/>
<path d="M5.96899 57.2492L20.1432 42.0635L20.1574 42.0968L5.9769 57.2905C5.9769 57.2778 5.9769 57.2635 5.96899 57.2492Z" fill="#23252C" stroke="#6F7380" stroke-width="0.3"/>
<path d="M5.97729 57.2905L20.1578 42.0984L20.1736 42.1333L5.9852 57.3317C5.9852 57.319 5.9852 57.3048 5.97729 57.2905Z" fill="#23252C"/>
<path d="M5.97729 57.2905L20.1578 42.0984L20.1736 42.1333L5.9852 57.3317C5.9852 57.319 5.9852 57.3048 5.97729 57.2905" stroke="#6F7380" stroke-width="0.3"/>
<path d="M5.98511 57.3317L20.1735 42.1333L20.1894 42.1667L5.9946 57.3714L5.98511 57.3317Z" fill="#23252C" stroke="#6F7380" stroke-width="0.3"/>
<path d="M5.99414 57.3714L20.1889 42.1667C20.1932 42.1772 20.1985 42.1873 20.2047 42.1968L6.00521 57.4095C6.0008 57.397 5.9971 57.3843 5.99414 57.3714Z" fill="#23252C"/>
<path d="M5.99414 57.3714L20.1889 42.1667C20.1932 42.1772 20.1985 42.1873 20.2047 42.1968L6.00521 57.4095C6.0008 57.397 5.9971 57.3843 5.99414 57.3714" stroke="#6F7380" stroke-width="0.3"/>
<path d="M6.00586 57.4095L20.2054 42.1968L20.2196 42.2254L6.01535 57.4429L6.00586 57.4095Z" fill="#23252C"/>
<path d="M6.00586 57.4095L20.2054 42.1968L20.2196 42.2254L6.01535 57.4429L6.00586 57.4095" stroke="#6F7380" stroke-width="0.3"/>
<path d="M6.01489 57.4429L20.2191 42.2222L20.2334 42.2476L6.02438 57.473L6.01489 57.4429Z" fill="#23252C" stroke="#6F7380" stroke-width="0.3"/>
<path d="M6.02466 57.473L20.2337 42.2508L20.2479 42.2746L6.03573 57.5C6.03573 57.4921 6.02782 57.4825 6.02466 57.473Z" fill="#23252C"/>
<path d="M6.02466 57.473L20.2337 42.2508L20.2479 42.2746L6.03573 57.5C6.03573 57.4921 6.02782 57.4825 6.02466 57.473" stroke="#6F7380" stroke-width="0.3"/>
<path d="M6.0354 57.5L20.2476 42.2746L20.2618 42.2968L6.04489 57.5254L6.0354 57.5Z" fill="#23252C"/>
<path d="M6.0354 57.5L20.2476 42.2746L20.2618 42.2968L6.04489 57.5254L6.0354 57.5" stroke="#6F7380" stroke-width="0.3"/>
<path d="M6.04491 57.5254L20.2587 42.2968L20.2713 42.3159L6.05282 57.554C6.04977 57.5463 6.04607 57.5388 6.04175 57.5318" fill="#23252C"/>
<path d="M6.04491 57.5254L20.2587 42.2968L20.2713 42.3159L6.05282 57.554C6.04977 57.5463 6.04607 57.5388 6.04175 57.5318" stroke="#6F7380" stroke-width="0.3"/>
<path d="M6.05591 57.5476L20.2744 42.3095L20.2886 42.327L6.06698 57.5651C6.06388 57.5584 6.06018 57.552 6.05591 57.546" fill="#23252C"/>
<path d="M6.05591 57.5476L20.2744 42.3095L20.2886 42.327L6.06698 57.5651C6.06388 57.5584 6.06018 57.552 6.05591 57.546" stroke="#6F7380" stroke-width="0.3"/>
<path d="M6.06689 57.5667L20.2885 42.3286L20.3012 42.3444L6.07955 57.5825L6.06689 57.5635" fill="#23252C"/>
<path d="M6.06689 57.5667L20.2885 42.3286L20.3012 42.3444L6.07955 57.5825L6.06689 57.5635" stroke="#6F7380" stroke-width="0.3"/>
<path d="M6.07983 57.5857L20.3015 42.3476L20.3157 42.3619L6.09407 57.6L6.07983 57.5857Z" fill="#23252C" stroke="#6F7380" stroke-width="0.3"/>
<path d="M6.09424 57.6L20.3159 42.3619L20.3254 42.3698L6.10214 57.6079L6.09424 57.6Z" fill="#23252C" stroke="#6F7380" stroke-width="0.3"/>
<path d="M22.2622 43.881L41.3267 48.9905C41.3351 48.9976 41.3447 49.0029 41.3552 49.0063L40.3587 48.7381L39.3671 48.473L38.3802 48.2079L37.3964 47.9444L36.4174 47.6825L35.4416 47.4222L34.4721 47.1619L33.5057 46.9032L32.5457 46.646L31.5888 46.3889L30.6399 46.1333L29.6909 45.881L28.742 45.627L27.8057 45.3762L26.8725 45.127L25.9521 44.8778L25.03 44.6302L24.1111 44.3841L23.1985 44.1397L22.2907 43.8968C22.2809 43.893 22.2718 43.8877 22.2638 43.881" fill="#23252C"/>
<path d="M22.2622 43.881L41.3267 48.9905C41.3351 48.9976 41.3447 49.0029 41.3551 49.0063V49.0063L40.3587 48.7381L39.3671 48.473L38.3802 48.2079L37.3964 47.9444L36.4174 47.6825L35.4416 47.4222L34.4721 47.1619L33.5057 46.9032L32.5457 46.646L31.5888 46.3889L30.6399 46.1333L29.6909 45.881L28.742 45.627L27.8057 45.3762L26.8725 45.127L25.9521 44.8778L25.03 44.6302L24.1111 44.3841L23.1985 44.1397L22.2907 43.8968C22.2809 43.893 22.2718 43.8877 22.2638 43.881" stroke="#6F7380" stroke-width="0.3"/>
<path d="M41.3269 48.9905L73.3525 25.7476L73.3652 25.7556L41.3396 48.9984L41.3269 48.9905Z" fill="#23252C"/>
<path d="M41.3269 48.9905L73.3525 25.7476L73.3652 25.7556L41.3396 48.9984L41.3269 48.9905" stroke="#6F7380" stroke-width="0.3"/>
<path d="M41.3396 48.9984L73.3652 25.7556C73.3724 25.7606 73.3809 25.7633 73.3897 25.7633C73.3985 25.7633 73.407 25.7606 73.4142 25.7556L71.8326 26.8984L70.251 28.0429L68.6695 29.1889L67.0879 30.3381L65.5063 31.4889L63.9247 32.6397L62.3336 33.7952L60.7473 34.954L59.1514 36.1127L57.5525 37.273L55.9503 38.4349L54.3466 39.6L52.7381 40.7667L51.1265 41.9349L49.518 43.1064L47.8937 44.2857L46.2726 45.4619L44.6499 46.6397L43.0224 47.8206L41.3918 49.0032C41.3843 49.009 41.3751 49.0121 41.3657 49.0121C41.3562 49.0121 41.3471 49.009 41.3396 49.0032" fill="#23252C"/>
<path d="M41.3396 48.9984L73.3652 25.7556C73.3724 25.7606 73.3809 25.7633 73.3897 25.7633C73.3985 25.7633 73.407 25.7606 73.4142 25.7556L71.8326 26.8984L70.251 28.0429L68.6695 29.1889L67.0879 30.3381L65.5063 31.4889L63.9247 32.6397L62.3336 33.7952L60.7473 34.954L59.1514 36.1127L57.5525 37.273L55.9503 38.4349L54.3466 39.6L52.7381 40.7667L51.1265 41.9349L49.518 43.1064L47.8937 44.2857L46.2726 45.4619L44.6499 46.6397L43.0224 47.8206L41.3918 49.0032C41.3843 49.009 41.3751 49.0121 41.3657 49.0121C41.3562 49.0121 41.3471 49.009 41.3396 49.0032" stroke="#6F7380" stroke-width="0.3"/>
<path d="M38.2887 39.9349L18.3892 34.6032V34.5873L38.2887 39.919V39.9349Z" fill="#23252C"/>
<path d="M38.2887 39.9349L18.3892 34.6032V34.5873L38.2887 39.919V39.9349" stroke="#6F7380" stroke-width="0.3"/>
<path d="M38.289 39.919L18.3847 34.5857C18.3847 34.5651 18.3752 34.546 18.3721 34.527L38.289 39.8619C38.289 39.881 38.289 39.9 38.289 39.919Z" fill="#23252C" stroke="#6F7380" stroke-width="0.3"/>
<path d="M38.289 39.8619L18.3736 34.527C18.3657 34.4857 18.3578 34.4476 18.353 34.4111L38.281 39.7508C38.281 39.7857 38.281 39.8238 38.289 39.8619Z" fill="#23252C"/>
<path d="M38.289 39.8619L18.3736 34.527C18.3657 34.4857 18.3578 34.4476 18.353 34.4111L38.281 39.7508C38.281 39.7857 38.281 39.8238 38.289 39.8619" stroke="#6F7380" stroke-width="0.3"/>
<path d="M38.2763 39.7508L18.3609 34.4111C18.3609 34.3921 18.3609 34.373 18.353 34.3556L38.281 39.6968V39.7508" fill="#23252C"/>
<path d="M38.2763 39.7508L18.3609 34.4111C18.3609 34.3921 18.3609 34.373 18.353 34.3556L38.281 39.6968V39.7508" stroke="#6F7380" stroke-width="0.3"/>
<path d="M38.2763 39.6968L18.3482 34.3556C18.3426 34.3171 18.3389 34.2785 18.3372 34.2397L38.2826 39.5841C38.2801 39.6217 38.2801 39.6593 38.2826 39.6968" fill="#23252C"/>
<path d="M38.2763 39.6968L18.3482 34.3556C18.3426 34.3171 18.3389 34.2785 18.3372 34.2397L38.2826 39.5841C38.2801 39.6217 38.2801 39.6593 38.2826 39.6968" stroke="#6F7380" stroke-width="0.3"/>
<path d="M38.2794 39.5841L18.334 34.2397C18.334 34.2206 18.334 34.2032 18.334 34.1873L38.2889 39.5333C38.288 39.5503 38.288 39.5672 38.2889 39.5841" fill="#23252C"/>
<path d="M38.2794 39.5841L18.334 34.2397C18.334 34.2206 18.334 34.2032 18.334 34.1873L38.2889 39.5333C38.288 39.5503 38.288 39.5672 38.2889 39.5841" stroke="#6F7380" stroke-width="0.3"/>
<path d="M38.289 39.5333L18.3325 34.1873C18.3325 34.1746 18.3325 34.1635 18.3325 34.1524L38.289 39.5C38.2883 39.5111 38.2883 39.5222 38.289 39.5333Z" fill="#23252C"/>
<path d="M38.289 39.5333L18.3325 34.1873C18.3325 34.1746 18.3325 34.1635 18.3325 34.1524L38.289 39.5C38.2883 39.5111 38.2883 39.5222 38.289 39.5333" stroke="#6F7380" stroke-width="0.3"/>
<path d="M38.2889 39.5L18.334 34.1524C18.334 34.1429 18.334 34.1333 18.334 34.1254L38.2952 39.4746C38.2952 39.4825 38.2952 39.4905 38.2952 39.5" fill="#23252C"/>
<path d="M38.2889 39.5L18.334 34.1524C18.334 34.1429 18.334 34.1333 18.334 34.1254L38.2952 39.4746C38.2952 39.4825 38.2952 39.4905 38.2952 39.5" stroke="#6F7380" stroke-width="0.3"/>
<path d="M38.2984 39.4746L18.3372 34.127C18.3372 34.119 18.3372 34.1111 18.3372 34.1048L38.3031 39.4556C38.3031 39.4556 38.3031 39.4683 38.2952 39.4762" fill="#23252C"/>
<path d="M38.2984 39.4746L18.3372 34.127C18.3372 34.119 18.3372 34.1111 18.3372 34.1048L38.3031 39.4556C38.3031 39.4556 38.3031 39.4683 38.2952 39.4762" stroke="#6F7380" stroke-width="0.3"/>
<path d="M38.3066 39.454L18.3406 34.1032V34.0857L38.3081 39.4365C38.3081 39.4365 38.3081 39.4476 38.3081 39.454" fill="#23252C"/>
<path d="M38.3066 39.454L18.3406 34.1032V34.0857L38.3081 39.4365C38.3081 39.4365 38.3081 39.4476 38.3081 39.454" stroke="#6F7380" stroke-width="0.3"/>
<path d="M38.3128 39.4365L18.3452 34.0857V34.073L38.3207 39.4238C38.3186 39.4284 38.316 39.4327 38.3128 39.4365Z" fill="#23252C"/>
<path d="M38.3128 39.4365L18.3452 34.0857V34.073L38.3207 39.4238C38.3186 39.4284 38.316 39.4327 38.3128 39.4365" stroke="#6F7380" stroke-width="0.3"/>
<path d="M38.3208 39.4238L18.3517 34.073C18.3509 34.0694 18.3509 34.0656 18.3517 34.0619L38.3303 39.4127L38.3208 39.4238Z" fill="#23252C" stroke="#6F7380" stroke-width="0.3"/>
<path d="M38.3302 39.4127L18.3611 34.0619V34.0524L38.335 39.4048L38.3271 39.4127" fill="#23252C"/>
<path d="M38.3302 39.4127L18.3611 34.0619V34.0524L38.335 39.4048L38.3271 39.4127" stroke="#6F7380" stroke-width="0.3"/>
<path d="M38.3381 39.4048L18.3611 34.0524H18.369L38.3445 39.4048H38.335" fill="#23252C"/>
<path d="M38.3381 39.4048L18.3611 34.0524H18.369L38.3445 39.4048H38.335" stroke="#6F7380" stroke-width="0.3"/>
<path d="M38.3475 39.4L18.3721 34.0476H18.3816L38.3586 39.3968H38.3475" fill="#23252C"/>
<path d="M38.3475 39.4L18.3721 34.0476H18.3816L38.3586 39.3968H38.3475" stroke="#6F7380" stroke-width="0.3"/>
<path d="M38.3584 39.3968L37.4 39.1413L36.4383 38.8889L35.4736 38.6302L34.5041 38.3714L33.5298 38.1095L32.5524 37.8476L31.5702 37.5841L30.5833 37.3206L29.5901 37.0476L28.5952 36.781L27.5957 36.5079L26.5914 36.2381L25.5823 35.9667L24.5669 35.6952L23.5484 35.4222L22.5251 35.1476L21.4971 34.873L20.4627 34.6032L19.4236 34.3254L18.3813 34.046H18.3908L38.3695 39.3968H38.3584Z" fill="#23252C" stroke="#6F7380" stroke-width="0.3"/>
<path d="M38.3695 39.3968L18.3909 34.0444L19.4347 34.3254L20.4801 34.6032L21.5145 34.881L22.5441 35.1571L23.569 35.4317L24.5875 35.7048L25.6029 35.9762L26.612 36.246L27.6179 36.5159L28.6174 36.7841L29.6138 37.0508L30.6039 37.3159L31.5908 37.581L32.573 37.8444L34.5247 38.3667L35.4926 38.627L36.4589 38.8857L37.419 39.1429L38.3758 39.3984" fill="#23252C"/>
<path d="M38.3695 39.3968L18.3909 34.0444L19.4347 34.3254L20.4801 34.6032L21.5145 34.881L22.5441 35.1571L23.569 35.4317L24.5875 35.7048L25.6029 35.9762L26.612 36.246L27.6179 36.5159L28.6174 36.7841L29.6138 37.0508L30.6039 37.3159L31.5908 37.581L32.573 37.8444L34.5247 38.3667L35.4926 38.627L36.4589 38.8857L37.419 39.1429L38.3758 39.3984" stroke="#6F7380" stroke-width="0.3"/>
<path d="M39.3894 47.481L41.3253 48.9905L22.2624 43.881L20.325 42.3714L39.3894 47.481Z" fill="#23252C" stroke="#6F7380" stroke-width="0.3"/>
<path d="M19.9741 41.5286L39.1114 46.6571V46.6889L19.9741 41.5603C19.9741 41.5492 19.9741 41.5381 19.9741 41.5286Z" fill="#23252C" stroke="#6F7380" stroke-width="0.3"/>
<path d="M19.9803 41.5603L39.1175 46.6889C39.1168 46.7032 39.1168 46.7175 39.1175 46.7317L19.9803 41.6048C19.9774 41.5898 19.9737 41.5749 19.9692 41.5603" fill="#23252C"/>
<path d="M19.9803 41.5603L39.1175 46.6889C39.1168 46.7032 39.1168 46.7175 39.1175 46.7317L19.9803 41.6048C19.9774 41.5898 19.9737 41.5749 19.9692 41.5603" stroke="#6F7380" stroke-width="0.3"/>
<path d="M19.9913 41.6048L39.1286 46.7317C39.1286 46.7444 39.1286 46.7587 39.1286 46.773L20.0008 41.646C20.0008 41.6333 19.9929 41.619 19.9897 41.6048" fill="#23252C"/>
<path d="M19.9913 41.6048L39.1286 46.7317C39.1286 46.7444 39.1286 46.7587 39.1286 46.773L20.0008 41.646C20.0008 41.6333 19.9929 41.619 19.9897 41.6048" stroke="#6F7380" stroke-width="0.3"/>
<path d="M20.0024 41.646L39.1302 46.773C39.1302 46.7857 39.1302 46.7984 39.1302 46.8127L20.0135 41.6873C20.0135 41.673 20.0056 41.6603 20.0024 41.646Z" fill="#23252C" stroke="#6F7380" stroke-width="0.3"/>
<path d="M20.0134 41.6873L39.1364 46.8127C39.1364 46.8254 39.1364 46.8381 39.1443 46.8508L20.0245 41.727C20.0245 41.7143 20.0245 41.7016 20.0134 41.6873Z" fill="#23252C" stroke="#6F7380" stroke-width="0.3"/>
<path d="M20.0249 41.727L39.1447 46.8508C39.144 46.864 39.144 46.8773 39.1447 46.8905L20.0376 41.7683L20.0249 41.727Z" fill="#23252C"/>
<path d="M20.0249 41.727L39.1447 46.8508C39.144 46.864 39.144 46.8773 39.1447 46.8905L20.0376 41.7683L20.0249 41.727" stroke="#6F7380" stroke-width="0.3"/>
<path d="M20.0374 41.7683L39.1524 46.8905C39.1543 46.9033 39.1569 46.916 39.1603 46.9286L20.05 41.8079C20.05 41.7937 20.0421 41.781 20.0374 41.7683Z" fill="#23252C" stroke="#6F7380" stroke-width="0.3"/>
<path d="M20.05 41.8079L39.1604 46.9286L39.1699 46.9683L20.0627 41.8476C20.0627 41.8349 20.0548 41.8206 20.05 41.8079Z" fill="#23252C" stroke="#6F7380" stroke-width="0.3"/>
<path d="M20.063 41.8476L39.1702 46.9683L39.1797 47.0079L20.0772 41.8889L20.063 41.8476Z" fill="#23252C"/>
<path d="M20.063 41.8476L39.1702 46.9683L39.1797 47.0079L20.0772 41.8889L20.063 41.8476" stroke="#6F7380" stroke-width="0.3"/>
<path d="M20.0771 41.8889L39.1796 47.0079C39.1825 47.0219 39.1862 47.0357 39.1907 47.0492L20.0914 41.9302L20.0771 41.8889Z" fill="#23252C"/>
<path d="M20.0771 41.8889L39.1796 47.0079C39.1825 47.0219 39.1862 47.0357 39.1907 47.0492L20.0914 41.9302L20.0771 41.8889" stroke="#6F7380" stroke-width="0.3"/>
<path d="M20.0915 41.9302L39.1908 47.0492C39.1908 47.0635 39.1987 47.0778 39.2019 47.0905L20.101 41.9746C20.101 41.9603 20.0899 41.946 20.0852 41.9302" fill="#23252C"/>
<path d="M20.0915 41.9302L39.1908 47.0492C39.1908 47.0635 39.1987 47.0778 39.2019 47.0905L20.101 41.9746C20.101 41.9603 20.0899 41.946 20.0852 41.9302" stroke="#6F7380" stroke-width="0.3"/>
<path d="M20.1003 41.9746L39.1949 47.0905L39.2091 47.1365L20.1193 42.0206L20.1003 41.9746Z" fill="#23252C" stroke="#6F7380" stroke-width="0.3"/>
<path d="M20.1257 42.0206L39.2155 47.1429C39.2155 47.1603 39.2266 47.1762 39.2313 47.1937L20.1463 42.0714C20.1385 42.0549 20.1316 42.0379 20.1257 42.0206Z" fill="#23252C"/>
<path d="M20.1257 42.0206L39.2155 47.1429C39.2155 47.1603 39.2266 47.1762 39.2313 47.1937L20.1463 42.0714C20.1385 42.0549 20.1316 42.0379 20.1257 42.0206" stroke="#6F7380" stroke-width="0.3"/>
<path d="M20.1465 42.0714L39.2378 47.1873C39.2458 47.2079 39.2521 47.227 39.26 47.246L20.1734 42.1333C20.1639 42.1143 20.156 42.0937 20.1465 42.0714Z" fill="#23252C"/>
<path d="M20.1465 42.0714L39.2378 47.1873C39.2458 47.2079 39.2521 47.227 39.26 47.246L20.1734 42.1333C20.1639 42.1143 20.156 42.0937 20.1465 42.0714" stroke="#6F7380" stroke-width="0.3"/>
<path d="M20.1731 42.1333L39.2534 47.246C39.2797 47.334 39.3263 47.4145 39.3894 47.481L20.3249 42.3714C20.2566 42.3037 20.2028 42.2227 20.1667 42.1333" fill="#23252C"/>
<path d="M20.1731 42.1333L39.2534 47.246C39.2797 47.334 39.3263 47.4145 39.3894 47.481L20.3249 42.3714C20.2566 42.3037 20.2028 42.2227 20.1667 42.1333" stroke="#6F7380" stroke-width="0.3"/>
<path d="M69.5743 17.2333L38.2889 39.9349C38.2881 39.9238 38.2881 39.9127 38.2889 39.9016L69.5664 17.2032C69.5655 17.2137 69.5655 17.2244 69.5664 17.2349" fill="#23252C"/>
<path d="M69.5743 17.2333L38.2889 39.9349C38.2881 39.9238 38.2881 39.9127 38.2889 39.9016L69.5664 17.2032C69.5655 17.2137 69.5655 17.2244 69.5664 17.2349" stroke="#6F7380" stroke-width="0.3"/>
<path d="M69.5666 17.2016L38.2891 39.9016V39.854L69.5618 17.1556L69.5713 17.1984" fill="#23252C"/>
<path d="M69.5666 17.2016L38.2891 39.9016V39.854L69.5618 17.1556L69.5713 17.1984" stroke="#6F7380" stroke-width="0.3"/>
<path d="M69.5571 17.1587L38.2891 39.854V39.8095L69.5587 17.1111C69.5587 17.1238 69.5587 17.1381 69.5666 17.1524" fill="#23252C"/>
<path d="M69.5571 17.1587L38.2891 39.854V39.8095L69.5587 17.1111C69.5587 17.1238 69.5587 17.1381 69.5666 17.1524" stroke="#6F7380" stroke-width="0.3"/>
<path d="M69.5491 17.1175L67.9802 18.254L66.4113 19.3921L64.8439 20.5302L63.2781 21.6698L61.7108 22.8063L60.145 23.9429L58.5792 25.0794L57.015 26.2143L55.4493 27.3508L53.8867 28.4857L52.3225 29.619L50.7599 30.754L49.202 31.8873L47.6346 33.0159L46.0736 34.1476L44.5142 35.281L42.9547 36.4127L41.3953 37.5429L39.8374 38.6746L38.2795 39.8048C38.2795 39.7905 38.2795 39.7762 38.2795 39.7635L69.5412 17.0794C69.5412 17.0921 69.5412 17.1048 69.5412 17.1175" fill="#23252C"/>
<path d="M69.5491 17.1175L67.9802 18.254L66.4113 19.3921L64.8439 20.5302L63.2781 21.6698L61.7108 22.8063L60.145 23.9429L58.5792 25.0794L57.015 26.2143L55.4493 27.3508L53.8867 28.4857L52.3225 29.619L50.7599 30.754L49.202 31.8873L47.6346 33.0159L46.0736 34.1476L44.5142 35.281L42.9547 36.4127L41.3953 37.5429L39.8374 38.6746L38.2795 39.8048C38.2795 39.7905 38.2795 39.7762 38.2795 39.7635L69.5412 17.0794C69.5412 17.0921 69.5412 17.1048 69.5412 17.1175" stroke="#6F7380" stroke-width="0.3"/>
<path d="M69.5411 17.0794L38.2778 39.7683C38.2778 39.7556 38.2778 39.7413 38.2778 39.7302L69.5364 17.0444V17.0794" fill="#23252C"/>
<path d="M69.5411 17.0794L38.2778 39.7683C38.2778 39.7556 38.2778 39.7413 38.2778 39.7302L69.5364 17.0444V17.0794" stroke="#6F7380" stroke-width="0.3"/>
<path d="M69.5362 17.0444L67.9641 18.1841L66.392 19.3254L64.8231 20.4651L63.2526 21.6032L61.6852 22.7413L60.1147 23.8794L58.5489 25.0159L56.9832 26.1524L55.419 27.2873L53.8548 28.4222L52.2922 29.5571L50.7295 30.6905L49.1685 31.8222L47.6091 32.9556L46.0512 34.0857L44.4933 35.2159L42.9386 36.3492L41.3839 37.4778L39.8292 38.6063L38.2761 39.7333V39.6968L39.8261 38.5714L41.3792 37.4444L42.9323 36.3175L44.487 35.1889L46.0433 34.0587L47.6012 32.9286L49.1606 31.7968L50.7201 30.6651L52.2811 29.5317L53.8437 28.3984L55.4079 27.2635L56.9737 26.1286L58.5394 24.9921L60.1068 23.854L61.6741 22.7159L63.2431 21.5778L64.8136 20.4381L66.3857 19.2968L67.9578 18.1556L69.5315 17.0143V17.0476" fill="#23252C"/>
<path d="M69.5362 17.0444L67.9641 18.1841L66.392 19.3254L64.8231 20.4651L63.2526 21.6032L61.6852 22.7413L60.1147 23.8794L58.5489 25.0159L56.9832 26.1524L55.419 27.2873L53.8548 28.4222L52.2922 29.5571L50.7295 30.6905L49.1685 31.8222L47.6091 32.9556L46.0512 34.0857L44.4933 35.2159L42.9386 36.3492L41.3839 37.4778L39.8292 38.6064L38.2761 39.7333V39.6968L39.8261 38.5714L41.3792 37.4444L42.9323 36.3175L44.487 35.1889L46.0433 34.0587L47.6012 32.9286L49.1606 31.7968L50.7201 30.6651L52.2811 29.5317L53.8437 28.3984L55.4079 27.2635L56.9737 26.1286L58.5394 24.9921L60.1068 23.854L61.6741 22.7159L63.2431 21.5778L64.8136 20.4381L66.3857 19.2968L67.9578 18.1556L69.5315 17.0143V17.0476" stroke="#6F7380" stroke-width="0.3"/>
<path d="M69.5315 17.0111L38.2761 39.6937V39.6587L69.5283 16.9841C69.5276 16.9947 69.5276 17.0053 69.5283 17.0159" fill="#23252C"/>
<path d="M69.5315 17.0111L38.2761 39.6937V39.6587L69.5283 16.9841C69.5276 16.9947 69.5276 17.0053 69.5283 17.0159" stroke="#6F7380" stroke-width="0.3"/>
<path d="M69.5283 16.9841L38.2761 39.6587V39.627L69.5252 16.9492C69.5244 16.9592 69.5244 16.9693 69.5252 16.9794" fill="#23252C"/>
<path d="M69.5283 16.9841L38.2761 39.6587V39.627L69.5252 16.9492C69.5244 16.9592 69.5244 16.9693 69.5252 16.9794" stroke="#6F7380" stroke-width="0.3"/>
<path d="M69.5252 16.9492L38.2761 39.627C38.2761 39.6159 38.2761 39.6048 38.2761 39.5952L69.5236 16.9206C69.5228 16.9301 69.5228 16.9397 69.5236 16.9492" fill="#23252C"/>
<path d="M69.5252 16.9492L38.2761 39.627C38.2761 39.6159 38.2761 39.6048 38.2761 39.5952L69.5236 16.9206C69.5228 16.9301 69.5228 16.9397 69.5236 16.9492" stroke="#6F7380" stroke-width="0.3"/>
<path d="M69.5238 16.9206L38.2795 39.5952C38.2795 39.5841 38.2795 39.5746 38.2795 39.5651L69.5222 16.8921C69.5222 16.9016 69.5222 16.9111 69.5222 16.9206" fill="#23252C"/>
<path d="M69.5238 16.9206L38.2795 39.5952C38.2795 39.5841 38.2795 39.5746 38.2795 39.5651L69.5222 16.8921C69.5222 16.9016 69.5222 16.9111 69.5222 16.9206" stroke="#6F7380" stroke-width="0.3"/>
<path d="M69.5223 16.8921L38.2891 39.5651V39.5349L69.5254 16.8651V16.8921" fill="#23252C"/>
<path d="M69.5223 16.8921L38.2891 39.5651V39.5349L69.5254 16.8651V16.8921" stroke="#6F7380" stroke-width="0.3"/>
<path d="M69.5223 16.8651L38.2891 39.5349V39.5048L69.5223 16.8381C69.523 16.8471 69.523 16.8561 69.5223 16.8651Z" fill="#23252C"/>
<path d="M69.5223 16.8651L38.2891 39.5349V39.5048L69.5223 16.8381C69.523 16.8471 69.523 16.8561 69.5223 16.8651" stroke="#6F7380" stroke-width="0.3"/>
<path d="M69.5239 16.8381L38.2891 39.5048C38.2891 39.4937 38.2891 39.4841 38.297 39.4746L69.5286 16.8111V16.8381" fill="#23252C"/>
<path d="M69.5239 16.8381L38.2891 39.5048C38.2891 39.4937 38.2891 39.4841 38.297 39.4746L69.5286 16.8111V16.8381" stroke="#6F7380" stroke-width="0.3"/>
<path d="M69.5284 16.8111L38.2983 39.4746C38.3013 39.4636 38.3056 39.4529 38.311 39.4429L69.5347 16.7825C69.5347 16.7905 69.5347 16.8 69.5347 16.8111" fill="#23252C"/>
<path d="M69.5284 16.8111L38.2983 39.4746C38.3013 39.4636 38.3056 39.4529 38.311 39.4429L69.5347 16.7825C69.5347 16.7905 69.5347 16.8 69.5347 16.8111" stroke="#6F7380" stroke-width="0.3"/>
<path d="M69.5345 16.7825L38.3108 39.4429C38.3164 39.4285 38.3257 39.4159 38.3377 39.4064L39.8702 38.2952L41.4044 37.1841L42.9433 36.073L44.4853 34.954L46.0305 33.8333L47.5773 32.7095L49.1289 31.5841L50.6836 30.4556L52.2398 29.3254L53.8009 28.1937L55.3635 27.0587L56.9293 25.9222L58.4982 24.7841L60.0703 23.6429L61.6519 22.5016L63.2335 21.3571L64.8151 20.2095L66.3966 19.0619L67.9782 17.9111L69.5598 16.7603C69.549 16.768 69.5412 16.7792 69.5377 16.7921" fill="#23252C"/>
<path d="M69.5345 16.7825L38.3108 39.4429C38.3164 39.4285 38.3257 39.4159 38.3377 39.4064L39.8702 38.2952L41.4044 37.1841L42.9433 36.073L44.4853 34.954L46.0305 33.8333L47.5773 32.7095L49.1289 31.5841L50.6836 30.4556L52.2398 29.3254L53.8009 28.1937L55.3635 27.0587L56.9293 25.9222L58.4982 24.7841L60.0703 23.6429L61.6519 22.5016L63.2335 21.3571L64.8151 20.2095L66.3966 19.0619L67.9782 17.9111L69.5598 16.7603C69.549 16.768 69.5412 16.7792 69.5377 16.7921" stroke="#6F7380" stroke-width="0.3"/>
<path d="M71.415 24.2365L73.3524 25.7476L41.3253 48.9905L39.3894 47.481L71.415 24.2365Z" fill="#23252C" stroke="#6F7380" stroke-width="0.3"/>
<path d="M39.1128 46.6571L71.072 23.4635V23.4762L39.116 46.6667V46.6524" fill="#23252C"/>
<path d="M39.1128 46.6571L71.072 23.4635V23.4762L39.116 46.6667V46.6524" stroke="#6F7380" stroke-width="0.3"/>
<path d="M39.1157 46.6667L71.0749 23.4762C71.0749 23.4921 71.0828 23.5079 71.0875 23.5238L39.122 46.7222C39.122 46.7048 39.122 46.6889 39.122 46.6714" fill="#23252C"/>
<path d="M39.1157 46.6667L71.0749 23.4762C71.0749 23.4921 71.0828 23.5079 71.0875 23.5238L39.122 46.7222C39.122 46.7048 39.122 46.6889 39.122 46.6714" stroke="#6F7380" stroke-width="0.3"/>
<path d="M39.1223 46.7222L71.0878 23.5238L71.102 23.5762L39.1318 46.7794L39.1223 46.7222Z" fill="#23252C"/>
<path d="M39.1223 46.7222L71.0878 23.5238L71.102 23.5762L39.1318 46.7794L39.1223 46.7222" stroke="#6F7380" stroke-width="0.3"/>
<path d="M39.1318 46.7794L71.1021 23.5762C71.1195 23.6365 71.1385 23.6952 71.1574 23.7524L39.1698 46.9698C39.1556 46.9079 39.1413 46.8444 39.1318 46.7794Z" fill="#23252C"/>
<path d="M39.1318 46.7794L71.1021 23.5762C71.1195 23.6365 71.1385 23.6952 71.1574 23.7524L39.1698 46.9698C39.1556 46.9079 39.1413 46.8444 39.1318 46.7794" stroke="#6F7380" stroke-width="0.3"/>
<path d="M39.1699 46.9698L71.1576 23.7524L71.1765 23.8016L39.1826 47.0222C39.1826 47.0048 39.1826 46.9873 39.1699 46.9698Z" fill="#23252C" stroke="#6F7380" stroke-width="0.3"/>
<path d="M39.1821 47.0222L71.1761 23.8095C71.1761 23.8238 71.1856 23.8381 71.1919 23.8524L39.1948 47.0667C39.1948 47.0524 39.1869 47.0365 39.1821 47.0222Z" fill="#23252C"/>
<path d="M39.1821 47.0222L71.1761 23.8095C71.1761 23.8238 71.1856 23.8381 71.1919 23.8524L39.1948 47.0667C39.1948 47.0524 39.1869 47.0365 39.1821 47.0222" stroke="#6F7380" stroke-width="0.3"/>
<path d="M39.1951 47.0667L71.1859 23.8444C71.1859 23.8587 71.1969 23.8714 71.2017 23.8857L39.2077 47.1095C39.2028 47.0955 39.1986 47.0812 39.1951 47.0667Z" fill="#23252C"/>
<path d="M39.1951 47.0667L71.1859 23.8444C71.1859 23.8587 71.1969 23.8714 71.2017 23.8857L39.2077 47.1095C39.2028 47.0955 39.1986 47.0812 39.1951 47.0667" stroke="#6F7380" stroke-width="0.3"/>
<path d="M39.2083 47.1095L71.2085 23.8857C71.2137 23.8987 71.2195 23.9114 71.2259 23.9238L39.2209 47.1524C39.216 47.1383 39.2117 47.124 39.2083 47.1095Z" fill="#23252C" stroke="#6F7380" stroke-width="0.3"/>
<path d="M39.2205 47.1524L71.2255 23.9238C71.2255 23.9381 71.2366 23.9508 71.2413 23.9635L39.2379 47.1921C39.2379 47.1794 39.2299 47.1667 39.2252 47.1524" fill="#23252C"/>
<path d="M39.2205 47.1524L71.2255 23.9238C71.2255 23.9381 71.2366 23.9508 71.2413 23.9635L39.2379 47.1921C39.2379 47.1794 39.2299 47.1667 39.2252 47.1524" stroke="#6F7380" stroke-width="0.3"/>
<path d="M39.2377 47.1921L71.2411 23.9683C71.2411 23.9794 71.2522 23.9921 71.2585 24.0032L39.2471 47.2317L39.2329 47.1921" fill="#23252C"/>
<path d="M39.2377 47.1921L71.2411 23.9683C71.2411 23.9794 71.2522 23.9921 71.2585 24.0032L39.2471 47.2317L39.2329 47.1921" stroke="#6F7380" stroke-width="0.3"/>
<path d="M39.2473 47.2317L71.2587 23.9984L71.2745 24.0317L39.2615 47.2667L39.2473 47.2317Z" fill="#23252C"/>
<path d="M39.2473 47.2317L71.2587 23.9984L71.2745 24.0317L39.2615 47.2667L39.2473 47.2317" stroke="#6F7380" stroke-width="0.3"/>
<path d="M39.2617 47.2667L71.2747 24.0317C71.2747 24.0429 71.2857 24.054 71.2905 24.0635L39.2744 47.3016L39.2617 47.2683" fill="#23252C"/>
<path d="M39.2617 47.2667L71.2747 24.0317C71.2747 24.0429 71.2857 24.054 71.2905 24.0635L39.2744 47.3016L39.2617 47.2683" stroke="#6F7380" stroke-width="0.3"/>
<path d="M39.2744 47.3016L71.2905 24.0635C71.2964 24.0727 71.3017 24.0822 71.3063 24.0921L39.2886 47.3302L39.2744 47.3" fill="#23252C"/>
<path d="M39.2744 47.3016L71.2905 24.0635C71.2964 24.0727 71.3017 24.0822 71.3063 24.0921L39.2886 47.3302L39.2744 47.3" stroke="#6F7380" stroke-width="0.3"/>
<path d="M39.2883 47.3302L71.306 24.0921L71.3218 24.119L39.301 47.3571L39.2883 47.3302Z" fill="#23252C" stroke="#6F7380" stroke-width="0.3"/>
<path d="M39.301 47.3571L71.3219 24.127L71.3377 24.1508L39.3153 47.3841L39.301 47.3571Z" fill="#23252C"/>
<path d="M39.301 47.3571L71.3219 24.127L71.3377 24.1508L39.3153 47.3841L39.301 47.3571" stroke="#6F7380" stroke-width="0.3"/>
<path d="M39.3152 47.3841L71.3439 24.1429C71.3485 24.1513 71.3538 24.1592 71.3598 24.1667L39.3294 47.4079L39.3152 47.3841Z" fill="#23252C"/>
<path d="M39.3152 47.3841L71.3439 24.1429C71.3485 24.1513 71.3538 24.1592 71.3598 24.1667L39.3294 47.4079L39.3152 47.3841" stroke="#6F7380" stroke-width="0.3"/>
<path d="M39.3293 47.4079L71.3534 24.1667L71.3692 24.1889L39.3452 47.4317L39.3293 47.4079Z" fill="#23252C" stroke="#6F7380" stroke-width="0.3"/>
<path d="M39.3455 47.4317L71.3695 24.1889L71.3869 24.2095L39.3613 47.4603C39.3556 47.4537 39.3503 47.4468 39.3455 47.4397" fill="#23252C"/>
<path d="M39.3455 47.4317L71.3695 24.1889L71.3869 24.2095L39.3613 47.4603C39.3556 47.4537 39.3503 47.4468 39.3455 47.4397" stroke="#6F7380" stroke-width="0.3"/>
<path d="M39.3608 47.4603L71.3864 24.2095C71.3919 24.2166 71.3983 24.223 71.4054 24.2286L39.3798 47.4714L39.3608 47.4524" fill="#23252C"/>
<path d="M39.3608 47.4603L71.3864 24.2095C71.392 24.2166 71.3983 24.223 71.4054 24.2286L39.3798 47.4714L39.3608 47.4524" stroke="#6F7380" stroke-width="0.3"/>
<path d="M39.3801 47.4714L71.4057 24.2286L71.4152 24.2365L39.3959 47.481L39.3865 47.4714" fill="#23252C"/>
<path d="M39.3801 47.4714L71.4057 24.2286L71.4152 24.2365L39.3959 47.481L39.3865 47.4714" stroke="#6F7380" stroke-width="0.3"/>
<path d="M73.3528 25.7476L101.277 26.427C101.286 26.4347 101.296 26.4406 101.307 26.4444L99.8476 26.4095L98.3957 26.373L96.9532 26.3381L95.5172 26.3032L94.0937 26.2683L92.6703 26.2349L91.2579 26.2L89.8503 26.1651L88.4506 26.1317L87.0572 26.0968L85.6686 26.0635L84.2863 26.0302L82.9087 25.9968L81.5375 25.9635L80.1694 25.9302L78.8077 25.8968L77.4491 25.8635L76.0937 25.8302L74.743 25.7984L73.3955 25.7651C73.3803 25.7636 73.366 25.7575 73.3544 25.7476" fill="#23252C"/>
<path d="M73.3528 25.7476L101.277 26.427C101.286 26.4347 101.296 26.4406 101.307 26.4444L99.8476 26.4095L98.3957 26.373L96.9532 26.3381L95.5172 26.3032L94.0937 26.2683L92.6703 26.2349L91.2579 26.2L89.8503 26.1651L88.4506 26.1317L87.0572 26.0968L85.6686 26.0635L84.2863 26.0302L82.9087 25.9968L81.5375 25.9635L80.1694 25.9302L78.8077 25.8968L77.4491 25.8635L76.0937 25.8302L74.743 25.7984L73.3955 25.7651C73.3803 25.7636 73.366 25.7575 73.3544 25.7476" stroke="#6F7380" stroke-width="0.3"/>
<path d="M101.277 26.427L101.971 19.0111H101.979L101.941 19.4095L101.905 19.7968L101.869 20.1794L101.834 20.554L101.799 20.9238L101.766 21.2873L101.733 21.6492L101.698 22.0064L101.665 22.3635L101.631 22.719L101.598 23.0746L101.565 23.4302L101.532 23.7889L101.499 24.1492L101.464 24.5143L101.429 24.8841L101.394 25.2587L101.359 25.6397L101.323 26.0286L101.285 26.4254" fill="#23252C"/>
<path d="M101.277 26.427L101.971 19.0111H101.979L101.941 19.4095L101.905 19.7968L101.869 20.1794L101.834 20.554L101.799 20.9238L101.766 21.2873L101.733 21.6492L101.698 22.0064L101.665 22.3635L101.631 22.719L101.598 23.0746L101.565 23.4302L101.532 23.7889L101.499 24.1492L101.464 24.5143L101.429 24.8841L101.394 25.2587L101.359 25.6397L101.323 26.0286L101.285 26.4254" stroke="#6F7380" stroke-width="0.3"/>
<path d="M101.285 26.4317L101.323 26.0349L101.359 25.646L101.394 25.2651L101.429 24.8905L101.464 24.5206L101.498 24.1556L101.532 23.7952L101.565 23.4365L101.598 23.081L101.631 22.7254L101.664 22.3698L101.698 22.0127L101.732 21.6556L101.766 21.2937L101.799 20.9302L101.834 20.5603L101.868 20.1857L101.905 19.8032L101.941 19.4159L101.979 19.0175V19.027L101.286 26.4365C101.286 26.4365 101.286 26.4365 101.279 26.4365" fill="#23252C"/>
<path d="M101.285 26.4317L101.323 26.0349L101.359 25.646L101.394 25.2651L101.429 24.8905L101.464 24.5206L101.498 24.1556L101.532 23.7952L101.565 23.4365L101.598 23.081L101.631 22.7254L101.664 22.3698L101.698 22.0127L101.732 21.6556L101.766 21.2937L101.799 20.9302L101.834 20.5603L101.868 20.1857L101.905 19.8032L101.941 19.4159L101.979 19.0175V19.027L101.286 26.4365C101.286 26.4365 101.286 26.4365 101.279 26.4365" stroke="#6F7380" stroke-width="0.3"/>
<path d="M101.293 26.4365L101.986 19.027V19.0365L101.295 26.4413" fill="#23252C"/>
<path d="M101.293 26.4365L101.986 19.027V19.0365L101.295 26.4413" stroke="#6F7380" stroke-width="0.3"/>
<path d="M101.299 26.4413L101.99 19.0365C101.99 19.0365 101.99 19.0444 101.99 19.0492L101.299 26.4429" fill="#23252C"/>
<path d="M101.299 26.4413L101.99 19.0365C101.99 19.0365 101.99 19.0444 101.99 19.0492L101.299 26.4429" stroke="#6F7380" stroke-width="0.3"/>
<path d="M101.304 26.4429L101.995 19.0476C101.996 19.0518 101.996 19.0561 101.995 19.0603L101.304 26.4429Z" fill="#23252C" stroke="#6F7380" stroke-width="0.3"/>
<path d="M101.307 26.4444L101.998 19.0619C101.998 19.0619 101.998 19.073 101.998 19.0794L101.309 26.4429" fill="#23252C"/>
<path d="M101.307 26.4444L101.998 19.0619C101.998 19.0619 101.998 19.073 101.998 19.0794L101.309 26.4429" stroke="#6F7380" stroke-width="0.3"/>
<path d="M101.31 26.4429L101.347 26.0492L101.383 25.6651L101.418 25.2857L101.454 24.9143L101.487 24.546L101.522 24.1841L101.555 23.8254L101.589 23.4698L101.622 23.1143L101.655 22.7619L101.688 22.4079L101.722 22.054L101.755 21.6968L101.788 21.3381L101.821 20.9762L101.856 20.6095L101.891 20.2365L101.926 19.8587L101.962 19.473L102 19.0794C101.999 19.0841 101.999 19.0889 102 19.0937L101.963 19.4857L101.927 19.8698L101.892 20.2476L101.858 20.619L101.823 20.9857L101.79 21.346L101.756 21.7048L101.723 22.0603L101.69 22.4143L101.657 22.7667L101.623 23.1206L101.59 23.4746L101.557 23.8302L101.524 24.1873L101.489 24.5492L101.456 24.9159L101.421 25.2873L101.385 25.6651L101.35 26.0492L101.313 26.4413" fill="#23252C"/>
<path d="M101.31 26.4429L101.347 26.0492L101.383 25.6651L101.418 25.2857L101.454 24.9143L101.487 24.546L101.522 24.1841L101.555 23.8254L101.589 23.4698L101.622 23.1143L101.655 22.7619L101.688 22.4079L101.722 22.054L101.755 21.6968L101.788 21.3381L101.821 20.9762L101.856 20.6095L101.891 20.2365L101.926 19.8587L101.962 19.473L102 19.0794C101.999 19.0841 101.999 19.0889 102 19.0937L101.963 19.4857L101.927 19.8698L101.892 20.2476L101.858 20.619L101.823 20.9857L101.79 21.346L101.756 21.7048L101.723 22.0603L101.69 22.4143L101.657 22.7667L101.623 23.1206L101.59 23.4746L101.557 23.8302L101.524 24.1873L101.489 24.5492L101.456 24.9159L101.421 25.2873L101.385 25.6651L101.35 26.0492L101.313 26.4413" stroke="#6F7380" stroke-width="0.3"/>
<path d="M99.18 17.954L69.5743 17.2333C69.5735 17.2222 69.5735 17.2111 69.5743 17.2L99.2243 17.9206L99.1879 17.954" fill="#23252C"/>
<path d="M99.18 17.954L69.5743 17.2333C69.5735 17.2222 69.5735 17.2111 69.5743 17.2L99.2243 17.9206L99.1879 17.954" stroke="#6F7380" stroke-width="0.3"/>
<path d="M99.2162 17.9206L69.5662 17.2C69.5532 17.1477 69.5432 17.0947 69.5361 17.0413L71.026 17.0778L72.5143 17.1127L74.0025 17.1492L75.4908 17.1857L76.9791 17.2222L78.4674 17.2571L79.9556 17.2937L81.4439 17.3302L82.9322 17.3667L84.422 17.4032L85.9119 17.4381L87.4049 17.4746L88.8979 17.5111L90.3925 17.5476L91.8887 17.5841L93.3865 17.6206L94.8874 17.6571L96.3899 17.6937L97.8956 17.7302L99.4044 17.7667C99.3428 17.8143 99.2795 17.8651 99.2162 17.9254" fill="#23252C"/>
<path d="M99.2162 17.9206L69.5662 17.2C69.5532 17.1477 69.5432 17.0947 69.5361 17.0413L71.026 17.0778L72.5143 17.1127L74.0025 17.1492L75.4908 17.1857L76.9791 17.2222L78.4674 17.2571L79.9556 17.2937L81.4439 17.3302L82.9322 17.3667L84.422 17.4032L85.9119 17.4381L87.4049 17.4746L88.8979 17.5111L90.3925 17.5476L91.8887 17.5841L93.3865 17.6206L94.8874 17.6571L96.3899 17.6937L97.8956 17.7302L99.4044 17.7667C99.3428 17.8143 99.2795 17.8651 99.2162 17.9254" stroke="#6F7380" stroke-width="0.3"/>
<path d="M99.4045 17.7667L69.5362 17.0413C69.5362 17.0111 69.5283 16.9841 69.5251 16.9587L99.5121 17.6889C99.4773 17.7127 99.4409 17.7381 99.4045 17.7667Z" fill="#23252C" stroke="#6F7380" stroke-width="0.3"/>
<path d="M99.5121 17.6889L69.5251 16.9587C69.5251 16.9429 69.5251 16.927 69.5251 16.9111L99.5848 17.6413L99.5137 17.6889" fill="#23252C"/>
<path d="M99.5121 17.6889L69.5251 16.9587C69.5251 16.9429 69.5251 16.927 69.5251 16.9111L99.5848 17.6413L99.5137 17.6889" stroke="#6F7380" stroke-width="0.3"/>
<path d="M99.5832 17.6413L69.5235 16.9111C69.5228 16.899 69.5228 16.8868 69.5235 16.8746L99.6402 17.6079L99.5848 17.6413" fill="#23252C"/>
<path d="M99.5832 17.6413L69.5235 16.9111C69.5228 16.899 69.5228 16.8868 69.5235 16.8746L99.6402 17.6079L99.5848 17.6413" stroke="#6F7380" stroke-width="0.3"/>
<path d="M99.6386 17.6079L69.522 16.8746C69.522 16.8651 69.522 16.8556 69.522 16.846L99.686 17.5794L99.637 17.6079" fill="#23252C"/>
<path d="M99.6386 17.6079L69.522 16.8746C69.522 16.8651 69.522 16.8556 69.522 16.846L99.686 17.5794L99.637 17.6079" stroke="#6F7380" stroke-width="0.3"/>
<path d="M99.6876 17.5794L98.1487 17.5429L96.6146 17.5048L95.0868 17.4683L93.5637 17.4302L92.0438 17.3937L90.5302 17.3571L89.0182 17.3206L87.5109 17.2841L86.0069 17.2476L84.5043 17.2111L83.0034 17.1746L81.5056 17.1381L80.0079 17.1016L78.5101 17.0651L77.0139 17.0286L75.5178 16.9921L74.0216 16.9556L72.5238 16.919L71.0245 16.8825L69.5235 16.846C69.5228 16.8381 69.5228 16.8301 69.5235 16.8222L99.7319 17.5571L99.6876 17.5794Z" fill="#23252C"/>
<path d="M99.6876 17.5794L98.1487 17.5429L96.6146 17.5048L95.0868 17.4683L93.5637 17.4302L92.0438 17.3937L90.5302 17.3571L89.0182 17.3206L87.5109 17.2841L86.0069 17.2476L84.5043 17.2111L83.0034 17.1746L81.5056 17.1381L80.0079 17.1016L78.5101 17.0651L77.0139 17.0286L75.5178 16.9921L74.0216 16.9556L72.5238 16.919L71.0245 16.8825L69.5235 16.846C69.5228 16.8381 69.5228 16.8301 69.5235 16.8222L99.7319 17.5571L99.6876 17.5794" stroke="#6F7380" stroke-width="0.3"/>
<path d="M99.732 17.5571L69.5236 16.8222C69.5227 16.8159 69.5227 16.8095 69.5236 16.8032L99.7652 17.5381L99.7256 17.5571" fill="#23252C"/>
<path d="M99.732 17.5571L69.5236 16.8222C69.5227 16.8159 69.5227 16.8095 69.5236 16.8032L99.7652 17.5381L99.7256 17.5571" stroke="#6F7380" stroke-width="0.3"/>
<path d="M99.7716 17.5381L69.53 16.8032V16.7857L71.0341 16.8222L72.5366 16.8587L74.0391 16.8952L75.5385 16.9317L77.0378 16.9683L78.5372 17.0048L80.0381 17.0413L81.539 17.0778L83.0415 17.1143L84.5456 17.1508L86.0513 17.1873L87.5617 17.2238L89.0753 17.2603L90.592 17.2968L92.1135 17.3349L93.6398 17.3714L95.1708 17.4079L96.7096 17.446L98.2533 17.4841L99.8048 17.5206L99.7668 17.5381" fill="#23252C"/>
<path d="M99.7716 17.5381L69.53 16.8032V16.7857L71.0341 16.8222L72.5366 16.8587L74.0391 16.8952L75.5385 16.9317L77.0378 16.9683L78.5372 17.0048L80.0381 17.0413L81.539 17.0778L83.0415 17.1143L84.5456 17.1508L86.0513 17.1873L87.5617 17.2238L89.0753 17.2603L90.592 17.2968L92.1135 17.3349L93.6398 17.3714L95.1708 17.4079L96.7096 17.446L98.2533 17.4841L99.8048 17.5206L99.7668 17.5381" stroke="#6F7380" stroke-width="0.3"/>
<path d="M99.8127 17.5206L98.2612 17.4841L96.7175 17.446L95.1787 17.4079L93.6477 17.3714L92.1214 17.3349L90.6 17.2968L89.0832 17.2603L87.5696 17.2238L86.0592 17.1873L84.5535 17.1508L83.0494 17.1143L81.5469 17.0778L80.046 17.0413L78.5451 17.0048L77.0378 16.9683L75.5385 16.9317L74.0391 16.8952L72.5366 16.8587L71.0341 16.8222L69.53 16.7857V16.7714L99.8443 17.5079L99.8095 17.5206" fill="#23252C"/>
<path d="M99.8127 17.5206L98.2612 17.4841L96.7175 17.446L95.1787 17.4079L93.6477 17.3714L92.1214 17.3349L90.6 17.2968L89.0832 17.2603L87.5696 17.2238L86.0592 17.1873L84.5535 17.1508L83.0495 17.1143L81.5469 17.0778L80.046 17.0413L78.5451 17.0048L77.0378 16.9683L75.5385 16.9317L74.0391 16.8952L72.5366 16.8587L71.0341 16.8222L69.53 16.7857V16.7714L99.8443 17.5079L99.8095 17.5206" stroke="#6F7380" stroke-width="0.3"/>
<path d="M99.8444 17.5079L69.5396 16.7714V16.7603L71.0468 16.7968L72.5525 16.8333L74.055 16.8698L75.5559 16.9063L77.0584 16.9429L78.5593 16.9794L80.0603 17.0159L81.5628 17.0524L83.0669 17.0889L84.5741 17.1254L86.083 17.1619L87.595 17.1984L89.1101 17.2349L90.63 17.273L92.1563 17.3095L93.6857 17.3476L95.2214 17.3841L96.765 17.4222L98.3134 17.4587L99.8713 17.4968L99.838 17.5079" fill="#23252C"/>
<path d="M99.8444 17.5079L69.5396 16.7714V16.7603L71.0468 16.7968L72.5525 16.8333L74.055 16.8698L75.5559 16.9063L77.0584 16.9429L78.5593 16.9794L80.0603 17.0159L81.5628 17.0524L83.0669 17.0889L84.5741 17.1254L86.083 17.1619L87.595 17.1984L89.1101 17.2349L90.63 17.273L92.1563 17.3095L93.6857 17.3476L95.2214 17.3841L96.765 17.4222L98.3134 17.4587L99.8713 17.4968L99.838 17.5079" stroke="#6F7380" stroke-width="0.3"/>
<path d="M99.8776 17.4968L69.5459 16.7603L69.5554 16.7508L99.9092 17.4889H99.8776" fill="#23252C"/>
<path d="M99.8776 17.4968L69.5459 16.7603L69.5554 16.7508L99.9092 17.4889H99.8776" stroke="#6F7380" stroke-width="0.3"/>
<path d="M99.909 17.4889L69.5552 16.7508H69.5647L99.9312 17.4889H99.9011" fill="#23252C"/>
<path d="M99.909 17.4889L69.5552 16.7508H69.5647L99.9312 17.4889H99.9011" stroke="#6F7380" stroke-width="0.3"/>
<path d="M99.9395 17.4841L69.573 16.746H69.5841L99.9711 17.4825H99.9411" fill="#23252C"/>
<path d="M99.9395 17.4841L69.573 16.746H69.5841L99.9711 17.4825H99.9411" stroke="#6F7380" stroke-width="0.3"/>
<path d="M99.9709 17.4825L98.4083 17.4444L96.852 17.4064L95.3036 17.3683L93.7631 17.3317L92.2211 17.3016L90.6917 17.2651L89.1686 17.2286L87.6487 17.1905L86.1336 17.154L84.6231 17.1175L83.1143 17.081L81.6086 17.0444L80.103 17.0079L78.6004 16.9714L77.0979 16.9349L75.5938 16.8984L74.0898 16.8619L72.5857 16.8254L71.0784 16.7889L69.5696 16.7524L71.0784 16.7889L72.5857 16.8254L74.0898 16.8619L75.5938 16.8984L77.0964 16.9349L78.6004 16.9714L80.103 17.0079L81.6071 17.0444L83.1143 17.081L84.6231 17.1175L86.1336 17.154L87.6487 17.1905L89.1686 17.2286L90.6917 17.2651L92.2211 17.3016L93.7552 17.3397L95.2957 17.3762L96.8441 17.4143L98.4004 17.4524L99.9646 17.4905" fill="#23252C"/>
<path d="M99.9709 17.4825L98.4083 17.4444L96.852 17.4064L95.3036 17.3683L93.7631 17.3317L92.2211 17.3016L90.6917 17.2651L89.1686 17.2286L87.6487 17.1905L86.1336 17.154L84.6231 17.1175L83.1143 17.081L81.6086 17.0444L80.103 17.0079L78.6004 16.9714L77.0979 16.9349L75.5938 16.8984L74.0898 16.8619L72.5857 16.8254L71.0784 16.7889L69.5696 16.7524L71.0784 16.7889L72.5857 16.8254L74.0898 16.8619L75.5938 16.8984L77.0964 16.9349L78.6004 16.9714L80.103 17.0079L81.6071 17.0444L83.1143 17.081L84.6231 17.1175L86.1336 17.154L87.6487 17.1905L89.1686 17.2286L90.6917 17.2651L92.2211 17.3016L93.7552 17.3397L95.2957 17.3762L96.8441 17.4143L98.4004 17.4524L99.9646 17.4905" stroke="#6F7380" stroke-width="0.3"/>
<path d="M99.3396 24.9159L101.277 26.427L73.3525 25.7476L71.415 24.2365L99.3396 24.9159Z" fill="#23252C" stroke="#6F7380" stroke-width="0.3"/>
<path d="M100.034 17.5016L101.971 19.0111L101.277 26.427L99.3396 24.9159L100.034 17.5016Z" fill="#23252C" stroke="#6F7380" stroke-width="0.3"/>
<path d="M99.1801 17.954L98.6028 24.127L71.0721 23.4571L39.1129 46.6571L19.9757 41.5286L5.92009 56.5841L1.69092 52.4889L18.3893 34.6032L38.2889 39.9349L69.5711 17.2365L99.1801 17.954Z" fill="#23252C" stroke="#6F7380" stroke-width="0.3"/>
<path d="M71.0718 23.4635L98.6025 24.127L98.6468 24.1778L71.0844 23.5063C71.0844 23.4889 71.0765 23.473 71.0718 23.4571" fill="#23252C"/>
<path d="M71.0718 23.4635L98.6025 24.127L98.6468 24.1778L71.0844 23.5063C71.0844 23.4889 71.0765 23.473 71.0718 23.4571" stroke="#6F7380" stroke-width="0.3"/>
<path d="M71.0845 23.5127L98.6468 24.1841L98.6943 24.2397L71.0987 23.5683L71.0845 23.5127Z" fill="#23252C"/>
<path d="M71.0845 23.5127L98.6468 24.1841L98.6943 24.2397L71.0987 23.5683L71.0845 23.5127" stroke="#6F7380" stroke-width="0.3"/>
<path d="M71.0989 23.5683L98.6944 24.2397L98.7371 24.2873L71.1131 23.6143L71.0989 23.5683Z" fill="#23252C" stroke="#6F7380" stroke-width="0.3"/>
<path d="M71.113 23.6143L98.7371 24.2857L98.7766 24.3302L71.1257 23.6571C71.1257 23.6429 71.1257 23.6286 71.113 23.6127" fill="#23252C"/>
<path d="M71.113 23.6143L98.7371 24.2857L98.7766 24.3302L71.1257 23.6571C71.1257 23.6429 71.1257 23.6286 71.113 23.6127" stroke="#6F7380" stroke-width="0.3"/>
<path d="M71.126 23.6587L98.7769 24.3317L98.8148 24.3746L71.137 23.7016L71.1228 23.6587" fill="#23252C"/>
<path d="M71.126 23.6587L98.7769 24.3317L98.8148 24.3746L71.137 23.7016L71.1228 23.6587" stroke="#6F7380" stroke-width="0.3"/>
<path d="M71.1401 23.7016L98.8179 24.3746L98.8559 24.4159L71.1544 23.7429L71.1401 23.7016Z" fill="#23252C"/>
<path d="M71.1401 23.7016L98.8179 24.3746L98.8559 24.4159L71.1544 23.7429L71.1401 23.7016" stroke="#6F7380" stroke-width="0.3"/>
<path d="M71.1545 23.7429L98.8529 24.4159L98.8893 24.4571L71.1688 23.7825L71.1545 23.7429Z" fill="#23252C" stroke="#6F7380" stroke-width="0.3"/>
<path d="M71.1687 23.7825L98.8892 24.4571L98.9272 24.4968L71.1861 23.8222L71.1719 23.7825" fill="#23252C"/>
<path d="M71.1687 23.7825L98.8892 24.4571L98.9272 24.4968L71.1861 23.8222L71.1719 23.7825" stroke="#6F7380" stroke-width="0.3"/>
<path d="M71.186 23.8222L98.9303 24.4968L98.9667 24.5381L71.2018 23.8619C71.1973 23.8484 71.192 23.8352 71.186 23.8222Z" fill="#23252C"/>
<path d="M71.186 23.8222L98.9303 24.4968L98.9667 24.5381L71.2018 23.8619C71.1973 23.8484 71.192 23.8352 71.186 23.8222" stroke="#6F7380" stroke-width="0.3"/>
<path d="M71.1982 23.8619L98.963 24.5381L99.001 24.5778L71.2141 23.9016L71.1982 23.8619Z" fill="#23252C" stroke="#6F7380" stroke-width="0.3"/>
<path d="M71.2144 23.9016L99.0013 24.5778L99.0392 24.619L71.2333 23.9429L71.2144 23.9016Z" fill="#23252C" stroke="#6F7380" stroke-width="0.3"/>
<path d="M71.2332 23.9429L99.0392 24.619L99.0803 24.6619L71.2443 23.9857L71.2253 23.9429" fill="#23252C"/>
<path d="M71.2332 23.9429L99.0392 24.619L99.0803 24.6619L71.2443 23.9857L71.2253 23.9429" stroke="#6F7380" stroke-width="0.3"/>
<path d="M71.2524 23.9857L99.0884 24.6619L99.1327 24.7095L71.2746 24.0317C71.2746 24.0159 71.2588 24.0016 71.2524 23.9857Z" fill="#23252C"/>
<path d="M71.2524 23.9857L99.0884 24.6619L99.1327 24.7095L71.2746 24.0317C71.2746 24.0159 71.2588 24.0016 71.2524 23.9857" stroke="#6F7380" stroke-width="0.3"/>
<path d="M71.2744 24.0317L99.1246 24.7095L99.1784 24.7635L71.3029 24.0857L71.2744 24.0317Z" fill="#23252C"/>
<path d="M71.2744 24.0317L99.1246 24.7095L99.1784 24.7635L71.3029 24.0857L71.2744 24.0317" stroke="#6F7380" stroke-width="0.3"/>
<path d="M71.303 24.0857L99.1801 24.7619C99.229 24.8184 99.2819 24.8715 99.3382 24.9206L71.4121 24.2413C71.3662 24.198 71.3281 24.147 71.2998 24.0905" fill="#23252C"/>
<path d="M71.303 24.0857L99.1801 24.7619C99.229 24.8184 99.2819 24.8715 99.3382 24.9206L71.4121 24.2413C71.3662 24.198 71.3281 24.147 71.2998 24.0905" stroke="#6F7380" stroke-width="0.3"/>
<path d="M98.6026 24.127L99.1799 17.954L98.6011 24.1444" fill="#23252C"/>
<path d="M98.6026 24.127L99.1799 17.954L98.6011 24.1444" stroke="#6F7380" stroke-width="0.3"/>
<path d="M98.6074 24.1381L99.1863 17.9476L99.2037 17.9302L98.6217 24.154L98.6074 24.1365" fill="#23252C"/>
<path d="M98.6074 24.1381L99.1863 17.9476L99.2037 17.9302L98.6217 24.154L98.6074 24.1365" stroke="#6F7380" stroke-width="0.3"/>
<path d="M98.6216 24.1556L99.2036 17.9365L99.2226 17.9206L98.6374 24.1778L98.6216 24.1603" fill="#23252C"/>
<path d="M98.6216 24.1556L99.2036 17.9365L99.2226 17.9206L98.6374 24.1778L98.6216 24.1603" stroke="#6F7380" stroke-width="0.3"/>
<path d="M98.6377 24.173L99.2229 17.9159L99.2387 17.9016L98.6519 24.1889L98.6377 24.173Z" fill="#23252C" stroke="#6F7380" stroke-width="0.3"/>
<path d="M98.6519 24.1889L99.2386 17.9016L99.2513 17.8905L98.6613 24.2016L98.6519 24.1889Z" fill="#23252C"/>
<path d="M98.6519 24.1889L99.2386 17.9016L99.2513 17.8905L98.6613 24.2016L98.6519 24.1889" stroke="#6F7380" stroke-width="0.3"/>
<path d="M98.6611 24.2016L99.2511 17.8905L99.2653 17.8794L98.6722 24.2127L98.6611 24.2016Z" fill="#23252C" stroke="#6F7380" stroke-width="0.3"/>
<path d="M98.6726 24.2127L99.2657 17.8794L99.2784 17.8683L98.6837 24.2254L98.6726 24.2127Z" fill="#23252C"/>
<path d="M98.6726 24.2127L99.2657 17.8794L99.2784 17.8683L98.6837 24.2254L98.6726 24.2127" stroke="#6F7380" stroke-width="0.3"/>
<path d="M98.6833 24.2254L99.278 17.8683L99.2907 17.8571L98.6928 24.2365L98.6833 24.2254Z" fill="#23252C"/>
<path d="M98.6833 24.2254L99.278 17.8683L99.2907 17.8571L98.6928 24.2365L98.6833 24.2254" stroke="#6F7380" stroke-width="0.3"/>
<path d="M98.6926 24.2365L99.2905 17.8571L98.7053 24.246L98.6974 24.2365" fill="#23252C"/>
<path d="M98.6926 24.2365L99.2905 17.8571L98.7053 24.246L98.6974 24.2365" stroke="#6F7380" stroke-width="0.3"/>
<path d="M98.7056 24.246L99.3034 17.8508H99.3129L98.7056 24.254V24.246Z" fill="#23252C" stroke="#6F7380" stroke-width="0.3"/>
<path d="M98.7056 24.254L99.305 17.8429L99.3145 17.8349L98.7135 24.2635L98.7056 24.254Z" fill="#23252C" stroke="#6F7380" stroke-width="0.3"/>
<path d="M98.7164 24.2635L99.3174 17.8349L98.7148 24.2778V24.2698" fill="#23252C"/>
<path d="M98.7164 24.2635L99.3174 17.8349L98.7148 24.2778V24.2698" stroke="#6F7380" stroke-width="0.3"/>
<path d="M98.7229 24.2714L99.3255 17.8286L99.335 17.8206L98.7308 24.2857" fill="#23252C"/>
<path d="M98.7229 24.2714L99.3255 17.8286L99.335 17.8206L98.7308 24.2857" stroke="#6F7380" stroke-width="0.3"/>
<path d="M98.7307 24.2857L99.338 17.8206H99.3475L98.7386 24.2857L98.7307 24.2762" fill="#23252C"/>
<path d="M98.7307 24.2857L99.338 17.8206H99.3475L98.7386 24.2857L98.7307 24.2762" stroke="#6F7380" stroke-width="0.3"/>
<path d="M98.7388 24.2857L99.3445 17.8095L98.7388 24.2968" fill="#23252C"/>
<path d="M98.7388 24.2857L99.3445 17.8095L98.7388 24.2968" stroke="#6F7380" stroke-width="0.3"/>
<path d="M98.745 24.2952L99.3507 17.8079L98.7434 24.3159V24.3079" fill="#23252C"/>
<path d="M98.745 24.2952L99.3507 17.8079L98.7434 24.3159V24.3079" stroke="#6F7380" stroke-width="0.3"/>
<path d="M98.7513 24.3032L99.3587 17.7952L98.7498 24.3032" fill="#23252C"/>
<path d="M98.7513 24.3032L99.3587 17.7952L98.7498 24.3032" stroke="#6F7380" stroke-width="0.3"/>
<path d="M98.7578 24.3095L99.3667 17.8016L98.7578 24.327" fill="#23252C"/>
<path d="M98.7578 24.3095L99.3667 17.8016L98.7578 24.327" stroke="#6F7380" stroke-width="0.3"/>
<path d="M98.7639 24.3159L99.3728 17.7905L98.7607 24.3302V24.3222" fill="#23252C"/>
<path d="M98.7639 24.3159L99.3728 17.7905L98.7607 24.3302V24.3222" stroke="#6F7380" stroke-width="0.3"/>
<path d="M98.7688 24.3238L99.3809 17.7841H99.3888L98.7751 24.3349" fill="#23252C"/>
<path d="M98.7688 24.3238L99.3809 17.7841H99.3888L98.7751 24.3349" stroke="#6F7380" stroke-width="0.3"/>
<path d="M98.7749 24.3302L99.3886 17.7778L98.7749 24.3413" fill="#23252C"/>
<path d="M98.7749 24.3302L99.3886 17.7778L98.7749 24.3413" stroke="#6F7380" stroke-width="0.3"/>
<path d="M98.7811 24.3365L99.3948 17.7778L98.7795 24.3556V24.3476" fill="#23252C"/>
<path d="M98.7811 24.3365L99.3948 17.7778L98.7795 24.3556V24.3476" stroke="#6F7380" stroke-width="0.3"/>
<path d="M98.7876 24.3444L99.4028 17.7667H99.4107L98.7939 24.3571V24.3492" fill="#23252C"/>
<path d="M98.7876 24.3444L99.4028 17.7667H99.4107L98.7939 24.3571V24.3492" stroke="#6F7380" stroke-width="0.3"/>
<path d="M98.794 24.3524L99.4109 17.7619L98.794 24.3651H98.7861" fill="#23252C"/>
<path d="M98.794 24.3524L99.4109 17.7619L98.794 24.3651H98.7861" stroke="#6F7380" stroke-width="0.3"/>
<path d="M98.8019 24.3587L99.4187 17.7556L98.8003 24.373V24.3651" fill="#23252C"/>
<path d="M98.8019 24.3587L99.4187 17.7556L98.8003 24.373V24.3651" stroke="#6F7380" stroke-width="0.3"/>
<path d="M98.8083 24.3667L99.4267 17.7492H99.4347L98.8147 24.3778" fill="#23252C"/>
<path d="M98.8083 24.3667L99.4267 17.7492H99.4347L98.8147 24.3778" stroke="#6F7380" stroke-width="0.3"/>
<path d="M98.8148 24.373L99.4348 17.7444L98.8132 24.3873V24.3794" fill="#23252C"/>
<path d="M98.8148 24.373L99.4348 17.7444L98.8132 24.3873V24.3794" stroke="#6F7380" stroke-width="0.3"/>
<path d="M98.8208 24.381L99.4424 17.7381H99.4503L98.8271 24.3952" fill="#23252C"/>
<path d="M98.8208 24.381L99.4424 17.7381H99.4503L98.8271 24.3952" stroke="#6F7380" stroke-width="0.3"/>
<path d="M98.8271 24.3889L99.4503 17.7317L99.4614 17.7238L98.8366 24.3905L98.8271 24.381" fill="#23252C"/>
<path d="M98.8271 24.3889L99.4503 17.7317L99.4614 17.7238L98.8366 24.3905L98.8271 24.381" stroke="#6F7380" stroke-width="0.3"/>
<path d="M98.8369 24.3984L99.4616 17.7317L99.4743 17.7222L98.8416 24.419L98.8306 24.4064" fill="#23252C"/>
<path d="M98.8369 24.3984L99.4616 17.7317L99.4743 17.7222L98.8416 24.419L98.8306 24.4064" stroke="#6F7380" stroke-width="0.3"/>
<path d="M98.8477 24.4111L99.4803 17.7143H99.4929L98.8603 24.4317L98.8492 24.419" fill="#23252C"/>
<path d="M98.8477 24.4111L99.4803 17.7143H99.4929L98.8603 24.4317L98.8492 24.419" stroke="#6F7380" stroke-width="0.3"/>
<path d="M98.8635 24.4238L99.4962 17.7064L99.5088 17.6968L98.8762 24.4349L98.8651 24.4238" fill="#23252C"/>
<path d="M98.8635 24.4238L99.4962 17.7064L99.5088 17.6968L98.8762 24.4349L98.8651 24.4238" stroke="#6F7380" stroke-width="0.3"/>
<path d="M98.8635 24.4349L99.4962 17.6968L99.5578 17.6556L98.9252 24.4921L98.873 24.4349" fill="#23252C"/>
<path d="M98.8635 24.4349L99.4962 17.6968L99.5578 17.6556L98.9252 24.4921L98.873 24.4349" stroke="#6F7380" stroke-width="0.3"/>
<path d="M98.9221 24.4921L99.5548 17.6556H99.5674L98.9348 24.5127L98.9237 24.5" fill="#23252C"/>
<path d="M98.9221 24.4921L99.5548 17.6556H99.5674L98.9348 24.5127L98.9237 24.5" stroke="#6F7380" stroke-width="0.3"/>
<path d="M98.9332 24.5048L99.5658 17.6476L99.5801 17.6381L98.9364 24.5175L98.9253 24.5048" fill="#23252C"/>
<path d="M98.9332 24.5048L99.5658 17.6476L99.5801 17.6381L98.9364 24.5175L98.9253 24.5048" stroke="#6F7380" stroke-width="0.3"/>
<path d="M98.9443 24.5175L99.588 17.6381L99.6007 17.6302L98.9554 24.5286L98.9443 24.5175Z" fill="#23252C" stroke="#6F7380" stroke-width="0.3"/>
<path d="M98.9553 24.5286L99.6006 17.6302H99.6117L98.9648 24.546L98.9553 24.5349" fill="#23252C"/>
<path d="M98.9553 24.5286L99.6006 17.6302H99.6117L98.9648 24.546L98.9553 24.5349" stroke="#6F7380" stroke-width="0.3"/>
<path d="M98.9651 24.5397L99.612 17.619H99.6214L98.973 24.5476H98.9651" fill="#23252C"/>
<path d="M98.9651 24.5397L99.612 17.619H99.6214L98.973 24.5476H98.9651" stroke="#6F7380" stroke-width="0.3"/>
<path d="M98.9727 24.5476L99.6211 17.619H99.629L98.9806 24.5619V24.554" fill="#23252C"/>
<path d="M98.9727 24.5476L99.6211 17.619H99.629L98.9806 24.5619V24.554" stroke="#6F7380" stroke-width="0.3"/>
<path d="M98.9808 24.5556L99.6293 17.6127L98.9792 24.5683V24.5603" fill="#23252C"/>
<path d="M98.9808 24.5556L99.6293 17.6127L98.9792 24.5683V24.5603" stroke="#6F7380" stroke-width="0.3"/>
<path d="M98.9868 24.5635L99.6368 17.6079H99.6463L98.9947 24.5762L98.9868 24.5683" fill="#23252C"/>
<path d="M98.9868 24.5635L99.6368 17.6079H99.6463L98.9947 24.5762L98.9868 24.5683" stroke="#6F7380" stroke-width="0.3"/>
<path d="M98.9949 24.5714L99.6544 17.6032L99.0012 24.5873V24.5794" fill="#23252C"/>
<path d="M98.9949 24.5714L99.6544 17.6032L99.0012 24.5873V24.5794" stroke="#6F7380" stroke-width="0.3"/>
<path d="M99.0012 24.5794L99.6544 17.5952H99.6639L99.0091 24.5889" fill="#23252C"/>
<path d="M99.0012 24.5794L99.6544 17.5952H99.6639L99.0091 24.5889" stroke="#6F7380" stroke-width="0.3"/>
<path d="M99.009 24.5873L99.6638 17.5937H99.6717L99.0217 24.6032L99.0138 24.5952" fill="#23252C"/>
<path d="M99.009 24.5873L99.6638 17.5937H99.6717L99.0217 24.6032L99.0138 24.5952" stroke="#6F7380" stroke-width="0.3"/>
<path d="M99.022 24.6032L99.6768 17.5968L99.022 24.6032V24.5952V24.6032Z" fill="#23252C"/>
<path d="M99.022 24.6032L99.6768 17.5968L99.022 24.6032ZM99.022 24.6032V24.5952" stroke="#6F7380" stroke-width="0.3"/>
<path d="M99.022 24.6032L99.6783 17.5841H99.6878L99.0299 24.6159V24.6079" fill="#23252C"/>
<path d="M99.022 24.6032L99.6783 17.5841H99.6878L99.0299 24.6159V24.6079" stroke="#6F7380" stroke-width="0.3"/>
<path d="M99.0313 24.6111L99.6893 17.5794L99.0313 24.6222H99.0234" fill="#23252C"/>
<path d="M99.0313 24.6111L99.6893 17.5794L99.0313 24.6222H99.0234" stroke="#6F7380" stroke-width="0.3"/>
<path d="M99.0391 24.6175L99.697 17.5746H99.7065L99.0454 24.6317V24.6222" fill="#23252C"/>
<path d="M99.0391 24.6175L99.697 17.5746H99.7065L99.0454 24.6317V24.6222" stroke="#6F7380" stroke-width="0.3"/>
<path d="M99.0457 24.627L99.7068 17.5698H99.7162L99.0551 24.6429L99.0457 24.6333" fill="#23252C"/>
<path d="M99.0457 24.627L99.7068 17.5698H99.7162L99.0551 24.6429L99.0457 24.6333" stroke="#6F7380" stroke-width="0.3"/>
<path d="M99.0549 24.6365L99.716 17.5635H99.7271L99.0644 24.6508L99.0549 24.6413" fill="#23252C"/>
<path d="M99.0549 24.6365L99.716 17.5635H99.7271L99.0644 24.6508L99.0549 24.6413" stroke="#6F7380" stroke-width="0.3"/>
<path d="M99.0647 24.646L99.7274 17.5587H99.7385L99.0742 24.6603L99.0647 24.6508" fill="#23252C"/>
<path d="M99.0647 24.646L99.7274 17.5587H99.7385L99.0742 24.6603L99.0647 24.6508" stroke="#6F7380" stroke-width="0.3"/>
<path d="M99.074 24.6556L99.7382 17.554H99.7477L99.0835 24.6698L99.074 24.6603" fill="#23252C"/>
<path d="M99.074 24.6556L99.7382 17.554H99.7477L99.0835 24.6698L99.074 24.6603" stroke="#6F7380" stroke-width="0.3"/>
<path d="M99.0835 24.6651L99.7478 17.5492L99.7636 17.5413L99.0961 24.6841L99.0835 24.6714" fill="#23252C"/>
<path d="M99.0835 24.6651L99.7478 17.5492L99.7636 17.5413L99.0961 24.6841L99.0835 24.6714" stroke="#6F7380" stroke-width="0.3"/>
<path d="M99.0962 24.6778L99.7636 17.5349H99.7779L99.1088 24.6921L99.0962 24.6778Z" fill="#23252C"/>
<path d="M99.0962 24.6778L99.7636 17.5349H99.7779L99.1088 24.6921L99.0962 24.6778" stroke="#6F7380" stroke-width="0.3"/>
<path d="M99.1089 24.6921L99.7779 17.5349H99.7921L99.1215 24.7111L99.1089 24.6984" fill="#23252C"/>
<path d="M99.1089 24.6921L99.7779 17.5349H99.7921L99.1215 24.7111L99.1089 24.6984" stroke="#6F7380" stroke-width="0.3"/>
<path d="M99.1213 24.7048L99.7919 17.5286L99.8125 17.519L99.1387 24.7238L99.1213 24.7048Z" fill="#23252C" stroke="#6F7380" stroke-width="0.3"/>
<path d="M99.1389 24.7238L99.8127 17.519H99.8332L99.1563 24.7476L99.1389 24.7302" fill="#23252C"/>
<path d="M99.1389 24.7238L99.8127 17.519H99.8332L99.1563 24.7476L99.1389 24.7302" stroke="#6F7380" stroke-width="0.3"/>
<path d="M99.1562 24.7413L99.8332 17.5127L99.8569 17.5032L99.18 24.7619L99.1578 24.7397" fill="#23252C"/>
<path d="M99.1562 24.7413L99.8332 17.5127L99.8569 17.5032L99.18 24.7619L99.1578 24.7397" stroke="#6F7380" stroke-width="0.3"/>
<path d="M99.1797 24.7619L99.8582 17.5016H99.8819L99.2002 24.7889C99.1928 24.7804 99.1859 24.7714 99.1797 24.7619Z" fill="#23252C"/>
<path d="M99.1797 24.7619L99.8582 17.5016H99.8819L99.2002 24.7889C99.1928 24.7804 99.1859 24.7714 99.1797 24.7619" stroke="#6F7380" stroke-width="0.3"/>
<path d="M99.199 24.7841L99.8806 17.4968H99.9028L99.2195 24.8111C99.2123 24.8046 99.2054 24.7977 99.199 24.7905" fill="#23252C"/>
<path d="M99.199 24.7841L99.8806 17.4968H99.9028L99.2195 24.8111C99.2123 24.8046 99.2054 24.7977 99.199 24.7905" stroke="#6F7380" stroke-width="0.3"/>
<path d="M99.2195 24.8048L99.9027 17.4905H99.9233L99.2385 24.8286L99.2195 24.8095" fill="#23252C"/>
<path d="M99.2195 24.8048L99.9027 17.4905H99.9233L99.2385 24.8286L99.2195 24.8095" stroke="#6F7380" stroke-width="0.3"/>
<path d="M99.2388 24.8238L99.9236 17.4857H99.9426L99.2546 24.8413L99.2388 24.8254" fill="#23252C"/>
<path d="M99.2388 24.8238L99.9236 17.4857H99.9426L99.2546 24.8413L99.2388 24.8254" stroke="#6F7380" stroke-width="0.3"/>
<path d="M99.2542 24.8397L99.9421 17.4841H99.9595L99.27 24.8556L99.2542 24.8413" fill="#23252C"/>
<path d="M99.2542 24.8397L99.9421 17.4841H99.9595L99.27 24.8556L99.2542 24.8413" stroke="#6F7380" stroke-width="0.3"/>
<path d="M99.27 24.854L99.9596 17.4825H99.9754L99.2842 24.8683L99.27 24.854Z" fill="#23252C" stroke="#6F7380" stroke-width="0.3"/>
<path d="M99.2843 24.8683L99.9707 17.4825H99.9849L99.2922 24.8778L99.2795 24.8667" fill="#23252C"/>
<path d="M99.2843 24.8683L99.9707 17.4825H99.9849L99.2922 24.8778L99.2795 24.8667" stroke="#6F7380" stroke-width="0.3"/>
<path d="M99.2971 24.8794L99.9899 17.4841H100.003L99.3098 24.8889L99.2971 24.8778" fill="#23252C"/>
<path d="M99.2971 24.8794L99.9899 17.4841H100.003L99.3098 24.8889L99.2971 24.8778" stroke="#6F7380" stroke-width="0.3"/>
<path d="M99.3098 24.8905L100.003 17.4857H100.014L99.3209 24.8952L99.3098 24.8857" fill="#23252C"/>
<path d="M99.3098 24.8905L100.003 17.4857H100.014L99.3209 24.8952L99.3098 24.8857" stroke="#6F7380" stroke-width="0.3"/>
<path d="M99.3206 24.9L100.013 17.4905C100.017 17.4893 100.021 17.4893 100.024 17.4905L99.338 24.9079L99.3285 24.9" fill="#23252C"/>
<path d="M99.3206 24.9L100.013 17.4905C100.017 17.4893 100.021 17.4893 100.024 17.4905L99.338 24.9079L99.3285 24.9" stroke="#6F7380" stroke-width="0.3"/>
<path d="M99.3381 24.9079L100.032 17.4952H100.042L99.3381 24.9206L99.3286 24.9127" fill="#23252C"/>
<path d="M99.3381 24.9079L100.032 17.4952H100.042L99.3381 24.9206L99.3286 24.9127" stroke="#6F7380" stroke-width="0.3"/>
<path d="M99.3396 24.9159L100.032 17.5L100.034 17.5016L99.3396 24.9159Z" fill="#23252C" stroke="#6F7380" stroke-width="0.3"/>
</svg>
