<svg width="81" height="78" viewBox="0 0 81 78" fill="none" xmlns="http://www.w3.org/2000/svg">
<path d="M5.82668 21.4907L6.79827 25.0121C6.79905 25.0048 6.79905 24.9976 6.79827 24.9903L5.81396 21.4689V21.4907" fill="#23252C"/>
<path d="M5.82668 21.4907L6.79827 25.0121C6.79905 25.0048 6.79905 24.9976 6.79827 24.9903L5.81396 21.4689V21.4907" stroke="#6F7380" stroke-width="0.5"/>
<path d="M7.56099 27.4593L8.53258 30.9807L6.79825 25.0121L5.82666 21.4907L7.56099 27.4593Z" fill="#23252C" stroke="#6F7380" stroke-width="0.5"/>
<path d="M7.56274 27.472L8.53796 30.9934V30.9807L7.56637 27.4593V27.472" fill="#23252C"/>
<path d="M7.56274 27.472L8.53796 30.9934V30.9807L7.56637 27.4593V27.472" stroke="#6F7380" stroke-width="0.5"/>
<path d="M71.6421 14.4532L72.6137 17.9747C72.648 18.1021 72.6633 18.234 72.6591 18.3659L71.6875 14.8445C71.6926 14.7125 71.6773 14.5806 71.6421 14.4532Z" fill="#23252C"/>
<path d="M71.6421 14.4532L72.6137 17.9747C72.648 18.1021 72.6633 18.234 72.6591 18.3659L71.6875 14.8445C71.6926 14.7125 71.6773 14.5806 71.6421 14.4532" stroke="#6F7380" stroke-width="0.5"/>
<path d="M71.6875 14.8391L72.6591 18.3605V18.4383L71.6875 14.9169V14.8391Z" fill="#23252C" stroke="#6F7380" stroke-width="0.5"/>
<path d="M71.682 14.917L72.6536 18.4384C72.6536 18.4619 72.6536 18.4855 72.6536 18.509L71.6838 14.9858C71.6838 14.9641 71.6838 14.9405 71.6838 14.917" fill="#23252C"/>
<path d="M71.682 14.917L72.6536 18.4384C72.6536 18.4619 72.6536 18.4855 72.6536 18.509L71.6838 14.9858C71.6838 14.9641 71.6838 14.9405 71.6838 14.917" stroke="#6F7380" stroke-width="0.5"/>
<path d="M1.31544 34.9948L2.28521 38.5162C2.1644 38.3731 2.07473 38.2066 2.02188 38.0271C2.02103 38.0217 2.02103 38.0162 2.02188 38.0108L1.05029 34.4894C1.05029 34.4894 1.05029 34.5003 1.05029 34.5057C1.10348 34.6854 1.1938 34.852 1.31544 34.9948Z" fill="#23252C"/>
<path d="M1.31544 34.9948L2.28521 38.5162C2.1644 38.3731 2.07473 38.2066 2.02188 38.0271C2.02103 38.0217 2.02103 38.0162 2.02188 38.0108L1.05029 34.4894C1.05029 34.4894 1.05029 34.5003 1.05029 34.5057C1.10348 34.6854 1.1938 34.852 1.31544 34.9948" stroke="#6F7380" stroke-width="0.5"/>
<path d="M71.6748 14.9858L72.6464 18.5072L71.7293 24.7349L70.7595 21.2135L71.6748 14.9858Z" fill="#23252C" stroke="#6F7380" stroke-width="0.5"/>
<path d="M70.7577 21.2135L71.7365 24.7349C71.7365 24.7603 71.7365 24.7838 71.7275 24.8092L70.7559 21.2878C70.7559 21.2624 70.7559 21.2389 70.7649 21.2135" fill="#23252C"/>
<path d="M70.7577 21.2135L71.7365 24.7349C71.7365 24.7603 71.7365 24.7838 71.7275 24.8092L70.7559 21.2878C70.7559 21.2624 70.7559 21.2389 70.7649 21.2135" stroke="#6F7380" stroke-width="0.5"/>
<path d="M70.7487 21.2878L71.7202 24.8092C71.7184 24.8369 71.7184 24.8648 71.7202 24.8925L70.7487 21.3711V21.2878Z" fill="#23252C" stroke="#6F7380" stroke-width="0.5"/>
<path d="M70.7432 21.3711L71.7148 24.8925C71.7107 25.022 71.726 25.1515 71.7602 25.2765L70.7886 21.7551C70.7544 21.6301 70.7391 21.5006 70.7432 21.3711Z" fill="#23252C"/>
<path d="M70.7432 21.3711L71.7148 24.8925C71.7107 25.022 71.726 25.1515 71.7602 25.2765L70.7886 21.7551C70.7544 21.6301 70.7391 21.5006 70.7432 21.3711" stroke="#6F7380" stroke-width="0.5"/>
<path d="M5.46329 39.8603L6.43488 43.3817L2.28702 38.5162L1.31543 34.9948L5.46329 39.8603Z" fill="#23252C" stroke="#6F7380" stroke-width="0.5"/>
<path d="M5.73215 40.3566L6.70374 43.878C6.65248 43.693 6.56068 43.5216 6.43497 43.3762L5.46338 39.853C5.58878 39.9993 5.68052 40.1712 5.73215 40.3566Z" fill="#23252C"/>
<path d="M5.73215 40.3566L6.70374 43.878C6.65248 43.693 6.56068 43.5216 6.43497 43.3762L5.46338 39.853C5.58878 39.9993 5.68052 40.1712 5.73215 40.3566" stroke="#6F7380" stroke-width="0.5"/>
<path d="M78.0927 26.3543L79.0642 29.8757C79.099 30.0007 79.1149 30.1301 79.1115 30.2597L78.1399 26.7383C78.1433 26.6087 78.1274 26.4793 78.0927 26.3543Z" fill="#23252C" stroke="#6F7380" stroke-width="0.5"/>
<path d="M78.1309 26.7383L79.1024 30.2597V30.3485L78.1309 26.8253V26.7383Z" fill="#23252C" stroke="#6F7380" stroke-width="0.5"/>
<path d="M78.1254 26.8253L79.097 30.3485C79.097 30.3684 79.097 30.3901 79.097 30.4101C79.0722 30.5745 79.0187 30.7332 78.939 30.8792L77.9674 27.3578C78.0472 27.2118 78.1006 27.0531 78.1254 26.8887C78.1254 26.8687 78.1254 26.847 78.1254 26.8253Z" fill="#23252C"/>
<path d="M78.1254 26.8253L79.097 30.3485C79.097 30.3684 79.097 30.3901 79.097 30.4101C79.0722 30.5745 79.0187 30.7332 78.939 30.8792L77.9674 27.3578C78.0472 27.2118 78.1006 27.0531 78.1254 26.8887C78.1254 26.8687 78.1254 26.847 78.1254 26.8253" stroke="#6F7380" stroke-width="0.5"/>
<path d="M77.9583 27.3578L78.9299 30.8793L78.8918 30.9445L77.9202 27.4212L77.9583 27.3578Z" fill="#23252C" stroke="#6F7380" stroke-width="0.5"/>
<path d="M2.68121 48.9753L3.6528 52.4931C3.4798 52.4093 3.32588 52.2909 3.2006 52.1453C3.079 52.0032 2.98868 51.8372 2.93546 51.6581C2.93477 51.652 2.93477 51.646 2.93546 51.6399L1.96387 48.1185C1.96387 48.1185 1.96387 48.1294 1.96387 48.1367C2.01709 48.3158 2.10742 48.4818 2.22901 48.6239C2.35479 48.769 2.50858 48.8873 2.68121 48.9717" fill="#23252C"/>
<path d="M2.68121 48.9753L3.6528 52.4931C3.4798 52.4093 3.32588 52.2909 3.2006 52.1453C3.079 52.0032 2.98868 51.8372 2.93546 51.6581C2.93477 51.652 2.93477 51.646 2.93546 51.6399L1.96387 48.1185C1.96387 48.1185 1.96387 48.1294 1.96387 48.1367C2.01709 48.3158 2.10742 48.4818 2.22901 48.6239C2.35479 48.769 2.50858 48.8873 2.68121 48.9717" stroke="#6F7380" stroke-width="0.5"/>
<path d="M77.9201 27.4213L78.8917 30.9427L75.4322 36.5635L74.4606 33.0421L77.9201 27.4213Z" fill="#23252C" stroke="#6F7380" stroke-width="0.5"/>
<path d="M8.53428 51.87L9.50587 55.3914L3.65274 52.4967L2.68115 48.9753L8.53428 51.87Z" fill="#23252C" stroke="#6F7380" stroke-width="0.5"/>
<path d="M74.4605 33.0421L75.4321 36.5653C75.4194 36.5834 75.4085 36.6034 75.3976 36.6215L74.426 33.1001L74.4605 33.0421Z" fill="#23252C" stroke="#6F7380" stroke-width="0.5"/>
<path d="M74.4261 33.1001L75.3977 36.6215C75.3053 36.7894 75.2478 36.9743 75.2288 37.1649L74.2572 33.6435C74.2762 33.4529 74.3337 33.268 74.4261 33.1001Z" fill="#23252C"/>
<path d="M74.4261 33.1001L75.3977 36.6215C75.3053 36.7894 75.2478 36.9743 75.2288 37.1649L74.2572 33.6435C74.2762 33.4529 74.3337 33.268 74.4261 33.1001" stroke="#6F7380" stroke-width="0.5"/>
<path d="M74.2572 33.6381L75.2288 37.1595V37.25L74.2572 33.7286V33.6381Z" fill="#23252C" stroke="#6F7380" stroke-width="0.5"/>
<path d="M74.2517 33.7286L75.2233 37.25C75.2233 37.2917 75.2233 37.3334 75.2233 37.375C75.2285 37.4621 75.2431 37.5483 75.2669 37.6323L74.2953 34.1109C74.273 34.0267 74.259 33.9405 74.2535 33.8536C74.2535 33.812 74.2535 33.7703 74.2535 33.7286" fill="#23252C"/>
<path d="M74.2517 33.7286L75.2233 37.25C75.2233 37.2917 75.2233 37.3334 75.2233 37.375C75.2285 37.4621 75.2431 37.5483 75.2669 37.6323L74.2953 34.1109C74.273 34.0267 74.259 33.9405 74.2535 33.8536C74.2535 33.812 74.2535 33.7703 74.2535 33.7286" stroke="#6F7380" stroke-width="0.5"/>
<path d="M9.25361 52.7214L10.2252 56.2428C10.1997 56.1483 10.1631 56.0571 10.1162 55.9711C9.9779 55.7195 9.76469 55.5169 9.50604 55.3914L8.53809 51.87C8.79709 51.995 9.01043 52.1977 9.14828 52.4497C9.19512 52.5357 9.2317 52.6269 9.25724 52.7214" fill="#23252C"/>
<path d="M9.25361 52.7214L10.2252 56.2428C10.1997 56.1483 10.1631 56.0571 10.1162 55.9711C9.9779 55.7195 9.76469 55.5169 9.50604 55.3914L8.53809 51.87C8.79709 51.995 9.01043 52.1977 9.14828 52.4497C9.19512 52.5357 9.2317 52.6269 9.25724 52.7214" stroke="#6F7380" stroke-width="0.5"/>
<path d="M78.9825 39.9943L79.9541 43.5157C79.9883 43.6395 80.0036 43.7678 79.9995 43.8961L79.0279 40.3747C79.032 40.2464 79.0167 40.1181 78.9825 39.9943Z" fill="#23252C"/>
<path d="M78.9825 39.9943L79.9541 43.5157C79.9883 43.6395 80.0036 43.7678 79.9995 43.8961L79.0279 40.3747C79.032 40.2464 79.0167 40.1181 78.9825 39.9943" stroke="#6F7380" stroke-width="0.5"/>
<path d="M79.028 40.3657L79.9995 43.8871C80.0014 43.9172 80.0014 43.9475 79.9995 43.9776L79.028 40.4562C79.0298 40.4261 79.0298 40.3958 79.028 40.3657Z" fill="#23252C"/>
<path d="M79.028 40.3657L79.9995 43.8871C80.0014 43.9172 80.0014 43.9475 79.9995 43.9776L79.028 40.4562C79.0298 40.4261 79.0298 40.3958 79.028 40.3657" stroke="#6F7380" stroke-width="0.5"/>
<path d="M79.0225 40.4562L79.9941 43.9795C79.9941 44.003 79.9941 44.0247 79.985 44.0465C79.9611 44.2116 79.9076 44.3712 79.8271 44.5174L78.8555 40.996C78.9358 40.8495 78.9899 40.6901 79.0153 40.5251C79.0153 40.5033 79.0153 40.4816 79.0153 40.4581" fill="#23252C"/>
<path d="M79.0225 40.4562L79.9941 43.9795C79.9941 44.003 79.9941 44.0247 79.985 44.0465C79.9611 44.2116 79.9076 44.3712 79.8271 44.5174L78.8555 40.996C78.9358 40.8495 78.9899 40.6901 79.0153 40.5251C79.0153 40.5033 79.0153 40.4816 79.0153 40.4581" stroke="#6F7380" stroke-width="0.5"/>
<path d="M78.8555 40.9943L79.827 44.5229L79.7907 44.5845C79.7522 44.6479 79.7091 44.7085 79.6618 44.7656L78.6902 41.2442C78.7375 41.1871 78.7806 41.1265 78.8191 41.0631L78.8555 41.0015" fill="#23252C"/>
<path d="M78.8555 40.9943L79.827 44.5229L79.7907 44.5845C79.7522 44.6479 79.7091 44.7085 79.6618 44.7656L78.6902 41.2442C78.7375 41.1871 78.7806 41.1265 78.8191 41.0631L78.8555 41.0015" stroke="#6F7380" stroke-width="0.5"/>
<path d="M78.6901 41.2333L79.6617 44.7547C79.6067 44.8204 79.546 44.881 79.4801 44.9359L78.5085 41.4145C78.5744 41.3596 78.6351 41.299 78.6901 41.2333Z" fill="#23252C"/>
<path d="M78.6901 41.2333L79.6617 44.7547C79.6067 44.8204 79.546 44.881 79.4801 44.9359L78.5085 41.4145C78.5744 41.3596 78.6351 41.299 78.6901 41.2333" stroke="#6F7380" stroke-width="0.5"/>
<path d="M78.5085 41.4163L79.4801 44.9377L79.3911 45.0101L78.4196 41.4887L78.5085 41.4163Z" fill="#23252C" stroke="#6F7380" stroke-width="0.5"/>
<path d="M9.68943 61.0394L10.661 64.5608C10.2672 64.5322 9.90053 64.35 9.6404 64.0536C9.51531 63.9047 9.42421 63.7304 9.37344 63.5428L8.40186 60.0214C8.45348 60.2069 8.54523 60.3788 8.67063 60.525C8.92984 60.8215 9.29604 61.0038 9.68943 61.0322" fill="#23252C"/>
<path d="M9.68943 61.0394L10.661 64.5608C10.2672 64.5322 9.90053 64.35 9.6404 64.0536C9.51531 63.9047 9.42421 63.7304 9.37344 63.5428L8.40186 60.0214C8.45348 60.2069 8.54523 60.3788 8.67063 60.525C8.92984 60.8215 9.29604 61.0038 9.68943 61.0322" stroke="#6F7380" stroke-width="0.5"/>
<path d="M78.4196 41.4888L79.3912 45.0102L74.0011 49.0134L73.0314 45.492L78.4196 41.4888Z" fill="#23252C" stroke="#6F7380" stroke-width="0.5"/>
<path d="M16.4996 61.6118L17.4712 65.1332L10.661 64.559L9.68945 61.0376L16.4996 61.6118Z" fill="#23252C" stroke="#6F7380" stroke-width="0.5"/>
<path d="M73.0295 45.492L74.0011 49.0134C73.9739 49.0333 73.9484 49.0551 73.9248 49.075L72.9532 45.5536L73.0295 45.492Z" fill="#23252C" stroke="#6F7380" stroke-width="0.5"/>
<path d="M72.9533 45.5536L73.9249 49.075C73.8596 49.1304 73.7988 49.191 73.7433 49.2561L72.7717 45.7347C72.8273 45.6696 72.888 45.609 72.9533 45.5536Z" fill="#23252C"/>
<path d="M72.9533 45.5536L73.9249 49.075C73.8596 49.1304 73.7988 49.191 73.7433 49.2561L72.7717 45.7347C72.8273 45.6696 72.888 45.609 72.9533 45.5536" stroke="#6F7380" stroke-width="0.5"/>
<path d="M72.7717 45.7384L73.7433 49.2598C73.6802 49.3344 73.6249 49.4151 73.578 49.5007L72.6064 45.9721C72.6533 45.8864 72.7086 45.8057 72.7717 45.7311" fill="#23252C"/>
<path d="M72.7717 45.7384L73.7433 49.2598C73.6802 49.3344 73.6249 49.4151 73.578 49.5007L72.6064 45.9721C72.6533 45.8864 72.7086 45.8057 72.7717 45.7311" stroke="#6F7380" stroke-width="0.5"/>
<path d="M72.6064 45.972L73.578 49.4934C73.5403 49.5605 73.5087 49.6308 73.4836 49.7036C73.4457 49.8083 73.4207 49.9171 73.4091 50.0278L72.4393 46.5155C72.4494 46.4047 72.4738 46.2957 72.512 46.1912C72.5378 46.1188 72.5694 46.0485 72.6064 45.9811" fill="#23252C"/>
<path d="M72.6064 45.972L73.578 49.4934C73.5403 49.5605 73.5087 49.6308 73.4836 49.7036C73.4457 49.8083 73.4207 49.9171 73.4091 50.0278L72.4393 46.5155C72.4494 46.4047 72.4738 46.2957 72.512 46.1912C72.5378 46.1188 72.5694 46.0485 72.6064 45.9811" stroke="#6F7380" stroke-width="0.5"/>
<path d="M72.4393 46.5154L73.4091 50.0368V50.1274L72.4375 46.606C72.4375 46.5752 72.4375 46.5462 72.4375 46.5154" fill="#23252C"/>
<path d="M72.4393 46.5154L73.4091 50.0368V50.1274L72.4375 46.606C72.4375 46.5752 72.4375 46.5462 72.4375 46.5154" stroke="#6F7380" stroke-width="0.5"/>
<path d="M72.4321 46.6042L73.4037 50.1257C73.4003 50.2547 73.4162 50.3835 73.4509 50.5079L72.4793 46.9865C72.4446 46.8621 72.4287 46.7333 72.4321 46.6042Z" fill="#23252C"/>
<path d="M72.4321 46.6042L73.4037 50.1257C73.4003 50.2547 73.4162 50.3835 73.4509 50.5079L72.4793 46.9865C72.4446 46.8621 72.4287 46.7333 72.4321 46.6042" stroke="#6F7380" stroke-width="0.5"/>
<path d="M17.7727 62.6008L18.7443 66.1222C18.6637 65.8513 18.499 65.6128 18.2739 65.4412C18.0407 65.2641 17.7615 65.1572 17.4694 65.1332L16.4978 61.6118C16.7899 61.6358 17.0691 61.7427 17.3023 61.9197C17.5274 62.0914 17.6921 62.3299 17.7727 62.6008Z" fill="#23252C" stroke="#6F7380" stroke-width="0.5"/>
<path d="M19.5306 68.6564L20.5004 72.1778L18.7443 66.1222L17.7727 62.6008L19.5306 68.6564Z" fill="#23252C" stroke="#6F7380" stroke-width="0.5"/>
<path d="M74.2263 53.0076L75.1979 56.529C75.2321 56.6522 75.2474 56.7798 75.2433 56.9076L74.279 53.3861C74.2831 53.2584 74.2678 53.1308 74.2336 53.0076" fill="#23252C"/>
<path d="M74.2263 53.0076L75.1979 56.529C75.2321 56.6522 75.2474 56.7798 75.2433 56.9076L74.279 53.3861C74.2831 53.2584 74.2678 53.1308 74.2336 53.0076" stroke="#6F7380" stroke-width="0.5"/>
<path d="M74.2789 53.3862L75.2505 56.9076C75.2505 56.9366 75.2505 56.9655 75.2505 56.9963L74.2789 53.4749C74.2807 53.4454 74.2807 53.4157 74.2789 53.3862Z" fill="#23252C"/>
<path d="M74.2789 53.3862L75.2505 56.9076C75.2505 56.9366 75.2505 56.9655 75.2505 56.9963L74.2789 53.4749C74.2807 53.4454 74.2807 53.4157 74.2789 53.3862" stroke="#6F7380" stroke-width="0.5"/>
<path d="M74.2662 53.4749L75.2378 56.9963C75.2378 57.0162 75.2378 57.038 75.2378 57.0579C75.2123 57.2258 75.1569 57.3877 75.0743 57.5361L74.0973 54.0147C74.1785 53.8659 74.2332 53.704 74.2589 53.5365C74.2589 53.5166 74.2589 53.4948 74.2589 53.4749" fill="#23252C"/>
<path d="M74.2662 53.4749L75.2378 56.9963C75.2378 57.0162 75.2378 57.038 75.2378 57.0579C75.2123 57.2258 75.1569 57.3877 75.0743 57.5361L74.0973 54.0147C74.1785 53.8659 74.2332 53.704 74.2589 53.5365C74.2589 53.5166 74.2589 53.4948 74.2589 53.4749" stroke="#6F7380" stroke-width="0.5"/>
<path d="M74.0973 54.0147L75.0671 57.5361C75.0579 57.5554 75.0476 57.5742 75.0362 57.5923C74.9976 57.6557 74.9545 57.7162 74.9073 57.7734L73.9357 54.252C73.983 54.1948 74.0261 54.1343 74.0646 54.0709L74.0973 54.0147Z" fill="#23252C" stroke="#6F7380" stroke-width="0.5"/>
<path d="M73.9358 54.2502L74.9073 57.7716C74.852 57.8369 74.7912 57.8975 74.7257 57.9527L73.7542 54.4313C73.8196 54.3761 73.8804 54.3155 73.9358 54.2502Z" fill="#23252C" stroke="#6F7380" stroke-width="0.5"/>
<path d="M73.7559 54.4313L74.7275 57.9527L74.6385 58.0252C74.5985 58.0542 74.5586 58.0813 74.5168 58.1067L73.5525 54.5853C73.5943 54.5599 73.6342 54.5328 73.6742 54.5038L73.7631 54.4313" fill="#23252C"/>
<path d="M73.7559 54.4313L74.7275 57.9527L74.6385 58.0252C74.5985 58.0542 74.5586 58.0813 74.5168 58.1067L73.5525 54.5853C73.5943 54.5599 73.6342 54.5328 73.6742 54.5038L73.7631 54.4313" stroke="#6F7380" stroke-width="0.5"/>
<path d="M73.5525 54.5853L74.5169 58.1085C74.4323 58.1614 74.3429 58.2063 74.2499 58.2426L73.2783 54.7212C73.3713 54.6849 73.4607 54.64 73.5453 54.5871" fill="#23252C"/>
<path d="M73.5525 54.5853L74.5169 58.1085C74.4323 58.1614 74.3429 58.2063 74.2499 58.2426L73.2783 54.7212C73.3713 54.6849 73.4607 54.64 73.5453 54.5871" stroke="#6F7380" stroke-width="0.5"/>
<path d="M73.2783 54.7194L74.2499 58.2408C74.2009 58.2589 74.15 58.277 74.0992 58.2915L73.1276 54.7701C73.1784 54.7556 73.2293 54.7375 73.2783 54.7194Z" fill="#23252C" stroke="#6F7380" stroke-width="0.5"/>
<path d="M73.1277 54.7701L74.0992 58.2915L67.4616 60.1917L66.49 56.6703L73.1277 54.7701Z" fill="#23252C" stroke="#6F7380" stroke-width="0.5"/>
<path d="M27.9569 67.7109L28.9285 71.2323L22.3835 73.1071L21.4119 69.5857L27.9569 67.7109Z" fill="#23252C" stroke="#6F7380" stroke-width="0.5"/>
<path d="M21.4121 69.5857L22.3836 73.1071C22.1893 73.1639 21.9861 73.1842 21.7843 73.1669C21.5866 73.1529 21.3936 73.1006 21.2159 73.0129C21.0428 72.9284 20.8889 72.8094 20.7637 72.6633C20.642 72.5222 20.5522 72.3567 20.5004 72.1778L19.5288 68.6564C19.5803 68.8357 19.6709 69.0015 19.794 69.1419C19.919 69.2874 20.0722 69.4064 20.2443 69.4915C20.422 69.5792 20.615 69.6315 20.8128 69.6455C21.0145 69.6627 21.2177 69.6425 21.4121 69.5857Z" fill="#23252C" stroke="#6F7380" stroke-width="0.5"/>
<path d="M66.4881 56.6703L67.4597 60.1917C67.4086 60.2059 67.3583 60.2228 67.309 60.2424L66.3374 56.721C66.3867 56.7014 66.437 56.6845 66.4881 56.6703Z" fill="#23252C" stroke="#6F7380" stroke-width="0.5"/>
<path d="M66.3374 56.721L67.309 60.2424C67.216 60.2787 67.1266 60.3236 67.042 60.3765L66.0704 56.8551C66.155 56.8022 66.2444 56.7573 66.3374 56.721Z" fill="#23252C" stroke="#6F7380" stroke-width="0.5"/>
<path d="M66.0704 56.855L67.042 60.3764C66.9683 60.4214 66.8985 60.4723 66.8332 60.5286L65.8616 57.0072C65.9269 56.9509 65.9967 56.9 66.0704 56.855Z" fill="#23252C"/>
<path d="M66.0704 56.855L67.042 60.3764C66.9683 60.4214 66.8985 60.4723 66.8332 60.5286L65.8616 57.0072C65.9269 56.9509 65.9967 56.9 66.0704 56.855" stroke="#6F7380" stroke-width="0.5"/>
<path d="M65.8616 57.0072L66.8331 60.5286C66.7868 60.5685 66.7425 60.6109 66.7006 60.6554L66.6515 60.7116L65.6818 57.1902C65.6965 57.1706 65.7123 57.1519 65.729 57.134C65.7704 57.089 65.8147 57.0466 65.8616 57.0072Z" fill="#23252C" stroke="#6F7380" stroke-width="0.5"/>
<path d="M65.6817 57.1902L66.6515 60.7116C66.5901 60.7853 66.5359 60.8648 66.4899 60.9489L65.5183 57.4275C65.5644 57.3429 65.6191 57.2634 65.6817 57.1902Z" fill="#23252C"/>
<path d="M65.6817 57.1902L66.6515 60.7116C66.5901 60.7853 66.5359 60.8648 66.4899 60.9489L65.5183 57.4275C65.5644 57.3429 65.6191 57.2634 65.6817 57.1902" stroke="#6F7380" stroke-width="0.5"/>
<path d="M65.5183 57.4275L66.4899 60.9489C66.4087 61.0958 66.354 61.2559 66.3283 61.4217L65.3567 57.9003C65.3824 57.7345 65.4371 57.5744 65.5183 57.4275Z" fill="#23252C"/>
<path d="M65.5183 57.4275L66.4899 60.9489C66.4087 61.0958 66.354 61.2559 66.3283 61.4217L65.3567 57.9003C65.3824 57.7345 65.4371 57.5744 65.5183 57.4275" stroke="#6F7380" stroke-width="0.5"/>
<path d="M29.5806 68.1601L30.5522 71.6815C30.3614 71.4605 30.1082 71.3021 29.8257 71.2269C29.7291 71.1994 29.6299 71.1818 29.5297 71.1743C29.3275 71.1566 29.1237 71.1762 28.9286 71.2323L27.957 67.7091C28.1521 67.653 28.3559 67.6333 28.5581 67.6511C28.6583 67.6586 28.7575 67.6762 28.8542 67.7037C29.1367 67.7789 29.3898 67.9373 29.5806 68.1583" fill="#23252C"/>
<path d="M29.5806 68.1601L30.5522 71.6815C30.3614 71.4605 30.1082 71.3021 29.8257 71.2269C29.7291 71.1994 29.6299 71.1818 29.5297 71.1743C29.3275 71.1566 29.1237 71.1762 28.9286 71.2323L27.957 67.7091C28.1521 67.653 28.3559 67.6333 28.5581 67.6511C28.6583 67.6586 28.7575 67.6762 28.8542 67.7037C29.1367 67.7789 29.3898 67.9373 29.5806 68.1583" stroke="#6F7380" stroke-width="0.5"/>
<path d="M55.9823 64.9557L56.9539 68.4771C56.6981 68.4564 56.441 68.4942 56.2021 68.5876L55.2305 65.0662C55.4694 64.9729 55.7265 64.9351 55.9823 64.9557Z" fill="#23252C"/>
<path d="M55.9823 64.9557L56.9539 68.4771C56.6981 68.4564 56.441 68.4942 56.2021 68.5876L55.2305 65.0662C55.4694 64.9729 55.7265 64.9351 55.9823 64.9557" stroke="#6F7380" stroke-width="0.5"/>
<path d="M55.2304 65.0662L56.202 68.5876C56.1567 68.6043 56.1124 68.6237 56.0694 68.6456C56.0222 68.6691 55.975 68.6945 55.9314 68.7217L54.9598 65.2003C55.0034 65.1731 55.0506 65.1477 55.0979 65.1242C55.1409 65.1023 55.1851 65.0829 55.2304 65.0662Z" fill="#23252C" stroke="#6F7380" stroke-width="0.5"/>
<path d="M54.9598 65.2003L55.9369 68.7217C55.8632 68.7666 55.7933 68.8175 55.728 68.8738L54.751 65.3542C54.8163 65.2979 54.8862 65.247 54.9598 65.2021" fill="#23252C"/>
<path d="M54.9598 65.2003L55.9369 68.7217C55.8632 68.7666 55.7933 68.8175 55.728 68.8738L54.751 65.3542C54.8163 65.2979 54.8862 65.247 54.9598 65.2021" stroke="#6F7380" stroke-width="0.5"/>
<path d="M54.751 65.3542L55.7226 68.8757C55.6571 68.9309 55.5963 68.9915 55.541 69.0568L54.573 65.5354C54.6278 65.4696 54.6886 65.4089 54.7546 65.3542" fill="#23252C"/>
<path d="M54.751 65.3542L55.7226 68.8757C55.6571 68.9309 55.5963 68.9915 55.541 69.0568L54.573 65.5354C54.6278 65.4696 54.6886 65.4089 54.7546 65.3542" stroke="#6F7380" stroke-width="0.5"/>
<path d="M54.573 65.5353L55.5428 69.0567C55.4952 69.1137 55.4521 69.1743 55.4138 69.2379L54.4423 65.7165C54.4809 65.6527 54.5246 65.5921 54.573 65.5353Z" fill="#23252C" stroke="#6F7380" stroke-width="0.5"/>
<path d="M43.0012 68.9191L43.9728 72.4405C43.7954 72.3532 43.6032 72.2998 43.4062 72.2829C43.3059 72.2739 43.205 72.2739 43.1047 72.2829C42.9509 72.2972 42.7999 72.3332 42.6562 72.3898L41.6846 68.8684C41.8283 68.812 41.9793 68.776 42.1331 68.7615C42.2334 68.7525 42.3343 68.7525 42.4346 68.7615C42.6317 68.7784 42.8238 68.8318 43.0012 68.9191Z" fill="#23252C"/>
<path d="M43.0012 68.9191L43.9728 72.4405C43.7954 72.3532 43.6032 72.2998 43.4062 72.2829C43.3059 72.2739 43.205 72.2739 43.1047 72.2829C42.9509 72.2972 42.7999 72.3332 42.6562 72.3898L41.6846 68.8684C41.8283 68.812 41.9793 68.776 42.1331 68.7615C42.2334 68.7525 42.3343 68.7525 42.4346 68.7615C42.6317 68.7784 42.8238 68.8318 43.0012 68.9191" stroke="#6F7380" stroke-width="0.5"/>
<path d="M41.6846 68.872L42.6562 72.3934C42.5624 72.4304 42.4718 72.4752 42.3856 72.5275L41.4086 69.0061C41.4938 68.9531 41.5838 68.9083 41.6773 68.872" fill="#23252C"/>
<path d="M41.6846 68.872L42.6562 72.3934C42.5624 72.4304 42.4718 72.4752 42.3856 72.5275L41.4086 69.0061C41.4938 68.9531 41.5838 68.9083 41.6773 68.872" stroke="#6F7380" stroke-width="0.5"/>
<path d="M41.4085 69.006L42.3783 72.5274L42.2584 72.609L41.2869 69.0876C41.3268 69.0586 41.3668 69.0314 41.4085 69.006Z" fill="#23252C" stroke="#6F7380" stroke-width="0.5"/>
<path d="M65.3585 57.9002L66.3301 61.4216L65.3985 67.7507L64.4269 64.2293L65.3585 57.9002Z" fill="#23252C" stroke="#6F7380" stroke-width="0.5"/>
<path d="M33.674 72.9622L34.6455 76.4836L30.5522 71.6815L29.5824 68.1601L33.674 72.9622Z" fill="#23252C" stroke="#6F7380" stroke-width="0.5"/>
<path d="M62.6908 65.5209L63.6606 69.0423L56.9557 68.4771L55.9841 64.9557L62.6908 65.5209Z" fill="#23252C" stroke="#6F7380" stroke-width="0.5"/>
<path d="M64.4251 64.2311L65.3967 67.7525C65.3727 67.9179 65.3185 68.0776 65.2369 68.2235L64.2653 64.7021C64.3469 64.5562 64.4011 64.3965 64.4251 64.2311Z" fill="#23252C"/>
<path d="M64.4251 64.2311L65.3967 67.7525C65.3727 67.9179 65.3185 68.0776 65.2369 68.2235L64.2653 64.7021C64.3469 64.5562 64.4011 64.3965 64.4251 64.2311" stroke="#6F7380" stroke-width="0.5"/>
<path d="M64.2653 64.7021L65.2369 68.2236C65.1902 68.3083 65.1355 68.3884 65.0735 68.4627L64.1091 64.9412C64.1718 64.8674 64.2266 64.7873 64.2726 64.7021" fill="#23252C"/>
<path d="M64.2653 64.7021L65.2369 68.2236C65.1902 68.3083 65.1355 68.3884 65.0735 68.4627L64.1091 64.9412C64.1718 64.8674 64.2266 64.7873 64.2726 64.7021" stroke="#6F7380" stroke-width="0.5"/>
<path d="M64.1091 64.9412L65.0807 68.4626C65.0248 68.5275 64.9641 68.588 64.8991 68.6438L63.9275 65.1242C63.9925 65.0684 64.0532 65.0079 64.1091 64.943" fill="#23252C"/>
<path d="M64.1091 64.9412L65.0807 68.4626C65.0248 68.5275 64.9641 68.588 64.8991 68.6438L63.9275 65.1242C63.9925 65.0684 64.0532 65.0079 64.1091 64.943" stroke="#6F7380" stroke-width="0.5"/>
<path d="M63.9275 65.1241L64.899 68.6455C64.87 68.6709 64.8391 68.6945 64.8082 68.718L64.6884 68.7995L63.7168 65.2763C63.7583 65.2521 63.7983 65.2255 63.8367 65.1966C63.8675 65.1731 63.8984 65.1495 63.9275 65.1241Z" fill="#23252C" stroke="#6F7380" stroke-width="0.5"/>
<path d="M63.7114 65.2763L64.683 68.7959C64.5975 68.8479 64.5076 68.8922 64.4142 68.9282L63.4426 65.4067C63.5364 65.3709 63.6264 65.326 63.7114 65.2727" fill="#23252C"/>
<path d="M63.7114 65.2763L64.683 68.7959C64.5975 68.8479 64.5076 68.8922 64.4142 68.9282L63.4426 65.4067C63.5364 65.3709 63.6264 65.326 63.7114 65.2727" stroke="#6F7380" stroke-width="0.5"/>
<path d="M63.4426 65.4104L64.4142 68.9318C64.1749 69.0262 63.917 69.064 63.6606 69.0423L62.689 65.5209C62.9454 65.5427 63.2034 65.5049 63.4426 65.4104Z" fill="#23252C" stroke="#6F7380" stroke-width="0.5"/>
<path d="M41.2959 69.0876L42.2675 72.609L36.8067 76.6666L35.8351 73.1452L41.2959 69.0876Z" fill="#23252C" stroke="#6F7380" stroke-width="0.5"/>
<path d="M35.8332 73.1433L36.8048 76.6647C36.7649 76.6937 36.7249 76.7227 36.6831 76.748L35.7115 73.2266C35.7535 73.201 35.7941 73.1731 35.8332 73.1433Z" fill="#23252C"/>
<path d="M35.8332 73.1433L36.8048 76.6647C36.7649 76.6937 36.7249 76.7227 36.6831 76.748L35.7115 73.2266C35.7535 73.201 35.7941 73.1731 35.8332 73.1433" stroke="#6F7380" stroke-width="0.5"/>
<path d="M35.7116 73.2285L36.6868 76.7499C36.602 76.8018 36.5126 76.8461 36.4198 76.8821L35.4482 73.3607C35.541 73.3247 35.6304 73.2804 35.7152 73.2285" fill="#23252C"/>
<path d="M35.7116 73.2285L36.6868 76.7499C36.602 76.8018 36.5126 76.8461 36.4198 76.8821L35.4482 73.3607C35.541 73.3247 35.6304 73.2804 35.7152 73.2285" stroke="#6F7380" stroke-width="0.5"/>
<path d="M35.4446 73.3607L36.4162 76.8821C36.3669 76.9017 36.3166 76.9186 36.2655 76.9328C36.0705 76.9895 35.8667 77.0098 35.6643 76.9926C35.4665 76.9766 35.2736 76.9231 35.0959 76.835C34.9232 76.7499 34.7694 76.631 34.6437 76.4854L33.674 72.9622C33.7986 73.1081 33.9518 73.2271 34.1243 73.3118C34.302 73.3999 34.495 73.4534 34.6928 73.4694C34.8951 73.4866 35.0989 73.4664 35.2939 73.4096C35.345 73.3954 35.3953 73.3785 35.4446 73.3589" fill="#23252C"/>
<path d="M35.4446 73.3607L36.4162 76.8821C36.3669 76.9017 36.3166 76.9186 36.2655 76.9328C36.0705 76.9895 35.8667 77.0098 35.6643 76.9926C35.4665 76.9766 35.2736 76.9231 35.0959 76.835C34.9232 76.7499 34.7694 76.631 34.6437 76.4854L33.674 72.9622C33.7986 73.1081 33.9518 73.2271 34.1243 73.3118C34.302 73.3999 34.495 73.4534 34.6928 73.4694C34.8951 73.4866 35.0989 73.4664 35.2939 73.4096C35.345 73.3954 35.3953 73.3785 35.4446 73.3589" stroke="#6F7380" stroke-width="0.5"/>
<path d="M54.4422 65.7147L55.4138 69.2361L52.0124 74.7827L51.0408 71.2613L54.4422 65.7147Z" fill="#23252C" stroke="#6F7380" stroke-width="0.5"/>
<path d="M48.9342 71.8626L49.9057 75.384L43.9745 72.4405L43.0029 68.9191L48.9342 71.8626Z" fill="#23252C" stroke="#6F7380" stroke-width="0.5"/>
<path d="M51.0336 71.2612L52.0052 74.7826C51.9666 74.846 51.9235 74.9065 51.8763 74.9638L50.9047 71.4424C50.9519 71.3851 50.995 71.3246 51.0336 71.2612Z" fill="#23252C"/>
<path d="M51.0336 71.2612L52.0052 74.7826C51.9666 74.846 51.9235 74.9065 51.8763 74.9638L50.9047 71.4424C50.9519 71.3851 50.995 71.3246 51.0336 71.2612" stroke="#6F7380" stroke-width="0.5"/>
<path d="M50.9118 71.4424L51.8834 74.9638C51.8275 75.0286 51.7668 75.0891 51.7018 75.1449L50.7302 71.6235C50.7956 71.5682 50.8563 71.5076 50.9118 71.4424Z" fill="#23252C"/>
<path d="M50.9118 71.4424L51.8834 74.9638C51.8275 75.0286 51.7668 75.0891 51.7018 75.1449L50.7302 71.6235C50.7956 71.5682 50.8563 71.5076 50.9118 71.4424" stroke="#6F7380" stroke-width="0.5"/>
<path d="M50.7302 71.6253L51.7018 75.1467L51.6146 75.2174C51.5747 75.2463 51.5347 75.2735 51.493 75.2989L50.5232 71.7775L50.643 71.696L50.7302 71.6253Z" fill="#23252C" stroke="#6F7380" stroke-width="0.5"/>
<path d="M50.5233 71.7775L51.4931 75.2989C51.4078 75.3518 51.3178 75.3967 51.2243 75.4329L50.2527 71.9115C50.3467 71.8749 50.4372 71.83 50.5233 71.7775Z" fill="#23252C" stroke="#6F7380" stroke-width="0.5"/>
<path d="M50.2527 71.9115L51.2242 75.4329C51.1752 75.4529 51.1244 75.4691 51.0753 75.4836C50.8802 75.5394 50.6766 75.5597 50.4742 75.5434C50.2764 75.5277 50.0834 75.4742 49.9058 75.3858L48.9342 71.8626C49.1114 71.9523 49.3045 72.0065 49.5026 72.022C49.705 72.0383 49.9086 72.018 50.1037 71.9622C50.1543 71.9481 50.204 71.9311 50.2527 71.9115Z" fill="#23252C"/>
<path d="M50.2527 71.9115L51.2242 75.4329C51.1752 75.4529 51.1244 75.4691 51.0753 75.4836C50.8802 75.5394 50.6766 75.5597 50.4742 75.5434C50.2764 75.5277 50.0834 75.4742 49.9058 75.3858L48.9342 71.8626C49.1114 71.9523 49.3045 72.0065 49.5026 72.022C49.705 72.0383 49.9086 72.018 50.1037 71.9622C50.1543 71.9481 50.204 71.9311 50.2527 71.9115" stroke="#6F7380" stroke-width="0.5"/>
<path d="M45.3528 1.00366C45.5512 1.0209 45.7446 1.07496 45.9231 1.16307C46.0947 1.24821 46.2473 1.36713 46.3716 1.51267L50.4668 6.31656C50.6579 6.53714 50.911 6.69551 51.1932 6.77122C51.2901 6.79777 51.3892 6.81536 51.4893 6.82376C51.6916 6.83995 51.8952 6.8197 52.0904 6.76398L58.6282 4.88916C58.8233 4.83325 59.0269 4.81299 59.2293 4.82938C59.4267 4.84591 59.6195 4.89873 59.7977 4.98517C59.9698 5.06966 60.123 5.18795 60.2481 5.33296C60.37 5.47484 60.4604 5.64092 60.5132 5.82023L62.2693 11.8758C62.3503 12.1466 62.5149 12.3849 62.7397 12.5569C62.9747 12.736 63.2566 12.8436 63.5515 12.8667L70.3489 13.4391C70.5438 13.4527 70.7341 13.5045 70.9089 13.5916C71.0837 13.6786 71.2396 13.7991 71.3677 13.9463C71.49 14.0878 71.5802 14.2539 71.6322 14.4333C71.6843 14.6128 71.6969 14.8013 71.6692 14.986L70.7612 21.2137C70.7182 21.4922 70.7673 21.777 70.901 22.0252C71.0394 22.2778 71.2534 22.4811 71.513 22.6067L77.3662 25.5031C77.5385 25.5881 77.6922 25.7063 77.8184 25.8509C77.9407 25.9926 78.0311 26.1587 78.0835 26.3382C78.1333 26.5149 78.1457 26.6999 78.1198 26.8816C78.0915 27.0706 78.0247 27.2518 77.9237 27.4142L74.4732 33.0296C74.3217 33.2722 74.2499 33.5559 74.268 33.8411C74.2844 34.1214 74.3936 34.3884 74.5785 34.6001L78.7264 39.4692C78.8487 39.6108 78.9391 39.777 78.9915 39.9565C79.0427 40.1366 79.0551 40.3255 79.0278 40.5108C78.9992 40.6997 78.9325 40.8808 78.8317 41.0433C78.7267 41.2112 78.5912 41.358 78.4322 41.4762L73.0421 45.4795C72.8056 45.6572 72.6259 45.8994 72.5246 46.1769C72.4271 46.443 72.4189 46.7335 72.501 47.0047L74.2335 52.9824C74.285 53.1587 74.298 53.3441 74.2716 53.5258C74.244 53.7181 74.1779 53.9029 74.0773 54.0693C73.973 54.2371 73.8381 54.3839 73.6796 54.5022C73.5156 54.6231 73.331 54.7133 73.1348 54.7685L66.488 56.6705C66.1968 56.752 65.9341 56.9125 65.7289 57.1342C65.534 57.3478 65.4075 57.6146 65.3657 57.9004L64.4341 64.2313C64.4035 64.4233 64.3353 64.6073 64.2334 64.773C64.1315 64.9386 63.9979 65.0827 63.8402 65.1968C63.5117 65.44 63.1056 65.5553 62.6979 65.5211L55.9912 64.9559C55.6866 64.9307 55.3808 64.989 55.1068 65.1244C54.8365 65.2551 54.6091 65.4599 54.4512 65.7149L51.0334 71.2615C50.9297 71.4302 50.7947 71.5778 50.6357 71.6962C50.3078 71.9393 49.9025 72.0552 49.4952 72.0222C49.2971 72.0067 49.104 71.9526 48.9268 71.8628L42.9938 68.9193C42.8164 68.832 42.6242 68.7785 42.4272 68.7617C42.0201 68.7306 41.6154 68.8463 41.2867 69.0877L35.8331 73.1435C35.5052 73.3867 35.0998 73.5025 34.6926 73.4696C34.4948 73.4536 34.3019 73.4001 34.1242 73.312C33.9517 73.2273 33.7984 73.1084 33.6738 72.9624L29.5804 68.1585C29.3897 67.9375 29.1365 67.779 28.854 67.7038C28.7574 67.6764 28.6582 67.6588 28.558 67.6513C28.3557 67.6335 28.152 67.6531 27.9569 67.7093L21.4191 69.5841C21.2248 69.6409 21.0216 69.6611 20.8198 69.6439C20.6221 69.6299 20.429 69.5776 20.2514 69.4899C20.0792 69.4047 19.926 69.2858 19.801 69.1403C19.6779 68.9999 19.5874 68.8341 19.5359 68.6548L17.7797 62.5992C17.6992 62.3283 17.5345 62.0898 17.3094 61.9181C17.0761 61.7411 16.797 61.6342 16.5049 61.6102L9.69649 61.0378C9.3031 61.0094 8.93689 60.8271 8.67769 60.5306C8.5557 60.3886 8.46567 60.2221 8.41367 60.0424C8.36166 59.8628 8.34889 59.674 8.37622 59.489L9.29333 53.2595C9.33564 52.9809 9.28592 52.696 9.15168 52.448C9.01383 52.1961 8.80049 51.9934 8.54148 51.8684L2.68836 48.9701C2.51573 48.8856 2.36193 48.7674 2.23616 48.6223C2.11345 48.4807 2.02296 48.3143 1.97092 48.1345C1.91887 47.9547 1.90652 47.7658 1.9347 47.5807C1.96306 47.3918 2.02979 47.2105 2.13083 47.0482L5.58132 41.4328C5.73255 41.1907 5.80487 40.9078 5.78835 40.6231C5.7697 40.3424 5.66007 40.0754 5.476 39.8623L1.31542 34.995C1.19379 34.8522 1.10347 34.6856 1.05028 34.5059C0.999274 34.3264 0.986899 34.1381 1.01396 33.9534C1.04329 33.7641 1.10995 33.5825 1.21009 33.419C1.31561 33.2516 1.45103 33.1049 1.60962 32.9861L6.99966 28.9829C7.23859 28.8071 7.42148 28.5662 7.52631 28.2891C7.62571 28.0231 7.63717 27.7324 7.559 27.4595L5.82649 21.4908C5.77388 21.3116 5.76086 21.1231 5.78835 20.9384C5.81524 20.7493 5.88142 20.5679 5.98267 20.4058C6.08581 20.2377 6.22018 20.0907 6.37857 19.9729C6.54261 19.8521 6.72718 19.7619 6.92338 19.7066L13.561 17.8064C13.8526 17.7234 14.1157 17.5624 14.322 17.3409C14.519 17.1283 14.6486 16.8623 14.6943 16.5765L15.6204 10.2582C15.6488 10.0692 15.7155 9.88801 15.8166 9.72565C15.9216 9.55779 16.0571 9.41096 16.2161 9.29273C16.3799 9.17162 16.5646 9.08137 16.7609 9.02645C16.9563 8.97202 17.1598 8.9524 17.362 8.96848L24.0651 9.53364C24.3709 9.55856 24.6778 9.50034 24.9531 9.36518C25.2231 9.23394 25.4504 9.02922 25.6087 8.77466L29.0047 3.22265C29.1084 3.05385 29.2434 2.9063 29.4025 2.78791C29.73 2.54421 30.1358 2.42884 30.5429 2.46367C30.7409 2.47857 30.934 2.53211 31.1114 2.62126L37.0498 5.55758C37.2272 5.64464 37.4194 5.69749 37.6164 5.71336C37.7173 5.72331 37.8189 5.72331 37.9197 5.71336C38.223 5.68271 38.5124 5.57065 38.7569 5.38911L44.2178 1.33334C44.5452 1.08912 44.9508 0.97253 45.3583 1.00547L45.3528 1.00366Z" fill="#23252C" stroke="#6F7380" stroke-width="0.5"/>
<path d="M62.4385 33.9751L57.7168 33.6454L56.8542 33.5856C57.4115 36.7058 57.0141 39.9212 55.7137 42.813L61.2599 43.1988L60.7714 47.0372L53.4473 46.5264C51.6179 48.8065 49.2632 50.6119 46.5838 51.7889C43.9044 52.9659 40.9794 53.4798 38.0581 53.2866C35.2082 53.0998 32.454 52.1873 30.0584 50.6365C27.7326 49.1252 25.8621 47.0121 24.6465 44.523L17.3242 44.0121L17.8109 40.1756L23.3571 40.5632C22.8224 37.4381 23.2405 34.2248 24.5575 31.3394L18.9823 30.9373L19.4708 27.1007L26.8512 27.6152C28.6836 25.3618 31.0313 23.5797 33.697 22.4186C36.3628 21.2574 39.2689 20.751 42.1714 20.9419C45.0036 21.1298 47.7412 22.0344 50.1257 23.5703C52.4442 25.0645 54.3152 27.1554 55.5412 29.6222L62.9252 30.1367L62.4385 33.9751ZM47.0729 45.2584C49.3964 43.4508 50.921 40.8103 51.3225 37.8986C51.596 35.7989 51.2009 33.6666 50.1929 31.8032C49.1685 29.9341 47.587 28.4288 45.6673 27.4956C44.3606 26.8572 42.942 26.4783 41.4904 26.3798C40.7536 26.3292 40.0137 26.3474 39.2803 26.4341C37.049 26.6995 34.9353 27.5774 33.1747 28.9701C31.438 30.3339 30.1316 32.1676 29.4118 34.2522C28.7158 36.2692 28.6631 38.4517 29.2611 40.4998C29.8638 42.5288 31.0921 44.3168 32.7715 45.6098C34.5026 46.9323 36.5884 47.7122 38.7645 47.8505C41.7624 48.0468 44.7262 47.1227 47.0784 45.2584" fill="#6F7380"/>
<path d="M42.6599 34.1979C43.2396 34.6416 43.6631 35.2575 43.8694 35.9568C44.076 36.6621 44.0582 37.4139 43.8186 38.1087C43.5702 38.8275 43.1202 39.46 42.5219 39.931C41.9147 40.4108 41.1862 40.7136 40.4171 40.8059C40.1645 40.8345 39.9098 40.8406 39.6562 40.824C39.1552 40.7898 38.6656 40.6594 38.2142 40.44C37.5529 40.1174 37.008 39.5986 36.6542 38.9547C36.3066 38.313 36.17 37.5786 36.2638 36.8552C36.4011 35.8521 36.9256 34.9422 37.7257 34.3192C38.535 33.6762 39.5552 33.3566 40.5878 33.4226C41.3401 33.471 42.0612 33.7408 42.6599 34.1979Z" fill="#6F7380"/>
</svg>
