<svg width="84" height="65" viewBox="0 0 84 65" fill="none" xmlns="http://www.w3.org/2000/svg">
<g clip-path="url(#clip0_7780_5877)">
<path d="M45.2793 47.3194V63.8694C45.2793 63.8994 45.2993 63.9094 45.3293 63.8994C45.3393 63.8894 45.3593 63.8794 45.3793 63.8694C45.5193 63.8094 45.6493 63.7394 45.7893 63.6794C46.2793 63.4294 46.7793 63.1894 47.2793 62.9494C47.5693 62.8094 47.8593 62.6694 48.1593 62.5194C48.3993 62.4094 48.6393 62.2894 48.8793 62.1794C49.5993 61.8394 50.3193 61.4994 51.0393 61.1594C51.3793 60.9994 51.7293 60.8394 52.0693 60.6794C52.5893 60.4394 53.0993 60.1994 53.6193 59.9594C53.9593 59.7994 54.2893 59.6494 54.6293 59.4894C54.6393 59.4894 54.6493 59.4794 54.6593 59.4694C54.6893 59.4594 54.7193 59.4494 54.7393 59.4394C54.9993 59.3194 55.2593 59.1994 55.5093 59.0794C56.1793 58.7694 56.8493 58.4494 57.5193 58.1294C57.5393 58.1194 57.5593 58.1194 57.5693 58.1094C57.6093 58.0894 57.6393 58.0894 57.6793 58.1094C57.6893 58.1194 57.7093 58.1194 57.7193 58.1294C58.0293 58.2794 58.3293 58.4194 58.6293 58.5594C59.4393 58.9394 60.2393 59.3094 61.0393 59.6894C61.6893 59.9894 62.3393 60.2894 62.9793 60.5894C63.2893 60.7294 63.5993 60.8694 63.9093 61.0194C64.4493 61.2694 64.9893 61.5294 65.5293 61.7794C66.2493 62.1294 66.9693 62.4694 67.6893 62.8094C68.3993 63.1594 69.1093 63.4994 69.8293 63.8494C69.8693 63.8694 69.9093 63.9094 69.9593 63.8994C69.9793 63.8494 69.9693 63.8094 69.9693 63.7594V46.8894L67.9693 46.8594V60.6994C67.9393 60.7094 67.9193 60.6994 67.8993 60.6894C67.2893 60.3894 66.6793 60.0994 66.0593 59.8094C65.0893 59.3594 64.1293 58.9094 63.1593 58.4494C62.2493 58.0294 61.3493 57.6194 60.4493 57.1994C59.8893 56.9394 59.3393 56.6694 58.7893 56.4094C58.4193 56.2394 58.0693 56.0594 57.7093 55.8894C57.6893 55.8894 57.6793 55.8794 57.6693 55.8694C57.6393 55.8494 57.6093 55.8594 57.5793 55.8694C57.4293 55.9494 57.2893 56.0094 57.1393 56.0794C56.3593 56.4694 55.5593 56.8394 54.7693 57.2094C54.7293 57.2294 54.6893 57.2494 54.6593 57.2694C54.6093 57.2894 54.5593 57.3094 54.5093 57.3294C54.0893 57.5294 53.6593 57.7194 53.2393 57.9194C52.5493 58.2394 51.8493 58.5594 51.1593 58.8894C50.7993 59.0494 50.4393 59.2194 50.0893 59.3894C49.4593 59.6794 48.8393 59.9794 48.2093 60.2694C47.9393 60.3994 47.6593 60.5394 47.3893 60.6694C47.3593 60.6794 47.3293 60.6994 47.2893 60.7094C47.2793 60.6894 47.2793 60.6794 47.2793 60.6694V47.3194H45.2793Z" fill="url(#paint0_linear_7780_5877)"/>
<path d="M45.6098 45.1093H9.31977C5.56977 45.1093 2.50977 42.0593 2.50977 38.2993V10.5893C2.50977 6.8393 5.55977 3.7793 9.31977 3.7793H55.6398L57.5098 2.9593L59.1498 3.7793H61.4698C63.4498 3.7793 65.2398 4.6293 66.4898 5.9893L68.1998 4.9193C66.5798 2.9993 64.1598 1.7793 61.4698 1.7793H9.31977C4.47976 1.7793 0.509766 5.7393 0.509766 10.5893V38.2993C0.509766 43.1393 4.46977 47.1093 9.31977 47.1093H45.6498L45.6098 45.1093Z" fill="url(#paint1_linear_7780_5877)"/>
<path d="M83.1893 26.0595C82.9993 25.8895 82.8093 25.7195 82.6293 25.5495C81.3193 24.3695 80.0293 23.1695 78.7293 21.9995C78.5393 21.8195 78.3393 21.6495 78.1493 21.4695C77.9493 21.2895 77.7593 21.1095 77.5593 20.9295C77.5293 20.9095 77.4993 20.8795 77.4793 20.8495C77.4693 20.8295 77.4593 20.8095 77.4593 20.7895C77.4693 20.7395 77.4793 20.6995 77.4993 20.6595C77.5793 20.3995 77.6593 20.1395 77.7493 19.8795C78.4193 17.7395 79.0993 15.5995 79.7893 13.4595C79.7993 13.4195 79.8193 13.3695 79.8293 13.3295C79.8393 13.2995 79.8193 13.2695 79.7993 13.2595C79.7693 13.2495 79.7493 13.2395 79.7193 13.2395C79.0493 13.0795 78.3693 12.9495 77.6893 12.7895C77.3993 12.7295 77.0993 12.6595 76.7993 12.5995C76.2093 12.4695 75.6193 12.3395 75.0193 12.2095L74.8093 12.1795C74.7693 12.1895 74.7393 12.1795 74.7193 12.1495C74.6793 12.1395 74.6293 12.1195 74.5893 12.1095C74.0193 11.9895 73.4593 11.8695 72.8893 11.7495C72.6393 11.6395 72.2393 11.7095 72.0793 11.4895C71.6593 9.55953 71.2393 7.63953 70.8193 5.69953C70.6993 5.16953 70.5893 4.63953 70.4693 4.10953C70.4493 4.03953 70.4393 3.95953 70.4193 3.88953C70.4093 3.85953 70.3793 3.83953 70.3493 3.84953C70.2593 3.86953 70.1793 3.89953 70.0993 3.91953C67.7893 4.66953 65.4793 5.38953 63.1793 6.12953C63.0893 6.14953 62.9993 6.17953 62.9093 6.20953C62.8693 6.21953 62.8393 6.20953 62.8093 6.17953C62.7793 6.15953 62.7593 6.12953 62.7393 6.10953C62.6493 6.00953 62.5693 5.91953 62.4793 5.82953C62.1193 5.42953 61.7593 5.03953 61.3993 4.64953C61.2493 4.47953 61.1093 4.31953 60.9593 4.15953C60.3893 3.52953 59.8093 2.89953 59.2393 2.26953C59.1893 2.20953 59.1393 2.16953 59.0793 2.10953C59.0693 2.08953 59.0593 2.06953 59.0393 2.04953C58.8093 1.79953 58.5793 1.54953 58.3593 1.28953C58.1093 1.01953 57.8493 0.739531 57.5993 0.469531C57.5793 0.449531 57.5593 0.429531 57.5493 0.409531C57.5293 0.389531 57.4893 0.389531 57.4693 0.409531C57.4193 0.469531 57.3693 0.529531 57.3093 0.589531C57.0993 0.819531 56.8793 1.05953 56.6593 1.28953C56.3393 1.64953 56.0093 2.00953 55.6793 2.36953C55.3193 2.77953 54.9393 3.17953 54.5793 3.57953C54.2593 3.92953 53.9393 4.27953 53.6193 4.62953C53.2293 5.07953 52.8293 5.48953 52.4393 5.93953C52.3593 6.01953 52.2793 6.09953 52.2093 6.17953C52.1793 6.20953 52.1493 6.21953 52.1093 6.20953C52.0193 6.17953 51.9293 6.15953 51.8493 6.12953C49.5193 5.38953 47.1993 4.63953 44.8693 3.90953C44.7993 3.87953 44.7293 3.85953 44.6593 3.83953C44.6393 3.83953 44.6193 3.84953 44.6093 3.86953C44.5993 3.89953 44.5893 3.91953 44.5793 3.94953C44.0393 6.45953 43.4793 8.97953 42.9393 11.4895C42.8893 11.6495 42.6793 11.5995 42.5493 11.6495C41.8893 11.7995 41.1893 11.9495 40.5293 12.0995C40.2693 12.1495 40.0093 12.2095 39.7493 12.2695C39.3993 12.3395 39.0593 12.4195 38.7093 12.4895C38.3293 12.5795 37.9493 12.6595 37.5693 12.7495C37.2093 12.8195 36.8593 12.8995 36.5093 12.9695C36.0793 13.0795 35.6493 13.1495 35.2293 13.2595C35.1993 13.2695 35.1793 13.2995 35.1893 13.3195C35.9493 15.7595 36.7493 18.1895 37.5093 20.6295C37.5293 20.6795 37.5393 20.7295 37.5493 20.7795C37.5593 20.8095 37.5493 20.8395 37.5293 20.8595C37.5093 20.8895 37.4793 20.9195 37.4493 20.9395C36.9293 21.4095 36.4293 21.8795 35.9093 22.3395C34.7393 23.4095 33.5893 24.4695 32.4093 25.5295C32.2093 25.7195 32.0093 25.8995 31.7993 26.0795C31.7693 26.1195 31.7193 26.1695 31.7693 26.2095C31.7893 26.2395 31.8193 26.2595 31.8393 26.2795C32.0493 26.4695 32.2593 26.6595 32.4593 26.8495C33.5093 27.7895 34.5393 28.7395 35.5793 29.6895C35.9693 30.0395 36.3593 30.3995 36.7393 30.7495C36.7793 30.7895 36.8193 30.8195 36.8593 30.8595C37.0693 31.0395 37.2693 31.2295 37.4693 31.4095C37.5693 31.5095 37.5693 31.5195 37.5293 31.6495C37.5193 31.6695 37.5193 31.6895 37.5093 31.7095C37.3893 32.0895 37.2693 32.4595 37.1593 32.8295C36.5093 34.8495 35.8793 36.8495 35.2293 38.8695C35.2193 38.9395 35.1293 39.0595 35.2493 39.0895C37.7893 39.6295 40.3093 40.1995 42.8493 40.7495C42.8893 40.7595 42.9193 40.7795 42.9293 40.8295C42.9493 40.8995 42.9593 40.9695 42.9793 41.0395C43.3193 42.6095 43.6693 44.1895 44.0093 45.7595C44.1293 46.2895 44.2393 46.8295 44.3593 47.3595C44.4293 47.6995 44.5093 48.0495 44.5793 48.3895C44.5893 48.4095 44.5993 48.4295 44.5993 48.4495C44.6093 48.4795 44.6393 48.4895 44.6693 48.4895C44.6793 48.4795 44.6993 48.4795 44.7193 48.4695C44.8693 48.4295 45.0093 48.3795 45.1593 48.3395C47.3693 47.6295 49.5693 46.9295 51.7793 46.2295C51.8693 46.1995 51.9693 46.1695 52.0593 46.1395C52.1293 46.1195 52.1893 46.1195 52.2393 46.1795C52.5193 46.5095 52.8193 46.8095 53.0993 47.1295C53.5993 47.6595 54.0993 48.2295 54.5993 48.7695C55.2593 49.5095 55.9493 50.2495 56.6093 50.9895C56.8593 51.2495 57.0993 51.5195 57.3393 51.7895C57.3893 51.8295 57.4293 51.8795 57.4793 51.9295H57.5393C57.5693 51.8995 57.5993 51.8695 57.6193 51.8395C58.3393 51.0795 59.0093 50.2895 59.7393 49.5295C60.2293 48.9795 60.7093 48.4495 61.1993 47.9095C61.3993 47.6995 61.5893 47.4895 61.7793 47.2795C61.9593 47.0895 62.1293 46.8895 62.2993 46.6995C62.4593 46.5295 62.6093 46.3695 62.7593 46.1995C62.8193 46.1195 62.8893 46.1095 62.9693 46.1395C63.0193 46.1595 63.0593 46.1695 63.1093 46.1895C63.1493 46.1995 63.1893 46.2195 63.2393 46.2095C63.3593 46.2695 63.4793 46.3095 63.6093 46.3295C63.6193 46.3295 63.6293 46.3395 63.6293 46.3395C63.6593 46.3595 63.6993 46.3695 63.7293 46.3695L63.7393 46.3795H63.7493C65.9193 47.0895 68.1093 47.7695 70.2893 48.4695C70.3193 48.4795 70.3393 48.4795 70.3693 48.4895C70.3793 48.4895 70.4093 48.4695 70.4093 48.4595C70.4193 48.4395 70.4293 48.4195 70.4293 48.3995C70.4893 48.1495 70.5393 47.8895 70.5993 47.6395C71.0693 45.4195 71.5793 43.2095 72.0493 40.9895C72.1093 40.7295 72.0693 40.7795 72.3193 40.7095C72.3393 40.7095 72.3593 40.6995 72.3793 40.6995C74.4293 40.2495 76.4893 39.8095 78.5393 39.3495C78.9293 39.2695 79.3193 39.1795 79.7093 39.0995C79.8293 39.0695 79.8493 39.0595 79.7993 38.9295C79.0293 36.5195 78.2793 34.0995 77.4993 31.6995C77.4893 31.6395 77.4693 31.5895 77.4593 31.5395C77.4593 31.5195 77.4693 31.4995 77.4793 31.4895C77.5093 31.4495 77.5493 31.4095 77.5893 31.3695C77.7793 31.1995 77.9793 31.0295 78.1693 30.8495C79.4693 29.6695 80.7493 28.4895 82.0493 27.3095C82.2393 27.1295 82.4393 26.9595 82.6293 26.7895C82.8193 26.6095 83.0093 26.4395 83.1993 26.2595C83.2293 26.2395 83.2493 26.2095 83.2693 26.1795C83.2893 26.1395 83.2093 26.0995 83.1893 26.0595ZM80.2893 26.1995C80.2693 26.2195 80.2593 26.2295 80.2393 26.2495C78.6893 27.6595 77.1293 29.0795 75.5793 30.4995C75.4593 30.6095 75.3393 30.7195 75.2193 30.8195C75.1993 30.8495 75.1593 30.8795 75.1593 30.9195C75.7993 32.9495 76.4493 34.9795 77.0893 37.0095C77.1493 37.1795 77.1993 37.3495 77.2593 37.5295C77.2593 37.5495 77.2493 37.5795 77.2193 37.5895C77.1993 37.5995 77.1693 37.6095 77.1493 37.6095C74.9393 38.0995 72.7293 38.5595 70.5193 39.0595C70.4493 39.0695 70.4193 39.0995 70.3993 39.1695C70.3393 39.4695 70.2693 39.7595 70.2093 40.0495C69.8993 41.4395 69.6093 42.7995 69.3093 44.1895C69.1693 44.7395 69.0693 45.3195 68.9293 45.8795C68.9193 45.9095 68.8993 45.9295 68.8693 45.9195C68.8293 45.9095 68.7893 45.8995 68.7493 45.8895C67.1993 45.3795 65.6493 44.8895 64.0993 44.3995C64.0493 44.3895 63.9893 44.3795 63.9393 44.3695C63.9193 44.3695 63.8993 44.3595 63.8893 44.3395C63.8193 44.2795 63.7093 44.3195 63.6493 44.2595C63.5993 44.2395 63.5293 44.2695 63.4893 44.2195C63.4393 44.1895 63.3893 44.1695 63.3293 44.1695C63.3093 44.1595 63.2893 44.1395 63.2593 44.1295C62.9393 44.0295 62.6293 43.9295 62.3093 43.8295C62.2593 43.8095 62.2193 43.8195 62.1893 43.8595C62.0993 43.9595 62.0193 44.0495 61.9293 44.1395C60.4993 45.7095 59.0793 47.2695 57.6493 48.8395C57.4893 49.0095 57.5193 49.0095 57.3693 48.8395C57.0093 48.4395 56.6493 48.0395 56.2793 47.6495C55.1493 46.3795 53.9993 45.1495 52.8593 43.8895C52.8293 43.8495 52.7693 43.8095 52.7093 43.8295C50.5793 44.5095 48.4193 45.1895 46.2893 45.8795C46.2393 45.8895 46.1893 45.9095 46.1293 45.9195C46.1193 45.9195 46.1093 45.9095 46.0993 45.8995C46.0893 45.8595 46.0693 45.8095 46.0593 45.7695C45.7893 44.5595 45.5193 43.3495 45.2693 42.1395C45.0393 41.1295 44.8393 40.1395 44.6093 39.1395C44.5993 39.0995 44.5693 39.0695 44.5293 39.0595C44.3993 39.0395 44.2793 39.0095 44.1593 38.9795C42.4893 38.6195 40.8093 38.2495 39.1493 37.8895C38.7193 37.7995 38.2893 37.6995 37.8593 37.6095C37.8393 37.5995 37.8093 37.5895 37.7893 37.5695C37.7793 37.5695 37.7693 37.5495 37.7693 37.5395C37.7793 37.4995 37.7793 37.4595 37.7893 37.4195C37.8593 37.2095 37.9293 37.0095 37.9893 36.7995C38.6093 34.8295 39.2393 32.8995 39.8593 30.9395C39.8393 30.8195 39.7193 30.7695 39.6393 30.6795C39.4493 30.5095 39.2593 30.3395 39.0693 30.1595C38.8293 29.9495 38.6093 29.7395 38.3693 29.5295C38.0093 29.1995 37.6393 28.8695 37.2793 28.5295C36.8793 28.1895 36.5093 27.8095 36.1093 27.4695C35.6493 27.0495 35.1793 26.6295 34.7293 26.1995C34.7093 26.1795 34.7093 26.1495 34.7293 26.1295C36.0293 24.9495 37.3293 23.7595 38.6293 22.5795C38.9893 22.2495 39.3593 21.9095 39.7193 21.5795C39.7493 21.5495 39.7793 21.5195 39.8093 21.4995C39.8493 21.4595 39.8693 21.4095 39.8493 21.3595C39.1593 19.2095 38.4793 17.0595 37.7893 14.9095C37.7793 14.8595 37.7693 14.8195 37.7593 14.7695C37.7993 14.7295 37.8593 14.7295 37.9093 14.7095C40.0693 14.2495 42.2393 13.7695 44.3993 13.2995C44.4393 13.2895 44.4893 13.2795 44.5293 13.2695C45.1193 11.4495 45.3693 9.38953 45.8593 7.49953C45.9293 7.17953 45.9893 6.85953 46.0593 6.53953C46.0793 6.49953 46.0793 6.39953 46.1393 6.41953C46.1793 6.42953 46.2293 6.43953 46.2693 6.44953C46.5393 6.53953 46.7993 6.62953 47.0693 6.70953C48.6993 7.22953 50.3293 7.73953 51.9593 8.26953C52.1893 8.33953 52.4093 8.40953 52.6393 8.47953C52.6693 8.48953 52.6893 8.49953 52.7193 8.50953C52.7593 8.51953 52.7993 8.50953 52.8293 8.47953C52.9193 8.36953 53.0193 8.26953 53.1093 8.16953C53.1493 8.12953 53.1793 8.08953 53.2193 8.04953C54.6393 6.49953 56.0293 4.94953 57.4493 3.40953C57.4593 3.39953 57.4793 3.38953 57.4893 3.36953C57.5993 3.37953 57.6793 3.53953 57.7593 3.61953C57.9893 3.85953 58.2093 4.10953 58.4293 4.35953C58.5493 4.48953 58.6793 4.61953 58.7993 4.74953C58.8193 4.77953 58.8593 4.80953 58.8893 4.82953C59.8993 6.00953 60.9693 7.10953 61.9993 8.26953C62.0993 8.35953 62.1893 8.55953 62.3493 8.48953C64.4693 7.79953 66.6193 7.13953 68.7393 6.44953C68.9293 6.39953 68.9193 6.36953 68.9593 6.57953C69.4293 8.71953 69.8993 10.8795 70.3693 13.0295C70.3793 13.0895 70.3993 13.1495 70.4093 13.2095C70.4193 13.2295 70.4393 13.2495 70.4693 13.2595C71.0893 13.4095 71.7093 13.5295 72.3393 13.6695C72.7193 13.7595 73.1093 13.8395 73.4893 13.9195C73.6493 13.9595 73.8093 13.9995 73.9793 14.0295H74.0193C74.8193 14.2495 75.6393 14.3895 76.4493 14.5795C76.6693 14.6195 76.8793 14.6695 77.0993 14.7095C77.1393 14.7195 77.1893 14.7395 77.2293 14.7495C77.2493 14.7595 77.2593 14.7795 77.2593 14.7895C77.2193 14.9295 77.1793 15.0595 77.1293 15.1995C76.7893 16.2795 76.4393 17.3595 76.0993 18.4495C75.9193 18.9895 75.7493 19.5395 75.5793 20.0895C75.4393 20.4995 75.3093 20.9195 75.1793 21.3395C75.1493 21.4195 75.1693 21.4695 75.2293 21.5095C75.4793 21.7595 75.7593 21.9995 76.0293 22.2395C77.0693 23.1895 78.1093 24.1395 79.1593 25.0895C79.5093 25.4095 79.8593 25.7295 80.2093 26.0495C80.2293 26.0795 80.2593 26.1095 80.2893 26.1295C80.3093 26.1595 80.3093 26.1795 80.2893 26.1995Z" fill="url(#paint2_linear_7780_5877)"/>
<path d="M63.6294 46.3391L63.6194 46.3491L63.6094 46.3291C63.6194 46.3291 63.6294 46.3391 63.6294 46.3391Z" fill="url(#paint3_linear_7780_5877)"/>
<path d="M29.359 9.65918H9.95898V11.6592H29.359V9.65918Z" fill="url(#paint4_linear_7780_5877)"/>
<path d="M29.359 27.7891H9.95898V29.7891H29.359V27.7891Z" fill="url(#paint5_linear_7780_5877)"/>
<path d="M29.359 18.7295H9.95898V20.7295H29.359V18.7295Z" fill="url(#paint6_linear_7780_5877)"/>
<path d="M71.9496 33.7097V29.4797C71.9496 29.4597 71.9396 29.4497 71.9396 29.4397C71.9296 29.4297 71.9196 29.4097 71.9096 29.4097C71.8396 29.4097 71.7796 29.3997 71.7096 29.3997H68.9096C68.8896 29.3997 68.8696 29.3997 68.8496 29.3897C68.8396 29.3897 68.8296 29.3797 68.8296 29.3697C68.8296 29.3297 68.8196 29.2997 68.8296 29.2697C68.8596 29.0597 68.8896 28.8497 68.9096 28.6297C68.9396 28.3197 68.9696 28.0097 68.9796 27.6997C68.9796 27.3297 68.9796 26.9497 68.9496 26.5797C68.9196 26.2197 68.8896 25.8597 68.8296 25.5097C68.8196 25.4597 68.8196 25.3997 68.8196 25.3497C68.8096 25.3297 68.8396 25.2897 68.8596 25.2897H71.8796C71.9196 25.2897 71.9396 25.2597 71.9396 25.2297C71.9496 25.1797 71.9496 25.1297 71.9496 25.0897V20.8097C71.9396 20.7797 71.9196 20.7497 71.8796 20.7397H67.1296C66.9796 20.7397 66.9796 20.7397 66.8996 20.6197C66.8796 20.5797 66.8496 20.5497 66.8296 20.5197C66.4396 19.9497 65.9896 19.4197 65.4996 18.9297C65.2896 18.7197 65.0696 18.5197 64.8396 18.3197C64.1396 17.7297 63.3796 17.2297 62.5596 16.8197C62.0196 16.5497 61.4596 16.3297 60.8896 16.1497C60.5296 16.0397 60.1596 15.9497 59.7896 15.8697C59.5296 15.8197 59.2596 15.7697 58.9996 15.7397C58.7996 15.7197 58.5896 15.6897 58.3796 15.6897C58.3396 15.6897 58.2996 15.6797 58.2596 15.6797C58.1096 15.6597 57.9496 15.6597 57.7896 15.6697C57.7696 15.6597 57.7596 15.6597 57.7496 15.6597C57.3696 15.6397 56.9896 15.6797 56.6096 15.7097C56.4396 15.7197 56.2796 15.7497 56.1096 15.7697C55.8996 15.7897 55.6896 15.8397 55.4796 15.8797C55.1596 15.9397 54.8396 16.0197 54.5196 16.1197C53.7396 16.3497 52.9996 16.6597 52.2896 17.0597C51.5196 17.4897 50.7996 18.0097 50.1396 18.6097C49.6396 19.0697 49.1796 19.5697 48.7696 20.1097C48.6296 20.2997 48.4996 20.4897 48.3696 20.6797C48.3396 20.7197 48.3096 20.7397 48.2696 20.7397H43.4496C43.3796 20.7397 43.3596 20.7697 43.3596 20.8197C43.3496 20.8697 43.3496 20.9197 43.3496 20.9597V25.0597C43.3496 25.1097 43.3596 25.1697 43.3596 25.2197C43.3596 25.2597 43.3796 25.2797 43.4196 25.2797C43.4796 25.2897 43.5396 25.2897 43.5996 25.2897H46.4196C46.4396 25.2897 46.4596 25.2897 46.4696 25.2997C46.4796 25.3097 46.4996 25.3197 46.4996 25.3297C46.4996 25.3597 46.4996 25.3997 46.4896 25.4297C46.4696 25.5697 46.4496 25.6997 46.4296 25.8397C46.4096 26.0197 46.3896 26.1997 46.3696 26.3797C46.3596 26.5597 46.3496 26.7397 46.3396 26.9197C46.3396 27.2597 46.3496 27.6097 46.3496 27.9597C46.3496 28.1897 46.3896 28.4197 46.3996 28.6497V28.6897C46.4196 28.8597 46.4496 29.0197 46.4696 29.1897C46.4796 29.2497 46.4796 29.3097 46.4896 29.3597C46.4896 29.3797 46.4796 29.3897 46.4696 29.3897C46.3996 29.3997 46.3296 29.3997 46.2696 29.3997H43.6296C43.5796 29.3997 43.5196 29.3997 43.4696 29.4097H43.4096C43.3796 29.4097 43.3596 29.4397 43.3596 29.4597C43.3596 29.5197 43.3496 29.5797 43.3496 29.6397V33.7197C43.3496 33.7697 43.3496 33.8297 43.3596 33.8797C43.3596 33.9097 43.3796 33.9497 43.4196 33.9497H48.1796C48.2496 33.9497 48.3096 33.9697 48.3396 34.0397C48.3596 34.0597 48.3796 34.0897 48.3996 34.1197C48.7796 34.6797 49.2096 35.2097 49.6896 35.6897C50.1496 36.1697 50.6496 36.6097 51.1996 36.9997C51.5096 37.2197 51.8196 37.4297 52.1496 37.6197C52.5196 37.8297 52.8996 38.0197 53.2896 38.1897C53.6996 38.3697 54.1096 38.5097 54.5296 38.6397C54.9396 38.7597 55.3596 38.8597 55.7796 38.9297C56.0696 38.9797 56.3696 39.0297 56.6696 39.0397C56.6896 39.0497 56.7096 39.0497 56.7296 39.0497C56.9996 39.0897 57.2696 39.0897 57.5396 39.0797C57.5796 39.0797 57.6096 39.0897 57.6396 39.0797C57.9696 39.0797 58.2996 39.0797 58.6196 39.0497C58.8496 39.0197 59.0696 38.9897 59.2896 38.9697C59.5496 38.9297 59.8096 38.8797 60.0596 38.8197C60.5896 38.7097 61.1096 38.5497 61.6196 38.3497C61.8296 38.2697 62.0396 38.1897 62.2396 38.0797C62.2696 38.0697 62.2896 38.0597 62.3196 38.0497C62.7296 37.8597 63.1396 37.6397 63.5296 37.3897C64.4396 36.8197 65.2496 36.1297 65.9696 35.3197C66.3096 34.9397 66.6196 34.5497 66.9096 34.1297C67.0396 33.9297 66.9996 33.9497 67.2396 33.9497H71.6996C71.7696 33.9497 71.8396 33.9597 71.9096 33.9397H71.9196L71.9296 33.9297C71.9596 33.8597 71.9496 33.7797 71.9496 33.7097ZM69.9396 31.8797C69.9396 31.9097 69.9096 31.9297 69.8896 31.9297C69.8196 31.9397 69.7496 31.9397 69.6896 31.9397H66.8096C66.5296 31.9397 66.2496 31.9497 65.9696 31.9497C65.9196 31.9497 65.8796 31.9697 65.8496 32.0197C65.7796 32.1497 65.6996 32.2797 65.6196 32.4097C65.3196 32.9297 64.9796 33.4097 64.5896 33.8597C63.9996 34.5497 63.3296 35.1397 62.5696 35.6297C61.8996 36.0597 61.1896 36.3997 60.4296 36.6497C60.0096 36.7897 59.5896 36.8897 59.1496 36.9697C58.9596 36.9997 58.7596 37.0197 58.5596 37.0497C58.3796 37.0697 58.1996 37.0697 58.0196 37.0897C58.0096 37.1097 57.9996 37.1097 57.9896 37.0897C57.8396 37.0797 57.6896 37.0797 57.5496 37.0997C57.4696 37.0897 57.3896 37.0897 57.3096 37.0797C57.1396 37.0797 56.9696 37.0697 56.8096 37.0497C56.6596 37.0297 56.4996 37.0197 56.3496 36.9997C56.1196 36.9697 55.8896 36.9197 55.6696 36.8697C55.1996 36.7597 54.7396 36.6197 54.2996 36.4397C53.8296 36.2497 53.3896 36.0297 52.9596 35.7697C52.5496 35.5197 52.1596 35.2397 51.7896 34.9297C51.4696 34.6497 51.1596 34.3597 50.8696 34.0397C50.5196 33.6497 50.1996 33.2297 49.9196 32.7897C49.7696 32.5597 49.6296 32.3197 49.4896 32.0897C49.4696 32.0497 49.4496 32.0197 49.4296 31.9897C49.4196 31.9697 49.3996 31.9597 49.3796 31.9597C49.3296 31.9497 49.2896 31.9497 49.2396 31.9497H45.5796C45.3296 31.9497 45.3496 31.9697 45.3496 31.7297C45.3496 31.6397 45.3496 31.5497 45.3596 31.4697C45.3596 31.4297 45.3896 31.4097 45.4196 31.3997H48.8396C49.1096 31.3997 49.0696 31.4197 49.0096 31.1797C48.9096 30.8197 48.8096 30.4497 48.6996 30.0897C48.5996 29.7197 48.5196 29.3397 48.4596 28.9597C48.4296 28.7397 48.3996 28.5197 48.3796 28.3097C48.3196 27.7597 48.3396 27.2197 48.3496 26.6697C48.3796 26.4697 48.3896 26.2697 48.4196 26.0697C48.4496 25.8297 48.4896 25.5897 48.5396 25.3497C48.5896 25.0797 48.6596 24.8197 48.7296 24.5497C48.8396 24.1997 48.9396 23.8397 49.0396 23.4797C49.0496 23.4497 49.0596 23.4097 49.0696 23.3797C49.0796 23.3197 49.0596 23.2897 48.9996 23.2897H45.5996C45.3296 23.2897 45.3496 23.3197 45.3496 23.0497C45.3496 22.9697 45.3496 22.8897 45.3596 22.8097C45.3596 22.7797 45.3896 22.7397 45.4196 22.7397H49.3996C49.4296 22.7297 49.4496 22.7197 49.4696 22.6997C49.4996 22.6497 49.5296 22.6097 49.5496 22.5597C49.7196 22.2797 49.8896 21.9997 50.0696 21.7297C50.5196 21.0697 51.0396 20.4797 51.6396 19.9497C52.3296 19.3397 53.0896 18.8497 53.9296 18.4697C54.4296 18.2397 54.9396 18.0597 55.4696 17.9297C55.6896 17.8797 55.9096 17.8297 56.1296 17.7897C56.2696 17.7597 56.4096 17.7597 56.5496 17.7297C56.7496 17.6897 56.9596 17.6997 57.1696 17.6697C57.2796 17.6597 57.3896 17.6597 57.5096 17.6597C57.5796 17.6597 57.6596 17.6497 57.7396 17.6497C57.7996 17.6497 57.8496 17.6597 57.8996 17.6597C58.0096 17.6597 58.1196 17.6597 58.2196 17.6797C58.2496 17.6897 58.2796 17.6897 58.2996 17.6897C59.4096 17.7597 60.4596 18.0497 61.4696 18.5097C62.1296 18.8197 62.7396 19.1997 63.2996 19.6497C63.8696 20.0997 64.3796 20.6097 64.8296 21.1897C65.1296 21.5597 65.3996 21.9597 65.6396 22.3697C65.6996 22.4797 65.7696 22.5797 65.8296 22.6797C65.8496 22.7197 65.8796 22.7397 65.9296 22.7397H69.6896C69.7496 22.7397 69.8196 22.7397 69.8896 22.7497C69.9096 22.7497 69.9396 22.7697 69.9396 22.7897C69.9496 22.9497 69.9496 23.0997 69.9396 23.2497C69.9396 23.2597 69.9196 23.2697 69.9096 23.2797C69.8996 23.2897 69.8796 23.2897 69.8696 23.2897H66.2896C66.2296 23.2897 66.2196 23.3197 66.2296 23.3797C66.2696 23.4897 66.2996 23.5997 66.3296 23.7097C66.4296 24.0697 66.5396 24.4397 66.6396 24.7997C66.7396 25.1797 66.8196 25.5497 66.8696 25.9397C66.9096 26.1897 66.9296 26.4497 66.9496 26.7097C66.9796 27.0197 66.9796 27.3397 66.9696 27.6497C66.9696 27.9297 66.9496 28.2097 66.9096 28.4797C66.8896 28.6797 66.8596 28.8797 66.8296 29.0797C66.7696 29.4297 66.6896 29.7797 66.5896 30.1297C66.4896 30.4997 66.3796 30.8697 66.2796 31.2397C66.2696 31.2697 66.2696 31.3097 66.2596 31.3397C66.2496 31.3697 66.2696 31.3997 66.2996 31.3997H69.6396C69.9996 31.4097 69.9396 31.3497 69.9496 31.6997C69.9496 31.7597 69.9396 31.8197 69.9396 31.8797Z" fill="url(#paint7_linear_7780_5877)"/>
<path d="M65.46 26.4298C65.42 26.1398 65.37 25.8598 65.31 25.5798C65.13 24.7498 64.83 23.9598 64.4 23.2298C63.91 22.3698 63.28 21.6298 62.51 20.9998C62.13 20.6898 61.72 20.4098 61.28 20.1798C60.69 19.8598 60.06 19.6198 59.4 19.4698C59.1 19.3998 58.79 19.3298 58.48 19.3198C58.44 19.2898 58.39 19.2998 58.34 19.2898C58.25 19.2898 58.16 19.2898 58.07 19.2798C57.83 19.2498 57.6 19.2498 57.37 19.2698C57.15 19.2898 56.93 19.2898 56.71 19.3198C56.53 19.3498 56.35 19.3698 56.18 19.4098C55.44 19.5598 54.74 19.7998 54.08 20.1598C53.18 20.6298 52.4 21.2598 51.75 22.0398C51.26 22.6098 50.86 23.2398 50.55 23.9198C50.41 24.2298 50.29 24.5498 50.19 24.8698C50.06 25.2998 49.95 25.7398 49.89 26.1898C49.86 26.4498 49.83 26.7098 49.82 26.9698C49.81 27.2798 49.81 27.5898 49.82 27.9098C49.83 28.0998 49.85 28.2898 49.88 28.4798C49.91 28.7298 49.96 28.9798 50.01 29.2298C50.13 29.7598 50.3 30.2698 50.52 30.7598C50.85 31.4898 51.26 32.1598 51.79 32.7598C52.11 33.1298 52.45 33.4698 52.83 33.7798C53.43 34.2598 54.09 34.6498 54.81 34.9298C55.38 35.1598 55.96 35.3198 56.57 35.4098C56.71 35.4298 56.84 35.4398 56.97 35.4598C57.09 35.4698 57.21 35.4798 57.33 35.4798H58.05C58.16 35.4798 58.27 35.4698 58.38 35.4398C58.5 35.4498 58.62 35.4198 58.74 35.4098C58.99 35.3798 59.24 35.3298 59.48 35.2598C60.37 35.0398 61.18 34.6798 61.94 34.1798C62.59 33.7298 63.17 33.2098 63.67 32.5898C64.28 31.8398 64.74 30.9998 65.06 30.0898C65.31 29.3698 65.45 28.6198 65.5 27.8598C65.52 27.3798 65.52 26.8998 65.46 26.4298ZM63.44 28.2798C63.35 28.9998 63.12 29.6698 62.78 30.3198C62.44 30.9698 62 31.5398 61.45 32.0298C60.77 32.6398 59.98 33.0598 59.09 33.2998C58.93 33.3498 58.77 33.3898 58.6 33.4098C58.53 33.4198 58.46 33.4398 58.38 33.4498C58.35 33.4498 58.32 33.4398 58.29 33.4498C58.13 33.4798 57.98 33.4798 57.83 33.4798C57.73 33.4898 57.63 33.4898 57.53 33.4898C56.9 33.4798 56.3 33.3598 55.71 33.1398C55.09 32.9198 54.53 32.5898 54.02 32.1698C53.72 31.9098 53.44 31.6298 53.18 31.3198C52.89 30.9598 52.65 30.5698 52.45 30.1598C52.28 29.8298 52.15 29.4898 52.05 29.1298C51.96 28.7998 51.9 28.4598 51.85 28.1098C51.8 27.7098 51.81 27.2998 51.83 26.8998C51.84 26.6698 51.87 26.4298 51.92 26.2098C51.96 25.9598 52.02 25.7298 52.09 25.4898C52.23 25.0398 52.42 24.6198 52.65 24.2098C52.95 23.6898 53.32 23.2298 53.75 22.8198C54.07 22.5198 54.43 22.2598 54.81 22.0398C55.18 21.8198 55.57 21.6498 55.97 21.5198C56.24 21.4398 56.52 21.3798 56.79 21.3298C56.95 21.2998 57.11 21.2998 57.27 21.2798C57.45 21.2598 57.62 21.2598 57.8 21.2598C57.86 21.2598 57.92 21.2698 57.98 21.2698C58.12 21.2798 58.25 21.2898 58.38 21.2998C58.41 21.2998 58.43 21.3198 58.46 21.3198C59.02 21.3898 59.55 21.5598 60.06 21.7998C60.56 22.0398 61.02 22.3398 61.44 22.7098C61.96 23.1698 62.39 23.7098 62.73 24.3198C63.03 24.8598 63.24 25.4298 63.37 26.0298C63.42 26.2598 63.45 26.4898 63.47 26.7198C63.49 26.9198 63.5 27.1198 63.51 27.3198C63.51 27.6398 63.48 27.9598 63.44 28.2798Z" fill="url(#paint8_linear_7780_5877)"/>
<path d="M60.9488 26.6694C60.7788 25.8894 60.4088 25.2394 59.8088 24.7194C59.4988 24.4594 59.1588 24.2594 58.7788 24.1194C58.5588 24.0394 58.3288 23.9894 58.0988 23.9594C57.9588 23.9394 57.8088 23.9194 57.6688 23.9294C57.4988 23.9194 57.3488 23.9394 57.1888 23.9594C56.8588 24.0094 56.5488 24.0994 56.2588 24.2394C55.5788 24.5594 55.0588 25.0594 54.7088 25.7194C54.4388 26.2294 54.2988 26.7694 54.2988 27.3494C54.2988 27.5794 54.3088 27.8094 54.3588 28.0394C54.4288 28.4194 54.5588 28.7694 54.7488 29.1094C55.1588 29.8194 55.7388 30.3294 56.5088 30.6194C56.7888 30.7294 57.0688 30.7994 57.3688 30.8094C57.4288 30.8094 57.4888 30.8194 57.5488 30.8294C57.5888 30.8294 57.6288 30.8294 57.6588 30.8194C57.6788 30.8194 57.6888 30.8294 57.6988 30.8294C57.8288 30.8194 57.9588 30.8094 58.0888 30.7994C58.1388 30.7994 58.1888 30.7894 58.2388 30.7594H58.2588C58.3588 30.7694 58.4488 30.7294 58.5488 30.6994C59.2488 30.4994 59.8288 30.1094 60.2888 29.5294C60.7288 28.9594 60.9588 28.3094 61.0188 27.5994C61.0388 27.2794 61.0088 26.9694 60.9488 26.6694ZM58.3288 28.6394C58.2388 28.6994 58.1488 28.7294 58.0588 28.7694C58.0088 28.7794 57.9488 28.7994 57.8988 28.8094C57.8888 28.8294 57.8788 28.8394 57.8688 28.8194C57.8088 28.8094 57.7588 28.8294 57.7088 28.8394C57.6588 28.8094 57.6188 28.8194 57.5688 28.8194C57.1488 28.7894 56.8288 28.5994 56.5788 28.2594C56.3888 27.9994 56.2988 27.7094 56.2988 27.3894C56.2988 27.0594 56.3888 26.7594 56.5788 26.4894C56.7988 26.1894 57.0988 25.9994 57.4688 25.9394C57.5388 25.9194 57.6288 25.9194 57.6988 25.9194C57.7788 25.9294 57.8588 25.9394 57.9388 25.9594C58.3988 26.0694 58.7088 26.3594 58.8988 26.7794C58.9888 26.9894 59.0388 27.2194 59.0188 27.4494C58.9888 27.9594 58.7588 28.3594 58.3288 28.6394Z" fill="url(#paint9_linear_7780_5877)"/>
<path d="M58.2602 30.7598L58.2502 30.7698L58.2402 30.7598H58.2602Z" fill="url(#paint10_linear_7780_5877)"/>
</g>
<defs>
<linearGradient id="paint0_linear_7780_5877" x1="41.9408" y1="51.3866" x2="66.5073" y2="51.3866" gradientUnits="userSpaceOnUse">
<stop stop-color="#E29D52"/>
<stop offset="1" stop-color="#CE4A7B"/>
</linearGradient>
<linearGradient id="paint1_linear_7780_5877" x1="-8.6422" y1="13.8201" x2="58.7024" y2="13.8201" gradientUnits="userSpaceOnUse">
<stop stop-color="#E29D52"/>
<stop offset="1" stop-color="#CE4A7B"/>
</linearGradient>
<linearGradient id="paint2_linear_7780_5877" x1="24.7817" y1="14.0835" x2="76.0433" y2="14.0835" gradientUnits="userSpaceOnUse">
<stop stop-color="#E29D52"/>
<stop offset="1" stop-color="#CE4A7B"/>
</linearGradient>
<linearGradient id="paint3_linear_7780_5877" x1="63.6067" y1="46.3344" x2="63.6266" y2="46.3344" gradientUnits="userSpaceOnUse">
<stop stop-color="#E29D52"/>
<stop offset="1" stop-color="#CE4A7B"/>
</linearGradient>
<linearGradient id="paint4_linear_7780_5877" x1="7.33602" y1="10.1904" x2="26.637" y2="10.1904" gradientUnits="userSpaceOnUse">
<stop stop-color="#E29D52"/>
<stop offset="1" stop-color="#CE4A7B"/>
</linearGradient>
<linearGradient id="paint5_linear_7780_5877" x1="7.33602" y1="28.3203" x2="26.637" y2="28.3203" gradientUnits="userSpaceOnUse">
<stop stop-color="#E29D52"/>
<stop offset="1" stop-color="#CE4A7B"/>
</linearGradient>
<linearGradient id="paint6_linear_7780_5877" x1="7.33602" y1="19.2607" x2="26.637" y2="19.2607" gradientUnits="userSpaceOnUse">
<stop stop-color="#E29D52"/>
<stop offset="1" stop-color="#CE4A7B"/>
</linearGradient>
<linearGradient id="paint7_linear_7780_5877" x1="39.4826" y1="21.8781" x2="67.9382" y2="21.8781" gradientUnits="userSpaceOnUse">
<stop stop-color="#E29D52"/>
<stop offset="1" stop-color="#CE4A7B"/>
</linearGradient>
<linearGradient id="paint8_linear_7780_5877" x1="47.6899" y1="23.5653" x2="63.3092" y2="23.5653" gradientUnits="userSpaceOnUse">
<stop stop-color="#E29D52"/>
<stop offset="1" stop-color="#CE4A7B"/>
</linearGradient>
<linearGradient id="paint9_linear_7780_5877" x1="53.3894" y1="25.7603" x2="60.0813" y2="25.7603" gradientUnits="userSpaceOnUse">
<stop stop-color="#E29D52"/>
<stop offset="1" stop-color="#CE4A7B"/>
</linearGradient>
<linearGradient id="paint10_linear_7780_5877" x1="58.2375" y1="30.7624" x2="58.2574" y2="30.7624" gradientUnits="userSpaceOnUse">
<stop stop-color="#E29D52"/>
<stop offset="1" stop-color="#CE4A7B"/>
</linearGradient>
<clipPath id="clip0_7780_5877">
<rect width="83.91" height="64.51" fill="white"/>
</clipPath>
</defs>
</svg>
