<svg width="89" height="24" viewBox="0 0 89 24" fill="none" xmlns="http://www.w3.org/2000/svg">
<rect width="89" height="24" rx="12" fill="#1A1B1B"/>
<path d="M26.8726 16V8.72727H29.6567C30.1823 8.72727 30.6191 8.81013 30.9671 8.97585C31.3174 9.1392 31.579 9.36293 31.7519 9.64702C31.9271 9.93111 32.0146 10.2531 32.0146 10.6129C32.0146 10.9089 31.9578 11.1622 31.8442 11.3729C31.7306 11.5812 31.5779 11.7505 31.3861 11.8807C31.1943 12.0109 30.9801 12.1044 30.7433 12.1612V12.2322C31.0014 12.2464 31.2488 12.3258 31.4855 12.4702C31.7246 12.6122 31.92 12.8134 32.0715 13.0739C32.223 13.3343 32.2987 13.6491 32.2987 14.0185C32.2987 14.3949 32.2076 14.7334 32.0253 15.0341C31.843 15.3324 31.5684 15.5679 31.2014 15.7408C30.8345 15.9136 30.3728 16 29.8165 16H26.8726ZM28.1901 14.8991H29.607C30.0852 14.8991 30.4297 14.808 30.6404 14.6257C30.8534 14.4411 30.96 14.2043 30.96 13.9155C30.96 13.7 30.9067 13.5059 30.8002 13.3331C30.6936 13.1579 30.5421 13.0206 30.3456 12.9212C30.1491 12.8194 29.9147 12.7685 29.6425 12.7685H28.1901V14.8991ZM28.1901 11.8203H29.4933C29.7206 11.8203 29.9254 11.7789 30.1077 11.696C30.29 11.6108 30.4332 11.4912 30.5374 11.3374C30.6439 11.1811 30.6972 10.9964 30.6972 10.7834C30.6972 10.5017 30.5977 10.2696 30.3989 10.0874C30.2024 9.90507 29.91 9.81392 29.5218 9.81392H28.1901V11.8203ZM33.4449 16V8.72727H36.1721C36.7309 8.72727 37.1996 8.82434 37.5784 9.01847C37.9595 9.21259 38.2472 9.48485 38.4413 9.83523C38.6378 10.1832 38.7361 10.5893 38.7361 11.0533C38.7361 11.5196 38.6366 11.9245 38.4378 12.2678C38.2413 12.6087 37.9513 12.8726 37.5677 13.0597C37.1842 13.2443 36.7131 13.3366 36.1544 13.3366H34.2119V12.2429H35.9768C36.3035 12.2429 36.5711 12.1979 36.7794 12.108C36.9877 12.0156 37.1416 11.8819 37.241 11.7067C37.3428 11.5291 37.3937 11.3113 37.3937 11.0533C37.3937 10.7952 37.3428 10.575 37.241 10.3928C37.1392 10.2081 36.9842 10.0684 36.7758 9.97372C36.5675 9.87666 36.2988 9.82812 35.9697 9.82812H34.7623V16H33.4449ZM37.202 12.7045L39.0024 16H37.5322L35.7638 12.7045H37.202ZM41.2662 8.72727V16H39.9488V8.72727H41.2662ZM45.1574 16H42.6929V8.72727H45.2071C45.9292 8.72727 46.5494 8.87287 47.0679 9.16406C47.5887 9.45289 47.9888 9.86837 48.2682 10.4105C48.5476 10.9527 48.6872 11.6013 48.6872 12.3565C48.6872 13.1141 48.5464 13.7652 48.2646 14.3097C47.9853 14.8542 47.5816 15.272 47.0537 15.5632C46.5281 15.8544 45.896 16 45.1574 16ZM44.0104 14.8601H45.0935C45.6001 14.8601 46.0227 14.7678 46.3612 14.5831C46.6998 14.3961 46.9543 14.1179 47.1247 13.7486C47.2952 13.3769 47.3804 12.9129 47.3804 12.3565C47.3804 11.8002 47.2952 11.3385 47.1247 10.9716C46.9543 10.6023 46.7021 10.3265 46.3683 10.1442C46.0369 9.95952 45.625 9.86719 45.1325 9.86719H44.0104V14.8601ZM54.8112 11.0497C54.752 10.858 54.6703 10.6863 54.5661 10.5348C54.4643 10.3809 54.3412 10.2495 54.1968 10.1406C54.0548 10.0317 53.8914 9.95005 53.7068 9.8956C53.5221 9.83878 53.3209 9.81037 53.1031 9.81037C52.7124 9.81037 52.3644 9.90862 52.059 10.1051C51.7536 10.3016 51.5133 10.5904 51.3382 10.9716C51.1653 11.3504 51.0789 11.812 51.0789 12.3565C51.0789 12.9058 51.1653 13.371 51.3382 13.7521C51.511 14.1333 51.7513 14.4233 52.059 14.6222C52.3668 14.8187 52.7243 14.9169 53.1315 14.9169C53.5008 14.9169 53.8204 14.8459 54.0903 14.7038C54.3625 14.5618 54.5721 14.3606 54.7188 14.1001C54.8656 13.8374 54.939 13.5296 54.939 13.1768L55.2373 13.223H53.2629V12.1932H56.2139V13.0668C56.2139 13.6894 56.0813 14.228 55.8161 14.6825C55.551 15.1371 55.1864 15.4875 54.7224 15.7337C54.2584 15.9775 53.7257 16.0994 53.1244 16.0994C52.4544 16.0994 51.8661 15.9491 51.3595 15.6484C50.8552 15.3454 50.461 14.9157 50.1769 14.3594C49.8952 13.8007 49.7544 13.1378 49.7544 12.3707C49.7544 11.7836 49.8372 11.2592 50.0029 10.7976C50.171 10.3359 50.4054 9.94413 50.7061 9.62216C51.0067 9.29782 51.3595 9.05161 51.7643 8.88352C52.1691 8.71307 52.6095 8.62784 53.0853 8.62784C53.4878 8.62784 53.863 8.68703 54.211 8.8054C54.559 8.9214 54.868 9.08712 55.1379 9.30256C55.4101 9.51799 55.6338 9.77367 55.809 10.0696C55.9842 10.3655 56.099 10.6922 56.1535 11.0497H54.8112ZM57.4878 16V8.72727H62.218V9.83168H58.8053V11.8061H61.9729V12.9105H58.8053V14.8956H62.2464V16H57.4878Z" fill="#AEAEAE"/>
</svg>
