<svg width="86" height="64" viewBox="0 0 86 64" fill="none" xmlns="http://www.w3.org/2000/svg">
<mask id="path-1-inside-1_553_10495" fill="white">
<path d="M66.2043 14.6749L64.3349 23.6569C64.4069 23.4708 64.4062 23.264 64.3329 23.0784C64.2595 22.8929 64.119 22.7426 63.9399 22.6581L65.8093 13.6761C65.9894 13.7593 66.131 13.9095 66.2045 14.0955C66.2781 14.2815 66.278 14.489 66.2043 14.6749Z"/>
</mask>
<path d="M66.2043 14.6749L64.3349 23.6569C64.4069 23.4708 64.4062 23.264 64.3329 23.0784C64.2595 22.8929 64.119 22.7426 63.9399 22.6581L65.8093 13.6761C65.9894 13.7593 66.131 13.9095 66.2045 14.0955C66.2781 14.2815 66.278 14.489 66.2043 14.6749Z" fill="#2AABEE"/>
<path d="M64.3349 23.6569L63.3558 23.4531L65.2673 24.0181L64.3349 23.6569ZM63.9399 22.6581L62.9609 22.4544L62.8003 23.2263L63.5134 23.5626L63.9399 22.6581ZM65.8093 13.6761L66.2285 12.7683L65.0866 12.241L64.8303 13.4724L65.8093 13.6761ZM65.2252 14.4711L63.3558 23.4531L65.3139 23.8606L67.1833 14.8786L65.2252 14.4711ZM65.2673 24.0181C65.4303 23.5974 65.4287 23.1303 65.2628 22.7107L63.4029 23.4462C63.3838 23.3977 63.3836 23.3442 63.4024 23.2956L65.2673 24.0181ZM65.2628 22.7107C65.0968 22.2909 64.7775 21.9475 64.3665 21.7537L63.5134 23.5626C63.4605 23.5376 63.4222 23.4949 63.4029 23.4462L65.2628 22.7107ZM64.919 22.8619L66.7883 13.8799L64.8303 13.4724L62.9609 22.4544L64.919 22.8619ZM65.3901 14.584C65.3349 14.5585 65.2947 14.5141 65.2746 14.4632L67.1345 13.7278C66.9673 13.3049 66.644 12.9601 66.2285 12.7683L65.3901 14.584ZM65.2746 14.4632C65.2546 14.4127 65.2546 14.3568 65.2747 14.3062L67.1338 15.0436C67.3014 14.6211 67.3015 14.1503 67.1345 13.7278L65.2746 14.4632Z" fill="white" mask="url(#path-1-inside-1_553_10495)"/>
<mask id="path-3-inside-2_553_10495" fill="white">
<path d="M65.8095 13.676L63.9402 22.658C63.8781 22.6331 63.8143 22.6131 63.7493 22.598L65.6187 13.6094L65.8095 13.676Z"/>
</mask>
<path d="M65.8095 13.676L63.9402 22.658C63.8781 22.6331 63.8143 22.6131 63.7493 22.598L65.6187 13.6094L65.8095 13.676Z" fill="#2AABEE"/>
<path d="M65.8095 13.676L66.7886 13.8797L66.9673 13.0209L66.139 12.7318L65.8095 13.676ZM63.9402 22.658L63.5685 23.5863L64.6761 24.0298L64.9192 22.8617L63.9402 22.658ZM63.7493 22.598L62.7702 22.3944L62.5711 23.3518L63.5238 23.5723L63.7493 22.598ZM65.6187 13.6094L65.9481 12.6652L64.8717 12.2896L64.6396 13.4058L65.6187 13.6094ZM64.8305 13.4722L62.9612 22.4542L64.9192 22.8617L66.7886 13.8797L64.8305 13.4722ZM64.3119 21.7296C64.2025 21.6858 64.0898 21.6504 63.9748 21.6238L63.5238 23.5723C63.5388 23.5758 63.5538 23.5805 63.5685 23.5863L64.3119 21.7296ZM64.7283 22.8017L66.5977 13.813L64.6396 13.4058L62.7702 22.3944L64.7283 22.8017ZM65.2892 14.5535L65.4801 14.6201L66.139 12.7318L65.9481 12.6652L65.2892 14.5535Z" fill="white" mask="url(#path-3-inside-2_553_10495)"/>
<mask id="path-5-inside-3_553_10495" fill="white">
<path d="M65.6183 13.6095L63.7621 22.5982C63.6778 22.5774 63.5919 22.564 63.5054 22.5582L65.3748 13.5696C65.4613 13.5754 65.5472 13.5887 65.6315 13.6095"/>
</mask>
<path d="M65.6183 13.6095L63.7621 22.5982C63.6778 22.5774 63.5919 22.564 63.5054 22.5582L65.3748 13.5696C65.4613 13.5754 65.5472 13.5887 65.6315 13.6095" fill="#2AABEE"/>
<path d="M63.7621 22.5982L63.5225 23.5691L64.5313 23.818L64.7414 22.8004L63.7621 22.5982ZM63.5054 22.5582L62.5263 22.3546L62.2924 23.4794L63.4387 23.556L63.5054 22.5582ZM65.3748 13.5696L65.4415 12.5718L64.573 12.5137L64.3957 13.366L65.3748 13.5696ZM64.639 13.4073L62.7828 22.396L64.7414 22.8004L66.5976 13.8118L64.639 13.4073ZM64.0017 21.6273C63.8607 21.5925 63.717 21.5702 63.5721 21.5605L63.4387 23.556C63.4669 23.5579 63.4949 23.5623 63.5225 23.5691L64.0017 21.6273ZM64.4844 22.7619L66.3538 13.7732L64.3957 13.366L62.5263 22.3546L64.4844 22.7619ZM65.308 14.5674C65.3363 14.5692 65.3643 14.5736 65.3919 14.5804L65.8711 12.6387C65.7301 12.6039 65.5863 12.5815 65.4415 12.5718L65.308 14.5674Z" fill="white" mask="url(#path-5-inside-3_553_10495)"/>
<mask id="path-7-inside-4_553_10495" fill="white">
<path d="M65.3615 13.5696L63.4922 22.5582H63.3408H62.9656L64.835 13.5696H65.2102H65.3615Z"/>
</mask>
<path d="M65.3615 13.5696L63.4922 22.5582H63.3408H62.9656L64.835 13.5696H65.2102H65.3615Z" fill="#2AABEE"/>
<path d="M65.3615 13.5696L66.3406 13.7732L66.5909 12.5696H65.3615V13.5696ZM63.4922 22.5582V23.5582H64.3056L64.4712 22.7619L63.4922 22.5582ZM62.9656 22.5582L61.9865 22.3546L61.7362 23.5582H62.9656V22.5582ZM64.835 13.5696V12.5696H64.0215L63.8559 13.366L64.835 13.5696ZM64.3825 13.366L62.5131 22.3546L64.4712 22.7619L66.3406 13.7732L64.3825 13.366ZM63.4922 21.5582H63.3408V23.5582H63.4922V21.5582ZM63.3408 21.5582H62.9656V23.5582H63.3408V21.5582ZM63.9446 22.7619L65.814 13.7732L63.8559 13.366L61.9865 22.3546L63.9446 22.7619ZM64.835 14.5696H65.2102V12.5696H64.835V14.5696ZM65.2102 14.5696H65.3615V12.5696H65.2102V14.5696Z" fill="white" mask="url(#path-7-inside-4_553_10495)"/>
<path d="M58.8071 16.5748C61.3824 15.1789 63.0779 14.4713 64.1959 14.2011L62.5474 22.1277C61.3835 22.3383 59.6593 23.0047 57.2026 24.2898L58.8071 16.5748Z" fill="#2AABEE" stroke="white"/>
<path d="M29.7267 32.494L57.6549 17.2242L56.0529 24.9269L28.1247 40.1968L29.7267 32.494Z" fill="#2AABEE" stroke="white"/>
<mask id="path-11-inside-5_553_10495" fill="white">
<path d="M3.86324 28.5307L1.99387 37.5127C1.81615 37.4328 -0.217786 36.5207 0.0191772 35.229L1.88855 26.2403C1.62526 27.532 3.65919 28.4508 3.86324 28.5307Z"/>
</mask>
<path d="M3.86324 28.5307L1.99387 37.5127C1.81615 37.4328 -0.217786 36.5207 0.0191772 35.229L1.88855 26.2403C1.62526 27.532 3.65919 28.4508 3.86324 28.5307Z" fill="#2AABEE"/>
<path d="M1.99387 37.5127L1.58383 38.4248L2.71924 38.9353L2.97289 37.7165L1.99387 37.5127ZM0.0191772 35.229L-0.959874 35.0253L-0.962278 35.0369L-0.964409 35.0485L0.0191772 35.229ZM1.88855 26.2403L2.8684 26.44L0.9095 26.0367L1.88855 26.2403ZM2.88422 28.327L1.01485 37.309L2.97289 37.7165L4.84227 28.7345L2.88422 28.327ZM2.40391 36.6007C2.32854 36.5668 1.87217 36.3605 1.47441 36.0434C1.01164 35.6744 0.993407 35.4604 1.00276 35.4094L-0.964409 35.0485C-1.19202 36.2892 -0.311762 37.1771 0.227624 37.6072C0.832017 38.089 1.48148 38.3788 1.58383 38.4248L2.40391 36.6007ZM0.998229 35.4326L2.8676 26.4439L0.9095 26.0367L-0.959874 35.0253L0.998229 35.4326ZM0.908699 26.0406C0.654424 27.288 1.53323 28.1863 2.07567 28.6206C2.67898 29.1036 3.33567 29.3981 3.49864 29.4619L4.22785 27.5996C4.23068 27.6007 4.19873 27.5878 4.13653 27.5584C4.0779 27.5306 4.00011 27.4919 3.91089 27.4431C3.72936 27.344 3.51719 27.2127 3.32562 27.0593C2.8659 26.6913 2.85939 26.4843 2.8684 26.44L0.908699 26.0406Z" fill="white" mask="url(#path-11-inside-5_553_10495)"/>
<mask id="path-13-inside-6_553_10495" fill="white">
<path d="M29.2843 32.1661L27.415 41.1548C26.5334 41.5285 25.5973 41.7534 24.6438 41.8206L26.5132 32.832C27.4672 32.7682 28.4039 32.5431 29.2843 32.1661Z"/>
</mask>
<path d="M29.2843 32.1661L27.415 41.1548C26.5334 41.5285 25.5973 41.7534 24.6438 41.8206L26.5132 32.832C27.4672 32.7682 28.4039 32.5431 29.2843 32.1661Z" fill="#2AABEE"/>
<path d="M27.415 41.1548L27.8053 42.0755L28.2874 41.8711L28.394 41.3584L27.415 41.1548ZM24.6438 41.8206L23.6647 41.617L23.3956 42.9111L24.7141 42.8182L24.6438 41.8206ZM26.5132 32.832L26.4464 31.8342L25.6887 31.8849L25.5341 32.6284L26.5132 32.832ZM28.3053 31.9625L26.4359 40.9512L28.394 41.3584L30.2634 32.3697L28.3053 31.9625ZM27.0247 40.2341C26.2447 40.5648 25.4166 40.7637 24.5735 40.8231L24.7141 42.8182C25.778 42.7432 26.8222 42.4922 27.8053 42.0755L27.0247 40.2341ZM25.6229 42.0242L27.4922 33.0356L25.5341 32.6284L23.6647 41.617L25.6229 42.0242ZM26.5799 33.8297C27.6467 33.7584 28.6939 33.5067 29.6779 33.0854L28.8907 31.2469C28.1138 31.5795 27.2876 31.7779 26.4464 31.8342L26.5799 33.8297Z" fill="white" mask="url(#path-13-inside-6_553_10495)"/>
<path d="M22.5753 41.4139L22.5753 41.4139H22.5702C22.25 41.4139 21.9272 41.4136 21.594 41.3943L23.2595 33.386C23.6745 33.4144 24.0659 33.4268 24.4328 33.4318L24.4336 33.4318C24.9183 33.4377 25.4029 33.4237 25.8863 33.3899L24.2296 41.356C23.6794 41.4002 23.1274 41.4195 22.5753 41.4139Z" fill="#2AABEE" stroke="white"/>
<mask id="path-16-inside-7_553_10495" fill="white">
<path d="M22.8598 32.8519L20.9773 41.8406C19.6747 41.7269 18.3815 41.5222 17.1069 41.2281C14.5859 40.6488 11.9595 40.0163 9.61621 39.4436L11.4988 30.4417C13.8421 31.0143 16.4684 31.6468 18.9894 32.2261C20.2635 32.5235 21.5569 32.7282 22.8598 32.8386"/>
</mask>
<path d="M22.8598 32.8519L20.9773 41.8406C19.6747 41.7269 18.3815 41.5222 17.1069 41.2281C14.5859 40.6488 11.9595 40.0163 9.61621 39.4436L11.4988 30.4417C13.8421 31.0143 16.4684 31.6468 18.9894 32.2261C20.2635 32.5235 21.5569 32.7282 22.8598 32.8386" fill="#2AABEE"/>
<path d="M20.9773 41.8406L20.8903 42.8368L21.7742 42.914L21.9561 42.0456L20.9773 41.8406ZM17.1069 41.2281L17.3318 40.2537L17.3308 40.2535L17.1069 41.2281ZM9.61621 39.4436L8.63739 39.2389L8.43943 40.1855L9.37883 40.4151L9.61621 39.4436ZM11.4988 30.4417L11.7361 29.4702L10.7316 29.2248L10.5199 30.237L11.4988 30.4417ZM18.9894 32.2261L19.2168 31.2522L19.2134 31.2515L18.9894 32.2261ZM21.8811 32.647L19.9985 41.6356L21.9561 42.0456L23.8386 33.0569L21.8811 32.647ZM21.0643 40.8444C19.8081 40.7347 18.561 40.5374 17.3318 40.2537L16.882 42.2024C18.202 42.5071 19.5413 42.719 20.8903 42.8368L21.0643 40.8444ZM17.3308 40.2535C14.8163 39.6757 12.195 39.0444 9.85359 38.4722L9.37883 40.4151C11.7241 40.9881 14.3555 41.6219 16.8829 42.2027L17.3308 40.2535ZM10.595 39.6483L12.4776 30.6463L10.5199 30.237L8.63739 39.2389L10.595 39.6483ZM11.2614 31.4131C13.6066 31.9862 16.238 32.6199 18.7655 33.2007L19.2134 31.2515C16.6988 30.6737 14.0775 30.0424 11.7361 29.4702L11.2614 31.4131ZM18.7621 33.1999C20.0831 33.5083 21.4243 33.7205 22.7754 33.835L22.9443 31.8422C21.6895 31.7358 20.4438 31.5387 19.2168 31.2522L18.7621 33.1999Z" fill="white" mask="url(#path-16-inside-7_553_10495)"/>
<mask id="path-18-inside-8_553_10495" fill="white">
<path d="M11.4987 30.4417L9.62935 39.4303C5.48908 38.4116 2.23083 37.566 1.97412 37.4994L3.86324 28.5308C4.11995 28.5973 7.3782 29.4363 11.5185 30.455"/>
</mask>
<path d="M11.4987 30.4417L9.62935 39.4303C5.48908 38.4116 2.23083 37.566 1.97412 37.4994L3.86324 28.5308C4.11995 28.5973 7.3782 29.4363 11.5185 30.455" fill="#2AABEE"/>
<path d="M9.62935 39.4303L9.39043 40.4014L10.3973 40.6491L10.6084 39.634L9.62935 39.4303ZM1.97412 37.4994L0.995593 37.2933L0.798784 38.2277L1.72306 38.4674L1.97412 37.4994ZM3.86324 28.5308L4.1143 27.5628L3.10057 27.2999L2.88471 28.3246L3.86324 28.5308ZM10.5197 30.2381L8.6503 39.2267L10.6084 39.634L12.4778 30.6453L10.5197 30.2381ZM9.86828 38.4593C5.73387 37.442 2.4802 36.5976 2.22518 36.5315L1.72306 38.4674C1.98146 38.5344 5.24429 39.3812 9.39043 40.4014L9.86828 38.4593ZM2.95265 37.7055L4.84177 28.7369L2.88471 28.3246L0.995593 37.2933L2.95265 37.7055ZM3.61218 29.4987C3.87231 29.5662 7.13465 30.4062 11.2795 31.426L11.7574 29.484C7.62175 28.4664 4.36759 27.6285 4.1143 27.5628L3.61218 29.4987Z" fill="white" mask="url(#path-18-inside-8_553_10495)"/>
<path d="M40.4831 45.3715L41.9328 38.4007C41.9697 38.4514 42.0077 38.5011 42.0466 38.5498C42.5527 39.1833 43.2487 39.6913 43.8777 40.0434C47.1135 41.9611 53.0217 44.8734 58.2255 47.3636C61.2307 48.8017 63.9941 50.096 65.8933 50.9854C66.9096 51.4614 67.6783 51.8214 68.1043 52.0256L66.4444 60.0068C65.9721 59.7823 65.2564 59.4468 64.361 59.0271C62.4495 58.131 59.7189 56.8508 56.7878 55.4478C51.5736 52.9517 45.7035 50.0568 42.5134 48.169C41.9443 47.8286 41.36 47.3871 40.9578 46.886C40.5571 46.3867 40.3765 45.8819 40.483 45.3719L40.4831 45.3715Z" fill="#2AABEE" stroke="white"/>
<mask id="path-21-inside-9_553_10495" fill="white">
<path d="M83.7988 51.6083L81.9294 60.5903C81.8802 60.8351 81.8119 61.0755 81.7253 61.3094L83.5947 52.3207C83.6814 52.0891 83.7496 51.8509 83.7988 51.6083Z"/>
</mask>
<path d="M83.7988 51.6083L81.9294 60.5903C81.8802 60.8351 81.8119 61.0755 81.7253 61.3094L83.5947 52.3207C83.6814 52.0891 83.7496 51.8509 83.7988 51.6083Z" fill="#2AABEE"/>
<path d="M81.9294 60.5903L80.9503 60.3866L80.949 60.3931L81.9294 60.5903ZM81.7253 61.3094L80.7463 61.1058L82.6631 61.6565L81.7253 61.3094ZM83.5947 52.3207L82.6581 51.9704L82.6313 52.0421L82.6157 52.1171L83.5947 52.3207ZM82.8198 51.4045L80.9504 60.3866L82.9084 60.7941L84.7778 51.812L82.8198 51.4045ZM80.949 60.3931C80.9101 60.5869 80.856 60.7771 80.7875 60.9622L82.6631 61.6565C82.7678 61.3738 82.8503 61.0833 82.9098 60.7875L80.949 60.3931ZM82.7044 61.513L84.5738 52.5243L82.6157 52.1171L80.7463 61.1058L82.7044 61.513ZM84.5314 52.671C84.6365 52.39 84.7192 52.1011 84.7788 51.807L82.8187 51.4095C82.78 51.6006 82.7263 51.7882 82.6581 51.9704L84.5314 52.671Z" fill="white" mask="url(#path-21-inside-9_553_10495)"/>
<mask id="path-23-inside-10_553_10495" fill="white">
<path d="M83.5948 52.3207L81.7254 61.3093C81.5703 61.7376 81.348 62.1378 81.0671 62.4945L82.9365 53.5059C83.2188 53.15 83.4412 52.7496 83.5948 52.3207Z"/>
</mask>
<path d="M83.5948 52.3207L81.7254 61.3093C81.5703 61.7376 81.348 62.1378 81.0671 62.4945L82.9365 53.5059C83.2188 53.15 83.4412 52.7496 83.5948 52.3207Z" fill="#2AABEE"/>
<path d="M83.5948 52.3207L84.5738 52.5243L82.6533 51.9836L83.5948 52.3207ZM81.7254 61.3093L82.6656 61.6499L82.6899 61.5828L82.7044 61.513L81.7254 61.3093ZM81.0671 62.4945L80.0881 62.2909L81.8528 63.1131L81.0671 62.4945ZM82.9365 53.5059L82.1531 52.8844L82.0058 53.0702L81.9575 53.3023L82.9365 53.5059ZM82.6157 52.1171L80.7463 61.1057L82.7044 61.513L84.5738 52.5243L82.6157 52.1171ZM80.7851 60.9688C80.6663 61.297 80.4961 61.6033 80.2814 61.8759L81.8528 63.1131C82.2 62.6723 82.4743 62.1781 82.6656 61.6499L80.7851 60.9688ZM82.0462 62.6981L83.9156 53.7095L81.9575 53.3023L80.0881 62.2909L82.0462 62.6981ZM83.72 54.1273C84.0703 53.6857 84.3459 53.1892 84.5362 52.6578L82.6533 51.9836C82.5364 52.3101 82.3673 52.6144 82.1531 52.8844L83.72 54.1273Z" fill="white" mask="url(#path-23-inside-10_553_10495)"/>
<mask id="path-25-inside-11_553_10495" fill="white">
<path d="M82.9365 53.5059L81.0671 62.4945C80.416 63.2709 79.504 63.7761 78.5066 63.9127L78.1577 63.9594L80.0271 54.9773L80.376 54.9241C81.3743 54.7905 82.2875 54.2848 82.9365 53.5059Z"/>
</mask>
<path d="M82.9365 53.5059L81.0671 62.4945C80.416 63.2709 79.504 63.7761 78.5066 63.9127L78.1577 63.9594L80.0271 54.9773L80.376 54.9241C81.3743 54.7905 82.2875 54.2848 82.9365 53.5059Z" fill="#2AABEE"/>
<path d="M81.0671 62.4945L81.8333 63.1371L81.9949 62.9444L82.0461 62.6981L81.0671 62.4945ZM78.5066 63.9127L78.639 64.9039L78.6423 64.9035L78.5066 63.9127ZM78.1577 63.9594L77.1787 63.7556L76.8911 65.1375L78.2901 64.9505L78.1577 63.9594ZM80.0271 54.9773L79.8762 53.9888L79.1896 54.0935L79.0481 54.7736L80.0271 54.9773ZM80.376 54.9241L80.2434 53.9329L80.2342 53.9341L80.2251 53.9355L80.376 54.9241ZM81.9574 53.3022L80.088 62.2909L82.0461 62.6981L83.9155 53.7095L81.9574 53.3022ZM80.3008 61.852C79.8083 62.4394 79.1203 62.8193 78.3709 62.922L78.6423 64.9035C79.8876 64.7329 81.0238 64.1025 81.8333 63.1371L80.3008 61.852ZM78.3742 62.9215L78.0253 62.9682L78.2901 64.9505L78.639 64.9039L78.3742 62.9215ZM79.1367 64.1631L81.0061 55.1811L79.0481 54.7736L77.1787 63.7556L79.1367 64.1631ZM80.178 55.9659L80.5268 55.9126L80.2251 53.9355L79.8762 53.9888L80.178 55.9659ZM80.5085 55.9152C81.7571 55.7483 82.8965 55.116 83.7047 54.146L82.1682 52.8657C81.6785 53.4535 80.9916 53.8328 80.2434 53.9329L80.5085 55.9152Z" fill="white" mask="url(#path-25-inside-11_553_10495)"/>
<mask id="path-27-inside-12_553_10495" fill="white">
<path d="M80.0271 54.9774L78.1577 63.9594C77.8823 63.99 77.6053 64.0033 77.3283 63.9993C77.0913 63.9993 76.8478 63.9993 76.5977 63.9993L78.4671 55.0107C78.7172 55.0107 78.9607 55.0107 79.1977 55.0107C79.4739 55.0278 79.7509 55.0278 80.0271 55.0107"/>
</mask>
<path d="M80.0271 54.9774L78.1577 63.9594C77.8823 63.99 77.6053 64.0033 77.3283 63.9993C77.0913 63.9993 76.8478 63.9993 76.5977 63.9993L78.4671 55.0107C78.7172 55.0107 78.9607 55.0107 79.1977 55.0107C79.4739 55.0278 79.7509 55.0278 80.0271 55.0107" fill="#2AABEE"/>
<path d="M78.1577 63.9594L78.268 64.9533L78.9889 64.8733L79.1367 64.1632L78.1577 63.9594ZM77.3283 63.9993L77.3426 62.9994L77.3354 62.9993H77.3283V63.9993ZM76.5977 63.9993L75.6186 63.7957L75.3683 64.9993H76.5977V63.9993ZM78.4671 55.0107V54.0107H77.6536L77.488 54.8071L78.4671 55.0107ZM79.1977 55.0107L79.2596 54.0126L79.2287 54.0107H79.1977V55.0107ZM79.048 54.7736L77.1786 63.7556L79.1367 64.1632L81.0061 55.1811L79.048 54.7736ZM78.0474 62.9655C77.8133 62.9915 77.578 63.0028 77.3426 62.9994L77.314 64.9992C77.6326 65.0038 77.9512 64.9884 78.268 64.9533L78.0474 62.9655ZM77.3283 62.9993C77.0932 62.9993 76.8459 62.9993 76.5977 62.9993V64.9993C76.8459 64.9993 77.0932 64.9993 77.3283 64.9993V62.9993ZM77.5767 64.203L79.4461 55.2143L77.488 54.8071L75.6186 63.7957L77.5767 64.203ZM78.4671 56.0107C78.4675 56.0107 78.468 56.0107 78.4685 56.0107C78.469 56.0107 78.4695 56.0107 78.47 56.0107C78.4705 56.0107 78.471 56.0107 78.4714 56.0107C78.4719 56.0107 78.4724 56.0107 78.4729 56.0107C78.4734 56.0107 78.4739 56.0107 78.4744 56.0107C78.4749 56.0107 78.4754 56.0107 78.4758 56.0107C78.4763 56.0107 78.4768 56.0107 78.4773 56.0107C78.4778 56.0107 78.4783 56.0107 78.4788 56.0107C78.4793 56.0107 78.4797 56.0107 78.4802 56.0107C78.4807 56.0107 78.4812 56.0107 78.4817 56.0107C78.4822 56.0107 78.4827 56.0107 78.4832 56.0107C78.4837 56.0107 78.4841 56.0107 78.4846 56.0107C78.4851 56.0107 78.4856 56.0107 78.4861 56.0107C78.4866 56.0107 78.4871 56.0107 78.4876 56.0107C78.488 56.0107 78.4885 56.0107 78.489 56.0107C78.4895 56.0107 78.49 56.0107 78.4905 56.0107C78.491 56.0107 78.4915 56.0107 78.4919 56.0107C78.4924 56.0107 78.4929 56.0107 78.4934 56.0107C78.4939 56.0107 78.4944 56.0107 78.4949 56.0107C78.4954 56.0107 78.4958 56.0107 78.4963 56.0107C78.4968 56.0107 78.4973 56.0107 78.4978 56.0107C78.4983 56.0107 78.4988 56.0107 78.4993 56.0107C78.4997 56.0107 78.5002 56.0107 78.5007 56.0107C78.5012 56.0107 78.5017 56.0107 78.5022 56.0107C78.5027 56.0107 78.5032 56.0107 78.5036 56.0107C78.5041 56.0107 78.5046 56.0107 78.5051 56.0107C78.5056 56.0107 78.5061 56.0107 78.5066 56.0107C78.5071 56.0107 78.5075 56.0107 78.508 56.0107C78.5085 56.0107 78.509 56.0107 78.5095 56.0107C78.51 56.0107 78.5105 56.0107 78.511 56.0107C78.5114 56.0107 78.5119 56.0107 78.5124 56.0107C78.5129 56.0107 78.5134 56.0107 78.5139 56.0107C78.5144 56.0107 78.5148 56.0107 78.5153 56.0107C78.5158 56.0107 78.5163 56.0107 78.5168 56.0107C78.5173 56.0107 78.5178 56.0107 78.5183 56.0107C78.5187 56.0107 78.5192 56.0107 78.5197 56.0107C78.5202 56.0107 78.5207 56.0107 78.5212 56.0107C78.5217 56.0107 78.5221 56.0107 78.5226 56.0107C78.5231 56.0107 78.5236 56.0107 78.5241 56.0107C78.5246 56.0107 78.5251 56.0107 78.5256 56.0107C78.526 56.0107 78.5265 56.0107 78.527 56.0107C78.5275 56.0107 78.528 56.0107 78.5285 56.0107C78.529 56.0107 78.5294 56.0107 78.5299 56.0107C78.5304 56.0107 78.5309 56.0107 78.5314 56.0107C78.5319 56.0107 78.5324 56.0107 78.5328 56.0107C78.5333 56.0107 78.5338 56.0107 78.5343 56.0107C78.5348 56.0107 78.5353 56.0107 78.5358 56.0107C78.5363 56.0107 78.5367 56.0107 78.5372 56.0107C78.5377 56.0107 78.5382 56.0107 78.5387 56.0107C78.5392 56.0107 78.5397 56.0107 78.5401 56.0107C78.5406 56.0107 78.5411 56.0107 78.5416 56.0107C78.5421 56.0107 78.5426 56.0107 78.5431 56.0107C78.5435 56.0107 78.544 56.0107 78.5445 56.0107C78.545 56.0107 78.5455 56.0107 78.546 56.0107C78.5465 56.0107 78.5469 56.0107 78.5474 56.0107C78.5479 56.0107 78.5484 56.0107 78.5489 56.0107C78.5494 56.0107 78.5499 56.0107 78.5503 56.0107C78.5508 56.0107 78.5513 56.0107 78.5518 56.0107C78.5523 56.0107 78.5528 56.0107 78.5533 56.0107C78.5537 56.0107 78.5542 56.0107 78.5547 56.0107C78.5552 56.0107 78.5557 56.0107 78.5562 56.0107C78.5567 56.0107 78.5571 56.0107 78.5576 56.0107C78.5581 56.0107 78.5586 56.0107 78.5591 56.0107C78.5596 56.0107 78.5601 56.0107 78.5605 56.0107C78.561 56.0107 78.5615 56.0107 78.562 56.0107C78.5625 56.0107 78.563 56.0107 78.5635 56.0107C78.5639 56.0107 78.5644 56.0107 78.5649 56.0107C78.5654 56.0107 78.5659 56.0107 78.5664 56.0107C78.5668 56.0107 78.5673 56.0107 78.5678 56.0107C78.5683 56.0107 78.5688 56.0107 78.5693 56.0107C78.5698 56.0107 78.5702 56.0107 78.5707 56.0107C78.5712 56.0107 78.5717 56.0107 78.5722 56.0107C78.5727 56.0107 78.5732 56.0107 78.5736 56.0107C78.5741 56.0107 78.5746 56.0107 78.5751 56.0107C78.5756 56.0107 78.5761 56.0107 78.5765 56.0107C78.577 56.0107 78.5775 56.0107 78.578 56.0107C78.5785 56.0107 78.579 56.0107 78.5795 56.0107C78.5799 56.0107 78.5804 56.0107 78.5809 56.0107C78.5814 56.0107 78.5819 56.0107 78.5824 56.0107C78.5828 56.0107 78.5833 56.0107 78.5838 56.0107C78.5843 56.0107 78.5848 56.0107 78.5853 56.0107C78.5858 56.0107 78.5862 56.0107 78.5867 56.0107C78.5872 56.0107 78.5877 56.0107 78.5882 56.0107C78.5887 56.0107 78.5891 56.0107 78.5896 56.0107C78.5901 56.0107 78.5906 56.0107 78.5911 56.0107C78.5916 56.0107 78.592 56.0107 78.5925 56.0107C78.593 56.0107 78.5935 56.0107 78.594 56.0107C78.5945 56.0107 78.595 56.0107 78.5954 56.0107C78.5959 56.0107 78.5964 56.0107 78.5969 56.0107C78.5974 56.0107 78.5979 56.0107 78.5983 56.0107C78.5988 56.0107 78.5993 56.0107 78.5998 56.0107C78.6003 56.0107 78.6008 56.0107 78.6012 56.0107C78.6017 56.0107 78.6022 56.0107 78.6027 56.0107C78.6032 56.0107 78.6037 56.0107 78.6041 56.0107C78.6046 56.0107 78.6051 56.0107 78.6056 56.0107C78.6061 56.0107 78.6066 56.0107 78.6071 56.0107C78.6075 56.0107 78.608 56.0107 78.6085 56.0107C78.609 56.0107 78.6095 56.0107 78.61 56.0107C78.6104 56.0107 78.6109 56.0107 78.6114 56.0107C78.6119 56.0107 78.6124 56.0107 78.6129 56.0107C78.6133 56.0107 78.6138 56.0107 78.6143 56.0107C78.6148 56.0107 78.6153 56.0107 78.6158 56.0107C78.6162 56.0107 78.6167 56.0107 78.6172 56.0107C78.6177 56.0107 78.6182 56.0107 78.6187 56.0107C78.6191 56.0107 78.6196 56.0107 78.6201 56.0107C78.6206 56.0107 78.6211 56.0107 78.6216 56.0107C78.622 56.0107 78.6225 56.0107 78.623 56.0107C78.6235 56.0107 78.624 56.0107 78.6245 56.0107C78.6249 56.0107 78.6254 56.0107 78.6259 56.0107C78.6264 56.0107 78.6269 56.0107 78.6274 56.0107C78.6278 56.0107 78.6283 56.0107 78.6288 56.0107C78.6293 56.0107 78.6298 56.0107 78.6303 56.0107C78.6307 56.0107 78.6312 56.0107 78.6317 56.0107C78.6322 56.0107 78.6327 56.0107 78.6331 56.0107C78.6336 56.0107 78.6341 56.0107 78.6346 56.0107C78.6351 56.0107 78.6356 56.0107 78.636 56.0107C78.6365 56.0107 78.637 56.0107 78.6375 56.0107C78.638 56.0107 78.6385 56.0107 78.6389 56.0107C78.6394 56.0107 78.6399 56.0107 78.6404 56.0107C78.6409 56.0107 78.6414 56.0107 78.6418 56.0107C78.6423 56.0107 78.6428 56.0107 78.6433 56.0107C78.6438 56.0107 78.6442 56.0107 78.6447 56.0107C78.6452 56.0107 78.6457 56.0107 78.6462 56.0107C78.6467 56.0107 78.6471 56.0107 78.6476 56.0107C78.6481 56.0107 78.6486 56.0107 78.6491 56.0107C78.6496 56.0107 78.65 56.0107 78.6505 56.0107C78.651 56.0107 78.6515 56.0107 78.652 56.0107C78.6524 56.0107 78.6529 56.0107 78.6534 56.0107C78.6539 56.0107 78.6544 56.0107 78.6549 56.0107C78.6553 56.0107 78.6558 56.0107 78.6563 56.0107C78.6568 56.0107 78.6573 56.0107 78.6577 56.0107C78.6582 56.0107 78.6587 56.0107 78.6592 56.0107C78.6597 56.0107 78.6602 56.0107 78.6606 56.0107C78.6611 56.0107 78.6616 56.0107 78.6621 56.0107C78.6626 56.0107 78.663 56.0107 78.6635 56.0107C78.664 56.0107 78.6645 56.0107 78.665 56.0107C78.6655 56.0107 78.6659 56.0107 78.6664 56.0107C78.6669 56.0107 78.6674 56.0107 78.6679 56.0107C78.6683 56.0107 78.6688 56.0107 78.6693 56.0107C78.6698 56.0107 78.6703 56.0107 78.6708 56.0107C78.6712 56.0107 78.6717 56.0107 78.6722 56.0107C78.6727 56.0107 78.6732 56.0107 78.6736 56.0107C78.6741 56.0107 78.6746 56.0107 78.6751 56.0107C78.6756 56.0107 78.6761 56.0107 78.6765 56.0107C78.677 56.0107 78.6775 56.0107 78.678 56.0107C78.6785 56.0107 78.6789 56.0107 78.6794 56.0107C78.6799 56.0107 78.6804 56.0107 78.6809 56.0107C78.6813 56.0107 78.6818 56.0107 78.6823 56.0107C78.6828 56.0107 78.6833 56.0107 78.6837 56.0107C78.6842 56.0107 78.6847 56.0107 78.6852 56.0107C78.6857 56.0107 78.6862 56.0107 78.6866 56.0107C78.6871 56.0107 78.6876 56.0107 78.6881 56.0107C78.6886 56.0107 78.689 56.0107 78.6895 56.0107C78.69 56.0107 78.6905 56.0107 78.691 56.0107C78.6914 56.0107 78.6919 56.0107 78.6924 56.0107C78.6929 56.0107 78.6934 56.0107 78.6938 56.0107C78.6943 56.0107 78.6948 56.0107 78.6953 56.0107C78.6958 56.0107 78.6963 56.0107 78.6967 56.0107C78.6972 56.0107 78.6977 56.0107 78.6982 56.0107C78.6987 56.0107 78.6991 56.0107 78.6996 56.0107C78.7001 56.0107 78.7006 56.0107 78.7011 56.0107C78.7015 56.0107 78.702 56.0107 78.7025 56.0107C78.703 56.0107 78.7035 56.0107 78.7039 56.0107C78.7044 56.0107 78.7049 56.0107 78.7054 56.0107C78.7059 56.0107 78.7063 56.0107 78.7068 56.0107C78.7073 56.0107 78.7078 56.0107 78.7083 56.0107C78.7087 56.0107 78.7092 56.0107 78.7097 56.0107C78.7102 56.0107 78.7107 56.0107 78.7111 56.0107C78.7116 56.0107 78.7121 56.0107 78.7126 56.0107C78.7131 56.0107 78.7135 56.0107 78.714 56.0107C78.7145 56.0107 78.715 56.0107 78.7155 56.0107C78.7159 56.0107 78.7164 56.0107 78.7169 56.0107C78.7174 56.0107 78.7179 56.0107 78.7183 56.0107C78.7188 56.0107 78.7193 56.0107 78.7198 56.0107C78.7203 56.0107 78.7207 56.0107 78.7212 56.0107C78.7217 56.0107 78.7222 56.0107 78.7227 56.0107C78.7231 56.0107 78.7236 56.0107 78.7241 56.0107C78.7246 56.0107 78.7251 56.0107 78.7255 56.0107C78.726 56.0107 78.7265 56.0107 78.727 56.0107C78.7275 56.0107 78.7279 56.0107 78.7284 56.0107C78.7289 56.0107 78.7294 56.0107 78.7299 56.0107C78.7303 56.0107 78.7308 56.0107 78.7313 56.0107C78.7318 56.0107 78.7322 56.0107 78.7327 56.0107C78.7332 56.0107 78.7337 56.0107 78.7342 56.0107C78.7346 56.0107 78.7351 56.0107 78.7356 56.0107C78.7361 56.0107 78.7366 56.0107 78.737 56.0107C78.7375 56.0107 78.738 56.0107 78.7385 56.0107C78.739 56.0107 78.7394 56.0107 78.7399 56.0107C78.7404 56.0107 78.7409 56.0107 78.7414 56.0107C78.7418 56.0107 78.7423 56.0107 78.7428 56.0107C78.7433 56.0107 78.7437 56.0107 78.7442 56.0107C78.7447 56.0107 78.7452 56.0107 78.7457 56.0107C78.7461 56.0107 78.7466 56.0107 78.7471 56.0107C78.7476 56.0107 78.7481 56.0107 78.7485 56.0107C78.749 56.0107 78.7495 56.0107 78.75 56.0107C78.7505 56.0107 78.7509 56.0107 78.7514 56.0107C78.7519 56.0107 78.7524 56.0107 78.7528 56.0107C78.7533 56.0107 78.7538 56.0107 78.7543 56.0107C78.7548 56.0107 78.7552 56.0107 78.7557 56.0107C78.7562 56.0107 78.7567 56.0107 78.7572 56.0107C78.7576 56.0107 78.7581 56.0107 78.7586 56.0107C78.7591 56.0107 78.7595 56.0107 78.76 56.0107C78.7605 56.0107 78.761 56.0107 78.7615 56.0107C78.7619 56.0107 78.7624 56.0107 78.7629 56.0107C78.7634 56.0107 78.7638 56.0107 78.7643 56.0107C78.7648 56.0107 78.7653 56.0107 78.7658 56.0107C78.7662 56.0107 78.7667 56.0107 78.7672 56.0107C78.7677 56.0107 78.7682 56.0107 78.7686 56.0107C78.7691 56.0107 78.7696 56.0107 78.7701 56.0107C78.7705 56.0107 78.771 56.0107 78.7715 56.0107C78.772 56.0107 78.7725 56.0107 78.7729 56.0107C78.7734 56.0107 78.7739 56.0107 78.7744 56.0107C78.7748 56.0107 78.7753 56.0107 78.7758 56.0107C78.7763 56.0107 78.7768 56.0107 78.7772 56.0107C78.7777 56.0107 78.7782 56.0107 78.7787 56.0107C78.7791 56.0107 78.7796 56.0107 78.7801 56.0107C78.7806 56.0107 78.7811 56.0107 78.7815 56.0107C78.782 56.0107 78.7825 56.0107 78.783 56.0107C78.7834 56.0107 78.7839 56.0107 78.7844 56.0107C78.7849 56.0107 78.7854 56.0107 78.7858 56.0107C78.7863 56.0107 78.7868 56.0107 78.7873 56.0107C78.7877 56.0107 78.7882 56.0107 78.7887 56.0107C78.7892 56.0107 78.7897 56.0107 78.7901 56.0107C78.7906 56.0107 78.7911 56.0107 78.7916 56.0107C78.792 56.0107 78.7925 56.0107 78.793 56.0107C78.7935 56.0107 78.7939 56.0107 78.7944 56.0107C78.7949 56.0107 78.7954 56.0107 78.7959 56.0107C78.7963 56.0107 78.7968 56.0107 78.7973 56.0107C78.7978 56.0107 78.7982 56.0107 78.7987 56.0107C78.7992 56.0107 78.7997 56.0107 78.8001 56.0107C78.8006 56.0107 78.8011 56.0107 78.8016 56.0107C78.8021 56.0107 78.8025 56.0107 78.803 56.0107C78.8035 56.0107 78.804 56.0107 78.8044 56.0107C78.8049 56.0107 78.8054 56.0107 78.8059 56.0107C78.8063 56.0107 78.8068 56.0107 78.8073 56.0107C78.8078 56.0107 78.8083 56.0107 78.8087 56.0107C78.8092 56.0107 78.8097 56.0107 78.8102 56.0107C78.8106 56.0107 78.8111 56.0107 78.8116 56.0107C78.8121 56.0107 78.8125 56.0107 78.813 56.0107C78.8135 56.0107 78.814 56.0107 78.8144 56.0107C78.8149 56.0107 78.8154 56.0107 78.8159 56.0107C78.8164 56.0107 78.8168 56.0107 78.8173 56.0107C78.8178 56.0107 78.8183 56.0107 78.8187 56.0107C78.8192 56.0107 78.8197 56.0107 78.8202 56.0107C78.8206 56.0107 78.8211 56.0107 78.8216 56.0107C78.8221 56.0107 78.8225 56.0107 78.823 56.0107C78.8235 56.0107 78.824 56.0107 78.8245 56.0107C78.8249 56.0107 78.8254 56.0107 78.8259 56.0107C78.8264 56.0107 78.8268 56.0107 78.8273 56.0107C78.8278 56.0107 78.8283 56.0107 78.8287 56.0107C78.8292 56.0107 78.8297 56.0107 78.8302 56.0107C78.8306 56.0107 78.8311 56.0107 78.8316 56.0107C78.8321 56.0107 78.8325 56.0107 78.833 56.0107C78.8335 56.0107 78.834 56.0107 78.8344 56.0107C78.8349 56.0107 78.8354 56.0107 78.8359 56.0107C78.8363 56.0107 78.8368 56.0107 78.8373 56.0107C78.8378 56.0107 78.8383 56.0107 78.8387 56.0107C78.8392 56.0107 78.8397 56.0107 78.8402 56.0107C78.8406 56.0107 78.8411 56.0107 78.8416 56.0107C78.8421 56.0107 78.8425 56.0107 78.843 56.0107C78.8435 56.0107 78.844 56.0107 78.8444 56.0107C78.8449 56.0107 78.8454 56.0107 78.8459 56.0107C78.8463 56.0107 78.8468 56.0107 78.8473 56.0107C78.8478 56.0107 78.8482 56.0107 78.8487 56.0107C78.8492 56.0107 78.8497 56.0107 78.8501 56.0107C78.8506 56.0107 78.8511 56.0107 78.8516 56.0107C78.852 56.0107 78.8525 56.0107 78.853 56.0107C78.8535 56.0107 78.8539 56.0107 78.8544 56.0107C78.8549 56.0107 78.8554 56.0107 78.8558 56.0107C78.8563 56.0107 78.8568 56.0107 78.8573 56.0107C78.8577 56.0107 78.8582 56.0107 78.8587 56.0107C78.8592 56.0107 78.8596 56.0107 78.8601 56.0107C78.8606 56.0107 78.8611 56.0107 78.8615 56.0107C78.862 56.0107 78.8625 56.0107 78.863 56.0107C78.8634 56.0107 78.8639 56.0107 78.8644 56.0107C78.8649 56.0107 78.8653 56.0107 78.8658 56.0107C78.8663 56.0107 78.8668 56.0107 78.8672 56.0107C78.8677 56.0107 78.8682 56.0107 78.8687 56.0107C78.8691 56.0107 78.8696 56.0107 78.8701 56.0107C78.8706 56.0107 78.871 56.0107 78.8715 56.0107C78.872 56.0107 78.8725 56.0107 78.8729 56.0107C78.8734 56.0107 78.8739 56.0107 78.8744 56.0107C78.8748 56.0107 78.8753 56.0107 78.8758 56.0107C78.8762 56.0107 78.8767 56.0107 78.8772 56.0107C78.8777 56.0107 78.8781 56.0107 78.8786 56.0107C78.8791 56.0107 78.8796 56.0107 78.88 56.0107C78.8805 56.0107 78.881 56.0107 78.8815 56.0107C78.8819 56.0107 78.8824 56.0107 78.8829 56.0107C78.8834 56.0107 78.8838 56.0107 78.8843 56.0107C78.8848 56.0107 78.8853 56.0107 78.8857 56.0107C78.8862 56.0107 78.8867 56.0107 78.8872 56.0107C78.8876 56.0107 78.8881 56.0107 78.8886 56.0107C78.889 56.0107 78.8895 56.0107 78.89 56.0107C78.8905 56.0107 78.8909 56.0107 78.8914 56.0107C78.8919 56.0107 78.8924 56.0107 78.8928 56.0107C78.8933 56.0107 78.8938 56.0107 78.8943 56.0107C78.8947 56.0107 78.8952 56.0107 78.8957 56.0107C78.8962 56.0107 78.8966 56.0107 78.8971 56.0107C78.8976 56.0107 78.898 56.0107 78.8985 56.0107C78.899 56.0107 78.8995 56.0107 78.8999 56.0107C78.9004 56.0107 78.9009 56.0107 78.9014 56.0107C78.9018 56.0107 78.9023 56.0107 78.9028 56.0107C78.9033 56.0107 78.9037 56.0107 78.9042 56.0107C78.9047 56.0107 78.9051 56.0107 78.9056 56.0107C78.9061 56.0107 78.9066 56.0107 78.907 56.0107C78.9075 56.0107 78.908 56.0107 78.9085 56.0107C78.9089 56.0107 78.9094 56.0107 78.9099 56.0107C78.9104 56.0107 78.9108 56.0107 78.9113 56.0107C78.9118 56.0107 78.9122 56.0107 78.9127 56.0107C78.9132 56.0107 78.9137 56.0107 78.9141 56.0107C78.9146 56.0107 78.9151 56.0107 78.9156 56.0107C78.916 56.0107 78.9165 56.0107 78.917 56.0107C78.9174 56.0107 78.9179 56.0107 78.9184 56.0107C78.9189 56.0107 78.9193 56.0107 78.9198 56.0107C78.9203 56.0107 78.9208 56.0107 78.9212 56.0107C78.9217 56.0107 78.9222 56.0107 78.9226 56.0107C78.9231 56.0107 78.9236 56.0107 78.9241 56.0107C78.9245 56.0107 78.925 56.0107 78.9255 56.0107C78.926 56.0107 78.9264 56.0107 78.9269 56.0107C78.9274 56.0107 78.9278 56.0107 78.9283 56.0107C78.9288 56.0107 78.9293 56.0107 78.9297 56.0107C78.9302 56.0107 78.9307 56.0107 78.9312 56.0107C78.9316 56.0107 78.9321 56.0107 78.9326 56.0107C78.933 56.0107 78.9335 56.0107 78.934 56.0107C78.9345 56.0107 78.9349 56.0107 78.9354 56.0107C78.9359 56.0107 78.9363 56.0107 78.9368 56.0107C78.9373 56.0107 78.9378 56.0107 78.9382 56.0107C78.9387 56.0107 78.9392 56.0107 78.9397 56.0107C78.9401 56.0107 78.9406 56.0107 78.9411 56.0107C78.9415 56.0107 78.942 56.0107 78.9425 56.0107C78.943 56.0107 78.9434 56.0107 78.9439 56.0107C78.9444 56.0107 78.9448 56.0107 78.9453 56.0107C78.9458 56.0107 78.9463 56.0107 78.9467 56.0107C78.9472 56.0107 78.9477 56.0107 78.9481 56.0107C78.9486 56.0107 78.9491 56.0107 78.9496 56.0107C78.95 56.0107 78.9505 56.0107 78.951 56.0107C78.9514 56.0107 78.9519 56.0107 78.9524 56.0107C78.9529 56.0107 78.9533 56.0107 78.9538 56.0107C78.9543 56.0107 78.9548 56.0107 78.9552 56.0107C78.9557 56.0107 78.9562 56.0107 78.9566 56.0107C78.9571 56.0107 78.9576 56.0107 78.9581 56.0107C78.9585 56.0107 78.959 56.0107 78.9595 56.0107C78.9599 56.0107 78.9604 56.0107 78.9609 56.0107C78.9614 56.0107 78.9618 56.0107 78.9623 56.0107C78.9628 56.0107 78.9632 56.0107 78.9637 56.0107C78.9642 56.0107 78.9646 56.0107 78.9651 56.0107C78.9656 56.0107 78.9661 56.0107 78.9665 56.0107C78.967 56.0107 78.9675 56.0107 78.9679 56.0107C78.9684 56.0107 78.9689 56.0107 78.9694 56.0107C78.9698 56.0107 78.9703 56.0107 78.9708 56.0107C78.9712 56.0107 78.9717 56.0107 78.9722 56.0107C78.9727 56.0107 78.9731 56.0107 78.9736 56.0107C78.9741 56.0107 78.9745 56.0107 78.975 56.0107C78.9755 56.0107 78.976 56.0107 78.9764 56.0107C78.9769 56.0107 78.9774 56.0107 78.9778 56.0107C78.9783 56.0107 78.9788 56.0107 78.9792 56.0107C78.9797 56.0107 78.9802 56.0107 78.9807 56.0107C78.9811 56.0107 78.9816 56.0107 78.9821 56.0107C78.9825 56.0107 78.983 56.0107 78.9835 56.0107C78.984 56.0107 78.9844 56.0107 78.9849 56.0107C78.9854 56.0107 78.9858 56.0107 78.9863 56.0107C78.9868 56.0107 78.9872 56.0107 78.9877 56.0107C78.9882 56.0107 78.9887 56.0107 78.9891 56.0107C78.9896 56.0107 78.9901 56.0107 78.9905 56.0107C78.991 56.0107 78.9915 56.0107 78.9919 56.0107C78.9924 56.0107 78.9929 56.0107 78.9934 56.0107C78.9938 56.0107 78.9943 56.0107 78.9948 56.0107C78.9952 56.0107 78.9957 56.0107 78.9962 56.0107C78.9966 56.0107 78.9971 56.0107 78.9976 56.0107C78.9981 56.0107 78.9985 56.0107 78.999 56.0107C78.9995 56.0107 78.9999 56.0107 79.0004 56.0107C79.0009 56.0107 79.0013 56.0107 79.0018 56.0107C79.0023 56.0107 79.0028 56.0107 79.0032 56.0107C79.0037 56.0107 79.0042 56.0107 79.0046 56.0107C79.0051 56.0107 79.0056 56.0107 79.006 56.0107C79.0065 56.0107 79.007 56.0107 79.0075 56.0107C79.0079 56.0107 79.0084 56.0107 79.0089 56.0107C79.0093 56.0107 79.0098 56.0107 79.0103 56.0107C79.0107 56.0107 79.0112 56.0107 79.0117 56.0107C79.0122 56.0107 79.0126 56.0107 79.0131 56.0107C79.0136 56.0107 79.014 56.0107 79.0145 56.0107C79.015 56.0107 79.0154 56.0107 79.0159 56.0107C79.0164 56.0107 79.0168 56.0107 79.0173 56.0107C79.0178 56.0107 79.0183 56.0107 79.0187 56.0107C79.0192 56.0107 79.0197 56.0107 79.0201 56.0107C79.0206 56.0107 79.0211 56.0107 79.0215 56.0107C79.022 56.0107 79.0225 56.0107 79.0229 56.0107C79.0234 56.0107 79.0239 56.0107 79.0244 56.0107C79.0248 56.0107 79.0253 56.0107 79.0258 56.0107C79.0262 56.0107 79.0267 56.0107 79.0272 56.0107C79.0276 56.0107 79.0281 56.0107 79.0286 56.0107C79.029 56.0107 79.0295 56.0107 79.03 56.0107C79.0304 56.0107 79.0309 56.0107 79.0314 56.0107C79.0319 56.0107 79.0323 56.0107 79.0328 56.0107C79.0333 56.0107 79.0337 56.0107 79.0342 56.0107C79.0347 56.0107 79.0351 56.0107 79.0356 56.0107C79.0361 56.0107 79.0365 56.0107 79.037 56.0107C79.0375 56.0107 79.0379 56.0107 79.0384 56.0107C79.0389 56.0107 79.0394 56.0107 79.0398 56.0107C79.0403 56.0107 79.0408 56.0107 79.0412 56.0107C79.0417 56.0107 79.0422 56.0107 79.0426 56.0107C79.0431 56.0107 79.0436 56.0107 79.044 56.0107C79.0445 56.0107 79.045 56.0107 79.0454 56.0107C79.0459 56.0107 79.0464 56.0107 79.0468 56.0107C79.0473 56.0107 79.0478 56.0107 79.0483 56.0107C79.0487 56.0107 79.0492 56.0107 79.0497 56.0107C79.0501 56.0107 79.0506 56.0107 79.0511 56.0107C79.0515 56.0107 79.052 56.0107 79.0525 56.0107C79.0529 56.0107 79.0534 56.0107 79.0539 56.0107C79.0543 56.0107 79.0548 56.0107 79.0553 56.0107C79.0557 56.0107 79.0562 56.0107 79.0567 56.0107C79.0571 56.0107 79.0576 56.0107 79.0581 56.0107C79.0585 56.0107 79.059 56.0107 79.0595 56.0107C79.06 56.0107 79.0604 56.0107 79.0609 56.0107C79.0614 56.0107 79.0618 56.0107 79.0623 56.0107C79.0628 56.0107 79.0632 56.0107 79.0637 56.0107C79.0642 56.0107 79.0646 56.0107 79.0651 56.0107C79.0656 56.0107 79.066 56.0107 79.0665 56.0107C79.067 56.0107 79.0674 56.0107 79.0679 56.0107C79.0684 56.0107 79.0688 56.0107 79.0693 56.0107C79.0698 56.0107 79.0702 56.0107 79.0707 56.0107C79.0712 56.0107 79.0716 56.0107 79.0721 56.0107C79.0726 56.0107 79.073 56.0107 79.0735 56.0107C79.074 56.0107 79.0744 56.0107 79.0749 56.0107C79.0754 56.0107 79.0758 56.0107 79.0763 56.0107C79.0768 56.0107 79.0772 56.0107 79.0777 56.0107C79.0782 56.0107 79.0786 56.0107 79.0791 56.0107C79.0796 56.0107 79.08 56.0107 79.0805 56.0107C79.081 56.0107 79.0814 56.0107 79.0819 56.0107C79.0824 56.0107 79.0829 56.0107 79.0833 56.0107C79.0838 56.0107 79.0843 56.0107 79.0847 56.0107C79.0852 56.0107 79.0857 56.0107 79.0861 56.0107C79.0866 56.0107 79.0871 56.0107 79.0875 56.0107C79.088 56.0107 79.0885 56.0107 79.0889 56.0107C79.0894 56.0107 79.0899 56.0107 79.0903 56.0107C79.0908 56.0107 79.0913 56.0107 79.0917 56.0107C79.0922 56.0107 79.0927 56.0107 79.0931 56.0107C79.0936 56.0107 79.0941 56.0107 79.0945 56.0107C79.095 56.0107 79.0955 56.0107 79.0959 56.0107C79.0964 56.0107 79.0969 56.0107 79.0973 56.0107C79.0978 56.0107 79.0983 56.0107 79.0987 56.0107C79.0992 56.0107 79.0997 56.0107 79.1001 56.0107C79.1006 56.0107 79.101 56.0107 79.1015 56.0107C79.102 56.0107 79.1024 56.0107 79.1029 56.0107C79.1034 56.0107 79.1038 56.0107 79.1043 56.0107C79.1048 56.0107 79.1052 56.0107 79.1057 56.0107C79.1062 56.0107 79.1066 56.0107 79.1071 56.0107C79.1076 56.0107 79.108 56.0107 79.1085 56.0107C79.109 56.0107 79.1094 56.0107 79.1099 56.0107C79.1104 56.0107 79.1108 56.0107 79.1113 56.0107C79.1118 56.0107 79.1122 56.0107 79.1127 56.0107C79.1132 56.0107 79.1136 56.0107 79.1141 56.0107C79.1146 56.0107 79.115 56.0107 79.1155 56.0107C79.116 56.0107 79.1164 56.0107 79.1169 56.0107C79.1174 56.0107 79.1178 56.0107 79.1183 56.0107C79.1188 56.0107 79.1192 56.0107 79.1197 56.0107C79.1202 56.0107 79.1206 56.0107 79.1211 56.0107C79.1216 56.0107 79.122 56.0107 79.1225 56.0107C79.1229 56.0107 79.1234 56.0107 79.1239 56.0107C79.1243 56.0107 79.1248 56.0107 79.1253 56.0107C79.1257 56.0107 79.1262 56.0107 79.1267 56.0107C79.1271 56.0107 79.1276 56.0107 79.1281 56.0107C79.1285 56.0107 79.129 56.0107 79.1295 56.0107C79.1299 56.0107 79.1304 56.0107 79.1309 56.0107C79.1313 56.0107 79.1318 56.0107 79.1323 56.0107C79.1327 56.0107 79.1332 56.0107 79.1336 56.0107C79.1341 56.0107 79.1346 56.0107 79.135 56.0107C79.1355 56.0107 79.136 56.0107 79.1364 56.0107C79.1369 56.0107 79.1374 56.0107 79.1378 56.0107C79.1383 56.0107 79.1388 56.0107 79.1392 56.0107C79.1397 56.0107 79.1402 56.0107 79.1406 56.0107C79.1411 56.0107 79.1416 56.0107 79.142 56.0107C79.1425 56.0107 79.1429 56.0107 79.1434 56.0107C79.1439 56.0107 79.1443 56.0107 79.1448 56.0107C79.1453 56.0107 79.1457 56.0107 79.1462 56.0107C79.1467 56.0107 79.1471 56.0107 79.1476 56.0107C79.1481 56.0107 79.1485 56.0107 79.149 56.0107C79.1495 56.0107 79.1499 56.0107 79.1504 56.0107C79.1508 56.0107 79.1513 56.0107 79.1518 56.0107C79.1522 56.0107 79.1527 56.0107 79.1532 56.0107C79.1536 56.0107 79.1541 56.0107 79.1546 56.0107C79.155 56.0107 79.1555 56.0107 79.156 56.0107C79.1564 56.0107 79.1569 56.0107 79.1573 56.0107C79.1578 56.0107 79.1583 56.0107 79.1587 56.0107C79.1592 56.0107 79.1597 56.0107 79.1601 56.0107C79.1606 56.0107 79.1611 56.0107 79.1615 56.0107C79.162 56.0107 79.1625 56.0107 79.1629 56.0107C79.1634 56.0107 79.1638 56.0107 79.1643 56.0107C79.1648 56.0107 79.1652 56.0107 79.1657 56.0107C79.1662 56.0107 79.1666 56.0107 79.1671 56.0107C79.1676 56.0107 79.168 56.0107 79.1685 56.0107C79.169 56.0107 79.1694 56.0107 79.1699 56.0107C79.1703 56.0107 79.1708 56.0107 79.1713 56.0107C79.1717 56.0107 79.1722 56.0107 79.1727 56.0107C79.1731 56.0107 79.1736 56.0107 79.1741 56.0107C79.1745 56.0107 79.175 56.0107 79.1754 56.0107C79.1759 56.0107 79.1764 56.0107 79.1768 56.0107C79.1773 56.0107 79.1778 56.0107 79.1782 56.0107C79.1787 56.0107 79.1792 56.0107 79.1796 56.0107C79.1801 56.0107 79.1805 56.0107 79.181 56.0107C79.1815 56.0107 79.1819 56.0107 79.1824 56.0107C79.1829 56.0107 79.1833 56.0107 79.1838 56.0107C79.1842 56.0107 79.1847 56.0107 79.1852 56.0107C79.1856 56.0107 79.1861 56.0107 79.1866 56.0107C79.187 56.0107 79.1875 56.0107 79.188 56.0107C79.1884 56.0107 79.1889 56.0107 79.1893 56.0107C79.1898 56.0107 79.1903 56.0107 79.1907 56.0107C79.1912 56.0107 79.1917 56.0107 79.1921 56.0107C79.1926 56.0107 79.193 56.0107 79.1935 56.0107C79.194 56.0107 79.1944 56.0107 79.1949 56.0107C79.1954 56.0107 79.1958 56.0107 79.1963 56.0107C79.1968 56.0107 79.1972 56.0107 79.1977 56.0107V54.0107C79.1972 54.0107 79.1968 54.0107 79.1963 54.0107C79.1958 54.0107 79.1954 54.0107 79.1949 54.0107C79.1944 54.0107 79.194 54.0107 79.1935 54.0107C79.193 54.0107 79.1926 54.0107 79.1921 54.0107C79.1917 54.0107 79.1912 54.0107 79.1907 54.0107C79.1903 54.0107 79.1898 54.0107 79.1893 54.0107C79.1889 54.0107 79.1884 54.0107 79.188 54.0107C79.1875 54.0107 79.187 54.0107 79.1866 54.0107C79.1861 54.0107 79.1856 54.0107 79.1852 54.0107C79.1847 54.0107 79.1842 54.0107 79.1838 54.0107C79.1833 54.0107 79.1829 54.0107 79.1824 54.0107C79.1819 54.0107 79.1815 54.0107 79.181 54.0107C79.1805 54.0107 79.1801 54.0107 79.1796 54.0107C79.1792 54.0107 79.1787 54.0107 79.1782 54.0107C79.1778 54.0107 79.1773 54.0107 79.1768 54.0107C79.1764 54.0107 79.1759 54.0107 79.1754 54.0107C79.175 54.0107 79.1745 54.0107 79.1741 54.0107C79.1736 54.0107 79.1731 54.0107 79.1727 54.0107C79.1722 54.0107 79.1717 54.0107 79.1713 54.0107C79.1708 54.0107 79.1703 54.0107 79.1699 54.0107C79.1694 54.0107 79.169 54.0107 79.1685 54.0107C79.168 54.0107 79.1676 54.0107 79.1671 54.0107C79.1666 54.0107 79.1662 54.0107 79.1657 54.0107C79.1652 54.0107 79.1648 54.0107 79.1643 54.0107C79.1638 54.0107 79.1634 54.0107 79.1629 54.0107C79.1625 54.0107 79.162 54.0107 79.1615 54.0107C79.1611 54.0107 79.1606 54.0107 79.1601 54.0107C79.1597 54.0107 79.1592 54.0107 79.1587 54.0107C79.1583 54.0107 79.1578 54.0107 79.1573 54.0107C79.1569 54.0107 79.1564 54.0107 79.156 54.0107C79.1555 54.0107 79.155 54.0107 79.1546 54.0107C79.1541 54.0107 79.1536 54.0107 79.1532 54.0107C79.1527 54.0107 79.1522 54.0107 79.1518 54.0107C79.1513 54.0107 79.1508 54.0107 79.1504 54.0107C79.1499 54.0107 79.1495 54.0107 79.149 54.0107C79.1485 54.0107 79.1481 54.0107 79.1476 54.0107C79.1471 54.0107 79.1467 54.0107 79.1462 54.0107C79.1457 54.0107 79.1453 54.0107 79.1448 54.0107C79.1443 54.0107 79.1439 54.0107 79.1434 54.0107C79.1429 54.0107 79.1425 54.0107 79.142 54.0107C79.1416 54.0107 79.1411 54.0107 79.1406 54.0107C79.1402 54.0107 79.1397 54.0107 79.1392 54.0107C79.1388 54.0107 79.1383 54.0107 79.1378 54.0107C79.1374 54.0107 79.1369 54.0107 79.1364 54.0107C79.136 54.0107 79.1355 54.0107 79.135 54.0107C79.1346 54.0107 79.1341 54.0107 79.1336 54.0107C79.1332 54.0107 79.1327 54.0107 79.1323 54.0107C79.1318 54.0107 79.1313 54.0107 79.1309 54.0107C79.1304 54.0107 79.1299 54.0107 79.1295 54.0107C79.129 54.0107 79.1285 54.0107 79.1281 54.0107C79.1276 54.0107 79.1271 54.0107 79.1267 54.0107C79.1262 54.0107 79.1257 54.0107 79.1253 54.0107C79.1248 54.0107 79.1243 54.0107 79.1239 54.0107C79.1234 54.0107 79.1229 54.0107 79.1225 54.0107C79.122 54.0107 79.1216 54.0107 79.1211 54.0107C79.1206 54.0107 79.1202 54.0107 79.1197 54.0107C79.1192 54.0107 79.1188 54.0107 79.1183 54.0107C79.1178 54.0107 79.1174 54.0107 79.1169 54.0107C79.1164 54.0107 79.116 54.0107 79.1155 54.0107C79.115 54.0107 79.1146 54.0107 79.1141 54.0107C79.1136 54.0107 79.1132 54.0107 79.1127 54.0107C79.1122 54.0107 79.1118 54.0107 79.1113 54.0107C79.1108 54.0107 79.1104 54.0107 79.1099 54.0107C79.1094 54.0107 79.109 54.0107 79.1085 54.0107C79.108 54.0107 79.1076 54.0107 79.1071 54.0107C79.1066 54.0107 79.1062 54.0107 79.1057 54.0107C79.1052 54.0107 79.1048 54.0107 79.1043 54.0107C79.1038 54.0107 79.1034 54.0107 79.1029 54.0107C79.1024 54.0107 79.102 54.0107 79.1015 54.0107C79.101 54.0107 79.1006 54.0107 79.1001 54.0107C79.0997 54.0107 79.0992 54.0107 79.0987 54.0107C79.0983 54.0107 79.0978 54.0107 79.0973 54.0107C79.0969 54.0107 79.0964 54.0107 79.0959 54.0107C79.0955 54.0107 79.095 54.0107 79.0945 54.0107C79.0941 54.0107 79.0936 54.0107 79.0931 54.0107C79.0927 54.0107 79.0922 54.0107 79.0917 54.0107C79.0913 54.0107 79.0908 54.0107 79.0903 54.0107C79.0899 54.0107 79.0894 54.0107 79.0889 54.0107C79.0885 54.0107 79.088 54.0107 79.0875 54.0107C79.0871 54.0107 79.0866 54.0107 79.0861 54.0107C79.0857 54.0107 79.0852 54.0107 79.0847 54.0107C79.0843 54.0107 79.0838 54.0107 79.0833 54.0107C79.0829 54.0107 79.0824 54.0107 79.0819 54.0107C79.0814 54.0107 79.081 54.0107 79.0805 54.0107C79.08 54.0107 79.0796 54.0107 79.0791 54.0107C79.0786 54.0107 79.0782 54.0107 79.0777 54.0107C79.0772 54.0107 79.0768 54.0107 79.0763 54.0107C79.0758 54.0107 79.0754 54.0107 79.0749 54.0107C79.0744 54.0107 79.074 54.0107 79.0735 54.0107C79.073 54.0107 79.0726 54.0107 79.0721 54.0107C79.0716 54.0107 79.0712 54.0107 79.0707 54.0107C79.0702 54.0107 79.0698 54.0107 79.0693 54.0107C79.0688 54.0107 79.0684 54.0107 79.0679 54.0107C79.0674 54.0107 79.067 54.0107 79.0665 54.0107C79.066 54.0107 79.0656 54.0107 79.0651 54.0107C79.0646 54.0107 79.0642 54.0107 79.0637 54.0107C79.0632 54.0107 79.0628 54.0107 79.0623 54.0107C79.0618 54.0107 79.0614 54.0107 79.0609 54.0107C79.0604 54.0107 79.06 54.0107 79.0595 54.0107C79.059 54.0107 79.0585 54.0107 79.0581 54.0107C79.0576 54.0107 79.0571 54.0107 79.0567 54.0107C79.0562 54.0107 79.0557 54.0107 79.0553 54.0107C79.0548 54.0107 79.0543 54.0107 79.0539 54.0107C79.0534 54.0107 79.0529 54.0107 79.0525 54.0107C79.052 54.0107 79.0515 54.0107 79.0511 54.0107C79.0506 54.0107 79.0501 54.0107 79.0497 54.0107C79.0492 54.0107 79.0487 54.0107 79.0483 54.0107C79.0478 54.0107 79.0473 54.0107 79.0468 54.0107C79.0464 54.0107 79.0459 54.0107 79.0454 54.0107C79.045 54.0107 79.0445 54.0107 79.044 54.0107C79.0436 54.0107 79.0431 54.0107 79.0426 54.0107C79.0422 54.0107 79.0417 54.0107 79.0412 54.0107C79.0408 54.0107 79.0403 54.0107 79.0398 54.0107C79.0394 54.0107 79.0389 54.0107 79.0384 54.0107C79.0379 54.0107 79.0375 54.0107 79.037 54.0107C79.0365 54.0107 79.0361 54.0107 79.0356 54.0107C79.0351 54.0107 79.0347 54.0107 79.0342 54.0107C79.0337 54.0107 79.0333 54.0107 79.0328 54.0107C79.0323 54.0107 79.0319 54.0107 79.0314 54.0107C79.0309 54.0107 79.0304 54.0107 79.03 54.0107C79.0295 54.0107 79.029 54.0107 79.0286 54.0107C79.0281 54.0107 79.0276 54.0107 79.0272 54.0107C79.0267 54.0107 79.0262 54.0107 79.0258 54.0107C79.0253 54.0107 79.0248 54.0107 79.0244 54.0107C79.0239 54.0107 79.0234 54.0107 79.0229 54.0107C79.0225 54.0107 79.022 54.0107 79.0215 54.0107C79.0211 54.0107 79.0206 54.0107 79.0201 54.0107C79.0197 54.0107 79.0192 54.0107 79.0187 54.0107C79.0183 54.0107 79.0178 54.0107 79.0173 54.0107C79.0168 54.0107 79.0164 54.0107 79.0159 54.0107C79.0154 54.0107 79.015 54.0107 79.0145 54.0107C79.014 54.0107 79.0136 54.0107 79.0131 54.0107C79.0126 54.0107 79.0122 54.0107 79.0117 54.0107C79.0112 54.0107 79.0107 54.0107 79.0103 54.0107C79.0098 54.0107 79.0093 54.0107 79.0089 54.0107C79.0084 54.0107 79.0079 54.0107 79.0075 54.0107C79.007 54.0107 79.0065 54.0107 79.006 54.0107C79.0056 54.0107 79.0051 54.0107 79.0046 54.0107C79.0042 54.0107 79.0037 54.0107 79.0032 54.0107C79.0028 54.0107 79.0023 54.0107 79.0018 54.0107C79.0013 54.0107 79.0009 54.0107 79.0004 54.0107C78.9999 54.0107 78.9995 54.0107 78.999 54.0107C78.9985 54.0107 78.9981 54.0107 78.9976 54.0107C78.9971 54.0107 78.9966 54.0107 78.9962 54.0107C78.9957 54.0107 78.9952 54.0107 78.9948 54.0107C78.9943 54.0107 78.9938 54.0107 78.9934 54.0107C78.9929 54.0107 78.9924 54.0107 78.9919 54.0107C78.9915 54.0107 78.991 54.0107 78.9905 54.0107C78.9901 54.0107 78.9896 54.0107 78.9891 54.0107C78.9887 54.0107 78.9882 54.0107 78.9877 54.0107C78.9872 54.0107 78.9868 54.0107 78.9863 54.0107C78.9858 54.0107 78.9854 54.0107 78.9849 54.0107C78.9844 54.0107 78.984 54.0107 78.9835 54.0107C78.983 54.0107 78.9825 54.0107 78.9821 54.0107C78.9816 54.0107 78.9811 54.0107 78.9807 54.0107C78.9802 54.0107 78.9797 54.0107 78.9792 54.0107C78.9788 54.0107 78.9783 54.0107 78.9778 54.0107C78.9774 54.0107 78.9769 54.0107 78.9764 54.0107C78.976 54.0107 78.9755 54.0107 78.975 54.0107C78.9745 54.0107 78.9741 54.0107 78.9736 54.0107C78.9731 54.0107 78.9727 54.0107 78.9722 54.0107C78.9717 54.0107 78.9712 54.0107 78.9708 54.0107C78.9703 54.0107 78.9698 54.0107 78.9694 54.0107C78.9689 54.0107 78.9684 54.0107 78.9679 54.0107C78.9675 54.0107 78.967 54.0107 78.9665 54.0107C78.9661 54.0107 78.9656 54.0107 78.9651 54.0107C78.9646 54.0107 78.9642 54.0107 78.9637 54.0107C78.9632 54.0107 78.9628 54.0107 78.9623 54.0107C78.9618 54.0107 78.9614 54.0107 78.9609 54.0107C78.9604 54.0107 78.9599 54.0107 78.9595 54.0107C78.959 54.0107 78.9585 54.0107 78.9581 54.0107C78.9576 54.0107 78.9571 54.0107 78.9566 54.0107C78.9562 54.0107 78.9557 54.0107 78.9552 54.0107C78.9548 54.0107 78.9543 54.0107 78.9538 54.0107C78.9533 54.0107 78.9529 54.0107 78.9524 54.0107C78.9519 54.0107 78.9514 54.0107 78.951 54.0107C78.9505 54.0107 78.95 54.0107 78.9496 54.0107C78.9491 54.0107 78.9486 54.0107 78.9481 54.0107C78.9477 54.0107 78.9472 54.0107 78.9467 54.0107C78.9463 54.0107 78.9458 54.0107 78.9453 54.0107C78.9448 54.0107 78.9444 54.0107 78.9439 54.0107C78.9434 54.0107 78.943 54.0107 78.9425 54.0107C78.942 54.0107 78.9415 54.0107 78.9411 54.0107C78.9406 54.0107 78.9401 54.0107 78.9397 54.0107C78.9392 54.0107 78.9387 54.0107 78.9382 54.0107C78.9378 54.0107 78.9373 54.0107 78.9368 54.0107C78.9363 54.0107 78.9359 54.0107 78.9354 54.0107C78.9349 54.0107 78.9345 54.0107 78.934 54.0107C78.9335 54.0107 78.933 54.0107 78.9326 54.0107C78.9321 54.0107 78.9316 54.0107 78.9312 54.0107C78.9307 54.0107 78.9302 54.0107 78.9297 54.0107C78.9293 54.0107 78.9288 54.0107 78.9283 54.0107C78.9278 54.0107 78.9274 54.0107 78.9269 54.0107C78.9264 54.0107 78.926 54.0107 78.9255 54.0107C78.925 54.0107 78.9245 54.0107 78.9241 54.0107C78.9236 54.0107 78.9231 54.0107 78.9226 54.0107C78.9222 54.0107 78.9217 54.0107 78.9212 54.0107C78.9208 54.0107 78.9203 54.0107 78.9198 54.0107C78.9193 54.0107 78.9189 54.0107 78.9184 54.0107C78.9179 54.0107 78.9174 54.0107 78.917 54.0107C78.9165 54.0107 78.916 54.0107 78.9156 54.0107C78.9151 54.0107 78.9146 54.0107 78.9141 54.0107C78.9137 54.0107 78.9132 54.0107 78.9127 54.0107C78.9122 54.0107 78.9118 54.0107 78.9113 54.0107C78.9108 54.0107 78.9104 54.0107 78.9099 54.0107C78.9094 54.0107 78.9089 54.0107 78.9085 54.0107C78.908 54.0107 78.9075 54.0107 78.907 54.0107C78.9066 54.0107 78.9061 54.0107 78.9056 54.0107C78.9051 54.0107 78.9047 54.0107 78.9042 54.0107C78.9037 54.0107 78.9033 54.0107 78.9028 54.0107C78.9023 54.0107 78.9018 54.0107 78.9014 54.0107C78.9009 54.0107 78.9004 54.0107 78.8999 54.0107C78.8995 54.0107 78.899 54.0107 78.8985 54.0107C78.898 54.0107 78.8976 54.0107 78.8971 54.0107C78.8966 54.0107 78.8962 54.0107 78.8957 54.0107C78.8952 54.0107 78.8947 54.0107 78.8943 54.0107C78.8938 54.0107 78.8933 54.0107 78.8928 54.0107C78.8924 54.0107 78.8919 54.0107 78.8914 54.0107C78.8909 54.0107 78.8905 54.0107 78.89 54.0107C78.8895 54.0107 78.889 54.0107 78.8886 54.0107C78.8881 54.0107 78.8876 54.0107 78.8872 54.0107C78.8867 54.0107 78.8862 54.0107 78.8857 54.0107C78.8853 54.0107 78.8848 54.0107 78.8843 54.0107C78.8838 54.0107 78.8834 54.0107 78.8829 54.0107C78.8824 54.0107 78.8819 54.0107 78.8815 54.0107C78.881 54.0107 78.8805 54.0107 78.88 54.0107C78.8796 54.0107 78.8791 54.0107 78.8786 54.0107C78.8781 54.0107 78.8777 54.0107 78.8772 54.0107C78.8767 54.0107 78.8762 54.0107 78.8758 54.0107C78.8753 54.0107 78.8748 54.0107 78.8744 54.0107C78.8739 54.0107 78.8734 54.0107 78.8729 54.0107C78.8725 54.0107 78.872 54.0107 78.8715 54.0107C78.871 54.0107 78.8706 54.0107 78.8701 54.0107C78.8696 54.0107 78.8691 54.0107 78.8687 54.0107C78.8682 54.0107 78.8677 54.0107 78.8672 54.0107C78.8668 54.0107 78.8663 54.0107 78.8658 54.0107C78.8653 54.0107 78.8649 54.0107 78.8644 54.0107C78.8639 54.0107 78.8634 54.0107 78.863 54.0107C78.8625 54.0107 78.862 54.0107 78.8615 54.0107C78.8611 54.0107 78.8606 54.0107 78.8601 54.0107C78.8596 54.0107 78.8592 54.0107 78.8587 54.0107C78.8582 54.0107 78.8577 54.0107 78.8573 54.0107C78.8568 54.0107 78.8563 54.0107 78.8558 54.0107C78.8554 54.0107 78.8549 54.0107 78.8544 54.0107C78.8539 54.0107 78.8535 54.0107 78.853 54.0107C78.8525 54.0107 78.852 54.0107 78.8516 54.0107C78.8511 54.0107 78.8506 54.0107 78.8501 54.0107C78.8497 54.0107 78.8492 54.0107 78.8487 54.0107C78.8482 54.0107 78.8478 54.0107 78.8473 54.0107C78.8468 54.0107 78.8463 54.0107 78.8459 54.0107C78.8454 54.0107 78.8449 54.0107 78.8444 54.0107C78.844 54.0107 78.8435 54.0107 78.843 54.0107C78.8425 54.0107 78.8421 54.0107 78.8416 54.0107C78.8411 54.0107 78.8406 54.0107 78.8402 54.0107C78.8397 54.0107 78.8392 54.0107 78.8387 54.0107C78.8383 54.0107 78.8378 54.0107 78.8373 54.0107C78.8368 54.0107 78.8363 54.0107 78.8359 54.0107C78.8354 54.0107 78.8349 54.0107 78.8344 54.0107C78.834 54.0107 78.8335 54.0107 78.833 54.0107C78.8325 54.0107 78.8321 54.0107 78.8316 54.0107C78.8311 54.0107 78.8306 54.0107 78.8302 54.0107C78.8297 54.0107 78.8292 54.0107 78.8287 54.0107C78.8283 54.0107 78.8278 54.0107 78.8273 54.0107C78.8268 54.0107 78.8264 54.0107 78.8259 54.0107C78.8254 54.0107 78.8249 54.0107 78.8245 54.0107C78.824 54.0107 78.8235 54.0107 78.823 54.0107C78.8225 54.0107 78.8221 54.0107 78.8216 54.0107C78.8211 54.0107 78.8206 54.0107 78.8202 54.0107C78.8197 54.0107 78.8192 54.0107 78.8187 54.0107C78.8183 54.0107 78.8178 54.0107 78.8173 54.0107C78.8168 54.0107 78.8164 54.0107 78.8159 54.0107C78.8154 54.0107 78.8149 54.0107 78.8144 54.0107C78.814 54.0107 78.8135 54.0107 78.813 54.0107C78.8125 54.0107 78.8121 54.0107 78.8116 54.0107C78.8111 54.0107 78.8106 54.0107 78.8102 54.0107C78.8097 54.0107 78.8092 54.0107 78.8087 54.0107C78.8083 54.0107 78.8078 54.0107 78.8073 54.0107C78.8068 54.0107 78.8063 54.0107 78.8059 54.0107C78.8054 54.0107 78.8049 54.0107 78.8044 54.0107C78.804 54.0107 78.8035 54.0107 78.803 54.0107C78.8025 54.0107 78.8021 54.0107 78.8016 54.0107C78.8011 54.0107 78.8006 54.0107 78.8001 54.0107C78.7997 54.0107 78.7992 54.0107 78.7987 54.0107C78.7982 54.0107 78.7978 54.0107 78.7973 54.0107C78.7968 54.0107 78.7963 54.0107 78.7959 54.0107C78.7954 54.0107 78.7949 54.0107 78.7944 54.0107C78.7939 54.0107 78.7935 54.0107 78.793 54.0107C78.7925 54.0107 78.792 54.0107 78.7916 54.0107C78.7911 54.0107 78.7906 54.0107 78.7901 54.0107C78.7897 54.0107 78.7892 54.0107 78.7887 54.0107C78.7882 54.0107 78.7877 54.0107 78.7873 54.0107C78.7868 54.0107 78.7863 54.0107 78.7858 54.0107C78.7854 54.0107 78.7849 54.0107 78.7844 54.0107C78.7839 54.0107 78.7834 54.0107 78.783 54.0107C78.7825 54.0107 78.782 54.0107 78.7815 54.0107C78.7811 54.0107 78.7806 54.0107 78.7801 54.0107C78.7796 54.0107 78.7791 54.0107 78.7787 54.0107C78.7782 54.0107 78.7777 54.0107 78.7772 54.0107C78.7768 54.0107 78.7763 54.0107 78.7758 54.0107C78.7753 54.0107 78.7748 54.0107 78.7744 54.0107C78.7739 54.0107 78.7734 54.0107 78.7729 54.0107C78.7725 54.0107 78.772 54.0107 78.7715 54.0107C78.771 54.0107 78.7705 54.0107 78.7701 54.0107C78.7696 54.0107 78.7691 54.0107 78.7686 54.0107C78.7682 54.0107 78.7677 54.0107 78.7672 54.0107C78.7667 54.0107 78.7662 54.0107 78.7658 54.0107C78.7653 54.0107 78.7648 54.0107 78.7643 54.0107C78.7638 54.0107 78.7634 54.0107 78.7629 54.0107C78.7624 54.0107 78.7619 54.0107 78.7615 54.0107C78.761 54.0107 78.7605 54.0107 78.76 54.0107C78.7595 54.0107 78.7591 54.0107 78.7586 54.0107C78.7581 54.0107 78.7576 54.0107 78.7572 54.0107C78.7567 54.0107 78.7562 54.0107 78.7557 54.0107C78.7552 54.0107 78.7548 54.0107 78.7543 54.0107C78.7538 54.0107 78.7533 54.0107 78.7528 54.0107C78.7524 54.0107 78.7519 54.0107 78.7514 54.0107C78.7509 54.0107 78.7505 54.0107 78.75 54.0107C78.7495 54.0107 78.749 54.0107 78.7485 54.0107C78.7481 54.0107 78.7476 54.0107 78.7471 54.0107C78.7466 54.0107 78.7461 54.0107 78.7457 54.0107C78.7452 54.0107 78.7447 54.0107 78.7442 54.0107C78.7437 54.0107 78.7433 54.0107 78.7428 54.0107C78.7423 54.0107 78.7418 54.0107 78.7414 54.0107C78.7409 54.0107 78.7404 54.0107 78.7399 54.0107C78.7394 54.0107 78.739 54.0107 78.7385 54.0107C78.738 54.0107 78.7375 54.0107 78.737 54.0107C78.7366 54.0107 78.7361 54.0107 78.7356 54.0107C78.7351 54.0107 78.7346 54.0107 78.7342 54.0107C78.7337 54.0107 78.7332 54.0107 78.7327 54.0107C78.7322 54.0107 78.7318 54.0107 78.7313 54.0107C78.7308 54.0107 78.7303 54.0107 78.7299 54.0107C78.7294 54.0107 78.7289 54.0107 78.7284 54.0107C78.7279 54.0107 78.7275 54.0107 78.727 54.0107C78.7265 54.0107 78.726 54.0107 78.7255 54.0107C78.7251 54.0107 78.7246 54.0107 78.7241 54.0107C78.7236 54.0107 78.7231 54.0107 78.7227 54.0107C78.7222 54.0107 78.7217 54.0107 78.7212 54.0107C78.7207 54.0107 78.7203 54.0107 78.7198 54.0107C78.7193 54.0107 78.7188 54.0107 78.7183 54.0107C78.7179 54.0107 78.7174 54.0107 78.7169 54.0107C78.7164 54.0107 78.7159 54.0107 78.7155 54.0107C78.715 54.0107 78.7145 54.0107 78.714 54.0107C78.7135 54.0107 78.7131 54.0107 78.7126 54.0107C78.7121 54.0107 78.7116 54.0107 78.7111 54.0107C78.7107 54.0107 78.7102 54.0107 78.7097 54.0107C78.7092 54.0107 78.7087 54.0107 78.7083 54.0107C78.7078 54.0107 78.7073 54.0107 78.7068 54.0107C78.7063 54.0107 78.7059 54.0107 78.7054 54.0107C78.7049 54.0107 78.7044 54.0107 78.7039 54.0107C78.7035 54.0107 78.703 54.0107 78.7025 54.0107C78.702 54.0107 78.7015 54.0107 78.7011 54.0107C78.7006 54.0107 78.7001 54.0107 78.6996 54.0107C78.6991 54.0107 78.6987 54.0107 78.6982 54.0107C78.6977 54.0107 78.6972 54.0107 78.6967 54.0107C78.6963 54.0107 78.6958 54.0107 78.6953 54.0107C78.6948 54.0107 78.6943 54.0107 78.6938 54.0107C78.6934 54.0107 78.6929 54.0107 78.6924 54.0107C78.6919 54.0107 78.6914 54.0107 78.691 54.0107C78.6905 54.0107 78.69 54.0107 78.6895 54.0107C78.689 54.0107 78.6886 54.0107 78.6881 54.0107C78.6876 54.0107 78.6871 54.0107 78.6866 54.0107C78.6862 54.0107 78.6857 54.0107 78.6852 54.0107C78.6847 54.0107 78.6842 54.0107 78.6837 54.0107C78.6833 54.0107 78.6828 54.0107 78.6823 54.0107C78.6818 54.0107 78.6813 54.0107 78.6809 54.0107C78.6804 54.0107 78.6799 54.0107 78.6794 54.0107C78.6789 54.0107 78.6785 54.0107 78.678 54.0107C78.6775 54.0107 78.677 54.0107 78.6765 54.0107C78.6761 54.0107 78.6756 54.0107 78.6751 54.0107C78.6746 54.0107 78.6741 54.0107 78.6736 54.0107C78.6732 54.0107 78.6727 54.0107 78.6722 54.0107C78.6717 54.0107 78.6712 54.0107 78.6708 54.0107C78.6703 54.0107 78.6698 54.0107 78.6693 54.0107C78.6688 54.0107 78.6683 54.0107 78.6679 54.0107C78.6674 54.0107 78.6669 54.0107 78.6664 54.0107C78.6659 54.0107 78.6655 54.0107 78.665 54.0107C78.6645 54.0107 78.664 54.0107 78.6635 54.0107C78.663 54.0107 78.6626 54.0107 78.6621 54.0107C78.6616 54.0107 78.6611 54.0107 78.6606 54.0107C78.6602 54.0107 78.6597 54.0107 78.6592 54.0107C78.6587 54.0107 78.6582 54.0107 78.6577 54.0107C78.6573 54.0107 78.6568 54.0107 78.6563 54.0107C78.6558 54.0107 78.6553 54.0107 78.6549 54.0107C78.6544 54.0107 78.6539 54.0107 78.6534 54.0107C78.6529 54.0107 78.6524 54.0107 78.652 54.0107C78.6515 54.0107 78.651 54.0107 78.6505 54.0107C78.65 54.0107 78.6496 54.0107 78.6491 54.0107C78.6486 54.0107 78.6481 54.0107 78.6476 54.0107C78.6471 54.0107 78.6467 54.0107 78.6462 54.0107C78.6457 54.0107 78.6452 54.0107 78.6447 54.0107C78.6442 54.0107 78.6438 54.0107 78.6433 54.0107C78.6428 54.0107 78.6423 54.0107 78.6418 54.0107C78.6414 54.0107 78.6409 54.0107 78.6404 54.0107C78.6399 54.0107 78.6394 54.0107 78.6389 54.0107C78.6385 54.0107 78.638 54.0107 78.6375 54.0107C78.637 54.0107 78.6365 54.0107 78.636 54.0107C78.6356 54.0107 78.6351 54.0107 78.6346 54.0107C78.6341 54.0107 78.6336 54.0107 78.6331 54.0107C78.6327 54.0107 78.6322 54.0107 78.6317 54.0107C78.6312 54.0107 78.6307 54.0107 78.6303 54.0107C78.6298 54.0107 78.6293 54.0107 78.6288 54.0107C78.6283 54.0107 78.6278 54.0107 78.6274 54.0107C78.6269 54.0107 78.6264 54.0107 78.6259 54.0107C78.6254 54.0107 78.6249 54.0107 78.6245 54.0107C78.624 54.0107 78.6235 54.0107 78.623 54.0107C78.6225 54.0107 78.622 54.0107 78.6216 54.0107C78.6211 54.0107 78.6206 54.0107 78.6201 54.0107C78.6196 54.0107 78.6191 54.0107 78.6187 54.0107C78.6182 54.0107 78.6177 54.0107 78.6172 54.0107C78.6167 54.0107 78.6162 54.0107 78.6158 54.0107C78.6153 54.0107 78.6148 54.0107 78.6143 54.0107C78.6138 54.0107 78.6133 54.0107 78.6129 54.0107C78.6124 54.0107 78.6119 54.0107 78.6114 54.0107C78.6109 54.0107 78.6104 54.0107 78.61 54.0107C78.6095 54.0107 78.609 54.0107 78.6085 54.0107C78.608 54.0107 78.6075 54.0107 78.6071 54.0107C78.6066 54.0107 78.6061 54.0107 78.6056 54.0107C78.6051 54.0107 78.6046 54.0107 78.6041 54.0107C78.6037 54.0107 78.6032 54.0107 78.6027 54.0107C78.6022 54.0107 78.6017 54.0107 78.6012 54.0107C78.6008 54.0107 78.6003 54.0107 78.5998 54.0107C78.5993 54.0107 78.5988 54.0107 78.5983 54.0107C78.5979 54.0107 78.5974 54.0107 78.5969 54.0107C78.5964 54.0107 78.5959 54.0107 78.5954 54.0107C78.595 54.0107 78.5945 54.0107 78.594 54.0107C78.5935 54.0107 78.593 54.0107 78.5925 54.0107C78.592 54.0107 78.5916 54.0107 78.5911 54.0107C78.5906 54.0107 78.5901 54.0107 78.5896 54.0107C78.5891 54.0107 78.5887 54.0107 78.5882 54.0107C78.5877 54.0107 78.5872 54.0107 78.5867 54.0107C78.5862 54.0107 78.5858 54.0107 78.5853 54.0107C78.5848 54.0107 78.5843 54.0107 78.5838 54.0107C78.5833 54.0107 78.5828 54.0107 78.5824 54.0107C78.5819 54.0107 78.5814 54.0107 78.5809 54.0107C78.5804 54.0107 78.5799 54.0107 78.5795 54.0107C78.579 54.0107 78.5785 54.0107 78.578 54.0107C78.5775 54.0107 78.577 54.0107 78.5765 54.0107C78.5761 54.0107 78.5756 54.0107 78.5751 54.0107C78.5746 54.0107 78.5741 54.0107 78.5736 54.0107C78.5732 54.0107 78.5727 54.0107 78.5722 54.0107C78.5717 54.0107 78.5712 54.0107 78.5707 54.0107C78.5702 54.0107 78.5698 54.0107 78.5693 54.0107C78.5688 54.0107 78.5683 54.0107 78.5678 54.0107C78.5673 54.0107 78.5668 54.0107 78.5664 54.0107C78.5659 54.0107 78.5654 54.0107 78.5649 54.0107C78.5644 54.0107 78.5639 54.0107 78.5635 54.0107C78.563 54.0107 78.5625 54.0107 78.562 54.0107C78.5615 54.0107 78.561 54.0107 78.5605 54.0107C78.5601 54.0107 78.5596 54.0107 78.5591 54.0107C78.5586 54.0107 78.5581 54.0107 78.5576 54.0107C78.5571 54.0107 78.5567 54.0107 78.5562 54.0107C78.5557 54.0107 78.5552 54.0107 78.5547 54.0107C78.5542 54.0107 78.5537 54.0107 78.5533 54.0107C78.5528 54.0107 78.5523 54.0107 78.5518 54.0107C78.5513 54.0107 78.5508 54.0107 78.5503 54.0107C78.5499 54.0107 78.5494 54.0107 78.5489 54.0107C78.5484 54.0107 78.5479 54.0107 78.5474 54.0107C78.5469 54.0107 78.5465 54.0107 78.546 54.0107C78.5455 54.0107 78.545 54.0107 78.5445 54.0107C78.544 54.0107 78.5435 54.0107 78.5431 54.0107C78.5426 54.0107 78.5421 54.0107 78.5416 54.0107C78.5411 54.0107 78.5406 54.0107 78.5401 54.0107C78.5397 54.0107 78.5392 54.0107 78.5387 54.0107C78.5382 54.0107 78.5377 54.0107 78.5372 54.0107C78.5367 54.0107 78.5363 54.0107 78.5358 54.0107C78.5353 54.0107 78.5348 54.0107 78.5343 54.0107C78.5338 54.0107 78.5333 54.0107 78.5328 54.0107C78.5324 54.0107 78.5319 54.0107 78.5314 54.0107C78.5309 54.0107 78.5304 54.0107 78.5299 54.0107C78.5294 54.0107 78.529 54.0107 78.5285 54.0107C78.528 54.0107 78.5275 54.0107 78.527 54.0107C78.5265 54.0107 78.526 54.0107 78.5256 54.0107C78.5251 54.0107 78.5246 54.0107 78.5241 54.0107C78.5236 54.0107 78.5231 54.0107 78.5226 54.0107C78.5221 54.0107 78.5217 54.0107 78.5212 54.0107C78.5207 54.0107 78.5202 54.0107 78.5197 54.0107C78.5192 54.0107 78.5187 54.0107 78.5183 54.0107C78.5178 54.0107 78.5173 54.0107 78.5168 54.0107C78.5163 54.0107 78.5158 54.0107 78.5153 54.0107C78.5148 54.0107 78.5144 54.0107 78.5139 54.0107C78.5134 54.0107 78.5129 54.0107 78.5124 54.0107C78.5119 54.0107 78.5114 54.0107 78.511 54.0107C78.5105 54.0107 78.51 54.0107 78.5095 54.0107C78.509 54.0107 78.5085 54.0107 78.508 54.0107C78.5075 54.0107 78.5071 54.0107 78.5066 54.0107C78.5061 54.0107 78.5056 54.0107 78.5051 54.0107C78.5046 54.0107 78.5041 54.0107 78.5036 54.0107C78.5032 54.0107 78.5027 54.0107 78.5022 54.0107C78.5017 54.0107 78.5012 54.0107 78.5007 54.0107C78.5002 54.0107 78.4997 54.0107 78.4993 54.0107C78.4988 54.0107 78.4983 54.0107 78.4978 54.0107C78.4973 54.0107 78.4968 54.0107 78.4963 54.0107C78.4958 54.0107 78.4954 54.0107 78.4949 54.0107C78.4944 54.0107 78.4939 54.0107 78.4934 54.0107C78.4929 54.0107 78.4924 54.0107 78.4919 54.0107C78.4915 54.0107 78.491 54.0107 78.4905 54.0107C78.49 54.0107 78.4895 54.0107 78.489 54.0107C78.4885 54.0107 78.488 54.0107 78.4876 54.0107C78.4871 54.0107 78.4866 54.0107 78.4861 54.0107C78.4856 54.0107 78.4851 54.0107 78.4846 54.0107C78.4841 54.0107 78.4837 54.0107 78.4832 54.0107C78.4827 54.0107 78.4822 54.0107 78.4817 54.0107C78.4812 54.0107 78.4807 54.0107 78.4802 54.0107C78.4797 54.0107 78.4793 54.0107 78.4788 54.0107C78.4783 54.0107 78.4778 54.0107 78.4773 54.0107C78.4768 54.0107 78.4763 54.0107 78.4758 54.0107C78.4754 54.0107 78.4749 54.0107 78.4744 54.0107C78.4739 54.0107 78.4734 54.0107 78.4729 54.0107C78.4724 54.0107 78.4719 54.0107 78.4714 54.0107C78.471 54.0107 78.4705 54.0107 78.47 54.0107C78.4695 54.0107 78.469 54.0107 78.4685 54.0107C78.468 54.0107 78.4675 54.0107 78.4671 54.0107V56.0107ZM79.1357 56.0088C79.4532 56.0285 79.7715 56.0285 80.089 56.0088L79.9651 54.0126C79.7302 54.0272 79.4946 54.0272 79.2596 54.0126L79.1357 56.0088Z" fill="white" mask="url(#path-27-inside-12_553_10495)"/>
<mask id="path-29-inside-13_553_10495" fill="white">
<path d="M78.4671 54.9773L76.5977 63.966C75.7567 63.8842 74.9229 63.7396 74.103 63.5332L75.9724 54.5446C76.7915 54.7543 77.6257 54.8989 78.4671 54.9773Z"/>
</mask>
<path d="M78.4671 54.9773L76.5977 63.966C75.7567 63.8842 74.9229 63.7396 74.103 63.5332L75.9724 54.5446C76.7915 54.7543 77.6257 54.8989 78.4671 54.9773Z" fill="#2AABEE"/>
<path d="M76.5977 63.966L76.5009 64.9613L77.394 65.0481L77.5768 64.1696L76.5977 63.966ZM74.103 63.5332L73.124 63.3296L72.9286 64.2688L73.8589 64.503L74.103 63.5332ZM75.9724 54.5446L76.2204 53.5758L75.2064 53.3162L74.9933 54.3409L75.9724 54.5446ZM77.4881 54.7737L75.6187 63.7624L77.5768 64.1696L79.4462 55.1809L77.4881 54.7737ZM76.6945 62.9707C75.9032 62.8937 75.1186 62.7576 74.3471 62.5635L73.8589 64.503C74.7272 64.7215 75.6103 64.8747 76.5009 64.9613L76.6945 62.9707ZM75.0821 63.7368L76.9514 54.7482L74.9933 54.3409L73.124 63.3296L75.0821 63.7368ZM75.7244 55.5133C76.5945 55.7361 77.4805 55.8897 78.3743 55.973L78.5599 53.9816C77.7708 53.9081 76.9886 53.7725 76.2204 53.5758L75.7244 55.5133Z" fill="white" mask="url(#path-29-inside-13_553_10495)"/>
<mask id="path-31-inside-14_553_10495" fill="white">
<path d="M75.9724 54.5446L74.1031 63.5332C72.2516 63.0532 70.442 62.4207 68.6924 61.6423L70.5618 52.6603C72.3127 53.4334 74.1221 54.0635 75.9724 54.5446Z"/>
</mask>
<path d="M75.9724 54.5446L74.1031 63.5332C72.2516 63.0532 70.442 62.4207 68.6924 61.6423L70.5618 52.6603C72.3127 53.4334 74.1221 54.0635 75.9724 54.5446Z" fill="#2AABEE"/>
<path d="M74.1031 63.5332L73.8521 64.5012L74.8683 64.7647L75.0821 63.7369L74.1031 63.5332ZM68.6924 61.6423L67.7134 61.4385L67.549 62.2281L68.2859 62.5559L68.6924 61.6423ZM70.5618 52.6603L70.9657 51.7455L69.8347 51.2461L69.5828 52.4565L70.5618 52.6603ZM74.9934 54.341L73.124 63.3296L75.0821 63.7369L76.9515 54.7482L74.9934 54.341ZM74.354 62.5653C72.5559 62.099 70.7983 61.4848 69.0989 60.7286L68.2859 62.5559C70.0856 63.3567 71.9473 64.0073 73.8521 64.5012L74.354 62.5653ZM69.6714 61.846L71.5408 52.864L69.5828 52.4565L67.7134 61.4385L69.6714 61.846ZM70.1579 53.5751C71.958 54.3699 73.8183 55.0178 75.7208 55.5124L76.224 53.5768C74.4258 53.1093 72.6675 52.4969 70.9657 51.7455L70.1579 53.5751Z" fill="white" mask="url(#path-31-inside-14_553_10495)"/>
<path d="M69.0283 52.5C69.2954 52.6316 69.6202 52.7859 69.9901 52.953L68.3289 60.9345C67.9399 60.7577 67.6141 60.5998 67.3696 60.4758L69.0283 52.5Z" fill="#2AABEE" stroke="white"/>
<path d="M81.3625 0.500013H81.3632C82.3733 0.500013 83.3807 0.683758 84.1363 1.19086C84.8622 1.67807 85.4172 2.50441 85.4712 3.94707L85.471 3.94707L85.4718 3.96008C85.5454 5.11939 85.4668 7.76706 85.3248 11.2881C85.2716 12.6062 85.2097 14.0434 85.1443 15.5635C85.0359 18.0817 84.9177 20.8272 84.813 23.6351C84.813 23.6361 84.813 23.6372 84.8129 23.6382L83.431 50.3373L83.4303 50.3502V50.3632C83.4303 50.3692 83.4305 50.378 83.4306 50.3894C83.4334 50.5705 83.4462 51.4072 83.0894 52.2857C82.7217 53.1913 81.9632 54.1434 80.3098 54.4315C79.9529 54.4928 79.591 54.5194 79.2292 54.5108L79.2292 54.5107H79.2174C77.4032 54.5107 75.1166 53.8792 73.1108 53.1477C71.114 52.4195 69.4593 51.6163 68.9308 51.319L68.9309 51.3188L68.9196 51.3129C68.702 51.1976 67.7197 50.7374 66.2533 50.0504C64.3413 49.1546 61.6062 47.8732 58.6701 46.4682C53.4557 43.9729 47.5856 41.0779 44.3958 39.187C43.5486 38.6818 42.7179 37.9828 42.4337 37.2144C42.3003 36.8536 42.2853 36.4735 42.4567 36.0586C42.6336 35.6305 43.0253 35.1274 43.7784 34.5729L43.7785 34.573L43.7877 34.5659C50.9802 29.0093 59.5305 22.1063 64.6722 17.7254L64.6757 17.7224C65.4829 17.0215 66.2701 16.0134 66.5847 15.1297C66.7377 14.6999 66.821 14.1799 66.5842 13.7386C66.3255 13.2564 65.8031 13.0688 65.2085 13.0629H65.2036C64.5606 13.0629 63.6889 13.2625 62.5487 13.6956C61.3998 14.1319 59.9428 14.8192 58.1173 15.8279C58.1169 15.8281 58.1166 15.8283 58.1162 15.8286L29.0452 31.7232C28.9375 31.7765 27.5059 32.4566 24.4385 32.4318C22.6398 32.4052 20.849 32.1863 19.0958 31.779L19.0944 31.7786C12.9063 30.36 6.09276 28.6165 4.36354 28.174C4.1971 28.1314 4.07776 28.1009 4.01062 28.0838C3.88818 28.0268 3.56985 27.8723 3.23881 27.6417C2.83837 27.3628 2.51457 27.0373 2.40969 26.7166C2.3629 26.5735 2.35807 26.4275 2.4177 26.2636C2.48039 26.0912 2.62649 25.8671 2.938 25.6021C3.57056 25.0641 4.79023 24.4377 6.96285 23.7827L6.96287 23.7828L6.97086 23.7802L56.6739 7.88023L56.6739 7.8803L56.6821 7.87754C59.1224 7.05027 64.2914 5.38721 68.9599 3.89273C70.4154 3.4268 71.8236 2.97684 73.0849 2.5738C75.8142 1.70169 77.856 1.04928 78.2017 0.930185C79.2313 0.643124 80.2945 0.498426 81.3625 0.500013Z" fill="#2AABEE" stroke="white"/>
</svg>
