<svg width="92" height="14" viewBox="0 0 92 14" fill="none" xmlns="http://www.w3.org/2000/svg">
<path d="M91.0247 6.03001C90.8889 6.03001 90.7531 6.05472 90.6297 6.11651L85.8889 1.37158C85.9383 1.24801 85.9753 1.12445 85.9753 0.976173C85.9753 0.43248 85.5309 0 85 0C84.4691 0 84.0247 0.444836 84.0247 0.976173C84.0247 1.11209 84.0494 1.24801 84.1111 1.37158L79.3704 6.10415C79.2469 6.05472 79.1235 6.01766 78.9753 6.01766C78.4321 6.01766 78 6.46249 78 6.99382C78 7.52516 78.4444 7.96999 78.9753 7.96999C79.1111 7.96999 79.2469 7.94528 79.3704 7.88349L84.1111 12.6284C84.0617 12.752 84.0247 12.8755 84.0247 13.0238C84.0247 13.5675 84.4691 14 85 14C85.5309 14 85.9753 13.5551 85.9753 13.0238C85.9753 12.8879 85.9506 12.752 85.8889 12.6284L90.6297 7.88349C90.7531 7.93292 90.8765 7.96999 91.0247 7.96999C91.5679 7.96999 92 7.52516 92 6.99382C92 6.46249 91.5679 6.03001 91.0247 6.03001ZM90.1111 6.6602L88.2716 7.10503C88.1111 6.89497 87.8642 6.74669 87.5802 6.74669C87.3704 6.74669 87.1852 6.82083 87.037 6.9444L85.8395 6.38835C85.8395 6.37599 85.8395 6.37599 85.8395 6.36364C85.8395 6.01766 85.642 5.73345 85.3457 5.59753V1.89055C85.358 1.89055 85.3704 1.8782 85.3827 1.8782L90.1234 6.62313C90.1234 6.62313 90.1111 6.64784 90.1111 6.6602ZM85 12.06C84.9753 12.06 84.9506 12.06 84.9259 12.06L83.0741 8.14298C83.1975 7.9947 83.2716 7.80936 83.2716 7.59929L84.4815 7.03089C84.6296 7.1421 84.8148 7.21624 85 7.21624C85.1975 7.21624 85.3827 7.1421 85.5309 7.03089L86.7407 7.59929C86.7407 7.59929 86.7407 7.59929 86.7407 7.61165C86.7407 7.82171 86.8148 8.00706 86.9383 8.15534L85.0617 12.06C85.0494 12.06 85.0247 12.06 85 12.06ZM84.642 1.89055V5.59753C84.358 5.73345 84.1481 6.03001 84.1481 6.36364C84.1481 6.37599 84.1481 6.38835 84.1481 6.38835L82.9506 6.9444C82.8025 6.82083 82.6173 6.74669 82.4074 6.74669C82.1235 6.74669 81.8765 6.88262 81.716 7.10503L79.8889 6.6602C79.8889 6.64784 79.8765 6.63548 79.8765 6.61077L84.6173 1.86584C84.6173 1.8782 84.6296 1.8782 84.642 1.89055ZM79.8765 7.38923L81.5926 7.80936C81.6914 8.18005 82.0123 8.45186 82.4198 8.45186H82.4321L83.7901 11.3186L79.8765 7.38923ZM87.5679 8.45186H87.5802C87.9753 8.45186 88.3086 8.18005 88.4074 7.80936L90.1234 7.38923C90.1234 7.38923 90.1234 7.38923 90.1234 7.40158L86.2099 11.3186L87.5679 8.45186Z" fill="#6F7380"/>
<path d="M0.776875 4.02H2.94688C3.85354 4.02 4.52688 4.32 4.96688 4.92C5.41354 5.52 5.63688 6.38333 5.63688 7.51C5.63688 8.64333 5.41354 9.51 4.96688 10.11C4.52688 10.7033 3.85354 11 2.94688 11H0.776875V4.02ZM2.85688 9.95C3.33688 9.95 3.69021 9.79333 3.91688 9.48C4.15021 9.16667 4.26688 8.71 4.26688 8.11V6.9C4.26688 6.30667 4.15021 5.85333 3.91688 5.54C3.69021 5.22667 3.33688 5.07 2.85688 5.07H2.06688V9.95H2.85688ZM6.87297 11V4.02H11.283V5.1H8.18297V6.92H11.173V8H8.18297V9.92H11.283V11H6.87297ZM13.9691 4.02V8.37C13.9691 8.63 13.9757 8.86333 13.9891 9.07C14.0091 9.27667 14.0524 9.45333 14.1191 9.6C14.1924 9.74 14.2991 9.85 14.4391 9.93C14.5857 10.01 14.7857 10.05 15.0391 10.05C15.2924 10.05 15.4891 10.01 15.6291 9.93C15.7757 9.85 15.8824 9.74 15.9491 9.6C16.0224 9.45333 16.0657 9.27667 16.0791 9.07C16.0991 8.86333 16.1091 8.63 16.1091 8.37V4.02H17.4191V8.17C17.4191 8.66333 17.3891 9.09333 17.3291 9.46C17.2691 9.82667 17.1524 10.1333 16.9791 10.38C16.8057 10.6267 16.5624 10.8133 16.2491 10.94C15.9424 11.06 15.5391 11.12 15.0391 11.12C14.5391 11.12 14.1324 11.06 13.8191 10.94C13.5124 10.8133 13.2724 10.6267 13.0991 10.38C12.9257 10.1333 12.8091 9.82667 12.7491 9.46C12.6891 9.09333 12.6591 8.66333 12.6591 8.17V4.02H13.9691ZM20.9552 11.12C20.3552 11.12 19.8418 11.0167 19.4152 10.81C18.9952 10.6033 18.6518 10.33 18.3852 9.99L19.1752 9.17C19.4352 9.47 19.7152 9.69333 20.0152 9.84C20.3218 9.98 20.6485 10.05 20.9952 10.05C21.3952 10.05 21.7018 9.96 21.9152 9.78C22.1285 9.6 22.2352 9.34 22.2352 9C22.2352 8.72 22.1552 8.51 21.9952 8.37C21.8352 8.22333 21.5652 8.12 21.1852 8.06L20.4452 7.94C19.7985 7.82667 19.3385 7.59333 19.0652 7.24C18.7918 6.88 18.6552 6.45667 18.6552 5.97C18.6552 5.30333 18.8718 4.79333 19.3052 4.44C19.7385 4.08 20.3385 3.9 21.1052 3.9C21.6518 3.9 22.1218 3.98667 22.5152 4.16C22.9152 4.33333 23.2352 4.57 23.4752 4.87L22.7052 5.69C22.5185 5.47 22.2952 5.29667 22.0352 5.17C21.7752 5.03667 21.4685 4.97 21.1152 4.97C20.3552 4.97 19.9752 5.28333 19.9752 5.91C19.9752 6.17667 20.0552 6.38 20.2152 6.52C20.3752 6.66 20.6485 6.76333 21.0352 6.83L21.7652 6.96C22.3718 7.07333 22.8218 7.29667 23.1152 7.63C23.4085 7.96333 23.5552 8.39 23.5552 8.91C23.5552 9.23667 23.4985 9.53667 23.3852 9.81C23.2718 10.0767 23.1052 10.31 22.8852 10.51C22.6652 10.7033 22.3918 10.8533 22.0652 10.96C21.7452 11.0667 21.3752 11.12 20.9552 11.12ZM30.8573 11V4.02H35.4173V5.1H32.1673V6.92H35.0973V8H32.1673V11H30.8573ZM36.8034 11V10.02H38.3734V5H36.8034V4.02H41.2434V5H39.6734V10.02H41.2434V11H36.8034ZM43.9095 5.99H43.8095V11H42.6895V4.02H44.2995L46.1295 9.03H46.2295V4.02H47.3495V11H45.7395L43.9095 5.99ZM52.5056 11L52.0156 9.23H49.9456L49.4656 11H48.1456L50.1056 4.02H51.9256L53.8956 11H52.5056ZM51.0256 5.31H50.9456L50.1756 8.16H51.7956L51.0256 5.31ZM55.9017 5.99H55.8017V11H54.6817V4.02H56.2917L58.1217 9.03H58.2217V4.02H59.3417V11H57.7317L55.9017 5.99ZM63.1878 11.12C62.2745 11.12 61.5978 10.8067 61.1578 10.18C60.7245 9.55333 60.5078 8.66333 60.5078 7.51C60.5078 6.36333 60.7245 5.47667 61.1578 4.85C61.5978 4.21667 62.2745 3.9 63.1878 3.9C63.5345 3.9 63.8378 3.94667 64.0978 4.04C64.3645 4.13333 64.5945 4.26333 64.7878 4.43C64.9811 4.59 65.1411 4.78667 65.2678 5.02C65.3945 5.24667 65.4945 5.49667 65.5678 5.77L64.3678 6.11C64.3211 5.95 64.2678 5.8 64.2078 5.66C64.1478 5.52 64.0711 5.4 63.9778 5.3C63.8911 5.19333 63.7811 5.11333 63.6478 5.06C63.5145 5 63.3545 4.97 63.1678 4.97C62.7145 4.97 62.3878 5.14333 62.1878 5.49C61.9945 5.83667 61.8978 6.31 61.8978 6.91V8.11C61.8978 8.71 61.9945 9.18333 62.1878 9.53C62.3878 9.87667 62.7145 10.05 63.1678 10.05C63.3545 10.05 63.5145 10.0233 63.6478 9.97C63.7811 9.91 63.8911 9.83 63.9778 9.73C64.0711 9.62333 64.1478 9.5 64.2078 9.36C64.2678 9.22 64.3211 9.07 64.3678 8.91L65.5678 9.25C65.4945 9.52333 65.3945 9.77667 65.2678 10.01C65.1411 10.2367 64.9811 10.4333 64.7878 10.6C64.5945 10.76 64.3645 10.8867 64.0978 10.98C63.8378 11.0733 63.5345 11.12 63.1878 11.12ZM66.8339 11V4.02H71.2439V5.1H68.1439V6.92H71.1339V8H68.1439V9.92H71.2439V11H66.8339Z" fill="#6F7380"/>
</svg>
