<svg width="52" height="40" viewBox="0 0 52 40" fill="none" xmlns="http://www.w3.org/2000/svg">
<path d="M51.8745 26.513V30.7197C51.8082 31.4298 51.7662 32.1439 51.6634 32.8484C51.6271 33.1033 51.5019 33.3367 51.3103 33.5064C47.7674 36.135 43.8419 38.1906 39.6744 39.5997C38.4946 40.0005 38.4702 40.0101 37.7924 38.9444C37.0672 37.8021 36.3893 36.6283 35.656 35.4107C36.48 35.0468 37.2092 34.7486 37.9169 34.4039C38.6245 34.0591 39.3253 33.6597 40.0478 33.2752C39.2874 32.3655 39.1522 32.3354 38.2484 32.728C30.0207 36.2589 21.7945 36.2124 13.5723 32.713C12.7294 32.3532 12.4452 32.4284 11.793 33.3217L16.2038 35.4805C15.2825 36.9416 14.3949 38.3657 13.4776 39.7707C13.4126 39.8705 13.1177 39.8938 12.9621 39.8445C8.49318 38.4354 4.28676 36.2857 0.514418 33.4832C0.357836 33.3673 0.250544 33.1957 0.214088 33.003C-0.198807 28.8027 -0.0138097 24.5642 0.763416 20.4171C1.91212 14.332 4.32991 8.78877 7.70701 3.64085C7.84962 3.4363 8.04276 3.27309 8.26717 3.1675C11.4495 1.70925 14.7971 0.652482 18.2347 0.0210126C18.5053 -0.0309728 18.6758 0.0210173 18.8016 0.282312C19.121 0.96633 19.4984 1.61068 19.7799 2.30153C19.953 2.72426 20.175 2.77351 20.5849 2.72973C22.0096 2.57651 23.4411 2.36172 24.8672 2.37814C27.0387 2.4055 29.2089 2.59702 31.3792 2.74067C31.7215 2.76393 31.9204 2.72288 32.0665 2.36035C32.3587 1.65444 32.7294 0.982753 33.0542 0.289159C33.1759 0.0278641 33.3356 -0.0336975 33.617 0.0155518C37.0377 0.639071 40.3694 1.68572 43.5372 3.13192C43.7946 3.24648 44.0146 3.43242 44.1718 3.6682C45.0824 5.16346 46.0254 6.6423 46.8413 8.19092C49.3837 12.9631 50.9916 18.1864 51.5768 23.5745C51.6918 24.5513 51.7784 25.5321 51.8745 26.513ZM39.2333 21.8152C39.2225 21.5322 39.1972 21.25 39.1575 20.9697C39.0996 20.6169 39.0127 20.2696 38.8978 19.9314C37.745 16.6604 33.9864 15.6139 31.5916 17.8903C29.378 19.9916 29.3686 23.8645 31.5713 25.9754C33.3599 27.6868 35.974 27.6512 37.699 25.8783C38.7571 24.7879 39.213 23.4486 39.2333 21.8152ZM22.1259 21.8754C21.9108 21.0778 21.7958 20.2337 21.4657 19.4895C20.0599 16.3253 16.2404 15.7042 14.0242 18.2392C12.1597 20.3692 12.2653 23.87 14.2488 25.8837C16.0185 27.6786 18.6799 27.6868 20.4455 25.8919C21.5225 24.7934 21.9798 23.4377 22.1259 21.8754Z" fill="#4A61FC"/>
</svg>
