<svg width="61" height="48" viewBox="0 0 61 48" fill="none" xmlns="http://www.w3.org/2000/svg">
<mask id="path-1-inside-1_1133_18717" fill="white">
<path d="M31.3774 0.102875L29.251 4.87319C29.2501 4.87813 29.2501 4.88317 29.251 4.88811L31.3719 0.115924V0.102875"/>
</mask>
<path d="M31.3774 0.102875L29.251 4.87319C29.2501 4.87813 29.2501 4.88317 29.251 4.88811L31.3719 0.115924V0.102875" fill="#5865F2"/>
<path d="M29.251 4.87319L28.7579 4.79005L28.7685 4.72753L28.7943 4.66961L29.251 4.87319ZM29.251 4.88811L29.7079 5.09118L29.0339 6.60771L28.7579 4.97125L29.251 4.88811ZM31.3719 0.115924H31.8719V0.222028L31.8288 0.318988L31.3719 0.115924ZM31.8341 0.30645L29.7076 5.07677L28.7943 4.66961L30.9208 -0.100701L31.8341 0.30645ZM29.744 4.95633C29.7525 4.90623 29.7525 4.85507 29.744 4.80497L28.7579 4.97125C28.7478 4.91128 28.7478 4.85003 28.7579 4.79005L29.744 4.95633ZM28.7941 4.68505L30.915 -0.087139L31.8288 0.318988L29.7079 5.09118L28.7941 4.68505ZM30.8719 0.115924V0.102875H31.8719V0.115924H30.8719Z" fill="black" mask="url(#path-1-inside-1_1133_18717)"/>
<mask id="path-3-inside-2_1133_18717" fill="white">
<path d="M31.372 0.115967L29.2473 4.88815C28.9692 5.85615 28.753 6.84093 28.5999 7.8365L30.7264 3.06432C30.8813 2.06862 31.0994 1.08383 31.3794 0.115967"/>
</mask>
<path d="M31.372 0.115967L29.2473 4.88815C28.9692 5.85615 28.753 6.84093 28.5999 7.8365L30.7264 3.06432C30.8813 2.06862 31.0994 1.08383 31.3794 0.115967" fill="#5865F2"/>
<path d="M29.2473 4.88815L28.7668 4.75009L28.7764 4.71661L28.7906 4.68479L29.2473 4.88815ZM28.5999 7.8365L29.0566 8.04001L28.1057 7.76051L28.5999 7.8365ZM30.7264 3.06432L31.2204 3.14118L31.2102 3.20699L31.1831 3.26783L30.7264 3.06432ZM31.8287 0.319328L29.7041 5.09152L28.7906 4.68479L30.9152 -0.0873943L31.8287 0.319328ZM29.7279 5.02622C29.4557 5.97382 29.244 6.93787 29.0941 7.91249L28.1057 7.76051C28.262 6.74398 28.4828 5.73847 28.7668 4.75009L29.7279 5.02622ZM28.1432 7.63299L30.2697 2.86081L31.1831 3.26783L29.0566 8.04001L28.1432 7.63299ZM30.2323 2.98746C30.3905 1.97079 30.6132 0.965267 30.8991 -0.0229824L31.8597 0.254916C31.5856 1.20239 31.3721 2.16644 31.2204 3.14118L30.2323 2.98746Z" fill="black" mask="url(#path-3-inside-2_1133_18717)"/>
<mask id="path-5-inside-3_1133_18717" fill="white">
<path d="M34.2351 19.4229L32.1105 24.2044C32.4021 23.5419 32.8676 22.9712 33.4574 22.5531C34.0471 22.135 34.739 21.8852 35.4593 21.8304C35.9054 21.7874 36.3553 21.8044 36.797 21.8807L38.9253 17.1011C38.4843 17.0241 38.0351 17.0066 37.5895 17.0489C36.8695 17.1045 36.1779 17.3546 35.5883 17.7726C34.9986 18.1906 34.533 18.7609 34.2407 19.4229"/>
</mask>
<path d="M34.2351 19.4229L32.1105 24.2044C32.4021 23.5419 32.8676 22.9712 33.4574 22.5531C34.0471 22.135 34.739 21.8852 35.4593 21.8304C35.9054 21.7874 36.3553 21.8044 36.797 21.8807L38.9253 17.1011C38.4843 17.0241 38.0351 17.0066 37.5895 17.0489C36.8695 17.1045 36.1779 17.3546 35.5883 17.7726C34.9986 18.1906 34.533 18.7609 34.2407 19.4229" fill="#5865F2"/>
<path d="M32.1105 24.2044L32.5674 24.4074L31.6529 24.0029L32.1105 24.2044ZM35.4593 21.8304L35.5072 22.3282L35.4973 22.329L35.4593 21.8304ZM36.797 21.8807L37.2537 22.0841L37.0954 22.4398L36.7118 22.3734L36.797 21.8807ZM38.9253 17.1011L39.0113 16.6086L39.6429 16.7188L39.3821 17.3045L38.9253 17.1011ZM37.5895 17.0489L37.6368 17.5467L37.628 17.5474L37.5895 17.0489ZM34.6921 19.6259L32.5674 24.4074L31.6536 24.0013L33.7782 19.2198L34.6921 19.6259ZM31.6529 24.0029C31.9809 23.2578 32.5045 22.6157 33.1682 22.1452L33.7465 22.961C33.2307 23.3267 32.8233 23.826 32.5682 24.4058L31.6529 24.0029ZM33.1682 22.1452C33.8319 21.6747 34.6106 21.3936 35.4213 21.3318L35.4973 22.329C34.8675 22.3769 34.2624 22.5953 33.7465 22.961L33.1682 22.1452ZM35.4114 21.3327C35.9019 21.2855 36.3965 21.3041 36.8821 21.3881L36.7118 22.3734C36.3141 22.3047 35.909 22.2894 35.5072 22.3281L35.4114 21.3327ZM36.3402 21.6773L38.4685 16.8977L39.3821 17.3045L37.2537 22.0841L36.3402 21.6773ZM38.8393 17.5937C38.4423 17.5243 38.0379 17.5085 37.6368 17.5466L37.5422 16.5511C38.0323 16.5046 38.5263 16.5239 39.0113 16.6086L38.8393 17.5937ZM37.628 17.5474C36.9983 17.5961 36.3933 17.8148 35.8774 18.1805L35.2991 17.3647C35.9625 16.8944 36.7407 16.613 37.551 16.5504L37.628 17.5474ZM35.8774 18.1805C35.3615 18.5462 34.954 19.0453 34.6981 19.6248L33.7833 19.2209C34.112 18.4765 34.6357 17.835 35.2991 17.3647L35.8774 18.1805Z" fill="black" mask="url(#path-5-inside-3_1133_18717)"/>
<mask id="path-7-inside-4_1133_18717" fill="white">
<path d="M38.9252 17.1011L36.8005 21.8714C37.0274 21.9111 37.2517 21.9647 37.4722 22.0318L39.5986 17.2596C39.3776 17.1929 39.1527 17.14 38.9252 17.1011Z"/>
</mask>
<path d="M38.9252 17.1011L36.8005 21.8714C37.0274 21.9111 37.2517 21.9647 37.4722 22.0318L39.5986 17.2596C39.3776 17.1929 39.1527 17.14 38.9252 17.1011Z" fill="#5865F2"/>
<path d="M36.8005 21.8714L36.7143 22.3639L36.0831 22.2533L36.3438 21.668L36.8005 21.8714ZM37.4722 22.0318L37.9289 22.2353L37.7491 22.6387L37.3266 22.5101L37.4722 22.0318ZM39.5986 17.2596L39.743 16.7809L40.2863 16.9448L40.0553 17.4631L39.5986 17.2596ZM39.3819 17.3045L37.2573 22.0748L36.3438 21.668L38.4684 16.8976L39.3819 17.3045ZM36.8868 21.3789C37.1338 21.4222 37.3778 21.4804 37.6177 21.5534L37.3266 22.5101C37.1256 22.449 36.9211 22.4001 36.7143 22.3639L36.8868 21.3789ZM37.0154 21.8283L39.1419 17.0561L40.0553 17.4631L37.9289 22.2353L37.0154 21.8283ZM39.4543 17.7383C39.2529 17.6776 39.0481 17.6294 38.8409 17.5939L39.0094 16.6082C39.2573 16.6506 39.5023 16.7083 39.743 16.7809L39.4543 17.7383Z" fill="black" mask="url(#path-7-inside-4_1133_18717)"/>
<mask id="path-9-inside-5_1133_18717" fill="white">
<path d="M39.599 17.2596L37.4725 22.0318C37.6586 22.0896 37.8446 22.1586 38.0307 22.2351L40.1553 17.4629C39.9692 17.3865 39.7832 17.3175 39.5971 17.2596"/>
</mask>
<path d="M39.599 17.2596L37.4725 22.0318C37.6586 22.0896 37.8446 22.1586 38.0307 22.2351L40.1553 17.4629C39.9692 17.3865 39.7832 17.3175 39.5971 17.2596" fill="#5865F2"/>
<path d="M37.4725 22.0318L37.3242 22.5093L36.7868 22.3423L37.0158 21.8283L37.4725 22.0318ZM38.0307 22.2351L38.4874 22.4385L38.2899 22.8822L37.8406 22.6976L38.0307 22.2351ZM40.1553 17.4629L40.3453 17.0004L40.8214 17.1961L40.612 17.6663L40.1553 17.4629ZM40.0557 17.4632L37.9292 22.2353L37.0158 21.8283L39.1423 17.0561L40.0557 17.4632ZM37.6209 21.5543C37.8241 21.6175 38.0244 21.6919 38.2207 21.7726L37.8406 22.6976C37.6649 22.6253 37.493 22.5618 37.3242 22.5093L37.6209 21.5543ZM37.5739 22.0317L39.6985 17.2596L40.612 17.6663L38.4874 22.4385L37.5739 22.0317ZM39.9652 17.9254C39.7895 17.8532 39.6176 17.7896 39.4488 17.7371L39.7455 16.7822C39.9488 16.8453 40.149 16.9197 40.3453 17.0004L39.9652 17.9254Z" fill="black" mask="url(#path-9-inside-5_1133_18717)"/>
<mask id="path-11-inside-6_1133_18717" fill="white">
<path d="M40.1624 17.4629L38.0378 22.2351C38.2145 22.3097 38.3894 22.3917 38.5606 22.4831L40.6926 17.7109C40.5215 17.6195 40.3466 17.5375 40.1698 17.4629"/>
</mask>
<path d="M40.1624 17.4629L38.0378 22.2351C38.2145 22.3097 38.3894 22.3917 38.5606 22.4831L40.6926 17.7109C40.5215 17.6195 40.3466 17.5375 40.1698 17.4629" fill="#5865F2"/>
<path d="M38.0378 22.2351L37.8434 22.6957L37.3736 22.4975L37.581 22.0317L38.0378 22.2351ZM38.5606 22.4831L39.0171 22.6871L38.7983 23.1768L38.3251 22.9242L38.5606 22.4831ZM40.6926 17.7109L40.9281 17.2698L41.3393 17.4893L41.1491 17.9149L40.6926 17.7109ZM40.6192 17.6663L38.4946 22.4384L37.581 22.0317L39.7056 17.2595L40.6192 17.6663ZM38.2322 21.7744C38.4211 21.8541 38.6098 21.9426 38.7961 22.042L38.3251 22.9242C38.169 22.8408 38.008 22.7652 37.8434 22.6957L38.2322 21.7744ZM38.1041 22.2791L40.2361 17.507L41.1491 17.9149L39.0171 22.6871L38.1041 22.2791ZM40.4571 18.152C40.3011 18.0687 40.1401 17.993 39.9754 17.9235L40.3643 17.0022C40.5531 17.0819 40.7419 17.1704 40.9281 17.2698L40.4571 18.152Z" fill="black" mask="url(#path-11-inside-6_1133_18717)"/>
<path d="M40.884 18.1057C40.8595 18.0909 40.8349 18.0763 40.8102 18.0619L38.8904 22.374C38.9147 22.3878 38.939 22.4018 38.9633 22.416L40.884 18.1057Z" fill="#5865F2" stroke="black" stroke-width="0.5"/>
<mask id="path-14-inside-7_1133_18717" fill="white">
<path d="M41.1931 18.0093L39.0666 22.7815C39.244 22.8969 39.4154 23.0214 39.5801 23.1544L41.7065 18.3822C41.5391 18.2505 41.3679 18.1261 41.1931 18.0093Z"/>
</mask>
<path d="M41.1931 18.0093L39.0666 22.7815C39.244 22.8969 39.4154 23.0214 39.5801 23.1544L41.7065 18.3822C41.5391 18.2505 41.3679 18.1261 41.1931 18.0093Z" fill="#5865F2"/>
<path d="M39.0666 22.7815L38.794 23.2006L38.4361 22.9679L38.6099 22.5779L39.0666 22.7815ZM39.5801 23.1544L40.0368 23.3579L39.7719 23.9524L39.2658 23.5433L39.5801 23.1544ZM41.7065 18.3822L42.0158 17.9893L42.3217 18.2301L42.1633 18.5858L41.7065 18.3822ZM41.6498 18.2128L39.5233 22.985L38.6099 22.5779L40.7364 17.8058L41.6498 18.2128ZM39.3392 22.3623C39.531 22.4871 39.7163 22.6217 39.8944 22.7656L39.2658 23.5433C39.1145 23.421 38.957 23.3066 38.794 23.2006L39.3392 22.3623ZM39.1234 22.9509L41.2498 18.1787L42.1633 18.5858L40.0368 23.3579L39.1234 22.9509ZM41.3973 18.7752C41.2399 18.6513 41.0792 18.5346 40.9153 18.425L41.4709 17.5936C41.6567 17.7177 41.8383 17.8497 42.0158 17.9893L41.3973 18.7752Z" fill="black" mask="url(#path-14-inside-7_1133_18717)"/>
<path d="M41.9362 18.9031C41.8915 18.8621 41.8462 18.8216 41.8004 18.7818L39.883 23.0772C39.9298 23.1161 39.976 23.1556 40.0218 23.1957L41.9362 18.9031Z" fill="#5865F2" stroke="black" stroke-width="0.5"/>
<mask id="path-17-inside-8_1133_18717" fill="white">
<path d="M42.2368 18.8429L40.1122 23.6151C40.3185 23.8136 40.5124 24.0247 40.6926 24.2473L42.8191 19.4751C42.6372 19.2534 42.4428 19.0423 42.2368 18.8429Z"/>
</mask>
<path d="M42.2368 18.8429L40.1122 23.6151C40.3185 23.8136 40.5124 24.0247 40.6926 24.2473L42.8191 19.4751C42.6372 19.2534 42.4428 19.0423 42.2368 18.8429Z" fill="#5865F2"/>
<path d="M40.1122 23.6151L39.7655 23.9754L39.5127 23.7322L39.6554 23.4117L40.1122 23.6151ZM40.6926 24.2473L41.1493 24.4508L40.8174 25.1957L40.3041 24.562L40.6926 24.2473ZM42.8191 19.4751L43.2056 19.158L43.4015 19.3966L43.2758 19.6786L42.8191 19.4751ZM42.6936 19.0463L40.5689 23.8184L39.6554 23.4117L41.78 18.6395L42.6936 19.0463ZM40.4588 23.2548C40.68 23.4676 40.8879 23.6939 41.0812 23.9326L40.3041 24.562C40.1368 24.3555 39.957 24.1596 39.7655 23.9754L40.4588 23.2548ZM40.2359 24.0438L42.3624 19.2716L43.2758 19.6786L41.1493 24.4508L40.2359 24.0438ZM42.4325 19.7922C42.2628 19.5853 42.0813 19.3883 41.889 19.2022L42.5845 18.4836C42.8043 18.6963 43.0116 18.9215 43.2056 19.158L42.4325 19.7922Z" fill="black" mask="url(#path-17-inside-8_1133_18717)"/>
<mask id="path-19-inside-9_1133_18717" fill="white">
<path d="M42.819 19.4751L40.6926 24.2473C40.9621 24.5774 41.2012 24.9313 41.407 25.3047L43.5334 20.5343C43.3274 20.1605 43.0883 19.806 42.819 19.4751Z"/>
</mask>
<path d="M42.819 19.4751L40.6926 24.2473C40.9621 24.5774 41.2012 24.9313 41.407 25.3047L43.5334 20.5343C43.3274 20.1605 43.0883 19.806 42.819 19.4751Z" fill="#5865F2"/>
<path d="M40.6926 24.2473L40.3052 24.5635L40.1105 24.325L40.2359 24.0438L40.6926 24.2473ZM41.407 25.3047L41.8637 25.5082L41.4544 26.4264L40.9691 25.546L41.407 25.3047ZM43.5334 20.5343L43.9714 20.293L44.0914 20.5108L43.9901 20.7379L43.5334 20.5343ZM43.2758 19.6786L41.1493 24.4508L40.2359 24.0438L42.3623 19.2716L43.2758 19.6786ZM41.0799 23.9311C41.3685 24.2846 41.6245 24.6635 41.8448 25.0633L40.9691 25.546C40.7778 25.1991 40.5556 24.8702 40.3052 24.5635L41.0799 23.9311ZM40.9503 25.1011L43.0768 20.3308L43.9901 20.7379L41.8637 25.5082L40.9503 25.1011ZM43.0955 20.7757C42.904 20.428 42.6816 20.0984 42.4312 19.7907L43.2069 19.1595C43.4951 19.5136 43.7509 19.893 43.9714 20.293L43.0955 20.7757Z" fill="black" mask="url(#path-19-inside-9_1133_18717)"/>
<mask id="path-21-inside-10_1133_18717" fill="white">
<path d="M43.5335 20.5343L41.407 25.3046C41.6624 25.7651 41.8635 26.2539 42.0061 26.7611C42.1077 27.127 42.1756 27.5016 42.2089 27.88L44.3335 23.1078C44.3019 22.7292 44.2339 22.3545 44.1307 21.9889C43.9879 21.4827 43.7875 20.9946 43.5335 20.5343Z"/>
</mask>
<path d="M43.5335 20.5343L41.407 25.3046C41.6624 25.7651 41.8635 26.2539 42.0061 26.7611C42.1077 27.127 42.1756 27.5016 42.2089 27.88L44.3335 23.1078C44.3019 22.7292 44.2339 22.3545 44.1307 21.9889C43.9879 21.4827 43.7875 20.9946 43.5335 20.5343Z" fill="#5865F2"/>
<path d="M41.407 25.3046L40.9698 25.5471L40.8488 25.3289L40.9503 25.101L41.407 25.3046ZM42.0061 26.7611L42.4874 26.6257L42.4879 26.6273L42.0061 26.7611ZM42.2089 27.88L42.6657 28.0834L41.8802 29.8477L41.7108 27.9238L42.2089 27.88ZM44.3335 23.1078L44.8318 23.0662L44.8424 23.194L44.7903 23.3112L44.3335 23.1078ZM44.1307 21.9889L43.6495 22.1248L43.6495 22.1246L44.1307 21.9889ZM43.9902 20.7379L41.8637 25.5082L40.9503 25.101L43.0768 20.3307L43.9902 20.7379ZM41.8443 25.0621C42.1185 25.5565 42.3343 26.0813 42.4874 26.6257L41.5248 26.8964C41.3926 26.4266 41.2064 25.9738 40.9698 25.5471L41.8443 25.0621ZM42.4879 26.6273C42.5976 27.0227 42.671 27.4274 42.707 27.8361L41.7108 27.9238C41.6802 27.5758 41.6177 27.2314 41.5243 26.8948L42.4879 26.6273ZM41.7521 27.6766L43.8767 22.9044L44.7903 23.3112L42.6657 28.0834L41.7521 27.6766ZM43.8352 23.1495C43.8063 22.8027 43.7441 22.4596 43.6495 22.1248L44.6119 21.853C44.7238 22.2494 44.7974 22.6557 44.8318 23.0662L43.8352 23.1495ZM43.6495 22.1246C43.5171 21.6552 43.3313 21.2027 43.0957 20.7759L43.9713 20.2927C44.2438 20.7865 44.4588 21.3101 44.6119 21.8532L43.6495 22.1246Z" fill="black" mask="url(#path-21-inside-10_1133_18717)"/>
<mask id="path-23-inside-11_1133_18717" fill="white">
<path d="M44.3334 23.1022L42.2088 27.8744C42.2433 28.2627 42.2345 28.6536 42.1828 29.0399L44.3074 24.2678C44.3601 23.8815 44.3688 23.4905 44.3334 23.1022Z"/>
</mask>
<path d="M44.3334 23.1022L42.2088 27.8744C42.2433 28.2627 42.2345 28.6536 42.1828 29.0399L44.3074 24.2678C44.3601 23.8815 44.3688 23.4905 44.3334 23.1022Z" fill="#5865F2"/>
<path d="M42.2088 27.8744L41.7108 27.9186L41.6993 27.7895L41.752 27.671L42.2088 27.8744ZM42.1828 29.0399L42.6395 29.2433L41.6872 28.9735L42.1828 29.0399ZM44.3074 24.2678L44.8028 24.3354L44.7932 24.406L44.7642 24.4711L44.3074 24.2678ZM44.7902 23.3056L42.6656 28.0778L41.752 27.671L43.8767 22.8989L44.7902 23.3056ZM42.7069 27.8302C42.7446 28.2553 42.735 28.6833 42.6783 29.1063L41.6872 28.9735C41.7341 28.6239 41.742 28.27 41.7108 27.9186L42.7069 27.8302ZM41.726 28.8366L43.8506 24.0644L44.7642 24.4711L42.6395 29.2433L41.726 28.8366ZM43.812 24.2002C43.8596 23.8514 43.8675 23.4982 43.8355 23.1476L44.8314 23.0568C44.8702 23.4827 44.8606 23.9117 44.8028 24.3354L43.812 24.2002Z" fill="black" mask="url(#path-23-inside-11_1133_18717)"/>
<mask id="path-25-inside-12_1133_18717" fill="white">
<path d="M44.3074 24.2678L42.1809 29.0399C42.1467 29.2925 42.0926 29.5419 42.019 29.7859L44.1437 25.0156C44.2171 24.7716 44.2713 24.5222 44.3055 24.2696"/>
</mask>
<path d="M44.3074 24.2678L42.1809 29.0399C42.1467 29.2925 42.0926 29.5419 42.019 29.7859L44.1437 25.0156C44.2171 24.7716 44.2713 24.5222 44.3055 24.2696" fill="#5865F2"/>
<path d="M42.1809 29.0399L41.6854 28.9729L41.695 28.9019L41.7242 28.8364L42.1809 29.0399ZM42.019 29.7859L42.4758 29.9893L41.5403 29.6415L42.019 29.7859ZM44.1437 25.0156L44.6224 25.1597L44.6133 25.1901L44.6004 25.219L44.1437 25.0156ZM44.7641 24.4713L42.6376 29.2434L41.7242 28.8364L43.8507 24.0643L44.7641 24.4713ZM42.6764 29.107C42.6387 29.3857 42.5789 29.661 42.4978 29.9302L41.5403 29.6415C41.6063 29.4229 41.6548 29.1993 41.6854 28.9729L42.6764 29.107ZM41.5623 29.5825L43.6869 24.8121L44.6004 25.219L42.4758 29.9893L41.5623 29.5825ZM43.6649 24.8714C43.7308 24.6526 43.7793 24.4289 43.8101 24.2024L44.801 24.3368C44.7632 24.6154 44.7035 24.8906 44.6224 25.1597L43.6649 24.8714Z" fill="black" mask="url(#path-25-inside-12_1133_18717)"/>
<mask id="path-27-inside-13_1133_18717" fill="white">
<path d="M44.1455 25.0156L42.0209 29.7859C41.9692 29.9629 41.9071 30.1366 41.8349 30.3062L43.9595 25.5359C44.0322 25.3665 44.0943 25.1927 44.1455 25.0156Z"/>
</mask>
<path d="M44.1455 25.0156L42.0209 29.7859C41.9692 29.9629 41.9071 30.1366 41.8349 30.3062L43.9595 25.5359C44.0322 25.3665 44.0943 25.1927 44.1455 25.0156Z" fill="#5865F2"/>
<path d="M44.1455 25.0156L43.6888 24.8121L44.6258 25.1544L44.1455 25.0156ZM42.0209 29.7859L41.541 29.6457L41.5504 29.6133L41.5641 29.5825L42.0209 29.7859ZM41.8349 30.3062L42.2916 30.5096L41.3748 30.1103L41.8349 30.3062ZM43.9595 25.5359L44.419 25.7331L44.4162 25.7393L43.9595 25.5359ZM44.6023 25.219L42.4776 29.9893L41.5641 29.5825L43.6888 24.8121L44.6023 25.219ZM42.5008 29.9261C42.4436 30.122 42.3748 30.3143 42.2949 30.5021L41.3748 30.1103C41.4393 29.9588 41.4948 29.8037 41.541 29.6457L42.5008 29.9261ZM41.3781 30.1027L43.5027 25.3324L44.4162 25.7393L42.2916 30.5096L41.3781 30.1027ZM43.5 25.3386C43.5646 25.1883 43.6197 25.034 43.6652 24.8767L44.6258 25.1544C44.5689 25.3514 44.4998 25.5447 44.4189 25.7331L43.5 25.3386Z" fill="black" mask="url(#path-27-inside-13_1133_18717)"/>
<mask id="path-29-inside-14_1133_18717" fill="white">
<path d="M46.9029 32.7529L44.7857 37.5232C44.8769 37.5587 44.9718 37.5922 45.0443 37.6277L47.1689 32.8555C47.0871 32.8219 47.0015 32.7865 46.9103 32.7529"/>
</mask>
<path d="M46.9029 32.7529L44.7857 37.5232C44.8769 37.5587 44.9718 37.5922 45.0443 37.6277L47.1689 32.8555C47.0871 32.8219 47.0015 32.7865 46.9103 32.7529" fill="#5865F2"/>
<path d="M44.7857 37.5232L44.6046 37.9893L44.1161 37.7994L44.3287 37.3204L44.7857 37.5232ZM45.0443 37.6277L45.5011 37.831L45.2904 38.3043L44.8249 38.077L45.0443 37.6277ZM47.1689 32.8555L47.3586 32.3929L47.8352 32.5883L47.6257 33.0589L47.1689 32.8555ZM47.3599 32.9558L45.2427 37.7261L44.3287 37.3204L46.4459 32.5501L47.3599 32.9558ZM44.9669 37.0572C45.0339 37.0833 45.1662 37.1307 45.2637 37.1784L44.8249 38.077C44.7774 38.0538 44.7199 38.0341 44.6046 37.9893L44.9669 37.0572ZM44.5876 37.4243L46.7122 32.6521L47.6257 33.0589L45.5011 37.831L44.5876 37.4243ZM46.9792 33.3181C46.8948 33.2835 46.8184 33.2519 46.7376 33.2221L47.0831 32.2837C47.1846 32.3211 47.2794 32.3604 47.3586 32.3929L46.9792 33.3181Z" fill="black" mask="url(#path-29-inside-14_1133_18717)"/>
<mask id="path-31-inside-15_1133_18717" fill="white">
<path d="M47.1615 32.8555L45.0369 37.6314C45.4295 37.7955 45.7234 37.9521 46.0136 38.1032L48.1345 33.3291C47.8443 33.1781 47.5503 33.0214 47.1578 32.8573"/>
</mask>
<path d="M47.1615 32.8555L45.0369 37.6314C45.4295 37.7955 45.7234 37.9521 46.0136 38.1032L48.1345 33.3291C47.8443 33.1781 47.5503 33.0214 47.1578 32.8573" fill="#5865F2"/>
<path d="M45.0369 37.6314L44.844 38.0927L44.3722 37.8954L44.5801 37.4281L45.0369 37.6314ZM46.0136 38.1032L46.4706 38.3062L46.2546 38.7923L45.7828 38.5467L46.0136 38.1032ZM48.1345 33.3291L48.3654 32.8856L48.7823 33.1026L48.5915 33.5321L48.1345 33.3291ZM47.6183 33.0587L45.4937 37.8346L44.5801 37.4281L46.7047 32.6522L47.6183 33.0587ZM45.2298 37.1701C45.645 37.3437 45.9577 37.5104 46.2445 37.6597L45.7828 38.5467C45.4891 38.3939 45.2139 38.2473 44.844 38.0927L45.2298 37.1701ZM45.5567 37.9002L47.6776 33.1261L48.5915 33.5321L46.4706 38.3062L45.5567 37.9002ZM47.9037 33.7727C47.61 33.6198 47.3348 33.4733 46.9649 33.3186L47.3506 32.396C47.7659 32.5696 48.0786 32.7364 48.3654 32.8856L47.9037 33.7727Z" fill="black" mask="url(#path-31-inside-15_1133_18717)"/>
<mask id="path-33-inside-16_1133_18717" fill="white">
<path d="M48.1345 33.3292L46.0099 38.0995L46.0266 38.1107L48.1587 33.3422L48.1401 33.3329"/>
</mask>
<path d="M48.1345 33.3292L46.0099 38.0995L46.0266 38.1107L48.1587 33.3422L48.1401 33.3329" fill="#5865F2"/>
<path d="M46.0099 38.0995L45.7321 38.5152L45.3816 38.2811L45.5531 37.8961L46.0099 38.0995ZM46.0266 38.1107L46.4831 38.3148L46.2414 38.8554L45.7489 38.5264L46.0266 38.1107ZM48.1587 33.3422L48.3827 32.8952L48.8104 33.1095L48.6151 33.5463L48.1587 33.3422ZM48.5913 33.5326L46.4666 38.3029L45.5531 37.8961L47.6778 33.1257L48.5913 33.5326ZM46.2876 37.6837L46.3044 37.6949L45.7489 38.5264L45.7321 38.5152L46.2876 37.6837ZM45.5702 37.9066L47.7022 33.1381L48.6151 33.5463L46.4831 38.3148L45.5702 37.9066ZM47.9347 33.7892L47.9161 33.7799L48.3641 32.8859L48.3827 32.8952L47.9347 33.7892Z" fill="black" mask="url(#path-33-inside-16_1133_18717)"/>
<mask id="path-35-inside-17_1133_18717" fill="white">
<path d="M48.1585 33.3422L46.0321 38.1144L46.0507 38.1256L48.1753 33.3553L48.1585 33.3422Z"/>
</mask>
<path d="M48.1585 33.3422L46.0321 38.1144L46.0507 38.1256L48.1753 33.3553L48.1585 33.3422Z" fill="#5865F2"/>
<path d="M46.0321 38.1144L45.7743 38.5429L45.3954 38.3149L45.5754 37.9109L46.0321 38.1144ZM46.0507 38.1256L46.5074 38.329L46.2774 38.8455L45.7929 38.5541L46.0507 38.1256ZM48.1753 33.3553L48.4827 32.961L48.7912 33.2015L48.632 33.5587L48.1753 33.3553ZM48.6153 33.5457L46.4888 38.3179L45.5754 37.9109L47.7018 33.1387L48.6153 33.5457ZM46.2898 37.686L46.3084 37.6971L45.7929 38.5541L45.7743 38.5429L46.2898 37.686ZM45.5939 37.9222L47.7185 33.1519L48.632 33.5587L46.5074 38.329L45.5939 37.9222ZM47.8678 33.7496L47.8511 33.7365L48.466 32.9479L48.4827 32.961L47.8678 33.7496Z" fill="black" mask="url(#path-35-inside-17_1133_18717)"/>
<mask id="path-37-inside-18_1133_18717" fill="white">
<path d="M48.1749 33.3515L46.0503 38.1218L46.067 38.1367L48.1917 33.3664L48.1749 33.3515Z"/>
</mask>
<path d="M48.1749 33.3515L46.0503 38.1218L46.067 38.1367L48.1917 33.3664L48.1749 33.3515Z" fill="#5865F2"/>
<path d="M48.1749 33.3515L47.7182 33.1481L47.9966 32.5229L48.5076 32.9782L48.1749 33.3515ZM46.0503 38.1218L45.7177 38.4951L45.4449 38.2521L45.5935 37.9184L46.0503 38.1218ZM46.067 38.1367L46.5238 38.3402L46.2454 38.9653L45.7344 38.5101L46.067 38.1367ZM48.1917 33.3664L48.5243 32.9932L48.797 33.2362L48.6484 33.5699L48.1917 33.3664ZM48.6317 33.5549L46.507 38.3252L45.5935 37.9184L47.7182 33.1481L48.6317 33.5549ZM46.3829 37.7485L46.3996 37.7634L45.7344 38.5101L45.7177 38.4951L46.3829 37.7485ZM45.6103 37.9333L47.7349 33.163L48.6484 33.5699L46.5238 38.3402L45.6103 37.9333ZM47.859 33.7397L47.8422 33.7248L48.5076 32.9782L48.5243 32.9932L47.859 33.7397Z" fill="black" mask="url(#path-37-inside-18_1133_18717)"/>
<mask id="path-39-inside-19_1133_18717" fill="white">
<path d="M48.1921 33.3665L46.0675 38.1368L46.0842 38.1573L48.2107 33.3851L48.1921 33.3665Z"/>
</mask>
<path d="M48.1921 33.3665L46.0675 38.1368L46.0842 38.1573L48.2107 33.3851L48.1921 33.3665Z" fill="#5865F2"/>
<path d="M46.0675 38.1368L45.6801 38.453L45.4855 38.2145L45.6107 37.9333L46.0675 38.1368ZM46.0842 38.1573L46.5409 38.3608L46.2104 39.1025L45.6969 38.4735L46.0842 38.1573ZM48.2107 33.3851L48.5646 33.0319L48.8072 33.275L48.6674 33.5886L48.2107 33.3851ZM48.6488 33.5699L46.5242 38.3402L45.6107 37.9333L47.7353 33.163L48.6488 33.5699ZM46.4548 37.8206L46.4716 37.8411L45.6969 38.4735L45.6801 38.453L46.4548 37.8206ZM45.6275 37.9538L47.754 33.1816L48.6674 33.5886L46.5409 38.3608L45.6275 37.9538ZM47.8568 33.7383L47.8382 33.7196L48.546 33.0133L48.5646 33.0319L47.8568 33.7383Z" fill="black" mask="url(#path-39-inside-19_1133_18717)"/>
<mask id="path-41-inside-20_1133_18717" fill="white">
<path d="M48.2105 33.3851L46.0877 38.1573C46.0958 38.1668 46.1032 38.1768 46.1101 38.1872L48.231 33.4168C48.2252 33.4056 48.2184 33.395 48.2105 33.3851Z"/>
</mask>
<path d="M48.2105 33.3851L46.0877 38.1573C46.0958 38.1668 46.1032 38.1768 46.1101 38.1872L48.231 33.4168C48.2252 33.4056 48.2184 33.395 48.2105 33.3851Z" fill="#5865F2"/>
<path d="M46.0877 38.1573L45.706 38.4803L45.5034 38.2408L45.6309 37.9541L46.0877 38.1573ZM46.1101 38.1872L46.5669 38.3903L46.1955 39.2257L45.6925 38.4622L46.1101 38.1872ZM48.231 33.4168L48.6763 33.1895L48.7847 33.402L48.6878 33.62L48.231 33.4168ZM48.6673 33.5883L46.5446 38.3605L45.6309 37.9541L47.7537 33.1819L48.6673 33.5883ZM46.4694 37.8344C46.4903 37.859 46.5098 37.885 46.5276 37.9121L45.6925 38.4622C45.6967 38.4685 45.7012 38.4746 45.706 38.4803L46.4694 37.8344ZM45.6532 37.984L47.7741 33.2137L48.6878 33.62L46.5669 38.3903L45.6532 37.984ZM47.7856 33.6441C47.7952 33.6628 47.8066 33.6807 47.82 33.6974L48.601 33.0729C48.6301 33.1093 48.6553 33.1484 48.6763 33.1895L47.7856 33.6441Z" fill="black" mask="url(#path-41-inside-20_1133_18717)"/>
<mask id="path-43-inside-21_1133_18717" fill="white">
<path d="M48.2311 33.4168L46.1065 38.1909C46.1191 38.2139 46.1267 38.2393 46.1288 38.2655L48.2534 33.4914C48.2517 33.4652 48.2441 33.4397 48.2311 33.4168Z"/>
</mask>
<path d="M48.2311 33.4168L46.1065 38.1909C46.1191 38.2139 46.1267 38.2393 46.1288 38.2655L48.2534 33.4914C48.2517 33.4652 48.2441 33.4397 48.2311 33.4168Z" fill="#5865F2"/>
<path d="M48.2311 33.4168L47.7743 33.2135L48.1767 32.3093L48.6658 33.1697L48.2311 33.4168ZM46.1065 38.1909L45.6679 38.4309L45.549 38.2137L45.6497 37.9876L46.1065 38.1909ZM46.1288 38.2655L46.5856 38.4687L45.6304 38.3059L46.1288 38.2655ZM48.2534 33.4914L48.7524 33.459L48.7604 33.582L48.7102 33.6947L48.2534 33.4914ZM48.6879 33.6201L46.5633 38.3941L45.6497 37.9876L47.7743 33.2135L48.6879 33.6201ZM46.5451 37.9508C46.5914 38.0355 46.6194 38.1289 46.6272 38.225L45.6304 38.3059C45.634 38.3496 45.6467 38.3923 45.6679 38.4309L46.5451 37.9508ZM45.672 38.0622L47.7966 33.2881L48.7102 33.6947L46.5856 38.4687L45.672 38.0622ZM47.7545 33.5238C47.7577 33.5731 47.772 33.621 47.7964 33.6639L48.6658 33.1697C48.7161 33.2583 48.7458 33.3572 48.7524 33.459L47.7545 33.5238Z" fill="black" mask="url(#path-43-inside-21_1133_18717)"/>
<mask id="path-45-inside-22_1133_18717" fill="white">
<path d="M48.2535 33.4914L46.1289 38.2617V38.2971L48.2535 33.5287C48.2554 33.5176 48.2554 33.5062 48.2535 33.4951"/>
</mask>
<path d="M48.2535 33.4914L46.1289 38.2617V38.2971L48.2535 33.5287C48.2554 33.5176 48.2554 33.5062 48.2535 33.4951" fill="#5865F2"/>
<path d="M46.1289 38.2617H45.6289V38.1554L45.6721 38.0583L46.1289 38.2617ZM46.1289 38.2971L46.5856 38.5006L45.6289 38.2971H46.1289ZM48.2535 33.5287L48.7465 33.6118L48.736 33.6743L48.7102 33.7322L48.2535 33.5287ZM48.7102 33.6948L46.5856 38.4651L45.6721 38.0583L47.7967 33.288L48.7102 33.6948ZM46.6289 38.2617V38.2971H45.6289V38.2617H46.6289ZM45.6721 38.0937L47.7968 33.3252L48.7102 33.7322L46.5856 38.5006L45.6721 38.0937ZM47.7604 33.4456C47.753 33.4895 47.753 33.5343 47.7604 33.5783L48.7465 33.412C48.7577 33.4781 48.7577 33.5457 48.7465 33.6118L47.7604 33.4456Z" fill="black" mask="url(#path-45-inside-22_1133_18717)"/>
<mask id="path-47-inside-23_1133_18717" fill="white">
<path d="M48.2534 33.5287L46.1288 38.3009V38.3233L48.2478 33.5473V33.525"/>
</mask>
<path d="M48.2534 33.5287L46.1288 38.3009V38.3233L48.2478 33.5473V33.525" fill="#5865F2"/>
<path d="M46.1288 38.3009H45.6288V38.1946L45.672 38.0975L46.1288 38.3009ZM46.1288 38.3233L46.5858 38.526L45.6288 38.3233H46.1288ZM48.2478 33.5473H48.7478V33.6533L48.7049 33.7501L48.2478 33.5473ZM48.7102 33.7321L46.5856 38.5042L45.672 38.0975L47.7966 33.3253L48.7102 33.7321ZM46.6288 38.3009V38.3233H45.6288V38.3009H46.6288ZM45.6718 38.1205L47.7908 33.3446L48.7049 33.7501L46.5858 38.526L45.6718 38.1205ZM47.7478 33.5473V33.525H48.7478V33.5473H47.7478Z" fill="black" mask="url(#path-47-inside-23_1133_18717)"/>
<mask id="path-49-inside-24_1133_18717" fill="white">
<path d="M48.2478 33.5474L46.1232 38.3196V38.3363L48.2478 33.5642V33.5474Z"/>
</mask>
<path d="M48.2478 33.5474L46.1232 38.3196V38.3363L48.2478 33.5642V33.5474Z" fill="#5865F2"/>
<path d="M48.2478 33.5474L47.791 33.344L48.7478 33.5474H48.2478ZM46.1232 38.3196H45.6232V38.2133L45.6664 38.1162L46.1232 38.3196ZM46.1232 38.3363L46.58 38.5397L45.6232 38.3363H46.1232ZM48.2478 33.5642H48.7478V33.6704L48.7046 33.7675L48.2478 33.5642ZM48.7046 33.7507L46.58 38.5229L45.6664 38.1162L47.791 33.344L48.7046 33.7507ZM46.6232 38.3196V38.3363H45.6232V38.3196H46.6232ZM45.6664 38.133L47.791 33.3608L48.7046 33.7675L46.58 38.5397L45.6664 38.133ZM47.7478 33.5642V33.5474H48.7478V33.5642H47.7478Z" fill="black" mask="url(#path-49-inside-24_1133_18717)"/>
<mask id="path-51-inside-25_1133_18717" fill="white">
<path d="M15.6605 21.2523L13.5303 26.0245C13.8221 25.362 14.2876 24.7913 14.8773 24.3729C15.4669 23.9546 16.1587 23.7043 16.879 23.6486C17.3246 23.6063 17.7739 23.6239 18.2148 23.7009L20.3413 18.9287C19.9004 18.8517 19.4511 18.8341 19.0055 18.8765C18.2853 18.9323 17.5936 19.1827 17.0039 19.601C16.4143 20.0193 15.9487 20.59 15.6567 21.2523"/>
</mask>
<path d="M15.6605 21.2523L13.5303 26.0245C13.8221 25.362 14.2876 24.7913 14.8773 24.3729C15.4669 23.9546 16.1587 23.7043 16.879 23.6486C17.3246 23.6063 17.7739 23.6239 18.2148 23.7009L20.3413 18.9287C19.9004 18.8517 19.4511 18.8341 19.0055 18.8765C18.2853 18.9323 17.5936 19.1827 17.0039 19.601C16.4143 20.0193 15.9487 20.59 15.6567 21.2523" fill="#5865F2"/>
<path d="M13.5303 26.0245L13.9868 26.2283L13.0727 25.8229L13.5303 26.0245ZM16.879 23.6486L16.9263 24.1465L16.9175 24.1472L16.879 23.6486ZM18.2148 23.7009L18.6715 23.9044L18.5129 24.2605L18.1288 24.1934L18.2148 23.7009ZM20.3413 18.9287L20.4273 18.4361L21.059 18.5464L20.798 19.1322L20.3413 18.9287ZM19.0055 18.8765L19.0528 19.3743L19.0441 19.375L19.0055 18.8765ZM16.117 21.4561L13.9868 26.2283L13.0737 25.8207L15.2039 21.0485L16.117 21.4561ZM13.0727 25.8229C13.4009 25.0779 13.9245 24.4358 14.588 23.9651L15.1666 24.7807C14.6507 25.1467 14.2433 25.6462 13.9878 26.226L13.0727 25.8229ZM14.588 23.9651C15.2514 23.4944 16.0299 23.2127 16.8406 23.1501L16.9175 24.1472C16.2876 24.1958 15.6825 24.4147 15.1666 24.7807L14.588 23.9651ZM16.8318 23.1509C17.3218 23.1043 17.8159 23.1236 18.3008 23.2083L18.1288 24.1934C17.7319 24.1241 17.3275 24.1083 16.9263 24.1464L16.8318 23.1509ZM17.7581 23.4973L19.8846 18.7252L20.798 19.1322L18.6715 23.9044L17.7581 23.4973ZM20.2553 19.4212C19.8584 19.3519 19.4539 19.3361 19.0528 19.3742L18.9582 18.3787C19.4483 18.3322 19.9424 18.3515 20.4273 18.4361L20.2553 19.4212ZM19.0441 19.375C18.4142 19.4238 17.8091 19.6428 17.2932 20.0088L16.7146 19.1932C17.378 18.7225 18.1563 18.4408 18.9669 18.378L19.0441 19.375ZM17.2932 20.0088C16.7773 20.3748 16.3699 20.8742 16.1142 21.454L15.1992 21.0506C15.5276 20.3057 16.0512 19.6638 16.7146 19.1932L17.2932 20.0088Z" fill="black" mask="url(#path-51-inside-25_1133_18717)"/>
<mask id="path-53-inside-26_1133_18717" fill="white">
<path d="M20.3525 18.9286L18.2261 23.7008C18.4538 23.7388 18.6788 23.7918 18.8995 23.8594L21.0242 19.0872C20.8037 19.0207 20.5794 18.9678 20.3525 18.9286Z"/>
</mask>
<path d="M20.3525 18.9286L18.2261 23.7008C18.4538 23.7388 18.6788 23.7918 18.8995 23.8594L21.0242 19.0872C20.8037 19.0207 20.5794 18.9678 20.3525 18.9286Z" fill="#5865F2"/>
<path d="M18.2261 23.7008L18.1437 24.194L17.5063 24.0876L17.7694 23.4973L18.2261 23.7008ZM18.8995 23.8594L19.3563 24.0627L19.1764 24.4669L18.7533 24.3375L18.8995 23.8594ZM21.0242 19.0872L21.1685 18.6084L21.7117 18.7722L21.4809 19.2905L21.0242 19.0872ZM20.8093 19.1322L18.6828 23.9043L17.7694 23.4973L19.8958 18.7251L20.8093 19.1322ZM18.3084 23.2077C18.5577 23.2493 18.8041 23.3073 19.0458 23.3812L18.7533 24.3375C18.5534 24.2763 18.3498 24.2284 18.1437 24.194L18.3084 23.2077ZM18.4428 23.656L20.5674 18.8838L21.4809 19.2905L19.3563 24.0627L18.4428 23.656ZM20.8799 19.5659C20.6789 19.5053 20.4744 19.457 20.2676 19.4214L20.4375 18.4359C20.6844 18.4785 20.9286 18.5361 21.1685 18.6084L20.8799 19.5659Z" fill="black" mask="url(#path-53-inside-26_1133_18717)"/>
<mask id="path-55-inside-27_1133_18717" fill="white">
<path d="M21.0241 19.0872L18.8995 23.8594C19.0856 23.9172 19.2716 23.9862 19.4577 24.0627L21.5823 19.2905C21.3962 19.214 21.2102 19.145 21.0241 19.0872Z"/>
</mask>
<path d="M21.0241 19.0872L18.8995 23.8594C19.0856 23.9172 19.2716 23.9862 19.4577 24.0627L21.5823 19.2905C21.3962 19.214 21.2102 19.145 21.0241 19.0872Z" fill="#5865F2"/>
<path d="M18.8995 23.8594L18.7511 24.3369L18.2139 24.17L18.4427 23.656L18.8995 23.8594ZM19.4577 24.0627L19.9144 24.266L19.7169 24.7098L19.2676 24.5251L19.4577 24.0627ZM21.5823 19.2905L21.7723 18.828L22.2484 19.0237L22.0391 19.4938L21.5823 19.2905ZM21.4809 19.2906L19.3563 24.0628L18.4427 23.656L20.5674 18.8839L21.4809 19.2906ZM19.0479 23.3819C19.2511 23.4451 19.4513 23.5195 19.6477 23.6002L19.2676 24.5251C19.0919 24.4529 18.92 24.3894 18.7511 24.3369L19.0479 23.3819ZM19.0009 23.8593L21.1255 19.0871L22.0391 19.4938L19.9144 24.266L19.0009 23.8593ZM21.3922 19.753C21.2165 19.6807 21.0446 19.6172 20.8758 19.5647L21.1725 18.6097C21.3758 18.6729 21.576 18.7473 21.7723 18.828L21.3922 19.753Z" fill="black" mask="url(#path-55-inside-27_1133_18717)"/>
<mask id="path-57-inside-28_1133_18717" fill="white">
<path d="M21.5895 19.2905L19.4649 24.0626C19.651 24.1372 19.8147 24.2193 19.9877 24.3107L22.1123 19.5422C21.9411 19.4508 21.7663 19.3688 21.5895 19.2942"/>
</mask>
<path d="M21.5895 19.2905L19.4649 24.0626C19.651 24.1372 19.8147 24.2193 19.9877 24.3107L22.1123 19.5422C21.9411 19.4508 21.7663 19.3688 21.5895 19.2942" fill="#5865F2"/>
<path d="M19.4649 24.0626L19.2788 24.5267L18.797 24.3335L19.0081 23.8593L19.4649 24.0626ZM19.9877 24.3107L20.4444 24.5142L20.2269 25.0024L19.7542 24.7528L19.9877 24.3107ZM22.1123 19.5422L22.3478 19.1011L22.7585 19.3204L22.569 19.7457L22.1123 19.5422ZM22.0463 19.4938L19.9217 24.266L19.0081 23.8593L21.1327 19.0871L22.0463 19.4938ZM19.651 23.5986C19.861 23.6828 20.0426 23.7742 20.2212 23.8685L19.7542 24.7528C19.5868 24.6644 19.4409 24.5917 19.2788 24.5267L19.651 23.5986ZM19.531 24.1072L21.6556 19.3387L22.569 19.7457L20.4444 24.5142L19.531 24.1072ZM21.8768 19.9833C21.7207 19.9 21.5598 19.8243 21.3951 19.7549L21.7839 18.8335C21.9728 18.9132 22.1616 19.0017 22.3478 19.1011L21.8768 19.9833Z" fill="black" mask="url(#path-57-inside-28_1133_18717)"/>
<mask id="path-59-inside-29_1133_18717" fill="white">
<path d="M22.1127 19.5422L19.9881 24.3144C20.1593 24.4058 20.3286 24.5009 20.4941 24.6128L22.6206 19.8406C22.455 19.7343 22.2857 19.6336 22.1127 19.5422Z"/>
</mask>
<path d="M22.1127 19.5422L19.9881 24.3144C20.1593 24.4058 20.3286 24.5009 20.4941 24.6128L22.6206 19.8406C22.455 19.7343 22.2857 19.6336 22.1127 19.5422Z" fill="#5865F2"/>
<path d="M19.9881 24.3144L19.7526 24.7555L19.342 24.5363L19.5313 24.1111L19.9881 24.3144ZM20.4941 24.6128L20.9508 24.8163L20.7082 25.3609L20.2142 25.0271L20.4941 24.6128ZM22.6206 19.8406L22.8907 19.4199L23.2521 19.6519L23.0773 20.0441L22.6206 19.8406ZM22.5695 19.7456L20.4449 24.5178L19.5313 24.1111L21.6559 19.3389L22.5695 19.7456ZM20.2236 23.8733C20.4001 23.9676 20.5871 24.0722 20.7741 24.1985L20.2142 25.0271C20.07 24.9296 19.9184 24.844 19.7526 24.7555L20.2236 23.8733ZM20.0374 24.4093L22.1639 19.6371L23.0773 20.0441L20.9508 24.8163L20.0374 24.4093ZM22.3505 20.2614C22.1943 20.1611 22.0374 20.0679 21.8792 19.9844L22.3462 19.1001C22.5341 19.1993 22.7157 19.3075 22.8907 19.4199L22.3505 20.2614Z" fill="black" mask="url(#path-59-inside-29_1133_18717)"/>
<path d="M22.825 20.2887C22.7919 20.264 22.7587 20.2396 22.7253 20.2154L20.8088 24.5165C20.8428 24.5402 20.8762 24.5642 20.909 24.5884L22.825 20.2887Z" fill="#5865F2" stroke="black" stroke-width="0.5"/>
<mask id="path-62-inside-30_1133_18717" fill="white">
<path d="M23.1338 20.2061L21.0074 24.9783C21.1924 25.124 21.37 25.279 21.5394 25.4427L23.6641 20.6705C23.4953 20.5068 23.3183 20.3518 23.1338 20.2061Z"/>
</mask>
<path d="M23.1338 20.2061L21.0074 24.9783C21.1924 25.124 21.37 25.279 21.5394 25.4427L23.6641 20.6705C23.4953 20.5068 23.3183 20.3518 23.1338 20.2061Z" fill="#5865F2"/>
<path d="M21.0074 24.9783L20.6981 25.3712L20.3922 25.1304L20.5507 24.7748L21.0074 24.9783ZM21.5394 25.4427L21.9962 25.646L21.7057 26.2985L21.1921 25.8023L21.5394 25.4427ZM23.6641 20.6705L24.0121 20.3115L24.2629 20.5547L24.1208 20.8738L23.6641 20.6705ZM23.5906 20.4096L21.4641 25.1818L20.5507 24.7748L22.6771 20.0026L23.5906 20.4096ZM21.3166 24.5854C21.515 24.7416 21.7053 24.9076 21.8868 25.083L21.1921 25.8023C21.0348 25.6503 20.8699 25.5064 20.6981 25.3712L21.3166 24.5854ZM21.0827 25.2393L23.2073 20.4671L24.1208 20.8738L21.9962 25.646L21.0827 25.2393ZM23.316 21.0294C23.1593 20.8775 22.9951 20.7337 22.8239 20.5985L23.4438 19.8138C23.6415 19.9699 23.8312 20.1361 24.0121 20.3115L23.316 21.0294Z" fill="black" mask="url(#path-62-inside-30_1133_18717)"/>
<path d="M23.9545 21.3447C23.8857 21.2638 23.815 21.1846 23.7427 21.1071L21.829 25.3867C21.902 25.4607 21.9735 25.5362 22.0433 25.6132L23.9545 21.3447Z" fill="#5865F2" stroke="black" stroke-width="0.5"/>
<mask id="path-65-inside-31_1133_18717" fill="white">
<path d="M24.2463 21.3046L22.1198 26.0693C22.3889 26.4008 22.6285 26.7552 22.8361 27.1285L24.9607 22.3563C24.7549 21.983 24.5158 21.6291 24.2463 21.299"/>
</mask>
<path d="M24.2463 21.3046L22.1198 26.0693C22.3889 26.4008 22.6285 26.7552 22.8361 27.1285L24.9607 22.3563C24.7549 21.983 24.5158 21.6291 24.2463 21.299" fill="#5865F2"/>
<path d="M22.1198 26.0693L21.7316 26.3844L21.5381 26.1459L21.6632 25.8655L22.1198 26.0693ZM22.8361 27.1285L23.2929 27.3319L22.8856 28.2466L22.3991 27.3715L22.8361 27.1285ZM24.9607 22.3563L25.3986 22.115L25.5186 22.3326L25.4175 22.5597L24.9607 22.3563ZM24.7029 21.5083L22.5764 26.273L21.6632 25.8655L23.7897 21.1008L24.7029 21.5083ZM22.508 25.7542C22.7954 26.1083 23.0514 26.4868 23.2731 26.8856L22.3991 27.3715C22.2057 27.0236 21.9823 26.6933 21.7316 26.3844L22.508 25.7542ZM22.3793 26.9252L24.5039 22.153L25.4175 22.5597L23.2929 27.3319L22.3793 26.9252ZM24.5228 22.5977C24.3316 22.2508 24.1094 21.9219 23.859 21.6151L24.6336 20.9828C24.9222 21.3363 25.1782 21.7152 25.3986 22.115L24.5228 22.5977Z" fill="black" mask="url(#path-65-inside-31_1133_18717)"/>
<mask id="path-67-inside-32_1133_18717" fill="white">
<path d="M24.9606 22.3619L22.8322 27.1341C23.0863 27.5944 23.2867 28.0824 23.4294 28.5887C23.531 28.9546 23.5989 29.3292 23.6322 29.7076L25.7568 24.9354C25.7254 24.5567 25.6575 24.182 25.5541 23.8165C25.4118 23.3101 25.2113 22.822 24.9569 22.3619"/>
</mask>
<path d="M24.9606 22.3619L22.8322 27.1341C23.0863 27.5944 23.2867 28.0824 23.4294 28.5887C23.531 28.9546 23.5989 29.3292 23.6322 29.7076L25.7568 24.9354C25.7254 24.5567 25.6575 24.182 25.5541 23.8165C25.4118 23.3101 25.2113 22.822 24.9569 22.3619" fill="#5865F2"/>
<path d="M22.8322 27.1341L22.3945 27.3757L22.2742 27.1577L22.3756 26.9304L22.8322 27.1341ZM23.4294 28.5887L23.9107 28.4529L23.9112 28.4549L23.4294 28.5887ZM23.6322 29.7076L24.089 29.9109L23.3035 31.6753L23.1341 29.7514L23.6322 29.7076ZM25.7568 24.9354L26.2551 24.894L26.2657 25.0217L26.2136 25.1387L25.7568 24.9354ZM25.5541 23.8165L25.0729 23.9526L25.0727 23.9517L25.5541 23.8165ZM25.4172 22.5655L23.2889 27.3377L22.3756 26.9304L24.5039 22.1582L25.4172 22.5655ZM23.27 26.8925C23.5425 27.3863 23.7575 27.9099 23.9107 28.4529L22.9482 28.7244C22.8158 28.255 22.63 27.8025 22.3945 27.3757L23.27 26.8925ZM23.9112 28.4549C24.021 28.8503 24.0943 29.2549 24.1303 29.6637L23.1341 29.7514C23.1035 29.4034 23.0411 29.059 22.9477 28.7224L23.9112 28.4549ZM23.1754 29.5042L25.3001 24.732L26.2136 25.1387L24.089 29.9109L23.1754 29.5042ZM25.2586 24.9768C25.2297 24.6302 25.1676 24.2872 25.0729 23.9526L26.0352 23.6804C26.1473 24.0769 26.221 24.4833 26.2551 24.894L25.2586 24.9768ZM25.0727 23.9517C24.9408 23.4825 24.7551 23.0302 24.5193 22.6039L25.3944 22.1199C25.6676 22.6137 25.8827 23.1377 26.0354 23.6812L25.0727 23.9517Z" fill="black" mask="url(#path-67-inside-32_1133_18717)"/>
<mask id="path-69-inside-33_1133_18717" fill="white">
<path d="M25.7607 24.9298L23.6361 29.702C23.6696 30.0903 23.6608 30.4811 23.61 30.8675L25.7346 26.0953C25.7873 25.7091 25.7961 25.3181 25.7607 24.9298Z"/>
</mask>
<path d="M25.7607 24.9298L23.6361 29.702C23.6696 30.0903 23.6608 30.4811 23.61 30.8675L25.7346 26.0953C25.7873 25.7091 25.7961 25.3181 25.7607 24.9298Z" fill="#5865F2"/>
<path d="M25.7607 24.9298L25.3039 24.7264L26.0844 22.9734L26.2586 24.8844L25.7607 24.9298ZM23.6361 29.702L23.1379 29.745L23.1268 29.6165L23.1793 29.4986L23.6361 29.702ZM23.61 30.8675L24.0668 31.0709L23.1143 30.8023L23.61 30.8675ZM25.7346 26.0953L26.23 26.1629L26.2204 26.2336L26.1914 26.2987L25.7346 26.0953ZM26.2175 25.1332L24.0928 29.9053L23.1793 29.4986L25.3039 24.7264L26.2175 25.1332ZM24.1342 29.659C24.1708 30.0834 24.1613 30.5104 24.1057 30.9327L23.1143 30.8023C23.1604 30.4518 23.1683 30.0972 23.1379 29.745L24.1342 29.659ZM23.1532 30.6642L25.2779 25.892L26.1914 26.2987L24.0668 31.0709L23.1532 30.6642ZM25.2392 26.0277C25.2868 25.6789 25.2947 25.3258 25.2627 24.9752L26.2586 24.8844C26.2974 25.3103 26.2879 25.7392 26.23 26.1629L25.2392 26.0277Z" fill="black" mask="url(#path-69-inside-33_1133_18717)"/>
<mask id="path-71-inside-34_1133_18717" fill="white">
<path d="M25.7349 26.0953L23.6102 30.8675C23.5761 31.1201 23.522 31.3695 23.4484 31.6135L25.573 26.8413C25.6466 26.5973 25.7007 26.3479 25.7349 26.0953Z"/>
</mask>
<path d="M25.7349 26.0953L23.6102 30.8675C23.5761 31.1201 23.522 31.3695 23.4484 31.6135L25.573 26.8413C25.6466 26.5973 25.7007 26.3479 25.7349 26.0953Z" fill="#5865F2"/>
<path d="M25.7349 26.0953L25.2781 25.892L26.2303 26.1624L25.7349 26.0953ZM23.6102 30.8675L23.1148 30.8005L23.1244 30.7295L23.1535 30.6642L23.6102 30.8675ZM23.4484 31.6135L23.9052 31.8168L22.9697 31.4691L23.4484 31.6135ZM25.573 26.8413L26.0517 26.9856L26.0426 27.0158L26.0298 27.0446L25.573 26.8413ZM26.1916 26.2987L24.067 31.0709L23.1535 30.6642L25.2781 25.892L26.1916 26.2987ZM24.1057 30.9346C24.068 31.2133 24.0083 31.4886 23.9271 31.7578L22.9697 31.4691C23.0356 31.2504 23.0841 31.0269 23.1148 30.8005L24.1057 30.9346ZM22.9916 31.4101L25.1162 26.6379L26.0298 27.0446L23.9052 31.8168L22.9916 31.4101ZM25.0943 26.6969C25.1602 26.4783 25.2087 26.2547 25.2394 26.0283L26.2303 26.1624C26.1926 26.4411 26.1329 26.7164 26.0517 26.9856L25.0943 26.6969Z" fill="black" mask="url(#path-71-inside-34_1133_18717)"/>
<mask id="path-73-inside-35_1133_18717" fill="white">
<path d="M25.5728 26.8413L23.4481 31.6135C23.3961 31.7903 23.334 31.9641 23.2621 32.1338L25.3867 27.3616C25.4597 27.1923 25.5219 27.0185 25.5728 26.8413Z"/>
</mask>
<path d="M25.5728 26.8413L23.4481 31.6135C23.3961 31.7903 23.334 31.9641 23.2621 32.1338L25.3867 27.3616C25.4597 27.1923 25.5219 27.0185 25.5728 26.8413Z" fill="#5865F2"/>
<path d="M23.4481 31.6135L22.9685 31.4724L22.9778 31.4405L22.9914 31.4101L23.4481 31.6135ZM23.2621 32.1338L23.7189 32.3371L22.8017 31.9387L23.2621 32.1338ZM25.3867 27.3616L25.8459 27.5596L25.8435 27.565L25.3867 27.3616ZM26.0295 27.0447L23.9049 31.8168L22.9914 31.4101L25.116 26.6379L26.0295 27.0447ZM23.9278 31.7546C23.8704 31.9498 23.8019 32.1415 23.7225 32.3289L22.8017 31.9387C22.8662 31.7866 22.9218 31.6309 22.9685 31.4724L23.9278 31.7546ZM22.8053 31.9304L24.9299 27.1582L25.8435 27.565L23.7189 32.3371L22.8053 31.9304ZM24.9276 27.1636C24.9922 27.0138 25.0472 26.8601 25.0922 26.7033L26.0533 26.9793C25.9966 27.177 25.9273 27.3708 25.8458 27.5596L24.9276 27.1636Z" fill="black" mask="url(#path-73-inside-35_1133_18717)"/>
<mask id="path-75-inside-36_1133_18717" fill="white">
<path d="M48.6403 40.5499L46.5157 45.322C51.0438 43.4067 55.1559 40.6247 58.6216 37.1316L60.748 32.3594C57.2823 35.8533 53.1695 38.6355 48.6403 40.5499Z"/>
</mask>
<path d="M48.6403 40.5499L46.5157 45.322C51.0438 43.4067 55.1559 40.6247 58.6216 37.1316L60.748 32.3594C57.2823 35.8533 53.1695 38.6355 48.6403 40.5499Z" fill="#5865F2"/>
<path d="M46.5157 45.322L46.7105 45.7825L45.5437 46.2761L46.0589 45.1187L46.5157 45.322ZM58.6216 37.1316L59.0783 37.3351L59.041 37.4187L58.9765 37.4837L58.6216 37.1316ZM60.748 32.3594L60.3931 32.0073L61.2048 32.5629L60.748 32.3594ZM49.0971 40.7532L46.9725 45.5254L46.0589 45.1187L48.1836 40.3465L49.0971 40.7532ZM46.3209 44.8615C50.7891 42.9716 54.8467 40.2264 58.2666 36.7794L58.9765 37.4837C55.465 41.023 51.2986 43.8419 46.7105 45.7825L46.3209 44.8615ZM58.1649 36.9281L60.2913 32.1559L61.2048 32.5629L59.0783 37.3351L58.1649 36.9281ZM61.103 32.7115C57.5915 36.2516 53.4242 39.0707 48.835 41.0104L48.4457 40.0893C52.9148 38.2003 56.9732 35.455 60.3931 32.0073L61.103 32.7115Z" fill="black" mask="url(#path-75-inside-36_1133_18717)"/>
<mask id="path-77-inside-37_1133_18717" fill="white">
<path d="M18.6352 35.5558L16.5069 40.328C18.1834 40.8179 19.8859 41.2139 21.6063 41.514L23.731 36.7418C22.0111 36.4419 20.3092 36.046 18.6334 35.5558"/>
</mask>
<path d="M18.6352 35.5558L16.5069 40.328C18.1834 40.8179 19.8859 41.2139 21.6063 41.514L23.731 36.7418C22.0111 36.4419 20.3092 36.046 18.6334 35.5558" fill="#5865F2"/>
<path d="M16.5069 40.328L16.3666 40.8079L15.817 40.6473L16.0502 40.1243L16.5069 40.328ZM21.6063 41.514L22.0631 41.7174L21.9045 42.0736L21.5204 42.0066L21.6063 41.514ZM23.731 36.7418L23.8168 36.2493L24.4485 36.3594L24.1877 36.9452L23.731 36.7418ZM19.0919 35.7594L16.9635 40.5316L16.0502 40.1243L18.1786 35.3521L19.0919 35.7594ZM16.6471 39.848C18.3058 40.3328 19.9901 40.7245 21.6923 41.0215L21.5204 42.0066C19.7816 41.7033 18.061 41.3031 16.3666 40.8079L16.6471 39.848ZM21.1496 41.3107L23.2742 36.5385L24.1877 36.9452L22.0631 41.7174L21.1496 41.3107ZM23.6451 37.2344C21.9068 36.9313 20.1867 36.5311 18.493 36.0357L18.7737 35.0759C20.4317 35.5608 22.1153 35.9526 23.8168 36.2493L23.6451 37.2344Z" fill="black" mask="url(#path-77-inside-37_1133_18717)"/>
<mask id="path-79-inside-38_1133_18717" fill="white">
<path d="M23.7331 36.7419L21.6085 41.514C24.884 42.0984 28.2229 42.2389 31.5358 41.9318C36.2297 41.4927 40.7616 39.9849 44.7858 37.5232L46.9104 32.7529C42.8886 35.2121 38.3602 36.7192 33.6697 37.1596C30.3563 37.4677 27.0165 37.3272 23.7405 36.7419"/>
</mask>
<path d="M23.7331 36.7419L21.6085 41.514C24.884 42.0984 28.2229 42.2389 31.5358 41.9318C36.2297 41.4927 40.7616 39.9849 44.7858 37.5232L46.9104 32.7529C42.8886 35.2121 38.3602 36.7192 33.6697 37.1596C30.3563 37.4677 27.0165 37.3272 23.7405 36.7419" fill="#5865F2"/>
<path d="M21.6085 41.514L21.5207 42.0063L20.892 41.8941L21.1517 41.3107L21.6085 41.514ZM31.5358 41.9318L31.5823 42.4296L31.5819 42.4296L31.5358 41.9318ZM44.7858 37.5232L45.2425 37.7267L45.1793 37.8687L45.0467 37.9498L44.7858 37.5232ZM46.9104 32.7529L46.6496 32.3264L48.0213 31.4876L47.3671 32.9564L46.9104 32.7529ZM33.6697 37.1596L33.7164 37.6574L33.716 37.6574L33.6697 37.1596ZM24.1899 36.9452L22.0653 41.7174L21.1517 41.3107L23.2763 36.5385L24.1899 36.9452ZM21.6963 41.0218C24.9276 41.5983 28.2215 41.7369 31.4896 41.4339L31.5819 42.4296C28.2244 42.7409 24.8403 42.5985 21.5207 42.0063L21.6963 41.0218ZM31.4892 41.4339C36.1071 41.002 40.5657 39.5186 44.5249 37.0967L45.0467 37.9498C40.9575 40.4512 36.3523 41.9834 31.5823 42.4296L31.4892 41.4339ZM44.329 37.3198L46.4537 32.5495L47.3671 32.9564L45.2425 37.7267L44.329 37.3198ZM47.1712 33.1795C43.0845 35.6784 38.4828 37.2099 33.7164 37.6574L33.6229 36.6618C38.2375 36.2285 42.6927 34.7458 46.6496 32.3264L47.1712 33.1795ZM33.716 37.6574C30.3578 37.9697 26.9729 37.8273 23.6526 37.2341L23.8285 36.2497C27.0602 36.8271 30.3548 36.9657 33.6234 36.6617L33.716 37.6574Z" fill="black" mask="url(#path-79-inside-38_1133_18717)"/>
<mask id="path-81-inside-39_1133_18717" fill="white">
<path d="M44.3372 36.119L42.2107 40.8911V40.9061L44.3297 36.1395C44.3294 36.1345 44.3294 36.1295 44.3297 36.1245"/>
</mask>
<path d="M44.3372 36.119L42.2107 40.8911V40.9061L44.3297 36.1395C44.3294 36.1345 44.3294 36.1295 44.3297 36.1245" fill="#5865F2"/>
<path d="M42.2107 40.8911H41.7107V40.7848L41.754 40.6876L42.2107 40.8911ZM42.2107 40.9061L42.6676 41.1092L41.7107 40.9061H42.2107ZM44.3297 36.1395L44.8286 36.1057L44.837 36.2293L44.7866 36.3426L44.3297 36.1395ZM44.7939 36.3225L42.6674 41.0946L41.754 40.6876L43.8804 35.9154L44.7939 36.3225ZM42.7107 40.8911V40.9061H41.7107V40.8911H42.7107ZM41.7538 40.7029L43.8728 35.9364L44.7866 36.3426L42.6676 41.1092L41.7538 40.7029ZM43.8309 36.1733C43.829 36.1458 43.829 36.1182 43.8309 36.0907L44.8286 36.1584C44.8298 36.1408 44.8298 36.1232 44.8286 36.1057L43.8309 36.1733Z" fill="black" mask="url(#path-81-inside-39_1133_18717)"/>
<mask id="path-83-inside-40_1133_18717" fill="white">
<path d="M44.3297 36.1395L42.2051 40.9117V40.934L44.3315 36.1618C44.3306 36.1544 44.3306 36.1469 44.3315 36.1395"/>
</mask>
<path d="M44.3297 36.1395L42.2051 40.9117V40.934L44.3315 36.1618C44.3306 36.1544 44.3306 36.1469 44.3315 36.1395" fill="#5865F2"/>
<path d="M42.2051 40.9117H41.7051V40.8054L41.7483 40.7083L42.2051 40.9117ZM42.2051 40.934L42.6618 41.1375L41.7051 40.934H42.2051ZM44.3315 36.1618L44.8279 36.102L44.8445 36.2392L44.7883 36.3654L44.3315 36.1618ZM44.7865 36.3428L42.6618 41.115L41.7483 40.7083L43.8729 35.9361L44.7865 36.3428ZM42.7051 40.9117V40.934H41.7051V40.9117H42.7051ZM41.7484 40.7305L43.8748 35.9583L44.7883 36.3654L42.6618 41.1375L41.7484 40.7305ZM43.8351 36.2217C43.8294 36.1745 43.8294 36.1268 43.8351 36.0796L44.8279 36.1993C44.8318 36.167 44.8318 36.1343 44.8279 36.102L43.8351 36.2217Z" fill="black" mask="url(#path-83-inside-40_1133_18717)"/>
<mask id="path-85-inside-41_1133_18717" fill="white">
<path d="M44.3259 36.1562L42.1995 40.9284C42.1976 40.9395 42.1976 40.9509 42.1995 40.962L44.3241 36.1917C44.3231 36.1799 44.3231 36.168 44.3241 36.1562"/>
</mask>
<path d="M44.3259 36.1562L42.1995 40.9284C42.1976 40.9395 42.1976 40.9509 42.1995 40.962L44.3241 36.1917C44.3231 36.1799 44.3231 36.168 44.3241 36.1562" fill="#5865F2"/>
<path d="M42.1995 40.9284L41.7064 40.8453L41.717 40.7828L41.7427 40.7249L42.1995 40.9284ZM42.1995 40.962L42.6562 41.1654L41.982 42.6792L41.7064 41.0451L42.1995 40.962ZM44.3241 36.1917L44.8225 36.1525L44.8325 36.2791L44.7808 36.3951L44.3241 36.1917ZM44.7826 36.3598L42.6562 41.1319L41.7427 40.7249L43.8692 35.9527L44.7826 36.3598ZM42.6925 41.0116C42.6999 40.9676 42.6999 40.9228 42.6925 40.8789L41.7064 41.0451C41.6953 40.979 41.6953 40.9114 41.7064 40.8453L42.6925 41.0116ZM41.7427 40.7586L43.8673 35.9883L44.7808 36.3951L42.6562 41.1654L41.7427 40.7586ZM43.8256 36.2308C43.8226 36.193 43.8226 36.1549 43.8256 36.1171L44.8225 36.1954C44.8237 36.1811 44.8237 36.1668 44.8225 36.1525L43.8256 36.2308Z" fill="black" mask="url(#path-85-inside-41_1133_18717)"/>
<mask id="path-87-inside-42_1133_18717" fill="white">
<path d="M44.3243 36.1917L42.1997 40.962C42.2021 40.9875 42.2097 41.0123 42.2221 41.0348L44.3467 36.2626C44.3346 36.2407 44.327 36.2166 44.3243 36.1917Z"/>
</mask>
<path d="M44.3243 36.1917L42.1997 40.962C42.2021 40.9875 42.2097 41.0123 42.2221 41.0348L44.3467 36.2626C44.3346 36.2407 44.327 36.2166 44.3243 36.1917Z" fill="#5865F2"/>
<path d="M44.3243 36.1917L43.8676 35.9883L44.6261 34.2852L44.8216 36.1393L44.3243 36.1917ZM42.1997 40.962L41.7019 41.0084L41.6898 40.8781L41.743 40.7586L42.1997 40.962ZM42.2221 41.0348L42.6788 41.2381L42.2693 42.158L41.784 41.2758L42.2221 41.0348ZM44.3467 36.2626L44.7842 36.0205L44.9048 36.2384L44.8035 36.4659L44.3467 36.2626ZM44.7811 36.3951L42.6565 41.1654L41.743 40.7586L43.8676 35.9883L44.7811 36.3951ZM42.6976 40.9157C42.6936 40.873 42.6809 40.8315 42.6601 40.7937L41.784 41.2758C41.7385 41.1932 41.7106 41.1021 41.7019 41.0084L42.6976 40.9157ZM41.7653 40.8314L43.8899 36.0592L44.8035 36.4659L42.6788 41.2381L41.7653 40.8314ZM43.9092 36.5047C43.8647 36.4243 43.8368 36.3357 43.8271 36.2441L44.8216 36.1393C44.8172 36.0975 44.8044 36.0571 44.7842 36.0205L43.9092 36.5047Z" fill="black" mask="url(#path-87-inside-42_1133_18717)"/>
<mask id="path-89-inside-43_1133_18717" fill="white">
<path d="M44.3466 36.2626L42.222 41.0348L42.2424 41.0665L44.3689 36.2943C44.3602 36.2846 44.3527 36.274 44.3466 36.2626Z"/>
</mask>
<path d="M44.3466 36.2626L42.222 41.0348L42.2424 41.0665L44.3689 36.2943C44.3602 36.2846 44.3527 36.274 44.3466 36.2626Z" fill="#5865F2"/>
<path d="M42.222 41.0348L41.8019 41.3059L41.6551 41.0786L41.7652 40.8314L42.222 41.0348ZM42.2424 41.0665L42.6991 41.27L42.3232 42.1136L41.8223 41.3376L42.2424 41.0665ZM44.3689 36.2943L44.7408 35.9601L44.9577 36.2014L44.8256 36.4978L44.3689 36.2943ZM44.8033 36.4659L42.6787 41.2381L41.7652 40.8314L43.8898 36.0592L44.8033 36.4659ZM42.642 40.7636L42.6625 40.7953L41.8223 41.3376L41.8019 41.3059L42.642 40.7636ZM41.7857 40.8629L43.9122 36.0908L44.8256 36.4978L42.6991 41.27L41.7857 40.8629ZM43.997 36.6285C43.9618 36.5893 43.9315 36.5462 43.9066 36.5002L44.7865 36.025C44.774 36.0018 44.7587 35.98 44.7408 35.9601L43.997 36.6285Z" fill="black" mask="url(#path-89-inside-43_1133_18717)"/>
<mask id="path-91-inside-44_1133_18717" fill="white">
<path d="M44.3689 36.2943L42.2424 41.0664C43.1279 42.1107 44.0662 43.1109 45.0572 44.067L47.1855 39.2967C46.197 38.3451 45.2575 37.3436 44.3707 36.2961"/>
</mask>
<path d="M44.3689 36.2943L42.2424 41.0664C43.1279 42.1107 44.0662 43.1109 45.0572 44.067L47.1855 39.2967C46.197 38.3451 45.2575 37.3436 44.3707 36.2961" fill="#5865F2"/>
<path d="M42.2424 41.0664L41.861 41.3898L41.6577 41.15L41.7857 40.8629L42.2424 41.0664ZM45.0572 44.067L45.5138 44.2707L45.2233 44.922L44.7101 44.4268L45.0572 44.067ZM47.1855 39.2967L47.5323 38.9364L47.7852 39.1799L47.6422 39.5004L47.1855 39.2967ZM44.8256 36.4978L42.6991 41.2699L41.7857 40.8629L43.9121 36.0907L44.8256 36.4978ZM42.6237 40.743C43.4984 41.7746 44.4253 42.7626 45.4044 43.7072L44.7101 44.4268C43.7071 43.4593 42.7574 42.4469 41.861 41.3898L42.6237 40.743ZM44.6006 43.8633L46.7289 39.0929L47.6422 39.5004L45.5138 44.2707L44.6006 43.8633ZM46.8388 39.6569C45.838 38.6935 44.8869 37.6797 43.9891 36.6192L44.7523 35.9731C45.6281 37.0076 46.556 37.9967 47.5323 38.9364L46.8388 39.6569Z" fill="black" mask="url(#path-91-inside-44_1133_18717)"/>
<path d="M48.1743 40.5605C47.8684 40.2854 47.5667 40.0063 47.2693 39.7233L45.359 44.0102C45.656 44.2942 45.9575 44.5749 46.2636 44.8522L48.1743 40.5605Z" fill="#5865F2" stroke="black" stroke-width="0.5"/>
<mask id="path-94-inside-45_1133_18717" fill="white">
<path d="M48.4768 40.4958L46.3522 45.2773L48.4768 40.5051"/>
</mask>
<path d="M48.4768 40.4958L46.3522 45.2773L48.4768 40.5051" fill="#5865F2"/>
<path d="M46.3522 45.2773L46.809 45.4807L45.8953 45.0743L46.3522 45.2773ZM48.9337 40.6988L46.8091 45.4803L45.8953 45.0743L48.0199 40.2928L48.9337 40.6988ZM45.8954 45.0739L48.02 40.3018L48.9336 40.7085L46.809 45.4807L45.8954 45.0739Z" fill="black" mask="url(#path-94-inside-45_1133_18717)"/>
<mask id="path-96-inside-46_1133_18717" fill="white">
<path d="M48.4822 40.4995L46.3575 45.2773L46.3761 45.2903L48.5063 40.5126L48.4859 40.4995"/>
</mask>
<path d="M48.4822 40.4995L46.3575 45.2773L46.3761 45.2903L48.5063 40.5126L48.4859 40.4995" fill="#5865F2"/>
<path d="M46.3575 45.2773L46.0703 45.6865L45.7335 45.4501L45.9007 45.0741L46.3575 45.2773ZM46.3761 45.2903L46.8328 45.4939L46.5857 46.0483L46.0889 45.6996L46.3761 45.2903ZM48.5063 40.5126L48.7753 40.0911L49.1384 40.3227L48.963 40.7162L48.5063 40.5126ZM48.939 40.7027L46.8144 45.4804L45.9007 45.0741L48.0253 40.2964L48.939 40.7027ZM46.6448 44.868L46.6634 44.8811L46.0889 45.6996L46.0703 45.6865L46.6448 44.868ZM45.9195 45.0867L48.0497 40.309L48.963 40.7162L46.8328 45.4939L45.9195 45.0867ZM48.2374 40.9341L48.2169 40.921L48.7548 40.078L48.7753 40.0911L48.2374 40.9341Z" fill="black" mask="url(#path-96-inside-46_1133_18717)"/>
<mask id="path-98-inside-47_1133_18717" fill="white">
<path d="M48.5064 40.5126L46.3762 45.2773L46.3966 45.2885L48.5212 40.5163C48.5141 40.5144 48.5077 40.5105 48.5026 40.5051"/>
</mask>
<path d="M48.5064 40.5126L46.3762 45.2773L46.3966 45.2885L48.5212 40.5163C48.5141 40.5144 48.5077 40.5105 48.5026 40.5051" fill="#5865F2"/>
<path d="M46.3762 45.2773L46.1363 45.716L45.7313 45.4946L45.9197 45.0732L46.3762 45.2773ZM46.3966 45.2885L46.8534 45.4919L46.6328 45.9874L46.1568 45.7272L46.3966 45.2885ZM48.5212 40.5163L48.6496 40.0331L49.2166 40.1837L48.978 40.7197L48.5212 40.5163ZM48.9628 40.7167L46.8326 45.4814L45.9197 45.0732L48.0499 40.3085L48.9628 40.7167ZM46.616 44.8386L46.6365 44.8498L46.1568 45.7272L46.1363 45.716L46.616 44.8386ZM45.9399 45.0851L48.0645 40.313L48.978 40.7197L46.8534 45.4919L45.9399 45.0851ZM48.3929 40.9996C48.2942 40.9733 48.2052 40.9197 48.1361 40.8452L48.8692 40.1651C48.8101 40.1014 48.734 40.0555 48.6496 40.0331L48.3929 40.9996Z" fill="black" mask="url(#path-98-inside-47_1133_18717)"/>
<mask id="path-100-inside-48_1133_18717" fill="white">
<path d="M48.5213 40.5238L46.3967 45.296H46.4153L48.5417 40.5257L48.5213 40.5145"/>
</mask>
<path d="M48.5213 40.5238L46.3967 45.296H46.4153L48.5417 40.5257L48.5213 40.5145" fill="#5865F2"/>
<path d="M46.3967 45.296V45.796H45.6267L45.9399 45.0926L46.3967 45.296ZM46.4153 45.296L46.872 45.4995L46.7398 45.796H46.4153V45.296ZM48.5417 40.5257L48.7816 40.0869L49.1862 40.3081L48.9984 40.7292L48.5417 40.5257ZM48.9781 40.7271L46.8534 45.4993L45.9399 45.0926L48.0645 40.3204L48.9781 40.7271ZM46.3967 44.796H46.4153V45.796H46.3967V44.796ZM45.9586 45.0924L48.0851 40.3221L48.9984 40.7292L46.872 45.4995L45.9586 45.0924ZM48.3019 40.9644L48.2814 40.9532L48.7611 40.0757L48.7816 40.0869L48.3019 40.9644Z" fill="black" mask="url(#path-100-inside-48_1133_18717)"/>
<mask id="path-102-inside-49_1133_18717" fill="white">
<path d="M48.5419 40.535L46.4154 45.3053L46.4377 45.3146L48.5642 40.5424H48.5419"/>
</mask>
<path d="M48.5419 40.535L46.4154 45.3053L46.4377 45.3146L48.5642 40.5424H48.5419" fill="#5865F2"/>
<path d="M46.4154 45.3053L46.2227 45.7667L45.7503 45.5694L45.9587 45.1017L46.4154 45.3053ZM46.4377 45.3146L46.8944 45.5181L46.6957 45.9642L46.2451 45.776L46.4377 45.3146ZM48.5642 40.5424V40.0424H49.3344L49.0209 40.7459L48.5642 40.5424ZM48.9986 40.7385L46.8721 45.5089L45.9587 45.1017L48.0852 40.3314L48.9986 40.7385ZM46.6081 44.8439L46.6304 44.8532L46.2451 45.776L46.2227 45.7667L46.6081 44.8439ZM45.981 45.1111L48.1075 40.3389L49.0209 40.7459L46.8944 45.5181L45.981 45.1111ZM48.5642 41.0424H48.5419V40.0424H48.5642V41.0424Z" fill="black" mask="url(#path-102-inside-49_1133_18717)"/>
<mask id="path-104-inside-50_1133_18717" fill="white">
<path d="M48.5643 40.5424L46.4378 45.3146H46.4639L48.5903 40.5424H48.5643Z"/>
</mask>
<path d="M48.5643 40.5424L46.4378 45.3146H46.4639L48.5903 40.5424H48.5643Z" fill="#5865F2"/>
<path d="M48.5643 40.5424L48.1076 40.3389L48.2397 40.0424H48.5643V40.5424ZM46.4378 45.3146V45.8146H45.6676L45.9811 45.1111L46.4378 45.3146ZM46.4639 45.3146L46.9206 45.5181L46.7884 45.8146H46.4639V45.3146ZM48.5903 40.5424V40.0424H49.3605L49.047 40.7459L48.5903 40.5424ZM49.021 40.7459L46.8945 45.5181L45.9811 45.1111L48.1076 40.3389L49.021 40.7459ZM46.4378 44.8146H46.4639V45.8146H46.4378V44.8146ZM46.0071 45.1111L48.1336 40.3389L49.047 40.7459L46.9206 45.5181L46.0071 45.1111ZM48.5903 41.0424H48.5643V40.0424H48.5903V41.0424Z" fill="black" mask="url(#path-104-inside-50_1133_18717)"/>
<mask id="path-106-inside-51_1133_18717" fill="white">
<path d="M48.59 40.548L46.4598 45.3202C46.4771 45.322 46.4945 45.322 46.5119 45.3202L48.6365 40.548C48.6198 40.5508 48.6029 40.5508 48.5862 40.548"/>
</mask>
<path d="M48.59 40.548L46.4598 45.3202C46.4771 45.322 46.4945 45.322 46.5119 45.3202L48.6365 40.548C48.6198 40.5508 48.6029 40.5508 48.5862 40.548" fill="#5865F2"/>
<path d="M46.4598 45.3202L46.4074 45.8175L45.7224 45.7453L46.0032 45.1164L46.4598 45.3202ZM46.5119 45.3202L46.9686 45.5236L46.8512 45.7872L46.5642 45.8175L46.5119 45.3202ZM48.6365 40.548L48.554 40.0549L49.4717 39.9013L49.0933 40.7514L48.6365 40.548ZM49.0465 40.7518L46.9163 45.524L46.0032 45.1164L48.1334 40.3442L49.0465 40.7518ZM46.5121 44.823C46.4946 44.8211 46.477 44.8211 46.4595 44.823L46.5642 45.8175C46.5121 45.823 46.4595 45.823 46.4074 45.8175L46.5121 44.823ZM46.0551 45.1168L48.1797 40.3447L49.0933 40.7514L46.9686 45.5236L46.0551 45.1168ZM48.719 41.0412C48.6477 41.0531 48.575 41.0531 48.5037 41.0412L48.6687 40.0549C48.6308 40.0485 48.592 40.0485 48.554 40.0549L48.719 41.0412Z" fill="black" mask="url(#path-106-inside-51_1133_18717)"/>
<mask id="path-108-inside-52_1133_18717" fill="white">
<path d="M17.9227 36.3372L15.7981 41.1094C15.8039 41.0941 15.8135 41.0806 15.826 41.0702C16.0623 40.8296 16.2911 40.5779 16.5088 40.3242L18.6353 35.5521C18.4176 35.802 18.1869 36.0537 17.9506 36.298C17.9401 36.3102 17.9308 36.3233 17.9227 36.3372Z"/>
</mask>
<path d="M17.9227 36.3372L15.7981 41.1094C15.8039 41.0941 15.8135 41.0806 15.826 41.0702C16.0623 40.8296 16.2911 40.5779 16.5088 40.3242L18.6353 35.5521C18.4176 35.802 18.1869 36.0537 17.9506 36.298C17.9401 36.3102 17.9308 36.3233 17.9227 36.3372Z" fill="#5865F2"/>
<path d="M15.7981 41.1094L16.2549 41.3127L15.3308 40.9315L15.7981 41.1094ZM15.826 41.0702L16.1827 41.4206L16.1655 41.4381L16.1466 41.4539L15.826 41.0702ZM16.5088 40.3242L16.9655 40.5278L16.9358 40.5945L16.8882 40.6499L16.5088 40.3242ZM18.6353 35.5521L18.2582 35.2237L19.092 35.7556L18.6353 35.5521ZM17.9506 36.298L17.5725 35.9708L17.5816 35.9603L17.5912 35.9504L17.9506 36.298ZM18.3795 36.5405L16.2549 41.3127L15.3413 40.906L17.4659 36.1338L18.3795 36.5405ZM15.3308 40.9315C15.367 40.8363 15.4272 40.7519 15.5055 40.6865L16.1466 41.4539C16.1999 41.4094 16.2407 41.352 16.2654 41.2872L15.3308 40.9315ZM15.4693 40.7198C15.6966 40.4884 15.9179 40.2451 16.1294 39.9986L16.8882 40.6499C16.6644 40.9107 16.428 41.1709 16.1827 41.4206L15.4693 40.7198ZM16.0521 40.1207L18.1785 35.3486L19.092 35.7556L16.9655 40.5278L16.0521 40.1207ZM19.0123 35.8805C18.789 36.1368 18.5525 36.3949 18.31 36.6456L17.5912 35.9504C17.8213 35.7125 18.0461 35.4671 18.2582 35.2237L19.0123 35.8805ZM18.3287 36.6252C18.3387 36.6136 18.3477 36.601 18.3554 36.5877L17.49 36.0866C17.5138 36.0455 17.5415 36.0067 17.5725 35.9708L18.3287 36.6252Z" fill="black" mask="url(#path-108-inside-52_1133_18717)"/>
<mask id="path-110-inside-53_1133_18717" fill="white">
<path d="M21.3442 43.2259L19.2196 47.9981C19.3294 47.9981 19.3759 47.9646 19.4057 47.9161L21.5303 43.1458C21.5098 43.1942 21.4614 43.2259 21.3442 43.2278"/>
</mask>
<path d="M21.3442 43.2259L19.2196 47.9981C19.3294 47.9981 19.3759 47.9646 19.4057 47.9161L21.5303 43.1458C21.5098 43.1942 21.4614 43.2259 21.3442 43.2278" fill="#5865F2"/>
<path d="M19.2196 47.9981V48.4981H18.4497L18.7628 47.7948L19.2196 47.9981ZM19.4057 47.9161L19.8624 48.1195L19.849 48.1496L19.8318 48.1777L19.4057 47.9161ZM21.5303 43.1458L21.0735 42.9423L21.9909 43.3402L21.5303 43.1458ZM21.801 43.4293L19.6764 48.2015L18.7628 47.7948L20.8875 43.0226L21.801 43.4293ZM19.2196 47.4981C19.2272 47.4981 19.1827 47.4964 19.12 47.5276C19.0475 47.5636 19.0023 47.6175 18.9796 47.6545L19.8318 48.1777C19.7793 48.2632 19.6959 48.358 19.5652 48.423C19.4444 48.4831 19.3218 48.4981 19.2196 48.4981V47.4981ZM18.9489 47.7126L21.0735 42.9423L21.987 43.3492L19.8624 48.1195L18.9489 47.7126ZM21.9909 43.3402C21.9347 43.4735 21.8327 43.5857 21.6918 43.6541C21.5702 43.7131 21.4467 43.7262 21.3522 43.7277L21.3363 42.7279C21.359 42.7275 21.3183 42.7238 21.2552 42.7544C21.2202 42.7714 21.1811 42.7977 21.145 42.836C21.1089 42.8744 21.0849 42.9152 21.0696 42.9513L21.9909 43.3402Z" fill="black" mask="url(#path-110-inside-53_1133_18717)"/>
<mask id="path-112-inside-54_1133_18717" fill="white">
<path d="M5.10645 6.11517L2.97997 10.8855C2.51858 12.0405 2.10805 13.2054 1.74836 14.3802L3.87484 9.60806C4.23452 8.43196 4.64506 7.26766 5.10645 6.11517Z"/>
</mask>
<path d="M5.10645 6.11517L2.97997 10.8855C2.51858 12.0405 2.10805 13.2054 1.74836 14.3802L3.87484 9.60806C4.23452 8.43196 4.64506 7.26766 5.10645 6.11517Z" fill="#5865F2"/>
<path d="M5.10645 6.11517L4.64976 5.9116L5.57063 6.30101L5.10645 6.11517ZM2.97997 10.8855L2.51565 10.7L2.51929 10.6909L2.52329 10.6819L2.97997 10.8855ZM1.74836 14.3802L2.20507 14.5838L1.27027 14.2339L1.74836 14.3802ZM3.87484 9.60806L4.35298 9.75429L4.34402 9.78359L4.33155 9.81157L3.87484 9.60806ZM5.56313 6.31875L3.43665 11.0891L2.52329 10.6819L4.64976 5.9116L5.56313 6.31875ZM3.44429 11.071C2.98797 12.2133 2.58205 13.3651 2.22646 14.5266L1.27027 14.2339C1.63405 13.0456 2.04919 11.8677 2.51565 10.7L3.44429 11.071ZM1.29165 14.1767L3.41813 9.40455L4.33155 9.81157L2.20507 14.5838L1.29165 14.1767ZM3.3967 9.46183C3.76052 8.27221 4.17572 7.0947 4.64226 5.92934L5.57063 6.30101C5.1144 7.44061 4.70853 8.5917 4.35298 9.75429L3.3967 9.46183Z" fill="black" mask="url(#path-112-inside-54_1133_18717)"/>
<mask id="path-114-inside-55_1133_18717" fill="white">
<path d="M3.87476 9.60803L1.74828 14.3783C1.12128 16.4322 0.659652 18.5332 0.367841 20.6611L2.49245 15.8889C2.78497 13.7634 3.24722 11.6649 3.87476 9.61363"/>
</mask>
<path d="M3.87476 9.60803L1.74828 14.3783C1.12128 16.4322 0.659652 18.5332 0.367841 20.6611L2.49245 15.8889C2.78497 13.7634 3.24722 11.6649 3.87476 9.61363" fill="#5865F2"/>
<path d="M1.74828 14.3783L1.27007 14.2324L1.27906 14.2029L1.2916 14.1748L1.74828 14.3783ZM0.367841 20.6611L0.824617 20.8644L-0.127522 20.5931L0.367841 20.6611ZM2.49245 15.8889L2.98779 15.9571L2.97811 16.0274L2.94923 16.0922L2.49245 15.8889ZM4.33144 9.81161L2.20496 14.5819L1.2916 14.1748L3.41808 9.40446L4.33144 9.81161ZM2.22649 14.5243C1.60728 16.5527 1.15139 18.6276 0.863205 20.729L-0.127522 20.5931C0.167913 18.4388 0.635273 16.3118 1.27007 14.2324L2.22649 14.5243ZM-0.0889349 20.4577L2.03568 15.6855L2.94923 16.0922L0.824617 20.8644L-0.0889349 20.4577ZM1.99712 15.8207C2.29328 13.6688 2.76129 11.5442 3.39663 9.46736L4.35288 9.75989C3.73316 11.7857 3.27667 13.858 2.98779 15.9571L1.99712 15.8207Z" fill="black" mask="url(#path-114-inside-55_1133_18717)"/>
<mask id="path-116-inside-56_1133_18717" fill="white">
<path d="M2.49243 15.8833L0.367819 20.6611C-0.0261095 23.5381 -0.104094 26.4498 0.135264 29.3439L2.26733 24.5773C2.02421 21.6816 2.09969 18.768 2.49243 15.8889"/>
</mask>
<path d="M2.49243 15.8833L0.367819 20.6611C-0.0261095 23.5381 -0.104094 26.4498 0.135264 29.3439L2.26733 24.5773C2.02421 21.6816 2.09969 18.768 2.49243 15.8889" fill="#5865F2"/>
<path d="M0.367819 20.6611L-0.127559 20.5932L-0.11792 20.5228L-0.0890462 20.4579L0.367819 20.6611ZM0.135264 29.3439L0.591686 29.548L-0.363034 29.3851L0.135264 29.3439ZM2.26733 24.5773L2.76557 24.5355L2.77635 24.6638L2.72375 24.7814L2.26733 24.5773ZM2.9493 16.0865L0.824683 20.8642L-0.0890462 20.4579L2.03557 15.6801L2.9493 16.0865ZM0.863197 20.7289C0.474216 23.5698 0.397211 26.4449 0.633563 29.3027L-0.363034 29.3851C-0.605398 26.4547 -0.526435 23.5064 -0.127559 20.5932L0.863197 20.7289ZM-0.321158 29.1397L1.8109 24.3731L2.72375 24.7814L0.591686 29.548L-0.321158 29.1397ZM1.76908 24.6191C1.5229 21.687 1.59933 18.7367 1.99702 15.8213L2.98784 15.9565C2.60005 18.7993 2.52551 21.6763 2.76557 24.5355L1.76908 24.6191Z" fill="black" mask="url(#path-116-inside-56_1133_18717)"/>
<mask id="path-118-inside-57_1133_18717" fill="white">
<path d="M2.26764 24.5773L0.135577 29.3439C0.483479 33.5566 1.49184 37.9223 3.23134 42.4539L5.35596 37.6836C3.61831 33.1482 2.60995 28.7844 2.26205 24.5717"/>
</mask>
<path d="M2.26764 24.5773L0.135577 29.3439C0.483479 33.5566 1.49184 37.9223 3.23134 42.4539L5.35596 37.6836C3.61831 33.1482 2.60995 28.7844 2.26205 24.5717" fill="#5865F2"/>
<path d="M0.135577 29.3439L-0.362726 29.3851L-0.3733 29.257L-0.320845 29.1397L0.135577 29.3439ZM3.23134 42.4539L3.68809 42.6573L3.19706 43.7598L2.76455 42.6331L3.23134 42.4539ZM5.35596 37.6836L5.82286 37.5047L5.89691 37.6979L5.8127 37.887L5.35596 37.6836ZM2.72406 24.7815L0.591999 29.5481L-0.320845 29.1397L1.81122 24.3732L2.72406 24.7815ZM0.633881 29.3028C0.977541 33.4641 1.97409 37.7834 3.69813 42.2747L2.76455 42.6331C1.00958 38.0612 -0.0105844 33.6491 -0.362726 29.3851L0.633881 29.3028ZM2.7746 42.2505L4.89921 37.4801L5.8127 37.887L3.68809 42.6573L2.7746 42.2505ZM4.88905 37.8625C3.13606 33.2871 2.11589 28.877 1.76375 24.6129L2.76036 24.5306C3.10401 28.6919 4.10056 33.0094 5.82286 37.5047L4.88905 37.8625Z" fill="black" mask="url(#path-118-inside-57_1133_18717)"/>
<mask id="path-120-inside-58_1133_18717" fill="white">
<path d="M5.10625 6.1152C1.24027 15.7621 0.946331 26.1699 5.36115 37.6854C11.1955 40.7158 16.401 42.3159 21.3441 43.226C21.4539 43.226 21.5023 43.1924 21.5302 43.1439C22.1992 41.6066 22.7345 40.0144 23.1301 38.3848C23.1378 38.333 23.1253 38.2803 23.0951 38.2375C23.065 38.1948 23.0195 38.1654 22.9683 38.1554C21.292 37.7515 19.6473 37.2254 18.0474 36.5814C18.0196 36.5725 17.9943 36.5571 17.9735 36.5365C17.9528 36.5159 17.9371 36.4907 17.9279 36.4629C17.9186 36.4351 17.9161 36.4055 17.9203 36.3765C17.9246 36.3476 17.9357 36.32 17.9526 36.2961C18.1888 36.0556 18.4195 35.8038 18.6372 35.5502C23.896 37.0819 28.9049 37.6164 33.6639 37.154C38.3544 36.7136 42.8829 35.2064 46.9046 32.7473C47.3279 32.913 47.7404 33.1048 48.14 33.3217C48.1676 33.3318 48.1923 33.3488 48.2117 33.371C48.231 33.3932 48.2445 33.42 48.2508 33.4488C48.2571 33.4776 48.2561 33.5076 48.2478 33.5359C48.2394 33.5642 48.2241 33.5899 48.2032 33.6107C47.0116 34.5309 45.7402 35.3422 44.4042 36.035C44.3833 36.0469 44.3653 36.0634 44.3519 36.0834C44.3385 36.1034 44.3299 36.1263 44.3268 36.1502C44.3237 36.1741 44.3263 36.1984 44.3342 36.2211C44.3422 36.2439 44.3553 36.2645 44.3726 36.2812C45.6413 37.7759 47.0134 39.1792 48.4786 40.4809C48.5242 40.5193 48.5828 40.5386 48.6423 40.535C53.1715 38.6206 57.2843 35.8384 60.75 32.3445C58.9491 22.0579 54.1194 12.0678 43.954 2.33886C39.9217 1.06595 35.752 0.280862 31.5337 0.000316547C31.4999 -0.00180492 31.4663 0.00677745 31.4376 0.0248452C31.4089 0.042913 31.3865 0.0695559 31.3737 0.101021C31.0937 1.06888 30.8756 2.05367 30.7207 3.04937C28.5573 2.94634 26.3892 2.99994 24.2334 3.20975C22.1111 3.41825 20.0073 3.7854 17.9395 4.30815C17.3182 3.48015 16.4661 2.43396 15.7405 1.63953C15.7184 1.61554 15.6912 1.59674 15.661 1.58449C15.6307 1.57224 15.5982 1.56684 15.5656 1.56867C11.8822 2.58062 8.36061 4.11139 5.10625 6.1152ZM22.053 29.7449C19.2325 30.0227 16.347 27.8017 15.5098 24.8067C14.6354 21.836 16.1963 19.1543 19.0167 18.8764C21.8371 18.5986 24.7208 20.8215 25.558 23.8165C26.3952 26.8114 24.8138 29.4745 22.053 29.7449ZM40.6257 27.9173C37.835 28.1933 34.9216 25.9722 34.0844 22.9773C33.21 20.0084 34.769 17.3268 37.5895 17.0489C40.4099 16.771 43.2973 18.9939 44.1307 21.9889C44.9642 24.9839 43.3866 27.6469 40.6257 27.9173Z"/>
</mask>
<path d="M5.10625 6.1152C1.24027 15.7621 0.946331 26.1699 5.36115 37.6854C11.1955 40.7158 16.401 42.3159 21.3441 43.226C21.4539 43.226 21.5023 43.1924 21.5302 43.1439C22.1992 41.6066 22.7345 40.0144 23.1301 38.3848C23.1378 38.333 23.1253 38.2803 23.0951 38.2375C23.065 38.1948 23.0195 38.1654 22.9683 38.1554C21.292 37.7515 19.6473 37.2254 18.0474 36.5814C18.0196 36.5725 17.9943 36.5571 17.9735 36.5365C17.9528 36.5159 17.9371 36.4907 17.9279 36.4629C17.9186 36.4351 17.9161 36.4055 17.9203 36.3765C17.9246 36.3476 17.9357 36.32 17.9526 36.2961C18.1888 36.0556 18.4195 35.8038 18.6372 35.5502C23.896 37.0819 28.9049 37.6164 33.6639 37.154C38.3544 36.7136 42.8829 35.2064 46.9046 32.7473C47.3279 32.913 47.7404 33.1048 48.14 33.3217C48.1676 33.3318 48.1923 33.3488 48.2117 33.371C48.231 33.3932 48.2445 33.42 48.2508 33.4488C48.2571 33.4776 48.2561 33.5076 48.2478 33.5359C48.2394 33.5642 48.2241 33.5899 48.2032 33.6107C47.0116 34.5309 45.7402 35.3422 44.4042 36.035C44.3833 36.0469 44.3653 36.0634 44.3519 36.0834C44.3385 36.1034 44.3299 36.1263 44.3268 36.1502C44.3237 36.1741 44.3263 36.1984 44.3342 36.2211C44.3422 36.2439 44.3553 36.2645 44.3726 36.2812C45.6413 37.7759 47.0134 39.1792 48.4786 40.4809C48.5242 40.5193 48.5828 40.5386 48.6423 40.535C53.1715 38.6206 57.2843 35.8384 60.75 32.3445C58.9491 22.0579 54.1194 12.0678 43.954 2.33886C39.9217 1.06595 35.752 0.280862 31.5337 0.000316547C31.4999 -0.00180492 31.4663 0.00677745 31.4376 0.0248452C31.4089 0.042913 31.3865 0.0695559 31.3737 0.101021C31.0937 1.06888 30.8756 2.05367 30.7207 3.04937C28.5573 2.94634 26.3892 2.99994 24.2334 3.20975C22.1111 3.41825 20.0073 3.7854 17.9395 4.30815C17.3182 3.48015 16.4661 2.43396 15.7405 1.63953C15.7184 1.61554 15.6912 1.59674 15.661 1.58449C15.6307 1.57224 15.5982 1.56684 15.5656 1.56867C11.8822 2.58062 8.36061 4.11139 5.10625 6.1152ZM22.053 29.7449C19.2325 30.0227 16.347 27.8017 15.5098 24.8067C14.6354 21.836 16.1963 19.1543 19.0167 18.8764C21.8371 18.5986 24.7208 20.8215 25.558 23.8165C26.3952 26.8114 24.8138 29.4745 22.053 29.7449ZM40.6257 27.9173C37.835 28.1933 34.9216 25.9722 34.0844 22.9773C33.21 20.0084 34.769 17.3268 37.5895 17.0489C40.4099 16.771 43.2973 18.9939 44.1307 21.9889C44.9642 24.9839 43.3866 27.6469 40.6257 27.9173Z" fill="#5865F2"/>
<path d="M5.36115 37.6854L5.13067 38.1292L4.96223 38.0417L4.89428 37.8644L5.36115 37.6854ZM21.3441 43.226V43.726H21.2985L21.2536 43.7177L21.3441 43.226ZM21.5302 43.1439L21.9886 43.3434L21.9775 43.3691L21.9635 43.3933L21.5302 43.1439ZM23.1301 38.3848L23.6248 38.458L23.6214 38.4806L23.616 38.5027L23.1301 38.3848ZM22.9683 38.1554L22.8726 38.6461L22.8618 38.6441L22.8512 38.6415L22.9683 38.1554ZM18.0474 36.5814L18.2008 36.1055L18.2177 36.111L18.2342 36.1176L18.0474 36.5814ZM17.9526 36.2961L17.5442 36.0076L17.5675 35.9746L17.5958 35.9458L17.9526 36.2961ZM18.6372 35.5502L18.2578 35.2245L18.4676 34.98L18.777 35.0701L18.6372 35.5502ZM33.6639 37.154L33.6156 36.6563L33.6172 36.6562L33.6639 37.154ZM46.9046 32.7473L46.6438 32.3207L46.8557 32.1912L47.0869 32.2817L46.9046 32.7473ZM48.14 33.3217L47.9682 33.7912L47.9337 33.7786L47.9014 33.7611L48.14 33.3217ZM48.2032 33.6107L48.556 33.9651L48.5337 33.9873L48.5088 34.0065L48.2032 33.6107ZM44.4042 36.035L44.1586 35.5995L44.1663 35.5952L44.174 35.5912L44.4042 36.035ZM44.3726 36.2812L44.7206 35.9222L44.7381 35.9391L44.7538 35.9576L44.3726 36.2812ZM48.4786 40.4809L48.1567 40.8637L48.1465 40.8547L48.4786 40.4809ZM48.6423 40.535L48.837 40.9955L48.7583 41.0288L48.673 41.034L48.6423 40.535ZM60.75 32.3445L61.2425 32.2583L61.2871 32.513L61.105 32.6966L60.75 32.3445ZM43.954 2.33886L44.1045 1.86205L44.2156 1.89711L44.2997 1.97763L43.954 2.33886ZM31.5337 0.000316547L31.565 -0.498707L31.5669 -0.498581L31.5337 0.000316547ZM31.3737 0.101021L30.8934 -0.0379285L30.9007 -0.0630491L30.9105 -0.0872745L31.3737 0.101021ZM30.7207 3.04937L31.2148 3.12623L31.1457 3.57017L30.6969 3.5488L30.7207 3.04937ZM24.2334 3.20975L24.1845 2.71214L24.185 2.7121L24.2334 3.20975ZM17.9395 4.30815L18.0621 4.7929L17.7394 4.87448L17.5396 4.60827L17.9395 4.30815ZM15.7405 1.63953L16.1079 1.30041L16.1097 1.30234L15.7405 1.63953ZM15.5656 1.56867L15.4332 1.08653L15.4845 1.07243L15.5376 1.06945L15.5656 1.56867ZM15.5098 24.8067L15.9895 24.6655L15.9914 24.6721L15.5098 24.8067ZM34.0844 22.9773L34.5641 22.836L34.5659 22.8427L34.0844 22.9773ZM5.57037 6.3012C1.75301 15.8268 1.4566 26.1041 5.82801 37.5065L4.89428 37.8644C0.436062 26.2357 0.727535 15.6975 4.64214 5.92921L5.57037 6.3012ZM5.59161 37.2417C11.3787 40.2476 16.5365 41.8325 21.4347 42.7342L21.2536 43.7177C16.2654 42.7993 11.0122 41.1841 5.13067 38.1292L5.59161 37.2417ZM21.3441 42.726C21.3521 42.726 21.3086 42.7241 21.2467 42.7547C21.174 42.7905 21.1245 42.8464 21.0968 42.8945L21.9635 43.3933C21.9079 43.4899 21.8203 43.5868 21.689 43.6515C21.5685 43.711 21.446 43.726 21.3441 43.726V42.726ZM21.0717 42.9444C21.7292 41.4335 22.2554 39.8685 22.6443 38.2668L23.616 38.5027C23.2136 40.1602 22.6691 41.7798 21.9886 43.3434L21.0717 42.9444ZM22.6355 38.3115C22.6244 38.3867 22.6426 38.4635 22.6866 38.5258L23.5036 37.9493C23.6079 38.097 23.6512 38.2793 23.6248 38.458L22.6355 38.3115ZM22.6866 38.5258C22.7306 38.5882 22.7971 38.6314 22.8726 38.6461L23.064 37.6646C23.2419 37.6993 23.3993 37.8014 23.5036 37.9493L22.6866 38.5258ZM22.8512 38.6415C21.1511 38.2319 19.4832 37.6984 17.8607 37.0453L18.2342 36.1176C19.8114 36.7525 21.4328 37.2711 23.0854 37.6693L22.8512 38.6415ZM17.8941 37.0574C17.7914 37.0243 17.698 36.9674 17.6215 36.8915L18.3256 36.1815C18.2906 36.1468 18.2479 36.1207 18.2008 36.1055L17.8941 37.0574ZM17.6215 36.8915C17.5449 36.8156 17.4874 36.7228 17.4534 36.6207L18.4023 36.3051C18.3869 36.2585 18.3606 36.2162 18.3256 36.1815L17.6215 36.8915ZM17.4534 36.6207C17.4195 36.5186 17.41 36.4099 17.4257 36.3034L18.415 36.4497C18.4222 36.4011 18.4178 36.3516 18.4023 36.3051L17.4534 36.6207ZM17.4257 36.3034C17.4415 36.1968 17.4821 36.0955 17.5442 36.0076L18.3609 36.5847C18.3892 36.5446 18.4078 36.4984 18.415 36.4497L17.4257 36.3034ZM17.5958 35.9458C17.8241 35.7134 18.0472 35.4699 18.2578 35.2245L19.0166 35.8758C18.7919 36.1377 18.5536 36.3977 18.3093 36.6465L17.5958 35.9458ZM18.777 35.0701C23.9836 36.5866 28.9284 37.1118 33.6156 36.6563L33.7123 37.6516C28.8815 38.1211 23.8085 37.5771 18.4974 36.0302L18.777 35.0701ZM33.6172 36.6562C38.2318 36.2229 42.687 34.7401 46.6438 32.3207L47.1655 33.1739C43.0787 35.6727 38.477 37.2042 33.7107 37.6518L33.6172 36.6562ZM47.0869 32.2817C47.5294 32.4549 47.9608 32.6555 48.3785 32.8822L47.9014 33.7611C47.5201 33.5541 47.1263 33.371 46.7224 33.2129L47.0869 32.2817ZM48.3118 32.8521C48.4186 32.8912 48.5138 32.9567 48.5885 33.0423L47.8348 33.6996C47.8708 33.7408 47.9166 33.7724 47.9682 33.7912L48.3118 32.8521ZM48.5885 33.0423C48.6632 33.128 48.715 33.231 48.7393 33.3419L47.7624 33.5557C47.774 33.6089 47.7989 33.6584 47.8348 33.6996L48.5885 33.0423ZM48.7393 33.3419C48.7635 33.4528 48.7595 33.568 48.7275 33.6769L47.768 33.3949C47.7527 33.4472 47.7507 33.5025 47.7624 33.5557L48.7393 33.3419ZM48.7275 33.6769C48.6955 33.7858 48.6365 33.8849 48.556 33.9651L47.8505 33.2564C47.8117 33.2949 47.7834 33.3426 47.768 33.3949L48.7275 33.6769ZM48.5088 34.0065C47.2936 34.9449 45.9969 35.7724 44.6344 36.4789L44.174 35.5912C45.4835 34.9121 46.7297 34.1169 47.8976 33.215L48.5088 34.0065ZM44.6498 36.4706C44.6968 36.4441 44.7368 36.407 44.7668 36.3625L43.937 35.8044C43.9939 35.7198 44.0697 35.6497 44.1586 35.5995L44.6498 36.4706ZM44.7668 36.3625C44.7968 36.3179 44.8159 36.2671 44.8227 36.2139L43.8309 36.0865C43.8438 35.9855 43.8802 35.8889 43.937 35.8044L44.7668 36.3625ZM44.8227 36.2139C44.8295 36.1607 44.8239 36.1067 44.8062 36.0561L43.8622 36.3861C43.8286 36.2901 43.8179 36.1875 43.8309 36.0865L44.8227 36.2139ZM44.8062 36.0561C44.7885 36.0056 44.7593 35.9597 44.7206 35.9222L44.0246 36.6402C43.9513 36.5692 43.8958 36.4822 43.8622 36.3861L44.8062 36.0561ZM44.7538 35.9576C46.0073 37.4345 47.363 38.821 48.8106 40.1071L48.1465 40.8547C46.6637 39.5375 45.2753 38.1173 43.9914 36.6048L44.7538 35.9576ZM48.8004 40.0982C48.7479 40.0541 48.6803 40.0317 48.6116 40.0359L48.673 41.034C48.4853 41.0456 48.3006 40.9845 48.1568 40.8636L48.8004 40.0982ZM48.4476 40.0744C52.9168 38.1854 56.9751 35.4401 60.395 31.9924L61.105 32.6966C57.5934 36.2367 53.4262 39.0558 48.837 40.9955L48.4476 40.0744ZM60.2575 32.4307C58.4756 22.2528 53.6994 12.358 43.6083 2.70008L44.2997 1.97763C54.5394 11.7777 59.4226 21.8631 61.2425 32.2583L60.2575 32.4307ZM43.8035 2.81566C39.8092 1.55478 35.679 0.777109 31.5006 0.499214L31.5669 -0.498581C35.8251 -0.215385 40.0341 0.577119 44.1045 1.86205L43.8035 2.81566ZM31.5024 0.499336C31.5734 0.503788 31.6439 0.485764 31.7039 0.448005L31.1712 -0.398315C31.2886 -0.472209 31.4264 -0.507398 31.565 -0.498703L31.5024 0.499336ZM31.7039 0.448005C31.7638 0.410277 31.8103 0.354741 31.8369 0.289316L30.9105 -0.0872745C30.9627 -0.215629 31.0539 -0.324451 31.1712 -0.398315L31.7039 0.448005ZM31.854 0.23997C31.5799 1.18744 31.3664 2.15149 31.2148 3.12623L30.2267 2.97251C30.3848 1.95584 30.6075 0.950323 30.8934 -0.0379285L31.854 0.23997ZM30.6969 3.5488C28.5576 3.44692 26.4136 3.49993 24.2818 3.7074L24.185 2.7121C26.3647 2.49996 28.5569 2.44576 30.7445 2.54993L30.6969 3.5488ZM24.2823 3.70735C22.1848 3.91341 20.1056 4.27627 18.0621 4.7929L17.817 3.8234C19.9089 3.29454 22.0373 2.92309 24.1845 2.71214L24.2823 3.70735ZM17.5396 4.60827C16.9261 3.79069 16.0842 2.75725 15.3713 1.97672L16.1097 1.30234C16.848 2.11067 17.7102 3.16961 18.3395 4.00803L17.5396 4.60827ZM15.3731 1.97865C15.4009 2.00874 15.435 2.03242 15.4732 2.04789L15.8488 1.12109C15.9474 1.16107 16.0359 1.22234 16.1079 1.30041L15.3731 1.97865ZM15.4732 2.04789C15.5114 2.06336 15.5525 2.07019 15.5936 2.06788L15.5376 1.06945C15.6439 1.06349 15.7501 1.08112 15.8488 1.12109L15.4732 2.04789ZM15.6981 2.0508C12.0603 3.0502 8.58244 4.56199 5.36841 6.54096L4.8441 5.68944C8.13877 3.6608 11.704 2.11104 15.4332 1.08653L15.6981 2.0508ZM22.102 30.2425C18.9985 30.5482 15.9189 28.1274 15.0283 24.9413L15.9914 24.6721C16.7751 27.476 19.4666 29.4973 22.0039 29.2473L22.102 30.2425ZM15.0302 24.9479C14.5588 23.3463 14.7349 21.7879 15.4468 20.5782C16.1619 19.3629 17.3998 18.5333 18.9677 18.3789L19.0658 19.374C17.8132 19.4974 16.8604 20.1476 16.3086 21.0853C15.7536 22.0286 15.5865 23.2964 15.9895 24.6655L15.0302 24.9479ZM18.9677 18.3789C22.0715 18.0731 25.1491 20.4962 26.0396 23.6819L25.0765 23.9511C24.2926 21.1468 21.6028 19.1241 19.0658 19.374L18.9677 18.3789ZM26.0396 23.6819C26.4904 25.2947 26.2983 26.8523 25.585 28.0571C24.8687 29.2671 23.642 30.0916 22.1017 30.2425L22.0042 29.2473C23.2248 29.1277 24.1693 28.4855 24.7245 27.5477C25.2828 26.6046 25.4628 25.3332 25.0765 23.9511L26.0396 23.6819ZM40.6749 28.4149C37.602 28.7188 34.4937 26.2989 33.6028 23.1119L34.5659 22.8427C35.3494 25.6456 38.0681 27.6678 40.5765 27.4197L40.6749 28.4149ZM33.6048 23.1185C33.1333 21.5179 33.309 19.96 34.0204 18.7505C34.735 17.5354 35.9725 16.7058 37.5404 16.5513L37.6385 17.5465C36.386 17.6699 35.4337 18.32 34.8823 19.2574C34.3277 20.2005 34.161 21.4678 34.564 22.836L33.6048 23.1185ZM37.5404 16.5513C40.6439 16.2456 43.7256 18.6683 44.6124 21.8549L43.649 22.123C42.8689 19.3196 40.1759 17.2965 37.6385 17.5465L37.5404 16.5513ZM44.6124 21.8549C45.0612 23.4674 44.8691 25.0247 44.1564 26.2294C43.4406 27.4394 42.2148 28.264 40.6744 28.4149L40.5769 27.4197C41.7974 27.3001 42.7409 26.6581 43.2958 25.7202C43.8537 24.7771 44.0338 23.5054 43.649 22.123L44.6124 21.8549Z" fill="black" mask="url(#path-120-inside-58_1133_18717)"/>
<mask id="path-122-inside-59_1133_18717" fill="white">
<path d="M5.36103 37.6836L3.2364 42.4539C4.8308 43.2838 6.37682 44.0055 7.88749 44.6358L10.0103 39.8692C8.5033 39.2389 6.95542 38.5172 5.35917 37.6892"/>
</mask>
<path d="M5.36103 37.6836L3.2364 42.4539C4.8308 43.2838 6.37682 44.0055 7.88749 44.6358L10.0103 39.8692C8.5033 39.2389 6.95542 38.5172 5.35917 37.6892" fill="#5865F2"/>
<path d="M3.2364 42.4539L3.00556 42.8974L2.58826 42.6802L2.77966 42.2505L3.2364 42.4539ZM7.88749 44.6358L8.34424 44.8392L8.1456 45.2853L7.69496 45.0972L7.88749 44.6358ZM10.0103 39.8692L10.2032 39.4079L10.6751 39.6053L10.467 40.0726L10.0103 39.8692ZM5.81778 37.887L3.69315 42.6573L2.77966 42.2505L4.90428 37.4802L5.81778 37.887ZM3.46725 42.0104C5.04947 42.8339 6.58272 43.5496 8.08003 44.1743L7.69496 45.0972C6.17092 44.4613 4.61212 43.7336 3.00556 42.8974L3.46725 42.0104ZM7.43074 44.4324L9.5535 39.6658L10.467 40.0726L8.34424 44.8392L7.43074 44.4324ZM9.81731 40.3305C8.29741 39.6947 6.7371 38.9672 5.12894 38.133L5.58939 37.2453C7.17374 38.0672 8.70919 38.783 10.2032 39.4079L9.81731 40.3305Z" fill="black" mask="url(#path-122-inside-59_1133_18717)"/>
<mask id="path-124-inside-60_1133_18717" fill="white">
<path d="M10.0102 39.8692L7.8856 44.6414C9.5954 45.3572 11.3402 45.9858 13.1134 46.5249L15.238 41.7527C13.465 41.2133 11.7201 40.5847 10.0102 39.8692Z"/>
</mask>
<path d="M10.0102 39.8692L7.8856 44.6414C9.5954 45.3572 11.3402 45.9858 13.1134 46.5249L15.238 41.7527C13.465 41.2133 11.7201 40.5847 10.0102 39.8692Z" fill="#5865F2"/>
<path d="M7.8856 44.6414L7.69251 45.1026L7.22085 44.9051L7.42882 44.438L7.8856 44.6414ZM13.1134 46.5249L13.5702 46.7283L13.3906 47.1317L12.968 47.0033L13.1134 46.5249ZM15.238 41.7527L15.3836 41.2744L15.925 41.4391L15.6948 41.9561L15.238 41.7527ZM10.467 40.0726L8.34237 44.8447L7.42882 44.438L9.55344 39.6658L10.467 40.0726ZM8.07868 44.1802C9.77291 44.8894 11.5018 45.5124 13.2589 46.0465L12.968 47.0033C11.1786 46.4593 9.4179 45.8249 7.69251 45.1026L8.07868 44.1802ZM12.6566 46.3215L14.7813 41.5493L15.6948 41.9561L13.5702 46.7283L12.6566 46.3215ZM15.0925 42.2311C13.3033 41.6868 11.5427 41.0525 9.81721 40.3304L10.2032 39.408C11.8976 40.117 13.6266 40.7399 15.3836 41.2744L15.0925 42.2311Z" fill="black" mask="url(#path-124-inside-60_1133_18717)"/>
<mask id="path-126-inside-61_1133_18717" fill="white">
<path d="M15.238 41.7471L13.1134 46.5193C15.1211 47.1281 17.1615 47.6225 19.225 48L21.344 43.2259C19.2804 42.8491 17.2399 42.3547 15.2325 41.7452"/>
</mask>
<path d="M15.238 41.7471L13.1134 46.5193C15.1211 47.1281 17.1615 47.6225 19.225 48L21.344 43.2259C19.2804 42.8491 17.2399 42.3547 15.2325 41.7452" fill="#5865F2"/>
<path d="M13.1134 46.5193L12.9683 46.9978L12.4263 46.8334L12.6567 46.3159L13.1134 46.5193ZM19.225 48L19.682 48.2028L19.5222 48.5627L19.135 48.4918L19.225 48ZM21.344 43.2259L21.4338 42.7341L22.0587 42.8482L21.801 43.4288L21.344 43.2259ZM15.6948 41.9505L13.5702 46.7226L12.6567 46.3159L14.7813 41.5437L15.6948 41.9505ZM13.2585 46.0408C15.2481 46.6441 17.2701 47.134 19.3149 47.5081L19.135 48.4918C17.0529 48.1109 14.9941 47.6121 12.9683 46.9978L13.2585 46.0408ZM18.768 47.7971L20.887 43.0231L21.801 43.4288L19.682 48.2028L18.768 47.7971ZM21.2542 43.7178C19.1719 43.3375 17.1129 42.8387 15.0872 42.2237L15.3777 41.2668C17.367 41.8708 19.389 42.3606 21.4338 42.7341L21.2542 43.7178Z" fill="black" mask="url(#path-126-inside-61_1133_18717)"/>
</svg>
