<svg width="89" height="24" viewBox="0 0 89 24" fill="none" xmlns="http://www.w3.org/2000/svg">
<rect opacity="0.2" width="89" height="24" rx="12" fill="url(#paint0_linear_232_538)"/>
<path d="M80.1642 11.1709C80.0475 11.168 79.9313 11.1924 79.8255 11.2419L75.7619 7.17592C75.809 7.06896 75.8343 6.95356 75.8364 6.83655C75.8358 6.61497 75.7474 6.40249 75.5909 6.24566C75.4336 6.0886 75.2213 6.00035 75 6C74.7788 6.00216 74.5673 6.09136 74.4104 6.24859C74.2539 6.40542 74.1655 6.61757 74.1642 6.83915C74.1617 6.95629 74.1858 7.07245 74.2352 7.17853L70.1751 11.2318C70.068 11.1862 69.9529 11.1621 69.8364 11.1608C69.6155 11.1612 69.4037 11.2491 69.2464 11.4055C69.0897 11.5617 69.0013 11.7732 69 11.9945C69.0025 12.2161 69.0913 12.4278 69.2474 12.5837C69.4038 12.7402 69.6151 12.8294 69.8364 12.8317C69.9532 12.8349 70.0693 12.8105 70.1751 12.7607L74.2352 16.8244C74.1897 16.9315 74.1655 17.0466 74.1642 17.1631C74.1646 17.3847 74.2526 17.5972 74.4094 17.754C74.5666 17.9111 74.7787 17.9995 75 18C75.2213 17.9977 75.4326 17.9086 75.589 17.7521C75.7451 17.5961 75.834 17.3844 75.8364 17.1628C75.8383 17.0457 75.8129 16.9295 75.7619 16.8241L79.8255 12.7568C79.9326 12.8027 80.0478 12.8268 80.1642 12.8278C80.3856 12.8273 80.5979 12.739 80.7552 12.5818C80.9119 12.4249 81 12.2121 81 11.9906C80.9977 11.7709 80.9084 11.5614 80.7519 11.4075C80.5947 11.2534 80.3835 11.1682 80.1642 11.1703V11.1709ZM79.3833 11.7114L77.8047 12.094C77.7363 12.0007 77.6473 11.9242 77.5444 11.8708C77.4415 11.8175 77.3276 11.7888 77.2118 11.7866C77.0416 11.786 76.8766 11.8462 76.746 11.9564L75.72 11.4791V11.455C75.7211 11.3157 75.6814 11.1792 75.6058 11.0626C75.53 10.9458 75.4216 10.8537 75.2942 10.798V7.62039C75.3048 7.62039 75.3148 7.60965 75.3255 7.60965L79.3891 11.6769C79.3849 11.687 79.3823 11.6977 79.3814 11.7088L79.3836 11.7111L79.3833 11.7114ZM75.0023 16.3396H74.939L73.352 12.9823C73.4618 12.8521 73.5217 12.6866 73.521 12.5157L74.5578 12.0286C74.6856 12.1276 74.8412 12.1833 75.0023 12.1877C75.1671 12.1851 75.3268 12.1292 75.4574 12.0286L76.4948 12.5157V12.5265C76.4939 12.6972 76.5539 12.8625 76.6638 12.9924L75.0555 16.3396H75.0023ZM74.6932 7.62039V10.798C74.5681 10.8569 74.4616 10.9497 74.3865 11.0655C74.3113 11.1813 74.27 11.3164 74.2671 11.4547V11.4752L73.2411 11.9515C73.1111 11.8415 72.9462 11.7813 72.7759 11.7817C72.6595 11.7823 72.5453 11.811 72.4424 11.8653C72.3397 11.9194 72.2515 11.9978 72.1853 12.0937L70.6231 11.7124C70.6231 11.7016 70.6125 11.6912 70.6125 11.6697L74.6755 7.60249C74.672 7.60965 74.6826 7.60965 74.6932 7.62039ZM70.6089 12.3338L72.0795 12.6937C72.1192 12.8515 72.2108 12.9918 72.3395 13.0913C72.4685 13.1912 72.6268 13.2449 72.7895 13.2439H72.8001L73.9639 15.7015L70.6089 12.3335V12.3338ZM77.2012 13.2443H77.2118C77.374 13.2436 77.5315 13.1893 77.6602 13.0897C77.7886 12.9901 77.8805 12.8512 77.9218 12.694L79.3923 12.3342V12.3449L76.0383 15.7018L77.2015 13.2443H77.2012Z" fill="url(#paint1_linear_232_538)"/>
<path d="M13.5895 11.0497C13.5303 10.858 13.4486 10.6863 13.3445 10.5348C13.2427 10.3809 13.1196 10.2495 12.9751 10.1406C12.8331 10.0317 12.6697 9.95005 12.4851 9.8956C12.3004 9.83878 12.0992 9.81037 11.8814 9.81037C11.4908 9.81037 11.1428 9.90862 10.8374 10.1051C10.532 10.3016 10.2917 10.5904 10.1165 10.9716C9.94366 11.3504 9.85724 11.812 9.85724 12.3565C9.85724 12.9058 9.94366 13.371 10.1165 13.7521C10.2893 14.1333 10.5296 14.4233 10.8374 14.6222C11.1451 14.8187 11.5026 14.9169 11.9098 14.9169C12.2791 14.9169 12.5987 14.8459 12.8686 14.7038C13.1409 14.5618 13.3504 14.3606 13.4972 14.1001C13.6439 13.8374 13.7173 13.5296 13.7173 13.1768L14.0156 13.223H12.0412V12.1932H14.9922V13.0668C14.9922 13.6894 14.8596 14.228 14.5945 14.6825C14.3293 15.1371 13.9647 15.4875 13.5007 15.7337C13.0367 15.9775 12.504 16.0994 11.9027 16.0994C11.2327 16.0994 10.6444 15.9491 10.1378 15.6484C9.63352 15.3454 9.23935 14.9157 8.95526 14.3594C8.67353 13.8007 8.53267 13.1378 8.53267 12.3707C8.53267 11.7836 8.61553 11.2592 8.78125 10.7976C8.94934 10.3359 9.18371 9.94413 9.48438 9.62216C9.78504 9.29782 10.1378 9.05161 10.5426 8.88352C10.9474 8.71307 11.3878 8.62784 11.8636 8.62784C12.2661 8.62784 12.6413 8.68703 12.9893 8.8054C13.3374 8.9214 13.6463 9.08712 13.9162 9.30256C14.1884 9.51799 14.4122 9.77367 14.5874 10.0696C14.7625 10.3655 14.8774 10.6922 14.9318 11.0497H13.5895ZM16.2662 16V8.72727H20.9963V9.83168H17.5836V11.8061H20.7512V12.9105H17.5836V14.8956H21.0247V16H16.2662ZM22.0208 9.83168V8.72727H27.8233V9.83168H25.5755V16H24.2686V9.83168H22.0208ZM32.4167 10.5455L33.5176 12.5589L34.6362 10.5455H35.9963L34.3521 13.2727L36.0247 16H34.6717L33.5176 14.0362L32.3741 16H31.0105L32.6724 13.2727L31.0531 10.5455H32.4167ZM39.5119 16H37.0474V8.72727H39.5616C40.2837 8.72727 40.9039 8.87287 41.4224 9.16406C41.9432 9.45289 42.3433 9.86837 42.6227 10.4105C42.902 10.9527 43.0417 11.6013 43.0417 12.3565C43.0417 13.1141 42.9009 13.7652 42.6191 14.3097C42.3398 14.8542 41.9361 15.272 41.4082 15.5632C40.8826 15.8544 40.2505 16 39.5119 16ZM38.3649 14.8601H39.448C39.9546 14.8601 40.3772 14.7678 40.7157 14.5831C41.0543 14.3961 41.3088 14.1179 41.4792 13.7486C41.6497 13.3769 41.7349 12.9129 41.7349 12.3565C41.7349 11.8002 41.6497 11.3385 41.4792 10.9716C41.3088 10.6023 41.0566 10.3265 40.7228 10.1442C40.3914 9.95952 39.9795 9.86719 39.487 9.86719H38.3649V14.8601ZM44.2935 16V8.72727H49.0236V9.83168H45.611V11.8061H48.7786V12.9105H45.611V14.8956H49.052V16H44.2935ZM54.9522 8.72727H56.2697V13.4787C56.2697 13.9995 56.1466 14.4576 55.9004 14.853C55.6565 15.2483 55.3133 15.5573 54.8706 15.7798C54.4279 16 53.9106 16.1101 53.3187 16.1101C52.7245 16.1101 52.206 16 51.7633 15.7798C51.3206 15.5573 50.9773 15.2483 50.7335 14.853C50.4896 14.4576 50.3677 13.9995 50.3677 13.4787V8.72727H51.6852V13.3686C51.6852 13.6716 51.7515 13.9415 51.8841 14.1783C52.019 14.415 52.2084 14.6009 52.4522 14.7358C52.6961 14.8684 52.9849 14.9347 53.3187 14.9347C53.6525 14.9347 53.9413 14.8684 54.1852 14.7358C54.4314 14.6009 54.6208 14.415 54.7534 14.1783C54.8859 13.9415 54.9522 13.6716 54.9522 13.3686V8.72727ZM61.6541 10.7266C61.621 10.4164 61.4813 10.175 61.2351 10.0021C60.9912 9.82931 60.674 9.7429 60.2834 9.7429C60.0088 9.7429 59.7732 9.78433 59.5767 9.86719C59.3802 9.95005 59.2299 10.0625 59.1257 10.2045C59.0215 10.3466 58.9683 10.5088 58.9659 10.6911C58.9659 10.8426 59.0002 10.974 59.0689 11.0852C59.1399 11.1965 59.2358 11.2912 59.3565 11.3693C59.4773 11.4451 59.611 11.509 59.7578 11.5611C59.9046 11.6132 60.0526 11.657 60.2017 11.6925L60.8835 11.8629C61.1581 11.9268 61.4221 12.0133 61.6754 12.1222C61.9311 12.2311 62.1596 12.3684 62.3608 12.5341C62.5644 12.6998 62.7254 12.8999 62.8438 13.1342C62.9621 13.3686 63.0213 13.6432 63.0213 13.9581C63.0213 14.3842 62.9124 14.7595 62.6946 15.0838C62.4768 15.4058 62.1619 15.6579 61.75 15.8402C61.3404 16.0201 60.8445 16.1101 60.2621 16.1101C59.6963 16.1101 59.205 16.0225 58.7884 15.8473C58.3741 15.6721 58.0497 15.4164 57.8153 15.0803C57.5833 14.7441 57.4579 14.3345 57.4389 13.8516H58.7351C58.754 14.1049 58.8321 14.3156 58.9695 14.4837C59.1068 14.6518 59.2855 14.7772 59.5057 14.8601C59.7282 14.9429 59.9768 14.9844 60.2514 14.9844C60.5379 14.9844 60.7888 14.9418 61.0043 14.8565C61.2221 14.7689 61.3925 14.6482 61.5156 14.4943C61.6387 14.3381 61.7015 14.1558 61.7038 13.9474C61.7015 13.758 61.6458 13.6018 61.5369 13.4787C61.428 13.3532 61.2753 13.2491 61.0788 13.1662C60.8847 13.081 60.6574 13.0052 60.397 12.9389L59.5696 12.7259C58.9706 12.572 58.4972 12.3388 58.1491 12.0263C57.8035 11.7114 57.6307 11.2936 57.6307 10.7727C57.6307 10.3442 57.7467 9.96899 57.9787 9.64702C58.2131 9.32505 58.5315 9.07528 58.9339 8.89773C59.3364 8.7178 59.7921 8.62784 60.3011 8.62784C60.8172 8.62784 61.2694 8.7178 61.6577 8.89773C62.0483 9.07528 62.3549 9.32268 62.5774 9.63991C62.8 9.95478 62.9148 10.317 62.9219 10.7266H61.6541Z" fill="url(#paint2_linear_232_538)"/>
<defs>
<linearGradient id="paint0_linear_232_538" x1="0" y1="12.0091" x2="88.9889" y2="12.0091" gradientUnits="userSpaceOnUse">
<stop stop-color="#359ECC"/>
<stop offset="0.9341" stop-color="#31B0A9"/>
</linearGradient>
<linearGradient id="paint1_linear_232_538" x1="69" y1="12.0045" x2="80.9985" y2="12.0045" gradientUnits="userSpaceOnUse">
<stop stop-color="#0BADF4"/>
<stop offset="0.9341" stop-color="#30EFE4"/>
</linearGradient>
<linearGradient id="paint2_linear_232_538" x1="8" y1="12.0045" x2="63.993" y2="12.0045" gradientUnits="userSpaceOnUse">
<stop stop-color="#0BADF4"/>
<stop offset="0.9341" stop-color="#30EFE4"/>
</linearGradient>
</defs>
</svg>
