<svg width="89" height="24" viewBox="0 0 89 24" fill="none" xmlns="http://www.w3.org/2000/svg">
<rect opacity="0.2" width="89" height="24" rx="12" fill="url(#paint0_linear_151_624)"/>
<path d="M80.1642 11.1709C80.0475 11.168 79.9313 11.1924 79.8255 11.2419L75.7619 7.17592C75.809 7.06896 75.8343 6.95356 75.8364 6.83655C75.8358 6.61497 75.7474 6.40249 75.5909 6.24566C75.4336 6.0886 75.2213 6.00035 75 6C74.7788 6.00216 74.5673 6.09136 74.4104 6.24859C74.2539 6.40542 74.1655 6.61757 74.1642 6.83915C74.1617 6.95629 74.1858 7.07245 74.2352 7.17853L70.1751 11.2318C70.068 11.1862 69.9529 11.1621 69.8364 11.1608C69.6155 11.1612 69.4037 11.2491 69.2464 11.4055C69.0897 11.5617 69.0013 11.7732 69 11.9945C69.0025 12.2161 69.0913 12.4278 69.2474 12.5837C69.4038 12.7402 69.6151 12.8294 69.8364 12.8317C69.9532 12.8349 70.0693 12.8105 70.1751 12.7607L74.2352 16.8244C74.1897 16.9315 74.1655 17.0466 74.1642 17.1631C74.1646 17.3847 74.2526 17.5972 74.4094 17.754C74.5666 17.9111 74.7787 17.9995 75 18C75.2213 17.9977 75.4326 17.9086 75.589 17.7521C75.7451 17.5961 75.834 17.3844 75.8364 17.1628C75.8383 17.0457 75.8129 16.9295 75.7619 16.8241L79.8255 12.7568C79.9326 12.8027 80.0478 12.8268 80.1642 12.8278C80.3856 12.8273 80.5979 12.739 80.7552 12.5818C80.9119 12.4249 81 12.2121 81 11.9906C80.9977 11.7709 80.9084 11.5614 80.7519 11.4075C80.5947 11.2534 80.3835 11.1682 80.1642 11.1703V11.1709ZM79.3833 11.7114L77.8047 12.094C77.7363 12.0007 77.6473 11.9242 77.5444 11.8708C77.4415 11.8175 77.3276 11.7888 77.2118 11.7866C77.0416 11.786 76.8766 11.8462 76.746 11.9564L75.72 11.4791V11.455C75.7211 11.3157 75.6814 11.1792 75.6058 11.0626C75.53 10.9458 75.4216 10.8537 75.2942 10.798V7.62039C75.3048 7.62039 75.3148 7.60965 75.3255 7.60965L79.3891 11.6769C79.3849 11.687 79.3823 11.6977 79.3814 11.7088L79.3836 11.7111L79.3833 11.7114ZM75.0023 16.3396H74.939L73.352 12.9823C73.4618 12.8521 73.5217 12.6866 73.521 12.5157L74.5578 12.0286C74.6856 12.1276 74.8412 12.1833 75.0023 12.1877C75.1671 12.1851 75.3268 12.1292 75.4574 12.0286L76.4948 12.5157V12.5265C76.4939 12.6972 76.5539 12.8625 76.6638 12.9924L75.0555 16.3396H75.0023ZM74.6932 7.62039V10.798C74.5681 10.8569 74.4616 10.9497 74.3865 11.0655C74.3113 11.1813 74.27 11.3164 74.2671 11.4547V11.4752L73.2411 11.9515C73.1111 11.8415 72.9462 11.7813 72.7759 11.7817C72.6595 11.7823 72.5453 11.811 72.4424 11.8653C72.3397 11.9194 72.2515 11.9978 72.1853 12.0937L70.6231 11.7124C70.6231 11.7016 70.6125 11.6912 70.6125 11.6697L74.6755 7.60249C74.672 7.60965 74.6826 7.60965 74.6932 7.62039ZM70.6089 12.3338L72.0795 12.6937C72.1192 12.8515 72.2108 12.9918 72.3395 13.0913C72.4685 13.1912 72.6268 13.2449 72.7895 13.2439H72.8001L73.9639 15.7015L70.6089 12.3335V12.3338ZM77.2012 13.2443H77.2118C77.374 13.2436 77.5315 13.1893 77.6602 13.0897C77.7886 12.9901 77.8805 12.8512 77.9218 12.694L79.3923 12.3342V12.3449L76.0383 15.7018L77.2015 13.2443H77.2012Z" fill="url(#paint1_linear_151_624)"/>
<path d="M13.5895 11.0497C13.5303 10.858 13.4486 10.6863 13.3445 10.5348C13.2427 10.3809 13.1196 10.2495 12.9751 10.1406C12.8331 10.0317 12.6697 9.95005 12.4851 9.8956C12.3004 9.83878 12.0992 9.81037 11.8814 9.81037C11.4908 9.81037 11.1428 9.90862 10.8374 10.1051C10.532 10.3016 10.2917 10.5904 10.1165 10.9716C9.94366 11.3504 9.85724 11.812 9.85724 12.3565C9.85724 12.9058 9.94366 13.371 10.1165 13.7521C10.2893 14.1333 10.5296 14.4233 10.8374 14.6222C11.1451 14.8187 11.5026 14.9169 11.9098 14.9169C12.2791 14.9169 12.5987 14.8459 12.8686 14.7038C13.1409 14.5618 13.3504 14.3606 13.4972 14.1001C13.6439 13.8374 13.7173 13.5296 13.7173 13.1768L14.0156 13.223H12.0412V12.1932H14.9922V13.0668C14.9922 13.6894 14.8596 14.228 14.5945 14.6825C14.3293 15.1371 13.9647 15.4875 13.5007 15.7337C13.0367 15.9775 12.504 16.0994 11.9027 16.0994C11.2327 16.0994 10.6444 15.9491 10.1378 15.6484C9.63352 15.3454 9.23935 14.9157 8.95526 14.3594C8.67353 13.8007 8.53267 13.1378 8.53267 12.3707C8.53267 11.7836 8.61553 11.2592 8.78125 10.7976C8.94934 10.3359 9.18371 9.94413 9.48438 9.62216C9.78504 9.29782 10.1378 9.05161 10.5426 8.88352C10.9474 8.71307 11.3878 8.62784 11.8636 8.62784C12.2661 8.62784 12.6413 8.68703 12.9893 8.8054C13.3374 8.9214 13.6463 9.08712 13.9162 9.30256C14.1884 9.51799 14.4122 9.77367 14.5874 10.0696C14.7625 10.3655 14.8774 10.6922 14.9318 11.0497H13.5895ZM16.2662 16V8.72727H20.9963V9.83168H17.5836V11.8061H20.7512V12.9105H17.5836V14.8956H21.0247V16H16.2662ZM22.0208 9.83168V8.72727H27.8233V9.83168H25.5755V16H24.2686V9.83168H22.0208ZM33.8869 16H31.4224V8.72727H33.9366C34.6587 8.72727 35.2789 8.87287 35.7974 9.16406C36.3182 9.45289 36.7183 9.86837 36.9977 10.4105C37.277 10.9527 37.4167 11.6013 37.4167 12.3565C37.4167 13.1141 37.2759 13.7652 36.9941 14.3097C36.7148 14.8542 36.3111 15.272 35.7832 15.5632C35.2576 15.8544 34.6255 16 33.8869 16ZM32.7399 14.8601H33.823C34.3296 14.8601 34.7522 14.7678 35.0907 14.5831C35.4293 14.3961 35.6838 14.1179 35.8542 13.7486C36.0247 13.3769 36.1099 12.9129 36.1099 12.3565C36.1099 11.8002 36.0247 11.3385 35.8542 10.9716C35.6838 10.6023 35.4316 10.3265 35.0978 10.1442C34.7664 9.95952 34.3545 9.86719 33.862 9.86719H32.7399V14.8601ZM38.6685 16V8.72727H43.3986V9.83168H39.986V11.8061H43.1536V12.9105H39.986V14.8956H43.427V16H38.6685ZM49.3272 8.72727H50.6447V13.4787C50.6447 13.9995 50.5216 14.4576 50.2754 14.853C50.0315 15.2483 49.6883 15.5573 49.2456 15.7798C48.8029 16 48.2856 16.1101 47.6937 16.1101C47.0995 16.1101 46.581 16 46.1383 15.7798C45.6956 15.5573 45.3523 15.2483 45.1085 14.853C44.8646 14.4576 44.7427 13.9995 44.7427 13.4787V8.72727H46.0602V13.3686C46.0602 13.6716 46.1265 13.9415 46.2591 14.1783C46.394 14.415 46.5834 14.6009 46.8272 14.7358C47.0711 14.8684 47.3599 14.9347 47.6937 14.9347C48.0275 14.9347 48.3163 14.8684 48.5602 14.7358C48.8064 14.6009 48.9958 14.415 49.1284 14.1783C49.2609 13.9415 49.3272 13.6716 49.3272 13.3686V8.72727ZM56.0291 10.7266C55.996 10.4164 55.8563 10.175 55.6101 10.0021C55.3662 9.82931 55.049 9.7429 54.6584 9.7429C54.3838 9.7429 54.1482 9.78433 53.9517 9.86719C53.7552 9.95005 53.6049 10.0625 53.5007 10.2045C53.3965 10.3466 53.3433 10.5088 53.3409 10.6911C53.3409 10.8426 53.3752 10.974 53.4439 11.0852C53.5149 11.1965 53.6108 11.2912 53.7315 11.3693C53.8523 11.4451 53.986 11.509 54.1328 11.5611C54.2796 11.6132 54.4276 11.657 54.5767 11.6925L55.2585 11.8629C55.5331 11.9268 55.7971 12.0133 56.0504 12.1222C56.3061 12.2311 56.5346 12.3684 56.7358 12.5341C56.9394 12.6998 57.1004 12.8999 57.2188 13.1342C57.3371 13.3686 57.3963 13.6432 57.3963 13.9581C57.3963 14.3842 57.2874 14.7595 57.0696 15.0838C56.8518 15.4058 56.5369 15.6579 56.125 15.8402C55.7154 16.0201 55.2195 16.1101 54.6371 16.1101C54.0713 16.1101 53.58 16.0225 53.1634 15.8473C52.7491 15.6721 52.4247 15.4164 52.1903 15.0803C51.9583 14.7441 51.8329 14.3345 51.8139 13.8516H53.1101C53.129 14.1049 53.2071 14.3156 53.3445 14.4837C53.4818 14.6518 53.6605 14.7772 53.8807 14.8601C54.1032 14.9429 54.3518 14.9844 54.6264 14.9844C54.9129 14.9844 55.1638 14.9418 55.3793 14.8565C55.5971 14.7689 55.7675 14.6482 55.8906 14.4943C56.0137 14.3381 56.0765 14.1558 56.0788 13.9474C56.0765 13.758 56.0208 13.6018 55.9119 13.4787C55.803 13.3532 55.6503 13.2491 55.4538 13.1662C55.2597 13.081 55.0324 13.0052 54.772 12.9389L53.9446 12.7259C53.3456 12.572 52.8722 12.3388 52.5241 12.0263C52.1785 11.7114 52.0057 11.2936 52.0057 10.7727C52.0057 10.3442 52.1217 9.96899 52.3537 9.64702C52.5881 9.32505 52.9065 9.07528 53.3089 8.89773C53.7114 8.7178 54.1671 8.62784 54.6761 8.62784C55.1922 8.62784 55.6444 8.7178 56.0327 8.89773C56.4233 9.07528 56.7299 9.32268 56.9524 9.63991C57.175 9.95478 57.2898 10.317 57.2969 10.7266H56.0291Z" fill="url(#paint2_linear_151_624)"/>
<defs>
<linearGradient id="paint0_linear_151_624" x1="0" y1="12.0091" x2="88.9889" y2="12.0091" gradientUnits="userSpaceOnUse">
<stop stop-color="#359ECC"/>
<stop offset="0.9341" stop-color="#31B0A9"/>
</linearGradient>
<linearGradient id="paint1_linear_151_624" x1="69" y1="12.0045" x2="80.9985" y2="12.0045" gradientUnits="userSpaceOnUse">
<stop stop-color="#0BADF4"/>
<stop offset="0.9341" stop-color="#30EFE4"/>
</linearGradient>
<linearGradient id="paint2_linear_151_624" x1="8" y1="12.0045" x2="57.9938" y2="12.0045" gradientUnits="userSpaceOnUse">
<stop stop-color="#0BADF4"/>
<stop offset="0.9341" stop-color="#30EFE4"/>
</linearGradient>
</defs>
</svg>
