<svg width="94" height="62" viewBox="0 0 94 62" fill="none" xmlns="http://www.w3.org/2000/svg">
<path d="M56.9585 38.6196C55.2313 38.6196 53.5042 38.6074 51.777 38.6317C51.62 38.6561 51.5475 38.8509 51.4509 38.9605C47.9483 44.3294 42.2716 48.2496 36.0152 49.4792C32.8387 50.1488 29.481 50.1001 26.2924 49.4549C19.8669 48.1644 14.3714 43.9763 10.7238 38.6317C7.29363 38.6074 3.86347 38.6317 0.433312 38.6196C0.276298 38.6317 0.155517 38.5222 0.167595 38.3517C0.155517 36.0021 0.155517 33.6524 0.167595 31.3027C0.167595 31.2053 0.215907 31.0836 0.32461 31.0592C2.6919 30.9862 5.07128 31.0957 7.43857 31.0227C7.48688 31.0105 7.53519 30.9618 7.53519 30.9131C7.48688 30.4018 7.32987 29.8905 7.24532 29.3913C6.84675 26.9564 6.77428 24.4363 7.07623 21.9771C7.17285 21.1248 7.35402 20.2726 7.51104 19.4326C7.52312 19.3717 7.46273 19.2987 7.40234 19.2865C5.04712 19.2135 2.67983 19.3109 0.32461 19.25C0.0830491 19.1769 0.179673 18.8482 0.155517 18.6534C0.179673 16.4012 0.107205 14.1367 0.179673 11.8844C0.300454 11.6409 0.650717 11.7749 0.868121 11.7383C3.91179 11.7383 6.95545 11.7383 10.0112 11.7383C10.3011 11.714 10.6755 11.8357 10.8446 11.5314C14.4317 5.85806 20.3862 1.80396 26.9567 0.610859C29.8433 0.111706 32.8387 0.0873566 35.7253 0.659557C42.2958 1.86483 48.1415 5.96763 51.7166 11.6166C54.9415 11.9575 58.3716 11.6288 61.6569 11.7383C61.8863 11.7749 62.2366 11.6409 62.3453 11.8844C62.3695 14.2828 62.3574 16.6933 62.3453 19.0917C62.3332 19.2135 62.2245 19.2622 62.1158 19.2622C59.7848 19.2865 57.4416 19.2378 55.1106 19.2743C55.0502 19.2743 54.9777 19.3474 54.9777 19.4082C55.0139 19.9074 55.183 20.3944 55.2313 20.8935C55.8111 24.1928 55.6541 27.626 54.9294 30.901C54.9173 31.0349 55.0985 31.047 55.2072 31.047C57.5262 31.0592 59.8451 31.0349 62.1762 31.0592C62.3695 31.0836 62.3332 31.3027 62.3453 31.4488C62.3332 33.7985 62.3815 36.1482 62.3332 38.4978C62.3091 38.5709 62.2245 38.6196 62.1521 38.6196C60.4128 38.6196 58.6857 38.6196 56.9585 38.6196ZM31.2202 10.1435C30.2781 10.1191 29.2998 10.2287 28.3819 10.4113C22.5603 11.6044 18.0189 16.3159 16.9077 22.1232C16.5092 24.0589 16.4971 26.1164 16.9077 28.0521C17.9585 33.762 22.6086 38.6074 28.2732 39.7274C30.1453 40.1536 32.1261 40.1292 33.9982 39.7761C42.018 38.3396 47.4652 29.5983 45.4602 21.6849C44.2403 16.182 39.9164 11.7262 34.3726 10.4722C33.3459 10.253 32.3072 10.1191 31.2202 10.1435Z" fill="#6F727F"/>
<path d="M50.6535 61.8965C48.2983 61.86 45.931 61.9696 43.5758 61.8478C43.1651 61.8235 42.7665 61.6774 42.4525 61.4095C41.2447 60.4721 41.595 58.3294 43.0685 57.8911C48.9384 57.3189 54.9895 58.4024 60.8232 57.2824C70.4977 55.3588 78.3967 46.9828 79.9789 37.2067C80.0997 36.5493 80.1963 35.8675 80.2326 35.1979C80.2326 35.1127 80.2205 34.9909 80.1239 34.9788C77.8049 34.9301 75.4859 34.9788 73.1669 34.9666C72.1161 35.0761 71.017 34.4796 70.7876 33.3839C70.6185 32.7752 70.8238 32.1543 71.1378 31.6429C72.4785 29.4515 73.8191 27.248 75.1598 25.0566C76.9111 22.1956 78.6504 19.3346 80.4017 16.4614C80.8244 15.67 81.5853 14.9761 82.5274 15.0857C83.3246 15.1222 83.9526 15.7553 84.315 16.4249C86.0542 19.2737 87.7934 22.1225 89.5327 24.9835C90.8854 27.1871 92.2261 29.4028 93.5788 31.6064C94.4122 32.7752 93.9895 34.5161 92.4918 34.9057C91.1874 35.3075 90.2453 34.09 89.7138 33.0552C87.3586 29.1959 84.9913 25.3487 82.6482 21.4773C82.5636 21.3312 82.4066 21.0146 82.2496 21.2459C80.7882 23.6078 79.363 25.9696 77.9136 28.3437C77.4546 29.1472 76.899 29.902 76.5005 30.7299C76.5367 30.9734 76.9111 30.8394 77.0923 30.876C79.1214 31.0099 81.3558 30.5716 83.3125 31.1073C84.6894 31.7525 84.3753 33.5056 84.327 34.7596C84.2546 36.0014 84.0975 37.2432 83.8801 38.4728C81.9477 49.2716 73.3239 58.6216 62.6711 61.0565C62.3812 61.1539 62.0793 61.1782 61.7894 61.2634C58.1177 61.9939 54.3614 61.86 50.6535 61.8965Z" fill="#6F727F"/>
<path d="M37.5015 25.0809C37.5015 25.5678 37.4653 26.067 37.3445 26.5418C36.8252 29.0497 34.6874 31.0342 32.1993 31.4359C28.129 32.1786 24.2882 28.234 25.0249 24.1434C25.351 21.6111 27.3077 19.4441 29.7595 18.8475C33.1293 17.9466 36.7769 20.3693 37.4049 23.8147C37.4653 24.2286 37.5136 24.6548 37.5015 25.0809Z" fill="#6F727F"/>
</svg>
