<svg width="88" height="13" viewBox="0 0 88 13" fill="none" xmlns="http://www.w3.org/2000/svg">
<path d="M71.4439 1.03995C70.5326 1.24439 70.2118 1.44884 69.0439 2.58607C67.6706 3.91496 67.5551 4.1833 68.107 4.71996C68.6075 5.23108 68.8642 5.12886 70.0834 3.96607C70.7123 3.36551 71.354 2.84162 71.5337 2.80329C71.9957 2.68829 72.4706 2.91829 73.2278 3.63385L73.8952 4.25996L74.5241 3.63385L75.1401 3.00773L74.4214 2.29218C73.4717 1.35939 72.2781 0.848281 71.4439 1.03995Z" fill="#6F7380"/>
<path d="M79.5551 1.09106C79.2856 1.15495 78.8877 1.2955 78.6567 1.4105C78.4257 1.5255 76.1155 3.73607 73.4973 6.31719C68.3636 11.4028 68.2866 11.4667 67.2856 11.1728C65.6299 10.7 65.1807 8.88554 66.4257 7.73553L66.7594 7.42886L67.4011 8.01664V5.4483L66.5797 5.35886C66.1305 5.30774 65.5144 5.30774 65.2193 5.35886L64.6674 5.4483L65.0139 5.74219C65.4246 6.09997 65.4246 6.18941 65.0139 6.58553C64.8342 6.75164 64.5262 7.17331 64.3465 7.53109C64.0513 8.08053 64 8.32331 64 9.25609C64 10.1378 64.0513 10.4444 64.2952 10.8789C65.0396 12.2972 66.1947 13 67.7091 13H67.7207C69.339 13 69.3391 13 74.7166 7.67164C77.861 4.55385 79.6449 2.86718 79.8759 2.81607C80.4021 2.70107 80.8257 2.91829 81.7626 3.81274C82.2246 4.24718 82.7123 4.65607 82.8406 4.69441C83.1872 4.82219 83.7904 4.46441 83.8802 4.08107C83.9957 3.63385 83.8032 3.3144 82.815 2.36884C81.6342 1.23161 80.6332 0.835502 79.5551 1.09106Z" fill="#6F7380"/>
<path d="M84.3037 7.72275C84.1882 7.72275 84.1882 5.23108 84.3037 5.12886C84.3422 5.07774 84.9968 5.03941 85.7412 5.03941H87.0888L86.2674 5.88275L86.7808 6.38108C87.615 7.18609 88 8.10609 88 9.2561C87.9872 11.4539 86.4856 12.9872 84.3166 13C82.7508 13 82.4685 12.8211 79.4652 9.8311L76.8471 7.21164L77.4118 6.63664C77.7198 6.31719 78.0406 6.06164 78.1176 6.06164C78.1818 6.06164 79.3754 7.17331 80.7358 8.54054C82.8535 10.6489 83.3155 11.045 83.7647 11.16C85.2278 11.5305 86.4984 10.3039 86.2032 8.79609C86.1519 8.5022 85.9209 8.11887 85.5615 7.73553L84.9968 7.14775L84.7016 7.44164C84.5219 7.59498 84.3551 7.72275 84.3037 7.72275Z" fill="#6F7380"/>
<path d="M4.41906 6.77L4.47906 4.75H4.38906L3.03906 8.34L1.68906 4.75H1.59906L1.65906 6.77V10H0.519063V3.02H2.07906L3.04906 5.59H3.11906L4.09906 3.02H5.55906V10H4.41906V6.77ZM7.96516 3.02V7.37C7.96516 7.63 7.97182 7.86333 7.98516 8.07C8.00516 8.27667 8.04849 8.45333 8.11516 8.6C8.18849 8.74 8.29516 8.85 8.43516 8.93C8.58182 9.01 8.78182 9.05 9.03516 9.05C9.28849 9.05 9.48516 9.01 9.62516 8.93C9.77182 8.85 9.87849 8.74 9.94516 8.6C10.0185 8.45333 10.0618 8.27667 10.0752 8.07C10.0952 7.86333 10.1052 7.63 10.1052 7.37V3.02H11.4152V7.17C11.4152 7.66333 11.3852 8.09333 11.3252 8.46C11.2652 8.82667 11.1485 9.13333 10.9752 9.38C10.8018 9.62667 10.5585 9.81333 10.2452 9.94C9.93849 10.06 9.53516 10.12 9.03516 10.12C8.53516 10.12 8.12849 10.06 7.81516 9.94C7.50849 9.81333 7.26849 9.62667 7.09516 9.38C6.92182 9.13333 6.80516 8.82667 6.74516 8.46C6.68516 8.09333 6.65516 7.66333 6.65516 7.17V3.02H7.96516ZM13.0313 10V3.02H14.3413V8.92H17.4313V10H13.0313ZM21.6773 4.1V10H20.3773V4.1H18.2773V3.02H23.7773V4.1H21.6773ZM24.8034 10V9.02H26.3734V4H24.8034V3.02H29.2434V4H27.6734V9.02H29.2434V10H24.8034ZM33.1995 10.12C32.2862 10.12 31.6095 9.80667 31.1695 9.18C30.7362 8.55333 30.5195 7.66333 30.5195 6.51C30.5195 5.36333 30.7362 4.47667 31.1695 3.85C31.6095 3.21667 32.2862 2.9 33.1995 2.9C33.5462 2.9 33.8495 2.94667 34.1095 3.04C34.3762 3.13333 34.6062 3.26333 34.7995 3.43C34.9929 3.59 35.1529 3.78667 35.2795 4.02C35.4062 4.24667 35.5062 4.49667 35.5795 4.77L34.3795 5.11C34.3329 4.95 34.2795 4.8 34.2195 4.66C34.1595 4.52 34.0829 4.4 33.9895 4.3C33.9029 4.19333 33.7929 4.11333 33.6595 4.06C33.5262 4 33.3662 3.97 33.1795 3.97C32.7262 3.97 32.3995 4.14333 32.1995 4.49C32.0062 4.83667 31.9095 5.31 31.9095 5.91V7.11C31.9095 7.71 32.0062 8.18333 32.1995 8.53C32.3995 8.87667 32.7262 9.05 33.1795 9.05C33.3662 9.05 33.5262 9.02333 33.6595 8.97C33.7929 8.91 33.9029 8.83 33.9895 8.73C34.0829 8.62333 34.1595 8.5 34.2195 8.36C34.2795 8.22 34.3329 8.07 34.3795 7.91L35.5795 8.25C35.5062 8.52333 35.4062 8.77667 35.2795 9.01C35.1529 9.23667 34.9929 9.43333 34.7995 9.6C34.6062 9.76 34.3762 9.88667 34.1095 9.98C33.8495 10.0733 33.5462 10.12 33.1995 10.12ZM40.0356 7H37.9956V10H36.6856V3.02H37.9956V5.92H40.0356V3.02H41.3456V10H40.0356V7ZM46.5017 10L46.0117 8.23H43.9417L43.4617 10H42.1417L44.1017 3.02H45.9217L47.8917 10H46.5017ZM45.0217 4.31H44.9417L44.1717 7.16H45.7917L45.0217 4.31ZM48.7878 10V9.02H50.3578V4H48.7878V3.02H53.2278V4H51.6578V9.02H53.2278V10H48.7878ZM55.8939 4.99H55.7939V10H54.6739V3.02H56.2839L58.1139 8.03H58.2139V3.02H59.3339V10H57.7239L55.8939 4.99Z" fill="#6F7380"/>
</svg>
