<svg width="84" height="60" viewBox="0 0 84 60" fill="none" xmlns="http://www.w3.org/2000/svg">
<path d="M4.18068 20.2583L13.2864 20.7854L17.2127 27.1553L8.10701 26.6282L4.18068 20.2583Z" fill="#181A1F" stroke="url(#paint0_linear_272_11514)" stroke-width="0.5"/>
<path d="M0.464626 34.6175L11.2163 35.2404L15.1439 41.6102L4.39095 40.9873L0.464626 34.6175Z" fill="#181A1F" stroke="url(#paint1_linear_272_11514)" stroke-width="0.5"/>
<path d="M61.0739 13.3186L61.074 13.3188L63.1467 16.682C59.9037 13.4791 55.3188 11.4211 49.8536 11.1086L49.853 11.1086C47.4018 10.9744 44.9442 11.1788 42.5486 11.716L38.58 5.27746C40.8773 4.77814 43.231 4.59005 45.5788 4.71857C52.5779 5.12458 58.0699 8.43696 61.0739 13.3186Z" fill="#181A1F" stroke="url(#paint2_linear_272_11514)" stroke-width="0.5"/>
<mask id="path-4-inside-1_272_11514" fill="white">
<path d="M38.1832 5.11026L42.4297 11.9995C41.3667 12.2428 40.3181 12.5463 39.2889 12.9086L35.0425 6.01934C36.0715 5.65692 37.1201 5.35341 38.1832 5.11026Z"/>
</mask>
<path d="M38.1832 5.11026L42.4297 11.9995C41.3667 12.2428 40.3181 12.5463 39.2889 12.9086L35.0425 6.01934C36.0715 5.65692 37.1201 5.35341 38.1832 5.11026Z" fill="#181A1F"/>
<path d="M42.4297 11.9995L42.5413 12.4869L43.2215 12.3312L42.8553 11.7371L42.4297 11.9995ZM39.2889 12.9086L38.8633 13.1709L39.0748 13.514L39.455 13.3802L39.2889 12.9086ZM35.0425 6.01934L34.8764 5.54773L34.2914 5.75374L34.6168 6.2817L35.0425 6.01934ZM37.7576 5.37262L42.0041 12.2619L42.8553 11.7371L38.6089 4.8479L37.7576 5.37262ZM42.3181 11.5121C41.2366 11.7597 40.1699 12.0684 39.1229 12.4369L39.455 13.3802C40.4662 13.0243 41.4967 12.726 42.5413 12.4869L42.3181 11.5121ZM39.7146 12.6462L35.4681 5.75698L34.6168 6.2817L38.8633 13.1709L39.7146 12.6462ZM35.2086 6.49094C36.2198 6.13483 37.2501 5.83659 38.2947 5.59767L38.0718 4.62285C36.9902 4.87023 35.9233 5.17902 34.8764 5.54773L35.2086 6.49094Z" fill="url(#paint3_linear_272_11514)" mask="url(#path-4-inside-1_272_11514)"/>
<path d="M32.8854 7.15095C33.5597 6.85125 34.2433 6.57538 34.9362 6.32333L38.9144 12.7772C38.2216 13.0293 37.5368 13.3066 36.8666 13.6098L32.8854 7.15095Z" fill="#181A1F" stroke="url(#paint4_linear_272_11514)" stroke-width="0.5"/>
<path d="M30.6915 8.23379C31.2576 7.92383 31.8341 7.63238 32.421 7.35947L36.4035 13.8205C35.819 14.0945 35.243 14.3867 34.6754 14.6971L30.6915 8.23379Z" fill="#181A1F" stroke="url(#paint5_linear_272_11514)" stroke-width="0.5"/>
<mask id="path-8-inside-2_272_11514" fill="white">
<path d="M30.341 8.14189L34.5819 15.0311C33.9045 15.407 33.2425 15.8101 32.5958 16.2404L28.3494 9.35117C28.9951 8.92271 29.6571 8.51962 30.3354 8.14189"/>
</mask>
<path d="M30.341 8.14189L34.5819 15.0311C33.9045 15.407 33.2425 15.8101 32.5958 16.2404L28.3494 9.35117C28.9951 8.92271 29.6571 8.51962 30.3354 8.14189" fill="#181A1F"/>
<path d="M34.5819 15.0311L34.8245 15.4683L35.2819 15.2145L35.0077 14.769L34.5819 15.0311ZM32.5958 16.2404L32.1702 16.5028L32.4419 16.9435L32.8729 16.6566L32.5958 16.2404ZM28.3494 9.35117L28.0729 8.93455L27.67 9.2019L27.9237 9.61353L28.3494 9.35117ZM29.9152 8.404L34.1561 15.2932L35.0077 14.769L30.7668 7.87978L29.9152 8.404ZM34.3393 14.5939C33.6501 14.9763 32.9766 15.3864 32.3188 15.8242L32.8729 16.6566C33.5083 16.2337 34.1588 15.8376 34.8245 15.4683L34.3393 14.5939ZM33.0215 15.978L28.775 9.08881L27.9237 9.61353L32.1702 16.5028L33.0215 15.978ZM28.6258 9.76779C29.2607 9.34651 29.9116 8.95016 30.5787 8.57873L30.0922 7.70505C29.4025 8.08907 28.7294 8.4989 28.0729 8.93455L28.6258 9.76779Z" fill="url(#paint6_linear_272_11514)" mask="url(#path-8-inside-2_272_11514)"/>
<path d="M26.8271 10.7404C27.2997 10.3778 27.7832 10.0316 28.2775 9.70189L32.2621 16.1662C31.7686 16.4979 31.2848 16.8435 30.8105 17.2029L26.8271 10.7404Z" fill="#181A1F" stroke="url(#paint7_linear_272_11514)" stroke-width="0.5"/>
<path d="M25.0499 12.2043C25.4979 11.8066 25.958 11.4216 26.4302 11.0493L30.4125 17.5098C29.9403 17.88 29.4795 18.2638 29.0299 18.6613L25.0499 12.2043Z" fill="#181A1F" stroke="url(#paint8_linear_272_11514)" stroke-width="0.5"/>
<path d="M23.3265 13.8645C23.7604 13.4112 24.2091 12.9715 24.6726 12.5452L28.6521 19.0013C28.1881 19.4264 27.7382 19.8646 27.3022 20.3157L23.3265 13.8645Z" fill="#181A1F" stroke="url(#paint9_linear_272_11514)" stroke-width="0.5"/>
<mask id="path-13-inside-3_272_11514" fill="white">
<path d="M23.0125 13.8317L27.259 20.7224C26.6534 21.3622 26.0791 22.0275 25.5361 22.7181L21.2854 15.8289C21.8285 15.1392 22.4032 14.4735 23.0097 13.8317"/>
</mask>
<path d="M23.0125 13.8317L27.259 20.7224C26.6534 21.3622 26.0791 22.0275 25.5361 22.7181L21.2854 15.8289C21.8285 15.1392 22.4032 14.4735 23.0097 13.8317" fill="#181A1F"/>
<path d="M27.259 20.7224L27.6222 21.066L27.8862 20.787L27.6847 20.46L27.259 20.7224ZM25.5361 22.7181L25.1105 22.9806L25.4865 23.59L25.9291 23.0271L25.5361 22.7181ZM21.2854 15.8289L20.8926 15.5195L20.6764 15.794L20.8599 16.0914L21.2854 15.8289ZM22.5869 14.094L26.8333 20.9847L27.6847 20.46L23.4382 13.5694L22.5869 14.094ZM26.8959 20.3787C26.2798 21.0296 25.6955 21.7064 25.143 22.409L25.9291 23.0271C26.4627 22.3486 27.027 21.6949 27.6222 21.066L26.8959 20.3787ZM25.9616 22.4555L21.7109 15.5663L20.8599 16.0914L25.1105 22.9806L25.9616 22.4555ZM21.6782 16.1382C22.2119 15.4604 22.7769 14.806 23.3731 14.1751L22.6463 13.4883C22.0296 14.1409 21.445 14.818 20.8926 15.5195L21.6782 16.1382Z" fill="url(#paint10_linear_272_11514)" mask="url(#path-13-inside-3_272_11514)"/>
<path d="M19.8187 18.3497C20.2677 17.6335 20.7494 16.9387 21.2621 16.2674L25.2291 22.7012C24.7119 23.3665 24.2253 24.0553 23.7707 24.7654L19.8187 18.3497Z" fill="#181A1F" stroke="url(#paint11_linear_272_11514)" stroke-width="0.5"/>
<mask id="path-16-inside-4_272_11514" fill="white">
<path d="M19.5248 18.3489L23.7713 25.2382C22.8705 26.6865 22.117 28.2225 21.5221 29.823L17.2756 22.9338C17.8696 21.3329 18.6232 19.7968 19.5248 18.3489Z"/>
</mask>
<path d="M19.5248 18.3489L23.7713 25.2382C22.8705 26.6865 22.117 28.2225 21.5221 29.823L17.2756 22.9338C17.8696 21.3329 18.6232 19.7968 19.5248 18.3489Z" fill="#181A1F"/>
<path d="M23.7713 25.2382L24.1959 25.5022L24.3594 25.2393L24.1969 24.9758L23.7713 25.2382ZM21.5221 29.823L21.0965 30.0854L21.6339 30.9573L21.9908 29.9972L21.5221 29.823ZM17.2756 22.9338L16.8069 22.7598L16.722 22.9885L16.85 23.1961L17.2756 22.9338ZM19.0992 18.6113L23.3457 25.5005L24.1969 24.9758L19.9505 18.0866L19.0992 18.6113ZM23.3467 24.9741C22.4283 26.4508 21.6599 28.017 21.0534 29.6488L21.9908 29.9972C22.574 28.428 23.3128 26.9221 24.1959 25.5022L23.3467 24.9741ZM21.9477 29.5606L17.7013 22.6714L16.85 23.1961L21.0965 30.0854L21.9477 29.5606ZM17.7444 23.1077C18.3267 21.5383 19.0655 20.0325 19.9493 18.6132L19.1004 18.0846C18.181 19.5611 17.4126 21.1275 16.8069 22.7598L17.7444 23.1077Z" fill="url(#paint12_linear_272_11514)" mask="url(#path-16-inside-4_272_11514)"/>
<mask id="path-18-inside-5_272_11514" fill="white">
<path d="M17.2755 22.9337L21.5219 29.823C21.2462 30.5692 21.0079 31.3289 20.8081 32.0992C20.5861 32.9525 20.4155 33.8185 20.2972 34.6925L16.0508 27.8033C16.1689 26.9293 16.3395 26.0632 16.5616 25.21C16.7608 24.4394 16.9991 23.6797 17.2755 22.9337Z"/>
</mask>
<path d="M17.2755 22.9337L21.5219 29.823C21.2462 30.5692 21.0079 31.3289 20.8081 32.0992C20.5861 32.9525 20.4155 33.8185 20.2972 34.6925L16.0508 27.8033C16.1689 26.9293 16.3395 26.0632 16.5616 25.21C16.7608 24.4394 16.9991 23.6797 17.2755 22.9337Z" fill="#181A1F"/>
<path d="M21.5219 29.823L21.9909 29.9963L22.0753 29.7679L21.9476 29.5606L21.5219 29.823ZM20.8081 32.0992L21.292 32.2251L21.2921 32.2247L20.8081 32.0992ZM20.2972 34.6925L19.8716 34.9549L20.6053 36.1451L20.7927 34.7596L20.2972 34.6925ZM16.0508 27.8033L15.5553 27.7363L15.5313 27.9135L15.6251 28.0656L16.0508 27.8033ZM16.5616 25.21L17.0455 25.3359L17.0457 25.3351L16.5616 25.21ZM16.8498 23.1961L21.0963 30.0853L21.9476 29.5606L17.7011 22.6714L16.8498 23.1961ZM21.0529 29.6497C20.7714 30.4115 20.5281 31.1872 20.3241 31.9737L21.2921 32.2247C21.4877 31.4706 21.7209 30.7268 21.9909 29.9963L21.0529 29.6497ZM20.3242 31.9733C20.0972 32.846 19.9227 33.7316 19.8018 34.6255L20.7927 34.7596C20.9083 33.9054 21.075 33.059 21.292 32.2251L20.3242 31.9733ZM20.7229 34.4302L16.4764 27.5409L15.6251 28.0656L19.8716 34.9549L20.7229 34.4302ZM16.5463 27.8703C16.6617 27.0161 16.8284 26.1698 17.0455 25.3359L16.0778 25.084C15.8506 25.9567 15.6761 26.8424 15.5553 27.7363L16.5463 27.8703ZM17.0457 25.3351C17.2406 24.581 17.4738 23.8375 17.7443 23.1075L16.8066 22.76C16.5243 23.5219 16.281 24.2979 16.0776 25.0848L17.0457 25.3351Z" fill="url(#paint13_linear_272_11514)" mask="url(#path-18-inside-5_272_11514)"/>
<mask id="path-20-inside-6_272_11514" fill="white">
<path d="M16.051 27.8033L20.2974 34.6925C20.0827 36.2541 20.0549 37.836 20.2149 39.4042L15.967 32.5136C15.8071 30.9458 15.8348 29.3644 16.0496 27.8033"/>
</mask>
<path d="M16.051 27.8033L20.2974 34.6925C20.0827 36.2541 20.0549 37.836 20.2149 39.4042L15.967 32.5136C15.8071 30.9458 15.8348 29.3644 16.0496 27.8033" fill="#181A1F"/>
<path d="M20.2974 34.6925L20.7928 34.7606L20.8172 34.5829L20.7231 34.4302L20.2974 34.6925ZM20.2149 39.4042L19.7892 39.6666L20.7123 39.3535L20.2149 39.4042ZM15.967 32.5136L15.4696 32.5643L15.4812 32.6783L15.5414 32.7759L15.967 32.5136ZM15.6253 28.0656L19.8718 34.9549L20.7231 34.4302L16.4766 27.5409L15.6253 28.0656ZM19.8021 34.6244C19.5819 36.2254 19.5535 37.8471 19.7174 39.4549L20.7123 39.3535C20.5564 37.8248 20.5834 36.2828 20.7928 34.7606L19.8021 34.6244ZM20.6405 39.1418L16.3926 32.2512L15.5414 32.7759L19.7892 39.6666L20.6405 39.1418ZM16.4644 32.4628C16.3086 30.9346 16.3356 29.3931 16.5449 27.8714L15.5542 27.7351C15.3341 29.3356 15.3056 30.957 15.4696 32.5643L16.4644 32.4628Z" fill="url(#paint14_linear_272_11514)" mask="url(#path-20-inside-6_272_11514)"/>
<mask id="path-22-inside-7_272_11514" fill="white">
<path d="M15.967 32.5135L20.2135 39.4042C20.3066 40.2995 20.4657 41.1866 20.6894 42.0581L16.4429 35.1689C16.2192 34.2969 16.0602 33.4093 15.967 32.5135Z"/>
</mask>
<path d="M15.967 32.5135L20.2135 39.4042C20.3066 40.2995 20.4657 41.1866 20.6894 42.0581L16.4429 35.1689C16.2192 34.2969 16.0602 33.4093 15.967 32.5135Z" fill="#181A1F"/>
<path d="M20.2135 39.4042L20.7108 39.3524L20.699 39.239L20.6392 39.1419L20.2135 39.4042ZM20.6894 42.0581L20.2637 42.3205L21.1737 41.9338L20.6894 42.0581ZM16.4429 35.1689L15.9586 35.2931L15.9775 35.3666L16.0173 35.4312L16.4429 35.1689ZM15.5414 32.7759L19.7878 39.6665L20.6392 39.1419L16.3927 32.2512L15.5414 32.7759ZM19.7162 39.4559C19.8119 40.3757 19.9753 41.287 20.2051 42.1824L21.1737 41.9338C20.9561 41.0861 20.8014 40.2233 20.7108 39.3524L19.7162 39.4559ZM21.115 41.7958L16.8686 34.9065L16.0173 35.4312L20.2637 42.3205L21.115 41.7958ZM16.9272 35.0446C16.7097 34.1965 16.5549 33.3331 16.4644 32.4618L15.4697 32.5652C15.5654 33.4854 15.7288 34.3973 15.9586 35.2931L16.9272 35.0446Z" fill="url(#paint15_linear_272_11514)" mask="url(#path-22-inside-7_272_11514)"/>
<path d="M17.3584 37.1705C17.3432 37.1322 17.3282 37.0939 17.3133 37.0555L20.458 42.1573C20.4643 42.1815 20.4706 42.2057 20.477 42.23L17.3584 37.1705Z" fill="#181A1F" stroke="url(#paint16_linear_272_11514)" stroke-width="0.5"/>
<mask id="path-25-inside-8_272_11514" fill="white">
<path d="M17.1343 37.2802L21.3807 44.1694C21.6254 44.7877 21.9058 45.3911 22.2205 45.9763L17.9741 39.0871C17.6593 38.5018 17.3789 37.8985 17.1343 37.2802Z"/>
</mask>
<path d="M17.1343 37.2802L21.3807 44.1694C21.6254 44.7877 21.9058 45.3911 22.2205 45.9763L17.9741 39.0871C17.6593 38.5018 17.3789 37.8985 17.1343 37.2802Z" fill="#181A1F"/>
<path d="M21.3807 44.1694L21.8457 43.9855L21.8295 43.9446L21.8064 43.9071L21.3807 44.1694ZM22.2205 45.9763L21.7949 46.2387L22.6609 45.7395L22.2205 45.9763ZM17.9741 39.0871L17.5337 39.3239L17.5407 39.3369L17.5484 39.3494L17.9741 39.0871ZM16.7086 37.5426L20.9551 44.4318L21.8064 43.9071L17.5599 37.0179L16.7086 37.5426ZM20.9158 44.3534C21.1676 44.9898 21.4562 45.6107 21.7802 46.2131L22.6609 45.7395C22.3554 45.1714 22.0832 44.5857 21.8457 43.9855L20.9158 44.3534ZM22.6462 45.714L18.3997 38.8247L17.5484 39.3494L21.7949 46.2387L22.6462 45.714ZM18.4144 38.8503C18.1089 38.2822 17.8367 37.6965 17.5992 37.0963L16.6693 37.4642C16.9211 38.1005 17.2097 38.7215 17.5337 39.3239L18.4144 38.8503Z" fill="url(#paint17_linear_272_11514)" mask="url(#path-25-inside-8_272_11514)"/>
<mask id="path-27-inside-9_272_11514" fill="white">
<path d="M17.9783 39.0871L22.2247 45.9763C22.3806 46.2582 22.5434 46.5401 22.7132 46.822L18.4667 39.9313C18.296 39.6495 18.1322 39.3676 17.9783 39.0857"/>
</mask>
<path d="M17.9783 39.0871L22.2247 45.9763C22.3806 46.2582 22.5434 46.5401 22.7132 46.822L18.4667 39.9313C18.296 39.6495 18.1322 39.3676 17.9783 39.0857" fill="#181A1F"/>
<path d="M22.2247 45.9763L22.6623 45.7344L22.6566 45.7241L22.6504 45.714L22.2247 45.9763ZM22.7132 46.822L22.2875 47.0843L23.1415 46.564L22.7132 46.822ZM18.4667 39.9313L18.0391 40.1904L18.0411 40.1937L18.4667 39.9313ZM17.5526 39.3495L21.7991 46.2387L22.6504 45.714L18.4039 38.8247L17.5526 39.3495ZM21.7871 46.2182C21.946 46.5057 22.112 46.7929 22.2849 47.08L23.1415 46.564C22.9748 46.2873 22.8151 46.0108 22.6623 45.7344L21.7871 46.2182ZM23.1389 46.5597L18.8924 39.669L18.0411 40.1937L22.2875 47.0843L23.1389 46.5597ZM18.8944 39.6723C18.7267 39.3955 18.5668 39.1202 18.4171 38.846L17.5395 39.3254C17.6976 39.615 17.8652 39.9034 18.0391 40.1904L18.8944 39.6723Z" fill="url(#paint18_linear_272_11514)" mask="url(#path-27-inside-9_272_11514)"/>
<mask id="path-29-inside-10_272_11514" fill="white">
<path d="M46.2999 22.549L50.5464 29.441C50.5987 29.5237 50.6476 29.6083 50.6934 29.6947L46.4469 22.8027C46.4012 22.7153 46.3545 22.6307 46.3069 22.549"/>
</mask>
<path d="M46.2999 22.549L50.5464 29.441C50.5987 29.5237 50.6476 29.6083 50.6934 29.6947L46.4469 22.8027C46.4012 22.7153 46.3545 22.6307 46.3069 22.549" fill="#181A1F"/>
<path d="M50.5464 29.441L50.1207 29.7033L50.1237 29.7082L50.5464 29.441ZM50.6934 29.6947L50.2677 29.957L51.1353 29.461L50.6934 29.6947ZM46.4469 22.8027L46.0039 23.0345L46.012 23.05L46.0212 23.065L46.4469 22.8027ZM45.8742 22.8113L50.1207 29.7033L50.9721 29.1788L46.7256 22.2867L45.8742 22.8113ZM50.1237 29.7082C50.1691 29.78 50.2117 29.8534 50.2514 29.9285L51.1353 29.461C51.0836 29.3632 51.0282 29.2675 50.9691 29.1739L50.1237 29.7082ZM51.119 29.4325L46.8726 22.5404L46.0212 23.065L50.2677 29.957L51.119 29.4325ZM46.8899 22.5709C46.8409 22.4771 46.7906 22.386 46.739 22.2974L45.8748 22.8005C45.9185 22.8755 45.9615 22.9535 46.0039 23.0345L46.8899 22.5709Z" fill="url(#paint19_linear_272_11514)" mask="url(#path-29-inside-10_272_11514)"/>
<mask id="path-31-inside-11_272_11514" fill="white">
<path d="M46.4468 22.8027L50.6932 29.6919C50.7884 29.8671 50.873 30.0478 50.9466 30.2332L46.7001 23.3439C46.6259 23.1588 46.5413 22.9781 46.4468 22.8027Z"/>
</mask>
<path d="M46.4468 22.8027L50.6932 29.6919C50.7884 29.8671 50.873 30.0478 50.9466 30.2332L46.7001 23.3439C46.6259 23.1588 46.5413 22.9781 46.4468 22.8027Z" fill="#181A1F"/>
<path d="M50.6932 29.6919L51.1326 29.4533L51.1261 29.4413L51.1189 29.4296L50.6932 29.6919ZM50.9466 30.2332L50.5209 30.4955L51.4113 30.0486L50.9466 30.2332ZM46.7001 23.3439L46.236 23.53L46.252 23.5698L46.2745 23.6063L46.7001 23.3439ZM46.0211 23.0651L50.2676 29.9543L51.1189 29.4296L46.8724 22.5403L46.0211 23.0651ZM50.2539 29.9306C50.3395 30.0882 50.4156 30.2509 50.4819 30.4177L51.4113 30.0486C51.3303 29.8447 51.2372 29.646 51.1326 29.4533L50.2539 29.9306ZM51.3722 29.9708L47.1257 23.0816L46.2745 23.6063L50.5209 30.4955L51.3722 29.9708ZM47.1642 23.1579C47.083 22.9553 46.9904 22.7575 46.8869 22.5655L46.0066 23.0399C46.0922 23.1988 46.1688 23.3624 46.236 23.53L47.1642 23.1579Z" fill="url(#paint20_linear_272_11514)" mask="url(#path-31-inside-11_272_11514)"/>
<mask id="path-33-inside-12_272_11514" fill="white">
<path d="M46.7002 23.3439L50.9467 30.2331C51.0285 30.4396 51.0976 30.6509 51.1538 30.8659L46.9059 23.9767C46.8507 23.7616 46.7819 23.5503 46.7002 23.3439Z"/>
</mask>
<path d="M46.7002 23.3439L50.9467 30.2331C51.0285 30.4396 51.0976 30.6509 51.1538 30.8659L46.9059 23.9767C46.8507 23.7616 46.7819 23.5503 46.7002 23.3439Z" fill="#181A1F"/>
<path d="M50.9467 30.2331L51.4115 30.049L51.3953 30.0081L51.3723 29.9708L50.9467 30.2331ZM51.1538 30.8659L50.7282 31.1284L51.6376 30.7396L51.1538 30.8659ZM46.9059 23.9767L46.4217 24.1012L46.4405 24.1746L46.4803 24.2391L46.9059 23.9767ZM46.2746 23.6062L50.521 30.4955L51.3723 29.9708L47.1258 23.0815L46.2746 23.6062ZM50.4818 30.4173C50.5561 30.6049 50.619 30.7969 50.67 30.9923L51.6376 30.7396C51.5763 30.505 51.5008 30.2743 51.4115 30.049L50.4818 30.4173ZM51.5794 30.6035L47.3315 23.7143L46.4803 24.2391L50.7282 31.1284L51.5794 30.6035ZM47.3902 23.8523C47.3297 23.6169 47.2545 23.3856 47.165 23.1597L46.2353 23.528C46.3094 23.7149 46.3716 23.9063 46.4217 24.1012L47.3902 23.8523Z" fill="url(#paint21_linear_272_11514)" mask="url(#path-33-inside-12_272_11514)"/>
<mask id="path-35-inside-13_272_11514" fill="white">
<path d="M46.9059 23.9767L51.1538 30.8659C51.2193 31.1281 51.2661 31.3947 51.2937 31.6637L47.0472 24.773C47.0202 24.5045 46.9734 24.2383 46.9073 23.9767"/>
</mask>
<path d="M46.9059 23.9767L51.1538 30.8659C51.2193 31.1281 51.2661 31.3947 51.2937 31.6637L47.0472 24.773C47.0202 24.5045 46.9734 24.2383 46.9073 23.9767" fill="#181A1F"/>
<path d="M51.1538 30.8659L51.6388 30.7447L51.62 30.6695L51.5794 30.6035L51.1538 30.8659ZM51.2937 31.6637L50.8681 31.926L51.7911 31.6126L51.2937 31.6637ZM47.0472 24.773L46.5498 24.8232L46.5613 24.9375L46.6216 25.0353L47.0472 24.773ZM46.4803 24.2391L50.7282 31.1284L51.5794 30.6035L47.3315 23.7143L46.4803 24.2391ZM50.6687 30.9872C50.7285 31.2263 50.7711 31.4695 50.7963 31.7148L51.7911 31.6126C51.761 31.32 51.7101 31.0299 51.6388 30.7447L50.6687 30.9872ZM51.7194 31.4013L47.4729 24.5107L46.6216 25.0353L50.8681 31.926L51.7194 31.4013ZM47.5447 24.7229C47.5152 24.4299 47.4642 24.1396 47.3921 23.8542L46.4225 24.0992C46.4826 24.337 46.5251 24.579 46.5498 24.8232L47.5447 24.7229Z" fill="url(#paint22_linear_272_11514)" mask="url(#path-35-inside-13_272_11514)"/>
<mask id="path-37-inside-14_272_11514" fill="white">
<path d="M47.05 24.7731L51.2964 31.6637C51.3442 32.1328 51.3358 32.606 51.2712 33.0731L47.0248 26.1867C47.0885 25.7196 47.097 25.2465 47.05 24.7773"/>
</mask>
<path d="M47.05 24.7731L51.2964 31.6637C51.3442 32.1328 51.3358 32.606 51.2712 33.0731L47.0248 26.1867C47.0885 25.7196 47.097 25.2465 47.05 24.7773" fill="#181A1F"/>
<path d="M51.2964 31.6637L51.7939 31.613L51.7822 31.499L51.7221 31.4014L51.2964 31.6637ZM51.2712 33.0731L50.8457 33.3356L51.576 34.52L51.7665 33.1416L51.2712 33.0731ZM47.0248 26.1867L46.5294 26.1191L46.5051 26.2966L46.5992 26.4491L47.0248 26.1867ZM46.6243 25.0354L50.8708 31.926L51.7221 31.4014L47.4756 24.5108L46.6243 25.0354ZM50.799 31.7144C50.8428 32.1439 50.835 32.5771 50.776 33.0047L51.7665 33.1416C51.8365 32.635 51.8457 32.1218 51.7939 31.613L50.799 31.7144ZM51.6968 32.8107L47.4504 25.9243L46.5992 26.4491L50.8457 33.3356L51.6968 32.8107ZM47.5202 26.2543C47.5892 25.7482 47.5984 25.2357 47.5475 24.7275L46.5525 24.8271C46.5956 25.2572 46.5878 25.6909 46.5294 26.1191L47.5202 26.2543Z" fill="url(#paint23_linear_272_11514)" mask="url(#path-37-inside-14_272_11514)"/>
<mask id="path-39-inside-15_272_11514" fill="white">
<path d="M47.0248 26.1866L51.2713 33.0759C51.2355 33.3386 51.1841 33.5988 51.1173 33.8553C51.0583 34.0863 50.9873 34.314 50.9046 34.5374L46.6567 27.6482C46.7399 27.4243 46.8114 27.1961 46.8709 26.9646C46.9378 26.7087 46.9892 26.4489 47.0248 26.1866Z"/>
</mask>
<path d="M47.0248 26.1866L51.2713 33.0759C51.2355 33.3386 51.1841 33.5988 51.1173 33.8553C51.0583 34.0863 50.9873 34.314 50.9046 34.5374L46.6567 27.6482C46.7399 27.4243 46.8114 27.1961 46.8709 26.9646C46.9378 26.7087 46.9892 26.4489 47.0248 26.1866Z" fill="#181A1F"/>
<path d="M51.2713 33.0759L51.7667 33.1434L51.7909 32.966L51.6969 32.8135L51.2713 33.0759ZM51.1173 33.8553L50.6335 33.7293L50.6329 33.7315L51.1173 33.8553ZM50.9046 34.5374L50.479 34.7999L51.0175 35.6732L51.3735 34.711L50.9046 34.5374ZM46.6567 27.6482L46.188 27.4742L46.1031 27.7029L46.2311 27.9106L46.6567 27.6482ZM46.8709 26.9646L46.3871 26.8382L46.3866 26.8401L46.8709 26.9646ZM46.5992 26.449L50.8457 33.3382L51.6969 32.8135L47.4505 25.9243L46.5992 26.449ZM50.7759 33.0084C50.7428 33.2514 50.6952 33.4921 50.6335 33.7293L51.6012 33.9813C51.673 33.7055 51.7283 33.4257 51.7667 33.1434L50.7759 33.0084ZM50.6329 33.7315C50.5782 33.9456 50.5123 34.1567 50.4357 34.3639L51.3735 34.711C51.4623 34.4712 51.5384 34.2269 51.6018 33.9791L50.6329 33.7315ZM51.3302 34.275L47.0823 27.3858L46.2311 27.9106L50.479 34.7999L51.3302 34.275ZM47.1255 27.8223C47.2147 27.5821 47.2913 27.3374 47.3551 27.0891L46.3866 26.8401C46.3314 27.0548 46.2651 27.2665 46.188 27.4742L47.1255 27.8223ZM47.3546 27.0911C47.4266 26.8157 47.4819 26.5361 47.5203 26.254L46.5294 26.1193C46.4965 26.3616 46.4489 26.6017 46.3871 26.8382L47.3546 27.0911Z" fill="url(#paint24_linear_272_11514)" mask="url(#path-39-inside-15_272_11514)"/>
<mask id="path-41-inside-16_272_11514" fill="white">
<path d="M46.6568 27.6483L50.9047 34.5375C50.7259 35.0178 50.4994 35.4787 50.2286 35.9131L45.9822 29.0182C46.2522 28.5836 46.4782 28.1228 46.6568 27.6426"/>
</mask>
<path d="M46.6568 27.6483L50.9047 34.5375C50.7259 35.0178 50.4994 35.4787 50.2286 35.9131L45.9822 29.0182C46.2522 28.5836 46.4782 28.1228 46.6568 27.6426" fill="#181A1F"/>
<path d="M50.9047 34.5375L51.3733 34.7119L51.4585 34.483L51.3303 34.2751L50.9047 34.5375ZM50.2286 35.9131L49.8029 36.1753L50.2261 36.8624L50.653 36.1776L50.2286 35.9131ZM45.9822 29.0182L45.5575 28.7543L45.3942 29.017L45.5564 29.2804L45.9822 29.0182ZM46.2312 27.9107L50.4791 34.7999L51.3303 34.2751L47.0824 27.3858L46.2312 27.9107ZM50.4361 34.3631C50.269 34.812 50.0574 35.2427 49.8043 35.6486L50.653 36.1776C50.9415 35.7147 51.1828 35.2236 51.3733 34.7119L50.4361 34.3631ZM50.6544 35.6509L46.4079 28.756L45.5564 29.2804L49.8029 36.1753L50.6544 35.6509ZM46.4069 29.2821C46.6946 28.8191 46.9353 28.3283 47.1254 27.8169L46.1882 27.4683C46.0212 27.9172 45.8099 28.3481 45.5575 28.7543L46.4069 29.2821Z" fill="url(#paint25_linear_272_11514)" mask="url(#path-41-inside-16_272_11514)"/>
<path d="M44.2205 31.3819C44.2685 31.3429 44.3162 31.3035 44.3634 31.2636L48.3446 37.7225C48.2977 37.7628 48.2503 37.8027 48.2024 37.842L44.2205 31.3819Z" fill="#181A1F" stroke="url(#paint26_linear_272_11514)" stroke-width="0.5"/>
<mask id="path-44-inside-17_272_11514" fill="white">
<path d="M43.334 31.7229L47.5805 38.6121C47.3864 38.7399 47.1877 38.8606 46.9843 38.9743L42.7378 32.0851C42.9412 31.9723 43.14 31.8516 43.334 31.7229Z"/>
</mask>
<path d="M43.334 31.7229L47.5805 38.6121C47.3864 38.7399 47.1877 38.8606 46.9843 38.9743L42.7378 32.0851C42.9412 31.9723 43.14 31.8516 43.334 31.7229Z" fill="#181A1F"/>
<path d="M47.5805 38.6121L47.8555 39.0297L48.2608 38.7628L48.0061 38.3497L47.5805 38.6121ZM46.9843 38.9743L46.5586 39.2367L46.81 39.6445L47.2282 39.4108L46.9843 38.9743ZM42.7378 32.0851L42.4954 31.6478L42.0374 31.9017L42.3122 32.3475L42.7378 32.0851ZM42.9084 31.9852L47.1549 38.8745L48.0061 38.3497L43.7597 31.4605L42.9084 31.9852ZM47.3055 38.1945C47.1216 38.3156 46.9332 38.4301 46.7403 38.5379L47.2282 39.4108C47.4422 39.2912 47.6512 39.1642 47.8555 39.0297L47.3055 38.1945ZM47.4099 38.712L43.1634 31.8227L42.3122 32.3475L46.5586 39.2367L47.4099 38.712ZM42.9802 32.5224C43.1952 32.4032 43.4053 32.2756 43.6104 32.1395L43.0577 31.3062C42.8746 31.4276 42.6872 31.5415 42.4954 31.6478L42.9802 32.5224Z" fill="url(#paint27_linear_272_11514)" mask="url(#path-44-inside-17_272_11514)"/>
<mask id="path-46-inside-18_272_11514" fill="white">
<path d="M42.0843 32.4163L46.3392 39.307C46.091 39.4207 45.8381 39.5226 45.5806 39.6128L41.3341 32.7236C41.5916 32.6334 41.8436 32.5305 42.0913 32.4177"/>
</mask>
<path d="M42.0843 32.4163L46.3392 39.307C46.091 39.4207 45.8381 39.5226 45.5806 39.6128L41.3341 32.7236C41.5916 32.6334 41.8436 32.5305 42.0913 32.4177" fill="#181A1F"/>
<path d="M46.3392 39.307L46.5474 39.7616L47.062 39.5259L46.7646 39.0443L46.3392 39.307ZM45.5806 39.6128L45.1549 39.8752L45.3661 40.2177L45.7459 40.0847L45.5806 39.6128ZM41.3341 32.7236L41.1688 32.2517L40.5825 32.4571L40.9085 32.9859L41.3341 32.7236ZM41.6589 32.679L45.9137 39.5697L46.7646 39.0443L42.5097 32.1536L41.6589 32.679ZM46.1309 38.8524C45.8968 38.9597 45.6582 39.0558 45.4153 39.1409L45.7459 40.0847C46.018 39.9894 46.2852 39.8817 46.5474 39.7616L46.1309 38.8524ZM46.0062 39.3505L41.7597 32.4612L40.9085 32.9859L45.1549 39.8752L46.0062 39.3505ZM41.4994 33.1955C41.7728 33.0997 42.0388 32.991 42.2984 32.8728L41.8842 31.9627C41.6484 32.07 41.4104 32.1671 41.1688 32.2517L41.4994 33.1955Z" fill="url(#paint28_linear_272_11514)" mask="url(#path-46-inside-18_272_11514)"/>
<mask id="path-48-inside-19_272_11514" fill="white">
<path d="M40.3851 32.9956L44.6315 39.8848C43.9033 40.0534 43.155 40.118 42.4089 40.0765C40.2871 39.9539 38.6173 38.949 37.7006 37.4606L33.4541 30.5686C34.3709 32.0569 36.0406 33.0618 38.1624 33.1845C38.9086 33.2259 39.6568 33.1614 40.3851 32.9928"/>
</mask>
<path d="M40.3851 32.9956L44.6315 39.8848C43.9033 40.0534 43.155 40.118 42.4089 40.0765C40.2871 39.9539 38.6173 38.949 37.7006 37.4606L33.4541 30.5686C34.3709 32.0569 36.0406 33.0618 38.1624 33.1845C38.9086 33.2259 39.6568 33.1614 40.3851 32.9928" fill="#181A1F"/>
<path d="M44.6315 39.8848L44.7443 40.3719L45.4224 40.215L45.0572 39.6225L44.6315 39.8848ZM42.4089 40.0765L42.3801 40.5757L42.3812 40.5757L42.4089 40.0765ZM37.7006 37.4606L38.1263 37.1984L38.1263 37.1983L37.7006 37.4606ZM33.4541 30.5686L33.8798 30.3063L33.0284 30.8308L33.4541 30.5686ZM38.1624 33.1845L38.1336 33.6836L38.1347 33.6837L38.1624 33.1845ZM39.9594 33.2579L44.2059 40.1472L45.0572 39.6225L40.8107 32.7332L39.9594 33.2579ZM44.5187 39.3977C43.8365 39.5557 43.1356 39.6161 42.4366 39.5773L42.3812 40.5757C43.1745 40.6198 43.97 40.5512 44.7443 40.3719L44.5187 39.3977ZM42.4378 39.5773C40.4622 39.4632 38.9489 38.534 38.1263 37.1984L37.2748 37.7229C38.2857 39.364 40.112 40.4446 42.3801 40.5757L42.4378 39.5773ZM38.1263 37.1983L33.8798 30.3063L33.0284 30.8309L37.2749 37.7229L38.1263 37.1983ZM33.0284 30.8308C34.0392 32.4719 35.8655 33.5525 38.1336 33.6836L38.1913 32.6853C36.2157 32.5711 34.7025 31.6419 33.8798 30.3063L33.0284 30.8308ZM38.1347 33.6837C38.928 33.7277 39.7235 33.6591 40.4978 33.4799L40.2723 32.5057C39.59 32.6636 38.8891 32.724 38.1902 32.6852L38.1347 33.6837Z" fill="url(#paint29_linear_272_11514)" mask="url(#path-48-inside-19_272_11514)"/>
<mask id="path-50-inside-20_272_11514" fill="white">
<path d="M65.5669 10.514L69.8134 17.4032C70.0177 17.7344 70.2123 18.0727 70.3984 18.4152L66.1505 11.526C65.9639 11.1821 65.7694 10.8447 65.5669 10.514Z"/>
</mask>
<path d="M65.5669 10.514L69.8134 17.4032C70.0177 17.7344 70.2123 18.0727 70.3984 18.4152L66.1505 11.526C65.9639 11.1821 65.7694 10.8447 65.5669 10.514Z" fill="#181A1F"/>
<path d="M65.5669 10.514L65.9925 10.2516L65.1405 10.7751L65.5669 10.514ZM69.8134 17.4032L69.3877 17.6656L69.3878 17.6658L69.8134 17.4032ZM70.3984 18.4152L69.9728 18.6776L70.8377 18.1764L70.3984 18.4152ZM66.1505 11.526L65.7111 11.7644L65.7177 11.7766L65.7249 11.7884L66.1505 11.526ZM65.1413 10.7764L69.3877 17.6656L70.239 17.1409L65.9925 10.2516L65.1413 10.7764ZM69.3878 17.6658C69.5868 17.9882 69.7768 18.3185 69.9591 18.654L70.8377 18.1764C70.6477 17.8269 70.4486 17.4806 70.2389 17.1407L69.3878 17.6658ZM70.824 18.1528L66.5761 11.2635L65.7249 11.7884L69.9728 18.6776L70.824 18.1528ZM66.59 11.2875C66.3993 10.936 66.2004 10.5912 65.9933 10.2529L65.1405 10.7751C65.3384 11.0983 65.5286 11.4281 65.7111 11.7644L66.59 11.2875Z" fill="url(#paint30_linear_272_11514)" mask="url(#path-50-inside-20_272_11514)"/>
<mask id="path-52-inside-21_272_11514" fill="white">
<path d="M66.1506 11.5259L70.3985 18.4151C70.7776 19.1174 71.1159 19.8412 71.4118 20.5828L67.164 13.6936C66.8686 12.9517 66.5302 12.2279 66.1506 11.5259Z"/>
</mask>
<path d="M66.1506 11.5259L70.3985 18.4151C70.7776 19.1174 71.1159 19.8412 71.4118 20.5828L67.164 13.6936C66.8686 12.9517 66.5302 12.2279 66.1506 11.5259Z" fill="#181A1F"/>
<path d="M70.3985 18.4151L70.8385 18.1776L70.8317 18.165L70.8241 18.1527L70.3985 18.4151ZM71.4118 20.5828L70.9862 20.8452L71.8762 20.3975L71.4118 20.5828ZM67.164 13.6936L66.6994 13.8785L66.7155 13.919L66.7384 13.956L67.164 13.6936ZM65.725 11.7883L69.9729 18.6776L70.8241 18.1527L66.5762 11.2635L65.725 11.7883ZM69.9585 18.6526C70.3284 19.338 70.6586 20.0443 70.9474 20.7681L71.8762 20.3975C71.5732 19.638 71.2267 18.8968 70.8385 18.1776L69.9585 18.6526ZM71.8374 20.3204L67.5896 13.4312L66.7384 13.956L70.9862 20.8452L71.8374 20.3204ZM67.6285 13.5087C67.3259 12.7487 66.9793 12.0072 66.5904 11.2881L65.7108 11.7637C66.0812 12.4486 66.4113 13.1547 66.6994 13.8785L67.6285 13.5087Z" fill="url(#paint31_linear_272_11514)" mask="url(#path-52-inside-21_272_11514)"/>
<mask id="path-54-inside-22_272_11514" fill="white">
<path d="M67.1639 13.6936L71.4118 20.5828C71.7409 21.4099 72.0171 22.2573 72.239 23.1198L67.9911 16.2249C67.7699 15.3622 67.4936 14.5148 67.1639 13.6879"/>
</mask>
<path d="M67.1639 13.6936L71.4118 20.5828C71.7409 21.4099 72.0171 22.2573 72.239 23.1198L67.9911 16.2249C67.7699 15.3622 67.4936 14.5148 67.1639 13.6879" fill="#181A1F"/>
<path d="M71.4118 20.5828L71.8764 20.398L71.8603 20.3575L71.8374 20.3204L71.4118 20.5828ZM72.239 23.1198L71.8133 23.382L72.7232 22.9952L72.239 23.1198ZM67.9911 16.2249L67.5068 16.3491L67.5256 16.4226L67.5654 16.4872L67.9911 16.2249ZM66.7383 13.956L70.9862 20.8452L71.8374 20.3204L67.5895 13.4312L66.7383 13.956ZM70.9472 20.7676C71.2684 21.575 71.5382 22.4023 71.7548 23.2443L72.7232 22.9952C72.4961 22.1122 72.2133 21.2447 71.8764 20.398L70.9472 20.7676ZM72.6647 22.8575L68.4168 15.9626L67.5654 16.4872L71.8133 23.382L72.6647 22.8575ZM68.4755 16.1007C68.2489 15.2173 67.966 14.3495 67.6284 13.5028L66.6995 13.8731C67.0212 14.6801 67.2909 15.5071 67.5068 16.3491L68.4755 16.1007Z" fill="url(#paint32_linear_272_11514)" mask="url(#path-54-inside-22_272_11514)"/>
<path d="M68.6301 18.0329C68.6074 17.895 68.5834 17.7576 68.558 17.6207L72.0062 23.213C72.0476 23.3756 72.0873 23.539 72.1252 23.7031L68.6301 18.0329Z" fill="#181A1F" stroke="url(#paint33_linear_272_11514)" stroke-width="0.5"/>
<path d="M68.7469 24.8465C68.761 24.7328 68.7742 24.6193 68.7867 24.5058L72.5989 30.6906C72.5892 30.8087 72.5786 30.927 72.5671 31.0453L68.7469 24.8465Z" fill="#181A1F" stroke="url(#paint34_linear_272_11514)" stroke-width="0.5"/>
<mask id="path-58-inside-23_272_11514" fill="white">
<path d="M68.488 24.9027L72.7344 31.7934C72.5928 32.8981 72.3815 33.9926 72.1018 35.0703C71.8512 36.0367 71.5494 36.989 71.1976 37.9229L66.9512 31.0337C67.3029 30.0999 67.6043 29.1476 67.8539 28.181C68.1346 27.103 68.3464 26.008 68.488 24.9027Z"/>
</mask>
<path d="M68.488 24.9027L72.7344 31.7934C72.5928 32.8981 72.3815 33.9926 72.1018 35.0703C71.8512 36.0367 71.5494 36.989 71.1976 37.9229L66.9512 31.0337C67.3029 30.0999 67.6043 29.1476 67.8539 28.181C68.1346 27.103 68.3464 26.008 68.488 24.9027Z" fill="#181A1F"/>
<path d="M72.7344 31.7934L73.2304 31.857L73.2529 31.6816L73.1601 31.531L72.7344 31.7934ZM72.1018 35.0703L71.6178 34.9447L71.6178 34.9448L72.1018 35.0703ZM71.1976 37.9229L70.772 38.1853L71.3065 39.0524L71.6655 38.0991L71.1976 37.9229ZM66.9512 31.0337L66.4833 30.8574L66.3968 31.0871L66.5255 31.296L66.9512 31.0337ZM67.8539 28.181L67.3701 28.055L67.3698 28.056L67.8539 28.181ZM68.0623 25.165L72.3088 32.0557L73.1601 31.531L68.9136 24.6404L68.0623 25.165ZM72.2385 31.7298C72.0995 32.8136 71.8922 33.8874 71.6178 34.9447L72.5858 35.1958C72.8707 34.0978 73.086 32.9825 73.2304 31.857L72.2385 31.7298ZM71.6178 34.9448C71.3717 35.894 71.0752 36.8294 70.7297 37.7467L71.6655 38.0991C72.0236 37.1486 72.3308 36.1794 72.5858 35.1957L71.6178 34.9448ZM71.6233 37.6606L67.3768 30.7713L66.5255 31.296L70.772 38.1853L71.6233 37.6606ZM67.4191 31.2099C67.7771 30.2593 68.0839 29.29 68.338 28.3061L67.3698 28.056C67.1246 29.0052 66.8287 29.9404 66.4833 30.8574L67.4191 31.2099ZM68.3378 28.307C68.6238 27.2084 68.8396 26.0926 68.9839 24.9662L67.992 24.8392C67.8531 25.9234 67.6454 26.9976 67.3701 28.055L68.3378 28.307Z" fill="url(#paint35_linear_272_11514)" mask="url(#path-58-inside-23_272_11514)"/>
<path d="M66.603 32.5645C66.7425 32.2449 66.8762 31.9221 67.0041 31.596L70.9205 37.9498C70.7963 38.2787 70.6658 38.6062 70.5292 38.9321L66.603 32.5645Z" fill="#181A1F" stroke="url(#paint36_linear_272_11514)" stroke-width="0.5"/>
<path d="M75.7129 33.3713L66.2999 32.8251L65.9393 32.8042L66.0859 32.4741C66.7114 31.0658 67.2218 29.6084 67.6121 28.1165C67.6121 28.1164 67.6121 28.1164 67.6121 28.1163L67.854 28.1796C68.2338 26.7243 68.4863 25.2382 68.6084 23.7385L75.7129 33.3713ZM75.7129 33.3713L74.4205 38.4L63.2637 37.7537L63.1248 37.7456L63.0447 37.8594C56.4251 47.269 44.6809 53.4942 33.0317 52.8189C21.3939 52.1443 13.2284 44.7859 11.6103 34.9577L11.5778 34.7603L11.3781 34.7488L0.319714 34.1082L1.62107 29.0781L11.1308 29.63L11.3744 29.6441L11.3945 29.4009C11.5167 27.9157 11.7667 26.444 12.1416 25.0023C12.5301 23.5107 13.0382 22.0532 13.6609 20.6445L13.8067 20.3147L13.4468 20.2938L4.03574 19.7477L5.33708 14.7189L16.4942 15.3639L16.6331 15.3719L16.7131 15.2582C23.3328 5.84998 35.077 -0.375297 46.7261 0.30002C58.3639 0.974677 66.5295 8.33303 68.149 18.1612L68.1815 18.3586L68.3811 18.3702L79.4354 19.0121L75.7129 33.3713ZM34.1477 48.8996C47.1393 49.6532 60.2482 40.2939 63.4367 27.973C65.0331 21.804 63.8419 16.0518 60.6084 11.7453C57.3754 7.43939 52.1154 4.59814 45.6102 4.21939C32.6171 3.46287 19.5083 12.8265 16.3198 25.1502C14.7234 31.3206 15.9152 37.0728 19.1493 41.3785C22.3829 45.6835 27.6433 48.5229 34.1477 48.8996Z" fill="#181A1F" stroke="url(#paint37_linear_272_11514)" stroke-width="0.5"/>
<path d="M46.0868 22.6758C47.792 25.442 46.4772 29.4642 43.0067 31.6336C39.5362 33.803 35.3732 33.2049 33.668 30.4387C31.9628 27.6725 33.2776 23.6503 36.7481 21.4809C40.2186 19.3115 44.3816 19.9096 46.0868 22.6758Z" fill="#181A1F" stroke="url(#paint38_linear_272_11514)" stroke-width="0.5"/>
<path d="M69.0729 24.0172L78.18 24.5443L82.1064 30.9155L72.9992 30.3871L69.0729 24.0172Z" fill="#181A1F" stroke="url(#paint39_linear_272_11514)" stroke-width="0.5"/>
<path d="M78.5933 24.2618L79.8486 19.4108L83.7314 25.7099L82.476 30.5622L78.5933 24.2618Z" fill="#181A1F" stroke="url(#paint40_linear_272_11514)" stroke-width="0.5"/>
<mask id="path-65-inside-24_272_11514" fill="white">
<path d="M63.2463 38.0033L67.4927 44.8939C67.1456 45.3872 66.785 45.8716 66.4108 46.347L62.163 39.4578C62.5362 38.9814 62.8973 38.4965 63.2463 38.0033Z"/>
</mask>
<path d="M63.2463 38.0033L67.4927 44.8939C67.1456 45.3872 66.785 45.8716 66.4108 46.347L62.163 39.4578C62.5362 38.9814 62.8973 38.4965 63.2463 38.0033Z" fill="#181A1F"/>
<path d="M67.4927 44.8939L67.9017 45.1816L68.0913 44.9121L67.9184 44.6316L67.4927 44.8939ZM66.4108 46.347L65.9852 46.6094L66.361 47.2188L66.8037 46.6562L66.4108 46.347ZM62.163 39.4578L61.7694 39.1494L61.5545 39.4236L61.7374 39.7202L62.163 39.4578ZM62.8206 38.2656L67.0671 45.1562L67.9184 44.6316L63.6719 37.7409L62.8206 38.2656ZM67.0838 44.6062C66.7419 45.0921 66.3866 45.5693 66.0179 46.0378L66.8037 46.6562C67.1834 46.1738 67.5494 45.6823 67.9017 45.1816L67.0838 44.6062ZM66.8364 46.0846L62.5886 39.1953L61.7374 39.7202L65.9852 46.6094L66.8364 46.0846ZM62.5566 39.7661C62.9348 39.2833 63.3008 38.792 63.6545 38.292L62.8381 37.7145C62.4938 38.2011 62.1376 38.6794 61.7694 39.1494L62.5566 39.7661Z" fill="url(#paint41_linear_272_11514)" mask="url(#path-65-inside-24_272_11514)"/>
<mask id="path-67-inside-25_272_11514" fill="white">
<path d="M62.1629 39.4578L66.4108 46.354C65.7651 47.1724 65.082 47.9631 64.3617 48.7261L60.1152 41.8298C60.8346 41.0687 61.5172 40.278 62.1629 39.4578Z"/>
</mask>
<path d="M62.1629 39.4578L66.4108 46.354C65.7651 47.1724 65.082 47.9631 64.3617 48.7261L60.1152 41.8298C60.8346 41.0687 61.5172 40.278 62.1629 39.4578Z" fill="#181A1F"/>
<path d="M66.4108 46.354L66.8033 46.6637L67.0198 46.3894L66.8365 46.0918L66.4108 46.354ZM64.3617 48.7261L63.9359 48.9883L64.2777 49.5433L64.7253 49.0693L64.3617 48.7261ZM60.1152 41.8298L59.7519 41.4864L59.4883 41.7652L59.6895 42.092L60.1152 41.8298ZM61.7372 39.72L65.985 46.6163L66.8365 46.0918L62.5886 39.1955L61.7372 39.72ZM66.0182 46.0443C65.3817 46.8511 64.7084 47.6306 63.9981 48.3828L64.7253 49.0693C65.4557 48.2957 66.1484 47.4938 66.8033 46.6637L66.0182 46.0443ZM64.7875 48.4639L60.541 41.5677L59.6895 42.092L63.9359 48.9883L64.7875 48.4639ZM60.4786 42.1733C61.2083 41.4013 61.9007 40.5992 62.5558 39.767L61.77 39.1485C61.1337 39.9569 60.461 40.7362 59.7519 41.4864L60.4786 42.1733Z" fill="url(#paint42_linear_272_11514)" mask="url(#path-67-inside-25_272_11514)"/>
<mask id="path-69-inside-26_272_11514" fill="white">
<path d="M60.1154 41.8298L64.3618 48.719C63.7087 49.4153 63.0219 50.0862 62.3016 50.7317L58.0537 43.8424C58.7685 43.1988 59.4557 42.5279 60.1154 41.8298Z"/>
</mask>
<path d="M60.1154 41.8298L64.3618 48.719C63.7087 49.4153 63.0219 50.0862 62.3016 50.7317L58.0537 43.8424C58.7685 43.1988 59.4557 42.5279 60.1154 41.8298Z" fill="#181A1F"/>
<path d="M64.3618 48.719L64.7265 49.0611L64.9881 48.7822L64.7875 48.4567L64.3618 48.719ZM62.3016 50.7317L61.876 50.9941L62.1899 51.5032L62.6353 51.104L62.3016 50.7317ZM58.0537 43.8424L57.7191 43.4709L57.4093 43.7499L57.6281 44.1049L58.0537 43.8424ZM59.6897 42.0921L63.9362 48.9814L64.7875 48.4567L60.541 41.5674L59.6897 42.0921ZM63.9972 48.3769C63.354 49.0625 62.6776 49.7233 61.9679 50.3593L62.6353 51.104C63.3662 50.449 64.0633 49.768 64.7265 49.0611L63.9972 48.3769ZM62.7272 50.4692L58.4793 43.58L57.6281 44.1049L61.876 50.9941L62.7272 50.4692ZM58.3883 44.214C59.113 43.5614 59.8098 42.8811 60.4788 42.1732L59.7519 41.4864C59.1015 42.1747 58.4239 42.8362 57.7191 43.4709L58.3883 44.214Z" fill="url(#paint43_linear_272_11514)" mask="url(#path-69-inside-26_272_11514)"/>
<mask id="path-71-inside-27_272_11514" fill="white">
<path d="M58.0537 43.8424L62.3016 50.7316C61.6158 51.349 60.9071 51.9405 60.1755 52.5061L55.9291 45.6169C56.6597 45.0531 57.3679 44.4616 58.0537 43.8424Z"/>
</mask>
<path d="M58.0537 43.8424L62.3016 50.7316C61.6158 51.349 60.9071 51.9405 60.1755 52.5061L55.9291 45.6169C56.6597 45.0531 57.3679 44.4616 58.0537 43.8424Z" fill="#181A1F"/>
<path d="M62.3016 50.7316L62.6361 51.1033L62.9461 50.8242L62.7272 50.4692L62.3016 50.7316ZM60.1755 52.5061L59.7499 52.7685L60.0416 53.2417L60.4814 52.9016L60.1755 52.5061ZM55.9291 45.6169L55.6236 45.221L55.2672 45.496L55.5034 45.8792L55.9291 45.6169ZM57.6281 44.1048L61.876 50.9941L62.7272 50.4692L58.4793 43.58L57.6281 44.1048ZM61.9671 50.36C61.2905 50.969 60.5914 51.5525 59.8697 52.1106L60.4814 52.9016C61.2228 52.3284 61.941 51.7289 62.6361 51.1033L61.9671 50.36ZM60.6012 52.2437L56.3547 45.3545L55.5034 45.8792L59.7499 52.7685L60.6012 52.2437ZM56.2345 46.0127C56.9753 45.4411 57.6934 44.8413 58.3888 44.2135L57.7186 43.4713C57.0424 44.0819 56.344 44.6651 55.6236 45.221L56.2345 46.0127Z" fill="url(#paint44_linear_272_11514)" mask="url(#path-71-inside-27_272_11514)"/>
<mask id="path-73-inside-28_272_11514" fill="white">
<path d="M55.929 45.6169L60.1755 52.5062C59.4533 53.0643 58.7134 53.5975 57.9557 54.1058L53.7092 47.2166C54.4706 46.712 55.2129 46.1807 55.936 45.6226"/>
</mask>
<path d="M55.929 45.6169L60.1755 52.5062C59.4533 53.0643 58.7134 53.5975 57.9557 54.1058L53.7092 47.2166C54.4706 46.712 55.2129 46.1807 55.936 45.6226" fill="#181A1F"/>
<path d="M60.1755 52.5062L60.4813 52.9018L60.8372 52.6267L60.6011 52.2438L60.1755 52.5062ZM57.9557 54.1058L57.5301 54.3682L57.8027 54.8106L58.2343 54.5211L57.9557 54.1058ZM53.7092 47.2166L53.433 46.7998L53.0297 47.0671L53.2836 47.479L53.7092 47.2166ZM55.5034 45.8793L59.7499 52.7685L60.6011 52.2438L56.3547 45.3546L55.5034 45.8793ZM59.8698 52.1105C59.1564 52.6618 58.4255 53.1885 57.6771 53.6906L58.2343 54.5211C59.0012 54.0065 59.7502 53.4667 60.4813 52.9018L59.8698 52.1105ZM58.3813 53.8435L54.1349 46.9543L53.2836 47.479L57.5301 54.3682L58.3813 53.8435ZM53.9854 47.6334C54.7568 47.1222 55.5089 46.5838 56.2415 46.0184L55.6305 45.2267C54.9169 45.7775 54.1844 46.3019 53.433 46.7998L53.9854 47.6334Z" fill="url(#paint45_linear_272_11514)" mask="url(#path-73-inside-28_272_11514)"/>
<mask id="path-75-inside-29_272_11514" fill="white">
<path d="M53.7022 47.211L57.9557 54.1058C57.1803 54.6189 56.3872 55.1018 55.5763 55.5547L51.3298 48.6655C52.1416 48.2126 52.9347 47.7296 53.7092 47.2166"/>
</mask>
<path d="M53.7022 47.211L57.9557 54.1058C57.1803 54.6189 56.3872 55.1018 55.5763 55.5547L51.3298 48.6655C52.1416 48.2126 52.9347 47.7296 53.7092 47.2166" fill="#181A1F"/>
<path d="M57.9557 54.1058L58.2316 54.5228L58.6355 54.2556L58.3812 53.8433L57.9557 54.1058ZM55.5763 55.5547L55.1507 55.8171L55.402 56.2248L55.8201 55.9912L55.5763 55.5547ZM51.3298 48.6655L51.0862 48.2288L50.6302 48.4833L50.9042 48.9278L51.3298 48.6655ZM53.2767 47.4735L57.5301 54.3684L58.3812 53.8433L54.1277 46.9485L53.2767 47.4735ZM57.6798 53.6888C56.9148 54.195 56.1324 54.6714 55.3325 55.1182L55.8201 55.9912C56.6419 55.5322 57.4457 55.0428 58.2316 54.5228L57.6798 53.6888ZM56.0019 55.2924L51.7555 48.4031L50.9042 48.9278L55.1507 55.8171L56.0019 55.2924ZM51.5734 49.1021C52.3963 48.6431 53.2003 48.1535 53.9853 47.6334L53.4331 46.7998C52.6692 47.3058 51.8869 47.7821 51.0862 48.2288L51.5734 49.1021Z" fill="url(#paint46_linear_272_11514)" mask="url(#path-75-inside-29_272_11514)"/>
<path d="M49.0622 50.0951C49.7973 49.7529 50.5203 49.3859 51.2312 48.9944L55.2151 55.4575C54.5045 55.8487 53.781 56.2152 53.0445 56.557L49.0622 50.0951Z" fill="#181A1F" stroke="url(#paint47_linear_272_11514)" stroke-width="0.5"/>
<path d="M46.0655 51.3355C46.9233 51.0252 47.7695 50.6817 48.6041 50.305L52.5859 56.7662C51.7516 57.1401 50.9043 57.4813 50.0439 57.7898L46.0655 51.3355Z" fill="#181A1F" stroke="url(#paint48_linear_272_11514)" stroke-width="0.5"/>
<mask id="path-79-inside-30_272_11514" fill="white">
<path d="M45.6908 51.2038L49.9372 58.0931C48.7026 58.5264 47.4447 58.8892 46.1694 59.1797L41.923 52.2905C43.1982 51.9975 44.4561 51.6328 45.6908 51.1982"/>
</mask>
<path d="M45.6908 51.2038L49.9372 58.0931C48.7026 58.5264 47.4447 58.8892 46.1694 59.1797L41.923 52.2905C43.1982 51.9975 44.4561 51.6328 45.6908 51.1982" fill="#181A1F"/>
<path d="M49.9372 58.0931L50.1028 58.5648L50.6887 58.3592L50.3629 57.8307L49.9372 58.0931ZM46.1694 59.1797L45.7438 59.4421L45.9316 59.7467L46.2805 59.6672L46.1694 59.1797ZM41.923 52.2905L41.811 51.8032L41.1315 51.9593L41.4973 52.5529L41.923 52.2905ZM45.2651 51.4662L49.5116 58.3554L50.3629 57.8307L46.1164 50.9415L45.2651 51.4662ZM49.7716 57.6213C48.5549 58.0484 47.3151 58.4059 46.0584 58.6922L46.2805 59.6672C47.5742 59.3725 48.8504 59.0045 50.1028 58.5648L49.7716 57.6213ZM46.5951 58.9174L42.3486 52.0281L41.4973 52.5529L45.7438 59.4421L46.5951 58.9174ZM42.035 52.7778C43.3284 52.4806 44.6044 52.1107 45.8568 51.6698L45.5248 50.7266C44.3077 51.1549 43.0679 51.5144 41.811 51.8032L42.035 52.7778Z" fill="url(#paint49_linear_272_11514)" mask="url(#path-79-inside-30_272_11514)"/>
<mask id="path-81-inside-31_272_11514" fill="white">
<path d="M41.9229 52.2961L46.1694 59.1797C43.2515 59.8567 40.2535 60.1167 37.2636 59.9521C28.7776 59.4616 22.1014 55.442 18.433 49.49L14.1865 42.6008C17.8535 48.5513 24.5312 52.571 33.0157 53.0629C36.0061 53.2276 39.0046 52.9676 41.9229 52.2905"/>
</mask>
<path d="M41.9229 52.2961L46.1694 59.1797C43.2515 59.8567 40.2535 60.1167 37.2636 59.9521C28.7776 59.4616 22.1014 55.442 18.433 49.49L14.1865 42.6008C17.8535 48.5513 24.5312 52.571 33.0157 53.0629C36.0061 53.2276 39.0046 52.9676 41.9229 52.2905" fill="#181A1F"/>
<path d="M46.1694 59.1797L46.2824 59.6668L46.9603 59.5095L46.5949 58.9172L46.1694 59.1797ZM37.2636 59.9521L37.2347 60.4513L37.2361 60.4513L37.2636 59.9521ZM18.433 49.49L18.8586 49.2276L18.8586 49.2276L18.433 49.49ZM14.1865 42.6008L14.6122 42.3384L13.7609 42.8631L14.1865 42.6008ZM33.0157 53.0629L32.9868 53.562L32.9882 53.5621L33.0157 53.0629ZM41.4974 52.5587L45.7439 59.4422L46.5949 58.9172L42.3485 52.0336L41.4974 52.5587ZM46.0564 58.6927C43.1845 59.3589 40.2338 59.6148 37.2911 59.4528L37.2361 60.4513C40.2732 60.6185 43.3185 60.3544 46.2824 59.6668L46.0564 58.6927ZM37.2924 59.4529C28.9528 58.9709 22.433 55.027 18.8586 49.2276L18.0073 49.7523C21.7698 55.8569 28.6024 59.9523 37.2347 60.4513L37.2924 59.4529ZM18.8586 49.2276L14.6122 42.3384L13.7609 42.8631L18.0074 49.7523L18.8586 49.2276ZM13.7609 42.8631C17.522 48.9663 24.356 53.0617 32.9868 53.562L33.0446 52.5637C24.7064 52.0803 18.1851 48.1363 14.6122 42.3384L13.7609 42.8631ZM32.9882 53.5621C36.0257 53.7294 39.0715 53.4653 42.0359 52.7776L41.8099 51.8034C38.9376 52.4698 35.9864 52.7257 33.0432 52.5636L32.9882 53.5621Z" fill="url(#paint50_linear_272_11514)" mask="url(#path-81-inside-31_272_11514)"/>
<path d="M63.7109 38.2806L74.464 38.9035L78.3904 45.2748L67.6373 44.6518L63.7109 38.2806Z" fill="#181A1F" stroke="url(#paint51_linear_272_11514)" stroke-width="0.5"/>
<path d="M74.8772 38.6209L76.1326 33.7699L80.0153 40.0691L78.7599 44.9213L74.8772 38.6209Z" fill="#181A1F" stroke="url(#paint52_linear_272_11514)" stroke-width="0.5"/>
<defs>
<linearGradient id="paint0_linear_272_11514" x1="3.71606" y1="23.7068" x2="17.6773" y2="23.7068" gradientUnits="userSpaceOnUse">
<stop stop-color="#CF8D49"/>
<stop offset="1" stop-color="#B63562"/>
</linearGradient>
<linearGradient id="paint1_linear_272_11514" x1="0" y1="38.1139" x2="15.6086" y2="38.1139" gradientUnits="userSpaceOnUse">
<stop stop-color="#CF8D49"/>
<stop offset="1" stop-color="#B63562"/>
</linearGradient>
<linearGradient id="paint2_linear_272_11514" x1="38.1832" y1="12.2539" x2="65.5333" y2="12.2539" gradientUnits="userSpaceOnUse">
<stop stop-color="#CF8D49"/>
<stop offset="1" stop-color="#B63562"/>
</linearGradient>
<linearGradient id="paint3_linear_272_11514" x1="35.0425" y1="9.00947" x2="42.4297" y2="9.00947" gradientUnits="userSpaceOnUse">
<stop stop-color="#CF8D49"/>
<stop offset="1" stop-color="#B63562"/>
</linearGradient>
<linearGradient id="paint4_linear_272_11514" x1="32.5232" y1="9.97421" x2="39.289" y2="9.97421" gradientUnits="userSpaceOnUse">
<stop stop-color="#CF8D49"/>
<stop offset="1" stop-color="#B63562"/>
</linearGradient>
<linearGradient id="paint5_linear_272_11514" x1="30.3412" y1="11.0355" x2="36.7641" y2="11.0355" gradientUnits="userSpaceOnUse">
<stop stop-color="#CF8D49"/>
<stop offset="1" stop-color="#B63562"/>
</linearGradient>
<linearGradient id="paint6_linear_272_11514" x1="28.3494" y1="12.1912" x2="34.5819" y2="12.1912" gradientUnits="userSpaceOnUse">
<stop stop-color="#CF8D49"/>
<stop offset="1" stop-color="#B63562"/>
</linearGradient>
<linearGradient id="paint7_linear_272_11514" x1="26.4963" y1="13.4604" x2="32.6015" y2="13.4604" gradientUnits="userSpaceOnUse">
<stop stop-color="#CF8D49"/>
<stop offset="1" stop-color="#B63562"/>
</linearGradient>
<linearGradient id="paint8_linear_272_11514" x1="24.7273" y1="14.8635" x2="30.7429" y2="14.8635" gradientUnits="userSpaceOnUse">
<stop stop-color="#CF8D49"/>
<stop offset="1" stop-color="#B63562"/>
</linearGradient>
<linearGradient id="paint9_linear_272_11514" x1="23.0127" y1="16.4399" x2="28.9737" y2="16.4399" gradientUnits="userSpaceOnUse">
<stop stop-color="#CF8D49"/>
<stop offset="1" stop-color="#B63562"/>
</linearGradient>
<linearGradient id="paint10_linear_272_11514" x1="21.2854" y1="18.275" x2="27.259" y2="18.275" gradientUnits="userSpaceOnUse">
<stop stop-color="#CF8D49"/>
<stop offset="1" stop-color="#B63562"/>
</linearGradient>
<linearGradient id="paint11_linear_272_11514" x1="19.5247" y1="20.5336" x2="25.5333" y2="20.5336" gradientUnits="userSpaceOnUse">
<stop stop-color="#CF8D49"/>
<stop offset="1" stop-color="#B63562"/>
</linearGradient>
<linearGradient id="paint12_linear_272_11514" x1="17.2756" y1="24.086" x2="23.7713" y2="24.086" gradientUnits="userSpaceOnUse">
<stop stop-color="#CF8D49"/>
<stop offset="1" stop-color="#B63562"/>
</linearGradient>
<linearGradient id="paint13_linear_272_11514" x1="16.0508" y1="28.8132" x2="21.5219" y2="28.8132" gradientUnits="userSpaceOnUse">
<stop stop-color="#CF8D49"/>
<stop offset="1" stop-color="#B63562"/>
</linearGradient>
<linearGradient id="paint14_linear_272_11514" x1="15.8647" y1="33.6038" x2="20.2974" y2="33.6038" gradientUnits="userSpaceOnUse">
<stop stop-color="#CF8D49"/>
<stop offset="1" stop-color="#B63562"/>
</linearGradient>
<linearGradient id="paint15_linear_272_11514" x1="15.967" y1="37.2859" x2="20.6894" y2="37.2859" gradientUnits="userSpaceOnUse">
<stop stop-color="#CF8D49"/>
<stop offset="1" stop-color="#B63562"/>
</linearGradient>
<linearGradient id="paint16_linear_272_11514" x1="16.4441" y1="39.6707" x2="21.3806" y2="39.6707" gradientUnits="userSpaceOnUse">
<stop stop-color="#CF8D49"/>
<stop offset="1" stop-color="#B63562"/>
</linearGradient>
<linearGradient id="paint17_linear_272_11514" x1="17.1343" y1="41.6283" x2="22.2205" y2="41.6283" gradientUnits="userSpaceOnUse">
<stop stop-color="#CF8D49"/>
<stop offset="1" stop-color="#B63562"/>
</linearGradient>
<linearGradient id="paint18_linear_272_11514" x1="17.9783" y1="42.9539" x2="22.7132" y2="42.9539" gradientUnits="userSpaceOnUse">
<stop stop-color="#CF8D49"/>
<stop offset="1" stop-color="#B63562"/>
</linearGradient>
<linearGradient id="paint19_linear_272_11514" x1="46.2999" y1="26.1219" x2="50.6934" y2="26.1219" gradientUnits="userSpaceOnUse">
<stop stop-color="#CF8D49"/>
<stop offset="1" stop-color="#B63562"/>
</linearGradient>
<linearGradient id="paint20_linear_272_11514" x1="46.4468" y1="26.518" x2="50.9466" y2="26.518" gradientUnits="userSpaceOnUse">
<stop stop-color="#CF8D49"/>
<stop offset="1" stop-color="#B63562"/>
</linearGradient>
<linearGradient id="paint21_linear_272_11514" x1="46.7002" y1="27.105" x2="51.1538" y2="27.105" gradientUnits="userSpaceOnUse">
<stop stop-color="#CF8D49"/>
<stop offset="1" stop-color="#B63562"/>
</linearGradient>
<linearGradient id="paint22_linear_272_11514" x1="46.9059" y1="27.8202" x2="51.2937" y2="27.8202" gradientUnits="userSpaceOnUse">
<stop stop-color="#CF8D49"/>
<stop offset="1" stop-color="#B63562"/>
</linearGradient>
<linearGradient id="paint23_linear_272_11514" x1="47.0248" y1="28.9232" x2="51.3269" y2="28.9232" gradientUnits="userSpaceOnUse">
<stop stop-color="#CF8D49"/>
<stop offset="1" stop-color="#B63562"/>
</linearGradient>
<linearGradient id="paint24_linear_272_11514" x1="46.6567" y1="30.3621" x2="51.2713" y2="30.3621" gradientUnits="userSpaceOnUse">
<stop stop-color="#CF8D49"/>
<stop offset="1" stop-color="#B63562"/>
</linearGradient>
<linearGradient id="paint25_linear_272_11514" x1="45.9822" y1="31.7779" x2="50.9047" y2="31.7779" gradientUnits="userSpaceOnUse">
<stop stop-color="#CF8D49"/>
<stop offset="1" stop-color="#B63562"/>
</linearGradient>
<linearGradient id="paint26_linear_272_11514" x1="43.8911" y1="34.5474" x2="48.668" y2="34.5474" gradientUnits="userSpaceOnUse">
<stop stop-color="#CF8D49"/>
<stop offset="1" stop-color="#B63562"/>
</linearGradient>
<linearGradient id="paint27_linear_272_11514" x1="42.7378" y1="35.3486" x2="47.5805" y2="35.3486" gradientUnits="userSpaceOnUse">
<stop stop-color="#CF8D49"/>
<stop offset="1" stop-color="#B63562"/>
</linearGradient>
<linearGradient id="paint28_linear_272_11514" x1="41.3341" y1="36.0146" x2="46.3392" y2="36.0146" gradientUnits="userSpaceOnUse">
<stop stop-color="#CF8D49"/>
<stop offset="1" stop-color="#B63562"/>
</linearGradient>
<linearGradient id="paint29_linear_272_11514" x1="33.4541" y1="35.3287" x2="44.6315" y2="35.3287" gradientUnits="userSpaceOnUse">
<stop stop-color="#CF8D49"/>
<stop offset="1" stop-color="#B63562"/>
</linearGradient>
<linearGradient id="paint30_linear_272_11514" x1="65.5669" y1="14.4646" x2="70.3984" y2="14.4646" gradientUnits="userSpaceOnUse">
<stop stop-color="#CF8D49"/>
<stop offset="1" stop-color="#B63562"/>
</linearGradient>
<linearGradient id="paint31_linear_272_11514" x1="66.1506" y1="16.0544" x2="71.4118" y2="16.0544" gradientUnits="userSpaceOnUse">
<stop stop-color="#CF8D49"/>
<stop offset="1" stop-color="#B63562"/>
</linearGradient>
<linearGradient id="paint32_linear_272_11514" x1="67.1639" y1="18.4039" x2="72.239" y2="18.4039" gradientUnits="userSpaceOnUse">
<stop stop-color="#CF8D49"/>
<stop offset="1" stop-color="#B63562"/>
</linearGradient>
<linearGradient id="paint33_linear_272_11514" x1="67.9911" y1="20.6181" x2="72.6379" y2="20.6181" gradientUnits="userSpaceOnUse">
<stop stop-color="#CF8D49"/>
<stop offset="1" stop-color="#B63562"/>
</linearGradient>
<linearGradient id="paint34_linear_272_11514" x1="68.4879" y1="27.7667" x2="72.8548" y2="27.7667" gradientUnits="userSpaceOnUse">
<stop stop-color="#CF8D49"/>
<stop offset="1" stop-color="#B63562"/>
</linearGradient>
<linearGradient id="paint35_linear_272_11514" x1="66.9512" y1="31.4129" x2="72.7344" y2="31.4129" gradientUnits="userSpaceOnUse">
<stop stop-color="#CF8D49"/>
<stop offset="1" stop-color="#B63562"/>
</linearGradient>
<linearGradient id="paint36_linear_272_11514" x1="66.3213" y1="35.2535" x2="71.1976" y2="35.2535" gradientUnits="userSpaceOnUse">
<stop stop-color="#CF8D49"/>
<stop offset="1" stop-color="#B63562"/>
</linearGradient>
<linearGradient id="paint37_linear_272_11514" x1="0.00146484" y1="26.5599" x2="79.7536" y2="26.5599" gradientUnits="userSpaceOnUse">
<stop stop-color="#CF8D49"/>
<stop offset="1" stop-color="#B63562"/>
</linearGradient>
<linearGradient id="paint38_linear_272_11514" x1="33.4561" y1="30.5713" x2="46.3485" y2="22.6239" gradientUnits="userSpaceOnUse">
<stop stop-color="#CF8D49"/>
<stop offset="1" stop-color="#B63562"/>
</linearGradient>
<linearGradient id="paint39_linear_272_11514" x1="68.6083" y1="27.4665" x2="82.571" y2="27.4665" gradientUnits="userSpaceOnUse">
<stop stop-color="#CF8D49"/>
<stop offset="1" stop-color="#B63562"/>
</linearGradient>
<linearGradient id="paint40_linear_272_11514" x1="78.3246" y1="24.9866" x2="84.0001" y2="24.9866" gradientUnits="userSpaceOnUse">
<stop stop-color="#CF8D49"/>
<stop offset="1" stop-color="#B63562"/>
</linearGradient>
<linearGradient id="paint41_linear_272_11514" x1="62.163" y1="42.1752" x2="67.4927" y2="42.1752" gradientUnits="userSpaceOnUse">
<stop stop-color="#CF8D49"/>
<stop offset="1" stop-color="#B63562"/>
</linearGradient>
<linearGradient id="paint42_linear_272_11514" x1="60.1152" y1="44.092" x2="66.4108" y2="44.092" gradientUnits="userSpaceOnUse">
<stop stop-color="#CF8D49"/>
<stop offset="1" stop-color="#B63562"/>
</linearGradient>
<linearGradient id="paint43_linear_272_11514" x1="58.0537" y1="46.2808" x2="64.3618" y2="46.2808" gradientUnits="userSpaceOnUse">
<stop stop-color="#CF8D49"/>
<stop offset="1" stop-color="#B63562"/>
</linearGradient>
<linearGradient id="paint44_linear_272_11514" x1="55.9291" y1="48.1743" x2="62.3016" y2="48.1743" gradientUnits="userSpaceOnUse">
<stop stop-color="#CF8D49"/>
<stop offset="1" stop-color="#B63562"/>
</linearGradient>
<linearGradient id="paint45_linear_272_11514" x1="53.7092" y1="49.8614" x2="60.1755" y2="49.8614" gradientUnits="userSpaceOnUse">
<stop stop-color="#CF8D49"/>
<stop offset="1" stop-color="#B63562"/>
</linearGradient>
<linearGradient id="paint46_linear_272_11514" x1="51.3298" y1="51.3829" x2="57.9557" y2="51.3829" gradientUnits="userSpaceOnUse">
<stop stop-color="#CF8D49"/>
<stop offset="1" stop-color="#B63562"/>
</linearGradient>
<linearGradient id="paint47_linear_272_11514" x1="48.7014" y1="52.7683" x2="55.5652" y2="52.7683" gradientUnits="userSpaceOnUse">
<stop stop-color="#CF8D49"/>
<stop offset="1" stop-color="#B63562"/>
</linearGradient>
<linearGradient id="paint48_linear_272_11514" x1="45.6907" y1="54.0397" x2="52.9477" y2="54.0397" gradientUnits="userSpaceOnUse">
<stop stop-color="#CF8D49"/>
<stop offset="1" stop-color="#B63562"/>
</linearGradient>
<linearGradient id="paint49_linear_272_11514" x1="41.923" y1="55.189" x2="49.9372" y2="55.189" gradientUnits="userSpaceOnUse">
<stop stop-color="#CF8D49"/>
<stop offset="1" stop-color="#B63562"/>
</linearGradient>
<linearGradient id="paint50_linear_272_11514" x1="14.1865" y1="51.3005" x2="46.1694" y2="51.3005" gradientUnits="userSpaceOnUse">
<stop stop-color="#CF8D49"/>
<stop offset="1" stop-color="#B63562"/>
</linearGradient>
<linearGradient id="paint51_linear_272_11514" x1="63.2463" y1="41.7777" x2="78.855" y2="41.7777" gradientUnits="userSpaceOnUse">
<stop stop-color="#CF8D49"/>
<stop offset="1" stop-color="#B63562"/>
</linearGradient>
<linearGradient id="paint52_linear_272_11514" x1="74.6085" y1="39.3458" x2="80.284" y2="39.3458" gradientUnits="userSpaceOnUse">
<stop stop-color="#CF8D49"/>
<stop offset="1" stop-color="#B63562"/>
</linearGradient>
</defs>
</svg>
