<svg width="110" height="81" viewBox="0 0 110 81" fill="none" xmlns="http://www.w3.org/2000/svg">
<path d="M52.9621 42.387C52.9621 42.387 77.8686 36.0478 84.3471 37.9541C90.8255 39.8604 93.0552 41.5425 94.2689 41.753C95.4825 41.9636 106.014 38.8099 109.466 46.1882C109.466 46.1882 111.694 53.5778 104.809 55.6969C104.809 55.6969 99.1408 57.5964 93.268 55.063C93.268 55.063 86.9914 52.5296 81.11 60.7637C75.2286 68.9979 71.5942 75.9664 67.543 77.0237C63.4918 78.081 53.9782 82.301 48.9152 80.1933L36.5618 78.9164C36.5618 78.9164 33.5223 78.2824 32.1068 76.8041C32.1068 76.8041 29.2714 76.383 27.4499 74.9046C25.6283 73.4262 21.3709 72.3712 20.3635 71.9478C19.3561 71.5244 16.7183 68.57 16.7183 68.57C16.7183 68.57 12.2632 63.7137 11.4534 63.5032C10.6436 63.2926 6.18857 60.5464 4.36704 54.8457C2.54552 49.145 -1.0997 41.753 0.721823 39.8536C2.54335 37.9541 7.20029 36.684 8.82208 39.0091C10.0026 40.7724 11.0841 42.6055 12.0613 44.4993C12.0613 44.4993 18.1403 43.2314 19.5537 47.0327C19.5537 47.0327 22.185 49.7766 22.5932 51.0444L23.3531 51.9115C23.3531 51.9115 27.0439 47.61 32.5041 52.3757L33.62 53.4239C33.62 53.4239 45.1875 43.9197 52.9621 42.387Z" fill="#181A1F"/>
<path d="M52.3326 80.997C51.1495 81.0276 49.9713 80.8272 48.8589 80.4061L36.5402 79.1428C36.3948 79.1133 33.4704 78.4885 32.0049 77.0169C31.5403 76.9399 29.024 76.4667 27.3176 75.0834C25.9823 74.0012 23.2251 73.1228 21.5772 72.593C20.9997 72.4097 20.5438 72.2625 20.2746 72.1538C19.2281 71.7169 16.6598 68.8416 16.5512 68.7194C14.8469 66.8629 11.9377 63.8586 11.3928 63.7182C10.7914 63.5597 6.08448 60.9607 4.15223 54.9113C3.68328 53.4443 3.08189 51.8391 2.50222 50.286C0.765361 45.6154 -0.891165 41.2029 0.548254 39.6883C1.8509 38.3299 4.41927 37.3813 6.38192 37.542C7.5391 37.6348 8.43575 38.0967 8.97635 38.871C10.1339 40.5963 11.1958 42.3893 12.157 44.2411C13.1874 44.0673 14.2341 44.0232 15.2746 44.1098C17.5608 44.3227 19.0957 45.2894 19.7188 46.9013C20.0314 47.2296 22.3241 49.6657 22.7583 50.9222L23.3315 51.5742C24.7774 50.0709 28.3401 48.4635 32.6193 52.1991L33.6071 53.125C34.9706 52.027 45.6262 43.5982 52.8949 42.1605C53.112 42.1062 59.2931 40.5441 66.1645 39.231C75.5348 37.4379 81.6659 36.933 84.3863 37.7299C87.1621 38.5223 89.8712 39.5498 92.4866 40.8022C93.3224 41.1961 93.876 41.4542 94.2842 41.5266C94.753 41.5223 95.2206 41.4776 95.6824 41.3931C98.9911 40.9403 106.737 39.8762 109.629 46.084L109.642 46.1157C109.684 46.2561 110.665 49.6 109.189 52.4866C108.348 54.1257 106.887 55.2736 104.846 55.9029C104.794 55.9211 99.0388 57.7979 93.1618 55.26C93.1053 55.2373 86.9655 52.8986 81.2708 60.8882C79.8705 62.8511 78.6221 64.7053 77.415 66.4984C73.5418 72.2512 70.7433 76.4056 67.5822 77.232C66.7138 77.4583 65.5848 77.8319 64.2822 78.2666C60.6977 79.4688 56.1016 80.997 52.3326 80.997ZM5.94988 37.9812C4.1696 37.9812 2.02024 38.828 0.882601 40.0188C-0.370106 41.3229 1.30379 45.801 2.92123 50.1298C3.50525 51.6874 4.10664 53.2994 4.57993 54.7777C6.30593 60.1796 10.5764 63.0435 11.5122 63.2881C12.3415 63.5145 16.13 67.5896 16.8812 68.4183C17.6324 69.2469 19.6493 71.3999 20.4439 71.7373C20.6871 71.8414 21.1365 71.984 21.7053 72.1652C23.4878 72.7334 26.1843 73.5915 27.5824 74.7257C29.3366 76.1475 32.1091 76.5777 32.1417 76.5799H32.2133L32.2654 76.6343C33.6202 78.047 36.5793 78.6718 36.6076 78.6832L48.9675 79.9487L48.9957 79.9623C52.8862 81.5833 59.6752 79.3239 64.1671 77.8274C65.4698 77.3927 66.6052 77.0169 67.491 76.7859C70.4958 76.0026 73.3985 71.6897 77.0741 66.2312C78.2834 64.4359 79.5339 62.5772 80.9365 60.612C86.8396 52.3326 93.2746 54.8072 93.3376 54.8343C99.0757 57.3089 104.679 55.4818 104.736 55.4637C106.672 54.8683 108.047 53.7952 108.828 52.267C110.172 49.6408 109.325 46.5051 109.262 46.2584C106.501 40.372 98.9824 41.3931 95.7692 41.8345C95.0007 41.9387 94.4926 42.0089 94.2495 41.9658C93.7849 41.8843 93.2117 41.6149 92.3454 41.2074C89.7529 39.9626 87.0661 38.9433 84.3125 38.1601C77.9621 36.2968 53.2879 42.5318 53.0382 42.5952C45.4047 44.1008 33.9024 53.4941 33.7873 53.5869L33.644 53.7069L32.3913 52.5319C30.1964 50.6143 28.0492 49.9487 25.991 50.5531C25.0676 50.8264 24.2262 51.3407 23.5464 52.0474L23.3879 52.233L22.4326 51.1486L22.4196 51.1033C22.0353 49.9011 19.4604 47.207 19.4344 47.1798L19.4018 47.1458L19.3845 47.1006C18.0514 43.5212 12.1982 44.6939 12.1374 44.7075L11.9811 44.7392L11.9051 44.5921C10.931 42.7086 9.85457 40.8846 8.68108 39.1291C8.09489 38.2891 7.11791 38.0424 6.40146 37.9835C6.22994 37.9858 6.08883 37.9812 5.94988 37.9812Z" fill="url(#paint0_linear_1033_5207)"/>
<path d="M62.4604 78.8417C59.8551 78.1761 57.6232 77.6667 56.77 77.5444C55.3805 77.3452 51.9242 76.6864 49.84 74.8276C48.3788 73.5326 45.4804 69.7156 44.0888 67.8817C43.7284 67.4063 43.4679 67.0644 43.3593 66.9308C42.7406 66.1792 42.1956 64.6329 41.9503 63.5145L41.9199 63.3809C41.655 62.1946 41.325 60.7185 42.137 58.8213C42.9859 56.8516 45.1179 55.5679 46.6962 55.4638C47.0517 55.4347 47.4049 55.381 47.7536 55.303C48.7522 55.1061 49.6967 54.9181 50.8473 55.8917C51.2989 56.2743 51.9937 56.7474 52.8013 57.2931C54.5381 58.4635 56.6745 59.9215 57.4474 61.2641C58.4048 62.9304 61.5724 62.0882 61.8243 62.0203C62.4183 61.7378 63.0351 61.5105 63.6675 61.3411C63.813 61.3094 63.9997 61.2573 64.219 61.1962C65.2394 60.9154 66.948 60.4468 68.0487 60.7751L67.9315 61.2098C66.9436 60.9154 65.3067 61.366 64.3297 61.6354C64.1126 61.6965 63.9107 61.7486 63.763 61.7848C63.1542 61.9468 62.56 62.1634 61.9871 62.4323H61.9567C61.8047 62.4776 58.2355 63.5009 57.074 61.4769C56.3532 60.2249 54.2516 58.7986 52.5647 57.6553C51.7483 57.1006 51.0449 56.6229 50.5759 56.2267C49.5816 55.3845 48.774 55.5475 47.8382 55.7309C47.4707 55.811 47.0987 55.8669 46.7245 55.8985C45.3154 55.9913 43.3159 57.198 42.543 58.9888C41.7701 60.7796 42.0827 62.0814 42.3476 63.2609L42.3758 63.3945C42.6624 64.6986 43.2052 66.023 43.6937 66.6184C43.8087 66.7588 44.0714 67.1052 44.434 67.5829C45.817 69.3941 48.6958 73.1976 50.1265 74.4654C52.1217 76.2358 55.4826 76.8765 56.8351 77.069C57.8859 77.2184 60.4847 77.841 62.5689 78.3753L62.4604 78.8417Z" fill="url(#paint1_linear_1033_5207)"/>
<path d="M54.2387 67.7165H53.8045C53.797 67.5897 53.8256 67.4634 53.8866 67.3534C53.9476 67.2435 54.0384 67.1548 54.1476 67.0984L54.1866 67.0758C54.1345 66.6773 52.4823 64.5469 51.7702 63.6254C50.2505 61.6761 48.2162 61.0807 45.6912 61.8595C44.4666 62.2619 43.3146 62.874 42.2827 63.6707L42.0156 63.3153C42.0764 63.2632 48.2162 58.3345 52.1002 63.3515C54.4385 66.3694 54.6664 66.8561 54.6078 67.1867C54.5911 67.2519 54.5605 67.3124 54.5185 67.3637C54.4764 67.415 54.4238 67.4559 54.3647 67.4833C54.2778 67.5376 54.2387 67.5512 54.2387 67.7165Z" fill="url(#paint2_linear_1033_5207)"/>
<path d="M31.9398 76.949C30.2029 74.762 28.5594 72.421 27.2329 70.5283C26.612 69.6453 26.0757 68.8824 25.6241 68.2643C24.1912 66.3105 20.8825 59.308 20.7414 59.0114L20.7132 58.948C20.6915 58.862 20.6719 58.7759 20.6524 58.6922C19.6255 54.0533 23.199 51.7485 23.2338 51.7259L23.4509 52.1153C22.453 52.7981 21.6857 53.7902 21.2572 54.9519C20.8288 56.1136 20.7607 57.3862 21.0627 58.5903C21.0801 58.6741 21.1018 58.751 21.1213 58.8325C21.3232 59.2604 24.5798 66.1203 25.9476 67.9881C26.4035 68.6084 26.942 69.3737 27.5629 70.2521C28.8851 72.1335 30.5308 74.4744 32.2546 76.6501L31.9398 76.949Z" fill="url(#paint3_linear_1033_5207)"/>
<path d="M40.7238 65.2125C39.0998 60.5826 33.5093 53.639 33.4529 53.5688L33.7851 53.2767C33.8415 53.3469 39.4819 60.3517 41.132 65.0495L40.7238 65.2125Z" fill="url(#paint4_linear_1033_5207)"/>
<path d="M29.8468 66.4984L29.6992 66.0728L31.2819 65.4864C31.2949 65.4864 32.5324 65.26 33.1338 64.4223C33.6766 63.6684 33.0274 62.6247 31.9549 60.8996L31.7986 60.6483C29.5971 57.0983 26.892 56.4395 24.7839 56.2607C23.047 56.1135 21.79 56.9398 21.0692 58.7216L20.6697 58.545C21.219 57.1866 22.3848 55.6018 24.8186 55.8079C29.024 56.1656 30.9519 58.4499 32.1633 60.4037L32.3196 60.6528C33.4551 62.4798 34.2063 63.6865 33.4812 64.694C32.8125 65.6245 31.5554 65.8962 31.3752 65.9301L29.8468 66.4984Z" fill="url(#paint5_linear_1033_5207)"/>
<path d="M17.0941 69.2967L9.072 53.3809C8.37943 52.0565 8.10153 50.7479 8.24916 49.4936C8.63779 46.1678 11.8249 44.3748 11.9595 44.3L12.1636 44.6985C12.131 44.7166 9.04161 46.4599 8.67904 49.548C8.54443 50.7071 8.80496 51.9229 9.45628 53.1703L17.4892 69.0907L17.0941 69.2967Z" fill="url(#paint6_linear_1033_5207)"/>
<path d="M16.063 58.4726V58.0198C16.0761 58.0198 17.4221 58.0198 18.1646 57.4312C18.7443 56.9784 18.5793 56.3309 17.8542 53.9311L17.5806 53.0255C16.8316 50.5011 14.7582 48.7012 11.4365 47.6734C10.4942 47.3813 9.55852 48.0424 8.65101 49.6363L8.27759 49.4099C9.30016 47.6168 10.4031 46.8878 11.5581 47.2432C15.0318 48.3164 17.2029 50.2181 17.9953 52.9032C18.093 53.2292 18.1842 53.5303 18.2688 53.8088C19.0005 56.2335 19.2741 57.1414 18.4252 57.807C17.5763 58.4726 16.1238 58.4726 16.063 58.4726Z" fill="url(#paint7_linear_1033_5207)"/>
<path d="M8.16231 46.1044L7.72809 46.0546C7.81711 45.2169 7.07677 42.7356 4.85143 40.5305C4.01122 39.6951 2.7216 39.4551 1.02166 39.8241L0.934814 39.3713C2.7824 38.9729 4.20228 39.2491 5.15104 40.1954C7.40026 42.4368 8.27737 45.0449 8.16231 46.1044Z" fill="url(#paint8_linear_1033_5207)"/>
<path d="M108.596 53.0866C107.801 49.7676 108.464 47.5511 109.423 46.1203" stroke="url(#paint9_linear_1033_5207)" stroke-width="0.25" stroke-miterlimit="10"/>
<path d="M107.575 54.2163C106.409 49.7789 107.534 46.8448 108.832 45.0743" stroke="url(#paint10_linear_1033_5207)" stroke-width="0.25" stroke-miterlimit="10"/>
<path d="M106.471 54.9883C105.109 49.7811 106.618 46.2108 108.114 44.1438" stroke="url(#paint11_linear_1033_5207)" stroke-width="0.25" stroke-miterlimit="10"/>
<path d="M105.294 55.5226C103.885 49.8038 105.646 45.6901 107.248 43.3378" stroke="url(#paint12_linear_1033_5207)" stroke-width="0.25" stroke-miterlimit="10"/>
<path d="M104.082 55.8871C102.734 49.8694 104.612 45.3052 106.277 42.6677" stroke="url(#paint13_linear_1033_5207)" stroke-width="0.25" stroke-miterlimit="10"/>
<path d="M102.864 56.1316C101.638 49.9713 103.526 45.063 105.213 42.1402" stroke="url(#paint14_linear_1033_5207)" stroke-width="0.25" stroke-miterlimit="10"/>
<path d="M101.633 56.2901C100.569 50.0936 102.393 44.943 104.075 41.7485" stroke="url(#paint15_linear_1033_5207)" stroke-width="0.25" stroke-miterlimit="10"/>
<path d="M100.409 56.367C99.5145 50.2158 101.234 44.9181 102.89 41.4813" stroke="url(#paint16_linear_1033_5207)" stroke-width="0.25" stroke-miterlimit="10"/>
<path d="M99.184 56.3603C98.4698 50.3154 100.052 44.9634 101.674 41.3251" stroke="url(#paint17_linear_1033_5207)" stroke-width="0.25" stroke-miterlimit="10"/>
<path d="M97.9706 56.2743C97.43 50.3879 98.8889 45.0517 100.439 41.2595" stroke="url(#paint18_linear_1033_5207)" stroke-width="0.25" stroke-miterlimit="10"/>
<path d="M42.6926 46.9965C47.5775 45.5747 55.9079 43.3537 59.1559 43.7046C63.8779 44.214 63.0638 44.0442 69.2513 42.8556C75.4389 41.667 77.5535 40.1388 82.1127 41.4972C85.5864 42.5319 89.9134 41.7915 91.9173 40.7795" stroke="url(#paint19_linear_1033_5207)" stroke-width="0.25" stroke-miterlimit="10"/>
<path d="M44.4084 45.9776C49.2543 44.6011 56.4405 42.7696 59.3888 43.0865C64.0089 43.5869 63.2121 43.4193 69.2672 42.2579C75.3223 41.0965 77.3913 39.5977 81.8594 40.9267C85.0639 41.8821 89.0066 41.2957 91.093 40.3947" stroke="url(#paint20_linear_1033_5207)" stroke-width="0.25" stroke-miterlimit="10"/>
<path d="M46.386 44.8977C51.0125 43.6254 56.9982 42.181 59.5948 42.4707C64.1128 42.9575 63.3355 42.7945 69.256 41.658C75.1765 40.5215 77.2043 39.0589 81.566 40.3585C84.4948 41.2301 88.0553 40.7841 90.1743 40.003" stroke="url(#paint21_linear_1033_5207)" stroke-width="0.25" stroke-miterlimit="10"/>
<path d="M48.9915 43.6707C53.0904 42.6043 57.6519 41.6331 59.8121 41.8595C64.2302 42.3372 63.4682 42.1787 69.2562 41.0648C75.0443 39.9509 77.0265 38.5246 81.2926 39.7947C83.937 40.5826 87.1111 40.2701 89.2105 39.6181" stroke="url(#paint22_linear_1033_5207)" stroke-width="0.25" stroke-miterlimit="10"/>
<path d="M57.1873 41.3704C58.1244 41.2206 59.0742 41.1758 60.0205 41.2369C64.3388 41.701 63.5941 41.547 69.2497 40.4603C74.9054 39.3736 76.8485 37.9699 81.0104 39.2174C83.3595 39.917 86.1298 39.7313 88.1576 39.2174" stroke="url(#paint23_linear_1033_5207)" stroke-width="0.25" stroke-miterlimit="10"/>
<path d="M60.4587 40.6414C64.447 41.0693 63.8326 40.9041 69.2668 39.8604C74.79 38.8008 76.681 37.4356 80.7496 38.6491C82.7795 39.2536 85.1351 39.1789 87.0239 38.8031" stroke="url(#paint24_linear_1033_5207)" stroke-width="0.25" stroke-miterlimit="10"/>
<path d="M85.7259 38.3752C84.0629 38.6016 82.1567 38.5789 80.4785 38.0786C79.8811 37.8953 79.2705 37.7628 78.6526 37.6824V37.6824" stroke="url(#paint25_linear_1033_5207)" stroke-width="0.25" stroke-miterlimit="10"/>
<path d="M73.9042 38.1782C72.6363 38.4929 71.1774 38.8959 69.2755 39.2604C65.0137 40.0777 64.5643 40.3426 62.5278 40.2" stroke="url(#paint26_linear_1033_5207)" stroke-width="0.25" stroke-miterlimit="10"/>
<path d="M80.552 37.6031C81.7435 37.8887 82.9685 37.9924 84.1885 37.911" stroke="url(#paint27_linear_1033_5207)" stroke-width="0.25" stroke-miterlimit="10"/>
<path d="M27.9608 15.0068L30.7373 19.704L24.3854 19.3206L21.6089 14.6234L27.9608 15.0068Z" fill="#181A1F" stroke="url(#paint28_linear_1033_5207)" stroke-width="0.5"/>
<path d="M26.6073 24.8626L29.3847 29.5598L21.9557 29.111L19.1792 24.4138L26.6073 24.8626Z" fill="#181A1F" stroke="url(#paint29_linear_1033_5207)" stroke-width="0.5"/>
<path d="M59.2505 9.99147L62.027 14.6896C60.0284 11.308 56.3907 9.01994 51.7657 8.74414C50.1393 8.65127 48.5085 8.79845 46.921 9.18138L44.1445 4.48418C45.732 4.10125 47.3628 3.95407 48.9892 4.04694C53.6133 4.32658 57.2555 6.61079 59.2505 9.99147Z" fill="#181A1F" stroke="url(#paint30_linear_1033_5207)" stroke-width="0.5"/>
<path d="M44.1451 4.48419L46.9216 9.1814C46.2265 9.34731 45.5409 9.55425 44.868 9.80122L42.0916 5.10402C42.7644 4.85692 43.45 4.64998 44.1451 4.48419" fill="#181A1F"/>
<path d="M44.1451 4.48419L46.9216 9.1814C46.2265 9.34731 45.5409 9.55425 44.868 9.80122L42.0916 5.10402C42.7644 4.85692 43.45 4.64998 44.1451 4.48419" stroke="url(#paint31_linear_1033_5207)" stroke-width="0.5"/>
<path d="M42.0906 5.10406L44.8671 9.80127C44.3079 10.0069 43.7561 10.2385 43.2199 10.497L40.4434 5.7998C40.9833 5.54355 41.5324 5.31163 42.0906 5.10406Z" fill="#181A1F" stroke="url(#paint32_linear_1033_5207)" stroke-width="0.5"/>
<path d="M40.4404 5.79974L43.2168 10.4969C42.7337 10.7276 42.2593 10.9781 41.7938 11.2484L39.0173 6.55122C39.481 6.28087 39.9553 6.03038 40.4404 5.79974Z" fill="#181A1F" stroke="url(#paint33_linear_1033_5207)" stroke-width="0.5"/>
<path d="M39.0176 6.55121L41.7904 11.2484C41.3475 11.5047 40.9146 11.7795 40.4918 12.0729L37.7153 7.37572C38.1375 7.08358 38.5704 6.80875 39.0139 6.55121" fill="#181A1F"/>
<path d="M39.0176 6.55121L41.7904 11.2484C41.3475 11.5047 40.9146 11.7795 40.4918 12.0729L37.7153 7.37572C38.1375 7.08358 38.5704 6.80875 39.0139 6.55121" stroke="url(#paint34_linear_1033_5207)" stroke-width="0.5"/>
<path d="M37.7187 7.37579L40.4952 12.073C40.0797 12.3594 39.6746 12.6614 39.2799 12.9792L36.5034 8.28199C36.8969 7.96167 37.302 7.6596 37.7187 7.37579Z" fill="#181A1F" stroke="url(#paint35_linear_1033_5207)" stroke-width="0.5"/>
<path d="M36.5036 8.28192L39.2801 12.9791C38.8824 13.2994 38.4968 13.6351 38.1234 13.9862L35.3469 9.28901C35.7197 8.93922 36.1053 8.60352 36.5036 8.28192Z" fill="#181A1F" stroke="url(#paint36_linear_1033_5207)" stroke-width="0.5"/>
<path d="M35.3466 9.28906L38.1231 13.9863C37.7345 14.3527 37.3608 14.7336 37.0021 15.1289L34.2256 10.4307C34.5837 10.0354 34.9574 9.65487 35.3466 9.28906Z" fill="#181A1F" stroke="url(#paint37_linear_1033_5207)" stroke-width="0.5"/>
<path d="M34.2257 10.4306L37.0022 15.1288C36.6062 15.565 36.2307 16.0186 35.8757 16.4895L33.0964 11.7923C33.4515 11.3221 33.8273 10.8682 34.2239 10.4306" fill="#181A1F"/>
<path d="M34.2257 10.4306L37.0022 15.1288C36.6062 15.565 36.2307 16.0186 35.8757 16.4895L33.0964 11.7923C33.4515 11.3221 33.8273 10.8682 34.2239 10.4306" stroke="url(#paint38_linear_1033_5207)" stroke-width="0.5"/>
<path d="M33.0965 11.7923L35.8739 16.4895C35.4589 17.0391 35.0737 17.6127 34.72 18.2077L31.9453 13.5105C32.2984 12.9158 32.6827 12.3422 33.0965 11.7923Z" fill="#181A1F" stroke="url(#paint39_linear_1033_5207)" stroke-width="0.5"/>
<path d="M31.9455 13.5106L34.722 18.2078C34.133 19.1952 33.6403 20.2425 33.2513 21.3338L30.4749 16.6366C30.8632 15.5451 31.356 14.4977 31.9455 13.5106" fill="#181A1F"/>
<path d="M31.9455 13.5106L34.722 18.2078C34.133 19.1952 33.6403 20.2425 33.2513 21.3338L30.4749 16.6366C30.8632 15.5451 31.356 14.4977 31.9455 13.5106" stroke="url(#paint40_linear_1033_5207)" stroke-width="0.5"/>
<path d="M30.4746 16.6366L33.2511 21.3338C33.0708 21.8426 32.915 22.3605 32.7843 22.8858C32.6392 23.4676 32.5276 24.058 32.4503 24.6539L29.6738 19.9567C29.7511 19.3608 29.8626 18.7703 30.0078 18.1886C30.1381 17.6632 30.2938 17.1452 30.4746 16.6366" fill="#181A1F"/>
<path d="M30.4746 16.6366L33.2511 21.3338C33.0708 21.8426 32.915 22.3605 32.7843 22.8858C32.6392 23.4676 32.5276 24.058 32.4503 24.6539L29.6738 19.9567C29.7511 19.3608 29.8626 18.7703 30.0078 18.1886C30.1381 17.6632 30.2938 17.1452 30.4746 16.6366" stroke="url(#paint41_linear_1033_5207)" stroke-width="0.5"/>
<path d="M29.674 19.9568L32.4505 24.654C32.3101 25.7187 32.2919 26.7973 32.3965 27.8665L29.6191 23.1683C29.5146 22.0994 29.5327 21.0212 29.6731 19.9568" fill="#181A1F"/>
<path d="M29.674 19.9568L32.4505 24.654C32.3101 25.7187 32.2919 26.7973 32.3965 27.8665L29.6191 23.1683C29.5146 22.0994 29.5327 21.0212 29.6731 19.9568" stroke="url(#paint42_linear_1033_5207)" stroke-width="0.5"/>
<path d="M29.6191 23.1683L32.3956 27.8664C32.4565 28.4769 32.5605 29.0817 32.7068 29.6759L29.9303 24.9787C29.784 24.3842 29.68 23.779 29.6191 23.1683" fill="#181A1F"/>
<path d="M29.6191 23.1683L32.3956 27.8664C32.4565 28.4769 32.5605 29.0817 32.7068 29.6759L29.9303 24.9787C29.784 24.3842 29.68 23.779 29.6191 23.1683" stroke="url(#paint43_linear_1033_5207)" stroke-width="0.5"/>
<path d="M29.9312 24.9787L32.7076 29.6759C32.8287 30.166 32.9794 30.6474 33.1588 31.1174L30.3823 26.4201C30.203 25.9502 30.0523 25.4687 29.9312 24.9787Z" fill="#181A1F" stroke="url(#paint44_linear_1033_5207)" stroke-width="0.5"/>
<path d="M30.3821 26.4183L33.1586 31.1155C33.3185 31.537 33.5019 31.9484 33.7076 32.3474L30.9312 27.6502C30.7254 27.2512 30.542 26.8398 30.3821 26.4183" fill="#181A1F"/>
<path d="M30.3821 26.4183L33.1586 31.1155C33.3185 31.537 33.5019 31.9484 33.7076 32.3474L30.9312 27.6502C30.7254 27.2512 30.542 26.8398 30.3821 26.4183" stroke="url(#paint45_linear_1033_5207)" stroke-width="0.5"/>
<path d="M30.9341 27.6503L33.7106 32.3475C33.8125 32.5397 33.9189 32.7319 34.03 32.9241L31.2535 28.2259C31.1418 28.0337 31.0347 27.8415 30.9341 27.6494" fill="#181A1F"/>
<path d="M30.9341 27.6503L33.7106 32.3475C33.8125 32.5397 33.9189 32.7319 34.03 32.9241L31.2535 28.2259C31.1418 28.0337 31.0347 27.8415 30.9341 27.6494" stroke="url(#paint46_linear_1033_5207)" stroke-width="0.5"/>
<path d="M49.4514 16.3743L52.2279 21.0734C52.2621 21.1298 52.2941 21.1874 52.324 21.2464L49.5475 16.5472C49.5176 16.4877 49.4871 16.43 49.456 16.3743" fill="#181A1F"/>
<path d="M49.4514 16.3743L52.2279 21.0734C52.2621 21.1298 52.2941 21.1874 52.324 21.2464L49.5475 16.5472C49.5176 16.4877 49.4871 16.43 49.456 16.3743" stroke="url(#paint47_linear_1033_5207)" stroke-width="0.5"/>
<path d="M49.5476 16.5472L52.3241 21.2444C52.3863 21.3639 52.4416 21.4871 52.4897 21.6135L49.7132 16.9163C49.6647 16.7901 49.6094 16.6669 49.5476 16.5472" fill="#181A1F"/>
<path d="M49.5476 16.5472L52.3241 21.2444C52.3863 21.3639 52.4416 21.4871 52.4897 21.6135L49.7132 16.9163C49.6647 16.7901 49.6094 16.6669 49.5476 16.5472" stroke="url(#paint48_linear_1033_5207)" stroke-width="0.5"/>
<path d="M49.7131 16.9163L52.4896 21.6135C52.5431 21.7543 52.5883 21.8984 52.6251 22.045L49.8477 17.3478C49.8115 17.2011 49.7666 17.057 49.7131 16.9163" fill="#181A1F"/>
<path d="M49.7131 16.9163L52.4896 21.6135C52.5431 21.7543 52.5883 21.8984 52.6251 22.045L49.8477 17.3478C49.8115 17.2011 49.7666 17.057 49.7131 16.9163" stroke="url(#paint49_linear_1033_5207)" stroke-width="0.5"/>
<path d="M49.8474 17.3478L52.6248 22.045C52.6677 22.2237 52.6983 22.4055 52.7163 22.5889L49.9398 17.8907C49.9221 17.7076 49.8915 17.5261 49.8483 17.3478" fill="#181A1F"/>
<path d="M49.8474 17.3478L52.6248 22.045C52.6677 22.2237 52.6983 22.4055 52.7163 22.5889L49.9398 17.8907C49.9221 17.7076 49.8915 17.5261 49.8483 17.3478" stroke="url(#paint50_linear_1033_5207)" stroke-width="0.5"/>
<path d="M49.942 17.8907L52.7185 22.5889C52.7498 22.9088 52.7442 23.2314 52.702 23.5499L49.9255 18.8546C49.9672 18.5361 49.9727 18.2135 49.942 17.8936" fill="#181A1F"/>
<path d="M49.942 17.8907L52.7185 22.5889C52.7498 22.9088 52.7442 23.2314 52.702 23.5499L49.9255 18.8546C49.9672 18.5361 49.9727 18.2135 49.942 17.8936" stroke="url(#paint51_linear_1033_5207)" stroke-width="0.5"/>
<path d="M49.9255 18.8546L52.702 23.5518C52.6786 23.7309 52.645 23.9083 52.6013 24.0832C52.5627 24.2407 52.5163 24.3959 52.4622 24.5483L49.6848 19.8511C49.7392 19.6984 49.7859 19.5428 49.8248 19.385C49.8686 19.2105 49.9022 19.0333 49.9255 18.8546" fill="#181A1F"/>
<path d="M49.9255 18.8546L52.702 23.5518C52.6786 23.7309 52.645 23.9083 52.6013 24.0832C52.5627 24.2407 52.5163 24.3959 52.4622 24.5483L49.6848 19.8511C49.7392 19.6984 49.7859 19.5428 49.8248 19.385C49.8686 19.2105 49.9022 19.0333 49.9255 18.8546" stroke="url(#paint52_linear_1033_5207)" stroke-width="0.5"/>
<path d="M49.6847 19.851L52.4621 24.5482C52.3453 24.8757 52.1972 25.1899 52.0201 25.4861L49.2437 20.7851C49.4202 20.4887 49.568 20.1745 49.6847 19.8472" fill="#181A1F"/>
<path d="M49.6847 19.851L52.4621 24.5482C52.3453 24.8757 52.1972 25.1899 52.0201 25.4861L49.2437 20.7851C49.4202 20.4887 49.568 20.1745 49.6847 19.8472" stroke="url(#paint53_linear_1033_5207)" stroke-width="0.5"/>
<path d="M48.2235 22.0555L51 26.7527C50.8884 26.8578 50.7728 26.9584 50.6532 27.0545L47.8767 22.3573C47.9957 22.2612 48.1119 22.1603 48.2235 22.0555Z" fill="#181A1F" stroke="url(#paint54_linear_1033_5207)" stroke-width="0.5"/>
<path d="M47.5127 22.6293L50.2891 27.3265C50.1622 27.4136 50.0323 27.4959 49.8993 27.5734L47.1228 22.8762C47.2558 22.7994 47.3858 22.717 47.5127 22.6293" fill="#181A1F"/>
<path d="M47.5127 22.6293L50.2891 27.3265C50.1622 27.4136 50.0323 27.4959 49.8993 27.5734L47.1228 22.8762C47.2558 22.7994 47.3858 22.717 47.5127 22.6293" stroke="url(#paint55_linear_1033_5207)" stroke-width="0.5"/>
<path d="M46.6951 23.1021L49.4771 27.8002C49.3148 27.8777 49.1495 27.9472 48.9811 28.0087L46.2046 23.3115C46.373 23.25 46.5377 23.1799 46.6997 23.103" fill="#181A1F"/>
<path d="M46.6951 23.1021L49.4771 27.8002C49.3148 27.8777 49.1495 27.9472 48.9811 28.0087L46.2046 23.3115C46.373 23.25 46.5377 23.1799 46.6997 23.103" stroke="url(#paint56_linear_1033_5207)" stroke-width="0.5"/>
<path d="M45.5844 23.497L48.3609 28.1942C47.8848 28.3092 47.3956 28.3532 46.9077 28.3249C45.5204 28.2413 44.4286 27.5561 43.8292 26.5414L41.0527 21.8422C41.6521 22.857 42.7439 23.5422 44.1312 23.6258C44.6191 23.654 45.1083 23.61 45.5844 23.4951" fill="#181A1F"/>
<path d="M45.5844 23.497L48.3609 28.1942C47.8848 28.3092 47.3956 28.3532 46.9077 28.3249C45.5204 28.2413 44.4286 27.5561 43.8292 26.5414L41.0527 21.8422C41.6521 22.857 42.7439 23.5422 44.1312 23.6258C44.6191 23.654 45.1083 23.61 45.5844 23.4951" stroke="url(#paint57_linear_1033_5207)" stroke-width="0.5"/>
<path d="M62.0491 8.1687L64.8256 12.8659C64.9592 13.0917 65.0864 13.3224 65.2081 13.5559L62.4307 8.85868C62.3087 8.6242 62.1815 8.39421 62.0491 8.1687Z" fill="#181A1F" stroke="url(#paint58_linear_1033_5207)" stroke-width="0.5"/>
<path d="M62.4307 8.85864L65.2081 13.5558C65.4559 14.0347 65.6771 14.5281 65.8706 15.0338L63.0932 10.3366C62.9001 9.83076 62.6789 9.33726 62.4307 8.85864" fill="#181A1F"/>
<path d="M62.4307 8.85864L65.2081 13.5558C65.4559 14.0347 65.6771 14.5281 65.8706 15.0338L63.0932 10.3366C62.9001 9.83076 62.6789 9.33726 62.4307 8.85864" stroke="url(#paint59_linear_1033_5207)" stroke-width="0.5"/>
<path d="M63.0935 10.3365L65.8709 15.0337C66.0861 15.5977 66.2667 16.1754 66.4118 16.7635L63.6343 12.0624C63.4897 11.4742 63.3091 10.8965 63.0935 10.3327" fill="#181A1F"/>
<path d="M63.0935 10.3365L65.8709 15.0337C66.0861 15.5977 66.2667 16.1754 66.4118 16.7635L63.6343 12.0624C63.4897 11.4742 63.3091 10.8965 63.0935 10.3327" stroke="url(#paint60_linear_1033_5207)" stroke-width="0.5"/>
<path d="M63.634 12.0624L66.4114 16.7596C66.5158 17.1834 66.6036 17.6149 66.6723 18.0531L63.8958 13.3559C63.8274 12.9171 63.7402 12.4859 63.634 12.0624Z" fill="#181A1F" stroke="url(#paint61_linear_1033_5207)" stroke-width="0.5"/>
<path d="M64.0374 17.1862L66.8139 21.8834C66.7938 22.1467 66.7682 22.411 66.7352 22.6772L63.9587 17.979C63.9911 17.7138 64.0173 17.4495 64.0374 17.1862Z" fill="#181A1F" stroke="url(#paint62_linear_1033_5207)" stroke-width="0.5"/>
<path d="M63.9589 17.9791L66.7354 22.6772C66.6428 23.4304 66.5046 24.1767 66.3218 24.9115C66.1579 25.5704 65.9606 26.2197 65.7306 26.8565L62.9541 22.1593C63.1841 21.5226 63.3811 20.8733 63.5444 20.2143C63.7279 19.4793 63.8663 18.7327 63.9589 17.9791" fill="#181A1F"/>
<path d="M63.9589 17.9791L66.7354 22.6772C66.6428 23.4304 66.5046 24.1767 66.3218 24.9115C66.1579 25.5704 65.9606 26.2197 65.7306 26.8565L62.9541 22.1593C63.1841 21.5226 63.3811 20.8733 63.5444 20.2143C63.7279 19.4793 63.8663 18.7327 63.9589 17.9791" stroke="url(#paint63_linear_1033_5207)" stroke-width="0.5"/>
<path d="M62.9545 22.1592L65.731 26.8564C65.6041 27.2114 65.4672 27.5637 65.3201 27.9135L62.5427 23.2163C62.6898 22.8697 62.827 22.5174 62.9545 22.1592Z" fill="#181A1F" stroke="url(#paint64_linear_1033_5207)" stroke-width="0.5"/>
<path d="M71.325 13.8047L70.3906 17.5697L64.0378 17.1854C63.958 18.2079 63.7929 19.2211 63.5446 20.2134C63.2872 21.2395 62.9505 22.2419 62.5379 23.2106L68.8908 23.595L67.9628 27.3601L60.5338 26.9113C56.176 33.3709 48.445 37.6472 40.7671 37.1831C33.0892 36.7189 27.6808 31.6498 26.6092 24.8625L19.1802 24.4137L20.1145 20.6477L26.4664 21.0321C26.5471 20.0097 26.7122 18.9966 26.9597 18.0041C27.2159 16.9782 27.551 15.9758 27.9617 15.0068L21.6098 14.6225L22.5442 10.8574L29.9732 11.3052C34.331 4.84655 42.062 0.570244 49.7399 1.03439C57.4178 1.49854 62.8262 6.56764 63.8987 13.3549L71.325 13.8047ZM41.5157 34.1704C49.9348 34.6798 58.4336 28.3489 60.4981 20.0298C62.5627 11.7107 57.4114 4.55826 48.9913 4.04702C40.5713 3.53579 32.0725 9.86952 30.008 18.1905C27.9434 26.5115 33.0965 33.6621 41.5157 34.1704Z" fill="#181A1F" stroke="url(#paint65_linear_1033_5207)" stroke-width="0.5"/>
<path d="M47.3845 22.7135C49.7033 21.202 50.6286 18.3622 49.4512 16.3705C48.2739 14.3788 45.4397 13.9895 43.1209 15.501C40.8021 17.0125 39.8768 19.8524 41.0542 21.8441C42.2315 23.8358 45.0657 24.225 47.3845 22.7135Z" fill="#181A1F" stroke="url(#paint66_linear_1033_5207)" stroke-width="0.5"/>
<path d="M70.3904 17.5696L73.1669 22.2678L66.8141 21.8834L64.0376 17.1862L70.3904 17.5696Z" fill="#181A1F" stroke="url(#paint67_linear_1033_5207)" stroke-width="0.5"/>
<path d="M71.325 13.8046L74.1015 18.5018L73.1671 22.2679L70.3906 17.5697L71.325 13.8046Z" fill="#181A1F" stroke="url(#paint68_linear_1033_5207)" stroke-width="0.5"/>
<path d="M60.5318 26.9114L63.3083 31.6095C63.0813 31.9459 62.8455 32.2761 62.6009 32.6003L59.8235 27.9031C60.0675 27.5783 60.3036 27.2477 60.5318 26.9114" fill="#181A1F"/>
<path d="M60.5318 26.9114L63.3083 31.6095C63.0813 31.9459 62.8455 32.2761 62.6009 32.6003L59.8235 27.9031C60.0675 27.5783 60.3036 27.2477 60.5318 26.9114" stroke="url(#paint69_linear_1033_5207)" stroke-width="0.5"/>
<path d="M59.8239 27.9031L62.6013 32.6051C62.1792 33.1631 61.7326 33.7022 61.2616 34.2224L58.4851 29.5204C58.9555 29.0015 59.4018 28.4624 59.8239 27.9031" fill="#181A1F"/>
<path d="M59.8239 27.9031L62.6013 32.6051C62.1792 33.1631 61.7326 33.7022 61.2616 34.2224L58.4851 29.5204C58.9555 29.0015 59.4018 28.4624 59.8239 27.9031" stroke="url(#paint70_linear_1033_5207)" stroke-width="0.5"/>
<path d="M58.4845 29.5203L61.2609 34.2175C60.8339 34.6922 60.3849 35.1497 59.9139 35.5898L57.1365 30.8926C57.6038 30.4537 58.0531 29.9963 58.4845 29.5203" fill="#181A1F"/>
<path d="M58.4845 29.5203L61.2609 34.2175C60.8339 34.6922 60.3849 35.1497 59.9139 35.5898L57.1365 30.8926C57.6038 30.4537 58.0531 29.9963 58.4845 29.5203" stroke="url(#paint71_linear_1033_5207)" stroke-width="0.5"/>
<path d="M57.1365 30.8926L59.9139 35.5898C59.4655 36.0107 59.0021 36.414 58.5238 36.7996L55.7473 32.1024C56.225 31.7181 56.6881 31.3148 57.1365 30.8926" fill="#181A1F"/>
<path d="M57.1365 30.8926L59.9139 35.5898C59.4655 36.0107 59.0021 36.414 58.5238 36.7996L55.7473 32.1024C56.225 31.7181 56.6881 31.3148 57.1365 30.8926" stroke="url(#paint72_linear_1033_5207)" stroke-width="0.5"/>
<path d="M55.7478 32.1025L58.5243 36.7997C58.0521 37.1803 57.5683 37.5439 57.0729 37.8904L54.2964 33.1932C54.7942 32.8492 55.2795 32.4869 55.7524 32.1064" fill="#181A1F"/>
<path d="M55.7478 32.1025L58.5243 36.7997C58.0521 37.1803 57.5683 37.5439 57.0729 37.8904L54.2964 33.1932C54.7942 32.8492 55.2795 32.4869 55.7524 32.1064" stroke="url(#paint73_linear_1033_5207)" stroke-width="0.5"/>
<path d="M54.2916 33.1893L57.0727 37.8904C56.5657 38.2402 56.0471 38.5695 55.517 38.8783L52.7405 34.181C53.2713 33.8723 53.7898 33.543 54.2962 33.1932" fill="#181A1F"/>
<path d="M54.2916 33.1893L57.0727 37.8904C56.5657 38.2402 56.0471 38.5695 55.517 38.8783L52.7405 34.181C53.2713 33.8723 53.7898 33.543 54.2962 33.1932" stroke="url(#paint74_linear_1033_5207)" stroke-width="0.5"/>
<path d="M52.7333 34.1771L55.5097 38.8743C54.9515 39.2004 54.3811 39.5022 53.7985 39.7796L51.022 35.0814C51.604 34.8046 52.1744 34.5032 52.7333 34.1771Z" fill="#181A1F" stroke="url(#paint75_linear_1033_5207)" stroke-width="0.5"/>
<path d="M51.0219 35.0814L53.7984 39.7796C53.1541 40.0871 52.498 40.3635 51.83 40.6089L49.0535 35.9117C49.7203 35.667 50.3764 35.3902 51.0219 35.0814Z" fill="#181A1F" stroke="url(#paint76_linear_1033_5207)" stroke-width="0.5"/>
<path d="M49.0534 35.9117L51.8299 40.6089C51.0226 40.9044 50.2001 41.1518 49.3663 41.3499L46.5898 36.6526C47.4236 36.4529 48.2461 36.2042 49.0534 35.9079" fill="#181A1F"/>
<path d="M49.0534 35.9117L51.8299 40.6089C51.0226 40.9044 50.2001 41.1518 49.3663 41.3499L46.5898 36.6526C47.4236 36.4529 48.2461 36.2042 49.0534 35.9079" stroke="url(#paint77_linear_1033_5207)" stroke-width="0.5"/>
<path d="M46.5899 36.6564L49.3664 41.3498C47.4585 41.8114 45.4983 41.9886 43.5434 41.8764C37.995 41.542 33.6299 38.8013 31.2313 34.7432L28.4548 30.046C30.8525 34.1032 35.2185 36.8438 40.766 37.1792C42.7212 37.2915 44.6818 37.1142 46.5899 36.6526" fill="#181A1F"/>
<path d="M46.5899 36.6564L49.3664 41.3498C47.4585 41.8114 45.4983 41.9886 43.5434 41.8764C37.995 41.542 33.6299 38.8013 31.2313 34.7432L28.4548 30.046C30.8525 34.1032 35.2185 36.8438 40.766 37.1792C42.7212 37.2915 44.6818 37.1142 46.5899 36.6526" stroke="url(#paint78_linear_1033_5207)" stroke-width="0.5"/>
<path d="M67.961 27.3601L70.7375 32.0583L63.3085 31.6095L60.532 26.9114L67.961 27.3601Z" fill="#181A1F" stroke="url(#paint79_linear_1033_5207)" stroke-width="0.5"/>
<path d="M68.8953 23.5949L71.6718 28.2921L70.7374 32.0581L67.9609 27.36L68.8953 23.5949Z" fill="#181A1F" stroke="url(#paint80_linear_1033_5207)" stroke-width="0.5"/>
<defs>
<linearGradient id="paint0_linear_1033_5207" x1="0" y1="59.1821" x2="110" y2="59.1821" gradientUnits="userSpaceOnUse">
<stop stop-color="#CF8D49"/>
<stop offset="1" stop-color="#B63562"/>
</linearGradient>
<linearGradient id="paint1_linear_1033_5207" x1="41.6235" y1="66.9934" x2="68.0487" y2="66.9934" gradientUnits="userSpaceOnUse">
<stop stop-color="#CF8D49"/>
<stop offset="1" stop-color="#B63562"/>
</linearGradient>
<linearGradient id="paint2_linear_1033_5207" x1="42.0156" y1="64.4086" x2="54.6155" y2="64.4086" gradientUnits="userSpaceOnUse">
<stop stop-color="#CF8D49"/>
<stop offset="1" stop-color="#B63562"/>
</linearGradient>
<linearGradient id="paint3_linear_1033_5207" x1="20.467" y1="64.3376" x2="32.2546" y2="64.3376" gradientUnits="userSpaceOnUse">
<stop stop-color="#CF8D49"/>
<stop offset="1" stop-color="#B63562"/>
</linearGradient>
<linearGradient id="paint4_linear_1033_5207" x1="33.4529" y1="59.2447" x2="41.132" y2="59.2447" gradientUnits="userSpaceOnUse">
<stop stop-color="#CF8D49"/>
<stop offset="1" stop-color="#B63562"/>
</linearGradient>
<linearGradient id="paint5_linear_1033_5207" x1="20.6697" y1="61.1441" x2="33.7672" y2="61.1441" gradientUnits="userSpaceOnUse">
<stop stop-color="#CF8D49"/>
<stop offset="1" stop-color="#B63562"/>
</linearGradient>
<linearGradient id="paint6_linear_1033_5207" x1="8.21069" y1="56.7986" x2="17.4892" y2="56.7986" gradientUnits="userSpaceOnUse">
<stop stop-color="#CF8D49"/>
<stop offset="1" stop-color="#B63562"/>
</linearGradient>
<linearGradient id="paint7_linear_1033_5207" x1="8.27759" y1="52.8143" x2="18.9505" y2="52.8143" gradientUnits="userSpaceOnUse">
<stop stop-color="#CF8D49"/>
<stop offset="1" stop-color="#B63562"/>
</linearGradient>
<linearGradient id="paint8_linear_1033_5207" x1="0.934814" y1="42.6496" x2="8.17224" y2="42.6496" gradientUnits="userSpaceOnUse">
<stop stop-color="#CF8D49"/>
<stop offset="1" stop-color="#B63562"/>
</linearGradient>
<linearGradient id="paint9_linear_1033_5207" x1="108.242" y1="49.6035" x2="109.423" y2="49.6035" gradientUnits="userSpaceOnUse">
<stop stop-color="#CF8D49"/>
<stop offset="1" stop-color="#B63562"/>
</linearGradient>
<linearGradient id="paint10_linear_1033_5207" x1="107.087" y1="49.6454" x2="108.832" y2="49.6454" gradientUnits="userSpaceOnUse">
<stop stop-color="#CF8D49"/>
<stop offset="1" stop-color="#B63562"/>
</linearGradient>
<linearGradient id="paint11_linear_1033_5207" x1="105.939" y1="49.5661" x2="108.114" y2="49.5661" gradientUnits="userSpaceOnUse">
<stop stop-color="#CF8D49"/>
<stop offset="1" stop-color="#B63562"/>
</linearGradient>
<linearGradient id="paint12_linear_1033_5207" x1="104.779" y1="49.4303" x2="107.248" y2="49.4303" gradientUnits="userSpaceOnUse">
<stop stop-color="#CF8D49"/>
<stop offset="1" stop-color="#B63562"/>
</linearGradient>
<linearGradient id="paint13_linear_1033_5207" x1="103.622" y1="49.2775" x2="106.277" y2="49.2775" gradientUnits="userSpaceOnUse">
<stop stop-color="#CF8D49"/>
<stop offset="1" stop-color="#B63562"/>
</linearGradient>
<linearGradient id="paint14_linear_1033_5207" x1="102.472" y1="49.136" x2="105.213" y2="49.136" gradientUnits="userSpaceOnUse">
<stop stop-color="#CF8D49"/>
<stop offset="1" stop-color="#B63562"/>
</linearGradient>
<linearGradient id="paint15_linear_1033_5207" x1="101.317" y1="49.0194" x2="104.075" y2="49.0194" gradientUnits="userSpaceOnUse">
<stop stop-color="#CF8D49"/>
<stop offset="1" stop-color="#B63562"/>
</linearGradient>
<linearGradient id="paint16_linear_1033_5207" x1="100.164" y1="48.9243" x2="102.89" y2="48.9243" gradientUnits="userSpaceOnUse">
<stop stop-color="#CF8D49"/>
<stop offset="1" stop-color="#B63562"/>
</linearGradient>
<linearGradient id="paint17_linear_1033_5207" x1="99.0078" y1="48.8428" x2="101.674" y2="48.8428" gradientUnits="userSpaceOnUse">
<stop stop-color="#CF8D49"/>
<stop offset="1" stop-color="#B63562"/>
</linearGradient>
<linearGradient id="paint18_linear_1033_5207" x1="97.8557" y1="48.767" x2="100.439" y2="48.767" gradientUnits="userSpaceOnUse">
<stop stop-color="#CF8D49"/>
<stop offset="1" stop-color="#B63562"/>
</linearGradient>
<linearGradient id="paint19_linear_1033_5207" x1="42.6926" y1="43.888" x2="91.9173" y2="43.888" gradientUnits="userSpaceOnUse">
<stop stop-color="#CF8D49"/>
<stop offset="1" stop-color="#B63562"/>
</linearGradient>
<linearGradient id="paint20_linear_1033_5207" x1="44.4084" y1="43.1862" x2="91.093" y2="43.1862" gradientUnits="userSpaceOnUse">
<stop stop-color="#CF8D49"/>
<stop offset="1" stop-color="#B63562"/>
</linearGradient>
<linearGradient id="paint21_linear_1033_5207" x1="46.386" y1="42.3733" x2="90.1743" y2="42.3733" gradientUnits="userSpaceOnUse">
<stop stop-color="#CF8D49"/>
<stop offset="1" stop-color="#B63562"/>
</linearGradient>
<linearGradient id="paint22_linear_1033_5207" x1="48.9915" y1="41.4833" x2="89.2105" y2="41.4833" gradientUnits="userSpaceOnUse">
<stop stop-color="#CF8D49"/>
<stop offset="1" stop-color="#B63562"/>
</linearGradient>
<linearGradient id="paint23_linear_1033_5207" x1="57.1873" y1="40.1058" x2="88.1576" y2="40.1058" gradientUnits="userSpaceOnUse">
<stop stop-color="#CF8D49"/>
<stop offset="1" stop-color="#B63562"/>
</linearGradient>
<linearGradient id="paint24_linear_1033_5207" x1="60.4587" y1="39.517" x2="87.0239" y2="39.517" gradientUnits="userSpaceOnUse">
<stop stop-color="#CF8D49"/>
<stop offset="1" stop-color="#B63562"/>
</linearGradient>
<linearGradient id="paint25_linear_1033_5207" x1="78.6526" y1="38.0976" x2="85.7259" y2="38.0976" gradientUnits="userSpaceOnUse">
<stop stop-color="#CF8D49"/>
<stop offset="1" stop-color="#B63562"/>
</linearGradient>
<linearGradient id="paint26_linear_1033_5207" x1="62.5278" y1="39.2075" x2="73.9042" y2="39.2075" gradientUnits="userSpaceOnUse">
<stop stop-color="#CF8D49"/>
<stop offset="1" stop-color="#B63562"/>
</linearGradient>
<linearGradient id="paint27_linear_1033_5207" x1="80.552" y1="37.7705" x2="84.1885" y2="37.7705" gradientUnits="userSpaceOnUse">
<stop stop-color="#CF8D49"/>
<stop offset="1" stop-color="#B63562"/>
</linearGradient>
<linearGradient id="paint28_linear_1033_5207" x1="21.6089" y1="17.1638" x2="30.7373" y2="17.1638" gradientUnits="userSpaceOnUse">
<stop stop-color="#CF8D49"/>
<stop offset="1" stop-color="#B63562"/>
</linearGradient>
<linearGradient id="paint29_linear_1033_5207" x1="19.1792" y1="26.9868" x2="29.3847" y2="26.9868" gradientUnits="userSpaceOnUse">
<stop stop-color="#CF8D49"/>
<stop offset="1" stop-color="#B63562"/>
</linearGradient>
<linearGradient id="paint30_linear_1033_5207" x1="44.1445" y1="9.35488" x2="62.027" y2="9.35488" gradientUnits="userSpaceOnUse">
<stop stop-color="#CF8D49"/>
<stop offset="1" stop-color="#B63562"/>
</linearGradient>
<linearGradient id="paint31_linear_1033_5207" x1="42.0916" y1="7.14274" x2="46.9216" y2="7.14274" gradientUnits="userSpaceOnUse">
<stop stop-color="#CF8D49"/>
<stop offset="1" stop-color="#B63562"/>
</linearGradient>
<linearGradient id="paint32_linear_1033_5207" x1="40.4434" y1="7.80058" x2="44.8671" y2="7.80058" gradientUnits="userSpaceOnUse">
<stop stop-color="#CF8D49"/>
<stop offset="1" stop-color="#B63562"/>
</linearGradient>
<linearGradient id="paint33_linear_1033_5207" x1="39.0173" y1="8.52412" x2="43.2168" y2="8.52412" gradientUnits="userSpaceOnUse">
<stop stop-color="#CF8D49"/>
<stop offset="1" stop-color="#B63562"/>
</linearGradient>
<linearGradient id="paint34_linear_1033_5207" x1="37.7153" y1="9.3121" x2="41.7904" y2="9.3121" gradientUnits="userSpaceOnUse">
<stop stop-color="#CF8D49"/>
<stop offset="1" stop-color="#B63562"/>
</linearGradient>
<linearGradient id="paint35_linear_1033_5207" x1="36.5034" y1="10.1775" x2="40.4952" y2="10.1775" gradientUnits="userSpaceOnUse">
<stop stop-color="#CF8D49"/>
<stop offset="1" stop-color="#B63562"/>
</linearGradient>
<linearGradient id="paint36_linear_1033_5207" x1="35.3469" y1="11.1341" x2="39.2801" y2="11.1341" gradientUnits="userSpaceOnUse">
<stop stop-color="#CF8D49"/>
<stop offset="1" stop-color="#B63562"/>
</linearGradient>
<linearGradient id="paint37_linear_1033_5207" x1="34.2256" y1="12.209" x2="38.1231" y2="12.209" gradientUnits="userSpaceOnUse">
<stop stop-color="#CF8D49"/>
<stop offset="1" stop-color="#B63562"/>
</linearGradient>
<linearGradient id="paint38_linear_1033_5207" x1="33.0964" y1="13.4601" x2="37.0022" y2="13.4601" gradientUnits="userSpaceOnUse">
<stop stop-color="#CF8D49"/>
<stop offset="1" stop-color="#B63562"/>
</linearGradient>
<linearGradient id="paint39_linear_1033_5207" x1="31.9453" y1="15" x2="35.8739" y2="15" gradientUnits="userSpaceOnUse">
<stop stop-color="#CF8D49"/>
<stop offset="1" stop-color="#B63562"/>
</linearGradient>
<linearGradient id="paint40_linear_1033_5207" x1="30.4749" y1="17.4222" x2="34.722" y2="17.4222" gradientUnits="userSpaceOnUse">
<stop stop-color="#CF8D49"/>
<stop offset="1" stop-color="#B63562"/>
</linearGradient>
<linearGradient id="paint41_linear_1033_5207" x1="29.6738" y1="20.6453" x2="33.2511" y2="20.6453" gradientUnits="userSpaceOnUse">
<stop stop-color="#CF8D49"/>
<stop offset="1" stop-color="#B63562"/>
</linearGradient>
<linearGradient id="paint42_linear_1033_5207" x1="29.5522" y1="23.9117" x2="32.4505" y2="23.9117" gradientUnits="userSpaceOnUse">
<stop stop-color="#CF8D49"/>
<stop offset="1" stop-color="#B63562"/>
</linearGradient>
<linearGradient id="paint43_linear_1033_5207" x1="29.6191" y1="26.4222" x2="32.7068" y2="26.4222" gradientUnits="userSpaceOnUse">
<stop stop-color="#CF8D49"/>
<stop offset="1" stop-color="#B63562"/>
</linearGradient>
<linearGradient id="paint44_linear_1033_5207" x1="29.9312" y1="28.0481" x2="33.1588" y2="28.0481" gradientUnits="userSpaceOnUse">
<stop stop-color="#CF8D49"/>
<stop offset="1" stop-color="#B63562"/>
</linearGradient>
<linearGradient id="paint45_linear_1033_5207" x1="30.3821" y1="29.3829" x2="33.7076" y2="29.3829" gradientUnits="userSpaceOnUse">
<stop stop-color="#CF8D49"/>
<stop offset="1" stop-color="#B63562"/>
</linearGradient>
<linearGradient id="paint46_linear_1033_5207" x1="30.9341" y1="30.2868" x2="34.03" y2="30.2868" gradientUnits="userSpaceOnUse">
<stop stop-color="#CF8D49"/>
<stop offset="1" stop-color="#B63562"/>
</linearGradient>
<linearGradient id="paint47_linear_1033_5207" x1="49.4514" y1="18.8104" x2="52.324" y2="18.8104" gradientUnits="userSpaceOnUse">
<stop stop-color="#CF8D49"/>
<stop offset="1" stop-color="#B63562"/>
</linearGradient>
<linearGradient id="paint48_linear_1033_5207" x1="49.5476" y1="19.0804" x2="52.4897" y2="19.0804" gradientUnits="userSpaceOnUse">
<stop stop-color="#CF8D49"/>
<stop offset="1" stop-color="#B63562"/>
</linearGradient>
<linearGradient id="paint49_linear_1033_5207" x1="49.7131" y1="19.4807" x2="52.6251" y2="19.4807" gradientUnits="userSpaceOnUse">
<stop stop-color="#CF8D49"/>
<stop offset="1" stop-color="#B63562"/>
</linearGradient>
<linearGradient id="paint50_linear_1033_5207" x1="49.8474" y1="19.9684" x2="52.7163" y2="19.9684" gradientUnits="userSpaceOnUse">
<stop stop-color="#CF8D49"/>
<stop offset="1" stop-color="#B63562"/>
</linearGradient>
<linearGradient id="paint51_linear_1033_5207" x1="49.9255" y1="20.7204" x2="52.7384" y2="20.7204" gradientUnits="userSpaceOnUse">
<stop stop-color="#CF8D49"/>
<stop offset="1" stop-color="#B63562"/>
</linearGradient>
<linearGradient id="paint52_linear_1033_5207" x1="49.6848" y1="21.7015" x2="52.702" y2="21.7015" gradientUnits="userSpaceOnUse">
<stop stop-color="#CF8D49"/>
<stop offset="1" stop-color="#B63562"/>
</linearGradient>
<linearGradient id="paint53_linear_1033_5207" x1="49.2437" y1="22.6667" x2="52.4621" y2="22.6667" gradientUnits="userSpaceOnUse">
<stop stop-color="#CF8D49"/>
<stop offset="1" stop-color="#B63562"/>
</linearGradient>
<linearGradient id="paint54_linear_1033_5207" x1="47.8767" y1="24.5551" x2="51" y2="24.5551" gradientUnits="userSpaceOnUse">
<stop stop-color="#CF8D49"/>
<stop offset="1" stop-color="#B63562"/>
</linearGradient>
<linearGradient id="paint55_linear_1033_5207" x1="47.1228" y1="25.1014" x2="50.2891" y2="25.1014" gradientUnits="userSpaceOnUse">
<stop stop-color="#CF8D49"/>
<stop offset="1" stop-color="#B63562"/>
</linearGradient>
<linearGradient id="paint56_linear_1033_5207" x1="46.2046" y1="25.5554" x2="49.4771" y2="25.5554" gradientUnits="userSpaceOnUse">
<stop stop-color="#CF8D49"/>
<stop offset="1" stop-color="#B63562"/>
</linearGradient>
<linearGradient id="paint57_linear_1033_5207" x1="41.0527" y1="25.0878" x2="48.3609" y2="25.0878" gradientUnits="userSpaceOnUse">
<stop stop-color="#CF8D49"/>
<stop offset="1" stop-color="#B63562"/>
</linearGradient>
<linearGradient id="paint58_linear_1033_5207" x1="62.0491" y1="10.8623" x2="65.2081" y2="10.8623" gradientUnits="userSpaceOnUse">
<stop stop-color="#CF8D49"/>
<stop offset="1" stop-color="#B63562"/>
</linearGradient>
<linearGradient id="paint59_linear_1033_5207" x1="62.4307" y1="11.9463" x2="65.8706" y2="11.9463" gradientUnits="userSpaceOnUse">
<stop stop-color="#CF8D49"/>
<stop offset="1" stop-color="#B63562"/>
</linearGradient>
<linearGradient id="paint60_linear_1033_5207" x1="63.0935" y1="13.5481" x2="66.4118" y2="13.5481" gradientUnits="userSpaceOnUse">
<stop stop-color="#CF8D49"/>
<stop offset="1" stop-color="#B63562"/>
</linearGradient>
<linearGradient id="paint61_linear_1033_5207" x1="63.634" y1="15.0578" x2="66.6723" y2="15.0578" gradientUnits="userSpaceOnUse">
<stop stop-color="#CF8D49"/>
<stop offset="1" stop-color="#B63562"/>
</linearGradient>
<linearGradient id="paint62_linear_1033_5207" x1="63.9587" y1="19.9317" x2="66.8139" y2="19.9317" gradientUnits="userSpaceOnUse">
<stop stop-color="#CF8D49"/>
<stop offset="1" stop-color="#B63562"/>
</linearGradient>
<linearGradient id="paint63_linear_1033_5207" x1="62.9541" y1="22.4178" x2="66.7354" y2="22.4178" gradientUnits="userSpaceOnUse">
<stop stop-color="#CF8D49"/>
<stop offset="1" stop-color="#B63562"/>
</linearGradient>
<linearGradient id="paint64_linear_1033_5207" x1="62.5427" y1="25.0364" x2="65.731" y2="25.0364" gradientUnits="userSpaceOnUse">
<stop stop-color="#CF8D49"/>
<stop offset="1" stop-color="#B63562"/>
</linearGradient>
<linearGradient id="paint65_linear_1033_5207" x1="19.1802" y1="19.109" x2="71.325" y2="19.109" gradientUnits="userSpaceOnUse">
<stop stop-color="#CF8D49"/>
<stop offset="1" stop-color="#B63562"/>
</linearGradient>
<linearGradient id="paint66_linear_1033_5207" x1="41.0542" y1="21.8441" x2="49.6746" y2="16.7483" gradientUnits="userSpaceOnUse">
<stop stop-color="#CF8D49"/>
<stop offset="1" stop-color="#B63562"/>
</linearGradient>
<linearGradient id="paint67_linear_1033_5207" x1="64.0376" y1="19.7271" x2="73.1669" y2="19.7271" gradientUnits="userSpaceOnUse">
<stop stop-color="#CF8D49"/>
<stop offset="1" stop-color="#B63562"/>
</linearGradient>
<linearGradient id="paint68_linear_1033_5207" x1="70.3906" y1="18.0363" x2="74.1015" y2="18.0363" gradientUnits="userSpaceOnUse">
<stop stop-color="#CF8D49"/>
<stop offset="1" stop-color="#B63562"/>
</linearGradient>
<linearGradient id="paint69_linear_1033_5207" x1="59.8235" y1="29.7559" x2="63.3083" y2="29.7559" gradientUnits="userSpaceOnUse">
<stop stop-color="#CF8D49"/>
<stop offset="1" stop-color="#B63562"/>
</linearGradient>
<linearGradient id="paint70_linear_1033_5207" x1="58.4851" y1="31.0628" x2="62.6013" y2="31.0628" gradientUnits="userSpaceOnUse">
<stop stop-color="#CF8D49"/>
<stop offset="1" stop-color="#B63562"/>
</linearGradient>
<linearGradient id="paint71_linear_1033_5207" x1="57.1365" y1="32.5551" x2="61.2609" y2="32.5551" gradientUnits="userSpaceOnUse">
<stop stop-color="#CF8D49"/>
<stop offset="1" stop-color="#B63562"/>
</linearGradient>
<linearGradient id="paint72_linear_1033_5207" x1="55.7473" y1="33.8462" x2="59.9139" y2="33.8462" gradientUnits="userSpaceOnUse">
<stop stop-color="#CF8D49"/>
<stop offset="1" stop-color="#B63562"/>
</linearGradient>
<linearGradient id="paint73_linear_1033_5207" x1="54.2964" y1="34.9965" x2="58.5243" y2="34.9965" gradientUnits="userSpaceOnUse">
<stop stop-color="#CF8D49"/>
<stop offset="1" stop-color="#B63562"/>
</linearGradient>
<linearGradient id="paint74_linear_1033_5207" x1="52.7405" y1="36.0338" x2="57.0727" y2="36.0338" gradientUnits="userSpaceOnUse">
<stop stop-color="#CF8D49"/>
<stop offset="1" stop-color="#B63562"/>
</linearGradient>
<linearGradient id="paint75_linear_1033_5207" x1="51.022" y1="36.9784" x2="55.5097" y2="36.9784" gradientUnits="userSpaceOnUse">
<stop stop-color="#CF8D49"/>
<stop offset="1" stop-color="#B63562"/>
</linearGradient>
<linearGradient id="paint76_linear_1033_5207" x1="49.0535" y1="37.8452" x2="53.7984" y2="37.8452" gradientUnits="userSpaceOnUse">
<stop stop-color="#CF8D49"/>
<stop offset="1" stop-color="#B63562"/>
</linearGradient>
<linearGradient id="paint77_linear_1033_5207" x1="46.5898" y1="38.6289" x2="51.8299" y2="38.6289" gradientUnits="userSpaceOnUse">
<stop stop-color="#CF8D49"/>
<stop offset="1" stop-color="#B63562"/>
</linearGradient>
<linearGradient id="paint78_linear_1033_5207" x1="28.4548" y1="35.9776" x2="49.3664" y2="35.9776" gradientUnits="userSpaceOnUse">
<stop stop-color="#CF8D49"/>
<stop offset="1" stop-color="#B63562"/>
</linearGradient>
<linearGradient id="paint79_linear_1033_5207" x1="60.532" y1="29.4849" x2="70.7375" y2="29.4849" gradientUnits="userSpaceOnUse">
<stop stop-color="#CF8D49"/>
<stop offset="1" stop-color="#B63562"/>
</linearGradient>
<linearGradient id="paint80_linear_1033_5207" x1="67.9609" y1="27.8266" x2="71.6718" y2="27.8266" gradientUnits="userSpaceOnUse">
<stop stop-color="#CF8D49"/>
<stop offset="1" stop-color="#B63562"/>
</linearGradient>
</defs>
</svg>
