<svg width="94" height="62" viewBox="0 0 94 62" fill="none" xmlns="http://www.w3.org/2000/svg">
<path d="M37.188 23.5211C38.9151 23.5211 40.6423 23.5332 42.3695 23.5089C42.5265 23.4845 42.5989 23.2897 42.6956 23.1802C46.1982 17.8112 51.8749 13.891 58.1313 12.6614C61.3078 11.9918 64.6655 12.0405 67.8541 12.6858C74.2796 13.9763 79.7751 18.1643 83.4227 23.5089C86.8529 23.5332 90.283 23.5089 93.7132 23.5211C93.8702 23.5089 93.991 23.6185 93.9789 23.7889C93.991 26.1386 93.991 28.4882 93.9789 30.8379C93.9789 30.9353 93.9306 31.0571 93.8219 31.0814C91.4546 31.1545 89.0752 31.0449 86.7079 31.1179C86.6596 31.1301 86.6113 31.1788 86.6113 31.2275C86.6596 31.7388 86.8166 32.2502 86.9012 32.7493C87.2997 35.1842 87.3722 37.7043 87.0703 40.1636C86.9736 41.0158 86.7925 41.868 86.6354 42.708C86.6234 42.7689 86.6838 42.8419 86.7441 42.8541C89.0994 42.9272 91.4667 42.8298 93.8219 42.8906C94.0634 42.9637 93.9668 43.2924 93.991 43.4872C93.9668 45.7395 94.0393 48.0039 93.9668 50.2562C93.846 50.4997 93.4958 50.3658 93.2784 50.4023C90.2347 50.4023 87.191 50.4023 84.1353 50.4023C83.8454 50.4266 83.471 50.3049 83.3019 50.6093C79.7147 56.2826 73.7603 60.3367 67.1898 61.5298C64.3032 62.0289 61.3078 62.0533 58.4212 61.4811C51.8507 60.2758 46.0049 56.173 42.4299 50.524C39.205 50.1832 35.7749 50.5119 32.4896 50.4023C32.2602 50.3658 31.9099 50.4997 31.8012 50.2562C31.777 47.8578 31.7891 45.4473 31.8012 43.0489C31.8133 42.9272 31.922 42.8785 32.0307 42.8785C34.3617 42.8541 36.7049 42.9028 39.0359 42.8663C39.0963 42.8663 39.1688 42.7932 39.1688 42.7324C39.1325 42.2332 38.9635 41.7462 38.9151 41.2471C38.3354 37.9478 38.4924 34.5146 39.2171 31.2397C39.2292 31.1058 39.048 31.0936 38.9393 31.0936C36.6203 31.0814 34.3013 31.1058 31.9703 31.0814C31.777 31.0571 31.8133 30.8379 31.8012 30.6918C31.8133 28.3421 31.7649 25.9925 31.8133 23.6428C31.8374 23.5698 31.922 23.5211 31.9944 23.5211C33.7337 23.5211 35.4608 23.5211 37.188 23.5211ZM62.9263 51.9972C63.8684 52.0215 64.8467 51.9119 65.7646 51.7293C71.5862 50.5362 76.1276 45.8247 77.2387 40.0175C77.6373 38.0817 77.6494 36.0242 77.2387 34.0885C76.1879 28.3787 71.5379 23.5332 65.8733 22.4132C64.0012 21.9871 62.0204 22.0114 60.1483 22.3645C52.1285 23.8011 46.6813 32.5423 48.6863 40.4557C49.9062 45.9586 54.2301 50.4145 59.7739 51.6684C60.8005 51.8876 61.8392 52.0215 62.9263 51.9972Z" fill="url(#paint0_linear_7777_6124)"/>
<path d="M43.493 0.24411C45.8482 0.280632 48.2155 0.171062 50.5707 0.292809C50.9814 0.317158 51.38 0.463253 51.694 0.731091C52.9018 1.66853 52.5515 3.81123 51.078 4.24951C45.2081 4.82171 39.157 3.73819 33.3233 4.85824C23.6488 6.7818 15.7498 15.1578 14.1675 24.9339C14.0468 25.5914 13.9501 26.2731 13.9139 26.9427C13.9139 27.028 13.926 27.1497 14.0226 27.1619C16.3416 27.2106 18.6606 27.1619 20.9796 27.174C22.0303 27.0645 23.1294 27.661 23.3589 28.7567C23.528 29.3655 23.3227 29.9864 23.0087 30.4977C21.668 32.6891 20.3273 34.8927 18.9867 37.0841C17.2354 39.9451 15.4961 42.8061 13.7448 45.6792C13.3221 46.4706 12.5612 47.1645 11.6191 47.055C10.8219 47.0184 10.1939 46.3854 9.83153 45.7158C8.0923 42.8669 6.35306 40.0181 4.61382 37.1571C3.26108 34.9535 1.92041 32.7378 0.567673 30.5342C-0.265709 29.3655 0.157024 27.6245 1.6547 27.2349C2.95913 26.8332 3.90121 28.0506 4.43265 29.0854C6.78786 32.9447 9.15516 36.7919 11.4983 40.6634C11.5828 40.8095 11.7399 41.126 11.8969 40.8947C13.3583 38.5328 14.7835 36.171 16.2329 33.797C16.6918 32.9934 17.2474 32.2386 17.646 31.4108C17.6098 31.1673 17.2354 31.3012 17.0542 31.2647C15.0251 31.1308 12.7906 31.569 10.834 31.0334C9.45711 30.3881 9.77114 28.635 9.81945 27.381C9.89192 26.1392 10.0489 24.8974 10.2663 23.6678C12.1988 12.869 20.8225 3.51905 31.4754 1.08415C31.7652 0.986755 32.0672 0.962402 32.3571 0.877182C36.0288 0.146713 39.7851 0.280632 43.493 0.24411Z" fill="url(#paint1_linear_7777_6124)"/>
<path d="M56.6449 37.0598C56.6449 36.5728 56.6812 36.0736 56.802 35.5988C57.3213 33.0909 59.4591 31.1064 61.9472 30.7047C66.0175 29.962 69.8583 33.9066 69.1215 37.9972C68.7954 40.5295 66.8388 42.6965 64.387 43.2931C61.0172 44.194 57.3696 41.7713 56.7416 38.3259C56.6812 37.912 56.6329 37.4859 56.6449 37.0598Z" fill="url(#paint2_linear_7777_6124)"/>
<defs>
<linearGradient id="paint0_linear_7777_6124" x1="102.411" y1="48.6985" x2="40.5161" y2="48.6985" gradientUnits="userSpaceOnUse">
<stop stop-color="#E29D52"/>
<stop offset="1" stop-color="#CE4A7B"/>
</linearGradient>
<linearGradient id="paint1_linear_7777_6124" x1="59.492" y1="34.6264" x2="7.48101" y2="34.6264" gradientUnits="userSpaceOnUse">
<stop stop-color="#E29D52"/>
<stop offset="1" stop-color="#CE4A7B"/>
</linearGradient>
<linearGradient id="paint2_linear_7777_6124" x1="70.9124" y1="40.0643" x2="58.4067" y2="40.0643" gradientUnits="userSpaceOnUse">
<stop stop-color="#E29D52"/>
<stop offset="1" stop-color="#CE4A7B"/>
</linearGradient>
</defs>
</svg>
