<svg width="79" height="77" viewBox="0 0 79 77" fill="none" xmlns="http://www.w3.org/2000/svg">
<path d="M44.2853 9.9239L44.1613 9.68352L43.9314 9.82591L11.5681 29.8696L11.3717 29.9912L11.4775 30.1966L14.2548 35.5883L14.3787 35.8288L14.6087 35.6864L46.9743 15.6427L47.1707 15.5211L47.0648 15.3157L44.2853 9.9239Z" fill="#23252C" stroke="#6F7380" stroke-width="0.5"/>
<mask id="path-2-outside-1_509_2784" maskUnits="userSpaceOnUse" x="43.0652" y="9.09058" width="5" height="7" fill="black">
<rect fill="white" x="43.0652" y="9.09058" width="5" height="7"/>
<path d="M44.1552 10.1789L46.9352 15.5706C46.9037 15.5208 46.861 15.5027 46.8452 15.4733L44.0652 10.0906C44.0809 10.12 44.1237 10.1404 44.1552 10.1879"/>
</mask>
<path d="M44.1552 10.1789L46.9352 15.5706C46.9037 15.5208 46.861 15.5027 46.8452 15.4733L44.0652 10.0906C44.0809 10.12 44.1237 10.1404 44.1552 10.1879" fill="#23252C"/>
<path d="M46.9352 15.5706L46.5126 15.8378L47.3796 15.3415L46.9352 15.5706ZM46.8452 15.4733L46.4009 15.7027L46.4044 15.7092L46.8452 15.4733ZM44.0652 10.0906L44.506 9.85469L43.6209 10.32L44.0652 10.0906ZM43.7108 10.408L46.4908 15.7997L47.3796 15.3415L44.5996 9.94972L43.7108 10.408ZM47.3578 15.3034C47.3014 15.2141 47.2365 15.158 47.2125 15.137C47.2042 15.1298 47.2055 15.131 47.2029 15.1288C47.2022 15.1281 47.2063 15.1317 47.2124 15.1377C47.2231 15.1483 47.2566 15.1822 47.2861 15.2374L46.4044 15.7092C46.4418 15.7791 46.4865 15.8263 46.5106 15.8501C46.5234 15.8627 46.5348 15.8729 46.5417 15.879C46.5468 15.8835 46.5562 15.8916 46.5562 15.8916C46.5653 15.8995 46.5376 15.8773 46.5126 15.8378L47.3578 15.3034ZM47.2895 15.2438L44.5094 9.86113L43.6209 10.32L46.401 15.7027L47.2895 15.2438ZM43.6243 10.3265C43.6603 10.3936 43.7027 10.4396 43.7259 10.463C43.7472 10.4846 43.771 10.5052 43.7725 10.5065C43.786 10.5185 43.7614 10.4989 43.7383 10.464L44.572 9.91177C44.5174 9.82942 44.4557 9.77584 44.436 9.75837C44.4348 9.75724 44.4335 9.75615 44.4325 9.75529C44.4315 9.75437 44.4307 9.75368 44.43 9.75304C44.4293 9.75241 44.4288 9.75198 44.4284 9.75165C44.4283 9.75149 44.4281 9.75138 44.4281 9.7513C44.428 9.75122 44.4279 9.75118 44.4279 9.75118C44.4279 9.75118 44.428 9.75123 44.4281 9.75131C44.4282 9.7514 44.4283 9.75153 44.4285 9.7517C44.4289 9.75203 44.4294 9.75257 44.4302 9.75327C44.4316 9.75464 44.434 9.75693 44.437 9.75999C44.4468 9.76988 44.478 9.80226 44.506 9.85469L43.6243 10.3265Z" fill="#6F7380" mask="url(#path-2-outside-1_509_2784)"/>
<path d="M52.5969 3.2328L52.1518 3.46046C52.205 3.56545 52.2535 3.67171 52.2954 3.77703L52.2999 3.78845L52.3056 3.79937L55.0856 9.18433L55.5378 8.97169C55.4911 8.86205 55.438 8.73784 55.3742 8.6168L52.5977 3.23437L52.5969 3.2328Z" fill="#23252C" stroke="#6F7380" stroke-width="0.5"/>
<mask id="path-5-outside-2_509_2784" maskUnits="userSpaceOnUse" x="51.5276" y="2.68481" width="5" height="8" fill="black">
<rect fill="white" x="51.5276" y="2.68481" width="5" height="8"/>
<path d="M52.5276 3.68481L55.3076 9.07656C55.3821 9.26118 55.443 9.45108 55.4898 9.64471L52.7098 4.25522C52.6633 4.06076 52.6024 3.87009 52.5276 3.68481Z"/>
</mask>
<path d="M52.5276 3.68481L55.3076 9.07656C55.3821 9.26118 55.443 9.45108 55.4898 9.64471L52.7098 4.25522C52.6633 4.06076 52.6024 3.87009 52.5276 3.68481Z" fill="#23252C"/>
<path d="M55.3076 9.07656L55.7713 8.88943L55.7626 8.86798L55.752 8.84742L55.3076 9.07656ZM55.4898 9.64471L55.0455 9.87393L55.9758 9.52729L55.4898 9.64471ZM52.7098 4.25522L52.2235 4.37138L52.2376 4.43046L52.2654 4.48444L52.7098 4.25522ZM52.0832 3.91395L54.8632 9.3057L55.752 8.84742L52.972 3.45567L52.0832 3.91395ZM54.844 9.2637C54.9093 9.42564 54.9628 9.59224 55.0038 9.76213L55.9758 9.52729C55.9233 9.30993 55.855 9.09672 55.7713 8.88943L54.844 9.2637ZM55.9342 9.4155L53.1541 4.02601L52.2654 4.48444L55.0455 9.87393L55.9342 9.4155ZM53.1961 4.13906C53.1439 3.92038 53.0754 3.70594 52.9912 3.49755L52.064 3.87208C52.1295 4.03424 52.1828 4.20114 52.2235 4.37138L53.1961 4.13906Z" fill="#6F7380" mask="url(#path-5-outside-2_509_2784)"/>
<mask id="path-7-outside-3_509_2784" maskUnits="userSpaceOnUse" x="51.7095" y="3.24841" width="5" height="8" fill="black">
<rect fill="white" x="51.7095" y="3.24841" width="5" height="8"/>
<path d="M52.7095 4.2552L55.4895 9.6379C55.5503 9.8942 55.5872 10.1556 55.5997 10.4188L52.8197 5.02707C52.8073 4.76462 52.7704 4.50392 52.7095 4.24841"/>
</mask>
<path d="M52.7095 4.2552L55.4895 9.6379C55.5503 9.8942 55.5872 10.1556 55.5997 10.4188L52.8197 5.02707C52.8073 4.76462 52.7704 4.50392 52.7095 4.24841" fill="#23252C"/>
<path d="M55.4895 9.6379L55.976 9.52259L55.9619 9.46293L55.9338 9.40846L55.4895 9.6379ZM55.5997 10.4188L55.1553 10.648L56.0992 10.395L55.5997 10.4188ZM52.8197 5.02707L52.3202 5.05068L52.3254 5.15944L52.3753 5.25621L52.8197 5.02707ZM52.2652 4.48465L55.0453 9.86735L55.9338 9.40846L53.1537 4.02576L52.2652 4.48465ZM55.003 9.75321C55.0566 9.97948 55.0892 10.2103 55.1003 10.4427L56.0992 10.395C56.0851 10.101 56.0439 9.80893 55.976 9.52259L55.003 9.75321ZM56.0441 10.1897L53.2641 4.79793L52.3753 5.25621L55.1553 10.648L56.0441 10.1897ZM53.3191 5.00346C53.3052 4.7099 53.264 4.41829 53.1958 4.13248L52.2231 4.36435C52.2768 4.58954 52.3093 4.81933 52.3202 5.05068L53.3191 5.00346Z" fill="#6F7380" mask="url(#path-7-outside-3_509_2784)"/>
<path d="M53.0423 4.91924L52.5702 5.04186C52.5865 5.55025 52.5145 6.0576 52.3574 6.541L52.3574 6.541L52.3568 6.54281C52.2761 6.79751 52.1734 7.04457 52.0497 7.28112L51.9896 7.3961L52.049 7.51145L54.8268 12.9032L55.0462 13.329L55.2701 12.9055C55.4086 12.6434 55.5235 12.3692 55.6132 12.0864C55.7877 11.5482 55.8678 10.9835 55.85 10.4177L55.8482 10.3612L55.8223 10.311L53.0423 4.91924Z" fill="#23252C" stroke="#6F7380" stroke-width="0.5"/>
<mask id="path-10-outside-4_509_2784" maskUnits="userSpaceOnUse" x="50.738" y="6.4082" width="5" height="9" fill="black">
<rect fill="white" x="50.738" y="6.4082" width="5" height="9"/>
<path d="M52.2801 7.4082L55.0579 12.8067C54.8971 13.1091 54.7128 13.3982 54.5068 13.6714L51.738 8.27967C51.9447 8.00651 52.1298 7.71739 52.2914 7.41499"/>
</mask>
<path d="M52.2801 7.4082L55.0579 12.8067C54.8971 13.1091 54.7128 13.3982 54.5068 13.6714L51.738 8.27967C51.9447 8.00651 52.1298 7.71739 52.2914 7.41499" fill="#23252C"/>
<path d="M55.0579 12.8067L55.4993 13.0415L55.6222 12.8106L55.5025 12.578L55.0579 12.8067ZM54.5068 13.6714L54.0621 13.8998L54.4262 14.6089L54.9061 13.9724L54.5068 13.6714ZM51.738 8.27967L51.3393 7.97795L51.1497 8.22854L51.2933 8.50807L51.738 8.27967ZM51.8355 7.63697L54.6133 13.0355L55.5025 12.578L52.7247 7.17944L51.8355 7.63697ZM54.6165 12.572C54.4679 12.8512 54.2978 13.1182 54.1076 13.3704L54.9061 13.9724C55.1279 13.6783 55.3262 13.367 55.4993 13.0415L54.6165 12.572ZM54.9516 13.443L52.1828 8.05126L51.2933 8.50807L54.0621 13.8998L54.9516 13.443ZM52.1367 8.58138C52.3593 8.28733 52.5584 7.97612 52.7323 7.65065L51.8504 7.17934C51.7011 7.45866 51.5302 7.72569 51.3393 7.97795L52.1367 8.58138Z" fill="#6F7380" mask="url(#path-10-outside-4_509_2784)"/>
<mask id="path-12-outside-5_509_2784" maskUnits="userSpaceOnUse" x="50.5337" y="7.27289" width="5" height="8" fill="black">
<rect fill="white" x="50.5337" y="7.27289" width="5" height="8"/>
<path d="M51.7384 8.27968L54.5184 13.6714C54.4554 13.7574 54.3902 13.8412 54.325 13.9249L51.5337 8.52867C51.6012 8.44265 51.6641 8.3589 51.7271 8.27289"/>
</mask>
<path d="M51.7384 8.27968L54.5184 13.6714C54.4554 13.7574 54.3902 13.8412 54.325 13.9249L51.5337 8.52867C51.6012 8.44265 51.6641 8.3589 51.7271 8.27289" fill="#23252C"/>
<path d="M54.5184 13.6714L54.9218 13.9668L55.1046 13.7172L54.9628 13.4423L54.5184 13.6714ZM54.325 13.9249L53.8809 14.1547L54.2396 14.8483L54.7195 14.2322L54.325 13.9249ZM51.5337 8.52867L51.1403 8.22006L50.9419 8.47293L51.0896 8.75839L51.5337 8.52867ZM51.294 8.50882L54.074 13.9006L54.9628 13.4423L52.1828 8.05054L51.294 8.50882ZM54.115 13.3761C54.0571 13.4551 53.9965 13.533 53.9305 13.6177L54.7195 14.2322C54.7839 14.1494 54.8537 14.0598 54.9218 13.9668L54.115 13.3761ZM54.7691 13.6952L51.9778 8.29895L51.0896 8.75839L53.8809 14.1547L54.7691 13.6952ZM51.9271 8.83728C51.9987 8.74602 52.065 8.65773 52.1305 8.56827L51.3237 7.97751C51.2632 8.06008 51.2037 8.13929 51.1403 8.22006L51.9271 8.83728Z" fill="#6F7380" mask="url(#path-12-outside-5_509_2784)"/>
<mask id="path-14-outside-6_509_2784" maskUnits="userSpaceOnUse" x="47.012" y="9.66461" width="5" height="8" fill="black">
<rect fill="white" x="47.012" y="9.66461" width="5" height="8"/>
<path d="M48.0794 10.6678L50.8595 16.0595C50.8372 16.0551 50.8143 16.0551 50.792 16.0595L48.012 10.6678C48.0343 10.6636 48.0571 10.6636 48.0794 10.6678Z"/>
</mask>
<path d="M48.0794 10.6678L50.8595 16.0595C50.8372 16.0551 50.8143 16.0551 50.792 16.0595L48.012 10.6678C48.0343 10.6636 48.0571 10.6636 48.0794 10.6678Z" fill="#23252C"/>
<path d="M50.8595 16.0595L50.7615 16.5498L51.7798 16.7534L51.3039 15.8304L50.8595 16.0595ZM50.792 16.0595L50.3476 16.2887L50.5204 16.6237L50.89 16.5498L50.792 16.0595ZM48.012 10.6678L47.9188 10.1765L47.2605 10.3014L47.5676 10.8969L48.012 10.6678ZM47.635 10.8969L50.4151 16.2887L51.3039 15.8304L48.5238 10.4386L47.635 10.8969ZM50.9575 15.5692C50.8705 15.5519 50.781 15.5519 50.694 15.5692L50.89 16.5498C50.8476 16.5583 50.8039 16.5583 50.7615 16.5498L50.9575 15.5692ZM51.2364 15.8304L48.4564 10.4386L47.5676 10.8969L50.3476 16.2887L51.2364 15.8304ZM48.1051 11.159C48.0659 11.1665 48.0255 11.1665 47.9863 11.159L48.1726 10.1765C48.0887 10.1606 48.0027 10.1606 47.9188 10.1765L48.1051 11.159Z" fill="#6F7380" mask="url(#path-14-outside-6_509_2784)"/>
<path d="M48.2341 10.56L48.1432 10.3837L47.9509 10.4321L47.8699 10.4525L47.5643 10.5294L47.7087 10.8095L50.4888 16.2013L50.5796 16.3775L50.772 16.3291L50.8529 16.3088L51.1586 16.2319L51.0141 15.9517L48.2341 10.56Z" fill="#23252C" stroke="#6F7380" stroke-width="0.5"/>
<mask id="path-17-outside-7_509_2784" maskUnits="userSpaceOnUse" x="46.8638" y="9.69489" width="5" height="7" fill="black">
<rect fill="white" x="46.8638" y="9.69489" width="5" height="7"/>
<path d="M47.9312 10.6949L50.7113 16.0866C50.6889 16.0898 50.6662 16.0898 50.6438 16.0866L47.8638 10.7017C47.886 10.7061 47.909 10.7061 47.9312 10.7017"/>
</mask>
<path d="M47.9312 10.6949L50.7113 16.0866C50.6889 16.0898 50.6662 16.0898 50.6438 16.0866L47.8638 10.7017C47.886 10.7061 47.909 10.7061 47.9312 10.7017" fill="#23252C"/>
<path d="M50.7113 16.0866L50.7805 16.5818L51.4788 16.4842L51.1557 15.8575L50.7113 16.0866ZM50.6438 16.0866L50.1995 16.316L50.3183 16.546L50.5746 16.5818L50.6438 16.0866ZM47.8638 10.7017L47.9618 10.2114L46.9428 10.0077L47.4195 10.931L47.8638 10.7017ZM47.4868 10.924L50.2669 16.3158L51.1557 15.8575L48.3756 10.4657L47.4868 10.924ZM50.6421 15.5915C50.6656 15.5882 50.6895 15.5882 50.7131 15.5915L50.5746 16.5818C50.6429 16.5914 50.7122 16.5914 50.7805 16.5818L50.6421 15.5915ZM51.0881 15.8573L48.3081 10.4723L47.4195 10.931L50.1995 16.316L51.0881 15.8573ZM47.7658 11.192C47.8527 11.2094 47.9423 11.2094 48.0292 11.192L47.8332 10.2114C47.8757 10.2029 47.9194 10.2029 47.9618 10.2114L47.7658 11.192Z" fill="#6F7380" mask="url(#path-17-outside-7_509_2784)"/>
<path d="M11.9306 29.9676L11.6656 29.4533L11.4727 29.9987C11.4479 30.0691 11.4379 30.1438 11.4434 30.2182L11.4471 30.2691L11.4705 30.3144L14.2505 35.7061L14.7222 35.5755C14.7215 35.5644 14.7228 35.5533 14.7259 35.5427L14.7545 35.4464L14.7085 35.357L11.9306 29.9676Z" fill="#23252C" stroke="#6F7380" stroke-width="0.5"/>
<path d="M11.906 30.0853L11.4338 30.1998V30.2V30.2002V30.2004V30.2006V30.2008V30.201V30.2012V30.2014V30.2016V30.2018V30.202V30.2022V30.2024V30.2026V30.2028V30.203V30.2032V30.2034V30.2036V30.2038V30.204V30.2042V30.2044V30.2046V30.2048V30.205V30.2052V30.2054V30.2056V30.2058V30.206V30.2062V30.2064V30.2066V30.2068V30.207V30.2072V30.2073V30.2075V30.2077V30.2079V30.2081V30.2083V30.2085V30.2087V30.2089V30.2091V30.2093V30.2095V30.2097V30.2099V30.2101V30.2103V30.2105V30.2107V30.2109V30.2111V30.2113V30.2115V30.2117V30.2119V30.2121V30.2123V30.2124V30.2126V30.2128V30.213V30.2132V30.2134V30.2136V30.2138V30.214V30.2142V30.2144V30.2146V30.2148V30.215V30.2152V30.2154V30.2156V30.2158V30.2159V30.2161V30.2163V30.2165V30.2167V30.2169V30.2171V30.2173V30.2175V30.2177V30.2179V30.2181V30.2183V30.2185V30.2187V30.2189V30.219V30.2192V30.2194V30.2196V30.2198V30.22V30.2202V30.2204V30.2206V30.2208V30.221V30.2212V30.2214V30.2215V30.2217V30.2219V30.2221V30.2223V30.2225V30.2227V30.2229V30.2231V30.2233V30.2235V30.2237V30.2238V30.224V30.2242V30.2244V30.2246V30.2248V30.225V30.2252V30.2254V30.2256V30.2258V30.2259V30.2261V30.2263V30.2265V30.2267V30.2269V30.2271V30.2273V30.2275V30.2276V30.2278V30.228V30.2282V30.2284V30.2286V30.2288V30.229V30.2292V30.2294V30.2295V30.2297V30.2299V30.2301V30.2303V30.2305V30.2307V30.2309V30.231V30.2312V30.2314V30.2316V30.2318V30.232V30.2322V30.2324V30.2325V30.2327V30.2329V30.2331V30.2333V30.2335V30.2337V30.2339V30.234V30.2342V30.2344V30.2346V30.2348V30.235V30.2352V30.2353V30.2355V30.2357V30.2359V30.2361V30.2363V30.2365V30.2366V30.2368V30.237V30.2372V30.2374V30.2376V30.2378V30.2379V30.2381V30.2383V30.2385V30.2387V30.2389V30.239V30.2392V30.2394V30.2396V30.2398V30.24V30.2402V30.2403V30.2405V30.2407V30.2409V30.2411V30.2413V30.2414V30.2416V30.2418V30.242V30.2422V30.2423V30.2425V30.2427V30.2429V30.2431V30.2433V30.2434V30.2436V30.2438V30.244V30.2442V30.2443V30.2445V30.2447V30.2449V30.2451V30.2453V30.2454V30.2456V30.2458V30.246V30.2462V30.2463V30.2465V30.2467V30.2469V30.2471V30.2472V30.2474V30.2476V30.2478V30.248V30.2481V30.2483V30.2485V30.2487V30.2489V30.249V30.2492V30.2494V30.2496V30.2497V30.2499V30.2501V30.2503V30.2505V30.2506V30.2508V30.251V30.2512V30.2513V30.2515V30.2517V30.2519V30.2521V30.2522V30.2524V30.2526V30.2528V30.2529V30.2531V30.2533V30.2535V30.2536V30.2538V30.254V30.2542V30.2543V30.2545V30.2547V30.2549V30.255V30.2552V30.2554V30.2556V30.2557V30.2559V30.2561V30.2563V30.2564V30.2566V30.2568V30.257V30.2571V30.2573V30.2575V30.2577V30.2578V30.258V30.2582V30.2584V30.2585V30.2587V30.2589V30.259V30.2592V30.2594V30.2596V30.2597V30.2599V30.2601V30.2602V30.2604V30.2606V30.2608V30.2609V30.2611V30.2613V30.2614V30.2616V30.2618V30.262V30.2621V30.2623V30.2625V30.2626V30.2628V30.263V30.2631V30.2633V30.2635V30.2637V30.2638V30.264V30.2642V30.2643V30.2645V30.2647V30.2648V30.265V30.2652V30.2653V30.2655V30.2657V30.2658V30.266V30.2662V30.2663V30.2665V30.2667V30.2669V30.267V30.2672V30.2674V30.2675V30.2677V30.2679V30.268V30.2682V30.2683V30.2685V30.2687V30.2688V30.269V30.2692V30.2693V30.2695V30.2697V30.2698V30.27V30.2702V30.2703V30.2705V30.2707V30.2708V30.271V30.2711V30.2713V30.2715V30.2716V30.2718V30.272V30.2721V30.2723V30.2725V30.2726V30.2728V30.2729V30.2731V30.2733V30.2734V30.2736V30.2737V30.2739V30.2741V30.2742V30.2744V30.2746V30.2747V30.2749V30.275V30.2752V30.2754V30.2755V30.2757V30.2758V30.276V30.2762V30.2763V30.2765V30.2766V30.2768V30.277V30.2771V30.2773V30.2774V30.2776V30.2777V30.2779V30.2781V30.2782V30.2784V30.2785V30.2787V30.2788V30.279V30.2792V30.2793V30.2795V30.2796V30.2798V30.2799V30.2801V30.2803V30.2804V30.2806V30.2807V30.2809V30.281V30.2812V30.2813V30.2815V30.2817V30.2818V30.282V30.2821V30.2823V30.2824V30.2826V30.2827V30.2829V30.283V30.2832V30.2833V30.2835V30.2836V30.2838V30.284V30.2841V30.2843V30.2844V30.2846V30.2847V30.2849V30.285V30.2852V30.2853V30.2855V30.2856V30.2858V30.2859V30.2861V30.2862V30.2864V30.2865V30.2867V30.2868V30.287V30.2871V30.2873V30.2874V30.2876V30.2877V30.2879V30.288V30.2882V30.2883V30.2885V30.2886V30.2888V30.2889V30.2891V30.2892V30.2893V30.2895V30.2896V30.2898V30.2899V30.2901V30.2902V30.2904V30.351L11.4616 30.4049L14.2417 35.7967L14.7139 35.6821V35.682V35.6818V35.6816V35.6815V35.6813V35.6812V35.681V35.6808V35.6807V35.6805V35.6804V35.6802V35.68V35.6799V35.6797V35.6796V35.6794V35.6792V35.6791V35.6789V35.6788V35.6786V35.6784V35.6783V35.6781V35.678V35.6778V35.6776V35.6775V35.6773V35.6772V35.677V35.6768V35.6767V35.6765V35.6764V35.6762V35.676V35.6759V35.6757V35.6756V35.6754V35.6752V35.6751V35.6749V35.6747V35.6746V35.6744V35.6743V35.6741V35.6739V35.6738V35.6736V35.6735V35.6733V35.6731V35.673V35.6728V35.6726V35.6725V35.6723V35.6722V35.672V35.6718V35.6717V35.6715V35.6713V35.6712V35.671V35.6708V35.6707V35.6705V35.6704V35.6702V35.67V35.6699V35.6697V35.6695V35.6694V35.6692V35.6691V35.6689V35.6687V35.6686V35.6684V35.6682V35.6681V35.6679V35.6677V35.6676V35.6674V35.6672V35.6671V35.6669V35.6668V35.6666V35.6664V35.6663V35.6661V35.6659V35.6658V35.6656V35.6654V35.6653V35.6651V35.6649V35.6648V35.6646V35.6644V35.6643V35.6641V35.6639V35.6638V35.6636V35.6635V35.6633V35.6631V35.663V35.6628V35.6626V35.6625V35.6623V35.6621V35.662V35.6618V35.6616V35.6615V35.6613V35.6611V35.661V35.6608V35.6606V35.6605V35.6603V35.6601V35.66V35.6598V35.6596V35.6595V35.6593V35.6591V35.659V35.6588V35.6586V35.6585V35.6583V35.6581V35.6579V35.6578V35.6576V35.6574V35.6573V35.6571V35.6569V35.6568V35.6566V35.6564V35.6563V35.6561V35.6559V35.6558V35.6556V35.6554V35.6553V35.6551V35.6549V35.6547V35.6546V35.6544V35.6542V35.6541V35.6539V35.6537V35.6536V35.6534V35.6532V35.653V35.6529V35.6527V35.6525V35.6524V35.6522V35.652V35.6519V35.6517V35.6515V35.6513V35.6512V35.651V35.6508V35.6507V35.6505V35.6503V35.6501V35.65V35.6498V35.6496V35.6495V35.6493V35.6491V35.649V35.6488V35.6486V35.6484V35.6483V35.6481V35.6479V35.6477V35.6476V35.6474V35.6472V35.6471V35.6469V35.6467V35.6465V35.6464V35.6462V35.646V35.6458V35.6457V35.6455V35.6453V35.6452V35.645V35.6448V35.6446V35.6445V35.6443V35.6441V35.6439V35.6438V35.6436V35.6434V35.6432V35.6431V35.6429V35.6427V35.6426V35.6424V35.6422V35.642V35.6419V35.6417V35.6415V35.6413V35.6412V35.641V35.6408V35.6406V35.6405V35.6403V35.6401V35.6399V35.6398V35.6396V35.6394V35.6392V35.639V35.6389V35.6387V35.6385V35.6383V35.6382V35.638V35.6378V35.6376V35.6375V35.6373V35.6371V35.6369V35.6368V35.6366V35.6364V35.6362V35.636V35.6359V35.6357V35.6355V35.6353V35.6352V35.635V35.6348V35.6346V35.6344V35.6343V35.6341V35.6339V35.6337V35.6336V35.6334V35.6332V35.633V35.6328V35.6327V35.6325V35.6323V35.6321V35.6319V35.6318V35.6316V35.6314V35.6312V35.6311V35.6309V35.6307V35.6305V35.6303V35.6302V35.63V35.6298V35.6296V35.6294V35.6293V35.6291V35.6289V35.6287V35.6285V35.6284V35.6282V35.628V35.6278V35.6276V35.6274V35.6273V35.6271V35.6269V35.6267V35.6265V35.6264V35.6262V35.626V35.6258V35.6256V35.6254V35.6253V35.6251V35.6249V35.6247V35.6245V35.6244V35.6242V35.624V35.6238V35.6236V35.6234V35.6233V35.6231V35.6229V35.6227V35.6225V35.6223V35.6222V35.622V35.6218V35.6216V35.6214V35.6212V35.6211V35.6209V35.6207V35.6205V35.6203V35.6201V35.6199V35.6198V35.6196V35.6194V35.6192V35.619V35.6188V35.6187V35.6185V35.6183V35.6181V35.6179V35.6177V35.6175V35.6174V35.6172V35.617V35.6168V35.6166V35.6164V35.6162V35.616V35.6159V35.6157V35.6155V35.6153V35.6151V35.6149V35.6147V35.6146V35.6144V35.6142V35.614V35.6138V35.6136V35.6134V35.6132V35.6131V35.6129V35.6127V35.6125V35.6123V35.6121V35.6119V35.6117V35.6115V35.6114V35.6112V35.611V35.6108V35.6106V35.6104V35.6102V35.61V35.6098V35.6097V35.6095V35.6093V35.6091V35.6089V35.6087V35.6085V35.6083V35.6081V35.6079V35.6077V35.6076V35.6074V35.6072V35.607V35.6068V35.6066V35.6064V35.6062V35.606V35.6058V35.6056V35.6055V35.6053V35.6051V35.6049V35.6047V35.6045V35.6043V35.6041V35.6039V35.6037V35.6035V35.6033V35.6031V35.603V35.6028V35.6026V35.6024V35.6022V35.602V35.6018V35.6016V35.6014V35.6012V35.601V35.6008V35.6006V35.6004V35.6002V35.6V35.5998V35.5997V35.5995V35.5993V35.5991V35.5989V35.5987V35.5985V35.5983V35.5981V35.5979V35.5977V35.5975V35.5973V35.5971V35.5969V35.5967V35.5965V35.5963V35.5961V35.5959V35.5957V35.5955V35.5953V35.5951V35.595V35.5948V35.5946V35.5944V35.5942V35.594V35.5938V35.5936V35.5934V35.5932V35.593V35.5928V35.5926V35.5924V35.5922V35.592V35.5918V35.5916V35.5309L14.6861 35.477L11.906 30.0853Z" fill="#23252C" stroke="#6F7380" stroke-width="0.5"/>
<mask id="path-21-outside-8_509_2784" maskUnits="userSpaceOnUse" x="10.6926" y="29.2904" width="5" height="9" fill="black">
<rect fill="white" x="10.6926" y="29.2904" width="5" height="9"/>
<path d="M11.6926 30.2904L14.4727 35.6822C14.4749 35.6972 14.4749 35.7124 14.4727 35.7274L11.6926 30.3357C11.6949 30.3207 11.6949 30.3054 11.6926 30.2904Z"/>
</mask>
<path d="M11.6926 30.2904L14.4727 35.6822C14.4749 35.6972 14.4749 35.7124 14.4727 35.7274L11.6926 30.3357C11.6949 30.3207 11.6949 30.3054 11.6926 30.2904Z" fill="#23252C"/>
<path d="M14.4727 35.6822L14.9673 35.6091L14.9552 35.5269L14.9171 35.453L14.4727 35.6822ZM14.4727 35.7274L14.0283 35.9566L14.7403 37.3374L14.9673 35.8005L14.4727 35.7274ZM11.6926 30.3357L11.1985 30.2592L11.1736 30.4201L11.2482 30.5648L11.6926 30.3357ZM11.2482 30.5195L14.0283 35.9113L14.9171 35.453L12.137 30.0613L11.2482 30.5195ZM13.978 35.7552C13.9731 35.7218 13.9731 35.6878 13.978 35.6544L14.9673 35.8005C14.9767 35.737 14.9767 35.6725 14.9673 35.6091L13.978 35.7552ZM14.9171 35.4983L12.137 30.1065L11.2482 30.5648L14.0283 35.9566L14.9171 35.4983ZM12.1867 30.4121C12.1969 30.3465 12.1969 30.2796 12.1867 30.214L11.1985 30.3669C11.193 30.3312 11.193 30.2949 11.1985 30.2592L12.1867 30.4121Z" fill="#6F7380" mask="url(#path-21-outside-8_509_2784)"/>
<mask id="path-23-outside-9_509_2784" maskUnits="userSpaceOnUse" x="5.79932" y="35.0239" width="5" height="8" fill="black">
<rect fill="white" x="5.79932" y="35.0239" width="5" height="8"/>
<path d="M7.05347 36.0239L9.83353 41.4157L9.57936 41.4813L6.79932 36.0896C6.88479 36.0692 6.968 36.0488 7.05347 36.0239Z"/>
</mask>
<path d="M7.05347 36.0239L9.83353 41.4157L9.57936 41.4813L6.79932 36.0896C6.88479 36.0692 6.968 36.0488 7.05347 36.0239Z" fill="#23252C"/>
<path d="M9.83353 41.4157L9.95855 41.8998L10.565 41.7432L10.2779 41.1865L9.83353 41.4157ZM9.57936 41.4813L9.13496 41.7105L9.31789 42.0652L9.70439 41.9654L9.57936 41.4813ZM6.79932 36.0896L6.68339 35.6032L6.06231 35.7512L6.35491 36.3187L6.79932 36.0896ZM6.60907 36.2531L9.38912 41.6448L10.2779 41.1865L7.49788 35.7948L6.60907 36.2531ZM9.70851 40.9316L9.45434 40.9972L9.70439 41.9654L9.95855 41.8998L9.70851 40.9316ZM10.0238 41.2522L7.24372 35.8604L6.35491 36.3187L9.13496 41.7105L10.0238 41.2522ZM6.91524 36.5759C7.00173 36.5553 7.09517 36.5326 7.19332 36.504L6.91363 35.5439C6.84084 35.5651 6.76784 35.5831 6.68339 35.6032L6.91524 36.5759Z" fill="#6F7380" mask="url(#path-23-outside-9_509_2784)"/>
<mask id="path-25-outside-10_509_2784" maskUnits="userSpaceOnUse" x="0.456055" y="32.8577" width="10" height="10" fill="black">
<rect fill="white" x="0.456055" y="32.8577" width="10" height="10"/>
<path d="M6.79935 36.0896L9.57893 41.4813C8.93409 41.6238 8.26894 41.6476 7.61568 41.5515C6.91117 41.4693 6.23673 41.2173 5.64952 40.817C5.06231 40.4166 4.57963 39.8797 4.24239 39.2517L1.45605 33.8577C1.7936 34.4855 2.27635 35.0222 2.86351 35.4225C3.45066 35.8228 4.12494 36.0749 4.82934 36.1575C5.4826 36.2536 6.14776 36.2298 6.7926 36.0873"/>
</mask>
<path d="M6.79935 36.0896L9.57893 41.4813C8.93409 41.6238 8.26894 41.6476 7.61568 41.5515C6.91117 41.4693 6.23673 41.2173 5.64952 40.817C5.06231 40.4166 4.57963 39.8797 4.24239 39.2517L1.45605 33.8577C1.7936 34.4855 2.27635 35.0222 2.86351 35.4225C3.45066 35.8228 4.12494 36.0749 4.82934 36.1575C5.4826 36.2536 6.14776 36.2298 6.7926 36.0873" fill="#23252C"/>
<path d="M9.57893 41.4813L9.68684 41.9695L10.3209 41.8294L10.0234 41.2522L9.57893 41.4813ZM7.61568 41.5515L7.68846 41.0568L7.68107 41.0557L7.67364 41.0549L7.61568 41.5515ZM4.24239 39.2517L3.7981 39.4812L3.80189 39.4883L4.24239 39.2517ZM1.45605 33.8577L1.89643 33.6209L1.01182 34.0872L1.45605 33.8577ZM4.82934 36.1575L4.90213 35.6628L4.89487 35.6617L4.88757 35.6609L4.82934 36.1575ZM6.35493 36.3187L9.13452 41.7104L10.0234 41.2522L7.24377 35.8605L6.35493 36.3187ZM9.47103 40.9931C8.88552 41.1225 8.28159 41.1441 7.68846 41.0568L7.54289 42.0462C8.25628 42.1511 8.98267 42.1252 9.68684 41.9695L9.47103 40.9931ZM7.67364 41.0549C7.04951 40.982 6.4518 40.7588 5.93118 40.4039L5.36787 41.2301C6.02167 41.6758 6.77282 41.9565 7.55771 42.0481L7.67364 41.0549ZM5.93118 40.4039C5.41053 40.0489 4.98225 39.5726 4.68289 39.0152L3.80189 39.4883C4.17701 40.1868 4.7141 40.7844 5.36787 41.2301L5.93118 40.4039ZM4.68662 39.0223L1.90029 33.6283L1.01182 34.0872L3.79816 39.4812L4.68662 39.0223ZM1.01568 34.0945C1.3911 34.7927 1.92821 35.39 2.58186 35.8356L3.14516 35.0094C2.6245 34.6544 2.1961 34.1782 1.89643 33.6209L1.01568 34.0945ZM2.58186 35.8356C3.23552 36.2813 3.98643 36.5621 4.77111 36.6541L4.88757 35.6609C4.26346 35.5877 3.6658 35.3643 3.14516 35.0094L2.58186 35.8356ZM4.75656 36.6522C5.46995 36.7571 6.19633 36.7312 6.9005 36.5755L6.6847 35.5991C6.09919 35.7285 5.49526 35.7501 4.90213 35.6628L4.75656 36.6522Z" fill="#6F7380" mask="url(#path-25-outside-10_509_2784)"/>
<path d="M19.1045 37.1883L19.0617 37.1054L18.9751 37.0708L10.5823 33.7139L9.96063 33.4653L10.2673 34.0605L13.0446 39.4523L13.0873 39.5353L13.174 39.5699L21.569 42.9268L22.191 43.1755L21.884 42.5801L19.1045 37.1883Z" fill="#23252C" stroke="#6F7380" stroke-width="0.5"/>
<path d="M48.0858 10.5871L47.8069 10.0461L47.625 10.627L41.8635 29.0295L41.8328 29.1275L41.8798 29.2187L44.6571 34.6105L44.936 35.1518L45.118 34.5707L50.8818 16.1681L50.9125 16.0701L50.8654 15.9789L48.0858 10.5871Z" fill="#23252C" stroke="#6F7380" stroke-width="0.5"/>
<path d="M22.4029 40.8714L22.4622 40.9864L25.2418 46.3782L25.4631 46.8076L24.9848 46.7403C23.5106 46.5331 22.409 45.7418 21.8401 44.638L22.4029 40.8714ZM22.4029 40.8714L22.2748 40.8534C20.9472 40.6668 19.9934 39.9645 19.5052 39.0178C19.5051 39.0176 19.505 39.0174 19.5049 39.0172L19.5049 39.0172L19.0605 39.2462C19.0605 39.2463 19.0605 39.2463 19.0605 39.2463C19.0606 39.2465 19.0608 39.2467 19.0609 39.247L21.8401 44.638L22.4029 40.8714Z" fill="#23252C" stroke="#6F7380" stroke-width="0.5"/>
<path d="M22.5294 41.0001L22.4697 40.8842L22.3405 40.8669L22.273 40.8578L21.7978 40.7941L22.0175 41.2202L24.7976 46.6119L24.8573 46.7278L24.9866 46.7451L25.054 46.7542L25.5292 46.8179L25.3095 46.3918L22.5294 41.0001Z" fill="#23252C" stroke="#6F7380" stroke-width="0.5"/>
<mask id="path-31-outside-11_509_2784" maskUnits="userSpaceOnUse" x="26.7407" y="36.5042" width="5" height="9" fill="black">
<rect fill="white" x="26.7407" y="36.5042" width="5" height="9"/>
<path d="M28.0556 37.5042L30.8357 42.896C30.7533 43.1594 30.6471 43.4148 30.5185 43.6588L27.7407 38.267C27.8677 38.0225 27.9731 37.7673 28.0556 37.5042Z"/>
</mask>
<path d="M28.0556 37.5042L30.8357 42.896C30.7533 43.1594 30.6471 43.4148 30.5185 43.6588L27.7407 38.267C27.8677 38.0225 27.9731 37.7673 28.0556 37.5042Z" fill="#23252C"/>
<path d="M30.8357 42.896L31.3129 43.0452L31.3741 42.8493L31.2801 42.6668L30.8357 42.896ZM30.5185 43.6588L30.074 43.8878L30.5135 44.7407L30.9608 43.8919L30.5185 43.6588ZM27.7407 38.267L27.297 38.0366L27.1778 38.2661L27.2962 38.496L27.7407 38.267ZM27.6112 37.7334L30.3913 43.1251L31.2801 42.6668L28.5 37.2751L27.6112 37.7334ZM30.3584 42.7468C30.2851 42.9813 30.1907 43.2085 30.0762 43.4256L30.9608 43.8919C31.1036 43.621 31.2215 43.3376 31.3129 43.0452L30.3584 42.7468ZM30.963 43.4298L28.1852 38.038L27.2962 38.496L30.074 43.8878L30.963 43.4298ZM28.1845 38.4975C28.3249 38.2271 28.4414 37.9448 28.5327 37.6539L27.5786 37.3545C27.5047 37.5898 27.4105 37.818 27.297 38.0366L28.1845 38.4975Z" fill="#6F7380" mask="url(#path-31-outside-11_509_2784)"/>
<mask id="path-33-outside-12_509_2784" maskUnits="userSpaceOnUse" x="26.3406" y="37.2672" width="5" height="8" fill="black">
<rect fill="white" x="26.3406" y="37.2672" width="5" height="8"/>
<path d="M27.7409 38.2672L30.5187 43.6589C30.4029 43.8811 30.2698 44.0938 30.1206 44.295L27.3406 38.9032C27.4904 38.7021 27.6243 38.4894 27.7409 38.2672Z"/>
</mask>
<path d="M27.7409 38.2672L30.5187 43.6589C30.4029 43.8811 30.2698 44.0938 30.1206 44.295L27.3406 38.9032C27.4904 38.7021 27.6243 38.4894 27.7409 38.2672Z" fill="#23252C"/>
<path d="M30.5187 43.6589L30.9621 43.89L31.0819 43.6603L30.9632 43.4299L30.5187 43.6589ZM30.1206 44.295L29.6762 44.5241L30.0441 45.2376L30.5223 44.5928L30.1206 44.295ZM27.3406 38.9032L26.9397 38.6044L26.7531 38.8548L26.8962 39.1323L27.3406 38.9032ZM27.2965 38.4961L30.0743 43.8879L30.9632 43.4299L28.1854 38.0382L27.2965 38.4961ZM30.0754 43.4278C29.9716 43.6267 29.8525 43.8171 29.719 43.9971L30.5223 44.5928C30.6871 44.3705 30.8341 44.1355 30.9621 43.89L30.0754 43.4278ZM30.565 44.0658L27.785 38.6741L26.8962 39.1323L29.6762 44.5241L30.565 44.0658ZM27.7415 39.202C27.907 38.9798 28.0549 38.7449 28.1837 38.4995L27.2982 38.0348C27.1937 38.2339 27.0738 38.4244 26.9397 38.6044L27.7415 39.202Z" fill="#6F7380" mask="url(#path-33-outside-12_509_2784)"/>
<mask id="path-35-outside-13_509_2784" maskUnits="userSpaceOnUse" x="25.9695" y="37.9031" width="5" height="8" fill="black">
<rect fill="white" x="25.9695" y="37.9031" width="5" height="8"/>
<path d="M27.3406 38.9031L30.1207 44.2949C30.0053 44.4525 29.8814 44.6037 29.7495 44.7476L26.9695 39.3558C27.1013 39.2119 27.2252 39.0608 27.3406 38.9031Z"/>
</mask>
<path d="M27.3406 38.9031L30.1207 44.2949C30.0053 44.4525 29.8814 44.6037 29.7495 44.7476L26.9695 39.3558C27.1013 39.2119 27.2252 39.0608 27.3406 38.9031Z" fill="#23252C"/>
<path d="M30.1207 44.2949L30.5242 44.5902L30.7068 44.3406L30.5651 44.0657L30.1207 44.2949ZM29.7495 44.7476L29.3051 44.9767L29.6338 45.6141L30.1182 45.0853L29.7495 44.7476ZM26.9695 39.3558L26.6008 39.0181L26.3653 39.2751L26.5251 39.585L26.9695 39.3558ZM26.8962 39.1323L29.6763 44.524L30.5651 44.0657L27.785 38.674L26.8962 39.1323ZM29.7172 43.9996C29.6126 44.1425 29.5003 44.2794 29.3809 44.4098L30.1182 45.0853C30.2625 44.9279 30.398 44.7626 30.5242 44.5902L29.7172 43.9996ZM30.1939 44.5185L27.4139 39.1267L26.5251 39.585L29.3051 44.9767L30.1939 44.5185ZM27.3382 39.6936C27.4824 39.5361 27.6179 39.3708 27.7441 39.1984L26.9371 38.6079C26.8326 38.7507 26.7203 38.8877 26.6008 39.0181L27.3382 39.6936Z" fill="#6F7380" mask="url(#path-35-outside-13_509_2784)"/>
<path d="M27.1919 39.2344L27.0283 38.9172L26.7861 39.1793C26.673 39.3017 26.5508 39.4204 26.4237 39.5332L26.2784 39.6621L26.3674 39.8348L29.1474 45.2265L29.2949 45.5125L29.5355 45.299C29.6738 45.1763 29.808 45.0461 29.9334 44.9104L30.0522 44.7818L29.972 44.6262L27.1919 39.2344Z" fill="#23252C" stroke="#6F7380" stroke-width="0.5"/>
<mask id="path-38-outside-14_509_2784" maskUnits="userSpaceOnUse" x="25.1824" y="38.7202" width="5" height="8" fill="black">
<rect fill="white" x="25.1824" y="38.7202" width="5" height="8"/>
<path d="M26.5895 39.7202L29.3695 45.112C29.2391 45.2251 29.1041 45.3383 28.9624 45.4402L26.1824 40.0484C26.3241 39.9443 26.459 39.8221 26.5895 39.7202Z"/>
</mask>
<path d="M26.5895 39.7202L29.3695 45.112C29.2391 45.2251 29.1041 45.3383 28.9624 45.4402L26.1824 40.0484C26.3241 39.9443 26.459 39.8221 26.5895 39.7202Z" fill="#23252C"/>
<path d="M29.3695 45.112L29.6972 45.4896L29.994 45.2321L29.8139 44.8828L29.3695 45.112ZM28.9624 45.4402L28.518 45.6693L28.7836 46.1845L29.2543 45.8462L28.9624 45.4402ZM26.1824 40.0484L25.8863 39.6455L25.5424 39.8982L25.738 40.2776L26.1824 40.0484ZM26.1451 39.9494L28.9251 45.3411L29.8139 44.8828L27.0339 39.4911L26.1451 39.9494ZM29.0419 44.7343C28.9145 44.8448 28.7933 44.946 28.6706 45.0342L29.2543 45.8462C29.4149 45.7307 29.5637 45.6055 29.6972 45.4896L29.0419 44.7343ZM29.4068 45.211L26.6268 39.8193L25.738 40.2776L28.518 45.6693L29.4068 45.211ZM26.4784 40.4514C26.5622 40.3898 26.6411 40.325 26.7097 40.268C26.782 40.2079 26.8398 40.1592 26.8972 40.1143L26.2818 39.3261C26.2088 39.3831 26.1338 39.4464 26.0706 39.4989C26.0037 39.5545 25.9443 39.6029 25.8863 39.6455L26.4784 40.4514Z" fill="#6F7380" mask="url(#path-38-outside-14_509_2784)"/>
<mask id="path-40-outside-15_509_2784" maskUnits="userSpaceOnUse" x="25.1711" y="39.0485" width="5" height="7" fill="black">
<rect fill="white" x="25.1711" y="39.0485" width="5" height="7"/>
<path d="M26.1824 40.0485L28.9624 45.4402H28.9512L26.1711 40.0485H26.1824Z"/>
</mask>
<path d="M26.1824 40.0485L28.9624 45.4402H28.9512L26.1711 40.0485H26.1824Z" fill="#23252C"/>
<path d="M28.9624 45.4402V45.9402H29.7828L29.4068 45.2111L28.9624 45.4402ZM28.9512 45.4402L28.5068 45.6694L28.6465 45.9402H28.9512V45.4402ZM26.1711 40.0485V39.5485H25.3508L25.7267 40.2776L26.1711 40.0485ZM25.738 40.2776L28.518 45.6694L29.4068 45.2111L26.6268 39.8193L25.738 40.2776ZM28.9624 44.9402H28.9512V45.9402H28.9624V44.9402ZM29.3956 45.2111L26.6155 39.8193L25.7267 40.2776L28.5068 45.6694L29.3956 45.2111ZM26.1711 40.5485H26.1824V39.5485H26.1711V40.5485Z" fill="#6F7380" mask="url(#path-40-outside-15_509_2784)"/>
<path d="M35.5394 35.4634L35.4474 35.2848L35.2531 35.3363L27.9916 37.2626L27.6909 37.3423L27.8335 37.6188L30.613 43.0105L30.7051 43.1891L30.8994 43.1376L38.1609 41.2113L38.4616 41.1316L38.319 40.8551L35.5394 35.4634Z" fill="#23252C" stroke="#6F7380" stroke-width="0.5"/>
<mask id="path-43-outside-16_509_2784" maskUnits="userSpaceOnUse" x="42.3318" y="29.4534" width="5" height="7" fill="black">
<rect fill="white" x="42.3318" y="29.4534" width="5" height="7"/>
<path d="M43.3318 30.4624L46.1163 35.8451C46.1636 35.9379 46.2063 36.0307 46.2445 36.1281L43.4622 30.7363C43.4218 30.639 43.379 30.5462 43.3318 30.4534"/>
</mask>
<path d="M43.3318 30.4624L46.1163 35.8451C46.1636 35.9379 46.2063 36.0307 46.2445 36.1281L43.4622 30.7363C43.4218 30.639 43.379 30.5462 43.3318 30.4534" fill="#23252C"/>
<path d="M46.1163 35.8451L46.562 35.6183L46.5604 35.6154L46.1163 35.8451ZM46.2445 36.1281L45.8002 36.3574L46.7099 35.9452L46.2445 36.1281ZM43.4622 30.7363L43.0006 30.9283L43.0085 30.9473L43.0179 30.9656L43.4622 30.7363ZM42.8877 30.6922L45.6722 36.0749L46.5604 35.6154L43.7759 30.2327L42.8877 30.6922ZM45.6707 36.0719C45.7121 36.1531 45.7478 36.2311 45.7792 36.3109L46.7099 35.9452C46.6648 35.8303 46.6151 35.7227 46.5619 35.6183L45.6707 36.0719ZM46.6889 35.8988L43.9066 30.507L43.0179 30.9656L45.8002 36.3574L46.6889 35.8988ZM43.9239 30.5443C43.8787 30.4355 43.8306 30.3311 43.7774 30.2266L42.8862 30.6802C42.9275 30.7613 42.9649 30.8424 43.0006 30.9283L43.9239 30.5443Z" fill="#6F7380" mask="url(#path-43-outside-16_509_2784)"/>
<mask id="path-45-outside-17_509_2784" maskUnits="userSpaceOnUse" x="42.4626" y="29.7296" width="5" height="8" fill="black">
<rect fill="white" x="42.4626" y="29.7296" width="5" height="8"/>
<path d="M43.4626 30.7363L46.2404 36.1213C46.3039 36.2754 46.355 36.4344 46.3934 36.5967L43.6133 31.2049C43.5747 31.043 43.5243 30.8841 43.4626 30.7296"/>
</mask>
<path d="M43.4626 30.7363L46.2404 36.1213C46.3039 36.2754 46.355 36.4344 46.3934 36.5967L43.6133 31.2049C43.5747 31.043 43.5243 30.8841 43.4626 30.7296" fill="#23252C"/>
<path d="M46.2404 36.1213L46.7028 35.9311L46.6947 35.9112L46.6848 35.8921L46.2404 36.1213ZM46.3934 36.5967L45.949 36.8258L46.88 36.4815L46.3934 36.5967ZM43.6133 31.2049L43.127 31.321L43.1411 31.3801L43.1689 31.434L43.6133 31.2049ZM43.0183 30.9656L45.7961 36.3505L46.6848 35.8921L43.907 30.5071L43.0183 30.9656ZM45.7781 36.3116C45.8314 36.4413 45.8745 36.5751 45.9068 36.7118L46.88 36.4815C46.8355 36.2936 46.7763 36.1096 46.7028 35.9311L45.7781 36.3116ZM46.8378 36.3675L44.0577 30.9758L43.1689 31.434L45.949 36.8258L46.8378 36.3675ZM44.0997 31.0888C44.0554 30.9033 43.9977 30.7213 43.927 30.5442L42.9983 30.9149C43.0509 31.0469 43.094 31.1826 43.127 31.321L44.0997 31.0888Z" fill="#6F7380" mask="url(#path-45-outside-17_509_2784)"/>
<mask id="path-47-outside-18_509_2784" maskUnits="userSpaceOnUse" x="42.6133" y="30.2117" width="5" height="8" fill="black">
<rect fill="white" x="42.6133" y="30.2117" width="5" height="8"/>
<path d="M43.6133 31.2117L46.3933 36.6035C46.446 36.8209 46.4769 37.0431 46.4856 37.2667L43.7055 31.8749C43.6967 31.6513 43.6658 31.4292 43.6133 31.2117Z"/>
</mask>
<path d="M43.6133 31.2117L46.3933 36.6035C46.446 36.8209 46.4769 37.0431 46.4856 37.2667L43.7055 31.8749C43.6967 31.6513 43.6658 31.4292 43.6133 31.2117Z" fill="#23252C"/>
<path d="M46.3933 36.6035L46.8793 36.4857L46.8652 36.4275L46.8377 36.3743L46.3933 36.6035ZM46.4856 37.2667L46.0412 37.4958L46.9852 37.2474L46.4856 37.2667ZM43.7055 31.8749L43.2059 31.8946L43.2102 32.0055L43.2611 32.1041L43.7055 31.8749ZM43.1689 31.4409L45.9489 36.8326L46.8377 36.3743L44.0577 30.9826L43.1689 31.4409ZM45.9074 36.7213C45.9523 36.9064 45.9786 37.0956 45.9859 37.286L46.9852 37.2474C46.9753 36.9906 46.9398 36.7354 46.8793 36.4857L45.9074 36.7213ZM46.93 37.0376L44.1499 31.6458L43.2611 32.1041L46.0412 37.4958L46.93 37.0376ZM44.2051 31.8553C44.195 31.5987 44.1596 31.3438 44.0993 31.0943L43.1273 31.3292C43.1721 31.5145 43.1984 31.7039 43.2059 31.8946L44.2051 31.8553Z" fill="#6F7380" mask="url(#path-47-outside-18_509_2784)"/>
<mask id="path-49-outside-19_509_2784" maskUnits="userSpaceOnUse" x="42.4761" y="30.8749" width="5" height="10" fill="black">
<rect fill="white" x="42.4761" y="30.8749" width="5" height="10"/>
<path d="M43.7055 31.8749L46.4855 37.2666C46.5038 37.7399 46.4391 38.2126 46.2944 38.6632L46.2561 38.7855L43.4761 33.405L43.5143 33.2828C43.6591 32.8322 43.7238 32.3594 43.7055 31.8862"/>
</mask>
<path d="M43.7055 31.8749L46.4855 37.2666C46.5038 37.7399 46.4391 38.2126 46.2944 38.6632L46.2561 38.7855L43.4761 33.405L43.5143 33.2828C43.6591 32.8322 43.7238 32.3594 43.7055 31.8862" fill="#23252C"/>
<path d="M46.4855 37.2666L46.9852 37.2473L46.9809 37.1363L46.93 37.0375L46.4855 37.2666ZM46.2944 38.6632L45.8183 38.5103L45.8172 38.514L46.2944 38.6632ZM46.2561 38.7855L45.8119 39.015L46.3702 40.0955L46.7333 38.9347L46.2561 38.7855ZM43.4761 33.405L42.9989 33.2558L42.9375 33.4519L43.0319 33.6346L43.4761 33.405ZM43.5143 33.2828L43.0382 33.1299L43.0371 33.1335L43.5143 33.2828ZM43.2611 32.104L46.0411 37.4958L46.93 37.0375L44.1499 31.6457L43.2611 32.104ZM45.9859 37.2859C46.0019 37.7008 45.9452 38.1153 45.8183 38.5103L46.7704 38.8162C46.933 38.3099 47.0057 37.7789 46.9852 37.2473L45.9859 37.2859ZM45.8172 38.514L45.7789 38.6362L46.7333 38.9347L46.7716 38.8125L45.8172 38.514ZM46.7003 38.5559L43.9203 33.1755L43.0319 33.6346L45.8119 39.015L46.7003 38.5559ZM43.9533 33.5543L43.9915 33.4321L43.0371 33.1335L42.9989 33.2558L43.9533 33.5543ZM43.9904 33.4357C44.153 32.9295 44.2257 32.3984 44.2051 31.8669L43.2059 31.9055C43.2219 32.3204 43.1651 32.7349 43.0383 33.1299L43.9904 33.4357Z" fill="#6F7380" mask="url(#path-49-outside-19_509_2784)"/>
<mask id="path-51-outside-20_509_2784" maskUnits="userSpaceOnUse" x="39.3457" y="35.3477" width="5" height="8" fill="black">
<rect fill="white" x="39.3457" y="35.3477" width="5" height="8"/>
<path d="M40.8495 36.3477L43.6296 41.7371C43.4654 41.8141 43.2967 41.8843 43.1258 41.9477L40.3457 36.574C40.5166 36.5106 40.6853 36.4405 40.8495 36.3658"/>
</mask>
<path d="M40.8495 36.3477L43.6296 41.7371C43.4654 41.8141 43.2967 41.8843 43.1258 41.9477L40.3457 36.574C40.5166 36.5106 40.6853 36.4405 40.8495 36.3658" fill="#23252C"/>
<path d="M43.6296 41.7371L43.8418 42.1899L44.312 41.9695L44.0739 41.5079L43.6296 41.7371ZM43.1258 41.9477L42.6817 42.1774L42.8849 42.5702L43.2996 42.4165L43.1258 41.9477ZM40.3457 36.574L40.1719 36.1052L39.6419 36.3017L39.9016 36.8038L40.3457 36.574ZM40.4052 36.5769L43.1852 41.9664L44.0739 41.5079L41.2939 36.1184L40.4052 36.5769ZM43.4174 41.2844C43.2665 41.3551 43.1107 41.42 42.9519 41.4788L43.2996 42.4165C43.4827 42.3486 43.6642 42.2731 43.8418 42.1899L43.4174 41.2844ZM43.5698 41.7179L40.7898 36.3443L39.9016 36.8038L42.6817 42.1774L43.5698 41.7179ZM40.5195 37.0428C40.7026 36.9749 40.8824 36.9001 41.0566 36.8209L40.6425 35.9106C40.4883 35.9808 40.3307 36.0463 40.1719 36.1052L40.5195 37.0428Z" fill="#6F7380" mask="url(#path-51-outside-20_509_2784)"/>
<mask id="path-53-outside-21_509_2784" maskUnits="userSpaceOnUse" x="38.6057" y="35.574" width="6" height="8" fill="black">
<rect fill="white" x="38.6057" y="35.574" width="6" height="8"/>
<path d="M40.3457 36.574L43.1258 41.9658C42.8839 42.0563 42.6368 42.1319 42.3858 42.1921L39.6057 36.8004C39.857 36.7412 40.1042 36.6656 40.3457 36.574Z"/>
</mask>
<path d="M40.3457 36.574L43.1258 41.9658C42.8839 42.0563 42.6368 42.1319 42.3858 42.1921L39.6057 36.8004C39.857 36.7412 40.1042 36.6656 40.3457 36.574Z" fill="#23252C"/>
<path d="M43.1258 41.9658L43.301 42.4341L43.8281 42.2369L43.5702 41.7367L43.1258 41.9658ZM42.3858 42.1921L41.9414 42.4213L42.1211 42.7699L42.5025 42.6783L42.3858 42.1921ZM39.6057 36.8004L39.491 36.3137L38.8679 36.4606L39.1613 37.0295L39.6057 36.8004ZM39.9013 36.8032L42.6814 42.1949L43.5702 41.7367L40.7901 36.3449L39.9013 36.8032ZM42.9506 41.4975C42.7278 41.5808 42.5002 41.6505 42.269 41.706L42.5025 42.6783C42.7733 42.6133 43.04 42.5317 43.301 42.4341L42.9506 41.4975ZM42.8302 41.963L40.0501 36.5713L39.1613 37.0295L41.9414 42.4213L42.8302 41.963ZM39.7204 37.2871C39.9929 37.2228 40.261 37.1408 40.5229 37.0416L40.1685 36.1065C39.9474 36.1903 39.7211 36.2595 39.491 36.3137L39.7204 37.2871Z" fill="#6F7380" mask="url(#path-53-outside-21_509_2784)"/>
<mask id="path-55-outside-22_509_2784" maskUnits="userSpaceOnUse" x="34.3215" y="34.5779" width="9" height="9" fill="black">
<rect fill="white" x="34.3215" y="34.5779" width="9" height="9"/>
<path d="M39.6056 36.7844L42.3852 42.1762C41.7815 42.3214 41.1566 42.3544 40.5411 42.2735C39.6021 42.1332 38.7393 41.673 38.0966 40.9697L35.3215 35.5779C35.9642 36.2812 36.827 36.7414 37.766 36.8817C38.3815 36.9626 39.0064 36.9296 39.6101 36.7844"/>
</mask>
<path d="M39.6056 36.7844L42.3852 42.1762C41.7815 42.3214 41.1566 42.3544 40.5411 42.2735C39.6021 42.1332 38.7393 41.673 38.0966 40.9697L35.3215 35.5779C35.9642 36.2812 36.827 36.7414 37.766 36.8817C38.3815 36.9626 39.0064 36.9296 39.6101 36.7844" fill="#23252C"/>
<path d="M42.3852 42.1762L42.5021 42.6623L43.1215 42.5133L42.8296 41.9471L42.3852 42.1762ZM40.5411 42.2735L40.4672 42.7681L40.476 42.7692L40.5411 42.2735ZM38.0966 40.9697L37.6521 41.1985L37.6826 41.2578L37.7275 41.307L38.0966 40.9697ZM35.3215 35.5779L35.6906 35.2407L34.877 35.8068L35.3215 35.5779ZM37.766 36.8817L37.6921 37.3763L37.7009 37.3775L37.766 36.8817ZM39.1612 37.0135L41.9408 42.4053L42.8296 41.9471L40.05 36.5553L39.1612 37.0135ZM42.2683 41.69C41.7242 41.8209 41.1609 41.8506 40.6063 41.7778L40.476 42.7692C41.1522 42.8581 41.8389 42.8218 42.5021 42.6623L42.2683 41.69ZM40.615 41.779C39.79 41.6557 39.0312 41.2513 38.4657 40.6324L37.7275 41.307C38.4473 42.0947 39.4143 42.6106 40.4672 42.768L40.615 41.779ZM38.5412 40.7409L35.7661 35.3491L34.877 35.8068L37.6521 41.1985L38.5412 40.7409ZM34.9524 35.9152C35.6722 36.7029 36.6392 37.2189 37.6921 37.3762L37.8399 36.3872C37.0149 36.2639 36.2561 35.8595 35.6906 35.2407L34.9524 35.9152ZM37.7009 37.3775C38.3771 37.4663 39.0638 37.4301 39.727 37.2705L39.4932 36.2983C38.9491 36.4291 38.3858 36.4589 37.8312 36.386L37.7009 37.3775Z" fill="#6F7380" mask="url(#path-55-outside-22_509_2784)"/>
<path d="M46.5451 40.02L46.5164 39.9643L46.4649 39.9288L40.9911 36.1509L40.6269 36.4712L43.4065 41.863L43.4352 41.9186L43.4867 41.9542L48.9604 45.732L49.3246 45.4117L46.5451 40.02Z" fill="#23252C" stroke="#6F7380" stroke-width="0.5"/>
<mask id="path-58-outside-23_509_2784" maskUnits="userSpaceOnUse" x="54.0845" y="37.5546" width="5" height="7" fill="black">
<rect fill="white" x="54.0845" y="37.5546" width="5" height="7"/>
<path d="M55.0845 38.5546L57.8623 43.9463C57.8983 44.012 57.9297 44.0776 57.959 44.1455L55.1812 38.7538C55.1497 38.6859 55.1182 38.6202 55.0845 38.5546Z"/>
</mask>
<path d="M55.0845 38.5546L57.8623 43.9463C57.8983 44.012 57.9297 44.0776 57.959 44.1455L55.1812 38.7538C55.1497 38.6859 55.1182 38.6202 55.0845 38.5546Z" fill="#23252C"/>
<path d="M57.8623 43.9463L57.4176 44.1754L57.4238 44.1867L57.8623 43.9463ZM57.959 44.1455L57.5145 44.3745L58.4182 43.9478L57.959 44.1455ZM55.1812 38.7538L54.7276 38.9641L54.732 38.9735L54.7367 38.9828L55.1812 38.7538ZM54.64 38.7836L57.4178 44.1753L58.3067 43.7173L55.529 38.3256L54.64 38.7836ZM57.4238 44.1867C57.4512 44.2366 57.4759 44.2878 57.4997 44.3433L58.4182 43.9478C58.3836 43.8674 58.3453 43.7873 58.3007 43.706L57.4238 44.1867ZM58.4035 43.9165L55.6257 38.5248L54.7367 38.9828L57.5145 44.3745L58.4035 43.9165ZM55.6348 38.5434C55.6016 38.4718 55.567 38.3996 55.5292 38.326L54.6398 38.7831C54.6694 38.8408 54.6978 38.8999 54.7276 38.9641L55.6348 38.5434Z" fill="#6F7380" mask="url(#path-58-outside-23_509_2784)"/>
<path d="M65.9104 37.6183L65.9046 37.6071L65.8977 37.5965L48.2891 10.5314L47.8574 10.7823L50.637 16.174L50.6427 16.1852L50.6496 16.1958L68.2582 43.261L68.69 43.0101L65.9104 37.6183Z" fill="#23252C" stroke="#6F7380" stroke-width="0.5"/>
<mask id="path-61-outside-24_509_2784" maskUnits="userSpaceOnUse" x="53.5693" y="41.3506" width="5" height="8" fill="black">
<rect fill="white" x="53.5693" y="41.3506" width="5" height="8"/>
<path d="M54.801 42.3506L57.5856 47.7423C57.5106 47.86 57.4319 47.9755 57.3494 48.0887L54.5693 42.6969C54.6518 42.5837 54.7268 42.4683 54.7943 42.3506"/>
</mask>
<path d="M54.801 42.3506L57.5856 47.7423C57.5106 47.86 57.4319 47.9755 57.3494 48.0887L54.5693 42.6969C54.6518 42.5837 54.7268 42.4683 54.7943 42.3506" fill="#23252C"/>
<path d="M57.5856 47.7423L58.0073 48.011L58.1618 47.7684L58.0298 47.5129L57.5856 47.7423ZM57.3494 48.0887L56.905 48.3178L57.2763 49.038L57.7535 48.3831L57.3494 48.0887ZM54.5693 42.6969L54.1652 42.4024L53.9835 42.6518L54.1249 42.926L54.5693 42.6969ZM54.3567 42.58L57.1413 47.9718L58.0298 47.5129L55.2453 42.1212L54.3567 42.58ZM57.1638 47.4737C57.0945 47.5826 57.0216 47.6894 56.9453 47.7942L57.7535 48.3831C57.8421 48.2615 57.9267 48.1375 58.0073 48.011L57.1638 47.4737ZM57.7938 47.8595L55.0137 42.4678L54.1249 42.926L56.905 48.3178L57.7938 47.8595ZM54.9734 42.9914C55.0663 42.864 55.1512 42.7333 55.228 42.5993L54.3605 42.1019C54.3023 42.2033 54.2373 42.3035 54.1652 42.4024L54.9734 42.9914Z" fill="#6F7380" mask="url(#path-61-outside-24_509_2784)"/>
<path d="M54.7874 42.5823L54.6028 42.2242L54.3639 42.5486C54.2485 42.7052 54.1241 42.8549 53.9913 42.9968L53.8708 43.1256L53.9516 43.2822L56.7317 48.674L56.8948 48.9903L57.137 48.7296C57.2823 48.5733 57.4188 48.409 57.546 48.2376L57.6388 48.1125L57.5674 47.974L54.7874 42.5823Z" fill="#23252C" stroke="#6F7380" stroke-width="0.5"/>
<mask id="path-64-outside-25_509_2784" maskUnits="userSpaceOnUse" x="52.7825" y="42.1677" width="5" height="8" fill="black">
<rect fill="white" x="52.7825" y="42.1677" width="5" height="8"/>
<path d="M54.1738 43.1677L56.9539 48.5708C56.8302 48.7043 56.6997 48.8311 56.5625 48.9533L53.7825 43.5616C53.9197 43.4393 54.0501 43.3126 54.1738 43.179"/>
</mask>
<path d="M54.1738 43.1677L56.9539 48.5708C56.8302 48.7043 56.6997 48.8311 56.5625 48.9533L53.7825 43.5616C53.9197 43.4393 54.0501 43.3126 54.1738 43.179" fill="#23252C"/>
<path d="M56.9539 48.5708L57.3207 48.9106L57.5588 48.6536L57.3985 48.342L56.9539 48.5708ZM56.5625 48.9533L56.1181 49.1825L56.4136 49.7556L56.8951 49.3267L56.5625 48.9533ZM53.7825 43.5616L53.4499 43.1882L53.1604 43.4461L53.3381 43.7907L53.7825 43.5616ZM53.7292 43.3965L56.5093 48.7996L57.3985 48.342L54.6184 42.939L53.7292 43.3965ZM56.5871 48.231C56.4753 48.3517 56.3564 48.4673 56.2299 48.58L56.8951 49.3267C57.043 49.1949 57.185 49.057 57.3207 48.9106L56.5871 48.231ZM57.0069 48.7242L54.2269 43.3324L53.3381 43.7907L56.1181 49.1825L57.0069 48.7242ZM54.1151 43.9349C54.263 43.8032 54.405 43.6653 54.5406 43.5188L53.807 42.8393C53.6953 42.9599 53.5764 43.0755 53.4499 43.1882L54.1151 43.9349Z" fill="#6F7380" mask="url(#path-64-outside-25_509_2784)"/>
<path d="M54.005 43.4356L53.8592 43.1529L53.619 43.3613C53.492 43.4715 53.3655 43.5749 53.232 43.6709L53.0569 43.7967L53.1557 43.9884L55.9358 49.3802L56.0667 49.6342L56.3011 49.4706C56.4519 49.3654 56.595 49.245 56.7267 49.1308L56.8751 49.002L56.7851 48.8274L54.005 43.4356Z" fill="#23252C" stroke="#6F7380" stroke-width="0.5"/>
<path d="M53.6 43.7593L53.4651 43.4977L53.2288 43.6731C53.0974 43.7706 52.9601 43.8634 52.8212 43.9473L52.6212 44.0681L52.7282 44.2758L55.506 49.6676L55.628 49.9043L55.8565 49.7676C56.0117 49.6748 56.1622 49.5742 56.3073 49.466L56.4772 49.3394L56.38 49.151L53.6 43.7593Z" fill="#23252C" stroke="#6F7380" stroke-width="0.5"/>
<path d="M53.1727 44.0468L53.05 43.8085L52.8208 43.9476C52.675 44.036 52.5269 44.116 52.3741 44.1896L52.1428 44.3011L52.2605 44.5294L55.0405 49.9212L55.1518 50.137L55.3708 50.032C55.538 49.9519 55.7009 49.8631 55.859 49.7662L56.0568 49.6449L55.9505 49.4386L53.1727 44.0468Z" fill="#23252C" stroke="#6F7380" stroke-width="0.5"/>
<path d="M52.7048 44.3003L52.5937 44.0849L52.3749 44.1893C52.2066 44.2697 52.0357 44.3415 51.86 44.407L51.5959 44.5054L51.7251 44.7558L54.5051 50.1476L54.6057 50.3426L54.8121 50.2682C55.0025 50.1996 55.1886 50.1214 55.3727 50.0311L55.6017 49.9188L55.4848 49.6921L52.7048 44.3003Z" fill="#23252C" stroke="#6F7380" stroke-width="0.5"/>
<mask id="path-70-outside-26_509_2784" maskUnits="userSpaceOnUse" x="50.2888" y="43.6435" width="6" height="8" fill="black">
<rect fill="white" x="50.2888" y="43.6435" width="6" height="8"/>
<path d="M51.9478 44.6435L54.7279 50.0352C54.5071 50.1146 54.2818 50.1804 54.0531 50.2322L51.2888 44.8404C51.5175 44.7886 51.7428 44.7228 51.9636 44.6435"/>
</mask>
<path d="M51.9478 44.6435L54.7279 50.0352C54.5071 50.1146 54.2818 50.1804 54.0531 50.2322L51.2888 44.8404C51.5175 44.7886 51.7428 44.7228 51.9636 44.6435" fill="#23252C"/>
<path d="M54.7279 50.0352L54.897 50.5058L55.4336 50.3129L55.1723 49.8061L54.7279 50.0352ZM54.0531 50.2322L53.6082 50.4603L53.7852 50.8056L54.1636 50.7198L54.0531 50.2322ZM51.2888 44.8404L51.1783 44.3528L50.5499 44.4952L50.8439 45.0685L51.2888 44.8404ZM51.5034 44.8726L54.2835 50.2644L55.1723 49.8061L52.3922 44.4144L51.5034 44.8726ZM54.5588 49.5647C54.3572 49.6372 54.1514 49.6972 53.9426 49.7445L54.1636 50.7198C54.4122 50.6635 54.6571 50.592 54.897 50.5058L54.5588 49.5647ZM54.4981 50.0041L51.7338 44.6123L50.8439 45.0685L53.6082 50.4603L54.4981 50.0041ZM51.3993 45.3281C51.6479 45.2717 51.8928 45.2003 52.1327 45.114L51.7945 44.173C51.5929 44.2454 51.3871 44.3055 51.1783 44.3528L51.3993 45.3281Z" fill="#6F7380" mask="url(#path-70-outside-26_509_2784)"/>
<mask id="path-72-outside-27_509_2784" maskUnits="userSpaceOnUse" x="48.4487" y="43.8404" width="7" height="8" fill="black">
<rect fill="white" x="48.4487" y="43.8404" width="7" height="8"/>
<path d="M51.2883 44.8404L54.0679 50.2321C53.4643 50.3735 52.8403 50.4034 52.2261 50.3204L49.4487 44.9287C50.0622 45.0115 50.6855 44.9816 51.2883 44.8404Z"/>
</mask>
<path d="M51.2883 44.8404L54.0679 50.2321C53.4643 50.3735 52.8403 50.4034 52.2261 50.3204L49.4487 44.9287C50.0622 45.0115 50.6855 44.9816 51.2883 44.8404Z" fill="#23252C"/>
<path d="M54.0679 50.2321L54.1819 50.719L54.8061 50.5728L54.5123 50.003L54.0679 50.2321ZM52.2261 50.3204L51.7816 50.5494L51.9009 50.781L52.1592 50.8159L52.2261 50.3204ZM49.4487 44.9287L49.5157 44.4332L48.5649 44.3047L49.0042 45.1576L49.4487 44.9287ZM50.8439 45.0695L53.6235 50.4613L54.5123 50.003L51.7327 44.6113L50.8439 45.0695ZM53.9539 49.7453C53.4096 49.8727 52.8468 49.8997 52.293 49.8249L52.1592 50.8159C52.8337 50.907 53.519 50.8742 54.1819 50.719L53.9539 49.7453ZM52.6706 50.0915L49.8932 44.6997L49.0042 45.1576L51.7816 50.5494L52.6706 50.0915ZM49.3818 45.4242C50.0556 45.5152 50.7402 45.4823 51.4023 45.3272L51.1742 44.3536C50.6307 44.4809 50.0687 44.5079 49.5157 44.4332L49.3818 45.4242Z" fill="#6F7380" mask="url(#path-72-outside-27_509_2784)"/>
<path d="M64.7206 41.4233L64.644 41.2748L64.4775 41.2887L54.7804 42.1013L54.4078 42.1325L54.579 42.4649L57.3564 47.8567L57.4329 48.0053L57.5995 47.9913L67.2988 47.1787L67.6715 47.1475L67.5002 46.815L64.7206 41.4233Z" fill="#23252C" stroke="#6F7380" stroke-width="0.5"/>
<path d="M24.8863 62.9745L24.8805 62.9633L24.8736 62.9527L7.26277 35.8876L6.83101 36.1385L9.6106 41.5302L9.61639 41.5414L9.62327 41.552L27.2341 68.6172L27.6658 68.3663L24.8863 62.9745Z" fill="#23252C" stroke="#6F7380" stroke-width="0.5"/>
<path d="M26.3934 39.9407L25.9249 40.0987L29.5973 60.9165L29.6039 60.9539L29.6213 60.9876L32.4009 66.3794L32.8693 66.2214L29.1969 45.4036L29.1903 45.3662L29.1729 45.3325L26.3934 39.9407Z" fill="#23252C" stroke="#6F7380" stroke-width="0.5"/>
<path d="M49.6642 44.8142L49.4968 44.4892L49.2547 44.7632L37.5763 57.9777L37.4631 58.1058L37.5415 58.2578L40.3211 63.6496L40.4886 63.9745L40.7306 63.7005L52.4067 50.486L52.5199 50.3579L52.4416 50.206L49.6642 44.8142Z" fill="#23252C" stroke="#6F7380" stroke-width="0.5"/>
<path d="M66.621 44.2504L66.497 44.0101L66.2671 44.1524L33.9038 64.1938L33.7074 64.3155L33.8132 64.5209L36.5905 69.9126L36.7144 70.1531L36.9444 70.0107L69.31 49.9693L69.5065 49.8476L69.4006 49.6422L66.621 44.2504Z" fill="#23252C" stroke="#6F7380" stroke-width="0.5"/>
<mask id="path-79-outside-28_509_2784" maskUnits="userSpaceOnUse" x="73.7776" y="36.7328" width="5" height="7" fill="black">
<rect fill="white" x="73.7776" y="36.7328" width="5" height="7"/>
<path d="M74.7776 37.7328L77.5576 43.1246C77.6139 43.2333 77.6633 43.351 77.7106 43.4573L74.9305 38.0656C74.8855 37.9524 74.8338 37.8392 74.7776 37.7328Z"/>
</mask>
<path d="M74.7776 37.7328L77.5576 43.1246C77.6139 43.2333 77.6633 43.351 77.7106 43.4573L74.9305 38.0656C74.8855 37.9524 74.8338 37.8392 74.7776 37.7328Z" fill="#23252C"/>
<path d="M77.5576 43.1246L77.1132 43.3537L77.1136 43.3544L77.5576 43.1246ZM77.7106 43.4573L77.2662 43.6865L78.1676 43.2544L77.7106 43.4573ZM74.9305 38.0656L74.4659 38.2503L74.4749 38.273L74.4861 38.2947L74.9305 38.0656ZM74.3332 37.962L77.1132 43.3537L78.002 42.8955L75.222 37.5037L74.3332 37.962ZM77.1136 43.3544C77.1608 43.4456 77.2006 43.5409 77.2536 43.6602L78.1676 43.2544C78.1261 43.161 78.067 43.0209 78.0017 42.8948L77.1136 43.3544ZM78.155 43.2282L75.3749 37.8364L74.4861 38.2947L77.2662 43.6865L78.155 43.2282ZM75.3952 37.8809C75.344 37.7523 75.2849 37.6226 75.2196 37.4992L74.3355 37.9665C74.3828 38.0558 74.4271 38.1526 74.4659 38.2503L75.3952 37.8809Z" fill="#6F7380" mask="url(#path-79-outside-28_509_2784)"/>
<mask id="path-81-outside-29_509_2784" maskUnits="userSpaceOnUse" x="73.9304" y="37.0657" width="5" height="8" fill="black">
<rect fill="white" x="73.9304" y="37.0657" width="5" height="8"/>
<path d="M74.9304 38.0657L77.7105 43.4574C77.7835 43.6391 77.8429 43.826 77.8882 44.0165L75.1081 38.6248C75.0628 38.4342 75.0034 38.2473 74.9304 38.0657Z"/>
</mask>
<path d="M74.9304 38.0657L77.7105 43.4574C77.7835 43.6391 77.8429 43.826 77.8882 44.0165L75.1081 38.6248C75.0628 38.4342 75.0034 38.2473 74.9304 38.0657Z" fill="#23252C"/>
<path d="M77.7105 43.4574L78.1744 43.2709L78.1656 43.2491L78.1549 43.2283L77.7105 43.4574ZM77.8882 44.0165L77.4438 44.2457L78.3746 43.901L77.8882 44.0165ZM75.1081 38.6248L74.6216 38.7403L74.6357 38.7997L74.6637 38.8539L75.1081 38.6248ZM74.486 38.2948L77.2661 43.6866L78.1549 43.2283L75.3748 37.8365L74.486 38.2948ZM77.2466 43.6439C77.3103 43.8025 77.3622 43.9657 77.4017 44.1321L78.3746 43.901C78.3236 43.6862 78.2567 43.4756 78.1744 43.2709L77.2466 43.6439ZM78.3326 43.7874L75.5525 38.3956L74.6637 38.8539L77.4438 44.2457L78.3326 43.7874ZM75.5946 38.5092C75.5436 38.2945 75.4766 38.0839 75.3943 37.8792L74.4665 38.2522C74.5303 38.4107 74.5821 38.5739 74.6216 38.7403L75.5946 38.5092Z" fill="#6F7380" mask="url(#path-81-outside-29_509_2784)"/>
<mask id="path-83-outside-30_509_2784" maskUnits="userSpaceOnUse" x="74.1084" y="37.6248" width="5" height="8" fill="black">
<rect fill="white" x="74.1084" y="37.6248" width="5" height="8"/>
<path d="M75.1084 38.6248L77.8885 44.0166C77.9496 44.2689 77.9857 44.5267 77.9964 44.7862L75.2164 39.3944C75.2057 39.1349 75.1695 38.8771 75.1084 38.6248Z"/>
</mask>
<path d="M75.1084 38.6248L77.8885 44.0166C77.9496 44.2689 77.9857 44.5267 77.9964 44.7862L75.2164 39.3944C75.2057 39.1349 75.1695 38.8771 75.1084 38.6248Z" fill="#23252C"/>
<path d="M77.8885 44.0166L78.3744 43.8989L78.3603 43.8407L78.3329 43.7874L77.8885 44.0166ZM77.9964 44.7862L77.552 45.0153L78.496 44.7656L77.9964 44.7862ZM75.2164 39.3944L74.7168 39.415L74.7213 39.5254L74.772 39.6236L75.2164 39.3944ZM74.664 38.854L77.4441 44.2457L78.3329 43.7874L75.5528 38.3957L74.664 38.854ZM77.4025 44.1342C77.4559 44.3547 77.4875 44.58 77.4968 44.8068L78.496 44.7656C78.4839 44.4734 78.4432 44.1831 78.3744 43.8989L77.4025 44.1342ZM78.4408 44.557L75.6608 39.1653L74.772 39.6236L77.552 45.0153L78.4408 44.557ZM75.7159 39.3738C75.7039 39.0816 75.6632 38.7913 75.5944 38.5071L74.6224 38.7425C74.6758 38.963 74.7074 39.1883 74.7168 39.415L75.7159 39.3738Z" fill="#6F7380" mask="url(#path-83-outside-30_509_2784)"/>
<mask id="path-85-outside-31_509_2784" maskUnits="userSpaceOnUse" x="73.6521" y="38.3943" width="5" height="10" fill="black">
<rect fill="white" x="73.6521" y="38.3943" width="5" height="10"/>
<path d="M75.2167 39.3943L77.9967 44.786C78.0175 45.3181 77.946 45.8497 77.7853 46.3569C77.6927 46.6516 77.5737 46.9372 77.4299 47.2103L74.6521 41.8185C74.7943 41.545 74.9124 41.2594 75.0052 40.9652C75.1681 40.4584 75.2397 39.9264 75.2167 39.3943Z"/>
</mask>
<path d="M75.2167 39.3943L77.9967 44.786C78.0175 45.3181 77.946 45.8497 77.7853 46.3569C77.6927 46.6516 77.5737 46.9372 77.4299 47.2103L74.6521 41.8185C74.7943 41.545 74.9124 41.2594 75.0052 40.9652C75.1681 40.4584 75.2397 39.9264 75.2167 39.3943Z" fill="#23252C"/>
<path d="M77.9967 44.786L78.4963 44.7665L78.492 44.6556L78.4411 44.5569L77.9967 44.786ZM77.7853 46.3569L77.3086 46.2059L77.3083 46.207L77.7853 46.3569ZM77.4299 47.2103L76.9854 47.4393L77.425 48.2925L77.8723 47.4433L77.4299 47.2103ZM74.6521 41.8185L74.2084 41.588L74.0891 41.8175L74.2076 42.0475L74.6521 41.8185ZM75.0052 40.9652L74.5292 40.8122L74.5284 40.8148L75.0052 40.9652ZM74.7723 39.6234L77.5523 45.0152L78.4411 44.5569L75.6611 39.1651L74.7723 39.6234ZM77.4971 44.8056C77.5156 45.2799 77.4518 45.7538 77.3086 46.2059L78.2619 46.5079C78.4401 45.9455 78.5194 45.3562 78.4963 44.7665L77.4971 44.8056ZM77.3083 46.207C77.2247 46.473 77.1173 46.7308 76.9875 46.9773L77.8723 47.4433C78.0301 47.1436 78.1607 46.8302 78.2623 46.5068L77.3083 46.207ZM77.8744 46.9813L75.0966 41.5895L74.2076 42.0475L76.9854 47.4393L77.8744 46.9813ZM75.0958 42.0491C75.2513 41.7498 75.3806 41.4374 75.4821 41.1156L74.5284 40.8148C74.4443 41.0814 74.3372 41.3401 74.2084 41.588L75.0958 42.0491ZM75.4813 41.1182C75.6622 40.555 75.7418 39.9639 75.7162 39.3727L74.7171 39.4159C74.7376 39.8889 74.6739 40.3618 74.5292 40.8122L75.4813 41.1182Z" fill="#6F7380" mask="url(#path-85-outside-31_509_2784)"/>
<mask id="path-87-outside-32_509_2784" maskUnits="userSpaceOnUse" x="73.1841" y="40.8186" width="5" height="9" fill="black">
<rect fill="white" x="73.1841" y="40.8186" width="5" height="9"/>
<path d="M74.6519 41.8186L77.4297 47.2126C77.2943 47.4729 77.1387 47.7219 76.9641 47.9573L74.1841 42.5656C74.359 42.3299 74.5154 42.081 74.6519 41.8209"/>
</mask>
<path d="M74.6519 41.8186L77.4297 47.2126C77.2943 47.4729 77.1387 47.7219 76.9641 47.9573L74.1841 42.5656C74.359 42.3299 74.5154 42.081 74.6519 41.8209" fill="#23252C"/>
<path d="M77.4297 47.2126L77.8733 47.4434L77.9927 47.2138L77.8742 46.9837L77.4297 47.2126ZM76.9641 47.9573L76.5197 48.1865L76.8877 48.9001L77.3658 48.2551L76.9641 47.9573ZM74.1841 42.5656L73.7826 42.2675L73.5969 42.5177L73.7397 42.7947L74.1841 42.5656ZM74.2074 42.0475L76.9852 47.4415L77.8742 46.9837L75.0964 41.5897L74.2074 42.0475ZM76.9862 46.9819C76.8629 47.2187 76.7213 47.4453 76.5624 47.6596L77.3658 48.2551C77.5561 47.9984 77.7257 47.727 77.8733 47.4434L76.9862 46.9819ZM77.4085 47.7282L74.6285 42.3364L73.7397 42.7947L76.5197 48.1865L77.4085 47.7282ZM74.5855 42.8636C74.7759 42.6072 74.9462 42.3362 75.0947 42.0532L74.2092 41.5885C74.0847 41.8257 73.9421 42.0527 73.7826 42.2675L74.5855 42.8636Z" fill="#6F7380" mask="url(#path-87-outside-32_509_2784)"/>
<mask id="path-89-outside-33_509_2784" maskUnits="userSpaceOnUse" x="72.7458" y="41.5632" width="5" height="8" fill="black">
<rect fill="white" x="72.7458" y="41.5632" width="5" height="8"/>
<path d="M74.1845 42.5632L76.9645 47.955C76.8258 48.1409 76.6756 48.3178 76.5147 48.4846L73.7458 43.0929C73.9023 42.9252 74.0488 42.7484 74.1845 42.5632Z"/>
</mask>
<path d="M74.1845 42.5632L76.9645 47.955C76.8258 48.1409 76.6756 48.3178 76.5147 48.4846L73.7458 43.0929C73.9023 42.9252 74.0488 42.7484 74.1845 42.5632Z" fill="#23252C"/>
<path d="M76.9645 47.955L77.3653 48.2539L77.5521 48.0035L77.4089 47.7258L76.9645 47.955ZM76.5147 48.4846L76.0699 48.7131L76.3892 49.3348L76.8745 48.8318L76.5147 48.4846ZM73.7458 43.0929L73.3803 42.7518L73.1405 43.0087L73.3011 43.3213L73.7458 43.0929ZM73.74 42.7924L76.5201 48.1841L77.4089 47.7258L74.6289 42.3341L73.74 42.7924ZM76.5637 47.6561C76.4376 47.8251 76.3011 47.9859 76.1548 48.1375L76.8745 48.8318C77.0501 48.6498 77.214 48.4568 77.3653 48.2539L76.5637 47.6561ZM76.9594 48.2562L74.1906 42.8645L73.3011 43.3213L76.0699 48.7131L76.9594 48.2562ZM74.1114 43.434C74.2813 43.2519 74.4404 43.0598 74.5877 42.8588L73.7812 42.2677C73.6572 42.4369 73.5233 42.5985 73.3803 42.7518L74.1114 43.434Z" fill="#6F7380" mask="url(#path-89-outside-33_509_2784)"/>
<mask id="path-91-outside-34_509_2784" maskUnits="userSpaceOnUse" x="72.3074" y="42.0929" width="5" height="8" fill="black">
<rect fill="white" x="72.3074" y="42.0929" width="5" height="8"/>
<path d="M73.746 43.0929L76.5238 48.4847C76.3856 48.6339 76.24 48.7759 76.0874 48.9102L73.3074 43.5184C73.4645 43.3845 73.6147 43.2424 73.7572 43.0929"/>
</mask>
<path d="M73.746 43.0929L76.5238 48.4847C76.3856 48.6339 76.24 48.7759 76.0874 48.9102L73.3074 43.5184C73.4645 43.3845 73.6147 43.2424 73.7572 43.0929" fill="#23252C"/>
<path d="M76.5238 48.4847L76.8907 48.8244L77.1288 48.5672L76.9683 48.2557L76.5238 48.4847ZM76.0874 48.9102L75.643 49.1393L75.9368 49.709L76.4178 49.2855L76.0874 48.9102ZM73.3074 43.5184L72.983 43.138L72.6813 43.3952L72.863 43.7476L73.3074 43.5184ZM73.3015 43.3219L76.0793 48.7136L76.9683 48.2557L74.1905 42.8639L73.3015 43.3219ZM76.1569 48.1449C76.0303 48.2817 75.8968 48.4119 75.757 48.5349L76.4178 49.2855C76.5831 49.1399 76.7409 48.986 76.8907 48.8244L76.1569 48.1449ZM76.5318 48.6811L73.7518 43.2893L72.863 43.7476L75.643 49.1393L76.5318 48.6811ZM73.6318 43.8989C73.802 43.7538 73.9647 43.5999 74.1191 43.4379L73.3953 42.7479C73.2646 42.885 73.127 43.0152 72.983 43.138L73.6318 43.8989Z" fill="#6F7380" mask="url(#path-91-outside-34_509_2784)"/>
<mask id="path-93-outside-35_509_2784" maskUnits="userSpaceOnUse" x="71.8596" y="42.5184" width="5" height="8" fill="black">
<rect fill="white" x="71.8596" y="42.5184" width="5" height="8"/>
<path d="M73.3072 43.5184L76.0873 48.9102C75.9411 49.0392 75.7881 49.1637 75.6374 49.2791L72.8596 43.8874C73.0171 43.772 73.17 43.661 73.3095 43.5184"/>
</mask>
<path d="M73.3072 43.5184L76.0873 48.9102C75.9411 49.0392 75.7881 49.1637 75.6374 49.2791L72.8596 43.8874C73.0171 43.772 73.17 43.661 73.3095 43.5184" fill="#23252C"/>
<path d="M76.0873 48.9102L76.4181 49.2851L76.7102 49.0273L76.5317 48.681L76.0873 48.9102ZM75.6374 49.2791L75.1929 49.5081L75.4668 50.0397L75.9415 49.6761L75.6374 49.2791ZM72.8596 43.8874L72.564 43.4842L72.2195 43.7367L72.4151 44.1164L72.8596 43.8874ZM72.8628 43.7476L75.6429 49.1393L76.5317 48.681L73.7516 43.2893L72.8628 43.7476ZM75.7564 48.5353C75.6201 48.6556 75.4762 48.7728 75.3334 48.8822L75.9415 49.6761C76.1001 49.5546 76.2621 49.4228 76.4181 49.2851L75.7564 48.5353ZM76.0819 49.0502L73.3041 43.6584L72.4151 44.1164L75.1929 49.5081L76.0819 49.0502ZM73.1553 44.2906C73.3061 44.18 73.4937 44.0452 73.6669 43.868L72.952 43.1689C72.8463 43.2769 72.728 43.3639 72.564 43.4842L73.1553 44.2906Z" fill="#6F7380" mask="url(#path-93-outside-35_509_2784)"/>
<path d="M73.0729 43.773L72.9388 43.5128L72.7028 43.6858C72.5518 43.7966 72.3935 43.9014 72.2321 44.0002L72.0339 44.1215L72.1403 44.328L74.9204 49.7197L75.0441 49.9596L75.2738 49.818C75.4457 49.712 75.613 49.5998 75.7756 49.4813L75.9488 49.3551L75.8507 49.1647L73.0729 43.773Z" fill="#23252C" stroke="#6F7380" stroke-width="0.5"/>
<mask id="path-96-outside-36_509_2784" maskUnits="userSpaceOnUse" x="70.8296" y="43.2067" width="5" height="8" fill="black">
<rect fill="white" x="70.8296" y="43.2067" width="5" height="8"/>
<path d="M72.3627 44.2135L75.1427 49.6052C74.9695 49.7093 74.7918 49.8067 74.6096 49.8949L71.8296 44.4964C72.0118 44.4081 72.1895 44.3108 72.3627 44.2067"/>
</mask>
<path d="M72.3627 44.2135L75.1427 49.6052C74.9695 49.7093 74.7918 49.8067 74.6096 49.8949L71.8296 44.4964C72.0118 44.4081 72.1895 44.3108 72.3627 44.2067" fill="#23252C"/>
<path d="M75.1427 49.6052L75.4003 50.0337L75.8018 49.7924L75.5871 49.3761L75.1427 49.6052ZM74.6096 49.8949L74.1651 50.1239L74.3885 50.5577L74.8277 50.3449L74.6096 49.8949ZM71.8296 44.4964L71.6116 44.0464L71.1505 44.2698L71.3851 44.7253L71.8296 44.4964ZM71.9183 44.4426L74.6983 49.8344L75.5871 49.3761L72.8071 43.9843L71.9183 44.4426ZM74.8851 49.1767C74.7233 49.2739 74.5589 49.3639 74.3916 49.445L74.8277 50.3449C75.0248 50.2494 75.2157 50.1447 75.4003 50.0337L74.8851 49.1767ZM75.0542 49.666L72.2741 44.2675L71.3851 44.7253L74.1651 50.1239L75.0542 49.666ZM72.0476 44.9464C72.2447 44.8508 72.4357 44.7462 72.6203 44.6352L72.105 43.7781C71.9433 43.8754 71.7788 43.9654 71.6116 44.0464L72.0476 44.9464Z" fill="#6F7380" mask="url(#path-96-outside-36_509_2784)"/>
<mask id="path-98-outside-37_509_2784" maskUnits="userSpaceOnUse" x="70.2224" y="43.4963" width="6" height="8" fill="black">
<rect fill="white" x="70.2224" y="43.4963" width="6" height="8"/>
<path d="M71.8297 44.4963L74.6098 49.8881C74.4122 49.9879 74.2094 50.077 74.0025 50.1552L71.2224 44.7634C71.4301 44.6887 71.6336 44.6026 71.8319 44.5054"/>
</mask>
<path d="M71.8297 44.4963L74.6098 49.8881C74.4122 49.9879 74.2094 50.077 74.0025 50.1552L71.2224 44.7634C71.4301 44.6887 71.6336 44.6026 71.8319 44.5054" fill="#23252C"/>
<path d="M74.6098 49.8881L74.8351 50.3344L75.2852 50.1071L75.0542 49.659L74.6098 49.8881ZM74.0025 50.1552L73.5581 50.3843L73.7622 50.7803L74.1791 50.623L74.0025 50.1552ZM71.2224 44.7634L71.0532 44.2929L70.5168 44.4859L70.778 44.9926L71.2224 44.7634ZM71.3853 44.7255L74.1654 50.1172L75.0542 49.659L72.2741 44.2672L71.3853 44.7255ZM74.3844 49.4418C74.2026 49.5336 74.0162 49.6155 73.8258 49.6874L74.1791 50.623C74.4027 50.5385 74.6217 50.4422 74.8351 50.3344L74.3844 49.4418ZM74.4469 49.926L71.6668 44.5343L70.778 44.9926L73.5581 50.3843L74.4469 49.926ZM71.3916 45.2339C71.6167 45.153 71.8371 45.0596 72.052 44.9544L71.6119 44.0564C71.4301 44.1455 71.2436 44.2245 71.0532 44.2929L71.3916 45.2339Z" fill="#6F7380" mask="url(#path-98-outside-37_509_2784)"/>
<mask id="path-100-outside-38_509_2784" maskUnits="userSpaceOnUse" x="69.4644" y="43.7611" width="6" height="8" fill="black">
<rect fill="white" x="69.4644" y="43.7611" width="6" height="8"/>
<path d="M71.2201 44.7611L74.0024 50.1551C73.7546 50.2463 73.5015 50.3219 73.2444 50.3815L70.4644 44.9897C70.7214 44.9301 70.9746 44.8545 71.2223 44.7634"/>
</mask>
<path d="M71.2201 44.7611L74.0024 50.1551C73.7546 50.2463 73.5015 50.3219 73.2444 50.3815L70.4644 44.9897C70.7214 44.9301 70.9746 44.8545 71.2223 44.7634" fill="#23252C"/>
<path d="M74.0024 50.1551L74.1751 50.6244L74.7062 50.4289L74.4468 49.9259L74.0024 50.1551ZM73.2444 50.3815L72.8 50.6106L72.9783 50.9564L73.3573 50.8686L73.2444 50.3815ZM70.4644 44.9897L70.3515 44.5026L69.7255 44.6477L70.02 45.2189L70.4644 44.9897ZM70.7757 44.9903L73.558 50.3843L74.4468 49.9259L71.6645 44.5319L70.7757 44.9903ZM73.8297 49.6859C73.6015 49.7699 73.3683 49.8395 73.1315 49.8944L73.3573 50.8686C73.6347 50.8043 73.9078 50.7227 74.1751 50.6244L73.8297 49.6859ZM73.6888 50.1523L70.9088 44.7606L70.02 45.2189L72.8 50.6106L73.6888 50.1523ZM70.5772 45.4768C70.8546 45.4125 71.1277 45.331 71.395 45.2326L71.0497 44.2941C70.8214 44.3781 70.5883 44.4478 70.3515 44.5026L70.5772 45.4768Z" fill="#6F7380" mask="url(#path-100-outside-38_509_2784)"/>
<mask id="path-102-outside-39_509_2784" maskUnits="userSpaceOnUse" x="64.3987" y="42.3673" width="10" height="9" fill="black">
<rect fill="white" x="64.3987" y="42.3673" width="10" height="9"/>
<path d="M70.4624 44.9875L73.242 50.3815C72.5484 50.5438 71.8313 50.5775 71.1258 50.4811C70.4348 50.3754 69.7723 50.1297 69.1783 49.7591L66.3987 44.3673C66.9921 44.7392 67.6549 44.9849 68.3462 45.0894C69.0517 45.1857 69.7688 45.152 70.4624 44.9898"/>
</mask>
<path d="M70.4624 44.9875L73.242 50.3815C72.5484 50.5438 71.8313 50.5775 71.1258 50.4811C70.4348 50.3754 69.7723 50.1297 69.1783 49.7591L66.3987 44.3673C66.9921 44.7392 67.6549 44.9849 68.3462 45.0894C69.0517 45.1857 69.7688 45.152 70.4624 44.9898" fill="#23252C"/>
<path d="M73.242 50.3815L73.3558 50.8684L73.9801 50.7224L73.6864 50.1525L73.242 50.3815ZM71.1258 50.4811L71.0501 50.9754L71.0581 50.9765L71.1258 50.4811ZM69.1783 49.7591L68.7338 49.9882L68.7969 50.1104L68.9136 50.1833L69.1783 49.7591ZM66.3987 44.3673L66.6642 43.9436L65.1184 42.975L65.9543 44.5964L66.3987 44.3673ZM68.3462 45.0894L68.2715 45.5838L68.2785 45.5848L68.3462 45.0894ZM70.0179 45.2166L72.7975 50.6106L73.6864 50.1525L70.9068 44.7585L70.0179 45.2166ZM73.1281 49.8947C72.494 50.043 71.8385 50.0738 71.1935 49.9857L71.0581 50.9765C71.8242 51.0812 72.6028 51.0445 73.3558 50.8684L73.1281 49.8947ZM71.2015 49.9869C70.5777 49.8914 69.9795 49.6696 69.443 49.3349L68.9136 50.1833C69.5651 50.5898 70.2919 50.8593 71.0501 50.9754L71.2015 49.9869ZM69.6227 49.53L66.8431 44.1382L65.9543 44.5964L68.7338 49.9882L69.6227 49.53ZM66.1332 44.791C66.7846 45.1992 67.5123 45.469 68.2715 45.5838L68.4209 44.595C67.7975 44.5008 67.1997 44.2791 66.6642 43.9436L66.1332 44.791ZM68.2785 45.5848C69.0446 45.6894 69.8232 45.6528 70.5762 45.4766L70.3485 44.5029C69.7144 44.6512 69.0589 44.6821 68.4139 44.594L68.2785 45.5848Z" fill="#6F7380" mask="url(#path-102-outside-39_509_2784)"/>
<mask id="path-104-outside-40_509_2784" maskUnits="userSpaceOnUse" x="33.0354" y="63.4155" width="5" height="8" fill="black">
<rect fill="white" x="33.0354" y="63.4155" width="5" height="8"/>
<path d="M34.0354 64.4155L36.8132 69.8073C36.8466 69.9722 36.8677 70.1394 36.8762 70.3075L34.0961 64.9158C34.0873 64.7478 34.067 64.5807 34.0354 64.4155Z"/>
</mask>
<path d="M34.0354 64.4155L36.8132 69.8073C36.8466 69.9722 36.8677 70.1394 36.8762 70.3075L34.0961 64.9158C34.0873 64.7478 34.067 64.5807 34.0354 64.4155Z" fill="#23252C"/>
<path d="M36.8132 69.8073L37.3032 69.708L37.2895 69.64L37.2577 69.5783L36.8132 69.8073ZM36.8762 70.3075L36.4318 70.5367L37.3755 70.2823L36.8762 70.3075ZM34.0961 64.9158L33.5968 64.9421L33.6025 65.0494L33.6517 65.1449L34.0961 64.9158ZM33.5909 64.6445L36.3687 70.0363L37.2577 69.5783L34.4799 64.1865L33.5909 64.6445ZM36.3232 69.9066C36.3516 70.0471 36.3696 70.1896 36.3768 70.3328L37.3755 70.2823C37.3658 70.0893 37.3416 69.8973 37.3032 69.708L36.3232 69.9066ZM37.3206 70.0784L34.5405 64.6866L33.6517 65.1449L36.4318 70.5367L37.3206 70.0784ZM34.5954 64.8894C34.5854 64.6988 34.5623 64.5091 34.5265 64.3217L33.5443 64.5094C33.5716 64.6523 33.5892 64.7968 33.5968 64.9421L34.5954 64.8894Z" fill="#6F7380" mask="url(#path-104-outside-40_509_2784)"/>
<mask id="path-106-outside-41_509_2784" maskUnits="userSpaceOnUse" x="32.5225" y="63.9067" width="5" height="10" fill="black">
<rect fill="white" x="32.5225" y="63.9067" width="5" height="10"/>
<path d="M34.096 64.9067L36.8761 70.3008C36.8898 70.8186 36.8137 71.3349 36.6511 71.8264C36.5598 72.1147 36.4431 72.3942 36.3025 72.6616L33.5225 67.2676C33.6624 67.0001 33.7783 66.7206 33.8688 66.4324C34.0314 65.9408 34.1075 65.4246 34.0938 64.9067"/>
</mask>
<path d="M34.096 64.9067L36.8761 70.3008C36.8898 70.8186 36.8137 71.3349 36.6511 71.8264C36.5598 72.1147 36.4431 72.3942 36.3025 72.6616L33.5225 67.2676C33.6624 67.0001 33.7783 66.7206 33.8688 66.4324C34.0314 65.9408 34.1075 65.4246 34.0938 64.9067" fill="#23252C"/>
<path d="M36.8761 70.3008L37.3759 70.2875L37.3729 70.1733L37.3205 70.0717L36.8761 70.3008ZM36.6511 71.8264L36.1764 71.6694L36.1745 71.6754L36.6511 71.8264ZM36.3025 72.6616L35.8581 72.8907L36.2981 73.7444L36.7451 72.8943L36.3025 72.6616ZM33.5225 67.2676L33.0794 67.0359L32.9591 67.2659L33.078 67.4967L33.5225 67.2676ZM33.8688 66.4324L33.3941 66.2754L33.3918 66.2825L33.8688 66.4324ZM33.6516 65.1358L36.4316 70.5298L37.3205 70.0717L34.5405 64.6777L33.6516 65.1358ZM36.3762 70.314C36.3885 70.7741 36.3208 71.2328 36.1764 71.6694L37.1259 71.9834C37.3066 71.437 37.3912 70.8631 37.3759 70.2875L36.3762 70.314ZM36.1745 71.6754C36.0921 71.9355 35.9868 72.1877 35.86 72.4289L36.7451 72.8943C36.8995 72.6007 37.0275 72.2938 37.1278 71.9774L36.1745 71.6754ZM36.747 72.4326L33.9669 67.0385L33.078 67.4967L35.8581 72.8907L36.747 72.4326ZM33.9655 67.4993C34.1191 67.2056 34.2464 66.8987 34.3458 66.5823L33.3918 66.2825C33.3101 66.5425 33.2056 66.7946 33.0794 67.0359L33.9655 67.4993ZM34.3436 66.5894C34.5243 66.0429 34.6089 65.4691 34.5936 64.8935L33.5939 64.92C33.6062 65.3801 33.5385 65.8388 33.3941 66.2754L34.3436 66.5894Z" fill="#6F7380" mask="url(#path-106-outside-41_509_2784)"/>
<path d="M33.7448 67.1531L33.5221 66.7207L33.3001 67.1535C33.1741 67.3994 33.0301 67.6355 32.8695 67.86L32.7807 67.984L32.8503 68.1196L35.6169 73.5114L35.8009 73.87L36.0404 73.5458C36.2206 73.3018 36.3817 73.0441 36.5221 72.7749L36.582 72.66L36.5226 72.5448L33.7448 67.1531Z" fill="#23252C" stroke="#6F7380" stroke-width="0.5"/>
<mask id="path-109-outside-42_509_2784" maskUnits="userSpaceOnUse" x="31.6233" y="67.0055" width="5" height="8" fill="black">
<rect fill="white" x="31.6233" y="67.0055" width="5" height="8"/>
<path d="M33.0731 68.0055L35.8532 73.3972C35.7171 73.58 35.5715 73.7553 35.4168 73.9224L32.6233 68.5306C32.7785 68.364 32.9241 68.1887 33.0596 68.0055"/>
</mask>
<path d="M33.0731 68.0055L35.8532 73.3972C35.7171 73.58 35.5715 73.7553 35.4168 73.9224L32.6233 68.5306C32.7785 68.364 32.9241 68.1887 33.0596 68.0055" fill="#23252C"/>
<path d="M35.8532 73.3972L36.2542 73.6959L36.4406 73.4455L36.2976 73.1681L35.8532 73.3972ZM35.4168 73.9224L34.9729 74.1524L35.3004 74.7845L35.7838 74.262L35.4168 73.9224ZM32.6233 68.5306L32.2574 68.1899L32.0172 68.4478L32.1793 68.7607L32.6233 68.5306ZM32.6287 68.2346L35.4088 73.6264L36.2976 73.1681L33.5175 67.7764L32.6287 68.2346ZM35.4522 73.0986C35.3267 73.2671 35.1924 73.4288 35.0498 73.5828L35.7838 74.262C35.9505 74.0818 36.1075 73.8928 36.2542 73.6959L35.4522 73.0986ZM35.8608 73.6924L33.0672 68.3006L32.1793 68.7607L34.9729 74.1524L35.8608 73.6924ZM32.9892 68.8714C33.1572 68.691 33.3149 68.5011 33.4616 68.3028L32.6577 67.7081C32.5333 67.8762 32.3997 68.037 32.2574 68.1899L32.9892 68.8714Z" fill="#6F7380" mask="url(#path-109-outside-42_509_2784)"/>
<mask id="path-111-outside-43_509_2784" maskUnits="userSpaceOnUse" x="31.1797" y="67.5306" width="5" height="8" fill="black">
<rect fill="white" x="31.1797" y="67.5306" width="5" height="8"/>
<path d="M32.6228 68.5306L35.4096 73.9224C35.2679 74.0741 35.1217 74.2166 34.9597 74.3547L32.1797 68.963C32.3368 68.8266 32.4869 68.6823 32.6295 68.5306"/>
</mask>
<path d="M32.6228 68.5306L35.4096 73.9224C35.2679 74.0741 35.1217 74.2166 34.9597 74.3547L32.1797 68.963C32.3368 68.8266 32.4869 68.6823 32.6295 68.5306" fill="#23252C"/>
<path d="M35.4096 73.9224L35.7749 74.2638L36.0157 74.0061L35.8538 73.6928L35.4096 73.9224ZM34.9597 74.3547L34.5153 74.5839L34.8043 75.1443L35.2841 74.7352L34.9597 74.3547ZM32.1797 68.963L31.8519 68.5854L31.5552 68.843L31.7353 69.1921L32.1797 68.963ZM32.1786 68.7602L34.9654 74.152L35.8538 73.6928L33.067 68.3011L32.1786 68.7602ZM35.0442 73.581C34.9132 73.7213 34.7806 73.8504 34.6353 73.9742L35.2841 74.7352C35.4628 74.5829 35.6226 74.4268 35.7749 74.2638L35.0442 73.581ZM35.4041 74.1256L32.6241 68.7338L31.7353 69.1921L34.5153 74.5839L35.4041 74.1256ZM32.5075 69.3405C32.6773 69.1931 32.8396 69.0371 32.9938 68.8732L32.2653 68.1881C32.1342 68.3275 31.9962 68.4601 31.8519 68.5854L32.5075 69.3405Z" fill="#6F7380" mask="url(#path-111-outside-43_509_2784)"/>
<path d="M32.4089 68.8484L32.2617 68.5629L32.0211 68.7757C31.8787 68.9017 31.7293 69.0215 31.5751 69.1352L31.4036 69.2616L31.5011 69.4509L34.279 74.8427L34.413 75.1029L34.6491 74.9298C34.8153 74.8078 34.9761 74.6788 35.1315 74.5428L35.2786 74.414L35.189 74.2401L32.4089 68.8484Z" fill="#23252C" stroke="#6F7380" stroke-width="0.5"/>
<path d="M31.9459 69.222L31.8124 68.9629L31.5767 69.1343C31.4192 69.2487 31.2615 69.3551 31.0986 69.4522L30.8966 69.5726L31.0044 69.7815L33.7844 75.1733L33.9082 75.4133L34.1379 75.2715C34.31 75.1653 34.4827 75.0527 34.6498 74.9295L34.8212 74.8031L34.7237 74.6137L31.9459 69.222Z" fill="#23252C" stroke="#6F7380" stroke-width="0.5"/>
<mask id="path-115-outside-44_509_2784" maskUnits="userSpaceOnUse" x="29.6821" y="68.6624" width="5" height="8" fill="black">
<rect fill="white" x="29.6821" y="68.6624" width="5" height="8"/>
<path d="M31.2264 69.6669L34.0065 75.0542C33.8288 75.1628 33.6466 75.2601 33.4599 75.3507L30.6821 69.9589C30.8666 69.8684 31.0488 69.7711 31.2264 69.6624"/>
</mask>
<path d="M31.2264 69.6669L34.0065 75.0542C33.8288 75.1628 33.6466 75.2601 33.4599 75.3507L30.6821 69.9589C30.8666 69.8684 31.0488 69.7711 31.2264 69.6624" fill="#23252C"/>
<path d="M34.0065 75.0542L34.2673 75.4807L34.6641 75.2381L34.4508 74.8249L34.0065 75.0542ZM33.4599 75.3507L33.0155 75.5797L33.239 76.0136L33.6781 75.8006L33.4599 75.3507ZM30.6821 69.9589L30.4618 69.5101L30.0042 69.7348L30.2376 70.1879L30.6821 69.9589ZM30.7821 69.8962L33.5622 75.2835L34.4508 74.8249L31.6708 69.4377L30.7821 69.8962ZM33.7457 74.6276C33.5843 74.7262 33.4168 74.8159 33.2417 74.9008L33.6781 75.8006C33.8764 75.7044 34.0733 75.5994 34.2673 75.4807L33.7457 74.6276ZM33.9044 75.1217L31.1266 69.7299L30.2376 70.1879L33.0155 75.5797L33.9044 75.1217ZM30.9025 70.4078C31.097 70.3123 31.2933 70.2076 31.4873 70.089L30.9656 69.2358C30.8042 69.3346 30.6361 69.4245 30.4618 69.5101L30.9025 70.4078Z" fill="#6F7380" mask="url(#path-115-outside-44_509_2784)"/>
<mask id="path-117-outside-45_509_2784" maskUnits="userSpaceOnUse" x="29.0681" y="68.9635" width="6" height="8" fill="black">
<rect fill="white" x="29.0681" y="68.9635" width="6" height="8"/>
<path d="M30.6822 69.9635L33.46 75.3553C33.2607 75.4541 33.0565 75.5425 32.8482 75.6201L30.0681 70.2283C30.2796 70.1513 30.4868 70.0629 30.6889 69.9635"/>
</mask>
<path d="M30.6822 69.9635L33.46 75.3553C33.2607 75.4541 33.0565 75.5425 32.8482 75.6201L30.0681 70.2283C30.2796 70.1513 30.4868 70.0629 30.6889 69.9635" fill="#23252C"/>
<path d="M33.46 75.3553L33.6821 75.8032L34.137 75.5776L33.9044 75.1263L33.46 75.3553ZM32.8482 75.6201L32.4038 75.8492L32.6071 76.2435L33.0228 76.0886L32.8482 75.6201ZM30.0681 70.2283L29.8971 69.7585L29.3635 69.9527L29.6237 70.4575L30.0681 70.2283ZM30.2377 70.1925L33.0155 75.5842L33.9044 75.1263L31.1266 69.7345L30.2377 70.1925ZM33.2378 74.9073C33.054 74.9984 32.8657 75.08 32.6736 75.1516L33.0228 76.0886C33.2473 76.005 33.4673 75.9097 33.6821 75.8032L33.2378 74.9073ZM33.2926 75.3909L30.5125 69.9992L29.6237 70.4575L32.4038 75.8492L33.2926 75.3909ZM30.2391 70.6982C30.4676 70.615 30.6914 70.5195 30.9097 70.4121L30.4681 69.5149C30.2823 69.6064 30.0916 69.6877 29.8971 69.7585L30.2391 70.6982Z" fill="#6F7380" mask="url(#path-117-outside-45_509_2784)"/>
<mask id="path-119-outside-46_509_2784" maskUnits="userSpaceOnUse" x="28.2993" y="69.2282" width="6" height="8" fill="black">
<rect fill="white" x="28.2993" y="69.2282" width="6" height="8"/>
<path d="M30.0618 70.2282L32.8486 75.62C32.597 75.7112 32.3401 75.7868 32.0794 75.8463L29.2993 70.4568C29.5598 70.3962 29.8166 70.3206 30.0686 70.2305"/>
</mask>
<path d="M30.0618 70.2282L32.8486 75.62C32.597 75.7112 32.3401 75.7868 32.0794 75.8463L29.2993 70.4568C29.5598 70.3962 29.8166 70.3206 30.0686 70.2305" fill="#23252C"/>
<path d="M32.8486 75.62L33.019 76.09L33.5541 75.896L33.2928 75.3904L32.8486 75.62ZM32.0794 75.8463L31.635 76.0755L31.8127 76.4201L32.1907 76.3338L32.0794 75.8463ZM29.2993 70.4568L29.186 69.9699L28.5606 70.1154L28.855 70.686L29.2993 70.4568ZM29.6176 70.4578L32.4044 75.8495L33.2928 75.3904L30.506 69.9986L29.6176 70.4578ZM32.6782 75.1499C32.4459 75.2341 32.2088 75.3039 31.968 75.3589L32.1907 76.3338C32.4715 76.2696 32.7481 76.1882 33.019 76.09L32.6782 75.1499ZM32.5237 75.6171L29.7437 70.2276L28.855 70.686L31.635 76.0755L32.5237 75.6171ZM29.4127 70.9438C29.6918 70.8788 29.9671 70.7978 30.237 70.7012L29.9001 69.7597C29.6662 69.8434 29.4278 69.9136 29.186 69.9699L29.4127 70.9438Z" fill="#6F7380" mask="url(#path-119-outside-46_509_2784)"/>
<mask id="path-121-outside-47_509_2784" maskUnits="userSpaceOnUse" x="22.8254" y="67.2635" width="10" height="10" fill="black">
<rect fill="white" x="22.8254" y="67.2635" width="10" height="10"/>
<path d="M29.2924 70.4569L32.072 75.8463C31.3914 76.0078 30.6871 76.0424 29.9941 75.9482C28.4311 75.7219 27.2212 74.8594 26.605 73.662L23.8254 68.2635C24.4416 69.4609 25.6538 70.3301 27.2167 70.5497C27.9089 70.6434 28.6122 70.6097 29.2924 70.4501"/>
</mask>
<path d="M29.2924 70.4569L32.072 75.8463C31.3914 76.0078 30.6871 76.0424 29.9941 75.9482C28.4311 75.7219 27.2212 74.8594 26.605 73.662L23.8254 68.2635C24.4416 69.4609 25.6538 70.3301 27.2167 70.5497C27.9089 70.6434 28.6122 70.6097 29.2924 70.4501" fill="#23252C"/>
<path d="M32.072 75.8463L32.1874 76.3328L32.8094 76.1853L32.5164 75.6172L32.072 75.8463ZM29.9941 75.9482L29.9224 76.4431L29.9267 76.4437L29.9941 75.9482ZM26.605 73.662L27.0496 73.4332L27.0496 73.4331L26.605 73.662ZM23.8254 68.2635L24.27 68.0346L23.3809 68.4923L23.8254 68.2635ZM27.2167 70.5497L27.1472 71.0448L27.1496 71.0451L27.2167 70.5497ZM28.848 70.686L31.6276 76.0755L32.5164 75.6172L29.7368 70.2277L28.848 70.686ZM31.9566 75.3599C31.3358 75.5072 30.6934 75.5386 30.0614 75.4528L29.9267 76.4437C30.6807 76.5461 31.447 76.5085 32.1874 76.3328L31.9566 75.3599ZM30.0657 75.4534C28.6482 75.2481 27.5853 74.4742 27.0496 73.4332L26.1604 73.8908C26.8571 75.2446 28.214 76.1956 29.9224 76.443L30.0657 75.4534ZM27.0496 73.4331L24.27 68.0346L23.3809 68.4924L26.1605 73.8909L27.0496 73.4331ZM23.3809 68.4923C24.077 69.8451 25.4359 70.8044 27.1472 71.0448L27.2863 70.0545C25.8716 69.8558 24.8063 69.0767 24.27 68.0347L23.3809 68.4923ZM27.1496 71.0451C27.9023 71.1471 28.6671 71.1104 29.4066 70.9368L29.1782 69.9633C28.5574 70.1089 27.9155 70.1397 27.2838 70.0542L27.1496 71.0451Z" fill="#6F7380" mask="url(#path-121-outside-47_509_2784)"/>
<path d="M65.3527 37.676L48.0147 11.0269L42.3953 29.0036C43.7143 29.9625 44.2898 31.5576 43.77 33.2898L48.9391 36.7526C49.9228 36.2605 51.0308 36.0727 52.1227 36.215M65.3527 37.676L52.0913 36.463M65.3527 37.676L55.3334 38.4906M52.1227 36.215C52.123 36.2151 52.1233 36.2151 52.1237 36.2151L52.0913 36.463M52.1227 36.215C52.1224 36.215 52.1221 36.2149 52.1218 36.2149L52.0913 36.463M52.1227 36.215C52.8327 36.3023 53.5082 36.5725 54.0839 36.9993C54.6122 37.3909 55.04 37.9022 55.3334 38.4906M52.0913 36.463C52.7587 36.545 53.3937 36.7988 53.935 37.2001C54.4763 37.6014 54.9056 38.1366 55.1813 38.7537M55.3334 38.4906L55.161 38.5046L55.1813 38.7537M55.3334 38.4906C55.3598 38.5437 55.3852 38.5974 55.4095 38.6518L55.1813 38.7537M68.3087 45.3343L68.311 45.3347C71.2926 45.7566 74.381 43.7983 75.2436 41.0398C75.6775 39.6522 75.4746 38.2972 74.7753 37.2344C74.0765 36.1726 72.8936 35.4193 71.398 35.2084C70.6837 35.1022 69.9563 35.1357 69.2557 35.3064L51.8426 8.53612C52.2765 7.98649 52.6142 7.36596 52.8407 6.70116L52.8408 6.70118L52.8426 6.6953C53.7372 3.84089 51.957 1.21871 49.016 0.804665C46.1024 0.394482 42.9515 2.34026 42.0869 5.09627C41.8683 5.73578 41.802 6.4172 41.8924 7.08575L9.8184 26.8984C9.23096 26.5532 8.58301 26.3235 7.90912 26.2223L7.90702 26.222C4.92541 25.8 1.83712 27.7583 0.974505 30.5168C0.101277 33.3093 1.8547 35.9922 4.80015 36.4071C5.51418 36.5141 6.24141 36.4813 6.94203 36.3112L24.3551 63.0814C23.9203 63.6305 23.5832 64.2517 23.3591 64.9175L23.359 64.9175L23.3574 64.9225C22.4628 67.7797 24.2414 70.3896 27.181 70.813C30.096 71.2328 33.2468 69.2766 34.1132 66.5191C34.3294 65.883 34.3955 65.2058 34.3072 64.5411L66.4 44.6583C66.9875 45.0029 67.6351 45.2325 68.3087 45.3343ZM12.0127 30.1878L43.8176 10.4845L38.2132 28.3779C36.4941 28.8901 34.9209 30.2311 34.3822 31.9329L27.4907 33.7349C26.814 32.9807 25.8857 32.4986 24.8783 32.3826C24.0948 32.2855 23.2999 32.3532 22.5437 32.5814C21.8358 32.795 21.1764 33.1449 20.602 33.6111L12.0127 30.1878ZM37.7249 37.12L37.7249 37.1202L37.733 37.1211C38.7895 37.2429 39.8582 37.0744 40.8257 36.6348L46.0542 40.2315C45.9283 40.672 45.8799 41.1318 45.9117 41.5901C45.9441 42.0547 46.0583 42.5095 46.2488 42.9331L30.4699 60.7141L30.2715 60.6866L30.2713 60.6866L30.0625 60.6574L26.4488 40.1656C27.277 39.544 27.9048 38.6903 28.2533 37.7116L35.2426 35.8576C35.9114 36.5363 36.782 36.9802 37.7249 37.12ZM24.5468 55.1806L11.1383 34.4851L18.6329 37.4827C18.6516 39.4165 19.96 41.0012 22.0966 41.3499L24.5468 55.1806Z" fill="#23252C" stroke="#6F7380" stroke-width="0.5"/>
</svg>
