<svg width="110" height="80" viewBox="0 0 110 80" fill="none" xmlns="http://www.w3.org/2000/svg">
<path d="M52.9621 41.387C52.9621 41.387 77.8686 35.0478 84.3471 36.9541C90.8255 38.8604 93.0552 40.5425 94.2689 40.753C95.4825 40.9636 106.014 37.8099 109.466 45.1882C109.466 45.1882 111.694 52.5778 104.809 54.6969C104.809 54.6969 99.1407 56.5964 93.268 54.063C93.268 54.063 86.9914 51.5296 81.11 59.7637C75.2286 67.9979 71.5942 74.9664 67.543 76.0237C63.4918 77.081 53.9782 81.301 48.9152 79.1933L36.5618 77.9164C36.5618 77.9164 33.5223 77.2824 32.1068 75.8041C32.1068 75.8041 29.2714 75.383 27.4499 73.9046C25.6283 72.4262 21.3709 71.3712 20.3635 70.9478C19.3561 70.5244 16.7183 67.57 16.7183 67.57C16.7183 67.57 12.2632 62.7137 11.4534 62.5032C10.6436 62.2926 6.18857 59.5464 4.36704 53.8457C2.54552 48.145 -1.0997 40.753 0.721823 38.8536C2.54335 36.9541 7.20029 35.684 8.82208 38.0091C10.0026 39.7724 11.0841 41.6055 12.0613 43.4993C12.0613 43.4993 18.1403 42.2314 19.5537 46.0327C19.5537 46.0327 22.185 48.7766 22.5932 50.0444L23.3531 50.9115C23.3531 50.9115 27.0439 46.61 32.5041 51.3757L33.62 52.4239C33.62 52.4239 45.1875 42.9197 52.9621 41.387Z" fill="#23252C"/>
<path d="M52.3326 79.997C51.1495 80.0276 49.9713 79.8272 48.8589 79.4061L36.5402 78.1428C36.3948 78.1133 33.4704 77.4885 32.0049 76.0169C31.5403 75.9399 29.024 75.4667 27.3176 74.0834C25.9823 73.0012 23.2251 72.1228 21.5772 71.593C20.9997 71.4097 20.5438 71.2625 20.2746 71.1538C19.2281 70.7169 16.6598 67.8416 16.5512 67.7194C14.8469 65.8629 11.9377 62.8586 11.3928 62.7182C10.7914 62.5597 6.08448 59.9607 4.15223 53.9113C3.68328 52.4443 3.08189 50.8391 2.50222 49.286C0.765361 44.6154 -0.891165 40.2029 0.548254 38.6883C1.8509 37.3299 4.41927 36.3813 6.38192 36.542C7.5391 36.6348 8.43575 37.0967 8.97635 37.871C10.1339 39.5963 11.1958 41.3893 12.157 43.2411C13.1874 43.0673 14.2341 43.0232 15.2746 43.1098C17.5608 43.3227 19.0957 44.2894 19.7188 45.9013C20.0314 46.2296 22.3241 48.6657 22.7583 49.9222L23.3315 50.5742C24.7774 49.0709 28.3401 47.4635 32.6193 51.1991L33.6071 52.125C34.9706 51.027 45.6262 42.5982 52.8949 41.1605C53.112 41.1062 59.2931 39.5441 66.1645 38.231C75.5348 36.4379 81.6659 35.933 84.3863 36.7299C87.1621 37.5223 89.8712 38.5498 92.4866 39.8022C93.3224 40.1961 93.876 40.4542 94.2842 40.5266C94.753 40.5223 95.2206 40.4776 95.6824 40.3931C98.9911 39.9403 106.737 38.8762 109.629 45.084L109.642 45.1157C109.684 45.2561 110.665 48.6 109.189 51.4866C108.348 53.1257 106.887 54.2736 104.846 54.9029C104.794 54.9211 99.0388 56.7979 93.1618 54.26C93.1053 54.2373 86.9655 51.8986 81.2708 59.8882C79.8705 61.8511 78.6221 63.7053 77.415 65.4984C73.5418 71.2512 70.7433 75.4056 67.5822 76.232C66.7138 76.4584 65.5848 76.8319 64.2822 77.2666C60.6977 78.4688 56.1016 79.997 52.3326 79.997ZM5.94988 36.9812C4.1696 36.9812 2.02024 37.828 0.882601 39.0188C-0.370106 40.3229 1.30379 44.801 2.92123 49.1298C3.50525 50.6874 4.10664 52.2994 4.57993 53.7777C6.30593 59.1796 10.5764 62.0435 11.5122 62.2881C12.3415 62.5145 16.13 66.5896 16.8812 67.4183C17.6324 68.2469 19.6493 70.3999 20.4439 70.7373C20.6871 70.8414 21.1365 70.984 21.7053 71.1651C23.4878 71.7334 26.1843 72.5915 27.5824 73.7257C29.3366 75.1475 32.1091 75.5777 32.1417 75.5799H32.2133L32.2654 75.6343C33.6202 77.047 36.5793 77.6718 36.6076 77.6832L48.9675 78.9487L48.9957 78.9623C52.8862 80.5833 59.6752 78.3239 64.1671 76.8274C65.4698 76.3927 66.6052 76.0169 67.491 75.7859C70.4958 75.0026 73.3985 70.6897 77.0741 65.2312C78.2834 63.4359 79.534 61.5772 80.9365 59.612C86.8396 51.3326 93.2747 53.8072 93.3376 53.8343C99.0757 56.3089 104.679 54.4818 104.736 54.4637C106.672 53.8683 108.047 52.7952 108.828 51.267C110.172 48.6408 109.325 45.5051 109.262 45.2584C106.501 39.372 98.9824 40.3931 95.7692 40.8345C95.0006 40.9387 94.4926 41.0089 94.2495 40.9658C93.7849 40.8843 93.2117 40.6149 92.3454 40.2074C89.7529 38.9626 87.0661 37.9433 84.3125 37.1601C77.9621 35.2968 53.2879 41.5318 53.0382 41.5952C45.4047 43.1008 33.9024 52.4941 33.7873 52.5869L33.644 52.7069L32.3913 51.5319C30.1964 49.6143 28.0492 48.9487 25.991 49.5531C25.0676 49.8264 24.2262 50.3407 23.5464 51.0474L23.3879 51.233L22.4326 50.1486L22.4196 50.1033C22.0353 48.9011 19.4604 46.207 19.4344 46.1798L19.4018 46.1458L19.3845 46.1006C18.0514 42.5212 12.1982 43.6939 12.1374 43.7075L11.9811 43.7392L11.9051 43.5921C10.931 41.7086 9.85457 39.8846 8.68108 38.1291C8.09489 37.2891 7.11791 37.0424 6.40146 36.9835C6.22994 36.9858 6.08883 36.9812 5.94988 36.9812Z" fill="#6F7380"/>
<path d="M62.4604 77.8417C59.8551 77.1761 57.6232 76.6667 56.77 76.5444C55.3805 76.3452 51.9242 75.6864 49.84 73.8276C48.3788 72.5326 45.4804 68.7156 44.0888 66.8817C43.7284 66.4063 43.4679 66.0644 43.3593 65.9309C42.7406 65.1792 42.1956 63.6329 41.9503 62.5145L41.9199 62.3809C41.655 61.1946 41.325 59.7185 42.137 57.8213C42.9859 55.8516 45.1179 54.5679 46.6962 54.4638C47.0517 54.4347 47.4049 54.381 47.7536 54.303C48.7522 54.1061 49.6967 53.9181 50.8473 54.8917C51.2989 55.2743 51.9937 55.7474 52.8013 56.2931C54.5381 57.4635 56.6745 58.9215 57.4474 60.2641C58.4048 61.9304 61.5724 61.0882 61.8243 61.0203C62.4183 60.7378 63.0351 60.5105 63.6675 60.3411C63.813 60.3094 63.9997 60.2573 64.219 60.1962C65.2394 59.9154 66.948 59.4468 68.0487 59.7751L67.9315 60.2098C66.9436 59.9154 65.3067 60.366 64.3297 60.6354C64.1126 60.6965 63.9107 60.7486 63.763 60.7848C63.1542 60.9468 62.56 61.1634 61.9871 61.4323H61.9567C61.8047 61.4776 58.2355 62.5009 57.074 60.4769C56.3532 59.2249 54.2516 57.7986 52.5646 56.6553C51.7483 56.1006 51.0449 55.6229 50.5759 55.2267C49.5816 54.3845 48.774 54.5475 47.8382 54.7309C47.4707 54.811 47.0987 54.8669 46.7245 54.8985C45.3154 54.9913 43.3159 56.198 42.543 57.9888C41.7701 59.7796 42.0827 61.0814 42.3476 62.2609L42.3758 62.3945C42.6624 63.6986 43.2052 65.023 43.6937 65.6184C43.8087 65.7588 44.0714 66.1052 44.434 66.5829C45.817 68.3941 48.6958 72.1976 50.1265 73.4654C52.1217 75.2358 55.4826 75.8765 56.8351 76.069C57.8859 76.2184 60.4847 76.841 62.5689 77.3753L62.4604 77.8417Z" fill="#6F7380"/>
<path d="M54.2387 66.7165H53.8045C53.797 66.5897 53.8256 66.4634 53.8866 66.3534C53.9476 66.2435 54.0384 66.1548 54.1476 66.0984L54.1866 66.0758C54.1345 65.6773 52.4823 63.5469 51.7702 62.6254C50.2505 60.6761 48.2162 60.0807 45.6912 60.8595C44.4666 61.2619 43.3146 61.874 42.2827 62.6707L42.0156 62.3153C42.0764 62.2632 48.2162 57.3345 52.1002 62.3515C54.4385 65.3694 54.6664 65.8561 54.6078 66.1867C54.5911 66.2519 54.5605 66.3124 54.5185 66.3637C54.4764 66.415 54.4238 66.4559 54.3647 66.4833C54.2778 66.5376 54.2387 66.5512 54.2387 66.7165Z" fill="#6F7380"/>
<path d="M31.9398 75.949C30.2029 73.762 28.5594 71.421 27.2329 69.5283C26.612 68.6453 26.0757 67.8824 25.6241 67.2643C24.1912 65.3105 20.8825 58.308 20.7414 58.0114L20.7132 57.948C20.6915 57.862 20.6719 57.7759 20.6524 57.6922C19.6255 53.0533 23.199 50.7485 23.2338 50.7259L23.4509 51.1153C22.453 51.7981 21.6857 52.7902 21.2572 53.9519C20.8288 55.1136 20.7607 56.3862 21.0627 57.5903C21.0801 57.6741 21.1018 57.751 21.1213 57.8325C21.3232 58.2604 24.5798 65.1203 25.9476 66.9881C26.4035 67.6084 26.942 68.3737 27.5629 69.2521C28.8851 71.1335 30.5308 73.4744 32.2546 75.6501L31.9398 75.949Z" fill="#6F7380"/>
<path d="M40.7238 64.2125C39.0998 59.5826 33.5093 52.639 33.4529 52.5688L33.7851 52.2767C33.8415 52.3469 39.4819 59.3517 41.132 64.0495L40.7238 64.2125Z" fill="#6F7380"/>
<path d="M29.8468 65.4984L29.6992 65.0728L31.2819 64.4864C31.2949 64.4864 32.5324 64.26 33.1338 63.4223C33.6766 62.6684 33.0274 61.6247 31.9549 59.8996L31.7986 59.6483C29.5971 56.0983 26.892 55.4395 24.7839 55.2607C23.047 55.1135 21.79 55.9398 21.0692 57.7216L20.6697 57.545C21.219 56.1866 22.3848 54.6018 24.8186 54.8079C29.024 55.1656 30.9519 57.4499 32.1633 59.4037L32.3196 59.6528C33.4551 61.4798 34.2063 62.6865 33.4812 63.694C32.8125 64.6245 31.5554 64.8962 31.3752 64.9301L29.8468 65.4984Z" fill="#6F7380"/>
<path d="M17.0941 68.2967L9.072 52.3809C8.37943 51.0565 8.10153 49.7479 8.24916 48.4936C8.63779 45.1678 11.8249 43.3748 11.9595 43.3L12.1636 43.6985C12.131 43.7166 9.04161 45.4599 8.67904 48.548C8.54443 49.7071 8.80496 50.9229 9.45628 52.1703L17.4892 68.0907L17.0941 68.2967Z" fill="#6F7380"/>
<path d="M16.063 57.4726V57.0198C16.0761 57.0198 17.4221 57.0198 18.1646 56.4312C18.7443 55.9784 18.5793 55.3309 17.8542 52.9311L17.5806 52.0255C16.8316 49.5011 14.7582 47.7012 11.4365 46.6734C10.4942 46.3813 9.55852 47.0424 8.65101 48.6363L8.27759 48.4099C9.30016 46.6168 10.4031 45.8878 11.5581 46.2432C15.0318 47.3164 17.2029 49.2181 17.9953 51.9032C18.093 52.2292 18.1842 52.5303 18.2688 52.8088C19.0005 55.2335 19.2741 56.1414 18.4252 56.807C17.5763 57.4726 16.1238 57.4726 16.063 57.4726Z" fill="#6F7380"/>
<path d="M8.16231 45.1044L7.72809 45.0546C7.81711 44.2169 7.07677 41.7356 4.85143 39.5305C4.01122 38.6951 2.7216 38.4551 1.02166 38.8241L0.934814 38.3713C2.7824 37.9729 4.20228 38.2491 5.15104 39.1954C7.40026 41.4368 8.27737 44.0449 8.16231 45.1044Z" fill="#6F7380"/>
<path d="M108.596 52.0866C107.801 48.7676 108.464 46.5511 109.423 45.1203" stroke="#6F7380" stroke-width="0.25" stroke-miterlimit="10"/>
<path d="M107.575 53.2163C106.409 48.7789 107.534 45.8448 108.832 44.0743" stroke="#6F7380" stroke-width="0.25" stroke-miterlimit="10"/>
<path d="M106.471 53.9883C105.109 48.7811 106.618 45.2108 108.114 43.1438" stroke="#6F7380" stroke-width="0.25" stroke-miterlimit="10"/>
<path d="M105.294 54.5226C103.885 48.8038 105.646 44.6901 107.248 42.3378" stroke="#6F7380" stroke-width="0.25" stroke-miterlimit="10"/>
<path d="M104.082 54.8871C102.734 48.8694 104.612 44.3052 106.277 41.6677" stroke="#6F7380" stroke-width="0.25" stroke-miterlimit="10"/>
<path d="M102.864 55.1316C101.638 48.9713 103.526 44.063 105.213 41.1402" stroke="#6F7380" stroke-width="0.25" stroke-miterlimit="10"/>
<path d="M101.633 55.2901C100.569 49.0936 102.393 43.943 104.075 40.7485" stroke="#6F7380" stroke-width="0.25" stroke-miterlimit="10"/>
<path d="M100.409 55.367C99.5145 49.2158 101.234 43.9181 102.89 40.4813" stroke="#6F7380" stroke-width="0.25" stroke-miterlimit="10"/>
<path d="M99.184 55.3603C98.4698 49.3154 100.052 43.9634 101.674 40.3251" stroke="#6F7380" stroke-width="0.25" stroke-miterlimit="10"/>
<path d="M97.9706 55.2743C97.43 49.3879 98.8889 44.0517 100.439 40.2595" stroke="#6F7380" stroke-width="0.25" stroke-miterlimit="10"/>
<path d="M42.6926 45.9965C47.5775 44.5747 55.9079 42.3537 59.1559 42.7046C63.8779 43.214 63.0638 43.0442 69.2513 41.8556C75.4389 40.667 77.5535 39.1388 82.1127 40.4972C85.5864 41.5319 89.9134 40.7915 91.9173 39.7795" stroke="#6F7380" stroke-width="0.25" stroke-miterlimit="10"/>
<path d="M44.4084 44.9776C49.2543 43.6011 56.4405 41.7696 59.3888 42.0865C64.0089 42.5869 63.2121 42.4193 69.2672 41.2579C75.3223 40.0965 77.3913 38.5977 81.8594 39.9267C85.0639 40.8821 89.0066 40.2957 91.093 39.3947" stroke="#6F7380" stroke-width="0.25" stroke-miterlimit="10"/>
<path d="M46.386 43.8977C51.0125 42.6254 56.9982 41.181 59.5948 41.4707C64.1128 41.9575 63.3355 41.7945 69.256 40.658C75.1765 39.5215 77.2043 38.0589 81.566 39.3585C84.4948 40.2301 88.0553 39.7841 90.1743 39.003" stroke="#6F7380" stroke-width="0.25" stroke-miterlimit="10"/>
<path d="M48.9915 42.6707C53.0904 41.6043 57.6519 40.6331 59.8121 40.8595C64.2302 41.3372 63.4682 41.1787 69.2562 40.0648C75.0443 38.9509 77.0265 37.5246 81.2926 38.7947C83.937 39.5826 87.1111 39.2701 89.2105 38.6181" stroke="#6F7380" stroke-width="0.25" stroke-miterlimit="10"/>
<path d="M57.1873 40.3704C58.1244 40.2206 59.0742 40.1758 60.0205 40.2369C64.3388 40.701 63.5941 40.547 69.2497 39.4603C74.9054 38.3736 76.8485 36.9699 81.0104 38.2174C83.3595 38.917 86.1298 38.7313 88.1576 38.2174" stroke="#6F7380" stroke-width="0.25" stroke-miterlimit="10"/>
<path d="M60.4587 39.6414C64.447 40.0693 63.8326 39.9041 69.2668 38.8604C74.79 37.8008 76.681 36.4356 80.7496 37.6491C82.7795 38.2536 85.1351 38.1789 87.0239 37.8031" stroke="#6F7380" stroke-width="0.25" stroke-miterlimit="10"/>
<path d="M85.7259 37.3752C84.0629 37.6016 82.1567 37.5789 80.4785 37.0786C79.8811 36.8953 79.2705 36.7628 78.6526 36.6824V36.6824" stroke="#6F7380" stroke-width="0.25" stroke-miterlimit="10"/>
<path d="M73.9042 37.1782C72.6363 37.4929 71.1774 37.8959 69.2755 38.2604C65.0137 39.0777 64.5643 39.3426 62.5278 39.2" stroke="#6F7380" stroke-width="0.25" stroke-miterlimit="10"/>
<path d="M80.552 36.6031C81.7435 36.8887 82.9685 36.9924 84.1885 36.911" stroke="#6F7380" stroke-width="0.25" stroke-miterlimit="10"/>
<path d="M22.0636 13.9013L27.8131 14.2484L30.2826 18.4261L24.533 18.0791L22.0636 13.9013Z" fill="#23252C" stroke="#6F7380" stroke-width="0.5"/>
<path d="M19.6339 23.6917L26.4597 24.1041L28.9299 28.2819L22.1033 27.8695L19.6339 23.6917Z" fill="#23252C" stroke="#6F7380" stroke-width="0.5"/>
<path d="M59.0352 9.11853L59.0353 9.11867L60.0723 10.8734C57.9725 8.93103 55.1265 7.69411 51.7806 7.49458L51.78 7.49455C50.1905 7.40379 48.597 7.53889 47.0427 7.8959L44.5336 3.65109C45.9926 3.33083 47.4854 3.21152 48.9745 3.29651C53.5211 3.57158 57.0853 5.81421 59.0352 9.11853Z" fill="#23252C" stroke="#6F7380" stroke-width="0.5"/>
<mask id="path-33-inside-1_1033_5307" fill="white">
<path d="M44.1451 3.48419L46.9216 8.1814C46.2265 8.34731 45.5409 8.55425 44.868 8.80122L42.0916 4.10402C42.7644 3.85692 43.45 3.64998 44.1451 3.48419Z"/>
</mask>
<path d="M44.1451 3.48419L46.9216 8.1814C46.2265 8.34731 45.5409 8.55425 44.868 8.80122L42.0916 4.10402C42.7644 3.85692 43.45 3.64998 44.1451 3.48419Z" fill="#23252C"/>
<path d="M46.9216 8.1814L47.0377 8.66773L47.6969 8.51039L47.352 7.92697L46.9216 8.1814ZM44.868 8.80122L44.4376 9.05565L44.6495 9.41406L45.0403 9.2706L44.868 8.80122ZM42.0916 4.10402L41.9192 3.63467L41.3556 3.84163L41.6611 4.35844L42.0916 4.10402ZM43.7147 3.73862L46.4912 8.43582L47.352 7.92697L44.5755 3.22977L43.7147 3.73862ZM46.8055 7.69506C46.0913 7.86553 45.387 8.07814 44.6958 8.33184L45.0403 9.2706C45.6949 9.03035 46.3617 8.82909 47.0377 8.66773L46.8055 7.69506ZM45.2985 8.5468L42.522 3.84959L41.6611 4.35844L44.4376 9.05565L45.2985 8.5468ZM42.2639 4.57337C42.9184 4.33302 43.5852 4.13176 44.2611 3.97055L44.0291 2.99783C43.3148 3.16819 42.6104 3.38082 41.9192 3.63467L42.2639 4.57337Z" fill="#6F7380" mask="url(#path-33-inside-1_1033_5307)"/>
<path d="M40.7988 4.90986C41.1886 4.73126 41.5831 4.56537 41.9823 4.4122L44.5004 8.67217C44.1014 8.82576 43.7066 8.9927 43.319 9.17338L40.7988 4.90986Z" fill="#23252C" stroke="#6F7380" stroke-width="0.5"/>
<path d="M39.3614 5.64195C39.6831 5.46002 40.01 5.28764 40.3421 5.12482L42.8636 9.39061C42.5327 9.55409 42.2061 9.72687 41.8836 9.90895L39.3614 5.64195Z" fill="#23252C" stroke="#6F7380" stroke-width="0.5"/>
<mask id="path-37-inside-2_1033_5307" fill="white">
<path d="M39.0176 5.55121L41.7904 10.2484C41.3475 10.5047 40.9146 10.7795 40.4918 11.0729L37.7153 6.37572C38.1375 6.08358 38.5704 5.80875 39.0139 5.55121"/>
</mask>
<path d="M39.0176 5.55121L41.7904 10.2484C41.3475 10.5047 40.9146 10.7795 40.4918 11.0729L37.7153 6.37572C38.1375 6.08358 38.5704 5.80875 39.0139 5.55121" fill="#23252C"/>
<path d="M41.7904 10.2484L42.0408 10.6812L42.4774 10.4286L42.221 9.99424L41.7904 10.2484ZM40.4918 11.0729L40.0614 11.3273L40.3351 11.7903L40.7769 11.4837L40.4918 11.0729ZM37.7153 6.37572L37.4308 5.96456L37.048 6.22943L37.2849 6.63014L37.7153 6.37572ZM38.587 5.80538L41.3598 10.5026L42.221 9.99424L39.4481 5.29703L38.587 5.80538ZM41.54 9.81563C41.0851 10.0788 40.6407 10.361 40.2067 10.6622L40.7769 11.4837C41.1885 11.198 41.6098 10.9306 42.0408 10.6812L41.54 9.81563ZM40.9223 10.8185L38.1458 6.12129L37.2849 6.63014L40.0614 11.3273L40.9223 10.8185ZM37.9998 6.78688C38.4112 6.50225 38.8329 6.2345 39.265 5.9836L38.7628 5.11882C38.3079 5.38299 37.8639 5.66491 37.4308 5.96456L37.9998 6.78688Z" fill="#6F7380" mask="url(#path-37-inside-2_1033_5307)"/>
<path d="M36.8288 7.34116C37.094 7.13056 37.3645 6.92825 37.6402 6.73424L40.162 11.0006C39.8865 11.1952 39.6155 11.3967 39.3492 11.6051L36.8288 7.34116Z" fill="#23252C" stroke="#6F7380" stroke-width="0.5"/>
<path d="M35.6646 8.33511C35.9161 8.10367 36.1735 7.87861 36.4367 7.65992L38.9554 11.9211C38.6919 12.138 38.4337 12.3618 38.1809 12.5922L35.6646 8.33511Z" fill="#23252C" stroke="#6F7380" stroke-width="0.5"/>
<path d="M34.535 9.46283C34.7799 9.19747 35.0321 8.93895 35.2916 8.68726L37.8067 12.9423C37.5465 13.1924 37.293 13.4491 37.0463 13.7123L34.535 9.46283Z" fill="#23252C" stroke="#6F7380" stroke-width="0.5"/>
<mask id="path-42-inside-3_1033_5307" fill="white">
<path d="M34.2257 9.4306L37.0022 14.1288C36.6062 14.565 36.2307 15.0186 35.8757 15.4895L33.0964 10.7923C33.4515 10.3221 33.8273 9.86816 34.2239 9.4306"/>
</mask>
<path d="M34.2257 9.4306L37.0022 14.1288C36.6062 14.565 36.2307 15.0186 35.8757 15.4895L33.0964 10.7923C33.4515 10.3221 33.8273 9.86816 34.2239 9.4306" fill="#23252C"/>
<path d="M37.0022 14.1288L37.3724 14.4648L37.6202 14.1918L37.4326 13.8744L37.0022 14.1288ZM35.8757 15.4895L35.4454 15.7441L35.8255 16.3865L36.2749 15.7905L35.8757 15.4895ZM33.0964 10.7923L32.6974 10.491L32.4955 10.7585L32.6661 11.0469L33.0964 10.7923ZM33.7952 9.68499L36.5717 14.3832L37.4326 13.8744L34.6562 9.17622L33.7952 9.68499ZM36.6319 13.7927C36.2258 14.2403 35.8406 14.7055 35.4765 15.1885L36.2749 15.7905C36.6208 15.3317 36.9867 14.8898 37.3724 14.4648L36.6319 13.7927ZM36.306 15.2349L33.5268 10.5377L32.6661 11.0469L35.4454 15.7441L36.306 15.2349ZM33.4955 11.0936C33.8415 10.6353 34.2078 10.1929 34.5944 9.76637L33.8534 9.09484C33.4468 9.54343 33.0615 10.0088 32.6974 10.491L33.4955 11.0936Z" fill="#6F7380" mask="url(#path-42-inside-3_1033_5307)"/>
<path d="M32.2362 12.5114C32.4986 12.0772 32.778 11.6546 33.0737 11.2448L35.5739 15.4732C35.2744 15.8773 34.9906 16.2938 34.7233 16.7218L32.2362 12.5114Z" fill="#23252C" stroke="#6F7380" stroke-width="0.5"/>
<mask id="path-45-inside-4_1033_5307" fill="white">
<path d="M31.9455 12.5106L34.722 17.2078C34.133 18.1952 33.6403 19.2425 33.2513 20.3338L30.4749 15.6366C30.8632 14.5451 31.356 13.4977 31.9455 12.5106Z"/>
</mask>
<path d="M31.9455 12.5106L34.722 17.2078C34.133 18.1952 33.6403 19.2425 33.2513 20.3338L30.4749 15.6366C30.8632 14.5451 31.356 13.4977 31.9455 12.5106Z" fill="#23252C"/>
<path d="M34.722 17.2078L35.1514 17.4639L35.3035 17.2089L35.1524 16.9533L34.722 17.2078ZM33.2513 20.3338L32.8209 20.5882L33.364 21.507L33.7223 20.5017L33.2513 20.3338ZM30.4749 15.6366L30.0038 15.469L29.9253 15.6895L30.0444 15.891L30.4749 15.6366ZM31.515 12.765L34.2915 17.4622L35.1524 16.9533L32.3759 12.2561L31.515 12.765ZM34.2925 16.9516C33.6867 17.9673 33.1802 19.0442 32.7804 20.1659L33.7223 20.5017C34.1004 19.4409 34.5792 18.4232 35.1514 17.4639L34.2925 16.9516ZM33.6818 20.0794L30.9053 15.3822L30.0444 15.891L32.8209 20.5882L33.6818 20.0794ZM30.9459 15.8042C31.3234 14.7433 31.8022 13.7257 32.3747 12.7669L31.5162 12.2542C30.9097 13.2697 30.4031 14.3468 30.0038 15.469L30.9459 15.8042Z" fill="#6F7380" mask="url(#path-45-inside-4_1033_5307)"/>
<mask id="path-47-inside-5_1033_5307" fill="white">
<path d="M30.4746 15.6366L33.2511 20.3338C33.0708 20.8426 32.915 21.3605 32.7843 21.8858C32.6392 22.4676 32.5276 23.058 32.4503 23.6539L29.6738 18.9567C29.7511 18.3608 29.8626 17.7703 30.0078 17.1886C30.1381 16.6632 30.2938 16.1452 30.4746 15.6366Z"/>
</mask>
<path d="M30.4746 15.6366L33.2511 20.3338C33.0708 20.8426 32.915 21.3605 32.7843 21.8858C32.6392 22.4676 32.5276 23.058 32.4503 23.6539L29.6738 18.9567C29.7511 18.3608 29.8626 17.7703 30.0078 17.1886C30.1381 16.6632 30.2938 16.1452 30.4746 15.6366Z" fill="#23252C"/>
<path d="M33.2511 20.3338L33.7223 20.5008L33.8004 20.2806L33.6815 20.0794L33.2511 20.3338ZM32.7843 21.8858L33.2695 22.0068L33.2696 22.0065L32.7843 21.8858ZM32.4503 23.6539L32.0199 23.9084L32.7592 25.1591L32.9462 23.7183L32.4503 23.6539ZM29.6738 18.9567L29.178 18.8925L29.1559 19.0631L29.2434 19.2112L29.6738 18.9567ZM30.0078 17.1886L30.493 17.3097L30.4932 17.3089L30.0078 17.1886ZM30.0441 15.891L32.8206 20.5882L33.6815 20.0794L30.905 15.3822L30.0441 15.891ZM32.7798 20.1668C32.5941 20.6908 32.4337 21.2242 32.2991 21.7651L33.2696 22.0065C33.3963 21.4968 33.5474 20.9943 33.7223 20.5008L32.7798 20.1668ZM32.2992 21.7647C32.1494 22.3652 32.0343 22.9746 31.9545 23.5896L32.9462 23.7183C33.021 23.1414 33.129 22.5699 33.2695 22.0068L32.2992 21.7647ZM32.8807 23.3995L30.1043 18.7023L29.2434 19.2112L32.0199 23.9084L32.8807 23.3995ZM30.1697 19.021C30.2444 18.4442 30.3524 17.8727 30.493 17.3097L29.5227 17.0675C29.3728 17.668 29.2577 18.2774 29.178 18.8925L30.1697 19.021ZM30.4932 17.3089C30.6194 16.7994 30.7705 16.2971 30.9457 15.804L30.0034 15.4692C29.8172 15.9933 29.6567 16.527 29.5225 17.0683L30.4932 17.3089Z" fill="#6F7380" mask="url(#path-47-inside-5_1033_5307)"/>
<mask id="path-49-inside-6_1033_5307" fill="white">
<path d="M29.674 18.9568L32.4505 23.654C32.3101 24.7187 32.2919 25.7973 32.3965 26.8665L29.6191 22.1683C29.5146 21.0994 29.5327 20.0212 29.6731 18.9568"/>
</mask>
<path d="M29.674 18.9568L32.4505 23.654C32.3101 24.7187 32.2919 25.7973 32.3965 26.8665L29.6191 22.1683C29.5146 21.0994 29.5327 20.0212 29.6731 18.9568" fill="#23252C"/>
<path d="M32.4505 23.654L32.9462 23.7194L32.9688 23.5482L32.8809 23.3996L32.4505 23.654ZM32.3965 26.8665L31.9661 27.1209L32.8941 26.8178L32.3965 26.8665ZM29.6191 22.1683L29.1215 22.217L29.1323 22.3273L29.1887 22.4228L29.6191 22.1683ZM29.2436 19.2112L32.0201 23.9084L32.8809 23.3996L30.1044 18.7024L29.2436 19.2112ZM31.9548 23.5886C31.8094 24.6911 31.7906 25.808 31.8989 26.9152L32.8941 26.8178C32.7933 25.7865 32.8108 24.7462 32.9462 23.7194L31.9548 23.5886ZM32.8269 26.6121L30.0495 21.9139L29.1887 22.4228L31.9661 27.1209L32.8269 26.6121ZM30.1167 22.1197C30.0159 21.0887 30.0334 20.0487 30.1688 19.0222L29.1774 18.8914C29.032 19.9936 29.0132 21.1101 29.1215 22.217L30.1167 22.1197Z" fill="#6F7380" mask="url(#path-49-inside-6_1033_5307)"/>
<mask id="path-51-inside-7_1033_5307" fill="white">
<path d="M29.6191 22.1683L32.3956 26.8664C32.4565 27.4769 32.5605 28.0817 32.7068 28.6759L29.9303 23.9787C29.784 23.3842 29.68 22.779 29.6191 22.1683Z"/>
</mask>
<path d="M29.6191 22.1683L32.3956 26.8664C32.4565 27.4769 32.5605 28.0817 32.7068 28.6759L29.9303 23.9787C29.784 23.3842 29.68 22.779 29.6191 22.1683Z" fill="#23252C"/>
<path d="M32.3956 26.8664L32.8932 26.8168L32.8822 26.707L32.8261 26.6121L32.3956 26.8664ZM32.7068 28.6759L32.2763 28.9304L33.1923 28.5564L32.7068 28.6759ZM29.9303 23.9787L29.4448 24.0982L29.4624 24.1697L29.4999 24.2332L29.9303 23.9787ZM29.1887 22.4227L31.9652 27.1208L32.8261 26.6121L30.0496 21.9139L29.1887 22.4227ZM31.8981 26.9161C31.9613 27.55 32.0693 28.1782 32.2213 28.7954L33.1923 28.5564C33.0517 27.9852 32.9517 27.4038 32.8932 26.8168L31.8981 26.9161ZM33.1372 28.4215L30.3607 23.7243L29.4999 24.2332L32.2763 28.9304L33.1372 28.4215ZM30.4158 23.8593C30.2752 23.2878 30.1752 22.7059 30.1167 22.1187L29.1216 22.2179C29.1848 22.8521 29.2928 23.4806 29.4448 24.0982L30.4158 23.8593Z" fill="#6F7380" mask="url(#path-51-inside-7_1033_5307)"/>
<mask id="path-53-inside-8_1033_5307" fill="white">
<path d="M29.9312 23.9787L32.7076 28.6759C32.8287 29.166 32.9794 29.6474 33.1588 30.1174L30.3823 25.4201C30.203 24.9502 30.0523 24.4687 29.9312 23.9787Z"/>
</mask>
<path d="M29.9312 23.9787L32.7076 28.6759C32.8287 29.166 32.9794 29.6474 33.1588 30.1174L30.3823 25.4201C30.203 24.9502 30.0523 24.4687 29.9312 23.9787Z" fill="#23252C"/>
<path d="M29.9312 23.9787L30.3616 23.7243L29.4458 24.0987L29.9312 23.9787ZM32.7076 28.6759L33.1931 28.556L33.1754 28.4847L33.1381 28.4215L32.7076 28.6759ZM33.1588 30.1174L32.7284 30.3718L33.6259 29.939L33.1588 30.1174ZM30.3823 25.4201L29.9152 25.5984L29.9303 25.638L29.9519 25.6746L30.3823 25.4201ZM29.5007 24.2331L32.2772 28.9303L33.1381 28.4215L30.3616 23.7243L29.5007 24.2331ZM32.2222 28.7958C32.3481 29.3056 32.5049 29.8066 32.6917 30.2957L33.6259 29.939C33.4538 29.4882 33.3092 29.0263 33.1931 28.556L32.2222 28.7958ZM33.5892 29.8629L30.8127 25.1657L29.9519 25.6746L32.7284 30.3718L33.5892 29.8629ZM30.8495 25.2419C30.6774 24.791 30.5328 24.329 30.4165 23.8587L29.4458 24.0987C29.5718 24.6084 29.7286 25.1093 29.9152 25.5984L30.8495 25.2419Z" fill="#6F7380" mask="url(#path-53-inside-8_1033_5307)"/>
<mask id="path-55-inside-9_1033_5307" fill="white">
<path d="M30.3821 25.4183L33.1586 30.1155C33.3185 30.537 33.5019 30.9484 33.7076 31.3474L30.9312 26.6502C30.7254 26.2512 30.542 25.8398 30.3821 25.4183Z"/>
</mask>
<path d="M30.3821 25.4183L33.1586 30.1155C33.3185 30.537 33.5019 30.9484 33.7076 31.3474L30.9312 26.6502C30.7254 26.2512 30.542 25.8398 30.3821 25.4183Z" fill="#23252C"/>
<path d="M33.1586 30.1155L33.6261 29.9381L33.6108 29.898L33.589 29.8611L33.1586 30.1155ZM33.7076 31.3474L33.2772 31.6019L34.152 31.1183L33.7076 31.3474ZM30.9312 26.6502L30.4868 26.8794L30.4934 26.8922L30.5007 26.9047L30.9312 26.6502ZM29.9517 25.6727L32.7281 30.3699L33.589 29.8611L30.8125 25.1639L29.9517 25.6727ZM32.6911 30.2928C32.8577 30.732 33.0488 31.1607 33.2633 31.5766L34.152 31.1183C33.955 30.7361 33.7793 30.3421 33.6261 29.9381L32.6911 30.2928ZM34.1381 31.093L31.3616 26.3958L30.5007 26.9047L33.2772 31.6019L34.1381 31.093ZM31.3755 26.4211C31.1785 26.0389 31.0028 25.6449 30.8496 25.2409L29.9146 25.5956C30.0812 26.0348 30.2723 26.4635 30.4868 26.8794L31.3755 26.4211Z" fill="#6F7380" mask="url(#path-55-inside-9_1033_5307)"/>
<mask id="path-57-inside-10_1033_5307" fill="white">
<path d="M30.9341 26.6503L33.7106 31.3475C33.8125 31.5397 33.9189 31.7319 34.03 31.9241L31.2535 27.2259C31.1418 27.0337 31.0347 26.8415 30.9341 26.6494"/>
</mask>
<path d="M30.9341 26.6503L33.7106 31.3475C33.8125 31.5397 33.9189 31.7319 34.03 31.9241L31.2535 27.2259C31.1418 27.0337 31.0347 26.8415 30.9341 26.6494" fill="#23252C"/>
<path d="M33.7106 31.3475L34.1523 31.1133L34.1469 31.1031L34.141 31.0931L33.7106 31.3475ZM34.03 31.9241L33.5995 32.1785L34.4629 31.674L34.03 31.9241ZM31.2535 27.2259L30.8211 27.4771L30.823 27.4803L31.2535 27.2259ZM30.5037 26.9047L33.2801 31.6019L34.141 31.0931L31.3645 26.3959L30.5037 26.9047ZM33.2688 31.5817C33.3736 31.7794 33.483 31.9769 33.597 32.1742L34.4629 31.674C34.3548 31.4869 34.2513 31.3001 34.1523 31.1133L33.2688 31.5817ZM34.4604 31.6697L31.6839 26.9715L30.823 27.4803L33.5995 32.1785L34.4604 31.6697ZM31.6858 26.9748C31.5771 26.7876 31.4737 26.6019 31.377 26.4174L30.4912 26.8813C30.5958 27.0812 30.7065 27.2798 30.8211 27.4771L31.6858 26.9748Z" fill="#6F7380" mask="url(#path-57-inside-10_1033_5307)"/>
<mask id="path-59-inside-11_1033_5307" fill="white">
<path d="M49.4514 15.3743L52.2279 20.0734C52.2621 20.1298 52.2941 20.1874 52.324 20.2464L49.5475 15.5472C49.5176 15.4877 49.4871 15.43 49.456 15.3743"/>
</mask>
<path d="M49.4514 15.3743L52.2279 20.0734C52.2621 20.1298 52.2941 20.1874 52.324 20.2464L49.5475 15.5472C49.5176 15.4877 49.4871 15.43 49.456 15.3743" fill="#23252C"/>
<path d="M52.2279 20.0734L51.7974 20.3278L51.8003 20.3325L52.2279 20.0734ZM52.324 20.2464L51.8935 20.5007L52.7699 20.0202L52.324 20.2464ZM49.5475 15.5472L49.1006 15.7715L49.1083 15.7868L49.117 15.8016L49.5475 15.5472ZM49.0209 15.6286L51.7974 20.3277L52.6584 19.819L49.8819 15.1199L49.0209 15.6286ZM51.8003 20.3325C51.8279 20.3781 51.8539 20.4248 51.8781 20.4725L52.7699 20.0202C52.7344 19.9501 52.6962 19.8814 52.6555 19.8143L51.8003 20.3325ZM52.7545 19.992L49.978 15.2929L49.117 15.8016L51.8935 20.5007L52.7545 19.992ZM49.9944 15.323C49.9614 15.2571 49.9274 15.193 49.8926 15.1305L49.0194 15.618C49.0468 15.667 49.0739 15.7182 49.1006 15.7715L49.9944 15.323Z" fill="#6F7380" mask="url(#path-59-inside-11_1033_5307)"/>
<mask id="path-61-inside-12_1033_5307" fill="white">
<path d="M49.5476 15.5472L52.3241 20.2444C52.3863 20.3639 52.4416 20.4871 52.4897 20.6135L49.7132 15.9163C49.6647 15.7901 49.6094 15.6669 49.5476 15.5472Z"/>
</mask>
<path d="M49.5476 15.5472L52.3241 20.2444C52.3863 20.3639 52.4416 20.4871 52.4897 20.6135L49.7132 15.9163C49.6647 15.7901 49.6094 15.6669 49.5476 15.5472Z" fill="#23252C"/>
<path d="M52.3241 20.2444L52.7676 20.0135L52.7614 20.0016L52.7545 19.99L52.3241 20.2444ZM52.4897 20.6135L52.0593 20.8679L52.957 20.4355L52.4897 20.6135ZM49.7132 15.9163L49.2465 16.0957L49.2615 16.1347L49.2828 16.1707L49.7132 15.9163ZM49.1172 15.8017L51.8937 20.4989L52.7545 19.99L49.978 15.2928L49.1172 15.8017ZM51.8806 20.4754C51.9338 20.5776 51.9812 20.6831 52.0225 20.7914L52.957 20.4355C52.902 20.2911 52.8387 20.1502 52.7676 20.0135L51.8806 20.4754ZM52.9202 20.359L50.1437 15.6618L49.2828 16.1707L52.0593 20.8679L52.9202 20.359ZM50.1799 15.7368C50.1249 15.5936 50.0621 15.4536 49.9918 15.3177L49.1034 15.7768C49.1568 15.8801 49.2046 15.9865 49.2465 16.0957L50.1799 15.7368Z" fill="#6F7380" mask="url(#path-61-inside-12_1033_5307)"/>
<mask id="path-63-inside-13_1033_5307" fill="white">
<path d="M49.7131 15.9163L52.4896 20.6135C52.5431 20.7543 52.5883 20.8984 52.6251 21.045L49.8477 16.3478C49.8115 16.2011 49.7666 16.057 49.7131 15.9163Z"/>
</mask>
<path d="M49.7131 15.9163L52.4896 20.6135C52.5431 20.7543 52.5883 20.8984 52.6251 21.045L49.8477 16.3478C49.8115 16.2011 49.7666 16.057 49.7131 15.9163Z" fill="#23252C"/>
<path d="M52.4896 20.6135L52.957 20.436L52.9418 20.3959L52.9201 20.3591L52.4896 20.6135ZM52.6251 21.045L52.1947 21.2995L53.1101 20.9235L52.6251 21.045ZM49.8477 16.3478L49.3622 16.4674L49.3798 16.5389L49.4173 16.6023L49.8477 16.3478ZM49.2827 16.1707L52.0592 20.8679L52.9201 20.3591L50.1436 15.6619L49.2827 16.1707ZM52.0222 20.7911C52.0687 20.9135 52.1081 21.0389 52.1401 21.1665L53.1101 20.9235C53.0686 20.7579 53.0175 20.5951 52.957 20.436L52.0222 20.7911ZM53.0555 20.7905L50.278 16.0933L49.4173 16.6023L52.1947 21.2995L53.0555 20.7905ZM50.3331 16.2282C50.2922 16.0619 50.2412 15.8985 50.1805 15.7388L49.2457 16.0939C49.292 16.2156 49.3309 16.3404 49.3622 16.4674L50.3331 16.2282Z" fill="#6F7380" mask="url(#path-63-inside-13_1033_5307)"/>
<mask id="path-65-inside-14_1033_5307" fill="white">
<path d="M49.8474 16.3478L52.6248 21.045C52.6677 21.2237 52.6983 21.4055 52.7163 21.5889L49.9398 16.8907C49.9221 16.7076 49.8915 16.5261 49.8483 16.3478"/>
</mask>
<path d="M49.8474 16.3478L52.6248 21.045C52.6677 21.2237 52.6983 21.4055 52.7163 21.5889L49.9398 16.8907C49.9221 16.7076 49.8915 16.5261 49.8483 16.3478" fill="#23252C"/>
<path d="M52.6248 21.045L53.111 20.9284L53.0935 20.8552L53.0552 20.7905L52.6248 21.045ZM52.7163 21.5889L52.2859 21.8433L53.2139 21.5399L52.7163 21.5889ZM49.9398 16.8907L49.4422 16.9389L49.4529 17.0495L49.5094 17.1451L49.9398 16.8907ZM49.417 16.6023L52.1944 21.2995L53.0552 20.7905L50.2778 16.0933L49.417 16.6023ZM52.1386 21.1616C52.1761 21.318 52.2029 21.4772 52.2187 21.6379L53.2139 21.5399C53.1936 21.3338 53.1592 21.1295 53.111 20.9284L52.1386 21.1616ZM53.1468 21.3345L50.3703 16.6363L49.5094 17.1451L52.2859 21.8433L53.1468 21.3345ZM50.4375 16.8426C50.4175 16.6361 50.383 16.4314 50.3343 16.23L49.3624 16.4655C49.4 16.6209 49.4267 16.7791 49.4422 16.9389L50.4375 16.8426Z" fill="#6F7380" mask="url(#path-65-inside-14_1033_5307)"/>
<mask id="path-67-inside-15_1033_5307" fill="white">
<path d="M49.942 16.8907L52.7185 21.5889C52.7498 21.9088 52.7442 22.2314 52.702 22.5499L49.9255 17.8546C49.9672 17.5361 49.9727 17.2135 49.942 16.8936"/>
</mask>
<path d="M49.942 16.8907L52.7185 21.5889C52.7498 21.9088 52.7442 22.2314 52.702 22.5499L49.9255 17.8546C49.9672 17.5361 49.9727 17.2135 49.942 16.8936" fill="#23252C"/>
<path d="M52.7185 21.5889L53.2161 21.5403L53.2053 21.43L53.1489 21.3345L52.7185 21.5889ZM52.702 22.5499L52.2716 22.8044L53.0077 24.0491L53.1977 22.6156L52.702 22.5499ZM49.9255 17.8546L49.4298 17.7897L49.4074 17.9607L49.4952 18.1091L49.9255 17.8546ZM49.5116 17.1451L52.288 21.8433L53.1489 21.3345L50.3725 16.6364L49.5116 17.1451ZM52.2209 21.6375C52.2484 21.9194 52.2435 22.2037 52.2064 22.4842L53.1977 22.6156C53.2449 22.2592 53.2511 21.8982 53.2161 21.5403L52.2209 21.6375ZM53.1324 22.2954L50.3559 17.6001L49.4952 18.1091L52.2716 22.8044L53.1324 22.2954ZM50.4213 17.9195C50.4679 17.5636 50.4741 17.2032 50.4397 16.8458L49.4443 16.9415C49.4714 17.2238 49.4665 17.5086 49.4298 17.7897L50.4213 17.9195Z" fill="#6F7380" mask="url(#path-67-inside-15_1033_5307)"/>
<mask id="path-69-inside-16_1033_5307" fill="white">
<path d="M49.9255 17.8546L52.702 22.5518C52.6786 22.7309 52.645 22.9083 52.6013 23.0832C52.5627 23.2407 52.5163 23.3959 52.4622 23.5483L49.6848 18.8511C49.7392 18.6984 49.7859 18.5428 49.8248 18.385C49.8686 18.2105 49.9022 18.0333 49.9255 17.8546Z"/>
</mask>
<path d="M49.9255 17.8546L52.702 22.5518C52.6786 22.7309 52.645 22.9083 52.6013 23.0832C52.5627 23.2407 52.5163 23.3959 52.4622 23.5483L49.6848 18.8511C49.7392 18.6984 49.7859 18.5428 49.8248 18.385C49.8686 18.2105 49.9022 18.0333 49.9255 17.8546Z" fill="#23252C"/>
<path d="M52.702 22.5518L53.1978 22.6165L53.2201 22.4457L53.1324 22.2973L52.702 22.5518ZM52.6013 23.0832L52.1162 22.9621L52.1157 22.9641L52.6013 23.0832ZM52.4622 23.5483L52.0318 23.8028L52.5759 24.723L52.9334 23.7155L52.4622 23.5483ZM49.6848 18.8511L49.2138 18.6834L49.1352 18.904L49.2544 19.1056L49.6848 18.8511ZM49.8248 18.385L49.3398 18.2635L49.3394 18.2653L49.8248 18.385ZM49.4951 18.109L52.2716 22.8062L53.1324 22.2973L50.3559 17.6001L49.4951 18.109ZM52.2062 22.487C52.1853 22.6472 52.1552 22.8058 52.1162 22.9621L53.0864 23.2043C53.1347 23.0108 53.1719 22.8145 53.1978 22.6165L52.2062 22.487ZM52.1157 22.9641C52.0811 23.1054 52.0395 23.2445 51.991 23.3811L52.9334 23.7155C52.9931 23.5473 53.0444 23.3759 53.0869 23.2022L52.1157 22.9641ZM52.8926 23.2938L50.1152 18.5966L49.2544 19.1056L52.0318 23.8028L52.8926 23.2938ZM50.1558 19.0188C50.2158 18.8503 50.2674 18.6787 50.3103 18.5047L49.3394 18.2653C49.3044 18.4069 49.2625 18.5465 49.2138 18.6834L50.1558 19.0188ZM50.3098 18.5066C50.3583 18.3133 50.3955 18.1171 50.4213 17.9192L49.4297 17.7899C49.4089 17.9496 49.3789 18.1077 49.3398 18.2635L50.3098 18.5066Z" fill="#6F7380" mask="url(#path-69-inside-16_1033_5307)"/>
<mask id="path-71-inside-17_1033_5307" fill="white">
<path d="M49.6847 18.851L52.4621 23.5482C52.3453 23.8757 52.1972 24.1899 52.0201 24.4861L49.2437 19.7851C49.4202 19.4887 49.568 19.1745 49.6847 18.8472"/>
</mask>
<path d="M49.6847 18.851L52.4621 23.5482C52.3453 23.8757 52.1972 24.1899 52.0201 24.4861L49.2437 19.7851C49.4202 19.4887 49.568 19.1745 49.6847 18.8472" fill="#23252C"/>
<path d="M52.4621 23.5482L52.9331 23.7163L53.0118 23.4955L52.8925 23.2937L52.4621 23.5482ZM52.0201 24.4861L51.5896 24.7404L52.0176 25.4649L52.4493 24.7427L52.0201 24.4861ZM49.2437 19.7851L48.8141 19.5291L48.6623 19.7839L48.8131 20.0393L49.2437 19.7851ZM49.2544 19.1055L52.0318 23.8027L52.8925 23.2937L50.1151 18.5965L49.2544 19.1055ZM51.9912 23.3802C51.8853 23.6771 51.7511 23.9617 51.591 24.2296L52.4493 24.7427C52.6433 24.4182 52.8053 24.0743 52.9331 23.7163L51.9912 23.3802ZM52.4507 24.2318L49.6742 19.5308L48.8131 20.0393L51.5896 24.7404L52.4507 24.2318ZM49.6732 20.041C49.8665 19.7166 50.0281 19.3729 50.1557 19.0151L49.2138 18.6792C49.1079 18.9762 48.9739 19.2609 48.8141 19.5291L49.6732 20.041Z" fill="#6F7380" mask="url(#path-71-inside-17_1033_5307)"/>
<mask id="path-73-inside-18_1033_5307" fill="white">
<path d="M48.2235 21.0555L51 25.7527C50.8884 25.8578 50.7728 25.9584 50.6532 26.0545L47.8767 21.3573C47.9957 21.2612 48.1119 21.1603 48.2235 21.0555Z"/>
</mask>
<path d="M48.2235 21.0555L51 25.7527C50.8884 25.8578 50.7728 25.9584 50.6532 26.0545L47.8767 21.3573C47.9957 21.2612 48.1119 21.1603 48.2235 21.0555Z" fill="#23252C"/>
<path d="M48.2235 21.0555L48.654 20.8011L48.3365 20.264L47.8814 20.6909L48.2235 21.0555ZM51 25.7527L51.3427 26.1169L51.634 25.8427L51.4305 25.4983L51 25.7527ZM50.6532 26.0545L50.2228 26.3089L50.5165 26.8058L50.9664 26.4442L50.6532 26.0545ZM47.8767 21.3573L47.5625 20.9683L47.2264 21.2398L47.4463 21.6117L47.8767 21.3573ZM47.7931 21.31L50.5696 26.0072L51.4305 25.4983L48.654 20.8011L47.7931 21.31ZM50.6574 25.3886C50.5552 25.4848 50.4494 25.5768 50.34 25.6648L50.9664 26.4442C51.0961 26.34 51.2216 26.2309 51.3427 26.1169L50.6574 25.3886ZM51.0836 25.8001L48.3071 21.1029L47.4463 21.6117L50.2228 26.3089L51.0836 25.8001ZM48.1909 21.7462C48.3191 21.6427 48.4446 21.5337 48.5656 21.4202L47.8814 20.6909C47.7792 20.7869 47.6723 20.8797 47.5625 20.9683L48.1909 21.7462Z" fill="#6F7380" mask="url(#path-73-inside-18_1033_5307)"/>
<mask id="path-75-inside-19_1033_5307" fill="white">
<path d="M47.5127 21.6293L50.2891 26.3265C50.1622 26.4136 50.0323 26.4959 49.8993 26.5734L47.1228 21.8762C47.2558 21.7994 47.3858 21.717 47.5127 21.6293Z"/>
</mask>
<path d="M47.5127 21.6293L50.2891 26.3265C50.1622 26.4136 50.0323 26.4959 49.8993 26.5734L47.1228 21.8762C47.2558 21.7994 47.3858 21.717 47.5127 21.6293Z" fill="#23252C"/>
<path d="M50.2891 26.3265L50.5722 26.7387L50.9573 26.4742L50.7196 26.0721L50.2891 26.3265ZM49.8993 26.5734L49.4689 26.8279L49.7217 27.2557L50.1511 27.0054L49.8993 26.5734ZM47.1228 21.8762L46.8726 21.4434L46.4355 21.696L46.6924 22.1307L47.1228 21.8762ZM47.0822 21.8837L49.8587 26.5809L50.7196 26.0721L47.9431 21.3748L47.0822 21.8837ZM50.0061 25.9143C49.8894 25.9944 49.7699 26.0702 49.6475 26.1415L50.1511 27.0054C50.2947 26.9217 50.4351 26.8328 50.5722 26.7387L50.0061 25.9143ZM50.3297 26.319L47.5532 21.6218L46.6924 22.1307L49.4689 26.8279L50.3297 26.319ZM47.373 22.3091C47.5178 22.2255 47.6591 22.1359 47.7971 22.0405L47.2282 21.218C47.1124 21.2982 46.9938 21.3733 46.8726 21.4434L47.373 22.3091Z" fill="#6F7380" mask="url(#path-75-inside-19_1033_5307)"/>
<mask id="path-77-inside-20_1033_5307" fill="white">
<path d="M46.6951 22.1021L49.4771 26.8002C49.3148 26.8777 49.1495 26.9472 48.9811 27.0087L46.2046 22.3115C46.373 22.25 46.5377 22.1799 46.6997 22.103"/>
</mask>
<path d="M46.6951 22.1021L49.4771 26.8002C49.3148 26.8777 49.1495 26.9472 48.9811 27.0087L46.2046 22.3115C46.373 22.25 46.5377 22.1799 46.6997 22.103" fill="#23252C"/>
<path d="M49.4771 26.8002L49.6926 27.2514L50.1858 27.0158L49.9073 26.5455L49.4771 26.8002ZM48.9811 27.0087L48.5507 27.2632L48.7622 27.621L49.1526 27.4784L48.9811 27.0087ZM46.2046 22.3115L46.033 21.8419L45.4681 22.0482L45.7742 22.566L46.2046 22.3115ZM46.2649 22.3568L49.0469 27.055L49.9073 26.5455L47.1253 21.8473L46.2649 22.3568ZM49.2616 26.349C49.1136 26.4197 48.9629 26.4831 48.8095 26.5391L49.1526 27.4784C49.336 27.4114 49.516 27.3357 49.6926 27.2514L49.2616 26.349ZM49.4115 26.7543L46.635 22.0571L45.7742 22.566L48.5507 27.2632L49.4115 26.7543ZM46.3761 22.7812C46.5609 22.7137 46.7399 22.6374 46.9141 22.5547L46.4853 21.6513C46.3355 21.7224 46.1851 21.7864 46.033 21.8419L46.3761 22.7812Z" fill="#6F7380" mask="url(#path-77-inside-20_1033_5307)"/>
<mask id="path-79-inside-21_1033_5307" fill="white">
<path d="M45.5844 22.497L48.3609 27.1942C47.8848 27.3092 47.3956 27.3532 46.9077 27.3249C45.5204 27.2413 44.4286 26.5561 43.8292 25.5414L41.0527 20.8422C41.6521 21.857 42.7439 22.5422 44.1312 22.6258C44.6191 22.654 45.1083 22.61 45.5844 22.4951"/>
</mask>
<path d="M45.5844 22.497L48.3609 27.1942C47.8848 27.3092 47.3956 27.3532 46.9077 27.3249C45.5204 27.2413 44.4286 26.5561 43.8292 25.5414L41.0527 20.8422C41.6521 21.857 42.7439 22.5422 44.1312 22.6258C44.6191 22.654 45.1083 22.61 45.5844 22.4951" fill="#23252C"/>
<path d="M48.3609 27.1942L48.4783 27.6802L49.1353 27.5216L48.7914 26.9398L48.3609 27.1942ZM46.9077 27.3249L46.8776 27.824L46.8788 27.8241L46.9077 27.3249ZM43.8292 25.5414L44.2597 25.2871L44.2597 25.287L43.8292 25.5414ZM41.0527 20.8422L41.4832 20.5879L40.6222 21.0965L41.0527 20.8422ZM44.1312 22.6258L44.1011 23.1249L44.1023 23.1249L44.1312 22.6258ZM45.154 22.7514L47.9305 27.4486L48.7914 26.9398L46.0149 22.2426L45.154 22.7514ZM48.2436 26.7082C47.8151 26.8116 47.3752 26.8511 46.9366 26.8257L46.8788 27.8241C47.4159 27.8552 47.9544 27.8067 48.4783 27.6802L48.2436 26.7082ZM46.9378 26.8258C45.7055 26.7515 44.7692 26.1497 44.2597 25.2871L43.3987 25.7956C44.088 26.9626 45.3353 27.7311 46.8776 27.824L46.9378 26.8258ZM44.2597 25.287L41.4832 20.5879L40.6223 21.0966L43.3988 25.7957L44.2597 25.287ZM40.6222 21.0965C41.3115 22.2635 42.5588 23.0319 44.1011 23.1249L44.1613 22.1267C42.929 22.0524 41.9928 21.4505 41.4832 20.5879L40.6222 21.0965ZM44.1023 23.1249C44.6394 23.1561 45.1779 23.1076 45.7018 22.9811L45.4671 22.0091C45.0387 22.1125 44.5987 22.152 44.1601 22.1266L44.1023 23.1249Z" fill="#6F7380" mask="url(#path-79-inside-21_1033_5307)"/>
<mask id="path-81-inside-22_1033_5307" fill="white">
<path d="M62.0491 7.1687L64.8256 11.8659C64.9592 12.0917 65.0864 12.3224 65.2081 12.5559L62.4307 7.85868C62.3087 7.6242 62.1815 7.39421 62.0491 7.1687Z"/>
</mask>
<path d="M62.0491 7.1687L64.8256 11.8659C64.9592 12.0917 65.0864 12.3224 65.2081 12.5559L62.4307 7.85868C62.3087 7.6242 62.1815 7.39421 62.0491 7.1687Z" fill="#23252C"/>
<path d="M62.0491 7.1687L62.4795 6.91428L61.6179 7.42184L62.0491 7.1687ZM64.8256 11.8659L64.3951 12.1203L64.3952 12.1205L64.8256 11.8659ZM65.2081 12.5559L64.7777 12.8104L65.6515 12.3248L65.2081 12.5559ZM62.4307 7.85868L61.9871 8.08949L61.9934 8.1015L62.0003 8.11316L62.4307 7.85868ZM61.6186 7.42312L64.3951 12.1203L65.256 11.6115L62.4795 6.91428L61.6186 7.42312ZM64.3952 12.1205C64.5237 12.3377 64.6466 12.5604 64.7647 12.787L65.6515 12.3248C65.5262 12.0843 65.3946 11.8458 65.2559 11.6113L64.3952 12.1205ZM65.6385 12.3014L62.8611 7.60419L62.0003 8.11316L64.7777 12.8104L65.6385 12.3014ZM62.8742 7.62787C62.7483 7.38593 62.617 7.14849 62.4803 6.91556L61.6179 7.42184C61.7459 7.63993 61.869 7.86247 61.9871 8.08949L62.8742 7.62787Z" fill="#6F7380" mask="url(#path-81-inside-22_1033_5307)"/>
<mask id="path-83-inside-23_1033_5307" fill="white">
<path d="M62.4307 7.85864L65.2081 12.5558C65.4559 13.0347 65.6771 13.5281 65.8706 14.0338L63.0932 9.33661C62.9001 8.83076 62.6789 8.33726 62.4307 7.85864Z"/>
</mask>
<path d="M62.4307 7.85864L65.2081 12.5558C65.4559 13.0347 65.6771 13.5281 65.8706 14.0338L63.0932 9.33661C62.9001 8.83076 62.6789 8.33726 62.4307 7.85864Z" fill="#23252C"/>
<path d="M65.2081 12.5558L65.6521 12.326L65.6456 12.3135L65.6385 12.3014L65.2081 12.5558ZM65.8706 14.0338L65.4402 14.2883L66.3376 13.8551L65.8706 14.0338ZM63.0932 9.33661L62.6261 9.51494L62.6412 9.55457L62.6628 9.59109L63.0932 9.33661ZM62.0003 8.11313L64.7777 12.8103L65.6385 12.3014L62.8611 7.60416L62.0003 8.11313ZM64.764 12.7857C65.0032 13.2478 65.2168 13.7242 65.4036 14.2125L66.3376 13.8551C66.1375 13.3321 65.9086 12.8215 65.6521 12.326L64.764 12.7857ZM66.301 13.7793L63.5236 9.08212L62.6628 9.59109L65.4402 14.2883L66.301 13.7793ZM63.5603 9.15828C63.3605 8.63479 63.1315 8.12398 62.8745 7.62846L61.9868 8.08882C62.2262 8.55054 62.4397 9.02673 62.6261 9.51494L63.5603 9.15828Z" fill="#6F7380" mask="url(#path-83-inside-23_1033_5307)"/>
<mask id="path-85-inside-24_1033_5307" fill="white">
<path d="M63.0935 9.33654L65.8709 14.0338C66.0861 14.5977 66.2667 15.1754 66.4118 15.7635L63.6343 11.0624C63.4897 10.4742 63.3091 9.89646 63.0935 9.3327"/>
</mask>
<path d="M63.0935 9.33654L65.8709 14.0338C66.0861 14.5977 66.2667 15.1754 66.4118 15.7635L63.6343 11.0624C63.4897 10.4742 63.3091 9.89646 63.0935 9.3327" fill="#23252C"/>
<path d="M65.8709 14.0338L66.3381 13.8555L66.3229 13.8158L66.3013 13.7793L65.8709 14.0338ZM66.4118 15.7635L65.9813 16.0178L66.8972 15.6437L66.4118 15.7635ZM63.6343 11.0624L63.1488 11.1818L63.1664 11.2534L63.2039 11.3168L63.6343 11.0624ZM62.6631 9.59103L65.4405 14.2882L66.3013 13.7793L63.5239 9.08206L62.6631 9.59103ZM65.4038 14.212C65.6116 14.7567 65.7861 15.3149 65.9263 15.8832L66.8972 15.6437C66.7473 15.0359 66.5605 14.4386 66.3381 13.8555L65.4038 14.212ZM66.8422 15.5092L64.0648 10.8081L63.2039 11.3168L65.9813 16.0178L66.8422 15.5092ZM64.1199 10.9431C63.9703 10.3348 63.7835 9.73728 63.5605 9.15414L62.6265 9.51127C62.8346 10.0556 63.0091 10.6136 63.1488 11.1818L64.1199 10.9431Z" fill="#6F7380" mask="url(#path-85-inside-24_1033_5307)"/>
<mask id="path-87-inside-25_1033_5307" fill="white">
<path d="M63.634 11.0624L66.4114 15.7596C66.5158 16.1834 66.6036 16.6149 66.6723 17.0531L63.8958 12.3559C63.8274 11.9171 63.7402 11.4859 63.634 11.0624Z"/>
</mask>
<path d="M63.634 11.0624L66.4114 15.7596C66.5158 16.1834 66.6036 16.6149 66.6723 17.0531L63.8958 12.3559C63.8274 11.9171 63.7402 11.4859 63.634 11.0624Z" fill="#23252C"/>
<path d="M63.634 11.0624L64.0644 10.808L63.149 11.184L63.634 11.0624ZM66.4114 15.7596L66.8969 15.6401L66.8793 15.5686L66.8418 15.5052L66.4114 15.7596ZM66.6723 17.0531L66.2418 17.3075L67.1662 16.9757L66.6723 17.0531ZM63.8958 12.3559L63.4017 12.4328L63.4165 12.5277L63.4653 12.6103L63.8958 12.3559ZM63.2036 11.3169L65.981 16.0141L66.8418 15.5052L64.0644 10.808L63.2036 11.3169ZM65.9259 15.8792C66.027 16.2897 66.112 16.7071 66.1783 17.1305L67.1662 16.9757C67.0953 16.5227 67.0045 16.0771 66.8969 15.6401L65.9259 15.8792ZM67.1027 16.7987L64.3262 12.1015L63.4653 12.6103L66.2418 17.3075L67.1027 16.7987ZM64.3898 12.279C64.3192 11.8254 64.2289 11.3793 64.119 10.9409L63.149 11.184C63.2514 11.5925 63.3357 12.0087 63.4017 12.4328L64.3898 12.279Z" fill="#6F7380" mask="url(#path-87-inside-25_1033_5307)"/>
<mask id="path-89-inside-26_1033_5307" fill="white">
<path d="M64.0374 16.1862L66.8139 20.8834C66.7938 21.1467 66.7682 21.411 66.7352 21.6772L63.9587 16.979C63.9911 16.7138 64.0173 16.4495 64.0374 16.1862Z"/>
</mask>
<path d="M64.0374 16.1862L66.8139 20.8834C66.7938 21.1467 66.7682 21.411 66.7352 21.6772L63.9587 16.979C63.9911 16.7138 64.0173 16.4495 64.0374 16.1862Z" fill="#23252C"/>
<path d="M64.0374 16.1862L64.4679 15.9318L63.6599 14.565L63.5389 16.1481L64.0374 16.1862ZM66.8139 20.8834L67.3125 20.9215L67.3245 20.7645L67.2444 20.629L66.8139 20.8834ZM66.7352 21.6772L66.3048 21.9316L67.0512 23.1947L67.2314 21.7386L66.7352 21.6772ZM63.9587 16.979L63.4624 16.9185L63.4419 17.0871L63.5283 17.2334L63.9587 16.979ZM63.607 16.4406L66.3835 21.1378L67.2444 20.629L64.4679 15.9318L63.607 16.4406ZM66.3154 20.8453C66.2958 21.1018 66.2709 21.3583 66.239 21.6158L67.2314 21.7386C67.2655 21.4637 67.2918 21.1916 67.3125 20.9215L66.3154 20.8453ZM67.1657 21.4228L64.3892 16.7246L63.5283 17.2334L66.3048 21.9316L67.1657 21.4228ZM64.4551 17.0395C64.4883 16.7669 64.5153 16.4952 64.536 16.2243L63.5389 16.1481C63.5193 16.4038 63.4939 16.6606 63.4624 16.9185L64.4551 17.0395Z" fill="#6F7380" mask="url(#path-89-inside-26_1033_5307)"/>
<mask id="path-91-inside-27_1033_5307" fill="white">
<path d="M63.9589 16.9791L66.7354 21.6772C66.6428 22.4304 66.5046 23.1767 66.3218 23.9115C66.1579 24.5704 65.9606 25.2197 65.7306 25.8565L62.9541 21.1593C63.1841 20.5226 63.3811 19.8733 63.5444 19.2143C63.7279 18.4793 63.8663 17.7327 63.9589 16.9791Z"/>
</mask>
<path d="M63.9589 16.9791L66.7354 21.6772C66.6428 22.4304 66.5046 23.1767 66.3218 23.9115C66.1579 24.5704 65.9606 25.2197 65.7306 25.8565L62.9541 21.1593C63.1841 20.5226 63.3811 19.8733 63.5444 19.2143C63.7279 18.4793 63.8663 17.7327 63.9589 16.9791Z" fill="#23252C"/>
<path d="M66.7354 21.6772L67.2317 21.7383L67.2524 21.5694L67.1659 21.4228L66.7354 21.6772ZM66.3218 23.9115L65.8366 23.7907L65.8365 23.7908L66.3218 23.9115ZM65.7306 25.8565L65.3002 26.1109L65.8403 27.0247L66.2009 26.0263L65.7306 25.8565ZM62.9541 21.1593L62.4838 20.9894L62.4038 21.2109L62.5237 21.4137L62.9541 21.1593ZM63.5444 19.2143L63.0592 19.0932L63.059 19.0941L63.5444 19.2143ZM63.5285 17.2335L66.305 21.9316L67.1659 21.4228L64.3894 16.7247L63.5285 17.2335ZM66.2391 21.6162C66.149 22.3493 66.0145 23.0757 65.8366 23.7907L66.807 24.0322C66.9947 23.2777 67.1366 22.5115 67.2317 21.7383L66.2391 21.6162ZM65.8365 23.7908C65.6768 24.4332 65.4845 25.066 65.2603 25.6866L66.2009 26.0263C66.4367 25.3734 66.639 24.7077 66.807 24.0321L65.8365 23.7908ZM66.161 25.602L63.3845 20.9048L62.5237 21.4137L65.3002 26.1109L66.161 25.602ZM63.4244 21.3291C63.6602 20.6761 63.8623 20.0103 64.0297 19.3345L63.059 19.0941C62.8999 19.7363 62.7079 20.369 62.4838 20.9894L63.4244 21.3291ZM64.0295 19.3354C64.2179 18.5805 64.3601 17.8138 64.4552 17.04L63.4626 16.9181C63.3725 17.6515 63.2378 18.378 63.0592 19.0932L64.0295 19.3354Z" fill="#6F7380" mask="url(#path-91-inside-27_1033_5307)"/>
<path d="M62.8219 22.1973C62.8852 22.0453 62.9467 21.8922 63.0063 21.7381L65.4559 25.8823C65.3988 26.0393 65.3396 26.1958 65.2784 26.3518L62.8219 22.1973Z" fill="#23252C" stroke="#6F7380" stroke-width="0.5"/>
<path d="M68.5762 22.8264L62.5228 22.4602L62.169 22.4388L62.3079 22.1127C62.7154 21.1561 63.0479 20.1661 63.3021 19.1525C63.547 18.1739 63.7098 17.1745 63.7886 16.1659L63.8077 15.921L64.0529 15.9358L70.1981 16.3076L71.01 13.0361L63.8836 12.6045L63.6832 12.5923L63.6518 12.394C62.5983 5.72702 57.2902 0.74128 49.7248 0.283935C42.1457 -0.174238 34.495 4.05052 30.1804 10.445L30.1006 10.5633L29.9581 10.5547L22.7367 10.1195L21.9248 13.3911L27.9768 13.7573L28.33 13.7787L28.1919 14.1044C27.7863 15.0613 27.4553 16.0513 27.2022 17.0646L68.5762 22.8264ZM68.5762 22.8264L67.7699 26.098L60.5489 25.6618L60.4064 25.6531L60.3266 25.7715C56.012 32.1669 48.3613 36.3917 40.7822 35.9335C33.2168 35.4762 27.9087 30.4904 26.8561 23.8235L26.8248 23.6251L26.6242 23.613L19.4952 23.1823L20.3071 19.9098L26.4513 20.2817L26.6963 20.2965L26.7156 20.0518C26.7953 19.0431 26.9581 18.0437 27.2022 17.0647L68.5762 22.8264ZM41.5006 33.42C50.043 33.9367 58.6479 27.5233 60.7408 19.09L41.5006 33.42C41.5006 33.42 41.5006 33.42 41.5006 33.42Z" fill="#23252C" stroke="#6F7380" stroke-width="0.5"/>
<path d="M49.2418 15.507C50.3285 17.3453 49.4972 20.0383 47.2573 21.4983C45.0175 22.9584 42.3503 22.5459 41.2636 20.7075C40.1769 18.8692 41.0083 16.1762 43.2481 14.7162C45.488 13.2562 48.1551 13.6687 49.2418 15.507Z" fill="#23252C" stroke="#6F7380" stroke-width="0.5"/>
<path d="M64.4923 16.4641L70.2428 16.8112L72.7122 20.9898L66.9617 20.6419L64.4923 16.4641Z" fill="#23252C" stroke="#6F7380" stroke-width="0.5"/>
<path d="M70.6579 16.5306L71.4205 13.4576L73.8342 17.541L73.0716 20.6148L70.6579 16.5306Z" fill="#23252C" stroke="#6F7380" stroke-width="0.5"/>
<mask id="path-98-inside-28_1033_5307" fill="white">
<path d="M60.5318 25.9114L63.3083 30.6095C63.0813 30.9459 62.8455 31.2761 62.6009 31.6003L59.8235 26.9031C60.0675 26.5783 60.3036 26.2477 60.5318 25.9114Z"/>
</mask>
<path d="M60.5318 25.9114L63.3083 30.6095C63.0813 30.9459 62.8455 31.2761 62.6009 31.6003L59.8235 26.9031C60.0675 26.5783 60.3036 26.2477 60.5318 25.9114Z" fill="#23252C"/>
<path d="M63.3083 30.6095L63.7228 30.8892L63.8995 30.6272L63.7387 30.3552L63.3083 30.6095ZM62.6009 31.6003L62.1705 31.8548L62.5504 32.4973L63 31.9015L62.6009 31.6003ZM59.8235 26.9031L59.4237 26.6028L59.223 26.8699L59.3931 27.1576L59.8235 26.9031ZM60.1013 26.1658L62.8778 30.8639L63.7387 30.3552L60.9622 25.657L60.1013 26.1658ZM62.8938 30.3299C62.6718 30.6589 62.4411 30.982 62.2018 31.2991L63 31.9015C63.2499 31.5703 63.4909 31.2329 63.7228 30.8892L62.8938 30.3299ZM63.0313 31.3458L60.2539 26.6486L59.3931 27.1576L62.1705 31.8548L63.0313 31.3458ZM60.2232 27.2034C60.4721 26.8722 60.7129 26.5351 60.9456 26.1921L60.118 25.6307C59.8944 25.9604 59.6629 26.2844 59.4237 26.6028L60.2232 27.2034Z" fill="#6F7380" mask="url(#path-98-inside-28_1033_5307)"/>
<mask id="path-100-inside-29_1033_5307" fill="white">
<path d="M59.8239 26.9031L62.6013 31.6051C62.1792 32.1631 61.7326 32.7022 61.2616 33.2224L58.4851 28.5204C58.9555 28.0015 59.4018 27.4624 59.8239 26.9031Z"/>
</mask>
<path d="M59.8239 26.9031L62.6013 31.6051C62.1792 32.1631 61.7326 32.7022 61.2616 33.2224L58.4851 28.5204C58.9555 28.0015 59.4018 27.4624 59.8239 26.9031Z" fill="#23252C"/>
<path d="M62.6013 31.6051L63.0001 31.9068L63.2023 31.6394L63.0318 31.3508L62.6013 31.6051ZM61.2616 33.2224L60.8311 33.4766L61.1764 34.0615L61.6323 33.558L61.2616 33.2224ZM58.4851 28.5204L58.1147 28.1846L57.8673 28.4575L58.0546 28.7746L58.4851 28.5204ZM59.3934 27.1574L62.1708 31.8594L63.0318 31.3508L60.2544 26.6488L59.3934 27.1574ZM62.2026 31.3034C61.7893 31.8497 61.3521 32.3775 60.8909 32.8868L61.6323 33.558C62.1131 33.0269 62.569 32.4765 63.0001 31.9068L62.2026 31.3034ZM61.6921 32.9682L58.9156 28.2662L58.0546 28.7746L60.8311 33.4766L61.6921 32.9682ZM58.8556 28.8562C59.336 28.3262 59.7918 27.7755 60.223 27.2043L59.4249 26.6018C59.0117 27.1492 58.575 27.6768 58.1147 28.1846L58.8556 28.8562Z" fill="#6F7380" mask="url(#path-100-inside-29_1033_5307)"/>
<mask id="path-102-inside-30_1033_5307" fill="white">
<path d="M58.4845 28.5203L61.2609 33.2175C60.8339 33.6922 60.3849 34.1497 59.9139 34.5898L57.1365 29.8926C57.6038 29.4537 58.0531 28.9963 58.4845 28.5203Z"/>
</mask>
<path d="M58.4845 28.5203L61.2609 33.2175C60.8339 33.6922 60.3849 34.1497 59.9139 34.5898L57.1365 29.8926C57.6038 29.4537 58.0531 28.9963 58.4845 28.5203Z" fill="#23252C"/>
<path d="M61.2609 33.2175L61.6327 33.5519L61.8781 33.2791L61.6914 32.9631L61.2609 33.2175ZM59.9139 34.5898L59.4835 34.8443L59.8004 35.3802L60.2553 34.9551L59.9139 34.5898ZM57.1365 29.8926L56.7942 29.5281L56.5022 29.8023L56.7061 30.1471L57.1365 29.8926ZM58.054 28.7747L60.8305 33.472L61.6914 32.9631L58.9149 28.2659L58.054 28.7747ZM60.8892 32.8831C60.4719 33.347 60.033 33.7941 59.5725 34.2245L60.2553 34.9551C60.7367 34.5052 61.1959 34.0375 61.6327 33.5519L60.8892 32.8831ZM60.3443 34.3353L57.5669 29.6381L56.7061 30.1471L59.4835 34.8443L60.3443 34.3353ZM57.4787 30.2571C57.9559 29.809 58.4146 29.342 58.855 28.8561L58.1139 28.1846C57.6916 28.6506 57.2517 29.0985 56.7942 29.5281L57.4787 30.2571Z" fill="#6F7380" mask="url(#path-102-inside-30_1033_5307)"/>
<mask id="path-104-inside-31_1033_5307" fill="white">
<path d="M57.1365 29.8926L59.9139 34.5898C59.4655 35.0107 59.0021 35.414 58.5238 35.7996L55.7473 31.1024C56.225 30.7181 56.6881 30.3148 57.1365 29.8926Z"/>
</mask>
<path d="M57.1365 29.8926L59.9139 34.5898C59.4655 35.0107 59.0021 35.414 58.5238 35.7996L55.7473 31.1024C56.225 30.7181 56.6881 30.3148 57.1365 29.8926Z" fill="#23252C"/>
<path d="M59.9139 34.5898L60.2561 34.9543L60.5482 34.6802L60.3443 34.3353L59.9139 34.5898ZM58.5238 35.7996L58.0934 36.0541L58.3876 36.5518L58.8376 36.1889L58.5238 35.7996ZM55.7473 31.1024L55.4339 30.7129L55.0966 30.9842L55.3169 31.3569L55.7473 31.1024ZM56.7061 30.1471L59.4835 34.8443L60.3443 34.3353L57.5669 29.6381L56.7061 30.1471ZM59.5717 34.2252C59.1324 34.6376 58.6785 35.0326 58.21 35.4104L58.8376 36.1889C59.3257 35.7953 59.7985 35.3838 60.2561 34.9543L59.5717 34.2252ZM58.9542 35.5452L56.1777 30.848L55.3169 31.3569L58.0934 36.0541L58.9542 35.5452ZM56.0608 31.492C56.5486 31.0994 57.0214 30.6876 57.4792 30.2566L56.7937 29.5285C56.3547 29.9419 55.9014 30.3367 55.4339 30.7129L56.0608 31.492Z" fill="#6F7380" mask="url(#path-104-inside-31_1033_5307)"/>
<mask id="path-106-inside-32_1033_5307" fill="white">
<path d="M55.7478 31.1025L58.5243 35.7997C58.0521 36.1803 57.5683 36.5439 57.0729 36.8904L54.2964 32.1932C54.7942 31.8492 55.2795 31.4869 55.7524 31.1064"/>
</mask>
<path d="M55.7478 31.1025L58.5243 35.7997C58.0521 36.1803 57.5683 36.5439 57.0729 36.8904L54.2964 32.1932C54.7942 31.8492 55.2795 31.4869 55.7524 31.1064" fill="#23252C"/>
<path d="M58.5243 35.7997L58.838 36.1891L59.1748 35.9177L58.9547 35.5453L58.5243 35.7997ZM57.0729 36.8904L56.6425 37.1449L56.9172 37.6096L57.3595 37.3001L57.0729 36.8904ZM54.2964 32.1932L54.0121 31.7819L53.629 32.0467L53.866 32.4477L54.2964 32.1932ZM55.3174 31.357L58.0938 36.0542L58.9547 35.5453L56.1782 30.8481L55.3174 31.357ZM58.2105 35.4104C57.7471 35.7839 57.2723 36.1407 56.7863 36.4808L57.3595 37.3001C57.8642 36.947 58.357 36.5767 58.838 36.1891L58.2105 35.4104ZM57.5033 36.636L54.7268 31.9388L53.866 32.4477L56.6425 37.1449L57.5033 36.636ZM54.5806 32.6046C55.0885 32.2536 55.5836 31.884 56.0659 31.4959L55.4389 30.7169C54.9755 31.0898 54.4999 31.4448 54.0121 31.7819L54.5806 32.6046Z" fill="#6F7380" mask="url(#path-106-inside-32_1033_5307)"/>
<mask id="path-108-inside-33_1033_5307" fill="white">
<path d="M54.2916 32.1893L57.0727 36.8904C56.5657 37.2402 56.0471 37.5695 55.517 37.8783L52.7405 33.181C53.2713 32.8723 53.7898 32.543 54.2962 32.1932"/>
</mask>
<path d="M54.2916 32.1893L57.0727 36.8904C56.5657 37.2402 56.0471 37.5695 55.517 37.8783L52.7405 33.181C53.2713 32.8723 53.7898 32.543 54.2962 32.1932" fill="#23252C"/>
<path d="M57.0727 36.8904L57.3566 37.3019L57.7404 37.0371L57.503 36.6358L57.0727 36.8904ZM55.517 37.8783L55.0865 38.1327L55.3393 38.5603L55.7686 38.3103L55.517 37.8783ZM52.7405 33.181L52.489 32.7489L52.0539 33.002L52.3101 33.4355L52.7405 33.181ZM53.8613 32.4439L56.6424 37.145L57.503 36.6358L54.722 31.9348L53.8613 32.4439ZM56.7887 36.4788C56.2922 36.8214 55.7844 37.1439 55.2653 37.4462L55.7686 38.3103C56.3099 37.9951 56.8392 37.6589 57.3566 37.3019L56.7887 36.4788ZM55.9474 37.6238L53.1709 32.9266L52.3101 33.4355L55.0865 38.1327L55.9474 37.6238ZM52.9919 33.6132C53.5339 33.2979 54.0634 32.9617 54.5804 32.6046L54.012 31.7818C53.5163 32.1242 53.0086 32.4466 52.489 32.7489L52.9919 33.6132Z" fill="#6F7380" mask="url(#path-108-inside-33_1033_5307)"/>
<path d="M51.3755 34.1883C51.8046 33.978 52.2274 33.7543 52.6439 33.5172L55.166 37.784C54.7497 38.0211 54.3266 38.2446 53.8968 38.4546L51.3755 34.1883Z" fill="#23252C" stroke="#6F7380" stroke-width="0.5"/>
<path d="M49.4204 35.0412C49.9274 34.8475 50.4281 34.6354 50.9226 34.4048L53.4434 38.6702C52.9488 38.899 52.4473 39.1095 51.9387 39.3016L49.4204 35.0412Z" fill="#23252C" stroke="#6F7380" stroke-width="0.5"/>
<mask id="path-112-inside-34_1033_5307" fill="white">
<path d="M49.0534 34.9117L51.8299 39.6089C51.0226 39.9044 50.2001 40.1518 49.3663 40.3499L46.5898 35.6526C47.4236 35.4529 48.2461 35.2042 49.0534 34.9079"/>
</mask>
<path d="M49.0534 34.9117L51.8299 39.6089C51.0226 39.9044 50.2001 40.1518 49.3663 40.3499L46.5898 35.6526C47.4236 35.4529 48.2461 35.2042 49.0534 34.9079" fill="#23252C"/>
<path d="M51.8299 39.6089L52.0017 40.0785L52.5661 39.8719L52.2603 39.3545L51.8299 39.6089ZM49.3663 40.3499L48.9359 40.6043L49.1234 40.9215L49.4819 40.8363L49.3663 40.3499ZM46.5898 35.6526L46.4733 35.1664L45.8149 35.3242L46.1594 35.9071L46.5898 35.6526ZM48.6229 35.1662L51.3994 39.8634L52.2603 39.3545L49.4838 34.6573L48.6229 35.1662ZM51.658 39.1394C50.8691 39.4281 50.0654 39.6699 49.2508 39.8634L49.4819 40.8363C50.3348 40.6337 51.1761 40.3807 52.0017 40.0785L51.658 39.1394ZM49.7968 40.0954L47.0203 35.3982L46.1594 35.9071L48.9359 40.6043L49.7968 40.0954ZM46.7064 36.1389C47.5591 35.9345 48.4002 35.6803 49.2256 35.3773L48.8811 34.4385C48.092 34.7282 47.2881 34.9712 46.4733 35.1664L46.7064 36.1389Z" fill="#6F7380" mask="url(#path-112-inside-34_1033_5307)"/>
<mask id="path-114-inside-35_1033_5307" fill="white">
<path d="M46.5899 35.6564L49.3664 40.3498C47.4585 40.8114 45.4983 40.9886 43.5434 40.8764C37.995 40.542 33.6299 37.8013 31.2313 33.7432L28.4548 29.046C30.8525 33.1032 35.2185 35.8438 40.766 36.1792C42.7212 36.2915 44.6817 36.1142 46.5899 35.6526"/>
</mask>
<path d="M46.5899 35.6564L49.3664 40.3498C47.4585 40.8114 45.4983 40.9886 43.5434 40.8764C37.995 40.542 33.6299 37.8013 31.2313 33.7432L28.4548 29.046C30.8525 33.1032 35.2185 35.8438 40.766 36.1792C42.7212 36.2915 44.6817 36.1142 46.5899 35.6526" fill="#23252C"/>
<path d="M49.3664 40.3498L49.4839 40.8358L50.1408 40.6769L49.7967 40.0952L49.3664 40.3498ZM43.5434 40.8764L43.5134 41.3755L43.5148 41.3756L43.5434 40.8764ZM31.2313 33.7432L31.6618 33.4888L31.6618 33.4887L31.2313 33.7432ZM28.4548 29.046L28.8853 28.7915L28.0244 29.3003L28.4548 29.046ZM40.766 36.1792L40.7359 36.6783L40.7374 36.6784L40.766 36.1792ZM46.1596 35.911L48.936 40.6044L49.7967 40.0952L47.0202 35.4019L46.1596 35.911ZM49.2488 39.8638C47.3887 40.3138 45.4777 40.4866 43.5721 40.3772L43.5148 41.3756C45.5189 41.4906 47.5284 41.3089 49.4839 40.8358L49.2488 39.8638ZM43.5735 40.3773C38.1802 40.0523 33.9705 37.3949 31.6618 33.4888L30.8009 33.9976C33.2893 38.2077 37.8098 41.0317 43.5134 41.3755L43.5735 40.3773ZM31.6618 33.4887L28.8853 28.7915L28.0244 29.3004L30.8009 33.9976L31.6618 33.4887ZM28.0244 29.3003C30.5119 33.5096 35.0334 36.3336 40.7359 36.6783L40.7962 35.6801C35.4037 35.3541 31.1931 32.6967 28.8853 28.7916L28.0244 29.3003ZM40.7374 36.6784C42.7418 36.7935 44.7516 36.6118 46.7075 36.1386L46.4723 35.1666C44.6119 35.6167 42.7006 35.7895 40.7947 35.68L40.7374 36.6784Z" fill="#6F7380" mask="url(#path-114-inside-35_1033_5307)"/>
<path d="M60.9866 26.1893L67.8133 26.6017L70.2828 30.7804L63.4561 30.368L60.9866 26.1893Z" fill="#23252C" stroke="#6F7380" stroke-width="0.5"/>
<path d="M68.2282 26.3209L68.9908 23.2479L71.4045 27.3312L70.6419 30.4051L68.2282 26.3209Z" fill="#23252C" stroke="#6F7380" stroke-width="0.5"/>
</svg>
