<svg width="66" height="50" viewBox="0 0 66 50" fill="none" xmlns="http://www.w3.org/2000/svg">
<path d="M50.2683 12.0062L48.8771 18.7427C48.9308 18.6031 48.9303 18.448 48.8757 18.3088C48.8211 18.1697 48.7165 18.0569 48.5833 17.9936L49.9744 11.2571C50.1085 11.3195 50.2138 11.4321 50.2685 11.5716C50.3233 11.7111 50.3232 11.8667 50.2683 12.0062" fill="#23252C"/>
<path d="M50.2683 12.0062L48.8771 18.7427C48.9308 18.6031 48.9303 18.448 48.8757 18.3088C48.8211 18.1697 48.7165 18.0569 48.5833 17.9936L49.9744 11.2571C50.1085 11.3195 50.2138 11.4321 50.2685 11.5716C50.3233 11.7111 50.3232 11.8667 50.2683 12.0062" stroke="#6F7380"/>
<path d="M49.9746 11.257L48.5835 17.9935C48.5373 17.9748 48.4898 17.9598 48.4414 17.9485L49.8326 11.207L49.9746 11.257Z" fill="#23252C" stroke="#6F7380"/>
<path d="M49.8322 11.2071L48.4508 17.9486C48.3881 17.933 48.3242 17.923 48.2598 17.9187L49.6509 11.1772C49.7154 11.1815 49.7793 11.1915 49.842 11.2071" fill="#23252C"/>
<path d="M49.8322 11.2071L48.4508 17.9486C48.3881 17.933 48.3242 17.923 48.2598 17.9187L49.6509 11.1772C49.7154 11.1815 49.7793 11.1915 49.842 11.2071" stroke="#6F7380"/>
<path d="M49.6412 11.1772L48.2501 17.9187H48.1374H47.8582L49.2493 11.1772H49.5285H49.6412Z" fill="#23252C" stroke="#6F7380"/>
<path d="M49.2496 11.1872L47.8584 17.9287C46.9816 18.0235 45.468 18.5928 43.0432 19.9261L44.4344 13.1846C46.8836 11.8363 48.3531 11.2721 49.2496 11.1872Z" fill="#23252C" stroke="#6F7380"/>
<path d="M44.4342 13.1996L43.043 19.9411L21.4016 31.8661L22.7928 25.1246L44.4342 13.1996Z" fill="#23252C" stroke="#6F7380"/>
<path d="M3.87497 22.398L2.48381 29.1345C2.35155 29.0746 0.837927 28.3905 1.01427 27.4217L2.40543 20.6802C2.20949 21.649 3.72312 22.3381 3.87497 22.398" fill="#23252C"/>
<path d="M3.87497 22.398L2.48381 29.1345C2.35155 29.0746 0.837927 28.3905 1.01427 27.4217L2.40543 20.6802C2.20949 21.649 3.72312 22.3381 3.87497 22.398" stroke="#6F7380"/>
<path d="M22.793 25.1246L21.4019 31.8661C20.7458 32.1464 20.0492 32.3151 19.3396 32.3655L20.7307 25.624C21.4407 25.5761 22.1378 25.4073 22.793 25.1246" fill="#23252C"/>
<path d="M22.793 25.1246L21.4019 31.8661C20.7458 32.1464 20.0492 32.3151 19.3396 32.3655L20.7307 25.624C21.4407 25.5761 22.1378 25.4073 22.793 25.1246" stroke="#6F7380"/>
<path d="M20.7307 25.624L19.3395 32.3655C18.8268 32.4173 18.3117 32.4406 17.7965 32.4354C17.434 32.4354 17.0421 32.4354 16.6208 32.3805L18.012 25.639C18.4333 25.6789 18.8252 25.6939 19.1877 25.6989C19.703 25.7052 20.2182 25.6802 20.7307 25.624Z" fill="#23252C" stroke="#6F7380"/>
<path d="M18.012 25.639L16.611 32.3805C15.6417 32.2952 14.6793 32.1417 13.7307 31.921C11.8546 31.4866 9.9001 31.0122 8.15625 30.5827L9.55722 23.8312C11.3011 24.2607 13.2556 24.7351 15.1317 25.1695C16.0798 25.3926 17.0423 25.5461 18.012 25.629" fill="#23252C"/>
<path d="M18.012 25.639L16.611 32.3805C15.6417 32.2952 14.6793 32.1417 13.7307 31.921C11.8546 31.4866 9.9001 31.0122 8.15625 30.5827L9.55722 23.8312C11.3011 24.2607 13.2556 24.7351 15.1317 25.1695C16.0798 25.3926 17.0423 25.5461 18.012 25.629" stroke="#6F7380"/>
<path d="M9.55707 23.8312L8.16591 30.5727C5.08478 29.8087 2.66003 29.1745 2.46899 29.1245L3.87485 22.398C4.06589 22.448 6.49063 23.0772 9.57177 23.8412" fill="#23252C"/>
<path d="M9.55707 23.8312L8.16591 30.5727C5.08478 29.8087 2.66003 29.1745 2.46899 29.1245L3.87485 22.398C4.06589 22.448 6.49063 23.0772 9.57177 23.8412" stroke="#6F7380"/>
<path d="M52.1052 39.8111L50.7141 46.5526C49.9842 46.1631 37.2286 40.3005 32.4477 37.4491C31.5611 36.9147 30.5422 36.0159 30.7626 34.9522L32.1538 28.2107C31.9333 29.2944 32.9522 30.2082 33.8388 30.7076C38.6197 33.564 51.3754 39.4216 52.1052 39.8111Z" fill="#23252C" stroke="#6F7380"/>
<path d="M63.3619 39.7062L61.9707 46.4427C61.9341 46.6263 61.8833 46.8066 61.8188 46.982L63.21 40.2405C63.2745 40.0668 63.3253 39.8881 63.3619 39.7062" fill="#23252C"/>
<path d="M63.3619 39.7062L61.9707 46.4427C61.9341 46.6263 61.8833 46.8066 61.8188 46.982L63.21 40.2405C63.2745 40.0668 63.3253 39.8881 63.3619 39.7062" stroke="#6F7380"/>
<path d="M63.2099 40.2405L61.8187 46.982C61.7033 47.3032 61.5379 47.6033 61.3289 47.8709L62.72 41.1294C62.9301 40.8625 63.0956 40.5622 63.2099 40.2405Z" fill="#23252C" stroke="#6F7380"/>
<path d="M62.7201 41.1294L61.3289 47.8709C60.8444 48.4532 60.1657 48.8321 59.4235 48.9346L59.1638 48.9695L60.555 42.233L60.8146 42.1931C61.5576 42.0929 62.2371 41.7136 62.7201 41.1294" fill="#23252C"/>
<path d="M62.7201 41.1294L61.3289 47.8709C60.8444 48.4532 60.1657 48.8321 59.4235 48.9346L59.1638 48.9695L60.555 42.233L60.8146 42.1931C61.5576 42.0929 62.2371 41.7136 62.7201 41.1294" stroke="#6F7380"/>
<path d="M60.555 42.233L59.1639 48.9696C58.9589 48.9925 58.7528 49.0025 58.5467 48.9995C58.3703 48.9995 58.1891 48.9995 58.0029 48.9995L59.3941 42.258C59.5802 42.258 59.7615 42.258 59.9378 42.258C60.1434 42.2709 60.3495 42.2709 60.555 42.258" fill="#23252C"/>
<path d="M60.555 42.233L59.1639 48.9696C58.9589 48.9925 58.7528 49.0025 58.5467 48.9995C58.3703 48.9995 58.1891 48.9995 58.0029 48.9995L59.3941 42.258C59.5802 42.258 59.7615 42.258 59.9378 42.258C60.1434 42.2709 60.3495 42.2709 60.555 42.258" stroke="#6F7380"/>
<path d="M59.3939 42.233L58.0027 48.9745C57.3769 48.9132 56.7564 48.8047 56.1462 48.6499L57.5374 41.9084C58.147 42.0657 58.7677 42.1742 59.3939 42.233" fill="#23252C"/>
<path d="M59.3939 42.233L58.0027 48.9745C57.3769 48.9132 56.7564 48.8047 56.1462 48.6499L57.5374 41.9084C58.147 42.0657 58.7677 42.1742 59.3939 42.233" stroke="#6F7380"/>
<path d="M57.5376 41.9084L56.1464 48.6499C54.7686 48.2899 53.4219 47.8156 52.1199 47.2317L53.511 40.4952C54.8141 41.0751 56.1606 41.5476 57.5376 41.9084" fill="#23252C"/>
<path d="M57.5376 41.9084L56.1464 48.6499C54.7686 48.2899 53.4219 47.8156 52.1199 47.2317L53.511 40.4952C54.8141 41.0751 56.1606 41.5476 57.5376 41.9084" stroke="#6F7380"/>
<path d="M53.5109 40.4952L52.1197 47.2317C51.4535 46.9421 50.949 46.6874 50.7139 46.5576L52.105 39.8161C52.3402 39.9459 52.8447 40.2006 53.5109 40.4952Z" fill="#23252C" stroke="#6F7380"/>
<path d="M61.5492 1.00001C63.1216 1.00001 64.89 1.56929 64.9781 3.94629C65.0908 5.73404 64.7381 11.9862 64.4883 18.7426L63.4596 38.7724C63.4596 38.9172 63.587 41.7087 60.8291 42.1931C60.5396 42.2433 60.2459 42.265 59.9523 42.258C57.1161 42.258 52.9426 40.2855 52.1148 39.8161C51.3849 39.4266 38.6293 33.5689 33.8484 30.7126C32.5601 29.9385 30.9828 28.3905 33.3585 26.6277C38.7077 22.4629 45.0659 17.2895 48.8867 14.0086C50.028 13.0099 51.0371 11.1872 49.5235 11.1722C48.7005 11.1722 47.1281 11.6965 44.4291 13.1996L22.7877 25.1246C22.7289 25.1546 21.612 25.7188 19.1824 25.6989C17.8169 25.6786 16.4574 25.5112 15.1265 25.1995C9.93899 24.001 4.1588 22.4929 3.85999 22.418C3.64446 22.3181 -0.45066 20.4605 6.07409 18.478L43.0624 6.553C46.702 5.30957 58.4632 1.5593 59.0853 1.33958C59.8877 1.113 60.7166 0.998763 61.5492 1.00001Z" fill="#23252C" stroke="#6F7380"/>
</svg>
