<svg width="49" height="40" viewBox="0 0 49 40" fill="none" xmlns="http://www.w3.org/2000/svg">
<path d="M39.4604 7.5706L19.0593 26.7167C19.0189 26.7547 18.9875 26.801 18.9675 26.8525C18.9475 26.9039 18.9393 26.9591 18.9435 27.014C18.9478 27.0689 18.9643 27.1222 18.992 27.1701C19.0197 27.2179 19.0578 27.259 19.1036 27.2905L37.0595 39.5802C38.4125 40.5196 40.2979 39.8041 40.6664 38.2117L48.9485 2.3897C49.3002 0.866826 47.7881 -0.427313 46.3115 0.133377L0.95382 17.3521C-0.369991 17.8541 -0.298236 19.7269 1.05968 20.1297L11.6059 23.2568C11.7562 23.3013 11.9143 23.3143 12.07 23.2948C12.2257 23.2753 12.3755 23.2237 12.5098 23.1435L39.176 7.19885C39.417 7.05584 39.6655 7.37773 39.4604 7.5706Z" fill="#6F727F"/>
</svg>
