<svg width="58" height="74" viewBox="0 0 58 74" fill="none" xmlns="http://www.w3.org/2000/svg">
<path d="M55.2068 36.0481L51.3569 35.2728V22.0747C51.3569 16.2201 48.9629 10.6053 44.7016 6.46553C40.4402 2.32572 34.6606 0 28.6342 0C22.6078 0 16.8282 2.32572 12.5669 6.46553C8.30557 10.6053 5.91158 16.2201 5.91158 22.0747V35.0252L2.78215 35.6749C1.99475 35.8384 1.28892 36.2594 0.782561 36.8676C0.276207 37.4758 -2.60496e-05 38.2343 2.96543e-07 39.0166V66.9168C-0.000326083 67.6889 0.268765 68.4382 0.763326 69.0425C1.25789 69.6469 1.9487 70.0704 2.72302 70.2442L11.5645 72.2255C22.8932 74.7648 34.689 74.5763 45.9256 71.6763L55.3878 69.232C56.1373 69.0387 56.7999 68.61 57.2724 68.0127C57.7449 67.4154 58.0007 66.683 58 65.9297V39.3899C58.0002 38.606 57.7226 37.8459 57.214 37.2373C56.7053 36.6288 55.9965 36.2089 55.2068 36.0481ZM13.6705 22.0747C13.6705 18.2192 15.2471 14.5217 18.0533 11.7955C20.8595 9.06927 24.6656 7.5377 28.6342 7.5377C32.6028 7.5377 36.4089 9.06927 39.2151 11.7955C42.0214 14.5217 43.5979 18.2192 43.5979 22.0747V33.7115L42.7629 33.5428C33.1713 31.6121 23.2784 31.5718 13.6705 33.4243V22.0747Z" fill="#6F727F"/>
<path d="M42.7583 51.7944C42.4475 51.7866 42.1392 51.8511 41.8572 51.9828L31.037 41.1402C31.162 40.8546 31.2297 40.547 31.2362 40.2349C31.2335 39.6428 30.9976 39.076 30.5804 38.6591C30.3743 38.4502 30.1293 38.2844 29.8594 38.1713C29.5895 38.0582 29.3001 38 29.0078 38C28.7155 38 28.4261 38.0582 28.1562 38.1713C27.8863 38.2844 27.6412 38.4502 27.4352 38.6591C27.0179 39.076 26.7821 39.6428 26.7794 40.2349C26.7719 40.5472 26.8359 40.8569 26.9664 41.1402L16.1341 51.9461C15.8478 51.8251 15.541 51.7611 15.2306 51.7577C14.6419 51.7586 14.0773 51.9934 13.6592 52.411C13.4506 52.6151 13.2848 52.8594 13.1716 53.1292C13.0583 53.3991 13 53.689 13 53.982C13 54.2749 13.0583 54.565 13.1716 54.8348C13.2848 55.1046 13.4506 55.3489 13.6592 55.553C14.0759 55.9721 14.6394 56.2093 15.2282 56.2136C15.5398 56.2227 15.8492 56.1581 16.1317 56.0252L26.9543 66.8727C26.8331 67.1582 26.7695 67.4651 26.7673 67.7756C26.7675 68.0687 26.8253 68.3589 26.9375 68.6294C27.0496 68.8999 27.2138 69.1453 27.4206 69.3514C27.7327 69.6616 28.1284 69.8725 28.5585 69.9577C28.9887 70.0429 29.4342 69.9988 29.8396 69.8308C30.245 69.6628 30.5924 69.3784 30.8386 69.013C31.0848 68.6475 31.2188 68.2172 31.224 67.7756C31.2329 67.464 31.1688 67.1547 31.037 66.8727L41.8693 56.0252C42.1543 56.1476 42.4606 56.2116 42.7704 56.2136C43.3594 56.2143 43.9247 55.9799 44.3425 55.5616C44.7604 55.1434 44.9968 54.5754 45 53.982C44.9969 53.6913 44.9367 53.4042 44.8229 53.1371C44.7091 52.87 44.5439 52.6282 44.337 52.4257C43.9144 52.013 43.3467 51.7859 42.7583 51.7944ZM40.6768 53.2357L36.4702 54.256C36.2875 54.0063 36.0497 53.8027 35.7755 53.6614C35.5011 53.5189 35.1978 53.4418 34.889 53.4363C34.4352 53.4343 33.9954 53.5948 33.6479 53.889L30.9132 52.6166V52.5506C30.9148 52.1788 30.8079 51.8147 30.6058 51.5037C30.4037 51.1926 30.1153 50.9481 29.7765 50.8009V42.3246C29.8056 42.3246 29.8324 42.2976 29.8615 42.2976L40.6914 53.1451C40.6812 53.1727 40.6747 53.2015 40.6719 53.2308L40.6768 53.2357ZM28.9993 65.5782H28.8317L24.6008 56.6248C24.8934 56.2777 25.0535 55.837 25.0525 55.3817L27.8141 54.0823C28.1548 54.3563 28.5779 54.5055 29.0139 54.5055C29.4498 54.5055 29.8729 54.3563 30.2137 54.0823L32.98 55.3719V55.3988C32.978 55.8543 33.1383 56.2954 33.4318 56.6418L29.145 65.5684L28.9993 65.5782ZM28.1759 50.8083C27.8431 50.9649 27.5598 51.2113 27.3574 51.5203C27.1573 51.8292 27.0478 52.1889 27.0417 52.5579V52.6141L24.3069 53.8841C23.9589 53.5908 23.5195 53.4305 23.0658 53.4314C22.7561 53.4332 22.4513 53.5096 22.1769 53.6541C21.903 53.7983 21.668 54.0075 21.492 54.2635L17.3266 53.2455C17.3266 53.2186 17.2999 53.1892 17.2999 53.1329L28.1225 42.2782C28.1225 42.2977 28.1468 42.2977 28.1759 42.3246V50.8083ZM17.2902 54.9045L21.2102 55.8637C21.3161 56.2859 21.56 56.66 21.9024 56.9257C22.2467 57.1913 22.6687 57.334 23.1022 57.3319H23.1314L26.2329 63.8849L17.2902 54.9045ZM34.8599 57.3319H34.889C35.3216 57.3298 35.7415 57.1845 36.084 56.9183C36.426 56.6544 36.6712 56.2833 36.7811 55.8637L40.7011 54.9045V54.9315L31.7657 63.8775L34.8599 57.3319Z" fill="#101116"/>
</svg>
