<svg width="576" height="389" viewBox="0 0 576 389" fill="none" xmlns="http://www.w3.org/2000/svg">
<rect x="1" y="1" width="574" height="387" rx="13" fill="#14161C" stroke="#23252C" stroke-width="2"/>
<path d="M2 327H574V375C574 381.627 568.627 387 562 387H14C7.3726 387 2 381.627 2 375V327Z" fill="#14161C"/>
<path d="M2 14C2 7.37258 7.37258 2 14 2H562C568.627 2 574 7.37258 574 14V62H2V14Z" fill="#14161C"/>
<g filter="url(#filter0_b_471_2133)">
<rect x="448" y="14" width="110" height="36" rx="8" fill="#181A1F"/>
<rect x="448.5" y="14.5" width="109" height="35" rx="7.5" stroke="#23252C"/>
</g>
<path fill-rule="evenodd" clip-rule="evenodd" d="M539.23 30.2197C539.537 29.9268 540.034 29.9268 540.341 30.2197L544.5 34.1893L548.659 30.2197C548.966 29.9268 549.463 29.9268 549.77 30.2197C550.077 30.5126 550.077 30.9874 549.77 31.2803L545.056 35.7803C544.749 36.0732 544.251 36.0732 543.944 35.7803L539.23 31.2803C538.923 30.9874 538.923 30.5126 539.23 30.2197Z" fill="#6F7380"/>
<path d="M460.861 37V28.2727H464.134C464.804 28.2727 465.366 28.3977 465.821 28.6477C466.278 28.8977 466.624 29.2415 466.857 29.679C467.092 30.1136 467.21 30.608 467.21 31.1619C467.21 31.7216 467.092 32.2187 466.857 32.6534C466.621 33.0881 466.273 33.4304 465.812 33.6804C465.352 33.9276 464.786 34.0511 464.112 34.0511H461.943V32.7514H463.899C464.291 32.7514 464.612 32.6832 464.862 32.5469C465.112 32.4105 465.297 32.223 465.416 31.9844C465.538 31.7457 465.599 31.4716 465.599 31.1619C465.599 30.8523 465.538 30.5795 465.416 30.3438C465.297 30.108 465.111 29.9247 464.858 29.794C464.608 29.6605 464.286 29.5938 463.891 29.5938H462.442V37H460.861ZM468.515 37V30.4545H470.011V31.5455H470.079C470.199 31.1676 470.403 30.8764 470.693 30.6719C470.985 30.4645 471.319 30.3608 471.694 30.3608C471.779 30.3608 471.875 30.3651 471.98 30.3736C472.088 30.3793 472.177 30.3892 472.248 30.4034V31.8224C472.183 31.7997 472.079 31.7798 471.937 31.7628C471.798 31.7429 471.663 31.733 471.532 31.733C471.251 31.733 470.998 31.794 470.774 31.9162C470.552 32.0355 470.377 32.2017 470.25 32.4148C470.122 32.6278 470.058 32.8736 470.058 33.152V37H468.515ZM473.273 37V30.4545H474.816V37H473.273ZM474.049 29.5256C473.804 29.5256 473.594 29.4446 473.418 29.2827C473.242 29.1179 473.154 28.9205 473.154 28.6903C473.154 28.4574 473.242 28.2599 473.418 28.098C473.594 27.9332 473.804 27.8509 474.049 27.8509C474.296 27.8509 474.506 27.9332 474.679 28.098C474.855 28.2599 474.944 28.4574 474.944 28.6903C474.944 28.9205 474.855 29.1179 474.679 29.2827C474.506 29.4446 474.296 29.5256 474.049 29.5256ZM479.257 37.1278C478.604 37.1278 478.043 36.9844 477.574 36.6974C477.108 36.4105 476.749 36.0142 476.496 35.5085C476.246 35 476.121 34.4148 476.121 33.7528C476.121 33.0881 476.249 32.5014 476.504 31.9929C476.76 31.4815 477.121 31.0838 477.587 30.7997C478.055 30.5128 478.609 30.3693 479.249 30.3693C479.78 30.3693 480.25 30.4673 480.659 30.6634C481.071 30.8565 481.399 31.1307 481.643 31.4858C481.888 31.8381 482.027 32.25 482.061 32.7216H480.587C480.527 32.4062 480.385 32.1435 480.161 31.9332C479.939 31.7202 479.642 31.6136 479.27 31.6136C478.955 31.6136 478.678 31.6989 478.439 31.8693C478.2 32.0369 478.014 32.2784 477.881 32.5938C477.75 32.9091 477.685 33.2869 477.685 33.7273C477.685 34.1733 477.75 34.5568 477.881 34.8778C478.011 35.196 478.195 35.4418 478.43 35.6151C478.669 35.7855 478.949 35.8707 479.27 35.8707C479.497 35.8707 479.7 35.8281 479.879 35.7429C480.061 35.6548 480.213 35.5284 480.335 35.3636C480.457 35.1989 480.541 34.9986 480.587 34.7628H482.061C482.024 35.2259 481.888 35.6364 481.652 35.9943C481.416 36.3494 481.095 36.6278 480.689 36.8295C480.283 37.0284 479.805 37.1278 479.257 37.1278ZM486.225 37.1278C485.569 37.1278 485.002 36.9915 484.525 36.7188C484.051 36.4432 483.686 36.054 483.43 35.5511C483.174 35.0455 483.047 34.4503 483.047 33.7656C483.047 33.0923 483.174 32.5014 483.43 31.9929C483.689 31.4815 484.049 31.0838 484.512 30.7997C484.975 30.5128 485.52 30.3693 486.145 30.3693C486.548 30.3693 486.929 30.4347 487.287 30.5653C487.647 30.6932 487.966 30.892 488.241 31.1619C488.52 31.4318 488.738 31.7756 488.897 32.1932C489.056 32.608 489.136 33.1023 489.136 33.6761V34.1491H483.771V33.1094H487.657C487.654 32.8139 487.591 32.5511 487.466 32.321C487.341 32.0881 487.166 31.9048 486.941 31.7713C486.72 31.6378 486.461 31.571 486.166 31.571C485.85 31.571 485.574 31.6477 485.335 31.8011C485.096 31.9517 484.91 32.1506 484.777 32.3977C484.646 32.642 484.579 32.9105 484.576 33.2031V34.1108C484.576 34.4915 484.646 34.8182 484.785 35.0909C484.924 35.3608 485.119 35.5682 485.369 35.7131C485.619 35.8551 485.912 35.9261 486.247 35.9261C486.471 35.9261 486.674 35.8949 486.856 35.8324C487.038 35.767 487.196 35.6719 487.329 35.5469C487.463 35.4219 487.564 35.267 487.632 35.0824L489.072 35.2443C488.981 35.625 488.808 35.9574 488.552 36.2415C488.299 36.5227 487.975 36.7415 487.581 36.8977C487.186 37.0511 486.734 37.1278 486.225 37.1278Z" fill="#EBEBEC"/>
<path d="M495.259 365.22C494.219 365.14 493.326 364.907 492.579 364.52C491.846 364.12 491.246 363.607 490.779 362.98L492.359 361.36C493.239 362.347 494.252 362.907 495.399 363.04V358.9L494.939 358.82C494.286 358.7 493.719 358.52 493.239 358.28C492.772 358.04 492.386 357.747 492.079 357.4C491.786 357.053 491.566 356.667 491.419 356.24C491.286 355.813 491.219 355.353 491.219 354.86C491.219 353.727 491.566 352.813 492.259 352.12C492.966 351.427 493.966 351.007 495.259 350.86V348.78H497.219V350.84C498.086 350.947 498.826 351.167 499.439 351.5C500.066 351.833 500.592 352.267 501.019 352.8L499.439 354.42C498.826 353.687 498.039 353.24 497.079 353.08V356.88L497.579 356.96C498.886 357.2 499.832 357.667 500.419 358.36C501.006 359.04 501.299 359.88 501.299 360.88C501.299 362.013 500.946 362.96 500.239 363.72C499.546 364.467 498.539 364.94 497.219 365.14V367.26H495.259V365.22ZM493.679 354.78C493.679 355.273 493.812 355.653 494.079 355.92C494.346 356.187 494.786 356.393 495.399 356.54V353.02C494.252 353.18 493.679 353.767 493.679 354.78ZM498.859 361.04C498.859 360.507 498.719 360.107 498.439 359.84C498.159 359.56 497.706 359.353 497.079 359.22V363.02C497.679 362.913 498.126 362.693 498.419 362.36C498.712 362.027 498.859 361.587 498.859 361.04ZM503.851 365V362.86H507.691V352.94H507.511L504.471 356.54L502.831 355.16L506.291 351.04H510.311V362.86H513.471V365H503.851ZM520.023 365.22C519.33 365.22 518.837 365.073 518.543 364.78C518.25 364.487 518.103 364.127 518.103 363.7V363.1C518.103 362.673 518.25 362.313 518.543 362.02C518.837 361.727 519.33 361.58 520.023 361.58C520.717 361.58 521.21 361.727 521.503 362.02C521.797 362.313 521.943 362.673 521.943 363.1V363.7C521.943 364.127 521.797 364.487 521.503 364.78C521.21 365.073 520.717 365.22 520.023 365.22ZM532.016 365.24C531.109 365.24 530.322 365.08 529.656 364.76C528.989 364.427 528.436 363.953 527.996 363.34C527.569 362.727 527.249 361.973 527.036 361.08C526.836 360.187 526.736 359.167 526.736 358.02C526.736 356.887 526.836 355.873 527.036 354.98C527.249 354.073 527.569 353.313 527.996 352.7C528.436 352.087 528.989 351.62 529.656 351.3C530.322 350.967 531.109 350.8 532.016 350.8C533.829 350.8 535.162 351.433 536.016 352.7C536.869 353.967 537.296 355.74 537.296 358.02C537.296 360.3 536.869 362.073 536.016 363.34C535.162 364.607 533.829 365.24 532.016 365.24ZM532.016 363.14C532.976 363.14 533.649 362.8 534.036 362.12C534.436 361.427 534.636 360.473 534.636 359.26V356.78C534.636 355.567 534.436 354.62 534.036 353.94C533.649 353.247 532.976 352.9 532.016 352.9C531.056 352.9 530.376 353.247 529.976 353.94C529.589 354.62 529.396 355.567 529.396 356.78V359.26C529.396 360.473 529.589 361.427 529.976 362.12C530.376 362.8 531.056 363.14 532.016 363.14ZM532.016 359.2C531.549 359.2 531.222 359.107 531.036 358.92C530.862 358.733 530.776 358.507 530.776 358.24V357.8C530.776 357.533 530.862 357.307 531.036 357.12C531.222 356.933 531.549 356.84 532.016 356.84C532.482 356.84 532.802 356.933 532.976 357.12C533.162 357.307 533.256 357.533 533.256 357.8V358.24C533.256 358.507 533.162 358.733 532.976 358.92C532.802 359.107 532.482 359.2 532.016 359.2ZM544.008 365.24C543.101 365.24 542.314 365.08 541.648 364.76C540.981 364.427 540.428 363.953 539.988 363.34C539.561 362.727 539.241 361.973 539.028 361.08C538.828 360.187 538.728 359.167 538.728 358.02C538.728 356.887 538.828 355.873 539.028 354.98C539.241 354.073 539.561 353.313 539.988 352.7C540.428 352.087 540.981 351.62 541.648 351.3C542.314 350.967 543.101 350.8 544.008 350.8C545.821 350.8 547.154 351.433 548.008 352.7C548.861 353.967 549.288 355.74 549.288 358.02C549.288 360.3 548.861 362.073 548.008 363.34C547.154 364.607 545.821 365.24 544.008 365.24ZM544.008 363.14C544.968 363.14 545.641 362.8 546.028 362.12C546.428 361.427 546.628 360.473 546.628 359.26V356.78C546.628 355.567 546.428 354.62 546.028 353.94C545.641 353.247 544.968 352.9 544.008 352.9C543.048 352.9 542.368 353.247 541.968 353.94C541.581 354.62 541.388 355.567 541.388 356.78V359.26C541.388 360.473 541.581 361.427 541.968 362.12C542.368 362.8 543.048 363.14 544.008 363.14ZM544.008 359.2C543.541 359.2 543.214 359.107 543.028 358.92C542.854 358.733 542.768 358.507 542.768 358.24V357.8C542.768 357.533 542.854 357.307 543.028 357.12C543.214 356.933 543.541 356.84 544.008 356.84C544.474 356.84 544.794 356.933 544.968 357.12C545.154 357.307 545.248 357.533 545.248 357.8V358.24C545.248 358.507 545.154 358.733 544.968 358.92C544.794 359.107 544.474 359.2 544.008 359.2Z" fill="#EBEBEC"/>
<rect x="2" y="62" width="572" height="265" fill="#101116"/>
<path d="M19.168 27.832H22.64C24.0907 27.832 25.168 28.312 25.872 29.272C26.5867 30.232 26.944 31.6133 26.944 33.416C26.944 35.2293 26.5867 36.616 25.872 37.576C25.168 38.5253 24.0907 39 22.64 39H19.168V27.832ZM22.496 37.32C23.264 37.32 23.8293 37.0693 24.192 36.568C24.5653 36.0667 24.752 35.336 24.752 34.376V32.44C24.752 31.4907 24.5653 30.7653 24.192 30.264C23.8293 29.7627 23.264 29.512 22.496 29.512H21.232V37.32H22.496ZM28.9218 39V27.832H35.9778V29.56H31.0178V32.472H35.8018V34.2H31.0178V37.272H35.9778V39H28.9218ZM38.4355 39V37.432H40.9475V29.4H38.4355V27.832H45.5395V29.4H43.0275V37.432H45.5395V39H38.4355Z" fill="#EBEBEC"/>
<path d="M21.75 362H19.0568V353.273H21.8693C22.7159 353.273 23.4403 353.447 24.0426 353.797C24.6449 354.143 25.1065 354.642 25.4276 355.293C25.7486 355.94 25.9091 356.716 25.9091 357.619C25.9091 358.528 25.7472 359.311 25.4233 359.967C25.0994 360.621 24.6278 361.124 24.0085 361.476C23.3892 361.825 22.6364 362 21.75 362ZM20.1136 361.062H21.6818C22.4034 361.062 23.0014 360.923 23.4759 360.645C23.9503 360.366 24.304 359.97 24.5369 359.456C24.7699 358.942 24.8864 358.33 24.8864 357.619C24.8864 356.915 24.7713 356.308 24.5412 355.8C24.3111 355.288 23.9673 354.896 23.5099 354.624C23.0526 354.348 22.483 354.21 21.8011 354.21H20.1136V361.062ZM27.6818 362V353.273H32.9489V354.21H28.7386V357.159H32.6761V358.097H28.7386V361.062H33.017V362H27.6818ZM35.9105 353.273V362H34.8537V353.273H35.9105ZM41.4045 362V353.273H44.3533C45.038 353.273 45.5977 353.396 46.0323 353.643C46.4698 353.888 46.7937 354.219 47.0039 354.636C47.2141 355.054 47.3192 355.52 47.3192 356.034C47.3192 356.548 47.2141 357.016 47.0039 357.436C46.7965 357.857 46.4755 358.192 46.0408 358.442C45.6062 358.689 45.0494 358.812 44.3704 358.812H42.2567V357.875H44.3363C44.805 357.875 45.1815 357.794 45.4656 357.632C45.7496 357.47 45.9556 357.251 46.0835 356.976C46.2141 356.697 46.2795 356.384 46.2795 356.034C46.2795 355.685 46.2141 355.372 46.0835 355.097C45.9556 354.821 45.7482 354.605 45.4613 354.449C45.1744 354.29 44.7937 354.21 44.3192 354.21H42.4613V362H41.4045ZM48.8853 362V355.455H49.8569V356.443H49.9251C50.0444 356.119 50.2603 355.857 50.5728 355.655C50.8853 355.453 51.2376 355.352 51.6296 355.352C51.7035 355.352 51.7958 355.354 51.9066 355.357C52.0174 355.359 52.1012 355.364 52.158 355.369V356.392C52.1239 356.384 52.0458 356.371 51.9237 356.354C51.8043 356.334 51.6779 356.324 51.5444 356.324C51.2262 356.324 50.9421 356.391 50.6921 356.524C50.445 356.655 50.2489 356.837 50.104 357.07C49.962 357.3 49.891 357.562 49.891 357.858V362H48.8853ZM53.3501 362V355.455H54.3558V362H53.3501ZM53.8615 354.364C53.6655 354.364 53.4964 354.297 53.3544 354.163C53.2152 354.03 53.1456 353.869 53.1456 353.682C53.1456 353.494 53.2152 353.334 53.3544 353.2C53.4964 353.067 53.6655 353 53.8615 353C54.0575 353 54.2251 353.067 54.3643 353.2C54.5064 353.334 54.5774 353.494 54.5774 353.682C54.5774 353.869 54.5064 354.03 54.3643 354.163C54.2251 354.297 54.0575 354.364 53.8615 354.364ZM58.8569 362.136C58.2433 362.136 57.7148 361.991 57.2717 361.702C56.8285 361.412 56.4876 361.013 56.2489 360.504C56.0103 359.996 55.891 359.415 55.891 358.761C55.891 358.097 56.0131 357.51 56.2575 357.001C56.5046 356.49 56.8484 356.091 57.2887 355.804C57.7319 355.514 58.2489 355.369 58.8398 355.369C59.3001 355.369 59.7148 355.455 60.0842 355.625C60.4535 355.795 60.756 356.034 60.9918 356.341C61.2276 356.648 61.3739 357.006 61.4308 357.415H60.4251C60.3484 357.116 60.1779 356.852 59.9137 356.622C59.6523 356.389 59.3001 356.273 58.8569 356.273C58.4648 356.273 58.1211 356.375 57.8256 356.58C57.533 356.781 57.3043 357.067 57.1396 357.436C56.9776 357.803 56.8967 358.233 56.8967 358.727C56.8967 359.233 56.9762 359.673 57.1353 360.048C57.2972 360.423 57.5245 360.714 57.8171 360.922C58.1126 361.129 58.4592 361.233 58.8569 361.233C59.1183 361.233 59.3555 361.188 59.5685 361.097C59.7816 361.006 59.962 360.875 60.1097 360.705C60.2575 360.534 60.3626 360.33 60.4251 360.091H61.4308C61.3739 360.477 61.2333 360.825 61.0089 361.135C60.7873 361.442 60.4933 361.686 60.1268 361.868C59.7631 362.047 59.3398 362.136 58.8569 362.136ZM65.6452 362.136C65.0146 362.136 64.4705 361.997 64.0131 361.719C63.5586 361.438 63.2077 361.045 62.9606 360.543C62.7163 360.037 62.5941 359.449 62.5941 358.778C62.5941 358.108 62.7163 357.517 62.9606 357.006C63.2077 356.491 63.5515 356.091 63.9918 355.804C64.435 355.514 64.9521 355.369 65.543 355.369C65.8839 355.369 66.2205 355.426 66.5529 355.54C66.8853 355.653 67.1879 355.838 67.4606 356.094C67.7333 356.347 67.9506 356.682 68.1126 357.099C68.2745 357.517 68.3555 358.031 68.3555 358.642V359.068H63.31V358.199H67.3327C67.3327 357.83 67.2589 357.5 67.1112 357.21C66.9663 356.92 66.7589 356.692 66.489 356.524C66.2219 356.357 65.9066 356.273 65.543 356.273C65.1424 356.273 64.7958 356.372 64.5032 356.571C64.2134 356.767 63.9904 357.023 63.8342 357.338C63.6779 357.653 63.5998 357.991 63.5998 358.352V358.932C63.5998 359.426 63.685 359.845 63.8555 360.189C64.0288 360.53 64.2688 360.79 64.5756 360.969C64.8825 361.145 65.239 361.233 65.6452 361.233C65.9094 361.233 66.1481 361.196 66.3612 361.122C66.5771 361.045 66.7631 360.932 66.9194 360.781C67.0756 360.628 67.1964 360.437 67.2816 360.21L68.2532 360.483C68.1509 360.812 67.979 361.102 67.7376 361.352C67.4961 361.599 67.1978 361.793 66.8427 361.932C66.4876 362.068 66.0884 362.136 65.6452 362.136Z" fill="#6F7380"/>
<path d="M241.876 282.144C240.852 282.144 240.088 281.772 239.584 281.028C239.088 280.284 238.84 279.212 238.84 277.812C238.84 276.412 239.088 275.34 239.584 274.596C240.088 273.852 240.852 273.48 241.876 273.48C242.26 273.48 242.592 273.532 242.872 273.636C243.152 273.74 243.392 273.88 243.592 274.056C243.792 274.232 243.96 274.432 244.096 274.656C244.232 274.872 244.352 275.092 244.456 275.316L243.592 275.712C243.52 275.528 243.436 275.356 243.34 275.196C243.244 275.028 243.128 274.884 242.992 274.764C242.864 274.636 242.708 274.536 242.524 274.464C242.348 274.392 242.132 274.356 241.876 274.356C241.212 274.356 240.716 274.608 240.388 275.112C240.068 275.616 239.908 276.288 239.908 277.128V278.496C239.908 279.336 240.068 280.008 240.388 280.512C240.716 281.016 241.212 281.268 241.876 281.268C242.132 281.268 242.348 281.232 242.524 281.16C242.708 281.088 242.864 280.992 242.992 280.872C243.128 280.744 243.244 280.6 243.34 280.44C243.436 280.272 243.52 280.096 243.592 279.912L244.456 280.308C244.352 280.54 244.232 280.764 244.096 280.98C243.96 281.196 243.792 281.392 243.592 281.568C243.392 281.744 243.152 281.884 242.872 281.988C242.592 282.092 242.26 282.144 241.876 282.144Z" fill="url(#paint0_linear_471_2133)"/>
<path d="M248.795 282.144C248.363 282.144 247.971 282.068 247.619 281.916C247.275 281.764 246.979 281.548 246.731 281.268C246.491 280.98 246.307 280.64 246.179 280.248C246.051 279.848 245.987 279.4 245.987 278.904C245.987 278.416 246.051 277.972 246.179 277.572C246.307 277.172 246.491 276.832 246.731 276.552C246.979 276.264 247.275 276.044 247.619 275.892C247.971 275.74 248.363 275.664 248.795 275.664C249.227 275.664 249.615 275.74 249.959 275.892C250.311 276.044 250.607 276.264 250.847 276.552C251.095 276.832 251.283 277.172 251.411 277.572C251.539 277.972 251.603 278.416 251.603 278.904C251.603 279.4 251.539 279.848 251.411 280.248C251.283 280.64 251.095 280.98 250.847 281.268C250.607 281.548 250.311 281.764 249.959 281.916C249.615 282.068 249.227 282.144 248.795 282.144ZM248.795 281.316C249.331 281.316 249.763 281.156 250.091 280.836C250.419 280.516 250.583 280.02 250.583 279.348V278.46C250.583 277.788 250.419 277.292 250.091 276.972C249.763 276.652 249.331 276.492 248.795 276.492C248.259 276.492 247.827 276.652 247.499 276.972C247.171 277.292 247.007 277.788 247.007 278.46V279.348C247.007 280.02 247.171 280.516 247.499 280.836C247.827 281.156 248.259 281.316 248.795 281.316Z" fill="url(#paint1_linear_471_2133)"/>
<path d="M253.039 282V275.808H253.927V276.528H253.975C254.071 276.288 254.207 276.084 254.383 275.916C254.559 275.748 254.819 275.664 255.163 275.664C255.523 275.664 255.791 275.756 255.967 275.94C256.143 276.116 256.251 276.348 256.291 276.636H256.327C256.439 276.356 256.599 276.124 256.807 275.94C257.015 275.756 257.303 275.664 257.671 275.664C258.175 275.664 258.511 275.84 258.679 276.192C258.855 276.544 258.943 277.048 258.943 277.704V282H258.055V277.86C258.055 277.332 257.999 276.968 257.887 276.768C257.783 276.56 257.587 276.456 257.299 276.456C257.043 276.456 256.835 276.54 256.675 276.708C256.515 276.868 256.435 277.116 256.435 277.452V282H255.547V277.86C255.547 277.332 255.491 276.968 255.379 276.768C255.275 276.56 255.083 276.456 254.803 276.456C254.547 276.456 254.335 276.54 254.167 276.708C254.007 276.868 253.927 277.116 253.927 277.452V282H253.039Z" fill="url(#paint2_linear_471_2133)"/>
<path d="M263.57 274.44C263.29 274.44 263.094 274.384 262.982 274.272C262.87 274.152 262.814 274.004 262.814 273.828V273.636C262.814 273.46 262.87 273.316 262.982 273.204C263.094 273.084 263.29 273.024 263.57 273.024C263.85 273.024 264.046 273.084 264.158 273.204C264.27 273.316 264.326 273.46 264.326 273.636V273.828C264.326 274.004 264.27 274.152 264.158 274.272C264.046 274.384 263.85 274.44 263.57 274.44ZM260.858 281.184H263.09V276.624H260.858V275.808H264.05V281.184H266.138V282H260.858V281.184Z" fill="url(#paint3_linear_471_2133)"/>
<path d="M267.957 282V275.808H268.917V276.816H268.965C269.029 276.664 269.109 276.52 269.205 276.384C269.301 276.24 269.417 276.116 269.553 276.012C269.697 275.908 269.865 275.824 270.057 275.76C270.249 275.696 270.473 275.664 270.729 275.664C271.377 275.664 271.897 275.872 272.289 276.288C272.681 276.696 272.877 277.276 272.877 278.028V282H271.917V278.196C271.917 277.628 271.793 277.208 271.545 276.936C271.297 276.656 270.933 276.516 270.453 276.516C270.261 276.516 270.073 276.54 269.889 276.588C269.705 276.636 269.541 276.708 269.397 276.804C269.253 276.9 269.137 277.024 269.049 277.176C268.961 277.328 268.917 277.504 268.917 277.704V282H267.957Z" fill="url(#paint4_linear_471_2133)"/>
<path d="M280.709 282.708C280.709 283.332 280.449 283.792 279.929 284.088C279.409 284.392 278.629 284.544 277.589 284.544C276.589 284.544 275.869 284.412 275.429 284.148C274.997 283.884 274.781 283.504 274.781 283.008C274.781 282.672 274.869 282.412 275.045 282.228C275.221 282.044 275.469 281.908 275.789 281.82V281.676C275.613 281.588 275.477 281.476 275.381 281.34C275.285 281.204 275.237 281.032 275.237 280.824C275.237 280.504 275.341 280.264 275.549 280.104C275.765 279.944 276.033 279.824 276.353 279.744V279.696C275.969 279.528 275.669 279.28 275.453 278.952C275.245 278.624 275.141 278.24 275.141 277.8C275.141 277.488 275.197 277.2 275.309 276.936C275.421 276.672 275.581 276.448 275.789 276.264C276.005 276.072 276.261 275.924 276.557 275.82C276.853 275.716 277.181 275.664 277.541 275.664C278.005 275.664 278.413 275.748 278.765 275.916V275.808C278.765 275.568 278.821 275.368 278.933 275.208C279.045 275.048 279.237 274.968 279.509 274.968H280.649V275.808H279.257V276.228C279.481 276.42 279.653 276.648 279.773 276.912C279.893 277.176 279.953 277.472 279.953 277.8C279.953 278.112 279.893 278.4 279.773 278.664C279.661 278.928 279.501 279.156 279.293 279.348C279.085 279.532 278.829 279.676 278.525 279.78C278.229 279.884 277.901 279.936 277.541 279.936C277.437 279.936 277.337 279.932 277.241 279.924C277.145 279.916 277.049 279.904 276.953 279.888C276.857 279.904 276.757 279.932 276.653 279.972C276.549 280.004 276.453 280.052 276.365 280.116C276.277 280.172 276.205 280.24 276.149 280.32C276.093 280.4 276.065 280.492 276.065 280.596C276.065 280.78 276.157 280.904 276.341 280.968C276.525 281.024 276.765 281.052 277.061 281.052H278.429C279.229 281.052 279.809 281.204 280.169 281.508C280.529 281.804 280.709 282.204 280.709 282.708ZM279.809 282.756C279.809 282.508 279.709 282.308 279.509 282.156C279.309 282.012 278.961 281.94 278.465 281.94H276.317C275.901 282.108 275.693 282.388 275.693 282.78C275.693 283.052 275.801 283.284 276.017 283.476C276.233 283.676 276.593 283.776 277.097 283.776H278.033C278.593 283.776 279.029 283.688 279.341 283.512C279.653 283.344 279.809 283.092 279.809 282.756ZM277.541 279.192C278.021 279.192 278.373 279.08 278.597 278.856C278.829 278.632 278.945 278.336 278.945 277.968V277.62C278.945 277.252 278.829 276.96 278.597 276.744C278.373 276.52 278.021 276.408 277.541 276.408C277.061 276.408 276.709 276.52 276.485 276.744C276.261 276.96 276.149 277.252 276.149 277.62V277.968C276.149 278.336 276.261 278.632 276.485 278.856C276.709 279.08 277.061 279.192 277.541 279.192Z" fill="url(#paint5_linear_471_2133)"/>
<path d="M291.943 282.144C291.191 282.144 290.575 282.008 290.095 281.736C289.615 281.456 289.219 281.1 288.907 280.668L289.639 280.068C289.967 280.476 290.311 280.78 290.671 280.98C291.039 281.18 291.475 281.28 291.979 281.28C292.587 281.28 293.051 281.14 293.371 280.86C293.691 280.58 293.851 280.188 293.851 279.684C293.851 279.276 293.735 278.96 293.503 278.736C293.271 278.504 292.867 278.34 292.291 278.244L291.355 278.088C290.947 278.016 290.603 277.908 290.323 277.764C290.051 277.62 289.831 277.448 289.663 277.248C289.495 277.04 289.375 276.816 289.303 276.576C289.231 276.328 289.195 276.072 289.195 275.808C289.195 275.04 289.447 274.46 289.951 274.068C290.455 273.676 291.135 273.48 291.991 273.48C292.663 273.48 293.227 273.592 293.683 273.816C294.147 274.04 294.519 274.356 294.799 274.764L294.091 275.376C293.859 275.072 293.579 274.824 293.251 274.632C292.923 274.44 292.499 274.344 291.979 274.344C291.411 274.344 290.975 274.464 290.671 274.704C290.367 274.944 290.215 275.304 290.215 275.784C290.215 276.16 290.327 276.468 290.551 276.708C290.783 276.94 291.195 277.108 291.787 277.212L292.687 277.368C293.095 277.44 293.439 277.548 293.719 277.692C293.999 277.836 294.223 278.008 294.391 278.208C294.567 278.408 294.691 278.632 294.763 278.88C294.835 279.128 294.871 279.388 294.871 279.66C294.871 280.436 294.615 281.044 294.103 281.484C293.599 281.924 292.879 282.144 291.943 282.144Z" fill="url(#paint6_linear_471_2133)"/>
<path d="M299.162 282.144C298.73 282.144 298.338 282.068 297.986 281.916C297.642 281.764 297.346 281.548 297.098 281.268C296.858 280.98 296.674 280.64 296.546 280.248C296.418 279.848 296.354 279.4 296.354 278.904C296.354 278.416 296.418 277.972 296.546 277.572C296.674 277.172 296.858 276.832 297.098 276.552C297.346 276.264 297.642 276.044 297.986 275.892C298.338 275.74 298.73 275.664 299.162 275.664C299.594 275.664 299.982 275.74 300.326 275.892C300.678 276.044 300.974 276.264 301.214 276.552C301.462 276.832 301.65 277.172 301.778 277.572C301.906 277.972 301.97 278.416 301.97 278.904C301.97 279.4 301.906 279.848 301.778 280.248C301.65 280.64 301.462 280.98 301.214 281.268C300.974 281.548 300.678 281.764 300.326 281.916C299.982 282.068 299.594 282.144 299.162 282.144ZM299.162 281.316C299.698 281.316 300.13 281.156 300.458 280.836C300.786 280.516 300.95 280.02 300.95 279.348V278.46C300.95 277.788 300.786 277.292 300.458 276.972C300.13 276.652 299.698 276.492 299.162 276.492C298.626 276.492 298.194 276.652 297.866 276.972C297.538 277.292 297.374 277.788 297.374 278.46V279.348C297.374 280.02 297.538 280.516 297.866 280.836C298.194 281.156 298.626 281.316 299.162 281.316Z" fill="url(#paint7_linear_471_2133)"/>
<path d="M306.358 282.144C305.926 282.144 305.534 282.068 305.182 281.916C304.838 281.764 304.542 281.548 304.294 281.268C304.054 280.98 303.87 280.64 303.742 280.248C303.614 279.848 303.55 279.4 303.55 278.904C303.55 278.416 303.614 277.972 303.742 277.572C303.87 277.172 304.054 276.832 304.294 276.552C304.542 276.264 304.838 276.044 305.182 275.892C305.534 275.74 305.926 275.664 306.358 275.664C306.79 275.664 307.178 275.74 307.522 275.892C307.874 276.044 308.17 276.264 308.41 276.552C308.658 276.832 308.846 277.172 308.974 277.572C309.102 277.972 309.166 278.416 309.166 278.904C309.166 279.4 309.102 279.848 308.974 280.248C308.846 280.64 308.658 280.98 308.41 281.268C308.17 281.548 307.874 281.764 307.522 281.916C307.178 282.068 306.79 282.144 306.358 282.144ZM306.358 281.316C306.894 281.316 307.326 281.156 307.654 280.836C307.982 280.516 308.146 280.02 308.146 279.348V278.46C308.146 277.788 307.982 277.292 307.654 276.972C307.326 276.652 306.894 276.492 306.358 276.492C305.822 276.492 305.39 276.652 305.062 276.972C304.734 277.292 304.57 277.788 304.57 278.46V279.348C304.57 280.02 304.734 280.516 305.062 280.836C305.39 281.156 305.822 281.316 306.358 281.316Z" fill="url(#paint8_linear_471_2133)"/>
<path d="M311.129 282V275.808H312.089V276.816H312.137C312.201 276.664 312.281 276.52 312.377 276.384C312.473 276.24 312.589 276.116 312.725 276.012C312.869 275.908 313.037 275.824 313.229 275.76C313.421 275.696 313.645 275.664 313.901 275.664C314.549 275.664 315.069 275.872 315.461 276.288C315.853 276.696 316.049 277.276 316.049 278.028V282H315.089V278.196C315.089 277.628 314.965 277.208 314.717 276.936C314.469 276.656 314.105 276.516 313.625 276.516C313.433 276.516 313.245 276.54 313.061 276.588C312.877 276.636 312.713 276.708 312.569 276.804C312.425 276.9 312.309 277.024 312.221 277.176C312.133 277.328 312.089 277.504 312.089 277.704V282H311.129Z" fill="url(#paint9_linear_471_2133)"/>
<path d="M320.748 282.108C320.42 282.108 320.188 282.04 320.052 281.904C319.924 281.768 319.86 281.596 319.86 281.388V281.172C319.86 280.964 319.924 280.792 320.052 280.656C320.188 280.52 320.42 280.452 320.748 280.452C321.076 280.452 321.304 280.52 321.432 280.656C321.568 280.792 321.636 280.964 321.636 281.172V281.388C321.636 281.596 321.568 281.768 321.432 281.904C321.304 282.04 321.076 282.108 320.748 282.108Z" fill="url(#paint10_linear_471_2133)"/>
<path d="M327.944 282.108C327.616 282.108 327.384 282.04 327.248 281.904C327.12 281.768 327.056 281.596 327.056 281.388V281.172C327.056 280.964 327.12 280.792 327.248 280.656C327.384 280.52 327.616 280.452 327.944 280.452C328.272 280.452 328.5 280.52 328.628 280.656C328.764 280.792 328.832 280.964 328.832 281.172V281.388C328.832 281.596 328.764 281.768 328.628 281.904C328.5 282.04 328.272 282.108 327.944 282.108Z" fill="url(#paint11_linear_471_2133)"/>
<path d="M335.139 282.108C334.811 282.108 334.579 282.04 334.443 281.904C334.315 281.768 334.251 281.596 334.251 281.388V281.172C334.251 280.964 334.315 280.792 334.443 280.656C334.579 280.52 334.811 280.452 335.139 280.452C335.467 280.452 335.695 280.52 335.823 280.656C335.959 280.792 336.027 280.964 336.027 281.172V281.388C336.027 281.596 335.959 281.768 335.823 281.904C335.695 282.04 335.467 282.108 335.139 282.108Z" fill="url(#paint12_linear_471_2133)"/>
<path d="M226.512 253.192C225.146 253.192 224.128 252.696 223.456 251.704C222.794 250.712 222.464 249.283 222.464 247.416C222.464 245.549 222.794 244.12 223.456 243.128C224.128 242.136 225.146 241.64 226.512 241.64C227.024 241.64 227.466 241.709 227.84 241.848C228.213 241.987 228.533 242.173 228.8 242.408C229.066 242.643 229.29 242.909 229.472 243.208C229.653 243.496 229.813 243.789 229.952 244.088L228.8 244.616C228.704 244.371 228.592 244.141 228.464 243.928C228.336 243.704 228.181 243.512 228 243.352C227.829 243.181 227.621 243.048 227.376 242.952C227.141 242.856 226.853 242.808 226.512 242.808C225.626 242.808 224.965 243.144 224.528 243.816C224.101 244.488 223.888 245.384 223.888 246.504V248.328C223.888 249.448 224.101 250.344 224.528 251.016C224.965 251.688 225.626 252.024 226.512 252.024C226.853 252.024 227.141 251.976 227.376 251.88C227.621 251.784 227.829 251.656 228 251.496C228.181 251.325 228.336 251.133 228.464 250.92C228.592 250.696 228.704 250.461 228.8 250.216L229.952 250.744C229.813 251.053 229.653 251.352 229.472 251.64C229.29 251.928 229.066 252.189 228.8 252.424C228.533 252.659 228.213 252.845 227.84 252.984C227.466 253.123 227.024 253.192 226.512 253.192Z" fill="#2E2F33"/>
<path d="M235.737 253.192C235.161 253.192 234.639 253.091 234.169 252.888C233.711 252.685 233.316 252.397 232.985 252.024C232.665 251.64 232.42 251.187 232.249 250.664C232.079 250.131 231.993 249.533 231.993 248.872C231.993 248.221 232.079 247.629 232.249 247.096C232.42 246.563 232.665 246.109 232.985 245.736C233.316 245.352 233.711 245.059 234.169 244.856C234.639 244.653 235.161 244.552 235.737 244.552C236.313 244.552 236.831 244.653 237.289 244.856C237.759 245.059 238.153 245.352 238.473 245.736C238.804 246.109 239.055 246.563 239.225 247.096C239.396 247.629 239.481 248.221 239.481 248.872C239.481 249.533 239.396 250.131 239.225 250.664C239.055 251.187 238.804 251.64 238.473 252.024C238.153 252.397 237.759 252.685 237.289 252.888C236.831 253.091 236.313 253.192 235.737 253.192ZM235.737 252.088C236.452 252.088 237.028 251.875 237.465 251.448C237.903 251.021 238.121 250.36 238.121 249.464V248.28C238.121 247.384 237.903 246.723 237.465 246.296C237.028 245.869 236.452 245.656 235.737 245.656C235.023 245.656 234.447 245.869 234.009 246.296C233.572 246.723 233.353 247.384 233.353 248.28V249.464C233.353 250.36 233.572 251.021 234.009 251.448C234.447 251.875 235.023 252.088 235.737 252.088Z" fill="#2E2F33"/>
<path d="M247.331 251.656H247.267C246.734 252.68 245.886 253.192 244.723 253.192C243.71 253.192 242.915 252.813 242.339 252.056C241.774 251.299 241.491 250.237 241.491 248.872C241.491 247.507 241.774 246.445 242.339 245.688C242.915 244.931 243.71 244.552 244.723 244.552C245.886 244.552 246.734 245.064 247.267 246.088H247.331V241.16H248.611V253H247.331V251.656ZM245.219 252.056C245.507 252.056 245.779 252.019 246.035 251.944C246.291 251.869 246.515 251.763 246.707 251.624C246.899 251.475 247.049 251.299 247.155 251.096C247.273 250.883 247.331 250.637 247.331 250.36V247.384C247.331 247.107 247.273 246.867 247.155 246.664C247.049 246.451 246.899 246.275 246.707 246.136C246.515 245.987 246.291 245.875 246.035 245.8C245.779 245.725 245.507 245.688 245.219 245.688C244.473 245.688 243.891 245.917 243.475 246.376C243.07 246.824 242.867 247.421 242.867 248.168V249.576C242.867 250.323 243.07 250.925 243.475 251.384C243.891 251.832 244.473 252.056 245.219 252.056Z" fill="#2E2F33"/>
<path d="M255.069 253.192C254.472 253.192 253.933 253.091 253.453 252.888C252.984 252.685 252.578 252.397 252.237 252.024C251.906 251.64 251.65 251.187 251.469 250.664C251.288 250.131 251.197 249.539 251.197 248.888C251.197 248.227 251.288 247.629 251.469 247.096C251.661 246.563 251.922 246.109 252.253 245.736C252.584 245.352 252.978 245.059 253.437 244.856C253.906 244.653 254.424 244.552 254.989 244.552C255.544 244.552 256.045 244.653 256.493 244.856C256.952 245.059 257.341 245.341 257.661 245.704C257.981 246.056 258.226 246.477 258.397 246.968C258.568 247.459 258.653 247.997 258.653 248.584V249.192H252.541V249.576C252.541 249.939 252.6 250.275 252.717 250.584C252.834 250.893 253 251.16 253.213 251.384C253.437 251.608 253.704 251.784 254.013 251.912C254.333 252.029 254.685 252.088 255.069 252.088C255.624 252.088 256.104 251.96 256.509 251.704C256.914 251.448 257.224 251.096 257.437 250.648L258.381 251.288C258.136 251.843 257.725 252.301 257.149 252.664C256.584 253.016 255.89 253.192 255.069 253.192ZM254.989 245.608C254.637 245.608 254.312 245.672 254.013 245.8C253.714 245.928 253.453 246.104 253.229 246.328C253.016 246.552 252.845 246.819 252.717 247.128C252.6 247.427 252.541 247.757 252.541 248.12V248.232H257.277V248.056C257.277 247.693 257.218 247.363 257.101 247.064C256.994 246.765 256.84 246.509 256.637 246.296C256.445 246.072 256.205 245.901 255.917 245.784C255.64 245.667 255.33 245.608 254.989 245.608Z" fill="#2E2F33"/>
<path d="M260.951 251.912H263.367V245.832H260.951V244.744H264.647V246.824H264.727C264.897 246.173 265.217 245.667 265.687 245.304C266.167 244.931 266.775 244.744 267.511 244.744H268.663V246.024H267.111C266.375 246.024 265.777 246.237 265.319 246.664C264.871 247.091 264.647 247.651 264.647 248.344V251.912H267.847V253H260.951V251.912Z" fill="#2E2F33"/>
<path d="M274.208 253.192C273.344 253.192 272.598 253.048 271.968 252.76C271.35 252.461 270.822 252.067 270.384 251.576L271.248 250.824C271.643 251.24 272.075 251.56 272.544 251.784C273.014 252.008 273.579 252.12 274.24 252.12C274.88 252.12 275.403 252.008 275.808 251.784C276.224 251.549 276.432 251.187 276.432 250.696C276.432 250.483 276.39 250.307 276.304 250.168C276.23 250.019 276.123 249.901 275.984 249.816C275.846 249.731 275.691 249.667 275.52 249.624C275.35 249.571 275.168 249.528 274.976 249.496L273.68 249.304C273.392 249.261 273.078 249.203 272.736 249.128C272.406 249.053 272.102 248.936 271.824 248.776C271.547 248.605 271.312 248.381 271.12 248.104C270.939 247.827 270.848 247.464 270.848 247.016C270.848 246.6 270.928 246.243 271.088 245.944C271.259 245.635 271.494 245.379 271.792 245.176C272.091 244.963 272.443 244.808 272.848 244.712C273.254 244.605 273.696 244.552 274.176 244.552C274.923 244.552 275.568 244.669 276.112 244.904C276.667 245.139 277.142 245.464 277.536 245.88L276.704 246.664C276.608 246.547 276.486 246.429 276.336 246.312C276.198 246.184 276.022 246.072 275.808 245.976C275.606 245.869 275.366 245.784 275.088 245.72C274.811 245.656 274.491 245.624 274.128 245.624C273.478 245.624 272.976 245.736 272.624 245.96C272.283 246.184 272.112 246.509 272.112 246.936C272.112 247.149 272.15 247.331 272.224 247.48C272.31 247.619 272.422 247.731 272.56 247.816C272.699 247.901 272.854 247.971 273.024 248.024C273.206 248.067 273.387 248.104 273.568 248.136L274.864 248.328C275.163 248.371 275.478 248.429 275.808 248.504C276.139 248.579 276.443 248.701 276.72 248.872C276.998 249.032 277.227 249.251 277.408 249.528C277.6 249.805 277.696 250.168 277.696 250.616C277.696 251.437 277.376 252.072 276.736 252.52C276.107 252.968 275.264 253.192 274.208 253.192Z" fill="#2E2F33"/>
<path d="M296.42 253C295.919 253 295.561 252.872 295.348 252.616C295.135 252.36 295.001 252.04 294.948 251.656H294.868C294.687 252.136 294.393 252.515 293.988 252.792C293.593 253.059 293.06 253.192 292.388 253.192C291.524 253.192 290.836 252.968 290.324 252.52C289.812 252.072 289.556 251.459 289.556 250.68C289.556 249.912 289.833 249.32 290.388 248.904C290.953 248.488 291.86 248.28 293.108 248.28H294.868V247.464C294.868 246.856 294.697 246.403 294.356 246.104C294.015 245.795 293.529 245.64 292.9 245.64C292.345 245.64 291.892 245.752 291.54 245.976C291.188 246.189 290.905 246.483 290.692 246.856L289.828 246.216C289.935 246.003 290.079 245.795 290.26 245.592C290.441 245.389 290.665 245.213 290.932 245.064C291.199 244.904 291.503 244.781 291.844 244.696C292.185 244.6 292.564 244.552 292.98 244.552C293.951 244.552 294.719 244.797 295.284 245.288C295.86 245.779 296.148 246.461 296.148 247.336V251.88H297.3V253H296.42ZM292.612 252.12C292.943 252.12 293.241 252.083 293.508 252.008C293.785 251.923 294.025 251.816 294.228 251.688C294.431 251.549 294.585 251.389 294.692 251.208C294.809 251.016 294.868 250.813 294.868 250.6V249.24H293.108C292.34 249.24 291.78 249.347 291.428 249.56C291.076 249.773 290.9 250.083 290.9 250.488V250.824C290.9 251.251 291.049 251.576 291.348 251.8C291.657 252.013 292.079 252.12 292.612 252.12Z" fill="#2E2F33"/>
<path d="M303.294 253C302.664 253 302.2 252.824 301.902 252.472C301.614 252.12 301.47 251.667 301.47 251.112V245.832H298.718V244.744H300.766C301.043 244.744 301.235 244.691 301.342 244.584C301.459 244.467 301.518 244.269 301.518 243.992V241.832H302.75V244.744H306.51V245.832H302.75V251.912H306.51V253H303.294Z" fill="#2E2F33"/>
<path d="M317.761 244.744H318.897L319.841 251.88H319.985L321.393 244.744H322.801L324.209 251.88H324.353L325.297 244.744H326.401L325.137 253H323.473L322.161 246.088H322.033L320.689 253H319.025L317.761 244.744Z" fill="#2E2F33"/>
<path d="M331.675 253.192C331.099 253.192 330.576 253.091 330.107 252.888C329.648 252.685 329.254 252.397 328.923 252.024C328.603 251.64 328.358 251.187 328.187 250.664C328.016 250.131 327.931 249.533 327.931 248.872C327.931 248.221 328.016 247.629 328.187 247.096C328.358 246.563 328.603 246.109 328.923 245.736C329.254 245.352 329.648 245.059 330.107 244.856C330.576 244.653 331.099 244.552 331.675 244.552C332.251 244.552 332.768 244.653 333.227 244.856C333.696 245.059 334.091 245.352 334.411 245.736C334.742 246.109 334.992 246.563 335.163 247.096C335.334 247.629 335.419 248.221 335.419 248.872C335.419 249.533 335.334 250.131 335.163 250.664C334.992 251.187 334.742 251.64 334.411 252.024C334.091 252.397 333.696 252.685 333.227 252.888C332.768 253.091 332.251 253.192 331.675 253.192ZM331.675 252.088C332.39 252.088 332.966 251.875 333.403 251.448C333.84 251.021 334.059 250.36 334.059 249.464V248.28C334.059 247.384 333.84 246.723 333.403 246.296C332.966 245.869 332.39 245.656 331.675 245.656C330.96 245.656 330.384 245.869 329.947 246.296C329.51 246.723 329.291 247.384 329.291 248.28V249.464C329.291 250.36 329.51 251.021 329.947 251.448C330.384 251.875 330.96 252.088 331.675 252.088Z" fill="#2E2F33"/>
<path d="M337.701 251.912H340.117V245.832H337.701V244.744H341.397V246.824H341.477C341.647 246.173 341.967 245.667 342.437 245.304C342.917 244.931 343.525 244.744 344.261 244.744H345.413V246.024H343.861C343.125 246.024 342.527 246.237 342.069 246.664C341.621 247.091 341.397 247.651 341.397 248.344V251.912H344.597V253H337.701V251.912Z" fill="#2E2F33"/>
<path d="M347.742 241.16H349.022V248.632H349.086L350.527 247.272L353.279 244.744H354.846L351.423 247.976L355.247 253H353.663L350.446 248.712L349.022 250.008V253H347.742V241.16Z" fill="#2E2F33"/>
<path d="M408 203H168L158 220H418L408 203Z" fill="#14161C" stroke="#181A1F"/>
<path d="M292.825 147.735L292.487 150.004L292.288 151.346L292.825 156.794L291.771 158.227L290.192 159.989L283.879 165.257L279.084 165.69L275.858 158.897L271.95 154.253L272.812 142.637L273.288 138.988L273.787 135.2L274.04 133.28C274.04 133.28 277.001 138.464 278.396 140.973C278.816 141.724 279.09 142.236 279.106 142.302C279.122 142.368 280.419 142.933 282.2 143.631C283.147 144.007 284.223 144.433 285.325 144.862C288.958 146.267 292.825 147.735 292.825 147.735Z" fill="#14161C" stroke="#23252C" stroke-width="0.8"/>
<path opacity="0.5" d="M292.825 147.735L292.487 150.004L289.299 151.213L283.933 149.935L279.065 146.074L275.684 142.832L273.31 138.988L273.809 135.2L274.441 135.436L276.811 139.856L278.424 140.979L282.222 143.631L283.933 144.824L285.347 144.862C288.958 146.267 292.825 147.735 292.825 147.735Z" fill="#14161C" stroke="#23252C" stroke-width="0.8"/>
<path d="M305.786 107.705L306.316 109.886V112.194L306.212 115.177L305.944 116.72L305.581 119.018L304.918 120.843L304.407 122.907L304.441 124.195L304.498 125.938L303.529 128.021L303.494 130.155L303.154 132.548L302.74 133.397L302.339 134.786L302.225 135.831L302.09 136.778L301.534 138.672L300.369 140.711L299.688 141.709L298.741 142.772L298.134 143.375L297.986 143.524L297.355 144.414L296.408 145.844L295.312 147.037L294.129 148.249L293.15 148.798L292.667 149.067L291.338 149.3H291.228L289.353 149.493L287.938 149.376C287.938 149.376 286.613 149.24 286.36 149.019C286.089 148.815 285.798 148.639 285.492 148.492L284.147 147.899L282.43 146.93L281.672 146.099L280.571 145.598L280.217 145.437L278.68 144.057L276.59 141.797C276.59 141.797 276.006 140.923 275.747 140.616C275.489 140.31 274.665 139.587 274.665 139.587L274.28 138.388L273.964 137.081C273.912 136.814 273.877 136.544 273.86 136.273L273.689 135.206L273.49 132.112L273.386 130.935L273.307 129.476L272.152 129.666L271.871 129.644L271.088 129.095L270.615 128.286L270.204 127.74C270.204 127.74 269.62 127.235 269.535 126.885L269.32 126.014L269.128 125.228L269.103 124.369C269.1 124.269 269.089 124.17 269.071 124.072L268.916 123.217L268.762 122.33L268.651 121.8C268.608 121.592 268.599 121.379 268.623 121.168V121.168C268.658 120.879 268.629 120.586 268.538 120.31L268.364 119.782C268.254 119.449 268.234 119.093 268.307 118.75L268.383 118.397L268.49 117.929C268.538 117.721 268.619 117.522 268.73 117.339L269.223 116.528L269.33 116.594L270.353 116.623L270.697 117.276L271.827 118.109L272.506 117.478L272.367 115.016L272.449 111.575L273.228 108.336L275.337 104.864L277.941 102.654L280.82 101.954L286.029 100.959L290.997 100.129L294.81 99.845C294.81 99.845 296.856 100.271 297.55 100.476C298.245 100.681 299.877 101.294 300.246 101.297C300.616 101.3 302.961 102.56 302.961 102.56L304.429 105.158L305.376 106.404L305.786 107.705Z" fill="#14161C" stroke="#23252C" stroke-width="0.8"/>
<path d="M305.177 120.351L306.686 115.423L307.38 110.688C307.38 110.688 307.38 108.22 307.308 107.872C307.235 107.525 306.799 105.284 306.799 105.284L306.547 103.743L305.316 100.719L296.859 96.8683L291.897 96.7231L279.333 100.284L274.014 104.296L271.697 108.434L271.54 110.814L271.577 114.009L271.922 117.683L272.938 120.085C272.887 120.492 272.904 120.903 272.988 121.304C273.05 121.81 273.008 122.323 272.865 122.813L272.619 125.338L273.475 128.334L273.743 126.913L273.411 125.436V123.226L274.409 118.406L274.699 117.143L274.655 115.249L274.608 114.107L275.747 112.904L276.48 112.311L277.143 110.669L278.09 108.27L278.743 106.215C279.021 105.786 279.338 105.383 279.69 105.012C279.93 104.861 282.13 103.077 282.13 103.077L282.973 102.361L286.59 101.663L290.129 101.584L294.094 101.543L298.115 102.686L300.533 104.264L303.059 105.682L303.826 106.929L304.634 108.349L305 111.171L305.338 113.122L305.404 114.909L305.291 117.292L305.177 120.351Z" fill="#14161C" stroke="#23252C" stroke-width="0.8"/>
<path d="M307.765 102.718L307.159 104.725C307.159 104.725 306.165 105.726 305.985 105.836C305.805 105.947 304.606 106.379 304.606 106.379L302.355 105.899L298.567 105.035L296.619 104.943L293.106 105.199L288.08 108.283L284.214 109.637L280.697 109.877L276.748 108.365L273.869 107.279L272.685 107.49L271.716 108.437L270.968 106.127L271.464 104.495C271.581 104.122 272.616 101.6 272.616 101.6L273.976 98.1625L275.902 95.9055L281.789 92.4048L286.385 90.6592C286.385 90.6592 290.685 89.9552 290.978 90.0278C291.272 90.1004 296.345 90.6402 296.345 90.6402L299.116 90.7223L301.174 90.9748L302.866 93.115L303.962 94.223L305 93.9705L306.064 94.9491L306.787 95.9434L307.844 98.2983L308.191 100.003L307.765 102.718Z" fill="#14161C" stroke="#23252C" stroke-width="0.8"/>
<path d="M288.958 118.643L290.372 118.76L291.392 119.157L291.483 120.474L291.142 120.963L286.265 119.337L283.544 118.798L281.77 118.539L280.88 118.479L279.561 118.57L278.876 118.599L278.068 118.703L279.097 118.176L280.438 117.617C280.438 117.617 281.42 117.282 281.549 117.251C281.679 117.219 283.128 117.14 283.128 117.14C283.128 117.14 284.261 117.235 284.554 117.301" fill="#1B1D24"/>
<path d="M294.659 121.178L294.896 119.874C295.004 119.724 295.151 119.607 295.322 119.536L297.077 119.154L298.971 118.643C298.971 118.643 300.136 118.867 300.278 118.88C300.42 118.892 301.095 118.82 301.095 118.82L301.866 118.952L302.983 119.745L304.126 120.06L304.287 120.527L304.315 121.029L303.368 120.524L301.746 120.319L300.483 120.398L299.015 120.433H297.674L295.997 120.748L294.659 121.178Z" fill="#1B1D24"/>
<path d="M307.611 124.006L305.3 119.4L305.193 120.152L306.698 124.044C306.698 124.044 306.159 123.87 306.067 123.709C305.737 123.366 305.389 123.039 305.025 122.731L303.848 122.226C303.848 122.226 302.27 121.809 301.875 121.721C301.293 121.646 300.707 121.604 300.12 121.594L298.649 121.894L296.717 122.541L295.713 122.971L294.451 123.34C294.174 123.235 293.888 123.161 293.595 123.119C293.223 123.067 292.856 122.991 292.493 122.892L291.739 122.832H290.505C290.505 122.832 290 122.279 289.899 122.118C289.798 121.957 288.743 121.171 288.513 120.979C288.004 120.703 287.477 120.463 286.935 120.259L284.993 119.871L282.509 119.798L280.811 120.152L279.469 120.467L277.496 120.701L271.982 116.859L271.934 117.671L275.571 121.459L276.625 122.494L277.954 123.649L278.124 124.596L278.377 125.644L278.693 126.677L279.28 127.826L280.044 128.687L281.13 129.593L282.2 130.193L283.387 130.509L285.322 130.345H286.306L287.749 129.685L288.627 128.738L288.813 128.507C289.005 128.277 289.473 127.668 289.473 127.668L289.956 127.122C289.956 127.122 290.764 125.382 290.903 125.228C291.041 125.073 291.603 124.315 291.603 124.315H292.096C292.096 124.315 292.803 124.448 292.992 124.464C293.197 124.529 293.39 124.63 293.56 124.76L293.769 126.124L294.299 127.781L294.782 128.769L295.158 129.546L295.691 130.212L296.442 130.768L297.569 131.604L298.368 131.841C298.368 131.841 299.482 132.122 299.994 132.182C300.215 132.236 300.447 132.223 300.66 132.144L301.607 131.787C301.607 131.787 302.743 131.386 303.018 131.257C303.24 131.162 303.469 131.085 303.703 131.026L304.46 130.597L305.426 129.499L306.244 128.066L306.629 126.863L306.825 126.14C307.056 125.889 307.256 125.611 307.421 125.313C307.582 124.966 307.421 125.313 307.655 124.764C307.889 124.214 307.611 124.006 307.611 124.006ZM290.063 123.375C290.142 123.685 290.188 124.002 290.202 124.322C290.202 124.467 290.107 125.086 290.076 125.326C290.044 125.565 290.17 125.351 289.918 126.011C289.743 126.445 289.519 126.857 289.248 127.238L288.971 127.813C288.789 128.084 288.568 128.325 288.314 128.53C288.094 128.682 287.889 128.856 287.702 129.047C287.702 129.047 287.724 129.136 287.342 129.271C286.96 129.407 286.01 129.802 286.01 129.802L284.886 129.937L283.939 129.988L282.32 129.596L281.524 129.186L280.725 128.738L280.119 128.148L279.737 127.914L279.381 127.22L278.854 125.821L278.667 124.48L278.762 123.533L279.195 122.27L279.753 121.531L280.328 121.121L281.133 120.83C281.133 120.83 281.736 120.635 281.865 120.603C281.994 120.572 282.638 120.37 282.638 120.37L283.999 120.269L286.209 120.565L286.96 120.796L287.869 121.313L288.769 121.79L289.289 122.216L289.735 122.532C289.735 122.532 289.937 122.655 290.063 123.362V123.375ZM305.764 125.045L305.682 126.216L305.515 127.043C305.431 127.334 305.331 127.621 305.215 127.901C305.07 128.29 304.882 128.662 304.656 129.009L304.239 129.571L303.791 130.007C303.499 130.099 303.22 130.229 302.961 130.392C302.633 130.596 302.289 130.774 301.932 130.922L301.364 131.061L300.492 131.273L299.665 131.475L298.999 131.405C298.702 131.359 298.407 131.293 298.119 131.206C297.793 131.091 297.476 130.95 297.172 130.787C297.052 130.679 296.881 130.534 296.414 130.139C296.153 129.946 295.913 129.726 295.698 129.483C295.622 129.363 295.382 128.536 295.382 128.536C295.227 128.067 295.096 127.591 294.99 127.109C294.968 126.831 294.962 126.235 294.962 126.235C295.028 125.817 295.134 125.407 295.278 125.01C295.432 124.694 295.631 124.379 295.631 124.379C295.839 124.047 296.07 123.731 296.323 123.432C296.442 123.353 296.379 123.094 296.976 122.901C297.573 122.709 297.882 122.633 297.882 122.633L298.895 122.434L300.682 122.365H301.61L302.825 122.62C303.089 122.709 303.348 122.815 303.599 122.936C303.877 123.091 304.139 123.275 304.378 123.485L304.858 123.738L305.354 123.892L305.726 124.265L305.764 125.045Z" fill="#23252C"/>
<path d="M289.918 125.985C289.743 126.419 289.519 126.831 289.248 127.213L288.971 127.788C288.789 128.058 288.568 128.3 288.314 128.504C288.094 128.657 287.889 128.83 287.702 129.022C287.702 129.022 287.724 129.11 287.342 129.246C286.96 129.382 286.01 129.802 286.01 129.802L284.886 129.937L283.939 129.988L282.32 129.597L281.524 129.186L280.726 128.738L280.119 128.148L279.737 127.914L279.381 127.22L278.854 125.821L278.667 124.48L278.762 123.533L279.195 122.27L279.753 121.531L280.328 121.121L281.133 120.83C281.133 120.83 281.736 120.635 281.865 120.603C281.994 120.572 282.638 120.37 282.638 120.37L283.999 120.269L286.209 120.565L286.96 120.796L287.869 121.313L288.769 121.79L289.29 122.216L289.735 122.532C289.735 122.532 289.952 122.665 290.079 123.372C290.157 123.682 290.204 123.999 290.218 124.319" fill="url(#paint13_linear_471_2133)"/>
<path d="M305.717 124.255L305.764 125.032L305.682 126.203L305.515 127.03C305.431 127.322 305.331 127.608 305.215 127.889C305.07 128.277 304.882 128.649 304.656 128.997L304.239 129.559L303.791 129.994C303.499 130.087 303.22 130.216 302.961 130.379C302.633 130.584 302.289 130.761 301.932 130.91L301.364 131.049L300.492 131.26L299.665 131.462L298.999 131.393C298.701 131.347 298.407 131.28 298.119 131.194C297.793 131.078 297.476 130.938 297.172 130.774C297.052 130.667 296.881 130.521 296.414 130.127C296.153 129.933 295.913 129.713 295.697 129.47C295.622 129.35 295.382 128.523 295.382 128.523C295.227 128.055 295.096 127.578 294.99 127.096C294.968 126.819 294.962 126.222 294.962 126.222C295.028 125.805 295.134 125.395 295.278 124.997C295.432 124.682 295.631 124.366 295.631 124.366C295.839 124.034 296.07 123.718 296.322 123.419C296.442 123.34 296.379 123.081 296.976 122.889C297.572 122.696 297.882 122.62 297.882 122.62L298.895 122.421L300.682 122.352H301.61L302.825 122.608C303.089 122.697 303.348 122.802 303.599 122.923C303.877 123.078 304.138 123.262 304.378 123.473L304.858 123.725L305.354 123.88L305.717 124.255Z" fill="url(#paint14_linear_471_2133)"/>
<path d="M239.935 159.654C242.874 154.499 271.5 147.184 271.5 147.5C271.5 147.5 272.193 152.517 272.234 153.458C272.275 154.398 279.652 156.431 285.883 156.801C291.203 157.116 291.599 155.51 291.829 154.578C291.869 154.418 291.903 154.278 291.957 154.171C292.323 153.439 292.25 150.44 292.25 150.44C294.447 149.083 319.155 153.688 327.943 159.225C329.676 160.314 331.567 172.726 330.841 179.604C330.115 186.483 321.427 189.734 308.394 193.364C295.36 196.994 278.339 193.364 266.031 187.209C259.172 183.778 252.22 178.469 246.846 173.942L251.075 182.246L246 211C246 211 218.427 207.29 237.517 165.614C236.172 164.011 237.698 162.298 238.912 160.935C239.337 160.459 239.723 160.025 239.935 159.654Z" fill="#101116" stroke="#23252C"/>
<path d="M336.984 159.365H234.327C233.91 159.367 233.5 159.464 233.127 159.649C232.753 159.833 232.427 160.1 232.172 160.429C231.918 160.759 231.742 161.142 231.657 161.55C231.573 161.957 231.582 162.379 231.685 162.782L244.395 211.614C244.622 212.486 245.131 213.257 245.843 213.808C246.555 214.358 247.43 214.657 248.33 214.656H320.519C321.387 214.657 322.233 214.379 322.932 213.864C323.631 213.349 324.148 212.624 324.405 211.795L339.59 162.906C339.714 162.497 339.742 162.065 339.67 161.644C339.598 161.223 339.429 160.825 339.176 160.481C338.923 160.137 338.593 159.857 338.212 159.663C337.831 159.47 337.411 159.367 336.984 159.365Z" fill="#14161C" stroke="#23252C"/>
<path d="M283.948 196.355C288.944 196.355 292.994 192.305 292.994 187.309C292.994 182.313 288.944 178.263 283.948 178.263C278.952 178.263 274.902 182.313 274.902 187.309C274.902 192.305 278.952 196.355 283.948 196.355Z" stroke="url(#paint15_linear_471_2133)"/>
<defs>
<filter id="filter0_b_471_2133" x="436" y="2" width="134" height="60" filterUnits="userSpaceOnUse" color-interpolation-filters="sRGB">
<feFlood flood-opacity="0" result="BackgroundImageFix"/>
<feGaussianBlur in="BackgroundImage" stdDeviation="6"/>
<feComposite in2="SourceAlpha" operator="in" result="effect1_backgroundBlur_471_2133"/>
<feBlend mode="normal" in="SourceGraphic" in2="effect1_backgroundBlur_471_2133" result="shape"/>
</filter>
<linearGradient id="paint0_linear_471_2133" x1="238.84" y1="278.784" x2="336.027" y2="278.784" gradientUnits="userSpaceOnUse">
<stop stop-color="#E0974C"/>
<stop offset="1" stop-color="#C93F6F"/>
</linearGradient>
<linearGradient id="paint1_linear_471_2133" x1="238.84" y1="278.784" x2="336.027" y2="278.784" gradientUnits="userSpaceOnUse">
<stop stop-color="#E0974C"/>
<stop offset="1" stop-color="#C93F6F"/>
</linearGradient>
<linearGradient id="paint2_linear_471_2133" x1="238.84" y1="278.784" x2="336.027" y2="278.784" gradientUnits="userSpaceOnUse">
<stop stop-color="#E0974C"/>
<stop offset="1" stop-color="#C93F6F"/>
</linearGradient>
<linearGradient id="paint3_linear_471_2133" x1="238.84" y1="278.784" x2="336.027" y2="278.784" gradientUnits="userSpaceOnUse">
<stop stop-color="#E0974C"/>
<stop offset="1" stop-color="#C93F6F"/>
</linearGradient>
<linearGradient id="paint4_linear_471_2133" x1="238.84" y1="278.784" x2="336.027" y2="278.784" gradientUnits="userSpaceOnUse">
<stop stop-color="#E0974C"/>
<stop offset="1" stop-color="#C93F6F"/>
</linearGradient>
<linearGradient id="paint5_linear_471_2133" x1="238.84" y1="278.784" x2="336.027" y2="278.784" gradientUnits="userSpaceOnUse">
<stop stop-color="#E0974C"/>
<stop offset="1" stop-color="#C93F6F"/>
</linearGradient>
<linearGradient id="paint6_linear_471_2133" x1="238.84" y1="278.784" x2="336.027" y2="278.784" gradientUnits="userSpaceOnUse">
<stop stop-color="#E0974C"/>
<stop offset="1" stop-color="#C93F6F"/>
</linearGradient>
<linearGradient id="paint7_linear_471_2133" x1="238.84" y1="278.784" x2="336.027" y2="278.784" gradientUnits="userSpaceOnUse">
<stop stop-color="#E0974C"/>
<stop offset="1" stop-color="#C93F6F"/>
</linearGradient>
<linearGradient id="paint8_linear_471_2133" x1="238.84" y1="278.784" x2="336.027" y2="278.784" gradientUnits="userSpaceOnUse">
<stop stop-color="#E0974C"/>
<stop offset="1" stop-color="#C93F6F"/>
</linearGradient>
<linearGradient id="paint9_linear_471_2133" x1="238.84" y1="278.784" x2="336.027" y2="278.784" gradientUnits="userSpaceOnUse">
<stop stop-color="#E0974C"/>
<stop offset="1" stop-color="#C93F6F"/>
</linearGradient>
<linearGradient id="paint10_linear_471_2133" x1="238.84" y1="278.784" x2="336.027" y2="278.784" gradientUnits="userSpaceOnUse">
<stop stop-color="#E0974C"/>
<stop offset="1" stop-color="#C93F6F"/>
</linearGradient>
<linearGradient id="paint11_linear_471_2133" x1="238.84" y1="278.784" x2="336.027" y2="278.784" gradientUnits="userSpaceOnUse">
<stop stop-color="#E0974C"/>
<stop offset="1" stop-color="#C93F6F"/>
</linearGradient>
<linearGradient id="paint12_linear_471_2133" x1="238.84" y1="278.784" x2="336.027" y2="278.784" gradientUnits="userSpaceOnUse">
<stop stop-color="#E0974C"/>
<stop offset="1" stop-color="#C93F6F"/>
</linearGradient>
<linearGradient id="paint13_linear_471_2133" x1="278.667" y1="125.128" x2="290.218" y2="125.128" gradientUnits="userSpaceOnUse">
<stop stop-color="#7C644B"/>
<stop offset="1" stop-color="#8E2F51"/>
</linearGradient>
<linearGradient id="paint14_linear_471_2133" x1="294.962" y1="126.907" x2="305.764" y2="126.907" gradientUnits="userSpaceOnUse">
<stop stop-color="#7C644B"/>
<stop offset="1" stop-color="#8E2F51"/>
</linearGradient>
<linearGradient id="paint15_linear_471_2133" x1="274.902" y1="187.316" x2="292.992" y2="187.316" gradientUnits="userSpaceOnUse">
<stop stop-color="#0BADF4"/>
<stop offset="0.9341" stop-color="#30EFE4"/>
</linearGradient>
</defs>
</svg>
