<svg width="576" height="389" viewBox="0 0 576 389" fill="none" xmlns="http://www.w3.org/2000/svg">
<rect x="1" y="1" width="574" height="387" rx="13" fill="#14161C" stroke="#23252C" stroke-width="2"/>
<path d="M2 327H574V375C574 381.627 568.627 387 562 387H14C7.3726 387 2 381.627 2 375V327Z" fill="#14161C"/>
<path d="M2 14C2 7.37258 7.37258 2 14 2H562C568.627 2 574 7.37258 574 14V62H2V14Z" fill="#14161C"/>
<g filter="url(#filter0_b_471_2133)">
<rect x="448" y="14" width="110" height="36" rx="8" fill="#181A1F"/>
<rect x="448.5" y="14.5" width="109" height="35" rx="7.5" stroke="#23252C"/>
</g>
<path fill-rule="evenodd" clip-rule="evenodd" d="M539.23 30.2197C539.537 29.9268 540.034 29.9268 540.341 30.2197L544.5 34.1893L548.659 30.2197C548.966 29.9268 549.463 29.9268 549.77 30.2197C550.077 30.5126 550.077 30.9874 549.77 31.2803L545.056 35.7803C544.749 36.0732 544.251 36.0732 543.944 35.7803L539.23 31.2803C538.923 30.9874 538.923 30.5126 539.23 30.2197Z" fill="#6F7380"/>
<path d="M460.861 37V28.2727H464.134C464.804 28.2727 465.366 28.3977 465.821 28.6477C466.278 28.8977 466.624 29.2415 466.857 29.679C467.092 30.1136 467.21 30.608 467.21 31.1619C467.21 31.7216 467.092 32.2187 466.857 32.6534C466.621 33.0881 466.273 33.4304 465.812 33.6804C465.352 33.9276 464.786 34.0511 464.112 34.0511H461.943V32.7514H463.899C464.291 32.7514 464.612 32.6832 464.862 32.5469C465.112 32.4105 465.297 32.223 465.416 31.9844C465.538 31.7457 465.599 31.4716 465.599 31.1619C465.599 30.8523 465.538 30.5795 465.416 30.3438C465.297 30.108 465.111 29.9247 464.858 29.794C464.608 29.6605 464.286 29.5938 463.891 29.5938H462.442V37H460.861ZM468.515 37V30.4545H470.011V31.5455H470.079C470.199 31.1676 470.403 30.8764 470.693 30.6719C470.985 30.4645 471.319 30.3608 471.694 30.3608C471.779 30.3608 471.875 30.3651 471.98 30.3736C472.088 30.3793 472.177 30.3892 472.248 30.4034V31.8224C472.183 31.7997 472.079 31.7798 471.937 31.7628C471.798 31.7429 471.663 31.733 471.532 31.733C471.251 31.733 470.998 31.794 470.774 31.9162C470.552 32.0355 470.377 32.2017 470.25 32.4148C470.122 32.6278 470.058 32.8736 470.058 33.152V37H468.515ZM473.273 37V30.4545H474.816V37H473.273ZM474.049 29.5256C473.804 29.5256 473.594 29.4446 473.418 29.2827C473.242 29.1179 473.154 28.9205 473.154 28.6903C473.154 28.4574 473.242 28.2599 473.418 28.098C473.594 27.9332 473.804 27.8509 474.049 27.8509C474.296 27.8509 474.506 27.9332 474.679 28.098C474.855 28.2599 474.944 28.4574 474.944 28.6903C474.944 28.9205 474.855 29.1179 474.679 29.2827C474.506 29.4446 474.296 29.5256 474.049 29.5256ZM479.257 37.1278C478.604 37.1278 478.043 36.9844 477.574 36.6974C477.108 36.4105 476.749 36.0142 476.496 35.5085C476.246 35 476.121 34.4148 476.121 33.7528C476.121 33.0881 476.249 32.5014 476.504 31.9929C476.76 31.4815 477.121 31.0838 477.587 30.7997C478.055 30.5128 478.609 30.3693 479.249 30.3693C479.78 30.3693 480.25 30.4673 480.659 30.6634C481.071 30.8565 481.399 31.1307 481.643 31.4858C481.888 31.8381 482.027 32.25 482.061 32.7216H480.587C480.527 32.4062 480.385 32.1435 480.161 31.9332C479.939 31.7202 479.642 31.6136 479.27 31.6136C478.955 31.6136 478.678 31.6989 478.439 31.8693C478.2 32.0369 478.014 32.2784 477.881 32.5938C477.75 32.9091 477.685 33.2869 477.685 33.7273C477.685 34.1733 477.75 34.5568 477.881 34.8778C478.011 35.196 478.195 35.4418 478.43 35.6151C478.669 35.7855 478.949 35.8707 479.27 35.8707C479.497 35.8707 479.7 35.8281 479.879 35.7429C480.061 35.6548 480.213 35.5284 480.335 35.3636C480.457 35.1989 480.541 34.9986 480.587 34.7628H482.061C482.024 35.2259 481.888 35.6364 481.652 35.9943C481.416 36.3494 481.095 36.6278 480.689 36.8295C480.283 37.0284 479.805 37.1278 479.257 37.1278ZM486.225 37.1278C485.569 37.1278 485.002 36.9915 484.525 36.7188C484.051 36.4432 483.686 36.054 483.43 35.5511C483.174 35.0455 483.047 34.4503 483.047 33.7656C483.047 33.0923 483.174 32.5014 483.43 31.9929C483.689 31.4815 484.049 31.0838 484.512 30.7997C484.975 30.5128 485.52 30.3693 486.145 30.3693C486.548 30.3693 486.929 30.4347 487.287 30.5653C487.647 30.6932 487.966 30.892 488.241 31.1619C488.52 31.4318 488.738 31.7756 488.897 32.1932C489.056 32.608 489.136 33.1023 489.136 33.6761V34.1491H483.771V33.1094H487.657C487.654 32.8139 487.591 32.5511 487.466 32.321C487.341 32.0881 487.166 31.9048 486.941 31.7713C486.72 31.6378 486.461 31.571 486.166 31.571C485.85 31.571 485.574 31.6477 485.335 31.8011C485.096 31.9517 484.91 32.1506 484.777 32.3977C484.646 32.642 484.579 32.9105 484.576 33.2031V34.1108C484.576 34.4915 484.646 34.8182 484.785 35.0909C484.924 35.3608 485.119 35.5682 485.369 35.7131C485.619 35.8551 485.912 35.9261 486.247 35.9261C486.471 35.9261 486.674 35.8949 486.856 35.8324C487.038 35.767 487.196 35.6719 487.329 35.5469C487.463 35.4219 487.564 35.267 487.632 35.0824L489.072 35.2443C488.981 35.625 488.808 35.9574 488.552 36.2415C488.299 36.5227 487.975 36.7415 487.581 36.8977C487.186 37.0511 486.734 37.1278 486.225 37.1278Z" fill="#EBEBEC"/>
<path d="M495.259 365.22C494.219 365.14 493.326 364.907 492.579 364.52C491.846 364.12 491.246 363.607 490.779 362.98L492.359 361.36C493.239 362.347 494.252 362.907 495.399 363.04V358.9L494.939 358.82C494.286 358.7 493.719 358.52 493.239 358.28C492.772 358.04 492.386 357.747 492.079 357.4C491.786 357.053 491.566 356.667 491.419 356.24C491.286 355.813 491.219 355.353 491.219 354.86C491.219 353.727 491.566 352.813 492.259 352.12C492.966 351.427 493.966 351.007 495.259 350.86V348.78H497.219V350.84C498.086 350.947 498.826 351.167 499.439 351.5C500.066 351.833 500.592 352.267 501.019 352.8L499.439 354.42C498.826 353.687 498.039 353.24 497.079 353.08V356.88L497.579 356.96C498.886 357.2 499.832 357.667 500.419 358.36C501.006 359.04 501.299 359.88 501.299 360.88C501.299 362.013 500.946 362.96 500.239 363.72C499.546 364.467 498.539 364.94 497.219 365.14V367.26H495.259V365.22ZM493.679 354.78C493.679 355.273 493.812 355.653 494.079 355.92C494.346 356.187 494.786 356.393 495.399 356.54V353.02C494.252 353.18 493.679 353.767 493.679 354.78ZM498.859 361.04C498.859 360.507 498.719 360.107 498.439 359.84C498.159 359.56 497.706 359.353 497.079 359.22V363.02C497.679 362.913 498.126 362.693 498.419 362.36C498.712 362.027 498.859 361.587 498.859 361.04ZM503.851 365V362.86H507.691V352.94H507.511L504.471 356.54L502.831 355.16L506.291 351.04H510.311V362.86H513.471V365H503.851ZM520.023 365.22C519.33 365.22 518.837 365.073 518.543 364.78C518.25 364.487 518.103 364.127 518.103 363.7V363.1C518.103 362.673 518.25 362.313 518.543 362.02C518.837 361.727 519.33 361.58 520.023 361.58C520.717 361.58 521.21 361.727 521.503 362.02C521.797 362.313 521.943 362.673 521.943 363.1V363.7C521.943 364.127 521.797 364.487 521.503 364.78C521.21 365.073 520.717 365.22 520.023 365.22ZM532.016 365.24C531.109 365.24 530.322 365.08 529.656 364.76C528.989 364.427 528.436 363.953 527.996 363.34C527.569 362.727 527.249 361.973 527.036 361.08C526.836 360.187 526.736 359.167 526.736 358.02C526.736 356.887 526.836 355.873 527.036 354.98C527.249 354.073 527.569 353.313 527.996 352.7C528.436 352.087 528.989 351.62 529.656 351.3C530.322 350.967 531.109 350.8 532.016 350.8C533.829 350.8 535.162 351.433 536.016 352.7C536.869 353.967 537.296 355.74 537.296 358.02C537.296 360.3 536.869 362.073 536.016 363.34C535.162 364.607 533.829 365.24 532.016 365.24ZM532.016 363.14C532.976 363.14 533.649 362.8 534.036 362.12C534.436 361.427 534.636 360.473 534.636 359.26V356.78C534.636 355.567 534.436 354.62 534.036 353.94C533.649 353.247 532.976 352.9 532.016 352.9C531.056 352.9 530.376 353.247 529.976 353.94C529.589 354.62 529.396 355.567 529.396 356.78V359.26C529.396 360.473 529.589 361.427 529.976 362.12C530.376 362.8 531.056 363.14 532.016 363.14ZM532.016 359.2C531.549 359.2 531.222 359.107 531.036 358.92C530.862 358.733 530.776 358.507 530.776 358.24V357.8C530.776 357.533 530.862 357.307 531.036 357.12C531.222 356.933 531.549 356.84 532.016 356.84C532.482 356.84 532.802 356.933 532.976 357.12C533.162 357.307 533.256 357.533 533.256 357.8V358.24C533.256 358.507 533.162 358.733 532.976 358.92C532.802 359.107 532.482 359.2 532.016 359.2ZM544.008 365.24C543.101 365.24 542.314 365.08 541.648 364.76C540.981 364.427 540.428 363.953 539.988 363.34C539.561 362.727 539.241 361.973 539.028 361.08C538.828 360.187 538.728 359.167 538.728 358.02C538.728 356.887 538.828 355.873 539.028 354.98C539.241 354.073 539.561 353.313 539.988 352.7C540.428 352.087 540.981 351.62 541.648 351.3C542.314 350.967 543.101 350.8 544.008 350.8C545.821 350.8 547.154 351.433 548.008 352.7C548.861 353.967 549.288 355.74 549.288 358.02C549.288 360.3 548.861 362.073 548.008 363.34C547.154 364.607 545.821 365.24 544.008 365.24ZM544.008 363.14C544.968 363.14 545.641 362.8 546.028 362.12C546.428 361.427 546.628 360.473 546.628 359.26V356.78C546.628 355.567 546.428 354.62 546.028 353.94C545.641 353.247 544.968 352.9 544.008 352.9C543.048 352.9 542.368 353.247 541.968 353.94C541.581 354.62 541.388 355.567 541.388 356.78V359.26C541.388 360.473 541.581 361.427 541.968 362.12C542.368 362.8 543.048 363.14 544.008 363.14ZM544.008 359.2C543.541 359.2 543.214 359.107 543.028 358.92C542.854 358.733 542.768 358.507 542.768 358.24V357.8C542.768 357.533 542.854 357.307 543.028 357.12C543.214 356.933 543.541 356.84 544.008 356.84C544.474 356.84 544.794 356.933 544.968 357.12C545.154 357.307 545.248 357.533 545.248 357.8V358.24C545.248 358.507 545.154 358.733 544.968 358.92C544.794 359.107 544.474 359.2 544.008 359.2Z" fill="#EBEBEC"/>
<rect x="2" y="62" width="572" height="265" fill="#101116"/>
<path d="M19.168 27.832H22.64C24.0907 27.832 25.168 28.312 25.872 29.272C26.5867 30.232 26.944 31.6133 26.944 33.416C26.944 35.2293 26.5867 36.616 25.872 37.576C25.168 38.5253 24.0907 39 22.64 39H19.168V27.832ZM22.496 37.32C23.264 37.32 23.8293 37.0693 24.192 36.568C24.5653 36.0667 24.752 35.336 24.752 34.376V32.44C24.752 31.4907 24.5653 30.7653 24.192 30.264C23.8293 29.7627 23.264 29.512 22.496 29.512H21.232V37.32H22.496ZM28.9218 39V27.832H35.9778V29.56H31.0178V32.472H35.8018V34.2H31.0178V37.272H35.9778V39H28.9218ZM38.4355 39V37.432H40.9475V29.4H38.4355V27.832H45.5395V29.4H43.0275V37.432H45.5395V39H38.4355Z" fill="#EBEBEC"/>
<path d="M21.75 362H19.0568V353.273H21.8693C22.7159 353.273 23.4403 353.447 24.0426 353.797C24.6449 354.143 25.1065 354.642 25.4276 355.293C25.7486 355.94 25.9091 356.716 25.9091 357.619C25.9091 358.528 25.7472 359.311 25.4233 359.967C25.0994 360.621 24.6278 361.124 24.0085 361.476C23.3892 361.825 22.6364 362 21.75 362ZM20.1136 361.062H21.6818C22.4034 361.062 23.0014 360.923 23.4759 360.645C23.9503 360.366 24.304 359.97 24.5369 359.456C24.7699 358.942 24.8864 358.33 24.8864 357.619C24.8864 356.915 24.7713 356.308 24.5412 355.8C24.3111 355.288 23.9673 354.896 23.5099 354.624C23.0526 354.348 22.483 354.21 21.8011 354.21H20.1136V361.062ZM27.6818 362V353.273H32.9489V354.21H28.7386V357.159H32.6761V358.097H28.7386V361.062H33.017V362H27.6818ZM35.9105 353.273V362H34.8537V353.273H35.9105ZM41.4045 362V353.273H44.3533C45.038 353.273 45.5977 353.396 46.0323 353.643C46.4698 353.888 46.7937 354.219 47.0039 354.636C47.2141 355.054 47.3192 355.52 47.3192 356.034C47.3192 356.548 47.2141 357.016 47.0039 357.436C46.7965 357.857 46.4755 358.192 46.0408 358.442C45.6062 358.689 45.0494 358.812 44.3704 358.812H42.2567V357.875H44.3363C44.805 357.875 45.1815 357.794 45.4656 357.632C45.7496 357.47 45.9556 357.251 46.0835 356.976C46.2141 356.697 46.2795 356.384 46.2795 356.034C46.2795 355.685 46.2141 355.372 46.0835 355.097C45.9556 354.821 45.7482 354.605 45.4613 354.449C45.1744 354.29 44.7937 354.21 44.3192 354.21H42.4613V362H41.4045ZM48.8853 362V355.455H49.8569V356.443H49.9251C50.0444 356.119 50.2603 355.857 50.5728 355.655C50.8853 355.453 51.2376 355.352 51.6296 355.352C51.7035 355.352 51.7958 355.354 51.9066 355.357C52.0174 355.359 52.1012 355.364 52.158 355.369V356.392C52.1239 356.384 52.0458 356.371 51.9237 356.354C51.8043 356.334 51.6779 356.324 51.5444 356.324C51.2262 356.324 50.9421 356.391 50.6921 356.524C50.445 356.655 50.2489 356.837 50.104 357.07C49.962 357.3 49.891 357.562 49.891 357.858V362H48.8853ZM53.3501 362V355.455H54.3558V362H53.3501ZM53.8615 354.364C53.6655 354.364 53.4964 354.297 53.3544 354.163C53.2152 354.03 53.1456 353.869 53.1456 353.682C53.1456 353.494 53.2152 353.334 53.3544 353.2C53.4964 353.067 53.6655 353 53.8615 353C54.0575 353 54.2251 353.067 54.3643 353.2C54.5064 353.334 54.5774 353.494 54.5774 353.682C54.5774 353.869 54.5064 354.03 54.3643 354.163C54.2251 354.297 54.0575 354.364 53.8615 354.364ZM58.8569 362.136C58.2433 362.136 57.7148 361.991 57.2717 361.702C56.8285 361.412 56.4876 361.013 56.2489 360.504C56.0103 359.996 55.891 359.415 55.891 358.761C55.891 358.097 56.0131 357.51 56.2575 357.001C56.5046 356.49 56.8484 356.091 57.2887 355.804C57.7319 355.514 58.2489 355.369 58.8398 355.369C59.3001 355.369 59.7148 355.455 60.0842 355.625C60.4535 355.795 60.756 356.034 60.9918 356.341C61.2276 356.648 61.3739 357.006 61.4308 357.415H60.4251C60.3484 357.116 60.1779 356.852 59.9137 356.622C59.6523 356.389 59.3001 356.273 58.8569 356.273C58.4648 356.273 58.1211 356.375 57.8256 356.58C57.533 356.781 57.3043 357.067 57.1396 357.436C56.9776 357.803 56.8967 358.233 56.8967 358.727C56.8967 359.233 56.9762 359.673 57.1353 360.048C57.2972 360.423 57.5245 360.714 57.8171 360.922C58.1126 361.129 58.4592 361.233 58.8569 361.233C59.1183 361.233 59.3555 361.188 59.5685 361.097C59.7816 361.006 59.962 360.875 60.1097 360.705C60.2575 360.534 60.3626 360.33 60.4251 360.091H61.4308C61.3739 360.477 61.2333 360.825 61.0089 361.135C60.7873 361.442 60.4933 361.686 60.1268 361.868C59.7631 362.047 59.3398 362.136 58.8569 362.136ZM65.6452 362.136C65.0146 362.136 64.4705 361.997 64.0131 361.719C63.5586 361.438 63.2077 361.045 62.9606 360.543C62.7163 360.037 62.5941 359.449 62.5941 358.778C62.5941 358.108 62.7163 357.517 62.9606 357.006C63.2077 356.491 63.5515 356.091 63.9918 355.804C64.435 355.514 64.9521 355.369 65.543 355.369C65.8839 355.369 66.2205 355.426 66.5529 355.54C66.8853 355.653 67.1879 355.838 67.4606 356.094C67.7333 356.347 67.9506 356.682 68.1126 357.099C68.2745 357.517 68.3555 358.031 68.3555 358.642V359.068H63.31V358.199H67.3327C67.3327 357.83 67.2589 357.5 67.1112 357.21C66.9663 356.92 66.7589 356.692 66.489 356.524C66.2219 356.357 65.9066 356.273 65.543 356.273C65.1424 356.273 64.7958 356.372 64.5032 356.571C64.2134 356.767 63.9904 357.023 63.8342 357.338C63.6779 357.653 63.5998 357.991 63.5998 358.352V358.932C63.5998 359.426 63.685 359.845 63.8555 360.189C64.0288 360.53 64.2688 360.79 64.5756 360.969C64.8825 361.145 65.239 361.233 65.6452 361.233C65.9094 361.233 66.1481 361.196 66.3612 361.122C66.5771 361.045 66.7631 360.932 66.9194 360.781C67.0756 360.628 67.1964 360.437 67.2816 360.21L68.2532 360.483C68.1509 360.812 67.979 361.102 67.7376 361.352C67.4961 361.599 67.1978 361.793 66.8427 361.932C66.4876 362.068 66.0884 362.136 65.6452 362.136Z" fill="#6F7380"/>
<path d="M242.936 282.144C241.912 282.144 241.148 281.772 240.644 281.028C240.148 280.284 239.9 279.212 239.9 277.812C239.9 276.412 240.148 275.34 240.644 274.596C241.148 273.852 241.912 273.48 242.936 273.48C243.32 273.48 243.652 273.532 243.932 273.636C244.212 273.74 244.452 273.88 244.652 274.056C244.852 274.232 245.02 274.432 245.156 274.656C245.292 274.872 245.412 275.092 245.516 275.316L244.652 275.712C244.58 275.528 244.496 275.356 244.4 275.196C244.304 275.028 244.188 274.884 244.052 274.764C243.924 274.636 243.768 274.536 243.584 274.464C243.408 274.392 243.192 274.356 242.936 274.356C242.272 274.356 241.776 274.608 241.448 275.112C241.128 275.616 240.968 276.288 240.968 277.128V278.496C240.968 279.336 241.128 280.008 241.448 280.512C241.776 281.016 242.272 281.268 242.936 281.268C243.192 281.268 243.408 281.232 243.584 281.16C243.768 281.088 243.924 280.992 244.052 280.872C244.188 280.744 244.304 280.6 244.4 280.44C244.496 280.272 244.58 280.096 244.652 279.912L245.516 280.308C245.412 280.54 245.292 280.764 245.156 280.98C245.02 281.196 244.852 281.392 244.652 281.568C244.452 281.744 244.212 281.884 243.932 281.988C243.652 282.092 243.32 282.144 242.936 282.144Z" fill="url(#paint0_linear_471_2133)"/>
<path d="M249.855 282.144C249.423 282.144 249.031 282.068 248.679 281.916C248.335 281.764 248.039 281.548 247.791 281.268C247.551 280.98 247.367 280.64 247.239 280.248C247.111 279.848 247.047 279.4 247.047 278.904C247.047 278.416 247.111 277.972 247.239 277.572C247.367 277.172 247.551 276.832 247.791 276.552C248.039 276.264 248.335 276.044 248.679 275.892C249.031 275.74 249.423 275.664 249.855 275.664C250.287 275.664 250.675 275.74 251.019 275.892C251.371 276.044 251.667 276.264 251.907 276.552C252.155 276.832 252.343 277.172 252.471 277.572C252.599 277.972 252.663 278.416 252.663 278.904C252.663 279.4 252.599 279.848 252.471 280.248C252.343 280.64 252.155 280.98 251.907 281.268C251.667 281.548 251.371 281.764 251.019 281.916C250.675 282.068 250.287 282.144 249.855 282.144ZM249.855 281.316C250.391 281.316 250.823 281.156 251.151 280.836C251.479 280.516 251.643 280.02 251.643 279.348V278.46C251.643 277.788 251.479 277.292 251.151 276.972C250.823 276.652 250.391 276.492 249.855 276.492C249.319 276.492 248.887 276.652 248.559 276.972C248.231 277.292 248.067 277.788 248.067 278.46V279.348C248.067 280.02 248.231 280.516 248.559 280.836C248.887 281.156 249.319 281.316 249.855 281.316Z" fill="url(#paint1_linear_471_2133)"/>
<path d="M254.098 282V275.808H254.986V276.528H255.034C255.13 276.288 255.266 276.084 255.442 275.916C255.618 275.748 255.878 275.664 256.222 275.664C256.582 275.664 256.85 275.756 257.026 275.94C257.202 276.116 257.31 276.348 257.35 276.636H257.386C257.498 276.356 257.658 276.124 257.866 275.94C258.074 275.756 258.362 275.664 258.73 275.664C259.234 275.664 259.57 275.84 259.738 276.192C259.914 276.544 260.002 277.048 260.002 277.704V282H259.114V277.86C259.114 277.332 259.058 276.968 258.946 276.768C258.842 276.56 258.646 276.456 258.358 276.456C258.102 276.456 257.894 276.54 257.734 276.708C257.574 276.868 257.494 277.116 257.494 277.452V282H256.606V277.86C256.606 277.332 256.55 276.968 256.438 276.768C256.334 276.56 256.142 276.456 255.862 276.456C255.606 276.456 255.394 276.54 255.226 276.708C255.066 276.868 254.986 277.116 254.986 277.452V282H254.098Z" fill="url(#paint2_linear_471_2133)"/>
<path d="M264.63 274.44C264.35 274.44 264.154 274.384 264.042 274.272C263.93 274.152 263.874 274.004 263.874 273.828V273.636C263.874 273.46 263.93 273.316 264.042 273.204C264.154 273.084 264.35 273.024 264.63 273.024C264.91 273.024 265.106 273.084 265.218 273.204C265.33 273.316 265.386 273.46 265.386 273.636V273.828C265.386 274.004 265.33 274.152 265.218 274.272C265.106 274.384 264.91 274.44 264.63 274.44ZM261.918 281.184H264.15V276.624H261.918V275.808H265.11V281.184H267.198V282H261.918V281.184Z" fill="url(#paint3_linear_471_2133)"/>
<path d="M269.017 282V275.808H269.977V276.816H270.025C270.089 276.664 270.169 276.52 270.265 276.384C270.361 276.24 270.477 276.116 270.613 276.012C270.757 275.908 270.925 275.824 271.117 275.76C271.309 275.696 271.533 275.664 271.789 275.664C272.437 275.664 272.957 275.872 273.349 276.288C273.741 276.696 273.937 277.276 273.937 278.028V282H272.977V278.196C272.977 277.628 272.853 277.208 272.605 276.936C272.357 276.656 271.993 276.516 271.513 276.516C271.321 276.516 271.133 276.54 270.949 276.588C270.765 276.636 270.601 276.708 270.457 276.804C270.313 276.9 270.197 277.024 270.109 277.176C270.021 277.328 269.977 277.504 269.977 277.704V282H269.017Z" fill="url(#paint4_linear_471_2133)"/>
<path d="M281.768 282.708C281.768 283.332 281.508 283.792 280.988 284.088C280.468 284.392 279.688 284.544 278.648 284.544C277.648 284.544 276.928 284.412 276.488 284.148C276.056 283.884 275.84 283.504 275.84 283.008C275.84 282.672 275.928 282.412 276.104 282.228C276.28 282.044 276.528 281.908 276.848 281.82V281.676C276.672 281.588 276.536 281.476 276.44 281.34C276.344 281.204 276.296 281.032 276.296 280.824C276.296 280.504 276.4 280.264 276.608 280.104C276.824 279.944 277.092 279.824 277.412 279.744V279.696C277.028 279.528 276.728 279.28 276.512 278.952C276.304 278.624 276.2 278.24 276.2 277.8C276.2 277.488 276.256 277.2 276.368 276.936C276.48 276.672 276.64 276.448 276.848 276.264C277.064 276.072 277.32 275.924 277.616 275.82C277.912 275.716 278.24 275.664 278.6 275.664C279.064 275.664 279.472 275.748 279.824 275.916V275.808C279.824 275.568 279.88 275.368 279.992 275.208C280.104 275.048 280.296 274.968 280.568 274.968H281.708V275.808H280.316V276.228C280.54 276.42 280.712 276.648 280.832 276.912C280.952 277.176 281.012 277.472 281.012 277.8C281.012 278.112 280.952 278.4 280.832 278.664C280.72 278.928 280.56 279.156 280.352 279.348C280.144 279.532 279.888 279.676 279.584 279.78C279.288 279.884 278.96 279.936 278.6 279.936C278.496 279.936 278.396 279.932 278.3 279.924C278.204 279.916 278.108 279.904 278.012 279.888C277.916 279.904 277.816 279.932 277.712 279.972C277.608 280.004 277.512 280.052 277.424 280.116C277.336 280.172 277.264 280.24 277.208 280.32C277.152 280.4 277.124 280.492 277.124 280.596C277.124 280.78 277.216 280.904 277.4 280.968C277.584 281.024 277.824 281.052 278.12 281.052H279.488C280.288 281.052 280.868 281.204 281.228 281.508C281.588 281.804 281.768 282.204 281.768 282.708ZM280.868 282.756C280.868 282.508 280.768 282.308 280.568 282.156C280.368 282.012 280.02 281.94 279.524 281.94H277.376C276.96 282.108 276.752 282.388 276.752 282.78C276.752 283.052 276.86 283.284 277.076 283.476C277.292 283.676 277.652 283.776 278.156 283.776H279.092C279.652 283.776 280.088 283.688 280.4 283.512C280.712 283.344 280.868 283.092 280.868 282.756ZM278.6 279.192C279.08 279.192 279.432 279.08 279.656 278.856C279.888 278.632 280.004 278.336 280.004 277.968V277.62C280.004 277.252 279.888 276.96 279.656 276.744C279.432 276.52 279.08 276.408 278.6 276.408C278.12 276.408 277.768 276.52 277.544 276.744C277.32 276.96 277.208 277.252 277.208 277.62V277.968C277.208 278.336 277.32 278.632 277.544 278.856C277.768 279.08 278.12 279.192 278.6 279.192Z" fill="url(#paint5_linear_471_2133)"/>
<path d="M293.003 282.144C292.251 282.144 291.635 282.008 291.155 281.736C290.675 281.456 290.279 281.1 289.967 280.668L290.699 280.068C291.027 280.476 291.371 280.78 291.731 280.98C292.099 281.18 292.535 281.28 293.039 281.28C293.647 281.28 294.111 281.14 294.431 280.86C294.751 280.58 294.911 280.188 294.911 279.684C294.911 279.276 294.795 278.96 294.563 278.736C294.331 278.504 293.927 278.34 293.351 278.244L292.415 278.088C292.007 278.016 291.663 277.908 291.383 277.764C291.111 277.62 290.891 277.448 290.723 277.248C290.555 277.04 290.435 276.816 290.363 276.576C290.291 276.328 290.255 276.072 290.255 275.808C290.255 275.04 290.507 274.46 291.011 274.068C291.515 273.676 292.195 273.48 293.051 273.48C293.723 273.48 294.287 273.592 294.743 273.816C295.207 274.04 295.579 274.356 295.859 274.764L295.151 275.376C294.919 275.072 294.639 274.824 294.311 274.632C293.983 274.44 293.559 274.344 293.039 274.344C292.471 274.344 292.035 274.464 291.731 274.704C291.427 274.944 291.275 275.304 291.275 275.784C291.275 276.16 291.387 276.468 291.611 276.708C291.843 276.94 292.255 277.108 292.847 277.212L293.747 277.368C294.155 277.44 294.499 277.548 294.779 277.692C295.059 277.836 295.283 278.008 295.451 278.208C295.627 278.408 295.751 278.632 295.823 278.88C295.895 279.128 295.931 279.388 295.931 279.66C295.931 280.436 295.675 281.044 295.163 281.484C294.659 281.924 293.939 282.144 293.003 282.144Z" fill="url(#paint6_linear_471_2133)"/>
<path d="M300.222 282.144C299.79 282.144 299.398 282.068 299.046 281.916C298.702 281.764 298.406 281.548 298.158 281.268C297.918 280.98 297.734 280.64 297.606 280.248C297.478 279.848 297.414 279.4 297.414 278.904C297.414 278.416 297.478 277.972 297.606 277.572C297.734 277.172 297.918 276.832 298.158 276.552C298.406 276.264 298.702 276.044 299.046 275.892C299.398 275.74 299.79 275.664 300.222 275.664C300.654 275.664 301.042 275.74 301.386 275.892C301.738 276.044 302.034 276.264 302.274 276.552C302.522 276.832 302.71 277.172 302.838 277.572C302.966 277.972 303.03 278.416 303.03 278.904C303.03 279.4 302.966 279.848 302.838 280.248C302.71 280.64 302.522 280.98 302.274 281.268C302.034 281.548 301.738 281.764 301.386 281.916C301.042 282.068 300.654 282.144 300.222 282.144ZM300.222 281.316C300.758 281.316 301.19 281.156 301.518 280.836C301.846 280.516 302.01 280.02 302.01 279.348V278.46C302.01 277.788 301.846 277.292 301.518 276.972C301.19 276.652 300.758 276.492 300.222 276.492C299.686 276.492 299.254 276.652 298.926 276.972C298.598 277.292 298.434 277.788 298.434 278.46V279.348C298.434 280.02 298.598 280.516 298.926 280.836C299.254 281.156 299.686 281.316 300.222 281.316Z" fill="url(#paint7_linear_471_2133)"/>
<path d="M307.418 282.144C306.986 282.144 306.594 282.068 306.242 281.916C305.898 281.764 305.602 281.548 305.354 281.268C305.114 280.98 304.93 280.64 304.802 280.248C304.674 279.848 304.61 279.4 304.61 278.904C304.61 278.416 304.674 277.972 304.802 277.572C304.93 277.172 305.114 276.832 305.354 276.552C305.602 276.264 305.898 276.044 306.242 275.892C306.594 275.74 306.986 275.664 307.418 275.664C307.85 275.664 308.238 275.74 308.582 275.892C308.934 276.044 309.23 276.264 309.47 276.552C309.718 276.832 309.906 277.172 310.034 277.572C310.162 277.972 310.226 278.416 310.226 278.904C310.226 279.4 310.162 279.848 310.034 280.248C309.906 280.64 309.718 280.98 309.47 281.268C309.23 281.548 308.934 281.764 308.582 281.916C308.238 282.068 307.85 282.144 307.418 282.144ZM307.418 281.316C307.954 281.316 308.386 281.156 308.714 280.836C309.042 280.516 309.206 280.02 309.206 279.348V278.46C309.206 277.788 309.042 277.292 308.714 276.972C308.386 276.652 307.954 276.492 307.418 276.492C306.882 276.492 306.45 276.652 306.122 276.972C305.794 277.292 305.63 277.788 305.63 278.46V279.348C305.63 280.02 305.794 280.516 306.122 280.836C306.45 281.156 306.882 281.316 307.418 281.316Z" fill="url(#paint8_linear_471_2133)"/>
<path d="M312.189 282V275.808H313.149V276.816H313.197C313.261 276.664 313.341 276.52 313.437 276.384C313.533 276.24 313.649 276.116 313.785 276.012C313.929 275.908 314.097 275.824 314.289 275.76C314.481 275.696 314.705 275.664 314.961 275.664C315.609 275.664 316.129 275.872 316.521 276.288C316.913 276.696 317.109 277.276 317.109 278.028V282H316.149V278.196C316.149 277.628 316.025 277.208 315.777 276.936C315.529 276.656 315.165 276.516 314.685 276.516C314.493 276.516 314.305 276.54 314.121 276.588C313.937 276.636 313.773 276.708 313.629 276.804C313.485 276.9 313.369 277.024 313.281 277.176C313.193 277.328 313.149 277.504 313.149 277.704V282H312.189Z" fill="url(#paint9_linear_471_2133)"/>
<path d="M321.808 282.108C321.48 282.108 321.248 282.04 321.112 281.904C320.984 281.768 320.92 281.596 320.92 281.388V281.172C320.92 280.964 320.984 280.792 321.112 280.656C321.248 280.52 321.48 280.452 321.808 280.452C322.136 280.452 322.364 280.52 322.492 280.656C322.628 280.792 322.696 280.964 322.696 281.172V281.388C322.696 281.596 322.628 281.768 322.492 281.904C322.364 282.04 322.136 282.108 321.808 282.108Z" fill="url(#paint10_linear_471_2133)"/>
<path d="M329.004 282.108C328.676 282.108 328.444 282.04 328.308 281.904C328.18 281.768 328.116 281.596 328.116 281.388V281.172C328.116 280.964 328.18 280.792 328.308 280.656C328.444 280.52 328.676 280.452 329.004 280.452C329.332 280.452 329.56 280.52 329.688 280.656C329.824 280.792 329.892 280.964 329.892 281.172V281.388C329.892 281.596 329.824 281.768 329.688 281.904C329.56 282.04 329.332 282.108 329.004 282.108Z" fill="url(#paint11_linear_471_2133)"/>
<path d="M336.199 282.108C335.871 282.108 335.639 282.04 335.503 281.904C335.375 281.768 335.311 281.596 335.311 281.388V281.172C335.311 280.964 335.375 280.792 335.503 280.656C335.639 280.52 335.871 280.452 336.199 280.452C336.527 280.452 336.755 280.52 336.883 280.656C337.019 280.792 337.087 280.964 337.087 281.172V281.388C337.087 281.596 337.019 281.768 336.883 281.904C336.755 282.04 336.527 282.108 336.199 282.108Z" fill="url(#paint12_linear_471_2133)"/>
<path d="M227.572 253.192C226.206 253.192 225.188 252.696 224.516 251.704C223.854 250.712 223.524 249.283 223.524 247.416C223.524 245.549 223.854 244.12 224.516 243.128C225.188 242.136 226.206 241.64 227.572 241.64C228.084 241.64 228.526 241.709 228.9 241.848C229.273 241.987 229.593 242.173 229.86 242.408C230.126 242.643 230.35 242.909 230.532 243.208C230.713 243.496 230.873 243.789 231.012 244.088L229.86 244.616C229.764 244.371 229.652 244.141 229.524 243.928C229.396 243.704 229.241 243.512 229.06 243.352C228.889 243.181 228.681 243.048 228.436 242.952C228.201 242.856 227.913 242.808 227.572 242.808C226.686 242.808 226.025 243.144 225.588 243.816C225.161 244.488 224.948 245.384 224.948 246.504V248.328C224.948 249.448 225.161 250.344 225.588 251.016C226.025 251.688 226.686 252.024 227.572 252.024C227.913 252.024 228.201 251.976 228.436 251.88C228.681 251.784 228.889 251.656 229.06 251.496C229.241 251.325 229.396 251.133 229.524 250.92C229.652 250.696 229.764 250.461 229.86 250.216L231.012 250.744C230.873 251.053 230.713 251.352 230.532 251.64C230.35 251.928 230.126 252.189 229.86 252.424C229.593 252.659 229.273 252.845 228.9 252.984C228.526 253.123 228.084 253.192 227.572 253.192Z" fill="#2E2F33"/>
<path d="M236.797 253.192C236.221 253.192 235.699 253.091 235.229 252.888C234.771 252.685 234.376 252.397 234.045 252.024C233.725 251.64 233.48 251.187 233.309 250.664C233.139 250.131 233.053 249.533 233.053 248.872C233.053 248.221 233.139 247.629 233.309 247.096C233.48 246.563 233.725 246.109 234.045 245.736C234.376 245.352 234.771 245.059 235.229 244.856C235.699 244.653 236.221 244.552 236.797 244.552C237.373 244.552 237.891 244.653 238.349 244.856C238.819 245.059 239.213 245.352 239.533 245.736C239.864 246.109 240.115 246.563 240.285 247.096C240.456 247.629 240.541 248.221 240.541 248.872C240.541 249.533 240.456 250.131 240.285 250.664C240.115 251.187 239.864 251.64 239.533 252.024C239.213 252.397 238.819 252.685 238.349 252.888C237.891 253.091 237.373 253.192 236.797 253.192ZM236.797 252.088C237.512 252.088 238.088 251.875 238.525 251.448C238.963 251.021 239.181 250.36 239.181 249.464V248.28C239.181 247.384 238.963 246.723 238.525 246.296C238.088 245.869 237.512 245.656 236.797 245.656C236.083 245.656 235.507 245.869 235.069 246.296C234.632 246.723 234.413 247.384 234.413 248.28V249.464C234.413 250.36 234.632 251.021 235.069 251.448C235.507 251.875 236.083 252.088 236.797 252.088Z" fill="#2E2F33"/>
<path d="M248.391 251.656H248.327C247.794 252.68 246.946 253.192 245.783 253.192C244.77 253.192 243.975 252.813 243.399 252.056C242.834 251.299 242.551 250.237 242.551 248.872C242.551 247.507 242.834 246.445 243.399 245.688C243.975 244.931 244.77 244.552 245.783 244.552C246.946 244.552 247.794 245.064 248.327 246.088H248.391V241.16H249.671V253H248.391V251.656ZM246.279 252.056C246.567 252.056 246.839 252.019 247.095 251.944C247.351 251.869 247.575 251.763 247.767 251.624C247.959 251.475 248.108 251.299 248.215 251.096C248.332 250.883 248.391 250.637 248.391 250.36V247.384C248.391 247.107 248.332 246.867 248.215 246.664C248.108 246.451 247.959 246.275 247.767 246.136C247.575 245.987 247.351 245.875 247.095 245.8C246.839 245.725 246.567 245.688 246.279 245.688C245.532 245.688 244.951 245.917 244.535 246.376C244.13 246.824 243.927 247.421 243.927 248.168V249.576C243.927 250.323 244.13 250.925 244.535 251.384C244.951 251.832 245.532 252.056 246.279 252.056Z" fill="#2E2F33"/>
<path d="M256.129 253.192C255.531 253.192 254.993 253.091 254.513 252.888C254.043 252.685 253.638 252.397 253.297 252.024C252.966 251.64 252.71 251.187 252.529 250.664C252.347 250.131 252.257 249.539 252.257 248.888C252.257 248.227 252.347 247.629 252.529 247.096C252.721 246.563 252.982 246.109 253.313 245.736C253.643 245.352 254.038 245.059 254.497 244.856C254.966 244.653 255.483 244.552 256.049 244.552C256.603 244.552 257.105 244.653 257.553 244.856C258.011 245.059 258.401 245.341 258.721 245.704C259.041 246.056 259.286 246.477 259.457 246.968C259.627 247.459 259.713 247.997 259.713 248.584V249.192H253.601V249.576C253.601 249.939 253.659 250.275 253.777 250.584C253.894 250.893 254.059 251.16 254.273 251.384C254.497 251.608 254.763 251.784 255.073 251.912C255.393 252.029 255.745 252.088 256.129 252.088C256.683 252.088 257.163 251.96 257.569 251.704C257.974 251.448 258.283 251.096 258.497 250.648L259.441 251.288C259.195 251.843 258.785 252.301 258.209 252.664C257.643 253.016 256.95 253.192 256.129 253.192ZM256.049 245.608C255.697 245.608 255.371 245.672 255.073 245.8C254.774 245.928 254.513 246.104 254.289 246.328C254.075 246.552 253.905 246.819 253.777 247.128C253.659 247.427 253.601 247.757 253.601 248.12V248.232H258.337V248.056C258.337 247.693 258.278 247.363 258.161 247.064C258.054 246.765 257.899 246.509 257.697 246.296C257.505 246.072 257.265 245.901 256.977 245.784C256.699 245.667 256.39 245.608 256.049 245.608Z" fill="#2E2F33"/>
<path d="M262.011 251.912H264.427V245.832H262.011V244.744H265.707V246.824H265.787C265.957 246.173 266.277 245.667 266.747 245.304C267.227 244.931 267.835 244.744 268.571 244.744H269.723V246.024H268.171C267.435 246.024 266.837 246.237 266.379 246.664C265.931 247.091 265.707 247.651 265.707 248.344V251.912H268.907V253H262.011V251.912Z" fill="#2E2F33"/>
<path d="M275.268 253.192C274.404 253.192 273.658 253.048 273.028 252.76C272.41 252.461 271.882 252.067 271.444 251.576L272.308 250.824C272.703 251.24 273.135 251.56 273.604 251.784C274.074 252.008 274.639 252.12 275.3 252.12C275.94 252.12 276.463 252.008 276.868 251.784C277.284 251.549 277.492 251.187 277.492 250.696C277.492 250.483 277.45 250.307 277.364 250.168C277.29 250.019 277.183 249.901 277.044 249.816C276.906 249.731 276.751 249.667 276.58 249.624C276.41 249.571 276.228 249.528 276.036 249.496L274.74 249.304C274.452 249.261 274.138 249.203 273.796 249.128C273.466 249.053 273.162 248.936 272.884 248.776C272.607 248.605 272.372 248.381 272.18 248.104C271.999 247.827 271.908 247.464 271.908 247.016C271.908 246.6 271.988 246.243 272.148 245.944C272.319 245.635 272.554 245.379 272.852 245.176C273.151 244.963 273.503 244.808 273.908 244.712C274.314 244.605 274.756 244.552 275.236 244.552C275.983 244.552 276.628 244.669 277.172 244.904C277.727 245.139 278.202 245.464 278.596 245.88L277.764 246.664C277.668 246.547 277.546 246.429 277.396 246.312C277.258 246.184 277.082 246.072 276.868 245.976C276.666 245.869 276.426 245.784 276.148 245.72C275.871 245.656 275.551 245.624 275.188 245.624C274.538 245.624 274.036 245.736 273.684 245.96C273.343 246.184 273.172 246.509 273.172 246.936C273.172 247.149 273.21 247.331 273.284 247.48C273.37 247.619 273.482 247.731 273.62 247.816C273.759 247.901 273.914 247.971 274.084 248.024C274.266 248.067 274.447 248.104 274.628 248.136L275.924 248.328C276.223 248.371 276.538 248.429 276.868 248.504C277.199 248.579 277.503 248.701 277.78 248.872C278.058 249.032 278.287 249.251 278.468 249.528C278.66 249.805 278.756 250.168 278.756 250.616C278.756 251.437 278.436 252.072 277.796 252.52C277.167 252.968 276.324 253.192 275.268 253.192Z" fill="#2E2F33"/>
<path d="M297.48 253C296.978 253 296.621 252.872 296.408 252.616C296.194 252.36 296.061 252.04 296.008 251.656H295.928C295.746 252.136 295.453 252.515 295.048 252.792C294.653 253.059 294.12 253.192 293.448 253.192C292.584 253.192 291.896 252.968 291.384 252.52C290.872 252.072 290.616 251.459 290.616 250.68C290.616 249.912 290.893 249.32 291.448 248.904C292.013 248.488 292.92 248.28 294.168 248.28H295.928V247.464C295.928 246.856 295.757 246.403 295.416 246.104C295.074 245.795 294.589 245.64 293.96 245.64C293.405 245.64 292.952 245.752 292.6 245.976C292.248 246.189 291.965 246.483 291.752 246.856L290.888 246.216C290.994 246.003 291.138 245.795 291.32 245.592C291.501 245.389 291.725 245.213 291.992 245.064C292.258 244.904 292.562 244.781 292.904 244.696C293.245 244.6 293.624 244.552 294.04 244.552C295.01 244.552 295.778 244.797 296.344 245.288C296.92 245.779 297.208 246.461 297.208 247.336V251.88H298.36V253H297.48ZM293.672 252.12C294.002 252.12 294.301 252.083 294.568 252.008C294.845 251.923 295.085 251.816 295.288 251.688C295.49 251.549 295.645 251.389 295.752 251.208C295.869 251.016 295.928 250.813 295.928 250.6V249.24H294.168C293.4 249.24 292.84 249.347 292.488 249.56C292.136 249.773 291.96 250.083 291.96 250.488V250.824C291.96 251.251 292.109 251.576 292.408 251.8C292.717 252.013 293.138 252.12 293.672 252.12Z" fill="#2E2F33"/>
<path d="M304.354 253C303.724 253 303.26 252.824 302.962 252.472C302.674 252.12 302.53 251.667 302.53 251.112V245.832H299.778V244.744H301.826C302.103 244.744 302.295 244.691 302.402 244.584C302.519 244.467 302.578 244.269 302.578 243.992V241.832H303.81V244.744H307.57V245.832H303.81V251.912H307.57V253H304.354Z" fill="#2E2F33"/>
<path d="M318.821 244.744H319.957L320.901 251.88H321.045L322.453 244.744H323.861L325.269 251.88H325.413L326.357 244.744H327.461L326.197 253H324.533L323.221 246.088H323.093L321.749 253H320.085L318.821 244.744Z" fill="#2E2F33"/>
<path d="M332.735 253.192C332.159 253.192 331.636 253.091 331.167 252.888C330.708 252.685 330.313 252.397 329.983 252.024C329.663 251.64 329.417 251.187 329.247 250.664C329.076 250.131 328.991 249.533 328.991 248.872C328.991 248.221 329.076 247.629 329.247 247.096C329.417 246.563 329.663 246.109 329.983 245.736C330.313 245.352 330.708 245.059 331.167 244.856C331.636 244.653 332.159 244.552 332.735 244.552C333.311 244.552 333.828 244.653 334.287 244.856C334.756 245.059 335.151 245.352 335.471 245.736C335.801 246.109 336.052 246.563 336.223 247.096C336.393 247.629 336.479 248.221 336.479 248.872C336.479 249.533 336.393 250.131 336.223 250.664C336.052 251.187 335.801 251.64 335.471 252.024C335.151 252.397 334.756 252.685 334.287 252.888C333.828 253.091 333.311 253.192 332.735 253.192ZM332.735 252.088C333.449 252.088 334.025 251.875 334.463 251.448C334.9 251.021 335.119 250.36 335.119 249.464V248.28C335.119 247.384 334.9 246.723 334.463 246.296C334.025 245.869 333.449 245.656 332.735 245.656C332.02 245.656 331.444 245.869 331.007 246.296C330.569 246.723 330.351 247.384 330.351 248.28V249.464C330.351 250.36 330.569 251.021 331.007 251.448C331.444 251.875 332.02 252.088 332.735 252.088Z" fill="#2E2F33"/>
<path d="M338.761 251.912H341.177V245.832H338.761V244.744H342.457V246.824H342.537C342.707 246.173 343.027 245.667 343.497 245.304C343.977 244.931 344.585 244.744 345.321 244.744H346.473V246.024H344.921C344.185 246.024 343.587 246.237 343.129 246.664C342.681 247.091 342.457 247.651 342.457 248.344V251.912H345.657V253H338.761V251.912Z" fill="#2E2F33"/>
<path d="M348.802 241.16H350.082V248.632H350.146L351.586 247.272L354.338 244.744H355.906L352.482 247.976L356.306 253H354.722L351.506 248.712L350.082 250.008V253H348.802V241.16Z" fill="#2E2F33"/>
<path d="M368.074 204.538H208.926L198 223.913H379L368.074 204.538Z" fill="#14161C" stroke="#1B1D24" stroke-width="0.547586"/>
<path d="M237.529 206.719C237.529 206.719 211.928 201.156 235.641 154.741L248.33 177.987L237.529 206.719Z" fill="#101116" stroke="#23252C" stroke-width="0.547586"/>
<path d="M289.941 143.531L289.604 145.797L289.406 147.137L289.941 152.576L288.89 154.007L287.317 155.765L281.025 161.025L276.246 161.457L273.03 154.675L269.135 150.039L269.994 138.442L270.469 134.798L270.966 131.017L271.218 129.1C271.218 129.1 274.169 134.275 275.56 136.781C275.978 137.531 276.252 138.041 276.268 138.107C276.283 138.174 277.576 138.738 279.351 139.434C280.295 139.809 281.368 140.235 282.466 140.663C286.087 142.066 289.941 143.531 289.941 143.531Z" fill="#BA9879" stroke="#23252C" stroke-width="0.547586"/>
<path opacity="0.5" d="M289.941 143.531L289.604 145.797L286.427 147.004L281.078 145.728L276.227 141.874L272.857 138.637L270.491 134.798L270.988 131.017L271.618 131.253L273.98 135.665L275.588 136.787L279.373 139.434L281.078 140.626L282.488 140.663C286.087 142.066 289.941 143.531 289.941 143.531Z" fill="#A58367" stroke="#23252C" stroke-width="0.547586"/>
<path d="M302.859 103.567L303.388 105.745V108.048L303.284 111.027L303.017 112.568L302.655 114.862L301.994 116.684L301.484 118.745L301.519 120.03L301.576 121.77L300.61 123.85L300.575 125.98L300.235 128.369L299.823 129.217L299.424 130.604L299.31 131.647L299.175 132.592L298.621 134.483L297.46 136.519L296.781 137.515L295.837 138.577L295.233 139.179L295.085 139.327L294.456 140.216L293.512 141.643L292.42 142.835L291.24 144.045L290.265 144.593L289.784 144.861L288.459 145.094H288.349L286.48 145.287L285.071 145.17C285.071 145.17 283.749 145.034 283.498 144.814C283.227 144.61 282.937 144.434 282.632 144.288L281.292 143.695L279.581 142.728L278.826 141.899L277.728 141.398L277.375 141.237L275.843 139.86L273.76 137.603C273.76 137.603 273.178 136.73 272.92 136.425C272.662 136.119 271.841 135.397 271.841 135.397L271.457 134.2L271.143 132.895C271.091 132.628 271.056 132.359 271.039 132.088L270.869 131.023L270.671 127.934L270.567 126.759L270.488 125.303L269.337 125.492L269.057 125.47L268.276 124.922L267.804 124.115L267.395 123.57C267.395 123.57 266.813 123.065 266.728 122.716L266.515 121.846L266.323 121.061L266.297 120.204C266.295 120.104 266.284 120.005 266.266 119.908L266.112 119.053L265.958 118.168L265.848 117.638C265.805 117.431 265.795 117.218 265.819 117.008C265.854 116.72 265.825 116.427 265.734 116.151L265.561 115.625C265.451 115.292 265.432 114.937 265.505 114.594L265.58 114.241L265.687 113.775C265.734 113.567 265.815 113.368 265.926 113.185L266.417 112.375L266.524 112.442L267.543 112.47L267.886 113.122L269.013 113.954L269.689 113.324L269.551 110.866L269.632 107.431L270.41 104.197L272.511 100.731L275.107 98.5246L277.976 97.825L283.167 96.8323L288.119 96.0034L291.92 95.7198C291.92 95.7198 293.959 96.1452 294.651 96.3501C295.343 96.5549 296.97 97.1663 297.338 97.1695C297.706 97.1726 300.043 98.4301 300.043 98.4301L301.506 101.024L302.45 102.269L302.859 103.567Z" fill="#BA9879" stroke="#23252C" stroke-width="0.547586"/>
<path d="M293.713 132.936L291.328 131.871L290.479 131.751L289.623 131.962L288.752 132.091L288.034 131.855L287.009 131.036L286.257 130.638L284.08 131.502L281.594 131.779L279.128 132.466L278.964 134.486L277.916 137.638L277.775 141.42L278.873 141.921L279.628 142.75L281.339 143.717L282.68 144.31C282.985 144.456 283.274 144.632 283.545 144.836C283.784 145.057 285.118 145.192 285.118 145.192L286.527 145.309L288.396 145.116L290.312 144.603L291.288 144.054L292.467 142.844L293.531 141.637L294.475 140.21L295.104 139.321L295.252 139.173L295.154 138.772L295.05 136.982L295.195 135.548L294.88 134.288L293.713 132.936ZM293.515 137.19L293.141 138.353L292.744 139.768L291.866 140.89C291.866 140.89 290.293 140.203 289.853 140.065C289.261 139.918 288.66 139.813 288.053 139.749C287.417 139.84 286.787 139.966 286.166 140.128L285.329 140.414L284.202 140.856L281.739 140.881L281.125 139.712L281.053 138.738L280.826 137.792C280.826 137.792 280.675 136.847 280.619 136.607C280.562 136.368 280.858 135.558 280.858 135.558L280.707 134.612L281.39 133.702L283.155 133.85L286.455 133.22L287.399 133.651L289.252 133.191L290.856 134.036L292.93 134.767L293.424 136.132L293.515 137.19Z" fill="#B29074"/>
<path d="M302.252 116.192L303.756 111.272L304.448 106.545C304.448 106.545 304.448 104.081 304.376 103.734C304.303 103.387 303.869 101.15 303.869 101.15L303.618 99.6119L302.39 96.5928L293.962 92.7479L289.016 92.603L276.494 96.1579L271.193 100.163L268.884 104.295L268.726 106.671L268.764 109.861L269.107 113.529L270.12 115.927C270.069 116.333 270.086 116.744 270.17 117.144C270.232 117.649 270.19 118.161 270.048 118.65L269.802 121.171L270.655 124.162L270.922 122.744L270.592 121.269V119.063L271.586 114.251L271.876 112.99L271.832 111.099L271.784 109.958L272.92 108.758L273.65 108.165L274.311 106.526L275.255 104.131L275.906 102.08C276.183 101.651 276.499 101.249 276.85 100.879C277.089 100.728 279.282 98.9469 279.282 98.9469L280.122 98.2316L283.727 97.5351L287.254 97.4563L291.206 97.4153L295.214 98.5562L297.624 100.132L300.141 101.547L300.905 102.792L301.711 104.21L302.076 107.027L302.413 108.975L302.479 110.759L302.365 113.138L302.252 116.192Z" fill="#353535" stroke="#23252C" stroke-width="0.547586"/>
<path d="M304.832 98.5877L304.228 100.592C304.228 100.592 303.237 101.591 303.057 101.701C302.878 101.812 301.682 102.243 301.682 102.243L299.439 101.764L295.664 100.901L293.723 100.809L290.221 101.065L285.212 104.144L281.358 105.496L277.853 105.735L273.917 104.226L271.048 103.142L269.868 103.353L268.902 104.298L268.157 101.991L268.651 100.362C268.767 99.9901 269.799 97.472 269.799 97.472L271.155 94.04L273.074 91.7867L278.942 88.2917L283.523 86.5489C283.523 86.5489 287.808 85.8462 288.1 85.9186C288.393 85.9911 293.449 86.53 293.449 86.53L296.211 86.612L298.263 86.8641L299.949 89.0008L301.041 90.107L302.076 89.8549L303.136 90.8318L303.856 91.8245L304.91 94.1756L305.257 95.8774L304.832 98.5877Z" fill="#111111" stroke="#23252C" stroke-width="0.547586"/>
<path d="M286.087 114.487L287.496 114.604L288.513 115.001L288.604 116.315L288.264 116.803L283.403 115.18L280.691 114.641L278.923 114.383L278.036 114.323L276.721 114.415L276.038 114.443L275.233 114.547L276.258 114.021L277.595 113.463C277.595 113.463 278.574 113.129 278.703 113.097C278.832 113.066 280.276 112.987 280.276 112.987C280.276 112.987 281.405 113.081 281.698 113.148" fill="#111111"/>
<path d="M291.769 117.018L292.005 115.716C292.112 115.566 292.26 115.45 292.43 115.379L294.179 114.998L296.067 114.487C296.067 114.487 297.228 114.711 297.369 114.723C297.511 114.736 298.184 114.663 298.184 114.663L298.952 114.796L300.065 115.587L301.204 115.902L301.365 116.368L301.393 116.87L300.449 116.365L298.832 116.16L297.574 116.239L296.111 116.274H294.774L293.103 116.589L291.769 117.018Z" fill="#111111"/>
<path d="M304.678 119.841L302.375 115.243L302.268 115.993L303.768 119.879C303.768 119.879 303.23 119.706 303.139 119.545C302.81 119.202 302.463 118.876 302.101 118.568L300.927 118.064C300.927 118.064 299.354 117.648 298.961 117.56C298.381 117.485 297.797 117.443 297.212 117.434L295.746 117.733L293.82 118.379L292.82 118.808L291.561 119.176C291.286 119.072 291 118.998 290.709 118.956C290.338 118.904 289.971 118.828 289.611 118.729L288.859 118.669H287.629C287.629 118.669 287.125 118.118 287.025 117.957C286.924 117.796 285.873 117.011 285.643 116.819C285.136 116.544 284.61 116.304 284.07 116.101L282.135 115.713L279.659 115.64L277.967 115.993L276.63 116.309L274.663 116.542L269.167 112.706L269.12 113.516L272.744 117.298L273.795 118.332L275.119 119.485L275.289 120.431L275.541 121.477L275.856 122.508L276.441 123.655L277.202 124.515L278.284 125.42L279.351 126.018L280.534 126.334L282.463 126.17H283.444L284.882 125.511L285.757 124.566L285.942 124.335C286.134 124.105 286.6 123.497 286.6 123.497L287.081 122.952C287.081 122.952 287.887 121.215 288.025 121.061C288.163 120.907 288.723 120.15 288.723 120.15H289.214C289.214 120.15 289.919 120.283 290.108 120.298C290.312 120.364 290.504 120.464 290.674 120.595L290.882 121.956L291.41 123.611L291.892 124.597L292.266 125.372L292.798 126.037L293.547 126.592L294.67 127.427L295.466 127.663C295.466 127.663 296.576 127.944 297.086 128.004C297.306 128.058 297.537 128.045 297.75 127.966L298.694 127.61C298.694 127.61 299.826 127.21 300.1 127.08C300.321 126.985 300.549 126.909 300.783 126.85L301.538 126.422L302.501 125.325L303.315 123.894L303.699 122.694L303.894 121.972C304.124 121.721 304.324 121.444 304.489 121.146C304.649 120.799 304.489 121.146 304.722 120.598C304.955 120.049 304.678 119.841 304.678 119.841ZM287.188 119.211C287.267 119.521 287.313 119.837 287.327 120.157C287.327 120.302 287.232 120.919 287.201 121.159C287.169 121.398 287.295 121.184 287.043 121.843C286.87 122.276 286.646 122.687 286.376 123.069L286.1 123.642C285.919 123.912 285.698 124.154 285.445 124.358C285.226 124.51 285.021 124.683 284.835 124.874C284.835 124.874 284.857 124.963 284.476 125.098C284.095 125.234 283.148 125.628 283.148 125.628L282.028 125.763L281.085 125.814L279.471 125.423L278.678 125.013L277.882 124.566L277.278 123.976L276.897 123.743L276.541 123.05L276.016 121.654L275.83 120.314L275.925 119.369L276.356 118.108L276.913 117.371L277.485 116.961L278.288 116.671C278.288 116.671 278.888 116.476 279.017 116.444C279.146 116.413 279.788 116.211 279.788 116.211L281.144 116.11L283.347 116.406L284.095 116.636L285.002 117.153L285.898 117.629L286.417 118.055L286.861 118.37C286.861 118.37 287.062 118.493 287.188 119.199V119.211ZM302.837 120.878L302.755 122.047L302.589 122.873C302.505 123.164 302.406 123.451 302.29 123.73C302.145 124.118 301.958 124.489 301.733 124.837L301.318 125.398L300.871 125.832C300.58 125.925 300.302 126.054 300.043 126.217C299.716 126.421 299.373 126.598 299.018 126.746L298.451 126.885L297.583 127.096L296.759 127.298L296.095 127.229C295.798 127.183 295.505 127.116 295.217 127.03C294.892 126.914 294.577 126.774 294.273 126.611C294.154 126.504 293.984 126.359 293.518 125.965C293.258 125.771 293.019 125.552 292.804 125.309C292.729 125.19 292.489 124.364 292.489 124.364C292.335 123.896 292.205 123.421 292.099 122.939C292.077 122.662 292.071 122.066 292.071 122.066C292.137 121.65 292.242 121.24 292.386 120.844C292.54 120.528 292.738 120.213 292.738 120.213C292.945 119.882 293.175 119.566 293.427 119.268C293.547 119.189 293.484 118.931 294.078 118.738C294.673 118.546 294.981 118.471 294.981 118.471L295.991 118.272L297.772 118.203H298.697L299.908 118.458C300.171 118.547 300.429 118.652 300.679 118.773C300.957 118.928 301.217 119.112 301.456 119.321L301.934 119.574L302.428 119.728L302.799 120.1L302.837 120.878Z" fill="#111111"/>
<g opacity="0.93">
<path d="M287.043 121.817C286.869 122.251 286.646 122.662 286.376 123.043L286.099 123.617C285.919 123.887 285.698 124.128 285.445 124.332C285.226 124.485 285.021 124.658 284.835 124.849C284.835 124.849 284.857 124.937 284.476 125.073C284.095 125.208 283.148 125.628 283.148 125.628L282.028 125.763L281.084 125.813L279.47 125.423L278.678 125.013L277.882 124.565L277.278 123.976L276.897 123.743L276.541 123.05L276.016 121.653L275.83 120.314L275.925 119.369L276.356 118.108L276.913 117.371L277.485 116.961L278.287 116.671C278.287 116.671 278.888 116.476 279.017 116.444C279.146 116.413 279.788 116.211 279.788 116.211L281.144 116.11L283.347 116.406L284.095 116.636L285.001 117.153L285.898 117.629L286.417 118.054L286.861 118.37C286.861 118.37 287.078 118.502 287.204 119.208C287.282 119.517 287.329 119.834 287.342 120.153" fill="url(#paint13_linear_471_2133)"/>
<path d="M287.043 121.817C286.869 122.251 286.646 122.662 286.376 123.043L286.099 123.617C285.919 123.887 285.698 124.128 285.445 124.332C285.226 124.485 285.021 124.658 284.835 124.849C284.835 124.849 284.857 124.937 284.476 125.073C284.095 125.208 283.148 125.628 283.148 125.628L282.028 125.763L281.084 125.813L279.47 125.423L278.678 125.013L277.882 124.565L277.278 123.976L276.897 123.743L276.541 123.05L276.016 121.653L275.83 120.314L275.925 119.369L276.356 118.108L276.913 117.371L277.485 116.961L278.287 116.671C278.287 116.671 278.888 116.476 279.017 116.444C279.146 116.413 279.788 116.211 279.788 116.211L281.144 116.11L283.347 116.406L284.095 116.636L285.001 117.153L285.898 117.629L286.417 118.054L286.861 118.37C286.861 118.37 287.078 118.502 287.204 119.208C287.282 119.517 287.329 119.834 287.342 120.153" stroke="#23252C" stroke-width="0.547586"/>
</g>
<path opacity="0.93" d="M302.79 120.09L302.837 120.866L302.755 122.035L302.589 122.86C302.505 123.152 302.406 123.438 302.29 123.718C302.145 124.106 301.958 124.477 301.733 124.824L301.318 125.385L300.871 125.82C300.58 125.912 300.302 126.041 300.043 126.204C299.716 126.408 299.373 126.585 299.018 126.734L298.451 126.872L297.583 127.083L296.759 127.285L296.095 127.216C295.798 127.17 295.505 127.104 295.217 127.017C294.892 126.902 294.577 126.762 294.273 126.598C294.154 126.491 293.984 126.346 293.518 125.952C293.258 125.759 293.019 125.539 292.804 125.297C292.728 125.177 292.489 124.351 292.489 124.351C292.335 123.883 292.205 123.408 292.099 122.927C292.077 122.649 292.071 122.054 292.071 122.054C292.137 121.637 292.242 121.228 292.386 120.831C292.54 120.516 292.738 120.201 292.738 120.201C292.945 119.87 293.175 119.554 293.427 119.255C293.546 119.176 293.484 118.918 294.078 118.726C294.673 118.533 294.981 118.458 294.981 118.458L295.991 118.259L297.772 118.19H298.697L299.908 118.445C300.171 118.534 300.429 118.639 300.679 118.76C300.957 118.915 301.217 119.099 301.456 119.309L301.934 119.561L302.428 119.715L302.79 120.09Z" fill="url(#paint14_linear_471_2133)" stroke="#23252C" stroke-width="0.547586"/>
<path d="M269.765 143.036C269.765 142.721 240.156 150.285 237.227 155.431C236.365 156.941 232.627 159.484 235.163 161.734C238.403 164.612 250.969 176.795 263.236 182.941C275.503 189.086 292.467 192.71 305.458 189.086C318.449 185.462 327.107 182.216 327.83 175.349C328.554 168.482 326.67 156.09 324.942 155.003C316.183 149.475 291.558 144.877 289.368 146.232C289.368 146.232 289.441 149.226 289.076 149.957C288.711 150.688 289.233 152.951 283.023 152.582C276.812 152.214 269.459 150.184 269.418 149.245C269.378 148.306 269.765 143.036 269.765 143.036Z" fill="#101116" stroke="#23252C" stroke-width="0.547586"/>
<path d="M343.785 154.183H225.929C225.451 154.186 224.98 154.297 224.551 154.509C224.122 154.721 223.748 155.028 223.455 155.407C223.163 155.786 222.961 156.227 222.864 156.696C222.767 157.164 222.778 157.649 222.896 158.113L237.488 214.27C237.748 215.272 238.332 216.159 239.15 216.792C239.968 217.425 240.972 217.768 242.006 217.768H324.883C325.879 217.768 326.85 217.449 327.653 216.857C328.456 216.265 329.048 215.431 329.344 214.478L346.777 158.255C346.92 157.785 346.952 157.289 346.869 156.804C346.787 156.32 346.592 155.862 346.302 155.467C346.011 155.071 345.632 154.749 345.195 154.526C344.758 154.303 344.275 154.186 343.785 154.183Z" fill="#202229" stroke="#23252C" stroke-width="0.547586"/>
<path d="M282.897 196.722C288.632 196.722 293.282 192.065 293.282 186.319C293.282 180.574 288.632 175.916 282.897 175.916C277.161 175.916 272.511 180.574 272.511 186.319C272.511 192.065 277.161 196.722 282.897 196.722Z" stroke="#55575F" stroke-width="0.547586"/>
<path d="M282.006 189.716L278.737 186.88L280.169 187.195C280.213 187.332 280.303 187.45 280.424 187.529C280.555 187.615 280.708 187.66 280.864 187.658L282 189.72L282.006 189.716ZM285.146 187.658C285.301 187.659 285.453 187.614 285.584 187.529C285.704 187.45 285.795 187.332 285.842 187.195L287.273 186.88L284.004 189.694L285.14 187.633L285.146 187.658ZM283.019 186.767C283.178 186.767 283.333 186.721 283.466 186.634L284.476 187.044C284.477 187.191 284.536 187.331 284.64 187.435L283.067 190.243H282.953L281.405 187.425C281.51 187.322 281.57 187.182 281.572 187.034L282.582 186.625C282.71 186.709 282.86 186.755 283.013 186.757L283.019 186.767ZM284.715 186.565L283.715 186.165V186.146C283.713 186.032 283.674 185.921 283.605 185.831C283.522 185.728 283.414 185.651 283.29 185.607V182.944H283.318L287.282 186.357V186.382L285.741 186.697C285.672 186.616 285.586 186.552 285.489 186.508C285.39 186.465 285.283 186.441 285.175 186.439C285.012 186.437 284.854 186.486 284.721 186.581L284.715 186.565ZM280.273 186.697L278.75 186.382V186.347L282.711 182.934L282.73 182.95V185.613C282.612 185.661 282.508 185.739 282.431 185.84C282.36 185.93 282.319 186.04 282.315 186.155V186.171L281.311 186.568C281.178 186.476 281.02 186.426 280.858 186.426C280.749 186.429 280.642 186.454 280.543 186.499C280.444 186.54 280.358 186.606 280.292 186.691L280.273 186.697ZM283.038 181.579C282.828 181.577 282.623 181.651 282.463 181.787C282.389 181.847 282.329 181.923 282.287 182.008C282.245 182.093 282.223 182.187 282.22 182.282C282.219 182.381 282.244 182.479 282.293 182.566L278.332 185.966C278.23 185.931 278.124 185.91 278.017 185.906C277.807 185.903 277.602 185.976 277.441 186.111C277.367 186.17 277.306 186.245 277.265 186.331C277.223 186.417 277.202 186.511 277.202 186.606C277.202 186.701 277.223 186.795 277.265 186.881C277.306 186.967 277.367 187.042 277.441 187.101C277.602 187.236 277.804 187.309 278.014 187.309H278.033C278.14 187.31 278.247 187.29 278.347 187.249L282.308 190.656C282.265 190.745 282.24 190.843 282.236 190.942C282.238 191.037 282.261 191.131 282.303 191.216C282.345 191.302 282.404 191.377 282.478 191.437C282.639 191.572 282.842 191.646 283.052 191.646C283.262 191.646 283.466 191.572 283.627 191.437C283.7 191.378 283.76 191.303 283.802 191.218C283.844 191.133 283.867 191.04 283.869 190.946C283.871 190.845 283.846 190.746 283.796 190.659L287.758 187.249C287.865 187.286 287.977 187.306 288.091 187.309C288.301 187.308 288.504 187.235 288.667 187.104C288.741 187.045 288.801 186.97 288.842 186.884C288.883 186.799 288.904 186.705 288.904 186.611C288.904 186.516 288.883 186.422 288.842 186.337C288.801 186.251 288.741 186.176 288.667 186.117C288.508 185.988 288.309 185.918 288.104 185.919H288.075C287.968 185.918 287.861 185.939 287.761 185.979L283.778 182.566C283.824 182.477 283.849 182.379 283.85 182.279C283.85 182.184 283.829 182.09 283.787 182.004C283.746 181.918 283.685 181.843 283.611 181.784C283.449 181.649 283.245 181.577 283.035 181.579" fill="#808489"/>
<defs>
<filter id="filter0_b_471_2133" x="436" y="2" width="134" height="60" filterUnits="userSpaceOnUse" color-interpolation-filters="sRGB">
<feFlood flood-opacity="0" result="BackgroundImageFix"/>
<feGaussianBlur in="BackgroundImage" stdDeviation="6"/>
<feComposite in2="SourceAlpha" operator="in" result="effect1_backgroundBlur_471_2133"/>
<feBlend mode="normal" in="SourceGraphic" in2="effect1_backgroundBlur_471_2133" result="shape"/>
</filter>
<linearGradient id="paint0_linear_471_2133" x1="239.9" y1="278.784" x2="337.087" y2="278.784" gradientUnits="userSpaceOnUse">
<stop stop-color="#E0974C"/>
<stop offset="1" stop-color="#C93F6F"/>
</linearGradient>
<linearGradient id="paint1_linear_471_2133" x1="239.9" y1="278.784" x2="337.087" y2="278.784" gradientUnits="userSpaceOnUse">
<stop stop-color="#E0974C"/>
<stop offset="1" stop-color="#C93F6F"/>
</linearGradient>
<linearGradient id="paint2_linear_471_2133" x1="239.9" y1="278.784" x2="337.087" y2="278.784" gradientUnits="userSpaceOnUse">
<stop stop-color="#E0974C"/>
<stop offset="1" stop-color="#C93F6F"/>
</linearGradient>
<linearGradient id="paint3_linear_471_2133" x1="239.9" y1="278.784" x2="337.087" y2="278.784" gradientUnits="userSpaceOnUse">
<stop stop-color="#E0974C"/>
<stop offset="1" stop-color="#C93F6F"/>
</linearGradient>
<linearGradient id="paint4_linear_471_2133" x1="239.9" y1="278.784" x2="337.087" y2="278.784" gradientUnits="userSpaceOnUse">
<stop stop-color="#E0974C"/>
<stop offset="1" stop-color="#C93F6F"/>
</linearGradient>
<linearGradient id="paint5_linear_471_2133" x1="239.9" y1="278.784" x2="337.087" y2="278.784" gradientUnits="userSpaceOnUse">
<stop stop-color="#E0974C"/>
<stop offset="1" stop-color="#C93F6F"/>
</linearGradient>
<linearGradient id="paint6_linear_471_2133" x1="239.9" y1="278.784" x2="337.087" y2="278.784" gradientUnits="userSpaceOnUse">
<stop stop-color="#E0974C"/>
<stop offset="1" stop-color="#C93F6F"/>
</linearGradient>
<linearGradient id="paint7_linear_471_2133" x1="239.9" y1="278.784" x2="337.087" y2="278.784" gradientUnits="userSpaceOnUse">
<stop stop-color="#E0974C"/>
<stop offset="1" stop-color="#C93F6F"/>
</linearGradient>
<linearGradient id="paint8_linear_471_2133" x1="239.9" y1="278.784" x2="337.087" y2="278.784" gradientUnits="userSpaceOnUse">
<stop stop-color="#E0974C"/>
<stop offset="1" stop-color="#C93F6F"/>
</linearGradient>
<linearGradient id="paint9_linear_471_2133" x1="239.9" y1="278.784" x2="337.087" y2="278.784" gradientUnits="userSpaceOnUse">
<stop stop-color="#E0974C"/>
<stop offset="1" stop-color="#C93F6F"/>
</linearGradient>
<linearGradient id="paint10_linear_471_2133" x1="239.9" y1="278.784" x2="337.087" y2="278.784" gradientUnits="userSpaceOnUse">
<stop stop-color="#E0974C"/>
<stop offset="1" stop-color="#C93F6F"/>
</linearGradient>
<linearGradient id="paint11_linear_471_2133" x1="239.9" y1="278.784" x2="337.087" y2="278.784" gradientUnits="userSpaceOnUse">
<stop stop-color="#E0974C"/>
<stop offset="1" stop-color="#C93F6F"/>
</linearGradient>
<linearGradient id="paint12_linear_471_2133" x1="239.9" y1="278.784" x2="337.087" y2="278.784" gradientUnits="userSpaceOnUse">
<stop stop-color="#E0974C"/>
<stop offset="1" stop-color="#C93F6F"/>
</linearGradient>
<linearGradient id="paint13_linear_471_2133" x1="275.83" y1="120.962" x2="287.342" y2="120.962" gradientUnits="userSpaceOnUse">
<stop stop-color="#E0974C"/>
<stop offset="1" stop-color="#C93F6F"/>
</linearGradient>
<linearGradient id="paint14_linear_471_2133" x1="292.071" y1="122.738" x2="302.837" y2="122.738" gradientUnits="userSpaceOnUse">
<stop stop-color="#E0974C"/>
<stop offset="1" stop-color="#C93F6F"/>
</linearGradient>
</defs>
</svg>
