<svg width="114" height="114" viewBox="0 0 114 114" fill="none" xmlns="http://www.w3.org/2000/svg">
<path d="M57 113C87.9279 113 113 87.9279 113 57C113 26.0721 87.9279 1 57 1C26.0721 1 1 26.0721 1 57C1 87.9279 26.0721 113 57 113Z" fill="#181A1F" stroke="#1B1D24" stroke-width="2"/>
<path d="M48.9366 33.6722L56.363 29.5357L30.5433 55.8922L23.1201 60.0286L48.9366 33.6722Z" fill="url(#paint0_linear_1768_5818)" stroke="#FFBA93" stroke-width="0.81561"/>
<path d="M57.5618 34.9131L64.9882 30.7767L65.0924 88.8636L57.6693 93L57.5618 34.9131Z" fill="url(#paint1_linear_1768_5818)" stroke="#FFBA93" stroke-width="0.81561"/>
<path d="M50.9954 17.5701L58.4185 13.4504C58.5496 13.3784 58.6844 13.3138 58.8224 13.2569L51.3993 17.3933C51.261 17.4496 51.1262 17.5142 50.9954 17.5868" fill="url(#paint2_linear_1768_5818)"/>
<path d="M50.9954 17.5701L58.4185 13.4504C58.5496 13.3784 58.6844 13.3138 58.8224 13.2569L51.3993 17.3933C51.261 17.4496 51.1262 17.5142 50.9954 17.5868" stroke="#FFBA93" stroke-width="0.81561"/>
<path d="M51.3994 17.3766L58.8226 13.2402C58.9453 13.1926 59.0703 13.1514 59.1971 13.1168L51.787 17.2532C51.66 17.2873 51.535 17.3285 51.4124 17.3766" fill="url(#paint3_linear_1768_5818)"/>
<path d="M51.3994 17.3766L58.8226 13.2402C58.9453 13.1926 59.0703 13.1514 59.1971 13.1168L51.787 17.2532C51.66 17.2873 51.535 17.3285 51.4124 17.3766" stroke="#FFBA93" stroke-width="0.81561"/>
<path d="M51.7869 17.253L59.1971 13.1165C59.298 13.0899 59.399 13.0665 59.5032 13.0498L52.0768 17.1863C51.9759 17.2029 51.8749 17.2263 51.7739 17.253" fill="url(#paint4_linear_1768_5818)"/>
<path d="M51.7869 17.253L59.1971 13.1165C59.298 13.0899 59.399 13.0665 59.5032 13.0498L52.0768 17.1863C51.9759 17.2029 51.8749 17.2263 51.7739 17.253" stroke="#FFBA93" stroke-width="0.81561"/>
<path d="M52.0769 17.1864L59.5033 13.05C59.5912 13.0333 59.6792 13.0233 59.7704 13.0133L52.3472 17.1497C52.256 17.1497 52.1681 17.1698 52.0769 17.1864Z" fill="url(#paint5_linear_1768_5818)" stroke="#FFBA93" stroke-width="0.81561"/>
<path d="M52.3472 17.1497L59.7703 13.0133C59.8518 13.0133 59.9364 13.0133 60.0179 13.0133L52.5947 17.1497C52.51 17.1497 52.4286 17.1497 52.3472 17.1497Z" fill="url(#paint6_linear_1768_5818)" stroke="#FFBA93" stroke-width="0.81561"/>
<path d="M52.5947 17.1364L60.0179 13H60.2557L52.8325 17.1364H52.598" fill="url(#paint7_linear_1768_5818)"/>
<path d="M52.5947 17.1364L60.0179 13H60.2557L52.8325 17.1364H52.598" stroke="#FFBA93" stroke-width="0.81561"/>
<path d="M52.8293 17.1364L60.2557 13L60.4805 13.0167L53.0574 17.1531C52.9824 17.1531 52.9075 17.1531 52.8326 17.1364" fill="url(#paint8_linear_1768_5818)"/>
<path d="M52.8293 17.1364L60.2557 13L60.4805 13.0167L53.0574 17.1531C52.9824 17.1531 52.9075 17.1531 52.8326 17.1364" stroke="#FFBA93" stroke-width="0.81561"/>
<path d="M53.0542 17.1531L60.4773 13.0166L60.6435 13.0366L53.2171 17.1731C53.1632 17.1631 53.1088 17.1564 53.0542 17.1531Z" fill="url(#paint9_linear_1768_5818)"/>
<path d="M53.0542 17.1531L60.4773 13.0166L60.6435 13.0366L53.2171 17.1731C53.1632 17.1631 53.1088 17.1564 53.0542 17.1531" stroke="#FFBA93" stroke-width="0.81561"/>
<path d="M53.2168 17.173L60.6432 13.0365H60.6953L53.2689 17.173H53.2168Z" fill="url(#paint10_linear_1768_5818)" stroke="#FFBA93" stroke-width="0.81561"/>
<path d="M53.2688 17.1796L60.6952 13.0432L60.9069 13.0832L53.4838 17.2196C53.4121 17.2041 53.3405 17.1907 53.2688 17.1796Z" fill="url(#paint11_linear_1768_5818)" stroke="#FFBA93" stroke-width="0.81561"/>
<path d="M53.4836 17.2198L60.9068 13.0834L61.1185 13.1368L53.6953 17.2732L53.4836 17.2198Z" fill="url(#paint12_linear_1768_5818)"/>
<path d="M53.4836 17.2198L60.9068 13.0834L61.1185 13.1368L53.6953 17.2732L53.4836 17.2198" stroke="#FFBA93" stroke-width="0.81561"/>
<path d="M53.6956 17.2732L61.1187 13.1368C61.1904 13.1535 61.262 13.1768 61.3304 13.2002L53.9073 17.3366C53.8356 17.3132 53.7672 17.2899 53.6956 17.2732Z" fill="url(#paint13_linear_1768_5818)" stroke="#FFBA93" stroke-width="0.81561"/>
<path d="M53.9075 17.3366L61.3306 13.2002C61.4023 13.2235 61.4739 13.2469 61.5423 13.2769L54.1192 17.4133C54.0475 17.3833 53.9791 17.3599 53.9075 17.3366Z" fill="url(#paint14_linear_1768_5818)" stroke="#FFBA93" stroke-width="0.81561"/>
<path d="M54.1191 17.4133L61.5586 13.2769L61.7735 13.3669L54.3504 17.5034L54.1354 17.4133" fill="url(#paint15_linear_1768_5818)"/>
<path d="M54.1191 17.4133L61.5586 13.2769L61.7735 13.3669L54.3504 17.5034L54.1354 17.4133" stroke="#FFBA93" stroke-width="0.81561"/>
<path d="M54.334 17.5034L61.7571 13.367L61.9786 13.4737L54.5555 17.6101L54.334 17.5034Z" fill="url(#paint16_linear_1768_5818)" stroke="#FFBA93" stroke-width="0.81561"/>
<path d="M54.5552 17.6101L61.9783 13.4737C62.0565 13.5137 62.1347 13.5571 62.2096 13.6038L54.7864 17.7402C54.7083 17.6935 54.6333 17.6502 54.5552 17.6101Z" fill="url(#paint17_linear_1768_5818)" stroke="#FFBA93" stroke-width="0.81561"/>
<path d="M54.7866 17.7402L62.2098 13.6038C62.2912 13.6505 62.3726 13.7039 62.4541 13.7572L55.0439 17.8937C54.9625 17.8403 54.8811 17.7869 54.7996 17.7402" fill="url(#paint18_linear_1768_5818)"/>
<path d="M54.7866 17.7402L62.2098 13.6038C62.2912 13.6505 62.3726 13.7039 62.4541 13.7572L55.0439 17.8937C54.9625 17.8403 54.8811 17.7869 54.7996 17.7402" stroke="#FFBA93" stroke-width="0.81561"/>
<path d="M55.0442 17.8937L62.4673 13.7572C62.5553 13.8206 62.6465 13.884 62.7344 13.9541L55.308 18.0905C55.2201 18.0204 55.1321 17.9571 55.0442 17.8937Z" fill="url(#paint19_linear_1768_5818)"/>
<path d="M55.0442 17.8937L62.4673 13.7572C62.5553 13.8206 62.6465 13.884 62.7344 13.9541L55.308 18.0905C55.2201 18.0204 55.1321 17.9571 55.0442 17.8937" stroke="#FFBA93" stroke-width="0.81561"/>
<path d="M55.2949 18.0905L62.7213 13.9541C62.8255 14.0341 62.9297 14.1242 63.0307 14.2143L55.6043 18.3507C55.5004 18.2579 55.3917 18.1711 55.2786 18.0905" fill="url(#paint20_linear_1768_5818)"/>
<path d="M55.2949 18.0905L62.7213 13.9541C62.8255 14.0341 62.9297 14.1242 63.0307 14.2143L55.6043 18.3507C55.5004 18.2579 55.3917 18.1711 55.2786 18.0905" stroke="#FFBA93" stroke-width="0.81561"/>
<path d="M55.6042 18.3507L63.0306 14.2143C63.1739 14.3477 63.3139 14.4911 63.4507 14.6446L56.0211 18.7877C55.8873 18.6368 55.746 18.4932 55.5977 18.3574" fill="url(#paint21_linear_1768_5818)"/>
<path d="M55.6042 18.3507L63.0306 14.2143C63.1739 14.3477 63.3139 14.4911 63.4507 14.6446L56.0211 18.7877C55.8873 18.6368 55.746 18.4932 55.5977 18.3574" stroke="#FFBA93" stroke-width="0.81561"/>
<path d="M56.021 18.7877L63.4441 14.6512C63.5288 14.7491 63.6103 14.8492 63.6884 14.9515L56.2653 19.0879C56.1849 18.9834 56.1035 18.8833 56.021 18.7877Z" fill="url(#paint22_linear_1768_5818)" stroke="#FFBA93" stroke-width="0.81561"/>
<path d="M53.2168 17.1731C54.4374 17.3815 55.5322 18.0652 56.272 19.0812L89.5703 62.5038L83.4826 68.7151L57.5553 34.9098L57.6596 92.9967L49.0345 91.7557L48.9303 33.6688L23.1105 60.0219L17 52.0493L50.1582 18.2006C50.5522 17.7935 51.0349 17.4882 51.5666 17.3095C52.0984 17.1309 52.6639 17.0842 53.2168 17.1731Z" fill="url(#paint23_linear_1768_5818)" stroke="#FFBA93" stroke-width="0.81561"/>
<path d="M56.272 19.0812L63.6951 14.9448L96.9999 58.3674L89.5768 62.5038L56.272 19.0812Z" fill="url(#paint24_linear_1768_5818)" stroke="#FFBA93" stroke-width="0.81561"/>
<path d="M89.577 62.5038L97.0001 58.3674L90.9157 64.582L83.4893 68.7185L89.577 62.5038Z" fill="url(#paint25_linear_1768_5818)" stroke="#FFBA93" stroke-width="0.81561"/>
<defs>
<linearGradient id="paint0_linear_1768_5818" x1="23.1201" y1="44.7824" x2="56.363" y2="44.7824" gradientUnits="userSpaceOnUse">
<stop stop-color="#E0974C"/>
<stop offset="1" stop-color="#C93F6F"/>
</linearGradient>
<linearGradient id="paint1_linear_1768_5818" x1="57.5618" y1="61.8888" x2="65.0924" y2="61.8888" gradientUnits="userSpaceOnUse">
<stop stop-color="#E0974C"/>
<stop offset="1" stop-color="#C93F6F"/>
</linearGradient>
<linearGradient id="paint2_linear_1768_5818" x1="50.9954" y1="15.4219" x2="58.8224" y2="15.4219" gradientUnits="userSpaceOnUse">
<stop stop-color="#E0974C"/>
<stop offset="1" stop-color="#C93F6F"/>
</linearGradient>
<linearGradient id="paint3_linear_1768_5818" x1="51.3994" y1="15.2467" x2="59.1971" y2="15.2467" gradientUnits="userSpaceOnUse">
<stop stop-color="#E0974C"/>
<stop offset="1" stop-color="#C93F6F"/>
</linearGradient>
<linearGradient id="paint4_linear_1768_5818" x1="51.7739" y1="15.1514" x2="59.5032" y2="15.1514" gradientUnits="userSpaceOnUse">
<stop stop-color="#E0974C"/>
<stop offset="1" stop-color="#C93F6F"/>
</linearGradient>
<linearGradient id="paint5_linear_1768_5818" x1="52.0769" y1="15.0999" x2="59.7704" y2="15.0999" gradientUnits="userSpaceOnUse">
<stop stop-color="#E0974C"/>
<stop offset="1" stop-color="#C93F6F"/>
</linearGradient>
<linearGradient id="paint6_linear_1768_5818" x1="52.3472" y1="15.0815" x2="60.0179" y2="15.0815" gradientUnits="userSpaceOnUse">
<stop stop-color="#E0974C"/>
<stop offset="1" stop-color="#C93F6F"/>
</linearGradient>
<linearGradient id="paint7_linear_1768_5818" x1="52.5947" y1="15.0683" x2="60.2557" y2="15.0683" gradientUnits="userSpaceOnUse">
<stop stop-color="#E0974C"/>
<stop offset="1" stop-color="#C93F6F"/>
</linearGradient>
<linearGradient id="paint8_linear_1768_5818" x1="52.8293" y1="15.0766" x2="60.4805" y2="15.0766" gradientUnits="userSpaceOnUse">
<stop stop-color="#E0974C"/>
<stop offset="1" stop-color="#C93F6F"/>
</linearGradient>
<linearGradient id="paint9_linear_1768_5818" x1="53.0542" y1="15.0949" x2="60.6435" y2="15.0949" gradientUnits="userSpaceOnUse">
<stop stop-color="#E0974C"/>
<stop offset="1" stop-color="#C93F6F"/>
</linearGradient>
<linearGradient id="paint10_linear_1768_5818" x1="53.2168" y1="15.1048" x2="60.6953" y2="15.1048" gradientUnits="userSpaceOnUse">
<stop stop-color="#E0974C"/>
<stop offset="1" stop-color="#C93F6F"/>
</linearGradient>
<linearGradient id="paint11_linear_1768_5818" x1="53.2688" y1="15.1314" x2="60.9069" y2="15.1314" gradientUnits="userSpaceOnUse">
<stop stop-color="#E0974C"/>
<stop offset="1" stop-color="#C93F6F"/>
</linearGradient>
<linearGradient id="paint12_linear_1768_5818" x1="53.4836" y1="15.1783" x2="61.1185" y2="15.1783" gradientUnits="userSpaceOnUse">
<stop stop-color="#E0974C"/>
<stop offset="1" stop-color="#C93F6F"/>
</linearGradient>
<linearGradient id="paint13_linear_1768_5818" x1="53.6956" y1="15.2367" x2="61.3304" y2="15.2367" gradientUnits="userSpaceOnUse">
<stop stop-color="#E0974C"/>
<stop offset="1" stop-color="#C93F6F"/>
</linearGradient>
<linearGradient id="paint14_linear_1768_5818" x1="53.9075" y1="15.3068" x2="61.5423" y2="15.3068" gradientUnits="userSpaceOnUse">
<stop stop-color="#E0974C"/>
<stop offset="1" stop-color="#C93F6F"/>
</linearGradient>
<linearGradient id="paint15_linear_1768_5818" x1="54.1191" y1="15.3902" x2="61.7735" y2="15.3902" gradientUnits="userSpaceOnUse">
<stop stop-color="#E0974C"/>
<stop offset="1" stop-color="#C93F6F"/>
</linearGradient>
<linearGradient id="paint16_linear_1768_5818" x1="54.334" y1="15.4886" x2="61.9786" y2="15.4886" gradientUnits="userSpaceOnUse">
<stop stop-color="#E0974C"/>
<stop offset="1" stop-color="#C93F6F"/>
</linearGradient>
<linearGradient id="paint17_linear_1768_5818" x1="54.5552" y1="15.607" x2="62.2096" y2="15.607" gradientUnits="userSpaceOnUse">
<stop stop-color="#E0974C"/>
<stop offset="1" stop-color="#C93F6F"/>
</linearGradient>
<linearGradient id="paint18_linear_1768_5818" x1="54.7866" y1="15.7488" x2="62.4541" y2="15.7488" gradientUnits="userSpaceOnUse">
<stop stop-color="#E0974C"/>
<stop offset="1" stop-color="#C93F6F"/>
</linearGradient>
<linearGradient id="paint19_linear_1768_5818" x1="55.0442" y1="15.9239" x2="62.7344" y2="15.9239" gradientUnits="userSpaceOnUse">
<stop stop-color="#E0974C"/>
<stop offset="1" stop-color="#C93F6F"/>
</linearGradient>
<linearGradient id="paint20_linear_1768_5818" x1="55.2786" y1="16.1524" x2="63.0307" y2="16.1524" gradientUnits="userSpaceOnUse">
<stop stop-color="#E0974C"/>
<stop offset="1" stop-color="#C93F6F"/>
</linearGradient>
<linearGradient id="paint21_linear_1768_5818" x1="55.5977" y1="16.501" x2="63.4507" y2="16.501" gradientUnits="userSpaceOnUse">
<stop stop-color="#E0974C"/>
<stop offset="1" stop-color="#C93F6F"/>
</linearGradient>
<linearGradient id="paint22_linear_1768_5818" x1="56.021" y1="16.8696" x2="63.6884" y2="16.8696" gradientUnits="userSpaceOnUse">
<stop stop-color="#E0974C"/>
<stop offset="1" stop-color="#C93F6F"/>
</linearGradient>
<linearGradient id="paint23_linear_1768_5818" x1="17" y1="55.0635" x2="89.5703" y2="55.0635" gradientUnits="userSpaceOnUse">
<stop stop-color="#E0974C"/>
<stop offset="1" stop-color="#C93F6F"/>
</linearGradient>
<linearGradient id="paint24_linear_1768_5818" x1="56.272" y1="38.7246" x2="96.9999" y2="38.7246" gradientUnits="userSpaceOnUse">
<stop stop-color="#E0974C"/>
<stop offset="1" stop-color="#C93F6F"/>
</linearGradient>
<linearGradient id="paint25_linear_1768_5818" x1="83.4893" y1="63.543" x2="97.0001" y2="63.543" gradientUnits="userSpaceOnUse">
<stop stop-color="#E0974C"/>
<stop offset="1" stop-color="#C93F6F"/>
</linearGradient>
</defs>
</svg>
