<svg width="38" height="16" viewBox="0 0 38 16" fill="none" xmlns="http://www.w3.org/2000/svg">
<path d="M0.918457 0.203796H5.93537C10.1046 0.203796 12.1106 2.99707 12.1106 8.00254C12.1106 13.008 10.0983 15.8 5.93537 15.8H0.918457V0.203796ZM5.71276 13.1618C7.69613 13.1618 8.58783 11.8433 8.58783 9.408V6.56934C8.58783 4.15674 7.69613 2.83825 5.71276 2.83825H4.21863V13.1618H5.71276Z" fill="#D25B73"/>
<path d="M14.6523 15.7975V0.202515H24.5956V2.95041H17.9965V6.5252H24.373V9.2731H17.9965V13.0496H24.5956V15.7975H14.6523Z" fill="#D87168"/>
<path d="M27.9675 15.7975V13.3181H31.3117V2.68193H27.9675V0.202515H38.0001V2.68193H34.6559V13.3181H38.0001V15.7975H27.9675Z" fill="#DE8E5A"/>
</svg>
