<svg width="28" height="28" viewBox="0 0 28 28" fill="none" xmlns="http://www.w3.org/2000/svg">
<path d="M26.0499 12.0655C25.7774 12.0587 25.5065 12.1156 25.2596 12.231L15.7778 2.74382C15.8876 2.49424 15.9467 2.22498 15.9516 1.95195C15.9501 1.43492 15.7439 0.939155 15.3788 0.573211C15.0118 0.206737 14.5164 0.000808761 14 0C13.484 0.00504424 12.9903 0.213176 12.6242 0.580043C12.2591 0.945987 12.0529 1.441 12.0499 1.95803C12.0439 2.23134 12.1003 2.50239 12.2155 2.74989L2.7419 12.2075C2.49202 12.1012 2.22332 12.045 1.95161 12.042C1.43627 12.0428 0.941882 12.2478 0.575023 12.6129C0.209236 12.9773 0.00301059 13.4708 0 13.9871C0.00572675 14.5041 0.213122 14.9981 0.577279 15.362C0.942314 15.7272 1.4353 15.9353 1.95161 15.9406C2.22407 15.9482 2.49503 15.8912 2.7419 15.7751L12.2155 25.2569C12.1093 25.5067 12.0529 25.7755 12.0499 26.0473C12.0506 26.5643 12.2561 27.0601 12.6219 27.426C12.9886 27.7926 13.4837 27.9988 14 28C14.5163 27.9947 15.0093 27.7867 15.3743 27.4215C15.7385 27.0576 15.9459 26.5636 15.9516 26.0465C15.9561 25.7732 15.8967 25.5022 15.7778 25.2562L25.2596 15.7659C25.5095 15.873 25.7782 15.9292 26.0499 15.9315C26.5664 15.9304 27.0618 15.7242 27.4287 15.3575C27.7945 14.9915 28 14.495 28 13.978C27.9947 13.4655 27.7862 12.9766 27.4212 12.6175C27.0542 12.258 26.5614 12.0591 26.0499 12.064V12.0655ZM24.2277 13.3266L20.5443 14.2194C20.3847 14.0015 20.177 13.8231 19.9369 13.6986C19.6968 13.5741 19.4311 13.5073 19.1609 13.502C18.7637 13.5008 18.3788 13.6411 18.0741 13.8983L15.6799 12.7845V12.7283C15.6826 12.4033 15.5899 12.0847 15.4135 11.8127C15.2366 11.5401 14.9837 11.3253 14.6864 11.1954V3.78091C14.7113 3.78091 14.7346 3.75586 14.7594 3.75586L24.2413 13.2461C24.2315 13.2696 24.2255 13.2947 24.2232 13.3205L24.2285 13.3258L24.2277 13.3266ZM14.0053 24.1257H13.8577L10.1547 16.2921C10.4108 15.9883 10.5507 15.6021 10.5491 15.2034L12.9681 14.0668C13.2664 14.2977 13.6294 14.4277 14.0053 14.4381C14.3899 14.432 14.7624 14.3014 15.0673 14.0668L17.4878 15.2034V15.2284C17.4859 15.6268 17.6258 16.0126 17.8822 16.3156L14.1295 24.1257H14.0053ZM13.2842 3.78091V11.1954C12.9922 11.3329 12.7438 11.5492 12.5685 11.8195C12.3931 12.0898 12.2968 12.4049 12.29 12.7276V12.7754L9.89581 13.8869C9.59249 13.6303 9.20789 13.4898 8.81049 13.4906C8.53879 13.4921 8.27235 13.5589 8.03226 13.6857C7.79267 13.812 7.58688 13.9949 7.4324 14.2187L3.78732 13.3289C3.78732 13.3038 3.76249 13.2795 3.76249 13.2294L13.2428 3.73915C13.2346 3.75586 13.2594 3.75586 13.2842 3.78091ZM3.75421 14.779L7.18553 15.6187C7.2781 15.9869 7.49186 16.3141 7.79216 16.5464C8.09323 16.7794 8.46263 16.9047 8.8421 16.9025H8.86694L11.5825 22.6369L3.75421 14.7782V14.779ZM19.1361 16.9033H19.1609C19.5393 16.9016 19.9068 16.775 20.2071 16.5426C20.5066 16.3103 20.7211 15.9861 20.8175 15.6194L24.2488 14.7797V14.8048L16.4228 22.6376L19.1368 16.9033H19.1361Z" fill="url(#paint0_linear_114_1934)"/>
<defs>
<linearGradient id="paint0_linear_114_1934" x1="0" y1="14.0106" x2="27.9965" y2="14.0106" gradientUnits="userSpaceOnUse">
<stop stop-color="#0BADF4"/>
<stop offset="0.9341" stop-color="#30EFE4"/>
</linearGradient>
</defs>
</svg>
