<svg width="68" height="20" viewBox="0 0 68 20" fill="none" xmlns="http://www.w3.org/2000/svg">
<path d="M0.000829339 0.530221C0.000829339 0.480782 0.0199171 0.4339 0.0539387 0.398951C0.0709633 0.381561 0.0911599 0.36779 0.113373 0.358429C0.135585 0.349068 0.159376 0.3443 0.183385 0.344398H6.45995C8.35437 0.344398 9.98326 0.744174 11.3333 1.54458C12.6667 2.32666 13.7433 3.49876 14.426 4.91158C15.1363 6.35896 15.4914 8.0527 15.4931 9.99362C15.4931 11.9917 15.128 13.7144 14.426 15.1703C13.7555 16.581 12.6701 17.7454 11.3209 18.4998C9.97082 19.2601 8.36018 19.6607 6.48568 19.6607H0.189197C0.141069 19.6607 0.0946017 19.6411 0.0597504 19.6062C0.024899 19.5712 0.0058117 19.5244 0.0058117 19.4749L0 0.530221H0.000829339ZM6.21101 17.5067C7.29585 17.5348 8.37625 17.3544 9.3966 16.9748C10.277 16.6117 10.9508 16.1173 11.3823 15.4695C11.8603 14.7663 12.2101 13.9799 12.4146 13.1484C12.6435 12.1111 12.7502 11.0494 12.7324 9.98595C12.7548 8.93467 12.6413 7.88499 12.3946 6.86444C12.1829 6.04778 11.8341 5.2753 11.364 4.5817C10.8486 3.87769 10.1456 3.34211 9.34017 3.0397C8.34024 2.6544 7.27886 2.46502 6.21101 2.48138H2.63045C2.58233 2.48138 2.53585 2.50098 2.501 2.53593C2.46615 2.57088 2.4479 2.61776 2.4479 2.6672V17.303C2.4479 17.3524 2.46698 17.3993 2.501 17.4343C2.51803 17.4517 2.53822 17.4654 2.56043 17.4748C2.58265 17.4841 2.60644 17.4889 2.63045 17.4888L6.21101 17.5059V17.5067ZM18.7019 0.33502H31.801C31.8492 0.335018 31.8954 0.354542 31.9296 0.389343C31.9637 0.424143 31.9832 0.471404 31.9836 0.520843V2.38079C31.9832 2.43023 31.9637 2.47749 31.9296 2.51229C31.8954 2.54709 31.8492 2.56662 31.801 2.56662H21.1382C21.09 2.56664 21.0437 2.58625 21.0096 2.62117C20.9755 2.65612 20.9556 2.703 20.9556 2.75244V6.88234C20.9556 6.93178 20.9755 6.97866 21.0096 7.01361C21.0437 7.04853 21.09 7.06814 21.1382 7.06817H30.7887C30.8368 7.06817 30.8833 7.08777 30.9181 7.12272C30.953 7.15767 30.9713 7.2054 30.9713 7.25399V9.09945C30.9713 9.14889 30.9522 9.19577 30.9181 9.23072C30.8841 9.26567 30.8368 9.28527 30.7887 9.28527H18.7019C18.653 9.28527 18.6073 9.26567 18.5725 9.23072C18.5376 9.19577 18.5194 9.14889 18.5194 9.09945V0.517436C18.5202 0.468849 18.5401 0.422818 18.5741 0.388722C18.6084 0.354638 18.6542 0.33567 18.7019 0.335872V0.33502ZM18.5152 11.227C18.5152 11.1776 18.5343 11.1307 18.5683 11.0958C18.5853 11.0784 18.6055 11.0646 18.6278 11.0553C18.65 11.0459 18.6738 11.0411 18.6978 11.0412H30.7879C30.8119 11.0411 30.8357 11.0459 30.8579 11.0553C30.8801 11.0646 30.9003 11.0784 30.9173 11.0958C30.9513 11.1307 30.9704 11.1776 30.9704 11.227V13.0725C30.9704 13.1219 30.9513 13.1688 30.9173 13.2038C30.9003 13.2212 30.8801 13.2349 30.8579 13.2443C30.8357 13.2537 30.8119 13.2584 30.7879 13.2583H21.1382C21.1142 13.2582 21.0904 13.263 21.0682 13.2724C21.046 13.2817 21.0258 13.2955 21.0087 13.3129C20.9747 13.3478 20.9556 13.3947 20.9556 13.4442V17.2314C20.9556 17.2808 20.9747 17.3277 21.0087 17.3627C21.0258 17.38 21.046 17.3938 21.0682 17.4032C21.0904 17.4125 21.1142 17.4173 21.1382 17.4172H31.8002C31.8484 17.4172 31.8947 17.4369 31.9288 17.4718C31.9637 17.5067 31.9828 17.5536 31.9828 17.603V19.4502C31.9828 19.4996 31.9637 19.5465 31.9288 19.5815C31.8947 19.6164 31.8484 19.636 31.8002 19.636H18.7011C18.653 19.636 18.6065 19.6164 18.5716 19.5815C18.5368 19.5465 18.5185 19.4996 18.5185 19.4502L18.5152 11.2262V11.227ZM36.9167 18.2679C35.638 17.1257 35.024 15.4516 35.024 13.2822V0.530221C35.024 0.480782 35.0431 0.4339 35.0779 0.398951C35.1121 0.364037 35.1583 0.344427 35.2065 0.344398H37.291C37.3391 0.344398 37.3856 0.364003 37.4204 0.398951C37.4553 0.4339 37.4735 0.480782 37.4735 0.530221V13.2822C37.4478 14.1627 37.6826 15.0313 38.1473 15.7746C38.5925 16.4493 39.2173 16.9782 39.9471 17.2979C40.7369 17.6324 41.584 17.8008 42.4382 17.7931C43.2929 17.7975 44.1402 17.6292 44.9317 17.2979C45.6736 16.9865 46.3091 16.4565 46.7581 15.7746C47.2254 15.0341 47.4609 14.1643 47.4327 13.2822V0.530221C47.4327 0.480782 47.4518 0.4339 47.4858 0.398951C47.5028 0.381561 47.523 0.36779 47.5453 0.358429C47.5675 0.349068 47.5913 0.3443 47.6153 0.344398H49.7138C49.7378 0.3443 49.7616 0.349068 49.7838 0.358429C49.806 0.36779 49.8262 0.381561 49.8433 0.398951C49.8773 0.4339 49.8964 0.480782 49.8964 0.530221V13.2822C49.8964 15.4516 49.2591 17.1069 47.9862 18.2679C46.7133 19.4289 44.8803 20 42.4564 20C40.0326 20 38.1714 19.4289 36.9167 18.2679V18.2679ZM56.4045 19.2576C55.2685 18.7998 54.281 18.0258 53.5549 17.0251C52.882 16.0738 52.526 14.9128 52.4887 13.543C52.488 13.4961 52.5053 13.4508 52.5368 13.4169C52.5679 13.3823 52.6106 13.361 52.6563 13.3572L54.8868 13.1288C54.9125 13.1254 54.939 13.1279 54.9639 13.1356C54.9888 13.1433 55.0121 13.1569 55.0311 13.1739C55.0509 13.1916 55.0668 13.2134 55.0776 13.2379C55.0884 13.2626 55.0934 13.2882 55.0934 13.3154C55.0986 14.1573 55.3319 14.9811 55.7672 15.6945C56.2079 16.4113 56.8426 16.9804 57.5935 17.332C58.4283 17.724 59.3378 17.9192 60.2555 17.9031C61.8114 17.9031 63.0669 17.6175 64.022 17.0456C64.9771 16.4736 65.4467 15.5428 65.4467 14.2292C65.4599 13.9375 65.4134 13.6463 65.3102 13.3742C65.207 13.1021 65.0494 12.8553 64.8476 12.6497C64.4219 12.2546 63.9155 11.9622 63.3656 11.7939C62.5762 11.5716 61.7757 11.3935 60.9675 11.2603L59.2249 10.9176C58.1437 10.6696 57.0849 10.3329 56.0576 9.90923C55.2141 9.5447 54.4684 8.97691 53.8835 8.25386C53.3002 7.53188 53.0031 6.59849 53.0031 5.43752C53.0031 4.20068 53.3417 3.17182 53.9972 2.35352C54.6696 1.52964 55.5507 0.912785 56.543 0.571137C57.5708 0.190788 58.6553 -0.00248102 59.7477 2.40428e-05C61.8828 2.40428e-05 63.6452 0.495272 64.9937 1.46616C66.3421 2.43705 67.0922 3.92024 67.3171 5.97538C67.3237 6.02312 67.3121 6.07256 67.2839 6.11177C67.2558 6.15121 67.2138 6.17781 67.1669 6.18593L64.9937 6.55758C64.9678 6.56253 64.9413 6.56195 64.9157 6.55587C64.8899 6.5499 64.8659 6.53797 64.8443 6.52263C64.8232 6.50675 64.8056 6.4864 64.7929 6.46296C64.7796 6.43994 64.7713 6.41352 64.7688 6.38709C64.7488 5.59468 64.5293 4.82112 64.1315 4.14186C63.7137 3.4579 63.107 2.91724 62.3889 2.58878C61.5383 2.21016 60.617 2.02856 59.6904 2.05688C59.0249 2.05517 58.3644 2.17707 57.7421 2.41745C57.1297 2.64674 56.582 3.02606 56.1489 3.52216C55.7542 4.00077 55.5357 4.60656 55.5315 5.23379C55.5226 5.57496 55.5904 5.91364 55.7298 6.22343C55.8702 6.53412 56.078 6.80764 56.3372 7.02299C56.9051 7.47333 57.5544 7.80334 58.2474 7.99388C59.1531 8.25288 60.0731 8.45612 61.0023 8.6025C62.2764 8.77989 63.5341 9.06412 64.763 9.45234C65.6616 9.74046 66.4649 10.2741 67.0864 10.9943C67.688 11.718 68 12.7077 68 14.0025C68 15.4661 67.6349 16.6475 66.9038 17.5366C66.1579 18.4235 65.1839 19.0766 64.0933 19.4212C62.8779 19.7991 61.6142 19.9873 60.3443 19.9795C58.9975 20.0109 57.6582 19.7664 56.4045 19.2601V19.2601V19.2576Z" fill="url(#paint0_linear_114_1936)"/>
<defs>
<linearGradient id="paint0_linear_114_1936" x1="0" y1="10.0076" x2="67.9915" y2="10.0076" gradientUnits="userSpaceOnUse">
<stop stop-color="#0BADF4"/>
<stop offset="0.9341" stop-color="#30EFE4"/>
</linearGradient>
</defs>
</svg>
