<svg width="22" height="22" viewBox="0 0 22 22" fill="none" xmlns="http://www.w3.org/2000/svg">
<g opacity="0.5">
<path d="M20.0109 1L12.1979 7.25L13.6508 3.56667L20.0109 1Z" fill="#E17726" stroke="#E17726" stroke-width="0.25" stroke-linecap="round" stroke-linejoin="round"/>
<path d="M1.98914 1L9.73259 7.30833L8.34929 3.56666L1.98914 1Z" fill="#E27625" stroke="#E27625" stroke-width="0.25" stroke-linecap="round" stroke-linejoin="round"/>
<path d="M17.1977 15.4917L15.1188 18.925L19.5702 20.2501L20.8453 15.5668L17.1977 15.4917Z" fill="#E27625" stroke="#E27625" stroke-width="0.25" stroke-linecap="round" stroke-linejoin="round"/>
<path d="M1.16217 15.5668L2.42955 20.2501L6.87317 18.925L4.80205 15.4917L1.16217 15.5668Z" fill="#E27625" stroke="#E27625" stroke-width="0.25" stroke-linecap="round" stroke-linejoin="round"/>
<path d="M6.63361 9.69145L5.39716 11.7081L9.8021 11.9248L9.65529 6.7998L6.63361 9.69145Z" fill="#E27625" stroke="#E27625" stroke-width="0.25" stroke-linecap="round" stroke-linejoin="round"/>
<path d="M15.3661 9.69169L12.2982 6.7417L12.1977 11.925L16.6026 11.7084L15.3661 9.69169Z" fill="#E27625" stroke="#E27625" stroke-width="0.25" stroke-linecap="round" stroke-linejoin="round"/>
<path d="M6.87335 18.9251L9.53948 17.5334L7.24431 15.6001L6.87335 18.9251Z" fill="#E27625" stroke="#E27625" stroke-width="0.25" stroke-linecap="round" stroke-linejoin="round"/>
<path d="M12.4605 17.5334L15.1189 18.9251L14.7557 15.6001L12.4605 17.5334Z" fill="#E27625" stroke="#E27625" stroke-width="0.25" stroke-linecap="round" stroke-linejoin="round"/>
<path d="M15.1189 18.9248L12.4605 17.5332L12.6769 19.3998L12.6537 20.1915L15.1189 18.9248Z" fill="#D5BFB2" stroke="#D5BFB2" stroke-width="0.25" stroke-linecap="round" stroke-linejoin="round"/>
<path d="M6.87335 18.9248L9.34633 20.1915L9.33086 19.3998L9.53948 17.5332L6.87335 18.9248Z" fill="#D5BFB2" stroke="#D5BFB2" stroke-width="0.25" stroke-linecap="round" stroke-linejoin="round"/>
<path d="M9.39241 14.3666L7.18219 13.6666L8.74323 12.8916L9.39241 14.3666Z" fill="#233447" stroke="#233447" stroke-width="0.25" stroke-linecap="round" stroke-linejoin="round"/>
<path d="M12.6074 14.3666L13.2565 12.8916L14.8253 13.6666L12.6074 14.3666Z" fill="#233447" stroke="#233447" stroke-width="0.25" stroke-linecap="round" stroke-linejoin="round"/>
<path d="M6.87321 18.925L7.25963 15.4917L4.80212 15.5668L6.87321 18.925Z" fill="#CC6228" stroke="#CC6228" stroke-width="0.25" stroke-linecap="round" stroke-linejoin="round"/>
<path d="M14.7404 15.4917L15.119 18.925L17.1979 15.5668L14.7404 15.4917Z" fill="#CC6228" stroke="#CC6228" stroke-width="0.25" stroke-linecap="round" stroke-linejoin="round"/>
<path d="M16.6026 11.708L12.1977 11.9247L12.6073 14.3664L13.2564 12.8913L14.8252 13.6664L16.6026 11.708Z" fill="#CC6228" stroke="#CC6228" stroke-width="0.25" stroke-linecap="round" stroke-linejoin="round"/>
<path d="M7.18232 13.6664L8.74336 12.8913L9.39254 14.3664L9.8021 11.9247L5.39716 11.708L7.18232 13.6664Z" fill="#CC6228" stroke="#CC6228" stroke-width="0.25" stroke-linecap="round" stroke-linejoin="round"/>
<path d="M5.39728 11.708L7.24428 15.5997L7.18241 13.6664L5.39728 11.708Z" fill="#E27525" stroke="#E27525" stroke-width="0.25" stroke-linecap="round" stroke-linejoin="round"/>
<path d="M14.8253 13.6664L14.7558 15.5997L16.6028 11.708L14.8253 13.6664Z" fill="#E27525" stroke="#E27525" stroke-width="0.25" stroke-linecap="round" stroke-linejoin="round"/>
<path d="M9.80245 11.9248L9.39282 14.3665L9.91059 17.2498L10.0265 13.4498L9.80245 11.9248Z" fill="#E27525" stroke="#E27525" stroke-width="0.25" stroke-linecap="round" stroke-linejoin="round"/>
<path d="M12.1979 11.9248L11.9814 13.4415L12.0897 17.2498L12.6074 14.3665L12.1979 11.9248Z" fill="#E27525" stroke="#E27525" stroke-width="0.25" stroke-linecap="round" stroke-linejoin="round"/>
<path d="M12.6074 14.3665L12.0896 17.2498L12.4606 17.5332L14.7558 15.5998L14.8253 13.6665L12.6074 14.3665Z" fill="#F5841F" stroke="#F5841F" stroke-width="0.25" stroke-linecap="round" stroke-linejoin="round"/>
<path d="M7.18219 13.6665L7.24406 15.5998L9.53922 17.5332L9.91018 17.2498L9.39241 14.3665L7.18219 13.6665Z" fill="#F5841F" stroke="#F5841F" stroke-width="0.25" stroke-linecap="round" stroke-linejoin="round"/>
<path d="M12.6539 20.1915L12.677 19.3998L12.4761 19.2165H9.52407L9.33086 19.3998L9.34633 20.1915L6.87335 18.9248L7.73888 19.6915L9.49314 20.9998H12.4993L14.2613 19.6915L15.1191 18.9248L12.6539 20.1915Z" fill="#C0AC9D" stroke="#C0AC9D" stroke-width="0.25" stroke-linecap="round" stroke-linejoin="round"/>
<path d="M12.4605 17.5333L12.0895 17.25H9.9102L9.53931 17.5333L9.33063 19.4L9.52384 19.2167H12.4759L12.6769 19.4L12.4605 17.5333Z" fill="#161616" stroke="#161616" stroke-width="0.25" stroke-linecap="round" stroke-linejoin="round"/>
<path d="M20.343 7.65831L20.9999 4.20833L20.0107 1L12.4605 7.04169L15.3662 9.69166L19.4697 10.9834L20.3739 9.84169L19.9798 9.53332L20.6058 8.9167L20.1267 8.51668L20.7526 8L20.343 7.65831Z" fill="#763E1A" stroke="#763E1A" stroke-width="0.25" stroke-linecap="round" stroke-linejoin="round"/>
<path d="M1 4.20833L1.66461 7.65831L1.23957 8L1.87326 8.51668L1.39413 8.9167L2.02009 9.53332L1.62596 9.84169L2.53014 10.9834L6.63373 9.69166L9.53941 7.04169L1.98918 1L1 4.20833Z" fill="#763E1A" stroke="#763E1A" stroke-width="0.25" stroke-linecap="round" stroke-linejoin="round"/>
<path d="M19.4699 10.983L15.3663 9.69141L16.6028 11.7081L14.7558 15.5997L17.1978 15.5664H20.8454L19.4699 10.983Z" fill="#F5841F" stroke="#F5841F" stroke-width="0.25" stroke-linecap="round" stroke-linejoin="round"/>
<path d="M6.63355 9.69141L2.53002 10.983L1.16217 15.5664H4.80205L7.24406 15.5997L5.3971 11.7081L6.63355 9.69141Z" fill="#F5841F" stroke="#F5841F" stroke-width="0.25" stroke-linecap="round" stroke-linejoin="round"/>
<path d="M12.1977 11.9252L12.4605 7.04186L13.6506 3.56689H8.34918L9.53927 7.04186L9.80202 11.9252L9.90249 13.4586L9.91023 17.2502H12.0895L12.0972 13.4586L12.1977 11.9252Z" fill="#F5841F" stroke="#F5841F" stroke-width="0.25" stroke-linecap="round" stroke-linejoin="round"/>
</g>
</svg>
