<svg width="30" height="24" viewBox="0 0 30 24" fill="none" xmlns="http://www.w3.org/2000/svg">
<path d="M26.7464 8.54242H30V5.69474H24.9028C23.8605 3.95391 22.4033 2.51678 20.6699 1.52002C18.9365 0.523261 16.9845 0 14.9995 0C13.0145 0 11.0625 0.523261 9.32911 1.52002C7.59572 2.51678 6.13857 3.95391 5.09622 5.69474H0V8.54242H3.84859C3.19772 10.7745 3.19093 13.1534 3.82902 15.3893H0V18.237H5.05512C6.09313 19.9966 7.5533 21.4511 9.295 22.4604C11.0367 23.4698 13.0013 24 14.9995 24C16.9977 24 18.9623 23.4698 20.704 22.4604C22.4457 21.4511 23.9059 19.9966 24.9439 18.237H30V15.3893H26.171C26.8095 13.1534 26.8024 10.7742 26.1504 8.54242H26.7464ZM15.0039 19.9664C13.475 19.9664 11.9804 19.4992 10.7091 18.6239C9.43785 17.7485 8.44701 16.5044 7.86192 15.0487C7.27682 13.5931 7.12373 11.9913 7.42201 10.446C7.72029 8.90074 8.45654 7.48129 9.53766 6.36719C10.6188 5.25309 11.9962 4.49438 13.4958 4.187C14.9953 3.87962 16.5497 4.03738 17.9622 4.64033C19.3748 5.24327 20.5821 6.26432 21.4315 7.57437C22.281 8.88441 22.7344 10.4246 22.7344 12.0002C22.732 14.1129 21.9163 16.1384 20.4662 17.6319C19.0161 19.1255 17.0502 19.9651 15 19.9664H15.0039ZM15.0039 9.25434C15.5309 9.25434 16.0461 9.41538 16.4843 9.7171C16.9224 10.0188 17.264 10.4477 17.4656 10.9494C17.6673 11.4511 17.7201 12.0032 17.6173 12.5359C17.5145 13.0685 17.2607 13.5578 16.888 13.9418C16.5154 14.3258 16.0406 14.5873 15.5237 14.6932C15.0069 14.7992 14.4711 14.7448 13.9842 14.537C13.4973 14.3292 13.0812 13.9772 12.7884 13.5257C12.4956 13.0741 12.3394 12.5432 12.3394 12.0002C12.3394 11.2726 12.6195 10.5748 13.1184 10.06C13.6173 9.54517 14.294 9.25541 15 9.25434H15.0039Z" fill="url(#paint0_linear_45_3765)"/>
<defs>
<linearGradient id="paint0_linear_45_3765" x1="0" y1="12.0002" x2="30" y2="12.0002" gradientUnits="userSpaceOnUse">
<stop stop-color="#E0974C"/>
<stop offset="1" stop-color="#C93F6F"/>
</linearGradient>
</defs>
</svg>
