<svg width="36" height="36" viewBox="0 0 36 36" fill="none" xmlns="http://www.w3.org/2000/svg">
<rect width="36" height="36" rx="18" fill="#101116"/>
<path d="M17.7142 21.1249C19.1936 21.1249 20.3928 19.9496 20.3928 18.4999C20.3928 17.0502 19.1936 15.8749 17.7142 15.8749C16.2349 15.8749 15.0357 17.0502 15.0357 18.4999C15.0357 19.9496 16.2349 21.1249 17.7142 21.1249Z" fill="url(#paint0_linear_133_692)"/>
<path fill-rule="evenodd" clip-rule="evenodd" d="M17.7143 8C14.2624 8 11.1917 9.59991 9.23216 12.0843V8H7V18.5C7 24.2988 11.7972 29 17.7143 29C22.2107 29 26.0604 26.2854 27.6498 22.4375H32V20.25H28.2806C28.378 19.6808 28.4287 19.0962 28.4287 18.5C28.4287 17.9038 28.378 17.3192 28.2806 16.7501H32V14.5626H27.6499C26.0604 10.7146 22.2107 8 17.7143 8ZM17.7143 27.25C15.9484 27.25 14.2222 26.7368 12.7539 25.7754C11.2856 24.8139 10.1412 23.4473 9.46538 21.8485C8.78959 20.2496 8.61277 18.4903 8.95729 16.793C9.3018 15.0956 10.1522 13.5365 11.4009 12.3128C12.6495 11.0891 14.2405 10.2557 15.9725 9.91813C17.7044 9.58051 19.4997 9.75379 21.1312 10.4161C22.7627 11.0783 24.1571 12.1998 25.1382 13.6388C26.1193 15.0777 26.643 16.7694 26.643 18.5C26.643 20.8206 25.7023 23.0462 24.0278 24.6872C22.3534 26.3281 20.0824 27.25 17.7143 27.25Z" fill="url(#paint1_linear_133_692)"/>
<path d="M17.7142 21.1249C19.1936 21.1249 20.3928 19.9496 20.3928 18.4999C20.3928 17.0502 19.1936 15.8749 17.7142 15.8749C16.2349 15.8749 15.0357 17.0502 15.0357 18.4999C15.0357 19.9496 16.2349 21.1249 17.7142 21.1249Z" stroke="url(#paint2_linear_133_692)"/>
<path fill-rule="evenodd" clip-rule="evenodd" d="M17.7143 8C14.2624 8 11.1917 9.59991 9.23216 12.0843V8H7V18.5C7 24.2988 11.7972 29 17.7143 29C22.2107 29 26.0604 26.2854 27.6498 22.4375H32V20.25H28.2806C28.378 19.6808 28.4287 19.0962 28.4287 18.5C28.4287 17.9038 28.378 17.3192 28.2806 16.7501H32V14.5626H27.6499C26.0604 10.7146 22.2107 8 17.7143 8ZM17.7143 27.25C15.9484 27.25 14.2222 26.7368 12.7539 25.7754C11.2856 24.8139 10.1412 23.4473 9.46538 21.8485C8.78959 20.2496 8.61277 18.4903 8.95729 16.793C9.3018 15.0956 10.1522 13.5365 11.4009 12.3128C12.6495 11.0891 14.2405 10.2557 15.9725 9.91813C17.7044 9.58051 19.4997 9.75379 21.1312 10.4161C22.7627 11.0783 24.1571 12.1998 25.1382 13.6388C26.1193 15.0777 26.643 16.7694 26.643 18.5C26.643 20.8206 25.7023 23.0462 24.0278 24.6872C22.3534 26.3281 20.0824 27.25 17.7143 27.25Z" stroke="url(#paint3_linear_133_692)"/>
<defs>
<linearGradient id="paint0_linear_133_692" x1="7" y1="18.5001" x2="32" y2="18.5001" gradientUnits="userSpaceOnUse">
<stop stop-color="#E29C53"/>
<stop offset="1" stop-color="#CE4C7A"/>
</linearGradient>
<linearGradient id="paint1_linear_133_692" x1="7" y1="18.5001" x2="32" y2="18.5001" gradientUnits="userSpaceOnUse">
<stop stop-color="#E29C53"/>
<stop offset="1" stop-color="#CE4C7A"/>
</linearGradient>
<linearGradient id="paint2_linear_133_692" x1="7" y1="18.5001" x2="32" y2="18.5001" gradientUnits="userSpaceOnUse">
<stop stop-color="#E29C53"/>
<stop offset="1" stop-color="#CE4C7A"/>
</linearGradient>
<linearGradient id="paint3_linear_133_692" x1="7" y1="18.5001" x2="32" y2="18.5001" gradientUnits="userSpaceOnUse">
<stop stop-color="#E29C53"/>
<stop offset="1" stop-color="#CE4C7A"/>
</linearGradient>
</defs>
</svg>
