<svg width="48" height="48" viewBox="0 0 48 48" fill="none" xmlns="http://www.w3.org/2000/svg">
<path d="M40.4449 19.1018H45V15.0676H37.8639C36.4046 12.6014 34.3646 10.5654 31.9379 9.15337C29.5111 7.74129 26.7783 7 23.9993 7C21.2203 7 18.4875 7.74129 16.0608 9.15337C13.634 10.5654 11.594 12.6014 10.1347 15.0676H3V19.1018H8.38802C7.47681 22.2638 7.4673 25.634 8.36062 28.8016H3V32.8358H10.0772C11.5304 35.3285 13.5746 37.389 16.013 38.8189C18.4514 40.2489 21.2018 41 23.9993 41C26.7968 41 29.5472 40.2489 31.9856 38.8189C34.424 37.389 36.4683 35.3285 37.9215 32.8358H45V28.8016H39.6394C40.5334 25.634 40.5234 22.2635 39.6106 19.1018H40.4449ZM24.0055 35.2857C21.865 35.2857 19.7725 34.6239 17.9928 33.3838C16.213 32.1437 14.8258 30.3812 14.0067 28.319C13.1875 26.2569 12.9732 23.9877 13.3908 21.7986C13.8084 19.6094 14.8392 17.5985 16.3527 16.0202C17.8663 14.4419 19.7947 13.367 21.8941 12.9316C23.9935 12.4961 26.1695 12.7196 28.1471 13.5738C30.1247 14.428 31.815 15.8745 33.0042 17.7304C34.1934 19.5862 34.8281 21.7682 34.8281 24.0002C34.8248 26.9933 33.6828 29.8627 31.6527 31.9786C29.6226 34.0944 26.8703 35.2839 24 35.2857H24.0055ZM24.0055 20.1103C24.7433 20.1103 25.4645 20.3385 26.078 20.7659C26.6914 21.1933 27.1696 21.8008 27.4519 22.5116C27.7342 23.2224 27.8081 24.0046 27.6642 24.7591C27.5202 25.5137 27.165 26.2068 26.6433 26.7508C26.1216 27.2949 25.4569 27.6653 24.7332 27.8154C24.0096 27.9655 23.2596 27.8885 22.5779 27.5941C21.8963 27.2996 21.3137 26.8011 20.9038 26.1614C20.4939 25.5217 20.2751 24.7696 20.2751 24.0002C20.2751 22.9696 20.6674 21.981 21.3658 21.2517C22.0642 20.5223 23.0116 20.1118 24 20.1103H24.0055Z" fill="url(#paint0_linear_2303_9558)"/>
<defs>
<linearGradient id="paint0_linear_2303_9558" x1="3" y1="24.0002" x2="45" y2="24.0002" gradientUnits="userSpaceOnUse">
<stop stop-color="#E0974C"/>
<stop offset="1" stop-color="#C93F6F"/>
</linearGradient>
</defs>
</svg>
