<svg width="32" height="32" viewBox="0 0 32 32" fill="none" xmlns="http://www.w3.org/2000/svg">
<path d="M16 32C24.8366 32 32 24.8366 32 16C32 7.16344 24.8366 0 16 0C7.16344 0 0 7.16344 0 16C0 24.8366 7.16344 32 16 32Z" fill="#0D0D0D"/>
<path d="M25.1804 14.5262C24.9734 14.5262 24.7665 14.5639 24.5784 14.658L17.3544 7.42767C17.4297 7.23938 17.4861 7.05109 17.4861 6.82515C17.4861 5.99666 16.8089 5.33765 15.9999 5.33765C15.191 5.33765 14.5137 6.01549 14.5137 6.82515C14.5137 7.03226 14.5514 7.23938 14.6454 7.42767L7.42143 14.6392C7.23331 14.5639 7.04518 14.5074 6.81944 14.5074C5.99169 14.5074 5.33325 15.1853 5.33325 15.9949C5.33325 16.8046 6.0105 17.4824 6.81944 17.4824C7.02637 17.4824 7.23331 17.4447 7.42143 17.3506L14.6454 24.5809C14.5702 24.7693 14.5137 24.9575 14.5137 25.1835C14.5137 26.0119 15.191 26.671 15.9999 26.671C16.8089 26.671 17.4861 25.9931 17.4861 25.1835C17.4861 24.9763 17.4485 24.7693 17.3544 24.5809L24.5784 17.3506C24.7665 17.4259 24.9546 17.4824 25.1804 17.4824C26.0082 17.4824 26.6666 16.8046 26.6666 15.9949C26.6666 15.1853 26.0082 14.5262 25.1804 14.5262ZM23.7882 15.4865L20.9852 16.1644C20.7407 15.8443 20.3644 15.6183 19.9317 15.6183C19.6119 15.6183 19.3297 15.7313 19.104 15.9196L17.2792 15.0723C17.2792 15.0534 17.2792 15.0534 17.2792 15.0346C17.2792 14.5074 16.9782 14.0743 16.5267 13.8672V8.21849C16.5455 8.21849 16.5643 8.19967 16.5831 8.19967L23.807 15.43C23.807 15.43 23.7882 15.4677 23.7882 15.4865ZM15.9999 23.7149C15.9623 23.7149 15.9247 23.7149 15.887 23.7149L13.0652 17.746C13.2533 17.5201 13.3662 17.2376 13.3662 16.9175L15.2098 16.0514C15.4355 16.2209 15.7177 16.3338 15.9999 16.3338C16.3009 16.3338 16.5831 16.2209 16.8089 16.0514L18.6524 16.9175C18.6524 16.9175 18.6524 16.9175 18.6524 16.9364C18.6524 17.2564 18.7653 17.5389 18.9535 17.7648L16.094 23.7149C16.0752 23.7149 16.0375 23.7149 15.9999 23.7149ZM15.4544 8.21849V13.8672C15.0217 14.0743 14.7019 14.5262 14.7019 15.0346C14.7019 15.0534 14.7019 15.0723 14.7019 15.0723L12.877 15.9196C12.6513 15.7313 12.3691 15.6183 12.0493 15.6183C11.6166 15.6183 11.2404 15.8254 10.9958 16.1644L8.21156 15.4865C8.21156 15.4677 8.19275 15.4489 8.19275 15.4112L15.4167 8.18084C15.4167 8.19967 15.4355 8.19967 15.4544 8.21849ZM8.19275 16.5974L10.8077 17.2376C10.9582 17.8025 11.4473 18.2167 12.0681 18.2167H12.0869L14.1563 22.5851L8.19275 16.5974ZM19.9129 18.2167H19.9317C20.5337 18.2167 21.0417 17.8025 21.1921 17.2376L23.807 16.5974C23.807 16.5974 23.807 16.5974 23.807 16.6163L17.8435 22.5851L19.9129 18.2167Z" fill="url(#paint0_linear_236_795)"/>
<defs>
<linearGradient id="paint0_linear_236_795" x1="5.33325" y1="16.0124" x2="26.6639" y2="16.0124" gradientUnits="userSpaceOnUse">
<stop stop-color="#0BADF4"/>
<stop offset="0.9341" stop-color="#30EFE4"/>
</linearGradient>
</defs>
</svg>
