<svg width="31" height="31" viewBox="0 0 31 31" fill="none" xmlns="http://www.w3.org/2000/svg">
<path d="M28.4069 13.1338C28.1057 13.1338 27.8166 13.2001 27.5576 13.3146L17.2212 2.98223C17.3357 2.72316 17.4019 2.43398 17.4019 2.13274C17.4019 0.957927 16.4442 0 15.2696 0C14.095 0 13.1373 0.957927 13.1373 2.13274C13.1373 2.43398 13.2035 2.72316 13.318 2.98223L2.98164 13.3146C2.72263 13.2001 2.4335 13.1338 2.13232 13.1338C0.957738 13.1338 0 14.0918 0 15.2666C0 16.4414 0.957738 17.3993 2.13232 17.3993C2.4335 17.3993 2.72263 17.3331 2.98164 17.2186L13.318 27.557C13.2035 27.816 13.1373 28.1052 13.1373 28.4064C13.1373 29.5813 14.095 30.5392 15.2696 30.5392C16.4442 30.5392 17.4019 29.5813 17.4019 28.4064C17.4019 28.1052 17.3357 27.816 17.2212 27.557L27.5576 17.2186C27.8166 17.3331 28.1057 17.3993 28.4069 17.3993C29.5814 17.3993 30.5392 16.4414 30.5392 15.2666C30.5392 14.0918 29.5875 13.1338 28.4069 13.1338ZM26.4191 14.5075L22.4135 15.4835C22.0762 15.0135 21.528 14.7063 20.9076 14.7063C20.4558 14.7063 20.0462 14.869 19.721 15.134L17.1188 13.911C17.1188 13.893 17.1188 13.8749 17.1188 13.8508C17.1188 13.1037 16.6791 12.4651 16.0406 12.1699V4.10884C16.0647 4.09679 16.0888 4.09077 16.1129 4.07872L26.4492 14.4171C26.4432 14.4472 26.4312 14.4773 26.4191 14.5075ZM15.2696 26.2797C15.2214 26.2797 15.1732 26.2858 15.119 26.2858L11.0592 17.7427C11.3242 17.4234 11.4808 17.0137 11.4808 16.5679C11.4808 16.5619 11.4808 16.5619 11.4808 16.5559L14.1191 15.3148C14.4323 15.5618 14.8359 15.7124 15.2636 15.7124C15.6973 15.7124 16.1008 15.5618 16.4141 15.3088L19.0524 16.5498C19.0524 16.5559 19.0524 16.5619 19.0524 16.5679C19.0524 17.0137 19.209 17.4234 19.474 17.7427L15.4142 26.2858C15.366 26.2797 15.3178 26.2797 15.2696 26.2797ZM14.4926 4.10884V12.1759C13.8601 12.4711 13.4144 13.1097 13.4144 13.8568C13.4144 13.8809 13.4144 13.899 13.4204 13.9231L10.8182 15.1461C10.493 14.875 10.0834 14.7123 9.62557 14.7123C9.00515 14.7123 8.45701 15.0196 8.11969 15.4895L4.12008 14.5075C4.10803 14.4773 4.09599 14.4472 4.08394 14.4111L14.4203 4.0727C14.4444 4.09077 14.4685 4.10282 14.4926 4.10884ZM4.08996 16.11L7.83056 17.0258C8.03536 17.8271 8.75818 18.4235 9.62557 18.4235C9.63761 18.4235 9.64364 18.4235 9.65568 18.4235L12.6253 24.6711L4.08394 16.1221C4.08394 16.1161 4.08996 16.11 4.08996 16.11ZM20.8775 18.4235C20.8895 18.4235 20.9016 18.4235 20.9136 18.4235C21.781 18.4235 22.5099 17.8271 22.7086 17.0198L26.4492 16.104C26.4492 16.11 26.4553 16.1161 26.4553 16.1221L17.9079 24.6711L20.8775 18.4235Z" fill="url(#paint0_linear_2_2218)"/>
<defs>
<linearGradient id="paint0_linear_2_2218" x1="-0.00238531" y1="15.2692" x2="30.5416" y2="15.2692" gradientUnits="userSpaceOnUse">
<stop stop-color="#0BADF4"/>
<stop offset="0.9341" stop-color="#30EFE4"/>
</linearGradient>
</defs>
</svg>
