<svg width="31" height="1663" viewBox="0 0 1664 1663" fill="none" xmlns="http://www.w3.org/2000/svg">
<path d="M832.423 0L0 831.275L832.925 1663L1664 832.385L832.423 0ZM1469 790.343L1266.08 813.888C1250.93 791.797 1229.17 775.084 1203.92 766.156C1178.67 757.228 1151.23 756.546 1125.57 764.209L957.63 596.252C958.365 590.83 958.754 585.367 958.793 579.895C958.784 556.072 952.057 532.734 939.385 512.561C926.713 492.388 908.609 476.196 887.151 465.845V208.519L1469 790.343ZM778.223 208.519V465.079C756.414 475.293 737.964 491.505 725.029 511.819C712.094 532.132 705.21 555.708 705.181 579.789C705.222 585.663 705.681 591.527 706.555 597.336L539.516 764.367C513.758 756.493 486.161 757.022 460.724 765.877C435.287 774.733 413.329 791.456 398.03 813.624L196.373 790.29L778.223 208.519ZM227.265 903.548L380.536 921.332C388.244 947.609 404.25 970.686 426.161 987.114C448.071 1003.54 474.711 1012.44 502.096 1012.47H502.308L650.294 1326.72L227.265 903.548ZM832.687 1458.02L600.851 965.488C615.148 947.906 624.455 926.805 627.797 904.392C631.14 881.98 628.396 859.081 619.851 838.093L768.472 689.479C787.897 700.817 810.003 706.747 832.495 706.654C854.987 706.561 877.043 700.448 896.374 688.951L1044.49 837.089C1035.66 858.406 1032.81 881.729 1036.26 904.545C1039.7 927.361 1049.3 948.806 1064.02 966.571L832.687 1458.02ZM1014.76 1326.72L1162.75 1012.42C1189.91 1012.15 1216.27 1003.18 1237.95 986.808C1259.63 970.439 1275.48 947.543 1283.17 921.49L1437.98 903.548L1014.76 1326.72Z" fill="url(#paint0_linear_9533_14380)"/>
<defs>
<linearGradient id="paint0_linear_9533_14380" x1="832" y1="1658.59" x2="832" y2="14.5602" gradientUnits="userSpaceOnUse">
<stop stop-color="#00B1FF"/>
<stop offset="0.93" stop-color="#00F5E4"/>
</linearGradient>
</defs>
</svg>
