<svg width="13" height="10" viewBox="0 0 13 10" fill="none" xmlns="http://www.w3.org/2000/svg">
<path d="M11.5901 3.55934H13V2.37281H10.7912C10.3395 1.64746 9.7081 1.04866 8.95696 0.633343C8.20583 0.218025 7.35996 0 6.49979 0C5.63962 0 4.79375 0.218025 4.04261 0.633343C3.29148 1.04866 2.66005 1.64746 2.20836 2.37281H0V3.55934H1.66772C1.38568 4.48936 1.38273 5.48058 1.65924 6.41223H0V7.59876H2.19055C2.64036 8.33191 3.27309 8.93795 4.02783 9.35851C4.78257 9.77908 5.63389 10 6.49979 10C7.36569 10 8.217 9.77908 8.97174 9.35851C9.72648 8.93795 10.3592 8.33191 10.809 7.59876H13V6.41223H11.3408C11.6175 5.48059 11.6144 4.48927 11.3319 3.55934H11.5901ZM6.5017 8.31934C5.83916 8.31934 5.1915 8.12467 4.64061 7.75994C4.08973 7.39521 3.66037 6.87682 3.40683 6.2703C3.15329 5.66378 3.08695 4.99639 3.2162 4.35251C3.34546 3.70864 3.6645 3.1172 4.13299 2.653C4.60147 2.18879 5.19836 1.87266 5.84817 1.74458C6.49798 1.61651 7.17153 1.68224 7.78363 1.93347C8.39574 2.1847 8.91892 2.61014 9.287 3.15599C9.65509 3.70184 9.85156 4.34358 9.85156 5.00007C9.85055 5.88038 9.49706 6.72432 8.86869 7.34663C8.24032 7.96895 7.38842 8.31878 6.5 8.31934H6.5017ZM6.5017 3.85597C6.73006 3.85597 6.9533 3.92307 7.14318 4.04879C7.33306 4.1745 7.48105 4.35319 7.56845 4.56224C7.65584 4.7713 7.6787 5.00134 7.63415 5.22327C7.5896 5.44521 7.47963 5.64906 7.31815 5.80907C7.15667 5.96907 6.95093 6.07804 6.72695 6.12218C6.50298 6.16633 6.27082 6.14367 6.05983 6.05708C5.84885 5.97048 5.66852 5.82384 5.54165 5.6357C5.41477 5.44755 5.34705 5.22635 5.34705 5.00007C5.34705 4.69693 5.46847 4.40618 5.68464 4.19167C5.90081 3.97715 6.19406 3.85642 6.5 3.85597H6.5017Z" fill="#CCCCCC"/>
</svg>
