<svg width="40" height="40" viewBox="0 0 40 40" fill="none" xmlns="http://www.w3.org/2000/svg">
<path d="M20 39C30.4934 39 39 30.4934 39 20C39 9.50659 30.4934 1 20 1C9.50659 1 1 9.50659 1 20C1 30.4934 9.50659 39 20 39Z" fill="#020229" stroke="#23252C" stroke-width="2"/>
<path d="M20.4821 32.4115C20.3505 32.4115 20.2177 32.4084 20.0872 32.4016C16.1175 32.3958 12.9322 29.8557 11.7728 25.7697C10.2399 20.5047 12.2723 12.9204 20.2706 7.85636L22.188 6.67871V8.91071C22.188 13.1182 23.8908 15.5361 25.5376 17.8738C26.9 19.7971 28.3096 21.7872 28.3096 24.5302C28.3409 28.843 24.8545 32.3802 20.5379 32.4115H20.4821ZM18.1176 29.5684C18.2876 29.6249 18.4656 29.6537 18.6447 29.6537H18.6492C19.1854 29.6537 19.7112 29.4559 20.0856 29.0718C21.171 27.9588 21.0167 25.9806 19.7121 23.8867C17.5024 20.3648 16.7329 16.8035 17.4414 13.4658C13.7501 17.5894 13.2969 22.1826 14.1441 25.0851C14.8076 27.3483 16.2143 28.9326 18.1176 29.5684ZM20.1934 12.8815C19.1541 15.9071 19.7112 19.159 21.8584 22.5736C23.3508 24.9611 23.7223 27.3823 22.9368 29.2806C25.0158 28.2758 25.7898 26.2049 25.7898 24.5295C25.7898 22.6218 24.7584 21.1302 23.5639 19.4034L23.4928 19.3005C22.3203 17.6542 20.904 15.6659 20.1934 12.8815Z" fill="url(#paint0_linear_2875_24784)"/>
<defs>
<linearGradient id="paint0_linear_2875_24784" x1="25.2478" y1="30.8691" x2="11.8979" y2="7.74656" gradientUnits="userSpaceOnUse">
<stop stop-color="#1984FF"/>
<stop offset="1" stop-color="#4DD9F6"/>
</linearGradient>
</defs>
</svg>
