<svg width="48" height="48" viewBox="0 0 48 48" fill="none" xmlns="http://www.w3.org/2000/svg">
<path d="M34.2872 17.1973C33.5561 16.7819 32.6162 16.7819 31.7807 17.1973L25.9321 20.6246L21.9634 22.8056L16.2193 26.2329C15.4883 26.6484 14.5483 26.6484 13.7128 26.2329L9.22193 23.5326C8.49086 23.1172 7.96867 22.2864 7.96867 21.3516V16.1588C7.96867 15.3279 8.38642 14.497 9.22193 13.9777L13.7128 11.3813C14.4439 10.9659 15.3838 10.9659 16.2193 11.3813L20.7102 14.0816C21.4413 14.497 21.9634 15.3279 21.9634 16.2626V19.6899L25.9321 17.405V13.8739C25.9321 13.043 25.5144 12.2122 24.6789 11.6929L16.3238 6.81157C15.5927 6.39614 14.6527 6.39614 13.8172 6.81157L5.25326 11.7967C4.41775 12.2122 4 13.043 4 13.8739V23.6365C4 24.4674 4.41775 25.2982 5.25326 25.8175L13.7128 30.6988C14.4439 31.1142 15.3838 31.1142 16.2193 30.6988L21.9634 27.3754L25.9321 25.0905L31.6762 21.7671C32.4073 21.3516 33.3473 21.3516 34.1828 21.7671L38.6736 24.3635C39.4047 24.7789 39.9269 25.6098 39.9269 26.5445V31.7374C39.9269 32.5683 39.5091 33.3991 38.6736 33.9184L34.2872 36.5148C33.5561 36.9303 32.6162 36.9303 31.7807 36.5148L27.2898 33.9184C26.5587 33.503 26.0366 32.6721 26.0366 31.7374V28.4139L22.0679 30.6988V34.1261C22.0679 34.957 22.4856 35.7878 23.3211 36.3071L31.7807 41.1884C32.5118 41.6039 33.4517 41.6039 34.2872 41.1884L42.7467 36.3071C43.4778 35.8917 44 35.0608 44 34.1261V24.2596C44 23.4288 43.5822 22.5979 42.7467 22.0786L34.2872 17.1973Z" fill="#8247E5"/>
</svg>
