<svg width="96" height="96" viewBox="0 0 96 96" fill="none" xmlns="http://www.w3.org/2000/svg">
<circle cx="48" cy="48" r="48" fill="#0D0D0D"/>
<path fill-rule="evenodd" clip-rule="evenodd" d="M73.629 31.1193C73.629 31.9383 73.368 32.695 72.9265 33.3072L73.4549 38.4308C73.9138 38.6694 74.3177 39.0057 74.6393 39.4174C74.9768 39.8495 75.2151 40.3536 75.3364 40.8924C75.4578 41.4312 75.4591 41.991 75.3404 42.5305C75.2217 43.0699 74.9859 43.5752 74.6505 44.0089C74.3151 44.4427 73.8887 44.7939 73.4027 45.0366C72.9167 45.2793 72.3836 45.4073 71.8427 45.4111C71.3018 45.4148 70.767 45.2943 70.2778 45.0585L51.7973 68.8859C52.153 69.5555 52.3338 70.3077 52.322 71.0696C52.3103 71.8315 52.1064 72.5774 51.7301 73.2352C51.3539 73.893 50.818 74.4405 50.1742 74.8246C49.5304 75.2088 48.8006 75.4166 48.0553 75.4281C47.3099 75.4396 46.5743 75.2543 45.9195 74.8901C45.2647 74.5259 44.7129 73.9952 44.3175 73.3493C43.922 72.7033 43.6963 71.964 43.6621 71.2028C43.6279 70.4416 43.7864 69.6843 44.1223 69.004L25.5968 45.1142C24.9299 45.4058 24.1926 45.485 23.481 45.3416C22.7694 45.1983 22.1166 44.839 21.6078 44.3106C21.099 43.7822 20.7578 43.1093 20.6288 42.3797C20.4998 41.6501 20.5889 40.8977 20.8846 40.2207C21.1802 39.5436 21.6687 38.9734 22.2861 38.5845C22.4278 38.4952 22.5748 38.4164 22.726 38.3485L23.2459 33.307C22.8045 32.6948 22.5436 31.9382 22.5436 31.1193C22.5436 29.081 24.1601 27.4286 26.154 27.4286C28.148 27.4286 29.7645 29.081 29.7645 31.1193C29.7645 31.9076 29.5227 32.6382 29.1108 33.2378L35.6535 39.8422C35.852 39.7485 36.0589 39.6732 36.2719 39.6175C36.7583 39.4902 37.2653 39.4681 37.7606 39.5525C38.2558 39.6369 38.7284 39.826 39.1481 40.1076C39.5679 40.3893 39.9255 40.7573 40.1982 41.1883C40.471 41.6192 40.6528 42.1035 40.732 42.6104C40.8113 43.1172 40.7863 43.6353 40.6586 44.1317C40.5309 44.6281 40.3033 45.0918 39.9904 45.4932L47.5963 66.5911C47.7279 66.5714 47.8627 66.5714 47.9974 66.5714C48.0474 66.5714 48.0974 66.5743 48.1471 66.5772C48.1963 66.5801 48.2458 66.5829 48.2944 66.5829L56.1571 45.6785C55.7694 45.2434 55.4893 44.7197 55.3403 44.1512C55.1912 43.5827 55.1774 42.986 55.3002 42.411C55.4574 41.6743 55.8315 41.0045 56.3722 40.4917C56.9129 39.9789 57.5943 39.6477 58.3247 39.5427C59.055 39.4376 59.7994 39.5638 60.4575 39.9041L67.0617 33.2377C66.6498 32.6381 66.4081 31.9076 66.4081 31.1193C66.4081 29.081 68.0246 27.4286 70.0185 27.4286C72.0125 27.4286 73.629 29.081 73.629 31.1193ZM70.0185 34.8101C70.2081 34.8101 70.3942 34.7951 70.5759 34.7664L70.9671 38.1354C70.5233 38.2463 70.1015 38.443 69.7255 38.7176C69.113 39.1649 68.6526 39.7967 68.4084 40.5246L62.3864 41.3917L69.181 34.7103C69.4498 34.7755 69.7302 34.8101 70.0185 34.8101ZM25.5965 34.7663L25.1993 38.187C25.6113 38.3113 26.0006 38.5105 26.3475 38.7774C26.927 39.2232 27.3616 39.8372 27.5946 40.5394L33.8329 41.4378L26.9914 34.7103C26.7227 34.7755 26.4423 34.8101 26.154 34.8101C25.9644 34.8101 25.7782 34.7951 25.5965 34.7663ZM28.0182 43.5051L33.6248 44.3023L33.7211 44.3154C33.9539 45.0621 34.4131 45.7137 35.0321 46.1761C35.6511 46.6385 36.398 46.8876 37.1646 46.8874C37.2641 46.8874 37.3636 46.8874 37.4615 46.8743L42.9654 63.6057L28.0182 43.5051ZM52.9654 63.4548L58.7245 46.8874H58.8336C59.6023 46.8878 60.3511 46.6372 60.9708 46.1722C61.5905 45.7072 62.0487 45.0521 62.2787 44.3023L67.7874 43.5182L52.9654 63.4548Z" fill="url(#paint0_linear_365_66)"/>
<defs>
<linearGradient id="paint0_linear_365_66" x1="20.5713" y1="51.4468" x2="75.4216" y2="51.4468" gradientUnits="userSpaceOnUse">
<stop stop-color="#0BADF4"/>
<stop offset="0.9341" stop-color="#30EFE4"/>
</linearGradient>
</defs>
</svg>
