<svg width="102" height="16" viewBox="0 0 102 16" fill="none" xmlns="http://www.w3.org/2000/svg">
<path d="M0 14.7893C0 15.3854 0.48382 15.8732 1.07509 15.8732C1.68416 15.8732 2.16798 15.3854 2.16798 14.7893V14.3016C2.83108 15.1867 3.81591 15.9809 5.39263 15.9809C7.63183 15.9809 9.78139 14.1933 9.78139 11.0327V10.9968C9.78139 7.81832 7.61402 6.04864 5.39263 6.04864C3.85214 6.04864 2.86669 6.84342 2.16798 7.83627V3.5925C2.16798 2.97847 1.68416 2.50928 1.07509 2.50928C0.466014 2.50928 0 2.97909 0 3.5925V14.7893ZM4.87258 14.0849C3.40393 14.0849 2.11395 12.8569 2.11395 11.0327V10.9968C2.11395 9.17267 3.40393 7.9446 4.87258 7.9446C6.34123 7.9446 7.5778 9.15472 7.5778 10.9968V11.0327C7.5778 12.9107 6.35965 14.0849 4.8732 14.0849H4.87258ZM12.7525 10.3469C12.9496 8.86627 13.881 7.83689 15.2066 7.83689C16.6396 7.83689 17.4636 8.93869 17.6072 10.3469H12.7525ZM18.861 14.7355C19.0225 14.5727 19.1477 14.3381 19.1477 14.067C19.1477 13.5613 18.7714 13.1818 18.2881 13.1818C18.0376 13.1818 17.894 13.2543 17.7331 13.3805C17.124 13.8862 16.4075 14.2112 15.4939 14.2112C14.0965 14.2112 13.0042 13.344 12.7709 11.791H18.7001C19.2552 11.791 19.7212 11.3577 19.7212 10.7437C19.7212 8.54068 18.2341 6.04802 15.225 6.04802C12.5204 6.04802 10.6035 8.28752 10.6035 11.0142V11.0501C10.6035 13.994 12.7175 15.9982 15.4577 15.9982C16.9263 15.9982 18.0014 15.5105 18.861 14.7343V14.7355ZM22.6677 10.3469C22.8654 8.86627 23.7968 7.83689 25.1224 7.83689C26.5555 7.83689 27.3794 8.93869 27.5231 10.3469H22.6683H22.6677ZM28.7768 14.7355C28.9383 14.5727 29.0636 14.3381 29.0636 14.067C29.0636 13.5613 28.6872 13.1818 28.204 13.1818C27.9535 13.1818 27.8098 13.2543 27.649 13.3805C27.0399 13.8862 26.3234 14.2112 25.4098 14.2112C24.0123 14.2112 22.92 13.344 22.6867 11.791H28.616C29.171 11.791 29.637 11.3577 29.637 10.7437C29.637 8.54068 28.15 6.04802 25.1408 6.04802C22.4362 6.04802 20.5194 8.28752 20.5194 11.0142V11.0501C20.5194 13.994 22.6333 15.9982 25.3741 15.9982C26.8428 15.9982 27.9179 15.5105 28.7775 14.7343L28.7768 14.7355ZM34.1247 15.9456C34.6981 15.9456 35.1457 15.8552 35.6117 15.6931C35.9156 15.5668 36.1846 15.2418 36.1846 14.8444C36.1846 14.3387 35.7548 13.9413 35.2716 13.9413C35.1997 13.9413 34.9848 13.9958 34.7343 13.9958C33.9994 13.9958 33.5702 13.6529 33.5702 12.8036V8.12658H35.2722C35.7916 8.12658 36.2214 7.71124 36.2214 7.18758C36.2214 6.66391 35.7916 6.24857 35.2722 6.24857H33.5702V4.62312C33.5702 4.02703 33.0864 3.53927 32.4951 3.53927C31.8861 3.53927 31.4016 4.02703 31.4016 4.62312V6.24857H31.0431C30.9203 6.24796 30.7993 6.27148 30.6857 6.31852C30.5721 6.36556 30.4696 6.43489 30.383 6.52217C30.2965 6.60944 30.2277 6.71343 30.1816 6.82733C30.1351 6.94161 30.1115 7.06405 30.1123 7.18758C30.1115 7.3111 30.1351 7.43354 30.1816 7.54783C30.2283 7.66234 30.2965 7.76571 30.383 7.85299C30.4697 7.94029 30.5726 8.00941 30.6859 8.05637C30.7992 8.10333 30.9206 8.12719 31.0431 8.12658H31.4016V13.1472C31.4016 15.2418 32.5307 15.9462 34.1253 15.9462L34.1247 15.9456ZM37.4224 14.79C37.4224 15.404 37.9062 15.8738 38.4975 15.8738C39.1065 15.8738 39.5903 15.404 39.5903 14.79V10.4014C39.5903 8.92074 40.4683 8.03559 41.7221 8.03559C43.0121 8.03559 43.7464 8.88422 43.7464 10.3655V14.79C43.7464 15.404 44.2302 15.8738 44.8393 15.8738C45.4484 15.8738 45.9144 15.404 45.9144 14.79V9.69757C45.9144 7.49459 44.6784 6.04988 42.5467 6.04988C41.078 6.04988 40.2 6.82671 39.591 7.71124V3.59374C39.591 2.99766 39.1071 2.51051 38.4981 2.51051C37.889 2.51051 37.423 2.99828 37.423 3.59374V14.7893L37.4224 14.79ZM52.131 16.0001C55.0511 16.0001 57.2006 13.7426 57.2006 11.034V10.9981C57.2006 8.27142 55.0689 6.04988 52.1672 6.04988C49.2655 6.04988 47.1153 8.30732 47.1153 11.034V11.0699C47.1153 13.7785 49.2471 16.0001 52.131 16.0001ZM52.1666 14.0856C50.4824 14.0856 49.2827 12.6953 49.2827 11.0333V10.9974C49.2827 9.33608 50.3934 7.96379 52.131 7.96379C53.833 7.96379 55.0333 9.35403 55.0333 11.034V11.0699C55.0333 12.7133 53.9226 14.0856 52.1672 14.0856H52.1666ZM63.3387 15.0066L66.4915 7.71062C66.5689 7.54674 66.6115 7.36839 66.6167 7.18696C66.6167 6.59087 66.1513 6.13963 65.5601 6.13963C64.9866 6.13963 64.7005 6.51907 64.539 6.89789L62.0671 13.2549L59.6308 6.93441C59.4515 6.48317 59.147 6.13963 58.5557 6.13963C57.9644 6.13963 57.4812 6.64534 57.4812 7.18696C57.4812 7.38565 57.5531 7.5664 57.6065 7.72857L60.7593 15.0066C61.0098 15.5847 61.404 15.9636 61.9953 15.9636H62.1027C62.694 15.9636 63.0882 15.5662 63.3387 15.0066ZM69.0426 10.3475C69.2397 8.86689 70.1711 7.83751 71.4967 7.83751C72.9297 7.83751 73.7537 8.93931 73.8973 10.3475H69.0426ZM75.1511 14.7361C75.3307 14.5603 75.4338 14.3199 75.4378 14.0676C75.4378 13.5619 75.0615 13.1825 74.5776 13.1825C74.3744 13.1756 74.176 13.2466 74.0226 13.3812C73.4135 13.8869 72.697 14.2118 71.7834 14.2118C70.386 14.2118 69.2937 13.3446 69.0604 11.7916H74.9896C75.5453 11.7916 76.0107 11.3583 76.0107 10.7443C76.0107 8.5413 74.5242 6.04864 71.5145 6.04864C68.8099 6.04864 66.893 8.28813 66.893 11.0148V11.0507C66.893 13.9946 69.007 15.9988 71.7478 15.9988C73.2164 15.9988 74.2915 15.5111 75.1511 14.7349V14.7361ZM77.3283 14.79C77.3283 15.404 77.8115 15.8738 78.4028 15.8738C79.0118 15.8738 79.4957 15.404 79.4957 14.79V10.4014C79.4957 8.92074 80.373 8.03559 81.6274 8.03559C82.9168 8.03559 83.6517 8.88422 83.6517 10.3655V14.79C83.6517 15.404 84.1349 15.8738 84.744 15.8738C85.3531 15.8738 85.8191 15.404 85.8191 14.79V9.69757C85.8191 7.49459 84.5831 6.04988 82.4514 6.04988C80.9821 6.04988 80.1047 6.82671 79.4957 7.71124V7.24205C79.4963 7.0972 79.4686 6.9536 79.414 6.81928C79.3594 6.68496 79.2789 6.56364 79.1776 6.46089C79.0759 6.35843 78.9551 6.27733 78.8221 6.22229C78.689 6.16725 78.5465 6.13937 78.4028 6.14025C77.7937 6.14025 77.3283 6.62801 77.3283 7.24205V14.7893V14.79ZM88.1498 11.3224H91.5175C92.0903 11.3224 92.5742 10.8346 92.5742 10.2571C92.5742 9.66105 92.0903 9.17328 91.5175 9.17328H88.1498C87.5763 9.17328 87.0925 9.66105 87.0925 10.2571C87.0925 10.8353 87.5763 11.3224 88.1498 11.3224ZM92.9131 14.9521C92.9131 15.4938 93.3607 15.9091 93.9163 15.9091C94.3105 15.9091 94.615 15.6559 94.8655 15.3495L97.1588 12.3697L99.4514 15.3495C99.7203 15.7104 100.025 15.9091 100.455 15.9091C100.992 15.9091 101.458 15.5117 101.458 14.8977C101.458 14.6086 101.332 14.3561 101.099 14.067L98.4481 10.9064L101.01 7.81832C101.189 7.60168 101.314 7.38503 101.314 7.07802C101.314 6.5364 100.867 6.12106 100.293 6.12106C99.9174 6.12106 99.6129 6.35566 99.3617 6.68063L97.1944 9.47968L95.0626 6.66268C94.7937 6.31976 94.4892 6.12106 94.0594 6.12106C93.5221 6.12106 93.0561 6.51845 93.0561 7.13249C93.0561 7.42155 93.182 7.6741 93.4147 7.96317L95.9044 10.943L93.2176 14.1939C93.0205 14.4105 92.9131 14.6451 92.9131 14.9521Z" fill="black"/>
<path d="M0 12.2813C0 12.8774 0.48382 13.3652 1.07509 13.3652C1.68416 13.3652 2.16798 12.8774 2.16798 12.2813V11.7935C2.83108 12.6787 3.81591 13.4729 5.39263 13.4729C7.63183 13.4729 9.78139 11.6852 9.78139 8.52468V8.48878C9.78139 5.31028 7.61402 3.5406 5.39263 3.5406C3.85214 3.5406 2.86669 4.33538 2.16798 5.32824V1.08447C2.16798 0.470431 1.68416 0.000618646 1.07509 0.000618646C0.466014 0.000618646 0 0.469812 0 1.08447V12.2813ZM4.87258 11.5769C3.40393 11.5769 2.11395 10.3488 2.11395 8.52468V8.48878C2.11395 6.66463 3.40393 5.43656 4.87258 5.43656C6.34123 5.43656 7.5778 6.64668 7.5778 8.48878V8.52468C7.5778 10.4027 6.35965 11.5769 4.8732 11.5769H4.87258ZM12.7525 7.83884C12.9496 6.35823 13.881 5.32885 15.2066 5.32885C16.6396 5.32885 17.4636 6.43065 17.6072 7.83884H12.7525ZM18.861 12.2275C19.0225 12.0647 19.1477 11.8301 19.1477 11.5596C19.1477 11.0539 18.7714 10.6744 18.2881 10.6744C18.0376 10.6744 17.894 10.7468 17.7331 10.8731C17.124 11.3788 16.4075 11.7038 15.4939 11.7038C14.0965 11.7038 13.0042 10.8372 12.7709 9.28356H18.7001C19.2552 9.28356 19.7212 8.85027 19.7212 8.23623C19.7212 6.03326 18.2341 3.5406 15.225 3.5406C12.5204 3.5406 10.6035 5.78009 10.6035 8.50673V8.54263C10.6035 11.4865 12.7175 13.4908 15.4577 13.4908C16.9263 13.4908 18.0014 13.003 18.861 12.2268V12.2275ZM22.6677 7.83884C22.8654 6.35823 23.7968 5.32885 25.1224 5.32885C26.5555 5.32885 27.3794 6.43065 27.5231 7.83884H22.6683H22.6677ZM28.7768 12.2275C28.9383 12.0647 29.0636 11.8301 29.0636 11.5596C29.0636 11.0539 28.6872 10.6744 28.204 10.6744C27.9535 10.6744 27.8098 10.7468 27.649 10.8731C27.0399 11.3788 26.3234 11.7038 25.4098 11.7038C24.0123 11.7038 22.92 10.8372 22.6867 9.28356H28.616C29.171 9.28356 29.637 8.85027 29.637 8.23623C29.637 6.03326 28.15 3.5406 25.1408 3.5406C22.4362 3.5406 20.5194 5.78009 20.5194 8.50673V8.54263C20.5194 11.4865 22.6333 13.4908 25.3741 13.4908C26.8428 13.4908 27.9179 13.003 28.7775 12.2268L28.7768 12.2275ZM34.1247 13.4376C34.6312 13.4421 35.1346 13.3567 35.6117 13.185C35.9156 13.0588 36.1846 12.7338 36.1846 12.3364C36.1846 11.8307 35.7548 11.4333 35.2716 11.4333C35.1997 11.4333 34.9848 11.4871 34.7343 11.4871C33.9994 11.4871 33.5702 11.1442 33.5702 10.295V5.61792H35.2722C35.7916 5.61792 36.2214 5.20258 36.2214 4.67892C36.2214 4.15526 35.7916 3.73992 35.2722 3.73992H33.5702V2.11446C33.5702 1.51837 33.0864 1.03123 32.4951 1.03123C31.8861 1.03123 31.4016 1.51899 31.4016 2.11446V3.73992H31.0431C30.9203 3.7393 30.7993 3.76282 30.6857 3.80986C30.5721 3.85691 30.4696 3.92623 30.383 4.01351C30.2965 4.10078 30.2277 4.20477 30.1816 4.31867C30.1351 4.43295 30.1115 4.55539 30.1123 4.67892C30.1115 4.80244 30.1351 4.92489 30.1816 5.03917C30.2283 5.15368 30.2965 5.25705 30.383 5.34433C30.4696 5.43161 30.5728 5.50093 30.6857 5.54798C30.7987 5.59502 30.9203 5.61854 31.0431 5.61792H31.4016V10.6385C31.4016 12.7332 32.5307 13.4376 34.1253 13.4376H34.1247ZM37.4224 12.2819C37.4224 12.896 37.9062 13.3658 38.4975 13.3658C39.1065 13.3658 39.5903 12.896 39.5903 12.2819V7.89332C39.5903 6.4127 40.4683 5.52755 41.7221 5.52755C43.0121 5.52755 43.7464 6.37618 43.7464 7.85741V12.2819C43.7464 12.896 44.2302 13.3658 44.8393 13.3658C45.4484 13.3658 45.9144 12.896 45.9144 12.2819V7.18829C45.9144 4.98532 44.6784 3.53998 42.5467 3.53998C41.078 3.53998 40.2 4.31681 39.591 5.20134V1.08384C39.591 0.487761 39.1071 0 38.4981 0C37.889 0 37.423 0.487761 37.423 1.08384V12.2807L37.4224 12.2819ZM52.131 13.492C55.0511 13.492 57.2006 11.2346 57.2006 8.52592V8.49002C57.2006 5.76276 55.0689 3.54184 52.1672 3.54184C49.2655 3.54184 47.1153 5.79928 47.1153 8.52592V8.56182C47.1153 11.2705 49.2471 13.492 52.131 13.492ZM52.1666 11.5775C50.4824 11.5775 49.2827 10.1873 49.2827 8.5253V8.4894C49.2827 6.82804 50.3934 5.45575 52.131 5.45575C53.833 5.45575 55.0333 6.84599 55.0333 8.52592V8.56182C55.0333 10.2052 53.9226 11.5775 52.1672 11.5775H52.1666ZM63.3387 12.4986L66.4915 5.20258C66.5689 5.0387 66.6115 4.86035 66.6167 4.67892C66.6167 4.08283 66.1513 3.63159 65.5601 3.63159C64.9866 3.63159 64.7005 4.01103 64.539 4.38985L62.0671 10.7468L59.6308 4.42637C59.4515 3.97513 59.147 3.63159 58.5557 3.63159C57.9644 3.63159 57.4812 4.13731 57.4812 4.67892C57.4812 4.87761 57.5531 5.05836 57.6065 5.22053L60.7593 12.4986C61.0098 13.0767 61.404 13.4555 61.9953 13.4555H62.1027C62.694 13.4555 63.0882 13.0581 63.3387 12.4986ZM69.0426 7.83946C69.2397 6.35885 70.1711 5.32947 71.4967 5.32947C72.9297 5.32947 73.7537 6.43127 73.8973 7.83946H69.0426ZM75.1511 12.2281C75.3305 12.0524 75.4336 11.8123 75.4378 11.5602C75.4378 11.0545 75.0615 10.675 74.5776 10.675C74.3744 10.6681 74.176 10.7391 74.0226 10.8737C73.4135 11.3794 72.697 11.7044 71.7834 11.7044C70.386 11.7044 69.2937 10.8378 69.0604 9.28418H74.9896C75.5453 9.28418 76.0107 8.85089 76.0107 8.23685C76.0107 6.03388 74.5242 3.54122 71.5145 3.54122C68.8099 3.54122 66.893 5.78071 66.893 8.50735V8.54325C66.893 11.4871 69.007 13.4914 71.7478 13.4914C73.2164 13.4914 74.2915 13.0037 75.1511 12.2275V12.2281ZM77.3283 12.2819C77.3283 12.896 77.8115 13.3658 78.4028 13.3658C79.0118 13.3658 79.4957 12.896 79.4957 12.2819V7.89332C79.4957 6.4127 80.373 5.52755 81.6274 5.52755C82.9168 5.52755 83.6517 6.37618 83.6517 7.85741V12.2819C83.6517 12.896 84.1349 13.3658 84.744 13.3658C85.3531 13.3658 85.8191 12.896 85.8191 12.2819V7.18829C85.8191 4.98532 84.5831 3.53998 82.4514 3.53998C80.9821 3.53998 80.1047 4.31681 79.4957 5.20134V4.73153C79.4963 4.58669 79.4686 4.44309 79.414 4.30876C79.3596 4.17464 79.2793 4.0528 79.1776 3.95037C79.0759 3.84791 78.9551 3.76681 78.8221 3.71177C78.689 3.65674 78.5465 3.62885 78.4028 3.62974C77.7937 3.62974 77.3283 4.1175 77.3283 4.73153V12.2801V12.2819ZM88.1498 8.81437H91.5175C92.0903 8.81437 92.5742 8.3266 92.5742 7.74909C92.5742 7.15301 92.0903 6.66586 91.5175 6.66586H88.1498C87.5763 6.66586 87.0925 7.15363 87.0925 7.74909C87.0925 8.32722 87.5763 8.81437 88.1498 8.81437Z" fill="#00E59D"/>
<path d="M93.4552 12.4439C93.4552 12.9855 93.9034 13.4008 94.4585 13.4008C94.8526 13.4008 95.1572 13.1477 95.4077 12.8413L97.7009 9.86146L99.9935 12.8413C100.262 13.2027 100.567 13.4008 100.997 13.4008C101.534 13.4008 102 13.0034 102 12.3894C102 12.1003 101.875 11.8478 101.641 11.5587L98.9903 8.39818L101.552 5.31005C101.731 5.09341 101.857 4.87676 101.857 4.56974C101.857 4.02813 101.409 3.61279 100.836 3.61279C100.46 3.61279 100.155 3.84739 99.9039 4.17236L97.7365 6.97141L95.6048 4.15441C95.3364 3.81149 95.0319 3.61279 94.6021 3.61279C94.0643 3.61279 93.5989 4.01018 93.5989 4.62422C93.5989 4.91328 93.7241 5.16583 93.9568 5.45489L96.4471 8.4347L93.7597 11.6856C93.5626 11.9023 93.4552 12.1369 93.4552 12.4439V12.4439Z" fill="#FF0000"/>
</svg>
