<svg width="240" height="127" viewBox="0 0 240 127" fill="none" xmlns="http://www.w3.org/2000/svg">
<path d="M156.583 25.2197H84.5244V96.5704H156.583V25.2197Z" fill="#0D0D0D" stroke="#282828"/>
<path d="M71.96 15.03L87.8311 29.4485V92.1409L71.96 106.559V15.03Z" fill="#0D0D0D" stroke="#282828"/>
<path d="M71.9629 106.56L87.832 92.1411C87.832 92.1511 87.832 92.1611 87.832 92.1712V92.2012C87.832 92.2012 87.832 92.2213 87.832 92.2313C87.832 92.2413 87.832 92.2513 87.832 92.2594L71.975 106.732C71.976 106.718 71.976 106.704 71.975 106.69C71.975 106.676 71.975 106.662 71.975 106.646C71.976 106.632 71.976 106.618 71.975 106.604V106.56" fill="#181818"/>
<path d="M71.9629 106.56L87.832 92.1411C87.832 92.1511 87.832 92.1611 87.832 92.1712V92.2012C87.832 92.2012 87.832 92.2213 87.832 92.2313C87.832 92.2413 87.832 92.2513 87.832 92.2594L71.975 106.732C71.976 106.718 71.976 106.704 71.975 106.69C71.975 106.676 71.975 106.662 71.975 106.646C71.976 106.632 71.976 106.618 71.975 106.604V106.56" stroke="#282828"/>
<path d="M71.975 106.732L87.842 92.2598V92.3019C87.843 92.3152 87.843 92.3286 87.842 92.3419C87.842 92.356 87.842 92.368 87.8522 92.382L87.8643 92.4201L72.0134 106.967C72.0134 106.949 72.0013 106.929 71.9972 106.911C71.9932 106.893 71.9871 106.871 71.9831 106.853L71.975 106.792C71.975 106.772 71.975 106.752 71.9648 106.732" fill="#181818"/>
<path d="M71.975 106.732L87.842 92.2598V92.3019C87.843 92.3152 87.843 92.3286 87.842 92.3419C87.842 92.356 87.842 92.368 87.8522 92.382L87.8643 92.4201L72.0134 106.967C72.0134 106.949 72.0013 106.929 71.9972 106.911C71.9932 106.893 71.9871 106.871 71.9831 106.853L71.975 106.792C71.975 106.772 71.975 106.752 71.9648 106.732" stroke="#282828"/>
<path d="M72.0254 106.966L87.8763 92.4197C87.8938 92.4753 87.9168 92.529 87.9451 92.58C87.9718 92.6299 88.0037 92.6769 88.0402 92.7203C88.1122 92.8097 88.2009 92.8845 88.3013 92.9408L72.6448 107.726C72.5725 107.686 72.5047 107.638 72.4424 107.584C72.3777 107.53 72.3187 107.471 72.2663 107.405C72.2136 107.343 72.1668 107.276 72.1266 107.205C72.0873 107.13 72.0542 107.052 72.0274 106.972" fill="#181818"/>
<path d="M72.0254 106.966L87.8763 92.4197C87.8938 92.4753 87.9168 92.529 87.9451 92.58C87.9718 92.6299 88.0037 92.6769 88.0402 92.7203C88.1122 92.8097 88.2009 92.8845 88.3013 92.9408L72.6448 107.726C72.5725 107.686 72.5047 107.638 72.4424 107.584C72.3777 107.53 72.3187 107.471 72.2663 107.405C72.2136 107.343 72.1668 107.276 72.1266 107.205C72.0873 107.13 72.0542 107.052 72.0274 106.972" stroke="#282828"/>
<path d="M72.6445 107.726L88.3011 92.9407L88.3375 92.9607L88.374 92.9788L88.4124 92.9948L88.4529 93.0088L72.8672 107.826L72.8105 107.806L72.7538 107.782L72.6992 107.756L72.6466 107.726" fill="#181818"/>
<path d="M72.6445 107.726L88.3011 92.9407L88.3375 92.9607L88.374 92.9788L88.4124 92.9948L88.4529 93.0088L72.8672 107.826L72.8105 107.806L72.7538 107.782L72.6992 107.756L72.6466 107.726" stroke="#282828"/>
<path d="M72.8653 107.826L88.451 93.0088H88.4834L88.5158 93.0188H88.5502H88.5846L73.0596 107.85H73.009L72.9604 107.838L72.9119 107.824L72.8633 107.808" fill="#181818"/>
<path d="M72.8653 107.826L88.451 93.0088H88.4834L88.5158 93.0188H88.5502H88.5846L73.0596 107.85H73.009L72.9604 107.838L72.9119 107.824L72.8633 107.808" stroke="#282828"/>
<path d="M73.0625 107.878L88.5875 93.0466H88.6199H88.6523H88.6867H88.7211L73.2548 107.878H73.2062H73.1576H73.1091H73.0625Z" fill="#181818" stroke="#282828"/>
<path d="M73.2539 107.9L88.7202 93.0691H88.7506L73.3005 107.912H73.2539" fill="#181818"/>
<path d="M73.2539 107.9L88.7202 93.0691H88.7506L73.3005 107.912H73.2539" stroke="#282828"/>
<path d="M73.3 13.688L88.7502 28.5313C88.6653 28.5314 88.5809 28.5429 88.4992 28.5654C88.4203 28.5893 88.3448 28.623 88.2745 28.6656C88.2056 28.7077 88.1424 28.7582 88.0862 28.8159C88.0302 28.8762 87.9826 28.9436 87.9446 29.0164L72.124 14.3975C72.1795 14.2948 72.2475 14.1992 72.3264 14.1129C72.4922 13.9392 72.7018 13.8125 72.9337 13.7461C73.0526 13.7114 73.176 13.6939 73.3 13.694" fill="#181818"/>
<path d="M73.3 13.688L88.7502 28.5313C88.6653 28.5314 88.5809 28.5429 88.4992 28.5654C88.4203 28.5893 88.3448 28.623 88.2745 28.6656C88.2056 28.7077 88.1424 28.7582 88.0862 28.8159C88.0302 28.8762 87.9826 28.9436 87.9446 29.0164L72.124 14.3975C72.1795 14.2948 72.2475 14.1992 72.3264 14.1129C72.4922 13.9392 72.7018 13.8125 72.9337 13.7461C73.0526 13.7114 73.176 13.6939 73.3 13.694" stroke="#282828"/>
<path d="M72.1244 14.3975L87.945 29.0183C87.9374 29.0299 87.9307 29.042 87.9247 29.0544L87.9085 29.0905C87.9085 29.1025 87.8984 29.1166 87.8923 29.1286C87.8885 29.1416 87.8838 29.1543 87.8782 29.1667L72.0293 14.6159C72.0293 14.5979 72.0435 14.5778 72.0495 14.5598C72.0556 14.5418 72.0657 14.5237 72.0718 14.5057C72.0779 14.4877 72.088 14.4696 72.0981 14.4516L72.1244 14.3975Z" fill="#181818"/>
<path d="M72.1244 14.3975L87.945 29.0183C87.9374 29.0299 87.9307 29.042 87.9247 29.0544L87.9085 29.0905C87.9085 29.1025 87.8984 29.1166 87.8923 29.1286C87.8885 29.1416 87.8838 29.1543 87.8782 29.1667L72.0293 14.6159C72.0293 14.5979 72.0435 14.5778 72.0495 14.5598C72.0556 14.5418 72.0657 14.5237 72.0718 14.5057C72.0779 14.4877 72.088 14.4696 72.0981 14.4516L72.1244 14.3975" stroke="#282828"/>
<path d="M72.0293 14.6093L87.8781 29.16C87.876 29.1711 87.8726 29.1818 87.868 29.1921C87.868 29.2041 87.868 29.2141 87.868 29.2262C87.868 29.2382 87.868 29.2482 87.868 29.2602V29.2943L71.9746 14.7977C71.9746 14.7816 71.9746 14.7656 71.9847 14.7496L71.9969 14.6995L72.009 14.6514C72.009 14.6353 72.0191 14.6193 72.0232 14.6033" fill="#181818"/>
<path d="M72.0293 14.6093L87.8781 29.16C87.876 29.1711 87.8726 29.1818 87.868 29.1921C87.868 29.2041 87.868 29.2141 87.868 29.2262C87.868 29.2382 87.868 29.2482 87.868 29.2602V29.2943L71.9746 14.7977C71.9746 14.7816 71.9746 14.7656 71.9847 14.7496L71.9969 14.6995L72.009 14.6514C72.009 14.6353 72.0191 14.6193 72.0232 14.6033" stroke="#282828"/>
<path d="M71.9748 14.7979L87.8399 29.2885C87.8388 29.2991 87.8388 29.3099 87.8399 29.3205C87.8389 29.3312 87.8389 29.3419 87.8399 29.3526C87.8399 29.3646 87.8399 29.3746 87.8399 29.3867V29.4288L71.9688 14.9983C71.9688 14.9822 71.9688 14.9662 71.9688 14.9482C71.9688 14.9301 71.9688 14.9161 71.9688 14.9001V14.852V14.8039" fill="#181818"/>
<path d="M71.9748 14.7979L87.8399 29.2885C87.8388 29.2991 87.8388 29.3099 87.8399 29.3205C87.8389 29.3312 87.8389 29.3419 87.8399 29.3526C87.8399 29.3646 87.8399 29.3746 87.8399 29.3867V29.4288L71.9688 14.9983C71.9688 14.9822 71.9688 14.9662 71.9688 14.9482C71.9688 14.9301 71.9688 14.9161 71.9688 14.9001V14.852V14.8039" stroke="#282828"/>
<path d="M71.9629 14.998L87.834 29.4285V29.4506L71.9649 15.0321V14.998" fill="#181818"/>
<path d="M71.9629 14.998L87.834 29.4285V29.4506L71.9649 15.0321V14.998" stroke="#282828"/>
<path d="M73.3008 107.903L88.7509 93.0593L152.337 93.3339L166.309 108.488L73.3008 107.903Z" fill="#181818" stroke="#282828"/>
<path d="M166.309 13.1001L152.337 28.2561L88.7509 28.5287L73.3008 13.6873L166.309 13.1001Z" fill="#0D0D0D" stroke="#282828"/>
<path d="M166.309 108.488L152.343 93.3335H152.454L166.479 108.486H166.439H166.398H166.315" fill="#181818"/>
<path d="M166.309 108.488L152.343 93.3335H152.454L166.479 108.486H166.439H166.398H166.315" stroke="#282828"/>
<path d="M166.473 108.48L152.448 93.3279H152.491H152.531H152.572L152.61 93.3179L166.704 108.434L166.647 108.448L166.589 108.462H166.528H166.467" fill="#181818"/>
<path d="M166.473 108.48L152.448 93.3279H152.491H152.531H152.572L152.61 93.3179L166.704 108.434L166.647 108.448L166.589 108.462H166.528H166.467" stroke="#282828"/>
<path d="M166.704 108.434L152.604 93.2959C152.698 93.2667 152.787 93.2235 152.869 93.1677C152.946 93.1116 153.014 93.044 153.071 92.9672C153.131 92.8902 153.178 92.8034 153.209 92.7107C153.242 92.6153 153.259 92.515 153.259 92.4141L167.669 107.145C167.67 107.293 167.645 107.44 167.596 107.58C167.504 107.851 167.326 108.084 167.088 108.246C166.969 108.327 166.837 108.39 166.697 108.432" fill="#181818"/>
<path d="M166.704 108.434L152.604 93.2959C152.698 93.2667 152.787 93.2235 152.869 93.1677C152.946 93.1116 153.014 93.044 153.071 92.9672C153.131 92.8902 153.178 92.8034 153.209 92.7107C153.242 92.6153 153.259 92.515 153.259 92.4141L167.669 107.145C167.67 107.293 167.645 107.44 167.596 107.58C167.504 107.851 167.326 108.084 167.088 108.246C166.969 108.327 166.837 108.39 166.697 108.432" stroke="#282828"/>
<path d="M167.681 107.147L153.27 92.4158V29.1742L167.681 14.4431V107.147Z" fill="#0D0D0D" stroke="#282828"/>
<path d="M167.681 14.445L153.271 29.1742C153.271 29.051 153.246 28.929 153.198 28.8154C153.149 28.7065 153.081 28.6073 152.996 28.5228C152.91 28.438 152.809 28.3699 152.698 28.3224C152.583 28.2753 152.459 28.2515 152.334 28.2522L166.3 13.0962C166.484 13.0958 166.665 13.1305 166.835 13.1984C166.998 13.2662 167.146 13.3642 167.272 13.487C167.397 13.609 167.497 13.754 167.565 13.9139C167.637 14.0807 167.673 14.26 167.673 14.441" fill="#181818"/>
<path d="M167.681 14.445L153.271 29.1742C153.271 29.051 153.246 28.929 153.198 28.8154C153.149 28.7065 153.081 28.6073 152.996 28.5228C152.91 28.438 152.809 28.3699 152.698 28.3224C152.583 28.2753 152.459 28.2515 152.334 28.2522L166.3 13.0962C166.484 13.0958 166.665 13.1305 166.835 13.1984C166.998 13.2662 167.146 13.3642 167.272 13.487C167.397 13.609 167.497 13.754 167.565 13.9139C167.637 14.0807 167.673 14.26 167.673 14.441" stroke="#282828"/>
<path d="M166.309 1.00071C168.987 0.973536 171.614 1.73144 173.858 3.17902C176.102 4.6266 177.864 6.69918 178.921 9.13589C179.635 10.7898 180.002 12.5702 180 14.3689V107.221C180.002 108.989 179.647 110.739 178.958 112.369C178.268 113.999 177.256 115.477 175.982 116.715C174.707 117.96 173.196 118.944 171.536 119.608C169.876 120.273 168.1 120.607 166.309 120.589L73.3005 119.854C71.5203 119.84 69.7613 119.471 68.1289 118.767C65.7134 117.726 63.6575 116.009 62.2135 113.828C60.7695 111.646 60.0002 109.094 60 106.486V15.1045C60.0043 12.4969 60.7753 9.94686 62.2188 7.76585C63.6623 5.58483 65.7159 3.86717 68.1289 2.82255C69.7641 2.11914 71.5258 1.74967 73.3086 1.73626L166.309 1.00071ZM167.681 107.147V14.4451C167.681 14.2641 167.645 14.0848 167.574 13.918C167.505 13.7581 167.405 13.6131 167.28 13.4911C167.155 13.3683 167.006 13.2703 166.843 13.2025C166.673 13.1345 166.492 13.0998 166.309 13.1003L73.3005 13.6875C73.124 13.6893 72.9497 13.7256 72.7874 13.7944C72.6252 13.8632 72.4783 13.9631 72.3552 14.0884C72.2325 14.211 72.1349 14.3559 72.0678 14.5153C71.9976 14.6795 71.9618 14.8561 71.9626 15.0344V106.56C71.9617 106.738 71.9975 106.915 72.0678 107.079C72.1688 107.321 72.3396 107.528 72.5588 107.675C72.7781 107.821 73.036 107.9 73.3005 107.903L166.309 108.488C166.578 108.491 166.841 108.415 167.066 108.27C167.292 108.125 167.468 107.917 167.574 107.672C167.645 107.506 167.681 107.327 167.681 107.147Z" fill="url(#paint0_linear_656_3708)"/>
<path d="M167.681 107.147V14.4451C167.681 14.2641 167.645 14.0848 167.574 13.918C167.505 13.7581 167.405 13.6131 167.28 13.4911C167.155 13.3683 167.006 13.2703 166.843 13.2025C166.673 13.1345 166.492 13.0998 166.309 13.1003L73.3005 13.6875C73.124 13.6893 72.9497 13.7256 72.7874 13.7944C72.6252 13.8632 72.4783 13.9631 72.3552 14.0884C72.2325 14.211 72.1349 14.3559 72.0678 14.5153C71.9976 14.6795 71.9618 14.8561 71.9626 15.0343V106.56C71.9617 106.738 71.9975 106.915 72.0678 107.079C72.1688 107.321 72.3396 107.528 72.5588 107.675C72.7781 107.821 73.036 107.9 73.3005 107.903L166.309 108.488C166.578 108.491 166.841 108.415 167.066 108.27C167.292 108.125 167.468 107.917 167.574 107.672C167.645 107.506 167.681 107.327 167.681 107.147M166.309 1.00071C168.987 0.973536 171.614 1.73144 173.858 3.17902C176.102 4.6266 177.864 6.69918 178.921 9.13589C179.635 10.7898 180.002 12.5702 180 14.3689V107.221C180.002 108.989 179.647 110.739 178.958 112.369C178.268 113.999 177.256 115.477 175.982 116.715C174.707 117.96 173.196 118.944 171.536 119.608C169.876 120.273 168.1 120.607 166.309 120.589L73.3005 119.854C71.5203 119.84 69.7613 119.471 68.1289 118.767C65.7134 117.726 63.6575 116.009 62.2135 113.828C60.7695 111.646 60.0002 109.094 60 106.486V15.1045C60.0043 12.4969 60.7753 9.94686 62.2188 7.76585C63.6623 5.58483 65.7159 3.86717 68.1289 2.82255C69.7641 2.11914 71.5258 1.74967 73.3086 1.73626L166.309 1.00071Z" stroke="#282828"/>
<ellipse cx="119.885" cy="100.658" rx="34.7233" ry="5.9795" fill="#0D0D0D"/>
<path d="M118.488 97.2392C130.299 97.2392 139.874 93.3065 139.874 88.4552C139.874 83.6039 130.299 79.6711 118.488 79.6711C106.676 79.6711 97.1016 83.6039 97.1016 88.4552C97.1016 93.3065 106.676 97.2392 118.488 97.2392Z" fill="url(#paint1_linear_656_3708)" stroke="#282828"/>
<path d="M139.874 88.4558V94.3445C139.874 94.3741 139.874 94.4051 139.874 94.4347V88.5461C139.874 88.5164 139.874 88.4855 139.874 88.4558Z" fill="#0D0D0D" stroke="#282828"/>
<path d="M139.872 88.5459V94.4346C139.867 94.66 139.841 94.8844 139.795 95.1049V89.2162C139.841 88.9957 139.867 88.7713 139.872 88.5459Z" fill="#0D0D0D"/>
<path d="M139.872 88.5459V94.4346C139.867 94.66 139.841 94.8844 139.795 95.1049V89.2162C139.841 88.9957 139.867 88.7713 139.872 88.5459" stroke="#282828"/>
<path d="M139.794 89.2158V95.1045C139.749 95.3177 139.686 95.5268 139.607 95.7297V89.8423C139.687 89.639 139.749 89.4295 139.794 89.2158Z" fill="#0D0D0D"/>
<path d="M139.794 89.2158V95.1045C139.749 95.3177 139.686 95.5268 139.607 95.7297V89.8423C139.687 89.639 139.749 89.4295 139.794 89.2158" stroke="#282828"/>
<path d="M139.608 89.8416V95.729C139.528 95.9364 139.433 96.1376 139.323 96.331V90.4423C139.433 90.2493 139.528 90.0485 139.608 89.8416Z" fill="#0D0D0D"/>
<path d="M139.608 89.8416V95.729C139.528 95.9364 139.433 96.1376 139.323 96.331V90.4423C139.433 90.2493 139.528 90.0485 139.608 89.8416" stroke="#282828"/>
<path d="M139.324 90.4431V96.3318C139.208 96.5361 139.08 96.7329 138.94 96.9209V91.0322C139.081 90.8444 139.209 90.6476 139.324 90.4431Z" fill="#0D0D0D"/>
<path d="M139.324 90.4431V96.3318C139.208 96.5361 139.08 96.7329 138.94 96.9209V91.0322C139.081 90.8444 139.209 90.6476 139.324 90.4431" stroke="#282828"/>
<path d="M138.934 91.032V96.9207C138.78 97.1256 138.615 97.3215 138.439 97.5072V91.6185C138.615 91.4328 138.78 91.237 138.934 91.032Z" fill="#0D0D0D" stroke="#282828"/>
<path d="M138.444 91.6191V97.5078C138.247 97.7161 138.04 97.914 137.823 98.1008V92.2134C138.04 92.0262 138.247 91.8278 138.444 91.6191Z" fill="#0D0D0D" stroke="#282828"/>
<path d="M137.824 92.2134V98.1008C137.582 98.3109 137.322 98.5146 137.042 98.7144V92.8257C137.321 92.6263 137.582 92.4222 137.824 92.2134Z" fill="#0D0D0D" stroke="#282828"/>
<path d="M137.043 92.825V98.7136C136.729 98.9371 136.394 99.1541 136.036 99.3646V93.476C136.394 93.2654 136.729 93.0505 137.043 92.8314" fill="#0D0D0D"/>
<path d="M137.043 92.825V98.7136C136.729 98.9371 136.394 99.1541 136.036 99.3646V93.476C136.394 93.2654 136.729 93.0505 137.043 92.8314" stroke="#282828"/>
<path d="M136.036 93.4761V99.3648C135.61 99.6157 135.152 99.8572 134.662 100.089V94.2006C135.15 93.9702 135.608 93.7287 136.036 93.4761Z" fill="#0D0D0D" stroke="#282828"/>
<path d="M134.662 94.2007V100.093C133.9 100.453 133.119 100.77 132.323 101.045V95.1533C133.119 94.8779 133.9 94.5599 134.662 94.2007Z" fill="#0D0D0D"/>
<path d="M134.662 94.2007V100.093C133.9 100.453 133.119 100.77 132.323 101.045V95.1533C133.119 94.8779 133.9 94.5599 134.662 94.2007" stroke="#282828"/>
<path d="M132.323 95.1536V101.041C130.328 101.72 128.277 102.222 126.195 102.54V96.6515C128.277 96.3334 130.328 95.8322 132.323 95.1536Z" fill="#0D0D0D"/>
<path d="M132.323 95.1536V101.041C130.328 101.72 128.277 102.222 126.195 102.54V96.6515C128.277 96.3334 130.328 95.8322 132.323 95.1536" stroke="#282828"/>
<path d="M107.315 95.9463C107.807 96.07 108.312 96.1861 108.828 96.2944C109.304 96.3923 109.79 96.4851 110.286 96.5689C110.753 96.6488 111.229 96.7221 111.713 96.7891V102.671C111.229 102.606 110.753 102.533 110.286 102.452V102.457C109.79 102.372 109.304 102.28 108.828 102.182C108.312 102.074 107.807 101.959 107.315 101.835V95.9463Z" fill="#0D0D0D"/>
<path d="M113.137 96.9623V102.85C112.656 102.8 112.182 102.742 111.714 102.677V96.7896C112.181 96.8532 112.656 96.9108 113.137 96.9623Z" fill="#0D0D0D"/>
<path d="M113.137 96.9623C113.613 97.013 114.096 97.056 114.584 97.0912V102.981C114.096 102.944 113.614 102.901 113.138 102.852L113.137 96.9623Z" fill="#0D0D0D"/>
<path d="M123.212 102.912C122.53 102.975 121.836 103.025 121.133 103.061V103.058C120.537 103.088 119.933 103.108 119.321 103.117V97.2314C119.932 97.2228 120.535 97.2033 121.133 97.1724C121.836 97.1363 122.53 97.0873 123.212 97.0242C124.233 96.9288 125.226 96.8044 126.19 96.6514V102.543C125.229 102.695 124.236 102.819 123.212 102.914V102.912Z" fill="#0D0D0D"/>
<path d="M119.321 97.2314C119.044 97.2378 118.769 97.2384 118.487 97.2384C118.346 97.2384 118.205 97.2367 118.064 97.2351L117.985 97.2342C117.872 97.2328 117.758 97.2314 117.645 97.2314C117.116 97.2228 116.594 97.2073 116.077 97.1841C115.576 97.1609 115.078 97.13 114.588 97.0927V102.981C115.079 103.019 115.579 103.048 116.082 103.071C116.597 103.094 117.118 103.111 117.645 103.121H119.321L119.321 97.2314Z" fill="#0D0D0D"/>
<path d="M113.137 96.9623V102.85C112.656 102.8 112.182 102.742 111.714 102.677V96.7896C112.181 96.8532 112.656 96.9108 113.137 96.9623ZM113.137 96.9623C113.613 97.013 114.096 97.056 114.584 97.0912V102.981C114.096 102.944 113.614 102.901 113.138 102.852L113.137 96.9623ZM119.321 97.2314V103.117C119.933 103.108 120.537 103.088 121.133 103.058V103.061C121.836 103.025 122.53 102.975 123.212 102.912V102.914C124.236 102.819 125.229 102.695 126.19 102.543V96.6514C125.226 96.8044 124.233 96.9288 123.212 97.0242C122.53 97.0873 121.836 97.1363 121.133 97.1724C120.535 97.2033 119.932 97.2228 119.321 97.2314ZM119.321 97.2314C119.044 97.2378 118.769 97.2384 118.487 97.2384C118.346 97.2384 118.205 97.2367 118.064 97.2351L117.985 97.2342C117.872 97.2328 117.758 97.2314 117.645 97.2314C117.116 97.2228 116.594 97.2073 116.077 97.1841C115.576 97.1609 115.078 97.13 114.588 97.0927V102.981C115.079 103.019 115.579 103.048 116.082 103.071C116.597 103.094 117.118 103.111 117.645 103.121H119.321L119.321 97.2314ZM108.828 96.2944C108.312 96.1861 107.807 96.07 107.315 95.9463V101.835C107.807 101.959 108.312 102.074 108.828 102.182C109.304 102.28 109.79 102.372 110.286 102.457V102.452C110.753 102.533 111.229 102.606 111.713 102.671V96.7891C111.229 96.7221 110.753 96.6488 110.286 96.5689C109.79 96.4851 109.304 96.3923 108.828 96.2944Z" stroke="#282828"/>
<path d="M107.315 95.9462V101.835C106.748 101.692 106.2 101.539 105.671 101.376V95.4873C106.201 95.6497 106.749 95.8027 107.315 95.9462Z" fill="#0D0D0D"/>
<path d="M107.315 95.9462V101.835C106.748 101.692 106.2 101.539 105.671 101.376V95.4873C106.201 95.6497 106.749 95.8027 107.315 95.9462" stroke="#282828"/>
<path d="M105.671 95.4872V101.382C105.001 101.175 104.36 100.953 103.756 100.716V94.822C104.362 95.0579 105.003 95.281 105.671 95.4872Z" fill="#0D0D0D" stroke="#282828"/>
<path d="M103.754 94.8228V100.71C99.6561 99.1104 97.1016 96.8492 97.1016 94.3445V88.4558C97.1016 90.9619 99.6548 93.2255 103.754 94.8228Z" fill="#0D0D0D" stroke="#282828"/>
<path d="M121.488 88.3288C133.299 88.3288 142.874 84.3961 142.874 79.5448C142.874 74.6935 133.299 70.7607 121.488 70.7607C109.676 70.7607 100.102 74.6935 100.102 79.5448C100.102 84.3961 109.676 88.3288 121.488 88.3288Z" fill="url(#paint2_linear_656_3708)" stroke="#282828"/>
<path d="M142.874 79.5454V85.4341C142.874 85.4637 142.874 85.4947 142.874 85.5243V79.6356C142.874 79.606 142.874 79.5751 142.874 79.5454Z" fill="#0D0D0D" stroke="#282828"/>
<path d="M142.872 79.6355V85.5242C142.867 85.7496 142.841 85.974 142.795 86.1945V80.3058C142.841 80.0853 142.867 79.8609 142.872 79.6355Z" fill="#0D0D0D"/>
<path d="M142.872 79.6355V85.5242C142.867 85.7496 142.841 85.974 142.795 86.1945V80.3058C142.841 80.0853 142.867 79.8609 142.872 79.6355" stroke="#282828"/>
<path d="M142.795 80.3054V86.1941C142.75 86.4073 142.687 86.6164 142.608 86.8193V80.9319C142.688 80.7286 142.75 80.5191 142.795 80.3054Z" fill="#0D0D0D"/>
<path d="M142.795 80.3054V86.1941C142.75 86.4073 142.687 86.6164 142.608 86.8193V80.9319C142.688 80.7286 142.75 80.5191 142.795 80.3054" stroke="#282828"/>
<path d="M142.608 80.9312V86.8186C142.528 87.026 142.433 87.2272 142.323 87.4206V81.5319C142.433 81.3389 142.528 81.1381 142.608 80.9312Z" fill="#0D0D0D"/>
<path d="M142.608 80.9312V86.8186C142.528 87.026 142.433 87.2272 142.323 87.4206V81.5319C142.433 81.3389 142.528 81.1381 142.608 80.9312" stroke="#282828"/>
<path d="M142.324 81.5327V87.4214C142.208 87.6257 142.08 87.8225 141.94 88.0105V82.1218C142.081 81.934 142.209 81.7372 142.324 81.5327Z" fill="#0D0D0D"/>
<path d="M142.324 81.5327V87.4214C142.208 87.6257 142.08 87.8225 141.94 88.0105V82.1218C142.081 81.934 142.209 81.7372 142.324 81.5327" stroke="#282828"/>
<path d="M141.934 82.1216V88.0103C141.78 88.2152 141.615 88.4111 141.439 88.5968V82.7081C141.615 82.5224 141.78 82.3266 141.934 82.1216Z" fill="#0D0D0D" stroke="#282828"/>
<path d="M141.444 82.709V88.5977C141.247 88.8059 141.04 89.0039 140.823 89.1907V83.3033C141.04 83.116 141.247 82.9177 141.444 82.709Z" fill="#0D0D0D" stroke="#282828"/>
<path d="M140.824 83.303V89.1904C140.582 89.4005 140.322 89.6042 140.042 89.804V83.9153C140.321 83.7159 140.582 83.5118 140.824 83.303Z" fill="#0D0D0D" stroke="#282828"/>
<path d="M140.043 83.9148V89.8035C139.729 90.0269 139.394 90.2439 139.036 90.4545V84.5658C139.394 84.3552 139.729 84.1404 140.043 83.9212" fill="#0D0D0D"/>
<path d="M140.043 83.9148V89.8035C139.729 90.0269 139.394 90.2439 139.036 90.4545V84.5658C139.394 84.3552 139.729 84.1404 140.043 83.9212" stroke="#282828"/>
<path d="M139.036 84.5657V90.4544C138.61 90.7053 138.152 90.9468 137.662 91.1788V85.2902C138.15 85.0598 138.608 84.8183 139.036 84.5657Z" fill="#0D0D0D" stroke="#282828"/>
<path d="M137.663 85.2903V91.1828C136.901 91.5422 136.12 91.8597 135.324 92.1342V86.2429C136.12 85.9675 136.901 85.6495 137.663 85.2903Z" fill="#0D0D0D"/>
<path d="M137.663 85.2903V91.1828C136.901 91.5422 136.12 91.8597 135.324 92.1342V86.2429C136.12 85.9675 136.901 85.6495 137.663 85.2903" stroke="#282828"/>
<path d="M135.323 86.2432V92.1306C133.328 92.8096 131.277 93.3113 129.195 93.6298V87.7411C131.277 87.423 133.328 86.9218 135.323 86.2432Z" fill="#0D0D0D"/>
<path d="M135.323 86.2432V92.1306C133.328 92.8096 131.277 93.3113 129.195 93.6298V87.7411C131.277 87.423 133.328 86.9218 135.323 86.2432" stroke="#282828"/>
<path d="M110.315 87.0359C110.807 87.1596 111.312 87.2757 111.828 87.384C112.304 87.4819 112.79 87.5747 113.286 87.6585C113.753 87.7384 114.229 87.8117 114.713 87.8787V93.7609C114.229 93.6957 113.753 93.6227 113.286 93.5421V93.5471C112.79 93.4611 112.304 93.3693 111.828 93.2713C111.312 93.1639 110.807 93.0483 110.315 92.9246V87.0359Z" fill="#0D0D0D"/>
<path d="M116.137 88.0519V93.9393C115.656 93.8895 115.182 93.8319 114.714 93.7666V87.8792C115.181 87.9428 115.656 88.0004 116.137 88.0519Z" fill="#0D0D0D"/>
<path d="M116.137 88.0519C116.613 88.1026 117.096 88.1456 117.584 88.1808V94.0708C117.096 94.0339 116.614 93.9909 116.138 93.9419L116.137 88.0519Z" fill="#0D0D0D"/>
<path d="M126.212 94.0012C125.53 94.0643 124.836 94.1146 124.133 94.1507V94.1478C123.537 94.1778 122.933 94.1976 122.321 94.2071V88.321C122.932 88.3124 123.535 88.2929 124.133 88.262C124.836 88.2259 125.53 88.1769 126.212 88.1138C127.233 88.0184 128.226 87.894 129.19 87.741V93.6323C128.229 93.7844 127.236 93.9081 126.212 94.0035V94.0012Z" fill="#0D0D0D"/>
<path d="M122.321 88.321C122.044 88.3274 121.769 88.328 121.487 88.328C121.346 88.328 121.205 88.3263 121.064 88.3247L120.985 88.3238C120.872 88.3224 120.758 88.321 120.645 88.321C120.116 88.3124 119.594 88.2969 119.077 88.2737C118.576 88.2505 118.078 88.2196 117.588 88.1823V94.071C118.079 94.1084 118.579 94.1377 119.082 94.1609C119.597 94.184 120.118 94.2008 120.645 94.2102H122.321L122.321 88.321Z" fill="#0D0D0D"/>
<path d="M116.137 88.0519V93.9393C115.656 93.8895 115.182 93.8319 114.714 93.7666V87.8792C115.181 87.9428 115.656 88.0004 116.137 88.0519ZM116.137 88.0519C116.613 88.1026 117.096 88.1456 117.584 88.1808V94.0708C117.096 94.0339 116.614 93.9909 116.138 93.9419L116.137 88.0519ZM122.321 88.321V94.2071C122.933 94.1976 123.537 94.1778 124.133 94.1478V94.1507C124.836 94.1146 125.53 94.0643 126.212 94.0012V94.0035C127.236 93.9081 128.229 93.7844 129.19 93.6323V87.741C128.226 87.894 127.233 88.0184 126.212 88.1138C125.53 88.1769 124.836 88.2259 124.133 88.262C123.535 88.2929 122.932 88.3124 122.321 88.321ZM122.321 88.321C122.044 88.3274 121.769 88.328 121.487 88.328C121.346 88.328 121.205 88.3263 121.064 88.3247L120.985 88.3238C120.872 88.3224 120.758 88.321 120.645 88.321C120.116 88.3124 119.594 88.2969 119.077 88.2737C118.576 88.2505 118.078 88.2196 117.588 88.1823V94.071C118.079 94.1084 118.579 94.1377 119.082 94.1609C119.597 94.184 120.118 94.2008 120.645 94.2102H122.321L122.321 88.321ZM111.828 87.384C111.312 87.2757 110.807 87.1596 110.315 87.0359V92.9246C110.807 93.0483 111.312 93.1639 111.828 93.2713C112.304 93.3693 112.79 93.4611 113.286 93.5471V93.5421C113.753 93.6227 114.229 93.6957 114.713 93.7609V87.8787C114.229 87.8117 113.753 87.7384 113.286 87.6585C112.79 87.5747 112.304 87.4819 111.828 87.384Z" stroke="#282828"/>
<path d="M110.315 87.0358V92.9245C109.748 92.7818 109.2 92.6289 108.671 92.4656V86.5769C109.201 86.7393 109.749 86.8923 110.315 87.0358Z" fill="#0D0D0D"/>
<path d="M110.315 87.0358V92.9245C109.748 92.7818 109.2 92.6289 108.671 92.4656V86.5769C109.201 86.7393 109.749 86.8923 110.315 87.0358" stroke="#282828"/>
<path d="M108.672 86.5771V92.4722C108.002 92.2646 107.361 92.0429 106.757 91.8057V85.9119C107.363 86.1478 108.004 86.3708 108.672 86.5771Z" fill="#0D0D0D" stroke="#282828"/>
<path d="M106.754 85.9124V91.7998C102.656 90.2 100.102 87.9388 100.102 85.4341V79.5454C100.102 82.0515 102.655 84.3151 106.754 85.9124Z" fill="#0D0D0D" stroke="#282828"/>
<path d="M116.488 81.3527C128.299 81.3527 137.874 77.42 137.874 72.5687C137.874 67.7174 128.299 63.7847 116.488 63.7847C104.676 63.7847 95.1016 67.7174 95.1016 72.5687C95.1016 77.42 104.676 81.3527 116.488 81.3527Z" fill="url(#paint3_linear_656_3708)" stroke="#282828"/>
<path d="M137.874 72.5693V78.458C137.874 78.4877 137.874 78.5186 137.874 78.5483V72.6596C137.874 72.6299 137.874 72.599 137.874 72.5693Z" fill="#0D0D0D" stroke="#282828"/>
<path d="M137.872 72.6594V78.5481C137.867 78.7735 137.841 78.9979 137.795 79.2184V73.3298C137.841 73.1092 137.867 72.8848 137.872 72.6594Z" fill="#0D0D0D"/>
<path d="M137.872 72.6594V78.5481C137.867 78.7735 137.841 78.9979 137.795 79.2184V73.3298C137.841 73.1092 137.867 72.8848 137.872 72.6594" stroke="#282828"/>
<path d="M137.795 73.3293V79.218C137.75 79.4312 137.687 79.6403 137.608 79.8433V73.9559C137.688 73.7526 137.75 73.543 137.795 73.3293Z" fill="#0D0D0D"/>
<path d="M137.795 73.3293V79.218C137.75 79.4312 137.687 79.6403 137.608 79.8433V73.9559C137.688 73.7526 137.75 73.543 137.795 73.3293" stroke="#282828"/>
<path d="M137.608 73.9551V79.8425C137.528 80.0499 137.433 80.2511 137.323 80.4445V74.5558C137.433 74.3628 137.528 74.1621 137.608 73.9551Z" fill="#0D0D0D"/>
<path d="M137.608 73.9551V79.8425C137.528 80.0499 137.433 80.2511 137.323 80.4445V74.5558C137.433 74.3628 137.528 74.1621 137.608 73.9551" stroke="#282828"/>
<path d="M137.324 74.5566V80.4453C137.208 80.6496 137.08 80.8464 136.94 81.0344V75.1458C137.081 74.9579 137.209 74.7611 137.324 74.5566Z" fill="#0D0D0D"/>
<path d="M137.324 74.5566V80.4453C137.208 80.6496 137.08 80.8464 136.94 81.0344V75.1458C137.081 74.9579 137.209 74.7611 137.324 74.5566" stroke="#282828"/>
<path d="M136.934 75.1455V81.0342C136.78 81.2392 136.615 81.435 136.439 81.6207V75.7321C136.615 75.5463 136.78 75.3505 136.934 75.1455Z" fill="#0D0D0D" stroke="#282828"/>
<path d="M136.444 75.7327V81.6213C136.247 81.8296 136.04 82.0275 135.823 82.2143V76.3269C136.04 76.1397 136.247 75.9414 136.444 75.7327Z" fill="#0D0D0D" stroke="#282828"/>
<path d="M135.824 76.3269V82.2143C135.582 82.4244 135.322 82.6281 135.042 82.8279V76.9392C135.321 76.7399 135.582 76.5357 135.824 76.3269Z" fill="#0D0D0D" stroke="#282828"/>
<path d="M135.043 76.9387V82.8274C134.729 83.0508 134.394 83.2678 134.036 83.4784V77.5897C134.394 77.3792 134.729 77.1643 135.043 76.9452" fill="#0D0D0D"/>
<path d="M135.043 76.9387V82.8274C134.729 83.0508 134.394 83.2678 134.036 83.4784V77.5897C134.394 77.3792 134.729 77.1643 135.043 76.9452" stroke="#282828"/>
<path d="M134.036 77.5896V83.4783C133.61 83.7292 133.152 83.9707 132.662 84.2028V78.3141C133.15 78.0838 133.608 77.8423 134.036 77.5896Z" fill="#0D0D0D" stroke="#282828"/>
<path d="M132.663 78.3142V84.2068C131.901 84.5661 131.12 84.8837 130.324 85.1581V79.2669C131.12 78.9914 131.901 78.6734 132.663 78.3142Z" fill="#0D0D0D"/>
<path d="M132.663 78.3142V84.2068C131.901 84.5661 131.12 84.8837 130.324 85.1581V79.2669C131.12 78.9914 131.901 78.6734 132.663 78.3142" stroke="#282828"/>
<path d="M130.323 79.2671V85.1545C128.328 85.8336 126.277 86.3352 124.195 86.6537V80.765C126.277 80.4469 128.328 79.9457 130.323 79.2671Z" fill="#0D0D0D"/>
<path d="M130.323 79.2671V85.1545C128.328 85.8336 126.277 86.3352 124.195 86.6537V80.765C126.277 80.4469 128.328 79.9457 130.323 79.2671" stroke="#282828"/>
<path d="M105.315 80.0598C105.807 80.1836 106.312 80.2996 106.828 80.4079C107.304 80.5059 107.79 80.5987 108.286 80.6825C108.753 80.7623 109.229 80.8357 109.713 80.9026V86.7849C109.229 86.7196 108.753 86.6467 108.286 86.566V86.571C107.79 86.4851 107.304 86.3932 106.828 86.2953C106.312 86.1878 105.807 86.0722 105.315 85.9485V80.0598Z" fill="#0D0D0D"/>
<path d="M111.137 81.0759V86.9632C110.656 86.9134 110.182 86.8558 109.714 86.7905V80.9031C110.181 80.9667 110.656 81.0243 111.137 81.0759Z" fill="#0D0D0D"/>
<path d="M111.137 81.0759C111.613 81.1266 112.096 81.1695 112.584 81.2048V87.0947C112.096 87.0578 111.614 87.0148 111.138 86.9658L111.137 81.0759Z" fill="#0D0D0D"/>
<path d="M121.212 87.0251C120.53 87.0882 119.836 87.1385 119.133 87.1746V87.1717C118.537 87.2018 117.933 87.2215 117.321 87.231V81.3449C117.932 81.3363 118.535 81.3169 119.133 81.2859C119.836 81.2498 120.53 81.2009 121.212 81.1377C122.233 81.0423 123.226 80.9179 124.19 80.7649V86.6562C123.229 86.8083 122.236 86.932 121.212 87.0274V87.0251Z" fill="#0D0D0D"/>
<path d="M117.321 81.3449C117.044 81.3513 116.769 81.3519 116.487 81.3519C116.346 81.3519 116.205 81.3503 116.064 81.3487L115.985 81.3477C115.872 81.3463 115.758 81.345 115.645 81.345C115.116 81.3364 114.594 81.3208 114.077 81.2976C113.576 81.2744 113.078 81.2435 112.588 81.2063V87.095C113.079 87.1323 113.579 87.1617 114.082 87.1849C114.597 87.208 115.118 87.2247 115.645 87.2341H117.321L117.321 81.3449Z" fill="#0D0D0D"/>
<path d="M111.137 81.0759V86.9632C110.656 86.9134 110.182 86.8558 109.714 86.7905V80.9031C110.181 80.9667 110.656 81.0243 111.137 81.0759ZM111.137 81.0759C111.613 81.1266 112.096 81.1695 112.584 81.2048V87.0947C112.096 87.0578 111.614 87.0148 111.138 86.9658L111.137 81.0759ZM117.321 81.3449V87.231C117.933 87.2215 118.537 87.2018 119.133 87.1717V87.1746C119.836 87.1385 120.53 87.0882 121.212 87.0251V87.0274C122.236 86.932 123.229 86.8083 124.19 86.6562V80.7649C123.226 80.9179 122.233 81.0423 121.212 81.1377C120.53 81.2009 119.836 81.2498 119.133 81.2859C118.535 81.3169 117.932 81.3363 117.321 81.3449ZM117.321 81.3449C117.044 81.3513 116.769 81.3519 116.487 81.3519C116.346 81.3519 116.205 81.3503 116.064 81.3487L115.985 81.3477C115.872 81.3463 115.758 81.345 115.645 81.345C115.116 81.3364 114.594 81.3208 114.077 81.2976C113.576 81.2744 113.078 81.2435 112.588 81.2063V87.095C113.079 87.1323 113.579 87.1617 114.082 87.1849C114.597 87.208 115.118 87.2247 115.645 87.2341H117.321L117.321 81.3449ZM106.828 80.4079C106.312 80.2996 105.807 80.1836 105.315 80.0598V85.9485C105.807 86.0723 106.312 86.1878 106.828 86.2953C107.304 86.3932 107.79 86.4851 108.286 86.571V86.566C108.753 86.6467 109.229 86.7196 109.713 86.7849V80.9026C109.229 80.8357 108.753 80.7623 108.286 80.6825C107.79 80.5987 107.304 80.5059 106.828 80.4079Z" stroke="#282828"/>
<path d="M105.315 80.0598V85.9484C104.748 85.8058 104.2 85.6528 103.671 85.4895V79.6008C104.201 79.7633 104.749 79.9162 105.315 80.0598Z" fill="#0D0D0D"/>
<path d="M105.315 80.0598V85.9484C104.748 85.8058 104.2 85.6528 103.671 85.4895V79.6008C104.201 79.7633 104.749 79.9162 105.315 80.0598" stroke="#282828"/>
<path d="M103.672 79.601V85.4961C103.002 85.2886 102.361 85.0668 101.757 84.8296V78.9358C102.363 79.1717 103.004 79.3947 103.672 79.601Z" fill="#0D0D0D" stroke="#282828"/>
<path d="M101.754 78.9363V84.8237C97.6561 83.2239 95.1016 80.9628 95.1016 78.458V72.5693C95.1016 75.0754 97.6548 77.3391 101.754 78.9363Z" fill="#0D0D0D" stroke="#282828"/>
<path d="M120.386 73.3801C132.197 73.3801 141.772 69.4473 141.772 64.596C141.772 59.7448 132.197 55.812 120.386 55.812C108.575 55.812 99 59.7448 99 64.596C99 69.4473 108.575 73.3801 120.386 73.3801Z" fill="url(#paint4_linear_656_3708)" stroke="#282828"/>
<path d="M141.772 64.5967V70.4854C141.772 70.515 141.772 70.5459 141.772 70.5756V64.6869C141.772 64.6573 141.772 64.6263 141.772 64.5967Z" fill="#0D0D0D" stroke="#282828"/>
<path d="M141.771 64.6868V70.5754C141.765 70.8008 141.739 71.0252 141.693 71.2458V65.3571C141.739 65.1365 141.765 64.9122 141.771 64.6868Z" fill="#0D0D0D"/>
<path d="M141.771 64.6868V70.5754C141.765 70.8008 141.739 71.0252 141.693 71.2458V65.3571C141.739 65.1365 141.765 64.9122 141.771 64.6868" stroke="#282828"/>
<path d="M141.693 65.3567V71.2454C141.648 71.4586 141.586 71.6677 141.507 71.8706V65.9832C141.586 65.7799 141.648 65.5704 141.693 65.3567Z" fill="#0D0D0D"/>
<path d="M141.693 65.3567V71.2454C141.648 71.4586 141.586 71.6677 141.507 71.8706V65.9832C141.586 65.7799 141.648 65.5704 141.693 65.3567" stroke="#282828"/>
<path d="M141.507 65.9824V71.8698C141.426 72.0772 141.331 72.2784 141.222 72.4718V66.5832C141.331 66.3902 141.426 66.1894 141.507 65.9824Z" fill="#0D0D0D"/>
<path d="M141.507 65.9824V71.8698C141.426 72.0772 141.331 72.2784 141.222 72.4718V66.5832C141.331 66.3902 141.426 66.1894 141.507 65.9824" stroke="#282828"/>
<path d="M141.222 66.584V72.4727C141.107 72.677 140.979 72.8737 140.839 73.0618V67.1731C140.979 66.9853 141.107 66.7885 141.222 66.584Z" fill="#0D0D0D"/>
<path d="M141.222 66.584V72.4727C141.107 72.677 140.979 72.8737 140.839 73.0618V67.1731C140.979 66.9853 141.107 66.7885 141.222 66.584" stroke="#282828"/>
<path d="M140.832 67.1729V73.0615C140.679 73.2665 140.514 73.4624 140.338 73.6481V67.7594C140.514 67.5737 140.679 67.3778 140.832 67.1729Z" fill="#0D0D0D" stroke="#282828"/>
<path d="M140.343 67.76V73.6487C140.146 73.857 139.939 74.0549 139.722 74.2417V68.3543C139.939 68.1671 140.146 67.9687 140.343 67.76Z" fill="#0D0D0D" stroke="#282828"/>
<path d="M139.722 68.3542V74.2416C139.481 74.4518 139.22 74.6554 138.94 74.8553V68.9666C139.22 68.7672 139.48 68.5631 139.722 68.3542Z" fill="#0D0D0D" stroke="#282828"/>
<path d="M138.941 68.9661V74.8547C138.628 75.0782 138.292 75.2952 137.935 75.5057V69.6171C138.292 69.4065 138.628 69.1917 138.941 68.9725" fill="#0D0D0D"/>
<path d="M138.941 68.9661V74.8547C138.628 75.0782 138.292 75.2952 137.935 75.5057V69.6171C138.292 69.4065 138.628 69.1917 138.941 68.9725" stroke="#282828"/>
<path d="M137.934 69.6169V75.5056C137.509 75.7566 137.051 75.9981 136.561 76.2301V70.3414C137.048 70.1111 137.506 69.8696 137.934 69.6169Z" fill="#0D0D0D" stroke="#282828"/>
<path d="M136.561 70.3416V76.2341C135.799 76.5934 135.019 76.911 134.223 77.1855V71.2942C135.018 71.0188 135.799 70.7008 136.561 70.3416Z" fill="#0D0D0D"/>
<path d="M136.561 70.3416V76.2341C135.799 76.5934 135.019 76.911 134.223 77.1855V71.2942C135.018 71.0188 135.799 70.7008 136.561 70.3416" stroke="#282828"/>
<path d="M134.222 71.2944V77.1818C132.226 77.8609 130.176 78.3626 128.094 78.6811V72.7924C130.176 72.4743 132.226 71.973 134.222 71.2944Z" fill="#0D0D0D"/>
<path d="M134.222 71.2944V77.1818C132.226 77.8609 130.176 78.3626 128.094 78.6811V72.7924C130.176 72.4743 132.226 71.973 134.222 71.2944" stroke="#282828"/>
<path d="M109.214 72.0872C109.706 72.2109 110.21 72.3269 110.727 72.4352C111.203 72.5332 111.689 72.626 112.184 72.7098C112.652 72.7896 113.127 72.863 113.611 72.93V78.8122C113.127 78.747 112.652 78.674 112.184 78.5933V78.5983C111.689 78.5124 111.202 78.4206 110.727 78.3226C110.21 78.2152 109.706 78.0996 109.214 77.9758V72.0872Z" fill="#0D0D0D"/>
<path d="M115.036 73.1032V78.9906C114.555 78.9407 114.08 78.8832 113.612 78.8178V72.9305C114.08 72.9941 114.554 73.0516 115.036 73.1032Z" fill="#0D0D0D"/>
<path d="M115.036 73.1032C115.512 73.1539 115.994 73.1969 116.483 73.2321V79.1221C115.995 79.0851 115.513 79.0422 115.036 78.9932L115.036 73.1032Z" fill="#0D0D0D"/>
<path d="M125.11 79.0524C124.429 79.1156 123.734 79.1659 123.031 79.2019V79.199C122.435 79.2291 121.832 79.2489 121.22 79.2583V73.3722C121.83 73.3636 122.434 73.3442 123.031 73.3133C123.735 73.2772 124.429 73.2282 125.11 73.1651C126.132 73.0697 127.124 72.9452 128.089 72.7923V78.6835C127.127 78.8356 126.134 78.9594 125.11 79.0548V79.0524Z" fill="#0D0D0D"/>
<path d="M121.22 73.3722C120.943 73.3787 120.668 73.3792 120.386 73.3792C120.244 73.3792 120.103 73.3776 119.962 73.376L119.884 73.3751C119.77 73.3737 119.657 73.3723 119.543 73.3723C119.015 73.3637 118.492 73.3481 117.976 73.3249C117.474 73.3018 116.976 73.2709 116.486 73.2336V79.1223C116.978 79.1597 117.477 79.189 117.98 79.2122C118.495 79.2353 119.016 79.252 119.543 79.2615H121.219L121.22 73.3722Z" fill="#0D0D0D"/>
<path d="M115.036 73.1032V78.9906C114.555 78.9407 114.08 78.8832 113.612 78.8178V72.9305C114.08 72.9941 114.554 73.0516 115.036 73.1032ZM115.036 73.1032C115.512 73.1539 115.994 73.1969 116.483 73.2321V79.1221C115.995 79.0851 115.513 79.0422 115.036 78.9932L115.036 73.1032ZM121.22 73.3722V79.2583C121.832 79.2489 122.435 79.2291 123.031 79.199V79.2019C123.734 79.1659 124.429 79.1156 125.11 79.0524V79.0548C126.134 78.9594 127.127 78.8356 128.089 78.6835V72.7923C127.124 72.9452 126.132 73.0697 125.11 73.1651C124.429 73.2282 123.735 73.2772 123.031 73.3133C122.434 73.3442 121.83 73.3636 121.22 73.3722ZM121.22 73.3722C120.943 73.3787 120.668 73.3792 120.386 73.3792C120.244 73.3792 120.103 73.3776 119.962 73.376L119.884 73.3751C119.77 73.3737 119.657 73.3723 119.543 73.3723C119.015 73.3637 118.492 73.3481 117.976 73.3249C117.474 73.3018 116.976 73.2709 116.486 73.2336V79.1223C116.978 79.1597 117.477 79.189 117.98 79.2122C118.495 79.2353 119.016 79.252 119.543 79.2615H121.219L121.22 73.3722ZM110.727 72.4352C110.21 72.3269 109.706 72.2109 109.214 72.0872V77.9758C109.706 78.0996 110.21 78.2152 110.727 78.3226C111.202 78.4206 111.689 78.5124 112.184 78.5983V78.5933C112.652 78.674 113.127 78.747 113.611 78.8122V72.93C113.127 72.863 112.652 72.7896 112.184 72.7098C111.689 72.626 111.203 72.5332 110.727 72.4352Z" stroke="#282828"/>
<path d="M109.214 72.0871V77.9758C108.647 77.8331 108.099 77.6801 107.569 77.5169V71.6282C108.1 71.7906 108.648 71.9436 109.214 72.0871Z" fill="#0D0D0D"/>
<path d="M109.214 72.0871V77.9758C108.647 77.8331 108.099 77.6801 107.569 77.5169V71.6282C108.1 71.7906 108.648 71.9436 109.214 72.0871" stroke="#282828"/>
<path d="M107.57 71.6281V77.5232C106.9 77.3157 106.259 77.0939 105.655 76.8567V70.9629C106.262 71.1988 106.903 71.4218 107.57 71.6281Z" fill="#0D0D0D" stroke="#282828"/>
<path d="M105.653 70.9636V76.851C101.555 75.2512 99 72.9901 99 70.4854V64.5967C99 67.1027 101.553 69.3664 105.653 70.9636Z" fill="#0D0D0D" stroke="#282828"/>
<rect x="30" y="8" width="26" height="12" fill="#282828"/>
<rect y="8" width="26" height="12" fill="#282828"/>
<rect x="15" y="24" width="26" height="12" fill="#282828"/>
<rect x="30" y="40" width="26" height="12" fill="#282828"/>
<rect x="45" y="24" width="11" height="12" fill="#282828"/>
<rect width="26" height="12" transform="matrix(1 0 0 -1 30 111)" fill="#282828"/>
<rect width="26" height="12" transform="matrix(1 0 0 -1 0 111)" fill="#282828"/>
<rect width="26" height="12" transform="matrix(1 0 0 -1 15 95)" fill="#282828"/>
<rect width="26" height="12" transform="matrix(1 0 0 -1 30 79)" fill="#282828"/>
<rect width="11" height="12" transform="matrix(1 0 0 -1 45 95)" fill="#282828"/>
<rect width="26" height="12" transform="matrix(-1 0 0 1 210 8)" fill="#282828"/>
<rect width="26" height="12" transform="matrix(-1 0 0 1 240 8)" fill="#282828"/>
<rect width="26" height="12" transform="matrix(-1 0 0 1 225 24)" fill="#282828"/>
<rect width="26" height="12" transform="matrix(-1 0 0 1 210 40)" fill="#282828"/>
<rect width="11" height="12" transform="matrix(-1 0 0 1 195 24)" fill="#282828"/>
<rect x="210" y="112" width="26" height="12" transform="rotate(-180 210 112)" fill="#282828"/>
<rect x="240" y="112" width="26" height="12" transform="rotate(-180 240 112)" fill="#282828"/>
<rect x="225" y="96" width="26" height="12" transform="rotate(-180 225 96)" fill="#282828"/>
<rect x="210" y="80" width="26" height="12" transform="rotate(-180 210 80)" fill="#282828"/>
<rect x="195" y="96" width="11" height="12" transform="rotate(-180 195 96)" fill="#282828"/>
<path d="M76.4394 125.007C74.3274 125.007 72.4914 124.66 70.9314 123.966C69.3714 123.273 68.1114 122.328 67.1514 121.132L70.2834 117.688C71.1954 118.692 72.1914 119.434 73.2714 119.912C74.3754 120.391 75.4914 120.63 76.6194 120.63C77.9154 120.63 78.8994 120.343 79.5714 119.769C80.2434 119.195 80.5794 118.37 80.5794 117.293C80.5794 116.408 80.3154 115.739 79.7874 115.284C79.2834 114.83 78.4194 114.507 77.1954 114.315L74.5674 113.885C72.3114 113.502 70.6794 112.677 69.6714 111.409C68.6634 110.118 68.1594 108.551 68.1594 106.71C68.1594 104.294 68.9514 102.428 70.5354 101.113C72.1194 99.7734 74.3394 99.1037 77.1954 99.1037C79.1394 99.1037 80.8314 99.4026 82.2714 100.001C83.7114 100.599 84.8754 101.412 85.7634 102.44L82.7034 105.849C82.0314 105.107 81.2394 104.533 80.3274 104.126C79.4154 103.696 78.3834 103.481 77.2314 103.481C74.8074 103.481 73.5954 104.473 73.5954 106.458C73.5954 107.319 73.8594 107.965 74.3874 108.396C74.9394 108.826 75.8274 109.149 77.0514 109.364L79.6794 109.831C81.7194 110.19 83.2914 110.955 84.3954 112.127C85.4994 113.299 86.0514 114.878 86.0514 116.863C86.0514 118.035 85.8474 119.123 85.4394 120.128C85.0314 121.108 84.4194 121.969 83.6034 122.711C82.7874 123.428 81.7794 123.99 80.5794 124.397C79.4034 124.804 78.0234 125.007 76.4394 125.007Z" fill="#282828"/>
<path d="M99.8613 124.576C97.9413 124.576 96.5133 124.074 95.5773 123.069C94.6413 122.065 94.1733 120.785 94.1733 119.231V110.19H89.1333V106.064H92.4093C93.2013 106.064 93.7653 105.908 94.1013 105.597C94.4373 105.286 94.6053 104.712 94.6053 103.875V99.5342H99.5013V106.064H106.737V110.19H99.5013V120.45H106.737V124.576H99.8613Z" fill="#282828"/>
<path d="M126.739 124.576C125.635 124.576 124.747 124.301 124.075 123.751C123.403 123.177 123.007 122.364 122.887 121.312H122.707C122.371 122.531 121.699 123.452 120.691 124.074C119.707 124.696 118.495 125.007 117.055 125.007C115.255 125.007 113.803 124.528 112.699 123.572C111.619 122.591 111.079 121.228 111.079 119.482C111.079 117.544 111.787 116.109 113.203 115.177C114.619 114.244 116.695 113.777 119.431 113.777H122.419V112.845C122.419 111.744 122.155 110.919 121.627 110.369C121.123 109.795 120.259 109.508 119.035 109.508C117.907 109.508 116.995 109.723 116.299 110.154C115.603 110.584 115.003 111.146 114.499 111.84L111.583 109.257C112.207 108.204 113.179 107.343 114.499 106.674C115.843 105.98 117.559 105.633 119.647 105.633C122.191 105.633 124.171 106.219 125.587 107.391C127.027 108.539 127.747 110.285 127.747 112.629V120.737H129.799V124.576H126.739ZM119.071 121.527C120.007 121.527 120.799 121.3 121.447 120.845C122.095 120.391 122.419 119.733 122.419 118.872V116.648H119.575C117.391 116.648 116.299 117.377 116.299 118.836V119.554C116.299 120.199 116.551 120.69 117.055 121.024C117.559 121.359 118.231 121.527 119.071 121.527Z" fill="#282828"/>
<path d="M133.133 98.0273H138.461V113.096H138.713L141.197 110.19L145.085 106.064H151.205L144.005 113.383L151.961 124.576H145.625L140.225 116.396L138.461 118.154V124.576H133.133V98.0273Z" fill="#282828"/>
<path d="M163.683 125.007C160.563 125.007 158.199 124.146 156.591 122.424C154.983 120.702 154.179 118.358 154.179 115.392C154.179 113.885 154.383 112.534 154.791 111.338C155.223 110.118 155.823 109.089 156.591 108.252C157.383 107.391 158.331 106.745 159.435 106.315C160.563 105.86 161.823 105.633 163.215 105.633C164.607 105.633 165.855 105.86 166.959 106.315C168.063 106.745 168.999 107.367 169.767 108.181C170.535 108.994 171.123 109.986 171.531 111.158C171.963 112.306 172.179 113.598 172.179 115.033V116.612H159.471V116.935C159.471 118.13 159.843 119.099 160.587 119.841C161.331 120.558 162.423 120.917 163.863 120.917C164.967 120.917 165.915 120.714 166.707 120.307C167.499 119.876 168.183 119.314 168.759 118.621L171.639 121.742C170.919 122.627 169.911 123.392 168.615 124.038C167.319 124.684 165.675 125.007 163.683 125.007ZM163.251 109.436C162.099 109.436 161.175 109.795 160.479 110.513C159.807 111.206 159.471 112.151 159.471 113.347V113.634H166.959V113.347C166.959 112.127 166.623 111.17 165.951 110.477C165.303 109.783 164.403 109.436 163.251 109.436Z" fill="#282828"/>
<path fill-rule="evenodd" clip-rule="evenodd" d="M64.5254 121.052L70.2845 114.718L71.7663 116.351C72.5168 117.177 73.2894 117.738 74.0763 118.088C74.9432 118.462 75.7862 118.637 76.6193 118.637C77.6541 118.637 78.0961 118.404 78.2697 118.255C78.4019 118.143 78.5793 117.928 78.5793 117.293C78.5793 117.045 78.5419 116.912 78.5198 116.856C78.5023 116.812 78.4902 116.801 78.4804 116.793L78.4626 116.778L78.4454 116.762C78.3829 116.706 77.9976 116.458 76.8853 116.285L76.8781 116.283L74.2317 115.85C71.6879 115.418 69.524 114.433 68.1038 112.647L68.0981 112.64L68.0926 112.633C66.7775 110.948 66.1593 108.936 66.1593 106.71C66.1593 103.821 67.1308 101.349 69.2481 99.5872C71.3081 97.8487 74.046 97.1105 77.1953 97.1105C79.3405 97.1105 81.3048 97.44 83.0405 98.1607C84.7261 98.8607 86.1602 99.844 87.2793 101.14L88.4239 102.466L82.8385 108.687C83.9933 109.185 85.0107 109.868 85.8534 110.763C87.3828 112.386 88.0513 114.496 88.0513 116.863C88.0513 118.27 87.8053 119.615 87.2932 120.875L87.29 120.883L87.2868 120.891C86.7622 122.152 85.9755 123.252 84.9508 124.184L84.9387 124.195L84.9265 124.205C83.8839 125.122 82.6361 125.805 81.2289 126.282C79.795 126.777 78.1861 127 76.4393 127C74.1111 127 71.9859 126.618 70.1164 125.787C68.298 124.978 66.7703 123.848 65.5895 122.377L64.5254 121.052ZM82.4302 108.521L81.2191 107.185C80.7328 106.648 80.1679 106.239 79.5105 105.946L79.4907 105.937L79.4711 105.928C78.8622 105.64 78.1291 105.474 77.2313 105.474C76.2426 105.474 75.8727 105.684 75.7741 105.765C75.7733 105.766 75.7724 105.766 75.7713 105.767C75.7405 105.792 75.5953 105.906 75.5953 106.458C75.5953 106.69 75.6311 106.801 75.6455 106.837C75.6477 106.842 75.6496 106.846 75.6511 106.849C75.8428 106.983 76.3467 107.217 77.3988 107.402L77.4019 107.402L80.0268 107.868C80.0274 107.868 80.0279 107.868 80.0285 107.868C80.876 108.017 81.6797 108.233 82.4302 108.521ZM79.6793 109.831L77.0513 109.364C75.8273 109.149 74.9393 108.826 74.3873 108.396C73.8593 107.965 73.5953 107.319 73.5953 106.458C73.5953 104.473 74.8073 103.481 77.2313 103.481C78.3833 103.481 79.4153 103.696 80.3273 104.126C80.7665 104.322 81.178 104.557 81.5616 104.83C81.9744 105.125 82.3549 105.464 82.7033 105.849L85.7633 102.44C84.8753 101.412 83.7113 100.599 82.2713 100.001C80.8313 99.4026 79.1393 99.1037 77.1953 99.1037C74.3393 99.1037 72.1193 99.7734 70.5353 101.113C68.9513 102.428 68.1593 104.294 68.1593 106.71C68.1593 108.551 68.6633 110.118 69.6713 111.409C70.6793 112.677 72.3113 113.502 74.5673 113.885L77.1953 114.315C78.4193 114.507 79.2833 114.83 79.7873 115.284C80.3153 115.739 80.5793 116.408 80.5793 117.293C80.5793 118.37 80.2433 119.195 79.5713 119.769C78.8993 120.343 77.9153 120.63 76.6193 120.63C75.4913 120.63 74.3753 120.391 73.2713 119.912C72.748 119.681 72.2444 119.387 71.7605 119.032C71.2458 118.654 70.7534 118.206 70.2833 117.688L67.1513 121.132C68.1113 122.328 69.3713 123.273 70.9313 123.966C72.4913 124.66 74.3273 125.007 76.4393 125.007C78.0233 125.007 79.4033 124.804 80.5793 124.397C81.7793 123.99 82.7873 123.428 83.6033 122.711C84.4193 121.969 85.0313 121.108 85.4393 120.128C85.8473 119.123 86.0513 118.035 86.0513 116.863C86.0513 114.878 85.4993 113.299 84.3953 112.127C83.2913 110.955 81.7193 110.19 79.6793 109.831ZM87.1332 112.183V104.071H92.4092C92.4814 104.071 92.5449 104.069 92.6005 104.066C92.6035 104.009 92.6052 103.946 92.6052 103.875V97.541H101.501V104.071H108.737V112.183H101.501V118.457H108.737V126.569H99.8612C97.6114 126.569 95.5566 125.976 94.1116 124.426C92.7855 123.003 92.1732 121.216 92.1732 119.231V112.183H87.1332ZM94.1732 110.19V119.231C94.1732 120.785 94.6412 122.065 95.5772 123.069C96.5132 124.074 97.9412 124.576 99.8612 124.576H106.737V120.45H99.5012V110.19H106.737V106.064H99.5012V99.5342H94.6052V103.875C94.6052 104.712 94.4372 105.286 94.1012 105.597C93.7652 105.908 93.2012 106.064 92.4092 106.064H89.1332V110.19H94.1732ZM92.9106 104.021C92.9106 104.021 92.9101 104.021 92.9091 104.021L92.9106 104.021ZM122.789 125.278L122.774 125.264C122.72 125.219 122.669 125.173 122.618 125.126C122.352 125.358 122.064 125.57 121.753 125.763C120.383 126.626 118.781 127 117.055 127C114.888 127 112.933 126.416 111.387 125.076L111.369 125.061L111.352 125.045C109.774 123.612 109.079 121.667 109.079 119.482C109.079 116.989 110.035 114.874 112.1 113.514C112.347 113.352 112.604 113.202 112.872 113.065L109.023 109.656L109.861 108.243C110.714 106.804 112.001 105.706 113.586 104.901C115.3 104.018 117.357 103.64 119.647 103.64C122.474 103.64 124.962 104.29 126.851 105.846C128.881 107.473 129.747 109.868 129.747 112.629V118.744H131.133V96.0342H140.461V108.059L144.22 104.071H155.967L146.603 113.589L155.829 126.569H144.547L140.461 120.38V126.569H126.739C125.3 126.569 123.923 126.206 122.806 125.291L122.789 125.278ZM145.625 124.576H151.961L144.005 113.383L151.205 106.064H145.085L141.197 110.19L138.713 113.096H138.461V98.0273H133.133V124.576H138.461V118.154L140.225 116.396L145.625 124.576ZM114.499 106.674C113.179 107.343 112.207 108.204 111.583 109.257L114.499 111.84C114.77 111.467 115.069 111.132 115.395 110.836C115.676 110.58 115.977 110.353 116.299 110.154C116.995 109.723 117.907 109.508 119.035 109.508C120.259 109.508 121.123 109.795 121.627 110.369C121.969 110.725 122.2 111.197 122.321 111.784C122.386 112.103 122.419 112.457 122.419 112.845V113.777H119.431C117.775 113.777 116.361 113.948 115.188 114.29C114.953 114.359 114.727 114.434 114.511 114.517C114.026 114.702 113.59 114.922 113.203 115.177C111.787 116.109 111.079 117.544 111.079 119.482C111.079 121.228 111.619 122.591 112.699 123.572C113.803 124.528 115.255 125.007 117.055 125.007C118.495 125.007 119.707 124.696 120.691 124.074C120.965 123.905 121.213 123.715 121.437 123.502C121.65 123.3 121.841 123.077 122.009 122.835C122.152 122.63 122.278 122.411 122.388 122.178C122.513 121.914 122.617 121.633 122.701 121.333C122.703 121.326 122.705 121.319 122.707 121.312H122.887C122.889 121.329 122.891 121.346 122.893 121.362C122.926 121.63 122.977 121.881 123.046 122.117C123.218 122.705 123.503 123.195 123.899 123.589C123.955 123.645 124.014 123.699 124.075 123.751C124.747 124.301 125.635 124.576 126.739 124.576H129.799V120.737H127.747V112.629C127.747 110.285 127.027 108.539 125.587 107.391C124.171 106.219 122.191 105.633 119.647 105.633C117.559 105.633 115.843 105.98 114.499 106.674ZM120.601 121.281C120.856 121.19 121.095 121.073 121.318 120.931C121.362 120.904 121.405 120.875 121.447 120.845C121.978 120.473 122.292 119.964 122.387 119.318C122.409 119.176 122.419 119.027 122.419 118.872V116.648H119.575C117.391 116.648 116.299 117.377 116.299 118.836V119.554C116.299 120.199 116.551 120.69 117.055 121.024C117.559 121.359 118.231 121.527 119.071 121.527C119.633 121.527 120.143 121.445 120.601 121.281ZM120.419 118.641H119.575C119.135 118.641 118.809 118.678 118.578 118.729C118.443 118.76 118.354 118.791 118.299 118.815C118.299 118.822 118.299 118.829 118.299 118.836V119.43C118.436 119.48 118.676 119.534 119.071 119.534C119.672 119.534 120.043 119.393 120.296 119.215C120.336 119.187 120.356 119.167 120.364 119.157C120.372 119.148 120.377 119.141 120.381 119.133C120.387 119.121 120.419 119.051 120.419 118.872V118.641ZM117.299 111.882C117.982 111.815 118.695 111.784 119.431 111.784H120.212C120.199 111.765 120.188 111.754 120.182 111.747L120.151 111.715L120.129 111.69C120.106 111.672 119.865 111.501 119.035 111.501C118.145 111.501 117.635 111.673 117.354 111.847C117.335 111.859 117.317 111.87 117.299 111.882ZM152.901 110.685L152.905 110.674C153.414 109.237 154.142 107.968 155.115 106.907L155.117 106.905C156.115 105.82 157.315 105.003 158.696 104.463C160.091 103.903 161.607 103.64 163.215 103.64C164.82 103.64 166.327 103.901 167.705 104.466C169.062 104.997 170.245 105.778 171.223 106.814C172.2 107.848 172.922 109.084 173.412 110.482C173.936 111.882 174.179 113.408 174.179 115.033V118.605H171.461L174.28 121.66L173.193 122.997C172.252 124.154 170.994 125.081 169.509 125.821C167.852 126.647 165.875 127 163.683 127C160.195 127 157.224 126.028 155.127 123.782C153.091 121.601 152.179 118.725 152.179 115.392C152.179 113.708 152.407 112.134 152.897 110.696L152.901 110.685ZM172.179 116.612V115.033C172.179 114.893 172.177 114.755 172.173 114.618C172.135 113.348 171.921 112.195 171.531 111.158C171.123 109.986 170.535 108.994 169.767 108.181C168.999 107.367 168.063 106.745 166.959 106.315C165.855 105.86 164.607 105.633 163.215 105.633C161.823 105.633 160.563 105.86 159.435 106.315C158.331 106.745 157.383 107.391 156.591 108.252C155.823 109.089 155.223 110.118 154.791 111.338C154.383 112.534 154.179 113.885 154.179 115.392C154.179 118.358 154.983 120.702 156.591 122.424C158.199 124.146 160.563 125.007 163.683 125.007C165.675 125.007 167.319 124.684 168.615 124.038C169.911 123.392 170.919 122.627 171.639 121.742L168.759 118.621C168.345 119.12 167.875 119.55 167.349 119.913C167.143 120.055 166.929 120.186 166.707 120.307C165.915 120.714 164.967 120.917 163.863 120.917C162.423 120.917 161.331 120.558 160.587 119.841C160.227 119.482 159.954 119.07 159.768 118.605C159.57 118.109 159.471 117.552 159.471 116.935V116.612H172.179ZM162.245 118.605H165.645C165.21 118.797 164.633 118.924 163.863 118.924C163.044 118.924 162.549 118.776 162.245 118.605ZM166.68 111.641C166.866 112.137 166.959 112.705 166.959 113.347V113.634H159.471V113.347C159.471 112.706 159.568 112.137 159.76 111.641C159.928 111.211 160.167 110.834 160.479 110.513C161.175 109.795 162.099 109.436 163.251 109.436C164.403 109.436 165.303 109.783 165.951 110.477C166.27 110.806 166.513 111.194 166.68 111.641ZM162.252 111.641H164.246C164.04 111.52 163.736 111.429 163.251 111.429C162.803 111.429 162.489 111.511 162.252 111.641Z" fill="white"/>
<defs>
<linearGradient id="paint0_linear_656_3708" x1="60" y1="60.7958" x2="180" y2="60.7958" gradientUnits="userSpaceOnUse">
<stop stop-color="#E29C53"/>
<stop offset="1" stop-color="#CE4C7A"/>
</linearGradient>
<linearGradient id="paint1_linear_656_3708" x1="97.1016" y1="88.4553" x2="139.874" y2="88.4553" gradientUnits="userSpaceOnUse">
<stop stop-color="#E29C53"/>
<stop offset="1" stop-color="#CE4C7A"/>
</linearGradient>
<linearGradient id="paint2_linear_656_3708" x1="100.102" y1="79.5449" x2="142.874" y2="79.5449" gradientUnits="userSpaceOnUse">
<stop stop-color="#E29C53"/>
<stop offset="1" stop-color="#CE4C7A"/>
</linearGradient>
<linearGradient id="paint3_linear_656_3708" x1="95.1016" y1="72.5688" x2="137.874" y2="72.5688" gradientUnits="userSpaceOnUse">
<stop stop-color="#E29C53"/>
<stop offset="1" stop-color="#CE4C7A"/>
</linearGradient>
<linearGradient id="paint4_linear_656_3708" x1="99" y1="64.5962" x2="141.772" y2="64.5962" gradientUnits="userSpaceOnUse">
<stop stop-color="#E29C53"/>
<stop offset="1" stop-color="#CE4C7A"/>
</linearGradient>
</defs>
</svg>
