<svg width="95" height="32" viewBox="0 0 95 32" fill="none" xmlns="http://www.w3.org/2000/svg">
<g filter="url(#filter0_i_397_256)">
<path d="M1 3.15464V28.8454C1 30.0335 2.00839 31 3.25404 31H6.64445C7.20812 31 7.66507 30.5431 7.66507 29.9794C7.66507 29.4157 7.20812 28.9588 6.64445 28.9588H5.56471C4.40471 28.9588 3.46435 28.0184 3.46435 26.8584V5.1416C3.46435 3.9816 4.40471 3.04124 5.56471 3.04124H6.64445C7.20812 3.04124 7.66507 2.58429 7.66507 2.02062C7.66507 1.45695 7.20812 1 6.64445 1H3.25404C2.00839 1 1 1.96392 1 3.15464Z" fill="white" stroke="white" stroke-width="0.5"/>
<path d="M92.314 1H89.0206C88.4569 1 88 1.45695 88 2.02062C88 2.58429 88.4569 3.04124 89.0206 3.04124H90.0518C91.185 3.04124 92.1037 3.95987 92.1037 5.09306V26.9069C92.1037 28.0401 91.185 28.9588 90.0518 28.9588H89.0206C88.4569 28.9588 88 29.4157 88 29.9794C88 30.5431 88.4569 31 89.0206 31H92.314C93.5569 31 94.568 30.0361 94.568 28.8454V3.15464C94.568 1.96649 93.5596 1 92.314 1Z" fill="white" stroke="white" stroke-width="0.5"/>
<path d="M14.7578 23.3945C16.3854 23.3945 17.7428 22.9844 18.8301 22.1641C19.9238 21.3372 20.4805 20.3086 20.5 19.0781C20.5065 18.7591 20.474 18.4629 20.4023 18.1895C20.3372 17.9095 20.2493 17.6621 20.1387 17.4473C20.0345 17.2259 19.888 17.0208 19.6992 16.832C19.5169 16.6367 19.3314 16.4707 19.1426 16.334C18.9603 16.1908 18.7324 16.054 18.459 15.9238C18.1855 15.7936 17.9349 15.6862 17.707 15.6016C17.4792 15.5169 17.1992 15.4323 16.8672 15.3477C16.5417 15.2565 16.2585 15.1849 16.0176 15.1328C15.7767 15.0742 15.4837 15.0091 15.1387 14.9375C14.7285 14.8464 14.3932 14.7682 14.1328 14.7031C13.8724 14.6315 13.5957 14.5404 13.3027 14.4297C13.0163 14.319 12.7917 14.2018 12.6289 14.0781C12.4661 13.9479 12.3294 13.7917 12.2188 13.6094C12.1146 13.4206 12.0625 13.209 12.0625 12.9746C12.0625 12.4538 12.3066 12.0176 12.7949 11.666C13.2832 11.3145 13.9375 11.1387 14.7578 11.1387C15.6107 11.1387 16.2715 11.321 16.7402 11.6855C17.2155 12.0501 17.4629 12.5482 17.4824 13.1797C17.4824 13.3099 17.5475 13.375 17.6777 13.375H19.8848C20.015 13.375 20.0801 13.3099 20.0801 13.1797C20.0671 12.3398 19.8197 11.6009 19.3379 10.9629C18.8626 10.3184 18.2246 9.83008 17.4238 9.49805C16.6296 9.16602 15.7409 9 14.7578 9C13.2214 9 11.9583 9.38411 10.9688 10.1523C9.98568 10.9206 9.48438 11.9102 9.46484 13.1211C9.45833 13.4596 9.49089 13.7721 9.5625 14.0586C9.64062 14.3451 9.75781 14.6022 9.91406 14.8301C10.0703 15.0579 10.2396 15.263 10.4219 15.4453C10.6042 15.6276 10.8353 15.7936 11.1152 15.9434C11.3952 16.0931 11.6556 16.2233 11.8965 16.334C12.1374 16.4382 12.4336 16.5423 12.7852 16.6465C13.1367 16.7507 13.4395 16.8385 13.6934 16.9102C13.9538 16.9753 14.2728 17.0534 14.6504 17.1445C14.6829 17.151 14.7122 17.1576 14.7383 17.1641C14.7643 17.1706 14.7904 17.1771 14.8164 17.1836C15.194 17.2682 15.4902 17.3398 15.7051 17.3984C15.9264 17.457 16.1706 17.5319 16.4375 17.623C16.7109 17.7142 16.9225 17.8053 17.0723 17.8965C17.222 17.9876 17.3685 18.0983 17.5117 18.2285C17.6549 18.3587 17.7559 18.5085 17.8145 18.6777C17.873 18.8405 17.9023 19.026 17.9023 19.2344C17.9023 19.8464 17.6517 20.3379 17.1504 20.709C16.6556 21.0736 15.8581 21.2559 14.7578 21.2559C13.8008 21.2559 13.0423 21.0345 12.4824 20.5918C11.929 20.1426 11.6426 19.5729 11.623 18.8828C11.623 18.7461 11.5482 18.6777 11.3984 18.6777H9.2207C9.08398 18.6777 9.01562 18.7396 9.01562 18.8633C9.02865 19.7747 9.29557 20.5788 9.81641 21.2754C10.3372 21.9655 11.0273 22.4928 11.8867 22.8574C12.7461 23.2155 13.7031 23.3945 14.7578 23.3945Z" fill="white"/>
<path d="M28.4395 23.3945C29.5007 23.3945 30.4414 23.2155 31.2617 22.8574C32.082 22.4993 32.7493 21.998 33.2637 21.3535C33.7845 20.709 34.1751 19.9538 34.4355 19.0879C34.7025 18.2155 34.8359 17.252 34.8359 16.1973C34.8359 15.1361 34.6992 14.1693 34.4258 13.2969C34.1589 12.4245 33.765 11.6693 33.2441 11.0312C32.7233 10.3867 32.0527 9.88867 31.2324 9.53711C30.4186 9.17904 29.4876 9 28.4395 9C27.5866 9 26.8053 9.11719 26.0957 9.35156C25.3926 9.57943 24.7871 9.90495 24.2793 10.3281C23.778 10.7513 23.3548 11.2624 23.0098 11.8613C22.6647 12.4538 22.4076 13.1146 22.2383 13.8438C22.0755 14.5729 21.9941 15.3574 21.9941 16.1973C21.9941 17.265 22.1276 18.235 22.3945 19.1074C22.668 19.9798 23.0651 20.7383 23.5859 21.3828C24.1133 22.0208 24.7904 22.5156 25.6172 22.8672C26.444 23.2188 27.3848 23.3945 28.4395 23.3945ZM28.4395 11.1387C29.6829 11.1387 30.627 11.5716 31.2715 12.4375C31.916 13.2969 32.2383 14.5501 32.2383 16.1973C32.2383 17.8444 31.916 19.1009 31.2715 19.9668C30.627 20.8262 29.6829 21.2559 28.4395 21.2559C27.1764 21.2559 26.2227 20.8262 25.5781 19.9668C24.9336 19.1009 24.6113 17.8444 24.6113 16.1973C24.6113 14.5501 24.9336 13.2969 25.5781 12.4375C26.2227 11.5716 27.1764 11.1387 28.4395 11.1387Z" fill="white"/>
<path d="M46.4277 21.002C46.5579 21.002 46.623 21.0671 46.623 21.1973V23.0039C46.623 23.1341 46.5579 23.1992 46.4277 23.1992H37.2285C37.0918 23.1992 37.0234 23.1341 37.0234 23.0039V9.40039C37.0234 9.3418 37.043 9.29297 37.082 9.25391C37.1211 9.21484 37.1699 9.19531 37.2285 9.19531H39.4258C39.556 9.19531 39.6211 9.26367 39.6211 9.40039V21.002H46.4277Z" fill="white"/>
<path d="M48.2344 9.40039C48.2344 9.26367 48.2995 9.19531 48.4297 9.19531H50.627C50.6855 9.19531 50.7344 9.21484 50.7734 9.25391C50.8125 9.29297 50.832 9.3418 50.832 9.40039V23.0039C50.832 23.1341 50.7637 23.1992 50.627 23.1992H48.4297C48.2995 23.1992 48.2344 23.1341 48.2344 23.0039V9.40039Z" fill="white"/>
<path d="M57.9316 9.19531C59.11 9.19531 60.1517 9.3776 61.0566 9.74219C61.9681 10.1003 62.7005 10.6016 63.2539 11.2461C63.8073 11.8906 64.2207 12.6263 64.4941 13.4531C64.7741 14.2799 64.9141 15.1882 64.9141 16.1777C64.9141 16.959 64.8294 17.6947 64.6602 18.3848C64.4909 19.0749 64.2207 19.7161 63.8496 20.3086C63.485 20.901 63.0326 21.4121 62.4922 21.8418C61.9583 22.265 61.3008 22.597 60.5195 22.8379C59.7448 23.0788 58.8822 23.1992 57.9316 23.1992H53.4395C53.3027 23.1992 53.2344 23.1341 53.2344 23.0039V9.40039C53.2344 9.3418 53.2539 9.29297 53.293 9.25391C53.332 9.21484 53.3809 9.19531 53.4395 9.19531H57.9316ZM57.5117 21.002C58.3646 21.002 59.1035 20.888 59.7285 20.6602C60.3535 20.4258 60.8516 20.0938 61.2227 19.6641C61.5938 19.2279 61.8672 18.7233 62.043 18.1504C62.2253 17.571 62.3164 16.9134 62.3164 16.1777C62.3164 12.9941 60.7148 11.4023 57.5117 11.4023H55.832V21.002H57.5117Z" fill="white"/>
<path d="M76.3691 21.002C76.4994 21.002 76.5645 21.0671 76.5645 21.1973V23.0039C76.5645 23.1341 76.4994 23.1992 76.3691 23.1992H67.1699C67.0332 23.1992 66.9648 23.1341 66.9648 23.0039V9.40039C66.9648 9.3418 66.9844 9.29297 67.0234 9.25391C67.0625 9.21484 67.1113 9.19531 67.1699 9.19531H69.3672C69.4974 9.19531 69.5625 9.26367 69.5625 9.40039V21.002H76.3691Z" fill="white"/>
<path d="M74.123 9.43945C74.0775 9.38086 74.0677 9.32552 74.0938 9.27344C74.1263 9.22135 74.1816 9.19531 74.2598 9.19531H77.0039C77.0951 9.19531 77.1764 9.24414 77.248 9.3418L80.6465 14.7617L83.9277 9.3418C83.9994 9.24414 84.0775 9.19531 84.1621 9.19531H86.9062C86.9844 9.19531 87.0365 9.22135 87.0625 9.27344C87.0885 9.32552 87.082 9.38086 87.043 9.43945L81.9648 16.8418V23.0039C81.9648 23.1341 81.8965 23.1992 81.7598 23.1992H79.5625C79.4323 23.1992 79.3672 23.1341 79.3672 23.0039V16.8418L74.123 9.43945Z" fill="white"/>
</g>
<defs>
<filter id="filter0_i_397_256" x="0.75" y="0.75" width="94.0684" height="30.5" filterUnits="userSpaceOnUse" color-interpolation-filters="sRGB">
<feFlood flood-opacity="0" result="BackgroundImageFix"/>
<feBlend mode="normal" in="SourceGraphic" in2="BackgroundImageFix" result="shape"/>
<feColorMatrix in="SourceAlpha" type="matrix" values="0 0 0 0 0 0 0 0 0 0 0 0 0 0 0 0 0 0 127 0" result="hardAlpha"/>
<feOffset/>
<feGaussianBlur stdDeviation="0.5"/>
<feComposite in2="hardAlpha" operator="arithmetic" k2="-1" k3="1"/>
<feColorMatrix type="matrix" values="0 0 0 0 0 0 0 0 0 0 0 0 0 0 0 0 0 0 0.2 0"/>
<feBlend mode="normal" in2="shape" result="effect1_innerShadow_397_256"/>
</filter>
</defs>
</svg>
