<svg width="110" height="19" viewBox="0 0 110 19" fill="none" xmlns="http://www.w3.org/2000/svg">
<path fill-rule="evenodd" clip-rule="evenodd" d="M92.2758 7.11906C92.1411 7.99194 92.2996 8.88986 92.4644 9.75312C92.5279 9.8913 92.6663 9.98374 92.8377 10.0434C92.4805 10.7974 92.2947 11.6223 92.2939 12.458C92.2939 16.0694 95.7611 19 100.037 19C104.314 19 107.783 16.0766 107.783 12.458C107.782 11.6137 107.593 10.7805 107.229 10.0203C107.372 9.96063 107.486 9.87445 107.541 9.75312C107.706 8.88986 107.864 7.99146 107.729 7.11906C107.603 5.94766 107.205 5.58994 106.008 5.89037C105.399 6.03336 104.596 6.39542 103.979 6.82151C102.824 6.24376 101.476 5.91204 100.037 5.91204C98.5808 5.91204 97.2187 6.25195 96.0552 6.84222C95.4345 6.40698 94.6157 6.03481 93.9974 5.88989C92.8 5.58994 92.4018 5.94766 92.2753 7.11857L92.2758 7.11906ZM96.7847 12.2827C95.8771 11.8792 94.3254 11.9808 94.3254 11.9808C94.3254 11.9808 94.3985 13.4536 95.2889 13.9539C96.345 14.5461 98.3091 14.2528 98.3091 14.2528C98.3091 14.2528 98.142 12.8831 96.7847 12.2798V12.2827ZM101.828 14.2552C101.828 14.2552 103.792 14.5485 104.849 13.9563C105.739 13.4565 105.812 11.9832 105.812 11.9832C105.812 11.9832 104.261 11.8812 103.353 12.2851C101.995 12.8831 101.828 14.25 101.828 14.25V14.2552ZM99.6498 15.2933C99.6498 15.4016 99.8498 15.4897 100.096 15.4897C100.343 15.4897 100.543 15.4016 100.543 15.2933C100.543 15.1849 100.343 15.0968 100.096 15.0968C99.8493 15.0968 99.6498 15.1816 99.6498 15.2933Z" fill="#EBEBEC"/>
<path fill-rule="evenodd" clip-rule="evenodd" d="M108.862 14.3865C108.137 14.1044 107.368 13.958 106.591 13.9546H106.592C106.395 13.9546 106.395 13.6465 106.592 13.6465C107.397 13.6494 108.194 13.8001 108.945 14.0909C108.983 14.1024 109.015 14.1284 109.035 14.1631C109.054 14.1978 109.06 14.2392 109.051 14.2782C109.042 14.3172 109.014 14.3509 108.979 14.3716C108.943 14.3923 108.902 14.3971 108.862 14.3865ZM91.1809 14.0981C91.9322 13.807 92.7298 13.6564 93.5346 13.6537V13.6556C93.7314 13.6556 93.7304 13.9638 93.5346 13.9638C92.7575 13.9666 91.9875 14.1128 91.2625 14.3952C91.2234 14.4057 91.1818 14.4 91.147 14.3802C91.1121 14.3605 91.0859 14.3268 91.0749 14.2878C91.0639 14.2488 91.0706 14.2069 91.0907 14.1713C91.1107 14.1356 91.1432 14.1096 91.1818 14.0981L91.1814 14.0986L91.1809 14.0981ZM92.7392 14.9811C93.115 14.8602 93.506 14.7943 93.8999 14.7847C94.0961 14.7856 94.0952 15.0928 93.8989 15.0928C93.5394 15.1022 93.1829 15.1625 92.84 15.2719C92.5206 15.3663 92.1558 15.4991 91.9228 15.7172C91.7786 15.8525 91.5624 15.6349 91.707 15.4996C91.9901 15.2363 92.3793 15.0904 92.7388 14.9811H92.7392ZM94.2489 15.5545C93.9425 15.6869 93.6478 15.8454 93.368 16.0283C93.0854 16.204 92.8371 16.4298 92.6347 16.6946C92.6245 16.7121 92.6179 16.7314 92.6151 16.7514C92.6123 16.7714 92.6135 16.7918 92.6186 16.8114C92.6236 16.831 92.6325 16.8494 92.6446 16.8655C92.6567 16.8817 92.6718 16.8952 92.6891 16.9055C92.7244 16.9251 92.7658 16.9303 92.8047 16.9201C92.8437 16.9099 92.8773 16.885 92.8987 16.8506C93.0706 16.6113 93.3169 16.426 93.5604 16.2675C93.8281 16.0963 94.109 15.9469 94.4002 15.8208C94.4351 15.8001 94.4604 15.7664 94.4704 15.7269C94.4804 15.6874 94.4752 15.6455 94.4551 15.6099C94.4339 15.5755 94.4004 15.5506 94.3615 15.5403C94.3226 15.53 94.2813 15.5351 94.246 15.5545H94.2484H94.2489ZM106.225 15.0865C106.585 15.0957 106.941 15.156 107.284 15.2656C107.462 15.3162 107.635 15.3807 107.802 15.4582C107.947 15.5223 108.081 15.6075 108.2 15.711C108.344 15.8453 108.561 15.6287 108.417 15.4924C108.136 15.229 107.748 15.0832 107.386 14.9739C107.011 14.8532 106.619 14.7872 106.225 14.7779C106.028 14.7779 106.028 15.0865 106.225 15.0865V15.086V15.0865ZM106.562 16.2584C106.298 16.0933 106.022 15.9493 105.736 15.8265V15.8236C105.701 15.8025 105.676 15.7688 105.665 15.7293C105.655 15.6898 105.661 15.6479 105.681 15.6128C105.702 15.5783 105.736 15.5535 105.775 15.5433C105.814 15.533 105.855 15.5383 105.89 15.5579C106.486 15.8198 107.112 16.1563 107.502 16.6985C107.522 16.7336 107.527 16.7755 107.517 16.815C107.507 16.8544 107.482 16.8882 107.447 16.9093C107.412 16.9305 107.371 16.9344 107.332 16.9238C107.292 16.9132 107.259 16.8886 107.238 16.854C107.062 16.6094 106.813 16.4197 106.562 16.2584Z" fill="#EBEBEC"/>
<path d="M90.0194 10.5383C90.1602 10.3164 91.4015 9.6486 92.937 9.25236C93.2683 8.30332 93.6771 7.38362 94.1592 6.50274C94.1535 6.50274 95.3876 4.26877 95.3819 4.26781C95.0281 4.10507 94.6882 3.91297 94.3659 3.69342C94.3115 3.65106 94.2618 3.60243 94.2189 3.54899C94.1863 3.49454 94.1694 3.43202 94.1702 3.36844C94.1702 3.31644 94.2428 3.224 94.2752 3.18308C94.3579 3.08517 94.4492 2.99494 94.5478 2.91346C94.7832 2.71895 95.0305 2.53985 95.2883 2.37711L95.6631 2.13638L97.8316 0.678525C98.6017 0.233175 98.9765 -0.040775 99.8693 0.00496365C100.992 0.00496365 103.781 3.58895 105.039 5.43583C105.794 6.54559 106.806 8.54317 107.179 9.29521C107.268 9.31783 107.349 9.33902 107.424 9.36117C108.568 9.70782 109.691 10.2158 109.965 10.5388C110.209 10.8258 109.141 10.9543 108.087 11.1392C107.034 11.3241 103.462 11.416 100.028 11.4396C96.5941 11.4632 92.587 11.3472 91.7147 11.2085C90.8425 11.0699 89.8446 10.8157 90.0203 10.5388L90.0194 10.5383Z" fill="#6665DD"/>
<path d="M106.221 7.44259C106.221 7.44259 103.96 6.87109 99.9744 6.87109C95.6956 6.87109 93.635 7.53695 93.635 7.53695C93.635 7.53695 93.3906 8.00541 93.2841 8.27648C93.1776 8.54754 92.937 9.25239 92.937 9.25239C92.937 9.25239 96.0504 8.69053 100.035 8.69053C102.434 8.70016 104.828 8.9043 107.195 9.30102C107.195 9.30102 106.834 8.44787 106.617 8.08485C106.489 7.86868 106.357 7.65491 106.221 7.44307V7.44259Z" fill="#FF99A5"/>
<path d="M92.7598 2.62143C93.0191 2.5834 93.371 3.38358 93.371 3.38358C93.371 3.38358 94.1864 3.16259 94.3134 3.38358C94.4404 3.60457 93.74 4.1361 93.74 4.1361C93.74 4.1361 94.163 4.8867 94.0289 5.04269C93.8947 5.19868 93.1408 4.72541 93.1408 4.72541C93.1408 4.72541 92.5655 5.37875 92.3784 5.28005C92.1912 5.18135 92.4037 4.33013 92.4037 4.33013C92.4037 4.33013 91.5897 3.98155 91.6455 3.77405C91.7014 3.56654 92.5493 3.50443 92.5493 3.50443C92.5493 3.50443 92.5016 2.66043 92.7598 2.6224V2.62191V2.62143Z" fill="#FFE600"/>
<path d="M3.14201 13.4055C3.67337 13.4055 4.04929 13.3134 4.26977 13.13C4.50065 12.9359 4.61577 12.7061 4.61577 12.4412C4.61577 12.1961 4.52537 12.002 4.34521 11.8596C4.17481 11.7066 3.91401 11.5735 3.56345 11.4616L2.79666 11.2165C2.37586 11.0841 1.99474 10.941 1.65394 10.788C1.33874 10.6415 1.04519 10.4509 0.781778 10.2217C0.541138 9.9972 0.350575 9.73691 0.210093 9.44085C0.0800172 9.13486 0.0149797 8.76727 0.0149797 8.33875C0.0149797 7.48105 0.330415 6.80217 0.961934 6.30212C1.60321 5.80207 2.49033 5.55171 3.62329 5.55171C4.05449 5.55171 4.45057 5.58218 4.81088 5.64377C5.1816 5.70537 5.49769 5.80207 5.75784 5.93453C6.01864 6.05706 6.22416 6.21006 6.3744 6.39418C6.52341 6.57377 6.60357 6.80221 6.60008 7.03729C6.60356 7.2603 6.54076 7.47916 6.41992 7.66517C6.30936 7.8387 6.17928 7.98706 6.02905 8.10893C5.79881 7.94533 5.49313 7.80757 5.11201 7.69564C4.73089 7.58371 4.31529 7.52741 3.86393 7.52741C3.38265 7.52741 3.02689 7.60424 2.79666 7.75724C2.56642 7.91023 2.45065 8.10429 2.45065 8.33942C2.45065 8.54341 2.5261 8.7017 2.67633 8.8143C2.82657 8.91629 3.06201 9.02359 3.3833 9.13552L4.19497 9.41105C4.66585 9.57464 5.07689 9.7528 5.42809 9.94686C5.78905 10.1303 6.08953 10.3449 6.33017 10.59C6.57081 10.8244 6.75097 11.1006 6.87129 11.4165C6.99161 11.7225 7.05144 12.0749 7.05144 12.4729C7.05601 12.8807 6.96857 13.284 6.79585 13.6519C6.6352 13.9989 6.39001 14.3003 6.05896 14.5553C5.73832 14.8103 5.33704 15.0096 4.85641 15.1527C4.38553 15.2958 3.83922 15.3673 3.21745 15.3673C2.75633 15.3673 2.33033 15.3262 1.93945 15.2448C1.54858 15.1732 1.20778 15.0659 0.917058 14.9235C0.636093 14.7805 0.411061 14.6069 0.240662 14.4029C0.0832195 14.1974 -0.00155925 13.9437 2.17173e-05 13.683C2.17173e-05 13.4075 0.0754659 13.1777 0.225704 12.9942C0.386348 12.8107 0.561299 12.6624 0.75186 12.5504C1.02242 12.775 1.35801 12.9743 1.7593 13.1479C2.17034 13.3214 2.63146 13.4081 3.14266 13.4081L3.14201 13.4055ZM12.3585 15.3348C12.1158 15.3367 11.8737 15.3109 11.6366 15.258C11.4313 15.2215 11.2298 15.1652 11.035 15.0898V17.8304C10.9349 17.8609 10.7944 17.892 10.6142 17.9225C10.4153 17.9545 10.214 17.9698 10.0126 17.9682C9.56126 17.9682 9.23607 17.8914 9.0351 17.7384C8.83414 17.5854 8.73463 17.2946 8.73463 16.8654V9.28653C8.73463 9.02094 8.78991 8.80701 8.89983 8.64342C9.01039 8.46989 9.16518 8.3169 9.36615 8.18377C9.66662 7.98971 10.0529 7.83141 10.5238 7.70888C10.9947 7.57642 11.5163 7.50953 12.0873 7.50953C12.6688 7.50953 13.2001 7.58636 13.6808 7.73935C14.1718 7.88241 14.5933 8.11224 14.9438 8.42817C15.2944 8.74409 15.5656 9.14811 15.7555 9.63756C15.9558 10.1277 16.056 10.7092 16.056 11.3834C16.056 12.0265 15.961 12.5981 15.7704 13.0982C15.5903 13.5883 15.3347 14.0016 15.0036 14.3387C14.6726 14.6652 14.2817 14.9156 13.831 15.0891C13.3796 15.2527 12.8886 15.3342 12.3572 15.3342L12.3585 15.3348ZM12.0125 13.4823C12.5537 13.4823 12.9699 13.3088 13.2606 12.9617C13.5611 12.6147 13.712 12.0888 13.712 11.3848C13.712 10.6602 13.5663 10.1396 13.2762 9.82301C12.9959 9.50642 12.5998 9.34813 12.0886 9.34813C11.8844 9.34399 11.681 9.37512 11.487 9.44019C11.3266 9.48718 11.1705 9.54857 11.0207 9.62365V13.222C11.1612 13.3035 11.3114 13.3697 11.4721 13.4207C11.6493 13.4636 11.8304 13.4843 12.0125 13.4823ZM25.1554 11.4152C25.1554 12.0173 25.065 12.5637 24.8849 13.0538C24.7047 13.5333 24.4439 13.942 24.1031 14.2784C23.7721 14.6156 23.3714 14.8758 22.9006 15.0593C22.4297 15.2428 21.9029 15.3348 21.3221 15.3348C20.7413 15.3348 20.2093 15.2481 19.7287 15.0745C19.2578 14.8911 18.8513 14.6308 18.5105 14.2937C18.1794 13.9565 17.9239 13.5486 17.7437 13.069C17.5635 12.5789 17.4731 12.0279 17.4731 11.4152C17.4731 10.8231 17.5635 10.2873 17.7437 9.80778C17.9343 9.31766 18.1951 8.90437 18.5254 8.56725C18.8662 8.23013 19.2721 7.96984 19.7436 7.78638C20.2249 7.60291 20.7511 7.51085 21.3221 7.51085C21.8931 7.51085 22.4147 7.60291 22.8856 7.78638C23.3565 7.96984 23.7578 8.23543 24.0882 8.58248C24.434 8.9272 24.7009 9.34534 24.8699 9.80711C25.0605 10.2866 25.1554 10.8231 25.1554 11.4152ZM21.3214 9.34813C20.8506 9.34813 20.4844 9.52695 20.2236 9.88394C19.9628 10.2409 19.8327 10.7516 19.8327 11.4152C19.8327 12.0994 19.9582 12.62 20.2086 12.977C20.4694 13.324 20.8402 13.4976 21.3214 13.4976C21.8027 13.4976 22.1682 13.3187 22.4193 12.9617C22.6801 12.6047 22.8102 12.0888 22.8102 11.4152C22.8102 10.7622 22.6801 10.2568 22.4193 9.89918C22.1585 9.53159 21.793 9.34813 21.3214 9.34813ZM34.2529 11.4152C34.2529 12.0173 34.1632 12.5637 33.9824 13.0538C33.8022 13.5333 33.5414 13.942 33.2006 14.2784C32.8696 14.6156 32.469 14.8758 31.9981 15.0593C31.5272 15.2428 31.0004 15.3348 30.419 15.3348C29.8375 15.3348 29.3062 15.2481 28.8255 15.0745C28.3546 14.8911 27.9482 14.6308 27.6074 14.2937C27.2763 13.9565 27.0207 13.5486 26.8406 13.069C26.6604 12.5789 26.57 12.0279 26.57 11.4152C26.57 10.8231 26.6604 10.2873 26.8406 9.80778C27.0311 9.31766 27.2919 8.90437 27.6223 8.56725C27.9631 8.23013 28.369 7.96984 28.8398 7.78638C29.3205 7.60291 29.8473 7.51085 30.4183 7.51085C30.9893 7.51085 31.5109 7.60291 31.9818 7.78638C32.4527 7.96984 32.854 8.23543 33.185 8.58248C33.5258 8.9196 33.7866 9.3276 33.9668 9.80711C34.1573 10.2866 34.2529 10.8231 34.2529 11.4152ZM30.419 9.34813C29.9481 9.34813 29.5819 9.52695 29.3211 9.88394C29.0603 10.2409 28.9302 10.7516 28.9302 11.4152C28.9302 12.0994 29.0558 12.62 29.3062 12.977C29.567 13.324 29.9377 13.4976 30.419 13.4976C30.9002 13.4976 31.2657 13.3187 31.5168 12.9617C31.7769 12.6047 31.9077 12.0888 31.9077 11.4152C31.9077 10.7622 31.7769 10.2568 31.5168 9.89918C31.256 9.53159 30.8898 9.34813 30.419 9.34813ZM40.2833 11.3232L42.8848 13.8956C42.8347 14.3241 42.704 14.656 42.4939 14.8911C42.2929 15.1156 42.0029 15.2282 41.6218 15.2282C41.331 15.2282 41.0754 15.1567 40.855 15.0136C40.6345 14.8705 40.3886 14.6361 40.1181 14.3096L38.3289 12.1504V15.0904C38.191 15.1282 38.0502 15.1539 37.9081 15.1673C37.7273 15.1977 37.527 15.213 37.3065 15.213C36.8551 15.213 36.5299 15.1414 36.329 14.9984C36.1286 14.8454 36.0285 14.5546 36.0285 14.1254V5.13776C36.1384 5.1073 36.2841 5.07617 36.4642 5.0457C36.6444 5.01523 36.8454 5 37.0658 5C37.5172 5 37.8378 5.07617 38.0284 5.22982C38.2287 5.38282 38.3289 5.67358 38.3289 6.10276V10.4357L41.0501 7.61815C41.5216 7.61815 41.8975 7.72544 42.1778 7.94004C42.4581 8.15463 42.5993 8.41956 42.5993 8.73614C42.5993 9.01167 42.5037 9.25673 42.3131 9.47132C42.133 9.67531 41.8474 9.95084 41.4566 10.2979L40.2833 11.3232ZM45.4766 13.2677L44.6798 11.2775C44.3891 10.4509 44.0834 9.38389 43.7628 8.07713C43.8831 7.94467 44.0483 7.83208 44.259 7.74001C44.4795 7.63802 44.715 7.58702 44.9654 7.58702C45.286 7.58702 45.5468 7.65855 45.7471 7.80161C45.9474 7.93408 46.1029 8.18443 46.2134 8.55202L46.8749 10.7569L47.5669 12.9465H47.6267L48.0026 11.8133L48.3786 10.5271L48.7089 9.1799L48.9951 7.84797C49.2936 7.67769 49.6299 7.58807 49.972 7.58768C50.2933 7.58768 50.5684 7.65921 50.7993 7.80227C51.0302 7.94533 51.1453 8.1798 51.1453 8.50632C51.1453 8.87391 50.9495 9.91507 50.9495 9.91507C50.9495 9.91507 50.664 11.0682 50.4533 11.6914L49.7619 13.5287C49.5109 14.1307 49.2507 14.6619 48.9802 15.1209C48.4189 16.0905 47.9122 16.8105 47.4615 17.2801C47.0102 17.7596 46.5542 18 46.0931 18C45.7224 18 45.4167 17.8828 45.1761 17.6476C44.9354 17.4231 44.7898 17.1324 44.7397 16.7747C45.0603 16.4886 45.3914 16.1521 45.7322 15.764C46.0638 15.4114 46.3609 15.0268 46.6193 14.6155C46.4489 14.5646 46.2687 14.452 46.0782 14.2784C45.8973 14.095 45.697 13.7578 45.4766 13.2677ZM55.7018 13.4055C56.2332 13.4055 56.6091 13.3134 56.8296 13.13C57.0598 12.9359 57.1756 12.7061 57.1756 12.4412C57.1756 12.1961 57.0852 12.002 56.9044 11.8596C56.734 11.7066 56.4738 11.5735 56.1226 11.4616L55.3558 11.2165C54.935 11.0841 54.5539 10.941 54.2131 10.788C53.8723 10.6244 53.5816 10.4357 53.341 10.2217C53.101 9.9972 52.9104 9.73691 52.7699 9.44085C52.6398 9.13486 52.5742 8.76727 52.5742 8.33875C52.5742 7.48105 52.8902 6.80217 53.5218 6.30212C54.163 5.80207 55.0502 5.55171 56.1831 5.55171C56.5808 5.54916 56.978 5.57995 57.3707 5.64377C57.7414 5.70537 58.0575 5.80207 58.3177 5.93453C58.5785 6.05706 58.784 6.21006 58.9342 6.39418C59.0832 6.57377 59.1634 6.80221 59.1599 7.03729C59.1599 7.27175 59.1001 7.48105 58.9797 7.66517C58.8692 7.8387 58.7391 7.98706 58.5889 8.10893C58.358 7.94533 58.0523 7.80757 57.6712 7.69564C57.2901 7.58371 56.8745 7.52741 56.4238 7.52741C55.9425 7.52741 55.5867 7.60424 55.3558 7.75724C55.1249 7.91023 55.0105 8.10429 55.0105 8.33942C55.0105 8.54341 55.0853 8.7017 55.2355 8.8143C55.3858 8.91629 55.6218 9.02359 55.9425 9.13552L56.7541 9.41105C57.1792 9.55417 57.5917 9.73341 57.9873 9.94686C58.32 10.1104 58.6246 10.3276 58.8893 10.59C59.13 10.8244 59.3101 11.1006 59.4305 11.4165C59.5508 11.7225 59.6113 12.0749 59.6113 12.4729C59.6158 12.8807 59.5284 13.284 59.3557 13.6519C59.195 13.9989 58.9492 14.3003 58.6188 14.5553C58.2982 14.8103 57.8969 15.0096 57.4156 15.1527C56.9447 15.2958 56.3984 15.3673 55.7773 15.3673C55.3481 15.3704 54.9197 15.3293 54.4986 15.2448C54.1077 15.1732 53.767 15.0659 53.4762 14.9235C53.1959 14.7805 52.9702 14.6069 52.7998 14.4029C52.6398 14.1884 52.5592 13.9486 52.5592 13.683C52.5592 13.4075 52.6346 13.1777 52.7849 12.9942C52.9455 12.8107 53.1205 12.6624 53.311 12.5504C53.5816 12.775 53.9178 12.9743 54.3185 13.1479C54.7295 13.3214 55.1906 13.4081 55.7018 13.4081V13.4055ZM66.2738 10.7257L65.9733 11.8894L65.6422 13.0531L65.3262 14.0943L65.0862 14.8752C64.815 15.1202 64.3844 15.2428 63.7926 15.2428C63.4323 15.2428 63.1162 15.1918 62.8456 15.0898C62.575 14.9878 62.3942 14.8348 62.3045 14.6301C62.1939 14.3851 62.0639 13.9969 61.9136 13.4664L61.4622 11.7212L61.0564 9.79188L60.7403 8.07713C60.8606 7.94467 61.0265 7.83208 61.2366 7.74001C61.4586 7.63773 61.6998 7.58554 61.9435 7.58702C62.2642 7.58702 62.525 7.66385 62.7253 7.81684C62.9256 7.95991 63.0511 8.2096 63.1012 8.56725L63.3568 10.4045L63.5675 11.706L63.7178 12.5789L63.8231 13.0843H63.883L64.0638 12.3491L64.3493 11.2463L64.6953 9.91441L65.0706 8.47519C65.241 8.37319 65.4166 8.29636 65.5974 8.24536C65.7873 8.18377 66.013 8.1533 66.2738 8.1533C66.5944 8.1533 66.865 8.2096 67.0854 8.32153C67.3163 8.42353 67.4614 8.58182 67.5218 8.79641L67.8978 10.1588L68.2282 11.3834L68.4838 12.3941L68.6646 13.0829H68.7394L69.1452 10.5569L69.5061 7.86188C69.666 7.77044 69.8383 7.70349 70.0174 7.66318C70.1937 7.61263 70.3759 7.58679 70.5591 7.58636C70.8693 7.58636 71.1249 7.65789 71.3259 7.80095C71.536 7.93341 71.6413 8.16854 71.6413 8.50499C71.6413 8.65799 71.6114 8.89775 71.5509 9.22493L71.3409 10.3277L71.0547 11.6292L70.7243 12.9306L70.3933 14.0791L70.1377 14.8752C70.0278 14.9871 69.8424 15.0739 69.5816 15.1355C69.3208 15.207 69.0405 15.2428 68.7394 15.2428C67.9778 15.2428 67.5316 15.054 67.4015 14.6765L67.1459 13.9261L66.8298 12.9617L66.5294 11.8596L66.2738 10.7257ZM76.2623 13.6194C76.4792 13.6199 76.6956 13.5995 76.9088 13.5585C77.1293 13.5075 77.2951 13.4459 77.405 13.3744V11.9656L76.1725 12.0729C75.8513 12.1034 75.5911 12.1802 75.3901 12.3027C75.2002 12.4153 75.1046 12.5882 75.1046 12.8233C75.1046 13.0684 75.195 13.2624 75.3752 13.4055C75.5553 13.5486 75.8513 13.6194 76.2623 13.6194ZM76.1725 7.51019C76.6935 7.51019 77.1644 7.56649 77.5858 7.67842C78.0164 7.78042 78.3825 7.94401 78.683 8.16853C78.9835 8.39306 79.2144 8.67918 79.375 9.02624C79.5454 9.37329 79.6306 9.78194 79.6306 10.2509V13.7115C79.6306 13.9771 79.5604 14.191 79.4199 14.3546C79.2898 14.5076 79.1292 14.6401 78.9386 14.7526C78.6284 14.9467 78.2473 15.0944 77.7959 15.1964C77.3445 15.2984 76.834 15.3494 76.2623 15.3494C75.2301 15.3494 74.4081 15.15 73.7967 14.752C73.1853 14.3433 72.8797 13.7261 72.8797 12.8995C72.8797 12.1954 73.0852 11.659 73.4962 11.292C73.9073 10.9251 74.5381 10.6946 75.3901 10.6032L77.3901 10.3886V10.2204C77.3901 9.89388 77.26 9.65412 76.9992 9.50046C76.7384 9.3468 76.3625 9.27063 75.8714 9.27063C75.4909 9.27063 75.115 9.31633 74.7437 9.4084C74.4108 9.49107 74.0843 9.59843 73.7668 9.72962C73.6465 9.64816 73.5411 9.52563 73.4507 9.36203C73.3707 9.18851 73.3304 9.00504 73.3304 8.81098C73.3304 8.36193 73.5613 8.04004 74.0224 7.84665C74.3131 7.73472 74.6487 7.65259 75.0298 7.60159C75.4079 7.54131 75.7899 7.51119 76.1725 7.51019ZM85.3013 15.3342C85.0586 15.336 84.8164 15.3102 84.5794 15.2573C84.3589 15.2163 84.1586 15.1606 83.9778 15.0891V17.8298C83.8776 17.8602 83.7378 17.8914 83.557 17.9218C83.3762 17.9523 83.1758 17.9675 82.9554 17.9675C82.5046 17.9675 82.1788 17.8907 81.9785 17.7377C81.7782 17.5847 81.6774 17.294 81.6774 16.8648V9.28653C81.6774 9.02094 81.7327 8.80701 81.8432 8.64342C81.9531 8.46989 82.1086 8.3169 82.3089 8.18377C82.61 7.98971 82.9957 7.83141 83.4666 7.70888C83.9381 7.57642 84.459 7.50953 85.0307 7.50953C85.6122 7.50953 86.1429 7.58636 86.6242 7.73935C87.1152 7.88241 87.5366 8.11224 87.8872 8.42817C88.2378 8.74409 88.509 9.14811 88.6995 9.63756C88.8998 10.1277 89 10.7092 89 11.3834C89 12.0265 88.9044 12.5981 88.7145 13.0982C88.5337 13.5883 88.2781 14.0016 87.9477 14.3387C87.6166 14.6652 87.2258 14.9156 86.7744 15.0891C86.3237 15.2527 85.8326 15.3342 85.3013 15.3342ZM84.9553 13.4817C85.4964 13.4817 85.9126 13.3081 86.2034 12.9611C86.5038 12.614 86.6541 12.0881 86.6541 11.3841C86.6541 10.6595 86.5091 10.1389 86.2183 9.82235C85.938 9.50576 85.5419 9.34746 85.0307 9.34746C84.7998 9.34746 84.5995 9.37793 84.4291 9.43953C84.2687 9.48655 84.1126 9.54794 83.9628 9.62299V13.2214C84.1033 13.3028 84.2535 13.3691 84.4142 13.4201C84.5742 13.4611 84.755 13.4817 84.9553 13.4817Z" fill="#EBEBEC"/>
</svg>
