<svg width="24" height="25" viewBox="0 0 24 25" fill="none" xmlns="http://www.w3.org/2000/svg">
<path d="M22.3281 10.342C22.0952 10.342 21.8624 10.3844 21.6508 10.4903L13.5238 2.35616C13.6085 2.14433 13.672 1.93251 13.672 1.67832C13.672 0.746277 12.9101 0.00488281 12 0.00488281C11.0899 0.00488281 10.328 0.767459 10.328 1.67832C10.328 1.91132 10.3704 2.14433 10.4762 2.35616L2.3492 10.4691C2.13756 10.3844 1.92592 10.3209 1.67196 10.3209C0.740741 10.3209 0 11.0834 0 11.9943C0 12.9052 0.761905 13.6677 1.67196 13.6677C1.90476 13.6677 2.13756 13.6254 2.3492 13.5194L10.4762 21.6536C10.3915 21.8655 10.328 22.0772 10.328 22.3314C10.328 23.2634 11.0899 24.0049 12 24.0049C12.9101 24.0049 13.672 23.2423 13.672 22.3314C13.672 22.0984 13.6296 21.8655 13.5238 21.6536L21.6508 13.5194C21.8624 13.6042 22.074 13.6677 22.3281 13.6677C23.2593 13.6677 24 12.9052 24 11.9943C24 11.0834 23.2593 10.342 22.3281 10.342ZM20.7618 11.4224L17.6085 12.1849C17.3334 11.8248 16.9101 11.5706 16.4232 11.5706C16.0635 11.5706 15.746 11.6977 15.4921 11.9096L13.4391 10.9563C13.4391 10.9352 13.4391 10.9352 13.4391 10.914C13.4391 10.3209 13.1005 9.83365 12.5926 9.60065V3.24583C12.6138 3.24583 12.6349 3.22466 12.6561 3.22466L20.783 11.3588C20.783 11.3588 20.7618 11.4012 20.7618 11.4224ZM12 20.6793C11.9577 20.6793 11.9153 20.6793 11.873 20.6793L8.69841 13.9643C8.91005 13.7101 9.03704 13.3924 9.03704 13.0322L11.1111 12.0578C11.3651 12.2485 11.6825 12.3756 12 12.3756C12.3386 12.3756 12.6561 12.2485 12.9101 12.0578L14.9841 13.0322C14.9841 13.0322 14.9841 13.0322 14.9841 13.0534C14.9841 13.4135 15.1111 13.7313 15.3228 13.9855L12.1058 20.6793C12.0847 20.6793 12.0423 20.6793 12 20.6793ZM11.3862 3.24583V9.60065C10.8995 9.83365 10.5397 10.342 10.5397 10.914C10.5397 10.9352 10.5397 10.9563 10.5397 10.9563L8.48677 11.9096C8.23281 11.6977 7.91534 11.5706 7.55556 11.5706C7.06878 11.5706 6.6455 11.8037 6.37037 12.1849L3.2381 11.4224C3.2381 11.4012 3.21694 11.38 3.21694 11.3376L11.3439 3.20347C11.3439 3.22466 11.3651 3.22466 11.3862 3.24583ZM3.21694 12.6721L6.15873 13.3924C6.32805 14.0278 6.8783 14.4938 7.57671 14.4938H7.59789L9.92593 19.4082L3.21694 12.6721ZM16.4021 14.4938H16.4232C17.1005 14.4938 17.672 14.0278 17.8412 13.3924L20.783 12.6721C20.783 12.6721 20.783 12.6721 20.783 12.6933L14.0741 19.4082L16.4021 14.4938Z" fill="url(#paint0_linear_288_1305)"/>
<defs>
<linearGradient id="paint0_linear_288_1305" x1="0" y1="12.014" x2="23.997" y2="12.014" gradientUnits="userSpaceOnUse">
<stop stop-color="#0BADF4"/>
<stop offset="0.9341" stop-color="#30EFE4"/>
</linearGradient>
</defs>
</svg>
