<svg width="22" height="19" viewBox="0 0 22 19" fill="none" xmlns="http://www.w3.org/2000/svg">
<path fill-rule="evenodd" clip-rule="evenodd" d="M20.6105 1.66966C20.6105 1.97678 20.5126 2.26054 20.3471 2.49012L20.5452 4.41147C20.7173 4.50095 20.8688 4.62706 20.9894 4.78144C21.1159 4.94348 21.2053 5.13252 21.2508 5.33457C21.2963 5.53662 21.2968 5.74654 21.2523 5.94886C21.2078 6.15113 21.1194 6.34062 20.9936 6.50326C20.8678 6.66593 20.7079 6.79763 20.5257 6.88864C20.3434 6.97966 20.1435 7.02766 19.9407 7.02908C19.7378 7.03047 19.5373 6.98528 19.3538 6.89686L12.4236 15.8321C12.557 16.0832 12.6248 16.3653 12.6204 16.651C12.616 16.9367 12.5395 17.2164 12.3984 17.4631C12.2574 17.7098 12.0564 17.9151 11.815 18.0591C11.5735 18.2032 11.2999 18.2811 11.0204 18.2855C10.7409 18.2898 10.465 18.2203 10.2195 18.0837C9.9739 17.9471 9.76698 17.7481 9.6187 17.5059C9.47039 17.2637 9.38575 16.9864 9.37293 16.701C9.3601 16.4155 9.41954 16.1315 9.5455 15.8764L2.59844 6.91774C2.34835 7.02709 2.07186 7.05679 1.80501 7.00302C1.53816 6.94928 1.29336 6.81454 1.10256 6.61639C0.911764 6.41824 0.783814 6.16591 0.735439 5.89231C0.687064 5.61871 0.720477 5.33656 0.831364 5.08268C0.942214 4.82877 1.1254 4.61494 1.35693 4.46911C1.41006 4.43562 1.46519 4.40607 1.52189 4.38061L1.71685 2.49004C1.55133 2.26047 1.45349 1.97674 1.45349 1.66966C1.45349 0.905295 2.05968 0.285645 2.80739 0.285645C3.55514 0.285645 4.16133 0.905295 4.16133 1.66966C4.16133 1.96527 4.07065 2.23924 3.91619 2.46409L6.3697 4.94074C6.44414 4.90561 6.52173 4.87737 6.6016 4.85648C6.784 4.80874 6.97413 4.80046 7.15986 4.83211C7.34556 4.86376 7.52279 4.93467 7.68018 5.04027C7.8376 5.14591 7.9717 5.28391 8.07396 5.44553C8.17626 5.60712 8.24444 5.78873 8.27414 5.97882C8.30388 6.16887 8.2945 6.36316 8.24661 6.54931C8.19873 6.73546 8.11338 6.90934 7.99604 7.05987L10.8483 14.9716C10.8976 14.9642 10.9482 14.9642 10.9987 14.9642C11.0174 14.9642 11.0362 14.9653 11.0548 14.9664C11.0733 14.9675 11.0918 14.9685 11.11 14.9685L14.0586 7.12936C13.9132 6.96619 13.8081 6.76981 13.7523 6.55662C13.6963 6.34343 13.6912 6.11967 13.7372 5.90404C13.7962 5.62778 13.9365 5.37661 14.1392 5.18431C14.342 4.99201 14.5975 4.86781 14.8714 4.82843C15.1453 4.78902 15.4244 4.83634 15.6712 4.96396L18.1478 2.46406C17.9933 2.23921 17.9027 1.96527 17.9027 1.66966C17.9027 0.905295 18.5089 0.285645 19.2566 0.285645C20.0043 0.285645 20.6105 0.905295 20.6105 1.66966ZM19.2566 3.05371C19.3277 3.05371 19.3975 3.04808 19.4656 3.03732L19.6123 4.30069C19.4459 4.34228 19.2877 4.41605 19.1467 4.51902C18.917 4.68676 18.7444 4.92368 18.6528 5.19664L16.3945 5.52181L18.9425 3.01628C19.0433 3.04073 19.1485 3.05371 19.2566 3.05371ZM2.59833 3.03728L2.44938 4.32004C2.60388 4.36666 2.74986 4.44136 2.87995 4.54144C3.09726 4.70862 3.26024 4.93887 3.34761 5.20219L5.68698 5.53909L3.12141 3.01628C3.02065 3.04073 2.9155 3.05371 2.80739 3.05371C2.73629 3.05371 2.66646 3.04808 2.59833 3.03728ZM3.50646 6.31433L5.60894 6.61328L5.64505 6.61819C5.73235 6.89821 5.90455 7.14256 6.13668 7.31596C6.3688 7.48936 6.64889 7.58277 6.93636 7.5827C6.97368 7.5827 7.01099 7.58269 7.0477 7.57778L9.11166 13.8521L3.50646 6.31433ZM12.8617 13.7955L15.0213 7.5827H15.0622C15.3505 7.58285 15.6313 7.48887 15.8637 7.31449C16.0961 7.14012 16.2679 6.89446 16.3542 6.61328L18.4199 6.31924L12.8617 13.7955Z" fill="url(#paint0_linear_288_1309)"/>
<defs>
<linearGradient id="paint0_linear_288_1309" x1="0.713867" y1="9.29246" x2="21.2828" y2="9.29246" gradientUnits="userSpaceOnUse">
<stop stop-color="#0BADF4"/>
<stop offset="0.9341" stop-color="#30EFE4"/>
</linearGradient>
</defs>
</svg>
