<svg width="125" height="52" viewBox="0 0 125 52" fill="none" xmlns="http://www.w3.org/2000/svg">
<path d="M68.1126 18.9303L74.447 19.3067L77.1683 23.8394L70.834 23.463L68.1126 18.9303Z" fill="#1B1D24" stroke="#2E2F33" stroke-width="0.5"/>
<path d="M65.4583 29.4603L72.9684 29.907L75.6906 34.4397L68.1797 33.993L65.4583 29.4603Z" fill="#1B1D24" stroke="#2E2F33" stroke-width="0.5"/>
<path d="M108.562 13.7995L108.562 13.7997L109.77 15.8114C107.469 13.6661 104.323 12.2976 100.614 12.0798L100.613 12.0798C98.8734 11.982 97.1289 12.1285 95.4275 12.515L92.6656 7.91476C94.2706 7.56533 95.9133 7.43481 97.5518 7.52689C102.528 7.82326 106.428 10.2399 108.562 13.7995Z" fill="#1B1D24" stroke="#2E2F33" stroke-width="0.5"/>
<mask id="path-4-inside-1_2148_12510" fill="white">
<path d="M92.2737 7.74756L95.3069 12.7997C94.5475 12.9781 93.7986 13.2007 93.0635 13.4663L90.0303 8.41421C90.7653 8.14844 91.5143 7.92587 92.2737 7.74756Z"/>
</mask>
<path d="M92.2737 7.74756L95.3069 12.7997C94.5475 12.9781 93.7986 13.2007 93.0635 13.4663L90.0303 8.41421C90.7653 8.14844 91.5143 7.92587 92.2737 7.74756Z" fill="#1B1D24"/>
<path d="M95.3069 12.7997L95.4213 13.2864L96.0882 13.1297L95.7355 12.5423L95.3069 12.7997ZM93.0635 13.4663L92.6348 13.7237L92.8465 14.0764L93.2334 13.9366L93.0635 13.4663ZM90.0303 8.41421L89.8603 7.94401L89.2888 8.15062L89.6016 8.67158L90.0303 8.41421ZM91.845 8.00493L94.8782 13.057L95.7355 12.5423L92.7023 7.49019L91.845 8.00493ZM95.1925 12.3129C94.4143 12.4958 93.6468 12.7239 92.8935 12.9961L93.2334 13.9366C93.9503 13.6775 94.6808 13.4604 95.4213 13.2864L95.1925 12.3129ZM93.4921 13.209L90.4589 8.15685L89.6016 8.67158L92.6348 13.7237L93.4921 13.209ZM90.2003 8.88442C90.9171 8.62523 91.6475 8.40819 92.388 8.23432L92.1594 7.2608C91.3811 7.44355 90.6135 7.67166 89.8603 7.94401L90.2003 8.88442Z" fill="#2E2F33" mask="url(#path-4-inside-1_2148_12510)"/>
<path d="M88.5889 9.27318C89.0281 9.07455 89.4727 8.89046 89.923 8.72091L92.6941 13.3366C92.2443 13.5065 91.7992 13.6918 91.3625 13.8928L88.5889 9.27318Z" fill="#1B1D24" stroke="#2E2F33" stroke-width="0.5"/>
<path d="M87.0185 10.0621C87.3827 9.85893 87.7529 9.6668 88.1291 9.48568L90.904 14.1076C90.5292 14.2895 90.1594 14.4822 89.7944 14.6856L87.0185 10.0621Z" fill="#1B1D24" stroke="#2E2F33" stroke-width="0.5"/>
<mask id="path-8-inside-2_2148_12510" fill="white">
<path d="M86.6721 9.9707L89.7013 15.0228C89.2175 15.2984 88.7446 15.594 88.2827 15.9096L85.2495 10.8575C85.7107 10.5433 86.1836 10.2477 86.6681 9.9707"/>
</mask>
<path d="M86.6721 9.9707L89.7013 15.0228C89.2175 15.2984 88.7446 15.594 88.2827 15.9096L85.2495 10.8575C85.7107 10.5433 86.1836 10.2477 86.6681 9.9707" fill="#1B1D24"/>
<path d="M89.7013 15.0228L89.9488 15.4573L90.3931 15.2042L90.1301 14.7657L89.7013 15.0228ZM88.2827 15.9096L87.854 16.167L88.127 16.6216L88.5648 16.3224L88.2827 15.9096ZM85.2495 10.8575L84.968 10.4443L84.5778 10.7101L84.8208 11.1149L85.2495 10.8575ZM86.2433 10.2278L89.2725 15.2799L90.1301 14.7657L87.101 9.71358L86.2433 10.2278ZM89.4539 14.5883C88.9581 14.8707 88.4737 15.1736 88.0006 15.4968L88.5648 16.3224C89.0155 16.0145 89.4768 15.7261 89.9488 15.4573L89.4539 14.5883ZM88.7114 15.6522L85.6782 10.6001L84.8208 11.1149L87.854 16.167L88.7114 15.6522ZM85.531 11.2707C85.9814 10.9639 86.4431 10.6753 86.9163 10.4048L86.42 9.53663C85.9241 9.82014 85.4401 10.1227 84.968 10.4443L85.531 11.2707Z" fill="#2E2F33" mask="url(#path-8-inside-2_2148_12510)"/>
<path d="M84.2534 11.8919C84.5546 11.6561 84.862 11.4298 85.1756 11.2132L87.9514 15.8368C87.6382 16.0542 87.3304 16.2797 87.028 16.5132L84.2534 11.8919Z" fill="#1B1D24" stroke="#2E2F33" stroke-width="0.5"/>
<path d="M82.9818 12.9617C83.2675 12.7026 83.56 12.4509 83.8594 12.2067L86.6324 16.8256C86.3328 17.0681 86.0395 17.3184 85.7526 17.5767L82.9818 12.9617Z" fill="#1B1D24" stroke="#2E2F33" stroke-width="0.5"/>
<path d="M81.7488 14.1758C82.0265 13.8793 82.3128 13.5906 82.6076 13.3099L85.3773 17.9232C85.0819 18.2025 84.7943 18.4894 84.5148 18.7838L81.7488 14.1758Z" fill="#1B1D24" stroke="#2E2F33" stroke-width="0.5"/>
<mask id="path-13-inside-3_2148_12510" fill="white">
<path d="M81.4373 14.1433L84.4705 19.1965C84.0379 19.6657 83.6277 20.1535 83.2398 20.66L80.2036 15.6079C80.5915 15.1021 81.0021 14.6139 81.4353 14.1433"/>
</mask>
<path d="M81.4373 14.1433L84.4705 19.1965C84.0379 19.6657 83.6277 20.1535 83.2398 20.66L80.2036 15.6079C80.5915 15.1021 81.0021 14.6139 81.4353 14.1433" fill="#1B1D24"/>
<path d="M84.4705 19.1965L84.8381 19.5353L85.0918 19.2601L84.8992 18.9391L84.4705 19.1965ZM83.2398 20.66L82.8112 20.9175L83.1898 21.5475L83.6368 20.964L83.2398 20.66ZM80.2036 15.6079L79.8069 15.3036L79.5997 15.5737L79.7751 15.8654L80.2036 15.6079ZM81.0086 14.4006L84.0418 19.4538L84.8992 18.9391L81.866 13.886L81.0086 14.4006ZM84.1028 18.8576C83.66 19.338 83.24 19.8374 82.8429 20.356L83.6368 20.964C84.0154 20.4696 84.4158 19.9934 84.8381 19.5353L84.1028 18.8576ZM83.6684 20.4024L80.6322 15.3503L79.7751 15.8654L82.8112 20.9175L83.6684 20.4024ZM80.6004 15.9122C80.9791 15.4183 81.38 14.9416 81.8032 14.4819L81.0674 13.8047C80.6241 14.2863 80.2039 14.7859 79.8069 15.3036L80.6004 15.9122Z" fill="#2E2F33" mask="url(#path-13-inside-3_2148_12510)"/>
<path d="M79.2384 17.4566C79.5332 16.9757 79.8477 16.5081 80.181 16.055L82.9366 20.6433C82.5994 21.0906 82.2805 21.5523 81.9806 22.027L79.2384 17.4566Z" fill="#1B1D24" stroke="#2E2F33" stroke-width="0.5"/>
<mask id="path-16-inside-4_2148_12510" fill="white">
<path d="M78.9464 17.4558L81.9796 22.5079C81.3362 23.57 80.7979 24.6964 80.373 25.8701L77.3398 20.818C77.7641 19.6441 78.3024 18.5176 78.9464 17.4558Z"/>
</mask>
<path d="M78.9464 17.4558L81.9796 22.5079C81.3362 23.57 80.7979 24.6964 80.373 25.8701L77.3398 20.818C77.7641 19.6441 78.3024 18.5176 78.9464 17.4558Z" fill="#1B1D24"/>
<path d="M81.9796 22.5079L82.4073 22.767L82.5635 22.5091L82.4083 22.2505L81.9796 22.5079ZM80.373 25.8701L79.9444 26.1275L80.4854 27.0286L80.8432 26.0403L80.373 25.8701ZM77.3398 20.818L76.8696 20.6481L76.7888 20.8716L76.9112 21.0754L77.3398 20.818ZM78.5177 17.7132L81.5509 22.7653L82.4083 22.2505L79.3751 17.1984L78.5177 17.7132ZM81.552 22.2488C80.8914 23.3392 80.339 24.4955 79.9029 25.6999L80.8432 26.0403C81.2569 24.8974 81.781 23.8008 82.4073 22.767L81.552 22.2488ZM80.8017 25.6128L77.7685 20.5607L76.9112 21.0754L79.9444 26.1275L80.8017 25.6128ZM77.8101 20.988C78.2232 19.845 78.7472 18.7484 79.3739 17.7151L78.5189 17.1965C77.8577 18.2867 77.3051 19.4431 76.8696 20.6481L77.8101 20.988Z" fill="#2E2F33" mask="url(#path-16-inside-4_2148_12510)"/>
<mask id="path-18-inside-5_2148_12510" fill="white">
<path d="M77.3396 20.8181L80.3728 25.8702C80.1758 26.4174 80.0057 26.9745 79.8629 27.5394C79.7044 28.1652 79.5825 28.8003 79.498 29.4412L76.4648 24.3891C76.5492 23.7482 76.6711 23.1131 76.8297 22.4873C76.972 21.9223 77.1422 21.3652 77.3396 20.8181Z"/>
</mask>
<path d="M77.3396 20.8181L80.3728 25.8702C80.1758 26.4174 80.0057 26.9745 79.8629 27.5394C79.7044 28.1652 79.5825 28.8003 79.498 29.4412L76.4648 24.3891C76.5492 23.7482 76.6711 23.1131 76.8297 22.4873C76.972 21.9223 77.1422 21.3652 77.3396 20.8181Z" fill="#1B1D24"/>
<path d="M80.3728 25.8702L80.8432 26.0396L80.9236 25.8163L80.8015 25.6129L80.3728 25.8702ZM79.8629 27.5394L80.3476 27.6623L80.3477 27.6619L79.8629 27.5394ZM79.498 29.4412L79.0694 29.6986L79.8066 30.9265L79.9937 29.5065L79.498 29.4412ZM76.4648 24.3891L75.9691 24.3238L75.9463 24.4969L76.0362 24.6465L76.4648 24.3891ZM76.8297 22.4873L77.3144 22.6102L77.3146 22.6094L76.8297 22.4873ZM76.9109 21.0755L79.9441 26.1276L80.8015 25.6129L77.7683 20.5607L76.9109 21.0755ZM79.9024 25.7009C79.6998 26.2635 79.5249 26.8362 79.3782 27.417L80.3477 27.6619C80.4864 27.1128 80.6518 26.5714 80.8432 26.0396L79.9024 25.7009ZM79.3783 27.4166C79.2149 28.0613 79.0893 28.7156 79.0023 29.3759L79.9937 29.5065C80.0757 28.8849 80.1938 28.2691 80.3476 27.6623L79.3783 27.4166ZM79.9267 29.1838L76.8935 24.1317L76.0362 24.6465L79.0694 29.6986L79.9267 29.1838ZM76.9606 24.4544C77.0424 23.8328 77.1606 23.217 77.3144 22.6102L76.3451 22.3644C76.1816 23.0092 76.0561 23.6635 75.9691 24.3238L76.9606 24.4544ZM77.3146 22.6094C77.4528 22.0605 77.6181 21.5192 77.8099 20.9879L76.8693 20.6484C76.6662 21.2111 76.4912 21.7841 76.3449 22.3653L77.3146 22.6094Z" fill="#2E2F33" mask="url(#path-18-inside-5_2148_12510)"/>
<mask id="path-20-inside-6_2148_12510" fill="white">
<path d="M76.4648 24.3889L79.498 29.441C79.3446 30.5862 79.3248 31.7462 79.439 32.8963L76.4048 27.8431C76.2906 26.6934 76.3104 25.5337 76.4638 24.3889"/>
</mask>
<path d="M76.4648 24.3889L79.498 29.441C79.3446 30.5862 79.3248 31.7462 79.439 32.8963L76.4048 27.8431C76.2906 26.6934 76.3104 25.5337 76.4638 24.3889" fill="#1B1D24"/>
<path d="M79.498 29.441L79.9936 29.5074L80.0168 29.3338L79.9267 29.1837L79.498 29.441ZM79.439 32.8963L79.0104 33.1536L79.9366 32.8468L79.439 32.8963ZM76.4048 27.8431L75.9073 27.8925L75.9184 28.0043L75.9762 28.1005L76.4048 27.8431ZM76.0361 24.6463L79.0693 29.6984L79.9267 29.1837L76.8935 24.1315L76.0361 24.6463ZM79.0024 29.3746C78.8439 30.5582 78.8234 31.7571 78.9415 32.9457L79.9366 32.8468C79.8262 31.7353 79.8453 30.6142 79.9936 29.5074L79.0024 29.3746ZM79.8677 32.6389L76.8335 27.5857L75.9762 28.1005L79.0104 33.1536L79.8677 32.6389ZM76.9024 27.7937C76.792 26.6825 76.8111 25.5617 76.9594 24.4553L75.9682 24.3225C75.8097 25.5057 75.7892 26.7043 75.9073 27.8925L76.9024 27.7937Z" fill="#2E2F33" mask="url(#path-20-inside-6_2148_12510)"/>
<mask id="path-22-inside-7_2148_12510" fill="white">
<path d="M76.405 27.8433L79.4382 32.8964C79.5047 33.5529 79.6184 34.2035 79.7781 34.8426L76.7449 29.7905C76.5852 29.151 76.4715 28.5002 76.405 27.8433Z"/>
</mask>
<path d="M76.405 27.8433L79.4382 32.8964C79.5047 33.5529 79.6184 34.2035 79.7781 34.8426L76.7449 29.7905C76.5852 29.151 76.4715 28.5002 76.405 27.8433Z" fill="#1B1D24"/>
<path d="M79.4382 32.8964L79.9357 32.846L79.9244 32.7349L79.8669 32.6391L79.4382 32.8964ZM79.7781 34.8426L79.3495 35.1L80.2632 34.7214L79.7781 34.8426ZM76.7449 29.7905L76.2598 29.9117L76.2779 29.984L76.3163 30.0479L76.7449 29.7905ZM75.9763 28.1006L79.0095 33.1537L79.8669 32.6391L76.8337 27.5859L75.9763 28.1006ZM78.9408 32.9468C79.0097 33.6272 79.1274 34.3014 79.2931 34.9639L80.2632 34.7214C80.1093 34.1056 79.9998 33.4787 79.9357 32.846L78.9408 32.9468ZM80.2068 34.5853L77.1736 29.5331L76.3163 30.0479L79.3495 35.1L80.2068 34.5853ZM77.23 29.6693C77.0761 29.0531 76.9666 28.4259 76.9025 27.7929L75.9076 27.8936C75.9765 28.5744 76.0942 29.2489 76.2598 29.9117L77.23 29.6693Z" fill="#2E2F33" mask="url(#path-22-inside-7_2148_12510)"/>
<mask id="path-24-inside-8_2148_12510" fill="white">
<path d="M76.7456 29.7908L79.7788 34.8429C79.911 35.37 80.0756 35.8878 80.2717 36.3932L77.2385 31.3411C77.0426 30.8357 76.878 30.3178 76.7456 29.7908Z"/>
</mask>
<path d="M76.7456 29.7908L79.7788 34.8429C79.911 35.37 80.0756 35.8878 80.2717 36.3932L77.2385 31.3411C77.0426 30.8357 76.878 30.3178 76.7456 29.7908Z" fill="#1B1D24"/>
<path d="M76.7456 29.7908L77.1743 29.5334L76.2607 29.9126L76.7456 29.7908ZM79.7788 34.8429L80.2638 34.7212L80.2457 34.6492L80.2075 34.5855L79.7788 34.8429ZM80.2717 36.3932L79.843 36.6506L80.7378 36.2124L80.2717 36.3932ZM77.2385 31.3411L76.7723 31.5218L76.7877 31.5618L76.8098 31.5985L77.2385 31.3411ZM76.3169 30.0481L79.3501 35.1002L80.2075 34.5855L77.1743 29.5334L76.3169 30.0481ZM79.2938 34.9645C79.4311 35.5117 79.602 36.0493 79.8055 36.574L80.7378 36.2124C80.5493 35.7264 80.391 35.2283 80.2638 34.7212L79.2938 34.9645ZM80.7003 36.1359L77.6671 31.0838L76.8098 31.5985L79.843 36.6506L80.7003 36.1359ZM77.7047 31.1605C77.5163 30.6743 77.3579 30.1761 77.2305 29.669L76.2607 29.9126C76.398 30.4596 76.5689 30.9971 76.7723 31.5218L77.7047 31.1605Z" fill="#2E2F33" mask="url(#path-24-inside-8_2148_12510)"/>
<mask id="path-26-inside-9_2148_12510" fill="white">
<path d="M77.2388 31.3389L80.272 36.391C80.4467 36.8444 80.647 37.2868 80.8718 37.716L77.8386 32.6639C77.6138 32.2347 77.4135 31.7923 77.2388 31.3389Z"/>
</mask>
<path d="M77.2388 31.3389L80.272 36.391C80.4467 36.8444 80.647 37.2868 80.8718 37.716L77.8386 32.6639C77.6138 32.2347 77.4135 31.7923 77.2388 31.3389Z" fill="#1B1D24"/>
<path d="M80.272 36.391L80.7385 36.2112L80.7229 36.1707L80.7006 36.1336L80.272 36.391ZM80.8718 37.716L80.4431 37.9734L81.3147 37.484L80.8718 37.716ZM77.8386 32.6639L77.3957 32.8959L77.4024 32.9088L77.4099 32.9213L77.8386 32.6639ZM76.8101 31.5962L79.8433 36.6483L80.7006 36.1336L77.6674 31.0815L76.8101 31.5962ZM79.8054 36.5708C79.987 37.042 80.1952 37.5018 80.4289 37.948L81.3147 37.484C81.0988 37.0718 80.9064 36.6468 80.7385 36.2112L79.8054 36.5708ZM81.3005 37.4586L78.2673 32.4065L77.4099 32.9213L80.4431 37.9734L81.3005 37.4586ZM78.2815 32.4319C78.0656 32.0197 77.8732 31.5947 77.7053 31.1591L76.7722 31.5187C76.9538 31.9899 77.162 32.4497 77.3957 32.8959L78.2815 32.4319Z" fill="#2E2F33" mask="url(#path-26-inside-9_2148_12510)"/>
<mask id="path-28-inside-10_2148_12510" fill="white">
<path d="M77.8416 32.6639L80.8747 37.716C80.986 37.9227 81.1024 38.1294 81.2237 38.3361L78.1905 33.283C78.0685 33.0763 77.9515 32.8696 77.8416 32.6628"/>
</mask>
<path d="M77.8416 32.6639L80.8747 37.716C80.986 37.9227 81.1024 38.1294 81.2237 38.3361L78.1905 33.283C78.0685 33.0763 77.9515 32.8696 77.8416 32.6628" fill="#1B1D24"/>
<path d="M80.8747 37.716L81.315 37.4789L81.3094 37.4686L81.3034 37.4586L80.8747 37.716ZM81.2237 38.3361L80.795 38.5935L81.6549 38.0831L81.2237 38.3361ZM78.1905 33.283L77.7598 33.5371L77.7618 33.5403L78.1905 33.283ZM77.4129 32.9212L80.4461 37.9733L81.3034 37.4586L78.2702 32.4065L77.4129 32.9212ZM80.4345 37.953C80.5488 38.1652 80.6681 38.3773 80.7924 38.5892L81.6549 38.0831C81.5366 37.8815 81.4233 37.6801 81.315 37.4789L80.4345 37.953ZM81.6524 38.0788L78.6192 33.0257L77.7618 33.5403L80.795 38.5935L81.6524 38.0788ZM78.6211 33.0289C78.5021 32.8273 78.3889 32.627 78.283 32.428L77.4001 32.8977C77.5142 33.1121 77.6349 33.3253 77.7598 33.5371L78.6211 33.0289Z" fill="#2E2F33" mask="url(#path-28-inside-10_2148_12510)"/>
<mask id="path-30-inside-11_2148_12510" fill="white">
<path d="M98.0713 20.5359L101.104 25.5901C101.142 25.6507 101.177 25.7127 101.209 25.7761L98.1763 20.7219C98.1436 20.6578 98.1103 20.5958 98.0763 20.5359"/>
</mask>
<path d="M98.0713 20.5359L101.104 25.5901C101.142 25.6507 101.177 25.7127 101.209 25.7761L98.1763 20.7219C98.1436 20.6578 98.1103 20.5958 98.0763 20.5359" fill="#1B1D24"/>
<path d="M101.104 25.5901L100.676 25.8474L100.679 25.8522L101.104 25.5901ZM101.209 25.7761L100.781 26.0334L101.654 25.5471L101.209 25.7761ZM98.1763 20.7219L97.7308 20.949L97.7386 20.9644L97.7475 20.9792L98.1763 20.7219ZM97.6426 20.7932L100.676 25.8474L101.533 25.3328L98.5 20.2786L97.6426 20.7932ZM100.679 25.8522C100.709 25.902 100.738 25.9529 100.765 26.0051L101.654 25.5471C101.615 25.4725 101.574 25.3994 101.53 25.328L100.679 25.8522ZM101.638 25.5188L98.605 20.4646L97.7475 20.9792L100.781 26.0334L101.638 25.5188ZM98.6218 20.4949C98.5859 20.4245 98.549 20.3559 98.5112 20.2893L97.6413 20.7825C97.6715 20.8357 97.7013 20.8912 97.7308 20.949L98.6218 20.4949Z" fill="#2E2F33" mask="url(#path-30-inside-11_2148_12510)"/>
<mask id="path-32-inside-12_2148_12510" fill="white">
<path d="M98.1763 20.7222L101.209 25.7743C101.277 25.9027 101.338 26.0352 101.39 26.1712L98.3572 21.1191C98.3042 20.9833 98.2438 20.8508 98.1763 20.7222Z"/>
</mask>
<path d="M98.1763 20.7222L101.209 25.7743C101.277 25.9027 101.338 26.0352 101.39 26.1712L98.3572 21.1191C98.3042 20.9833 98.2438 20.8508 98.1763 20.7222Z" fill="#1B1D24"/>
<path d="M101.209 25.7743L101.651 25.5405L101.645 25.5285L101.638 25.5169L101.209 25.7743ZM101.39 26.1712L100.962 26.4285L101.857 25.9908L101.39 26.1712ZM98.3572 21.1191L97.8915 21.3009L97.9068 21.3402L97.9285 21.3764L98.3572 21.1191ZM97.7476 20.9795L100.781 26.0316L101.638 25.5169L98.6049 20.4648L97.7476 20.9795ZM100.767 26.0081C100.826 26.1192 100.879 26.2339 100.924 26.3516L101.857 25.9908C101.797 25.8366 101.729 25.6863 101.651 25.5405L100.767 26.0081ZM101.819 25.9138L98.7859 20.8617L97.9285 21.3764L100.962 26.4285L101.819 25.9138ZM98.823 20.9372C98.7633 20.7843 98.6951 20.6349 98.619 20.4898L97.7336 20.9546C97.7925 21.0668 97.8452 21.1824 97.8915 21.3009L98.823 20.9372Z" fill="#2E2F33" mask="url(#path-32-inside-12_2148_12510)"/>
<mask id="path-34-inside-13_2148_12510" fill="white">
<path d="M98.3572 21.1189L101.39 26.171C101.449 26.3224 101.498 26.4774 101.538 26.6351L98.5041 21.583C98.4647 21.4252 98.4156 21.2702 98.3572 21.1189Z"/>
</mask>
<path d="M98.3572 21.1189L101.39 26.171C101.449 26.3224 101.498 26.4774 101.538 26.6351L98.5041 21.583C98.4647 21.4252 98.4156 21.2702 98.3572 21.1189Z" fill="#1B1D24"/>
<path d="M101.39 26.171L101.857 25.991L101.841 25.9507L101.819 25.9136L101.39 26.171ZM101.538 26.6351L101.11 26.8925L102.023 26.5118L101.538 26.6351ZM98.5041 21.583L98.0191 21.7044L98.0372 21.7766L98.0755 21.8404L98.5041 21.583ZM97.9285 21.3763L100.962 26.4284L101.819 25.9136L98.7859 20.8615L97.9285 21.3763ZM100.924 26.351C100.975 26.4839 101.019 26.6199 101.054 26.7584L102.023 26.5118C101.978 26.3349 101.922 26.161 101.857 25.991L100.924 26.351ZM101.967 26.3776L98.9328 21.3255L98.0755 21.8404L101.11 26.8925L101.967 26.3776ZM98.9892 21.4616C98.9447 21.284 98.8895 21.1094 98.8237 20.9389L97.8907 21.2989C97.9417 21.431 97.9846 21.5665 98.0191 21.7044L98.9892 21.4616Z" fill="#2E2F33" mask="url(#path-34-inside-13_2148_12510)"/>
<mask id="path-36-inside-14_2148_12510" fill="white">
<path d="M98.5042 21.583L101.538 26.6351C101.585 26.8274 101.619 27.0229 101.638 27.2201L98.6051 22.167C98.5858 21.97 98.5524 21.7748 98.5052 21.583"/>
</mask>
<path d="M98.5042 21.583L101.538 26.6351C101.585 26.8274 101.619 27.0229 101.638 27.2201L98.6051 22.167C98.5858 21.97 98.5524 21.7748 98.5052 21.583" fill="#1B1D24"/>
<path d="M101.538 26.6351L102.024 26.5168L102.006 26.4429L101.967 26.3777L101.538 26.6351ZM101.638 27.2201L101.21 27.4774L102.136 27.1703L101.638 27.2201ZM98.6051 22.167L98.1075 22.2159L98.1185 22.3278L98.1764 22.4243L98.6051 22.167ZM98.0755 21.8404L101.11 26.8925L101.967 26.3777L98.9328 21.3256L98.0755 21.8404ZM101.053 26.7534C101.094 26.9231 101.123 27.0957 101.141 27.2699L102.136 27.1703C102.114 26.9501 102.076 26.7317 102.024 26.5168L101.053 26.7534ZM102.067 26.9628L99.0338 21.9096L98.1764 22.4243L101.21 27.4774L102.067 26.9628ZM99.1027 22.1181C99.0811 21.8974 99.0436 21.6786 98.9907 21.4635L98.0196 21.7025C98.0611 21.8711 98.0905 22.0427 98.1075 22.2159L99.1027 22.1181Z" fill="#2E2F33" mask="url(#path-36-inside-14_2148_12510)"/>
<mask id="path-38-inside-15_2148_12510" fill="white">
<path d="M98.6071 22.167L101.64 27.2201C101.674 27.5642 101.668 27.9112 101.622 28.2537L98.5891 23.2037C98.6346 22.8611 98.6407 22.5141 98.6071 22.1701"/>
</mask>
<path d="M98.6071 22.167L101.64 27.2201C101.674 27.5642 101.668 27.9112 101.622 28.2537L98.5891 23.2037C98.6346 22.8611 98.6407 22.5141 98.6071 22.1701" fill="#1B1D24"/>
<path d="M101.64 27.2201L102.138 27.1707L102.127 27.059L102.069 26.9628L101.64 27.2201ZM101.622 28.2537L101.194 28.5112L101.928 29.7332L102.118 28.3204L101.622 28.2537ZM98.5891 23.2037L98.0935 23.1378L98.0704 23.3112L98.1605 23.4611L98.5891 23.2037ZM98.1784 22.4243L101.212 27.4775L102.069 26.9628L99.0358 21.9097L98.1784 22.4243ZM101.143 27.2695C101.173 27.5749 101.168 27.883 101.127 28.187L102.118 28.3204C102.169 27.9394 102.176 27.5534 102.138 27.1707L101.143 27.2695ZM102.051 27.9963L99.0177 22.9462L98.1605 23.4611L101.194 28.5112L102.051 27.9963ZM99.0848 23.2695C99.1353 22.889 99.142 22.5037 99.1047 22.1215L98.1095 22.2187C98.1393 22.5246 98.134 22.8332 98.0935 23.1378L99.0848 23.2695Z" fill="#2E2F33" mask="url(#path-38-inside-15_2148_12510)"/>
<mask id="path-40-inside-16_2148_12510" fill="white">
<path d="M98.5891 23.2036L101.622 28.2557C101.597 28.4483 101.56 28.6392 101.512 28.8273C101.47 28.9967 101.419 29.1636 101.36 29.3275L98.3262 24.2754C98.3856 24.1112 98.4366 23.9439 98.4791 23.7741C98.5269 23.5864 98.5636 23.3959 98.5891 23.2036Z"/>
</mask>
<path d="M98.5891 23.2036L101.622 28.2557C101.597 28.4483 101.56 28.6392 101.512 28.8273C101.47 28.9967 101.419 29.1636 101.36 29.3275L98.3262 24.2754C98.3856 24.1112 98.4366 23.9439 98.4791 23.7741C98.5269 23.5864 98.5636 23.3959 98.5891 23.2036Z" fill="#1B1D24"/>
<path d="M101.622 28.2557L102.118 28.3215L102.141 28.1482L102.051 27.9984L101.622 28.2557ZM101.512 28.8273L101.028 28.7044L101.027 28.7065L101.512 28.8273ZM101.36 29.3275L100.932 29.585L101.474 30.4875L101.831 29.4971L101.36 29.3275ZM98.3262 24.2754L97.856 24.1054L97.7751 24.329L97.8975 24.5329L98.3262 24.2754ZM98.4791 23.7741L97.9946 23.6508L97.9941 23.6527L98.4791 23.7741ZM98.1604 23.461L101.194 28.5131L102.051 27.9984L99.0178 22.9462L98.1604 23.461ZM101.127 28.1899C101.104 28.3634 101.071 28.5352 101.028 28.7044L101.997 28.9502C102.049 28.7433 102.09 28.5333 102.118 28.3215L101.127 28.1899ZM101.027 28.7065C100.989 28.8594 100.943 29.0101 100.89 29.158L101.831 29.4971C101.896 29.3172 101.951 29.1339 101.998 28.9481L101.027 28.7065ZM101.789 29.0701L98.7548 24.018L97.8975 24.5329L100.932 29.585L101.789 29.0701ZM98.7964 24.4455C98.8615 24.2653 98.9175 24.0817 98.9642 23.8956L97.9941 23.6527C97.9557 23.806 97.9096 23.9571 97.856 24.1054L98.7964 24.4455ZM98.9637 23.8975C99.0163 23.6908 99.0567 23.481 99.0848 23.2693L98.0934 23.138C98.0705 23.3109 98.0375 23.4821 97.9946 23.6508L98.9637 23.8975Z" fill="#2E2F33" mask="url(#path-40-inside-16_2148_12510)"/>
<mask id="path-42-inside-17_2148_12510" fill="white">
<path d="M98.3261 24.2754L101.36 29.3275C101.233 29.6797 101.071 30.0177 100.877 30.3362L97.8442 25.28C98.0371 24.9613 98.1986 24.6233 98.3261 24.2712"/>
</mask>
<path d="M98.3261 24.2754L101.36 29.3275C101.233 29.6797 101.071 30.0177 100.877 30.3362L97.8442 25.28C98.0371 24.9613 98.1986 24.6233 98.3261 24.2712" fill="#1B1D24"/>
<path d="M101.36 29.3275L101.83 29.4979L101.911 29.2741L101.789 29.07L101.36 29.3275ZM100.877 30.3362L100.449 30.5935L100.875 31.3039L101.305 30.5957L100.877 30.3362ZM97.8442 25.28L97.4165 25.0211L97.2605 25.2789L97.4155 25.5372L97.8442 25.28ZM97.8975 24.5328L100.932 29.5849L101.789 29.07L98.7547 24.0179L97.8975 24.5328ZM100.89 29.1571C100.774 29.4784 100.626 29.7865 100.45 30.0768L101.305 30.5957C101.515 30.2488 101.692 29.881 101.83 29.4979L100.89 29.1571ZM101.306 30.079L98.273 25.0228L97.4155 25.5372L100.449 30.5935L101.306 30.079ZM98.272 25.5389C98.482 25.192 98.6576 24.8243 98.7962 24.4415L97.856 24.101C97.7396 24.4224 97.5923 24.7306 97.4165 25.0211L98.272 25.5389Z" fill="#2E2F33" mask="url(#path-42-inside-17_2148_12510)"/>
<mask id="path-44-inside-18_2148_12510" fill="white">
<path d="M96.7297 26.6465L99.7629 31.6986C99.641 31.8116 99.5146 31.9198 99.384 32.0231L96.3508 26.971C96.4808 26.8677 96.6078 26.7591 96.7297 26.6465Z"/>
</mask>
<path d="M96.7297 26.6465L99.7629 31.6986C99.641 31.8116 99.5146 31.9198 99.384 32.0231L96.3508 26.971C96.4808 26.8677 96.6078 26.7591 96.7297 26.6465Z" fill="#1B1D24"/>
<path d="M96.7297 26.6465L97.1584 26.3891L96.842 25.8621L96.3905 26.2792L96.7297 26.6465ZM99.7629 31.6986L100.103 32.0654L100.401 31.7894L100.192 31.4412L99.7629 31.6986ZM99.384 32.0231L98.9553 32.2805L99.2482 32.7682L99.6943 32.4152L99.384 32.0231ZM96.3508 26.971L96.0396 26.5797L95.6965 26.8526L95.9222 27.2284L96.3508 26.971ZM96.3011 26.9039L99.3342 31.956L100.192 31.4412L97.1584 26.3891L96.3011 26.9039ZM99.4231 31.3318C99.3107 31.436 99.1942 31.5357 99.0738 31.631L99.6943 32.4152C99.8351 32.3038 99.9712 32.1872 100.103 32.0654L99.4231 31.3318ZM99.8127 31.7658L96.7795 26.7137L95.9222 27.2284L98.9553 32.2805L99.8127 31.7658ZM96.662 27.3624C96.8012 27.2517 96.9376 27.1351 97.069 27.0138L96.3905 26.2792C96.2779 26.3832 96.1603 26.4837 96.0396 26.5797L96.662 27.3624Z" fill="#2E2F33" mask="url(#path-44-inside-18_2148_12510)"/>
<mask id="path-46-inside-19_2148_12510" fill="white">
<path d="M95.953 27.2634L98.9862 32.3155C98.8475 32.4092 98.7056 32.4978 98.5603 32.5812L95.5271 27.5291C95.6724 27.4464 95.8144 27.3578 95.953 27.2634Z"/>
</mask>
<path d="M95.953 27.2634L98.9862 32.3155C98.8475 32.4092 98.7056 32.4978 98.5603 32.5812L95.5271 27.5291C95.6724 27.4464 95.8144 27.3578 95.953 27.2634Z" fill="#1B1D24"/>
<path d="M98.9862 32.3155L99.2662 32.7298L99.6588 32.4644L99.4149 32.0582L98.9862 32.3155ZM98.5603 32.5812L98.1316 32.8385L98.384 33.2588L98.8091 33.0148L98.5603 32.5812ZM95.5271 27.5291L95.2798 27.0945L94.835 27.3476L95.0984 27.7864L95.5271 27.5291ZM95.5243 27.5208L98.5575 32.5729L99.4149 32.0582L96.3817 27.0061L95.5243 27.5208ZM98.7062 31.9013C98.5777 31.9881 98.4461 32.0702 98.3114 32.1475L98.8091 33.0148C98.965 32.9254 99.1174 32.8303 99.2662 32.7298L98.7062 31.9013ZM98.989 32.3238L95.9558 27.2717L95.0984 27.7864L98.1316 32.8385L98.989 32.3238ZM95.7744 27.9636C95.9314 27.8743 96.0847 27.7786 96.2344 27.6767L95.6716 26.8501C95.544 26.937 95.4134 27.0185 95.2798 27.0945L95.7744 27.9636Z" fill="#2E2F33" mask="url(#path-46-inside-19_2148_12510)"/>
<mask id="path-48-inside-20_2148_12510" fill="white">
<path d="M95.0603 27.7722L98.0995 32.8254C97.9222 32.9087 97.7416 32.9835 97.5576 33.0496L94.5244 27.9975C94.7084 27.9314 94.8883 27.8559 95.0653 27.7733"/>
</mask>
<path d="M95.0603 27.7722L98.0995 32.8254C97.9222 32.9087 97.7416 32.9835 97.5576 33.0496L94.5244 27.9975C94.7084 27.9314 94.8883 27.8559 95.0653 27.7733" fill="#1B1D24"/>
<path d="M98.0995 32.8254L98.3122 33.2778L98.8133 33.0422L98.5279 32.5677L98.0995 32.8254ZM97.5576 33.0496L97.1289 33.307L97.3403 33.6591L97.7268 33.5201L97.5576 33.0496ZM94.5244 27.9975L94.3552 27.527L93.7824 27.733L94.0957 28.2549L94.5244 27.9975ZM94.6318 28.0299L97.671 33.0831L98.5279 32.5677L95.4887 27.5145L94.6318 28.0299ZM97.8867 32.3729C97.7236 32.4496 97.5575 32.5183 97.3884 32.5791L97.7268 33.5201C97.9256 33.4487 98.1208 33.3679 98.3122 33.2778L97.8867 32.3729ZM97.9863 32.7923L94.9531 27.7402L94.0957 28.2549L97.1289 33.307L97.9863 32.7923ZM94.6936 28.468C94.8937 28.3961 95.0879 28.3146 95.2769 28.2262L94.8536 27.3203C94.6887 27.3973 94.523 27.4667 94.3552 27.527L94.6936 28.468Z" fill="#2E2F33" mask="url(#path-48-inside-20_2148_12510)"/>
<mask id="path-50-inside-21_2148_12510" fill="white">
<path d="M93.8464 28.1968L96.8796 33.2489C96.3594 33.3725 95.825 33.4199 95.292 33.3895C93.7765 33.2996 92.5838 32.5626 91.9289 31.4712L88.8958 26.417C89.5506 27.5084 90.7433 28.2454 92.2589 28.3353C92.7918 28.3657 93.3262 28.3184 93.8464 28.1947"/>
</mask>
<path d="M93.8464 28.1968L96.8796 33.2489C96.3594 33.3725 95.825 33.4199 95.292 33.3895C93.7765 33.2996 92.5838 32.5626 91.9289 31.4712L88.8958 26.417C89.5506 27.5084 90.7433 28.2454 92.2589 28.3353C92.7918 28.3657 93.3262 28.3184 93.8464 28.1947" fill="#1B1D24"/>
<path d="M96.8796 33.2489L96.9952 33.7354L97.66 33.5774L97.3083 32.9915L96.8796 33.2489ZM95.292 33.3895L95.2624 33.8886L95.2636 33.8887L95.292 33.3895ZM91.9289 31.4712L92.3577 31.2139L92.3577 31.2139L91.9289 31.4712ZM88.8958 26.417L89.3245 26.1597L88.467 26.6742L88.8958 26.417ZM92.2589 28.3353L92.2292 28.8344L92.2304 28.8345L92.2589 28.3353ZM93.4178 28.4542L96.4509 33.5063L97.3083 32.9915L94.2751 27.9394L93.4178 28.4542ZM96.764 32.7625C96.2909 32.8749 95.805 32.9179 95.3205 32.8903L95.2636 33.8887C95.845 33.9218 96.428 33.8702 96.9952 33.7354L96.764 32.7625ZM95.3217 32.8904C93.9578 32.8094 92.921 32.1529 92.3577 31.2139L91.5002 31.7284C92.2465 32.9723 93.5951 33.7897 95.2624 33.8886L95.3217 32.8904ZM92.3577 31.2139L89.3245 26.1597L88.467 26.6743L91.5002 31.7285L92.3577 31.2139ZM88.467 26.6742C89.2133 27.9182 90.5619 28.7355 92.2292 28.8344L92.2885 27.8362C90.9246 27.7553 89.8878 27.0987 89.3245 26.1598L88.467 26.6742ZM92.2304 28.8345C92.8118 28.8677 93.3948 28.816 93.9621 28.6812L93.7308 27.7083C93.2577 27.8207 92.7718 27.8637 92.2873 27.8361L92.2304 28.8345Z" fill="#2E2F33" mask="url(#path-50-inside-21_2148_12510)"/>
<mask id="path-52-inside-22_2148_12510" fill="white">
<path d="M111.833 11.7102L114.867 16.7623C115.013 17.0052 115.152 17.2533 115.285 17.5044L112.25 12.4523C112.117 12.2001 111.978 11.9528 111.833 11.7102Z"/>
</mask>
<path d="M111.833 11.7102L114.867 16.7623C115.013 17.0052 115.152 17.2533 115.285 17.5044L112.25 12.4523C112.117 12.2001 111.978 11.9528 111.833 11.7102Z" fill="#1B1D24"/>
<path d="M111.833 11.7102L112.262 11.4528L111.404 11.9663L111.833 11.7102ZM114.867 16.7623L114.438 17.0197L114.438 17.0199L114.867 16.7623ZM115.285 17.5044L114.856 17.7618L115.726 17.2705L115.285 17.5044ZM112.25 12.4523L111.808 12.686L111.815 12.698L111.822 12.7097L112.25 12.4523ZM111.405 11.9676L114.438 17.0197L115.295 16.5049L112.262 11.4528L111.405 11.9676ZM114.438 17.0199C114.579 17.2541 114.713 17.4942 114.843 17.7384L115.726 17.2705C115.59 17.0124 115.446 16.7563 115.295 16.5048L114.438 17.0199ZM115.713 17.247L112.679 12.1949L111.822 12.7097L114.856 17.7618L115.713 17.247ZM112.692 12.2187C112.555 11.959 112.412 11.7041 112.263 11.4541L111.404 11.9663C111.544 12.2014 111.679 12.4413 111.808 12.686L112.692 12.2187Z" fill="#2E2F33" mask="url(#path-52-inside-22_2148_12510)"/>
<mask id="path-54-inside-23_2148_12510" fill="white">
<path d="M112.25 12.4524L115.285 17.5045C115.555 18.0195 115.797 18.5503 116.008 19.0941L112.974 14.042C112.763 13.498 112.522 12.9672 112.25 12.4524Z"/>
</mask>
<path d="M112.25 12.4524L115.285 17.5045C115.555 18.0195 115.797 18.5503 116.008 19.0941L112.974 14.042C112.763 13.498 112.522 12.9672 112.25 12.4524Z" fill="#1B1D24"/>
<path d="M115.285 17.5045L115.727 17.2718L115.721 17.2592L115.713 17.2471L115.285 17.5045ZM116.008 19.0941L115.58 19.3516L116.475 18.913L116.008 19.0941ZM112.974 14.042L112.508 14.2228L112.524 14.2627L112.546 14.2995L112.974 14.042ZM111.822 12.7098L114.856 17.7619L115.713 17.2471L112.679 12.195L111.822 12.7098ZM114.842 17.7372C115.104 18.2354 115.338 18.7489 115.542 19.2753L116.475 18.913C116.256 18.3516 116.007 17.8036 115.727 17.2718L114.842 17.7372ZM116.437 18.8367L113.403 13.7846L112.546 14.2995L115.58 19.3516L116.437 18.8367ZM113.44 13.8613C113.223 13.2994 112.973 12.7511 112.693 12.2194L111.808 12.6854C112.07 13.1832 112.304 13.6965 112.508 14.2228L113.44 13.8613Z" fill="#2E2F33" mask="url(#path-54-inside-23_2148_12510)"/>
<mask id="path-56-inside-24_2148_12510" fill="white">
<path d="M112.974 14.0417L116.008 19.0938C116.243 19.7004 116.441 20.3218 116.599 20.9543L113.565 15.898C113.407 15.2654 113.21 14.6439 112.974 14.0376"/>
</mask>
<path d="M112.974 14.0417L116.008 19.0938C116.243 19.7004 116.441 20.3218 116.599 20.9543L113.565 15.898C113.407 15.2654 113.21 14.6439 112.974 14.0376" fill="#1B1D24"/>
<path d="M116.008 19.0938L116.475 18.9132L116.459 18.8732L116.437 18.8364L116.008 19.0938ZM116.599 20.9543L116.17 21.2115L117.084 20.8328L116.599 20.9543ZM113.565 15.898L113.08 16.0192L113.098 16.0914L113.136 16.1553L113.565 15.898ZM112.545 14.2992L115.58 19.3513L116.437 18.8364L113.403 13.7843L112.545 14.2992ZM115.542 19.2745C115.77 19.8617 115.961 20.4633 116.114 21.0758L117.084 20.8328C116.921 20.1802 116.717 19.539 116.475 18.9132L115.542 19.2745ZM117.028 20.697L113.994 15.6408L113.136 16.1553L116.17 21.2115L117.028 20.697ZM114.05 15.7769C113.887 15.1239 113.683 14.4825 113.44 13.8566L112.508 14.2186C112.736 14.8054 112.927 15.4068 113.08 16.0192L114.05 15.7769Z" fill="#2E2F33" mask="url(#path-56-inside-24_2148_12510)"/>
<mask id="path-58-inside-25_2148_12510" fill="white">
<path d="M113.565 15.8984L116.599 20.9505C116.713 21.4063 116.809 21.8704 116.884 22.3417L113.851 17.2896C113.776 16.8176 113.681 16.3539 113.565 15.8984Z"/>
</mask>
<path d="M113.565 15.8984L116.599 20.9505C116.713 21.4063 116.809 21.8704 116.884 22.3417L113.851 17.2896C113.776 16.8176 113.681 16.3539 113.565 15.8984Z" fill="#1B1D24"/>
<path d="M113.565 15.8984L113.994 15.641L113.081 16.0218L113.565 15.8984ZM116.599 20.9505L117.084 20.8293L117.066 20.757L117.028 20.6931L116.599 20.9505ZM116.884 22.3417L116.456 22.5991L117.378 22.2632L116.884 22.3417ZM113.851 17.2896L113.357 17.3677L113.372 17.4637L113.422 17.547L113.851 17.2896ZM113.137 16.1559L116.171 21.208L117.028 20.6931L113.994 15.641L113.137 16.1559ZM116.114 21.0718C116.225 21.5142 116.318 21.9641 116.391 22.4203L117.378 22.2632C117.301 21.7768 117.202 21.2984 117.084 20.8293L116.114 21.0718ZM117.313 22.0844L114.28 17.0323L113.422 17.547L116.456 22.5991L117.313 22.0844ZM114.345 17.2115C114.268 16.7246 114.17 16.2457 114.05 15.7751L113.081 16.0218C113.193 16.4621 113.285 16.9107 113.357 17.3677L114.345 17.2115Z" fill="#2E2F33" mask="url(#path-58-inside-25_2148_12510)"/>
<path d="M114.178 22.2068C114.179 22.2 114.18 22.1932 114.181 22.1863L116.784 26.5213C116.783 26.5287 116.782 26.5362 116.782 26.5437L114.178 22.2068Z" fill="#1B1D24" stroke="#2E2F33" stroke-width="0.5"/>
<mask id="path-61-inside-26_2148_12510" fill="white">
<path d="M113.92 22.262L116.953 27.3151C116.852 28.1252 116.701 28.9279 116.501 29.7182C116.322 30.4269 116.107 31.1252 115.855 31.8101L112.822 26.758C113.074 26.0732 113.289 25.3749 113.467 24.6661C113.668 23.8755 113.819 23.0725 113.92 22.262Z"/>
</mask>
<path d="M113.92 22.262L116.953 27.3151C116.852 28.1252 116.701 28.9279 116.501 29.7182C116.322 30.4269 116.107 31.1252 115.855 31.8101L112.822 26.758C113.074 26.0732 113.289 25.3749 113.467 24.6661C113.668 23.8755 113.819 23.0725 113.92 22.262Z" fill="#1B1D24"/>
<path d="M116.953 27.3151L117.449 27.3771L117.471 27.2058L117.382 27.0578L116.953 27.3151ZM116.501 29.7182L116.017 29.5956L116.017 29.5957L116.501 29.7182ZM115.855 31.8101L115.427 32.0675L115.965 32.9637L116.325 31.9823L115.855 31.8101ZM112.822 26.758L112.353 26.5858L112.27 26.8103L112.394 27.0154L112.822 26.758ZM113.467 24.6661L112.982 24.5432L112.982 24.5441L113.467 24.6661ZM113.491 22.5193L116.524 27.5724L117.382 27.0578L114.349 22.0046L113.491 22.5193ZM116.457 27.2531C116.358 28.0429 116.211 28.8253 116.017 29.5956L116.986 29.8407C117.191 29.0304 117.346 28.2076 117.449 27.3771L116.457 27.2531ZM116.017 29.5957C115.842 30.2877 115.631 30.9694 115.386 31.6379L116.325 31.9823C116.582 31.2811 116.803 30.5661 116.986 29.8406L116.017 29.5957ZM116.284 31.5527L113.251 26.5006L112.394 27.0154L115.427 32.0675L116.284 31.5527ZM113.292 26.9302C113.549 26.2289 113.769 25.5138 113.952 24.788L112.982 24.5441C112.808 25.2359 112.598 25.9175 112.353 26.5858L113.292 26.9302ZM113.952 24.789C114.157 23.9783 114.312 23.1549 114.416 22.3239L113.424 22.2001C113.325 22.9901 113.178 23.7727 112.982 24.5432L113.952 24.789Z" fill="#2E2F33" mask="url(#path-61-inside-26_2148_12510)"/>
<path d="M112.653 27.8758C112.729 27.6954 112.803 27.5136 112.874 27.3303L115.58 31.8364C115.511 32.0225 115.44 32.208 115.366 32.3929L112.653 27.8758Z" fill="#1B1D24" stroke="#2E2F33" stroke-width="0.5"/>
<path d="M112.353 28.1383L118.992 28.5338L118.102 32.0898L110.193 31.6195L110.052 31.6111L109.972 31.7277C105.255 38.6111 96.8897 43.1608 88.5988 42.6673C80.3208 42.1747 74.5149 36.8033 73.3639 29.6259L73.3321 29.4278L73.1319 29.4159L65.3174 28.9511L66.2138 25.3941L72.9462 25.7952L73.1907 25.8098L73.2103 25.5656C73.2974 24.4799 73.4754 23.4041 73.7423 22.3503C74.0189 21.2596 74.3808 20.194 74.8243 19.164L74.9652 18.8368L74.6095 18.8156L67.9717 18.4201L68.8681 14.864L76.7773 15.3334L76.9184 15.3418L76.9983 15.2251C81.7149 8.34283 90.0806 3.7931 98.3715 4.28655C106.649 4.77923 112.455 10.1506 113.607 17.328L113.639 17.526L113.839 17.538L121.651 18.0037L120.755 21.5598L114.021 21.1587L113.776 21.1441L113.757 21.3885C113.671 22.4741 113.493 23.5499 113.225 24.6033C112.947 25.6942 112.584 26.7598 112.138 27.7895L111.996 28.1171L112.353 28.1383ZM89.3869 39.9262C98.7046 40.4812 108.097 33.5926 110.382 24.5287C111.526 19.9886 110.673 15.7508 108.351 12.5757C106.029 9.40053 102.251 7.30671 97.5835 7.02769C88.2646 6.47064 78.8723 13.3624 76.5876 22.4283C75.4432 26.9695 76.2968 31.2072 78.6193 34.3817C80.9418 37.5562 84.7196 39.6488 89.3869 39.9262Z" fill="#1B1D24" stroke="#2E2F33" stroke-width="0.5"/>
<path d="M97.8603 20.6667C99.054 22.6548 98.1395 25.5639 95.6842 27.1396C93.2289 28.7154 90.3014 28.2719 89.1077 26.2838C87.9139 24.2956 88.8284 21.3865 91.2838 19.8108C93.7391 18.2351 96.6665 18.6785 97.8603 20.6667Z" fill="#1B1D24" stroke="#2E2F33" stroke-width="0.5"/>
<path d="M114.464 21.6869L120.8 22.0633L123.521 26.597L117.186 26.2196L114.464 21.6869Z" fill="#1B1D24" stroke="#2E2F33" stroke-width="0.5"/>
<path d="M121.214 21.7821L122.062 18.4167L124.732 22.864L123.884 26.2303L121.214 21.7821Z" fill="#1B1D24" stroke="#2E2F33" stroke-width="0.5"/>
<mask id="path-68-inside-27_2148_12510" fill="white">
<path d="M110.176 31.8689L113.209 36.922C112.961 37.2838 112.703 37.639 112.436 37.9876L109.402 32.9355C109.668 32.5862 109.926 32.2306 110.176 31.8689Z"/>
</mask>
<path d="M110.176 31.8689L113.209 36.922C112.961 37.2838 112.703 37.639 112.436 37.9876L109.402 32.9355C109.668 32.5862 109.926 32.2306 110.176 31.8689Z" fill="#1B1D24"/>
<path d="M113.209 36.922L113.621 37.2047L113.803 36.9399L113.638 36.6647L113.209 36.922ZM112.436 37.9876L112.007 38.2451L112.386 38.8751L112.833 38.2918L112.436 37.9876ZM109.402 32.9355L109.004 32.6322L108.798 32.902L108.973 33.193L109.402 32.9355ZM109.747 32.1262L112.78 37.1794L113.638 36.6647L110.604 31.6116L109.747 32.1262ZM112.796 36.6394C112.553 36.9938 112.301 37.3418 112.039 37.6835L112.833 38.2918C113.106 37.9362 113.368 37.5738 113.621 37.2047L112.796 36.6394ZM112.865 37.7302L109.83 32.6781L108.973 33.193L112.007 38.2451L112.865 37.7302ZM109.799 33.2389C110.071 32.8831 110.334 32.521 110.587 32.1526L109.764 31.5852C109.519 31.9403 109.266 32.2893 109.004 32.6322L109.799 33.2389Z" fill="#2E2F33" mask="url(#path-68-inside-27_2148_12510)"/>
<mask id="path-70-inside-28_2148_12510" fill="white">
<path d="M109.402 32.9355L112.436 37.9928C111.975 38.593 111.487 39.1728 110.973 39.7323L107.939 34.6751C108.453 34.1169 108.941 33.5371 109.402 32.9355Z"/>
</mask>
<path d="M109.402 32.9355L112.436 37.9928C111.975 38.593 111.487 39.1728 110.973 39.7323L107.939 34.6751C108.453 34.1169 108.941 33.5371 109.402 32.9355Z" fill="#1B1D24"/>
<path d="M112.436 37.9928L112.833 38.2975L113.04 38.0275L112.865 37.7356L112.436 37.9928ZM110.973 39.7323L110.544 39.9895L110.888 40.5631L111.341 40.0708L110.973 39.7323ZM107.939 34.6751L107.572 34.3364L107.318 34.6115L107.511 34.9322L107.939 34.6751ZM108.973 33.1928L112.007 38.2501L112.865 37.7356L109.831 32.6783L108.973 33.1928ZM112.04 37.6882C111.588 38.2766 111.109 38.8452 110.605 39.3939L111.341 40.0708C111.865 39.5005 112.362 38.9094 112.833 38.2975L112.04 37.6882ZM111.401 39.4751L108.368 34.4179L107.511 34.9322L110.544 39.9895L111.401 39.4751ZM108.307 35.0137C108.831 34.4446 109.329 33.8532 109.799 33.2398L109.005 32.6313C108.553 33.2209 108.075 33.7893 107.572 34.3364L108.307 35.0137Z" fill="#2E2F33" mask="url(#path-70-inside-28_2148_12510)"/>
<mask id="path-72-inside-29_2148_12510" fill="white">
<path d="M107.94 34.6753L110.973 39.7274C110.506 40.238 110.016 40.73 109.501 41.2033L106.467 36.1512C106.978 35.6792 107.468 35.1873 107.94 34.6753Z"/>
</mask>
<path d="M107.94 34.6753L110.973 39.7274C110.506 40.238 110.016 40.73 109.501 41.2033L106.467 36.1512C106.978 35.6792 107.468 35.1873 107.94 34.6753Z" fill="#1B1D24"/>
<path d="M110.973 39.7274L111.342 40.0647L111.593 39.7895L111.402 39.47L110.973 39.7274ZM109.501 41.2033L109.073 41.4608L109.388 41.9866L109.84 41.5713L109.501 41.2033ZM106.467 36.1512L106.128 35.7841L105.829 36.0601L106.038 36.4087L106.467 36.1512ZM107.511 34.9327L110.544 39.9848L111.402 39.47L108.368 34.4179L107.511 34.9327ZM110.604 39.3901C110.147 39.8899 109.667 40.3717 109.163 40.8354L109.84 41.5713C110.365 41.0882 110.866 40.586 111.342 40.0647L110.604 39.3901ZM109.93 40.9459L106.896 35.8938L106.038 36.4087L109.073 41.4608L109.93 40.9459ZM106.806 36.5184C107.327 36.0372 107.827 35.5357 108.308 35.0139L107.572 34.3367C107.11 34.8388 106.628 35.3212 106.128 35.7841L106.806 36.5184Z" fill="#2E2F33" mask="url(#path-72-inside-29_2148_12510)"/>
<mask id="path-74-inside-30_2148_12510" fill="white">
<path d="M106.467 36.1511L109.501 41.2032C109.011 41.6559 108.505 42.0897 107.982 42.5045L104.949 37.4524C105.471 37.039 105.977 36.6052 106.467 36.1511Z"/>
</mask>
<path d="M106.467 36.1511L109.501 41.2032C109.011 41.6559 108.505 42.0897 107.982 42.5045L104.949 37.4524C105.471 37.039 105.977 36.6052 106.467 36.1511Z" fill="#1B1D24"/>
<path d="M109.501 41.2032L109.84 41.5704L110.139 41.2944L109.93 40.9458L109.501 41.2032ZM107.982 42.5045L107.554 42.7619L107.847 43.2504L108.293 42.8961L107.982 42.5045ZM104.949 37.4524L104.639 37.0605L104.294 37.3332L104.521 37.7098L104.949 37.4524ZM106.038 36.4086L109.072 41.4607L109.93 40.9458L106.895 35.8937L106.038 36.4086ZM109.162 40.836C108.681 41.2802 108.184 41.7059 107.672 42.1129L108.293 42.8961C108.826 42.4735 109.341 42.0316 109.84 41.5704L109.162 40.836ZM108.411 42.2471L105.378 37.195L104.521 37.7098L107.554 42.7619L108.411 42.2471ZM105.26 37.8443C105.792 37.4228 106.307 36.9807 106.807 36.5178L106.127 35.7844C105.646 36.2298 105.15 36.6551 104.639 37.0605L105.26 37.8443Z" fill="#2E2F33" mask="url(#path-74-inside-30_2148_12510)"/>
<mask id="path-76-inside-31_2148_12510" fill="white">
<path d="M104.95 37.4524L107.983 42.5045C107.467 42.9138 106.938 43.3048 106.397 43.6776L103.364 38.6255C103.908 38.2555 104.438 37.8658 104.955 37.4565"/>
</mask>
<path d="M104.95 37.4524L107.983 42.5045C107.467 42.9138 106.938 43.3048 106.397 43.6776L103.364 38.6255C103.908 38.2555 104.438 37.8658 104.955 37.4565" fill="#1B1D24"/>
<path d="M107.983 42.5045L108.294 42.8962L108.637 42.6234L108.411 42.2471L107.983 42.5045ZM106.397 43.6776L105.969 43.935L106.243 44.3913L106.681 44.0894L106.397 43.6776ZM103.364 38.6255L103.083 38.2121L102.692 38.4778L102.935 38.8829L103.364 38.6255ZM104.521 37.7098L107.554 42.7619L108.411 42.2471L105.378 37.195L104.521 37.7098ZM107.672 42.1128C107.165 42.5151 106.645 42.8995 106.114 43.2658L106.681 44.0894C107.231 43.7102 107.769 43.3125 108.294 42.8962L107.672 42.1128ZM106.826 43.4202L103.793 38.3681L102.935 38.8829L105.969 43.935L106.826 43.4202ZM103.645 39.0389C104.199 38.662 104.739 38.2652 105.265 37.8484L104.644 37.0646C104.137 37.4664 103.617 37.8489 103.083 38.2121L103.645 39.0389Z" fill="#2E2F33" mask="url(#path-76-inside-31_2148_12510)"/>
<mask id="path-78-inside-32_2148_12510" fill="white">
<path d="M103.359 38.6213L106.397 43.6776C105.843 44.0538 105.276 44.408 104.697 44.7401L101.664 39.688C102.244 39.3559 102.81 39.0017 103.364 38.6255"/>
</mask>
<path d="M103.359 38.6213L106.397 43.6776C105.843 44.0538 105.276 44.408 104.697 44.7401L101.664 39.688C102.244 39.3559 102.81 39.0017 103.364 38.6255" fill="#1B1D24"/>
<path d="M106.397 43.6776L106.678 44.0912L107.069 43.8254L106.825 43.42L106.397 43.6776ZM104.697 44.7401L104.269 44.9975L104.521 45.4176L104.946 45.1738L104.697 44.7401ZM101.664 39.688L101.416 39.2541L100.973 39.5078L101.235 39.9454L101.664 39.688ZM102.93 38.8789L105.968 43.9351L106.825 43.42L103.787 38.3638L102.93 38.8789ZM106.116 43.264C105.572 43.6331 105.017 43.9805 104.449 44.3063L104.946 45.1738C105.536 44.8354 106.113 44.4745 106.678 44.0912L106.116 43.264ZM105.126 44.4827L102.093 39.4306L101.235 39.9454L104.269 44.9975L105.126 44.4827ZM101.913 40.1219C102.504 39.7833 103.081 39.4224 103.645 39.0389L103.082 38.212C102.54 38.581 101.984 38.9284 101.416 39.2541L101.913 40.1219Z" fill="#2E2F33" mask="url(#path-78-inside-32_2148_12510)"/>
<path d="M100.143 40.7638C100.625 40.5316 101.1 40.2842 101.567 40.0215L104.343 44.6449C103.876 44.9074 103.401 45.1545 102.917 45.3863L100.143 40.7638Z" fill="#1B1D24" stroke="#2E2F33" stroke-width="0.5"/>
<path d="M98.006 41.6797C98.5738 41.4667 99.1345 41.2329 99.6881 40.9781L102.462 45.5997C101.909 45.8525 101.347 46.0845 100.777 46.2958L98.006 41.6797Z" fill="#1B1D24" stroke="#2E2F33" stroke-width="0.5"/>
<mask id="path-82-inside-33_2148_12510" fill="white">
<path d="M97.6361 41.5495L100.669 46.6016C99.7874 46.9194 98.8889 47.1855 97.978 47.3985L94.9448 42.3464C95.8557 42.1315 96.7542 41.8641 97.6361 41.5454"/>
</mask>
<path d="M97.6361 41.5495L100.669 46.6016C99.7874 46.9194 98.8889 47.1855 97.978 47.3985L94.9448 42.3464C95.8557 42.1315 96.7542 41.8641 97.6361 41.5454" fill="#1B1D24"/>
<path d="M100.669 46.6016L100.839 47.072L101.411 46.8658L101.098 46.3443L100.669 46.6016ZM97.978 47.3985L97.5493 47.6559L97.737 47.9684L98.0919 47.8854L97.978 47.3985ZM94.9448 42.3464L94.83 41.8598L94.1638 42.017L94.5161 42.6038L94.9448 42.3464ZM97.2074 41.8069L100.241 46.859L101.098 46.3443L98.0648 41.2922L97.2074 41.8069ZM100.5 46.1313C99.6361 46.4425 98.7561 46.703 97.8641 46.9117L98.0919 47.8854C99.0217 47.6679 99.9388 47.3964 100.839 47.072L100.5 46.1313ZM98.4067 47.1412L95.3735 42.0891L94.5161 42.6038L97.5493 47.6559L98.4067 47.1412ZM95.0596 42.8331C95.9892 42.6138 96.9061 42.3409 97.806 42.0156L97.4662 41.0752C96.6022 41.3874 95.7222 41.6493 94.83 41.8598L95.0596 42.8331Z" fill="#2E2F33" mask="url(#path-82-inside-33_2148_12510)"/>
<mask id="path-84-inside-34_2148_12510" fill="white">
<path d="M94.945 42.3502L97.9782 47.3982C95.894 47.8946 93.7525 48.0852 91.6169 47.9645C85.5555 47.6049 80.7868 44.6571 78.1665 40.2923L75.1333 35.2402C77.7526 39.604 82.5223 42.5517 88.5827 42.9124C90.7187 43.0332 92.8605 42.8426 94.945 42.346"/>
</mask>
<path d="M94.945 42.3502L97.9782 47.3982C95.894 47.8946 93.7525 48.0852 91.6169 47.9645C85.5555 47.6049 80.7868 44.6571 78.1665 40.2923L75.1333 35.2402C77.7526 39.604 82.5223 42.5517 88.5827 42.9124C90.7187 43.0332 92.8605 42.8426 94.945 42.346" fill="#1B1D24"/>
<path d="M97.9782 47.3982L98.0941 47.8845L98.7587 47.7263L98.4068 47.1406L97.9782 47.3982ZM91.6169 47.9645L91.5873 48.4637L91.5887 48.4638L91.6169 47.9645ZM78.1665 40.2923L78.5952 40.035L78.5952 40.035L78.1665 40.2923ZM75.1333 35.2402L75.562 34.9829L74.7046 35.4976L75.1333 35.2402ZM88.5827 42.9124L88.553 43.4116L88.5545 43.4116L88.5827 42.9124ZM94.5164 42.6077L97.5496 47.6557L98.4068 47.1406L95.3736 42.0927L94.5164 42.6077ZM97.8624 46.9118C95.8252 47.397 93.7323 47.5833 91.6451 47.4653L91.5887 48.4638C93.7728 48.5872 95.9628 48.3922 98.0941 47.8845L97.8624 46.9118ZM91.6465 47.4654C85.737 47.1148 81.124 44.2475 78.5952 40.035L77.7378 40.5497C80.4495 45.0668 85.3741 48.095 91.5873 48.4637L91.6465 47.4654ZM78.5952 40.035L75.562 34.9829L74.7046 35.4976L77.7378 40.5497L78.5952 40.035ZM74.7046 35.4976C77.4154 40.0137 82.3409 43.0418 88.553 43.4116L88.6124 42.4133C82.7037 42.0616 78.0898 39.1943 75.562 34.9829L74.7046 35.4976ZM88.5545 43.4116C90.7389 43.5352 92.9292 43.3402 95.0609 42.8324L94.8292 41.8597C92.7917 42.345 90.6984 42.5313 88.6109 42.4132L88.5545 43.4116Z" fill="#2E2F33" mask="url(#path-84-inside-34_2148_12510)"/>
<path d="M110.634 32.1466L118.145 32.5933L120.867 37.127L113.356 36.6803L110.634 32.1466Z" fill="#1B1D24" stroke="#2E2F33" stroke-width="0.5"/>
<path d="M118.56 32.3122L119.408 28.9468L122.078 33.394L121.23 36.7603L118.56 32.3122Z" fill="#1B1D24" stroke="#2E2F33" stroke-width="0.5"/>
<path d="M23.9185 7.02539L22.0414 10.6199L43.8988 23.9823L45.7744 20.3878L23.9185 7.02539Z" fill="#1B1D24" stroke="#2E2F33"/>
<path d="M23.856 7.11916L21.9789 10.7137C22.0001 10.6805 22.029 10.6684 22.0396 10.6488L23.9167 7.0603C23.9061 7.07992 23.8773 7.0935 23.856 7.12519" fill="#1B1D24"/>
<path d="M23.856 7.11916L21.9789 10.7137C22.0001 10.6805 22.029 10.6684 22.0396 10.6488L23.9167 7.0603C23.9061 7.07992 23.8773 7.0935 23.856 7.12519" stroke="#2E2F33"/>
<path d="M18.3049 2.56519L16.4293 6.15516C16.3898 6.2291 16.3564 6.30606 16.3245 6.38L18.2017 2.79003C18.232 2.71458 18.267 2.63913 18.3049 2.56519Z" fill="#1B1D24" stroke="#2E2F33"/>
<path d="M18.2019 2.78979L16.3248 6.38429C16.2745 6.50738 16.2333 6.63397 16.2018 6.76306L18.0789 3.17007C18.1103 3.04043 18.1514 2.91331 18.2019 2.78979Z" fill="#1B1D24"/>
<path d="M18.2019 2.78979L16.3248 6.38429C16.2745 6.50737 16.2333 6.63397 16.2018 6.76306L18.0789 3.17007C18.1103 3.04043 18.1514 2.91331 18.2019 2.78979" stroke="#2E2F33"/>
<path d="M18.0786 3.17005L16.2015 6.75852C16.1605 6.92939 16.1355 7.10368 16.1271 7.27914L18.0042 3.68463C18.0126 3.50966 18.0375 3.33586 18.0786 3.16553" fill="#1B1D24"/>
<path d="M18.0786 3.17005L16.2015 6.75852C16.1605 6.92939 16.1355 7.10368 16.1271 7.27914L18.0042 3.68463C18.0126 3.50966 18.0375 3.33586 18.0786 3.16553" stroke="#2E2F33"/>
<path d="M18.0044 3.68921L16.1273 7.28371C16.1158 7.64191 16.1672 7.99935 16.2792 8.34003C16.3367 8.51929 16.4104 8.69302 16.4994 8.85914L18.375 5.26463C18.2869 5.0983 18.2137 4.9246 18.1563 4.74553C18.0442 4.4049 17.9928 4.04742 18.0044 3.68921Z" fill="#1B1D24" stroke="#2E2F33"/>
<path d="M18.3691 5.27222L16.4935 8.87125C16.6021 9.07282 16.7265 9.26556 16.8656 9.4477L18.7351 5.85319C18.5955 5.67109 18.4706 5.47834 18.3615 5.27674" fill="#1B1D24"/>
<path d="M18.3691 5.27222L16.4935 8.87125C16.6021 9.07282 16.7265 9.26556 16.8656 9.4477L18.7351 5.85319C18.5955 5.67109 18.4706 5.47834 18.3615 5.27674" stroke="#2E2F33"/>
<path d="M18.7348 5.85316L16.8577 9.44766C16.9002 9.50501 16.9443 9.56084 16.9883 9.61667L18.873 6.01915C18.8275 5.96181 18.785 5.90598 18.7424 5.84863" fill="#1B1D24"/>
<path d="M18.7348 5.85316L16.8577 9.44766C16.9002 9.50501 16.9443 9.56084 16.9883 9.61667L18.873 6.01915C18.8275 5.96181 18.785 5.90598 18.7424 5.84863" stroke="#2E2F33"/>
<path d="M21.2059 7.44499L19.3288 11.0395C19.3438 11.0365 19.3593 11.0365 19.3743 11.0395L21.2515 7.44499C21.2364 7.44217 21.221 7.44217 21.2059 7.44499Z" fill="#1B1D24"/>
<path d="M21.2059 7.44499L19.3288 11.0395C19.3438 11.0365 19.3593 11.0365 19.3743 11.0395L21.2515 7.44499C21.2364 7.44217 21.221 7.44217 21.2059 7.44499" stroke="#2E2F33"/>
<path d="M21.2515 7.44971L19.3743 11.0442L19.429 11.0578L21.3062 7.46329L21.2515 7.44971Z" fill="#1B1D24" stroke="#2E2F33"/>
<path d="M21.306 7.46338L19.4289 11.0579C19.444 11.06 19.4593 11.06 19.4744 11.0579L21.3516 7.46791C21.3365 7.47087 21.321 7.47087 21.306 7.46791" fill="#1B1D24"/>
<path d="M21.306 7.46338L19.4289 11.0579C19.444 11.06 19.4593 11.06 19.4744 11.0579L21.3516 7.46791C21.3365 7.47087 21.321 7.47087 21.306 7.46791" stroke="#2E2F33"/>
<path d="M45.7684 20.3879L43.8928 23.9809C43.9005 24.0068 43.9036 24.0339 43.9019 24.0609L45.779 20.4664C45.781 20.4398 45.7774 20.4131 45.7684 20.3879Z" fill="#1B1D24" stroke="#2E2F33"/>
<path d="M45.7849 20.4668L43.9078 24.0613C43.9078 24.0839 43.9078 24.1036 43.9078 24.1217L45.7849 20.5272C45.7849 20.5106 45.7849 20.4894 45.7849 20.4668Z" fill="#1B1D24" stroke="#2E2F33"/>
<path d="M45.7788 20.5266L43.9017 24.1211C43.9002 24.1311 43.9002 24.1413 43.9017 24.1513L45.7788 20.5568C45.7772 20.5468 45.7772 20.5366 45.7788 20.5266Z" fill="#1B1D24"/>
<path d="M45.7788 20.5266L43.9017 24.1211C43.9002 24.1311 43.9002 24.1413 43.9017 24.1513L45.7788 20.5568C45.7772 20.5468 45.7772 20.5366 45.7788 20.5266" stroke="#2E2F33"/>
<path d="M48.9119 24.3494L47.0347 27.9439L47.2064 27.9876L49.0835 24.3931C49.0258 24.3795 48.9696 24.366 48.9119 24.3494Z" fill="#1B1D24"/>
<path d="M48.9119 24.3494L47.0347 27.9439L47.2064 27.9876L49.0835 24.3931C49.0258 24.3795 48.9696 24.366 48.9119 24.3494" stroke="#2E2F33"/>
<path d="M49.0837 24.3932L47.2065 27.9877C47.642 28.0827 48.0912 28.0985 48.5324 28.0345C49.0081 27.9796 49.4636 27.8117 49.8602 27.5448C50.2567 27.2779 50.5827 26.9199 50.8104 26.5013L52.6921 22.9053C52.4642 23.3238 52.1382 23.6816 51.7416 23.9484C51.3451 24.2153 50.8898 24.3834 50.4141 24.4384C49.9729 24.5025 49.5237 24.4867 49.0882 24.3917" fill="#1B1D24"/>
<path d="M49.0837 24.3932L47.2065 27.9877C47.642 28.0827 48.0912 28.0985 48.5324 28.0345C49.0081 27.9796 49.4636 27.8117 49.8602 27.5448C50.2567 27.2779 50.5827 26.9199 50.8104 26.5013L52.6921 22.9053C52.4642 23.3238 52.1382 23.6816 51.7416 23.9484C51.3451 24.2153 50.8898 24.3834 50.4141 24.4384C49.9729 24.5025 49.5237 24.4867 49.0882 24.3917" stroke="#2E2F33"/>
<path d="M40.9234 25.2018L39.0463 28.7963L44.7157 26.5584L46.5913 22.9639L40.9234 25.2018Z" fill="#1B1D24" stroke="#2E2F33"/>
<path d="M21.3517 7.46802L19.4746 11.0625L23.3671 23.3309L25.2427 19.7364L21.3517 7.46802Z" fill="#1B1D24" stroke="#2E2F33"/>
<path d="M38.656 27.734L36.7788 31.3285C37.725 31.1972 38.419 30.6992 38.7759 30.0156L40.6531 26.4211C40.2962 27.1047 39.6021 27.6027 38.656 27.734Z" fill="#1B1D24" stroke="#2E2F33"/>
<path d="M38.6104 27.7429L36.7333 31.3374L36.7789 31.3313L38.656 27.7368L38.6104 27.7429Z" fill="#1B1D24" stroke="#2E2F33"/>
<path d="M34.7285 25.3362L32.8514 28.9307C32.907 29.1063 32.9787 29.2766 33.0655 29.4392L34.9412 25.8447C34.8554 25.6817 34.7843 25.5116 34.7285 25.3362Z" fill="#1B1D24"/>
<path d="M34.7285 25.3362L32.8514 28.9307C32.907 29.1063 32.9787 29.2766 33.0655 29.4392L34.9412 25.8447C34.8554 25.6817 34.7843 25.5116 34.7285 25.3362" stroke="#2E2F33"/>
<path d="M34.9411 25.8447L33.0655 29.4392C33.1437 29.5874 33.2336 29.7292 33.3343 29.8633L35.2114 26.2688C35.1102 26.1347 35.0198 25.9929 34.9411 25.8447Z" fill="#1B1D24"/>
<path d="M34.9411 25.8447L33.0655 29.4392C33.1437 29.5874 33.2336 29.7292 33.3343 29.8633L35.2114 26.2688C35.1102 26.1347 35.0198 25.9929 34.9411 25.8447" stroke="#2E2F33"/>
<path d="M35.2116 26.2688L33.3344 29.8633C33.4123 29.9684 33.496 30.0691 33.585 30.1651L35.4622 26.5706C35.3731 26.4746 35.2895 26.3739 35.2116 26.2688Z" fill="#1B1D24"/>
<path d="M35.2116 26.2688L33.3344 29.8633C33.4123 29.9684 33.496 30.0691 33.585 30.1651L35.4622 26.5706C35.3731 26.4746 35.2895 26.3739 35.2116 26.2688" stroke="#2E2F33"/>
<path d="M35.4621 26.5659L33.5849 30.1604C33.6654 30.2464 33.752 30.3294 33.8416 30.4079L35.7188 26.8134C35.6291 26.7349 35.5426 26.6519 35.4621 26.5659Z" fill="#1B1D24" stroke="#2E2F33"/>
<path d="M35.7188 26.8135L33.8416 30.408C33.9297 30.4834 34.0208 30.5589 34.1165 30.6268L35.9937 27.0323C35.898 26.9629 35.8068 26.8814 35.7188 26.8135Z" fill="#1B1D24"/>
<path d="M35.7188 26.8135L33.8416 30.408C33.9297 30.4834 34.0208 30.5589 34.1165 30.6268L35.9937 27.0323C35.898 26.9629 35.8068 26.8814 35.7188 26.8135" stroke="#2E2F33"/>
<path d="M35.9936 27.0325L34.1165 30.627H34.1241L36.0012 27.0325H35.9936Z" fill="#1B1D24"/>
<path d="M35.9936 27.0325L34.1165 30.627H34.1241L36.0012 27.0325H35.9936" stroke="#2E2F33"/>
<path d="M29.8246 24.0518L27.9474 27.6463L32.8514 28.9304L34.7285 25.3359L29.8246 24.0518Z" fill="#1B1D24" stroke="#2E2F33"/>
<path d="M24.4119 20.6415L22.5317 24.23C22.4998 24.2919 22.4709 24.3537 22.4451 24.4186L24.3238 20.8241C24.3511 20.7592 24.38 20.6974 24.4119 20.6355" fill="#1B1D24"/>
<path d="M24.4119 20.6415L22.5317 24.23C22.4998 24.2919 22.4709 24.3537 22.4451 24.4186L24.3238 20.8241C24.3511 20.7592 24.38 20.6974 24.4119 20.6355" stroke="#2E2F33"/>
<path d="M24.324 20.8241L22.4484 24.4141C22.4055 24.5168 22.371 24.6228 22.3451 24.731L24.2222 21.1365C24.2483 21.0285 24.2823 20.9226 24.324 20.8196" fill="#1B1D24"/>
<path d="M24.324 20.8241L22.4484 24.4141C22.4055 24.5168 22.371 24.6228 22.3451 24.731L24.2222 21.1365C24.2483 21.0285 24.2823 20.9226 24.324 20.8196" stroke="#2E2F33"/>
<path d="M24.2222 21.1414L22.345 24.7359C22.3094 24.8808 22.2886 25.0289 22.2828 25.178L24.1599 21.5835C24.1658 21.4344 24.1867 21.2863 24.2222 21.1414Z" fill="#1B1D24"/>
<path d="M24.2222 21.1414L22.345 24.7359C22.3094 24.8808 22.2886 25.0289 22.2828 25.178L24.1599 21.5835C24.1658 21.4344 24.1867 21.2863 24.2222 21.1414" stroke="#2E2F33"/>
<path d="M24.1598 21.5833L22.2826 25.1778C22.2703 25.4932 22.314 25.8084 22.4117 26.1088L22.4376 26.1903L24.3147 22.6034L24.2889 22.5219C24.1911 22.2215 24.1474 21.9063 24.1598 21.5908" fill="#1B1D24"/>
<path d="M24.1598 21.5833L22.2826 25.1778C22.2703 25.4932 22.314 25.8084 22.4117 26.1088L22.4376 26.1903L24.3147 22.6034L24.2889 22.5219C24.1911 22.2215 24.1474 21.9063 24.1598 21.5908" stroke="#2E2F33"/>
<path d="M26.0885 24.5649L24.2114 28.1579C24.3222 28.2092 24.4362 28.256 24.5516 28.2983L26.4287 24.7158C26.3133 24.6736 26.1994 24.6268 26.0885 24.577" fill="#1B1D24"/>
<path d="M26.0885 24.5649L24.2114 28.1579C24.3222 28.2092 24.4362 28.256 24.5516 28.2983L26.4287 24.7158C26.3133 24.6736 26.1994 24.6268 26.0885 24.577" stroke="#2E2F33"/>
<path d="M26.4288 24.7158L24.5517 28.3103C24.715 28.3707 24.8818 28.421 25.0513 28.4612L26.9285 24.8667C26.7588 24.8272 26.5919 24.7768 26.4288 24.7158Z" fill="#1B1D24"/>
<path d="M26.4288 24.7158L24.5517 28.3103C24.715 28.3707 24.8818 28.421 25.0513 28.4612L26.9285 24.8667C26.7588 24.8272 26.5919 24.7768 26.4288 24.7158" stroke="#2E2F33"/>
<path d="M26.9284 24.8561L25.0512 28.4506C25.4589 28.5474 25.8809 28.5694 26.2966 28.5155C26.9307 28.4219 27.5134 28.1151 27.9474 27.6463L29.8215 24.0518C29.3875 24.5206 28.8048 24.8274 28.1707 24.921C27.7551 24.9749 27.333 24.9529 26.9253 24.8561" fill="#1B1D24"/>
<path d="M26.9284 24.8561L25.0512 28.4506C25.4589 28.5474 25.8809 28.5694 26.2966 28.5155C26.9307 28.4219 27.5134 28.1151 27.9474 27.6463L29.8215 24.0518C29.3875 24.5206 28.8048 24.8274 28.1707 24.921C27.7551 24.9749 27.333 24.9529 26.9253 24.8561" stroke="#2E2F33"/>
<path d="M22.3921 27.0896L20.5149 30.6841L24.2115 28.1655L26.0886 24.571L22.3921 27.0896Z" fill="#1B1D24" stroke="#2E2F33"/>
<path d="M16.4751 26.0364L14.5995 29.6309C14.5752 29.6746 14.5539 29.7184 14.5342 29.7637L16.4098 26.1692C16.4311 26.1239 16.4523 26.0801 16.4751 26.0364Z" fill="#1B1D24"/>
<path d="M16.4751 26.0364L14.5995 29.6309C14.5752 29.6746 14.5539 29.7184 14.5342 29.7637L16.4098 26.1692C16.4311 26.1239 16.4523 26.0801 16.4751 26.0364" stroke="#2E2F33"/>
<path d="M9.31423 25.4883L7.43708 29.0828L19.3287 11.0393L21.2058 7.44482L9.31423 25.4883Z" fill="#1B1D24" stroke="#2E2F33"/>
<path d="M16.6663 28.5671L14.7862 32.1616C14.8368 32.2401 14.8899 32.3171 14.9456 32.3925L16.8228 28.798C16.7671 28.7226 16.7164 28.6456 16.6709 28.5671" fill="#1B1D24"/>
<path d="M16.6663 28.5671L14.7862 32.1616C14.8368 32.2401 14.8899 32.3171 14.9456 32.3925L16.8228 28.798C16.7671 28.7226 16.7164 28.6456 16.6709 28.5671" stroke="#2E2F33"/>
<path d="M16.8261 28.7981L14.9489 32.3926C15.0311 32.502 15.1194 32.6068 15.2132 32.7065L17.0903 29.112C16.9961 29.0126 16.9079 28.9078 16.8261 28.7981Z" fill="#1B1D24" stroke="#2E2F33"/>
<path d="M17.0902 29.1118L15.2131 32.7139C15.2966 32.8029 15.3847 32.8874 15.4774 32.9689L17.3545 29.3744C17.2619 29.2929 17.1738 29.2084 17.0902 29.1194" fill="#1B1D24"/>
<path d="M17.0902 29.1118L15.2131 32.7139C15.2966 32.8029 15.3847 32.8874 15.4774 32.9689L17.3545 29.3744C17.2619 29.2929 17.1738 29.2084 17.0902 29.1194" stroke="#2E2F33"/>
<path d="M17.3543 29.3667L15.4772 32.9612C15.5653 33.0367 15.6564 33.1121 15.7505 33.177L17.6277 29.5825C17.532 29.5146 17.4424 29.4422 17.3543 29.3667Z" fill="#1B1D24" stroke="#2E2F33"/>
<path d="M17.628 29.5828L15.7508 33.1773C15.8442 33.246 15.941 33.31 16.0409 33.3689L17.9165 29.7744C17.8178 29.7156 17.7206 29.6507 17.628 29.5828Z" fill="#1B1D24" stroke="#2E2F33"/>
<path d="M17.9163 29.7742L16.0407 33.3687C16.1425 33.4303 16.2474 33.4867 16.355 33.5377L18.2322 29.9432C18.1243 29.8919 18.0196 29.836 17.9163 29.7742Z" fill="#1B1D24" stroke="#2E2F33"/>
<path d="M18.2323 29.9429L16.3552 33.5374C16.4736 33.5947 16.5936 33.6445 16.7166 33.6883L18.5938 30.0938C18.4707 30.0485 18.3508 29.9987 18.2323 29.9429Z" fill="#1B1D24" stroke="#2E2F33"/>
<path d="M18.5938 30.0957L16.7167 33.6902C16.8657 33.7431 17.0179 33.7869 17.1723 33.8215L19.0388 30.227C18.8844 30.1924 18.7323 30.1486 18.5832 30.0957" fill="#1B1D24"/>
<path d="M18.5938 30.0957L16.7167 33.6902C16.8657 33.7431 17.0179 33.7869 17.1723 33.8215L19.0388 30.227C18.8844 30.1924 18.7323 30.1486 18.5832 30.0957" stroke="#2E2F33"/>
<path d="M19.0387 30.2268L17.1616 33.8213C17.5692 33.9155 17.9906 33.9354 18.4054 33.8802L20.281 30.2857C19.8667 30.3409 19.4458 30.321 19.0387 30.2268Z" fill="#1B1D24"/>
<path d="M19.0387 30.2268L17.1616 33.8213C17.5692 33.9155 17.9906 33.9354 18.4054 33.8802L20.281 30.2857C19.8667 30.3409 19.4458 30.321 19.0387 30.2268" stroke="#2E2F33"/>
<path d="M10.1178 28.0254L8.24064 31.6199L14.7909 32.1616L16.6665 28.5671L10.1178 28.0254Z" fill="#1B1D24" stroke="#2E2F33"/>
<path d="M37.019 42.3928L35.1419 45.9873L47.035 27.9439L48.9121 24.3494L37.019 42.3928Z" fill="#1B1D24" stroke="#2E2F33"/>
<path d="M36.0012 27.0369L34.1241 30.6314L31.644 44.5099L33.5211 40.9154L36.0012 27.0369Z" fill="#1B1D24" stroke="#2E2F33"/>
<path d="M20.2856 30.2859L18.41 33.8804L26.2952 42.6901L28.1724 39.0956L20.2856 30.2859Z" fill="#1B1D24" stroke="#2E2F33"/>
<path d="M8.83427 29.9102L6.95712 33.5047L28.8146 46.8656L30.6902 43.2711L8.83427 29.9102Z" fill="#1B1D24" stroke="#2E2F33"/>
<path d="M3.17578 25.4885L1.29864 29.083C1.26068 29.1555 1.22727 29.2339 1.19537 29.3049L3.07251 25.7104C3.10288 25.6349 3.13781 25.5594 3.17578 25.4885Z" fill="#1B1D24"/>
<path d="M3.17578 25.4885L1.29864 29.083C1.26068 29.1555 1.22727 29.2339 1.19537 29.3049L3.07251 25.7104C3.10288 25.6349 3.13781 25.5594 3.17578 25.4885" stroke="#2E2F33"/>
<path d="M3.07251 25.7104L1.19537 29.3049C1.14607 29.426 1.10596 29.5506 1.07539 29.6777L2.95253 26.0832C2.9831 25.9561 3.0232 25.8315 3.07251 25.7104Z" fill="#1B1D24"/>
<path d="M3.07251 25.7104L1.19537 29.3049C1.14607 29.426 1.10596 29.5506 1.07539 29.6777L2.95253 26.0832C2.9831 25.9561 3.0232 25.8315 3.07251 25.7104" stroke="#2E2F33"/>
<path d="M2.95239 26.083L1.07525 29.6775C1.03399 29.8457 1.00958 30.0176 1.00235 30.1906L2.87949 26.5961C2.88671 26.4231 2.91114 26.2512 2.95239 26.083Z" fill="#1B1D24"/>
<path d="M2.95239 26.083L1.07525 29.6775C1.03399 29.8457 1.00958 30.0176 1.00235 30.1906L2.87949 26.5961C2.88671 26.4231 2.91114 26.2512 2.95239 26.083" stroke="#2E2F33"/>
<path d="M2.87954 26.5959L1.0024 30.1905C0.988354 30.5451 1.03666 30.8995 1.14516 31.2377C1.20769 31.4342 1.28801 31.6246 1.38513 31.8066L3.26074 28.2121C3.16475 28.0297 3.08497 27.8394 3.0223 27.6432C2.91234 27.3054 2.86399 26.9507 2.87954 26.5959Z" fill="#1B1D24"/>
<path d="M2.87954 26.5959L1.0024 30.1905C0.988354 30.5451 1.03666 30.8995 1.14516 31.2377C1.20769 31.4342 1.28801 31.6246 1.38513 31.8066L3.26074 28.2121C3.16475 28.0297 3.08497 27.8394 3.0223 27.6432C2.91234 27.3054 2.86399 26.9507 2.87954 26.5959" stroke="#2E2F33"/>
<path d="M3.26076 28.2122L1.38515 31.8082C1.47656 31.9817 1.58168 32.1477 1.69952 32.3046L3.57666 28.7101C3.45854 28.5531 3.35292 28.3871 3.26076 28.2137" fill="#1B1D24"/>
<path d="M3.26076 28.2122L1.38515 31.8082C1.47656 31.9817 1.58168 32.1477 1.69952 32.3046L3.57666 28.7101C3.45854 28.5531 3.35292 28.3871 3.26076 28.2137" stroke="#2E2F33"/>
<path d="M3.57641 28.7087L1.69927 32.3032C1.7929 32.4272 1.89435 32.5451 2.00301 32.6564L3.87256 29.0618C3.76691 28.9501 3.66802 28.8322 3.57641 28.7087Z" fill="#1B1D24"/>
<path d="M3.57641 28.7087L1.69927 32.3032C1.7929 32.4272 1.89435 32.5451 2.00301 32.6564L3.87256 29.0618C3.76691 28.9501 3.66802 28.8322 3.57641 28.7087" stroke="#2E2F33"/>
<path d="M3.87279 29.062L1.99717 32.6565C2.09046 32.756 2.1888 32.8507 2.2918 32.9402L4.16895 29.3457C4.06285 29.2564 3.96147 29.1617 3.8652 29.062" fill="#1B1D24"/>
<path d="M3.87279 29.062L1.99717 32.6565C2.09046 32.756 2.1888 32.8507 2.2918 32.9402L4.16895 29.3457C4.06285 29.2564 3.96147 29.1617 3.8652 29.062" stroke="#2E2F33"/>
<path d="M4.16897 29.3455L2.29182 32.94C2.39054 33.026 2.49381 33.109 2.59557 33.1859L4.47119 29.5914C4.36488 29.5145 4.26161 29.4405 4.16745 29.3455" fill="#1B1D24"/>
<path d="M4.16897 29.3455L2.29182 32.94C2.39054 33.026 2.49381 33.109 2.59557 33.1859L4.47119 29.5914C4.36488 29.5145 4.26161 29.4405 4.16745 29.3455" stroke="#2E2F33"/>
<path d="M4.47732 29.5916L2.60171 33.1861C2.70802 33.2625 2.81736 33.3349 2.92975 33.4034L4.80688 29.8089C4.6945 29.7409 4.58364 29.6685 4.47732 29.5916Z" fill="#1B1D24" stroke="#2E2F33"/>
<path d="M4.80681 29.8087L2.92967 33.4032C3.04662 33.4726 3.16659 33.5375 3.28961 33.5964L5.16675 29.9974C5.04373 29.9385 4.92375 29.8736 4.80681 29.8042" fill="#1B1D24"/>
<path d="M4.80681 29.8087L2.92967 33.4032C3.04662 33.4726 3.16659 33.5375 3.28961 33.5964L5.16675 29.9974C5.04373 29.9385 4.92375 29.8736 4.80681 29.8042" stroke="#2E2F33"/>
<path d="M5.1666 29.9973L3.28947 33.5918C3.42288 33.6583 3.55976 33.7178 3.69952 33.7699L5.57666 30.1754C5.4364 30.1256 5.29901 30.0681 5.16509 30.0033" fill="#1B1D24"/>
<path d="M5.1666 29.9973L3.28947 33.5918C3.42288 33.6583 3.55976 33.7178 3.69952 33.7699L5.57666 30.1754C5.4364 30.1256 5.29901 30.0681 5.16509 30.0033" stroke="#2E2F33"/>
<path d="M5.57833 30.1738L3.69968 33.7698C3.86697 33.8306 4.0379 33.881 4.21149 33.9207L6.08862 30.3262C5.91504 30.2865 5.74411 30.2361 5.57681 30.1753" fill="#1B1D24"/>
<path d="M5.57833 30.1738L3.69968 33.7698C3.86697 33.8306 4.0379 33.881 4.21149 33.9207L6.08862 30.3262C5.91504 30.2865 5.74411 30.2361 5.57681 30.1753" stroke="#2E2F33"/>
<path d="M6.0899 30.3248L4.21276 33.9209C4.68113 34.029 5.16539 34.0515 5.64187 33.9873C6.10851 33.9167 6.55592 33.753 6.95709 33.5059L8.83423 29.9114C8.43345 30.1593 7.98588 30.3231 7.51902 30.3928C7.04254 30.457 6.55826 30.4345 6.0899 30.3264" fill="#1B1D24"/>
<path d="M6.0899 30.3248L4.21276 33.9209C4.68113 34.029 5.16539 34.0515 5.64187 33.9873C6.10851 33.9167 6.55592 33.753 6.95709 33.5059L8.83423 29.9114C8.43345 30.1593 7.98588 30.3231 7.51902 30.3928C7.04254 30.457 6.55826 30.4345 6.0899 30.3264" stroke="#2E2F33"/>
<path d="M30.6904 43.2771L28.8148 46.8716C28.7922 46.9816 28.778 47.093 28.7723 47.2051L30.6494 43.6106C30.6554 43.4986 30.6691 43.3872 30.6904 43.2771Z" fill="#1B1D24"/>
<path d="M30.6904 43.2771L28.8148 46.8716C28.7922 46.9816 28.778 47.093 28.7723 47.2051L30.6494 43.6106C30.6554 43.4986 30.6691 43.3872 30.6904 43.2771" stroke="#2E2F33"/>
<path d="M30.6493 43.6045L28.7722 47.2005C28.7629 47.5457 28.8143 47.8899 28.9241 48.2176C28.9858 48.4098 29.0645 48.5961 29.1595 48.7744L31.0366 45.1784C30.9422 45.0001 30.8639 44.8137 30.8027 44.6216C30.693 44.2939 30.6416 43.9497 30.6509 43.6045" fill="#1B1D24"/>
<path d="M30.6493 43.6045L28.7722 47.2005C28.7629 47.5457 28.8143 47.8899 28.9241 48.2176C28.9858 48.4098 29.0645 48.5961 29.1595 48.7744L31.0366 45.1784C30.9422 45.0001 30.8639 44.8137 30.8027 44.6216C30.693 44.2939 30.6416 43.9497 30.6509 43.6045" stroke="#2E2F33"/>
<path d="M31.0366 45.1785L29.161 48.773C29.2517 48.9447 29.3558 49.1092 29.4723 49.2649L31.3403 45.6704C31.227 45.5141 31.1255 45.3497 31.0366 45.1785Z" fill="#1B1D24" stroke="#2E2F33"/>
<path d="M31.3405 45.6704L29.4634 49.2649C29.5553 49.3867 29.6536 49.5036 29.758 49.615L31.6443 46.0205C31.5395 45.9094 31.4412 45.7925 31.3497 45.6704" fill="#1B1D24"/>
<path d="M31.3405 45.6704L29.4634 49.2649C29.5553 49.3867 29.6536 49.5036 29.758 49.615L31.6443 46.0205C31.5395 45.9094 31.4412 45.7925 31.3497 45.6704" stroke="#2E2F33"/>
<path d="M31.6442 46.0203L29.7625 49.6148C29.8582 49.7159 29.9569 49.8109 30.0662 49.903L31.9434 46.3085C31.8373 46.2176 31.7359 46.1214 31.6396 46.0203" fill="#1B1D24"/>
<path d="M31.6442 46.0203L29.7625 49.6148C29.8582 49.7159 29.9569 49.8109 30.0662 49.903L31.9434 46.3085C31.8373 46.2176 31.7359 46.1214 31.6396 46.0203" stroke="#2E2F33"/>
<path d="M31.9389 46.3088L30.0617 49.9033C30.163 49.9909 30.2678 50.0739 30.3761 50.1523L32.2517 46.5578C32.1439 46.4794 32.0391 46.3964 31.9389 46.3088Z" fill="#1B1D24" stroke="#2E2F33"/>
<path d="M32.2515 46.5576L30.3759 50.1521C30.4837 50.2306 30.5961 50.303 30.71 50.3724L32.5872 46.7779C32.4717 46.71 32.3609 46.6361 32.2515 46.5576Z" fill="#1B1D24" stroke="#2E2F33"/>
<path d="M32.5873 46.7779L30.7102 50.3694C30.8301 50.4418 30.9532 50.5067 31.0792 50.5671L32.9548 46.9726C32.8303 46.9122 32.7073 46.8473 32.5873 46.7749" fill="#1B1D24"/>
<path d="M32.5873 46.7779L30.7102 50.3694C30.8301 50.4418 30.9532 50.5067 31.0792 50.5671L32.9548 46.9726C32.8303 46.9122 32.7073 46.8473 32.5873 46.7749" stroke="#2E2F33"/>
<path d="M32.9548 46.9756L31.0792 50.5701C31.2137 50.636 31.3516 50.6949 31.4922 50.7466L33.3694 47.1521C33.2266 47.1008 33.0867 47.0419 32.9502 46.9756" fill="#1B1D24"/>
<path d="M32.9548 46.9756L31.0792 50.5701C31.2137 50.636 31.3516 50.6949 31.4922 50.7466L33.3694 47.1521C33.2266 47.1008 33.0867 47.0419 32.9502 46.9756" stroke="#2E2F33"/>
<path d="M33.3738 47.1523L31.4921 50.7468C31.662 50.8076 31.8355 50.858 32.0115 50.8977L33.8887 47.3048C33.7128 47.2643 33.5394 47.2139 33.3693 47.1539" fill="#1B1D24"/>
<path d="M33.3738 47.1523L31.4921 50.7468C31.662 50.8076 31.8355 50.858 32.0115 50.8977L33.8887 47.3048C33.7128 47.2643 33.5394 47.2139 33.3693 47.1539" stroke="#2E2F33"/>
<path d="M33.8934 47.3045L32.0163 50.8975C32.476 51.0052 32.9516 51.0282 33.4196 50.9654C34.4751 50.8145 35.2922 50.2396 35.7083 49.4413L37.5854 45.8423C37.1693 46.6406 36.3507 47.22 35.2952 47.3664C34.8278 47.4289 34.3528 47.4064 33.8934 47.3" fill="#1B1D24"/>
<path d="M33.8934 47.3045L32.0163 50.8975C32.476 51.0052 32.9516 51.0282 33.4196 50.9654C34.4751 50.8145 35.2922 50.2396 35.7083 49.4413L37.5854 45.8423C37.1693 46.6406 36.3507 47.22 35.2952 47.3664C34.8278 47.4289 34.3528 47.4064 33.8934 47.3" stroke="#2E2F33"/>
<path d="M5.4826 23.9705C3.54927 24.2391 2.4649 25.884 3.02227 27.6435C3.57964 29.403 5.58588 30.6615 7.51921 30.3914C7.98607 30.3218 8.43365 30.1579 8.83442 29.91L30.6903 43.277C30.6113 43.729 30.6484 44.1936 30.7982 44.6276C31.3571 46.3871 33.4058 47.6456 35.2951 47.377C37.1844 47.1084 38.3113 45.4651 37.7402 43.6648C37.5822 43.2014 37.3375 42.7718 37.0189 42.3987L48.912 24.3493C49.3993 24.483 49.9094 24.5139 50.4094 24.4398C52.3002 24.1772 53.4135 22.4871 52.8561 20.7276C52.2987 18.9681 50.2925 17.7096 48.3591 17.9797C47.8922 18.0489 47.4445 18.2128 47.0439 18.4611L25.2002 5.14088C25.2809 4.68642 25.2438 4.21901 25.0923 3.78275C24.535 2.02474 22.4862 0.772245 20.5969 1.03482C18.7076 1.29739 17.5792 2.94826 18.1503 4.74702C18.31 5.20998 18.5552 5.63932 18.8732 6.01309L6.98006 24.0626C6.49284 23.9284 5.98275 23.8971 5.4826 23.9705ZM9.39635 25.6063C9.37424 25.5637 9.34667 25.5241 9.31433 25.4886L21.2059 7.44516C21.25 7.44516 21.3062 7.47383 21.3578 7.4678L25.2427 19.7362C24.3315 20.3307 23.926 21.3705 24.2889 22.5143L24.3147 22.5958L20.6364 25.0283C19.9807 24.6822 19.2329 24.5472 18.4965 24.642C18.0458 24.6966 17.617 24.8659 17.2514 25.1334C16.8859 25.401 16.596 25.7577 16.4098 26.1692L9.39635 25.6063ZM23.9184 7.02565L45.7682 20.3881C45.794 20.4696 45.7682 20.5163 45.7682 20.5571L39.7313 22.9323C39.3431 22.6039 38.8905 22.3593 38.4021 22.2138C37.9137 22.0683 37.4003 22.0252 36.8943 22.0872C36.2212 22.1635 35.6035 22.4942 35.169 23.0108L30.3228 21.7598L30.297 21.6783C29.9462 20.5752 28.8876 19.6969 27.7349 19.3876L23.8424 7.11921C23.8728 7.07394 23.9168 7.0679 23.9047 7.02565H23.9184ZM33.0246 40.9788L22.2417 28.9835C22.3901 28.6921 22.4784 28.3742 22.5013 28.0485C22.5243 27.7227 22.4815 27.3957 22.3753 27.0867L26.0886 24.5651C26.7365 24.8751 27.4594 24.9965 28.1738 24.9152C28.8061 24.8226 29.3875 24.518 29.8216 24.052L34.7256 25.3362C34.9539 26.0247 35.4004 26.6213 35.9983 27.0369L33.5182 40.9199L33.2555 40.9561L33.0352 40.9863L33.0246 40.9788ZM46.5914 22.9625L36.7865 37.9018L38.609 27.7461H38.6545C40.1034 27.5439 40.9615 26.4861 40.922 25.2094L46.5898 22.9715L46.5914 22.9625ZM10.1314 28.066L10.1177 28.0238L16.6665 28.567C17.4076 29.7456 18.8792 30.4804 20.2856 30.2858L28.1723 39.0955L10.1314 28.066Z" fill="#1B1D24" stroke="#2E2F33"/>
</svg>
