<svg width="524" height="60" viewBox="0 0 524 60" fill="none" xmlns="http://www.w3.org/2000/svg">
<mask id="mask0_2151_13959" style="mask-type:alpha" maskUnits="userSpaceOnUse" x="0" y="0" width="524" height="60">
<path d="M524 12C524 5.37258 518.627 0 512 0H12C5.37258 0 0 5.37258 0 12V60H524V12Z" fill="#101116"/>
</mask>
<g mask="url(#mask0_2151_13959)">
<path fill-rule="evenodd" clip-rule="evenodd" d="M92.4861 19.5934H76.2605C78.6302 28.2742 78.6578 37.4274 76.3404 46.1223H92.4861V59.9876H70.3031C65.7706 67.2505 59.4779 73.2595 52.003 77.4571C44.3641 81.7467 35.7478 84 26.984 84C18.2202 84 9.60389 81.7467 1.96497 77.4571C-5.50993 73.2595 -11.8026 67.2505 -16.3352 59.9876H-38.5139V46.1223H-22.368C-24.6839 37.4273 -24.6576 28.2749 -22.2918 19.5934H-38.5139V5.7281H-16.1541C-11.6043 -1.45742 -5.32488 -7.39485 2.11451 -11.5401C9.71697 -15.7762 18.2782 -18 26.984 -18C35.6898 -18 44.251 -15.7762 51.8534 -11.5401C59.2928 -7.39485 65.5723 -1.45742 70.1221 5.7281H92.4861V19.5934ZM69.5681 6.7281C65.086 -0.525372 58.8203 -6.5134 51.3667 -10.6666C43.9131 -14.8197 35.5195 -17 26.984 -17C18.4485 -17 10.0548 -14.8197 2.60125 -10.6666C-4.85233 -6.5134 -11.1181 -0.525372 -15.6002 6.7281H-37.5139V18.5934H-20.965C-21.0651 18.926 -21.1616 19.2593 -21.2546 19.5934C-23.6694 28.2682 -23.6963 37.4335 -21.3324 46.1223C-21.2415 46.4564 -21.1471 46.7897 -21.0491 47.1223H-37.5139V58.9876H-15.7769C-11.3135 66.3191 -5.03475 72.3795 2.4546 76.5852C9.94394 80.7908 18.3916 83 26.984 83C35.5764 83 44.024 80.7908 51.5134 76.5852C59.0027 72.3795 65.2814 66.3191 69.7448 58.9876H91.4861V47.1223H75.0213C75.1193 46.7897 75.2138 46.4564 75.3048 46.1223C77.6703 37.4335 77.6421 28.2675 75.2231 19.5934C75.1299 19.2593 75.0332 18.926 74.9329 18.5934H91.4861V6.7281H69.5681ZM26.9895 65.1934C20.6172 65.1907 14.3886 63.3026 9.09027 59.7676C3.78825 56.23 -0.343937 51.2021 -2.784 45.3198C-5.22405 39.4376 -5.86247 32.965 -4.61856 26.7205C-3.37465 20.476 -0.304234 14.7399 4.20463 10.2376C8.71351 5.73525 14.4584 2.66895 20.7128 1.42668C26.9672 0.18441 33.45 0.821999 39.3415 3.25877C45.2329 5.69553 50.2681 9.82195 53.8106 15.116C57.3531 20.41 59.2438 26.6339 59.2438 33.0007C59.2338 41.538 55.8319 49.7228 49.7843 55.7586C43.7374 61.7936 35.5395 65.1869 26.9895 65.1934ZM60.2438 33.0007C60.2438 26.4358 58.2943 20.0184 54.6417 14.5599C50.9892 9.10135 45.7976 4.84697 39.7237 2.33469C33.6497 -0.177582 26.966 -0.834902 20.5179 0.445845C14.0698 1.72659 8.14686 4.88788 3.49804 9.52996C-1.15079 14.172 -4.31668 20.0864 -5.59929 26.5252C-6.8819 32.9639 -6.22361 39.6378 -3.70768 45.703C-1.19175 51.7682 3.06882 56.9521 8.53526 60.5994C13.9969 64.2435 20.4173 66.19 26.9858 66.1934C26.9859 66.1934 26.9857 66.1934 26.9858 66.1934C26.987 66.1934 26.9886 66.1934 26.9898 66.1934C26.9942 66.1934 26.9986 66.1934 27.0029 66.1934C35.8127 66.1834 44.2594 62.6855 50.4908 56.4664C56.7261 50.2432 60.2338 41.8038 60.2438 33.0007ZM26.9846 20.5597L26.9861 20.5597L27.0029 20.5597C29.4665 20.5597 31.8748 21.2892 33.9234 22.6561C35.9721 24.0229 37.569 25.9658 38.512 28.2393C39.4551 30.5128 39.7019 33.0145 39.2211 35.4281C38.7403 37.8417 37.5536 40.0585 35.8112 41.7983C34.0689 43.5381 31.8493 44.7228 29.433 45.2027C27.0167 45.6826 24.5122 45.4363 22.2361 44.4949C19.9599 43.5534 18.0142 41.959 16.6452 39.9131C15.2761 37.8672 14.5453 35.4616 14.5453 33.0007C14.5453 29.7039 15.8556 26.5421 18.1881 24.2096C20.5205 21.8771 23.6843 20.5646 26.9846 20.5597ZM26.9861 21.5597H27.0029C29.269 21.5597 31.4842 22.2307 33.3684 23.4879C35.2526 24.745 36.7212 26.5319 37.5883 28.6225C38.4555 30.713 38.6825 33.0134 38.2404 35.2327C37.7983 37.4521 36.707 39.4907 35.1047 41.0907C33.5023 42.6907 31.4607 43.7804 29.2382 44.2218C27.0156 44.6633 24.7119 44.4367 22.6183 43.5708C20.5247 42.7048 18.7352 41.2384 17.4763 39.357C16.2173 37.4755 15.5453 35.2635 15.5453 33.0007C15.5453 29.9693 16.7501 27.0618 18.8952 24.9167C21.0403 22.7715 23.9503 21.5642 26.9861 21.5597Z" fill="#23252C"/>
<path opacity="0.5" fill-rule="evenodd" clip-rule="evenodd" d="M80.9841 -14C89.6048 -14 98.0822 -11.798 105.61 -7.60335C113.057 -3.45404 119.33 2.50863 123.846 9.7281H145.986V22.5934H129.601C132.182 31.5847 132.211 41.1154 129.685 50.1223H145.986V62.9876H124.025C119.527 70.2848 113.241 76.3194 105.758 80.5211C98.1942 84.7688 89.6622 87 80.9841 87V86C89.4908 86 97.8541 83.8128 105.269 79.6492C112.683 75.4855 118.899 69.4857 123.318 62.2276L123.464 61.9876H144.986V51.1223H128.353L128.542 50.4809C131.26 41.2578 131.23 31.4439 128.454 22.2377L128.26 21.5934H144.986V10.7281H123.289L123.143 10.4909C118.706 3.31006 112.503 -2.61811 105.123 -6.7298C97.7443 -10.8415 89.4345 -13 80.9841 -13V-14Z" fill="#23252C"/>
<path opacity="0.4" fill-rule="evenodd" clip-rule="evenodd" d="M121.486 -14C130.107 -14 138.584 -11.798 146.112 -7.60335C153.559 -3.45404 159.832 2.50863 164.348 9.7281H186.488V22.5934H170.103C172.684 31.5847 172.713 41.1154 170.187 50.1223H186.488V62.9876H164.527C160.029 70.2848 153.743 76.3194 146.26 80.5211C138.696 84.7688 130.164 87 121.486 87V86C129.993 86 138.356 83.8128 145.771 79.6492C153.185 75.4855 159.401 69.4857 163.82 62.2276L163.966 61.9876H185.488V51.1223H168.855L169.044 50.4809C171.762 41.2578 171.732 31.4439 168.956 22.2377L168.762 21.5934H185.488V10.7281H163.791L163.645 10.4909C159.208 3.31006 153.005 -2.61811 145.625 -6.7298C138.246 -10.8415 129.936 -13 121.486 -13V-14Z" fill="#23252C"/>
<path opacity="0.3" fill-rule="evenodd" clip-rule="evenodd" d="M161.988 -14C170.609 -14 179.086 -11.798 186.614 -7.60335C194.061 -3.45404 200.334 2.50863 204.85 9.7281H226.99V22.5934H210.605C213.186 31.5847 213.215 41.1154 210.689 50.1223H226.99V62.9876H205.029C200.53 70.2848 194.245 76.3194 186.762 80.5211C179.198 84.7688 170.666 87 161.988 87V86C170.495 86 178.858 83.8128 186.273 79.6492C193.687 75.4855 199.903 69.4857 204.322 62.2276L204.468 61.9876H225.99V51.1223H209.357L209.546 50.4809C212.264 41.2578 212.234 31.4439 209.458 22.2377L209.264 21.5934H225.99V10.7281H204.293L204.147 10.4909C199.71 3.31006 193.507 -2.61811 186.127 -6.7298C178.748 -10.8415 170.438 -13 161.988 -13V-14Z" fill="#23252C"/>
<path fill-rule="evenodd" clip-rule="evenodd" d="M433 19.5934H449.226C446.856 28.2742 446.828 37.4274 449.146 46.1223H433V59.9876H455.183C459.715 67.2505 466.008 73.2595 473.483 77.4571C481.122 81.7467 489.738 84 498.502 84C507.266 84 515.882 81.7467 523.521 77.4571C530.996 73.2595 537.289 67.2505 541.821 59.9876H564V46.1223H547.854C550.17 37.4273 550.144 28.2749 547.778 19.5934H564V5.7281H541.64C537.09 -1.45742 530.811 -7.39485 523.372 -11.5401C515.769 -15.7762 507.208 -18 498.502 -18C489.796 -18 481.235 -15.7762 473.633 -11.5401C466.193 -7.39485 459.914 -1.45742 455.364 5.7281H433V19.5934ZM455.918 6.7281C460.4 -0.525372 466.666 -6.5134 474.119 -10.6666C481.573 -14.8197 489.967 -17 498.502 -17C507.038 -17 515.431 -14.8197 522.885 -10.6666C530.338 -6.5134 536.604 -0.525372 541.086 6.7281H563V18.5934H546.451C546.551 18.926 546.648 19.2593 546.741 19.5934C549.155 28.2682 549.182 37.4335 546.818 46.1223C546.728 46.4564 546.633 46.7897 546.535 47.1223H563V58.9876H541.263C536.8 66.3191 530.521 72.3795 523.031 76.5852C515.542 80.7908 507.094 83 498.502 83C489.91 83 481.462 80.7908 473.973 76.5852C466.483 72.3795 460.205 66.3191 455.741 58.9876H434V47.1223H450.465C450.367 46.7897 450.272 46.4564 450.181 46.1223C447.816 37.4335 447.844 28.2675 450.263 19.5934C450.356 19.2593 450.453 18.926 450.553 18.5934H434V6.7281H455.918ZM498.497 65.1934C504.869 65.1907 511.098 63.3026 516.396 59.7676C521.698 56.23 525.83 51.2021 528.27 45.3198C530.71 39.4376 531.349 32.965 530.105 26.7205C528.861 20.476 525.79 14.7399 521.281 10.2376C516.773 5.73525 511.028 2.66895 504.773 1.42668C498.519 0.18441 492.036 0.821999 486.145 3.25877C480.253 5.69553 475.218 9.82195 471.675 15.116C468.133 20.41 466.242 26.6339 466.242 33.0007C466.252 41.538 469.654 49.7228 475.702 55.7586C481.749 61.7936 489.947 65.1869 498.497 65.1934ZM465.242 33.0007C465.242 26.4358 467.192 20.0184 470.844 14.5599C474.497 9.10135 479.688 4.84697 485.762 2.33469C491.836 -0.177582 498.52 -0.834902 504.968 0.445845C511.416 1.72659 517.339 4.88788 521.988 9.52996C526.637 14.172 529.803 20.0864 531.085 26.5252C532.368 32.9639 531.71 39.6378 529.194 45.703C526.678 51.7682 522.417 56.9521 516.951 60.5994C511.489 64.2435 505.069 66.19 498.5 66.1934C498.5 66.1934 498.5 66.1934 498.5 66.1934C498.499 66.1934 498.497 66.1934 498.496 66.1934C498.492 66.1934 498.488 66.1934 498.483 66.1934C489.673 66.1834 481.227 62.6855 474.995 56.4664C468.76 50.2432 465.252 41.8038 465.242 33.0007ZM498.501 20.5597L498.5 20.5597L498.483 20.5597C496.02 20.5597 493.611 21.2892 491.563 22.6561C489.514 24.0229 487.917 25.9658 486.974 28.2393C486.031 30.5128 485.784 33.0145 486.265 35.4281C486.746 37.8417 487.933 40.0585 489.675 41.7983C491.417 43.5381 493.637 44.7228 496.053 45.2027C498.469 45.6826 500.974 45.4363 503.25 44.4949C505.526 43.5534 507.472 41.959 508.841 39.9131C510.21 37.8672 510.941 35.4616 510.941 33.0007C510.941 29.7039 509.63 26.5421 507.298 24.2096C504.966 21.8771 501.802 20.5646 498.501 20.5597ZM498.5 21.5597H498.483C496.217 21.5597 494.002 22.2307 492.118 23.4879C490.233 24.745 488.765 26.5319 487.898 28.6225C487.031 30.713 486.804 33.0134 487.246 35.2327C487.688 37.4521 488.779 39.4907 490.381 41.0907C491.984 42.6907 494.025 43.7804 496.248 44.2218C498.47 44.6633 500.774 44.4367 502.868 43.5708C504.961 42.7048 506.751 41.2384 508.01 39.357C509.269 37.4755 509.941 35.2635 509.941 33.0007C509.941 29.9693 508.736 27.0618 506.591 24.9167C504.446 22.7715 501.536 21.5642 498.5 21.5597Z" fill="#23252C"/>
<path opacity="0.5" fill-rule="evenodd" clip-rule="evenodd" d="M454.502 -14C445.881 -14 437.404 -11.798 429.876 -7.60335C422.429 -3.45404 416.156 2.50863 411.64 9.7281H389.5V22.5934H405.885C403.304 31.5847 403.275 41.1154 405.801 50.1223H389.5V62.9876H411.461C415.96 70.2848 422.245 76.3194 429.728 80.5211C437.292 84.7688 445.824 87 454.502 87V86C445.995 86 437.632 83.8128 430.217 79.6492C422.803 75.4855 416.587 69.4857 412.168 62.2276L412.022 61.9876H390.5V51.1223H407.133L406.944 50.4809C404.226 41.2578 404.256 31.4439 407.032 22.2377L407.226 21.5934H390.5V10.7281H412.197L412.343 10.4909C416.78 3.31006 422.983 -2.61811 430.363 -6.7298C437.742 -10.8415 446.052 -13 454.502 -13V-14Z" fill="#23252C"/>
<path opacity="0.4" fill-rule="evenodd" clip-rule="evenodd" d="M414 -14C405.379 -14 396.902 -11.798 389.374 -7.60335C381.927 -3.45404 375.654 2.50863 371.138 9.7281H348.998V22.5934H365.383C362.802 31.5847 362.773 41.1154 365.299 50.1223H348.998V62.9876H370.959C375.458 70.2848 381.744 76.3194 389.226 80.5211C396.79 84.7688 405.322 87 414 87V86C405.493 86 397.13 83.8128 389.715 79.6492C382.301 75.4855 376.085 69.4857 371.666 62.2276L371.52 61.9876H349.998V51.1223H366.631L366.442 50.4809C363.724 41.2578 363.754 31.4439 366.53 22.2377L366.724 21.5934H349.998V10.7281H371.695L371.841 10.4909C376.278 3.31006 382.482 -2.61811 389.861 -6.7298C397.24 -10.8415 405.55 -13 414 -13V-14Z" fill="#23252C"/>
<path opacity="0.3" fill-rule="evenodd" clip-rule="evenodd" d="M373.498 -14C364.877 -14 356.4 -11.798 348.872 -7.60335C341.425 -3.45404 335.152 2.50863 330.636 9.7281H308.496V22.5934H324.881C322.3 31.5847 322.271 41.1154 324.797 50.1223H308.496V62.9876H330.457C334.956 70.2848 341.242 76.3194 348.724 80.5211C356.288 84.7688 364.82 87 373.498 87V86C364.991 86 356.628 83.8128 349.213 79.6492C341.799 75.4855 335.583 69.4857 331.164 62.2276L331.018 61.9876H309.496V51.1223H326.129L325.94 50.4809C323.222 41.2578 323.252 31.4439 326.028 22.2377L326.222 21.5934H309.496V10.7281H331.193L331.339 10.4909C335.776 3.31006 341.98 -2.61811 349.359 -6.7298C356.738 -10.8415 365.048 -13 373.498 -13V-14Z" fill="#23252C"/>
</g>
</svg>
