<svg width="382" height="70" viewBox="0 0 382 70" fill="none" xmlns="http://www.w3.org/2000/svg">
<rect x="1" y="1" width="380" height="68" rx="12" fill="#181A1F" stroke="#23252C"/>
<path d="M22.088 41.192C20.6267 41.192 19.544 40.6907 18.84 39.688C18.1467 38.6853 17.8 37.2613 17.8 35.416C17.8 33.5813 18.1467 32.1627 18.84 31.16C19.544 30.1467 20.6267 29.64 22.088 29.64C22.6427 29.64 23.128 29.7147 23.544 29.864C23.9707 30.0133 24.3387 30.2213 24.648 30.488C24.9573 30.744 25.2133 31.0587 25.416 31.432C25.6187 31.7947 25.7787 32.1947 25.896 32.632L23.976 33.176C23.9013 32.92 23.816 32.68 23.72 32.456C23.624 32.232 23.5013 32.04 23.352 31.88C23.2133 31.7093 23.0373 31.5813 22.824 31.496C22.6107 31.4 22.3547 31.352 22.056 31.352C21.3307 31.352 20.808 31.6293 20.488 32.184C20.1787 32.7387 20.024 33.496 20.024 34.456V36.376C20.024 37.336 20.1787 38.0933 20.488 38.648C20.808 39.2027 21.3307 39.48 22.056 39.48C22.3547 39.48 22.6107 39.4373 22.824 39.352C23.0373 39.256 23.2133 39.128 23.352 38.968C23.5013 38.7973 23.624 38.6 23.72 38.376C23.816 38.152 23.9013 37.912 23.976 37.656L25.896 38.2C25.7787 38.6373 25.6187 39.0427 25.416 39.416C25.2133 39.7787 24.9573 40.0933 24.648 40.36C24.3387 40.616 23.9707 40.8187 23.544 40.968C23.128 41.1173 22.6427 41.192 22.088 41.192ZM27.7458 39.384H30.3698V30.776H27.7458V29.16H32.4178V39.384H35.0578V41H27.7458V39.384ZM44.0275 41C43.5262 41 43.1368 40.8773 42.8595 40.632C42.5928 40.376 42.4328 40.024 42.3795 39.576H42.2995C42.1502 40.088 41.8568 40.488 41.4195 40.776C40.9822 41.0533 40.4435 41.192 39.8035 41.192C38.9715 41.192 38.3102 40.9733 37.8195 40.536C37.3288 40.0987 37.0835 39.4907 37.0835 38.712C37.0835 37.048 38.3048 36.216 40.7475 36.216H42.2035V35.672C42.2035 35.1493 42.0755 34.7547 41.8195 34.488C41.5635 34.2213 41.1475 34.088 40.5715 34.088C40.0488 34.088 39.6275 34.1893 39.3075 34.392C38.9875 34.5947 38.7155 34.856 38.4915 35.176L37.3235 34.184C37.5795 33.7253 37.9902 33.3413 38.5555 33.032C39.1315 32.712 39.8728 32.552 40.7795 32.552C41.8675 32.552 42.7155 32.808 43.3235 33.32C43.9422 33.8213 44.2515 34.5733 44.2515 35.576V39.464H45.2275V41H44.0275ZM40.4915 39.784C40.9822 39.784 41.3875 39.672 41.7075 39.448C42.0382 39.2133 42.2035 38.8987 42.2035 38.504V37.4H40.7955C39.6755 37.4 39.1155 37.752 39.1155 38.456V38.776C39.1155 39.1067 39.2382 39.3573 39.4835 39.528C39.7288 39.6987 40.0648 39.784 40.4915 39.784ZM51.0933 31.464C50.6133 31.464 50.2719 31.3627 50.0693 31.16C49.8773 30.9573 49.7812 30.712 49.7812 30.424V30.04C49.7812 29.752 49.8773 29.5067 50.0693 29.304C50.2719 29.1013 50.6133 29 51.0933 29C51.5733 29 51.9093 29.1013 52.1013 29.304C52.3039 29.5067 52.4053 29.752 52.4053 30.04V30.424C52.4053 30.712 52.3039 30.9573 52.1013 31.16C51.9093 31.3627 51.5733 31.464 51.0933 31.464ZM47.3493 39.384H50.0693V34.36H47.3493V32.744H52.1173V39.384H54.6453V41H47.3493V39.384ZM55.967 41V32.744H57.663V33.88H57.759C57.887 33.5173 58.0683 33.208 58.303 32.952C58.5483 32.6853 58.8897 32.552 59.327 32.552C59.743 32.552 60.0737 32.6747 60.319 32.92C60.5643 33.1547 60.7243 33.4907 60.799 33.928H60.879C61.0177 33.5547 61.2203 33.2347 61.487 32.968C61.7643 32.6907 62.1537 32.552 62.655 32.552C63.263 32.552 63.7003 32.7707 63.967 33.208C64.2337 33.6453 64.367 34.2907 64.367 35.144V41H62.687V35.384C62.687 34.904 62.6177 34.568 62.479 34.376C62.351 34.184 62.1537 34.088 61.887 34.088C61.6417 34.088 61.4337 34.168 61.263 34.328C61.103 34.488 61.023 34.7333 61.023 35.064V41H59.327V35.384C59.327 34.904 59.263 34.568 59.135 34.376C59.007 34.184 58.8097 34.088 58.543 34.088C58.287 34.088 58.0737 34.168 57.903 34.328C57.743 34.488 57.663 34.7333 57.663 35.064V41H55.967ZM75.8425 29.832H79.7305C80.7865 29.832 81.5972 30.0987 82.1625 30.632C82.7385 31.1547 83.0265 31.8693 83.0265 32.776C83.0265 33.416 82.8665 33.928 82.5465 34.312C82.2372 34.696 81.7945 34.9733 81.2185 35.144V35.224C81.8905 35.384 82.4185 35.6773 82.8025 36.104C83.1972 36.52 83.3945 37.112 83.3945 37.88C83.3945 38.3493 83.3145 38.776 83.1545 39.16C83.0052 39.5333 82.7865 39.8587 82.4985 40.136C82.2212 40.4133 81.8798 40.6267 81.4745 40.776C81.0798 40.9253 80.6318 41 80.1305 41H75.8425V29.832ZM79.4905 39.48C80.0772 39.48 80.5145 39.3733 80.8025 39.16C81.1012 38.936 81.2505 38.5573 81.2505 38.024V37.496C81.2505 36.9733 81.1012 36.6053 80.8025 36.392C80.5145 36.168 80.0772 36.056 79.4905 36.056H77.8905V39.48H79.4905ZM79.2185 34.6C79.7838 34.6 80.1998 34.4987 80.4665 34.296C80.7438 34.0933 80.8825 33.7413 80.8825 33.24V32.712C80.8825 32.2107 80.7438 31.8587 80.4665 31.656C80.1998 31.4533 79.7838 31.352 79.2185 31.352H77.8905V34.6H79.2185ZM85.3563 39.384H87.4043V34.36H85.3563V32.744H89.4523V35H89.5803C89.6549 34.712 89.7563 34.4347 89.8843 34.168C90.0229 33.8907 90.1936 33.6507 90.3963 33.448C90.6096 33.2347 90.8656 33.064 91.1643 32.936C91.4629 32.808 91.8203 32.744 92.2362 32.744H93.1323V34.664H91.4363C90.8176 34.664 90.3323 34.8453 89.9803 35.208C89.6283 35.5707 89.4523 36.0347 89.4523 36.6V39.384H92.3163V41H85.3563V39.384ZM99.062 31.464C98.582 31.464 98.2407 31.3627 98.038 31.16C97.846 30.9573 97.75 30.712 97.75 30.424V30.04C97.75 29.752 97.846 29.5067 98.038 29.304C98.2407 29.1013 98.582 29 99.062 29C99.542 29 99.878 29.1013 100.07 29.304C100.273 29.5067 100.374 29.752 100.374 30.04V30.424C100.374 30.712 100.273 30.9573 100.07 31.16C99.878 31.3627 99.542 31.464 99.062 31.464ZM95.318 39.384H98.038V34.36H95.318V32.744H100.086V39.384H102.614V41H95.318V39.384ZM112.56 41.864C112.56 42.728 112.197 43.3627 111.472 43.768C110.757 44.184 109.637 44.392 108.112 44.392C107.365 44.392 106.741 44.344 106.24 44.248C105.738 44.1627 105.333 44.0347 105.024 43.864C104.725 43.6933 104.512 43.4853 104.384 43.24C104.256 43.0053 104.192 42.7387 104.192 42.44C104.192 41.9813 104.325 41.6293 104.592 41.384C104.858 41.1387 105.232 40.9573 105.712 40.84V40.712C105.392 40.6053 105.136 40.456 104.944 40.264C104.762 40.072 104.672 39.8053 104.672 39.464C104.672 39.0587 104.805 38.7547 105.072 38.552C105.349 38.3493 105.712 38.1947 106.16 38.088V38.008C105.669 37.7733 105.285 37.4427 105.008 37.016C104.73 36.5893 104.592 36.072 104.592 35.464C104.592 35.0053 104.672 34.6 104.832 34.248C105.002 33.8853 105.237 33.5813 105.536 33.336C105.845 33.08 106.213 32.888 106.64 32.76C107.066 32.6213 107.541 32.552 108.064 32.552C108.618 32.552 109.12 32.6267 109.568 32.776V32.424C109.568 32.104 109.669 31.8373 109.872 31.624C110.085 31.4107 110.378 31.304 110.752 31.304H112.24V32.84H110.288V33.112C110.693 33.3573 111.002 33.6773 111.216 34.072C111.44 34.456 111.552 34.92 111.552 35.464C111.552 35.9227 111.466 36.3333 111.296 36.696C111.136 37.0587 110.901 37.3627 110.592 37.608C110.293 37.8533 109.925 38.0453 109.488 38.184C109.061 38.312 108.586 38.376 108.064 38.376C107.85 38.376 107.642 38.3707 107.44 38.36C107.248 38.3387 107.061 38.3013 106.88 38.248C106.73 38.3013 106.586 38.3867 106.448 38.504C106.309 38.6213 106.24 38.776 106.24 38.968C106.24 39.224 106.362 39.384 106.608 39.448C106.853 39.5013 107.146 39.528 107.488 39.528H109.36C109.936 39.528 110.426 39.5867 110.832 39.704C111.237 39.8107 111.568 39.9707 111.824 40.184C112.08 40.3867 112.266 40.632 112.384 40.92C112.501 41.208 112.56 41.5227 112.56 41.864ZM110.64 42.008C110.64 41.7627 110.538 41.5653 110.336 41.416C110.144 41.2773 109.781 41.208 109.248 41.208H106.4C106.08 41.3893 105.92 41.656 105.92 42.008C105.92 42.296 106.037 42.536 106.272 42.728C106.517 42.92 106.928 43.016 107.504 43.016H108.832C110.037 43.016 110.64 42.68 110.64 42.008ZM108.064 37.032C108.586 37.032 108.97 36.9093 109.216 36.664C109.461 36.408 109.584 36.0773 109.584 35.672V35.256C109.584 34.8507 109.461 34.5253 109.216 34.28C108.97 34.024 108.586 33.896 108.064 33.896C107.552 33.896 107.173 34.024 106.928 34.28C106.682 34.5253 106.56 34.8507 106.56 35.256V35.672C106.56 36.0773 106.682 36.408 106.928 36.664C107.173 36.9093 107.552 37.032 108.064 37.032ZM117.93 41.192C117.268 41.192 116.682 41.0907 116.17 40.888C115.658 40.6853 115.226 40.3973 114.874 40.024C114.532 39.6507 114.271 39.2027 114.09 38.68C113.908 38.1467 113.818 37.5493 113.818 36.888C113.818 36.216 113.908 35.6133 114.09 35.08C114.282 34.5467 114.548 34.0933 114.89 33.72C115.231 33.3467 115.642 33.0587 116.122 32.856C116.612 32.6533 117.162 32.552 117.77 32.552C118.367 32.552 118.906 32.6533 119.386 32.856C119.866 33.048 120.271 33.3253 120.602 33.688C120.943 34.0507 121.204 34.488 121.385 35C121.567 35.512 121.658 36.0773 121.658 36.696V37.368H115.866V37.576C115.866 38.1733 116.052 38.6587 116.426 39.032C116.799 39.3947 117.322 39.576 117.994 39.576C118.506 39.576 118.943 39.4747 119.306 39.272C119.679 39.0587 119.988 38.7813 120.234 38.44L121.402 39.608C121.103 40.0453 120.666 40.4187 120.09 40.728C119.524 41.0373 118.804 41.192 117.93 41.192ZM117.786 34.056C117.21 34.056 116.746 34.2373 116.394 34.6C116.042 34.9627 115.866 35.4427 115.866 36.04V36.152H119.61V36.008C119.61 35.4107 119.444 34.936 119.114 34.584C118.794 34.232 118.351 34.056 117.786 34.056ZM128.979 39.544H128.867C128.643 40.0453 128.334 40.4453 127.939 40.744C127.555 41.0427 127.043 41.192 126.403 41.192C125.934 41.192 125.502 41.1067 125.107 40.936C124.723 40.7547 124.393 40.488 124.115 40.136C123.838 39.7733 123.625 39.32 123.475 38.776C123.326 38.232 123.251 37.5973 123.251 36.872C123.251 35.4213 123.539 34.3387 124.115 33.624C124.691 32.9093 125.454 32.552 126.403 32.552C127.043 32.552 127.555 32.7013 127.939 33C128.334 33.2987 128.643 33.6987 128.867 34.2H128.979V29.16H131.027V41H128.979V39.544ZM127.267 39.56C127.502 39.56 127.721 39.5333 127.923 39.48C128.137 39.416 128.318 39.3307 128.467 39.224C128.627 39.1067 128.75 38.9627 128.835 38.792C128.931 38.6107 128.979 38.4027 128.979 38.168V35.576C128.979 35.3413 128.931 35.1387 128.835 34.968C128.75 34.7867 128.627 34.6427 128.467 34.536C128.318 34.4187 128.137 34.3333 127.923 34.28C127.721 34.216 127.502 34.184 127.267 34.184C126.67 34.184 126.206 34.3653 125.875 34.728C125.555 35.0907 125.395 35.5867 125.395 36.216V37.528C125.395 38.1573 125.555 38.6533 125.875 39.016C126.206 39.3787 126.67 39.56 127.267 39.56ZM147.559 31.56V41H145.479V31.56H142.119V29.832H150.919V31.56H147.559ZM156.113 41.192C155.483 41.192 154.918 41.0907 154.417 40.888C153.926 40.6853 153.505 40.3973 153.153 40.024C152.811 39.6507 152.545 39.1973 152.353 38.664C152.171 38.1307 152.081 37.5333 152.081 36.872C152.081 36.2107 152.171 35.6133 152.353 35.08C152.545 34.5467 152.811 34.0933 153.153 33.72C153.505 33.3467 153.926 33.0587 154.417 32.856C154.918 32.6533 155.483 32.552 156.113 32.552C156.731 32.552 157.291 32.6533 157.793 32.856C158.294 33.0587 158.715 33.3467 159.057 33.72C159.409 34.0933 159.675 34.5467 159.857 35.08C160.049 35.6133 160.145 36.2107 160.145 36.872C160.145 37.5333 160.049 38.1307 159.857 38.664C159.675 39.1973 159.409 39.6507 159.057 40.024C158.715 40.3973 158.294 40.6853 157.793 40.888C157.291 41.0907 156.731 41.192 156.113 41.192ZM156.113 39.624C156.699 39.624 157.163 39.448 157.505 39.096C157.846 38.7333 158.017 38.2053 158.017 37.512V36.232C158.017 35.5387 157.846 35.016 157.505 34.664C157.163 34.3013 156.699 34.12 156.113 34.12C155.526 34.12 155.062 34.3013 154.721 34.664C154.379 35.016 154.209 35.5387 154.209 36.232V37.512C154.209 38.2053 154.379 38.7333 154.721 39.096C155.062 39.448 155.526 39.624 156.113 39.624ZM162.138 29.16H164.186V36.104H164.282L165.482 34.792L167.514 32.744H169.898L166.618 35.992L170.25 41H167.802L165.162 37.16L164.186 38.088V41H162.138V29.16ZM175.492 41.192C174.831 41.192 174.244 41.0907 173.732 40.888C173.22 40.6853 172.788 40.3973 172.436 40.024C172.095 39.6507 171.833 39.2027 171.652 38.68C171.471 38.1467 171.38 37.5493 171.38 36.888C171.38 36.216 171.471 35.6133 171.652 35.08C171.844 34.5467 172.111 34.0933 172.452 33.72C172.793 33.3467 173.204 33.0587 173.684 32.856C174.175 32.6533 174.724 32.552 175.332 32.552C175.929 32.552 176.468 32.6533 176.948 32.856C177.428 33.048 177.833 33.3253 178.164 33.688C178.505 34.0507 178.767 34.488 178.948 35C179.129 35.512 179.22 36.0773 179.22 36.696V37.368H173.428V37.576C173.428 38.1733 173.615 38.6587 173.988 39.032C174.361 39.3947 174.884 39.576 175.556 39.576C176.068 39.576 176.505 39.4747 176.868 39.272C177.241 39.0587 177.551 38.7813 177.796 38.44L178.964 39.608C178.665 40.0453 178.228 40.4187 177.652 40.728C177.087 41.0373 176.367 41.192 175.492 41.192ZM175.348 34.056C174.772 34.056 174.308 34.2373 173.956 34.6C173.604 34.9627 173.428 35.4427 173.428 36.04V36.152H177.172V36.008C177.172 35.4107 177.007 34.936 176.676 34.584C176.356 34.232 175.913 34.056 175.348 34.056ZM181.294 41V32.744H183.342V34.2H183.422C183.603 33.752 183.88 33.368 184.254 33.048C184.638 32.7173 185.166 32.552 185.838 32.552C186.648 32.552 187.304 32.824 187.806 33.368C188.318 33.9013 188.574 34.6693 188.574 35.672V41H186.526V35.96C186.526 34.7653 186.008 34.168 184.974 34.168C184.76 34.168 184.558 34.1947 184.366 34.248C184.174 34.3013 183.998 34.3867 183.838 34.504C183.688 34.6107 183.566 34.744 183.47 34.904C183.384 35.064 183.342 35.256 183.342 35.48V41H181.294ZM194.456 41.192C193.549 41.192 192.765 41.0533 192.104 40.776C191.442 40.488 190.925 40.104 190.552 39.624L191.752 38.536C192.093 38.9093 192.482 39.1973 192.92 39.4C193.368 39.6027 193.885 39.704 194.472 39.704C194.984 39.704 195.394 39.6187 195.704 39.448C196.013 39.2773 196.168 39.016 196.168 38.664C196.168 38.3653 196.061 38.1627 195.848 38.056C195.645 37.9493 195.373 37.8693 195.032 37.816L193.704 37.608C193.362 37.5547 193.026 37.48 192.696 37.384C192.376 37.2773 192.088 37.1333 191.832 36.952C191.586 36.7707 191.389 36.5413 191.24 36.264C191.09 35.976 191.016 35.6293 191.016 35.224C191.016 34.36 191.336 33.6987 191.976 33.24C192.626 32.7813 193.517 32.552 194.648 32.552C195.448 32.552 196.125 32.664 196.68 32.888C197.245 33.112 197.709 33.4267 198.072 33.832L197 35.016C196.765 34.76 196.45 34.536 196.056 34.344C195.672 34.1413 195.181 34.04 194.584 34.04C193.538 34.04 193.016 34.3653 193.016 35.016C193.016 35.3147 193.122 35.5227 193.336 35.64C193.549 35.7467 193.826 35.8267 194.168 35.88L195.48 36.088C195.832 36.1413 196.168 36.2213 196.488 36.328C196.818 36.424 197.106 36.5627 197.352 36.744C197.608 36.9253 197.81 37.1547 197.96 37.432C198.109 37.7093 198.184 38.0507 198.184 38.456C198.184 39.3093 197.853 39.9813 197.192 40.472C196.541 40.952 195.629 41.192 194.456 41.192Z" fill="#EBEBEC"/>
<rect x="232.5" y="17.5" width="136" height="35" rx="7.5" fill="#2E2F33" stroke="#55575F"/>
<path d="M273.447 40V31.2727H274.504V39.0625H278.561V40H273.447ZM282.72 40.1364C282.129 40.1364 281.611 39.9957 281.165 39.7145C280.722 39.4332 280.375 39.0398 280.125 38.5341C279.878 38.0284 279.754 37.4375 279.754 36.7614C279.754 36.0795 279.878 35.4844 280.125 34.9759C280.375 34.4673 280.722 34.0724 281.165 33.7912C281.611 33.5099 282.129 33.3693 282.72 33.3693C283.311 33.3693 283.828 33.5099 284.271 33.7912C284.717 34.0724 285.064 34.4673 285.311 34.9759C285.561 35.4844 285.686 36.0795 285.686 36.7614C285.686 37.4375 285.561 38.0284 285.311 38.5341C285.064 39.0398 284.717 39.4332 284.271 39.7145C283.828 39.9957 283.311 40.1364 282.72 40.1364ZM282.72 39.233C283.169 39.233 283.538 39.1179 283.828 38.8878C284.118 38.6577 284.332 38.3551 284.472 37.9801C284.611 37.6051 284.68 37.1989 284.68 36.7614C284.68 36.3239 284.611 35.9162 284.472 35.5384C284.332 35.1605 284.118 34.8551 283.828 34.6222C283.538 34.3892 283.169 34.2727 282.72 34.2727C282.271 34.2727 281.902 34.3892 281.612 34.6222C281.322 34.8551 281.108 35.1605 280.969 35.5384C280.83 35.9162 280.76 36.3239 280.76 36.7614C280.76 37.1989 280.83 37.6051 280.969 37.9801C281.108 38.3551 281.322 38.6577 281.612 38.8878C281.902 39.1179 282.271 39.233 282.72 39.233ZM289.147 40.1534C288.733 40.1534 288.356 40.0753 288.018 39.919C287.68 39.7599 287.412 39.5312 287.213 39.233C287.014 38.9318 286.914 38.5682 286.914 38.142C286.914 37.767 286.988 37.4631 287.136 37.2301C287.284 36.9943 287.481 36.8097 287.728 36.6761C287.975 36.5426 288.248 36.4432 288.547 36.3778C288.848 36.3097 289.15 36.2557 289.454 36.2159C289.852 36.1648 290.174 36.1264 290.422 36.1009C290.672 36.0724 290.853 36.0256 290.967 35.9602C291.083 35.8949 291.142 35.7812 291.142 35.6193V35.5852C291.142 35.1648 291.027 34.8381 290.797 34.6051C290.569 34.3722 290.224 34.2557 289.761 34.2557C289.281 34.2557 288.904 34.3608 288.632 34.571C288.359 34.7812 288.167 35.0057 288.056 35.2443L287.102 34.9034C287.272 34.5057 287.5 34.196 287.784 33.9744C288.071 33.75 288.383 33.5937 288.721 33.5057C289.062 33.4148 289.397 33.3693 289.727 33.3693C289.937 33.3693 290.179 33.3949 290.451 33.446C290.727 33.4943 290.993 33.5952 291.248 33.7486C291.507 33.902 291.721 34.1335 291.892 34.4432C292.062 34.7528 292.147 35.1676 292.147 35.6875V40H291.142V39.1136H291.091C291.022 39.2557 290.909 39.4077 290.75 39.5696C290.591 39.7315 290.379 39.8693 290.115 39.983C289.85 40.0966 289.528 40.1534 289.147 40.1534ZM289.301 39.25C289.699 39.25 290.034 39.1719 290.306 39.0156C290.582 38.8594 290.789 38.6577 290.929 38.4105C291.071 38.1634 291.142 37.9034 291.142 37.6307V36.7102C291.099 36.7614 291.005 36.8082 290.86 36.8509C290.718 36.8906 290.554 36.9261 290.366 36.9574C290.181 36.9858 290.001 37.0114 289.825 37.0341C289.652 37.054 289.511 37.071 289.403 37.0852C289.142 37.1193 288.897 37.1747 288.67 37.2514C288.446 37.3253 288.264 37.4375 288.125 37.5881C287.988 37.7358 287.92 37.9375 287.92 38.1932C287.92 38.5426 288.049 38.8068 288.308 38.9858C288.569 39.1619 288.9 39.25 289.301 39.25ZM296.455 40.1364C295.909 40.1364 295.428 39.9986 295.01 39.723C294.592 39.4446 294.266 39.0526 294.03 38.5469C293.794 38.0384 293.676 37.4375 293.676 36.7443C293.676 36.0568 293.794 35.4602 294.03 34.9545C294.266 34.4489 294.594 34.0582 295.014 33.7827C295.435 33.5071 295.92 33.3693 296.472 33.3693C296.898 33.3693 297.234 33.4403 297.482 33.5824C297.732 33.7216 297.922 33.8807 298.053 34.0597C298.186 34.2358 298.29 34.3807 298.364 34.4943H298.449V31.2727H299.455V40H298.483V38.9943H298.364C298.29 39.1136 298.185 39.2642 298.048 39.446C297.912 39.625 297.717 39.7855 297.464 39.9276C297.212 40.0668 296.875 40.1364 296.455 40.1364ZM296.591 39.233C296.994 39.233 297.335 39.1278 297.614 38.9176C297.892 38.7045 298.104 38.4105 298.249 38.0355C298.393 37.6577 298.466 37.2216 298.466 36.7273C298.466 36.2386 298.395 35.8111 298.253 35.4446C298.111 35.0753 297.901 34.7884 297.622 34.5838C297.344 34.3764 297 34.2727 296.591 34.2727C296.165 34.2727 295.81 34.3821 295.526 34.6009C295.244 34.8168 295.033 35.1108 294.891 35.483C294.751 35.8523 294.682 36.267 294.682 36.7273C294.682 37.1932 294.753 37.6165 294.895 37.9972C295.04 38.375 295.253 38.6761 295.534 38.9006C295.818 39.1222 296.17 39.233 296.591 39.233ZM301.436 40V33.4545H302.442V40H301.436ZM301.947 32.3636C301.751 32.3636 301.582 32.2969 301.44 32.1634C301.301 32.0298 301.232 31.8693 301.232 31.6818C301.232 31.4943 301.301 31.3338 301.44 31.2003C301.582 31.0668 301.751 31 301.947 31C302.143 31 302.311 31.0668 302.45 31.2003C302.592 31.3338 302.663 31.4943 302.663 31.6818C302.663 31.8693 302.592 32.0298 302.45 32.1634C302.311 32.2969 302.143 32.3636 301.947 32.3636ZM305.289 36.0625V40H304.284V33.4545H305.255V34.4773H305.341C305.494 34.1449 305.727 33.8778 306.039 33.6761C306.352 33.4716 306.755 33.3693 307.25 33.3693C307.693 33.3693 308.081 33.4602 308.413 33.642C308.745 33.821 309.004 34.0938 309.189 34.4602C309.373 34.8239 309.466 35.2841 309.466 35.8409V40H308.46V35.9091C308.46 35.3949 308.326 34.9943 308.059 34.7074C307.792 34.4176 307.426 34.2727 306.96 34.2727C306.639 34.2727 306.352 34.3423 306.099 34.4815C305.849 34.6207 305.652 34.8239 305.507 35.0909C305.362 35.358 305.289 35.6818 305.289 36.0625ZM313.945 42.5909C313.46 42.5909 313.042 42.5284 312.692 42.4034C312.343 42.2812 312.052 42.1193 311.819 41.9176C311.589 41.7188 311.406 41.5057 311.269 41.2784L312.07 40.7159C312.161 40.8352 312.276 40.9716 312.415 41.125C312.555 41.2812 312.745 41.4162 312.987 41.5298C313.231 41.6463 313.55 41.7045 313.945 41.7045C314.474 41.7045 314.91 41.5767 315.254 41.321C315.597 41.0653 315.769 40.6648 315.769 40.1193V38.7898H315.684C315.61 38.9091 315.505 39.0568 315.369 39.233C315.235 39.4062 315.042 39.5611 314.789 39.6974C314.539 39.831 314.201 39.8977 313.775 39.8977C313.246 39.8977 312.772 39.7727 312.352 39.5227C311.934 39.2727 311.603 38.9091 311.359 38.4318C311.117 37.9545 310.996 37.375 310.996 36.6932C310.996 36.0227 311.114 35.4389 311.35 34.9418C311.586 34.4418 311.914 34.0554 312.335 33.7827C312.755 33.5071 313.241 33.3693 313.792 33.3693C314.218 33.3693 314.556 33.4403 314.806 33.5824C315.059 33.7216 315.252 33.8807 315.386 34.0597C315.522 34.2358 315.627 34.3807 315.701 34.4943H315.803V33.4545H316.775V40.1875C316.775 40.75 316.647 41.2074 316.391 41.5597C316.138 41.9148 315.798 42.1747 315.369 42.3395C314.942 42.5071 314.468 42.5909 313.945 42.5909ZM313.911 38.9943C314.315 38.9943 314.656 38.902 314.934 38.7173C315.212 38.5327 315.424 38.267 315.569 37.9205C315.714 37.5739 315.786 37.1591 315.786 36.6761C315.786 36.2045 315.715 35.7884 315.573 35.4276C315.431 35.0668 315.221 34.7841 314.942 34.5795C314.664 34.375 314.32 34.2727 313.911 34.2727C313.485 34.2727 313.13 34.3807 312.846 34.5966C312.565 34.8125 312.353 35.1023 312.211 35.4659C312.072 35.8295 312.002 36.233 312.002 36.6761C312.002 37.1307 312.073 37.5327 312.215 37.8821C312.36 38.2287 312.573 38.5014 312.854 38.7003C313.138 38.8963 313.491 38.9943 313.911 38.9943ZM319.349 40.0682C319.138 40.0682 318.958 39.9929 318.808 39.8423C318.657 39.6918 318.582 39.5114 318.582 39.3011C318.582 39.0909 318.657 38.9105 318.808 38.7599C318.958 38.6094 319.138 38.5341 319.349 38.5341C319.559 38.5341 319.739 38.6094 319.89 38.7599C320.04 38.9105 320.116 39.0909 320.116 39.3011C320.116 39.4403 320.08 39.5682 320.009 39.6847C319.941 39.8011 319.849 39.8949 319.732 39.9659C319.619 40.0341 319.491 40.0682 319.349 40.0682ZM322.653 40.0682C322.443 40.0682 322.263 39.9929 322.112 39.8423C321.962 39.6918 321.886 39.5114 321.886 39.3011C321.886 39.0909 321.962 38.9105 322.112 38.7599C322.263 38.6094 322.443 38.5341 322.653 38.5341C322.864 38.5341 323.044 38.6094 323.195 38.7599C323.345 38.9105 323.42 39.0909 323.42 39.3011C323.42 39.4403 323.385 39.5682 323.314 39.6847C323.246 39.8011 323.153 39.8949 323.037 39.9659C322.923 40.0341 322.795 40.0682 322.653 40.0682ZM325.958 40.0682C325.748 40.0682 325.567 39.9929 325.417 39.8423C325.266 39.6918 325.191 39.5114 325.191 39.3011C325.191 39.0909 325.266 38.9105 325.417 38.7599C325.567 38.6094 325.748 38.5341 325.958 38.5341C326.168 38.5341 326.349 38.6094 326.499 38.7599C326.65 38.9105 326.725 39.0909 326.725 39.3011C326.725 39.4403 326.69 39.5682 326.619 39.6847C326.55 39.8011 326.458 39.8949 326.342 39.9659C326.228 40.0341 326.1 40.0682 325.958 40.0682Z" fill="#6F7380"/>
</svg>
