<svg width="382" height="70" viewBox="0 0 382 70" fill="none" xmlns="http://www.w3.org/2000/svg">
<rect x="1" y="1" width="380" height="68" rx="12" fill="#181A1F" stroke="#23252C"/>
<path d="M22.088 41.192C20.6267 41.192 19.544 40.6907 18.84 39.688C18.1467 38.6853 17.8 37.2613 17.8 35.416C17.8 33.5813 18.1467 32.1627 18.84 31.16C19.544 30.1467 20.6267 29.64 22.088 29.64C22.6427 29.64 23.128 29.7147 23.544 29.864C23.9707 30.0133 24.3387 30.2213 24.648 30.488C24.9573 30.744 25.2133 31.0587 25.416 31.432C25.6187 31.7947 25.7787 32.1947 25.896 32.632L23.976 33.176C23.9013 32.92 23.816 32.68 23.72 32.456C23.624 32.232 23.5013 32.04 23.352 31.88C23.2133 31.7093 23.0373 31.5813 22.824 31.496C22.6107 31.4 22.3547 31.352 22.056 31.352C21.3307 31.352 20.808 31.6293 20.488 32.184C20.1787 32.7387 20.024 33.496 20.024 34.456V36.376C20.024 37.336 20.1787 38.0933 20.488 38.648C20.808 39.2027 21.3307 39.48 22.056 39.48C22.3547 39.48 22.6107 39.4373 22.824 39.352C23.0373 39.256 23.2133 39.128 23.352 38.968C23.5013 38.7973 23.624 38.6 23.72 38.376C23.816 38.152 23.9013 37.912 23.976 37.656L25.896 38.2C25.7787 38.6373 25.6187 39.0427 25.416 39.416C25.2133 39.7787 24.9573 40.0933 24.648 40.36C24.3387 40.616 23.9707 40.8187 23.544 40.968C23.128 41.1173 22.6427 41.192 22.088 41.192ZM27.7458 39.384H30.3698V30.776H27.7458V29.16H32.4178V39.384H35.0578V41H27.7458V39.384ZM44.0275 41C43.5262 41 43.1368 40.8773 42.8595 40.632C42.5928 40.376 42.4328 40.024 42.3795 39.576H42.2995C42.1502 40.088 41.8568 40.488 41.4195 40.776C40.9822 41.0533 40.4435 41.192 39.8035 41.192C38.9715 41.192 38.3102 40.9733 37.8195 40.536C37.3288 40.0987 37.0835 39.4907 37.0835 38.712C37.0835 37.048 38.3048 36.216 40.7475 36.216H42.2035V35.672C42.2035 35.1493 42.0755 34.7547 41.8195 34.488C41.5635 34.2213 41.1475 34.088 40.5715 34.088C40.0488 34.088 39.6275 34.1893 39.3075 34.392C38.9875 34.5947 38.7155 34.856 38.4915 35.176L37.3235 34.184C37.5795 33.7253 37.9902 33.3413 38.5555 33.032C39.1315 32.712 39.8728 32.552 40.7795 32.552C41.8675 32.552 42.7155 32.808 43.3235 33.32C43.9422 33.8213 44.2515 34.5733 44.2515 35.576V39.464H45.2275V41H44.0275ZM40.4915 39.784C40.9822 39.784 41.3875 39.672 41.7075 39.448C42.0382 39.2133 42.2035 38.8987 42.2035 38.504V37.4H40.7955C39.6755 37.4 39.1155 37.752 39.1155 38.456V38.776C39.1155 39.1067 39.2382 39.3573 39.4835 39.528C39.7288 39.6987 40.0648 39.784 40.4915 39.784ZM51.0933 31.464C50.6133 31.464 50.2719 31.3627 50.0693 31.16C49.8773 30.9573 49.7812 30.712 49.7812 30.424V30.04C49.7812 29.752 49.8773 29.5067 50.0693 29.304C50.2719 29.1013 50.6133 29 51.0933 29C51.5733 29 51.9093 29.1013 52.1013 29.304C52.3039 29.5067 52.4053 29.752 52.4053 30.04V30.424C52.4053 30.712 52.3039 30.9573 52.1013 31.16C51.9093 31.3627 51.5733 31.464 51.0933 31.464ZM47.3493 39.384H50.0693V34.36H47.3493V32.744H52.1173V39.384H54.6453V41H47.3493V39.384ZM55.967 41V32.744H57.663V33.88H57.759C57.887 33.5173 58.0683 33.208 58.303 32.952C58.5483 32.6853 58.8897 32.552 59.327 32.552C59.743 32.552 60.0737 32.6747 60.319 32.92C60.5643 33.1547 60.7243 33.4907 60.799 33.928H60.879C61.0177 33.5547 61.2203 33.2347 61.487 32.968C61.7643 32.6907 62.1537 32.552 62.655 32.552C63.263 32.552 63.7003 32.7707 63.967 33.208C64.2337 33.6453 64.367 34.2907 64.367 35.144V41H62.687V35.384C62.687 34.904 62.6177 34.568 62.479 34.376C62.351 34.184 62.1537 34.088 61.887 34.088C61.6417 34.088 61.4337 34.168 61.263 34.328C61.103 34.488 61.023 34.7333 61.023 35.064V41H59.327V35.384C59.327 34.904 59.263 34.568 59.135 34.376C59.007 34.184 58.8097 34.088 58.543 34.088C58.287 34.088 58.0737 34.168 57.903 34.328C57.743 34.488 57.663 34.7333 57.663 35.064V41H55.967ZM75.8425 29.832H79.7305C80.7865 29.832 81.5972 30.0987 82.1625 30.632C82.7385 31.1547 83.0265 31.8693 83.0265 32.776C83.0265 33.416 82.8665 33.928 82.5465 34.312C82.2372 34.696 81.7945 34.9733 81.2185 35.144V35.224C81.8905 35.384 82.4185 35.6773 82.8025 36.104C83.1972 36.52 83.3945 37.112 83.3945 37.88C83.3945 38.3493 83.3145 38.776 83.1545 39.16C83.0052 39.5333 82.7865 39.8587 82.4985 40.136C82.2212 40.4133 81.8798 40.6267 81.4745 40.776C81.0798 40.9253 80.6318 41 80.1305 41H75.8425V29.832ZM79.4905 39.48C80.0772 39.48 80.5145 39.3733 80.8025 39.16C81.1012 38.936 81.2505 38.5573 81.2505 38.024V37.496C81.2505 36.9733 81.1012 36.6053 80.8025 36.392C80.5145 36.168 80.0772 36.056 79.4905 36.056H77.8905V39.48H79.4905ZM79.2185 34.6C79.7838 34.6 80.1998 34.4987 80.4665 34.296C80.7438 34.0933 80.8825 33.7413 80.8825 33.24V32.712C80.8825 32.2107 80.7438 31.8587 80.4665 31.656C80.1998 31.4533 79.7838 31.352 79.2185 31.352H77.8905V34.6H79.2185ZM85.3563 39.384H87.4043V34.36H85.3563V32.744H89.4523V35H89.5803C89.6549 34.712 89.7563 34.4347 89.8843 34.168C90.0229 33.8907 90.1936 33.6507 90.3963 33.448C90.6096 33.2347 90.8656 33.064 91.1643 32.936C91.4629 32.808 91.8203 32.744 92.2362 32.744H93.1323V34.664H91.4363C90.8176 34.664 90.3323 34.8453 89.9803 35.208C89.6283 35.5707 89.4523 36.0347 89.4523 36.6V39.384H92.3163V41H85.3563V39.384ZM99.062 31.464C98.582 31.464 98.2407 31.3627 98.038 31.16C97.846 30.9573 97.75 30.712 97.75 30.424V30.04C97.75 29.752 97.846 29.5067 98.038 29.304C98.2407 29.1013 98.582 29 99.062 29C99.542 29 99.878 29.1013 100.07 29.304C100.273 29.5067 100.374 29.752 100.374 30.04V30.424C100.374 30.712 100.273 30.9573 100.07 31.16C99.878 31.3627 99.542 31.464 99.062 31.464ZM95.318 39.384H98.038V34.36H95.318V32.744H100.086V39.384H102.614V41H95.318V39.384ZM112.56 41.864C112.56 42.728 112.197 43.3627 111.472 43.768C110.757 44.184 109.637 44.392 108.112 44.392C107.365 44.392 106.741 44.344 106.24 44.248C105.738 44.1627 105.333 44.0347 105.024 43.864C104.725 43.6933 104.512 43.4853 104.384 43.24C104.256 43.0053 104.192 42.7387 104.192 42.44C104.192 41.9813 104.325 41.6293 104.592 41.384C104.858 41.1387 105.232 40.9573 105.712 40.84V40.712C105.392 40.6053 105.136 40.456 104.944 40.264C104.762 40.072 104.672 39.8053 104.672 39.464C104.672 39.0587 104.805 38.7547 105.072 38.552C105.349 38.3493 105.712 38.1947 106.16 38.088V38.008C105.669 37.7733 105.285 37.4427 105.008 37.016C104.73 36.5893 104.592 36.072 104.592 35.464C104.592 35.0053 104.672 34.6 104.832 34.248C105.002 33.8853 105.237 33.5813 105.536 33.336C105.845 33.08 106.213 32.888 106.64 32.76C107.066 32.6213 107.541 32.552 108.064 32.552C108.618 32.552 109.12 32.6267 109.568 32.776V32.424C109.568 32.104 109.669 31.8373 109.872 31.624C110.085 31.4107 110.378 31.304 110.752 31.304H112.24V32.84H110.288V33.112C110.693 33.3573 111.002 33.6773 111.216 34.072C111.44 34.456 111.552 34.92 111.552 35.464C111.552 35.9227 111.466 36.3333 111.296 36.696C111.136 37.0587 110.901 37.3627 110.592 37.608C110.293 37.8533 109.925 38.0453 109.488 38.184C109.061 38.312 108.586 38.376 108.064 38.376C107.85 38.376 107.642 38.3707 107.44 38.36C107.248 38.3387 107.061 38.3013 106.88 38.248C106.73 38.3013 106.586 38.3867 106.448 38.504C106.309 38.6213 106.24 38.776 106.24 38.968C106.24 39.224 106.362 39.384 106.608 39.448C106.853 39.5013 107.146 39.528 107.488 39.528H109.36C109.936 39.528 110.426 39.5867 110.832 39.704C111.237 39.8107 111.568 39.9707 111.824 40.184C112.08 40.3867 112.266 40.632 112.384 40.92C112.501 41.208 112.56 41.5227 112.56 41.864ZM110.64 42.008C110.64 41.7627 110.538 41.5653 110.336 41.416C110.144 41.2773 109.781 41.208 109.248 41.208H106.4C106.08 41.3893 105.92 41.656 105.92 42.008C105.92 42.296 106.037 42.536 106.272 42.728C106.517 42.92 106.928 43.016 107.504 43.016H108.832C110.037 43.016 110.64 42.68 110.64 42.008ZM108.064 37.032C108.586 37.032 108.97 36.9093 109.216 36.664C109.461 36.408 109.584 36.0773 109.584 35.672V35.256C109.584 34.8507 109.461 34.5253 109.216 34.28C108.97 34.024 108.586 33.896 108.064 33.896C107.552 33.896 107.173 34.024 106.928 34.28C106.682 34.5253 106.56 34.8507 106.56 35.256V35.672C106.56 36.0773 106.682 36.408 106.928 36.664C107.173 36.9093 107.552 37.032 108.064 37.032ZM117.93 41.192C117.268 41.192 116.682 41.0907 116.17 40.888C115.658 40.6853 115.226 40.3973 114.874 40.024C114.532 39.6507 114.271 39.2027 114.09 38.68C113.908 38.1467 113.818 37.5493 113.818 36.888C113.818 36.216 113.908 35.6133 114.09 35.08C114.282 34.5467 114.548 34.0933 114.89 33.72C115.231 33.3467 115.642 33.0587 116.122 32.856C116.612 32.6533 117.162 32.552 117.77 32.552C118.367 32.552 118.906 32.6533 119.386 32.856C119.866 33.048 120.271 33.3253 120.602 33.688C120.943 34.0507 121.204 34.488 121.385 35C121.567 35.512 121.658 36.0773 121.658 36.696V37.368H115.866V37.576C115.866 38.1733 116.052 38.6587 116.426 39.032C116.799 39.3947 117.322 39.576 117.994 39.576C118.506 39.576 118.943 39.4747 119.306 39.272C119.679 39.0587 119.988 38.7813 120.234 38.44L121.402 39.608C121.103 40.0453 120.666 40.4187 120.09 40.728C119.524 41.0373 118.804 41.192 117.93 41.192ZM117.786 34.056C117.21 34.056 116.746 34.2373 116.394 34.6C116.042 34.9627 115.866 35.4427 115.866 36.04V36.152H119.61V36.008C119.61 35.4107 119.444 34.936 119.114 34.584C118.794 34.232 118.351 34.056 117.786 34.056ZM128.979 39.544H128.867C128.643 40.0453 128.334 40.4453 127.939 40.744C127.555 41.0427 127.043 41.192 126.403 41.192C125.934 41.192 125.502 41.1067 125.107 40.936C124.723 40.7547 124.393 40.488 124.115 40.136C123.838 39.7733 123.625 39.32 123.475 38.776C123.326 38.232 123.251 37.5973 123.251 36.872C123.251 35.4213 123.539 34.3387 124.115 33.624C124.691 32.9093 125.454 32.552 126.403 32.552C127.043 32.552 127.555 32.7013 127.939 33C128.334 33.2987 128.643 33.6987 128.867 34.2H128.979V29.16H131.027V41H128.979V39.544ZM127.267 39.56C127.502 39.56 127.721 39.5333 127.923 39.48C128.137 39.416 128.318 39.3307 128.467 39.224C128.627 39.1067 128.75 38.9627 128.835 38.792C128.931 38.6107 128.979 38.4027 128.979 38.168V35.576C128.979 35.3413 128.931 35.1387 128.835 34.968C128.75 34.7867 128.627 34.6427 128.467 34.536C128.318 34.4187 128.137 34.3333 127.923 34.28C127.721 34.216 127.502 34.184 127.267 34.184C126.67 34.184 126.206 34.3653 125.875 34.728C125.555 35.0907 125.395 35.5867 125.395 36.216V37.528C125.395 38.1573 125.555 38.6533 125.875 39.016C126.206 39.3787 126.67 39.56 127.267 39.56ZM147.559 31.56V41H145.479V31.56H142.119V29.832H150.919V31.56H147.559ZM156.113 41.192C155.483 41.192 154.918 41.0907 154.417 40.888C153.926 40.6853 153.505 40.3973 153.153 40.024C152.811 39.6507 152.545 39.1973 152.353 38.664C152.171 38.1307 152.081 37.5333 152.081 36.872C152.081 36.2107 152.171 35.6133 152.353 35.08C152.545 34.5467 152.811 34.0933 153.153 33.72C153.505 33.3467 153.926 33.0587 154.417 32.856C154.918 32.6533 155.483 32.552 156.113 32.552C156.731 32.552 157.291 32.6533 157.793 32.856C158.294 33.0587 158.715 33.3467 159.057 33.72C159.409 34.0933 159.675 34.5467 159.857 35.08C160.049 35.6133 160.145 36.2107 160.145 36.872C160.145 37.5333 160.049 38.1307 159.857 38.664C159.675 39.1973 159.409 39.6507 159.057 40.024C158.715 40.3973 158.294 40.6853 157.793 40.888C157.291 41.0907 156.731 41.192 156.113 41.192ZM156.113 39.624C156.699 39.624 157.163 39.448 157.505 39.096C157.846 38.7333 158.017 38.2053 158.017 37.512V36.232C158.017 35.5387 157.846 35.016 157.505 34.664C157.163 34.3013 156.699 34.12 156.113 34.12C155.526 34.12 155.062 34.3013 154.721 34.664C154.379 35.016 154.209 35.5387 154.209 36.232V37.512C154.209 38.2053 154.379 38.7333 154.721 39.096C155.062 39.448 155.526 39.624 156.113 39.624ZM162.138 29.16H164.186V36.104H164.282L165.482 34.792L167.514 32.744H169.898L166.618 35.992L170.25 41H167.802L165.162 37.16L164.186 38.088V41H162.138V29.16ZM175.492 41.192C174.831 41.192 174.244 41.0907 173.732 40.888C173.22 40.6853 172.788 40.3973 172.436 40.024C172.095 39.6507 171.833 39.2027 171.652 38.68C171.471 38.1467 171.38 37.5493 171.38 36.888C171.38 36.216 171.471 35.6133 171.652 35.08C171.844 34.5467 172.111 34.0933 172.452 33.72C172.793 33.3467 173.204 33.0587 173.684 32.856C174.175 32.6533 174.724 32.552 175.332 32.552C175.929 32.552 176.468 32.6533 176.948 32.856C177.428 33.048 177.833 33.3253 178.164 33.688C178.505 34.0507 178.767 34.488 178.948 35C179.129 35.512 179.22 36.0773 179.22 36.696V37.368H173.428V37.576C173.428 38.1733 173.615 38.6587 173.988 39.032C174.361 39.3947 174.884 39.576 175.556 39.576C176.068 39.576 176.505 39.4747 176.868 39.272C177.241 39.0587 177.551 38.7813 177.796 38.44L178.964 39.608C178.665 40.0453 178.228 40.4187 177.652 40.728C177.087 41.0373 176.367 41.192 175.492 41.192ZM175.348 34.056C174.772 34.056 174.308 34.2373 173.956 34.6C173.604 34.9627 173.428 35.4427 173.428 36.04V36.152H177.172V36.008C177.172 35.4107 177.007 34.936 176.676 34.584C176.356 34.232 175.913 34.056 175.348 34.056ZM181.294 41V32.744H183.342V34.2H183.422C183.603 33.752 183.88 33.368 184.254 33.048C184.638 32.7173 185.166 32.552 185.838 32.552C186.648 32.552 187.304 32.824 187.806 33.368C188.318 33.9013 188.574 34.6693 188.574 35.672V41H186.526V35.96C186.526 34.7653 186.008 34.168 184.974 34.168C184.76 34.168 184.558 34.1947 184.366 34.248C184.174 34.3013 183.998 34.3867 183.838 34.504C183.688 34.6107 183.566 34.744 183.47 34.904C183.384 35.064 183.342 35.256 183.342 35.48V41H181.294ZM194.456 41.192C193.549 41.192 192.765 41.0533 192.104 40.776C191.442 40.488 190.925 40.104 190.552 39.624L191.752 38.536C192.093 38.9093 192.482 39.1973 192.92 39.4C193.368 39.6027 193.885 39.704 194.472 39.704C194.984 39.704 195.394 39.6187 195.704 39.448C196.013 39.2773 196.168 39.016 196.168 38.664C196.168 38.3653 196.061 38.1627 195.848 38.056C195.645 37.9493 195.373 37.8693 195.032 37.816L193.704 37.608C193.362 37.5547 193.026 37.48 192.696 37.384C192.376 37.2773 192.088 37.1333 191.832 36.952C191.586 36.7707 191.389 36.5413 191.24 36.264C191.09 35.976 191.016 35.6293 191.016 35.224C191.016 34.36 191.336 33.6987 191.976 33.24C192.626 32.7813 193.517 32.552 194.648 32.552C195.448 32.552 196.125 32.664 196.68 32.888C197.245 33.112 197.709 33.4267 198.072 33.832L197 35.016C196.765 34.76 196.45 34.536 196.056 34.344C195.672 34.1413 195.181 34.04 194.584 34.04C193.538 34.04 193.016 34.3653 193.016 35.016C193.016 35.3147 193.122 35.5227 193.336 35.64C193.549 35.7467 193.826 35.8267 194.168 35.88L195.48 36.088C195.832 36.1413 196.168 36.2213 196.488 36.328C196.818 36.424 197.106 36.5627 197.352 36.744C197.608 36.9253 197.81 37.1547 197.96 37.432C198.109 37.7093 198.184 38.0507 198.184 38.456C198.184 39.3093 197.853 39.9813 197.192 40.472C196.541 40.952 195.629 41.192 194.456 41.192Z" fill="#EBEBEC"/>
<rect x="232.5" y="17.5" width="136" height="35" rx="7.5" fill="#2E2F33" stroke="#55575F"/>
<path d="M243.048 40L240.662 31.2727H241.736L243.56 38.3807H243.645L245.503 31.2727H246.696L248.554 38.3807H248.639L250.463 31.2727H251.537L249.151 40H248.06L246.134 33.0455H246.065L244.139 40H243.048ZM254.034 40.1534C253.619 40.1534 253.243 40.0753 252.905 39.919C252.567 39.7599 252.298 39.5312 252.099 39.233C251.901 38.9318 251.801 38.5682 251.801 38.142C251.801 37.767 251.875 37.4631 252.023 37.2301C252.17 36.9943 252.368 36.8097 252.615 36.6761C252.862 36.5426 253.135 36.4432 253.433 36.3778C253.734 36.3097 254.037 36.2557 254.341 36.2159C254.739 36.1648 255.061 36.1264 255.308 36.1009C255.558 36.0724 255.74 36.0256 255.854 35.9602C255.97 35.8949 256.028 35.7812 256.028 35.6193V35.5852C256.028 35.1648 255.913 34.8381 255.683 34.6051C255.456 34.3722 255.111 34.2557 254.648 34.2557C254.168 34.2557 253.791 34.3608 253.518 34.571C253.246 34.7812 253.054 35.0057 252.943 35.2443L251.989 34.9034C252.159 34.5057 252.386 34.196 252.67 33.9744C252.957 33.75 253.27 33.5937 253.608 33.5057C253.949 33.4148 254.284 33.3693 254.614 33.3693C254.824 33.3693 255.065 33.3949 255.338 33.446C255.614 33.4943 255.879 33.5952 256.135 33.7486C256.393 33.902 256.608 34.1335 256.778 34.4432C256.949 34.7528 257.034 35.1676 257.034 35.6875V40H256.028V39.1136H255.977C255.909 39.2557 255.795 39.4077 255.636 39.5696C255.477 39.7315 255.266 39.8693 255.001 39.983C254.737 40.0966 254.415 40.1534 254.034 40.1534ZM254.188 39.25C254.585 39.25 254.92 39.1719 255.193 39.0156C255.469 38.8594 255.676 38.6577 255.815 38.4105C255.957 38.1634 256.028 37.9034 256.028 37.6307V36.7102C255.986 36.7614 255.892 36.8082 255.747 36.8509C255.605 36.8906 255.44 36.9261 255.253 36.9574C255.068 36.9858 254.888 37.0114 254.712 37.0341C254.538 37.054 254.398 37.071 254.29 37.0852C254.028 37.1193 253.784 37.1747 253.557 37.2514C253.332 37.3253 253.151 37.4375 253.011 37.5881C252.875 37.7358 252.807 37.9375 252.807 38.1932C252.807 38.5426 252.936 38.8068 253.195 38.9858C253.456 39.1619 253.787 39.25 254.188 39.25ZM259.875 31.2727V40H258.87V31.2727H259.875ZM262.723 31.2727V40H261.717V31.2727H262.723ZM267.309 40.1364C266.679 40.1364 266.135 39.9972 265.677 39.7188C265.223 39.4375 264.872 39.0455 264.625 38.5426C264.38 38.0369 264.258 37.4489 264.258 36.7784C264.258 36.108 264.38 35.517 264.625 35.0057C264.872 34.4915 265.216 34.0909 265.656 33.804C266.099 33.5142 266.616 33.3693 267.207 33.3693C267.548 33.3693 267.885 33.4261 268.217 33.5398C268.549 33.6534 268.852 33.8381 269.125 34.0938C269.397 34.3466 269.615 34.6818 269.777 35.0994C269.939 35.517 270.02 36.0312 270.02 36.642V37.0682H264.974V36.1989H268.997C268.997 35.8295 268.923 35.5 268.775 35.2102C268.63 34.9205 268.423 34.6918 268.153 34.5241C267.886 34.3565 267.571 34.2727 267.207 34.2727C266.806 34.2727 266.46 34.3722 266.167 34.571C265.877 34.767 265.654 35.0227 265.498 35.3381C265.342 35.6534 265.264 35.9915 265.264 36.3523V36.9318C265.264 37.4261 265.349 37.8452 265.52 38.1889C265.693 38.5298 265.933 38.7898 266.24 38.9688C266.547 39.1449 266.903 39.233 267.309 39.233C267.574 39.233 267.812 39.196 268.025 39.1222C268.241 39.0455 268.427 38.9318 268.583 38.7812C268.74 38.6278 268.86 38.4375 268.946 38.2102L269.917 38.483C269.815 38.8125 269.643 39.1023 269.402 39.3523C269.16 39.5994 268.862 39.7926 268.507 39.9318C268.152 40.0682 267.752 40.1364 267.309 40.1364ZM274.396 33.4545V34.3068H271.004V33.4545H274.396ZM271.993 31.8864H272.998V38.125C272.998 38.4091 273.039 38.6222 273.122 38.7642C273.207 38.9034 273.315 38.9972 273.446 39.0455C273.579 39.0909 273.72 39.1136 273.868 39.1136C273.978 39.1136 274.069 39.108 274.14 39.0966C274.211 39.0824 274.268 39.071 274.311 39.0625L274.515 39.9659C274.447 39.9915 274.352 40.017 274.23 40.0426C274.108 40.071 273.953 40.0852 273.765 40.0852C273.481 40.0852 273.203 40.0241 272.93 39.902C272.66 39.7798 272.436 39.5938 272.257 39.3438C272.081 39.0938 271.993 38.7784 271.993 38.3977V31.8864ZM280.289 36.0625V40H279.284V33.4545H280.255V34.4773H280.341C280.494 34.1449 280.727 33.8778 281.039 33.6761C281.352 33.4716 281.755 33.3693 282.25 33.3693C282.693 33.3693 283.081 33.4602 283.413 33.642C283.745 33.821 284.004 34.0938 284.189 34.4602C284.373 34.8239 284.466 35.2841 284.466 35.8409V40H283.46V35.9091C283.46 35.3949 283.326 34.9943 283.059 34.7074C282.792 34.4176 282.426 34.2727 281.96 34.2727C281.639 34.2727 281.352 34.3423 281.099 34.4815C280.849 34.6207 280.652 34.8239 280.507 35.0909C280.362 35.358 280.289 35.6818 280.289 36.0625ZM288.962 40.1364C288.371 40.1364 287.853 39.9957 287.407 39.7145C286.964 39.4332 286.617 39.0398 286.367 38.5341C286.12 38.0284 285.996 37.4375 285.996 36.7614C285.996 36.0795 286.12 35.4844 286.367 34.9759C286.617 34.4673 286.964 34.0724 287.407 33.7912C287.853 33.5099 288.371 33.3693 288.962 33.3693C289.553 33.3693 290.07 33.5099 290.513 33.7912C290.96 34.0724 291.306 34.4673 291.553 34.9759C291.803 35.4844 291.928 36.0795 291.928 36.7614C291.928 37.4375 291.803 38.0284 291.553 38.5341C291.306 39.0398 290.96 39.4332 290.513 39.7145C290.07 39.9957 289.553 40.1364 288.962 40.1364ZM288.962 39.233C289.411 39.233 289.781 39.1179 290.07 38.8878C290.36 38.6577 290.575 38.3551 290.714 37.9801C290.853 37.6051 290.923 37.1989 290.923 36.7614C290.923 36.3239 290.853 35.9162 290.714 35.5384C290.575 35.1605 290.36 34.8551 290.07 34.6222C289.781 34.3892 289.411 34.2727 288.962 34.2727C288.513 34.2727 288.144 34.3892 287.854 34.6222C287.565 34.8551 287.35 35.1605 287.211 35.5384C287.072 35.9162 287.002 36.3239 287.002 36.7614C287.002 37.1989 287.072 37.6051 287.211 37.9801C287.35 38.3551 287.565 38.6577 287.854 38.8878C288.144 39.1179 288.513 39.233 288.962 39.233ZM296.31 33.4545V34.3068H292.918V33.4545H296.31ZM293.907 31.8864H294.912V38.125C294.912 38.4091 294.953 38.6222 295.036 38.7642C295.121 38.9034 295.229 38.9972 295.36 39.0455C295.493 39.0909 295.634 39.1136 295.782 39.1136C295.892 39.1136 295.983 39.108 296.054 39.0966C296.125 39.0824 296.182 39.071 296.225 39.0625L296.429 39.9659C296.361 39.9915 296.266 40.017 296.144 40.0426C296.022 40.071 295.867 40.0852 295.679 40.0852C295.395 40.0852 295.117 40.0241 294.844 39.902C294.574 39.7798 294.35 39.5938 294.171 39.3438C293.995 39.0938 293.907 38.7784 293.907 38.3977V31.8864ZM303.857 40.1364C303.243 40.1364 302.715 39.9915 302.272 39.7017C301.828 39.4119 301.488 39.0128 301.249 38.5043C301.01 37.9957 300.891 37.4148 300.891 36.7614C300.891 36.0966 301.013 35.5099 301.257 35.0014C301.505 34.4901 301.848 34.0909 302.289 33.804C302.732 33.5142 303.249 33.3693 303.84 33.3693C304.3 33.3693 304.715 33.4545 305.084 33.625C305.453 33.7955 305.756 34.0341 305.992 34.3409C306.228 34.6477 306.374 35.0057 306.431 35.4148H305.425C305.348 35.1165 305.178 34.8523 304.914 34.6222C304.652 34.3892 304.3 34.2727 303.857 34.2727C303.465 34.2727 303.121 34.375 302.826 34.5795C302.533 34.7812 302.304 35.0668 302.14 35.4361C301.978 35.8026 301.897 36.233 301.897 36.7273C301.897 37.233 301.976 37.6733 302.135 38.0483C302.297 38.4233 302.525 38.7145 302.817 38.9219C303.113 39.1293 303.459 39.233 303.857 39.233C304.118 39.233 304.355 39.1875 304.569 39.0966C304.782 39.0057 304.962 38.875 305.11 38.7045C305.257 38.5341 305.363 38.3295 305.425 38.0909H306.431C306.374 38.4773 306.233 38.8253 306.009 39.1349C305.787 39.4418 305.493 39.6861 305.127 39.8679C304.763 40.0469 304.34 40.1364 303.857 40.1364ZM310.56 40.1364C309.969 40.1364 309.451 39.9957 309.005 39.7145C308.561 39.4332 308.215 39.0398 307.965 38.5341C307.718 38.0284 307.594 37.4375 307.594 36.7614C307.594 36.0795 307.718 35.4844 307.965 34.9759C308.215 34.4673 308.561 34.0724 309.005 33.7912C309.451 33.5099 309.969 33.3693 310.56 33.3693C311.151 33.3693 311.668 33.5099 312.111 33.7912C312.557 34.0724 312.904 34.4673 313.151 34.9759C313.401 35.4844 313.526 36.0795 313.526 36.7614C313.526 37.4375 313.401 38.0284 313.151 38.5341C312.904 39.0398 312.557 39.4332 312.111 39.7145C311.668 39.9957 311.151 40.1364 310.56 40.1364ZM310.56 39.233C311.009 39.233 311.378 39.1179 311.668 38.8878C311.958 38.6577 312.172 38.3551 312.311 37.9801C312.451 37.6051 312.52 37.1989 312.52 36.7614C312.52 36.3239 312.451 35.9162 312.311 35.5384C312.172 35.1605 311.958 34.8551 311.668 34.6222C311.378 34.3892 311.009 34.2727 310.56 34.2727C310.111 34.2727 309.742 34.3892 309.452 34.6222C309.162 34.8551 308.948 35.1605 308.809 35.5384C308.669 35.9162 308.6 36.3239 308.6 36.7614C308.6 37.1989 308.669 37.6051 308.809 37.9801C308.948 38.3551 309.162 38.6577 309.452 38.8878C309.742 39.1179 310.111 39.233 310.56 39.233ZM316.067 36.0625V40H315.061V33.4545H316.033V34.4773H316.118C316.271 34.1449 316.504 33.8778 316.817 33.6761C317.129 33.4716 317.533 33.3693 318.027 33.3693C318.47 33.3693 318.858 33.4602 319.19 33.642C319.523 33.821 319.781 34.0938 319.966 34.4602C320.151 34.8239 320.243 35.2841 320.243 35.8409V40H319.237V35.9091C319.237 35.3949 319.104 34.9943 318.837 34.7074C318.57 34.4176 318.203 34.2727 317.737 34.2727C317.416 34.2727 317.129 34.3423 316.876 34.4815C316.626 34.6207 316.429 34.8239 316.284 35.0909C316.139 35.358 316.067 35.6818 316.067 36.0625ZM323.086 36.0625V40H322.081V33.4545H323.052V34.4773H323.137C323.291 34.1449 323.524 33.8778 323.836 33.6761C324.149 33.4716 324.552 33.3693 325.047 33.3693C325.49 33.3693 325.877 33.4602 326.21 33.642C326.542 33.821 326.801 34.0938 326.985 34.4602C327.17 34.8239 327.262 35.2841 327.262 35.8409V40H326.257V35.9091C326.257 35.3949 326.123 34.9943 325.856 34.7074C325.589 34.4176 325.223 34.2727 324.757 34.2727C324.436 34.2727 324.149 34.3423 323.896 34.4815C323.646 34.6207 323.449 34.8239 323.304 35.0909C323.159 35.358 323.086 35.6818 323.086 36.0625ZM331.844 40.1364C331.214 40.1364 330.67 39.9972 330.212 39.7188C329.758 39.4375 329.407 39.0455 329.16 38.5426C328.915 38.0369 328.793 37.4489 328.793 36.7784C328.793 36.108 328.915 35.517 329.16 35.0057C329.407 34.4915 329.751 34.0909 330.191 33.804C330.634 33.5142 331.151 33.3693 331.742 33.3693C332.083 33.3693 332.42 33.4261 332.752 33.5398C333.085 33.6534 333.387 33.8381 333.66 34.0938C333.933 34.3466 334.15 34.6818 334.312 35.0994C334.474 35.517 334.555 36.0312 334.555 36.642V37.0682H329.509V36.1989H333.532C333.532 35.8295 333.458 35.5 333.31 35.2102C333.165 34.9205 332.958 34.6918 332.688 34.5241C332.421 34.3565 332.106 34.2727 331.742 34.2727C331.342 34.2727 330.995 34.3722 330.702 34.571C330.413 34.767 330.19 35.0227 330.033 35.3381C329.877 35.6534 329.799 35.9915 329.799 36.3523V36.9318C329.799 37.4261 329.884 37.8452 330.055 38.1889C330.228 38.5298 330.468 38.7898 330.775 38.9688C331.082 39.1449 331.438 39.233 331.844 39.233C332.109 39.233 332.347 39.196 332.56 39.1222C332.776 39.0455 332.962 38.9318 333.119 38.7812C333.275 38.6278 333.396 38.4375 333.481 38.2102L334.452 38.483C334.35 38.8125 334.178 39.1023 333.937 39.3523C333.695 39.5994 333.397 39.7926 333.042 39.9318C332.687 40.0682 332.288 40.1364 331.844 40.1364ZM338.744 40.1364C338.13 40.1364 337.602 39.9915 337.158 39.7017C336.715 39.4119 336.374 39.0128 336.136 38.5043C335.897 37.9957 335.778 37.4148 335.778 36.7614C335.778 36.0966 335.9 35.5099 336.144 35.0014C336.391 34.4901 336.735 34.0909 337.175 33.804C337.619 33.5142 338.136 33.3693 338.727 33.3693C339.187 33.3693 339.602 33.4545 339.971 33.625C340.34 33.7955 340.643 34.0341 340.879 34.3409C341.114 34.6477 341.261 35.0057 341.317 35.4148H340.312C340.235 35.1165 340.065 34.8523 339.8 34.6222C339.539 34.3892 339.187 34.2727 338.744 34.2727C338.352 34.2727 338.008 34.375 337.712 34.5795C337.42 34.7812 337.191 35.0668 337.026 35.4361C336.864 35.8026 336.783 36.233 336.783 36.7273C336.783 37.233 336.863 37.6733 337.022 38.0483C337.184 38.4233 337.411 38.7145 337.704 38.9219C337.999 39.1293 338.346 39.233 338.744 39.233C339.005 39.233 339.242 39.1875 339.455 39.0966C339.668 39.0057 339.849 38.875 339.996 38.7045C340.144 38.5341 340.249 38.3295 340.312 38.0909H341.317C341.261 38.4773 341.12 38.8253 340.896 39.1349C340.674 39.4418 340.38 39.6861 340.013 39.8679C339.65 40.0469 339.227 40.1364 338.744 40.1364ZM345.634 33.4545V34.3068H342.242V33.4545H345.634ZM343.231 31.8864H344.237V38.125C344.237 38.4091 344.278 38.6222 344.36 38.7642C344.445 38.9034 344.553 38.9972 344.684 39.0455C344.817 39.0909 344.958 39.1136 345.106 39.1136C345.217 39.1136 345.308 39.108 345.379 39.0966C345.45 39.0824 345.506 39.071 345.549 39.0625L345.754 39.9659C345.685 39.9915 345.59 40.017 345.468 40.0426C345.346 40.071 345.191 40.0852 345.004 40.0852C344.719 40.0852 344.441 40.0241 344.168 39.902C343.898 39.7798 343.674 39.5938 343.495 39.3438C343.319 39.0938 343.231 38.7784 343.231 38.3977V31.8864ZM349.821 40.1364C349.19 40.1364 348.646 39.9972 348.189 39.7188C347.734 39.4375 347.384 39.0455 347.136 38.5426C346.892 38.0369 346.77 37.4489 346.77 36.7784C346.77 36.108 346.892 35.517 347.136 35.0057C347.384 34.4915 347.727 34.0909 348.168 33.804C348.611 33.5142 349.128 33.3693 349.719 33.3693C350.06 33.3693 350.396 33.4261 350.729 33.5398C351.061 33.6534 351.364 33.8381 351.636 34.0938C351.909 34.3466 352.126 34.6818 352.288 35.0994C352.45 35.517 352.531 36.0312 352.531 36.642V37.0682H347.486V36.1989H351.509C351.509 35.8295 351.435 35.5 351.287 35.2102C351.142 34.9205 350.935 34.6918 350.665 34.5241C350.398 34.3565 350.082 34.2727 349.719 34.2727C349.318 34.2727 348.972 34.3722 348.679 34.571C348.389 34.767 348.166 35.0227 348.01 35.3381C347.854 35.6534 347.776 35.9915 347.776 36.3523V36.9318C347.776 37.4261 347.861 37.8452 348.031 38.1889C348.205 38.5298 348.445 38.7898 348.751 38.9688C349.058 39.1449 349.415 39.233 349.821 39.233C350.085 39.233 350.324 39.196 350.537 39.1222C350.753 39.0455 350.939 38.9318 351.095 38.7812C351.251 38.6278 351.372 38.4375 351.457 38.2102L352.429 38.483C352.327 38.8125 352.155 39.1023 351.913 39.3523C351.672 39.5994 351.374 39.7926 351.018 39.9318C350.663 40.0682 350.264 40.1364 349.821 40.1364ZM356.533 40.1364C355.987 40.1364 355.506 39.9986 355.088 39.723C354.67 39.4446 354.344 39.0526 354.108 38.5469C353.872 38.0384 353.754 37.4375 353.754 36.7443C353.754 36.0568 353.872 35.4602 354.108 34.9545C354.344 34.4489 354.672 34.0582 355.092 33.7827C355.513 33.5071 355.999 33.3693 356.55 33.3693C356.976 33.3693 357.313 33.4403 357.56 33.5824C357.81 33.7216 358 33.8807 358.131 34.0597C358.264 34.2358 358.368 34.3807 358.442 34.4943H358.527V31.2727H359.533V40H358.561V38.9943H358.442C358.368 39.1136 358.263 39.2642 358.126 39.446C357.99 39.625 357.795 39.7855 357.543 39.9276C357.29 40.0668 356.953 40.1364 356.533 40.1364ZM356.669 39.233C357.072 39.233 357.413 39.1278 357.692 38.9176C357.97 38.7045 358.182 38.4105 358.327 38.0355C358.472 37.6577 358.544 37.2216 358.544 36.7273C358.544 36.2386 358.473 35.8111 358.331 35.4446C358.189 35.0753 357.979 34.7884 357.7 34.5838C357.422 34.3764 357.078 34.2727 356.669 34.2727C356.243 34.2727 355.888 34.3821 355.604 34.6009C355.322 34.8168 355.111 35.1108 354.969 35.483C354.83 35.8523 354.76 36.267 354.76 36.7273C354.76 37.1932 354.831 37.6165 354.973 37.9972C355.118 38.375 355.331 38.6761 355.612 38.9006C355.896 39.1222 356.249 39.233 356.669 39.233Z" fill="#E69C46"/>
</svg>
