<svg width="524" height="72" viewBox="0 0 524 72" fill="none" xmlns="http://www.w3.org/2000/svg">
<mask id="mask0_109_132" style="mask-type:alpha" maskUnits="userSpaceOnUse" x="0" y="0" width="524" height="72">
<path d="M0.5 12C0.5 5.64873 5.64873 0.5 12 0.5H512C518.351 0.5 523.5 5.64873 523.5 12V71.5H0.5V12Z" fill="#1B1B1B" stroke="#444444"/>
</mask>
<g mask="url(#mask0_109_132)">
<path fill-rule="evenodd" clip-rule="evenodd" d="M397.514 22.5934H413.739C411.37 31.2742 411.342 40.4274 413.659 49.1223H397.514V62.9876H419.697C424.229 70.2505 430.522 76.2595 437.997 80.4571C445.636 84.7467 454.252 87 463.016 87C471.78 87 480.396 84.7467 488.035 80.4571C495.51 76.2595 501.802 70.2505 506.335 62.9876H528.514V49.1223H512.368C514.684 40.4273 514.657 31.2749 512.292 22.5934H528.514V8.7281H506.154C501.604 1.54258 495.325 -4.39485 487.885 -8.54012C480.283 -12.7762 471.722 -15 463.016 -15C454.31 -15 445.749 -12.7762 438.146 -8.54012C430.707 -4.39485 424.427 1.54258 419.878 8.7281H397.514V22.5934ZM420.432 9.7281C424.914 2.47463 431.179 -3.5134 438.633 -7.66657C446.087 -11.8197 454.48 -14 463.016 -14C471.551 -14 479.945 -11.8197 487.399 -7.66657C494.852 -3.5134 501.118 2.47463 505.6 9.7281H527.514V21.5934H510.965C511.065 21.926 511.161 22.2593 511.254 22.5934C513.669 31.2682 513.696 40.4335 511.332 49.1223C511.241 49.4564 511.147 49.7897 511.049 50.1223H527.514V61.9876H505.777C501.313 69.3191 495.035 75.3795 487.545 79.5852C480.056 83.7908 471.608 86 463.016 86C454.423 86 445.976 83.7908 438.486 79.5852C430.997 75.3795 424.718 69.3191 420.255 61.9876H398.514V50.1223H414.978C414.88 49.7897 414.786 49.4564 414.695 49.1223C412.329 40.4335 412.358 31.2675 414.777 22.5934C414.87 22.2593 414.967 21.926 415.067 21.5934H398.514V9.7281H420.432ZM463.01 68.1934C469.383 68.1907 475.611 66.3026 480.909 62.7676C486.212 59.23 490.344 54.2021 492.784 48.3198C495.224 42.4376 495.862 35.965 494.618 29.7205C493.374 23.476 490.304 17.7399 485.795 13.2376C481.286 8.73525 475.541 5.66895 469.287 4.42668C463.033 3.18441 456.55 3.822 450.658 6.25877C444.767 8.69553 439.732 12.8219 436.189 18.116C432.647 23.41 430.756 29.6339 430.756 36.0007C430.766 44.538 434.168 52.7228 440.215 58.7586C446.262 64.7936 454.46 68.1869 463.01 68.1934ZM429.756 36.0007C429.756 29.4358 431.705 23.0184 435.358 17.5599C439.011 12.1014 444.202 7.84697 450.276 5.33469C456.35 2.82242 463.034 2.1651 469.482 3.44584C475.93 4.72659 481.853 7.88788 486.502 12.53C491.151 17.172 494.316 23.0864 495.599 29.5252C496.882 35.9639 496.223 42.6378 493.707 48.703C491.192 54.7682 486.931 59.9521 481.465 63.5994C476.003 67.2435 469.582 69.19 463.014 69.1934C463.014 69.1934 463.014 69.1934 463.014 69.1934C463.013 69.1934 463.011 69.1934 463.01 69.1934C463.006 69.1934 463.001 69.1934 462.997 69.1934C454.187 69.1834 445.74 65.6855 439.509 59.4664C433.274 53.2432 429.766 44.8038 429.756 36.0007ZM463.015 23.5597L463.014 23.5597L462.997 23.5597C460.533 23.5597 458.125 24.2892 456.076 25.6561C454.028 27.0229 452.431 28.9658 451.488 31.2393C450.545 33.5128 450.298 36.0145 450.779 38.4281C451.259 40.8417 452.446 43.0585 454.189 44.7983C455.931 46.5381 458.151 47.7228 460.567 48.2027C462.983 48.6826 465.488 48.4363 467.764 47.4949C470.04 46.5534 471.986 44.959 473.355 42.9131C474.724 40.8672 475.454 38.4616 475.454 36.0007C475.454 32.7039 474.144 29.5421 471.812 27.2096C469.479 24.8771 466.315 23.5646 463.015 23.5597ZM463.014 24.5597H462.997C460.731 24.5597 458.516 25.2307 456.631 26.4879C454.747 27.745 453.279 29.5319 452.411 31.6225C451.544 33.713 451.317 36.0134 451.759 38.2327C452.201 40.4521 453.293 42.4907 454.895 44.0907C456.497 45.6907 458.539 46.7804 460.762 47.2218C462.984 47.6633 465.288 47.4367 467.381 46.5708C469.475 45.7048 471.265 44.2384 472.523 42.357C473.782 40.4755 474.454 38.2635 474.454 36.0007C474.454 32.9693 473.25 30.0618 471.105 27.9167C468.959 25.7715 466.049 24.5642 463.014 24.5597Z" fill="url(#paint0_linear_109_132)"/>
<path fill-rule="evenodd" clip-rule="evenodd" d="M433.016 -14.5814C424.395 -14.5814 415.918 -12.3794 408.39 -8.18477C400.943 -4.03546 394.67 1.92721 390.154 9.14668H368.014V22.012H384.398C381.818 31.0032 381.789 40.534 384.314 49.5409H368.014V62.4062H389.975C394.473 69.7034 400.759 75.738 408.241 79.9397C415.806 84.1873 424.338 86.4186 433.016 86.4186V85.4186C424.509 85.4186 416.146 83.2314 408.731 79.0678C401.317 74.9041 395.101 68.9043 390.682 61.6462L390.536 61.4062H369.014V50.5409H385.647L385.458 49.8995C382.74 40.6764 382.77 30.8625 385.545 21.6563L385.74 21.012H369.014V10.1467H390.71L390.857 9.90951C395.294 2.72864 401.497 -3.19953 408.876 -7.31122C416.255 -11.4229 424.565 -13.5814 433.016 -13.5814V-14.5814Z" fill="url(#paint1_linear_109_132)" fill-opacity="0.65"/>
<path fill-rule="evenodd" clip-rule="evenodd" d="M392.514 -14.5814C383.893 -14.5814 375.416 -12.3794 367.888 -8.18477C360.441 -4.03546 354.168 1.92721 349.652 9.14668H327.512V22.012H343.896C341.316 31.0032 341.287 40.534 343.812 49.5409H327.512V62.4062H349.473C353.971 69.7034 360.257 75.738 367.739 79.9397C375.304 84.1873 383.836 86.4186 392.514 86.4186V85.4186C384.007 85.4186 375.644 83.2314 368.229 79.0678C360.815 74.9041 354.599 68.9043 350.18 61.6462L350.034 61.4062H328.512V50.5409H345.145L344.956 49.8995C342.238 40.6764 342.268 30.8625 345.043 21.6563L345.238 21.012H328.512V10.1467H350.208L350.355 9.90951C354.792 2.72864 360.995 -3.19953 368.374 -7.31122C375.753 -11.4229 384.063 -13.5814 392.514 -13.5814V-14.5814Z" fill="url(#paint2_linear_109_132)" fill-opacity="0.55"/>
<path fill-rule="evenodd" clip-rule="evenodd" d="M352.012 -14.5814C343.391 -14.5814 334.914 -12.3794 327.386 -8.18477C319.939 -4.03546 313.666 1.92721 309.15 9.14668H287.01V22.012H303.394C300.814 31.0032 300.785 40.534 303.31 49.5409H287.01V62.4062H308.971C313.469 69.7034 319.755 75.738 327.238 79.9397C334.802 84.1873 343.334 86.4186 352.012 86.4186V85.4186C343.505 85.4186 335.142 83.2314 327.727 79.0678C320.313 74.9041 314.097 68.9043 309.678 61.6462L309.532 61.4062H288.01V50.5409H304.643L304.454 49.8995C301.736 40.6764 301.766 30.8625 304.541 21.6563L304.736 21.012H288.01V10.1467H309.706L309.853 9.90951C314.29 2.72864 320.493 -3.19953 327.872 -7.31122C335.252 -11.4229 343.561 -13.5814 352.012 -13.5814V-14.5814Z" fill="url(#paint3_linear_109_132)" fill-opacity="0.45"/>
<path opacity="0.5" fill-rule="evenodd" clip-rule="evenodd" d="M311.51 -14.5814C302.889 -14.5814 294.412 -12.3794 286.884 -8.18477C279.437 -4.03546 273.164 1.92721 268.648 9.14668H246.508V22.012H262.893C260.312 31.0032 260.283 40.534 262.808 49.5409H246.508V62.4062H268.469C272.967 69.7034 279.253 75.738 286.736 79.9397C294.3 84.1873 302.832 86.4186 311.51 86.4186V85.4186C303.003 85.4186 294.64 83.2314 287.225 79.0678C279.811 74.9041 273.595 68.9043 269.176 61.6462L269.03 61.4062H247.508V50.5409H264.141L263.952 49.8995C261.234 40.6764 261.264 30.8625 264.04 21.6563L264.234 21.012H247.508V10.1467H269.204L269.351 9.90951C273.788 2.72864 279.991 -3.19953 287.37 -7.31122C294.75 -11.4229 303.059 -13.5814 311.51 -13.5814V-14.5814Z" fill="url(#paint4_linear_109_132)" fill-opacity="0.35"/>
<path fill-rule="evenodd" clip-rule="evenodd" d="M271.008 -14.5814C262.387 -14.5814 253.91 -12.3794 246.382 -8.18477C238.935 -4.03546 232.662 1.92721 228.146 9.14668H206.006V22.012H222.391C219.81 31.0032 219.781 40.534 222.306 49.5409H206.006V62.4062H227.967C232.465 69.7034 238.751 75.738 246.234 79.9397C253.798 84.1873 262.33 86.4186 271.008 86.4186V85.4186C262.501 85.4186 254.138 83.2314 246.723 79.0678C239.309 74.9041 233.093 68.9043 228.674 61.6462L228.528 61.4062H207.006V50.5409H223.639L223.45 49.8995C220.732 40.6764 220.762 30.8625 223.538 21.6563L223.732 21.012H207.006V10.1467H228.702L228.849 9.90951C233.286 2.72864 239.489 -3.19953 246.868 -7.31122C254.248 -11.4229 262.557 -13.5814 271.008 -13.5814V-14.5814Z" fill="url(#paint5_linear_109_132)" fill-opacity="0.25"/>
<path fill-rule="evenodd" clip-rule="evenodd" d="M230.506 -14.5814C221.885 -14.5814 213.408 -12.3794 205.88 -8.18477C198.433 -4.03546 192.16 1.92721 187.644 9.14668H165.504V22.012H181.889C179.308 31.0032 179.279 40.534 181.805 49.5409H165.504V62.4062H187.465C191.963 69.7034 198.249 75.738 205.732 79.9397C213.296 84.1873 221.828 86.4186 230.506 86.4186V85.4186C221.999 85.4186 213.636 83.2314 206.221 79.0678C198.807 74.9041 192.591 68.9043 188.172 61.6462L188.026 61.4062H166.504V50.5409H183.137L182.948 49.8995C180.23 40.6764 180.26 30.8625 183.036 21.6563L183.23 21.012H166.504V10.1467H188.201L188.347 9.90951C192.784 2.72864 198.987 -3.19953 206.367 -7.31122C213.746 -11.4229 222.056 -13.5814 230.506 -13.5814V-14.5814Z" fill="url(#paint6_linear_109_132)" fill-opacity="0.15"/>
<path fill-rule="evenodd" clip-rule="evenodd" d="M190.004 -14.5814C181.383 -14.5814 172.906 -12.3794 165.378 -8.18477C157.931 -4.03546 151.658 1.92721 147.142 9.14668H125.002V22.012H141.387C138.806 31.0032 138.777 40.534 141.303 49.5409H125.002V62.4062H146.963C151.461 69.7034 157.747 75.738 165.23 79.9397C172.794 84.1873 181.326 86.4186 190.004 86.4186V85.4186C181.497 85.4186 173.134 83.2314 165.719 79.0678C158.305 74.9041 152.089 68.9043 147.67 61.6462L147.524 61.4062H126.002V50.5409H142.635L142.446 49.8995C139.728 40.6764 139.758 30.8625 142.534 21.6563L142.728 21.012H126.002V10.1467H147.699L147.845 9.90951C152.282 2.72864 158.485 -3.19953 165.865 -7.31122C173.244 -11.4229 181.554 -13.5814 190.004 -13.5814V-14.5814Z" fill="url(#paint7_linear_109_132)" fill-opacity="0.1"/>
<path fill-rule="evenodd" clip-rule="evenodd" d="M149.502 -14.5814C140.881 -14.5814 132.404 -12.3794 124.876 -8.18477C117.429 -4.03546 111.156 1.92721 106.64 9.14668H84.4998V22.012H100.885C98.3041 31.0032 98.275 40.534 100.801 49.5409H84.4998V62.4062H106.461C110.96 69.7034 117.245 75.738 124.728 79.9397C132.292 84.1873 140.824 86.4186 149.502 86.4186V85.4186C140.995 85.4186 132.632 83.2314 125.217 79.0678C117.803 74.9041 111.587 68.9043 107.168 61.6462L107.022 61.4062H85.4998V50.5409H102.133L101.944 49.8995C99.2259 40.6764 99.2563 30.8625 102.032 21.6563L102.226 21.012H85.4998V10.1467H107.197L107.343 9.90951C111.78 2.72864 117.983 -3.19953 125.363 -7.31122C132.742 -11.4229 141.052 -13.5814 149.502 -13.5814V-14.5814Z" fill="url(#paint8_linear_109_132)" fill-opacity="0.05"/>
</g>
<defs>
<linearGradient id="paint0_linear_109_132" x1="528.514" y1="36.0007" x2="397.514" y2="36.0007" gradientUnits="userSpaceOnUse">
<stop stop-color="#E29C53"/>
<stop offset="1" stop-color="#CE4C7A"/>
</linearGradient>
<linearGradient id="paint1_linear_109_132" x1="433.016" y1="35.9193" x2="368.514" y2="35.9193" gradientUnits="userSpaceOnUse">
<stop stop-color="#E29C53"/>
<stop offset="1" stop-color="#CE4C7A"/>
</linearGradient>
<linearGradient id="paint2_linear_109_132" x1="392.514" y1="35.9193" x2="328.012" y2="35.9193" gradientUnits="userSpaceOnUse">
<stop stop-color="#E29C53"/>
<stop offset="1" stop-color="#CE4C7A"/>
</linearGradient>
<linearGradient id="paint3_linear_109_132" x1="352.012" y1="35.9193" x2="287.51" y2="35.9193" gradientUnits="userSpaceOnUse">
<stop stop-color="#E29C53"/>
<stop offset="1" stop-color="#CE4C7A"/>
</linearGradient>
<linearGradient id="paint4_linear_109_132" x1="311.51" y1="35.9193" x2="247.008" y2="35.9193" gradientUnits="userSpaceOnUse">
<stop stop-color="#E29C53"/>
<stop offset="1" stop-color="#CE4C7A"/>
</linearGradient>
<linearGradient id="paint5_linear_109_132" x1="271.008" y1="35.9193" x2="206.506" y2="35.9193" gradientUnits="userSpaceOnUse">
<stop stop-color="#E29C53"/>
<stop offset="1" stop-color="#CE4C7A"/>
</linearGradient>
<linearGradient id="paint6_linear_109_132" x1="230.506" y1="35.9193" x2="166.004" y2="35.9193" gradientUnits="userSpaceOnUse">
<stop stop-color="#E29C53"/>
<stop offset="1" stop-color="#CE4C7A"/>
</linearGradient>
<linearGradient id="paint7_linear_109_132" x1="190.004" y1="35.9193" x2="125.502" y2="35.9193" gradientUnits="userSpaceOnUse">
<stop stop-color="#E29C53"/>
<stop offset="1" stop-color="#CE4C7A"/>
</linearGradient>
<linearGradient id="paint8_linear_109_132" x1="149.502" y1="35.9193" x2="84.9998" y2="35.9193" gradientUnits="userSpaceOnUse">
<stop stop-color="#E29C53"/>
<stop offset="1" stop-color="#CE4C7A"/>
</linearGradient>
</defs>
</svg>
