<svg width="114" height="50" viewBox="0 0 114 50" fill="none" xmlns="http://www.w3.org/2000/svg">
<path d="M44.0168 31.7405L41.3661 36.2523C44.3825 31.1166 42.8539 23.9359 37.0275 18.3919C32.6527 14.2331 26.7383 11.8624 21.1263 11.8101L23.777 7.29823C29.3896 7.35707 35.303 9.71975 39.6783 13.8801C45.5031 19.4196 47.0286 26.6013 44.0168 31.7405Z" fill="#181A1F" stroke="#6F7380" stroke-width="0.8"/>
<path d="M44.0168 31.7405L41.3661 36.2523C44.3825 31.1166 42.8539 23.9359 37.0275 18.3919C32.6527 14.2331 26.7383 11.8624 21.1263 11.8101L23.777 7.29823C29.3896 7.35707 35.303 9.71975 39.6783 13.8801C45.5031 19.4196 47.0286 26.6013 44.0168 31.7405Z" fill="#181A1F" stroke="#6F7380" stroke-width="0.8"/>
<path d="M44.0168 31.7405L41.3661 36.2523C44.3825 31.1166 42.8539 23.9359 37.0275 18.3919C32.6527 14.2331 26.7383 11.8624 21.1263 11.8101L23.777 7.29823C29.3896 7.35707 35.303 9.71975 39.6783 13.8801C45.5031 19.4196 47.0286 26.6013 44.0168 31.7405Z" fill="#181A1F" stroke="#6F7380" stroke-width="0.8"/>
<path d="M44.0168 31.7405L41.3661 36.2523C44.3825 31.1166 42.8539 23.9359 37.0275 18.3919C32.6527 14.2331 26.7383 11.8624 21.1263 11.8101L23.777 7.29823C29.3896 7.35707 35.303 9.71975 39.6783 13.8801C45.5031 19.4196 47.0286 26.6013 44.0168 31.7405Z" fill="#181A1F" stroke="#6F7380" stroke-width="0.8"/>
<path d="M44.0168 31.7405L41.3661 36.2523C44.3825 31.1166 42.8539 23.9359 37.0275 18.3919C32.6527 14.2331 26.7383 11.8624 21.1263 11.8101L23.777 7.29823C29.3896 7.35707 35.303 9.71975 39.6783 13.8801C45.5031 19.4196 47.0286 26.6013 44.0168 31.7405Z" fill="#181A1F" stroke="#6F7380" stroke-width="0.8"/>
<path d="M23.7801 7.30216L21.1315 11.82C21.0286 11.8037 20.923 11.8094 20.8219 11.8366C20.7219 11.8634 20.6359 11.9271 20.582 12.0143L23.2328 7.50247C23.2589 7.45878 23.2935 7.42055 23.3347 7.39003C23.3759 7.35951 23.4228 7.33734 23.4726 7.32481C23.5736 7.2968 23.6794 7.29111 23.7822 7.30817" fill="#181A1F"/>
<path d="M23.7801 7.30216L21.1315 11.82C21.0286 11.8037 20.923 11.8094 20.8219 11.8366C20.7219 11.8634 20.6359 11.9271 20.582 12.0143L23.2328 7.50247C23.2589 7.45878 23.2935 7.42055 23.3347 7.39003C23.3759 7.35951 23.4228 7.33734 23.4726 7.32481C23.5736 7.2968 23.6794 7.29111 23.7822 7.30817" stroke="#6F7380" stroke-width="0.8"/>
<path d="M23.7801 7.30216L21.1315 11.82C21.0286 11.8037 20.923 11.8094 20.8219 11.8366C20.7219 11.8634 20.6359 11.9271 20.582 12.0143L23.2328 7.50247C23.2589 7.45878 23.2935 7.42055 23.3347 7.39003C23.3759 7.35951 23.4228 7.33734 23.4726 7.32481C23.5736 7.2968 23.6794 7.29111 23.7822 7.30817" fill="#181A1F"/>
<path d="M23.7801 7.30216L21.1315 11.82C21.0286 11.8037 20.923 11.8094 20.8219 11.8366C20.7219 11.8634 20.6359 11.9271 20.582 12.0143L23.2328 7.50247C23.2589 7.45878 23.2935 7.42055 23.3347 7.39003C23.3759 7.35951 23.4228 7.33734 23.4726 7.32481C23.5736 7.2968 23.6794 7.29111 23.7822 7.30817" stroke="#6F7380" stroke-width="0.8"/>
<path d="M23.2074 7.85497L20.5566 12.3668C20.5344 12.3092 20.525 12.2474 20.5291 12.1856C20.5332 12.1238 20.5506 12.0633 20.5803 12.0083L23.231 7.49646C23.2013 7.55146 23.1838 7.61191 23.1797 7.67375C23.1757 7.73559 23.1851 7.79738 23.2074 7.85497Z" fill="#181A1F"/>
<path d="M23.2074 7.85497L20.5566 12.3668C20.5344 12.3092 20.525 12.2474 20.5291 12.1856C20.5332 12.1238 20.5506 12.0633 20.5803 12.0083L23.231 7.49646C23.2013 7.55146 23.1838 7.61191 23.1797 7.67375C23.1757 7.73559 23.1851 7.79738 23.2074 7.85497" stroke="#6F7380" stroke-width="0.8"/>
<path d="M23.3174 8.19731L20.6671 12.7106C20.5681 12.5497 20.5173 12.468 20.5465 12.3635L23.1973 7.85169C23.1604 7.95882 23.2107 8.03903 23.3174 8.19731Z" fill="#181A1F" stroke="#6F7380" stroke-width="0.8"/>
<path d="M24.0157 9.33899L21.3655 13.8523L20.6692 12.7166L23.32 8.20478L24.0157 9.33899Z" fill="#181A1F" stroke="#6F7380" stroke-width="0.8"/>
<path d="M25.0285 9.99603L22.3782 14.5094C22.0193 14.4236 21.572 14.1731 21.3653 13.8509L24.016 9.33903C24.2146 9.66244 24.6695 9.91025 25.029 9.99754" fill="#181A1F"/>
<path d="M25.0285 9.99603L22.3782 14.5094C22.0193 14.4236 21.572 14.1731 21.3653 13.8509L24.016 9.33903C24.2146 9.66244 24.6695 9.91025 25.029 9.99754" stroke="#6F7380" stroke-width="0.8"/>
<path d="M44.0168 31.7405L41.3661 36.2523C44.3825 31.1166 42.8539 23.9359 37.0275 18.3919C32.6527 14.2331 26.7383 11.8624 21.1263 11.8101L23.777 7.29823C29.3896 7.35707 35.303 9.71975 39.6783 13.8801C45.5031 19.4196 47.0286 26.6013 44.0168 31.7405Z" fill="#181A1F" stroke="#6F7380" stroke-width="0.8"/>
<path d="M41.1857 30.2183L38.5381 34.7392C39.7017 32.7567 40.0931 30.3622 39.5515 27.8069C38.2147 20.8307 30.4607 14.7978 22.3807 14.5169L25.0309 10.0035C33.1119 10.2875 40.8649 16.3174 42.2018 23.2935C42.7449 25.8483 42.3525 28.2449 41.1883 30.2258" fill="#181A1F"/>
<path d="M41.1857 30.2183L38.5381 34.7392C39.7017 32.7567 40.0931 30.3622 39.5515 27.8069C38.2147 20.8307 30.4607 14.7978 22.3807 14.5169L25.0309 10.0035C33.1119 10.2875 40.8649 16.3174 42.2018 23.2935C42.7449 25.8483 42.3525 28.2449 41.1883 30.2258" stroke="#6F7380" stroke-width="0.8"/>
<path d="M23.2774 13.0954L20.6271 17.6087C20.428 17.2838 20.0239 17.1177 19.5435 17.1634L22.1943 12.6516C22.6742 12.6044 23.0788 12.772 23.2774 13.0954Z" fill="#181A1F" stroke="#6F7380" stroke-width="0.8"/>
<path d="M30.3707 17.2207L27.7199 21.7326C26.2759 20.0567 23.8882 19.1366 21.8215 19.5567L24.4701 15.0389C26.544 14.6146 28.9317 15.5347 30.3686 17.2147" fill="#181A1F"/>
<path d="M30.3707 17.2207L27.7199 21.7326C26.2759 20.0567 23.8882 19.1366 21.8215 19.5567L24.4701 15.0389C26.544 14.6146 28.9317 15.5347 30.3686 17.2147" stroke="#6F7380" stroke-width="0.8"/>
<path d="M30.4198 17.303L27.769 21.8148L27.7203 21.7341L30.3705 17.2207L30.4198 17.303Z" fill="#181A1F" stroke="#6F7380" stroke-width="0.8"/>
<path d="M30.4616 17.8307L27.8113 22.344C27.8543 22.2597 27.873 22.1658 27.8655 22.0725C27.858 21.9792 27.8245 21.8901 27.7687 21.8148L30.419 17.3015C30.4748 17.3767 30.5083 17.4659 30.5158 17.5592C30.5233 17.6525 30.5045 17.7464 30.4616 17.8307Z" fill="#181A1F"/>
<path d="M30.4616 17.8307L27.8113 22.344C27.8543 22.2597 27.873 22.1658 27.8655 22.0725C27.858 21.9792 27.8245 21.8901 27.7687 21.8148L30.419 17.3015C30.4748 17.3767 30.5083 17.4659 30.5158 17.5592C30.5233 17.6525 30.5045 17.7464 30.4616 17.8307" stroke="#6F7380" stroke-width="0.8"/>
<path d="M30.4648 17.8397L27.814 22.3515C27.7472 22.458 27.6412 22.5353 27.5184 22.5671L30.1687 18.0538C30.2914 18.0224 30.3975 17.9457 30.4648 17.8397Z" fill="#181A1F" stroke="#6F7380" stroke-width="0.8"/>
<path d="M22.1959 12.6561L19.5457 17.1694L18.2598 17.5506L20.9101 13.0372L22.1959 12.6561Z" fill="#181A1F" stroke="#6F7380" stroke-width="0.8"/>
<path d="M30.3707 17.2207L27.7199 21.7326C26.2759 20.0567 23.8882 19.1366 21.8215 19.5567L24.4701 15.0389C26.544 14.6146 28.9317 15.5347 30.3686 17.2147" fill="#181A1F"/>
<path d="M30.3707 17.2207L27.7199 21.7326C26.2759 20.0567 23.8882 19.1366 21.8215 19.5567L24.4701 15.0389C26.544 14.6146 28.9317 15.5347 30.3686 17.2147" stroke="#6F7380" stroke-width="0.8"/>
<path d="M24.4718 15.0449L21.8216 19.5582L20.6287 17.6132L23.2795 13.1014L24.4718 15.0449Z" fill="#181A1F" stroke="#6F7380" stroke-width="0.8"/>
<path d="M15.551 10.4146L12.9003 14.9264C12.8116 14.7678 12.679 14.6374 12.5177 14.5499C12.3563 14.4625 12.1726 14.4216 11.9874 14.4319L14.6376 9.91853C14.823 9.9089 15.0067 9.95023 15.1681 10.0379C15.3294 10.1255 15.462 10.256 15.551 10.4146Z" fill="#181A1F"/>
<path d="M15.551 10.4146L12.9003 14.9264C12.8116 14.7678 12.679 14.6374 12.5177 14.5499C12.3563 14.4625 12.1726 14.4216 11.9874 14.4319L14.6376 9.91853C14.823 9.9089 15.0067 9.95023 15.1681 10.0379C15.3294 10.1255 15.462 10.256 15.551 10.4146" stroke="#6F7380" stroke-width="0.8"/>
<path d="M20.9099 13.0372L18.2596 17.5505C18.1986 17.5657 18.141 17.5925 18.0902 17.6295C18.0395 17.6665 17.9966 17.7129 17.964 17.7661L20.6209 13.2521C20.6874 13.1452 20.7932 13.0674 20.916 13.0351" fill="#181A1F"/>
<path d="M20.9099 13.0372L18.2596 17.5505C18.1986 17.5657 18.141 17.5925 18.0902 17.6295C18.0395 17.6665 17.9966 17.7129 17.964 17.7661L20.6209 13.2521C20.6874 13.1452 20.7932 13.0674 20.916 13.0351" stroke="#6F7380" stroke-width="0.8"/>
<path d="M14.6375 9.91855L11.9873 14.4319C11.8759 14.452 11.774 14.5082 11.698 14.5913L14.3488 10.0795C14.4235 9.99477 14.5256 9.93785 14.6375 9.91855Z" fill="#181A1F" stroke="#6F7380" stroke-width="0.8"/>
<path d="M14.3441 10.1012L11.6933 14.6131L11.704 14.5891L14.3486 10.0795C14.3435 10.0867 14.3399 10.0948 14.3379 10.1034" fill="#181A1F"/>
<path d="M14.3441 10.1012L11.6933 14.6131L11.704 14.5891L14.3486 10.0795C14.3435 10.0867 14.3399 10.0948 14.3379 10.1034" stroke="#6F7380" stroke-width="0.8"/>
<path d="M20.6217 13.8886L17.9715 18.4019C17.9231 18.3035 17.8974 18.1956 17.8961 18.0858C17.8949 17.9759 17.9181 17.8668 17.9642 17.7661L20.6211 13.2521C20.5747 13.3525 20.5513 13.4614 20.5525 13.571C20.5536 13.6806 20.5794 13.7883 20.6279 13.8864" fill="#181A1F"/>
<path d="M20.6217 13.8886L17.9715 18.4019C17.9231 18.3035 17.8974 18.1956 17.8961 18.0858C17.8949 17.9759 17.9181 17.8668 17.9642 17.7661L20.6211 13.2521C20.5747 13.3525 20.5513 13.4614 20.5525 13.571C20.5536 13.6806 20.5794 13.7883 20.6279 13.8864" stroke="#6F7380" stroke-width="0.8"/>
<path d="M30.1669 18.0478L27.5161 22.5596L26.1431 22.9677L28.7934 18.4544L30.1669 18.0478Z" fill="#181A1F" stroke="#6F7380" stroke-width="0.8"/>
<path d="M16.2467 11.5488L13.5959 16.0606L12.9007 14.9279L15.551 10.4146L16.2467 11.5488Z" fill="#181A1F" stroke="#6F7380" stroke-width="0.8"/>
<path d="M16.3359 12.3666L13.6857 16.8799C13.8199 16.6514 13.7995 16.3941 13.5957 16.0607L16.2459 11.5473C16.4497 11.8807 16.4717 12.1425 16.3359 12.3666Z" fill="#181A1F" stroke="#6F7380" stroke-width="0.8"/>
<path d="M16.336 12.3665L13.6857 16.8799C13.6547 16.9313 13.6183 16.9795 13.5772 17.0237L16.2285 12.5134C16.2691 12.4684 16.3053 12.4197 16.3365 12.368" fill="#181A1F"/>
<path d="M16.336 12.3665L13.6857 16.8799C13.6547 16.9313 13.6183 16.9795 13.5772 17.0237L16.2285 12.5134C16.2691 12.4684 16.3053 12.4197 16.3365 12.368" stroke="#6F7380" stroke-width="0.8"/>
<path d="M21.7646 15.7534L19.1144 20.2667L17.9718 18.4019L20.6205 13.8891L21.7646 15.7534Z" fill="#181A1F" stroke="#6F7380" stroke-width="0.8"/>
<path d="M35.2354 27.6899L32.5846 32.2018C33.2483 31.0718 33.2023 29.6848 32.3573 28.3044C30.619 25.4694 28.2197 25.0265 24.3682 25.6913C21.5918 26.1323 20.6836 25.6361 19.9904 24.4993C19.627 23.9048 19.5652 23.3503 19.8399 22.886L22.4901 18.3727C22.216 18.8384 22.2757 19.392 22.6412 19.9875C23.3369 21.1217 24.2426 21.6205 27.0184 21.1779C30.8684 20.5137 33.2682 20.953 35.0075 23.7911C35.8521 25.17 35.898 26.5569 35.2349 27.6884" fill="#181A1F"/>
<path d="M35.2354 27.6899L32.5846 32.2018C33.2483 31.0718 33.2023 29.6848 32.3573 28.3044C30.619 25.4694 28.2197 25.0265 24.3682 25.6913C21.5918 26.1323 20.6836 25.6361 19.9904 24.4993C19.627 23.9048 19.5652 23.3503 19.8399 22.886L22.4901 18.3727C22.216 18.8384 22.2757 19.392 22.6412 19.9875C23.3369 21.1217 24.2426 21.6205 27.0184 21.1779C30.8684 20.5137 33.2682 20.953 35.0075 23.7911C35.8521 25.17 35.898 26.5569 35.2349 27.6884" stroke="#6F7380" stroke-width="0.8"/>
<path d="M28.7931 18.4543L26.1423 22.9662C25.9921 23.0001 25.8361 22.9973 25.6884 22.9579C25.5406 22.9184 25.4055 22.8436 25.2952 22.7401C24.1205 21.6511 22.9652 21.421 21.4215 21.8783C20.6064 22.1211 20.0845 22.4692 19.8384 22.8916L22.4886 18.3782C22.7348 17.9559 23.2545 17.6068 24.0723 17.3664C25.6155 16.9076 26.7713 17.1392 27.9459 18.2283C28.0565 18.3315 28.1916 18.406 28.3393 18.4454C28.487 18.4848 28.6428 18.4879 28.7931 18.4543Z" fill="#181A1F"/>
<path d="M28.7931 18.4543L26.1423 22.9662C25.9921 23.0001 25.8361 22.9973 25.6884 22.9579C25.5406 22.9184 25.4055 22.8436 25.2952 22.7401C24.1205 21.6511 22.9652 21.421 21.4215 21.8783C20.6064 22.1211 20.0845 22.4692 19.8384 22.8916L22.4886 18.3782C22.7348 17.9559 23.2545 17.6068 24.0723 17.3664C25.6155 16.9076 26.7713 17.1392 27.9459 18.2283C28.0565 18.3315 28.1916 18.406 28.3393 18.4454C28.487 18.4848 28.6428 18.4879 28.7931 18.4543" stroke="#6F7380" stroke-width="0.8"/>
<path d="M21.7645 15.7534L19.1148 20.2682C18.1933 20.6911 17.5346 21.2653 17.145 21.9295L19.7953 17.4162C20.1848 16.752 20.8435 16.1778 21.7655 15.7564" fill="#181A1F"/>
<path d="M21.7645 15.7534L19.1148 20.2682C18.1933 20.6911 17.5346 21.2653 17.145 21.9295L19.7953 17.4162C20.1848 16.752 20.8435 16.1778 21.7655 15.7564" stroke="#6F7380" stroke-width="0.8"/>
<path d="M16.2286 12.5134L13.5778 17.0252C12.6962 17.7386 11.9508 18.6007 11.3775 19.57L14.0282 15.0582C14.6003 14.088 15.3459 13.2257 16.2286 12.5134Z" fill="#181A1F"/>
<path d="M16.2286 12.5134L13.5778 17.0252C12.6962 17.7386 11.9508 18.6007 11.3775 19.57L14.0282 15.0582C14.6003 14.088 15.3459 13.2257 16.2286 12.5134" stroke="#6F7380" stroke-width="0.8"/>
<path d="M14.3442 10.1013L11.6935 14.6131C10.4156 15.5322 9.3443 16.7014 8.54863 18.0453L11.1989 13.532C11.9942 12.1881 13.0658 11.0193 14.3442 10.1013Z" fill="#181A1F"/>
<path d="M14.3442 10.1013L11.6935 14.6131C10.4156 15.5322 9.3443 16.7014 8.54863 18.0453L11.1989 13.532C11.9942 12.1881 13.0658 11.0193 14.3442 10.1013" stroke="#6F7380" stroke-width="0.8"/>
<path d="M35.2354 27.6899L32.5846 32.2018C33.2483 31.0718 33.2023 29.6848 32.3573 28.3044C30.619 25.4694 28.2197 25.0265 24.3682 25.6913C21.5918 26.1323 20.6836 25.6361 19.9904 24.4993C19.627 23.9048 19.5652 23.3503 19.8399 22.886L22.4901 18.3727C22.216 18.8384 22.2757 19.392 22.6412 19.9875C23.3369 21.1217 24.2426 21.6205 27.0184 21.1779C30.8684 20.5137 33.2682 20.953 35.0075 23.7911C35.8521 25.17 35.898 26.5569 35.2349 27.6884" fill="#181A1F"/>
<path d="M35.2354 27.6899L32.5846 32.2018C33.2483 31.0718 33.2023 29.6848 32.3573 28.3044C30.619 25.4694 28.2197 25.0265 24.3682 25.6913C21.5918 26.1323 20.6836 25.6361 19.9904 24.4993C19.627 23.9048 19.5652 23.3503 19.8399 22.886L22.4901 18.3727C22.216 18.8384 22.2757 19.392 22.6412 19.9875C23.3369 21.1217 24.2426 21.6205 27.0184 21.1779C30.8684 20.5137 33.2682 20.953 35.0075 23.7911C35.8521 25.17 35.898 26.5569 35.2349 27.6884" stroke="#6F7380" stroke-width="0.8"/>
<path d="M35.2354 27.6899L32.5846 32.2018C33.2483 31.0718 33.2023 29.6848 32.3573 28.3044C30.619 25.4694 28.2197 25.0265 24.3682 25.6913C21.5918 26.1323 20.6836 25.6361 19.9904 24.4993C19.627 23.9048 19.5652 23.3503 19.8399 22.886L22.4901 18.3727C22.216 18.8384 22.2757 19.392 22.6412 19.9875C23.3369 21.1217 24.2426 21.6205 27.0184 21.1779C30.8684 20.5137 33.2682 20.953 35.0075 23.7911C35.8521 25.17 35.898 26.5569 35.2349 27.6884" fill="#181A1F"/>
<path d="M35.2354 27.6899L32.5846 32.2018C33.2483 31.0718 33.2023 29.6848 32.3573 28.3044C30.619 25.4694 28.2197 25.0265 24.3682 25.6913C21.5918 26.1323 20.6836 25.6361 19.9904 24.4993C19.627 23.9048 19.5652 23.3503 19.8399 22.886L22.4901 18.3727C22.216 18.8384 22.2757 19.392 22.6412 19.9875C23.3369 21.1217 24.2426 21.6205 27.0184 21.1779C30.8684 20.5137 33.2682 20.953 35.0075 23.7911C35.8521 25.17 35.898 26.5569 35.2349 27.6884" stroke="#6F7380" stroke-width="0.8"/>
<path d="M35.2354 27.6899L32.5846 32.2018C33.2483 31.0718 33.2023 29.6848 32.3573 28.3044C30.619 25.4694 28.2197 25.0265 24.3682 25.6913C21.5918 26.1323 20.6836 25.6361 19.9904 24.4993C19.627 23.9048 19.5652 23.3503 19.8399 22.886L22.4901 18.3727C22.216 18.8384 22.2757 19.392 22.6412 19.9875C23.3369 21.1217 24.2426 21.6205 27.0184 21.1779C30.8684 20.5137 33.2682 20.953 35.0075 23.7911C35.8521 25.17 35.898 26.5569 35.2349 27.6884" fill="#181A1F"/>
<path d="M35.2354 27.6899L32.5846 32.2018C33.2483 31.0718 33.2023 29.6848 32.3573 28.3044C30.619 25.4694 28.2197 25.0265 24.3682 25.6913C21.5918 26.1323 20.6836 25.6361 19.9904 24.4993C19.627 23.9048 19.5652 23.3503 19.8399 22.886L22.4901 18.3727C22.216 18.8384 22.2757 19.392 22.6412 19.9875C23.3369 21.1217 24.2426 21.6205 27.0184 21.1779C30.8684 20.5137 33.2682 20.953 35.0075 23.7911C35.8521 25.17 35.898 26.5569 35.2349 27.6884" stroke="#6F7380" stroke-width="0.8"/>
<path d="M32.4722 26.6864L29.822 31.1997C30.1464 30.6457 30.1343 29.9712 29.7124 29.2825C28.9171 27.9858 27.8469 27.7278 25.1966 28.0357L27.8468 23.5224C30.4976 23.216 31.5673 23.4724 32.3626 24.7691C32.7867 25.4638 32.7972 26.1339 32.4722 26.6864Z" fill="#181A1F"/>
<path d="M32.4722 26.6864L29.822 31.1997C30.1464 30.6457 30.1343 29.9712 29.7124 29.2825C28.9171 27.9858 27.8469 27.7278 25.1966 28.0357L27.8468 23.5224C30.4976 23.216 31.5673 23.4724 32.3626 24.7691C32.7867 25.4638 32.7972 26.1339 32.4722 26.6864" stroke="#6F7380" stroke-width="0.8"/>
<path d="M30.1879 35.2829L27.5371 39.7948C19.4567 39.5123 11.7031 33.4809 10.3658 26.5033C9.82315 23.95 10.2161 21.5549 11.3782 19.573L14.029 15.0612C12.8648 17.0421 12.4749 19.4361 13.0165 21.9914C14.3534 28.9676 22.1074 35.0005 30.1879 35.2829Z" fill="#181A1F" stroke="#6F7380" stroke-width="0.8"/>
<path d="M35.2353 27.6899L32.5846 32.2017C32.1338 32.9246 31.478 33.504 30.6991 33.8674L33.3499 29.3556C34.1281 28.9911 34.7836 28.412 35.2353 27.6899Z" fill="#181A1F" stroke="#6F7380" stroke-width="0.8"/>
<path d="M41.1855 30.2183L38.5379 34.7392C37.9653 35.7084 37.2204 36.5704 36.3391 37.2835L38.9893 32.7701C39.8711 32.0575 40.6161 31.1954 41.1882 30.2259" fill="#181A1F"/>
<path d="M41.1855 30.2183L38.5379 34.7392C37.9653 35.7084 37.2204 36.5704 36.3391 37.2835L38.9893 32.7701C39.8711 32.0575 40.6161 31.1954 41.1882 30.2259" stroke="#6F7380" stroke-width="0.8"/>
<path d="M38.9872 32.7626L36.3369 37.2759C36.2953 37.3202 36.2584 37.3686 36.2268 37.4203L38.8776 32.9084C38.9084 32.8559 38.9451 32.807 38.9872 32.7626Z" fill="#181A1F"/>
<path d="M38.9872 32.7626L36.3369 37.2759C36.2953 37.3202 36.2584 37.3686 36.2268 37.4203L38.8776 32.9084C38.9084 32.8559 38.9451 32.807 38.9872 32.7626" stroke="#6F7380" stroke-width="0.8"/>
<path d="M27.8472 23.5224L25.197 28.0357C21.3455 28.7004 18.9851 28.1565 17.3458 25.4824C16.5843 24.2431 16.5277 22.9744 17.1441 21.9265L19.7944 17.4131C19.1779 18.461 19.2345 19.7298 19.9961 20.9691C21.6369 23.6426 23.9973 24.1866 27.8488 23.5219" fill="#181A1F"/>
<path d="M27.8472 23.5224L25.197 28.0357C21.3455 28.7004 18.9851 28.1565 17.3458 25.4824C16.5843 24.2431 16.5277 22.9744 17.1441 21.9265L19.7944 17.4131C19.1779 18.461 19.2345 19.7298 19.9961 20.9691C21.6369 23.6426 23.9973 24.1866 27.8488 23.5219" stroke="#6F7380" stroke-width="0.8"/>
<path d="M38.9683 33.7257L36.3181 38.239C36.1149 37.9071 36.0923 37.6438 36.2292 37.4278L38.8794 32.9145C38.7462 33.141 38.7672 33.3998 38.9683 33.7257Z" fill="#181A1F"/>
<path d="M38.9683 33.7257L36.3181 38.239C36.1149 37.9071 36.0923 37.6438 36.2292 37.4278L38.8794 32.9145C38.7462 33.141 38.7672 33.3998 38.9683 33.7257" stroke="#6F7380" stroke-width="0.8"/>
<path d="M34.5444 31.3052L31.8936 35.817L30.7013 33.8735L33.3515 29.3602L34.5444 31.3052Z" fill="#181A1F" stroke="#6F7380" stroke-width="0.8"/>
<path d="M32.4725 26.6864L29.8223 31.1997C29.5354 31.6884 28.9861 32.0814 28.2222 32.3081C25.9915 32.9705 24.6725 32.3089 23.6717 31.1695L26.3147 26.6604C27.3171 27.7992 28.6361 28.4608 30.8668 27.7985C31.6292 27.5723 32.1785 27.1742 32.4664 26.6885" fill="#181A1F"/>
<path d="M32.4725 26.6864L29.8223 31.1997C29.5354 31.6884 28.9861 32.0814 28.2222 32.3081C25.9915 32.9705 24.6725 32.3089 23.6717 31.1695L26.3147 26.6604C27.3171 27.7992 28.6361 28.4608 30.8668 27.7985C31.6292 27.5723 32.1785 27.1742 32.4664 26.6885" stroke="#6F7380" stroke-width="0.8"/>
<path d="M26.3144 26.6604L23.6652 31.1717C23.5589 31.0448 23.419 30.9491 23.2606 30.895C23.1021 30.8409 22.9311 30.8303 22.7657 30.8645L25.4159 26.3511C25.5813 26.3171 25.7524 26.3279 25.9108 26.3823C26.0691 26.4368 26.2087 26.533 26.3144 26.6604Z" fill="#181A1F"/>
<path d="M26.3144 26.6604L23.6652 31.1717C23.5589 31.0448 23.419 30.9491 23.2606 30.895C23.1021 30.8409 22.9311 30.8303 22.7657 30.8645L25.4159 26.3511C25.5813 26.3171 25.7524 26.3279 25.9108 26.3823C26.0691 26.4368 26.2087 26.533 26.3144 26.6604" stroke="#6F7380" stroke-width="0.8"/>
<path d="M44.0172 31.7405L41.3664 36.2523C40.5698 37.5962 39.4981 38.7655 38.22 39.685L40.8702 35.1717C42.1489 34.2533 43.2209 33.0844 44.0172 31.7405Z" fill="#181A1F"/>
<path d="M44.0172 31.7405L41.3664 36.2523C40.5698 37.5962 39.4981 38.7655 38.22 39.685L40.8702 35.1717C42.1489 34.2533 43.2209 33.0844 44.0172 31.7405" stroke="#6F7380" stroke-width="0.8"/>
<path d="M40.8583 35.1977L38.208 39.711L38.2197 39.6851L40.8699 35.1717L40.8583 35.1977Z" fill="#181A1F"/>
<path d="M40.8583 35.1977L38.208 39.711L38.2197 39.6851L40.8699 35.1717L40.8583 35.1977" stroke="#6F7380" stroke-width="0.8"/>
<path d="M32.4725 26.6864L29.8223 31.1997C29.5354 31.6884 28.9861 32.0814 28.2222 32.3081C25.9915 32.9705 24.6725 32.3089 23.6717 31.1695L26.3147 26.6604C27.3171 27.7992 28.6361 28.4608 30.8668 27.7985C31.6292 27.5723 32.1785 27.1742 32.4664 26.6885" fill="#181A1F"/>
<path d="M32.4725 26.6864L29.8223 31.1997C29.5354 31.6884 28.9861 32.0814 28.2222 32.3081C25.9915 32.9705 24.6725 32.3089 23.6717 31.1695L26.3147 26.6604C27.3171 27.7992 28.6361 28.4608 30.8668 27.7985C31.6292 27.5723 32.1785 27.1742 32.4664 26.6885" stroke="#6F7380" stroke-width="0.8"/>
<path d="M34.5491 31.9384L31.9004 36.4512C31.9462 36.3507 31.9694 36.2419 31.9682 36.1324C31.967 36.0228 31.9416 35.9152 31.8936 35.817L34.5439 31.3036C34.5922 31.4019 34.6177 31.5097 34.6186 31.6195C34.6195 31.7292 34.5958 31.8381 34.5491 31.9384Z" fill="#181A1F" stroke="#6F7380" stroke-width="0.8"/>
<path d="M40.8587 35.1976L38.2085 39.711C38.1326 39.7944 38.0307 39.8505 37.9192 39.8704L40.5695 35.3571C40.6782 35.3374 40.7775 35.2821 40.851 35.2003" fill="#181A1F"/>
<path d="M40.8587 35.1976L38.2085 39.711C38.1326 39.7944 38.0307 39.8505 37.9192 39.8704L40.5695 35.3571C40.6782 35.3374 40.7775 35.2821 40.851 35.2003" stroke="#6F7380" stroke-width="0.8"/>
<path d="M39.6639 34.8599L37.0136 39.3732L36.3179 38.239L38.9687 33.7272L39.6639 34.8599Z" fill="#181A1F" stroke="#6F7380" stroke-width="0.8"/>
<path d="M39.68 13.8845C46.9713 20.8176 47.5298 30.3244 40.8731 35.1706C40.8362 35.2777 40.666 35.3285 40.5799 35.3534C40.3947 35.363 40.2113 35.3219 40.05 35.2345C39.8888 35.1472 39.7561 35.0171 39.667 34.8588L38.9713 33.7246C38.724 33.3204 38.7469 33.0245 38.9899 32.7615C41.7589 30.5041 43.001 27.0713 42.2022 23.2849C40.8653 16.3088 33.1113 10.2759 25.0313 9.99495C24.6724 9.90917 24.2252 9.65869 24.0184 9.33644L23.3175 8.19728C23.2185 8.03633 23.1682 7.95612 23.1974 7.85166C23.1742 7.80045 23.1626 7.74472 23.1637 7.68835C23.1647 7.63197 23.1782 7.57633 23.2033 7.52528C23.2284 7.47423 23.2644 7.42901 23.3089 7.39278C23.3534 7.35654 23.4052 7.33016 23.4609 7.31548C23.5619 7.28747 23.6676 7.28179 23.7705 7.29885C29.3928 7.36103 35.3031 9.72478 39.68 13.8845Z" fill="#181A1F" stroke="#6F7380" stroke-width="0.8"/>
<path d="M40.5768 35.3544L37.9265 39.8678C37.7414 39.8774 37.5579 39.8363 37.3967 39.7489C37.2354 39.6616 37.1028 39.5315 37.0136 39.3732L39.6618 34.8539C39.7509 35.0121 39.8836 35.1422 40.0448 35.2296C40.2061 35.317 40.3895 35.3581 40.5747 35.3484" fill="#181A1F"/>
<path d="M40.5768 35.3544L37.9265 39.8678C37.7414 39.8774 37.5579 39.8363 37.3967 39.7489C37.2354 39.6616 37.1028 39.5315 37.0136 39.3732L39.6618 34.8539C39.7509 35.0121 39.8836 35.1422 40.0448 35.2296C40.2061 35.317 40.3895 35.3581 40.5747 35.3484" stroke="#6F7380" stroke-width="0.8"/>
<path d="M34.5492 31.9385L31.9005 36.4512C31.8341 36.5581 31.7282 36.636 31.6054 36.6683L34.2556 32.155C34.3165 32.1397 34.3738 32.1126 34.4242 32.0754C34.4746 32.0383 34.5171 31.9917 34.5492 31.9385Z" fill="#181A1F"/>
<path d="M34.5492 31.9385L31.9005 36.4512C31.8341 36.5581 31.7282 36.636 31.6054 36.6683L34.2556 32.155C34.3165 32.1397 34.3738 32.1126 34.4242 32.0754C34.4746 32.0383 34.5171 31.9917 34.5492 31.9385" stroke="#6F7380" stroke-width="0.8"/>
<path d="M25.4226 26.3505L22.7718 30.8623L21.3143 31.2947L23.965 26.7829L25.4226 26.3505Z" fill="#181A1F" stroke="#6F7380" stroke-width="0.8"/>
<path d="M23.9646 26.7814L21.3138 31.2932C21.1911 31.325 21.0851 31.4023 21.0182 31.5088L23.6736 26.9953C23.7404 26.8889 23.8465 26.8116 23.9692 26.7798" fill="#181A1F"/>
<path d="M23.9646 26.7814L21.3138 31.2932C21.1911 31.325 21.0851 31.4023 21.0182 31.5088L23.6736 26.9953C23.7404 26.8889 23.8465 26.8116 23.9692 26.7798" stroke="#6F7380" stroke-width="0.8"/>
<path d="M34.2545 32.1571L31.6053 36.6684L30.3184 37.0515L32.9687 32.5382L34.2545 32.1571Z" fill="#181A1F" stroke="#6F7380" stroke-width="0.8"/>
<path d="M23.71 27.5267L21.0598 32.04C21.0046 31.9643 20.9717 31.8751 20.9644 31.7818C20.9572 31.6885 20.976 31.5946 21.0187 31.5103L23.6736 26.9953C23.6305 27.0796 23.6115 27.1735 23.6188 27.2669C23.626 27.3603 23.6592 27.4496 23.7146 27.5251" fill="#181A1F"/>
<path d="M23.71 27.5267L21.0598 32.04C21.0046 31.9643 20.9717 31.8751 20.9644 31.7818C20.9572 31.6885 20.976 31.5946 21.0187 31.5103L23.6736 26.9953C23.6305 27.0796 23.6115 27.1735 23.6188 27.2669C23.626 27.3603 23.6592 27.4496 23.7146 27.5251" stroke="#6F7380" stroke-width="0.8"/>
<path d="M31.8852 32.0929L29.2349 36.6062L28.0426 34.6627L30.6928 30.1494L31.8852 32.0929Z" fill="#181A1F" stroke="#6F7380" stroke-width="0.8"/>
<path d="M23.7609 27.6084L21.1107 32.1217L21.0599 32.04L23.7106 27.5282L23.7609 27.6084Z" fill="#181A1F" stroke="#6F7380" stroke-width="0.8"/>
<path d="M32.968 32.5367L30.3178 37.0501C29.8394 37.0967 29.4333 36.9297 29.2347 36.6062L31.8849 32.0929C32.0835 32.4163 32.4897 32.5834 32.968 32.5367Z" fill="#181A1F" stroke="#6F7380" stroke-width="0.8"/>
<path d="M30.6927 30.1493L28.0419 34.6612C24.9636 35.096 22.6958 34.0449 21.1102 32.1202L23.7609 27.6083C25.346 29.5316 27.6138 30.5826 30.6927 30.1493Z" fill="#181A1F" stroke="#6F7380" stroke-width="0.8"/>
<path d="M31.1498 35.8532L28.4934 40.3687C28.3436 40.126 27.8887 39.8782 27.5297 39.7924L30.1882 35.283C30.5466 35.3672 30.9944 35.6192 31.1514 35.8577" fill="#181A1F"/>
<path d="M31.1498 35.8532L28.4934 40.3687C28.3436 40.126 27.8887 39.8782 27.5297 39.7924L30.1882 35.283C30.5466 35.3672 30.9944 35.6192 31.1514 35.8577" stroke="#6F7380" stroke-width="0.8"/>
<path d="M31.846 36.9889L29.1958 41.5022L28.4996 40.3665L31.1503 35.8547L31.846 36.9889Z" fill="#181A1F" stroke="#6F7380" stroke-width="0.8"/>
<path d="M31.957 37.3378L29.3067 41.8511C29.3436 41.744 29.2933 41.6637 29.1953 41.5008L31.8461 36.9889C31.9436 37.1504 31.9944 37.2321 31.957 37.3378Z" fill="#181A1F" stroke="#6F7380" stroke-width="0.8"/>
<path d="M31.9352 37.6972L29.2845 42.2091C29.3136 42.1539 29.3306 42.0935 29.3344 42.0318C29.3382 41.9701 29.3287 41.9085 29.3066 41.8511L31.9568 37.3377C31.9789 37.3955 31.9883 37.4573 31.9846 37.5192C31.9809 37.5811 31.9641 37.6417 31.9352 37.6972Z" fill="#181A1F"/>
<path d="M31.9352 37.6972L29.2845 42.2091C29.3136 42.1539 29.3306 42.0935 29.3344 42.0318C29.3382 41.9701 29.3287 41.9085 29.3066 41.8511L31.9568 37.3377C31.9789 37.3955 31.9883 37.4573 31.9846 37.5192C31.9809 37.5811 31.9641 37.6417 31.9352 37.6972" stroke="#6F7380" stroke-width="0.8"/>
<path d="M30.1879 35.2829L27.5371 39.7948C19.4567 39.5123 11.7031 33.4809 10.3658 26.5033C9.82315 23.95 10.2161 21.5549 11.3782 19.573L14.029 15.0612C12.8648 17.0421 12.4749 19.4361 13.0165 21.9914C14.3534 28.9676 22.1074 35.0005 30.1879 35.2829Z" fill="#181A1F" stroke="#6F7380" stroke-width="0.8"/>
<path d="M31.9355 37.6972L29.2847 42.209C29.2303 42.2965 29.1438 42.3604 29.0433 42.3872C28.9422 42.4142 28.8367 42.4199 28.7338 42.4039L31.3866 37.8981C31.4894 37.9144 31.5949 37.9083 31.6957 37.8799C31.7964 37.8544 31.8834 37.7908 31.9376 37.7032" fill="#181A1F"/>
<path d="M31.9355 37.6972L29.2847 42.209C29.2303 42.2965 29.1438 42.3604 29.0433 42.3872C28.9422 42.4142 28.8367 42.4199 28.7338 42.4039L31.3866 37.8981C31.4894 37.9144 31.5949 37.9083 31.6957 37.8799C31.7964 37.8544 31.8834 37.7908 31.9376 37.7032" stroke="#6F7380" stroke-width="0.8"/>
<path d="M30.1879 35.2829L27.5371 39.7948C19.4567 39.5123 11.7031 33.4809 10.3658 26.5033C9.82315 23.95 10.2161 21.5549 11.3782 19.573L14.029 15.0612C12.8648 17.0421 12.4749 19.4361 13.0165 21.9914C14.3534 28.9676 22.1074 35.0005 30.1879 35.2829Z" fill="#181A1F" stroke="#6F7380" stroke-width="0.8"/>
<path d="M31.3866 37.8981L28.7359 42.4099C23.0377 42.3775 17.2099 39.9884 12.8869 35.9093C7.06057 30.3703 5.53611 23.1865 8.54996 18.0483L11.2002 13.535C8.18276 18.6727 9.70977 25.854 15.5372 31.3959C19.8612 35.468 25.6874 37.8576 31.3866 37.8981Z" fill="#181A1F" stroke="#6F7380" stroke-width="0.8"/>
<path d="M15.5348 2.9492C26.9391 -0.434464 41.4388 5.51107 48.0456 16.2861C54.6523 27.0612 50.7911 38.4542 39.3817 41.8379C27.9724 45.2217 13.4783 39.2776 6.87153 28.5025C0.264758 17.7275 4.12598 6.33447 15.5348 2.9492ZM40.8641 35.1739C47.5259 30.3326 46.9654 20.8197 39.671 13.8878C35.2956 9.72748 29.3817 7.35826 23.7697 7.30596C23.6669 7.2889 23.5611 7.29458 23.4601 7.3226C23.4045 7.33728 23.3526 7.36365 23.3081 7.39989C23.2637 7.43612 23.2276 7.48133 23.2025 7.53238C23.1774 7.58343 23.1639 7.63908 23.1629 7.69545C23.1619 7.75182 23.1734 7.80756 23.1967 7.85877C23.1598 7.9659 23.2101 8.04611 23.3168 8.2044L24.013 9.34011C24.2116 9.66353 24.6665 9.91133 25.0259 9.99862C33.1069 10.2826 40.8599 16.3125 42.1968 23.2886C42.9956 27.075 41.7592 30.5143 38.9845 32.7652C38.7415 33.0281 38.7186 33.3241 38.9659 33.7283L39.6616 34.8625C39.7507 35.0207 39.8834 35.1508 40.0446 35.2382C40.2059 35.3256 40.3893 35.3667 40.5745 35.357C40.659 35.3276 40.8308 35.2814 40.8677 35.1743L40.8641 35.1739ZM31.8482 36.9899L31.1519 35.8542C31.0026 35.613 30.5472 35.3637 30.1888 35.2794C22.1077 34.9955 14.3542 28.9641 13.0174 21.9879C12.2186 18.2016 13.4582 14.7713 16.2302 12.5129C16.4726 12.2484 16.4961 11.9539 16.2483 11.5483L15.5531 10.4156C15.4641 10.2569 15.3315 10.1265 15.1701 10.0389C15.0088 9.95122 14.8251 9.9099 14.6397 9.91952C14.5551 9.94891 14.3823 9.99716 14.3465 10.1023C7.68464 14.9435 8.24569 24.4579 15.5401 31.3898C19.8611 35.468 25.6873 37.8576 31.3865 37.8981C31.4893 37.9145 31.5949 37.9083 31.6956 37.88C31.7514 37.8655 31.8034 37.8393 31.8481 37.8031C31.8927 37.7669 31.9289 37.7217 31.954 37.6705C31.9791 37.6194 31.9926 37.5637 31.9935 37.5072C31.9943 37.4507 31.9826 37.395 31.9591 37.3438C31.9965 37.2382 31.9457 37.1564 31.8482 36.995L31.8482 36.9899ZM34.5461 31.3097L33.3538 29.3662C35.6786 28.1962 36.3515 25.9868 35.0103 23.7986C33.2721 20.9636 30.8712 20.5213 27.0212 21.1855C24.2449 21.6265 23.3366 21.1303 22.644 19.9951C21.9513 18.8598 22.3612 17.8769 24.0766 17.3684C25.6198 16.9096 26.7756 17.1412 27.9502 18.2303C28.0608 18.3334 28.1959 18.408 28.3436 18.4474C28.4913 18.4868 28.6471 18.4898 28.7974 18.4563L30.1703 18.0482C30.5128 17.9477 30.6224 17.6284 30.428 17.3019L30.3792 17.2211C28.9347 15.5438 26.547 14.6236 24.4808 15.0452L23.2884 13.1017C23.0899 12.7783 22.6852 12.6107 22.2053 12.6579L20.9195 13.0391C20.576 13.1416 20.4679 13.4604 20.6312 13.8904L21.7738 15.7552C19.3945 16.8431 18.7621 18.9457 20.0037 20.9715C21.6445 23.6451 24.0049 24.189 27.8564 23.5243C30.5072 23.2178 31.5769 23.4743 32.3721 24.771C33.1674 26.0677 32.5115 27.3145 30.8822 27.7982C28.6515 28.4605 27.3325 27.7989 26.3301 26.6601C26.2244 26.5327 26.0848 26.4365 25.9265 26.382C25.7682 26.3275 25.5971 26.3167 25.4317 26.3508L23.9741 26.7832C23.6306 26.8858 23.521 27.2051 23.7165 27.5296L23.7673 27.6113C25.3524 29.5345 27.6202 30.5856 30.699 30.1523L31.8914 32.0958C32.09 32.4192 32.4961 32.5863 32.9745 32.5396L34.2619 32.1579C34.6043 32.0574 34.7119 31.7371 34.5502 31.3066" fill="#181A1F"/>
<path d="M15.5348 2.9492L15.4211 2.56572L15.4211 2.56573L15.5348 2.9492ZM40.8641 35.1739L40.6289 34.8503L39.8052 35.4489L40.8161 35.571L40.8641 35.1739ZM39.671 13.8878L39.3953 14.1777L39.3954 14.1777L39.671 13.8878ZM23.7697 7.30596L23.7042 7.70057L23.7349 7.70565L23.766 7.70594L23.7697 7.30596ZM23.4601 7.3226L23.5622 7.70938L23.567 7.70804L23.4601 7.3226ZM23.1967 7.85877L23.5749 7.98896L23.6267 7.83841L23.5609 7.69344L23.1967 7.85877ZM23.3168 8.2044L23.6578 7.99534L23.6533 7.98797L23.6484 7.98081L23.3168 8.2044ZM24.013 9.34011L23.672 9.54917L23.6721 9.54939L24.013 9.34011ZM25.0259 9.99862L24.9316 10.3873L24.9712 10.3969L25.0119 10.3984L25.0259 9.99862ZM42.1968 23.2886L41.8039 23.3639L41.8054 23.3712L42.1968 23.2886ZM38.9845 32.7652L38.7325 32.4546L38.7102 32.4726L38.6907 32.4937L38.9845 32.7652ZM38.9659 33.7283L38.6247 33.937L38.6249 33.9374L38.9659 33.7283ZM39.6616 34.8625L40.0101 34.6662L40.0065 34.6597L40.0026 34.6533L39.6616 34.8625ZM40.5745 35.357L40.5953 35.7565L40.6521 35.7535L40.7058 35.7349L40.5745 35.357ZM40.8677 35.1743L41.2459 35.3045L41.407 34.8365L40.9157 34.7772L40.8677 35.1743ZM31.8482 36.9899L32.2481 36.9875L32.2475 36.8759L32.1892 36.7808L31.8482 36.9899ZM31.1519 35.8542L31.4929 35.6451L31.492 35.6437L31.1519 35.8542ZM30.1888 35.2794L30.2803 34.8901L30.2421 34.8811L30.2028 34.8797L30.1888 35.2794ZM13.0174 21.9879L13.4103 21.9126L13.4088 21.9054L13.0174 21.9879ZM16.2302 12.5129L16.4829 12.823L16.5054 12.8046L16.5251 12.7832L16.2302 12.5129ZM16.2483 11.5483L16.5896 11.3398L16.5892 11.339L16.2483 11.5483ZM15.5531 10.4156L15.2042 10.6113L15.2081 10.6181L15.2122 10.6248L15.5531 10.4156ZM14.6397 9.91952L14.619 9.52006L14.5621 9.52301L14.5084 9.54169L14.6397 9.91952ZM14.3465 10.1023L14.5816 10.4258L14.6841 10.3513L14.725 10.2314L14.3465 10.1023ZM15.5401 31.3898L15.2646 31.6798L15.2656 31.6807L15.5401 31.3898ZM31.3865 37.8981L31.4495 37.5031L31.4196 37.4983L31.3894 37.4981L31.3865 37.8981ZM31.6956 37.88L31.5954 37.4926L31.5873 37.4949L31.6956 37.88ZM31.9591 37.3438L31.582 37.2103L31.5278 37.3634L31.5957 37.5109L31.9591 37.3438ZM31.8482 36.995L31.4482 36.9974L31.4489 37.1074L31.5057 37.2017L31.8482 36.995ZM33.3538 29.3662L33.1739 29.0089L32.7853 29.2045L33.0128 29.5754L33.3538 29.3662ZM35.0103 23.7986L35.3514 23.5896L35.3514 23.5895L35.0103 23.7986ZM27.0212 21.1855L27.084 21.5806L27.0892 21.5796L27.0212 21.1855ZM24.0766 17.3684L24.1903 17.7519L24.1906 17.7518L24.0766 17.3684ZM27.9502 18.2303L28.2231 17.9377L28.2222 17.9369L27.9502 18.2303ZM28.7974 18.4563L28.8846 18.8467L28.8981 18.8437L28.9113 18.8397L28.7974 18.4563ZM30.1703 18.0482L30.0577 17.6644L30.0564 17.6648L30.1703 18.0482ZM30.428 17.3019L30.7716 17.0972L30.7704 17.0952L30.428 17.3019ZM30.3792 17.2211L30.7217 17.0144L30.7043 16.9856L30.6823 16.9601L30.3792 17.2211ZM24.4808 15.0452L24.1398 15.2544L24.2863 15.4932L24.5608 15.4372L24.4808 15.0452ZM23.2884 13.1017L23.6294 12.8926L23.6293 12.8925L23.2884 13.1017ZM22.2053 12.6579L22.1662 12.2598L22.1282 12.2636L22.0917 12.2744L22.2053 12.6579ZM20.9195 13.0391L20.8058 12.6556L20.8051 12.6558L20.9195 13.0391ZM20.6312 13.8904L20.2572 14.0324L20.2705 14.0674L20.2901 14.0994L20.6312 13.8904ZM21.7738 15.7552L21.9401 16.119L22.3507 15.9312L22.1148 15.5462L21.7738 15.7552ZM20.0037 20.9715L19.6627 21.1805L19.6628 21.1807L20.0037 20.9715ZM27.8564 23.5243L27.8104 23.1269L27.7994 23.1282L27.7884 23.1301L27.8564 23.5243ZM30.8822 27.7982L30.7684 27.4147L30.7684 27.4147L30.8822 27.7982ZM26.3301 26.6601L26.0222 26.9156L26.0299 26.9244L26.3301 26.6601ZM25.4317 26.3508L25.3509 25.9591L25.3342 25.9625L25.3179 25.9674L25.4317 26.3508ZM23.9741 26.7832L23.8603 26.3998L23.8597 26.4L23.9741 26.7832ZM23.7165 27.5296L23.3738 27.736L23.3767 27.7408L23.7165 27.5296ZM23.7673 27.6113L23.4275 27.8225L23.4416 27.8451L23.4586 27.8657L23.7673 27.6113ZM30.699 30.1523L31.04 29.9431L30.9029 29.7197L30.6433 29.7562L30.699 30.1523ZM31.8914 32.0958L31.5505 32.305L31.5505 32.3051L31.8914 32.0958ZM32.9745 32.5396L33.0133 32.9377L33.0515 32.934L33.0882 32.9231L32.9745 32.5396ZM34.2619 32.1579L34.1492 31.7741L34.1482 31.7744L34.2619 32.1579ZM15.6486 3.33268C26.8646 0.00486457 41.1842 5.86109 47.7046 16.4952L48.3866 16.077C41.6934 5.16104 27.0135 -0.873793 15.4211 2.56572L15.6486 3.33268ZM47.7046 16.4952C50.957 21.7996 51.612 27.2185 50.0909 31.7053C48.5713 36.1877 44.8616 39.7955 39.268 41.4544L39.4955 42.2214C45.3112 40.4966 49.2369 36.7161 50.8485 31.9622C52.4587 27.2128 51.7409 21.5477 48.3866 16.077L47.7046 16.4952ZM39.268 41.4544C28.0468 44.7824 13.7329 38.9275 7.21254 28.2934L6.53053 28.7116C13.2237 39.6276 27.8979 45.661 39.4955 42.2214L39.268 41.4544ZM7.21254 28.2934C3.96014 22.9891 3.30507 17.5702 4.82615 13.0831C6.3457 8.60056 10.0552 4.99236 15.6486 3.33267L15.4211 2.56573C9.60559 4.29131 5.68008 8.07223 4.0685 12.8263C2.45844 17.5758 3.17615 23.2409 6.53053 28.7116L7.21254 28.2934ZM41.0993 35.4974C44.5466 32.9922 46.127 29.2698 45.9005 25.2921C45.6745 21.3236 43.6541 17.1211 39.9465 13.5978L39.3954 14.1777C42.9823 17.5864 44.8893 21.6063 45.1018 25.3376C45.3137 29.0596 43.8435 32.5142 40.6289 34.8503L41.0993 35.4974ZM39.9466 13.5979C35.4998 9.36962 29.4894 6.95924 23.7734 6.90598L23.766 7.70594C29.274 7.75727 35.0915 10.0853 39.3953 14.1777L39.9466 13.5979ZM23.8352 6.91135C23.6746 6.88471 23.51 6.89365 23.3532 6.93715L23.567 7.70804C23.6122 7.69551 23.6591 7.69309 23.7042 7.70057L23.8352 6.91135ZM23.358 6.93584C23.2475 6.96501 23.1443 7.01745 23.0555 7.08973L23.5607 7.71004C23.561 7.70985 23.5615 7.70954 23.5622 7.70935L23.358 6.93584ZM23.0555 7.08973C22.9668 7.16203 22.8943 7.25272 22.8435 7.35598L23.5615 7.70878C23.561 7.70995 23.5605 7.71022 23.5607 7.71004L23.0555 7.08973ZM22.8435 7.35598C22.7928 7.45927 22.7651 7.57264 22.763 7.68827L23.5628 7.70264C23.5628 7.70553 23.5621 7.7076 23.5615 7.70878L22.8435 7.35598ZM22.763 7.68827C22.7609 7.80392 22.7845 7.9186 22.8324 8.0241L23.5609 7.69344C23.5623 7.69651 23.5629 7.69973 23.5628 7.70264L22.763 7.68827ZM22.8184 7.72858C22.7646 7.88494 22.7796 8.03126 22.8315 8.16099C22.8719 8.26199 22.9389 8.35939 22.9851 8.42799L23.6484 7.98081C23.6213 7.94055 23.6031 7.91314 23.5895 7.89072C23.5758 7.86826 23.5732 7.8613 23.5742 7.86381C23.5761 7.86833 23.583 7.8875 23.5844 7.91665C23.5859 7.94725 23.5805 7.97277 23.5749 7.98896L22.8184 7.72858ZM22.9757 8.41346L23.672 9.54917L24.354 9.13105L23.6578 7.99534L22.9757 8.41346ZM23.6721 9.54939C23.8153 9.78268 24.0341 9.96561 24.249 10.0983C24.4669 10.2328 24.7094 10.3334 24.9316 10.3873L25.1203 9.60991C24.983 9.57657 24.8183 9.50959 24.6693 9.41756C24.5171 9.32363 24.4092 9.22095 24.3539 9.13083L23.6721 9.54939ZM25.0119 10.3984C28.9603 10.5371 32.8394 12.0813 35.8954 14.4502C38.9533 16.8206 41.158 19.9931 41.8039 23.3639L42.5896 23.2133C41.8988 19.608 39.5585 16.2775 36.3855 13.8179C33.2105 11.3568 29.1726 9.74409 25.04 9.59887L25.0119 10.3984ZM41.8054 23.3712C42.5744 27.0162 41.3863 30.3017 38.7325 32.4546L39.2365 33.0758C42.132 30.7269 43.4168 27.1337 42.5882 23.2061L41.8054 23.3712ZM38.6907 32.4937C38.5199 32.6786 38.4006 32.9061 38.3916 33.1806C38.3828 33.4444 38.4781 33.6975 38.6247 33.937L39.3071 33.5195C39.2064 33.3549 39.1894 33.2579 39.1911 33.207C39.1925 33.1667 39.2061 33.1147 39.2783 33.0366L38.6907 32.4937ZM38.6249 33.9374L39.3206 35.0716L40.0026 34.6533L39.3068 33.5191L38.6249 33.9374ZM39.3131 35.0588C39.4396 35.2834 39.6273 35.467 39.8541 35.5899L40.2351 34.8865C40.1395 34.8347 40.0619 34.7581 40.0101 34.6662L39.3131 35.0588ZM39.8541 35.5899C40.0808 35.7127 40.3375 35.77 40.5953 35.7565L40.5536 34.9576C40.4411 34.9634 40.3309 34.9384 40.2351 34.8865L39.8541 35.5899ZM40.7058 35.7349C40.7234 35.7287 40.8282 35.6967 40.9157 35.6537C40.9923 35.6159 41.1729 35.5166 41.2459 35.3045L40.4895 35.0441C40.509 34.9874 40.5408 34.9552 40.5543 34.9434C40.5671 34.9321 40.5728 34.9308 40.5623 34.936C40.5529 34.9406 40.5386 34.9465 40.517 34.9542C40.5065 34.9579 40.4958 34.9615 40.4834 34.9656C40.4725 34.9693 40.4569 34.9744 40.4432 34.9792L40.7058 35.7349ZM40.9157 34.7772L40.9121 34.7767L40.8161 35.571L40.8197 35.5714L40.9157 34.7772ZM32.1892 36.7808L31.4929 35.6451L30.8109 36.0633L31.5071 37.199L32.1892 36.7808ZM31.492 35.6437C31.3655 35.4393 31.1463 35.2763 30.9497 35.1621C30.7427 35.0419 30.5026 34.9423 30.2803 34.8901L30.0972 35.6688C30.2333 35.7008 30.4002 35.7681 30.5478 35.8539C30.7059 35.9457 30.789 36.0279 30.8118 36.0647L31.492 35.6437ZM30.2028 34.8797C26.2544 34.7409 22.3752 33.1964 19.3191 30.8271C16.261 28.4563 14.0562 25.2835 13.4102 21.9126L12.6245 22.0632C13.3154 25.6685 15.6558 28.9994 18.8289 31.4594C22.004 33.9209 26.0421 35.534 30.1747 35.6792L30.2028 34.8797ZM13.4088 21.9054C12.6399 18.261 13.8305 14.9839 16.4829 12.823L15.9776 12.2028C13.0858 14.5587 11.7973 18.1422 12.626 22.0705L13.4088 21.9054ZM16.5251 12.7832C16.6946 12.5982 16.8138 12.3712 16.8229 12.0967C16.8316 11.8328 16.7363 11.5798 16.5896 11.3398L15.907 11.7568C16.0081 11.9224 16.025 12.0195 16.0233 12.0703C16.022 12.1107 16.0083 12.163 15.9354 12.2426L16.5251 12.7832ZM16.5892 11.339L15.894 10.2063L15.2122 10.6248L15.9074 11.7575L16.5892 11.339ZM15.902 10.2199C15.7757 9.9948 15.588 9.81062 15.361 9.68734L14.9792 10.3904C15.075 10.4424 15.1525 10.5191 15.2042 10.6113L15.902 10.2199ZM15.361 9.68734C15.1341 9.56412 14.8771 9.50666 14.619 9.52006L14.6604 10.319C14.7731 10.3131 14.8834 10.3383 14.9792 10.3904L15.361 9.68734ZM14.5084 9.54169C14.4876 9.54892 14.3851 9.58054 14.2972 9.62411C14.2231 9.66082 14.0405 9.76036 13.9679 9.97308L14.725 10.2314C14.7049 10.2904 14.6719 10.3232 14.6591 10.3344C14.6466 10.3453 14.6414 10.3464 14.6525 10.3409C14.6623 10.336 14.677 10.3299 14.6986 10.3221C14.709 10.3184 14.7197 10.3147 14.7319 10.3106C14.7425 10.307 14.758 10.3019 14.771 10.2974L14.5084 9.54169ZM14.1113 9.77868C10.664 12.2839 9.08373 16.0067 9.31035 19.9848C9.53644 23.9537 11.557 28.1565 15.2646 31.6798L15.8157 31.0999C12.2288 27.6912 10.3216 23.6709 10.1091 19.9393C9.897 16.2169 11.3671 12.7619 14.5816 10.4258L14.1113 9.77868ZM15.2656 31.6807C19.6568 35.8252 25.579 38.2568 31.3837 38.2981L31.3894 37.4981C25.7957 37.4583 20.0654 35.1108 15.8147 31.0989L15.2656 31.6807ZM31.3236 38.2931C31.4838 38.3186 31.6478 38.3089 31.8039 38.265L31.5873 37.4949C31.542 37.5076 31.4949 37.5103 31.4495 37.5031L31.3236 38.2931ZM31.7958 38.2672C31.9069 38.2384 32.0107 38.1862 32.0999 38.1139L31.5962 37.4923L31.5954 37.4927L31.7958 38.2672ZM32.0999 38.1139C32.1892 38.0415 32.2621 37.9506 32.313 37.8469L31.595 37.4941C31.5957 37.4928 31.5963 37.4923 31.5962 37.4923L32.0999 38.1139ZM32.313 37.8469C32.3639 37.7433 32.3916 37.6294 32.3934 37.5134L31.5935 37.501C31.5936 37.4979 31.5943 37.4956 31.595 37.4941L32.313 37.8469ZM32.3934 37.5134C32.3952 37.3973 32.3711 37.2823 32.3225 37.1766L31.5957 37.5109C31.5941 37.5076 31.5935 37.5041 31.5935 37.501L32.3934 37.5134ZM32.3361 37.4773C32.392 37.3195 32.3754 37.1743 32.3287 37.0497C32.2923 36.9529 32.2308 36.8549 32.1906 36.7882L31.5057 37.2017C31.5315 37.2444 31.5488 37.273 31.5627 37.2978C31.5764 37.3223 31.5798 37.3311 31.5797 37.3309C31.579 37.3289 31.5727 37.3115 31.5716 37.2838C31.5703 37.2542 31.5756 37.2283 31.582 37.2103L32.3361 37.4773ZM32.2482 36.9925L32.2481 36.9875L31.4482 36.9923L31.4482 36.9974L32.2482 36.9925ZM34.8871 31.1005L33.6947 29.157L33.0128 29.5754L34.2052 31.5189L34.8871 31.1005ZM33.5336 29.7235C34.7724 29.1 35.6109 28.1778 35.94 27.079C36.2697 25.9784 36.0699 24.7619 35.3514 23.5896L34.6693 24.0076C35.292 25.0235 35.4263 26.0059 35.1736 26.8495C34.9204 27.6949 34.2599 28.4624 33.1739 29.0089L33.5336 29.7235ZM35.3514 23.5895C34.4392 22.1018 33.3292 21.2103 31.9205 20.7961C30.5329 20.388 28.897 20.4559 26.9532 20.7913L27.0892 21.5796C28.9954 21.2508 30.4849 21.2078 31.6948 21.5636C32.8836 21.9132 33.8433 22.6604 34.6693 24.0077L35.3514 23.5895ZM26.9585 20.7904C25.5878 21.0082 24.7425 20.9821 24.1728 20.8003C23.6323 20.6278 23.2998 20.3019 22.9854 19.7867L22.3025 20.2034C22.6808 20.8235 23.1488 21.3133 23.9296 21.5624C24.6814 21.8023 25.6783 21.8038 27.084 21.5805L26.9585 20.7904ZM22.9854 19.7867C22.6823 19.2899 22.6683 18.9131 22.8135 18.6286C22.9707 18.3205 23.3757 17.9934 24.1903 17.7519L23.9629 16.9849C23.0621 17.2519 22.4044 17.6705 22.101 18.2648C21.7856 18.8827 21.913 19.5649 22.3025 20.2034L22.9854 19.7867ZM24.1906 17.7518C24.9188 17.5353 25.5225 17.4915 26.0667 17.6098C26.609 17.7277 27.1296 18.0149 27.6783 18.5236L28.2222 17.9369C27.5962 17.3566 26.9516 16.9835 26.2366 16.828C25.5234 16.6729 24.7777 16.7427 23.9626 16.985L24.1906 17.7518ZM27.6774 18.5228C27.8365 18.6712 28.0301 18.7777 28.2405 18.8339L28.4467 18.0609C28.3617 18.0382 28.2851 17.9956 28.2231 17.9377L27.6774 18.5228ZM28.2405 18.8339C28.4509 18.89 28.672 18.8942 28.8846 18.8467L28.7102 18.0659C28.6223 18.0855 28.5318 18.0836 28.4467 18.0609L28.2405 18.8339ZM28.9113 18.8397L30.2843 18.4317L30.0564 17.6648L28.6834 18.0729L28.9113 18.8397ZM30.283 18.432C30.557 18.3517 30.7837 18.1657 30.8787 17.8901C30.9716 17.6205 30.9141 17.3363 30.7716 17.0972L30.0843 17.5065C30.11 17.5497 30.1194 17.5822 30.1224 17.602C30.1253 17.6211 30.1225 17.6291 30.1223 17.6295C30.1221 17.6301 30.122 17.6304 30.1216 17.6309C30.1213 17.6314 30.12 17.6332 30.1169 17.636C30.1109 17.6413 30.0939 17.6538 30.0577 17.6644L30.283 18.432ZM30.7704 17.0952L30.7217 17.0144L30.0368 17.4278L30.0855 17.5086L30.7704 17.0952ZM30.6823 16.9601C29.1549 15.1865 26.6257 14.1993 24.4008 14.6533L24.5608 15.4372C26.4683 15.0479 28.7145 15.901 30.0761 17.4821L30.6823 16.9601ZM24.8217 14.8361L23.6294 12.8926L22.9475 13.3109L24.1398 15.2544L24.8217 14.8361ZM23.6293 12.8925C23.3286 12.4026 22.7514 12.2023 22.1662 12.2598L22.2445 13.056C22.6191 13.0192 22.8512 13.154 22.9475 13.311L23.6293 12.8925ZM22.0917 12.2744L20.8058 12.6556L21.0332 13.4226L22.319 13.0414L22.0917 12.2744ZM20.8051 12.6558C20.5251 12.7393 20.3027 12.9295 20.2065 13.2136C20.1167 13.4785 20.1564 13.7667 20.2572 14.0324L21.0051 13.7485C20.9427 13.5841 20.9548 13.4979 20.9642 13.4703C20.968 13.459 20.9719 13.4542 20.9763 13.4503C20.9816 13.4454 20.9973 13.4333 21.0339 13.4224L20.8051 12.6558ZM20.2901 14.0994L21.4327 15.9642L22.1148 15.5462L20.9722 13.6814L20.2901 14.0994ZM21.6074 15.3914C20.3421 15.97 19.4939 16.8418 19.1509 17.8869C18.8071 18.9342 18.993 20.0879 19.6627 21.1805L20.3447 20.7625C19.7728 19.8294 19.6541 18.9188 19.911 18.1364C20.1685 17.3517 20.8262 16.6283 21.9401 16.119L21.6074 15.3914ZM19.6628 21.1807C20.5265 22.5881 21.6013 23.463 22.985 23.8825C24.3497 24.2963 25.9755 24.2548 27.9244 23.9184L27.7884 23.1301C25.8857 23.4585 24.4056 23.4773 23.2171 23.1169C22.0475 22.7623 21.1217 22.0284 20.3446 20.7623L19.6628 21.1807ZM27.9023 23.9216C29.2232 23.7689 30.0872 23.7661 30.7061 23.9327C31.2895 24.0897 31.6776 24.4037 32.0311 24.9801L32.7131 24.5619C32.2714 23.8416 31.727 23.379 30.914 23.1602C30.1366 22.951 29.1404 22.9732 27.8104 23.1269L27.9023 23.9216ZM32.0311 24.9801C32.3691 25.5312 32.3749 26.0197 32.1789 26.41C31.9751 26.8158 31.5139 27.1934 30.7684 27.4147L30.996 28.1816C31.8799 27.9192 32.5612 27.4316 32.8939 26.7689C33.2343 26.0907 33.1704 25.3074 32.7131 24.5619L32.0311 24.9801ZM30.7684 27.4147C29.7094 27.7291 28.9044 27.7188 28.2628 27.5221C27.6204 27.3252 27.0993 26.9286 26.6304 26.3958L26.0299 26.9244C26.5633 27.5304 27.2029 28.034 28.0283 28.287C28.8544 28.5402 29.8243 28.5295 30.9961 28.1816L30.7684 27.4147ZM26.6379 26.4046C26.4848 26.2201 26.2835 26.0819 26.0567 26.0038L25.7963 26.7603C25.8861 26.7912 25.964 26.8452 26.0223 26.9155L26.6379 26.4046ZM26.0567 26.0038C25.8299 25.9258 25.5859 25.9106 25.3509 25.9591L25.5124 26.7426C25.6082 26.7229 25.7064 26.7293 25.7963 26.7603L26.0567 26.0038ZM25.3179 25.9674L23.8603 26.3998L24.0878 27.1667L25.5454 26.7343L25.3179 25.9674ZM23.8597 26.4C23.5865 26.4815 23.3599 26.6674 23.265 26.9429C23.1719 27.2129 23.23 27.4973 23.3738 27.736L24.0591 27.3232C24.0335 27.2807 24.0242 27.2489 24.0213 27.2298C24.0185 27.2114 24.0212 27.2038 24.0213 27.2035C24.0215 27.2029 24.0217 27.2025 24.0221 27.2019C24.0226 27.2012 24.024 27.1993 24.0274 27.1963C24.0339 27.1904 24.0516 27.1776 24.0885 27.1665L23.8597 26.4ZM23.3767 27.7408L23.4275 27.8225L24.107 27.4001L24.0562 27.3184L23.3767 27.7408ZM23.4586 27.8657C25.1317 29.8957 27.5372 31.0012 30.7548 30.5484L30.6433 29.7562C27.7031 30.17 25.5731 29.1734 24.0759 27.3569L23.4586 27.8657ZM30.3581 30.3615L31.5505 32.305L32.2324 31.8866L31.04 29.9431L30.3581 30.3615ZM31.5505 32.3051C31.8515 32.7953 32.4305 32.9946 33.0133 32.9377L32.9357 32.1415C32.5618 32.178 32.3284 32.0431 32.2323 31.8865L31.5505 32.3051ZM33.0882 32.9231L34.3756 32.5414L34.1482 31.7744L32.8608 32.1561L33.0882 32.9231ZM34.3745 32.5418C34.6561 32.4591 34.8781 32.268 34.974 31.9841C35.0634 31.7197 35.0244 31.4317 34.9247 31.166L34.1757 31.4472C34.2376 31.6121 34.2258 31.6994 34.2161 31.728C34.2122 31.7396 34.2082 31.7442 34.2044 31.7477C34.1997 31.752 34.1848 31.7637 34.1492 31.7741L34.3745 32.5418Z" fill="#6F7380"/>
<path d="M22.1959 12.656C22.6758 12.6089 23.0804 12.7764 23.2789 13.0999L24.4713 15.0434C26.5452 14.6191 28.9329 15.5392 30.3698 17.2192L30.4185 17.3C30.6176 17.6249 30.5074 17.9428 30.1609 18.0463L28.7879 18.4544C28.6377 18.488 28.4818 18.4849 28.3341 18.4455C28.1864 18.4061 28.0514 18.3315 27.9408 18.2284C26.7661 17.1393 25.6103 16.9077 24.0671 17.3665C22.3486 17.8761 21.9388 18.859 22.6345 19.9932C23.3302 21.1274 24.2359 21.6261 27.0118 21.1836C30.8617 20.5194 33.2616 20.9587 35.0009 23.7967C36.342 25.9849 35.6681 28.1964 33.3443 29.3643L34.5366 31.3078C34.6988 31.7399 34.5908 32.0587 34.2483 32.1592L32.9609 32.5408C32.4826 32.5875 32.0764 32.4204 31.8778 32.097L30.6855 30.1535C27.6066 30.5868 25.3388 29.5358 23.7537 27.6125L23.7029 27.5308C23.5043 27.2074 23.6139 26.8881 23.9605 26.7845L25.4181 26.3521C25.5837 26.3182 25.7549 26.329 25.9134 26.3833C26.0719 26.4377 26.2118 26.5336 26.3181 26.6608C27.3189 27.8001 28.6379 28.4617 30.8686 27.7994C32.498 27.3157 33.1538 26.0689 32.3585 24.7722C31.5633 23.4755 30.4936 23.219 27.8428 23.5255C23.9913 24.1902 21.6309 23.6463 19.9901 20.9727C18.7485 18.947 19.384 16.8432 21.7602 15.7564L20.6176 13.8916C20.4544 13.4616 20.5624 13.1428 20.9059 13.0403L22.1959 12.656Z" fill="#181A1F" stroke="#6F7380" stroke-width="0.8"/>
<path d="M14.6374 9.91852C14.8227 9.90889 15.0064 9.95022 15.1678 10.0379C15.3292 10.1255 15.4618 10.256 15.5508 10.4146L16.246 11.5473C16.4938 11.9529 16.4703 12.2474 16.2279 12.5119C13.4558 14.7703 12.2132 18.2016 13.0151 21.9869C14.3519 28.9631 22.1059 34.996 30.1864 35.2784C30.5449 35.3627 30.9926 35.6147 31.1496 35.8532L31.8458 36.9889C31.9433 37.1504 31.9941 37.2321 31.9572 37.3392C31.9805 37.3904 31.992 37.4461 31.9909 37.5024C31.9899 37.5587 31.9763 37.6142 31.9512 37.6652C31.926 37.7161 31.8899 37.7612 31.8453 37.7973C31.8008 37.8333 31.7489 37.8595 31.6932 37.8739C31.5925 37.9022 31.487 37.9084 31.3842 37.8921C25.6834 37.8521 19.8577 35.469 15.5347 31.3899C8.24336 24.4569 7.68491 14.9501 14.3411 10.1023C14.3815 9.99563 14.5518 9.9449 14.6374 9.91852Z" fill="#181A1F" stroke="#6F7380" stroke-width="0.8"/>
<path d="M49.2409 34.5246L46.5902 39.0364C44.625 42.382 41.2772 45.0022 36.7251 46.3534C25.3224 49.7365 10.8278 43.7909 4.22619 33.0207C0.25042 26.5389 0.0655105 19.8327 3.03209 14.7817L5.68233 10.2684C2.71627 15.3209 2.90118 22.0271 6.87695 28.5089C13.4837 39.284 27.9783 45.2296 39.3871 41.8443C43.9337 40.4968 47.2814 37.8766 49.2528 34.5289" fill="#181A1F"/>
<path d="M46.5902 39.0364L46.2453 38.8338L46.2453 38.8338L46.5902 39.0364ZM36.7251 46.3534L36.8389 46.7368L36.8389 46.7368L36.7251 46.3534ZM4.22619 33.0207L4.56722 32.8117L4.56716 32.8116L4.22619 33.0207ZM3.03209 14.7817L3.377 14.9843L3.37702 14.9842L3.03209 14.7817ZM5.68233 10.2684L6.02728 10.4709L5.3374 10.0658L5.68233 10.2684ZM6.87695 28.5089L7.21795 28.2998L7.21792 28.2998L6.87695 28.5089ZM39.3871 41.8443L39.2735 41.4608L39.2734 41.4609L39.3871 41.8443ZM48.896 34.322L46.2453 38.8338L46.9351 39.239L49.5858 34.7272L48.896 34.322ZM46.2453 38.8338C44.3369 42.0827 41.0771 44.6443 36.6113 45.9699L36.8389 46.7368C41.4774 45.36 44.9131 42.6813 46.9351 39.239L46.2453 38.8338ZM36.6113 45.9699C25.3968 49.2972 11.0824 43.4408 4.56722 32.8117L3.88516 33.2298C10.5732 44.1409 25.2479 50.1758 36.8389 46.7368L36.6113 45.9699ZM4.56716 32.8116C0.65325 26.4306 0.499093 19.8843 3.377 14.9843L2.68718 14.5791C-0.368072 19.7811 -0.152411 26.6472 3.88522 33.2299L4.56716 32.8116ZM3.37702 14.9842L6.02726 10.4709L5.3374 10.0658L2.68716 14.5792L3.37702 14.9842ZM5.33737 10.0659C2.28271 15.2693 2.49833 22.1353 6.53598 28.7181L7.21792 28.2998C3.30403 21.9188 3.14982 15.3725 6.02728 10.4709L5.33737 10.0659ZM6.53595 28.718C13.2291 39.634 27.9038 45.6689 39.5009 42.2278L39.2734 41.4609C28.0528 44.7903 13.7383 38.934 7.21795 28.2998L6.53595 28.718ZM39.5008 42.2278C44.1339 40.8547 47.5694 38.1758 49.5974 34.7319L48.9081 34.3259C46.9934 37.5774 43.7334 40.139 39.2735 41.4608L39.5008 42.2278Z" fill="#6F7380"/>
<path d="M92.4308 6.78461L94.1635 10.2353L73.9874 23.0633L72.2561 19.6125L92.4308 6.78461Z" fill="#181A1F" stroke="#6F7380" stroke-width="0.8"/>
<path d="M92.4885 6.87443L94.2212 10.3252C94.2016 10.2933 94.1749 10.2817 94.1651 10.2629L92.4324 6.81793C92.4422 6.83676 92.4688 6.8498 92.4885 6.88022" fill="#181A1F"/>
<path d="M92.4885 6.87443L94.2212 10.3252C94.2016 10.2933 94.1749 10.2817 94.1651 10.2629L92.4324 6.81793C92.4422 6.83676 92.4688 6.8498 92.4885 6.88022" stroke="#6F7380" stroke-width="0.8"/>
<path d="M97.6121 2.50238L99.3434 5.94876C99.3798 6.01974 99.4107 6.09362 99.4401 6.16461L97.7074 2.71823C97.6794 2.6458 97.6471 2.57336 97.6121 2.50238Z" fill="#181A1F" stroke="#6F7380" stroke-width="0.8"/>
<path d="M97.7073 2.7182L99.44 6.16892C99.4865 6.28708 99.5244 6.40861 99.5536 6.53254L97.8208 3.08326C97.7919 2.95881 97.7539 2.83678 97.7073 2.7182Z" fill="#181A1F"/>
<path d="M97.7073 2.7182L99.44 6.16892C99.4865 6.28708 99.5244 6.40861 99.5536 6.53254L97.8208 3.08326C97.7919 2.95881 97.7539 2.83678 97.7073 2.7182" stroke="#6F7380" stroke-width="0.8"/>
<path d="M97.821 3.08326L99.5538 6.52819C99.5916 6.69222 99.6146 6.85954 99.6225 7.02798L97.8897 3.57726C97.882 3.40929 97.859 3.24244 97.821 3.07892" fill="#181A1F"/>
<path d="M97.821 3.08326L99.5538 6.52819C99.5916 6.69222 99.6146 6.85954 99.6225 7.02798L97.8897 3.57726C97.882 3.40929 97.859 3.24244 97.821 3.07892" stroke="#6F7380" stroke-width="0.8"/>
<path d="M97.8897 3.5816L99.6224 7.03233C99.633 7.37619 99.5856 7.71934 99.4822 8.04639C99.4291 8.21848 99.361 8.38527 99.2789 8.54473L97.5476 5.09401C97.6289 4.93434 97.6965 4.76758 97.7495 4.59567C97.853 4.26866 97.9004 3.92548 97.8897 3.5816Z" fill="#181A1F" stroke="#6F7380" stroke-width="0.8"/>
<path d="M97.5534 5.10126L99.2848 8.55633C99.1845 8.74983 99.0697 8.93487 98.9413 9.10972L97.2156 5.65899C97.3444 5.48417 97.4597 5.29914 97.5604 5.1056" fill="#181A1F"/>
<path d="M97.5534 5.10126L99.2848 8.55633C99.1845 8.74983 99.0697 8.93487 98.9413 9.10972L97.2156 5.65899C97.3444 5.48417 97.4597 5.29914 97.5604 5.1056" stroke="#6F7380" stroke-width="0.8"/>
<path d="M97.2157 5.65901L98.9484 9.10973C98.9092 9.16478 98.8685 9.21838 98.8279 9.27198L97.0881 5.81836C97.1302 5.76331 97.1694 5.70971 97.2087 5.65466" fill="#181A1F"/>
<path d="M97.2157 5.65901L98.9484 9.10973C98.9092 9.16478 98.8685 9.21838 98.8279 9.27198L97.0881 5.81836C97.1302 5.76331 97.1694 5.70971 97.2087 5.65466" stroke="#6F7380" stroke-width="0.8"/>
<path d="M94.9349 7.18733L96.6676 10.6381C96.6537 10.6352 96.6394 10.6352 96.6256 10.6381L94.8928 7.18733C94.9067 7.18463 94.921 7.18463 94.9349 7.18733Z" fill="#181A1F"/>
<path d="M94.9349 7.18733L96.6676 10.6381C96.6537 10.6352 96.6394 10.6352 96.6256 10.6381L94.8928 7.18733C94.9067 7.18463 94.921 7.18463 94.9349 7.18733" stroke="#6F7380" stroke-width="0.8"/>
<path d="M94.8925 7.19165L96.6252 10.6424L96.5748 10.6554L94.842 7.20469L94.8925 7.19165Z" fill="#181A1F" stroke="#6F7380" stroke-width="0.8"/>
<path d="M94.8421 7.20471L96.5748 10.6554C96.5609 10.6574 96.5467 10.6574 96.5328 10.6554L94.8 7.20906C94.8139 7.21191 94.8282 7.21191 94.8421 7.20906" fill="#181A1F"/>
<path d="M94.8421 7.20471L96.5748 10.6554C96.5609 10.6574 96.5467 10.6574 96.5328 10.6554L94.8 7.20906C94.8139 7.21191 94.8282 7.21191 94.8421 7.20906" stroke="#6F7380" stroke-width="0.8"/>
<path d="M72.262 19.6125L73.9934 23.0618C73.9862 23.0867 73.9833 23.1127 73.9849 23.1386L72.2522 19.6879C72.2504 19.6623 72.2537 19.6367 72.262 19.6125Z" fill="#181A1F" stroke="#6F7380" stroke-width="0.8"/>
<path d="M72.2463 19.6879L73.9791 23.1386C73.9791 23.1603 73.9791 23.1792 73.9791 23.1965L72.2463 19.7458C72.2463 19.7299 72.2463 19.7096 72.2463 19.6879Z" fill="#181A1F" stroke="#6F7380" stroke-width="0.8"/>
<path d="M72.2522 19.7458L73.9849 23.1966C73.9863 23.2062 73.9863 23.2159 73.9849 23.2255L72.2522 19.7748C72.2536 19.7652 72.2536 19.7554 72.2522 19.7458Z" fill="#181A1F"/>
<path d="M72.2522 19.7458L73.9849 23.1966C73.9863 23.2062 73.9863 23.2159 73.9849 23.2255L72.2522 19.7748C72.2536 19.7652 72.2536 19.7554 72.2522 19.7458" stroke="#6F7380" stroke-width="0.8"/>
<path d="M69.3598 23.4153L71.0926 26.866L70.9342 26.908L69.2014 23.4573C69.2547 23.4443 69.3066 23.4312 69.3598 23.4153Z" fill="#181A1F"/>
<path d="M69.3598 23.4153L71.0926 26.866L70.9342 26.908L69.2014 23.4573C69.2547 23.4443 69.3066 23.4312 69.3598 23.4153" stroke="#6F7380" stroke-width="0.8"/>
<path d="M69.2018 23.4573L70.9345 26.908C70.5325 26.9992 70.1179 27.0145 69.7106 26.9529C69.2715 26.9003 68.851 26.7391 68.485 26.4829C68.1189 26.2266 67.818 25.883 67.6078 25.4811L65.8708 22.0289C66.0813 22.4307 66.3822 22.7742 66.7482 23.0304C67.1142 23.2866 67.5346 23.4479 67.9737 23.5008C68.3809 23.5623 68.7956 23.5471 69.1976 23.4559" fill="#181A1F"/>
<path d="M69.2018 23.4573L70.9345 26.908C70.5325 26.9992 70.1179 27.0145 69.7106 26.9529C69.2715 26.9003 68.851 26.7391 68.485 26.4829C68.1189 26.2266 67.818 25.883 67.6078 25.4811L65.8708 22.0289C66.0813 22.4307 66.3822 22.7742 66.7482 23.0304C67.1142 23.2866 67.5346 23.4479 67.9737 23.5008C68.3809 23.5623 68.7956 23.5471 69.1976 23.4559" stroke="#6F7380" stroke-width="0.8"/>
<path d="M76.7341 24.2338L78.4668 27.6845L73.2335 25.5362L71.5022 22.0854L76.7341 24.2338Z" fill="#181A1F" stroke="#6F7380" stroke-width="0.8"/>
<path d="M94.7999 7.20911L96.5327 10.6598L92.9396 22.4375L91.2083 18.9868L94.7999 7.20911Z" fill="#181A1F" stroke="#6F7380" stroke-width="0.8"/>
<path d="M78.8266 26.6646L80.5594 30.1154C79.686 29.9893 79.0453 29.5113 78.7159 28.855L76.9832 25.4043C77.3126 26.0605 77.9533 26.5386 78.8266 26.6646Z" fill="#181A1F" stroke="#6F7380" stroke-width="0.8"/>
<path d="M78.8685 26.6733L80.6012 30.1241L80.5592 30.1183L78.8264 26.6675L78.8685 26.6733Z" fill="#181A1F" stroke="#6F7380" stroke-width="0.8"/>
<path d="M82.4519 24.3627L84.1846 27.8135C84.1333 27.9821 84.0671 28.1455 83.987 28.3017L82.2556 24.8509C82.3348 24.6945 82.4004 24.5311 82.4519 24.3627Z" fill="#181A1F"/>
<path d="M82.4519 24.3627L84.1846 27.8135C84.1333 27.9821 84.0671 28.1455 83.987 28.3017L82.2556 24.8509C82.3348 24.6945 82.4004 24.5311 82.4519 24.3627" stroke="#6F7380" stroke-width="0.8"/>
<path d="M82.2556 24.851L83.987 28.3017C83.9148 28.4439 83.8318 28.58 83.7388 28.7087L82.0061 25.258C82.0995 25.1293 82.1829 24.9932 82.2556 24.851Z" fill="#181A1F"/>
<path d="M82.2556 24.851L83.987 28.3017C83.9148 28.4439 83.8318 28.58 83.7388 28.7087L82.0061 25.258C82.0995 25.1293 82.1829 24.9932 82.2556 24.851" stroke="#6F7380" stroke-width="0.8"/>
<path d="M82.0065 25.258L83.7392 28.7087C83.6673 28.8096 83.5901 28.9063 83.5079 28.9984L81.7751 25.5477C81.8573 25.4556 81.9346 25.3589 82.0065 25.258Z" fill="#181A1F"/>
<path d="M82.0065 25.258L83.7392 28.7087C83.6673 28.8096 83.5901 28.9063 83.5079 28.9984L81.7751 25.5477C81.8573 25.4556 81.9346 25.3589 82.0065 25.258" stroke="#6F7380" stroke-width="0.8"/>
<path d="M81.7748 25.5434L83.5075 28.9941C83.4332 29.0767 83.3533 29.1564 83.2706 29.2317L81.5378 25.781C81.6206 25.7056 81.7005 25.626 81.7748 25.5434Z" fill="#181A1F" stroke="#6F7380" stroke-width="0.8"/>
<path d="M81.5382 25.781L83.2709 29.2317C83.1896 29.3042 83.1055 29.3766 83.0172 29.4418L81.2844 25.9911C81.3727 25.9244 81.4569 25.8462 81.5382 25.781Z" fill="#181A1F"/>
<path d="M81.5382 25.781L83.2709 29.2317C83.1896 29.3042 83.1055 29.3766 83.0172 29.4418L81.2844 25.9911C81.3727 25.9244 81.4569 25.8462 81.5382 25.781" stroke="#6F7380" stroke-width="0.8"/>
<path d="M81.2841 25.991L83.0169 29.4417H83.0098L81.2771 25.991H81.2841Z" fill="#181A1F"/>
<path d="M81.2841 25.991L83.0169 29.4417H83.0098L81.2771 25.991H81.2841" stroke="#6F7380" stroke-width="0.8"/>
<path d="M86.9791 23.1299L88.7119 26.5807L84.1851 27.8135L82.4524 24.3628L86.9791 23.1299Z" fill="#181A1F" stroke="#6F7380" stroke-width="0.8"/>
<path d="M91.9753 19.856L93.7109 23.3009C93.7403 23.3603 93.767 23.4197 93.7908 23.482L92.0567 20.0312C92.0314 19.9689 92.0048 19.9096 91.9753 19.8502" fill="#181A1F"/>
<path d="M91.9753 19.856L93.7109 23.3009C93.7403 23.3603 93.767 23.4197 93.7908 23.482L92.0567 20.0312C92.0314 19.9689 92.0048 19.9096 91.9753 19.8502" stroke="#6F7380" stroke-width="0.8"/>
<path d="M92.0564 20.0313L93.7877 23.4776C93.8273 23.5763 93.8591 23.678 93.8831 23.7819L92.1503 20.3311C92.1262 20.2275 92.0948 20.1258 92.0564 20.0269" fill="#181A1F"/>
<path d="M92.0564 20.0313L93.7877 23.4776C93.8273 23.5763 93.8591 23.678 93.8831 23.7819L92.1503 20.3311C92.1262 20.2275 92.0948 20.1258 92.0564 20.0269" stroke="#6F7380" stroke-width="0.8"/>
<path d="M92.1501 20.3354L93.8829 23.7862C93.9157 23.9253 93.935 24.0675 93.9404 24.2106L92.2076 20.7599C92.2022 20.6168 92.1829 20.4746 92.1501 20.3354Z" fill="#181A1F"/>
<path d="M92.1501 20.3354L93.8829 23.7862C93.9157 23.9253 93.935 24.0675 93.9404 24.2106L92.2076 20.7599C92.2022 20.6168 92.1829 20.4746 92.1501 20.3354" stroke="#6F7380" stroke-width="0.8"/>
<path d="M92.2077 20.7599L93.9404 24.2107C93.9518 24.5135 93.9115 24.8161 93.8213 25.1045L93.7974 25.1827L92.0647 21.7392L92.0885 21.661C92.1787 21.3726 92.2191 21.0701 92.2077 20.7672" fill="#181A1F"/>
<path d="M92.2077 20.7599L93.9404 24.2107C93.9518 24.5135 93.9115 24.8161 93.8213 25.1045L93.7974 25.1827L92.0647 21.7392L92.0885 21.661C92.1787 21.3726 92.2191 21.0701 92.2077 20.7672" stroke="#6F7380" stroke-width="0.8"/>
<path d="M90.4275 23.6225L92.1603 27.0718C92.058 27.121 91.9528 27.1659 91.8463 27.2065L90.1135 23.7674C90.2201 23.7268 90.3252 23.6819 90.4275 23.6341" fill="#181A1F"/>
<path d="M90.4275 23.6225L92.1603 27.0718C92.058 27.121 91.9528 27.1659 91.8463 27.2065L90.1135 23.7674C90.2201 23.7268 90.3252 23.6819 90.4275 23.6341" stroke="#6F7380" stroke-width="0.8"/>
<path d="M90.1138 23.7674L91.8466 27.2181C91.6958 27.276 91.5418 27.3244 91.3853 27.363L89.6526 23.9123C89.8092 23.8744 89.9633 23.826 90.1138 23.7674Z" fill="#181A1F"/>
<path d="M90.1138 23.7674L91.8466 27.2181C91.6958 27.276 91.5418 27.3244 91.3853 27.363L89.6526 23.9123C89.8092 23.8744 89.9633 23.826 90.1138 23.7674" stroke="#6F7380" stroke-width="0.8"/>
<path d="M89.6523 23.9021L91.385 27.3528C91.0087 27.4457 90.6192 27.4668 90.2355 27.4151C89.6501 27.3253 89.1123 27.0308 88.7116 26.5807L86.9817 23.1299C87.3823 23.58 87.9202 23.8746 88.5056 23.9644C88.8892 24.0161 89.2788 23.995 89.6551 23.9021" fill="#181A1F"/>
<path d="M89.6523 23.9021L91.385 27.3528C91.0087 27.4457 90.6192 27.4668 90.2355 27.4151C89.6501 27.3253 89.1123 27.0308 88.7116 26.5807L86.9817 23.1299C87.3823 23.58 87.9202 23.8746 88.5056 23.9644C88.8892 24.0161 89.2788 23.995 89.6551 23.9021" stroke="#6F7380" stroke-width="0.8"/>
<path d="M93.8397 26.0461L95.5725 29.4968L92.1602 27.079L90.4275 23.6282L93.8397 26.0461Z" fill="#181A1F" stroke="#6F7380" stroke-width="0.8"/>
<path d="M99.301 25.0349L101.032 28.4856C101.055 28.5276 101.074 28.5697 101.093 28.6131L99.3613 25.1624C99.3417 25.1189 99.3221 25.0769 99.301 25.0349Z" fill="#181A1F"/>
<path d="M99.301 25.0349L101.032 28.4856C101.055 28.5276 101.074 28.5697 101.093 28.6131L99.3613 25.1624C99.3417 25.1189 99.3221 25.0769 99.301 25.0349" stroke="#6F7380" stroke-width="0.8"/>
<path d="M105.912 24.5091L107.644 27.9598L96.6676 10.6381L94.9348 7.18738L105.912 24.5091Z" fill="#181A1F" stroke="#6F7380" stroke-width="0.8"/>
<path d="M99.1246 27.4644L100.86 30.9151C100.813 30.9904 100.764 31.0643 100.713 31.1367L98.9802 27.686C99.0316 27.6136 99.0784 27.5397 99.1204 27.4644" fill="#181A1F"/>
<path d="M99.1246 27.4644L100.86 30.9151C100.813 30.9904 100.764 31.0643 100.713 31.1367L98.9802 27.686C99.0316 27.6136 99.0784 27.5397 99.1204 27.4644" stroke="#6F7380" stroke-width="0.8"/>
<path d="M98.9776 27.686L100.71 31.1367C100.634 31.2417 100.553 31.3423 100.466 31.438L98.7336 27.9873C98.8206 27.8919 98.902 27.7913 98.9776 27.686Z" fill="#181A1F" stroke="#6F7380" stroke-width="0.8"/>
<path d="M98.7339 27.9873L100.467 31.4453C100.39 31.5307 100.308 31.6119 100.223 31.6901L98.49 28.2394C98.5755 28.1611 98.6568 28.08 98.7339 27.9945" fill="#181A1F"/>
<path d="M98.7339 27.9873L100.467 31.4453C100.39 31.5307 100.308 31.6119 100.223 31.6901L98.49 28.2394C98.5755 28.1611 98.6568 28.08 98.7339 27.9945" stroke="#6F7380" stroke-width="0.8"/>
<path d="M98.4899 28.2322L100.223 31.6829C100.141 31.7553 100.057 31.8278 99.9703 31.8901L98.2375 28.4393C98.3259 28.3741 98.4086 28.3046 98.4899 28.2322Z" fill="#181A1F" stroke="#6F7380" stroke-width="0.8"/>
<path d="M98.2373 28.4393L99.9701 31.8901C99.8839 31.956 99.7945 32.0174 99.7023 32.074L97.9709 28.6233C98.0621 28.5668 98.1518 28.5045 98.2373 28.4393Z" fill="#181A1F" stroke="#6F7380" stroke-width="0.8"/>
<path d="M97.971 28.6233L99.7024 32.074C99.6084 32.1332 99.5115 32.1874 99.4122 32.2363L97.6794 28.7855C97.779 28.7363 97.8757 28.6827 97.971 28.6233Z" fill="#181A1F" stroke="#6F7380" stroke-width="0.8"/>
<path d="M97.6796 28.7855L99.4123 32.2362C99.303 32.2913 99.1922 32.3391 99.0787 32.3811L97.3459 28.9304C97.4595 28.8869 97.5703 28.8391 97.6796 28.7855Z" fill="#181A1F" stroke="#6F7380" stroke-width="0.8"/>
<path d="M97.3456 28.9319L99.0783 32.3826C98.9407 32.4334 98.8003 32.4755 98.6577 32.5086L96.9348 29.0579C97.0773 29.0248 97.2178 28.9827 97.3554 28.9319" fill="#181A1F"/>
<path d="M97.3456 28.9319L99.0783 32.3826C98.9407 32.4334 98.8003 32.4755 98.6577 32.5086L96.9348 29.0579C97.0773 29.0248 97.2178 28.9827 97.3554 28.9319" stroke="#6F7380" stroke-width="0.8"/>
<path d="M96.9351 29.0579L98.6678 32.5086C98.2916 32.5991 97.9025 32.6182 97.5197 32.5651L95.7883 29.1144C96.1707 29.1674 96.5593 29.1483 96.9351 29.0579Z" fill="#181A1F"/>
<path d="M96.9351 29.0579L98.6678 32.5086C98.2916 32.5991 97.9025 32.6182 97.5197 32.5651L95.7883 29.1144C96.1707 29.1674 96.5593 29.1483 96.9351 29.0579" stroke="#6F7380" stroke-width="0.8"/>
<path d="M105.17 26.9443L106.902 30.395L100.856 30.9151L99.1248 27.4643L105.17 26.9443Z" fill="#181A1F" stroke="#6F7380" stroke-width="0.8"/>
<path d="M80.3379 40.737L82.0706 44.1877L71.0924 26.866L69.3596 23.4153L80.3379 40.737Z" fill="#181A1F" stroke="#6F7380" stroke-width="0.8"/>
<path d="M81.2771 25.9954L83.0098 29.4461L85.2991 42.7695L83.5664 39.3187L81.2771 25.9954Z" fill="#181A1F" stroke="#6F7380" stroke-width="0.8"/>
<path d="M95.7842 29.1144L97.5155 32.5651L90.2369 41.0224L88.5042 37.5717L95.7842 29.1144Z" fill="#181A1F" stroke="#6F7380" stroke-width="0.8"/>
<path d="M106.355 28.7537L108.087 32.2044L87.9113 45.0309L86.1799 41.5801L106.355 28.7537Z" fill="#181A1F" stroke="#6F7380" stroke-width="0.8"/>
<path d="M111.578 24.509L113.311 27.9598C113.346 28.0293 113.377 28.1046 113.406 28.1727L111.673 24.722C111.645 24.6496 111.613 24.5771 111.578 24.509Z" fill="#181A1F"/>
<path d="M111.578 24.509L113.311 27.9598C113.346 28.0293 113.377 28.1046 113.406 28.1727L111.673 24.722C111.645 24.6496 111.613 24.5771 111.578 24.509" stroke="#6F7380" stroke-width="0.8"/>
<path d="M111.673 24.722L113.406 28.1727C113.451 28.289 113.488 28.4086 113.517 28.5305L111.784 25.0798C111.756 24.9578 111.719 24.8382 111.673 24.722Z" fill="#181A1F"/>
<path d="M111.673 24.722L113.406 28.1727C113.451 28.289 113.488 28.4086 113.517 28.5305L111.784 25.0798C111.756 24.9578 111.719 24.8382 111.673 24.722" stroke="#6F7380" stroke-width="0.8"/>
<path d="M111.784 25.0798L113.517 28.5305C113.555 28.692 113.577 28.857 113.584 29.023L111.851 25.5723C111.845 25.4062 111.822 25.2413 111.784 25.0798Z" fill="#181A1F"/>
<path d="M111.784 25.0798L113.517 28.5305C113.555 28.692 113.577 28.857 113.584 29.023L111.851 25.5723C111.845 25.4062 111.822 25.2413 111.784 25.0798" stroke="#6F7380" stroke-width="0.8"/>
<path d="M111.851 25.5723L113.584 29.0231C113.597 29.3635 113.552 29.7038 113.452 30.0284C113.394 30.217 113.32 30.3998 113.231 30.5746L111.499 27.1238C111.588 26.9488 111.662 26.766 111.719 26.5777C111.821 26.2534 111.865 25.9129 111.851 25.5723Z" fill="#181A1F"/>
<path d="M111.851 25.5723L113.584 29.0231C113.597 29.3635 113.552 29.7038 113.452 30.0284C113.394 30.217 113.32 30.3998 113.231 30.5746L111.499 27.1238C111.588 26.9488 111.662 26.766 111.719 26.5777C111.821 26.2534 111.865 25.9129 111.851 25.5723" stroke="#6F7380" stroke-width="0.8"/>
<path d="M111.499 27.1238L113.231 30.576C113.146 30.7426 113.049 30.9019 112.941 31.0526L111.208 27.6019C111.317 27.4511 111.414 27.2918 111.499 27.1253" fill="#181A1F"/>
<path d="M111.499 27.1238L113.231 30.576C113.146 30.7426 113.049 30.9019 112.941 31.0526L111.208 27.6019C111.317 27.4511 111.414 27.2918 111.499 27.1253" stroke="#6F7380" stroke-width="0.8"/>
<path d="M111.208 27.6005L112.941 31.0512C112.855 31.1702 112.761 31.2834 112.661 31.3902L110.935 27.9394C111.032 27.8321 111.124 27.7189 111.208 27.6005Z" fill="#181A1F"/>
<path d="M111.208 27.6005L112.941 31.0512C112.855 31.1702 112.761 31.2834 112.661 31.3902L110.935 27.9394C111.032 27.8321 111.124 27.7189 111.208 27.6005" stroke="#6F7380" stroke-width="0.8"/>
<path d="M110.934 27.9395L112.666 31.3902C112.579 31.4857 112.489 31.5766 112.394 31.6625L110.661 28.2118C110.759 28.1261 110.852 28.0352 110.941 27.9395" fill="#181A1F"/>
<path d="M110.934 27.9395L112.666 31.3902C112.579 31.4857 112.489 31.5766 112.394 31.6625L110.661 28.2118C110.759 28.1261 110.852 28.0352 110.941 27.9395" stroke="#6F7380" stroke-width="0.8"/>
<path d="M110.661 28.2118L112.394 31.6625C112.303 31.7451 112.207 31.8248 112.113 31.8986L110.382 28.4479C110.48 28.374 110.576 28.3031 110.662 28.2118" fill="#181A1F"/>
<path d="M110.661 28.2118L112.394 31.6625C112.303 31.7451 112.207 31.8248 112.113 31.8986L110.382 28.4479C110.48 28.374 110.576 28.3031 110.662 28.2118" stroke="#6F7380" stroke-width="0.8"/>
<path d="M110.377 28.4479L112.108 31.8987C112.01 31.9721 111.909 32.0416 111.805 32.1073L110.073 28.6565C110.176 28.5914 110.279 28.5218 110.377 28.4479Z" fill="#181A1F" stroke="#6F7380" stroke-width="0.8"/>
<path d="M110.072 28.6566L111.805 32.1073C111.697 32.1739 111.586 32.2362 111.473 32.2927L109.74 28.8377C109.854 28.7812 109.964 28.7189 110.072 28.6522" fill="#181A1F"/>
<path d="M110.072 28.6566L111.805 32.1073C111.697 32.1739 111.586 32.2362 111.473 32.2927L109.74 28.8377C109.854 28.7812 109.964 28.7189 110.072 28.6522" stroke="#6F7380" stroke-width="0.8"/>
<path d="M109.74 28.8376L111.473 32.2884C111.35 32.3522 111.223 32.4093 111.094 32.4593L109.362 29.0086C109.491 28.9608 109.618 28.9056 109.741 28.8434" fill="#181A1F"/>
<path d="M109.74 28.8376L111.473 32.2884C111.35 32.3522 111.223 32.4093 111.094 32.4593L109.362 29.0086C109.491 28.9608 109.618 28.9056 109.741 28.8434" stroke="#6F7380" stroke-width="0.8"/>
<path d="M109.36 29.0071L111.094 32.4593C110.94 32.5177 110.782 32.566 110.622 32.6042L108.889 29.1535C109.049 29.1153 109.207 29.0669 109.361 29.0086" fill="#181A1F"/>
<path d="M109.36 29.0071L111.094 32.4593C110.94 32.5177 110.782 32.566 110.622 32.6042L108.889 29.1535C109.049 29.1153 109.207 29.0669 109.361 29.0086" stroke="#6F7380" stroke-width="0.8"/>
<path d="M108.888 29.152L110.621 32.6042C110.188 32.708 109.741 32.7296 109.302 32.6679C108.871 32.6002 108.458 32.443 108.087 32.2058L106.355 28.7551C106.725 28.9931 107.138 29.1503 107.569 29.2172C108.009 29.2789 108.456 29.2573 108.888 29.1534" fill="#181A1F"/>
<path d="M108.888 29.152L110.621 32.6042C110.188 32.708 109.741 32.7296 109.302 32.6679C108.871 32.6002 108.458 32.443 108.087 32.2058L106.355 28.7551C106.725 28.9931 107.138 29.1503 107.569 29.2172C108.009 29.2789 108.456 29.2573 108.888 29.1534" stroke="#6F7380" stroke-width="0.8"/>
<path d="M86.1799 41.5859L87.9113 45.0367C87.9321 45.1422 87.9452 45.2492 87.9505 45.3568L86.2178 41.9061C86.2123 41.7986 86.1996 41.6916 86.1799 41.5859Z" fill="#181A1F"/>
<path d="M86.1799 41.5859L87.9113 45.0367C87.9321 45.1422 87.9452 45.2492 87.9505 45.3568L86.2178 41.9061C86.2123 41.7986 86.1996 41.6916 86.1799 41.5859" stroke="#6F7380" stroke-width="0.8"/>
<path d="M86.2176 41.9003L87.9503 45.3524C87.9589 45.6839 87.9115 46.0143 87.8101 46.3288C87.7532 46.5133 87.6805 46.6922 87.5928 46.8634L85.8601 43.4112C85.9473 43.24 86.0196 43.0611 86.076 42.8767C86.1773 42.5621 86.2248 42.2317 86.2162 41.9003" fill="#181A1F"/>
<path d="M86.2176 41.9003L87.9503 45.3524C87.9589 45.6839 87.9115 46.0143 87.8101 46.3288C87.7532 46.5133 87.6805 46.6922 87.5928 46.8634L85.8601 43.4112C85.9473 43.24 86.0196 43.0611 86.076 42.8767C86.1773 42.5621 86.2248 42.2317 86.2162 41.9003" stroke="#6F7380" stroke-width="0.8"/>
<path d="M85.8602 43.4113L87.5916 46.862C87.5078 47.0269 87.4117 47.1848 87.3042 47.3342L85.5798 43.8835C85.6844 43.7335 85.7782 43.5756 85.8602 43.4113Z" fill="#181A1F" stroke="#6F7380" stroke-width="0.8"/>
<path d="M85.5795 43.8835L87.3122 47.3342C87.2274 47.4512 87.1366 47.5633 87.0402 47.6703L85.2991 44.2196C85.3958 44.1129 85.4866 44.0007 85.571 43.8835" fill="#181A1F"/>
<path d="M85.5795 43.8835L87.3122 47.3342C87.2274 47.4512 87.1366 47.5633 87.0402 47.6703L85.2991 44.2196C85.3958 44.1129 85.4866 44.0007 85.571 43.8835" stroke="#6F7380" stroke-width="0.8"/>
<path d="M85.2994 44.2196L87.0363 47.6703C86.948 47.7674 86.8569 47.8587 86.7559 47.947L85.0232 44.4963C85.1211 44.409 85.2147 44.3167 85.3036 44.2196" fill="#181A1F"/>
<path d="M85.2994 44.2196L87.0363 47.6703C86.948 47.7674 86.8569 47.8587 86.7559 47.947L85.0232 44.4963C85.1211 44.409 85.2147 44.3167 85.3036 44.2196" stroke="#6F7380" stroke-width="0.8"/>
<path d="M85.0273 44.4963L86.7601 47.947C86.6666 48.031 86.5699 48.1107 86.4699 48.186L84.7385 44.7353C84.8381 44.66 84.9348 44.5803 85.0273 44.4963Z" fill="#181A1F" stroke="#6F7380" stroke-width="0.8"/>
<path d="M84.7388 44.7354L86.4701 48.1861C86.3706 48.2614 86.2668 48.3309 86.1617 48.3976L84.429 44.9469C84.5355 44.8817 84.6378 44.8107 84.7388 44.7354Z" fill="#181A1F" stroke="#6F7380" stroke-width="0.8"/>
<path d="M84.4289 44.9468L86.1616 48.3946C86.0509 48.4642 85.9373 48.5265 85.8209 48.5844L84.0896 45.1337C84.2046 45.0757 84.3181 45.0134 84.4289 44.9439" fill="#181A1F"/>
<path d="M84.4289 44.9468L86.1616 48.3946C86.0509 48.4642 85.9373 48.5265 85.8209 48.5844L84.0896 45.1337C84.2046 45.0757 84.3181 45.0134 84.4289 44.9439" stroke="#6F7380" stroke-width="0.8"/>
<path d="M84.0895 45.1366L85.8208 48.5873C85.6966 48.6506 85.5694 48.7071 85.4395 48.7568L83.7068 45.3061C83.8386 45.2568 83.9678 45.2002 84.0937 45.1366" fill="#181A1F"/>
<path d="M84.0895 45.1366L85.8208 48.5873C85.6966 48.6506 85.5694 48.7071 85.4395 48.7568L83.7068 45.3061C83.8386 45.2568 83.9678 45.2002 84.0937 45.1366" stroke="#6F7380" stroke-width="0.8"/>
<path d="M83.7025 45.3061L85.4395 48.7568C85.2827 48.8152 85.1226 48.8636 84.96 48.9017L83.2273 45.4524C83.3897 45.4136 83.5497 45.3652 83.7067 45.3075" fill="#181A1F"/>
<path d="M83.7025 45.3061L85.4395 48.7568C85.2827 48.8152 85.1226 48.8636 84.96 48.9017L83.2273 45.4524C83.3897 45.4136 83.5497 45.3652 83.7067 45.3075" stroke="#6F7380" stroke-width="0.8"/>
<path d="M83.2232 45.4524L84.9559 48.9017C84.5316 49.005 84.0926 49.0271 83.6606 48.9669C82.6863 48.822 81.932 48.2701 81.5479 47.5037L79.8152 44.0486C80.1993 44.815 80.9549 45.3713 81.9292 45.5118C82.3607 45.5718 82.7992 45.5502 83.2232 45.4481" fill="#181A1F"/>
<path d="M83.2232 45.4524L84.9559 48.9017C84.5316 49.005 84.0926 49.0271 83.6606 48.9669C82.6863 48.822 81.932 48.2701 81.5479 47.5037L79.8152 44.0486C80.1993 44.815 80.9549 45.3713 81.9292 45.5118C82.3607 45.5718 82.7992 45.5502 83.2232 45.4481" stroke="#6F7380" stroke-width="0.8"/>
<path d="M109.448 23.0517C111.233 23.3096 112.234 24.8886 111.719 26.5777C111.205 28.2669 109.353 29.4751 107.568 29.2158C107.137 29.1489 106.724 28.9916 106.354 28.7536L86.1797 41.5859C86.2527 42.0199 86.2184 42.4658 86.0802 42.8825C85.5643 44.5716 83.6731 45.7798 81.9292 45.5219C80.1852 45.2641 79.145 43.6865 79.6721 41.9582C79.818 41.5134 80.0439 41.101 80.338 40.7428L69.3598 23.4153C68.9099 23.5437 68.4391 23.5733 67.9775 23.5022C66.2321 23.2502 65.2045 21.6277 65.719 19.9385C66.2335 18.2494 68.0854 17.0412 69.87 17.3005C70.3011 17.367 70.7143 17.5243 71.0841 17.7626L91.2476 4.97524C91.173 4.53896 91.2073 4.09025 91.3471 3.67144C91.8616 1.98375 93.7528 0.781356 95.4967 1.03342C97.2407 1.28549 98.2823 2.87033 97.7552 4.59714C97.6077 5.04158 97.3814 5.45375 97.0879 5.81257L108.066 23.1401C108.516 23.0113 108.987 22.9812 109.448 23.0517ZM105.836 24.622C105.856 24.5812 105.882 24.5432 105.911 24.5091L94.9346 7.18735C94.8939 7.18735 94.842 7.21488 94.7944 7.20909L91.2083 18.9867C92.0495 19.5575 92.4238 20.5556 92.0887 21.6537L92.0649 21.732L95.4603 24.0672C96.0655 23.7349 96.7558 23.6053 97.4355 23.6964C97.8516 23.7488 98.2474 23.9113 98.5849 24.1681C98.9223 24.4249 99.1899 24.7674 99.3617 25.1624L105.836 24.622ZM92.4308 6.78462L72.2617 19.6126C72.2379 19.6908 72.2617 19.7357 72.2617 19.7748L77.8342 22.055C78.1926 21.7398 78.6104 21.5049 79.0612 21.3652C79.512 21.2256 79.9859 21.1842 80.453 21.2438C81.0743 21.317 81.6445 21.6345 82.0455 22.1303L86.519 20.9294L86.5428 20.8512C86.8666 19.7922 87.8438 18.9491 88.9078 18.6521L92.5009 6.87445C92.4728 6.83099 92.4322 6.82519 92.4434 6.78462H92.4308ZM84.025 39.3796L93.9785 27.8642C93.8415 27.5845 93.76 27.2793 93.7388 26.9665C93.7176 26.6538 93.7571 26.3399 93.8551 26.0432L90.4275 23.6225C89.8294 23.9201 89.1621 24.0366 88.5027 23.9586C87.919 23.8697 87.3823 23.5773 86.9816 23.1299L82.4549 24.3627C82.2441 25.0237 81.832 25.5965 81.2801 25.9954L83.5694 39.3231L83.8119 39.3579L84.0152 39.3869L84.025 39.3796ZM71.5019 22.084L80.5525 36.4258L78.8702 26.6763H78.8282C77.4908 26.4821 76.6987 25.4666 76.7351 24.241L71.5033 22.0927L71.5019 22.084ZM105.157 26.9834L105.17 26.9428L99.1248 27.4643C98.4407 28.5957 97.0823 29.3012 95.7841 29.1144L88.5041 37.5717L105.157 26.9834Z" fill="#181A1F" stroke="#6F7380" stroke-width="0.8"/>
</svg>
