<svg width="114" height="80" viewBox="0 0 114 80" fill="none" xmlns="http://www.w3.org/2000/svg">
<path d="M54.8588 41.3869C54.8588 41.3869 80.6573 35.0478 87.3678 36.9541C94.0782 38.8603 96.3878 40.5425 97.6449 40.753C98.902 40.9636 109.811 37.8099 113.387 45.1882C113.387 45.1882 115.694 52.5778 108.563 54.6969C108.563 54.6969 102.691 56.5964 96.6082 54.063C96.6082 54.063 90.1068 51.5296 84.0148 59.7637C77.9227 67.9978 74.1582 74.9664 69.9619 76.0237C65.7656 77.0809 55.9112 81.301 50.667 79.1932L37.8712 77.9164C37.8712 77.9164 34.7228 77.2824 33.2566 75.8041C33.2566 75.8041 30.3197 75.3829 28.4329 73.9046C26.5461 72.4262 22.1362 71.3712 21.0927 70.9478C20.0493 70.5244 17.317 67.5699 17.317 67.5699C17.317 67.5699 12.7024 62.7137 11.8636 62.5031C11.0248 62.2926 6.41018 59.5464 4.52342 53.8457C2.63666 48.1449 -1.13911 40.753 0.747651 38.8535C2.63441 36.9541 7.45813 35.684 9.138 38.0091C10.3608 39.7724 11.4811 41.6055 12.4932 43.4992C12.4932 43.4992 18.7899 42.2314 20.2539 46.0326C20.2539 46.0326 22.9795 48.7766 23.4023 50.0444L24.1894 50.9115C24.1894 50.9115 28.0124 46.61 33.6681 51.3756L34.824 52.4239C34.824 52.4239 46.8058 42.9197 54.8588 41.3869Z" fill="#202229"/>
<path d="M54.2068 79.9969C52.9813 80.0276 51.761 79.8272 50.6087 79.406L37.8489 78.1427C37.6982 78.1133 34.669 77.4884 33.1511 76.0169C32.6698 75.9399 30.0634 75.4667 28.2959 74.0834C26.9128 73.0012 24.0568 72.1228 22.35 71.593C21.7518 71.4096 21.2795 71.2625 21.0007 71.1538C19.9168 70.7169 17.2564 67.8416 17.144 67.7193C15.3786 65.8629 12.3652 62.8586 11.8008 62.7182C11.1778 62.5597 6.30239 59.9607 4.30093 53.9113C3.81519 52.4442 3.19226 50.8391 2.59183 49.286C0.792771 44.6154 -0.92308 40.2029 0.567889 38.6883C1.91718 37.3299 4.57754 36.3813 6.61047 36.542C7.80909 36.6348 8.73786 37.0967 9.29782 37.871C10.4968 39.5963 11.5968 41.3893 12.5923 43.2411C13.6597 43.0673 14.7439 43.0232 15.8217 43.1098C18.1897 43.3226 19.7796 44.2894 20.425 45.9013C20.7488 46.2296 23.1236 48.6656 23.5733 49.9222L24.167 50.5742C25.6647 49.0709 29.3551 47.4635 33.7875 51.199L34.8107 52.125C36.223 51.027 47.2602 42.5982 54.7892 41.1605C55.0141 41.1062 61.4165 39.544 68.534 38.2309C78.2399 36.4379 84.5906 35.933 87.4084 36.7299C90.2836 37.5222 93.0897 38.5497 95.7987 39.8021C96.6645 40.1961 97.238 40.4542 97.6608 40.5266C98.1463 40.5223 98.6307 40.4776 99.109 40.393C102.536 39.9403 110.56 38.8762 113.555 45.084L113.569 45.1157C113.612 45.2561 114.628 48.6 113.099 51.4866C112.229 53.1257 110.715 54.2735 108.601 54.9029C108.547 54.921 102.586 56.7979 96.4981 54.26C96.4397 54.2373 90.08 51.8986 84.1813 59.8882C82.7308 61.8511 81.4378 63.7053 80.1874 65.4984C76.1755 71.2512 73.2768 75.4056 70.0025 76.2319C69.103 76.4583 67.9336 76.8319 66.5843 77.2666C62.8715 78.4688 58.1107 79.9969 54.2068 79.9969ZM6.16296 36.9812C4.31892 36.9812 2.09259 37.828 0.914209 39.0188C-0.383361 40.3229 1.35048 44.801 3.02585 49.1298C3.63078 50.6874 4.25371 52.2993 4.74395 53.7777C6.53177 59.1796 10.9552 62.0435 11.9244 62.288C12.7835 62.5144 16.7077 66.5896 17.4858 67.4182C18.2639 68.2469 20.353 70.3999 21.1761 70.7372C21.428 70.8414 21.8935 70.984 22.4827 71.1651C24.3289 71.7334 27.122 72.5914 28.5702 73.7257C30.3873 75.1475 33.259 75.5776 33.2927 75.5799H33.367L33.4209 75.6342C34.8242 77.047 37.8893 77.6718 37.9186 77.6831L50.7211 78.9487L50.7503 78.9623C54.7802 80.5833 61.8123 78.3239 66.4651 76.8274C67.8144 76.3927 68.9905 76.0168 69.9081 75.7859C73.0204 75.0026 76.0271 70.6897 79.8344 65.2312C81.0869 63.4359 82.3823 61.5772 83.835 59.612C89.9496 51.3326 96.6151 53.8072 96.6803 53.8343C102.624 56.3089 108.428 54.4818 108.487 54.4637C110.493 53.8683 111.916 52.7952 112.726 51.267C114.118 48.6407 113.241 45.5051 113.175 45.2584C110.315 39.372 102.527 40.393 99.199 40.8345C98.4029 40.9387 97.8767 41.0088 97.6248 40.9658C97.1435 40.8843 96.5499 40.6149 95.6526 40.2074C92.9672 38.9625 90.1841 37.9433 87.3319 37.1601C80.7541 35.2968 55.1963 41.5318 54.9377 41.5952C47.0308 43.1008 35.1165 52.494 34.9973 52.5869L34.8489 52.7069L33.5514 51.5318C31.2778 49.6143 29.0537 48.9486 26.9218 49.5531C25.9653 49.8263 25.0938 50.3406 24.3897 51.0474L24.2255 51.233L23.236 50.1486L23.2225 50.1033C22.8245 48.9011 20.1574 46.207 20.1304 46.1798L20.0967 46.1458L20.0787 46.1005C18.6979 42.5212 12.6351 43.6939 12.5721 43.7075L12.4102 43.7392L12.3315 43.5921C11.3225 41.7086 10.2075 39.8846 8.99197 38.1291C8.38479 37.2891 7.37282 37.0423 6.63071 36.9835C6.45305 36.9857 6.30688 36.9812 6.16296 36.9812Z" fill="url(#paint0_linear_1033_4433)"/>
<path d="M64.6973 77.8417C61.9987 77.176 59.687 76.6667 58.8032 76.5444C57.3639 76.3452 53.7838 75.6863 51.6249 73.8276C50.1115 72.5326 47.1093 68.7155 45.6678 66.8817C45.2945 66.4063 45.0246 66.0644 44.9122 65.9308C44.2713 65.1792 43.7068 63.6329 43.4527 62.5145L43.4212 62.3809C43.1469 61.1946 42.805 59.7185 43.6461 57.8212C44.5254 55.8516 46.7337 54.5679 48.3686 54.4637C48.7368 54.4347 49.1027 54.381 49.4638 54.303C50.4983 54.106 51.4765 53.9181 52.6684 54.8916C53.1361 55.2743 53.8558 55.7474 54.6923 56.293C56.4914 57.4635 58.7042 58.9215 59.5048 60.2641C60.4965 61.9304 63.7776 61.0882 64.0384 61.0202C64.6538 60.7378 65.2927 60.5105 65.9477 60.3411C66.0983 60.3094 66.2917 60.2573 66.5189 60.1962C67.5758 59.9154 69.3456 59.4468 70.4858 59.7751L70.3644 60.2097C69.3411 59.9154 67.6455 60.366 66.6336 60.6354C66.4087 60.6965 66.1995 60.7486 66.0466 60.7848C65.416 60.9467 64.8005 61.1634 64.2071 61.4323H64.1756C64.0182 61.4776 60.3211 62.5009 59.118 60.4769C58.3714 59.2249 56.1945 57.7986 54.4472 56.6553C53.6016 56.1006 52.873 55.6229 52.3873 55.2267C51.3573 54.3845 50.5208 54.5475 49.5515 54.7309C49.1708 54.811 48.7855 54.8669 48.3979 54.8984C46.9384 54.9913 44.8672 56.198 44.0666 57.9888C43.2661 59.7796 43.5899 61.0814 43.8642 62.2609L43.8935 62.3945C44.1903 63.6985 44.7525 65.023 45.2585 65.6184C45.3777 65.7588 45.6498 66.1052 46.0254 66.5829C47.4579 68.3941 50.4398 72.1975 51.9218 73.4654C53.9884 75.2358 57.4696 75.8765 58.8706 76.069C59.9591 76.2184 62.6509 76.841 64.8098 77.3753L64.6973 77.8417Z" fill="url(#paint1_linear_1033_4433)"/>
<path d="M56.1811 66.7164H55.7314C55.7236 66.5896 55.7531 66.4633 55.8164 66.3534C55.8796 66.2434 55.9736 66.1547 56.0867 66.0983L56.1272 66.0757C56.0732 65.6772 54.3618 63.5468 53.6242 62.6254C52.05 60.6761 49.9429 60.0807 47.3275 60.8595C46.059 61.2618 44.8658 61.8739 43.7969 62.6707L43.5203 62.3152C43.5832 62.2631 49.9429 57.3345 53.966 62.3514C56.388 65.3693 56.6241 65.8561 56.5634 66.1866C56.5461 66.2519 56.5144 66.3123 56.4709 66.3636C56.4273 66.415 56.3729 66.4558 56.3116 66.4832C56.2216 66.5376 56.1811 66.5511 56.1811 66.7164Z" fill="url(#paint2_linear_1033_4433)"/>
<path d="M33.0836 75.9489C31.2845 73.7619 29.5821 71.421 28.2081 69.5283C27.5649 68.6453 27.0095 67.8824 26.5417 67.2643C25.0575 65.3105 21.6303 58.308 21.4841 58.0114L21.4549 57.948C21.4324 57.862 21.4122 57.7759 21.3919 57.6922C20.3282 53.0533 24.0298 50.7485 24.0658 50.7259L24.2907 51.1153C23.257 51.7981 22.4622 52.7902 22.0184 53.9519C21.5746 55.1135 21.5042 56.3861 21.817 57.5903C21.8349 57.674 21.8574 57.751 21.8777 57.8325C22.0868 58.2604 25.46 65.1203 26.8768 66.9881C27.3491 67.6084 27.9068 68.3736 28.5499 69.2521C29.9195 71.1334 31.6241 73.4744 33.4096 75.6501L33.0836 75.9489Z" fill="url(#paint3_linear_1033_4433)"/>
<path d="M42.1822 64.2124C40.5001 59.5826 34.7093 52.639 34.6509 52.5688L34.9949 52.2767C35.0534 52.3469 40.8959 59.3517 42.605 64.0494L42.1822 64.2124Z" fill="url(#paint4_linear_1033_4433)"/>
<path d="M30.9157 65.4984L30.7628 65.0727L32.4022 64.4864C32.4156 64.4864 33.6975 64.26 34.3204 63.4223C34.8826 62.6684 34.2102 61.6247 33.0993 59.8995L32.9374 59.6482C30.6571 56.0983 27.855 55.4395 25.6714 55.2606C23.8724 55.1135 22.5703 55.9398 21.8237 57.7216L21.4099 57.545C21.9789 56.1866 23.1865 54.6018 25.7074 54.8078C30.0634 55.1656 32.0603 57.4499 33.3152 59.4037L33.4771 59.6528C34.6532 61.4798 35.4313 62.6865 34.6802 63.694C33.9876 64.6245 32.6855 64.8962 32.4989 64.9301L30.9157 65.4984Z" fill="url(#paint5_linear_1033_4433)"/>
<path d="M17.7062 68.2967L9.39679 52.3808C8.67942 51.0564 8.39157 49.7478 8.54449 48.4936C8.94703 45.1678 12.2483 43.3747 12.3877 43.3L12.5991 43.6985C12.5654 43.7166 9.36531 45.4598 8.98976 48.5479C8.85033 49.7071 9.12019 50.9228 9.79483 52.1703L18.1155 68.0906L17.7062 68.2967Z" fill="url(#paint6_linear_1033_4433)"/>
<path d="M16.6382 57.4726V57.0198C16.6517 57.0198 18.046 57.0198 18.8151 56.4311C19.4155 55.9784 19.2446 55.3309 18.4935 52.931L18.2102 52.0254C17.4343 49.5011 15.2867 47.7012 11.846 46.6734C10.87 46.3813 9.90078 47.0424 8.96077 48.6362L8.57397 48.4098C9.63317 46.6168 10.7756 45.8878 11.9719 46.2432C15.5701 47.3163 17.8189 49.2181 18.6397 51.9032C18.7409 52.2292 18.8353 52.5303 18.923 52.8088C19.6809 55.2335 19.9643 56.1414 19.085 56.807C18.2057 57.4726 16.7012 57.4726 16.6382 57.4726Z" fill="url(#paint7_linear_1033_4433)"/>
<path d="M8.45459 45.1044L8.00483 45.0546C8.09703 44.2169 7.33018 41.7356 5.02514 39.5305C4.15484 38.6951 2.81904 38.4551 1.05821 38.8241L0.968262 38.3713C2.88201 37.9729 4.35274 38.2491 5.33548 39.1954C7.66526 41.4367 8.57378 44.0449 8.45459 45.1044Z" fill="url(#paint8_linear_1033_4433)"/>
<path d="M112.485 52.0865C111.662 48.7675 112.348 46.5511 113.342 45.1203" stroke="url(#paint9_linear_1033_4433)" stroke-width="0.25" stroke-miterlimit="10"/>
<path d="M111.428 53.2163C110.22 48.7789 111.385 45.8447 112.73 44.0743" stroke="url(#paint10_linear_1033_4433)" stroke-width="0.25" stroke-miterlimit="10"/>
<path d="M110.284 53.9883C108.874 48.7811 110.436 45.2108 111.986 43.1438" stroke="url(#paint11_linear_1033_4433)" stroke-width="0.25" stroke-miterlimit="10"/>
<path d="M109.065 54.5226C107.605 48.8038 109.429 44.6901 111.089 42.3378" stroke="url(#paint12_linear_1033_4433)" stroke-width="0.25" stroke-miterlimit="10"/>
<path d="M107.81 54.8871C106.413 48.8694 108.359 44.3052 110.083 41.6677" stroke="url(#paint13_linear_1033_4433)" stroke-width="0.25" stroke-miterlimit="10"/>
<path d="M106.548 55.1316C105.277 48.9713 107.234 44.063 108.981 41.1402" stroke="url(#paint14_linear_1033_4433)" stroke-width="0.25" stroke-miterlimit="10"/>
<path d="M105.273 55.2901C104.171 49.0936 106.06 43.943 107.803 40.7485" stroke="url(#paint15_linear_1033_4433)" stroke-width="0.25" stroke-miterlimit="10"/>
<path d="M104.005 55.367C103.078 49.2158 104.859 43.9181 106.575 40.4813" stroke="url(#paint16_linear_1033_4433)" stroke-width="0.25" stroke-miterlimit="10"/>
<path d="M102.736 55.3603C101.996 49.3154 103.636 43.9633 105.315 40.3251" stroke="url(#paint17_linear_1033_4433)" stroke-width="0.25" stroke-miterlimit="10"/>
<path d="M101.479 55.2742C100.919 49.3879 102.43 44.0517 104.036 40.2595" stroke="url(#paint18_linear_1033_4433)" stroke-width="0.25" stroke-miterlimit="10"/>
<path d="M44.2217 45.9964C49.2815 44.5747 57.9103 42.3537 61.2745 42.7046C66.1657 43.214 65.3224 43.0442 71.7315 41.8556C78.1407 40.667 80.331 39.1388 85.0535 40.4972C88.6516 41.5319 93.1335 40.7915 95.2092 39.7795" stroke="url(#paint19_linear_1033_4433)" stroke-width="0.25" stroke-miterlimit="10"/>
<path d="M45.9988 44.9776C51.0181 43.6011 58.4617 41.7696 61.5156 42.0865C66.3011 42.5869 65.4758 42.4193 71.7478 41.2579C78.0198 40.0965 80.1629 38.5977 84.791 39.9267C88.1102 40.8821 92.1941 40.2957 94.3552 39.3946" stroke="url(#paint20_linear_1033_4433)" stroke-width="0.25" stroke-miterlimit="10"/>
<path d="M48.0471 43.8977C52.8394 42.6254 59.0394 41.1809 61.729 41.4707C66.4088 41.9575 65.6037 41.7945 71.7362 40.6579C77.8687 39.5214 79.9691 38.0589 84.487 39.3584C87.5207 40.2301 91.2088 39.784 93.4036 39.003" stroke="url(#paint21_linear_1033_4433)" stroke-width="0.25" stroke-miterlimit="10"/>
<path d="M50.7458 42.6706C54.9916 41.6043 59.7164 40.633 61.954 40.8594C66.5303 41.3371 65.741 41.1787 71.7364 40.0648C77.7317 38.9509 79.7849 37.5246 84.2038 38.7947C86.9429 39.5825 90.2307 39.2701 92.4053 38.6181" stroke="url(#paint22_linear_1033_4433)" stroke-width="0.25" stroke-miterlimit="10"/>
<path d="M59.2354 40.3704C60.2061 40.2205 61.1899 40.1758 62.1701 40.2368C66.643 40.7009 65.8716 40.547 71.7298 39.4603C77.588 38.3736 79.6007 36.9699 83.9117 38.2173C86.3449 38.9169 89.2144 38.7313 91.3148 38.2173" stroke="url(#paint23_linear_1033_4433)" stroke-width="0.25" stroke-miterlimit="10"/>
<path d="M62.624 39.6414C66.7551 40.0693 66.1187 39.904 71.7475 38.8603C77.4685 37.8008 79.4272 36.4356 83.6415 37.6491C85.7442 38.2536 88.1841 38.1789 90.1406 37.803" stroke="url(#paint24_linear_1033_4433)" stroke-width="0.25" stroke-miterlimit="10"/>
<path d="M88.7959 37.3752C87.0733 37.6016 85.0988 37.5789 83.3605 37.0786C82.7417 36.8954 82.1092 36.7629 81.4692 36.6824V36.6824" stroke="url(#paint25_linear_1033_4433)" stroke-width="0.25" stroke-miterlimit="10"/>
<path d="M76.5509 37.1782C75.2376 37.4929 73.7264 37.8959 71.7564 38.2604C67.342 39.0777 66.8765 39.3426 64.7671 39.2" stroke="url(#paint26_linear_1033_4433)" stroke-width="0.25" stroke-miterlimit="10"/>
<path d="M83.4368 36.6031C84.671 36.8887 85.9398 36.9924 87.2035 36.911" stroke="url(#paint27_linear_1033_4433)" stroke-width="0.25" stroke-miterlimit="10"/>
<path d="M22.8458 13.9008L28.8172 14.2488L31.3751 18.4266L25.4037 18.0786L22.8458 13.9008Z" fill="url(#paint28_linear_1033_4433)" stroke="#FFBA93" stroke-width="0.5"/>
<path d="M20.329 23.6912L27.4151 24.1045L29.9739 28.2823L22.8869 27.869L20.329 23.6912Z" fill="url(#paint29_linear_1033_4433)" stroke="#FFBA93" stroke-width="0.5"/>
<path d="M61.1592 9.12188L61.1593 9.12202L62.2481 10.9006C60.0709 8.9418 57.113 7.69486 53.6341 7.49458L53.6335 7.49454C51.9852 7.40368 50.3328 7.53942 48.721 7.89781L46.1216 3.6522C47.6353 3.33109 49.1844 3.21141 50.7296 3.29656C55.4455 3.572 59.1397 5.81782 61.1592 9.12188Z" fill="url(#paint30_linear_1033_4433)" stroke="#FFBA93" stroke-width="0.5"/>
<mask id="path-33-inside-1_1033_4433" fill="white">
<path d="M45.726 3.48422L48.6019 8.18143C47.8819 8.34734 47.1718 8.55428 46.4748 8.80125L43.5989 4.10405C44.2958 3.85695 45.006 3.65001 45.726 3.48422Z"/>
</mask>
<path d="M45.726 3.48422L48.6019 8.18143C47.8819 8.34734 47.1718 8.55428 46.4748 8.80125L43.5989 4.10405C44.2958 3.85695 45.006 3.65001 45.726 3.48422Z" fill="url(#paint31_linear_1033_4433)"/>
<path d="M48.6019 8.18143L48.7142 8.66866L49.391 8.51269L49.0283 7.92035L48.6019 8.18143ZM46.4748 8.80125L46.0484 9.06234L46.2599 9.40786L46.6418 9.27254L46.4748 8.80125ZM43.5989 4.10405L43.4318 3.63279L42.8503 3.83896L43.1725 4.36513L43.5989 4.10405ZM45.2995 3.74531L48.1755 8.44251L49.0283 7.92035L46.1524 3.22314L45.2995 3.74531ZM48.4896 7.6942C47.7511 7.86438 47.0227 8.07665 46.3078 8.32997L46.6418 9.27254C47.3209 9.03191 48.0128 8.8303 48.7142 8.66866L48.4896 7.6942ZM46.9012 8.54017L44.0253 3.84296L43.1725 4.36513L46.0484 9.06234L46.9012 8.54017ZM43.766 4.5753C44.4449 4.33457 45.1368 4.13297 45.8382 3.97147L45.6138 2.99697C44.8752 3.16704 44.1467 3.37932 43.4318 3.63279L43.766 4.5753Z" fill="#FFBA93" mask="url(#path-33-inside-1_1033_4433)"/>
<path d="M42.2532 4.91127C42.661 4.73087 43.0738 4.56343 43.4916 4.40895L46.101 8.67082C45.6836 8.82593 45.2707 8.99466 44.8652 9.17742L42.2532 4.91127Z" fill="url(#paint32_linear_1033_4433)" stroke="#FFBA93" stroke-width="0.5"/>
<path d="M40.7641 5.64333C41.1012 5.45933 41.4438 5.28508 41.7918 5.1206L44.4054 9.38924C44.0588 9.5546 43.7166 9.72948 43.3788 9.91389L40.7641 5.64333Z" fill="url(#paint33_linear_1033_4433)" stroke="#FFBA93" stroke-width="0.5"/>
<mask id="path-37-inside-2_1033_4433" fill="white">
<path d="M40.4148 5.55124L43.2869 10.2484C42.8281 10.5047 42.3798 10.7795 41.9418 11.073L39.0659 6.37575C39.5032 6.08361 39.9516 5.80878 40.411 5.55124"/>
</mask>
<path d="M40.4148 5.55124L43.2869 10.2484C42.8281 10.5047 42.3798 10.7795 41.9418 11.073L39.0659 6.37575C39.5032 6.08361 39.9516 5.80878 40.411 5.55124" fill="url(#paint34_linear_1033_4433)"/>
<path d="M43.2869 10.2484L43.5307 10.685L43.9848 10.4313L43.7135 9.98761L43.2869 10.2484ZM41.9418 11.073L41.5154 11.334L41.7874 11.7783L42.2202 11.4883L41.9418 11.073ZM39.0659 6.37575L38.7882 5.95999L38.3885 6.22695L38.6395 6.63683L39.0659 6.37575ZM39.9882 5.81207L42.8603 10.5093L43.7135 9.98761L40.8414 5.29041L39.9882 5.81207ZM43.0431 9.81192C42.5725 10.0748 42.1126 10.3567 41.6635 10.6576L42.2202 11.4883C42.6469 11.2024 43.0838 10.9346 43.5307 10.685L43.0431 9.81192ZM42.3683 10.8119L39.4923 6.11466L38.6395 6.63683L41.5154 11.334L42.3683 10.8119ZM39.3437 6.79151C39.7701 6.50661 40.2074 6.23857 40.6555 5.98738L40.1665 5.11509C39.6958 5.37898 39.2363 5.66062 38.7882 5.95999L39.3437 6.79151Z" fill="#FFBA93" mask="url(#path-37-inside-2_1033_4433)"/>
<path d="M38.1408 7.3423C38.4191 7.12909 38.7028 6.92437 38.9922 6.72813L41.6073 10.9994C41.3183 11.1965 41.0342 11.4006 40.7549 11.6119L38.1408 7.3423Z" fill="url(#paint35_linear_1033_4433)" stroke="#FFBA93" stroke-width="0.5"/>
<path d="M36.9347 8.33606C37.1986 8.10175 37.4686 7.87398 37.7448 7.65274L40.3575 11.92C40.0811 12.1397 39.8104 12.3664 39.5454 12.6L36.9347 8.33606Z" fill="url(#paint36_linear_1033_4433)" stroke="#FFBA93" stroke-width="0.5"/>
<path d="M35.7644 9.46356C36.0213 9.19505 36.2858 8.93354 36.558 8.67902L39.1677 12.9414C38.8949 13.1946 38.6292 13.4546 38.3707 13.7212L35.7644 9.46356Z" fill="url(#paint37_linear_1033_4433)" stroke="#FFBA93" stroke-width="0.5"/>
<mask id="path-42-inside-3_1033_4433" fill="white">
<path d="M35.4514 9.43063L38.3274 14.1288C37.9172 14.5651 37.5283 15.0187 37.1605 15.4895L34.2817 10.7923C34.6495 10.3221 35.0388 9.86819 35.4496 9.43063"/>
</mask>
<path d="M35.4514 9.43063L38.3274 14.1288C37.9172 14.5651 37.5283 15.0187 37.1605 15.4895L34.2817 10.7923C34.6495 10.3221 35.0388 9.86819 35.4496 9.43063" fill="url(#paint38_linear_1033_4433)"/>
<path d="M38.3274 14.1288L38.6917 14.4713L38.953 14.1932L38.7538 13.8678L38.3274 14.1288ZM37.1605 15.4895L36.7342 15.7508L37.1109 16.3654L37.5546 15.7973L37.1605 15.4895ZM34.2817 10.7923L33.8879 10.4843L33.6741 10.7577L33.8554 11.0536L34.2817 10.7923ZM35.025 9.69168L37.9009 14.3898L38.7538 13.8678L35.8779 9.16959L35.025 9.69168ZM37.9631 13.7863C37.5425 14.2337 37.1436 14.6988 36.7665 15.1817L37.5546 15.7973C37.9129 15.3385 38.292 14.8965 38.6917 14.4713L37.9631 13.7863ZM37.5868 15.2283L34.708 10.5311L33.8554 11.0536L36.7342 15.7508L37.5868 15.2283ZM34.6756 11.1004C35.0341 10.642 35.4136 10.1995 35.8141 9.77285L35.085 9.08842C34.664 9.53687 34.265 10.0022 33.8879 10.4843L34.6756 11.1004Z" fill="#FFBA93" mask="url(#path-42-inside-3_1033_4433)"/>
<path d="M33.383 12.5115C33.6574 12.0734 33.9497 11.6471 34.2591 11.2339L36.8553 15.4729C36.5422 15.8808 36.2457 16.3015 35.9666 16.734L33.383 12.5115Z" fill="url(#paint39_linear_1033_4433)" stroke="#FFBA93" stroke-width="0.5"/>
<mask id="path-45-inside-4_1033_4433" fill="white">
<path d="M33.0894 12.5106L35.9654 17.2078C35.3553 18.1953 34.845 19.2426 34.4421 20.3338L31.5662 15.6366C31.9685 14.5451 32.4788 13.4977 33.0894 12.5106Z"/>
</mask>
<path d="M33.0894 12.5106L35.9654 17.2078C35.3553 18.1953 34.845 19.2426 34.4421 20.3338L31.5662 15.6366C31.9685 14.5451 32.4788 13.4977 33.0894 12.5106Z" fill="url(#paint40_linear_1033_4433)"/>
<path d="M35.9654 17.2078L36.3907 17.4706L36.5524 17.209L36.3918 16.9467L35.9654 17.2078ZM34.4421 20.3338L34.0157 20.5949L34.554 21.4742L34.9111 20.507L34.4421 20.3338ZM31.5662 15.6366L31.097 15.4637L31.0132 15.691L31.1397 15.8977L31.5662 15.6366ZM32.663 12.7717L35.5389 17.4689L36.3918 16.9467L33.5159 12.2495L32.663 12.7717ZM35.54 16.945C34.9124 17.9609 34.3874 19.0382 33.973 20.1606L34.9111 20.507C35.3025 19.4469 35.7982 18.4296 36.3907 17.4706L35.54 16.945ZM34.8685 20.0727L31.9926 15.3755L31.1397 15.8977L34.0157 20.5949L34.8685 20.0727ZM32.0353 15.8095C32.426 14.7494 32.9217 13.7322 33.5147 12.7736L32.6642 12.2476C32.0359 13.2633 31.5109 14.3408 31.097 15.4637L32.0353 15.8095Z" fill="#FFBA93" mask="url(#path-45-inside-4_1033_4433)"/>
<mask id="path-47-inside-5_1033_4433" fill="white">
<path d="M31.566 15.6366L34.4419 20.3338C34.2551 20.8426 34.0938 21.3606 33.9585 21.8858C33.8081 22.4676 33.6926 23.058 33.6125 23.654L30.7366 18.9568C30.8166 18.3608 30.9321 17.7704 31.0826 17.1886C31.2174 16.6632 31.3788 16.1452 31.566 15.6366Z"/>
</mask>
<path d="M31.566 15.6366L34.4419 20.3338C34.2551 20.8426 34.0938 21.3606 33.9585 21.8858C33.8081 22.4676 33.6926 23.058 33.6125 23.654L30.7366 18.9568C30.8166 18.3608 30.9321 17.7704 31.0826 17.1886C31.2174 16.6632 31.3788 16.1452 31.566 15.6366Z" fill="url(#paint41_linear_1033_4433)"/>
<path d="M34.4419 20.3338L34.9113 20.5061L34.9946 20.279L34.8683 20.0727L34.4419 20.3338ZM33.9585 21.8858L34.4426 22.0109L34.4427 22.0105L33.9585 21.8858ZM33.6125 23.654L33.1861 23.915L33.9206 25.1148L34.108 23.7206L33.6125 23.654ZM30.7366 18.9568L30.241 18.8902L30.2174 19.0663L30.3102 19.2178L30.7366 18.9568ZM31.0826 17.1886L31.5666 17.3138L31.5668 17.3129L31.0826 17.1886ZM31.1396 15.8977L34.0155 20.5949L34.8683 20.0727L31.9924 15.3755L31.1396 15.8977ZM33.9725 20.1615C33.78 20.6859 33.6138 21.2197 33.4743 21.761L34.4427 22.0105C34.5738 21.5014 34.7303 20.9993 34.9113 20.5061L33.9725 20.1615ZM33.4744 21.7607C33.3191 22.3617 33.1997 22.9717 33.117 23.5874L34.108 23.7206C34.1855 23.1443 34.2972 22.5734 34.4426 22.0109L33.4744 21.7607ZM34.0389 23.3929L31.163 18.6957L30.3102 19.2178L33.1861 23.915L34.0389 23.3929ZM31.2321 19.0233C31.3095 18.4471 31.4212 17.8762 31.5666 17.3138L30.5985 17.0634C30.443 17.6645 30.3237 18.2745 30.241 18.8902L31.2321 19.0233ZM31.5668 17.3129C31.6975 16.8039 31.8539 16.3021 32.0352 15.8093L31.0968 15.4639C30.9037 15.9884 30.7373 16.5225 30.5983 17.0642L31.5668 17.3129Z" fill="#FFBA93" mask="url(#path-47-inside-5_1033_4433)"/>
<mask id="path-49-inside-6_1033_4433" fill="white">
<path d="M30.7367 18.9568L33.6126 23.654C33.4672 24.7187 33.4484 25.7972 33.5567 26.8665L30.6798 22.1683C30.5716 21.0994 30.5903 20.0212 30.7358 18.9568"/>
</mask>
<path d="M30.7367 18.9568L33.6126 23.654C33.4672 24.7187 33.4484 25.7972 33.5567 26.8665L30.6798 22.1683C30.5716 21.0994 30.5903 20.0212 30.7358 18.9568" fill="url(#paint42_linear_1033_4433)"/>
<path d="M33.6126 23.654L34.108 23.7217L34.1322 23.545L34.0391 23.3929L33.6126 23.654ZM33.5567 26.8665L33.1303 27.1276L34.0542 26.8161L33.5567 26.8665ZM30.6798 22.1683L30.1824 22.2187L30.1939 22.3322L30.2534 22.4294L30.6798 22.1683ZM30.3103 19.2179L33.1862 23.9151L34.0391 23.3929L31.1631 18.6957L30.3103 19.2179ZM33.1172 23.5863C32.9664 24.6901 32.947 25.8083 33.0593 26.9169L34.0542 26.8161C33.9499 25.7861 33.9679 24.7472 34.108 23.7217L33.1172 23.5863ZM33.9831 26.6054L31.1063 21.9072L30.2534 22.4294L33.1303 27.1276L33.9831 26.6054ZM31.1773 22.1179C31.073 21.0883 31.0911 20.0497 31.2312 19.0245L30.2404 18.8891C30.0896 19.9926 30.0701 21.1105 30.1824 22.2187L31.1773 22.1179Z" fill="#FFBA93" mask="url(#path-49-inside-6_1033_4433)"/>
<mask id="path-51-inside-7_1033_4433" fill="white">
<path d="M30.6799 22.1683L33.5559 26.8664C33.6189 27.4769 33.7267 28.0817 33.8781 28.6759L31.0022 23.9787C30.8507 23.3842 30.743 22.779 30.6799 22.1683Z"/>
</mask>
<path d="M30.6799 22.1683L33.5559 26.8664C33.6189 27.4769 33.7267 28.0817 33.8781 28.6759L31.0022 23.9787C30.8507 23.3842 30.743 22.779 30.6799 22.1683Z" fill="url(#paint43_linear_1033_4433)"/>
<path d="M33.5559 26.8664L34.0532 26.815L34.0415 26.7022L33.9823 26.6054L33.5559 26.8664ZM33.8781 28.6759L33.4517 28.937L34.3626 28.5524L33.8781 28.6759ZM31.0022 23.9787L30.5177 24.1022L30.5363 24.1754L30.5758 24.2398L31.0022 23.9787ZM30.2535 22.4293L33.1294 27.1275L33.9823 26.6054L31.1064 21.9072L30.2535 22.4293ZM33.0585 26.9178C33.1241 27.5526 33.2361 28.1815 33.3936 28.7994L34.3626 28.5524C34.2172 27.9819 34.1138 27.4012 34.0532 26.815L33.0585 26.9178ZM34.3046 28.4149L31.4286 23.7176L30.5758 24.2398L33.4517 28.937L34.3046 28.4149ZM31.4867 23.8553C31.3413 23.2844 31.2378 22.7034 31.1773 22.1169L30.1826 22.2196C30.2482 22.8547 30.3602 23.4839 30.5177 24.1022L31.4867 23.8553Z" fill="#FFBA93" mask="url(#path-51-inside-7_1033_4433)"/>
<mask id="path-53-inside-8_1033_4433" fill="white">
<path d="M31.0032 23.9787L33.8791 28.6759C34.0045 29.166 34.1606 29.6475 34.3464 30.1174L31.4705 25.4202C31.2848 24.9502 31.1287 24.4687 31.0032 23.9787Z"/>
</mask>
<path d="M31.0032 23.9787L33.8791 28.6759C34.0045 29.166 34.1606 29.6475 34.3464 30.1174L31.4705 25.4202C31.2848 24.9502 31.1287 24.4687 31.0032 23.9787Z" fill="url(#paint44_linear_1033_4433)"/>
<path d="M31.0032 23.9787L31.4296 23.7176L30.5188 24.1028L31.0032 23.9787ZM33.8791 28.6759L34.3635 28.552L34.3448 28.4791L34.3055 28.4148L33.8791 28.6759ZM34.3464 30.1174L33.92 30.3785L34.8114 29.9335L34.3464 30.1174ZM31.4705 25.4202L31.0055 25.6039L31.0214 25.6443L31.0441 25.6812L31.4705 25.4202ZM30.5768 24.2398L33.4527 28.937L34.3055 28.4148L31.4296 23.7176L30.5768 24.2398ZM33.3947 28.7998C33.5253 29.3103 33.6879 29.8118 33.8815 30.3013L34.8114 29.9335C34.6333 29.4831 34.4837 29.0217 34.3635 28.552L33.3947 28.7998ZM34.7728 29.8563L31.8969 25.1591L31.0441 25.6812L33.92 30.3785L34.7728 29.8563ZM31.9355 25.2364C31.7575 24.7859 31.6079 24.3244 31.4875 23.8547L30.5188 24.1028C30.6495 24.6131 30.8121 25.1145 31.0055 25.6039L31.9355 25.2364Z" fill="#FFBA93" mask="url(#path-53-inside-8_1033_4433)"/>
<mask id="path-55-inside-9_1033_4433" fill="white">
<path d="M31.4702 25.4183L34.3461 30.1155C34.5118 30.5371 34.7017 30.9484 34.9149 31.3475L32.039 26.6502C31.8258 26.2512 31.6359 25.8399 31.4702 25.4183Z"/>
</mask>
<path d="M31.4702 25.4183L34.3461 30.1155C34.5118 30.5371 34.7017 30.9484 34.9149 31.3475L32.039 26.6502C31.8258 26.2512 31.6359 25.8399 31.4702 25.4183Z" fill="url(#paint45_linear_1033_4433)"/>
<path d="M34.3461 30.1155L34.8115 29.9326L34.7955 29.8918L34.7726 29.8544L34.3461 30.1155ZM34.9149 31.3475L34.4885 31.6085L35.3559 31.1119L34.9149 31.3475ZM32.039 26.6502L31.5979 26.8858L31.6049 26.8988L31.6125 26.9113L32.039 26.6502ZM31.0438 25.6794L33.9197 30.3766L34.7726 29.8544L31.8966 25.1572L31.0438 25.6794ZM33.8808 30.2984C34.0535 30.7379 34.2516 31.1669 34.4739 31.583L35.3559 31.1119C35.1519 30.7299 34.9701 30.3362 34.8115 29.9326L33.8808 30.2984ZM35.3413 31.0864L32.4654 26.3892L31.6125 26.9113L34.4885 31.6085L35.3413 31.0864ZM32.48 26.4147C32.276 26.0327 32.0942 25.639 31.9356 25.2354L31.0049 25.6012C31.1776 26.0407 31.3756 26.4697 31.5979 26.8858L32.48 26.4147Z" fill="#FFBA93" mask="url(#path-55-inside-9_1033_4433)"/>
<mask id="path-57-inside-10_1033_4433" fill="white">
<path d="M32.042 26.6503L34.9179 31.3475C35.0235 31.5397 35.1337 31.7319 35.2487 31.9241L32.3728 27.2259C32.2572 27.0337 32.1463 26.8415 32.042 26.6494"/>
</mask>
<path d="M32.042 26.6503L34.9179 31.3475C35.0235 31.5397 35.1337 31.7319 35.2487 31.9241L32.3728 27.2259C32.2572 27.0337 32.1463 26.8415 32.042 26.6494" fill="url(#paint46_linear_1033_4433)"/>
<path d="M34.9179 31.3475L35.3562 31.1069L35.3505 31.0965L35.3443 31.0864L34.9179 31.3475ZM35.2487 31.9241L34.8223 32.1851L35.6778 31.6674L35.2487 31.9241ZM32.3728 27.2259L31.9444 27.4837L31.9464 27.487L32.3728 27.2259ZM31.6156 26.9114L34.4915 31.6086L35.3443 31.0864L32.4684 26.3892L31.6156 26.9114ZM34.4796 31.5882C34.5882 31.7859 34.7016 31.9835 34.8197 32.1808L35.6778 31.6674C35.5659 31.4803 35.4587 31.2935 35.3562 31.1069L34.4796 31.5882ZM35.6752 31.6631L32.7993 26.9649L31.9464 27.487L34.8223 32.1851L35.6752 31.6631ZM32.8012 26.9681C32.6886 26.781 32.5816 26.5954 32.4815 26.4109L31.6025 26.8878C31.711 27.0877 31.8257 27.2864 31.9444 27.4837L32.8012 26.9681Z" fill="#FFBA93" mask="url(#path-57-inside-10_1033_4433)"/>
<mask id="path-59-inside-11_1033_4433" fill="white">
<path d="M51.2224 15.3743L54.0983 20.0734C54.1337 20.1298 54.1669 20.1874 54.1979 20.2464L51.3219 15.5472C51.291 15.4877 51.2594 15.43 51.2272 15.3743"/>
</mask>
<path d="M51.2224 15.3743L54.0983 20.0734C54.1337 20.1298 54.1669 20.1874 54.1979 20.2464L51.3219 15.5472C51.291 15.4877 51.2594 15.43 51.2272 15.3743" fill="url(#paint47_linear_1033_4433)"/>
<path d="M54.0983 20.0734L53.6718 20.3344L53.6749 20.3392L54.0983 20.0734ZM54.1979 20.2464L53.7714 20.5074L54.6405 20.0138L54.1979 20.2464ZM51.3219 15.5472L50.8783 15.7778L50.8863 15.7933L50.8955 15.8083L51.3219 15.5472ZM50.7959 15.6353L53.6719 20.3344L54.5248 19.8124L51.6489 15.1133L50.7959 15.6353ZM53.6749 20.3392C53.7034 20.3848 53.7302 20.4313 53.7552 20.4789L54.6405 20.0138C54.6036 19.9436 54.564 19.8748 54.5218 19.8076L53.6749 20.3392ZM54.6243 19.9854L51.7484 15.2862L50.8955 15.8083L53.7714 20.5074L54.6243 19.9854ZM51.7656 15.3167C51.7313 15.2507 51.6961 15.1865 51.66 15.124L50.7943 15.6246C50.8226 15.6735 50.8506 15.7246 50.8783 15.7778L51.7656 15.3167Z" fill="#FFBA93" mask="url(#path-59-inside-11_1033_4433)"/>
<mask id="path-61-inside-12_1033_4433" fill="white">
<path d="M51.322 15.5472L54.1979 20.2444C54.2624 20.3639 54.3197 20.4871 54.3695 20.6135L51.4936 15.9163C51.4433 15.7901 51.3861 15.6669 51.322 15.5472Z"/>
</mask>
<path d="M51.322 15.5472L54.1979 20.2444C54.2624 20.3639 54.3197 20.4871 54.3695 20.6135L51.4936 15.9163C51.4433 15.7901 51.3861 15.6669 51.322 15.5472Z" fill="url(#paint48_linear_1033_4433)"/>
<path d="M54.1979 20.2444L54.638 20.0071L54.6315 19.995L54.6244 19.9834L54.1979 20.2444ZM54.3695 20.6135L53.9431 20.8745L54.8346 20.43L54.3695 20.6135ZM51.4936 15.9163L51.0291 16.1012L51.0449 16.1409L51.0672 16.1773L51.4936 15.9163ZM50.8956 15.8083L53.7715 20.5055L54.6244 19.9834L51.7484 15.2862L50.8956 15.8083ZM53.7579 20.4818C53.8129 20.5838 53.8618 20.689 53.9044 20.797L54.8346 20.43C54.7775 20.2852 54.7118 20.1439 54.638 20.0071L53.7579 20.4818ZM54.7959 20.3524L51.92 15.6552L51.0672 16.1773L53.9431 20.8745L54.7959 20.3524ZM51.9581 15.7313C51.9009 15.5877 51.8357 15.4474 51.7628 15.3113L50.8812 15.7832C50.9364 15.8863 50.9857 15.9924 51.0291 16.1012L51.9581 15.7313Z" fill="#FFBA93" mask="url(#path-61-inside-12_1033_4433)"/>
<mask id="path-63-inside-13_1033_4433" fill="white">
<path d="M51.4934 15.9163L54.3693 20.6135C54.4247 20.7543 54.4716 20.8984 54.5096 21.045L51.6327 16.3478C51.5953 16.2011 51.5488 16.057 51.4934 15.9163Z"/>
</mask>
<path d="M51.4934 15.9163L54.3693 20.6135C54.4247 20.7543 54.4716 20.8984 54.5096 21.045L51.6327 16.3478C51.5953 16.2011 51.5488 16.057 51.4934 15.9163Z" fill="url(#paint49_linear_1033_4433)"/>
<path d="M54.3693 20.6135L54.8346 20.4304L54.8186 20.3897L54.7958 20.3524L54.3693 20.6135ZM54.5096 21.045L54.0832 21.3061L54.9936 20.9194L54.5096 21.045ZM51.6327 16.3478L51.1483 16.4714L51.1669 16.5446L51.2064 16.6089L51.6327 16.3478ZM51.067 16.1774L53.9429 20.8746L54.7958 20.3524L51.9198 15.6552L51.067 16.1774ZM53.9041 20.7966C53.9521 20.9186 53.9927 21.0435 54.0257 21.1706L54.9936 20.9194C54.9505 20.7533 54.8974 20.59 54.8346 20.4304L53.9041 20.7966ZM54.936 20.7838L52.0591 16.0866L51.2064 16.6089L54.0832 21.3061L54.936 20.7838ZM52.1172 16.2241C52.0746 16.0573 52.0217 15.8933 51.9587 15.7332L51.0281 16.0994C51.0759 16.2207 51.116 16.3449 51.1483 16.4714L52.1172 16.2241Z" fill="#FFBA93" mask="url(#path-63-inside-13_1033_4433)"/>
<mask id="path-65-inside-14_1033_4433" fill="white">
<path d="M51.6326 16.3478L54.5094 21.045C54.5538 21.2237 54.5855 21.4055 54.6042 21.5889L51.7283 16.8907C51.71 16.7076 51.6783 16.5261 51.6335 16.3478"/>
</mask>
<path d="M51.6326 16.3478L54.5094 21.045C54.5538 21.2237 54.5855 21.4055 54.6042 21.5889L51.7283 16.8907C51.71 16.7076 51.6783 16.5261 51.6335 16.3478" fill="url(#paint50_linear_1033_4433)"/>
<path d="M54.5094 21.045L54.9947 20.9245L54.9761 20.8496L54.9358 20.7838L54.5094 21.045ZM54.6042 21.5889L54.1778 21.8499L55.1017 21.5381L54.6042 21.5889ZM51.7283 16.8907L51.2308 16.9406L51.2422 17.0543L51.3019 17.1518L51.7283 16.8907ZM51.2062 16.6089L54.0831 21.3061L54.9358 20.7838L52.059 16.0866L51.2062 16.6089ZM54.0242 21.1655C54.0629 21.3213 54.0905 21.4798 54.1068 21.6397L55.1017 21.5381C55.0805 21.3313 55.0448 21.1262 54.9947 20.9245L54.0242 21.1655ZM55.0307 21.3278L52.1548 16.6297L51.3019 17.1518L54.1778 21.8499L55.0307 21.3278ZM52.2258 16.8409C52.205 16.6336 52.1692 16.4281 52.1185 16.2261L51.1486 16.4695C51.1874 16.6242 51.2149 16.7817 51.2308 16.9406L52.2258 16.8409Z" fill="#FFBA93" mask="url(#path-65-inside-14_1033_4433)"/>
<mask id="path-67-inside-15_1033_4433" fill="white">
<path d="M51.7307 16.8908L54.6066 21.5889C54.639 21.9088 54.6333 22.2314 54.5895 22.5499L51.7136 17.8546C51.7568 17.5361 51.7625 17.2135 51.7307 16.8936"/>
</mask>
<path d="M51.7307 16.8908L54.6066 21.5889C54.639 21.9088 54.6333 22.2314 54.5895 22.5499L51.7136 17.8546C51.7568 17.5361 51.7625 17.2135 51.7307 16.8936" fill="url(#paint51_linear_1033_4433)"/>
<path d="M54.6066 21.5889L55.1041 21.5386L55.0926 21.4251L55.0331 21.3279L54.6066 21.5889ZM54.5895 22.5499L54.1632 22.811L54.8945 24.005L55.0849 22.6179L54.5895 22.5499ZM51.7136 17.8546L51.2182 17.7874L51.1942 17.9639L51.2872 18.1158L51.7136 17.8546ZM51.3042 17.1518L54.1802 21.85L55.0331 21.3279L52.1571 16.6297L51.3042 17.1518ZM54.1092 21.6393C54.1375 21.9197 54.1325 22.2027 54.0942 22.4819L55.0849 22.6179C55.134 22.2602 55.1404 21.8978 55.1041 21.5386L54.1092 21.6393ZM55.0159 22.2887L52.14 17.5934L51.2872 18.1158L54.1632 22.811L55.0159 22.2887ZM52.2091 17.9218C52.2575 17.5646 52.2639 17.2028 52.2282 16.8441L51.2331 16.9432C51.2611 17.2242 51.2561 17.5076 51.2182 17.7874L52.2091 17.9218Z" fill="#FFBA93" mask="url(#path-67-inside-15_1033_4433)"/>
<mask id="path-69-inside-16_1033_4433" fill="white">
<path d="M51.7134 17.8546L54.5893 22.5518C54.5651 22.7309 54.5303 22.9083 54.4851 23.0832C54.4451 23.2407 54.397 23.3959 54.341 23.5483L51.4641 18.8511C51.5204 18.6984 51.5688 18.5428 51.6091 18.385C51.6544 18.2105 51.6893 18.0334 51.7134 17.8546Z"/>
</mask>
<path d="M51.7134 17.8546L54.5893 22.5518C54.5651 22.7309 54.5303 22.9083 54.4851 23.0832C54.4451 23.2407 54.397 23.3959 54.341 23.5483L51.4641 18.8511C51.5204 18.6984 51.5688 18.5428 51.6091 18.385C51.6544 18.2105 51.6893 18.0334 51.7134 17.8546Z" fill="url(#paint52_linear_1033_4433)"/>
<path d="M54.5893 22.5518L55.0848 22.6188L55.1087 22.4425L55.0158 22.2907L54.5893 22.5518ZM54.4851 23.0832L54.001 22.958L54.0004 22.9601L54.4851 23.0832ZM54.341 23.5483L53.9146 23.8094L54.454 24.6901L54.8103 23.7208L54.341 23.5483ZM51.4641 18.8511L50.995 18.6781L50.9111 18.9055L51.0377 19.1122L51.4641 18.8511ZM51.6091 18.385L51.1252 18.2594L51.1247 18.2613L51.6091 18.385ZM51.287 18.1156L54.1629 22.8128L55.0158 22.2907L52.1398 17.5935L51.287 18.1156ZM54.0938 22.4847C54.0723 22.6442 54.0413 22.8023 54.001 22.958L54.9691 23.2084C55.0193 23.0143 55.0579 22.8175 55.0848 22.6188L54.0938 22.4847ZM54.0004 22.9601C53.9647 23.1009 53.9217 23.2396 53.8717 23.3758L54.8103 23.7208C54.8723 23.5522 54.9255 23.3804 54.9697 23.2062L54.0004 22.9601ZM54.7674 23.2871L51.8905 18.5899L51.0377 19.1122L53.9146 23.8094L54.7674 23.2871ZM51.9332 19.0241C51.9955 18.8552 52.049 18.6832 52.0936 18.5087L51.1247 18.2613C51.0886 18.4024 51.0454 18.5416 50.995 18.6781L51.9332 19.0241ZM52.0931 18.5106C52.1434 18.3168 52.1821 18.12 52.2089 17.9215L51.2179 17.7876C51.1964 17.9467 51.1655 18.1042 51.1252 18.2594L52.0931 18.5106Z" fill="#FFBA93" mask="url(#path-69-inside-16_1033_4433)"/>
<mask id="path-71-inside-17_1033_4433" fill="white">
<path d="M51.4642 18.851L54.3411 23.5482C54.22 23.8757 54.0666 24.1899 53.8832 24.4861L51.0073 19.7851C51.1902 19.4887 51.3433 19.1745 51.4642 18.8472"/>
</mask>
<path d="M51.4642 18.851L54.3411 23.5482C54.22 23.8757 54.0666 24.1899 53.8832 24.4861L51.0073 19.7851C51.1902 19.4887 51.3433 19.1745 51.4642 18.8472" fill="url(#paint53_linear_1033_4433)"/>
<path d="M54.3411 23.5482L54.8101 23.7216L54.8942 23.494L54.7675 23.2871L54.3411 23.5482ZM53.8832 24.4861L53.4567 24.7471L53.8807 25.4401L54.3084 24.7493L53.8832 24.4861ZM51.0073 19.7851L50.5818 19.5225L50.4205 19.7839L50.5808 20.046L51.0073 19.7851ZM51.0378 19.1122L53.9147 23.8094L54.7675 23.2871L51.8906 18.5899L51.0378 19.1122ZM53.8721 23.3749C53.7626 23.6711 53.6239 23.9552 53.4581 24.2229L54.3084 24.7493C54.5094 24.4247 54.6775 24.0803 54.8101 23.7216L53.8721 23.3749ZM54.3098 24.2252L51.4338 19.5242L50.5808 20.046L53.4567 24.7471L54.3098 24.2252ZM51.4328 20.0477C51.6332 19.723 51.8008 19.3789 51.9332 19.0204L50.9952 18.6739C50.8858 18.9702 50.7473 19.2545 50.5818 19.5225L51.4328 20.0477Z" fill="#FFBA93" mask="url(#path-71-inside-17_1033_4433)"/>
<mask id="path-73-inside-18_1033_4433" fill="white">
<path d="M49.9506 21.0556L52.8265 25.7528C52.7108 25.8578 52.5911 25.9584 52.4672 26.0545L49.5913 21.3573C49.7145 21.2612 49.8349 21.1603 49.9506 21.0556Z"/>
</mask>
<path d="M49.9506 21.0556L52.8265 25.7528C52.7108 25.8578 52.5911 25.9584 52.4672 26.0545L49.5913 21.3573C49.7145 21.2612 49.8349 21.1603 49.9506 21.0556Z" fill="url(#paint54_linear_1033_4433)"/>
<path d="M49.9506 21.0556L50.377 20.7945L50.062 20.28L49.6149 20.685L49.9506 21.0556ZM52.8265 25.7528L53.1627 26.1229L53.469 25.8446L53.2529 25.4917L52.8265 25.7528ZM52.4672 26.0545L52.0408 26.3156L52.3324 26.7919L52.7737 26.4496L52.4672 26.0545ZM49.5913 21.3573L49.2838 20.963L48.9317 21.2376L49.1649 21.6184L49.5913 21.3573ZM49.5241 21.3167L52.4001 26.0139L53.2529 25.4917L50.377 20.7945L49.5241 21.3167ZM52.4903 25.3827C52.3842 25.479 52.2744 25.5713 52.1607 25.6595L52.7737 26.4496C52.9078 26.3456 53.0375 26.2367 53.1627 26.1229L52.4903 25.3827ZM52.8937 25.7934L50.0177 21.0962L49.1649 21.6184L52.0408 26.3156L52.8937 25.7934ZM49.8988 21.7516C50.0313 21.6483 50.1611 21.5395 50.2862 21.4262L49.6149 20.685C49.5087 20.7811 49.3978 20.8742 49.2838 20.963L49.8988 21.7516Z" fill="#FFBA93" mask="url(#path-73-inside-18_1033_4433)"/>
<mask id="path-75-inside-19_1033_4433" fill="white">
<path d="M49.2141 21.6293L52.09 26.3265C51.9586 26.4136 51.824 26.4959 51.6862 26.5734L48.8103 21.8762C48.9481 21.7994 49.0827 21.717 49.2141 21.6293Z"/>
</mask>
<path d="M49.2141 21.6293L52.09 26.3265C51.9586 26.4136 51.824 26.4959 51.6862 26.5734L48.8103 21.8762C48.9481 21.7994 49.0827 21.717 49.2141 21.6293Z" fill="url(#paint55_linear_1033_4433)"/>
<path d="M52.09 26.3265L52.3663 26.7432L52.7683 26.4767L52.5165 26.0654L52.09 26.3265ZM51.6862 26.5734L51.2598 26.8345L51.5114 27.2455L51.9314 27.0092L51.6862 26.5734ZM48.8103 21.8762L48.5667 21.4396L48.112 21.6933L48.3839 22.1373L48.8103 21.8762ZM48.7877 21.8904L51.6636 26.5876L52.5165 26.0654L49.6405 21.3682L48.7877 21.8904ZM51.8138 25.9097C51.6925 25.9901 51.5682 26.0661 51.441 26.1377L51.9314 27.0092C52.0797 26.9257 52.2247 26.8371 52.3663 26.7432L51.8138 25.9097ZM52.1127 26.3124L49.2367 21.6152L48.3839 22.1373L51.2598 26.8345L52.1127 26.3124ZM49.054 22.3129C49.2033 22.2295 49.3493 22.1402 49.4918 22.0451L48.9365 21.2135C48.816 21.2939 48.6928 21.3692 48.5667 21.4396L49.054 22.3129Z" fill="#FFBA93" mask="url(#path-75-inside-19_1033_4433)"/>
<mask id="path-77-inside-20_1033_4433" fill="white">
<path d="M48.3675 22.1021L51.2491 26.8003C51.081 26.8778 50.9097 26.9473 50.7353 27.0088L47.8594 22.3116C48.0338 22.2501 48.2044 22.1799 48.3722 22.1031"/>
</mask>
<path d="M48.3675 22.1021L51.2491 26.8003C51.081 26.8778 50.9097 26.9473 50.7353 27.0088L47.8594 22.3116C48.0338 22.2501 48.2044 22.1799 48.3722 22.1031" fill="url(#paint56_linear_1033_4433)"/>
<path d="M51.2491 26.8003L51.4585 27.2543L51.9695 27.0186L51.6753 26.5388L51.2491 26.8003ZM50.7353 27.0088L50.3089 27.2699L50.5201 27.6148L50.9016 27.4803L50.7353 27.0088ZM47.8594 22.3116L47.6931 21.84L47.1102 22.0456L47.433 22.5727L47.8594 22.3116ZM47.9412 22.3635L50.8228 27.0617L51.6753 26.5388L48.7937 21.8407L47.9412 22.3635ZM51.0397 26.3462C50.8857 26.4172 50.7288 26.4809 50.569 26.5372L50.9016 27.4803C51.0906 27.4137 51.2763 27.3383 51.4585 27.2543L51.0397 26.3462ZM51.1617 26.7477L48.2858 22.0505L47.433 22.5727L50.3089 27.2699L51.1617 26.7477ZM48.0257 22.7831C48.216 22.716 48.4007 22.64 48.5805 22.5576L48.1639 21.6485C48.0081 21.7199 47.8515 21.7842 47.6931 21.84L48.0257 22.7831Z" fill="#FFBA93" mask="url(#path-77-inside-20_1033_4433)"/>
<mask id="path-79-inside-21_1033_4433" fill="white">
<path d="M47.2169 22.497L50.0929 27.1942C49.5997 27.3092 49.0929 27.3532 48.5876 27.3249C47.1506 27.2413 46.0197 26.5562 45.3989 25.5414L42.5229 20.8423C43.1438 21.857 44.2747 22.5422 45.7117 22.6258C46.217 22.6541 46.7237 22.6101 47.2169 22.4951"/>
</mask>
<path d="M47.2169 22.497L50.0929 27.1942C49.5997 27.3092 49.0929 27.3532 48.5876 27.3249C47.1506 27.2413 46.0197 26.5562 45.3989 25.5414L42.5229 20.8423C43.1438 21.857 44.2747 22.5422 45.7117 22.6258C46.217 22.6541 46.7237 22.6101 47.2169 22.4951" fill="url(#paint57_linear_1033_4433)"/>
<path d="M50.0929 27.1942L50.2064 27.6812L50.881 27.5239L50.5193 26.9332L50.0929 27.1942ZM48.5876 27.3249L48.5586 27.8241L48.5597 27.8242L48.5876 27.3249ZM45.3989 25.5414L45.8254 25.2804L45.8253 25.2804L45.3989 25.5414ZM42.5229 20.8423L42.9494 20.5812L42.0964 21.1032L42.5229 20.8423ZM45.7117 22.6258L45.6826 23.125L45.6838 23.125L45.7117 22.6258ZM46.7905 22.7581L49.6664 27.4553L50.5193 26.9332L47.6434 22.236L46.7905 22.7581ZM49.9794 26.7073C49.5324 26.8115 49.0733 26.8513 48.6155 26.8257L48.5597 27.8242C49.1125 27.8551 49.6669 27.8069 50.2064 27.6812L49.9794 26.7073ZM48.6167 26.8258C47.3273 26.7508 46.3528 26.1425 45.8254 25.2804L44.9724 25.8023C45.6867 26.9698 46.9739 27.7319 48.5586 27.8241L48.6167 26.8258ZM45.8253 25.2804L42.9494 20.5812L42.0965 21.1033L44.9724 25.8024L45.8253 25.2804ZM42.0964 21.1032C42.8108 22.2707 44.098 23.0328 45.6826 23.125L45.7407 22.1267C44.4514 22.0516 43.4769 21.4434 42.9495 20.5813L42.0964 21.1032ZM45.6838 23.125C46.2366 23.1559 46.7909 23.1078 47.3304 22.9821L47.1035 22.0082C46.6565 22.1123 46.1974 22.1522 45.7396 22.1266L45.6838 23.125Z" fill="#FFBA93" mask="url(#path-79-inside-21_1033_4433)"/>
<mask id="path-81-inside-22_1033_4433" fill="white">
<path d="M64.2712 7.16871L67.1472 11.8659C67.2856 12.0917 67.4173 12.3224 67.5434 12.5559L64.6665 7.85868C64.5401 7.62421 64.4084 7.39422 64.2712 7.16871Z"/>
</mask>
<path d="M64.2712 7.16871L67.1472 11.8659C67.2856 12.0917 67.4173 12.3224 67.5434 12.5559L64.6665 7.85868C64.5401 7.62421 64.4084 7.39422 64.2712 7.16871Z" fill="url(#paint58_linear_1033_4433)"/>
<path d="M64.2712 7.16871L64.6977 6.90763L63.844 7.42849L64.2712 7.16871ZM67.1472 11.8659L66.7207 12.127L66.7208 12.1272L67.1472 11.8659ZM67.5434 12.5559L67.117 12.817L67.9834 12.3184L67.5434 12.5559ZM64.6665 7.85868L64.2264 8.09592L64.2329 8.10807L64.2401 8.11983L64.6665 7.85868ZM63.8448 7.42979L66.7207 12.127L67.5736 11.6048L64.6977 6.90763L63.8448 7.42979ZM66.7208 12.1272C66.8539 12.3443 66.9811 12.5669 67.1034 12.7934L67.9834 12.3184C67.8535 12.0778 67.7172 11.8392 67.5735 11.6047L66.7208 12.1272ZM67.9698 12.2947L65.0929 7.59754L64.2401 8.11983L67.117 12.817L67.9698 12.2947ZM65.1066 7.62145C64.9762 7.37942 64.8401 7.1419 64.6985 6.90892L63.844 7.42849C63.9766 7.64653 64.1041 7.869 64.2264 8.09592L65.1066 7.62145Z" fill="#FFBA93" mask="url(#path-81-inside-22_1033_4433)"/>
<mask id="path-83-inside-23_1033_4433" fill="white">
<path d="M64.6665 7.85863L67.5434 12.5558C67.8001 13.0346 68.0292 13.5281 68.2297 14.0338L65.3528 9.33659C65.1527 8.83075 64.9236 8.33724 64.6665 7.85863Z"/>
</mask>
<path d="M64.6665 7.85863L67.5434 12.5558C67.8001 13.0346 68.0292 13.5281 68.2297 14.0338L65.3528 9.33659C65.1527 8.83075 64.9236 8.33724 64.6665 7.85863Z" fill="url(#paint59_linear_1033_4433)"/>
<path d="M67.5434 12.5558L67.984 12.3196L67.9773 12.3069L67.9698 12.2947L67.5434 12.5558ZM68.2297 14.0338L67.8033 14.2949L68.6945 13.8496L68.2297 14.0338ZM65.3528 9.33659L64.8878 9.52046L64.9038 9.56077L64.9264 9.59774L65.3528 9.33659ZM64.2401 8.11977L67.117 12.817L67.9698 12.2947L65.0929 7.59748L64.2401 8.11977ZM67.1027 12.7921C67.3504 13.254 67.5715 13.7301 67.7648 14.218L68.6945 13.8496C68.487 13.3261 68.2498 12.8153 67.984 12.3196L67.1027 12.7921ZM68.656 13.7727L65.7792 9.07545L64.9264 9.59774L67.8033 14.2949L68.656 13.7727ZM65.8177 9.15272C65.6106 8.62886 65.3733 8.11775 65.107 7.62202L64.226 8.09523C64.4739 8.55674 64.6949 9.03263 64.8878 9.52046L65.8177 9.15272Z" fill="#FFBA93" mask="url(#path-83-inside-23_1033_4433)"/>
<mask id="path-85-inside-24_1033_4433" fill="white">
<path d="M65.353 9.33653L68.2299 14.0337C68.4527 14.5976 68.6399 15.1754 68.7901 15.7635L65.9132 11.0624C65.7634 10.4742 65.5763 9.89644 65.353 9.33269"/>
</mask>
<path d="M65.353 9.33653L68.2299 14.0337C68.4527 14.5976 68.6399 15.1754 68.7901 15.7635L65.9132 11.0624C65.7634 10.4742 65.5763 9.89644 65.353 9.33269" fill="url(#paint60_linear_1033_4433)"/>
<path d="M68.2299 14.0337L68.6949 13.85L68.679 13.8096L68.6563 13.7726L68.2299 14.0337ZM68.7901 15.7635L68.3636 16.0245L69.2745 15.6397L68.7901 15.7635ZM65.9132 11.0624L65.4287 11.1858L65.4473 11.259L65.4868 11.3234L65.9132 11.0624ZM64.9266 9.59767L67.8035 14.2949L68.6563 13.7726L65.7794 9.07538L64.9266 9.59767ZM67.7649 14.2175C67.98 14.7618 68.1606 15.3195 68.3057 15.8872L69.2745 15.6397C69.1191 15.0313 68.9255 14.4335 68.6949 13.85L67.7649 14.2175ZM69.2166 15.5025L66.3397 10.8014L65.4868 11.3234L68.3636 16.0245L69.2166 15.5025ZM66.3978 10.939C66.2427 10.3302 66.049 9.73215 65.8179 9.14858L64.8882 9.51679C65.1036 10.0607 65.2841 10.6182 65.4287 11.1858L66.3978 10.939Z" fill="#FFBA93" mask="url(#path-85-inside-24_1033_4433)"/>
<mask id="path-87-inside-25_1033_4433" fill="white">
<path d="M65.9128 11.0625L68.7897 15.7597C68.8978 16.1834 68.9888 16.6149 69.0599 17.0531L66.1839 12.3559C66.1132 11.9171 66.0228 11.4859 65.9128 11.0625Z"/>
</mask>
<path d="M65.9128 11.0625L68.7897 15.7597C68.8978 16.1834 68.9888 16.6149 69.0599 17.0531L66.1839 12.3559C66.1132 11.9171 66.0228 11.4859 65.9128 11.0625Z" fill="url(#paint61_linear_1033_4433)"/>
<path d="M65.9128 11.0625L66.3392 10.8013L65.4289 11.1881L65.9128 11.0625ZM68.7897 15.7597L69.2742 15.6361L69.2555 15.5629L69.2161 15.4985L68.7897 15.7597ZM69.0599 17.0531L68.6334 17.3142L69.5534 16.973L69.0599 17.0531ZM66.1839 12.3559L65.6903 12.4355L65.706 12.5329L65.7575 12.617L66.1839 12.3559ZM65.4865 11.3236L68.3633 16.0208L69.2161 15.4985L66.3392 10.8013L65.4865 11.3236ZM68.3052 15.8832C68.4098 16.2934 68.4977 16.7103 68.5663 17.1332L69.5534 16.973C69.4798 16.5195 69.3857 16.0735 69.2742 15.6361L68.3052 15.8832ZM69.4863 16.792L66.6104 12.0948L65.7575 12.617L68.6334 17.3142L69.4863 16.792ZM66.6776 12.2763C66.6043 11.8222 66.5108 11.3757 66.3968 10.9368L65.4289 11.1881C65.5348 11.5962 65.622 12.0119 65.6903 12.4355L66.6776 12.2763Z" fill="#FFBA93" mask="url(#path-87-inside-25_1033_4433)"/>
<mask id="path-89-inside-26_1033_4433" fill="white">
<path d="M66.3308 16.1862L69.2067 20.8834C69.1859 21.1467 69.1593 21.411 69.1252 21.6772L66.2493 16.979C66.2828 16.7138 66.3099 16.4495 66.3308 16.1862Z"/>
</mask>
<path d="M66.3308 16.1862L69.2067 20.8834C69.1859 21.1467 69.1593 21.411 69.1252 21.6772L66.2493 16.979C66.2828 16.7138 66.3099 16.4495 66.3308 16.1862Z" fill="url(#paint62_linear_1033_4433)"/>
<path d="M66.3308 16.1862L66.7572 15.9251L65.9538 14.613L65.8323 16.1467L66.3308 16.1862ZM69.2067 20.8834L69.7052 20.9229L69.718 20.7609L69.6331 20.6223L69.2067 20.8834ZM69.1252 21.6772L68.6988 21.9382L69.4405 23.1499L69.6211 21.7408L69.1252 21.6772ZM66.2493 16.979L65.7532 16.9164L65.7312 17.0904L65.8228 17.2401L66.2493 16.979ZM65.9044 16.4473L68.7803 21.1445L69.6331 20.6223L66.7572 15.9251L65.9044 16.4473ZM68.7083 20.844C68.688 21.1002 68.6622 21.3564 68.6293 21.6136L69.6211 21.7408C69.6564 21.4656 69.6837 21.1932 69.7052 20.9229L68.7083 20.844ZM69.5516 21.4161L66.6757 16.718L65.8228 17.2401L68.6988 21.9382L69.5516 21.4161ZM66.7453 17.0417C66.7798 16.7688 66.8078 16.4968 66.8292 16.2257L65.8323 16.1467C65.8121 16.4022 65.7857 16.6588 65.7532 16.9164L66.7453 17.0417Z" fill="#FFBA93" mask="url(#path-89-inside-26_1033_4433)"/>
<mask id="path-91-inside-27_1033_4433" fill="white">
<path d="M66.2495 16.9791L69.1255 21.6772C69.0295 22.4304 68.8864 23.1767 68.697 23.9115C68.5273 24.5704 68.3229 25.2197 68.0847 25.8565L65.2087 21.1593C65.447 20.5226 65.651 19.8733 65.8201 19.2143C66.0102 18.4793 66.1536 17.7327 66.2495 16.9791Z"/>
</mask>
<path d="M66.2495 16.9791L69.1255 21.6772C69.0295 22.4304 68.8864 23.1767 68.697 23.9115C68.5273 24.5704 68.3229 25.2197 68.0847 25.8565L65.2087 21.1593C65.447 20.5226 65.651 19.8733 65.8201 19.2143C66.0102 18.4793 66.1536 17.7327 66.2495 16.9791Z" fill="url(#paint63_linear_1033_4433)"/>
<path d="M69.1255 21.6772L69.6215 21.7404L69.6437 21.5661L69.5519 21.4162L69.1255 21.6772ZM68.697 23.9115L68.2128 23.7867L68.2128 23.7868L68.697 23.9115ZM68.0847 25.8565L67.6582 26.1175L68.1937 26.992L68.553 26.0317L68.0847 25.8565ZM65.2087 21.1593L64.7404 20.9841L64.655 21.2124L64.7823 21.4203L65.2087 21.1593ZM65.8201 19.2143L65.3361 19.0891L65.3358 19.09L65.8201 19.2143ZM65.8231 17.2401L68.699 21.9383L69.5519 21.4162L66.676 16.718L65.8231 17.2401ZM68.6295 21.614C68.5362 22.3465 68.397 23.0722 68.2128 23.7867L69.1812 24.0363C69.3758 23.2812 69.5229 22.5144 69.6215 21.7404L68.6295 21.614ZM68.2128 23.7868C68.0475 24.4286 67.8484 25.061 67.6164 25.6813L68.553 26.0317C68.7974 25.3783 69.0071 24.7122 69.1812 24.0362L68.2128 23.7868ZM68.5111 25.5954L65.6352 20.8982L64.7823 21.4203L67.6582 26.1175L68.5111 25.5954ZM65.677 21.3345C65.9215 20.6811 66.1309 20.0148 66.3044 19.3385L65.3358 19.09C65.1712 19.7318 64.9724 20.3641 64.7404 20.9841L65.677 21.3345ZM66.3042 19.3394C66.4996 18.584 66.647 17.8167 66.7455 17.0422L65.7535 16.9159C65.6603 17.6486 65.5208 18.3745 65.3361 19.0891L66.3042 19.3394Z" fill="#FFBA93" mask="url(#path-91-inside-27_1033_4433)"/>
<path d="M65.0636 22.1967C65.1313 22.0397 65.197 21.8816 65.2606 21.7223L67.8081 25.8831C67.747 26.0451 67.6836 26.2066 67.6181 26.3675L65.0636 22.1967Z" fill="url(#paint64_linear_1033_4433)" stroke="#FFBA93" stroke-width="0.5"/>
<path d="M64.7629 22.4602L71.0406 22.8269L70.2054 26.0985L62.7161 25.6617L62.5767 25.6536L62.4966 25.7681C58.0278 32.1632 50.0999 36.3921 42.2415 35.9335C34.3949 35.4756 28.8982 30.4839 27.8087 23.8222L27.7764 23.6246L27.5765 23.6129L20.1847 23.1819L21.0257 19.9093L27.3995 20.2817L27.6434 20.2959L27.6633 20.0525C27.7457 19.0443 27.9143 18.0453 28.1671 17.0667C28.4291 16.0537 28.7718 15.064 29.1919 14.1074L29.3364 13.7782L28.9776 13.7573L22.7013 13.3906L23.5423 10.1189L31.0319 10.5548L31.1714 10.5629L31.2514 10.4484C35.7202 4.05424 43.6482 -0.174666 51.5065 0.283966C59.3531 0.74191 64.8499 5.73357 65.9403 12.3953L65.9726 12.5928L66.1724 12.6045L73.5615 13.0365L72.7205 16.3082L66.3457 15.9358L66.1016 15.9215L66.0819 16.1652C66.0004 17.1733 65.8318 18.1722 65.5782 19.1505C65.3149 20.1637 64.9706 21.1533 64.5487 22.1097L64.4034 22.4392L64.7629 22.4602ZM42.9877 33.42C51.8248 33.9361 60.7378 27.5298 62.9067 19.0921C63.9934 14.8647 63.1834 10.9179 60.9781 7.96101C58.7732 5.00461 55.1879 3.05698 50.7603 2.79745C41.9223 2.27939 33.0093 8.68866 30.8404 17.1283C29.7537 21.3566 30.5642 25.3034 32.7699 28.2597C34.9752 31.2155 38.5607 33.162 42.9877 33.42Z" fill="url(#paint65_linear_1033_4433)" stroke="#FFBA93" stroke-width="0.5"/>
<path d="M51.0105 15.5036C52.1353 17.3406 51.2762 20.0369 48.9508 21.5003C46.6254 22.9637 43.8607 22.5478 42.7359 20.7109C41.6111 18.8739 42.4702 16.1776 44.7956 14.7142C47.121 13.2508 49.8857 13.6666 51.0105 15.5036Z" fill="url(#paint66_linear_1033_4433)" stroke="#FFBA93" stroke-width="0.5"/>
<path d="M66.794 16.4636L72.7664 16.8116L75.3243 20.9903L69.352 20.6415L66.794 16.4636Z" fill="url(#paint67_linear_1033_4433)" stroke="#FFBA93" stroke-width="0.5"/>
<path d="M73.1801 16.5295L73.9746 13.4388L76.4869 17.5421L75.6924 20.6336L73.1801 16.5295Z" fill="url(#paint68_linear_1033_4433)" stroke="#FFBA93" stroke-width="0.5"/>
<mask id="path-98-inside-28_1033_4433" fill="white">
<path d="M62.6995 25.9114L65.5754 30.6096C65.3403 30.9459 65.0961 31.2761 64.8427 31.6003L61.9658 26.9031C62.2186 26.5783 62.4632 26.2477 62.6995 25.9114Z"/>
</mask>
<path d="M62.6995 25.9114L65.5754 30.6096C65.3403 30.9459 65.0961 31.2761 64.8427 31.6003L61.9658 26.9031C62.2186 26.5783 62.4632 26.2477 62.6995 25.9114Z" fill="url(#paint69_linear_1033_4433)"/>
<path d="M65.5754 30.6096L65.9852 30.896L66.1728 30.6277L66.0019 30.3485L65.5754 30.6096ZM64.8427 31.6003L64.4163 31.8615L64.7927 32.4761L65.2366 31.9082L64.8427 31.6003ZM61.9658 26.9031L61.5712 26.596L61.3587 26.8691L61.5394 27.1642L61.9658 26.9031ZM62.273 26.1724L65.149 30.8706L66.0019 30.3485L63.1259 25.6503L62.273 26.1724ZM65.1656 30.3231C64.9356 30.6521 64.6967 30.9752 64.4488 31.2924L65.2366 31.9082C65.4955 31.5771 65.745 31.2397 65.9852 30.896L65.1656 30.3231ZM65.2691 31.3392L62.3922 26.642L61.5394 27.1642L64.4163 31.8615L65.2691 31.3392ZM62.3604 27.2102C62.6182 26.879 62.8676 26.5419 63.1086 26.1989L62.2904 25.6239C62.0587 25.9536 61.819 26.2776 61.5712 26.596L62.3604 27.2102Z" fill="#FFBA93" mask="url(#path-98-inside-28_1033_4433)"/>
<mask id="path-100-inside-29_1033_4433" fill="white">
<path d="M61.9664 26.9031L64.8432 31.6051C64.4059 32.1631 63.9434 32.7022 63.4555 33.2224L60.5796 28.5204C61.0668 28.0015 61.5291 27.4624 61.9664 26.9031Z"/>
</mask>
<path d="M61.9664 26.9031L64.8432 31.6051C64.4059 32.1631 63.9434 32.7022 63.4555 33.2224L60.5796 28.5204C61.0668 28.0015 61.5291 27.4624 61.9664 26.9031Z" fill="url(#paint70_linear_1033_4433)"/>
<path d="M64.8432 31.6051L65.2368 31.9135L65.4509 31.6403L65.2697 31.3441L64.8432 31.6051ZM63.4555 33.2224L63.029 33.4833L63.3714 34.0431L63.8202 33.5644L63.4555 33.2224ZM60.5796 28.5204L60.2151 28.1781L59.9541 28.4561L60.153 28.7813L60.5796 28.5204ZM61.5399 27.164L64.4167 31.866L65.2697 31.3441L62.3929 26.6421L61.5399 27.164ZM64.4497 31.2967C64.0216 31.843 63.5686 32.3709 63.0908 32.8804L63.8202 33.5644C64.3181 33.0335 64.7903 32.4832 65.2368 31.9135L64.4497 31.2967ZM63.8821 32.9615L61.0061 28.2595L60.153 28.7813L63.029 33.4833L63.8821 32.9615ZM60.9441 28.8626C61.4416 28.3328 61.9137 27.7822 62.3603 27.2111L61.5725 26.5951C61.1445 27.1425 60.692 27.6702 60.2151 28.1781L60.9441 28.8626Z" fill="#FFBA93" mask="url(#path-100-inside-29_1033_4433)"/>
<mask id="path-102-inside-30_1033_4433" fill="white">
<path d="M60.5789 28.5203L63.4548 33.2175C63.0124 33.6922 62.5473 34.1497 62.0595 34.5898L59.1826 29.8926C59.6667 29.4537 60.1321 28.9963 60.5789 28.5203Z"/>
</mask>
<path d="M60.5789 28.5203L63.4548 33.2175C63.0124 33.6922 62.5473 34.1497 62.0595 34.5898L59.1826 29.8926C59.6667 29.4537 60.1321 28.9963 60.5789 28.5203Z" fill="url(#paint71_linear_1033_4433)"/>
<path d="M63.4548 33.2175L63.8206 33.5584L64.0796 33.2804L63.8812 32.9564L63.4548 33.2175ZM62.0595 34.5898L61.6331 34.8509L61.9475 35.3642L62.3944 34.961L62.0595 34.5898ZM59.1826 29.8926L58.8468 29.5221L58.5398 29.8004L58.7562 30.1537L59.1826 29.8926ZM60.1524 28.7814L63.0284 33.4786L63.8812 32.9564L61.0053 28.2592L60.1524 28.7814ZM63.089 32.8767C62.6566 33.3407 62.2018 33.788 61.7246 34.2185L62.3944 34.961C62.8929 34.5114 63.3683 34.0438 63.8206 33.5584L63.089 32.8767ZM62.4859 34.3286L59.609 29.6314L58.7562 30.1537L61.6331 34.8509L62.4859 34.3286ZM59.5184 30.263C60.0125 29.8151 60.4875 29.3483 60.9434 28.8625L60.2143 28.1781C59.7767 28.6443 59.3209 29.0923 58.8468 29.5221L59.5184 30.263Z" fill="#FFBA93" mask="url(#path-102-inside-30_1033_4433)"/>
<mask id="path-104-inside-31_1033_4433" fill="white">
<path d="M59.1828 29.8926L62.0597 34.5898C61.5952 35.0107 61.1153 35.414 60.6198 35.7997L57.7439 31.1025C58.2387 30.7181 58.7183 30.3148 59.1828 29.8926Z"/>
</mask>
<path d="M59.1828 29.8926L62.0597 34.5898C61.5952 35.0107 61.1153 35.414 60.6198 35.7997L57.7439 31.1025C58.2387 30.7181 58.7183 30.3148 59.1828 29.8926Z" fill="url(#paint72_linear_1033_4433)"/>
<path d="M62.0597 34.5898L62.3954 34.9603L62.7025 34.6821L62.4861 34.3287L62.0597 34.5898ZM60.6198 35.7997L60.1934 36.0608L60.4855 36.5379L60.927 36.1942L60.6198 35.7997ZM57.7439 31.1025L57.4372 30.7076L57.0839 30.9821L57.3175 31.3636L57.7439 31.1025ZM58.7564 30.1538L61.6333 34.851L62.4861 34.3287L59.6092 29.6315L58.7564 30.1538ZM61.7239 34.2193C61.2687 34.6318 60.7983 35.0271 60.3127 35.4051L60.927 36.1942C61.4322 35.8009 61.9217 35.3896 62.3954 34.9603L61.7239 34.2193ZM61.0462 35.5386L58.1703 30.8414L57.3175 31.3636L60.1934 36.0608L61.0462 35.5386ZM58.0506 31.4973C58.5556 31.105 59.0451 30.6934 59.5191 30.2626L58.8465 29.5226C58.3915 29.9362 57.9218 30.3312 57.4372 30.7076L58.0506 31.4973Z" fill="#FFBA93" mask="url(#path-104-inside-31_1033_4433)"/>
<mask id="path-106-inside-32_1033_4433" fill="white">
<path d="M57.7443 31.1025L60.6203 35.7997C60.1311 36.1803 59.63 36.5438 59.1169 36.8904L56.241 32.1932C56.7566 31.8492 57.2593 31.4869 57.7491 31.1064"/>
</mask>
<path d="M57.7443 31.1025L60.6203 35.7997C60.1311 36.1803 59.63 36.5438 59.1169 36.8904L56.241 32.1932C56.7566 31.8492 57.2593 31.4869 57.7491 31.1064" fill="url(#paint73_linear_1033_4433)"/>
<path d="M60.6203 35.7997L60.9273 36.1944L61.2801 35.9199L61.0467 35.5386L60.6203 35.7997ZM59.1169 36.8904L58.6905 37.1515L58.9635 37.5974L59.3968 37.3048L59.1169 36.8904ZM56.241 32.1932L55.9635 31.7773L55.5634 32.0442L55.8145 32.4543L56.241 32.1932ZM57.3179 31.3636L60.1938 36.0608L61.0467 35.5386L58.1708 30.8414L57.3179 31.3636ZM60.3132 35.4051C59.8329 35.7788 59.3409 36.1358 58.837 36.4761L59.3968 37.3048C59.9192 36.9519 60.4294 36.5818 60.9273 36.1944L60.3132 35.4051ZM59.5433 36.6293L56.6674 31.9321L55.8145 32.4543L58.6905 37.1515L59.5433 36.6293ZM56.5185 32.6091C57.0441 32.2584 57.5566 31.8891 58.0559 31.5012L57.4423 30.7115C56.962 31.0847 56.4691 31.4399 55.9635 31.7773L56.5185 32.6091Z" fill="#FFBA93" mask="url(#path-106-inside-32_1033_4433)"/>
<mask id="path-108-inside-33_1033_4433" fill="white">
<path d="M56.2358 32.1894L59.1165 36.8904C58.5914 37.2402 58.0542 37.5695 57.5051 37.8783L54.6292 33.1811C55.1789 32.8723 55.7161 32.543 56.2406 32.1932"/>
</mask>
<path d="M56.2358 32.1894L59.1165 36.8904C58.5914 37.2402 58.0542 37.5695 57.5051 37.8783L54.6292 33.1811C55.1789 32.8723 55.7161 32.543 56.2406 32.1932" fill="url(#paint74_linear_1033_4433)"/>
<path d="M59.1165 36.8904L59.3937 37.3065L59.7944 37.0396L59.5428 36.6292L59.1165 36.8904ZM57.5051 37.8783L57.0787 38.1394L57.3302 38.5502L57.7501 38.3141L57.5051 37.8783ZM54.6292 33.1811L54.3843 32.7451L53.9316 32.9994L54.2027 33.4422L54.6292 33.1811ZM55.8095 32.4506L58.6902 37.1516L59.5428 36.6292L56.6622 31.9281L55.8095 32.4506ZM58.8393 36.4743C58.3246 36.8171 57.7982 37.1398 57.26 37.4425L57.7501 38.3141C58.3103 37.9991 58.8581 37.6633 59.3937 37.3065L58.8393 36.4743ZM57.9315 37.6172L55.0556 32.92L54.2027 33.4422L57.0787 38.1394L57.9315 37.6172ZM54.874 33.617C55.4349 33.302 55.9829 32.966 56.518 32.6092L55.9632 31.7772C55.4493 32.1199 54.923 32.4426 54.3843 32.7451L54.874 33.617Z" fill="#FFBA93" mask="url(#path-108-inside-33_1033_4433)"/>
<path d="M53.2085 34.1897C53.6569 33.9775 54.0987 33.7517 54.5337 33.5122L57.1484 37.7827C56.7133 38.0218 56.2711 38.2472 55.8218 38.4588L53.2085 34.1897Z" fill="url(#paint75_linear_1033_4433)" stroke="#FFBA93" stroke-width="0.5"/>
<path d="M51.1836 35.0425C51.7128 34.8474 52.2354 34.6334 52.7516 34.4007L55.3642 38.6688C54.8479 38.8994 54.3243 39.1114 53.7932 39.3048L51.1836 35.0425Z" fill="url(#paint76_linear_1033_4433)" stroke="#FFBA93" stroke-width="0.5"/>
<mask id="path-112-inside-34_1033_4433" fill="white">
<path d="M50.81 34.9118L53.686 39.609C52.8498 39.9044 51.9979 40.1518 51.1342 40.3499L48.2583 35.6527C49.1219 35.4529 49.9738 35.2042 50.81 34.9079"/>
</mask>
<path d="M50.81 34.9118L53.686 39.609C52.8498 39.9044 51.9979 40.1518 51.1342 40.3499L48.2583 35.6527C49.1219 35.4529 49.9738 35.2042 50.81 34.9079" fill="url(#paint77_linear_1033_4433)"/>
<path d="M53.686 39.609L53.8526 40.0804L54.4349 39.8746L54.1124 39.3479L53.686 39.609ZM51.1342 40.3499L50.7078 40.611L50.8955 40.9176L51.246 40.8372L51.1342 40.3499ZM48.2583 35.6527L48.1456 35.1655L47.4695 35.3219L47.8319 35.9138L48.2583 35.6527ZM50.3836 35.1729L53.2596 39.8701L54.1124 39.3479L51.2365 34.6507L50.3836 35.1729ZM53.5194 39.1375C52.7012 39.4267 51.8675 39.6687 51.0224 39.8625L51.246 40.8372C52.1282 40.6349 52.9985 40.3822 53.8526 40.0804L53.5194 39.1375ZM51.5606 40.0888L48.6847 35.3916L47.8319 35.9138L50.7078 40.611L51.5606 40.0888ZM48.371 36.1398C49.253 35.9358 50.1231 35.6818 50.977 35.3792L50.643 34.4366C49.8246 34.7267 48.9908 34.97 48.1456 35.1655L48.371 36.1398Z" fill="#FFBA93" mask="url(#path-112-inside-34_1033_4433)"/>
<mask id="path-114-inside-35_1033_4433" fill="white">
<path d="M48.2584 35.6565L51.1343 40.3498C49.1582 40.8114 47.1277 40.9887 45.1028 40.8764C39.3557 40.542 34.8342 37.8014 32.3498 33.7432L29.4739 29.046C31.9574 33.1032 36.4798 35.8439 42.226 36.1792C44.2512 36.2915 46.2819 36.1143 48.2584 35.6526"/>
</mask>
<path d="M48.2584 35.6565L51.1343 40.3498C49.1582 40.8114 47.1277 40.9887 45.1028 40.8764C39.3557 40.542 34.8342 37.8014 32.3498 33.7432L29.4739 29.046C31.9574 33.1032 36.4798 35.8439 42.226 36.1792C44.2512 36.2915 46.2819 36.1143 48.2584 35.6526" fill="url(#paint78_linear_1033_4433)"/>
<path d="M51.1343 40.3498L51.248 40.8367L51.9225 40.6792L51.5606 40.0886L51.1343 40.3498ZM45.1028 40.8764L45.0738 41.3756L45.0752 41.3757L45.1028 40.8764ZM32.3498 33.7432L32.7762 33.4821L32.7762 33.4821L32.3498 33.7432ZM29.4739 29.046L29.9003 28.7849L29.0474 29.307L29.4739 29.046ZM42.226 36.1792L42.1968 36.6784L42.1983 36.6785L42.226 36.1792ZM47.8321 35.9177L50.708 40.6111L51.5606 40.0886L48.6847 35.3952L47.8321 35.9177ZM51.0206 39.8629C49.0907 40.3137 47.1079 40.4868 45.1305 40.3772L45.0752 41.3757C47.1476 41.4905 49.2256 41.3091 51.248 40.8367L51.0206 39.8629ZM45.1319 40.3773C39.5325 40.0515 35.1673 37.3877 32.7762 33.4821L31.9234 34.0043C34.5012 38.215 39.1789 41.0326 45.0738 41.3756L45.1319 40.3773ZM32.7762 33.4821L29.9003 28.7849L29.0475 29.3071L31.9234 34.0043L32.7762 33.4821ZM29.0474 29.307C31.6243 33.5168 36.303 36.3344 42.1968 36.6784L42.2551 35.6801C36.6566 35.3533 32.2904 32.6895 29.9003 28.785L29.0474 29.307ZM42.1983 36.6785C44.271 36.7934 46.3494 36.612 48.3721 36.1395L48.1447 35.1657C46.2145 35.6166 44.2314 35.7897 42.2536 35.68L42.1983 36.6785Z" fill="#FFBA93" mask="url(#path-114-inside-35_1033_4433)"/>
<path d="M63.1626 26.1888L70.2497 26.6021L72.8077 30.7809L65.7206 30.3676L63.1626 26.1888Z" fill="url(#paint79_linear_1033_4433)" stroke="#FFBA93" stroke-width="0.5"/>
<path d="M70.6633 26.3197L71.4577 23.2291L73.97 27.3324L73.1756 30.4239L70.6633 26.3197Z" fill="url(#paint80_linear_1033_4433)" stroke="#FFBA93" stroke-width="0.5"/>
<defs>
<linearGradient id="paint0_linear_1033_4433" x1="0" y1="58.1821" x2="113.939" y2="58.1821" gradientUnits="userSpaceOnUse">
<stop stop-color="#CF8D49"/>
<stop offset="1" stop-color="#B63562"/>
</linearGradient>
<linearGradient id="paint1_linear_1033_4433" x1="43.1143" y1="65.9933" x2="70.4858" y2="65.9933" gradientUnits="userSpaceOnUse">
<stop stop-color="#CF8D49"/>
<stop offset="1" stop-color="#B63562"/>
</linearGradient>
<linearGradient id="paint2_linear_1033_4433" x1="43.5203" y1="63.4085" x2="56.5713" y2="63.4085" gradientUnits="userSpaceOnUse">
<stop stop-color="#CF8D49"/>
<stop offset="1" stop-color="#B63562"/>
</linearGradient>
<linearGradient id="paint3_linear_1033_4433" x1="21.2" y1="63.3376" x2="33.4096" y2="63.3376" gradientUnits="userSpaceOnUse">
<stop stop-color="#CF8D49"/>
<stop offset="1" stop-color="#B63562"/>
</linearGradient>
<linearGradient id="paint4_linear_1033_4433" x1="34.6509" y1="58.2447" x2="42.605" y2="58.2447" gradientUnits="userSpaceOnUse">
<stop stop-color="#CF8D49"/>
<stop offset="1" stop-color="#B63562"/>
</linearGradient>
<linearGradient id="paint5_linear_1033_4433" x1="21.4099" y1="60.1441" x2="34.9765" y2="60.1441" gradientUnits="userSpaceOnUse">
<stop stop-color="#CF8D49"/>
<stop offset="1" stop-color="#B63562"/>
</linearGradient>
<linearGradient id="paint6_linear_1033_4433" x1="8.50464" y1="55.7985" x2="18.1155" y2="55.7985" gradientUnits="userSpaceOnUse">
<stop stop-color="#CF8D49"/>
<stop offset="1" stop-color="#B63562"/>
</linearGradient>
<linearGradient id="paint7_linear_1033_4433" x1="8.57397" y1="51.8142" x2="19.6291" y2="51.8142" gradientUnits="userSpaceOnUse">
<stop stop-color="#CF8D49"/>
<stop offset="1" stop-color="#B63562"/>
</linearGradient>
<linearGradient id="paint8_linear_1033_4433" x1="0.968262" y1="41.6496" x2="8.46488" y2="41.6496" gradientUnits="userSpaceOnUse">
<stop stop-color="#CF8D49"/>
<stop offset="1" stop-color="#B63562"/>
</linearGradient>
<linearGradient id="paint9_linear_1033_4433" x1="112.119" y1="48.6034" x2="113.342" y2="48.6034" gradientUnits="userSpaceOnUse">
<stop stop-color="#CF8D49"/>
<stop offset="1" stop-color="#B63562"/>
</linearGradient>
<linearGradient id="paint10_linear_1033_4433" x1="110.922" y1="48.6453" x2="112.73" y2="48.6453" gradientUnits="userSpaceOnUse">
<stop stop-color="#CF8D49"/>
<stop offset="1" stop-color="#B63562"/>
</linearGradient>
<linearGradient id="paint11_linear_1033_4433" x1="109.733" y1="48.5661" x2="111.986" y2="48.5661" gradientUnits="userSpaceOnUse">
<stop stop-color="#CF8D49"/>
<stop offset="1" stop-color="#B63562"/>
</linearGradient>
<linearGradient id="paint12_linear_1033_4433" x1="108.531" y1="48.4303" x2="111.089" y2="48.4303" gradientUnits="userSpaceOnUse">
<stop stop-color="#CF8D49"/>
<stop offset="1" stop-color="#B63562"/>
</linearGradient>
<linearGradient id="paint13_linear_1033_4433" x1="107.333" y1="48.2775" x2="110.083" y2="48.2775" gradientUnits="userSpaceOnUse">
<stop stop-color="#CF8D49"/>
<stop offset="1" stop-color="#B63562"/>
</linearGradient>
<linearGradient id="paint14_linear_1033_4433" x1="106.141" y1="48.136" x2="108.981" y2="48.136" gradientUnits="userSpaceOnUse">
<stop stop-color="#CF8D49"/>
<stop offset="1" stop-color="#B63562"/>
</linearGradient>
<linearGradient id="paint15_linear_1033_4433" x1="104.945" y1="48.0194" x2="107.803" y2="48.0194" gradientUnits="userSpaceOnUse">
<stop stop-color="#CF8D49"/>
<stop offset="1" stop-color="#B63562"/>
</linearGradient>
<linearGradient id="paint16_linear_1033_4433" x1="103.751" y1="47.9243" x2="106.575" y2="47.9243" gradientUnits="userSpaceOnUse">
<stop stop-color="#CF8D49"/>
<stop offset="1" stop-color="#B63562"/>
</linearGradient>
<linearGradient id="paint17_linear_1033_4433" x1="102.553" y1="47.8428" x2="105.315" y2="47.8428" gradientUnits="userSpaceOnUse">
<stop stop-color="#CF8D49"/>
<stop offset="1" stop-color="#B63562"/>
</linearGradient>
<linearGradient id="paint18_linear_1033_4433" x1="101.36" y1="47.767" x2="104.036" y2="47.767" gradientUnits="userSpaceOnUse">
<stop stop-color="#CF8D49"/>
<stop offset="1" stop-color="#B63562"/>
</linearGradient>
<linearGradient id="paint19_linear_1033_4433" x1="44.2217" y1="42.888" x2="95.2092" y2="42.888" gradientUnits="userSpaceOnUse">
<stop stop-color="#CF8D49"/>
<stop offset="1" stop-color="#B63562"/>
</linearGradient>
<linearGradient id="paint20_linear_1033_4433" x1="45.9988" y1="42.1862" x2="94.3552" y2="42.1862" gradientUnits="userSpaceOnUse">
<stop stop-color="#CF8D49"/>
<stop offset="1" stop-color="#B63562"/>
</linearGradient>
<linearGradient id="paint21_linear_1033_4433" x1="48.0471" y1="41.3732" x2="93.4036" y2="41.3732" gradientUnits="userSpaceOnUse">
<stop stop-color="#CF8D49"/>
<stop offset="1" stop-color="#B63562"/>
</linearGradient>
<linearGradient id="paint22_linear_1033_4433" x1="50.7458" y1="40.4833" x2="92.4053" y2="40.4833" gradientUnits="userSpaceOnUse">
<stop stop-color="#CF8D49"/>
<stop offset="1" stop-color="#B63562"/>
</linearGradient>
<linearGradient id="paint23_linear_1033_4433" x1="59.2354" y1="39.1057" x2="91.3148" y2="39.1057" gradientUnits="userSpaceOnUse">
<stop stop-color="#CF8D49"/>
<stop offset="1" stop-color="#B63562"/>
</linearGradient>
<linearGradient id="paint24_linear_1033_4433" x1="62.624" y1="38.517" x2="90.1406" y2="38.517" gradientUnits="userSpaceOnUse">
<stop stop-color="#CF8D49"/>
<stop offset="1" stop-color="#B63562"/>
</linearGradient>
<linearGradient id="paint25_linear_1033_4433" x1="81.4692" y1="37.0976" x2="88.7959" y2="37.0976" gradientUnits="userSpaceOnUse">
<stop stop-color="#CF8D49"/>
<stop offset="1" stop-color="#B63562"/>
</linearGradient>
<linearGradient id="paint26_linear_1033_4433" x1="64.7671" y1="38.2074" x2="76.5509" y2="38.2074" gradientUnits="userSpaceOnUse">
<stop stop-color="#CF8D49"/>
<stop offset="1" stop-color="#B63562"/>
</linearGradient>
<linearGradient id="paint27_linear_1033_4433" x1="83.4368" y1="36.7705" x2="87.2035" y2="36.7705" gradientUnits="userSpaceOnUse">
<stop stop-color="#CF8D49"/>
<stop offset="1" stop-color="#B63562"/>
</linearGradient>
<linearGradient id="paint28_linear_1033_4433" x1="22.3828" y1="16.1638" x2="31.8381" y2="16.1638" gradientUnits="userSpaceOnUse">
<stop stop-color="#CF8D49"/>
<stop offset="1" stop-color="#B63562"/>
</linearGradient>
<linearGradient id="paint29_linear_1033_4433" x1="19.866" y1="25.9868" x2="30.4369" y2="25.9868" gradientUnits="userSpaceOnUse">
<stop stop-color="#CF8D49"/>
<stop offset="1" stop-color="#B63562"/>
</linearGradient>
<linearGradient id="paint30_linear_1033_4433" x1="45.7256" y1="8.3549" x2="64.2485" y2="8.3549" gradientUnits="userSpaceOnUse">
<stop stop-color="#CF8D49"/>
<stop offset="1" stop-color="#B63562"/>
</linearGradient>
<linearGradient id="paint31_linear_1033_4433" x1="43.5989" y1="6.14278" x2="48.6019" y2="6.14278" gradientUnits="userSpaceOnUse">
<stop stop-color="#CF8D49"/>
<stop offset="1" stop-color="#B63562"/>
</linearGradient>
<linearGradient id="paint32_linear_1033_4433" x1="41.8918" y1="6.80059" x2="46.474" y2="6.80059" gradientUnits="userSpaceOnUse">
<stop stop-color="#CF8D49"/>
<stop offset="1" stop-color="#B63562"/>
</linearGradient>
<linearGradient id="paint33_linear_1033_4433" x1="40.4146" y1="7.52415" x2="44.7645" y2="7.52415" gradientUnits="userSpaceOnUse">
<stop stop-color="#CF8D49"/>
<stop offset="1" stop-color="#B63562"/>
</linearGradient>
<linearGradient id="paint34_linear_1033_4433" x1="39.0659" y1="8.31213" x2="43.2869" y2="8.31213" gradientUnits="userSpaceOnUse">
<stop stop-color="#CF8D49"/>
<stop offset="1" stop-color="#B63562"/>
</linearGradient>
<linearGradient id="paint35_linear_1033_4433" x1="37.8108" y1="9.17755" x2="41.9455" y2="9.17755" gradientUnits="userSpaceOnUse">
<stop stop-color="#CF8D49"/>
<stop offset="1" stop-color="#B63562"/>
</linearGradient>
<linearGradient id="paint36_linear_1033_4433" x1="36.6128" y1="10.1341" x2="40.6869" y2="10.1341" gradientUnits="userSpaceOnUse">
<stop stop-color="#CF8D49"/>
<stop offset="1" stop-color="#B63562"/>
</linearGradient>
<linearGradient id="paint37_linear_1033_4433" x1="35.4512" y1="11.209" x2="39.4883" y2="11.209" gradientUnits="userSpaceOnUse">
<stop stop-color="#CF8D49"/>
<stop offset="1" stop-color="#B63562"/>
</linearGradient>
<linearGradient id="paint38_linear_1033_4433" x1="34.2817" y1="12.4601" x2="38.3274" y2="12.4601" gradientUnits="userSpaceOnUse">
<stop stop-color="#CF8D49"/>
<stop offset="1" stop-color="#B63562"/>
</linearGradient>
<linearGradient id="paint39_linear_1033_4433" x1="33.0894" y1="14.0001" x2="37.1587" y2="14.0001" gradientUnits="userSpaceOnUse">
<stop stop-color="#CF8D49"/>
<stop offset="1" stop-color="#B63562"/>
</linearGradient>
<linearGradient id="paint40_linear_1033_4433" x1="31.5662" y1="16.4222" x2="35.9654" y2="16.4222" gradientUnits="userSpaceOnUse">
<stop stop-color="#CF8D49"/>
<stop offset="1" stop-color="#B63562"/>
</linearGradient>
<linearGradient id="paint41_linear_1033_4433" x1="30.7366" y1="19.6453" x2="34.4419" y2="19.6453" gradientUnits="userSpaceOnUse">
<stop stop-color="#CF8D49"/>
<stop offset="1" stop-color="#B63562"/>
</linearGradient>
<linearGradient id="paint42_linear_1033_4433" x1="30.6106" y1="22.9117" x2="33.6126" y2="22.9117" gradientUnits="userSpaceOnUse">
<stop stop-color="#CF8D49"/>
<stop offset="1" stop-color="#B63562"/>
</linearGradient>
<linearGradient id="paint43_linear_1033_4433" x1="30.6799" y1="25.4221" x2="33.8781" y2="25.4221" gradientUnits="userSpaceOnUse">
<stop stop-color="#CF8D49"/>
<stop offset="1" stop-color="#B63562"/>
</linearGradient>
<linearGradient id="paint44_linear_1033_4433" x1="31.0032" y1="27.0481" x2="34.3464" y2="27.0481" gradientUnits="userSpaceOnUse">
<stop stop-color="#CF8D49"/>
<stop offset="1" stop-color="#B63562"/>
</linearGradient>
<linearGradient id="paint45_linear_1033_4433" x1="31.4702" y1="28.3829" x2="34.9149" y2="28.3829" gradientUnits="userSpaceOnUse">
<stop stop-color="#CF8D49"/>
<stop offset="1" stop-color="#B63562"/>
</linearGradient>
<linearGradient id="paint46_linear_1033_4433" x1="32.042" y1="29.2868" x2="35.2487" y2="29.2868" gradientUnits="userSpaceOnUse">
<stop stop-color="#CF8D49"/>
<stop offset="1" stop-color="#B63562"/>
</linearGradient>
<linearGradient id="paint47_linear_1033_4433" x1="51.2224" y1="17.8104" x2="54.1979" y2="17.8104" gradientUnits="userSpaceOnUse">
<stop stop-color="#CF8D49"/>
<stop offset="1" stop-color="#B63562"/>
</linearGradient>
<linearGradient id="paint48_linear_1033_4433" x1="51.322" y1="18.0804" x2="54.3695" y2="18.0804" gradientUnits="userSpaceOnUse">
<stop stop-color="#CF8D49"/>
<stop offset="1" stop-color="#B63562"/>
</linearGradient>
<linearGradient id="paint49_linear_1033_4433" x1="51.4934" y1="18.4807" x2="54.5096" y2="18.4807" gradientUnits="userSpaceOnUse">
<stop stop-color="#CF8D49"/>
<stop offset="1" stop-color="#B63562"/>
</linearGradient>
<linearGradient id="paint50_linear_1033_4433" x1="51.6326" y1="18.9684" x2="54.6042" y2="18.9684" gradientUnits="userSpaceOnUse">
<stop stop-color="#CF8D49"/>
<stop offset="1" stop-color="#B63562"/>
</linearGradient>
<linearGradient id="paint51_linear_1033_4433" x1="51.7136" y1="19.7204" x2="54.6273" y2="19.7204" gradientUnits="userSpaceOnUse">
<stop stop-color="#CF8D49"/>
<stop offset="1" stop-color="#B63562"/>
</linearGradient>
<linearGradient id="paint52_linear_1033_4433" x1="51.4641" y1="20.7015" x2="54.5893" y2="20.7015" gradientUnits="userSpaceOnUse">
<stop stop-color="#CF8D49"/>
<stop offset="1" stop-color="#B63562"/>
</linearGradient>
<linearGradient id="paint53_linear_1033_4433" x1="51.0073" y1="21.6667" x2="54.3411" y2="21.6667" gradientUnits="userSpaceOnUse">
<stop stop-color="#CF8D49"/>
<stop offset="1" stop-color="#B63562"/>
</linearGradient>
<linearGradient id="paint54_linear_1033_4433" x1="49.5913" y1="23.5551" x2="52.8265" y2="23.5551" gradientUnits="userSpaceOnUse">
<stop stop-color="#CF8D49"/>
<stop offset="1" stop-color="#B63562"/>
</linearGradient>
<linearGradient id="paint55_linear_1033_4433" x1="48.8103" y1="24.1014" x2="52.09" y2="24.1014" gradientUnits="userSpaceOnUse">
<stop stop-color="#CF8D49"/>
<stop offset="1" stop-color="#B63562"/>
</linearGradient>
<linearGradient id="paint56_linear_1033_4433" x1="47.8594" y1="24.5555" x2="51.2491" y2="24.5555" gradientUnits="userSpaceOnUse">
<stop stop-color="#CF8D49"/>
<stop offset="1" stop-color="#B63562"/>
</linearGradient>
<linearGradient id="paint57_linear_1033_4433" x1="42.5229" y1="24.0878" x2="50.0929" y2="24.0878" gradientUnits="userSpaceOnUse">
<stop stop-color="#CF8D49"/>
<stop offset="1" stop-color="#B63562"/>
</linearGradient>
<linearGradient id="paint58_linear_1033_4433" x1="64.2712" y1="9.86234" x2="67.5434" y2="9.86234" gradientUnits="userSpaceOnUse">
<stop stop-color="#CF8D49"/>
<stop offset="1" stop-color="#B63562"/>
</linearGradient>
<linearGradient id="paint59_linear_1033_4433" x1="64.6665" y1="10.9463" x2="68.2297" y2="10.9463" gradientUnits="userSpaceOnUse">
<stop stop-color="#CF8D49"/>
<stop offset="1" stop-color="#B63562"/>
</linearGradient>
<linearGradient id="paint60_linear_1033_4433" x1="65.353" y1="12.5481" x2="68.7901" y2="12.5481" gradientUnits="userSpaceOnUse">
<stop stop-color="#CF8D49"/>
<stop offset="1" stop-color="#B63562"/>
</linearGradient>
<linearGradient id="paint61_linear_1033_4433" x1="65.9128" y1="14.0578" x2="69.0599" y2="14.0578" gradientUnits="userSpaceOnUse">
<stop stop-color="#CF8D49"/>
<stop offset="1" stop-color="#B63562"/>
</linearGradient>
<linearGradient id="paint62_linear_1033_4433" x1="66.2493" y1="18.9317" x2="69.2067" y2="18.9317" gradientUnits="userSpaceOnUse">
<stop stop-color="#CF8D49"/>
<stop offset="1" stop-color="#B63562"/>
</linearGradient>
<linearGradient id="paint63_linear_1033_4433" x1="65.2087" y1="21.4178" x2="69.1255" y2="21.4178" gradientUnits="userSpaceOnUse">
<stop stop-color="#CF8D49"/>
<stop offset="1" stop-color="#B63562"/>
</linearGradient>
<linearGradient id="paint64_linear_1033_4433" x1="64.7825" y1="24.0364" x2="68.0849" y2="24.0364" gradientUnits="userSpaceOnUse">
<stop stop-color="#CF8D49"/>
<stop offset="1" stop-color="#B63562"/>
</linearGradient>
<linearGradient id="paint65_linear_1033_4433" x1="19.8669" y1="18.109" x2="73.8792" y2="18.109" gradientUnits="userSpaceOnUse">
<stop stop-color="#CF8D49"/>
<stop offset="1" stop-color="#B63562"/>
</linearGradient>
<linearGradient id="paint66_linear_1033_4433" x1="42.5244" y1="20.8441" x2="51.288" y2="15.478" gradientUnits="userSpaceOnUse">
<stop stop-color="#CF8D49"/>
<stop offset="1" stop-color="#B63562"/>
</linearGradient>
<linearGradient id="paint67_linear_1033_4433" x1="66.3311" y1="18.7271" x2="75.7873" y2="18.7271" gradientUnits="userSpaceOnUse">
<stop stop-color="#CF8D49"/>
<stop offset="1" stop-color="#B63562"/>
</linearGradient>
<linearGradient id="paint68_linear_1033_4433" x1="72.9116" y1="17.0363" x2="76.7554" y2="17.0363" gradientUnits="userSpaceOnUse">
<stop stop-color="#CF8D49"/>
<stop offset="1" stop-color="#B63562"/>
</linearGradient>
<linearGradient id="paint69_linear_1033_4433" x1="61.9658" y1="28.7559" x2="65.5754" y2="28.7559" gradientUnits="userSpaceOnUse">
<stop stop-color="#CF8D49"/>
<stop offset="1" stop-color="#B63562"/>
</linearGradient>
<linearGradient id="paint70_linear_1033_4433" x1="60.5796" y1="30.0628" x2="64.8432" y2="30.0628" gradientUnits="userSpaceOnUse">
<stop stop-color="#CF8D49"/>
<stop offset="1" stop-color="#B63562"/>
</linearGradient>
<linearGradient id="paint71_linear_1033_4433" x1="59.1826" y1="31.5551" x2="63.4548" y2="31.5551" gradientUnits="userSpaceOnUse">
<stop stop-color="#CF8D49"/>
<stop offset="1" stop-color="#B63562"/>
</linearGradient>
<linearGradient id="paint72_linear_1033_4433" x1="57.7439" y1="32.8462" x2="62.0597" y2="32.8462" gradientUnits="userSpaceOnUse">
<stop stop-color="#CF8D49"/>
<stop offset="1" stop-color="#B63562"/>
</linearGradient>
<linearGradient id="paint73_linear_1033_4433" x1="56.241" y1="33.9965" x2="60.6203" y2="33.9965" gradientUnits="userSpaceOnUse">
<stop stop-color="#CF8D49"/>
<stop offset="1" stop-color="#B63562"/>
</linearGradient>
<linearGradient id="paint74_linear_1033_4433" x1="54.6292" y1="35.0339" x2="59.1165" y2="35.0339" gradientUnits="userSpaceOnUse">
<stop stop-color="#CF8D49"/>
<stop offset="1" stop-color="#B63562"/>
</linearGradient>
<linearGradient id="paint75_linear_1033_4433" x1="52.8491" y1="35.9784" x2="57.4976" y2="35.9784" gradientUnits="userSpaceOnUse">
<stop stop-color="#CF8D49"/>
<stop offset="1" stop-color="#B63562"/>
</linearGradient>
<linearGradient id="paint76_linear_1033_4433" x1="50.8103" y1="36.8452" x2="55.7252" y2="36.8452" gradientUnits="userSpaceOnUse">
<stop stop-color="#CF8D49"/>
<stop offset="1" stop-color="#B63562"/>
</linearGradient>
<linearGradient id="paint77_linear_1033_4433" x1="48.2583" y1="37.6289" x2="53.686" y2="37.6289" gradientUnits="userSpaceOnUse">
<stop stop-color="#CF8D49"/>
<stop offset="1" stop-color="#B63562"/>
</linearGradient>
<linearGradient id="paint78_linear_1033_4433" x1="29.4739" y1="34.9776" x2="51.1343" y2="34.9776" gradientUnits="userSpaceOnUse">
<stop stop-color="#CF8D49"/>
<stop offset="1" stop-color="#B63562"/>
</linearGradient>
<linearGradient id="paint79_linear_1033_4433" x1="62.6997" y1="28.4849" x2="73.2707" y2="28.4849" gradientUnits="userSpaceOnUse">
<stop stop-color="#CF8D49"/>
<stop offset="1" stop-color="#B63562"/>
</linearGradient>
<linearGradient id="paint80_linear_1033_4433" x1="70.3948" y1="26.8266" x2="74.2385" y2="26.8266" gradientUnits="userSpaceOnUse">
<stop stop-color="#CF8D49"/>
<stop offset="1" stop-color="#B63562"/>
</linearGradient>
</defs>
</svg>
