<svg width="382" height="150" viewBox="0 0 382 150" fill="none" xmlns="http://www.w3.org/2000/svg">
<rect x="1" y="1" width="380" height="68" rx="12" fill="#181A1F" stroke="#23252C"/>
<path d="M52.8 40.552C52.1173 40.552 51.5307 40.424 51.04 40.168C50.5493 39.9013 50.144 39.5227 49.824 39.032C49.504 38.5413 49.2693 37.9387 49.12 37.224C48.9707 36.5093 48.896 35.6933 48.896 34.776C48.896 33.8693 48.9707 33.0587 49.12 32.344C49.2693 31.6187 49.504 31.0107 49.824 30.52C50.144 30.0293 50.5493 29.656 51.04 29.4C51.5307 29.1333 52.1173 29 52.8 29C53.4827 29 54.0693 29.1333 54.56 29.4C55.0507 29.656 55.456 30.0293 55.776 30.52C56.096 31.0107 56.3307 31.6187 56.48 32.344C56.6293 33.0587 56.704 33.8693 56.704 34.776C56.704 35.6933 56.6293 36.5093 56.48 37.224C56.3307 37.9387 56.096 38.5413 55.776 39.032C55.456 39.5227 55.0507 39.9013 54.56 40.168C54.0693 40.424 53.4827 40.552 52.8 40.552ZM52.8 39.384C53.248 39.384 53.632 39.2987 53.952 39.128C54.272 38.9467 54.528 38.696 54.72 38.376C54.9227 38.056 55.072 37.672 55.168 37.224C55.264 36.7653 55.312 36.2533 55.312 35.688V33.864C55.312 33.3093 55.264 32.8027 55.168 32.344C55.072 31.8853 54.9227 31.496 54.72 31.176C54.528 30.856 54.272 30.6107 53.952 30.44C53.632 30.2587 53.248 30.168 52.8 30.168C52.352 30.168 51.968 30.2587 51.648 30.44C51.328 30.6107 51.0667 30.856 50.864 31.176C50.672 31.496 50.528 31.8853 50.432 32.344C50.336 32.8027 50.288 33.3093 50.288 33.864V35.688C50.288 36.2533 50.336 36.7653 50.432 37.224C50.528 37.672 50.672 38.056 50.864 38.376C51.0667 38.696 51.328 38.9467 51.648 39.128C51.968 39.2987 52.352 39.384 52.8 39.384ZM52.8 35.72C52.4267 35.72 52.1653 35.6453 52.016 35.496C51.8773 35.3467 51.808 35.1653 51.808 34.952V34.6C51.808 34.3867 51.8773 34.2053 52.016 34.056C52.1653 33.9067 52.4267 33.832 52.8 33.832C53.1733 33.832 53.4293 33.9067 53.568 34.056C53.7173 34.2053 53.792 34.3867 53.792 34.6V34.952C53.792 35.1653 53.7173 35.3467 53.568 35.496C53.4293 35.6453 53.1733 35.72 52.8 35.72Z" fill="#55575F"/>
<path d="M62.3937 40.504C61.9564 40.504 61.6471 40.4133 61.4657 40.232C61.2951 40.0507 61.2097 39.8213 61.2097 39.544V39.256C61.2097 38.9787 61.2951 38.7493 61.4657 38.568C61.6471 38.3867 61.9564 38.296 62.3937 38.296C62.8311 38.296 63.1351 38.3867 63.3057 38.568C63.4871 38.7493 63.5777 38.9787 63.5777 39.256V39.544C63.5777 39.8213 63.4871 40.0507 63.3057 40.232C63.1351 40.4133 62.8311 40.504 62.3937 40.504Z" fill="#55575F"/>
<path d="M71.9875 40.552C71.3048 40.552 70.7182 40.424 70.2275 40.168C69.7368 39.9013 69.3315 39.5227 69.0115 39.032C68.6915 38.5413 68.4568 37.9387 68.3075 37.224C68.1582 36.5093 68.0835 35.6933 68.0835 34.776C68.0835 33.8693 68.1582 33.0587 68.3075 32.344C68.4568 31.6187 68.6915 31.0107 69.0115 30.52C69.3315 30.0293 69.7368 29.656 70.2275 29.4C70.7182 29.1333 71.3048 29 71.9875 29C72.6702 29 73.2568 29.1333 73.7475 29.4C74.2382 29.656 74.6435 30.0293 74.9635 30.52C75.2835 31.0107 75.5182 31.6187 75.6675 32.344C75.8168 33.0587 75.8915 33.8693 75.8915 34.776C75.8915 35.6933 75.8168 36.5093 75.6675 37.224C75.5182 37.9387 75.2835 38.5413 74.9635 39.032C74.6435 39.5227 74.2382 39.9013 73.7475 40.168C73.2568 40.424 72.6702 40.552 71.9875 40.552ZM71.9875 39.384C72.4355 39.384 72.8195 39.2987 73.1395 39.128C73.4595 38.9467 73.7155 38.696 73.9075 38.376C74.1102 38.056 74.2595 37.672 74.3555 37.224C74.4515 36.7653 74.4995 36.2533 74.4995 35.688V33.864C74.4995 33.3093 74.4515 32.8027 74.3555 32.344C74.2595 31.8853 74.1102 31.496 73.9075 31.176C73.7155 30.856 73.4595 30.6107 73.1395 30.44C72.8195 30.2587 72.4355 30.168 71.9875 30.168C71.5395 30.168 71.1555 30.2587 70.8355 30.44C70.5155 30.6107 70.2542 30.856 70.0515 31.176C69.8595 31.496 69.7155 31.8853 69.6195 32.344C69.5235 32.8027 69.4755 33.3093 69.4755 33.864V35.688C69.4755 36.2533 69.5235 36.7653 69.6195 37.224C69.7155 37.672 69.8595 38.056 70.0515 38.376C70.2542 38.696 70.5155 38.9467 70.8355 39.128C71.1555 39.2987 71.5395 39.384 71.9875 39.384ZM71.9875 35.72C71.6142 35.72 71.3528 35.6453 71.2035 35.496C71.0648 35.3467 70.9955 35.1653 70.9955 34.952V34.6C70.9955 34.3867 71.0648 34.2053 71.2035 34.056C71.3528 33.9067 71.6142 33.832 71.9875 33.832C72.3608 33.832 72.6168 33.9067 72.7555 34.056C72.9048 34.2053 72.9795 34.3867 72.9795 34.6V34.952C72.9795 35.1653 72.9048 35.3467 72.7555 35.496C72.6168 35.6453 72.3608 35.72 71.9875 35.72Z" fill="#55575F"/>
<path d="M81.5812 40.552C80.8986 40.552 80.3119 40.424 79.8212 40.168C79.3306 39.9013 78.9252 39.5227 78.6052 39.032C78.2852 38.5413 78.0506 37.9387 77.9012 37.224C77.7519 36.5093 77.6772 35.6933 77.6772 34.776C77.6772 33.8693 77.7519 33.0587 77.9012 32.344C78.0506 31.6187 78.2852 31.0107 78.6052 30.52C78.9252 30.0293 79.3306 29.656 79.8212 29.4C80.3119 29.1333 80.8986 29 81.5812 29C82.2639 29 82.8506 29.1333 83.3412 29.4C83.8319 29.656 84.2372 30.0293 84.5572 30.52C84.8772 31.0107 85.1119 31.6187 85.2612 32.344C85.4106 33.0587 85.4852 33.8693 85.4852 34.776C85.4852 35.6933 85.4106 36.5093 85.2612 37.224C85.1119 37.9387 84.8772 38.5413 84.5572 39.032C84.2372 39.5227 83.8319 39.9013 83.3412 40.168C82.8506 40.424 82.2639 40.552 81.5812 40.552ZM81.5812 39.384C82.0292 39.384 82.4132 39.2987 82.7332 39.128C83.0532 38.9467 83.3092 38.696 83.5012 38.376C83.7039 38.056 83.8532 37.672 83.9492 37.224C84.0452 36.7653 84.0932 36.2533 84.0932 35.688V33.864C84.0932 33.3093 84.0452 32.8027 83.9492 32.344C83.8532 31.8853 83.7039 31.496 83.5012 31.176C83.3092 30.856 83.0532 30.6107 82.7332 30.44C82.4132 30.2587 82.0292 30.168 81.5812 30.168C81.1332 30.168 80.7492 30.2587 80.4292 30.44C80.1092 30.6107 79.8479 30.856 79.6452 31.176C79.4532 31.496 79.3092 31.8853 79.2132 32.344C79.1172 32.8027 79.0692 33.3093 79.0692 33.864V35.688C79.0692 36.2533 79.1172 36.7653 79.2132 37.224C79.3092 37.672 79.4532 38.056 79.6452 38.376C79.8479 38.696 80.1092 38.9467 80.4292 39.128C80.7492 39.2987 81.1332 39.384 81.5812 39.384ZM81.5812 35.72C81.2079 35.72 80.9466 35.6453 80.7972 35.496C80.6586 35.3467 80.5892 35.1653 80.5892 34.952V34.6C80.5892 34.3867 80.6586 34.2053 80.7972 34.056C80.9466 33.9067 81.2079 33.832 81.5812 33.832C81.9546 33.832 82.2106 33.9067 82.3492 34.056C82.4986 34.2053 82.5732 34.3867 82.5732 34.6V34.952C82.5732 35.1653 82.4986 35.3467 82.3492 35.496C82.2106 35.6453 81.9546 35.72 81.5812 35.72Z" fill="#55575F"/>
<path d="M93.6238 28.832V35.536C93.6238 36.08 93.6398 36.5653 93.6718 36.992C93.7038 37.4187 93.7891 37.7867 93.9278 38.096C94.0665 38.3947 94.2798 38.624 94.5678 38.784C94.8665 38.944 95.2771 39.024 95.7998 39.024C96.3225 39.024 96.7278 38.944 97.0158 38.784C97.3145 38.624 97.5331 38.3947 97.6718 38.096C97.8105 37.7867 97.8958 37.4187 97.9278 36.992C97.9598 36.5653 97.9758 36.08 97.9758 35.536V28.832H99.3198V35.216C99.3198 36.048 99.2771 36.7733 99.1918 37.392C99.1171 38.0107 98.9518 38.528 98.6958 38.944C98.4505 39.36 98.0931 39.6747 97.6238 39.888C97.1651 40.0907 96.5571 40.192 95.7998 40.192C95.0425 40.192 94.4291 40.0907 93.9598 39.888C93.5011 39.6747 93.1438 39.36 92.8878 38.944C92.6425 38.528 92.4771 38.0107 92.3918 37.392C92.3171 36.7733 92.2798 36.048 92.2798 35.216V28.832H93.6238Z" fill="#55575F"/>
<path d="M105.362 40.192C104.359 40.192 103.538 40.0107 102.898 39.648C102.258 39.2747 101.73 38.8 101.314 38.224L102.29 37.424C102.727 37.968 103.186 38.3733 103.666 38.64C104.156 38.9067 104.738 39.04 105.41 39.04C106.22 39.04 106.839 38.8533 107.266 38.48C107.692 38.1067 107.906 37.584 107.906 36.912C107.906 36.368 107.751 35.9467 107.442 35.648C107.132 35.3387 106.594 35.12 105.826 34.992L104.578 34.784C104.034 34.688 103.575 34.544 103.202 34.352C102.839 34.16 102.546 33.9307 102.322 33.664C102.098 33.3867 101.938 33.088 101.842 32.768C101.746 32.4373 101.698 32.096 101.698 31.744C101.698 30.72 102.034 29.9467 102.706 29.424C103.378 28.9013 104.284 28.64 105.426 28.64C106.322 28.64 107.074 28.7893 107.682 29.088C108.3 29.3867 108.796 29.808 109.17 30.352L108.226 31.168C107.916 30.7627 107.543 30.432 107.106 30.176C106.668 29.92 106.103 29.792 105.41 29.792C104.652 29.792 104.071 29.952 103.666 30.272C103.26 30.592 103.058 31.072 103.058 31.712C103.058 32.2133 103.207 32.624 103.506 32.944C103.815 33.2533 104.364 33.4773 105.154 33.616L106.354 33.824C106.898 33.92 107.356 34.064 107.73 34.256C108.103 34.448 108.402 34.6773 108.626 34.944C108.86 35.2107 109.026 35.5093 109.122 35.84C109.218 36.1707 109.266 36.5173 109.266 36.88C109.266 37.9147 108.924 38.7253 108.242 39.312C107.57 39.8987 106.61 40.192 105.362 40.192Z" fill="#55575F"/>
<path d="M111.707 28.832H114.827C116.193 28.832 117.211 29.3013 117.883 30.24C118.555 31.1787 118.891 32.5707 118.891 34.416C118.891 36.2613 118.555 37.6533 117.883 38.592C117.211 39.5307 116.193 40 114.827 40H111.707V28.832ZM114.763 38.832C115.659 38.832 116.331 38.5227 116.779 37.904C117.238 37.2853 117.467 36.4107 117.467 35.28V33.552C117.467 32.4213 117.238 31.5467 116.779 30.928C116.331 30.3093 115.659 30 114.763 30H113.051V38.832H114.763Z" fill="#55575F"/>
<path d="M124.949 40.192C123.584 40.192 122.565 39.696 121.893 38.704C121.232 37.712 120.901 36.2827 120.901 34.416C120.901 32.5493 121.232 31.12 121.893 30.128C122.565 29.136 123.584 28.64 124.949 28.64C125.461 28.64 125.904 28.7093 126.277 28.848C126.65 28.9867 126.97 29.1733 127.237 29.408C127.504 29.6427 127.728 29.9093 127.909 30.208C128.09 30.496 128.25 30.7893 128.389 31.088L127.237 31.616C127.141 31.3707 127.029 31.1413 126.901 30.928C126.773 30.704 126.618 30.512 126.437 30.352C126.266 30.1813 126.058 30.048 125.813 29.952C125.578 29.856 125.29 29.808 124.949 29.808C124.064 29.808 123.402 30.144 122.965 30.816C122.538 31.488 122.325 32.384 122.325 33.504V35.328C122.325 36.448 122.538 37.344 122.965 38.016C123.402 38.688 124.064 39.024 124.949 39.024C125.29 39.024 125.578 38.976 125.813 38.88C126.058 38.784 126.266 38.656 126.437 38.496C126.618 38.3253 126.773 38.1333 126.901 37.92C127.029 37.696 127.141 37.4613 127.237 37.216L128.389 37.744C128.25 38.0533 128.09 38.352 127.909 38.64C127.728 38.928 127.504 39.1893 127.237 39.424C126.97 39.6587 126.65 39.8453 126.277 39.984C125.904 40.1227 125.461 40.192 124.949 40.192Z" fill="#55575F"/>
<path d="M29 47C35.65 47 41 41.65 41 35C41 28.35 35.65 23 29 23C22.35 23 17 28.35 17 35C17 41.65 22.35 47 29 47Z" fill="#2775CA"/>
<path d="M32.3001 36.8999C32.3001 35.15 31.2501 34.55 29.1501 34.3C27.6501 34.1 27.3501 33.7 27.3501 32.9999C27.3501 32.2999 27.8501 31.85 28.8501 31.85C29.7501 31.85 30.2501 32.15 30.5001 32.9C30.5501 33.05 30.7001 33.1499 30.8501 33.1499H31.65C31.8501 33.1499 32.0001 32.9999 32.0001 32.8V32.75C31.8 31.6499 30.9 30.8 29.7501 30.7V29.5C29.7501 29.3 29.6001 29.15 29.3501 29.0999H28.6001C28.4001 29.0999 28.2501 29.2499 28.2 29.5V30.65C26.7 30.85 25.7501 31.85 25.7501 33.1C25.7501 34.75 26.7501 35.3999 28.8501 35.65C30.2501 35.9 30.7001 36.2 30.7001 37C30.7001 37.8001 30 38.35 29.0501 38.35C27.75 38.35 27.3 37.7999 27.15 37.0499C27.1001 36.85 26.9501 36.7499 26.8001 36.7499H25.95C25.7501 36.7499 25.6001 36.8999 25.6001 37.1V37.15C25.8 38.3999 26.6001 39.2999 28.2501 39.55V40.75C28.2501 40.9499 28.4001 41.0999 28.65 41.15H29.4C29.6001 41.15 29.7501 41 29.8001 40.75V39.55C31.3001 39.2999 32.3001 38.2499 32.3001 36.8999Z" fill="white"/>
<path d="M26.45 42.15C22.55 40.75 20.55 36.4 22 32.55C22.75 30.45 24.4 28.85 26.45 28.1C26.65 28 26.75 27.85 26.75 27.6V26.9C26.75 26.7 26.65 26.55 26.45 26.5C26.4 26.5 26.3 26.5 26.25 26.55C21.5 28.05 18.9 33.1 20.4 37.85C21.3 40.65 23.45 42.8 26.25 43.7C26.45 43.7999 26.65 43.7 26.7 43.5C26.75 43.45 26.75 43.4 26.75 43.3V42.5999C26.75 42.4499 26.6 42.25 26.45 42.15ZM31.75 26.55C31.55 26.45 31.35 26.55 31.3 26.75C31.25 26.8 31.25 26.85 31.25 26.95V27.65C31.25 27.85 31.4 28.05 31.55 28.15C35.45 29.55 37.45 33.9 36 37.75C35.25 39.85 33.6 41.45 31.55 42.2C31.35 42.3 31.25 42.45 31.25 42.7V43.4C31.25 43.6 31.35 43.75 31.55 43.7999C31.6 43.7999 31.7 43.8 31.75 43.75C36.5 42.25 39.1 37.2 37.6 32.45C36.7 29.6 34.5 27.45 31.75 26.55Z" fill="white"/>
<rect x="172" y="17" width="193" height="36" rx="8" fill="#202229"/>
<rect x="1" y="81" width="380" height="68" rx="12" fill="#181A1F" stroke="#23252C"/>
<path d="M52.8 120.552C52.1173 120.552 51.5307 120.424 51.04 120.168C50.5493 119.901 50.144 119.523 49.824 119.032C49.504 118.541 49.2693 117.939 49.12 117.224C48.9707 116.509 48.896 115.693 48.896 114.776C48.896 113.869 48.9707 113.059 49.12 112.344C49.2693 111.619 49.504 111.011 49.824 110.52C50.144 110.029 50.5493 109.656 51.04 109.4C51.5307 109.133 52.1173 109 52.8 109C53.4827 109 54.0693 109.133 54.56 109.4C55.0507 109.656 55.456 110.029 55.776 110.52C56.096 111.011 56.3307 111.619 56.48 112.344C56.6293 113.059 56.704 113.869 56.704 114.776C56.704 115.693 56.6293 116.509 56.48 117.224C56.3307 117.939 56.096 118.541 55.776 119.032C55.456 119.523 55.0507 119.901 54.56 120.168C54.0693 120.424 53.4827 120.552 52.8 120.552ZM52.8 119.384C53.248 119.384 53.632 119.299 53.952 119.128C54.272 118.947 54.528 118.696 54.72 118.376C54.9227 118.056 55.072 117.672 55.168 117.224C55.264 116.765 55.312 116.253 55.312 115.688V113.864C55.312 113.309 55.264 112.803 55.168 112.344C55.072 111.885 54.9227 111.496 54.72 111.176C54.528 110.856 54.272 110.611 53.952 110.44C53.632 110.259 53.248 110.168 52.8 110.168C52.352 110.168 51.968 110.259 51.648 110.44C51.328 110.611 51.0667 110.856 50.864 111.176C50.672 111.496 50.528 111.885 50.432 112.344C50.336 112.803 50.288 113.309 50.288 113.864V115.688C50.288 116.253 50.336 116.765 50.432 117.224C50.528 117.672 50.672 118.056 50.864 118.376C51.0667 118.696 51.328 118.947 51.648 119.128C51.968 119.299 52.352 119.384 52.8 119.384ZM52.8 115.72C52.4267 115.72 52.1653 115.645 52.016 115.496C51.8773 115.347 51.808 115.165 51.808 114.952V114.6C51.808 114.387 51.8773 114.205 52.016 114.056C52.1653 113.907 52.4267 113.832 52.8 113.832C53.1733 113.832 53.4293 113.907 53.568 114.056C53.7173 114.205 53.792 114.387 53.792 114.6V114.952C53.792 115.165 53.7173 115.347 53.568 115.496C53.4293 115.645 53.1733 115.72 52.8 115.72Z" fill="#55575F"/>
<path d="M62.3937 120.504C61.9564 120.504 61.6471 120.413 61.4657 120.232C61.2951 120.051 61.2097 119.821 61.2097 119.544V119.256C61.2097 118.979 61.2951 118.749 61.4657 118.568C61.6471 118.387 61.9564 118.296 62.3937 118.296C62.8311 118.296 63.1351 118.387 63.3057 118.568C63.4871 118.749 63.5777 118.979 63.5777 119.256V119.544C63.5777 119.821 63.4871 120.051 63.3057 120.232C63.1351 120.413 62.8311 120.504 62.3937 120.504Z" fill="#55575F"/>
<path d="M71.9875 120.552C71.3048 120.552 70.7182 120.424 70.2275 120.168C69.7368 119.901 69.3315 119.523 69.0115 119.032C68.6915 118.541 68.4568 117.939 68.3075 117.224C68.1582 116.509 68.0835 115.693 68.0835 114.776C68.0835 113.869 68.1582 113.059 68.3075 112.344C68.4568 111.619 68.6915 111.011 69.0115 110.52C69.3315 110.029 69.7368 109.656 70.2275 109.4C70.7182 109.133 71.3048 109 71.9875 109C72.6702 109 73.2568 109.133 73.7475 109.4C74.2382 109.656 74.6435 110.029 74.9635 110.52C75.2835 111.011 75.5182 111.619 75.6675 112.344C75.8168 113.059 75.8915 113.869 75.8915 114.776C75.8915 115.693 75.8168 116.509 75.6675 117.224C75.5182 117.939 75.2835 118.541 74.9635 119.032C74.6435 119.523 74.2382 119.901 73.7475 120.168C73.2568 120.424 72.6702 120.552 71.9875 120.552ZM71.9875 119.384C72.4355 119.384 72.8195 119.299 73.1395 119.128C73.4595 118.947 73.7155 118.696 73.9075 118.376C74.1102 118.056 74.2595 117.672 74.3555 117.224C74.4515 116.765 74.4995 116.253 74.4995 115.688V113.864C74.4995 113.309 74.4515 112.803 74.3555 112.344C74.2595 111.885 74.1102 111.496 73.9075 111.176C73.7155 110.856 73.4595 110.611 73.1395 110.44C72.8195 110.259 72.4355 110.168 71.9875 110.168C71.5395 110.168 71.1555 110.259 70.8355 110.44C70.5155 110.611 70.2542 110.856 70.0515 111.176C69.8595 111.496 69.7155 111.885 69.6195 112.344C69.5235 112.803 69.4755 113.309 69.4755 113.864V115.688C69.4755 116.253 69.5235 116.765 69.6195 117.224C69.7155 117.672 69.8595 118.056 70.0515 118.376C70.2542 118.696 70.5155 118.947 70.8355 119.128C71.1555 119.299 71.5395 119.384 71.9875 119.384ZM71.9875 115.72C71.6142 115.72 71.3528 115.645 71.2035 115.496C71.0648 115.347 70.9955 115.165 70.9955 114.952V114.6C70.9955 114.387 71.0648 114.205 71.2035 114.056C71.3528 113.907 71.6142 113.832 71.9875 113.832C72.3608 113.832 72.6168 113.907 72.7555 114.056C72.9048 114.205 72.9795 114.387 72.9795 114.6V114.952C72.9795 115.165 72.9048 115.347 72.7555 115.496C72.6168 115.645 72.3608 115.72 71.9875 115.72Z" fill="#55575F"/>
<path d="M81.5812 120.552C80.8986 120.552 80.3119 120.424 79.8212 120.168C79.3306 119.901 78.9252 119.523 78.6052 119.032C78.2852 118.541 78.0506 117.939 77.9012 117.224C77.7519 116.509 77.6772 115.693 77.6772 114.776C77.6772 113.869 77.7519 113.059 77.9012 112.344C78.0506 111.619 78.2852 111.011 78.6052 110.52C78.9252 110.029 79.3306 109.656 79.8212 109.4C80.3119 109.133 80.8986 109 81.5812 109C82.2639 109 82.8506 109.133 83.3412 109.4C83.8319 109.656 84.2372 110.029 84.5572 110.52C84.8772 111.011 85.1119 111.619 85.2612 112.344C85.4106 113.059 85.4852 113.869 85.4852 114.776C85.4852 115.693 85.4106 116.509 85.2612 117.224C85.1119 117.939 84.8772 118.541 84.5572 119.032C84.2372 119.523 83.8319 119.901 83.3412 120.168C82.8506 120.424 82.2639 120.552 81.5812 120.552ZM81.5812 119.384C82.0292 119.384 82.4132 119.299 82.7332 119.128C83.0532 118.947 83.3092 118.696 83.5012 118.376C83.7039 118.056 83.8532 117.672 83.9492 117.224C84.0452 116.765 84.0932 116.253 84.0932 115.688V113.864C84.0932 113.309 84.0452 112.803 83.9492 112.344C83.8532 111.885 83.7039 111.496 83.5012 111.176C83.3092 110.856 83.0532 110.611 82.7332 110.44C82.4132 110.259 82.0292 110.168 81.5812 110.168C81.1332 110.168 80.7492 110.259 80.4292 110.44C80.1092 110.611 79.8479 110.856 79.6452 111.176C79.4532 111.496 79.3092 111.885 79.2132 112.344C79.1172 112.803 79.0692 113.309 79.0692 113.864V115.688C79.0692 116.253 79.1172 116.765 79.2132 117.224C79.3092 117.672 79.4532 118.056 79.6452 118.376C79.8479 118.696 80.1092 118.947 80.4292 119.128C80.7492 119.299 81.1332 119.384 81.5812 119.384ZM81.5812 115.72C81.2079 115.72 80.9466 115.645 80.7972 115.496C80.6586 115.347 80.5892 115.165 80.5892 114.952V114.6C80.5892 114.387 80.6586 114.205 80.7972 114.056C80.9466 113.907 81.2079 113.832 81.5812 113.832C81.9546 113.832 82.2106 113.907 82.3492 114.056C82.4986 114.205 82.5732 114.387 82.5732 114.6V114.952C82.5732 115.165 82.4986 115.347 82.3492 115.496C82.2106 115.645 81.9546 115.72 81.5812 115.72Z" fill="#55575F"/>
<path d="M93.6238 108.832V115.536C93.6238 116.08 93.6398 116.565 93.6718 116.992C93.7038 117.419 93.7891 117.787 93.9278 118.096C94.0665 118.395 94.2798 118.624 94.5678 118.784C94.8665 118.944 95.2771 119.024 95.7998 119.024C96.3225 119.024 96.7278 118.944 97.0158 118.784C97.3145 118.624 97.5331 118.395 97.6718 118.096C97.8105 117.787 97.8958 117.419 97.9278 116.992C97.9598 116.565 97.9758 116.08 97.9758 115.536V108.832H99.3198V115.216C99.3198 116.048 99.2771 116.773 99.1918 117.392C99.1171 118.011 98.9518 118.528 98.6958 118.944C98.4505 119.36 98.0931 119.675 97.6238 119.888C97.1651 120.091 96.5571 120.192 95.7998 120.192C95.0425 120.192 94.4291 120.091 93.9598 119.888C93.5011 119.675 93.1438 119.36 92.8878 118.944C92.6425 118.528 92.4771 118.011 92.3918 117.392C92.3171 116.773 92.2798 116.048 92.2798 115.216V108.832H93.6238Z" fill="#55575F"/>
<path d="M105.362 120.192C104.359 120.192 103.538 120.011 102.898 119.648C102.258 119.275 101.73 118.8 101.314 118.224L102.29 117.424C102.727 117.968 103.186 118.373 103.666 118.64C104.156 118.907 104.738 119.04 105.41 119.04C106.22 119.04 106.839 118.853 107.266 118.48C107.692 118.107 107.906 117.584 107.906 116.912C107.906 116.368 107.751 115.947 107.442 115.648C107.132 115.339 106.594 115.12 105.826 114.992L104.578 114.784C104.034 114.688 103.575 114.544 103.202 114.352C102.839 114.16 102.546 113.931 102.322 113.664C102.098 113.387 101.938 113.088 101.842 112.768C101.746 112.437 101.698 112.096 101.698 111.744C101.698 110.72 102.034 109.947 102.706 109.424C103.378 108.901 104.284 108.64 105.426 108.64C106.322 108.64 107.074 108.789 107.682 109.088C108.3 109.387 108.796 109.808 109.17 110.352L108.226 111.168C107.916 110.763 107.543 110.432 107.106 110.176C106.668 109.92 106.103 109.792 105.41 109.792C104.652 109.792 104.071 109.952 103.666 110.272C103.26 110.592 103.058 111.072 103.058 111.712C103.058 112.213 103.207 112.624 103.506 112.944C103.815 113.253 104.364 113.477 105.154 113.616L106.354 113.824C106.898 113.92 107.356 114.064 107.73 114.256C108.103 114.448 108.402 114.677 108.626 114.944C108.86 115.211 109.026 115.509 109.122 115.84C109.218 116.171 109.266 116.517 109.266 116.88C109.266 117.915 108.924 118.725 108.242 119.312C107.57 119.899 106.61 120.192 105.362 120.192Z" fill="#55575F"/>
<path d="M111.707 108.832H114.827C116.193 108.832 117.211 109.301 117.883 110.24C118.555 111.179 118.891 112.571 118.891 114.416C118.891 116.261 118.555 117.653 117.883 118.592C117.211 119.531 116.193 120 114.827 120H111.707V108.832ZM114.763 118.832C115.659 118.832 116.331 118.523 116.779 117.904C117.238 117.285 117.467 116.411 117.467 115.28V113.552C117.467 112.421 117.238 111.547 116.779 110.928C116.331 110.309 115.659 110 114.763 110H113.051V118.832H114.763Z" fill="#55575F"/>
<path d="M124.949 120.192C123.584 120.192 122.565 119.696 121.893 118.704C121.232 117.712 120.901 116.283 120.901 114.416C120.901 112.549 121.232 111.12 121.893 110.128C122.565 109.136 123.584 108.64 124.949 108.64C125.461 108.64 125.904 108.709 126.277 108.848C126.65 108.987 126.97 109.173 127.237 109.408C127.504 109.643 127.728 109.909 127.909 110.208C128.09 110.496 128.25 110.789 128.389 111.088L127.237 111.616C127.141 111.371 127.029 111.141 126.901 110.928C126.773 110.704 126.618 110.512 126.437 110.352C126.266 110.181 126.058 110.048 125.813 109.952C125.578 109.856 125.29 109.808 124.949 109.808C124.064 109.808 123.402 110.144 122.965 110.816C122.538 111.488 122.325 112.384 122.325 113.504V115.328C122.325 116.448 122.538 117.344 122.965 118.016C123.402 118.688 124.064 119.024 124.949 119.024C125.29 119.024 125.578 118.976 125.813 118.88C126.058 118.784 126.266 118.656 126.437 118.496C126.618 118.325 126.773 118.133 126.901 117.92C127.029 117.696 127.141 117.461 127.237 117.216L128.389 117.744C128.25 118.053 128.09 118.352 127.909 118.64C127.728 118.928 127.504 119.189 127.237 119.424C126.97 119.659 126.65 119.845 126.277 119.984C125.904 120.123 125.461 120.192 124.949 120.192Z" fill="#55575F"/>
<path d="M39.3281 113.337C39.0952 113.337 38.8624 113.38 38.6508 113.485L30.5238 105.351C30.6085 105.139 30.672 104.928 30.672 104.673C30.672 103.741 29.9101 103 29 103C28.0899 103 27.328 103.763 27.328 104.673C27.328 104.906 27.3704 105.139 27.4762 105.351L19.3492 113.464C19.1376 113.38 18.9259 113.316 18.672 113.316C17.7407 113.316 17 114.079 17 114.989C17 115.9 17.7619 116.663 18.672 116.663C18.9048 116.663 19.1376 116.62 19.3492 116.515L27.4762 124.649C27.3915 124.861 27.328 125.072 27.328 125.327C27.328 126.259 28.0899 127 29 127C29.9101 127 30.672 126.237 30.672 125.327C30.672 125.093 30.6296 124.861 30.5238 124.649L38.6508 116.515C38.8624 116.599 39.074 116.663 39.3281 116.663C40.2593 116.663 41 115.9 41 114.989C41 114.079 40.2593 113.337 39.3281 113.337ZM37.7618 114.417L34.6085 115.18C34.3334 114.82 33.9101 114.566 33.4232 114.566C33.0635 114.566 32.746 114.693 32.4921 114.905L30.4391 113.951C30.4391 113.93 30.4391 113.93 30.4391 113.909C30.4391 113.316 30.1005 112.829 29.5926 112.596V106.241C29.6138 106.241 29.6349 106.22 29.6561 106.22L37.783 114.354C37.783 114.354 37.7618 114.396 37.7618 114.417ZM29 123.674C28.9577 123.674 28.9153 123.674 28.873 123.674L25.6984 116.959C25.9101 116.705 26.037 116.387 26.037 116.027L28.1111 115.053C28.3651 115.244 28.6825 115.371 29 115.371C29.3386 115.371 29.6561 115.244 29.9101 115.053L31.9841 116.027C31.9841 116.027 31.9841 116.027 31.9841 116.049C31.9841 116.409 32.1111 116.726 32.3228 116.981L29.1058 123.674C29.0847 123.674 29.0423 123.674 29 123.674ZM28.3862 106.241V112.596C27.8995 112.829 27.5397 113.337 27.5397 113.909C27.5397 113.93 27.5397 113.951 27.5397 113.951L25.4868 114.905C25.2328 114.693 24.9153 114.566 24.5556 114.566C24.0688 114.566 23.6455 114.799 23.3704 115.18L20.2381 114.417C20.2381 114.396 20.2169 114.375 20.2169 114.333L28.3439 106.199C28.3439 106.22 28.3651 106.22 28.3862 106.241ZM20.2169 115.667L23.1587 116.387C23.328 117.023 23.8783 117.489 24.5767 117.489H24.5979L26.9259 122.403L20.2169 115.667ZM33.4021 117.489H33.4232C34.1005 117.489 34.672 117.023 34.8412 116.387L37.783 115.667C37.783 115.667 37.783 115.667 37.783 115.688L31.0741 122.403L33.4021 117.489Z" fill="url(#paint0_linear_1638_5981)"/>
<rect x="172" y="97" width="193" height="36" rx="8" fill="#202229"/>
<path d="M187.66 120L187 111.624H187.9L188.248 116.424L188.428 118.956H188.524L189.628 113.808H190.756L191.86 118.956H191.956L192.136 116.424L192.484 111.624H193.36L192.7 120H191.248L190.228 114.996H190.132L189.112 120H187.66Z" fill="#E69C46"/>
<path d="M199.715 120C199.339 120 199.071 119.904 198.911 119.712C198.751 119.52 198.651 119.28 198.611 118.992H198.551C198.415 119.352 198.195 119.636 197.891 119.844C197.595 120.044 197.195 120.144 196.691 120.144C196.043 120.144 195.527 119.976 195.143 119.64C194.759 119.304 194.567 118.844 194.567 118.26C194.567 117.684 194.775 117.24 195.191 116.928C195.615 116.616 196.295 116.46 197.231 116.46H198.551V115.848C198.551 115.392 198.423 115.052 198.167 114.828C197.911 114.596 197.547 114.48 197.075 114.48C196.659 114.48 196.319 114.564 196.055 114.732C195.791 114.892 195.579 115.112 195.419 115.392L194.771 114.912C194.851 114.752 194.959 114.596 195.095 114.444C195.231 114.292 195.399 114.16 195.599 114.048C195.799 113.928 196.027 113.836 196.283 113.772C196.539 113.7 196.823 113.664 197.135 113.664C197.863 113.664 198.439 113.848 198.863 114.216C199.295 114.584 199.511 115.096 199.511 115.752V119.16H200.375V120H199.715ZM196.859 119.34C197.107 119.34 197.331 119.312 197.531 119.256C197.739 119.192 197.919 119.112 198.071 119.016C198.223 118.912 198.339 118.792 198.419 118.656C198.507 118.512 198.551 118.36 198.551 118.2V117.18H197.231C196.655 117.18 196.235 117.26 195.971 117.42C195.707 117.58 195.575 117.812 195.575 118.116V118.368C195.575 118.688 195.687 118.932 195.911 119.1C196.143 119.26 196.459 119.34 196.859 119.34Z" fill="#E69C46"/>
<path d="M201.931 119.184H204.091V111.936H201.931V111.12H205.051V119.184H207.211V120H201.931V119.184Z" fill="#E69C46"/>
<path d="M209.126 119.184H211.286V111.936H209.126V111.12H212.246V119.184H214.406V120H209.126V119.184Z" fill="#E69C46"/>
<path d="M219.069 120.144C218.621 120.144 218.217 120.068 217.857 119.916C217.505 119.764 217.201 119.548 216.945 119.268C216.697 118.98 216.505 118.64 216.369 118.248C216.233 117.848 216.165 117.404 216.165 116.916C216.165 116.42 216.233 115.972 216.369 115.572C216.513 115.172 216.709 114.832 216.957 114.552C217.205 114.264 217.501 114.044 217.845 113.892C218.197 113.74 218.585 113.664 219.009 113.664C219.425 113.664 219.801 113.74 220.137 113.892C220.481 114.044 220.773 114.256 221.013 114.528C221.253 114.792 221.437 115.108 221.565 115.476C221.693 115.844 221.757 116.248 221.757 116.688V117.144H217.173V117.432C217.173 117.704 217.217 117.956 217.305 118.188C217.393 118.42 217.517 118.62 217.677 118.788C217.845 118.956 218.045 119.088 218.277 119.184C218.517 119.272 218.781 119.316 219.069 119.316C219.485 119.316 219.845 119.22 220.149 119.028C220.453 118.836 220.685 118.572 220.845 118.236L221.553 118.716C221.369 119.132 221.061 119.476 220.629 119.748C220.205 120.012 219.685 120.144 219.069 120.144ZM219.009 114.456C218.745 114.456 218.501 114.504 218.277 114.6C218.053 114.696 217.857 114.828 217.689 114.996C217.529 115.164 217.401 115.364 217.305 115.596C217.217 115.82 217.173 116.068 217.173 116.34V116.424H220.725V116.292C220.725 116.02 220.681 115.772 220.593 115.548C220.513 115.324 220.397 115.132 220.245 114.972C220.101 114.804 219.921 114.676 219.705 114.588C219.497 114.5 219.265 114.456 219.009 114.456Z" fill="#E69C46"/>
<path d="M226.457 120C225.985 120 225.637 119.868 225.413 119.604C225.197 119.34 225.089 119 225.089 118.584V114.624H223.025V113.808H224.561C224.769 113.808 224.913 113.768 224.993 113.688C225.081 113.6 225.125 113.452 225.125 113.244V111.624H226.049V113.808H228.869V114.624H226.049V119.184H228.869V120H226.457Z" fill="#E69C46"/>
<path d="M240.931 112.44C240.651 112.44 240.455 112.384 240.343 112.272C240.231 112.152 240.175 112.004 240.175 111.828V111.636C240.175 111.46 240.231 111.316 240.343 111.204C240.455 111.084 240.651 111.024 240.931 111.024C241.211 111.024 241.407 111.084 241.519 111.204C241.631 111.316 241.687 111.46 241.687 111.636V111.828C241.687 112.004 241.631 112.152 241.519 112.272C241.407 112.384 241.211 112.44 240.931 112.44ZM238.219 119.184H240.451V114.624H238.219V113.808H241.411V119.184H243.499V120H238.219V119.184Z" fill="#E69C46"/>
<path d="M247.815 120.144C247.167 120.144 246.607 120.036 246.135 119.82C245.671 119.596 245.275 119.3 244.947 118.932L245.595 118.368C245.891 118.68 246.215 118.92 246.567 119.088C246.919 119.256 247.343 119.34 247.839 119.34C248.319 119.34 248.711 119.256 249.015 119.088C249.327 118.912 249.483 118.64 249.483 118.272C249.483 118.112 249.451 117.98 249.387 117.876C249.331 117.764 249.251 117.676 249.147 117.612C249.043 117.548 248.926 117.5 248.799 117.468C248.671 117.428 248.535 117.396 248.391 117.372L247.419 117.228C247.203 117.196 246.967 117.152 246.711 117.096C246.463 117.04 246.235 116.952 246.027 116.832C245.819 116.704 245.643 116.536 245.499 116.328C245.362 116.12 245.295 115.848 245.295 115.512C245.295 115.2 245.355 114.932 245.475 114.708C245.603 114.476 245.779 114.284 246.003 114.132C246.227 113.972 246.491 113.856 246.795 113.784C247.099 113.704 247.431 113.664 247.791 113.664C248.351 113.664 248.834 113.752 249.243 113.928C249.659 114.104 250.014 114.348 250.311 114.66L249.687 115.248C249.615 115.16 249.523 115.072 249.411 114.984C249.307 114.888 249.175 114.804 249.015 114.732C248.863 114.652 248.683 114.588 248.475 114.54C248.267 114.492 248.027 114.468 247.755 114.468C247.267 114.468 246.891 114.552 246.627 114.72C246.371 114.888 246.243 115.132 246.243 115.452C246.243 115.612 246.271 115.748 246.327 115.86C246.391 115.964 246.475 116.048 246.579 116.112C246.683 116.176 246.799 116.228 246.927 116.268C247.063 116.3 247.199 116.328 247.335 116.352L248.307 116.496C248.531 116.528 248.767 116.572 249.015 116.628C249.263 116.684 249.491 116.776 249.699 116.904C249.907 117.024 250.078 117.188 250.215 117.396C250.359 117.604 250.431 117.876 250.431 118.212C250.431 118.828 250.191 119.304 249.711 119.64C249.239 119.976 248.607 120.144 247.815 120.144Z" fill="#E69C46"/>
<path d="M259.709 120V113.808H260.669V114.816H260.717C260.781 114.664 260.861 114.52 260.957 114.384C261.053 114.24 261.169 114.116 261.305 114.012C261.449 113.908 261.617 113.824 261.809 113.76C262.001 113.696 262.225 113.664 262.481 113.664C263.129 113.664 263.649 113.872 264.041 114.288C264.433 114.696 264.629 115.276 264.629 116.028V120H263.669V116.196C263.669 115.628 263.545 115.208 263.297 114.936C263.049 114.656 262.685 114.516 262.205 114.516C262.013 114.516 261.825 114.54 261.641 114.588C261.457 114.636 261.293 114.708 261.149 114.804C261.005 114.9 260.889 115.024 260.801 115.176C260.713 115.328 260.669 115.504 260.669 115.704V120H259.709Z" fill="#E69C46"/>
<path d="M269.328 120.144C268.896 120.144 268.504 120.068 268.152 119.916C267.808 119.764 267.512 119.548 267.264 119.268C267.024 118.98 266.84 118.64 266.712 118.248C266.584 117.848 266.52 117.4 266.52 116.904C266.52 116.416 266.584 115.972 266.712 115.572C266.84 115.172 267.024 114.832 267.264 114.552C267.512 114.264 267.808 114.044 268.152 113.892C268.504 113.74 268.896 113.664 269.328 113.664C269.76 113.664 270.148 113.74 270.492 113.892C270.844 114.044 271.14 114.264 271.38 114.552C271.628 114.832 271.816 115.172 271.944 115.572C272.072 115.972 272.136 116.416 272.136 116.904C272.136 117.4 272.072 117.848 271.944 118.248C271.816 118.64 271.628 118.98 271.38 119.268C271.14 119.548 270.844 119.764 270.492 119.916C270.148 120.068 269.76 120.144 269.328 120.144ZM269.328 119.316C269.864 119.316 270.296 119.156 270.624 118.836C270.952 118.516 271.116 118.02 271.116 117.348V116.46C271.116 115.788 270.952 115.292 270.624 114.972C270.296 114.652 269.864 114.492 269.328 114.492C268.792 114.492 268.36 114.652 268.032 114.972C267.704 115.292 267.54 115.788 267.54 116.46V117.348C267.54 118.02 267.704 118.516 268.032 118.836C268.36 119.156 268.792 119.316 269.328 119.316Z" fill="#E69C46"/>
<path d="M276.824 120C276.352 120 276.004 119.868 275.78 119.604C275.564 119.34 275.456 119 275.456 118.584V114.624H273.392V113.808H274.928C275.136 113.808 275.28 113.768 275.36 113.688C275.448 113.6 275.492 113.452 275.492 113.244V111.624H276.416V113.808H279.236V114.624H276.416V119.184H279.236V120H276.824Z" fill="#E69C46"/>
<path d="M291.13 120.144C290.682 120.144 290.282 120.068 289.93 119.916C289.586 119.756 289.294 119.536 289.054 119.256C288.814 118.976 288.63 118.636 288.502 118.236C288.382 117.836 288.322 117.392 288.322 116.904C288.322 116.416 288.386 115.972 288.514 115.572C288.642 115.172 288.826 114.832 289.066 114.552C289.306 114.264 289.598 114.044 289.942 113.892C290.286 113.74 290.678 113.664 291.118 113.664C291.718 113.664 292.206 113.796 292.582 114.06C292.958 114.324 293.234 114.668 293.41 115.092L292.642 115.5C292.53 115.18 292.342 114.932 292.078 114.756C291.822 114.58 291.502 114.492 291.118 114.492C290.838 114.492 290.586 114.54 290.362 114.636C290.146 114.724 289.962 114.852 289.81 115.02C289.658 115.188 289.542 115.388 289.462 115.62C289.39 115.852 289.354 116.104 289.354 116.376V117.432C289.354 117.704 289.39 117.956 289.462 118.188C289.542 118.42 289.658 118.62 289.81 118.788C289.962 118.956 290.15 119.088 290.374 119.184C290.598 119.272 290.854 119.316 291.142 119.316C291.558 119.316 291.902 119.22 292.174 119.028C292.446 118.836 292.662 118.572 292.822 118.236L293.506 118.704C293.322 119.12 293.034 119.464 292.642 119.736C292.258 120.008 291.754 120.144 291.13 120.144Z" fill="#E69C46"/>
<path d="M298.11 120.144C297.678 120.144 297.286 120.068 296.934 119.916C296.59 119.764 296.294 119.548 296.046 119.268C295.806 118.98 295.622 118.64 295.494 118.248C295.366 117.848 295.302 117.4 295.302 116.904C295.302 116.416 295.366 115.972 295.494 115.572C295.622 115.172 295.806 114.832 296.046 114.552C296.294 114.264 296.59 114.044 296.934 113.892C297.286 113.74 297.678 113.664 298.11 113.664C298.542 113.664 298.93 113.74 299.274 113.892C299.626 114.044 299.922 114.264 300.162 114.552C300.41 114.832 300.598 115.172 300.726 115.572C300.854 115.972 300.918 116.416 300.918 116.904C300.918 117.4 300.854 117.848 300.726 118.248C300.598 118.64 300.41 118.98 300.162 119.268C299.922 119.548 299.626 119.764 299.274 119.916C298.93 120.068 298.542 120.144 298.11 120.144ZM298.11 119.316C298.646 119.316 299.078 119.156 299.406 118.836C299.734 118.516 299.898 118.02 299.898 117.348V116.46C299.898 115.788 299.734 115.292 299.406 114.972C299.078 114.652 298.646 114.492 298.11 114.492C297.574 114.492 297.142 114.652 296.814 114.972C296.486 115.292 296.322 115.788 296.322 116.46V117.348C296.322 118.02 296.486 118.516 296.814 118.836C297.142 119.156 297.574 119.316 298.11 119.316Z" fill="#E69C46"/>
<path d="M302.881 120V113.808H303.841V114.816H303.889C303.953 114.664 304.033 114.52 304.129 114.384C304.225 114.24 304.341 114.116 304.477 114.012C304.621 113.908 304.789 113.824 304.981 113.76C305.173 113.696 305.397 113.664 305.653 113.664C306.301 113.664 306.821 113.872 307.213 114.288C307.605 114.696 307.801 115.276 307.801 116.028V120H306.841V116.196C306.841 115.628 306.717 115.208 306.469 114.936C306.221 114.656 305.857 114.516 305.377 114.516C305.185 114.516 304.997 114.54 304.813 114.588C304.629 114.636 304.465 114.708 304.321 114.804C304.177 114.9 304.061 115.024 303.973 115.176C303.885 115.328 303.841 115.504 303.841 115.704V120H302.881Z" fill="#E69C46"/>
<path d="M310.076 120V113.808H311.036V114.816H311.084C311.148 114.664 311.228 114.52 311.324 114.384C311.42 114.24 311.536 114.116 311.672 114.012C311.816 113.908 311.984 113.824 312.176 113.76C312.368 113.696 312.592 113.664 312.848 113.664C313.496 113.664 314.016 113.872 314.408 114.288C314.8 114.696 314.996 115.276 314.996 116.028V120H314.036V116.196C314.036 115.628 313.912 115.208 313.664 114.936C313.416 114.656 313.052 114.516 312.572 114.516C312.38 114.516 312.192 114.54 312.008 114.588C311.824 114.636 311.66 114.708 311.516 114.804C311.372 114.9 311.256 115.024 311.168 115.176C311.08 115.328 311.036 115.504 311.036 115.704V120H310.076Z" fill="#E69C46"/>
<path d="M319.804 120.144C319.356 120.144 318.952 120.068 318.592 119.916C318.24 119.764 317.936 119.548 317.68 119.268C317.432 118.98 317.24 118.64 317.104 118.248C316.968 117.848 316.9 117.404 316.9 116.916C316.9 116.42 316.968 115.972 317.104 115.572C317.248 115.172 317.444 114.832 317.692 114.552C317.94 114.264 318.236 114.044 318.58 113.892C318.932 113.74 319.32 113.664 319.744 113.664C320.16 113.664 320.536 113.74 320.872 113.892C321.216 114.044 321.508 114.256 321.748 114.528C321.988 114.792 322.172 115.108 322.3 115.476C322.428 115.844 322.492 116.248 322.492 116.688V117.144H317.908V117.432C317.908 117.704 317.952 117.956 318.04 118.188C318.128 118.42 318.252 118.62 318.412 118.788C318.58 118.956 318.78 119.088 319.012 119.184C319.252 119.272 319.516 119.316 319.804 119.316C320.22 119.316 320.58 119.22 320.884 119.028C321.188 118.836 321.42 118.572 321.58 118.236L322.288 118.716C322.104 119.132 321.796 119.476 321.364 119.748C320.94 120.012 320.42 120.144 319.804 120.144ZM319.744 114.456C319.48 114.456 319.236 114.504 319.012 114.6C318.788 114.696 318.592 114.828 318.424 114.996C318.264 115.164 318.136 115.364 318.04 115.596C317.952 115.82 317.908 116.068 317.908 116.34V116.424H321.46V116.292C321.46 116.02 321.416 115.772 321.328 115.548C321.248 115.324 321.132 115.132 320.98 114.972C320.836 114.804 320.656 114.676 320.44 114.588C320.232 114.5 320 114.456 319.744 114.456Z" fill="#E69C46"/>
<path d="M327.107 120.144C326.659 120.144 326.259 120.068 325.907 119.916C325.563 119.756 325.271 119.536 325.031 119.256C324.791 118.976 324.607 118.636 324.479 118.236C324.359 117.836 324.299 117.392 324.299 116.904C324.299 116.416 324.363 115.972 324.491 115.572C324.619 115.172 324.803 114.832 325.043 114.552C325.283 114.264 325.575 114.044 325.919 113.892C326.263 113.74 326.655 113.664 327.095 113.664C327.695 113.664 328.183 113.796 328.559 114.06C328.935 114.324 329.211 114.668 329.387 115.092L328.619 115.5C328.507 115.18 328.319 114.932 328.055 114.756C327.799 114.58 327.479 114.492 327.095 114.492C326.815 114.492 326.563 114.54 326.339 114.636C326.123 114.724 325.939 114.852 325.787 115.02C325.635 115.188 325.519 115.388 325.439 115.62C325.367 115.852 325.331 116.104 325.331 116.376V117.432C325.331 117.704 325.367 117.956 325.439 118.188C325.519 118.42 325.635 118.62 325.787 118.788C325.939 118.956 326.127 119.088 326.351 119.184C326.575 119.272 326.831 119.316 327.119 119.316C327.535 119.316 327.879 119.22 328.151 119.028C328.423 118.836 328.639 118.572 328.799 118.236L329.483 118.704C329.299 119.12 329.011 119.464 328.619 119.736C328.235 120.008 327.731 120.144 327.107 120.144Z" fill="#E69C46"/>
<path d="M334.386 120C333.914 120 333.566 119.868 333.342 119.604C333.126 119.34 333.018 119 333.018 118.584V114.624H330.954V113.808H332.49C332.698 113.808 332.842 113.768 332.922 113.688C333.01 113.6 333.054 113.452 333.054 113.244V111.624H333.978V113.808H336.798V114.624H333.978V119.184H336.798V120H334.386Z" fill="#E69C46"/>
<path d="M341.39 120.144C340.942 120.144 340.538 120.068 340.178 119.916C339.826 119.764 339.522 119.548 339.266 119.268C339.018 118.98 338.826 118.64 338.69 118.248C338.554 117.848 338.486 117.404 338.486 116.916C338.486 116.42 338.554 115.972 338.69 115.572C338.834 115.172 339.03 114.832 339.278 114.552C339.526 114.264 339.822 114.044 340.166 113.892C340.518 113.74 340.906 113.664 341.33 113.664C341.746 113.664 342.122 113.74 342.458 113.892C342.802 114.044 343.094 114.256 343.334 114.528C343.574 114.792 343.758 115.108 343.886 115.476C344.014 115.844 344.078 116.248 344.078 116.688V117.144H339.494V117.432C339.494 117.704 339.538 117.956 339.626 118.188C339.714 118.42 339.838 118.62 339.998 118.788C340.166 118.956 340.366 119.088 340.598 119.184C340.838 119.272 341.102 119.316 341.39 119.316C341.806 119.316 342.166 119.22 342.47 119.028C342.774 118.836 343.006 118.572 343.166 118.236L343.874 118.716C343.69 119.132 343.382 119.476 342.95 119.748C342.526 120.012 342.006 120.144 341.39 120.144ZM341.33 114.456C341.066 114.456 340.822 114.504 340.598 114.6C340.374 114.696 340.178 114.828 340.01 114.996C339.85 115.164 339.722 115.364 339.626 115.596C339.538 115.82 339.494 116.068 339.494 116.34V116.424H343.046V116.292C343.046 116.02 343.002 115.772 342.914 115.548C342.834 115.324 342.718 115.132 342.566 114.972C342.422 114.804 342.242 114.676 342.026 114.588C341.818 114.5 341.586 114.456 341.33 114.456Z" fill="#E69C46"/>
<path d="M349.977 118.992H349.929C349.529 119.76 348.893 120.144 348.021 120.144C347.261 120.144 346.665 119.86 346.233 119.292C345.809 118.724 345.597 117.928 345.597 116.904C345.597 115.88 345.809 115.084 346.233 114.516C346.665 113.948 347.261 113.664 348.021 113.664C348.893 113.664 349.529 114.048 349.929 114.816H349.977V111.12H350.937V120H349.977V118.992ZM348.393 119.292C348.609 119.292 348.813 119.264 349.005 119.208C349.197 119.152 349.365 119.072 349.509 118.968C349.653 118.856 349.765 118.724 349.845 118.572C349.933 118.412 349.977 118.228 349.977 118.02V115.788C349.977 115.58 349.933 115.4 349.845 115.248C349.765 115.088 349.653 114.956 349.509 114.852C349.365 114.74 349.197 114.656 349.005 114.6C348.813 114.544 348.609 114.516 348.393 114.516C347.833 114.516 347.397 114.688 347.085 115.032C346.781 115.368 346.629 115.816 346.629 116.376V117.432C346.629 117.992 346.781 118.444 347.085 118.788C347.397 119.124 347.833 119.292 348.393 119.292Z" fill="#E69C46"/>
<path d="M187.66 40L187 31.624H187.9L188.248 36.424L188.428 38.956H188.524L189.628 33.808H190.756L191.86 38.956H191.956L192.136 36.424L192.484 31.624H193.36L192.7 40H191.248L190.228 34.996H190.132L189.112 40H187.66Z" fill="#E69C46"/>
<path d="M199.715 40C199.339 40 199.071 39.904 198.911 39.712C198.751 39.52 198.651 39.28 198.611 38.992H198.551C198.415 39.352 198.195 39.636 197.891 39.844C197.595 40.044 197.195 40.144 196.691 40.144C196.043 40.144 195.527 39.976 195.143 39.64C194.759 39.304 194.567 38.844 194.567 38.26C194.567 37.684 194.775 37.24 195.191 36.928C195.615 36.616 196.295 36.46 197.231 36.46H198.551V35.848C198.551 35.392 198.423 35.052 198.167 34.828C197.911 34.596 197.547 34.48 197.075 34.48C196.659 34.48 196.319 34.564 196.055 34.732C195.791 34.892 195.579 35.112 195.419 35.392L194.771 34.912C194.851 34.752 194.959 34.596 195.095 34.444C195.231 34.292 195.399 34.16 195.599 34.048C195.799 33.928 196.027 33.836 196.283 33.772C196.539 33.7 196.823 33.664 197.135 33.664C197.863 33.664 198.439 33.848 198.863 34.216C199.295 34.584 199.511 35.096 199.511 35.752V39.16H200.375V40H199.715ZM196.859 39.34C197.107 39.34 197.331 39.312 197.531 39.256C197.739 39.192 197.919 39.112 198.071 39.016C198.223 38.912 198.339 38.792 198.419 38.656C198.507 38.512 198.551 38.36 198.551 38.2V37.18H197.231C196.655 37.18 196.235 37.26 195.971 37.42C195.707 37.58 195.575 37.812 195.575 38.116V38.368C195.575 38.688 195.687 38.932 195.911 39.1C196.143 39.26 196.459 39.34 196.859 39.34Z" fill="#E69C46"/>
<path d="M201.931 39.184H204.091V31.936H201.931V31.12H205.051V39.184H207.211V40H201.931V39.184Z" fill="#E69C46"/>
<path d="M209.126 39.184H211.286V31.936H209.126V31.12H212.246V39.184H214.406V40H209.126V39.184Z" fill="#E69C46"/>
<path d="M219.069 40.144C218.621 40.144 218.217 40.068 217.857 39.916C217.505 39.764 217.201 39.548 216.945 39.268C216.697 38.98 216.505 38.64 216.369 38.248C216.233 37.848 216.165 37.404 216.165 36.916C216.165 36.42 216.233 35.972 216.369 35.572C216.513 35.172 216.709 34.832 216.957 34.552C217.205 34.264 217.501 34.044 217.845 33.892C218.197 33.74 218.585 33.664 219.009 33.664C219.425 33.664 219.801 33.74 220.137 33.892C220.481 34.044 220.773 34.256 221.013 34.528C221.253 34.792 221.437 35.108 221.565 35.476C221.693 35.844 221.757 36.248 221.757 36.688V37.144H217.173V37.432C217.173 37.704 217.217 37.956 217.305 38.188C217.393 38.42 217.517 38.62 217.677 38.788C217.845 38.956 218.045 39.088 218.277 39.184C218.517 39.272 218.781 39.316 219.069 39.316C219.485 39.316 219.845 39.22 220.149 39.028C220.453 38.836 220.685 38.572 220.845 38.236L221.553 38.716C221.369 39.132 221.061 39.476 220.629 39.748C220.205 40.012 219.685 40.144 219.069 40.144ZM219.009 34.456C218.745 34.456 218.501 34.504 218.277 34.6C218.053 34.696 217.857 34.828 217.689 34.996C217.529 35.164 217.401 35.364 217.305 35.596C217.217 35.82 217.173 36.068 217.173 36.34V36.424H220.725V36.292C220.725 36.02 220.681 35.772 220.593 35.548C220.513 35.324 220.397 35.132 220.245 34.972C220.101 34.804 219.921 34.676 219.705 34.588C219.497 34.5 219.265 34.456 219.009 34.456Z" fill="#E69C46"/>
<path d="M226.457 40C225.985 40 225.637 39.868 225.413 39.604C225.197 39.34 225.089 39 225.089 38.584V34.624H223.025V33.808H224.561C224.769 33.808 224.913 33.768 224.993 33.688C225.081 33.6 225.125 33.452 225.125 33.244V31.624H226.049V33.808H228.869V34.624H226.049V39.184H228.869V40H226.457Z" fill="#E69C46"/>
<path d="M240.931 32.44C240.651 32.44 240.455 32.384 240.343 32.272C240.231 32.152 240.175 32.004 240.175 31.828V31.636C240.175 31.46 240.231 31.316 240.343 31.204C240.455 31.084 240.651 31.024 240.931 31.024C241.211 31.024 241.407 31.084 241.519 31.204C241.631 31.316 241.687 31.46 241.687 31.636V31.828C241.687 32.004 241.631 32.152 241.519 32.272C241.407 32.384 241.211 32.44 240.931 32.44ZM238.219 39.184H240.451V34.624H238.219V33.808H241.411V39.184H243.499V40H238.219V39.184Z" fill="#E69C46"/>
<path d="M247.815 40.144C247.167 40.144 246.607 40.036 246.135 39.82C245.671 39.596 245.275 39.3 244.947 38.932L245.595 38.368C245.891 38.68 246.215 38.92 246.567 39.088C246.919 39.256 247.343 39.34 247.839 39.34C248.319 39.34 248.711 39.256 249.015 39.088C249.327 38.912 249.483 38.64 249.483 38.272C249.483 38.112 249.451 37.98 249.387 37.876C249.331 37.764 249.251 37.676 249.147 37.612C249.043 37.548 248.926 37.5 248.799 37.468C248.671 37.428 248.535 37.396 248.391 37.372L247.419 37.228C247.203 37.196 246.967 37.152 246.711 37.096C246.463 37.04 246.235 36.952 246.027 36.832C245.819 36.704 245.643 36.536 245.499 36.328C245.362 36.12 245.295 35.848 245.295 35.512C245.295 35.2 245.355 34.932 245.475 34.708C245.603 34.476 245.779 34.284 246.003 34.132C246.227 33.972 246.491 33.856 246.795 33.784C247.099 33.704 247.431 33.664 247.791 33.664C248.351 33.664 248.834 33.752 249.243 33.928C249.659 34.104 250.014 34.348 250.311 34.66L249.687 35.248C249.615 35.16 249.523 35.072 249.411 34.984C249.307 34.888 249.175 34.804 249.015 34.732C248.863 34.652 248.683 34.588 248.475 34.54C248.267 34.492 248.027 34.468 247.755 34.468C247.267 34.468 246.891 34.552 246.627 34.72C246.371 34.888 246.243 35.132 246.243 35.452C246.243 35.612 246.271 35.748 246.327 35.86C246.391 35.964 246.475 36.048 246.579 36.112C246.683 36.176 246.799 36.228 246.927 36.268C247.063 36.3 247.199 36.328 247.335 36.352L248.307 36.496C248.531 36.528 248.767 36.572 249.015 36.628C249.263 36.684 249.491 36.776 249.699 36.904C249.907 37.024 250.078 37.188 250.215 37.396C250.359 37.604 250.431 37.876 250.431 38.212C250.431 38.828 250.191 39.304 249.711 39.64C249.239 39.976 248.607 40.144 247.815 40.144Z" fill="#E69C46"/>
<path d="M259.709 40V33.808H260.669V34.816H260.717C260.781 34.664 260.861 34.52 260.957 34.384C261.053 34.24 261.169 34.116 261.305 34.012C261.449 33.908 261.617 33.824 261.809 33.76C262.001 33.696 262.225 33.664 262.481 33.664C263.129 33.664 263.649 33.872 264.041 34.288C264.433 34.696 264.629 35.276 264.629 36.028V40H263.669V36.196C263.669 35.628 263.545 35.208 263.297 34.936C263.049 34.656 262.685 34.516 262.205 34.516C262.013 34.516 261.825 34.54 261.641 34.588C261.457 34.636 261.293 34.708 261.149 34.804C261.005 34.9 260.889 35.024 260.801 35.176C260.713 35.328 260.669 35.504 260.669 35.704V40H259.709Z" fill="#E69C46"/>
<path d="M269.328 40.144C268.896 40.144 268.504 40.068 268.152 39.916C267.808 39.764 267.512 39.548 267.264 39.268C267.024 38.98 266.84 38.64 266.712 38.248C266.584 37.848 266.52 37.4 266.52 36.904C266.52 36.416 266.584 35.972 266.712 35.572C266.84 35.172 267.024 34.832 267.264 34.552C267.512 34.264 267.808 34.044 268.152 33.892C268.504 33.74 268.896 33.664 269.328 33.664C269.76 33.664 270.148 33.74 270.492 33.892C270.844 34.044 271.14 34.264 271.38 34.552C271.628 34.832 271.816 35.172 271.944 35.572C272.072 35.972 272.136 36.416 272.136 36.904C272.136 37.4 272.072 37.848 271.944 38.248C271.816 38.64 271.628 38.98 271.38 39.268C271.14 39.548 270.844 39.764 270.492 39.916C270.148 40.068 269.76 40.144 269.328 40.144ZM269.328 39.316C269.864 39.316 270.296 39.156 270.624 38.836C270.952 38.516 271.116 38.02 271.116 37.348V36.46C271.116 35.788 270.952 35.292 270.624 34.972C270.296 34.652 269.864 34.492 269.328 34.492C268.792 34.492 268.36 34.652 268.032 34.972C267.704 35.292 267.54 35.788 267.54 36.46V37.348C267.54 38.02 267.704 38.516 268.032 38.836C268.36 39.156 268.792 39.316 269.328 39.316Z" fill="#E69C46"/>
<path d="M276.824 40C276.352 40 276.004 39.868 275.78 39.604C275.564 39.34 275.456 39 275.456 38.584V34.624H273.392V33.808H274.928C275.136 33.808 275.28 33.768 275.36 33.688C275.448 33.6 275.492 33.452 275.492 33.244V31.624H276.416V33.808H279.236V34.624H276.416V39.184H279.236V40H276.824Z" fill="#E69C46"/>
<path d="M291.13 40.144C290.682 40.144 290.282 40.068 289.93 39.916C289.586 39.756 289.294 39.536 289.054 39.256C288.814 38.976 288.63 38.636 288.502 38.236C288.382 37.836 288.322 37.392 288.322 36.904C288.322 36.416 288.386 35.972 288.514 35.572C288.642 35.172 288.826 34.832 289.066 34.552C289.306 34.264 289.598 34.044 289.942 33.892C290.286 33.74 290.678 33.664 291.118 33.664C291.718 33.664 292.206 33.796 292.582 34.06C292.958 34.324 293.234 34.668 293.41 35.092L292.642 35.5C292.53 35.18 292.342 34.932 292.078 34.756C291.822 34.58 291.502 34.492 291.118 34.492C290.838 34.492 290.586 34.54 290.362 34.636C290.146 34.724 289.962 34.852 289.81 35.02C289.658 35.188 289.542 35.388 289.462 35.62C289.39 35.852 289.354 36.104 289.354 36.376V37.432C289.354 37.704 289.39 37.956 289.462 38.188C289.542 38.42 289.658 38.62 289.81 38.788C289.962 38.956 290.15 39.088 290.374 39.184C290.598 39.272 290.854 39.316 291.142 39.316C291.558 39.316 291.902 39.22 292.174 39.028C292.446 38.836 292.662 38.572 292.822 38.236L293.506 38.704C293.322 39.12 293.034 39.464 292.642 39.736C292.258 40.008 291.754 40.144 291.13 40.144Z" fill="#E69C46"/>
<path d="M298.11 40.144C297.678 40.144 297.286 40.068 296.934 39.916C296.59 39.764 296.294 39.548 296.046 39.268C295.806 38.98 295.622 38.64 295.494 38.248C295.366 37.848 295.302 37.4 295.302 36.904C295.302 36.416 295.366 35.972 295.494 35.572C295.622 35.172 295.806 34.832 296.046 34.552C296.294 34.264 296.59 34.044 296.934 33.892C297.286 33.74 297.678 33.664 298.11 33.664C298.542 33.664 298.93 33.74 299.274 33.892C299.626 34.044 299.922 34.264 300.162 34.552C300.41 34.832 300.598 35.172 300.726 35.572C300.854 35.972 300.918 36.416 300.918 36.904C300.918 37.4 300.854 37.848 300.726 38.248C300.598 38.64 300.41 38.98 300.162 39.268C299.922 39.548 299.626 39.764 299.274 39.916C298.93 40.068 298.542 40.144 298.11 40.144ZM298.11 39.316C298.646 39.316 299.078 39.156 299.406 38.836C299.734 38.516 299.898 38.02 299.898 37.348V36.46C299.898 35.788 299.734 35.292 299.406 34.972C299.078 34.652 298.646 34.492 298.11 34.492C297.574 34.492 297.142 34.652 296.814 34.972C296.486 35.292 296.322 35.788 296.322 36.46V37.348C296.322 38.02 296.486 38.516 296.814 38.836C297.142 39.156 297.574 39.316 298.11 39.316Z" fill="#E69C46"/>
<path d="M302.881 40V33.808H303.841V34.816H303.889C303.953 34.664 304.033 34.52 304.129 34.384C304.225 34.24 304.341 34.116 304.477 34.012C304.621 33.908 304.789 33.824 304.981 33.76C305.173 33.696 305.397 33.664 305.653 33.664C306.301 33.664 306.821 33.872 307.213 34.288C307.605 34.696 307.801 35.276 307.801 36.028V40H306.841V36.196C306.841 35.628 306.717 35.208 306.469 34.936C306.221 34.656 305.857 34.516 305.377 34.516C305.185 34.516 304.997 34.54 304.813 34.588C304.629 34.636 304.465 34.708 304.321 34.804C304.177 34.9 304.061 35.024 303.973 35.176C303.885 35.328 303.841 35.504 303.841 35.704V40H302.881Z" fill="#E69C46"/>
<path d="M310.076 40V33.808H311.036V34.816H311.084C311.148 34.664 311.228 34.52 311.324 34.384C311.42 34.24 311.536 34.116 311.672 34.012C311.816 33.908 311.984 33.824 312.176 33.76C312.368 33.696 312.592 33.664 312.848 33.664C313.496 33.664 314.016 33.872 314.408 34.288C314.8 34.696 314.996 35.276 314.996 36.028V40H314.036V36.196C314.036 35.628 313.912 35.208 313.664 34.936C313.416 34.656 313.052 34.516 312.572 34.516C312.38 34.516 312.192 34.54 312.008 34.588C311.824 34.636 311.66 34.708 311.516 34.804C311.372 34.9 311.256 35.024 311.168 35.176C311.08 35.328 311.036 35.504 311.036 35.704V40H310.076Z" fill="#E69C46"/>
<path d="M319.804 40.144C319.356 40.144 318.952 40.068 318.592 39.916C318.24 39.764 317.936 39.548 317.68 39.268C317.432 38.98 317.24 38.64 317.104 38.248C316.968 37.848 316.9 37.404 316.9 36.916C316.9 36.42 316.968 35.972 317.104 35.572C317.248 35.172 317.444 34.832 317.692 34.552C317.94 34.264 318.236 34.044 318.58 33.892C318.932 33.74 319.32 33.664 319.744 33.664C320.16 33.664 320.536 33.74 320.872 33.892C321.216 34.044 321.508 34.256 321.748 34.528C321.988 34.792 322.172 35.108 322.3 35.476C322.428 35.844 322.492 36.248 322.492 36.688V37.144H317.908V37.432C317.908 37.704 317.952 37.956 318.04 38.188C318.128 38.42 318.252 38.62 318.412 38.788C318.58 38.956 318.78 39.088 319.012 39.184C319.252 39.272 319.516 39.316 319.804 39.316C320.22 39.316 320.58 39.22 320.884 39.028C321.188 38.836 321.42 38.572 321.58 38.236L322.288 38.716C322.104 39.132 321.796 39.476 321.364 39.748C320.94 40.012 320.42 40.144 319.804 40.144ZM319.744 34.456C319.48 34.456 319.236 34.504 319.012 34.6C318.788 34.696 318.592 34.828 318.424 34.996C318.264 35.164 318.136 35.364 318.04 35.596C317.952 35.82 317.908 36.068 317.908 36.34V36.424H321.46V36.292C321.46 36.02 321.416 35.772 321.328 35.548C321.248 35.324 321.132 35.132 320.98 34.972C320.836 34.804 320.656 34.676 320.44 34.588C320.232 34.5 320 34.456 319.744 34.456Z" fill="#E69C46"/>
<path d="M327.107 40.144C326.659 40.144 326.259 40.068 325.907 39.916C325.563 39.756 325.271 39.536 325.031 39.256C324.791 38.976 324.607 38.636 324.479 38.236C324.359 37.836 324.299 37.392 324.299 36.904C324.299 36.416 324.363 35.972 324.491 35.572C324.619 35.172 324.803 34.832 325.043 34.552C325.283 34.264 325.575 34.044 325.919 33.892C326.263 33.74 326.655 33.664 327.095 33.664C327.695 33.664 328.183 33.796 328.559 34.06C328.935 34.324 329.211 34.668 329.387 35.092L328.619 35.5C328.507 35.18 328.319 34.932 328.055 34.756C327.799 34.58 327.479 34.492 327.095 34.492C326.815 34.492 326.563 34.54 326.339 34.636C326.123 34.724 325.939 34.852 325.787 35.02C325.635 35.188 325.519 35.388 325.439 35.62C325.367 35.852 325.331 36.104 325.331 36.376V37.432C325.331 37.704 325.367 37.956 325.439 38.188C325.519 38.42 325.635 38.62 325.787 38.788C325.939 38.956 326.127 39.088 326.351 39.184C326.575 39.272 326.831 39.316 327.119 39.316C327.535 39.316 327.879 39.22 328.151 39.028C328.423 38.836 328.639 38.572 328.799 38.236L329.483 38.704C329.299 39.12 329.011 39.464 328.619 39.736C328.235 40.008 327.731 40.144 327.107 40.144Z" fill="#E69C46"/>
<path d="M334.386 40C333.914 40 333.566 39.868 333.342 39.604C333.126 39.34 333.018 39 333.018 38.584V34.624H330.954V33.808H332.49C332.698 33.808 332.842 33.768 332.922 33.688C333.01 33.6 333.054 33.452 333.054 33.244V31.624H333.978V33.808H336.798V34.624H333.978V39.184H336.798V40H334.386Z" fill="#E69C46"/>
<path d="M341.39 40.144C340.942 40.144 340.538 40.068 340.178 39.916C339.826 39.764 339.522 39.548 339.266 39.268C339.018 38.98 338.826 38.64 338.69 38.248C338.554 37.848 338.486 37.404 338.486 36.916C338.486 36.42 338.554 35.972 338.69 35.572C338.834 35.172 339.03 34.832 339.278 34.552C339.526 34.264 339.822 34.044 340.166 33.892C340.518 33.74 340.906 33.664 341.33 33.664C341.746 33.664 342.122 33.74 342.458 33.892C342.802 34.044 343.094 34.256 343.334 34.528C343.574 34.792 343.758 35.108 343.886 35.476C344.014 35.844 344.078 36.248 344.078 36.688V37.144H339.494V37.432C339.494 37.704 339.538 37.956 339.626 38.188C339.714 38.42 339.838 38.62 339.998 38.788C340.166 38.956 340.366 39.088 340.598 39.184C340.838 39.272 341.102 39.316 341.39 39.316C341.806 39.316 342.166 39.22 342.47 39.028C342.774 38.836 343.006 38.572 343.166 38.236L343.874 38.716C343.69 39.132 343.382 39.476 342.95 39.748C342.526 40.012 342.006 40.144 341.39 40.144ZM341.33 34.456C341.066 34.456 340.822 34.504 340.598 34.6C340.374 34.696 340.178 34.828 340.01 34.996C339.85 35.164 339.722 35.364 339.626 35.596C339.538 35.82 339.494 36.068 339.494 36.34V36.424H343.046V36.292C343.046 36.02 343.002 35.772 342.914 35.548C342.834 35.324 342.718 35.132 342.566 34.972C342.422 34.804 342.242 34.676 342.026 34.588C341.818 34.5 341.586 34.456 341.33 34.456Z" fill="#E69C46"/>
<path d="M349.977 38.992H349.929C349.529 39.76 348.893 40.144 348.021 40.144C347.261 40.144 346.665 39.86 346.233 39.292C345.809 38.724 345.597 37.928 345.597 36.904C345.597 35.88 345.809 35.084 346.233 34.516C346.665 33.948 347.261 33.664 348.021 33.664C348.893 33.664 349.529 34.048 349.929 34.816H349.977V31.12H350.937V40H349.977V38.992ZM348.393 39.292C348.609 39.292 348.813 39.264 349.005 39.208C349.197 39.152 349.365 39.072 349.509 38.968C349.653 38.856 349.765 38.724 349.845 38.572C349.933 38.412 349.977 38.228 349.977 38.02V35.788C349.977 35.58 349.933 35.4 349.845 35.248C349.765 35.088 349.653 34.956 349.509 34.852C349.365 34.74 349.197 34.656 349.005 34.6C348.813 34.544 348.609 34.516 348.393 34.516C347.833 34.516 347.397 34.688 347.085 35.032C346.781 35.368 346.629 35.816 346.629 36.376V37.432C346.629 37.992 346.781 38.444 347.085 38.788C347.397 39.124 347.833 39.292 348.393 39.292Z" fill="#E69C46"/>
<defs>
<linearGradient id="paint0_linear_1638_5981" x1="17" y1="115.009" x2="40.997" y2="115.009" gradientUnits="userSpaceOnUse">
<stop stop-color="#0BADF4"/>
<stop offset="0.9341" stop-color="#30EFE4"/>
</linearGradient>
</defs>
</svg>
