<svg width="280" height="214" viewBox="0 0 280 214" fill="none" xmlns="http://www.w3.org/2000/svg">
<rect x="1" y="1" width="278" height="100" rx="12" fill="#181A1F" stroke="#23252C"/>
<path d="M53.8 32.192C53.1173 32.192 52.5307 32.064 52.04 31.808C51.5493 31.5413 51.144 31.1627 50.824 30.672C50.504 30.1813 50.2693 29.5787 50.12 28.864C49.9707 28.1493 49.896 27.3333 49.896 26.416C49.896 25.5093 49.9707 24.6987 50.12 23.984C50.2693 23.2587 50.504 22.6507 50.824 22.16C51.144 21.6693 51.5493 21.296 52.04 21.04C52.5307 20.7733 53.1173 20.64 53.8 20.64C54.4827 20.64 55.0693 20.7733 55.56 21.04C56.0507 21.296 56.456 21.6693 56.776 22.16C57.096 22.6507 57.3307 23.2587 57.48 23.984C57.6293 24.6987 57.704 25.5093 57.704 26.416C57.704 27.3333 57.6293 28.1493 57.48 28.864C57.3307 29.5787 57.096 30.1813 56.776 30.672C56.456 31.1627 56.0507 31.5413 55.56 31.808C55.0693 32.064 54.4827 32.192 53.8 32.192ZM53.8 31.024C54.248 31.024 54.632 30.9387 54.952 30.768C55.272 30.5867 55.528 30.336 55.72 30.016C55.9227 29.696 56.072 29.312 56.168 28.864C56.264 28.4053 56.312 27.8933 56.312 27.328V25.504C56.312 24.9493 56.264 24.4427 56.168 23.984C56.072 23.5253 55.9227 23.136 55.72 22.816C55.528 22.496 55.272 22.2507 54.952 22.08C54.632 21.8987 54.248 21.808 53.8 21.808C53.352 21.808 52.968 21.8987 52.648 22.08C52.328 22.2507 52.0667 22.496 51.864 22.816C51.672 23.136 51.528 23.5253 51.432 23.984C51.336 24.4427 51.288 24.9493 51.288 25.504V27.328C51.288 27.8933 51.336 28.4053 51.432 28.864C51.528 29.312 51.672 29.696 51.864 30.016C52.0667 30.336 52.328 30.5867 52.648 30.768C52.968 30.9387 53.352 31.024 53.8 31.024ZM53.8 27.36C53.4267 27.36 53.1653 27.2853 53.016 27.136C52.8773 26.9867 52.808 26.8053 52.808 26.592V26.24C52.808 26.0267 52.8773 25.8453 53.016 25.696C53.1653 25.5467 53.4267 25.472 53.8 25.472C54.1733 25.472 54.4293 25.5467 54.568 25.696C54.7173 25.8453 54.792 26.0267 54.792 26.24V26.592C54.792 26.8053 54.7173 26.9867 54.568 27.136C54.4293 27.2853 54.1733 27.36 53.8 27.36Z" fill="#55575F"/>
<path d="M63.3937 32.144C62.9564 32.144 62.6471 32.0533 62.4657 31.872C62.2951 31.6907 62.2097 31.4613 62.2097 31.184V30.896C62.2097 30.6187 62.2951 30.3893 62.4657 30.208C62.6471 30.0267 62.9564 29.936 63.3937 29.936C63.8311 29.936 64.1351 30.0267 64.3057 30.208C64.4871 30.3893 64.5777 30.6187 64.5777 30.896V31.184C64.5777 31.4613 64.4871 31.6907 64.3057 31.872C64.1351 32.0533 63.8311 32.144 63.3937 32.144Z" fill="#55575F"/>
<path d="M72.9875 32.192C72.3048 32.192 71.7182 32.064 71.2275 31.808C70.7368 31.5413 70.3315 31.1627 70.0115 30.672C69.6915 30.1813 69.4568 29.5787 69.3075 28.864C69.1582 28.1493 69.0835 27.3333 69.0835 26.416C69.0835 25.5093 69.1582 24.6987 69.3075 23.984C69.4568 23.2587 69.6915 22.6507 70.0115 22.16C70.3315 21.6693 70.7368 21.296 71.2275 21.04C71.7182 20.7733 72.3048 20.64 72.9875 20.64C73.6702 20.64 74.2568 20.7733 74.7475 21.04C75.2382 21.296 75.6435 21.6693 75.9635 22.16C76.2835 22.6507 76.5182 23.2587 76.6675 23.984C76.8168 24.6987 76.8915 25.5093 76.8915 26.416C76.8915 27.3333 76.8168 28.1493 76.6675 28.864C76.5182 29.5787 76.2835 30.1813 75.9635 30.672C75.6435 31.1627 75.2382 31.5413 74.7475 31.808C74.2568 32.064 73.6702 32.192 72.9875 32.192ZM72.9875 31.024C73.4355 31.024 73.8195 30.9387 74.1395 30.768C74.4595 30.5867 74.7155 30.336 74.9075 30.016C75.1102 29.696 75.2595 29.312 75.3555 28.864C75.4515 28.4053 75.4995 27.8933 75.4995 27.328V25.504C75.4995 24.9493 75.4515 24.4427 75.3555 23.984C75.2595 23.5253 75.1102 23.136 74.9075 22.816C74.7155 22.496 74.4595 22.2507 74.1395 22.08C73.8195 21.8987 73.4355 21.808 72.9875 21.808C72.5395 21.808 72.1555 21.8987 71.8355 22.08C71.5155 22.2507 71.2542 22.496 71.0515 22.816C70.8595 23.136 70.7155 23.5253 70.6195 23.984C70.5235 24.4427 70.4755 24.9493 70.4755 25.504V27.328C70.4755 27.8933 70.5235 28.4053 70.6195 28.864C70.7155 29.312 70.8595 29.696 71.0515 30.016C71.2542 30.336 71.5155 30.5867 71.8355 30.768C72.1555 30.9387 72.5395 31.024 72.9875 31.024ZM72.9875 27.36C72.6142 27.36 72.3528 27.2853 72.2035 27.136C72.0648 26.9867 71.9955 26.8053 71.9955 26.592V26.24C71.9955 26.0267 72.0648 25.8453 72.2035 25.696C72.3528 25.5467 72.6142 25.472 72.9875 25.472C73.3608 25.472 73.6168 25.5467 73.7555 25.696C73.9048 25.8453 73.9795 26.0267 73.9795 26.24V26.592C73.9795 26.8053 73.9048 26.9867 73.7555 27.136C73.6168 27.2853 73.3608 27.36 72.9875 27.36Z" fill="#55575F"/>
<path d="M82.5812 32.192C81.8986 32.192 81.3119 32.064 80.8212 31.808C80.3306 31.5413 79.9252 31.1627 79.6052 30.672C79.2852 30.1813 79.0506 29.5787 78.9012 28.864C78.7519 28.1493 78.6772 27.3333 78.6772 26.416C78.6772 25.5093 78.7519 24.6987 78.9012 23.984C79.0506 23.2587 79.2852 22.6507 79.6052 22.16C79.9252 21.6693 80.3306 21.296 80.8212 21.04C81.3119 20.7733 81.8986 20.64 82.5812 20.64C83.2639 20.64 83.8506 20.7733 84.3412 21.04C84.8319 21.296 85.2372 21.6693 85.5572 22.16C85.8772 22.6507 86.1119 23.2587 86.2612 23.984C86.4106 24.6987 86.4852 25.5093 86.4852 26.416C86.4852 27.3333 86.4106 28.1493 86.2612 28.864C86.1119 29.5787 85.8772 30.1813 85.5572 30.672C85.2372 31.1627 84.8319 31.5413 84.3412 31.808C83.8506 32.064 83.2639 32.192 82.5812 32.192ZM82.5812 31.024C83.0292 31.024 83.4132 30.9387 83.7332 30.768C84.0532 30.5867 84.3092 30.336 84.5012 30.016C84.7039 29.696 84.8532 29.312 84.9492 28.864C85.0452 28.4053 85.0932 27.8933 85.0932 27.328V25.504C85.0932 24.9493 85.0452 24.4427 84.9492 23.984C84.8532 23.5253 84.7039 23.136 84.5012 22.816C84.3092 22.496 84.0532 22.2507 83.7332 22.08C83.4132 21.8987 83.0292 21.808 82.5812 21.808C82.1332 21.808 81.7492 21.8987 81.4292 22.08C81.1092 22.2507 80.8479 22.496 80.6452 22.816C80.4532 23.136 80.3092 23.5253 80.2132 23.984C80.1172 24.4427 80.0692 24.9493 80.0692 25.504V27.328C80.0692 27.8933 80.1172 28.4053 80.2132 28.864C80.3092 29.312 80.4532 29.696 80.6452 30.016C80.8479 30.336 81.1092 30.5867 81.4292 30.768C81.7492 30.9387 82.1332 31.024 82.5812 31.024ZM82.5812 27.36C82.2079 27.36 81.9466 27.2853 81.7972 27.136C81.6586 26.9867 81.5892 26.8053 81.5892 26.592V26.24C81.5892 26.0267 81.6586 25.8453 81.7972 25.696C81.9466 25.5467 82.2079 25.472 82.5812 25.472C82.9546 25.472 83.2106 25.5467 83.3492 25.696C83.4986 25.8453 83.5732 26.0267 83.5732 26.24V26.592C83.5732 26.8053 83.4986 26.9867 83.3492 27.136C83.2106 27.2853 82.9546 27.36 82.5812 27.36Z" fill="#55575F"/>
<path d="M94.624 20.832V27.536C94.624 28.08 94.64 28.5653 94.672 28.992C94.704 29.4187 94.7894 29.7867 94.928 30.096C95.0667 30.3947 95.28 30.624 95.568 30.784C95.8667 30.944 96.2774 31.024 96.8 31.024C97.3227 31.024 97.728 30.944 98.016 30.784C98.3147 30.624 98.5334 30.3947 98.672 30.096C98.8107 29.7867 98.896 29.4187 98.928 28.992C98.96 28.5653 98.976 28.08 98.976 27.536V20.832H100.32V27.216C100.32 28.048 100.277 28.7733 100.192 29.392C100.117 30.0107 99.952 30.528 99.696 30.944C99.4507 31.36 99.0934 31.6747 98.624 31.888C98.1654 32.0907 97.5574 32.192 96.8 32.192C96.0427 32.192 95.4294 32.0907 94.96 31.888C94.5014 31.6747 94.144 31.36 93.888 30.944C93.6427 30.528 93.4774 30.0107 93.392 29.392C93.3174 28.7733 93.28 28.048 93.28 27.216V20.832H94.624Z" fill="#55575F"/>
<path d="M106.362 32.192C105.359 32.192 104.538 32.0107 103.898 31.648C103.258 31.2747 102.73 30.8 102.314 30.224L103.29 29.424C103.727 29.968 104.186 30.3733 104.666 30.64C105.156 30.9067 105.738 31.04 106.41 31.04C107.22 31.04 107.839 30.8533 108.266 30.48C108.692 30.1067 108.906 29.584 108.906 28.912C108.906 28.368 108.751 27.9467 108.442 27.648C108.132 27.3387 107.594 27.12 106.826 26.992L105.578 26.784C105.034 26.688 104.575 26.544 104.202 26.352C103.839 26.16 103.546 25.9307 103.322 25.664C103.098 25.3867 102.938 25.088 102.842 24.768C102.746 24.4373 102.698 24.096 102.698 23.744C102.698 22.72 103.034 21.9467 103.706 21.424C104.378 20.9013 105.284 20.64 106.426 20.64C107.322 20.64 108.074 20.7893 108.682 21.088C109.3 21.3867 109.796 21.808 110.17 22.352L109.226 23.168C108.916 22.7627 108.543 22.432 108.106 22.176C107.668 21.92 107.103 21.792 106.41 21.792C105.652 21.792 105.071 21.952 104.666 22.272C104.26 22.592 104.058 23.072 104.058 23.712C104.058 24.2133 104.207 24.624 104.506 24.944C104.815 25.2533 105.364 25.4773 106.154 25.616L107.354 25.824C107.898 25.92 108.356 26.064 108.73 26.256C109.103 26.448 109.402 26.6773 109.626 26.944C109.86 27.2107 110.026 27.5093 110.122 27.84C110.218 28.1707 110.266 28.5173 110.266 28.88C110.266 29.9147 109.924 30.7253 109.242 31.312C108.57 31.8987 107.61 32.192 106.362 32.192Z" fill="#55575F"/>
<path d="M112.708 20.832H115.828C117.193 20.832 118.212 21.3013 118.884 22.24C119.556 23.1787 119.892 24.5707 119.892 26.416C119.892 28.2613 119.556 29.6533 118.884 30.592C118.212 31.5307 117.193 32 115.828 32H112.708V20.832ZM115.764 30.832C116.66 30.832 117.332 30.5227 117.78 29.904C118.238 29.2853 118.468 28.4107 118.468 27.28V25.552C118.468 24.4213 118.238 23.5467 117.78 22.928C117.332 22.3093 116.66 22 115.764 22H114.052V30.832H115.764Z" fill="#55575F"/>
<path d="M125.949 32.192C124.584 32.192 123.565 31.696 122.893 30.704C122.232 29.712 121.901 28.2827 121.901 26.416C121.901 24.5493 122.232 23.12 122.893 22.128C123.565 21.136 124.584 20.64 125.949 20.64C126.461 20.64 126.904 20.7093 127.277 20.848C127.651 20.9867 127.971 21.1733 128.237 21.408C128.504 21.6427 128.728 21.9093 128.909 22.208C129.091 22.496 129.251 22.7893 129.389 23.088L128.237 23.616C128.141 23.3707 128.029 23.1413 127.901 22.928C127.773 22.704 127.619 22.512 127.437 22.352C127.267 22.1813 127.059 22.048 126.813 21.952C126.579 21.856 126.291 21.808 125.949 21.808C125.064 21.808 124.403 22.144 123.965 22.816C123.539 23.488 123.325 24.384 123.325 25.504V27.328C123.325 28.448 123.539 29.344 123.965 30.016C124.403 30.688 125.064 31.024 125.949 31.024C126.291 31.024 126.579 30.976 126.813 30.88C127.059 30.784 127.267 30.656 127.437 30.496C127.619 30.3253 127.773 30.1333 127.901 29.92C128.029 29.696 128.141 29.4613 128.237 29.216L129.389 29.744C129.251 30.0533 129.091 30.352 128.909 30.64C128.728 30.928 128.504 31.1893 128.237 31.424C127.971 31.6587 127.651 31.8453 127.277 31.984C126.904 32.1227 126.461 32.192 125.949 32.192Z" fill="#55575F"/>
<path d="M29 37C35.65 37 41 31.65 41 25C41 18.35 35.65 13 29 13C22.35 13 17 18.35 17 25C17 31.65 22.35 37 29 37Z" fill="#55575F"/>
<path d="M32.3001 26.8999C32.3001 25.15 31.2501 24.55 29.1501 24.3C27.6501 24.1 27.3501 23.7 27.3501 22.9999C27.3501 22.2999 27.8501 21.85 28.8501 21.85C29.7501 21.85 30.2501 22.15 30.5001 22.9C30.5501 23.05 30.7001 23.1499 30.8501 23.1499H31.65C31.8501 23.1499 32.0001 22.9999 32.0001 22.8V22.75C31.8 21.6499 30.9 20.8 29.7501 20.7V19.5C29.7501 19.3 29.6001 19.15 29.3501 19.0999H28.6001C28.4001 19.0999 28.2501 19.2499 28.2 19.5V20.65C26.7 20.85 25.7501 21.85 25.7501 23.1C25.7501 24.75 26.7501 25.3999 28.8501 25.65C30.2501 25.9 30.7001 26.2 30.7001 27C30.7001 27.8001 30 28.35 29.0501 28.35C27.75 28.35 27.3 27.7999 27.15 27.0499C27.1001 26.85 26.9501 26.7499 26.8001 26.7499H25.95C25.7501 26.7499 25.6001 26.8999 25.6001 27.1V27.15C25.8 28.3999 26.6001 29.2999 28.2501 29.55V30.75C28.2501 30.9499 28.4001 31.0999 28.65 31.15H29.4C29.6001 31.15 29.7501 31 29.8001 30.75V29.55C31.3001 29.2999 32.3001 28.2499 32.3001 26.8999V26.8999Z" fill="#6F7380"/>
<path d="M26.45 32.1499C22.55 30.75 20.55 26.4 22 22.55C22.75 20.45 24.4 18.85 26.45 18.1C26.65 18 26.75 17.85 26.75 17.6V16.9C26.75 16.7 26.65 16.55 26.45 16.5C26.4 16.5 26.3 16.5 26.25 16.55C21.5 18.05 18.9 23.1 20.4 27.85C21.3 30.65 23.45 32.8 26.25 33.7C26.45 33.8 26.65 33.7 26.7 33.4999C26.75 33.45 26.75 33.4 26.75 33.3V32.5999C26.75 32.4499 26.6 32.25 26.45 32.1499ZM31.75 16.55C31.55 16.45 31.35 16.55 31.3 16.75C31.25 16.8 31.25 16.85 31.25 16.95V17.65C31.25 17.85 31.4 18.05 31.55 18.15C35.45 19.55 37.45 23.9 36 27.75C35.25 29.85 33.6 31.45 31.55 32.2C31.35 32.3 31.25 32.45 31.25 32.7V33.4C31.25 33.6 31.35 33.75 31.55 33.7999C31.6 33.7999 31.7 33.8 31.75 33.75C36.5 32.25 39.1 27.2 37.6 22.45C36.7 19.6 34.5 17.45 31.75 16.55V16.55Z" fill="#6F7380"/>
<rect x="17" y="45" width="246" height="40" rx="8" fill="#202229"/>
<path d="M64.0961 70V66.712L61.2041 61.624H62.3561L63.5561 63.808L64.5761 65.716H64.6241L65.6681 63.808L66.8681 61.624H67.9961L65.1041 66.712V70H64.0961Z" fill="#55575F"/>
<path d="M71.7954 70.144C71.3634 70.144 70.9714 70.068 70.6194 69.916C70.2754 69.764 69.9794 69.548 69.7314 69.268C69.4914 68.98 69.3074 68.64 69.1794 68.248C69.0514 67.848 68.9874 67.4 68.9874 66.904C68.9874 66.416 69.0514 65.972 69.1794 65.572C69.3074 65.172 69.4914 64.832 69.7314 64.552C69.9794 64.264 70.2754 64.044 70.6194 63.892C70.9714 63.74 71.3634 63.664 71.7954 63.664C72.2274 63.664 72.6154 63.74 72.9594 63.892C73.3114 64.044 73.6074 64.264 73.8474 64.552C74.0954 64.832 74.2834 65.172 74.4114 65.572C74.5394 65.972 74.6034 66.416 74.6034 66.904C74.6034 67.4 74.5394 67.848 74.4114 68.248C74.2834 68.64 74.0954 68.98 73.8474 69.268C73.6074 69.548 73.3114 69.764 72.9594 69.916C72.6154 70.068 72.2274 70.144 71.7954 70.144ZM71.7954 69.316C72.3314 69.316 72.7634 69.156 73.0914 68.836C73.4194 68.516 73.5834 68.02 73.5834 67.348V66.46C73.5834 65.788 73.4194 65.292 73.0914 64.972C72.7634 64.652 72.3314 64.492 71.7954 64.492C71.2594 64.492 70.8274 64.652 70.4994 64.972C70.1714 65.292 70.0074 65.788 70.0074 66.46V67.348C70.0074 68.02 70.1714 68.516 70.4994 68.836C70.8274 69.156 71.2594 69.316 71.7954 69.316Z" fill="#55575F"/>
<path d="M80.4547 68.992H80.4067C80.3427 69.144 80.2627 69.292 80.1667 69.436C80.0707 69.572 79.9507 69.692 79.8067 69.796C79.6707 69.9 79.5067 69.984 79.3147 70.048C79.1227 70.112 78.8987 70.144 78.6427 70.144C77.9947 70.144 77.4747 69.94 77.0827 69.532C76.6907 69.116 76.4947 68.532 76.4947 67.78V63.808H77.4547V67.612C77.4547 68.18 77.5787 68.604 77.8267 68.884C78.0747 69.156 78.4387 69.292 78.9187 69.292C79.1107 69.292 79.2987 69.268 79.4827 69.22C79.6667 69.172 79.8307 69.1 79.9747 69.004C80.1187 68.908 80.2347 68.788 80.3227 68.644C80.4107 68.492 80.4547 68.312 80.4547 68.104V63.808H81.4147V70H80.4547V68.992Z" fill="#55575F"/>
<path d="M90.9574 61.12H91.9174V64.816H91.9654C92.0294 64.664 92.1094 64.52 92.2054 64.384C92.3014 64.24 92.4174 64.116 92.5534 64.012C92.6974 63.908 92.8654 63.824 93.0574 63.76C93.2494 63.696 93.4734 63.664 93.7294 63.664C94.3774 63.664 94.8974 63.872 95.2894 64.288C95.6814 64.696 95.8774 65.276 95.8774 66.028V70H94.9174V66.196C94.9174 65.628 94.7934 65.208 94.5454 64.936C94.2974 64.656 93.9334 64.516 93.4534 64.516C93.2614 64.516 93.0734 64.54 92.8894 64.588C92.7054 64.636 92.5414 64.708 92.3974 64.804C92.2534 64.9 92.1374 65.024 92.0494 65.176C91.9614 65.328 91.9174 65.504 91.9174 65.704V70H90.9574V61.12Z" fill="#55575F"/>
<path d="M102.917 70C102.541 70 102.273 69.904 102.113 69.712C101.953 69.52 101.853 69.28 101.813 68.992H101.753C101.617 69.352 101.397 69.636 101.093 69.844C100.797 70.044 100.397 70.144 99.8927 70.144C99.2447 70.144 98.7287 69.976 98.3447 69.64C97.9607 69.304 97.7687 68.844 97.7687 68.26C97.7687 67.684 97.9767 67.24 98.3927 66.928C98.8167 66.616 99.4967 66.46 100.433 66.46H101.753V65.848C101.753 65.392 101.625 65.052 101.369 64.828C101.113 64.596 100.749 64.48 100.277 64.48C99.8607 64.48 99.5207 64.564 99.2567 64.732C98.9927 64.892 98.7807 65.112 98.6207 65.392L97.9727 64.912C98.0527 64.752 98.1607 64.596 98.2967 64.444C98.4327 64.292 98.6007 64.16 98.8007 64.048C99.0007 63.928 99.2287 63.836 99.4847 63.772C99.7407 63.7 100.025 63.664 100.337 63.664C101.065 63.664 101.641 63.848 102.065 64.216C102.497 64.584 102.713 65.096 102.713 65.752V69.16H103.577V70H102.917ZM100.061 69.34C100.309 69.34 100.533 69.312 100.733 69.256C100.941 69.192 101.121 69.112 101.273 69.016C101.425 68.912 101.541 68.792 101.621 68.656C101.709 68.512 101.753 68.36 101.753 68.2V67.18H100.433C99.8567 67.18 99.4367 67.26 99.1727 67.42C98.9087 67.58 98.7767 67.812 98.7767 68.116V68.368C98.7767 68.688 98.8887 68.932 99.1127 69.1C99.3447 69.26 99.6607 69.34 100.061 69.34Z" fill="#55575F"/>
<path d="M107.16 70L104.94 63.808H105.912L106.8 66.4L107.76 69.196H107.808L108.768 66.4L109.656 63.808H110.604L108.384 70H107.16Z" fill="#55575F"/>
<path d="M115.075 70.144C114.627 70.144 114.223 70.068 113.863 69.916C113.511 69.764 113.207 69.548 112.951 69.268C112.703 68.98 112.511 68.64 112.375 68.248C112.239 67.848 112.171 67.404 112.171 66.916C112.171 66.42 112.239 65.972 112.375 65.572C112.519 65.172 112.715 64.832 112.963 64.552C113.211 64.264 113.507 64.044 113.851 63.892C114.203 63.74 114.591 63.664 115.015 63.664C115.431 63.664 115.807 63.74 116.143 63.892C116.487 64.044 116.779 64.256 117.019 64.528C117.259 64.792 117.443 65.108 117.571 65.476C117.699 65.844 117.763 66.248 117.763 66.688V67.144H113.179V67.432C113.179 67.704 113.223 67.956 113.311 68.188C113.399 68.42 113.523 68.62 113.683 68.788C113.851 68.956 114.051 69.088 114.283 69.184C114.523 69.272 114.787 69.316 115.075 69.316C115.491 69.316 115.851 69.22 116.155 69.028C116.459 68.836 116.691 68.572 116.851 68.236L117.559 68.716C117.375 69.132 117.067 69.476 116.635 69.748C116.211 70.012 115.691 70.144 115.075 70.144ZM115.015 64.456C114.751 64.456 114.507 64.504 114.283 64.6C114.059 64.696 113.863 64.828 113.695 64.996C113.535 65.164 113.407 65.364 113.311 65.596C113.223 65.82 113.179 66.068 113.179 66.34V66.424H116.731V66.292C116.731 66.02 116.687 65.772 116.599 65.548C116.519 65.324 116.403 65.132 116.251 64.972C116.107 64.804 115.927 64.676 115.711 64.588C115.503 64.5 115.271 64.456 115.015 64.456Z" fill="#55575F"/>
<path d="M126.934 70V63.808H127.894V64.816H127.942C128.006 64.664 128.086 64.52 128.182 64.384C128.278 64.24 128.394 64.116 128.53 64.012C128.674 63.908 128.842 63.824 129.034 63.76C129.226 63.696 129.45 63.664 129.706 63.664C130.354 63.664 130.874 63.872 131.266 64.288C131.658 64.696 131.854 65.276 131.854 66.028V70H130.894V66.196C130.894 65.628 130.77 65.208 130.522 64.936C130.274 64.656 129.91 64.516 129.43 64.516C129.238 64.516 129.05 64.54 128.866 64.588C128.682 64.636 128.518 64.708 128.374 64.804C128.23 64.9 128.114 65.024 128.026 65.176C127.938 65.328 127.894 65.504 127.894 65.704V70H126.934Z" fill="#55575F"/>
<path d="M136.553 70.144C136.121 70.144 135.729 70.068 135.377 69.916C135.033 69.764 134.737 69.548 134.489 69.268C134.249 68.98 134.065 68.64 133.937 68.248C133.809 67.848 133.745 67.4 133.745 66.904C133.745 66.416 133.809 65.972 133.937 65.572C134.065 65.172 134.249 64.832 134.489 64.552C134.737 64.264 135.033 64.044 135.377 63.892C135.729 63.74 136.121 63.664 136.553 63.664C136.985 63.664 137.373 63.74 137.717 63.892C138.069 64.044 138.365 64.264 138.605 64.552C138.853 64.832 139.041 65.172 139.169 65.572C139.297 65.972 139.361 66.416 139.361 66.904C139.361 67.4 139.297 67.848 139.169 68.248C139.041 68.64 138.853 68.98 138.605 69.268C138.365 69.548 138.069 69.764 137.717 69.916C137.373 70.068 136.985 70.144 136.553 70.144ZM136.553 69.316C137.089 69.316 137.521 69.156 137.849 68.836C138.177 68.516 138.341 68.02 138.341 67.348V66.46C138.341 65.788 138.177 65.292 137.849 64.972C137.521 64.652 137.089 64.492 136.553 64.492C136.017 64.492 135.585 64.652 135.257 64.972C134.929 65.292 134.765 65.788 134.765 66.46V67.348C134.765 68.02 134.929 68.516 135.257 68.836C135.585 69.156 136.017 69.316 136.553 69.316Z" fill="#55575F"/>
<path d="M148.268 69.184H150.08V64.624H148.268V63.808H151.04V65.368H151.1C151.228 64.88 151.468 64.5 151.82 64.228C152.18 63.948 152.636 63.808 153.188 63.808H154.052V64.768H152.888C152.336 64.768 151.888 64.928 151.544 65.248C151.208 65.568 151.04 65.988 151.04 66.508V69.184H153.44V70H148.268V69.184Z" fill="#55575F"/>
<path d="M158.247 70.144C157.799 70.144 157.395 70.068 157.035 69.916C156.683 69.764 156.379 69.548 156.123 69.268C155.875 68.98 155.683 68.64 155.547 68.248C155.411 67.848 155.343 67.404 155.343 66.916C155.343 66.42 155.411 65.972 155.547 65.572C155.691 65.172 155.887 64.832 156.135 64.552C156.383 64.264 156.679 64.044 157.023 63.892C157.375 63.74 157.763 63.664 158.187 63.664C158.603 63.664 158.979 63.74 159.315 63.892C159.659 64.044 159.951 64.256 160.191 64.528C160.431 64.792 160.615 65.108 160.743 65.476C160.871 65.844 160.935 66.248 160.935 66.688V67.144H156.351V67.432C156.351 67.704 156.395 67.956 156.483 68.188C156.571 68.42 156.695 68.62 156.855 68.788C157.023 68.956 157.223 69.088 157.455 69.184C157.695 69.272 157.959 69.316 158.247 69.316C158.663 69.316 159.023 69.22 159.327 69.028C159.631 68.836 159.863 68.572 160.023 68.236L160.731 68.716C160.547 69.132 160.239 69.476 159.807 69.748C159.383 70.012 158.863 70.144 158.247 70.144ZM158.187 64.456C157.923 64.456 157.679 64.504 157.455 64.6C157.231 64.696 157.035 64.828 156.867 64.996C156.707 65.164 156.579 65.364 156.483 65.596C156.395 65.82 156.351 66.068 156.351 66.34V66.424H159.903V66.292C159.903 66.02 159.859 65.772 159.771 65.548C159.691 65.324 159.575 65.132 159.423 64.972C159.279 64.804 159.099 64.676 158.883 64.588C158.675 64.5 158.443 64.456 158.187 64.456Z" fill="#55575F"/>
<path d="M166.834 68.992H166.786C166.386 69.76 165.75 70.144 164.878 70.144C164.118 70.144 163.522 69.86 163.09 69.292C162.666 68.724 162.454 67.928 162.454 66.904C162.454 65.88 162.666 65.084 163.09 64.516C163.522 63.948 164.118 63.664 164.878 63.664C165.75 63.664 166.386 64.048 166.786 64.816H166.834V61.12H167.794V70H166.834V68.992ZM165.25 69.292C165.466 69.292 165.67 69.264 165.862 69.208C166.054 69.152 166.222 69.072 166.366 68.968C166.51 68.856 166.622 68.724 166.702 68.572C166.79 68.412 166.834 68.228 166.834 68.02V65.788C166.834 65.58 166.79 65.4 166.702 65.248C166.622 65.088 166.51 64.956 166.366 64.852C166.222 64.74 166.054 64.656 165.862 64.6C165.67 64.544 165.466 64.516 165.25 64.516C164.69 64.516 164.254 64.688 163.942 65.032C163.638 65.368 163.486 65.816 163.486 66.376V67.432C163.486 67.992 163.638 68.444 163.942 68.788C164.254 69.124 164.69 69.292 165.25 69.292Z" fill="#55575F"/>
<path d="M172.638 70.144C172.19 70.144 171.786 70.068 171.426 69.916C171.074 69.764 170.77 69.548 170.514 69.268C170.266 68.98 170.074 68.64 169.938 68.248C169.802 67.848 169.734 67.404 169.734 66.916C169.734 66.42 169.802 65.972 169.938 65.572C170.082 65.172 170.278 64.832 170.526 64.552C170.774 64.264 171.07 64.044 171.414 63.892C171.766 63.74 172.154 63.664 172.578 63.664C172.994 63.664 173.37 63.74 173.706 63.892C174.05 64.044 174.342 64.256 174.582 64.528C174.822 64.792 175.006 65.108 175.134 65.476C175.262 65.844 175.326 66.248 175.326 66.688V67.144H170.742V67.432C170.742 67.704 170.786 67.956 170.874 68.188C170.962 68.42 171.086 68.62 171.246 68.788C171.414 68.956 171.614 69.088 171.846 69.184C172.086 69.272 172.35 69.316 172.638 69.316C173.054 69.316 173.414 69.22 173.718 69.028C174.022 68.836 174.254 68.572 174.414 68.236L175.122 68.716C174.938 69.132 174.63 69.476 174.198 69.748C173.774 70.012 173.254 70.144 172.638 70.144ZM172.578 64.456C172.314 64.456 172.07 64.504 171.846 64.6C171.622 64.696 171.426 64.828 171.258 64.996C171.098 65.164 170.97 65.364 170.874 65.596C170.786 65.82 170.742 66.068 170.742 66.34V66.424H174.294V66.292C174.294 66.02 174.25 65.772 174.162 65.548C174.082 65.324 173.966 65.132 173.814 64.972C173.67 64.804 173.49 64.676 173.274 64.588C173.066 64.5 172.834 64.456 172.578 64.456Z" fill="#55575F"/>
<path d="M176.773 70V63.808H177.661V64.528H177.709C177.805 64.288 177.941 64.084 178.117 63.916C178.293 63.748 178.553 63.664 178.897 63.664C179.257 63.664 179.525 63.756 179.701 63.94C179.877 64.116 179.985 64.348 180.025 64.636H180.061C180.173 64.356 180.333 64.124 180.541 63.94C180.749 63.756 181.037 63.664 181.405 63.664C181.909 63.664 182.245 63.84 182.413 64.192C182.589 64.544 182.677 65.048 182.677 65.704V70H181.789V65.86C181.789 65.332 181.733 64.968 181.621 64.768C181.517 64.56 181.321 64.456 181.033 64.456C180.777 64.456 180.569 64.54 180.409 64.708C180.249 64.868 180.169 65.116 180.169 65.452V70H179.281V65.86C179.281 65.332 179.225 64.968 179.113 64.768C179.009 64.56 178.817 64.456 178.537 64.456C178.281 64.456 178.069 64.54 177.901 64.708C177.741 64.868 177.661 65.116 177.661 65.452V70H176.773Z" fill="#55575F"/>
<path d="M184.46 63.808H185.42V64.816H185.468C185.868 64.048 186.504 63.664 187.376 63.664C188.136 63.664 188.728 63.948 189.152 64.516C189.584 65.084 189.8 65.88 189.8 66.904C189.8 67.928 189.584 68.724 189.152 69.292C188.728 69.86 188.136 70.144 187.376 70.144C186.504 70.144 185.868 69.76 185.468 68.992H185.42V72.4H184.46V63.808ZM187.004 69.292C187.564 69.292 187.996 69.124 188.3 68.788C188.612 68.444 188.768 67.992 188.768 67.432V66.376C188.768 65.816 188.612 65.368 188.3 65.032C187.996 64.688 187.564 64.516 187.004 64.516C186.788 64.516 186.584 64.544 186.392 64.6C186.2 64.656 186.032 64.74 185.888 64.852C185.744 64.956 185.628 65.088 185.54 65.248C185.46 65.4 185.42 65.58 185.42 65.788V68.02C185.42 68.228 185.46 68.412 185.54 68.572C185.628 68.724 185.744 68.856 185.888 68.968C186.032 69.072 186.2 69.152 186.392 69.208C186.584 69.264 186.788 69.292 187.004 69.292Z" fill="#55575F"/>
<path d="M194.416 70C193.944 70 193.596 69.868 193.372 69.604C193.156 69.34 193.048 69 193.048 68.584V64.624H190.984V63.808H192.52C192.728 63.808 192.872 63.768 192.952 63.688C193.04 63.6 193.084 63.452 193.084 63.244V61.624H194.008V63.808H196.828V64.624H194.008V69.184H196.828V70H194.416Z" fill="#55575F"/>
<path d="M201.695 62.44C201.415 62.44 201.219 62.384 201.107 62.272C200.995 62.152 200.939 62.004 200.939 61.828V61.636C200.939 61.46 200.995 61.316 201.107 61.204C201.219 61.084 201.415 61.024 201.695 61.024C201.975 61.024 202.171 61.084 202.283 61.204C202.395 61.316 202.451 61.46 202.451 61.636V61.828C202.451 62.004 202.395 62.152 202.283 62.272C202.171 62.384 201.975 62.44 201.695 62.44ZM198.983 69.184H201.215V64.624H198.983V63.808H202.175V69.184H204.263V70H198.983V69.184Z" fill="#55575F"/>
<path d="M208.506 70.144C208.074 70.144 207.682 70.068 207.33 69.916C206.986 69.764 206.69 69.548 206.442 69.268C206.202 68.98 206.018 68.64 205.89 68.248C205.762 67.848 205.698 67.4 205.698 66.904C205.698 66.416 205.762 65.972 205.89 65.572C206.018 65.172 206.202 64.832 206.442 64.552C206.69 64.264 206.986 64.044 207.33 63.892C207.682 63.74 208.074 63.664 208.506 63.664C208.938 63.664 209.326 63.74 209.67 63.892C210.022 64.044 210.318 64.264 210.558 64.552C210.806 64.832 210.994 65.172 211.122 65.572C211.25 65.972 211.314 66.416 211.314 66.904C211.314 67.4 211.25 67.848 211.122 68.248C210.994 68.64 210.806 68.98 210.558 69.268C210.318 69.548 210.022 69.764 209.67 69.916C209.326 70.068 208.938 70.144 208.506 70.144ZM208.506 69.316C209.042 69.316 209.474 69.156 209.802 68.836C210.13 68.516 210.294 68.02 210.294 67.348V66.46C210.294 65.788 210.13 65.292 209.802 64.972C209.474 64.652 209.042 64.492 208.506 64.492C207.97 64.492 207.538 64.652 207.21 64.972C206.882 65.292 206.718 65.788 206.718 66.46V67.348C206.718 68.02 206.882 68.516 207.21 68.836C207.538 69.156 207.97 69.316 208.506 69.316Z" fill="#55575F"/>
<path d="M213.278 70V63.808H214.238V64.816H214.286C214.35 64.664 214.43 64.52 214.526 64.384C214.622 64.24 214.738 64.116 214.874 64.012C215.018 63.908 215.186 63.824 215.378 63.76C215.57 63.696 215.794 63.664 216.05 63.664C216.698 63.664 217.218 63.872 217.61 64.288C218.002 64.696 218.198 65.276 218.198 66.028V70H217.238V66.196C217.238 65.628 217.114 65.208 216.866 64.936C216.618 64.656 216.254 64.516 215.774 64.516C215.582 64.516 215.394 64.54 215.21 64.588C215.026 64.636 214.862 64.708 214.718 64.804C214.574 64.9 214.458 65.024 214.37 65.176C214.282 65.328 214.238 65.504 214.238 65.704V70H213.278Z" fill="#55575F"/>
<rect x="1" y="113" width="278" height="100" rx="12" fill="#181A1F" stroke="#23252C"/>
<rect x="17" y="157" width="246" height="40" rx="8" fill="#202229"/>
<path d="M64.0961 182V178.712L61.2041 173.624H62.3561L63.5561 175.808L64.5761 177.716H64.6241L65.6681 175.808L66.8681 173.624H67.9961L65.1041 178.712V182H64.0961Z" fill="#55575F"/>
<path d="M71.7954 182.144C71.3634 182.144 70.9714 182.068 70.6194 181.916C70.2754 181.764 69.9794 181.548 69.7314 181.268C69.4914 180.98 69.3074 180.64 69.1794 180.248C69.0514 179.848 68.9874 179.4 68.9874 178.904C68.9874 178.416 69.0514 177.972 69.1794 177.572C69.3074 177.172 69.4914 176.832 69.7314 176.552C69.9794 176.264 70.2754 176.044 70.6194 175.892C70.9714 175.74 71.3634 175.664 71.7954 175.664C72.2274 175.664 72.6154 175.74 72.9594 175.892C73.3114 176.044 73.6074 176.264 73.8474 176.552C74.0954 176.832 74.2834 177.172 74.4114 177.572C74.5394 177.972 74.6034 178.416 74.6034 178.904C74.6034 179.4 74.5394 179.848 74.4114 180.248C74.2834 180.64 74.0954 180.98 73.8474 181.268C73.6074 181.548 73.3114 181.764 72.9594 181.916C72.6154 182.068 72.2274 182.144 71.7954 182.144ZM71.7954 181.316C72.3314 181.316 72.7634 181.156 73.0914 180.836C73.4194 180.516 73.5834 180.02 73.5834 179.348V178.46C73.5834 177.788 73.4194 177.292 73.0914 176.972C72.7634 176.652 72.3314 176.492 71.7954 176.492C71.2594 176.492 70.8274 176.652 70.4994 176.972C70.1714 177.292 70.0074 177.788 70.0074 178.46V179.348C70.0074 180.02 70.1714 180.516 70.4994 180.836C70.8274 181.156 71.2594 181.316 71.7954 181.316Z" fill="#55575F"/>
<path d="M80.4547 180.992H80.4067C80.3427 181.144 80.2627 181.292 80.1667 181.436C80.0707 181.572 79.9507 181.692 79.8067 181.796C79.6707 181.9 79.5067 181.984 79.3147 182.048C79.1227 182.112 78.8987 182.144 78.6427 182.144C77.9947 182.144 77.4747 181.94 77.0827 181.532C76.6907 181.116 76.4947 180.532 76.4947 179.78V175.808H77.4547V179.612C77.4547 180.18 77.5787 180.604 77.8267 180.884C78.0747 181.156 78.4387 181.292 78.9187 181.292C79.1107 181.292 79.2987 181.268 79.4827 181.22C79.6667 181.172 79.8307 181.1 79.9747 181.004C80.1187 180.908 80.2347 180.788 80.3227 180.644C80.4107 180.492 80.4547 180.312 80.4547 180.104V175.808H81.4147V182H80.4547V180.992Z" fill="#55575F"/>
<path d="M90.9574 173.12H91.9174V176.816H91.9654C92.0294 176.664 92.1094 176.52 92.2054 176.384C92.3014 176.24 92.4174 176.116 92.5534 176.012C92.6974 175.908 92.8654 175.824 93.0574 175.76C93.2494 175.696 93.4734 175.664 93.7294 175.664C94.3774 175.664 94.8974 175.872 95.2894 176.288C95.6814 176.696 95.8774 177.276 95.8774 178.028V182H94.9174V178.196C94.9174 177.628 94.7934 177.208 94.5454 176.936C94.2974 176.656 93.9334 176.516 93.4534 176.516C93.2614 176.516 93.0734 176.54 92.8894 176.588C92.7054 176.636 92.5414 176.708 92.3974 176.804C92.2534 176.9 92.1374 177.024 92.0494 177.176C91.9614 177.328 91.9174 177.504 91.9174 177.704V182H90.9574V173.12Z" fill="#55575F"/>
<path d="M102.917 182C102.541 182 102.273 181.904 102.113 181.712C101.953 181.52 101.853 181.28 101.813 180.992H101.753C101.617 181.352 101.397 181.636 101.093 181.844C100.797 182.044 100.397 182.144 99.8927 182.144C99.2447 182.144 98.7287 181.976 98.3447 181.64C97.9607 181.304 97.7687 180.844 97.7687 180.26C97.7687 179.684 97.9767 179.24 98.3927 178.928C98.8167 178.616 99.4967 178.46 100.433 178.46H101.753V177.848C101.753 177.392 101.625 177.052 101.369 176.828C101.113 176.596 100.749 176.48 100.277 176.48C99.8607 176.48 99.5207 176.564 99.2567 176.732C98.9927 176.892 98.7807 177.112 98.6207 177.392L97.9727 176.912C98.0527 176.752 98.1607 176.596 98.2967 176.444C98.4327 176.292 98.6007 176.16 98.8007 176.048C99.0007 175.928 99.2287 175.836 99.4847 175.772C99.7407 175.7 100.025 175.664 100.337 175.664C101.065 175.664 101.641 175.848 102.065 176.216C102.497 176.584 102.713 177.096 102.713 177.752V181.16H103.577V182H102.917ZM100.061 181.34C100.309 181.34 100.533 181.312 100.733 181.256C100.941 181.192 101.121 181.112 101.273 181.016C101.425 180.912 101.541 180.792 101.621 180.656C101.709 180.512 101.753 180.36 101.753 180.2V179.18H100.433C99.8567 179.18 99.4367 179.26 99.1727 179.42C98.9087 179.58 98.7767 179.812 98.7767 180.116V180.368C98.7767 180.688 98.8887 180.932 99.1127 181.1C99.3447 181.26 99.6607 181.34 100.061 181.34Z" fill="#55575F"/>
<path d="M107.16 182L104.94 175.808H105.912L106.8 178.4L107.76 181.196H107.808L108.768 178.4L109.656 175.808H110.604L108.384 182H107.16Z" fill="#55575F"/>
<path d="M115.075 182.144C114.627 182.144 114.223 182.068 113.863 181.916C113.511 181.764 113.207 181.548 112.951 181.268C112.703 180.98 112.511 180.64 112.375 180.248C112.239 179.848 112.171 179.404 112.171 178.916C112.171 178.42 112.239 177.972 112.375 177.572C112.519 177.172 112.715 176.832 112.963 176.552C113.211 176.264 113.507 176.044 113.851 175.892C114.203 175.74 114.591 175.664 115.015 175.664C115.431 175.664 115.807 175.74 116.143 175.892C116.487 176.044 116.779 176.256 117.019 176.528C117.259 176.792 117.443 177.108 117.571 177.476C117.699 177.844 117.763 178.248 117.763 178.688V179.144H113.179V179.432C113.179 179.704 113.223 179.956 113.311 180.188C113.399 180.42 113.523 180.62 113.683 180.788C113.851 180.956 114.051 181.088 114.283 181.184C114.523 181.272 114.787 181.316 115.075 181.316C115.491 181.316 115.851 181.22 116.155 181.028C116.459 180.836 116.691 180.572 116.851 180.236L117.559 180.716C117.375 181.132 117.067 181.476 116.635 181.748C116.211 182.012 115.691 182.144 115.075 182.144ZM115.015 176.456C114.751 176.456 114.507 176.504 114.283 176.6C114.059 176.696 113.863 176.828 113.695 176.996C113.535 177.164 113.407 177.364 113.311 177.596C113.223 177.82 113.179 178.068 113.179 178.34V178.424H116.731V178.292C116.731 178.02 116.687 177.772 116.599 177.548C116.519 177.324 116.403 177.132 116.251 176.972C116.107 176.804 115.927 176.676 115.711 176.588C115.503 176.5 115.271 176.456 115.015 176.456Z" fill="#55575F"/>
<path d="M126.934 182V175.808H127.894V176.816H127.942C128.006 176.664 128.086 176.52 128.182 176.384C128.278 176.24 128.394 176.116 128.53 176.012C128.674 175.908 128.842 175.824 129.034 175.76C129.226 175.696 129.45 175.664 129.706 175.664C130.354 175.664 130.874 175.872 131.266 176.288C131.658 176.696 131.854 177.276 131.854 178.028V182H130.894V178.196C130.894 177.628 130.77 177.208 130.522 176.936C130.274 176.656 129.91 176.516 129.43 176.516C129.238 176.516 129.05 176.54 128.866 176.588C128.682 176.636 128.518 176.708 128.374 176.804C128.23 176.9 128.114 177.024 128.026 177.176C127.938 177.328 127.894 177.504 127.894 177.704V182H126.934Z" fill="#55575F"/>
<path d="M136.553 182.144C136.121 182.144 135.729 182.068 135.377 181.916C135.033 181.764 134.737 181.548 134.489 181.268C134.249 180.98 134.065 180.64 133.937 180.248C133.809 179.848 133.745 179.4 133.745 178.904C133.745 178.416 133.809 177.972 133.937 177.572C134.065 177.172 134.249 176.832 134.489 176.552C134.737 176.264 135.033 176.044 135.377 175.892C135.729 175.74 136.121 175.664 136.553 175.664C136.985 175.664 137.373 175.74 137.717 175.892C138.069 176.044 138.365 176.264 138.605 176.552C138.853 176.832 139.041 177.172 139.169 177.572C139.297 177.972 139.361 178.416 139.361 178.904C139.361 179.4 139.297 179.848 139.169 180.248C139.041 180.64 138.853 180.98 138.605 181.268C138.365 181.548 138.069 181.764 137.717 181.916C137.373 182.068 136.985 182.144 136.553 182.144ZM136.553 181.316C137.089 181.316 137.521 181.156 137.849 180.836C138.177 180.516 138.341 180.02 138.341 179.348V178.46C138.341 177.788 138.177 177.292 137.849 176.972C137.521 176.652 137.089 176.492 136.553 176.492C136.017 176.492 135.585 176.652 135.257 176.972C134.929 177.292 134.765 177.788 134.765 178.46V179.348C134.765 180.02 134.929 180.516 135.257 180.836C135.585 181.156 136.017 181.316 136.553 181.316Z" fill="#55575F"/>
<path d="M148.268 181.184H150.08V176.624H148.268V175.808H151.04V177.368H151.1C151.228 176.88 151.468 176.5 151.82 176.228C152.18 175.948 152.636 175.808 153.188 175.808H154.052V176.768H152.888C152.336 176.768 151.888 176.928 151.544 177.248C151.208 177.568 151.04 177.988 151.04 178.508V181.184H153.44V182H148.268V181.184Z" fill="#55575F"/>
<path d="M158.247 182.144C157.799 182.144 157.395 182.068 157.035 181.916C156.683 181.764 156.379 181.548 156.123 181.268C155.875 180.98 155.683 180.64 155.547 180.248C155.411 179.848 155.343 179.404 155.343 178.916C155.343 178.42 155.411 177.972 155.547 177.572C155.691 177.172 155.887 176.832 156.135 176.552C156.383 176.264 156.679 176.044 157.023 175.892C157.375 175.74 157.763 175.664 158.187 175.664C158.603 175.664 158.979 175.74 159.315 175.892C159.659 176.044 159.951 176.256 160.191 176.528C160.431 176.792 160.615 177.108 160.743 177.476C160.871 177.844 160.935 178.248 160.935 178.688V179.144H156.351V179.432C156.351 179.704 156.395 179.956 156.483 180.188C156.571 180.42 156.695 180.62 156.855 180.788C157.023 180.956 157.223 181.088 157.455 181.184C157.695 181.272 157.959 181.316 158.247 181.316C158.663 181.316 159.023 181.22 159.327 181.028C159.631 180.836 159.863 180.572 160.023 180.236L160.731 180.716C160.547 181.132 160.239 181.476 159.807 181.748C159.383 182.012 158.863 182.144 158.247 182.144ZM158.187 176.456C157.923 176.456 157.679 176.504 157.455 176.6C157.231 176.696 157.035 176.828 156.867 176.996C156.707 177.164 156.579 177.364 156.483 177.596C156.395 177.82 156.351 178.068 156.351 178.34V178.424H159.903V178.292C159.903 178.02 159.859 177.772 159.771 177.548C159.691 177.324 159.575 177.132 159.423 176.972C159.279 176.804 159.099 176.676 158.883 176.588C158.675 176.5 158.443 176.456 158.187 176.456Z" fill="#55575F"/>
<path d="M166.834 180.992H166.786C166.386 181.76 165.75 182.144 164.878 182.144C164.118 182.144 163.522 181.86 163.09 181.292C162.666 180.724 162.454 179.928 162.454 178.904C162.454 177.88 162.666 177.084 163.09 176.516C163.522 175.948 164.118 175.664 164.878 175.664C165.75 175.664 166.386 176.048 166.786 176.816H166.834V173.12H167.794V182H166.834V180.992ZM165.25 181.292C165.466 181.292 165.67 181.264 165.862 181.208C166.054 181.152 166.222 181.072 166.366 180.968C166.51 180.856 166.622 180.724 166.702 180.572C166.79 180.412 166.834 180.228 166.834 180.02V177.788C166.834 177.58 166.79 177.4 166.702 177.248C166.622 177.088 166.51 176.956 166.366 176.852C166.222 176.74 166.054 176.656 165.862 176.6C165.67 176.544 165.466 176.516 165.25 176.516C164.69 176.516 164.254 176.688 163.942 177.032C163.638 177.368 163.486 177.816 163.486 178.376V179.432C163.486 179.992 163.638 180.444 163.942 180.788C164.254 181.124 164.69 181.292 165.25 181.292Z" fill="#55575F"/>
<path d="M172.638 182.144C172.19 182.144 171.786 182.068 171.426 181.916C171.074 181.764 170.77 181.548 170.514 181.268C170.266 180.98 170.074 180.64 169.938 180.248C169.802 179.848 169.734 179.404 169.734 178.916C169.734 178.42 169.802 177.972 169.938 177.572C170.082 177.172 170.278 176.832 170.526 176.552C170.774 176.264 171.07 176.044 171.414 175.892C171.766 175.74 172.154 175.664 172.578 175.664C172.994 175.664 173.37 175.74 173.706 175.892C174.05 176.044 174.342 176.256 174.582 176.528C174.822 176.792 175.006 177.108 175.134 177.476C175.262 177.844 175.326 178.248 175.326 178.688V179.144H170.742V179.432C170.742 179.704 170.786 179.956 170.874 180.188C170.962 180.42 171.086 180.62 171.246 180.788C171.414 180.956 171.614 181.088 171.846 181.184C172.086 181.272 172.35 181.316 172.638 181.316C173.054 181.316 173.414 181.22 173.718 181.028C174.022 180.836 174.254 180.572 174.414 180.236L175.122 180.716C174.938 181.132 174.63 181.476 174.198 181.748C173.774 182.012 173.254 182.144 172.638 182.144ZM172.578 176.456C172.314 176.456 172.07 176.504 171.846 176.6C171.622 176.696 171.426 176.828 171.258 176.996C171.098 177.164 170.97 177.364 170.874 177.596C170.786 177.82 170.742 178.068 170.742 178.34V178.424H174.294V178.292C174.294 178.02 174.25 177.772 174.162 177.548C174.082 177.324 173.966 177.132 173.814 176.972C173.67 176.804 173.49 176.676 173.274 176.588C173.066 176.5 172.834 176.456 172.578 176.456Z" fill="#55575F"/>
<path d="M176.773 182V175.808H177.661V176.528H177.709C177.805 176.288 177.941 176.084 178.117 175.916C178.293 175.748 178.553 175.664 178.897 175.664C179.257 175.664 179.525 175.756 179.701 175.94C179.877 176.116 179.985 176.348 180.025 176.636H180.061C180.173 176.356 180.333 176.124 180.541 175.94C180.749 175.756 181.037 175.664 181.405 175.664C181.909 175.664 182.245 175.84 182.413 176.192C182.589 176.544 182.677 177.048 182.677 177.704V182H181.789V177.86C181.789 177.332 181.733 176.968 181.621 176.768C181.517 176.56 181.321 176.456 181.033 176.456C180.777 176.456 180.569 176.54 180.409 176.708C180.249 176.868 180.169 177.116 180.169 177.452V182H179.281V177.86C179.281 177.332 179.225 176.968 179.113 176.768C179.009 176.56 178.817 176.456 178.537 176.456C178.281 176.456 178.069 176.54 177.901 176.708C177.741 176.868 177.661 177.116 177.661 177.452V182H176.773Z" fill="#55575F"/>
<path d="M184.46 175.808H185.42V176.816H185.468C185.868 176.048 186.504 175.664 187.376 175.664C188.136 175.664 188.728 175.948 189.152 176.516C189.584 177.084 189.8 177.88 189.8 178.904C189.8 179.928 189.584 180.724 189.152 181.292C188.728 181.86 188.136 182.144 187.376 182.144C186.504 182.144 185.868 181.76 185.468 180.992H185.42V184.4H184.46V175.808ZM187.004 181.292C187.564 181.292 187.996 181.124 188.3 180.788C188.612 180.444 188.768 179.992 188.768 179.432V178.376C188.768 177.816 188.612 177.368 188.3 177.032C187.996 176.688 187.564 176.516 187.004 176.516C186.788 176.516 186.584 176.544 186.392 176.6C186.2 176.656 186.032 176.74 185.888 176.852C185.744 176.956 185.628 177.088 185.54 177.248C185.46 177.4 185.42 177.58 185.42 177.788V180.02C185.42 180.228 185.46 180.412 185.54 180.572C185.628 180.724 185.744 180.856 185.888 180.968C186.032 181.072 186.2 181.152 186.392 181.208C186.584 181.264 186.788 181.292 187.004 181.292Z" fill="#55575F"/>
<path d="M194.416 182C193.944 182 193.596 181.868 193.372 181.604C193.156 181.34 193.048 181 193.048 180.584V176.624H190.984V175.808H192.52C192.728 175.808 192.872 175.768 192.952 175.688C193.04 175.6 193.084 175.452 193.084 175.244V173.624H194.008V175.808H196.828V176.624H194.008V181.184H196.828V182H194.416Z" fill="#55575F"/>
<path d="M201.695 174.44C201.415 174.44 201.219 174.384 201.107 174.272C200.995 174.152 200.939 174.004 200.939 173.828V173.636C200.939 173.46 200.995 173.316 201.107 173.204C201.219 173.084 201.415 173.024 201.695 173.024C201.975 173.024 202.171 173.084 202.283 173.204C202.395 173.316 202.451 173.46 202.451 173.636V173.828C202.451 174.004 202.395 174.152 202.283 174.272C202.171 174.384 201.975 174.44 201.695 174.44ZM198.983 181.184H201.215V176.624H198.983V175.808H202.175V181.184H204.263V182H198.983V181.184Z" fill="#55575F"/>
<path d="M208.506 182.144C208.074 182.144 207.682 182.068 207.33 181.916C206.986 181.764 206.69 181.548 206.442 181.268C206.202 180.98 206.018 180.64 205.89 180.248C205.762 179.848 205.698 179.4 205.698 178.904C205.698 178.416 205.762 177.972 205.89 177.572C206.018 177.172 206.202 176.832 206.442 176.552C206.69 176.264 206.986 176.044 207.33 175.892C207.682 175.74 208.074 175.664 208.506 175.664C208.938 175.664 209.326 175.74 209.67 175.892C210.022 176.044 210.318 176.264 210.558 176.552C210.806 176.832 210.994 177.172 211.122 177.572C211.25 177.972 211.314 178.416 211.314 178.904C211.314 179.4 211.25 179.848 211.122 180.248C210.994 180.64 210.806 180.98 210.558 181.268C210.318 181.548 210.022 181.764 209.67 181.916C209.326 182.068 208.938 182.144 208.506 182.144ZM208.506 181.316C209.042 181.316 209.474 181.156 209.802 180.836C210.13 180.516 210.294 180.02 210.294 179.348V178.46C210.294 177.788 210.13 177.292 209.802 176.972C209.474 176.652 209.042 176.492 208.506 176.492C207.97 176.492 207.538 176.652 207.21 176.972C206.882 177.292 206.718 177.788 206.718 178.46V179.348C206.718 180.02 206.882 180.516 207.21 180.836C207.538 181.156 207.97 181.316 208.506 181.316Z" fill="#55575F"/>
<path d="M213.278 182V175.808H214.238V176.816H214.286C214.35 176.664 214.43 176.52 214.526 176.384C214.622 176.24 214.738 176.116 214.874 176.012C215.018 175.908 215.186 175.824 215.378 175.76C215.57 175.696 215.794 175.664 216.05 175.664C216.698 175.664 217.218 175.872 217.61 176.288C218.002 176.696 218.198 177.276 218.198 178.028V182H217.238V178.196C217.238 177.628 217.114 177.208 216.866 176.936C216.618 176.656 216.254 176.516 215.774 176.516C215.582 176.516 215.394 176.54 215.21 176.588C215.026 176.636 214.862 176.708 214.718 176.804C214.574 176.9 214.458 177.024 214.37 177.176C214.282 177.328 214.238 177.504 214.238 177.704V182H213.278Z" fill="#55575F"/>
<path d="M55.8 144.192C55.1173 144.192 54.5307 144.064 54.04 143.808C53.5493 143.541 53.144 143.163 52.824 142.672C52.504 142.181 52.2693 141.579 52.12 140.864C51.9707 140.149 51.896 139.333 51.896 138.416C51.896 137.509 51.9707 136.699 52.12 135.984C52.2693 135.259 52.504 134.651 52.824 134.16C53.144 133.669 53.5493 133.296 54.04 133.04C54.5307 132.773 55.1173 132.64 55.8 132.64C56.4827 132.64 57.0693 132.773 57.56 133.04C58.0507 133.296 58.456 133.669 58.776 134.16C59.096 134.651 59.3307 135.259 59.48 135.984C59.6293 136.699 59.704 137.509 59.704 138.416C59.704 139.333 59.6293 140.149 59.48 140.864C59.3307 141.579 59.096 142.181 58.776 142.672C58.456 143.163 58.0507 143.541 57.56 143.808C57.0693 144.064 56.4827 144.192 55.8 144.192ZM55.8 143.024C56.248 143.024 56.632 142.939 56.952 142.768C57.272 142.587 57.528 142.336 57.72 142.016C57.9227 141.696 58.072 141.312 58.168 140.864C58.264 140.405 58.312 139.893 58.312 139.328V137.504C58.312 136.949 58.264 136.443 58.168 135.984C58.072 135.525 57.9227 135.136 57.72 134.816C57.528 134.496 57.272 134.251 56.952 134.08C56.632 133.899 56.248 133.808 55.8 133.808C55.352 133.808 54.968 133.899 54.648 134.08C54.328 134.251 54.0667 134.496 53.864 134.816C53.672 135.136 53.528 135.525 53.432 135.984C53.336 136.443 53.288 136.949 53.288 137.504V139.328C53.288 139.893 53.336 140.405 53.432 140.864C53.528 141.312 53.672 141.696 53.864 142.016C54.0667 142.336 54.328 142.587 54.648 142.768C54.968 142.939 55.352 143.024 55.8 143.024ZM55.8 139.36C55.4267 139.36 55.1653 139.285 55.016 139.136C54.8773 138.987 54.808 138.805 54.808 138.592V138.24C54.808 138.027 54.8773 137.845 55.016 137.696C55.1653 137.547 55.4267 137.472 55.8 137.472C56.1733 137.472 56.4293 137.547 56.568 137.696C56.7173 137.845 56.792 138.027 56.792 138.24V138.592C56.792 138.805 56.7173 138.987 56.568 139.136C56.4293 139.285 56.1733 139.36 55.8 139.36Z" fill="#55575F"/>
<path d="M65.3937 144.144C64.9564 144.144 64.6471 144.053 64.4657 143.872C64.2951 143.691 64.2097 143.461 64.2097 143.184V142.896C64.2097 142.619 64.2951 142.389 64.4657 142.208C64.6471 142.027 64.9564 141.936 65.3937 141.936C65.8311 141.936 66.1351 142.027 66.3057 142.208C66.4871 142.389 66.5777 142.619 66.5777 142.896V143.184C66.5777 143.461 66.4871 143.691 66.3057 143.872C66.1351 144.053 65.8311 144.144 65.3937 144.144Z" fill="#55575F"/>
<path d="M74.9875 144.192C74.3048 144.192 73.7182 144.064 73.2275 143.808C72.7368 143.541 72.3315 143.163 72.0115 142.672C71.6915 142.181 71.4568 141.579 71.3075 140.864C71.1582 140.149 71.0835 139.333 71.0835 138.416C71.0835 137.509 71.1582 136.699 71.3075 135.984C71.4568 135.259 71.6915 134.651 72.0115 134.16C72.3315 133.669 72.7368 133.296 73.2275 133.04C73.7182 132.773 74.3048 132.64 74.9875 132.64C75.6702 132.64 76.2568 132.773 76.7475 133.04C77.2382 133.296 77.6435 133.669 77.9635 134.16C78.2835 134.651 78.5182 135.259 78.6675 135.984C78.8168 136.699 78.8915 137.509 78.8915 138.416C78.8915 139.333 78.8168 140.149 78.6675 140.864C78.5182 141.579 78.2835 142.181 77.9635 142.672C77.6435 143.163 77.2382 143.541 76.7475 143.808C76.2568 144.064 75.6702 144.192 74.9875 144.192ZM74.9875 143.024C75.4355 143.024 75.8195 142.939 76.1395 142.768C76.4595 142.587 76.7155 142.336 76.9075 142.016C77.1102 141.696 77.2595 141.312 77.3555 140.864C77.4515 140.405 77.4995 139.893 77.4995 139.328V137.504C77.4995 136.949 77.4515 136.443 77.3555 135.984C77.2595 135.525 77.1102 135.136 76.9075 134.816C76.7155 134.496 76.4595 134.251 76.1395 134.08C75.8195 133.899 75.4355 133.808 74.9875 133.808C74.5395 133.808 74.1555 133.899 73.8355 134.08C73.5155 134.251 73.2542 134.496 73.0515 134.816C72.8595 135.136 72.7155 135.525 72.6195 135.984C72.5235 136.443 72.4755 136.949 72.4755 137.504V139.328C72.4755 139.893 72.5235 140.405 72.6195 140.864C72.7155 141.312 72.8595 141.696 73.0515 142.016C73.2542 142.336 73.5155 142.587 73.8355 142.768C74.1555 142.939 74.5395 143.024 74.9875 143.024ZM74.9875 139.36C74.6142 139.36 74.3528 139.285 74.2035 139.136C74.0648 138.987 73.9955 138.805 73.9955 138.592V138.24C73.9955 138.027 74.0648 137.845 74.2035 137.696C74.3528 137.547 74.6142 137.472 74.9875 137.472C75.3608 137.472 75.6168 137.547 75.7555 137.696C75.9048 137.845 75.9795 138.027 75.9795 138.24V138.592C75.9795 138.805 75.9048 138.987 75.7555 139.136C75.6168 139.285 75.3608 139.36 74.9875 139.36Z" fill="#55575F"/>
<path d="M84.5812 144.192C83.8986 144.192 83.3119 144.064 82.8212 143.808C82.3306 143.541 81.9252 143.163 81.6052 142.672C81.2852 142.181 81.0506 141.579 80.9012 140.864C80.7519 140.149 80.6772 139.333 80.6772 138.416C80.6772 137.509 80.7519 136.699 80.9012 135.984C81.0506 135.259 81.2852 134.651 81.6052 134.16C81.9252 133.669 82.3306 133.296 82.8212 133.04C83.3119 132.773 83.8986 132.64 84.5812 132.64C85.2639 132.64 85.8506 132.773 86.3412 133.04C86.8319 133.296 87.2372 133.669 87.5572 134.16C87.8772 134.651 88.1119 135.259 88.2612 135.984C88.4106 136.699 88.4852 137.509 88.4852 138.416C88.4852 139.333 88.4106 140.149 88.2612 140.864C88.1119 141.579 87.8772 142.181 87.5572 142.672C87.2372 143.163 86.8319 143.541 86.3412 143.808C85.8506 144.064 85.2639 144.192 84.5812 144.192ZM84.5812 143.024C85.0292 143.024 85.4132 142.939 85.7332 142.768C86.0532 142.587 86.3092 142.336 86.5012 142.016C86.7039 141.696 86.8532 141.312 86.9492 140.864C87.0452 140.405 87.0932 139.893 87.0932 139.328V137.504C87.0932 136.949 87.0452 136.443 86.9492 135.984C86.8532 135.525 86.7039 135.136 86.5012 134.816C86.3092 134.496 86.0532 134.251 85.7332 134.08C85.4132 133.899 85.0292 133.808 84.5812 133.808C84.1332 133.808 83.7492 133.899 83.4292 134.08C83.1092 134.251 82.8479 134.496 82.6452 134.816C82.4532 135.136 82.3092 135.525 82.2132 135.984C82.1172 136.443 82.0692 136.949 82.0692 137.504V139.328C82.0692 139.893 82.1172 140.405 82.2132 140.864C82.3092 141.312 82.4532 141.696 82.6452 142.016C82.8479 142.336 83.1092 142.587 83.4292 142.768C83.7492 142.939 84.1332 143.024 84.5812 143.024ZM84.5812 139.36C84.2079 139.36 83.9466 139.285 83.7972 139.136C83.6586 138.987 83.5892 138.805 83.5892 138.592V138.24C83.5892 138.027 83.6586 137.845 83.7972 137.696C83.9466 137.547 84.2079 137.472 84.5812 137.472C84.9546 137.472 85.2106 137.547 85.3492 137.696C85.4986 137.845 85.5732 138.027 85.5732 138.24V138.592C85.5732 138.805 85.4986 138.987 85.3492 139.136C85.2106 139.285 84.9546 139.36 84.5812 139.36Z" fill="#55575F"/>
<path d="M39.3281 135.337C39.0952 135.337 38.8624 135.38 38.6508 135.485L30.5238 127.351C30.6085 127.139 30.672 126.928 30.672 126.673C30.672 125.741 29.9101 125 29 125C28.0899 125 27.328 125.763 27.328 126.673C27.328 126.906 27.3704 127.139 27.4762 127.351L19.3492 135.464C19.1376 135.38 18.9259 135.316 18.672 135.316C17.7407 135.316 17 136.079 17 136.989C17 137.9 17.7619 138.663 18.672 138.663C18.9048 138.663 19.1376 138.62 19.3492 138.515L27.4762 146.649C27.3915 146.861 27.328 147.072 27.328 147.327C27.328 148.259 28.0899 149 29 149C29.9101 149 30.672 148.237 30.672 147.327C30.672 147.093 30.6296 146.861 30.5238 146.649L38.6508 138.515C38.8624 138.599 39.074 138.663 39.3281 138.663C40.2593 138.663 41 137.9 41 136.989C41 136.079 40.2593 135.337 39.3281 135.337ZM37.7618 136.417L34.6085 137.18C34.3334 136.82 33.9101 136.566 33.4232 136.566C33.0635 136.566 32.746 136.693 32.4921 136.905L30.4391 135.951C30.4391 135.93 30.4391 135.93 30.4391 135.909C30.4391 135.316 30.1005 134.829 29.5926 134.596V128.241C29.6138 128.241 29.6349 128.22 29.6561 128.22L37.783 136.354C37.783 136.354 37.7618 136.396 37.7618 136.417ZM29 145.674C28.9577 145.674 28.9153 145.674 28.873 145.674L25.6984 138.959C25.91 138.705 26.037 138.387 26.037 138.027L28.1111 137.053C28.3651 137.244 28.6825 137.371 29 137.371C29.3386 137.371 29.6561 137.244 29.9101 137.053L31.9841 138.027C31.9841 138.027 31.9841 138.027 31.9841 138.049C31.9841 138.409 32.1111 138.726 32.3228 138.981L29.1058 145.674C29.0847 145.674 29.0423 145.674 29 145.674ZM28.3862 128.241V134.596C27.8995 134.829 27.5397 135.337 27.5397 135.909C27.5397 135.93 27.5397 135.951 27.5397 135.951L25.4868 136.905C25.2328 136.693 24.9153 136.566 24.5556 136.566C24.0688 136.566 23.6455 136.799 23.3704 137.18L20.2381 136.417C20.2381 136.396 20.2169 136.375 20.2169 136.333L28.3439 128.199C28.3439 128.22 28.3651 128.22 28.3862 128.241ZM20.2169 137.667L23.1587 138.387C23.328 139.023 23.8783 139.489 24.5767 139.489H24.5979L26.9259 144.403L20.2169 137.667ZM33.4021 139.489H33.4232C34.1005 139.489 34.672 139.023 34.8412 138.387L37.783 137.667C37.783 137.667 37.783 137.667 37.783 137.688L31.0741 144.403L33.4021 139.489Z" fill="#6F7380"/>
<path d="M93.52 132.832H96.64C98.0054 132.832 99.024 133.301 99.696 134.24C100.368 135.179 100.704 136.571 100.704 138.416C100.704 140.261 100.368 141.653 99.696 142.592C99.024 143.531 98.0054 144 96.64 144H93.52V132.832ZM96.576 142.832C97.472 142.832 98.144 142.523 98.592 141.904C99.0507 141.285 99.28 140.411 99.28 139.28V137.552C99.28 136.421 99.0507 135.547 98.592 134.928C98.144 134.309 97.472 134 96.576 134H94.864V142.832H96.576Z" fill="#55575F"/>
<path d="M103.034 144V132.832H109.914V134H104.378V137.76H109.722V138.928H104.378V142.832H109.914V144H103.034Z" fill="#55575F"/>
<path d="M113.812 132.832V139.536C113.812 140.08 113.828 140.565 113.86 140.992C113.892 141.419 113.977 141.787 114.116 142.096C114.254 142.395 114.468 142.624 114.756 142.784C115.054 142.944 115.465 143.024 115.988 143.024C116.51 143.024 116.916 142.944 117.204 142.784C117.502 142.624 117.721 142.395 117.86 142.096C117.998 141.787 118.084 141.419 118.116 140.992C118.148 140.565 118.164 140.08 118.164 139.536V132.832H119.508V139.216C119.508 140.048 119.465 140.773 119.38 141.392C119.305 142.011 119.14 142.528 118.884 142.944C118.638 143.36 118.281 143.675 117.812 143.888C117.353 144.091 116.745 144.192 115.988 144.192C115.23 144.192 114.617 144.091 114.148 143.888C113.689 143.675 113.332 143.36 113.076 142.944C112.83 142.528 112.665 142.011 112.58 141.392C112.505 140.773 112.468 140.048 112.468 139.216V132.832H113.812Z" fill="#55575F"/>
<path d="M125.549 144.192C124.547 144.192 123.725 144.011 123.085 143.648C122.445 143.275 121.917 142.8 121.501 142.224L122.477 141.424C122.915 141.968 123.373 142.373 123.853 142.64C124.344 142.907 124.925 143.04 125.597 143.04C126.408 143.04 127.027 142.853 127.453 142.48C127.88 142.107 128.093 141.584 128.093 140.912C128.093 140.368 127.939 139.947 127.629 139.648C127.32 139.339 126.781 139.12 126.013 138.992L124.765 138.784C124.221 138.688 123.763 138.544 123.389 138.352C123.027 138.16 122.733 137.931 122.509 137.664C122.285 137.387 122.125 137.088 122.029 136.768C121.933 136.437 121.885 136.096 121.885 135.744C121.885 134.72 122.221 133.947 122.893 133.424C123.565 132.901 124.472 132.64 125.613 132.64C126.509 132.64 127.261 132.789 127.869 133.088C128.488 133.387 128.984 133.808 129.357 134.352L128.413 135.168C128.104 134.763 127.731 134.432 127.293 134.176C126.856 133.92 126.291 133.792 125.597 133.792C124.84 133.792 124.259 133.952 123.853 134.272C123.448 134.592 123.245 135.072 123.245 135.712C123.245 136.213 123.395 136.624 123.693 136.944C124.003 137.253 124.552 137.477 125.341 137.616L126.541 137.824C127.085 137.92 127.544 138.064 127.917 138.256C128.291 138.448 128.589 138.677 128.813 138.944C129.048 139.211 129.213 139.509 129.309 139.84C129.405 140.171 129.453 140.517 129.453 140.88C129.453 141.915 129.112 142.725 128.429 143.312C127.757 143.899 126.797 144.192 125.549 144.192Z" fill="#55575F"/>
</svg>
