<svg width="278" height="212" viewBox="0 0 278 212" fill="none" xmlns="http://www.w3.org/2000/svg">
<rect width="278" height="100" rx="12" fill="#181A1F"/>
<path d="M28 36C34.65 36 40 30.65 40 24C40 17.35 34.65 12 28 12C21.35 12 16 17.35 16 24C16 30.65 21.35 36 28 36Z" fill="#55575F"/>
<path d="M31.3001 25.9C31.3001 24.15 30.2501 23.55 28.1501 23.3001C26.6501 23.1 26.3501 22.7001 26.3501 22C26.3501 21.2999 26.8501 20.85 27.8501 20.85C28.7501 20.85 29.2501 21.15 29.5001 21.9C29.5501 22.05 29.7001 22.15 29.8501 22.15H30.65C30.8501 22.15 31.0001 22 31.0001 21.8001V21.75C30.8 20.65 29.9 19.8 28.7501 19.7001V18.5001C28.7501 18.3 28.6001 18.15 28.3501 18.1H27.6001C27.4001 18.1 27.2501 18.25 27.2 18.5001V19.65C25.7 19.8501 24.7501 20.85 24.7501 22.1001C24.7501 23.7501 25.7501 24.4 27.8501 24.6501C29.2501 24.9 29.7001 25.2 29.7001 26.0001C29.7001 26.8001 29 27.3501 28.0501 27.3501C26.75 27.3501 26.3 26.8 26.15 26.05C26.1001 25.8501 25.9501 25.75 25.8001 25.75H24.95C24.7501 25.75 24.6001 25.9 24.6001 26.1V26.1501C24.8 27.4 25.6001 28.3 27.2501 28.5501V29.7501C27.2501 29.95 27.4001 30.1 27.65 30.15H28.4C28.6001 30.15 28.7501 30 28.8001 29.7501V28.5501C30.3001 28.3 31.3001 27.25 31.3001 25.9Z" fill="#6F7380"/>
<path d="M25.45 31.15C21.55 29.7501 19.55 25.4001 21 21.55C21.75 19.45 23.4 17.85 25.45 17.1C25.65 17.0001 25.75 16.8501 25.75 16.6V15.9C25.75 15.7 25.65 15.55 25.45 15.5001C25.4 15.5001 25.3 15.5001 25.25 15.55C20.5 17.05 17.9 22.1001 19.4 26.85C20.3 29.65 22.45 31.8 25.25 32.7C25.45 32.8 25.65 32.7 25.7 32.5C25.75 32.4501 25.75 32.4 25.75 32.3001V31.6C25.75 31.45 25.6 31.2501 25.45 31.15ZM30.75 15.55C30.55 15.45 30.35 15.55 30.3 15.75C30.25 15.8001 30.25 15.85 30.25 15.9501V16.65C30.25 16.8501 30.4 17.05 30.55 17.1501C34.45 18.55 36.45 22.9 35 26.7501C34.25 28.8501 32.6 30.45 30.55 31.2C30.35 31.3 30.25 31.45 30.25 31.7001V32.4C30.25 32.6001 30.35 32.7501 30.55 32.8C30.6 32.8 30.7 32.8 30.75 32.7501C35.5 31.2501 38.1 26.2 36.6 21.45C35.7 18.6 33.5 16.45 30.75 15.55Z" fill="#6F7380"/>
<rect x="16" y="44" width="246" height="40" rx="8" fill="#23252C"/>
<rect x="48" y="16" width="59" height="16" rx="8" fill="#23252C"/>
<rect x="112" y="16" width="29" height="16" rx="8" fill="#23252C"/>
<rect y="112" width="278" height="100" rx="12" fill="#181A1F"/>
<path d="M38.3281 134.337C38.0952 134.337 37.8624 134.38 37.6508 134.485L29.5238 126.351C29.6085 126.139 29.672 125.928 29.672 125.673C29.672 124.741 28.9101 124 28 124C27.0899 124 26.328 124.763 26.328 125.673C26.328 125.906 26.3704 126.139 26.4762 126.351L18.3492 134.464C18.1376 134.38 17.9259 134.316 17.672 134.316C16.7407 134.316 16 135.079 16 135.989C16 136.9 16.7619 137.663 17.672 137.663C17.9048 137.663 18.1376 137.62 18.3492 137.515L26.4762 145.649C26.3915 145.861 26.328 146.072 26.328 146.327C26.328 147.259 27.0899 148 28 148C28.9101 148 29.672 147.237 29.672 146.327C29.672 146.093 29.6296 145.861 29.5238 145.649L37.6508 137.515C37.8624 137.599 38.074 137.663 38.3281 137.663C39.2593 137.663 40 136.9 40 135.989C40 135.079 39.2593 134.337 38.3281 134.337ZM36.7618 135.417L33.6085 136.18C33.3334 135.82 32.9101 135.566 32.4232 135.566C32.0635 135.566 31.746 135.693 31.4921 135.905L29.4391 134.951C29.4391 134.93 29.4391 134.93 29.4391 134.909C29.4391 134.316 29.1005 133.829 28.5926 133.596V127.241C28.6138 127.241 28.6349 127.22 28.6561 127.22L36.783 135.354C36.783 135.354 36.7618 135.396 36.7618 135.417ZM28 144.674C27.9577 144.674 27.9153 144.674 27.873 144.674L24.6984 137.959C24.9101 137.705 25.037 137.387 25.037 137.027L27.1111 136.053C27.3651 136.244 27.6825 136.371 28 136.371C28.3386 136.371 28.6561 136.244 28.9101 136.053L30.9841 137.027C30.9841 137.027 30.9841 137.027 30.9841 137.049C30.9841 137.409 31.1111 137.726 31.3228 137.981L28.1058 144.674C28.0847 144.674 28.0423 144.674 28 144.674ZM27.3862 127.241V133.596C26.8995 133.829 26.5397 134.337 26.5397 134.909C26.5397 134.93 26.5397 134.951 26.5397 134.951L24.4868 135.905C24.2328 135.693 23.9153 135.566 23.5556 135.566C23.0688 135.566 22.6455 135.799 22.3704 136.18L19.2381 135.417C19.2381 135.396 19.2169 135.375 19.2169 135.333L27.3439 127.199C27.3439 127.22 27.3651 127.22 27.3862 127.241ZM19.2169 136.667L22.1587 137.387C22.328 138.023 22.8783 138.489 23.5767 138.489H23.5979L25.9259 143.403L19.2169 136.667ZM32.4021 138.489H32.4232C33.1005 138.489 33.672 138.023 33.8412 137.387L36.783 136.667C36.783 136.667 36.783 136.667 36.783 136.688L30.0741 143.403L32.4021 138.489Z" fill="#6F7380"/>
<rect x="16" y="156" width="246" height="40" rx="8" fill="#23252C"/>
<rect x="48" y="128" width="59" height="16" rx="8" fill="#23252C"/>
<rect x="112" y="128" width="29" height="16" rx="8" fill="#23252C"/>
</svg>
