<svg width="280" height="222" viewBox="0 0 280 222" fill="none" xmlns="http://www.w3.org/2000/svg">
<rect x="1" y="1" width="278" height="100" rx="12" fill="#181A1F" stroke="#23252C"/>
<path d="M52.8239 28.56V26.048C53.7413 26.0053 54.4613 25.808 54.9839 25.456C55.5066 25.0933 55.7679 24.5493 55.7679 23.824V23.6C55.7679 23.0027 55.5866 22.5547 55.2239 22.256C54.8719 21.9573 54.3866 21.808 53.7679 21.808C53.1279 21.808 52.6159 21.984 52.2319 22.336C51.8479 22.688 51.5813 23.136 51.4319 23.68L50.2319 23.232C50.3386 22.88 50.4879 22.5493 50.6799 22.24C50.8719 21.92 51.1119 21.6427 51.3999 21.408C51.6986 21.1733 52.0453 20.9867 52.4399 20.848C52.8453 20.7093 53.3039 20.64 53.8159 20.64C54.3279 20.64 54.7866 20.7147 55.1919 20.864C55.6079 21.0027 55.9599 21.2053 56.2479 21.472C56.5359 21.728 56.7599 22.0427 56.9199 22.416C57.0799 22.7893 57.1599 23.2053 57.1599 23.664C57.1599 24.1653 57.0693 24.608 56.8879 24.992C56.7066 25.3653 56.4719 25.6853 56.1839 25.952C55.8959 26.2187 55.5653 26.4373 55.1919 26.608C54.8293 26.768 54.4613 26.88 54.0879 26.944V28.56H52.8239ZM53.5119 32.144C53.0746 32.144 52.7653 32.0533 52.5839 31.872C52.4133 31.6907 52.3279 31.4613 52.3279 31.184V30.896C52.3279 30.6187 52.4133 30.3893 52.5839 30.208C52.7653 30.0267 53.0746 29.936 53.5119 29.936C53.9493 29.936 54.2533 30.0267 54.4239 30.208C54.6053 30.3893 54.6959 30.6187 54.6959 30.896V31.184C54.6959 31.4613 54.6053 31.6907 54.4239 31.872C54.2533 32.0533 53.9493 32.144 53.5119 32.144Z" fill="#55575F"/>
<path d="M62.4177 28.56V26.048C63.335 26.0053 64.055 25.808 64.5777 25.456C65.1004 25.0933 65.3617 24.5493 65.3617 23.824V23.6C65.3617 23.0027 65.1804 22.5547 64.8177 22.256C64.4657 21.9573 63.9803 21.808 63.3617 21.808C62.7217 21.808 62.2097 21.984 61.8257 22.336C61.4417 22.688 61.175 23.136 61.0257 23.68L59.8257 23.232C59.9324 22.88 60.0817 22.5493 60.2737 22.24C60.4657 21.92 60.7057 21.6427 60.9937 21.408C61.2923 21.1733 61.639 20.9867 62.0337 20.848C62.439 20.7093 62.8977 20.64 63.4097 20.64C63.9217 20.64 64.3804 20.7147 64.7857 20.864C65.2017 21.0027 65.5537 21.2053 65.8417 21.472C66.1297 21.728 66.3537 22.0427 66.5137 22.416C66.6737 22.7893 66.7537 23.2053 66.7537 23.664C66.7537 24.1653 66.663 24.608 66.4817 24.992C66.3004 25.3653 66.0657 25.6853 65.7777 25.952C65.4897 26.2187 65.159 26.4373 64.7857 26.608C64.423 26.768 64.055 26.88 63.6817 26.944V28.56H62.4177ZM63.1057 32.144C62.6684 32.144 62.359 32.0533 62.1777 31.872C62.007 31.6907 61.9217 31.4613 61.9217 31.184V30.896C61.9217 30.6187 62.007 30.3893 62.1777 30.208C62.359 30.0267 62.6684 29.936 63.1057 29.936C63.543 29.936 63.847 30.0267 64.0177 30.208C64.199 30.3893 64.2897 30.6187 64.2897 30.896V31.184C64.2897 31.4613 64.199 31.6907 64.0177 31.872C63.847 32.0533 63.543 32.144 63.1057 32.144Z" fill="#55575F"/>
<path d="M72.0114 28.56V26.048C72.9288 26.0053 73.6488 25.808 74.1714 25.456C74.6941 25.0933 74.9554 24.5493 74.9554 23.824V23.6C74.9554 23.0027 74.7741 22.5547 74.4114 22.256C74.0594 21.9573 73.5741 21.808 72.9554 21.808C72.3154 21.808 71.8034 21.984 71.4194 22.336C71.0354 22.688 70.7688 23.136 70.6194 23.68L69.4194 23.232C69.5261 22.88 69.6754 22.5493 69.8674 22.24C70.0594 21.92 70.2994 21.6427 70.5874 21.408C70.8861 21.1733 71.2328 20.9867 71.6274 20.848C72.0328 20.7093 72.4914 20.64 73.0034 20.64C73.5154 20.64 73.9741 20.7147 74.3794 20.864C74.7954 21.0027 75.1474 21.2053 75.4354 21.472C75.7234 21.728 75.9474 22.0427 76.1074 22.416C76.2674 22.7893 76.3474 23.2053 76.3474 23.664C76.3474 24.1653 76.2568 24.608 76.0754 24.992C75.8941 25.3653 75.6594 25.6853 75.3714 25.952C75.0834 26.2187 74.7528 26.4373 74.3794 26.608C74.0168 26.768 73.6488 26.88 73.2754 26.944V28.56H72.0114ZM72.6994 32.144C72.2621 32.144 71.9528 32.0533 71.7714 31.872C71.6008 31.6907 71.5154 31.4613 71.5154 31.184V30.896C71.5154 30.6187 71.6008 30.3893 71.7714 30.208C71.9528 30.0267 72.2621 29.936 72.6994 29.936C73.1368 29.936 73.4408 30.0267 73.6114 30.208C73.7928 30.3893 73.8834 30.6187 73.8834 30.896V31.184C73.8834 31.4613 73.7928 31.6907 73.6114 31.872C73.4408 32.0533 73.1368 32.144 72.6994 32.144Z" fill="#55575F"/>
<path d="M84.624 20.832V27.536C84.624 28.08 84.64 28.5653 84.672 28.992C84.704 29.4187 84.7894 29.7867 84.928 30.096C85.0667 30.3947 85.28 30.624 85.568 30.784C85.8667 30.944 86.2774 31.024 86.8 31.024C87.3227 31.024 87.728 30.944 88.016 30.784C88.3147 30.624 88.5334 30.3947 88.672 30.096C88.8107 29.7867 88.896 29.4187 88.928 28.992C88.96 28.5653 88.976 28.08 88.976 27.536V20.832H90.32V27.216C90.32 28.048 90.2774 28.7733 90.192 29.392C90.1174 30.0107 89.952 30.528 89.696 30.944C89.4507 31.36 89.0934 31.6747 88.624 31.888C88.1654 32.0907 87.5574 32.192 86.8 32.192C86.0427 32.192 85.4294 32.0907 84.96 31.888C84.5014 31.6747 84.144 31.36 83.888 30.944C83.6427 30.528 83.4774 30.0107 83.392 29.392C83.3174 28.7733 83.28 28.048 83.28 27.216V20.832H84.624Z" fill="#55575F"/>
<path d="M96.3618 32.192C95.3591 32.192 94.5378 32.0107 93.8978 31.648C93.2578 31.2747 92.7298 30.8 92.3138 30.224L93.2898 29.424C93.7271 29.968 94.1858 30.3733 94.6658 30.64C95.1564 30.9067 95.7378 31.04 96.4098 31.04C97.2204 31.04 97.8391 30.8533 98.2658 30.48C98.6924 30.1067 98.9058 29.584 98.9058 28.912C98.9058 28.368 98.7511 27.9467 98.4418 27.648C98.1324 27.3387 97.5938 27.12 96.8258 26.992L95.5778 26.784C95.0338 26.688 94.5751 26.544 94.2018 26.352C93.8391 26.16 93.5458 25.9307 93.3218 25.664C93.0978 25.3867 92.9378 25.088 92.8418 24.768C92.7458 24.4373 92.6978 24.096 92.6978 23.744C92.6978 22.72 93.0338 21.9467 93.7058 21.424C94.3778 20.9013 95.2844 20.64 96.4258 20.64C97.3218 20.64 98.0738 20.7893 98.6818 21.088C99.3004 21.3867 99.7964 21.808 100.17 22.352L99.2258 23.168C98.9164 22.7627 98.5431 22.432 98.1058 22.176C97.6684 21.92 97.1031 21.792 96.4098 21.792C95.6524 21.792 95.0711 21.952 94.6658 22.272C94.2604 22.592 94.0578 23.072 94.0578 23.712C94.0578 24.2133 94.2071 24.624 94.5058 24.944C94.8151 25.2533 95.3644 25.4773 96.1538 25.616L97.3538 25.824C97.8978 25.92 98.3564 26.064 98.7298 26.256C99.1031 26.448 99.4018 26.6773 99.6258 26.944C99.8604 27.2107 100.026 27.5093 100.122 27.84C100.218 28.1707 100.266 28.5173 100.266 28.88C100.266 29.9147 99.9244 30.7253 99.2418 31.312C98.5698 31.8987 97.6098 32.192 96.3618 32.192Z" fill="#55575F"/>
<path d="M102.708 20.832H105.828C107.193 20.832 108.212 21.3013 108.884 22.24C109.556 23.1787 109.892 24.5707 109.892 26.416C109.892 28.2613 109.556 29.6533 108.884 30.592C108.212 31.5307 107.193 32 105.828 32H102.708V20.832ZM105.764 30.832C106.66 30.832 107.332 30.5227 107.78 29.904C108.238 29.2853 108.468 28.4107 108.468 27.28V25.552C108.468 24.4213 108.238 23.5467 107.78 22.928C107.332 22.3093 106.66 22 105.764 22H104.052V30.832H105.764Z" fill="#55575F"/>
<path d="M115.949 32.192C114.584 32.192 113.565 31.696 112.893 30.704C112.232 29.712 111.901 28.2827 111.901 26.416C111.901 24.5493 112.232 23.12 112.893 22.128C113.565 21.136 114.584 20.64 115.949 20.64C116.461 20.64 116.904 20.7093 117.277 20.848C117.651 20.9867 117.971 21.1733 118.237 21.408C118.504 21.6427 118.728 21.9093 118.909 22.208C119.091 22.496 119.251 22.7893 119.389 23.088L118.237 23.616C118.141 23.3707 118.029 23.1413 117.901 22.928C117.773 22.704 117.619 22.512 117.437 22.352C117.267 22.1813 117.059 22.048 116.813 21.952C116.579 21.856 116.291 21.808 115.949 21.808C115.064 21.808 114.403 22.144 113.965 22.816C113.539 23.488 113.325 24.384 113.325 25.504V27.328C113.325 28.448 113.539 29.344 113.965 30.016C114.403 30.688 115.064 31.024 115.949 31.024C116.291 31.024 116.579 30.976 116.813 30.88C117.059 30.784 117.267 30.656 117.437 30.496C117.619 30.3253 117.773 30.1333 117.901 29.92C118.029 29.696 118.141 29.4613 118.237 29.216L119.389 29.744C119.251 30.0533 119.091 30.352 118.909 30.64C118.728 30.928 118.504 31.1893 118.237 31.424C117.971 31.6587 117.651 31.8453 117.277 31.984C116.904 32.1227 116.461 32.192 115.949 32.192Z" fill="#55575F"/>
<path d="M29 37C35.65 37 41 31.65 41 25C41 18.35 35.65 13 29 13C22.35 13 17 18.35 17 25C17 31.65 22.35 37 29 37Z" fill="#55575F"/>
<path d="M32.3001 26.8999C32.3001 25.15 31.2501 24.55 29.1501 24.3C27.6501 24.1 27.3501 23.7 27.3501 22.9999C27.3501 22.2999 27.8501 21.85 28.8501 21.85C29.7501 21.85 30.2501 22.15 30.5001 22.9C30.5501 23.05 30.7001 23.1499 30.8501 23.1499H31.65C31.8501 23.1499 32.0001 22.9999 32.0001 22.8V22.75C31.8 21.6499 30.9 20.8 29.7501 20.7V19.5C29.7501 19.3 29.6001 19.15 29.3501 19.0999H28.6001C28.4001 19.0999 28.2501 19.2499 28.2 19.5V20.65C26.7 20.85 25.7501 21.85 25.7501 23.1C25.7501 24.75 26.7501 25.3999 28.8501 25.65C30.2501 25.9 30.7001 26.2 30.7001 27C30.7001 27.8001 30 28.35 29.0501 28.35C27.75 28.35 27.3 27.7999 27.15 27.0499C27.1001 26.85 26.9501 26.7499 26.8001 26.7499H25.95C25.7501 26.7499 25.6001 26.8999 25.6001 27.1V27.15C25.8 28.3999 26.6001 29.2999 28.2501 29.55V30.75C28.2501 30.9499 28.4001 31.0999 28.65 31.15H29.4C29.6001 31.15 29.7501 31 29.8001 30.75V29.55C31.3001 29.2999 32.3001 28.2499 32.3001 26.8999Z" fill="#6F7380"/>
<path d="M26.45 32.15C22.55 30.75 20.55 26.4 22 22.55C22.75 20.45 24.4 18.85 26.45 18.1C26.65 18 26.75 17.85 26.75 17.6V16.9C26.75 16.7 26.65 16.55 26.45 16.5C26.4 16.5 26.3 16.5 26.25 16.55C21.5 18.05 18.9 23.1 20.4 27.85C21.3 30.65 23.45 32.8 26.25 33.7C26.45 33.7999 26.65 33.7 26.7 33.5C26.75 33.45 26.75 33.4 26.75 33.3V32.5999C26.75 32.4499 26.6 32.25 26.45 32.15ZM31.75 16.55C31.55 16.45 31.35 16.55 31.3 16.75C31.25 16.8 31.25 16.85 31.25 16.95V17.65C31.25 17.85 31.4 18.05 31.55 18.15C35.45 19.55 37.45 23.9 36 27.75C35.25 29.85 33.6 31.45 31.55 32.2C31.35 32.3 31.25 32.45 31.25 32.7V33.4C31.25 33.6 31.35 33.75 31.55 33.7999C31.6 33.7999 31.7 33.8 31.75 33.75C36.5 32.25 39.1 27.2 37.6 22.45C36.7 19.6 34.5 17.45 31.75 16.55Z" fill="#6F7380"/>
<rect x="17" y="45" width="246" height="40" rx="8" fill="#202229"/>
<path d="M58.66 70L58 61.624H58.9L59.248 66.424L59.428 68.956H59.524L60.628 63.808H61.756L62.86 68.956H62.956L63.136 66.424L63.484 61.624H64.36L63.7 70H62.248L61.228 64.996H61.132L60.112 70H58.66Z" fill="#E69C46"/>
<path d="M70.7153 70C70.3393 70 70.0713 69.904 69.9113 69.712C69.7513 69.52 69.6513 69.28 69.6113 68.992H69.5513C69.4153 69.352 69.1953 69.636 68.8913 69.844C68.5953 70.044 68.1953 70.144 67.6913 70.144C67.0433 70.144 66.5273 69.976 66.1433 69.64C65.7593 69.304 65.5673 68.844 65.5673 68.26C65.5673 67.684 65.7753 67.24 66.1913 66.928C66.6153 66.616 67.2953 66.46 68.2313 66.46H69.5513V65.848C69.5513 65.392 69.4233 65.052 69.1673 64.828C68.9113 64.596 68.5473 64.48 68.0753 64.48C67.6593 64.48 67.3193 64.564 67.0553 64.732C66.7913 64.892 66.5793 65.112 66.4193 65.392L65.7713 64.912C65.8513 64.752 65.9593 64.596 66.0953 64.444C66.2313 64.292 66.3993 64.16 66.5993 64.048C66.7993 63.928 67.0273 63.836 67.2833 63.772C67.5393 63.7 67.8233 63.664 68.1353 63.664C68.8633 63.664 69.4393 63.848 69.8633 64.216C70.2953 64.584 70.5113 65.096 70.5113 65.752V69.16H71.3753V70H70.7153ZM67.8593 69.34C68.1073 69.34 68.3313 69.312 68.5313 69.256C68.7393 69.192 68.9193 69.112 69.0713 69.016C69.2233 68.912 69.3393 68.792 69.4193 68.656C69.5073 68.512 69.5513 68.36 69.5513 68.2V67.18H68.2313C67.6553 67.18 67.2353 67.26 66.9713 67.42C66.7073 67.58 66.5753 67.812 66.5753 68.116V68.368C66.5753 68.688 66.6873 68.932 66.9113 69.1C67.1433 69.26 67.4593 69.34 67.8593 69.34Z" fill="#E69C46"/>
<path d="M72.9306 69.184H75.0906V61.936H72.9306V61.12H76.0506V69.184H78.2106V70H72.9306V69.184Z" fill="#E69C46"/>
<path d="M80.1259 69.184H82.2859V61.936H80.1259V61.12H83.2459V69.184H85.4059V70H80.1259V69.184Z" fill="#E69C46"/>
<path d="M90.0693 70.144C89.6213 70.144 89.2173 70.068 88.8573 69.916C88.5053 69.764 88.2013 69.548 87.9452 69.268C87.6973 68.98 87.5052 68.64 87.3692 68.248C87.2332 67.848 87.1653 67.404 87.1653 66.916C87.1653 66.42 87.2332 65.972 87.3692 65.572C87.5132 65.172 87.7093 64.832 87.9573 64.552C88.2052 64.264 88.5013 64.044 88.8453 63.892C89.1973 63.74 89.5853 63.664 90.0093 63.664C90.4253 63.664 90.8013 63.74 91.1373 63.892C91.4813 64.044 91.7733 64.256 92.0133 64.528C92.2533 64.792 92.4373 65.108 92.5653 65.476C92.6933 65.844 92.7573 66.248 92.7573 66.688V67.144H88.1733V67.432C88.1733 67.704 88.2173 67.956 88.3053 68.188C88.3932 68.42 88.5173 68.62 88.6772 68.788C88.8452 68.956 89.0452 69.088 89.2773 69.184C89.5173 69.272 89.7813 69.316 90.0693 69.316C90.4853 69.316 90.8453 69.22 91.1493 69.028C91.4533 68.836 91.6853 68.572 91.8453 68.236L92.5533 68.716C92.3693 69.132 92.0613 69.476 91.6293 69.748C91.2053 70.012 90.6853 70.144 90.0693 70.144ZM90.0093 64.456C89.7453 64.456 89.5013 64.504 89.2773 64.6C89.0532 64.696 88.8572 64.828 88.6892 64.996C88.5292 65.164 88.4013 65.364 88.3053 65.596C88.2173 65.82 88.1733 66.068 88.1733 66.34V66.424H91.7253V66.292C91.7253 66.02 91.6813 65.772 91.5933 65.548C91.5133 65.324 91.3973 65.132 91.2453 64.972C91.1012 64.804 90.9213 64.676 90.7053 64.588C90.4973 64.5 90.2653 64.456 90.0093 64.456Z" fill="#E69C46"/>
<path d="M97.4566 70C96.9846 70 96.6366 69.868 96.4126 69.604C96.1966 69.34 96.0886 69 96.0886 68.584V64.624H94.0246V63.808H95.5606C95.7686 63.808 95.9126 63.768 95.9926 63.688C96.0806 63.6 96.1246 63.452 96.1246 63.244V61.624H97.0486V63.808H99.8686V64.624H97.0486V69.184H99.8686V70H97.4566Z" fill="#E69C46"/>
<path d="M111.931 62.44C111.651 62.44 111.455 62.384 111.343 62.272C111.231 62.152 111.175 62.004 111.175 61.828V61.636C111.175 61.46 111.231 61.316 111.343 61.204C111.455 61.084 111.651 61.024 111.931 61.024C112.211 61.024 112.407 61.084 112.519 61.204C112.631 61.316 112.687 61.46 112.687 61.636V61.828C112.687 62.004 112.631 62.152 112.519 62.272C112.407 62.384 112.211 62.44 111.931 62.44ZM109.219 69.184H111.451V64.624H109.219V63.808H112.411V69.184H114.499V70H109.219V69.184Z" fill="#E69C46"/>
<path d="M118.815 70.144C118.167 70.144 117.607 70.036 117.135 69.82C116.671 69.596 116.275 69.3 115.947 68.932L116.595 68.368C116.891 68.68 117.215 68.92 117.567 69.088C117.919 69.256 118.343 69.34 118.839 69.34C119.319 69.34 119.711 69.256 120.015 69.088C120.327 68.912 120.483 68.64 120.483 68.272C120.483 68.112 120.451 67.98 120.387 67.876C120.331 67.764 120.251 67.676 120.147 67.612C120.043 67.548 119.926 67.5 119.799 67.468C119.671 67.428 119.535 67.396 119.391 67.372L118.419 67.228C118.203 67.196 117.967 67.152 117.711 67.096C117.463 67.04 117.235 66.952 117.027 66.832C116.819 66.704 116.643 66.536 116.499 66.328C116.362 66.12 116.295 65.848 116.295 65.512C116.295 65.2 116.355 64.932 116.475 64.708C116.603 64.476 116.779 64.284 117.003 64.132C117.227 63.972 117.491 63.856 117.795 63.784C118.099 63.704 118.431 63.664 118.791 63.664C119.351 63.664 119.834 63.752 120.243 63.928C120.659 64.104 121.014 64.348 121.311 64.66L120.687 65.248C120.615 65.16 120.523 65.072 120.411 64.984C120.307 64.888 120.175 64.804 120.015 64.732C119.863 64.652 119.683 64.588 119.475 64.54C119.267 64.492 119.027 64.468 118.755 64.468C118.267 64.468 117.891 64.552 117.627 64.72C117.371 64.888 117.243 65.132 117.243 65.452C117.243 65.612 117.271 65.748 117.327 65.86C117.391 65.964 117.475 66.048 117.579 66.112C117.683 66.176 117.799 66.228 117.927 66.268C118.063 66.3 118.199 66.328 118.335 66.352L119.307 66.496C119.531 66.528 119.767 66.572 120.015 66.628C120.263 66.684 120.491 66.776 120.699 66.904C120.907 67.024 121.078 67.188 121.215 67.396C121.359 67.604 121.431 67.876 121.431 68.212C121.431 68.828 121.191 69.304 120.711 69.64C120.239 69.976 119.607 70.144 118.815 70.144Z" fill="#E69C46"/>
<path d="M130.709 70V63.808H131.669V64.816H131.717C131.781 64.664 131.861 64.52 131.957 64.384C132.053 64.24 132.169 64.116 132.305 64.012C132.449 63.908 132.617 63.824 132.809 63.76C133.001 63.696 133.225 63.664 133.481 63.664C134.129 63.664 134.649 63.872 135.041 64.288C135.433 64.696 135.629 65.276 135.629 66.028V70H134.669V66.196C134.669 65.628 134.545 65.208 134.297 64.936C134.049 64.656 133.685 64.516 133.205 64.516C133.013 64.516 132.825 64.54 132.641 64.588C132.457 64.636 132.293 64.708 132.149 64.804C132.005 64.9 131.889 65.024 131.801 65.176C131.713 65.328 131.669 65.504 131.669 65.704V70H130.709Z" fill="#E69C46"/>
<path d="M140.328 70.144C139.896 70.144 139.504 70.068 139.152 69.916C138.808 69.764 138.512 69.548 138.264 69.268C138.024 68.98 137.84 68.64 137.712 68.248C137.584 67.848 137.52 67.4 137.52 66.904C137.52 66.416 137.584 65.972 137.712 65.572C137.84 65.172 138.024 64.832 138.264 64.552C138.512 64.264 138.808 64.044 139.152 63.892C139.504 63.74 139.896 63.664 140.328 63.664C140.76 63.664 141.148 63.74 141.492 63.892C141.844 64.044 142.14 64.264 142.38 64.552C142.628 64.832 142.816 65.172 142.944 65.572C143.072 65.972 143.136 66.416 143.136 66.904C143.136 67.4 143.072 67.848 142.944 68.248C142.816 68.64 142.628 68.98 142.38 69.268C142.14 69.548 141.844 69.764 141.492 69.916C141.148 70.068 140.76 70.144 140.328 70.144ZM140.328 69.316C140.864 69.316 141.296 69.156 141.624 68.836C141.952 68.516 142.116 68.02 142.116 67.348V66.46C142.116 65.788 141.952 65.292 141.624 64.972C141.296 64.652 140.864 64.492 140.328 64.492C139.792 64.492 139.36 64.652 139.032 64.972C138.704 65.292 138.54 65.788 138.54 66.46V67.348C138.54 68.02 138.704 68.516 139.032 68.836C139.36 69.156 139.792 69.316 140.328 69.316Z" fill="#E69C46"/>
<path d="M147.824 70C147.352 70 147.004 69.868 146.78 69.604C146.564 69.34 146.456 69 146.456 68.584V64.624H144.392V63.808H145.928C146.136 63.808 146.28 63.768 146.36 63.688C146.448 63.6 146.492 63.452 146.492 63.244V61.624H147.416V63.808H150.236V64.624H147.416V69.184H150.236V70H147.824Z" fill="#E69C46"/>
<path d="M162.13 70.144C161.682 70.144 161.282 70.068 160.93 69.916C160.586 69.756 160.294 69.536 160.054 69.256C159.814 68.976 159.63 68.636 159.502 68.236C159.382 67.836 159.322 67.392 159.322 66.904C159.322 66.416 159.386 65.972 159.514 65.572C159.642 65.172 159.826 64.832 160.066 64.552C160.306 64.264 160.598 64.044 160.942 63.892C161.286 63.74 161.678 63.664 162.118 63.664C162.718 63.664 163.206 63.796 163.582 64.06C163.958 64.324 164.234 64.668 164.41 65.092L163.642 65.5C163.53 65.18 163.342 64.932 163.078 64.756C162.822 64.58 162.502 64.492 162.118 64.492C161.838 64.492 161.586 64.54 161.362 64.636C161.146 64.724 160.962 64.852 160.81 65.02C160.658 65.188 160.542 65.388 160.462 65.62C160.39 65.852 160.354 66.104 160.354 66.376V67.432C160.354 67.704 160.39 67.956 160.462 68.188C160.542 68.42 160.658 68.62 160.81 68.788C160.962 68.956 161.15 69.088 161.374 69.184C161.598 69.272 161.854 69.316 162.142 69.316C162.558 69.316 162.902 69.22 163.174 69.028C163.446 68.836 163.662 68.572 163.822 68.236L164.506 68.704C164.322 69.12 164.034 69.464 163.642 69.736C163.258 70.008 162.754 70.144 162.13 70.144Z" fill="#E69C46"/>
<path d="M169.11 70.144C168.678 70.144 168.286 70.068 167.934 69.916C167.59 69.764 167.294 69.548 167.046 69.268C166.806 68.98 166.622 68.64 166.494 68.248C166.366 67.848 166.302 67.4 166.302 66.904C166.302 66.416 166.366 65.972 166.494 65.572C166.622 65.172 166.806 64.832 167.046 64.552C167.294 64.264 167.59 64.044 167.934 63.892C168.286 63.74 168.678 63.664 169.11 63.664C169.542 63.664 169.93 63.74 170.274 63.892C170.626 64.044 170.922 64.264 171.162 64.552C171.41 64.832 171.598 65.172 171.726 65.572C171.854 65.972 171.918 66.416 171.918 66.904C171.918 67.4 171.854 67.848 171.726 68.248C171.598 68.64 171.41 68.98 171.162 69.268C170.922 69.548 170.626 69.764 170.274 69.916C169.93 70.068 169.542 70.144 169.11 70.144ZM169.11 69.316C169.646 69.316 170.078 69.156 170.406 68.836C170.734 68.516 170.898 68.02 170.898 67.348V66.46C170.898 65.788 170.734 65.292 170.406 64.972C170.078 64.652 169.646 64.492 169.11 64.492C168.574 64.492 168.142 64.652 167.814 64.972C167.486 65.292 167.322 65.788 167.322 66.46V67.348C167.322 68.02 167.486 68.516 167.814 68.836C168.142 69.156 168.574 69.316 169.11 69.316Z" fill="#E69C46"/>
<path d="M173.881 70V63.808H174.841V64.816H174.889C174.953 64.664 175.033 64.52 175.129 64.384C175.225 64.24 175.341 64.116 175.477 64.012C175.621 63.908 175.789 63.824 175.981 63.76C176.173 63.696 176.397 63.664 176.653 63.664C177.301 63.664 177.821 63.872 178.213 64.288C178.605 64.696 178.801 65.276 178.801 66.028V70H177.841V66.196C177.841 65.628 177.717 65.208 177.469 64.936C177.221 64.656 176.857 64.516 176.377 64.516C176.185 64.516 175.997 64.54 175.813 64.588C175.629 64.636 175.465 64.708 175.321 64.804C175.177 64.9 175.061 65.024 174.973 65.176C174.885 65.328 174.841 65.504 174.841 65.704V70H173.881Z" fill="#E69C46"/>
<path d="M181.076 70V63.808H182.036V64.816H182.084C182.148 64.664 182.228 64.52 182.324 64.384C182.42 64.24 182.536 64.116 182.672 64.012C182.816 63.908 182.984 63.824 183.176 63.76C183.368 63.696 183.592 63.664 183.848 63.664C184.496 63.664 185.016 63.872 185.408 64.288C185.8 64.696 185.996 65.276 185.996 66.028V70H185.036V66.196C185.036 65.628 184.912 65.208 184.664 64.936C184.416 64.656 184.052 64.516 183.572 64.516C183.38 64.516 183.192 64.54 183.008 64.588C182.824 64.636 182.66 64.708 182.516 64.804C182.372 64.9 182.256 65.024 182.168 65.176C182.08 65.328 182.036 65.504 182.036 65.704V70H181.076Z" fill="#E69C46"/>
<path d="M190.804 70.144C190.356 70.144 189.952 70.068 189.592 69.916C189.24 69.764 188.936 69.548 188.68 69.268C188.432 68.98 188.24 68.64 188.104 68.248C187.968 67.848 187.9 67.404 187.9 66.916C187.9 66.42 187.968 65.972 188.104 65.572C188.248 65.172 188.444 64.832 188.692 64.552C188.94 64.264 189.236 64.044 189.58 63.892C189.932 63.74 190.32 63.664 190.744 63.664C191.16 63.664 191.536 63.74 191.872 63.892C192.216 64.044 192.508 64.256 192.748 64.528C192.988 64.792 193.172 65.108 193.3 65.476C193.428 65.844 193.492 66.248 193.492 66.688V67.144H188.908V67.432C188.908 67.704 188.952 67.956 189.04 68.188C189.128 68.42 189.252 68.62 189.412 68.788C189.58 68.956 189.78 69.088 190.012 69.184C190.252 69.272 190.516 69.316 190.804 69.316C191.22 69.316 191.58 69.22 191.884 69.028C192.188 68.836 192.42 68.572 192.58 68.236L193.288 68.716C193.104 69.132 192.796 69.476 192.364 69.748C191.94 70.012 191.42 70.144 190.804 70.144ZM190.744 64.456C190.48 64.456 190.236 64.504 190.012 64.6C189.788 64.696 189.592 64.828 189.424 64.996C189.264 65.164 189.136 65.364 189.04 65.596C188.952 65.82 188.908 66.068 188.908 66.34V66.424H192.46V66.292C192.46 66.02 192.416 65.772 192.328 65.548C192.248 65.324 192.132 65.132 191.98 64.972C191.836 64.804 191.656 64.676 191.44 64.588C191.232 64.5 191 64.456 190.744 64.456Z" fill="#E69C46"/>
<path d="M198.107 70.144C197.659 70.144 197.259 70.068 196.907 69.916C196.563 69.756 196.271 69.536 196.031 69.256C195.791 68.976 195.607 68.636 195.479 68.236C195.359 67.836 195.299 67.392 195.299 66.904C195.299 66.416 195.363 65.972 195.491 65.572C195.619 65.172 195.803 64.832 196.043 64.552C196.283 64.264 196.575 64.044 196.919 63.892C197.263 63.74 197.655 63.664 198.095 63.664C198.695 63.664 199.183 63.796 199.559 64.06C199.935 64.324 200.211 64.668 200.387 65.092L199.619 65.5C199.507 65.18 199.319 64.932 199.055 64.756C198.799 64.58 198.479 64.492 198.095 64.492C197.815 64.492 197.563 64.54 197.339 64.636C197.123 64.724 196.939 64.852 196.787 65.02C196.635 65.188 196.519 65.388 196.439 65.62C196.367 65.852 196.331 66.104 196.331 66.376V67.432C196.331 67.704 196.367 67.956 196.439 68.188C196.519 68.42 196.635 68.62 196.787 68.788C196.939 68.956 197.127 69.088 197.351 69.184C197.575 69.272 197.831 69.316 198.119 69.316C198.535 69.316 198.879 69.22 199.151 69.028C199.423 68.836 199.639 68.572 199.799 68.236L200.483 68.704C200.299 69.12 200.011 69.464 199.619 69.736C199.235 70.008 198.731 70.144 198.107 70.144Z" fill="#E69C46"/>
<path d="M205.386 70C204.914 70 204.566 69.868 204.342 69.604C204.126 69.34 204.018 69 204.018 68.584V64.624H201.954V63.808H203.49C203.698 63.808 203.842 63.768 203.922 63.688C204.01 63.6 204.054 63.452 204.054 63.244V61.624H204.978V63.808H207.798V64.624H204.978V69.184H207.798V70H205.386Z" fill="#E69C46"/>
<path d="M212.39 70.144C211.942 70.144 211.538 70.068 211.178 69.916C210.826 69.764 210.522 69.548 210.266 69.268C210.018 68.98 209.826 68.64 209.69 68.248C209.554 67.848 209.486 67.404 209.486 66.916C209.486 66.42 209.554 65.972 209.69 65.572C209.834 65.172 210.03 64.832 210.278 64.552C210.526 64.264 210.822 64.044 211.166 63.892C211.518 63.74 211.906 63.664 212.33 63.664C212.746 63.664 213.122 63.74 213.458 63.892C213.802 64.044 214.094 64.256 214.334 64.528C214.574 64.792 214.758 65.108 214.886 65.476C215.014 65.844 215.078 66.248 215.078 66.688V67.144H210.494V67.432C210.494 67.704 210.538 67.956 210.626 68.188C210.714 68.42 210.838 68.62 210.998 68.788C211.166 68.956 211.366 69.088 211.598 69.184C211.838 69.272 212.102 69.316 212.39 69.316C212.806 69.316 213.166 69.22 213.47 69.028C213.774 68.836 214.006 68.572 214.166 68.236L214.874 68.716C214.69 69.132 214.382 69.476 213.95 69.748C213.526 70.012 213.006 70.144 212.39 70.144ZM212.33 64.456C212.066 64.456 211.822 64.504 211.598 64.6C211.374 64.696 211.178 64.828 211.01 64.996C210.85 65.164 210.722 65.364 210.626 65.596C210.538 65.82 210.494 66.068 210.494 66.34V66.424H214.046V66.292C214.046 66.02 214.002 65.772 213.914 65.548C213.834 65.324 213.718 65.132 213.566 64.972C213.422 64.804 213.242 64.676 213.026 64.588C212.818 64.5 212.586 64.456 212.33 64.456Z" fill="#E69C46"/>
<path d="M220.977 68.992H220.929C220.529 69.76 219.893 70.144 219.021 70.144C218.261 70.144 217.665 69.86 217.233 69.292C216.809 68.724 216.597 67.928 216.597 66.904C216.597 65.88 216.809 65.084 217.233 64.516C217.665 63.948 218.261 63.664 219.021 63.664C219.893 63.664 220.529 64.048 220.929 64.816H220.977V61.12H221.937V70H220.977V68.992ZM219.393 69.292C219.609 69.292 219.813 69.264 220.005 69.208C220.197 69.152 220.365 69.072 220.509 68.968C220.653 68.856 220.765 68.724 220.845 68.572C220.933 68.412 220.977 68.228 220.977 68.02V65.788C220.977 65.58 220.933 65.4 220.845 65.248C220.765 65.088 220.653 64.956 220.509 64.852C220.365 64.74 220.197 64.656 220.005 64.6C219.813 64.544 219.609 64.516 219.393 64.516C218.833 64.516 218.397 64.688 218.085 65.032C217.781 65.368 217.629 65.816 217.629 66.376V67.432C217.629 67.992 217.781 68.444 218.085 68.788C218.397 69.124 218.833 69.292 219.393 69.292Z" fill="#E69C46"/>
<rect x="1" y="113" width="278" height="100" rx="12" fill="#181A1F" stroke="#23252C"/>
<rect x="17" y="157" width="246" height="40" rx="8" fill="#202229"/>
<path d="M58.66 182L58 173.624H58.9L59.248 178.424L59.428 180.956H59.524L60.628 175.808H61.756L62.86 180.956H62.956L63.136 178.424L63.484 173.624H64.36L63.7 182H62.248L61.228 176.996H61.132L60.112 182H58.66Z" fill="#E69C46"/>
<path d="M70.7153 182C70.3393 182 70.0713 181.904 69.9113 181.712C69.7513 181.52 69.6513 181.28 69.6113 180.992H69.5513C69.4153 181.352 69.1953 181.636 68.8913 181.844C68.5953 182.044 68.1953 182.144 67.6913 182.144C67.0433 182.144 66.5273 181.976 66.1433 181.64C65.7593 181.304 65.5673 180.844 65.5673 180.26C65.5673 179.684 65.7753 179.24 66.1913 178.928C66.6153 178.616 67.2953 178.46 68.2313 178.46H69.5513V177.848C69.5513 177.392 69.4233 177.052 69.1673 176.828C68.9113 176.596 68.5473 176.48 68.0753 176.48C67.6593 176.48 67.3193 176.564 67.0553 176.732C66.7913 176.892 66.5793 177.112 66.4193 177.392L65.7713 176.912C65.8513 176.752 65.9593 176.596 66.0953 176.444C66.2313 176.292 66.3993 176.16 66.5993 176.048C66.7993 175.928 67.0273 175.836 67.2833 175.772C67.5393 175.7 67.8233 175.664 68.1353 175.664C68.8633 175.664 69.4393 175.848 69.8633 176.216C70.2953 176.584 70.5113 177.096 70.5113 177.752V181.16H71.3753V182H70.7153ZM67.8593 181.34C68.1073 181.34 68.3313 181.312 68.5313 181.256C68.7393 181.192 68.9193 181.112 69.0713 181.016C69.2233 180.912 69.3393 180.792 69.4193 180.656C69.5073 180.512 69.5513 180.36 69.5513 180.2V179.18H68.2313C67.6553 179.18 67.2353 179.26 66.9713 179.42C66.7073 179.58 66.5753 179.812 66.5753 180.116V180.368C66.5753 180.688 66.6873 180.932 66.9113 181.1C67.1433 181.26 67.4593 181.34 67.8593 181.34Z" fill="#E69C46"/>
<path d="M72.9306 181.184H75.0906V173.936H72.9306V173.12H76.0506V181.184H78.2106V182H72.9306V181.184Z" fill="#E69C46"/>
<path d="M80.1259 181.184H82.2859V173.936H80.1259V173.12H83.2459V181.184H85.4059V182H80.1259V181.184Z" fill="#E69C46"/>
<path d="M90.0693 182.144C89.6213 182.144 89.2173 182.068 88.8573 181.916C88.5053 181.764 88.2013 181.548 87.9452 181.268C87.6973 180.98 87.5052 180.64 87.3692 180.248C87.2332 179.848 87.1653 179.404 87.1653 178.916C87.1653 178.42 87.2332 177.972 87.3692 177.572C87.5132 177.172 87.7093 176.832 87.9573 176.552C88.2052 176.264 88.5013 176.044 88.8453 175.892C89.1973 175.74 89.5853 175.664 90.0093 175.664C90.4253 175.664 90.8013 175.74 91.1373 175.892C91.4813 176.044 91.7733 176.256 92.0133 176.528C92.2533 176.792 92.4373 177.108 92.5653 177.476C92.6933 177.844 92.7573 178.248 92.7573 178.688V179.144H88.1733V179.432C88.1733 179.704 88.2173 179.956 88.3053 180.188C88.3932 180.42 88.5173 180.62 88.6772 180.788C88.8452 180.956 89.0452 181.088 89.2773 181.184C89.5173 181.272 89.7813 181.316 90.0693 181.316C90.4853 181.316 90.8453 181.22 91.1493 181.028C91.4533 180.836 91.6853 180.572 91.8453 180.236L92.5533 180.716C92.3693 181.132 92.0613 181.476 91.6293 181.748C91.2053 182.012 90.6853 182.144 90.0693 182.144ZM90.0093 176.456C89.7453 176.456 89.5013 176.504 89.2773 176.6C89.0532 176.696 88.8572 176.828 88.6892 176.996C88.5292 177.164 88.4013 177.364 88.3053 177.596C88.2173 177.82 88.1733 178.068 88.1733 178.34V178.424H91.7253V178.292C91.7253 178.02 91.6813 177.772 91.5933 177.548C91.5133 177.324 91.3973 177.132 91.2453 176.972C91.1012 176.804 90.9213 176.676 90.7053 176.588C90.4973 176.5 90.2653 176.456 90.0093 176.456Z" fill="#E69C46"/>
<path d="M97.4566 182C96.9846 182 96.6366 181.868 96.4126 181.604C96.1966 181.34 96.0886 181 96.0886 180.584V176.624H94.0246V175.808H95.5606C95.7686 175.808 95.9126 175.768 95.9926 175.688C96.0806 175.6 96.1246 175.452 96.1246 175.244V173.624H97.0486V175.808H99.8686V176.624H97.0486V181.184H99.8686V182H97.4566Z" fill="#E69C46"/>
<path d="M111.931 174.44C111.651 174.44 111.455 174.384 111.343 174.272C111.231 174.152 111.175 174.004 111.175 173.828V173.636C111.175 173.46 111.231 173.316 111.343 173.204C111.455 173.084 111.651 173.024 111.931 173.024C112.211 173.024 112.407 173.084 112.519 173.204C112.631 173.316 112.687 173.46 112.687 173.636V173.828C112.687 174.004 112.631 174.152 112.519 174.272C112.407 174.384 112.211 174.44 111.931 174.44ZM109.219 181.184H111.451V176.624H109.219V175.808H112.411V181.184H114.499V182H109.219V181.184Z" fill="#E69C46"/>
<path d="M118.815 182.144C118.167 182.144 117.607 182.036 117.135 181.82C116.671 181.596 116.275 181.3 115.947 180.932L116.595 180.368C116.891 180.68 117.215 180.92 117.567 181.088C117.919 181.256 118.343 181.34 118.839 181.34C119.319 181.34 119.711 181.256 120.015 181.088C120.327 180.912 120.483 180.64 120.483 180.272C120.483 180.112 120.451 179.98 120.387 179.876C120.331 179.764 120.251 179.676 120.147 179.612C120.043 179.548 119.926 179.5 119.799 179.468C119.671 179.428 119.535 179.396 119.391 179.372L118.419 179.228C118.203 179.196 117.967 179.152 117.711 179.096C117.463 179.04 117.235 178.952 117.027 178.832C116.819 178.704 116.643 178.536 116.499 178.328C116.362 178.12 116.295 177.848 116.295 177.512C116.295 177.2 116.355 176.932 116.475 176.708C116.603 176.476 116.779 176.284 117.003 176.132C117.227 175.972 117.491 175.856 117.795 175.784C118.099 175.704 118.431 175.664 118.791 175.664C119.351 175.664 119.834 175.752 120.243 175.928C120.659 176.104 121.014 176.348 121.311 176.66L120.687 177.248C120.615 177.16 120.523 177.072 120.411 176.984C120.307 176.888 120.175 176.804 120.015 176.732C119.863 176.652 119.683 176.588 119.475 176.54C119.267 176.492 119.027 176.468 118.755 176.468C118.267 176.468 117.891 176.552 117.627 176.72C117.371 176.888 117.243 177.132 117.243 177.452C117.243 177.612 117.271 177.748 117.327 177.86C117.391 177.964 117.475 178.048 117.579 178.112C117.683 178.176 117.799 178.228 117.927 178.268C118.063 178.3 118.199 178.328 118.335 178.352L119.307 178.496C119.531 178.528 119.767 178.572 120.015 178.628C120.263 178.684 120.491 178.776 120.699 178.904C120.907 179.024 121.078 179.188 121.215 179.396C121.359 179.604 121.431 179.876 121.431 180.212C121.431 180.828 121.191 181.304 120.711 181.64C120.239 181.976 119.607 182.144 118.815 182.144Z" fill="#E69C46"/>
<path d="M130.709 182V175.808H131.669V176.816H131.717C131.781 176.664 131.861 176.52 131.957 176.384C132.053 176.24 132.169 176.116 132.305 176.012C132.449 175.908 132.617 175.824 132.809 175.76C133.001 175.696 133.225 175.664 133.481 175.664C134.129 175.664 134.649 175.872 135.041 176.288C135.433 176.696 135.629 177.276 135.629 178.028V182H134.669V178.196C134.669 177.628 134.545 177.208 134.297 176.936C134.049 176.656 133.685 176.516 133.205 176.516C133.013 176.516 132.825 176.54 132.641 176.588C132.457 176.636 132.293 176.708 132.149 176.804C132.005 176.9 131.889 177.024 131.801 177.176C131.713 177.328 131.669 177.504 131.669 177.704V182H130.709Z" fill="#E69C46"/>
<path d="M140.328 182.144C139.896 182.144 139.504 182.068 139.152 181.916C138.808 181.764 138.512 181.548 138.264 181.268C138.024 180.98 137.84 180.64 137.712 180.248C137.584 179.848 137.52 179.4 137.52 178.904C137.52 178.416 137.584 177.972 137.712 177.572C137.84 177.172 138.024 176.832 138.264 176.552C138.512 176.264 138.808 176.044 139.152 175.892C139.504 175.74 139.896 175.664 140.328 175.664C140.76 175.664 141.148 175.74 141.492 175.892C141.844 176.044 142.14 176.264 142.38 176.552C142.628 176.832 142.816 177.172 142.944 177.572C143.072 177.972 143.136 178.416 143.136 178.904C143.136 179.4 143.072 179.848 142.944 180.248C142.816 180.64 142.628 180.98 142.38 181.268C142.14 181.548 141.844 181.764 141.492 181.916C141.148 182.068 140.76 182.144 140.328 182.144ZM140.328 181.316C140.864 181.316 141.296 181.156 141.624 180.836C141.952 180.516 142.116 180.02 142.116 179.348V178.46C142.116 177.788 141.952 177.292 141.624 176.972C141.296 176.652 140.864 176.492 140.328 176.492C139.792 176.492 139.36 176.652 139.032 176.972C138.704 177.292 138.54 177.788 138.54 178.46V179.348C138.54 180.02 138.704 180.516 139.032 180.836C139.36 181.156 139.792 181.316 140.328 181.316Z" fill="#E69C46"/>
<path d="M147.824 182C147.352 182 147.004 181.868 146.78 181.604C146.564 181.34 146.456 181 146.456 180.584V176.624H144.392V175.808H145.928C146.136 175.808 146.28 175.768 146.36 175.688C146.448 175.6 146.492 175.452 146.492 175.244V173.624H147.416V175.808H150.236V176.624H147.416V181.184H150.236V182H147.824Z" fill="#E69C46"/>
<path d="M162.13 182.144C161.682 182.144 161.282 182.068 160.93 181.916C160.586 181.756 160.294 181.536 160.054 181.256C159.814 180.976 159.63 180.636 159.502 180.236C159.382 179.836 159.322 179.392 159.322 178.904C159.322 178.416 159.386 177.972 159.514 177.572C159.642 177.172 159.826 176.832 160.066 176.552C160.306 176.264 160.598 176.044 160.942 175.892C161.286 175.74 161.678 175.664 162.118 175.664C162.718 175.664 163.206 175.796 163.582 176.06C163.958 176.324 164.234 176.668 164.41 177.092L163.642 177.5C163.53 177.18 163.342 176.932 163.078 176.756C162.822 176.58 162.502 176.492 162.118 176.492C161.838 176.492 161.586 176.54 161.362 176.636C161.146 176.724 160.962 176.852 160.81 177.02C160.658 177.188 160.542 177.388 160.462 177.62C160.39 177.852 160.354 178.104 160.354 178.376V179.432C160.354 179.704 160.39 179.956 160.462 180.188C160.542 180.42 160.658 180.62 160.81 180.788C160.962 180.956 161.15 181.088 161.374 181.184C161.598 181.272 161.854 181.316 162.142 181.316C162.558 181.316 162.902 181.22 163.174 181.028C163.446 180.836 163.662 180.572 163.822 180.236L164.506 180.704C164.322 181.12 164.034 181.464 163.642 181.736C163.258 182.008 162.754 182.144 162.13 182.144Z" fill="#E69C46"/>
<path d="M169.11 182.144C168.678 182.144 168.286 182.068 167.934 181.916C167.59 181.764 167.294 181.548 167.046 181.268C166.806 180.98 166.622 180.64 166.494 180.248C166.366 179.848 166.302 179.4 166.302 178.904C166.302 178.416 166.366 177.972 166.494 177.572C166.622 177.172 166.806 176.832 167.046 176.552C167.294 176.264 167.59 176.044 167.934 175.892C168.286 175.74 168.678 175.664 169.11 175.664C169.542 175.664 169.93 175.74 170.274 175.892C170.626 176.044 170.922 176.264 171.162 176.552C171.41 176.832 171.598 177.172 171.726 177.572C171.854 177.972 171.918 178.416 171.918 178.904C171.918 179.4 171.854 179.848 171.726 180.248C171.598 180.64 171.41 180.98 171.162 181.268C170.922 181.548 170.626 181.764 170.274 181.916C169.93 182.068 169.542 182.144 169.11 182.144ZM169.11 181.316C169.646 181.316 170.078 181.156 170.406 180.836C170.734 180.516 170.898 180.02 170.898 179.348V178.46C170.898 177.788 170.734 177.292 170.406 176.972C170.078 176.652 169.646 176.492 169.11 176.492C168.574 176.492 168.142 176.652 167.814 176.972C167.486 177.292 167.322 177.788 167.322 178.46V179.348C167.322 180.02 167.486 180.516 167.814 180.836C168.142 181.156 168.574 181.316 169.11 181.316Z" fill="#E69C46"/>
<path d="M173.881 182V175.808H174.841V176.816H174.889C174.953 176.664 175.033 176.52 175.129 176.384C175.225 176.24 175.341 176.116 175.477 176.012C175.621 175.908 175.789 175.824 175.981 175.76C176.173 175.696 176.397 175.664 176.653 175.664C177.301 175.664 177.821 175.872 178.213 176.288C178.605 176.696 178.801 177.276 178.801 178.028V182H177.841V178.196C177.841 177.628 177.717 177.208 177.469 176.936C177.221 176.656 176.857 176.516 176.377 176.516C176.185 176.516 175.997 176.54 175.813 176.588C175.629 176.636 175.465 176.708 175.321 176.804C175.177 176.9 175.061 177.024 174.973 177.176C174.885 177.328 174.841 177.504 174.841 177.704V182H173.881Z" fill="#E69C46"/>
<path d="M181.076 182V175.808H182.036V176.816H182.084C182.148 176.664 182.228 176.52 182.324 176.384C182.42 176.24 182.536 176.116 182.672 176.012C182.816 175.908 182.984 175.824 183.176 175.76C183.368 175.696 183.592 175.664 183.848 175.664C184.496 175.664 185.016 175.872 185.408 176.288C185.8 176.696 185.996 177.276 185.996 178.028V182H185.036V178.196C185.036 177.628 184.912 177.208 184.664 176.936C184.416 176.656 184.052 176.516 183.572 176.516C183.38 176.516 183.192 176.54 183.008 176.588C182.824 176.636 182.66 176.708 182.516 176.804C182.372 176.9 182.256 177.024 182.168 177.176C182.08 177.328 182.036 177.504 182.036 177.704V182H181.076Z" fill="#E69C46"/>
<path d="M190.804 182.144C190.356 182.144 189.952 182.068 189.592 181.916C189.24 181.764 188.936 181.548 188.68 181.268C188.432 180.98 188.24 180.64 188.104 180.248C187.968 179.848 187.9 179.404 187.9 178.916C187.9 178.42 187.968 177.972 188.104 177.572C188.248 177.172 188.444 176.832 188.692 176.552C188.94 176.264 189.236 176.044 189.58 175.892C189.932 175.74 190.32 175.664 190.744 175.664C191.16 175.664 191.536 175.74 191.872 175.892C192.216 176.044 192.508 176.256 192.748 176.528C192.988 176.792 193.172 177.108 193.3 177.476C193.428 177.844 193.492 178.248 193.492 178.688V179.144H188.908V179.432C188.908 179.704 188.952 179.956 189.04 180.188C189.128 180.42 189.252 180.62 189.412 180.788C189.58 180.956 189.78 181.088 190.012 181.184C190.252 181.272 190.516 181.316 190.804 181.316C191.22 181.316 191.58 181.22 191.884 181.028C192.188 180.836 192.42 180.572 192.58 180.236L193.288 180.716C193.104 181.132 192.796 181.476 192.364 181.748C191.94 182.012 191.42 182.144 190.804 182.144ZM190.744 176.456C190.48 176.456 190.236 176.504 190.012 176.6C189.788 176.696 189.592 176.828 189.424 176.996C189.264 177.164 189.136 177.364 189.04 177.596C188.952 177.82 188.908 178.068 188.908 178.34V178.424H192.46V178.292C192.46 178.02 192.416 177.772 192.328 177.548C192.248 177.324 192.132 177.132 191.98 176.972C191.836 176.804 191.656 176.676 191.44 176.588C191.232 176.5 191 176.456 190.744 176.456Z" fill="#E69C46"/>
<path d="M198.107 182.144C197.659 182.144 197.259 182.068 196.907 181.916C196.563 181.756 196.271 181.536 196.031 181.256C195.791 180.976 195.607 180.636 195.479 180.236C195.359 179.836 195.299 179.392 195.299 178.904C195.299 178.416 195.363 177.972 195.491 177.572C195.619 177.172 195.803 176.832 196.043 176.552C196.283 176.264 196.575 176.044 196.919 175.892C197.263 175.74 197.655 175.664 198.095 175.664C198.695 175.664 199.183 175.796 199.559 176.06C199.935 176.324 200.211 176.668 200.387 177.092L199.619 177.5C199.507 177.18 199.319 176.932 199.055 176.756C198.799 176.58 198.479 176.492 198.095 176.492C197.815 176.492 197.563 176.54 197.339 176.636C197.123 176.724 196.939 176.852 196.787 177.02C196.635 177.188 196.519 177.388 196.439 177.62C196.367 177.852 196.331 178.104 196.331 178.376V179.432C196.331 179.704 196.367 179.956 196.439 180.188C196.519 180.42 196.635 180.62 196.787 180.788C196.939 180.956 197.127 181.088 197.351 181.184C197.575 181.272 197.831 181.316 198.119 181.316C198.535 181.316 198.879 181.22 199.151 181.028C199.423 180.836 199.639 180.572 199.799 180.236L200.483 180.704C200.299 181.12 200.011 181.464 199.619 181.736C199.235 182.008 198.731 182.144 198.107 182.144Z" fill="#E69C46"/>
<path d="M205.386 182C204.914 182 204.566 181.868 204.342 181.604C204.126 181.34 204.018 181 204.018 180.584V176.624H201.954V175.808H203.49C203.698 175.808 203.842 175.768 203.922 175.688C204.01 175.6 204.054 175.452 204.054 175.244V173.624H204.978V175.808H207.798V176.624H204.978V181.184H207.798V182H205.386Z" fill="#E69C46"/>
<path d="M212.39 182.144C211.942 182.144 211.538 182.068 211.178 181.916C210.826 181.764 210.522 181.548 210.266 181.268C210.018 180.98 209.826 180.64 209.69 180.248C209.554 179.848 209.486 179.404 209.486 178.916C209.486 178.42 209.554 177.972 209.69 177.572C209.834 177.172 210.03 176.832 210.278 176.552C210.526 176.264 210.822 176.044 211.166 175.892C211.518 175.74 211.906 175.664 212.33 175.664C212.746 175.664 213.122 175.74 213.458 175.892C213.802 176.044 214.094 176.256 214.334 176.528C214.574 176.792 214.758 177.108 214.886 177.476C215.014 177.844 215.078 178.248 215.078 178.688V179.144H210.494V179.432C210.494 179.704 210.538 179.956 210.626 180.188C210.714 180.42 210.838 180.62 210.998 180.788C211.166 180.956 211.366 181.088 211.598 181.184C211.838 181.272 212.102 181.316 212.39 181.316C212.806 181.316 213.166 181.22 213.47 181.028C213.774 180.836 214.006 180.572 214.166 180.236L214.874 180.716C214.69 181.132 214.382 181.476 213.95 181.748C213.526 182.012 213.006 182.144 212.39 182.144ZM212.33 176.456C212.066 176.456 211.822 176.504 211.598 176.6C211.374 176.696 211.178 176.828 211.01 176.996C210.85 177.164 210.722 177.364 210.626 177.596C210.538 177.82 210.494 178.068 210.494 178.34V178.424H214.046V178.292C214.046 178.02 214.002 177.772 213.914 177.548C213.834 177.324 213.718 177.132 213.566 176.972C213.422 176.804 213.242 176.676 213.026 176.588C212.818 176.5 212.586 176.456 212.33 176.456Z" fill="#E69C46"/>
<path d="M220.977 180.992H220.929C220.529 181.76 219.893 182.144 219.021 182.144C218.261 182.144 217.665 181.86 217.233 181.292C216.809 180.724 216.597 179.928 216.597 178.904C216.597 177.88 216.809 177.084 217.233 176.516C217.665 175.948 218.261 175.664 219.021 175.664C219.893 175.664 220.529 176.048 220.929 176.816H220.977V173.12H221.937V182H220.977V180.992ZM219.393 181.292C219.609 181.292 219.813 181.264 220.005 181.208C220.197 181.152 220.365 181.072 220.509 180.968C220.653 180.856 220.765 180.724 220.845 180.572C220.933 180.412 220.977 180.228 220.977 180.02V177.788C220.977 177.58 220.933 177.4 220.845 177.248C220.765 177.088 220.653 176.956 220.509 176.852C220.365 176.74 220.197 176.656 220.005 176.6C219.813 176.544 219.609 176.516 219.393 176.516C218.833 176.516 218.397 176.688 218.085 177.032C217.781 177.368 217.629 177.816 217.629 178.376V179.432C217.629 179.992 217.781 180.444 218.085 180.788C218.397 181.124 218.833 181.292 219.393 181.292Z" fill="#E69C46"/>
<path d="M54.8239 140.56V138.048C55.7413 138.005 56.4613 137.808 56.9839 137.456C57.5066 137.093 57.7679 136.549 57.7679 135.824V135.6C57.7679 135.003 57.5866 134.555 57.2239 134.256C56.8719 133.957 56.3866 133.808 55.7679 133.808C55.1279 133.808 54.6159 133.984 54.2319 134.336C53.8479 134.688 53.5813 135.136 53.4319 135.68L52.2319 135.232C52.3386 134.88 52.4879 134.549 52.6799 134.24C52.8719 133.92 53.1119 133.643 53.3999 133.408C53.6986 133.173 54.0453 132.987 54.4399 132.848C54.8453 132.709 55.3039 132.64 55.8159 132.64C56.3279 132.64 56.7866 132.715 57.1919 132.864C57.6079 133.003 57.9599 133.205 58.2479 133.472C58.5359 133.728 58.7599 134.043 58.9199 134.416C59.0799 134.789 59.1599 135.205 59.1599 135.664C59.1599 136.165 59.0693 136.608 58.8879 136.992C58.7066 137.365 58.4719 137.685 58.1839 137.952C57.8959 138.219 57.5653 138.437 57.1919 138.608C56.8293 138.768 56.4613 138.88 56.0879 138.944V140.56H54.8239ZM55.5119 144.144C55.0746 144.144 54.7653 144.053 54.5839 143.872C54.4133 143.691 54.3279 143.461 54.3279 143.184V142.896C54.3279 142.619 54.4133 142.389 54.5839 142.208C54.7653 142.027 55.0746 141.936 55.5119 141.936C55.9493 141.936 56.2533 142.027 56.4239 142.208C56.6053 142.389 56.6959 142.619 56.6959 142.896V143.184C56.6959 143.461 56.6053 143.691 56.4239 143.872C56.2533 144.053 55.9493 144.144 55.5119 144.144Z" fill="#55575F"/>
<path d="M64.4177 140.56V138.048C65.335 138.005 66.055 137.808 66.5777 137.456C67.1004 137.093 67.3617 136.549 67.3617 135.824V135.6C67.3617 135.003 67.1804 134.555 66.8177 134.256C66.4657 133.957 65.9803 133.808 65.3617 133.808C64.7217 133.808 64.2097 133.984 63.8257 134.336C63.4417 134.688 63.175 135.136 63.0257 135.68L61.8257 135.232C61.9324 134.88 62.0817 134.549 62.2737 134.24C62.4657 133.92 62.7057 133.643 62.9937 133.408C63.2923 133.173 63.639 132.987 64.0337 132.848C64.439 132.709 64.8977 132.64 65.4097 132.64C65.9217 132.64 66.3804 132.715 66.7857 132.864C67.2017 133.003 67.5537 133.205 67.8417 133.472C68.1297 133.728 68.3537 134.043 68.5137 134.416C68.6737 134.789 68.7537 135.205 68.7537 135.664C68.7537 136.165 68.663 136.608 68.4817 136.992C68.3004 137.365 68.0657 137.685 67.7777 137.952C67.4897 138.219 67.159 138.437 66.7857 138.608C66.423 138.768 66.055 138.88 65.6817 138.944V140.56H64.4177ZM65.1057 144.144C64.6684 144.144 64.359 144.053 64.1777 143.872C64.007 143.691 63.9217 143.461 63.9217 143.184V142.896C63.9217 142.619 64.007 142.389 64.1777 142.208C64.359 142.027 64.6684 141.936 65.1057 141.936C65.543 141.936 65.847 142.027 66.0177 142.208C66.199 142.389 66.2897 142.619 66.2897 142.896V143.184C66.2897 143.461 66.199 143.691 66.0177 143.872C65.847 144.053 65.543 144.144 65.1057 144.144Z" fill="#55575F"/>
<path d="M74.0114 140.56V138.048C74.9288 138.005 75.6488 137.808 76.1714 137.456C76.6941 137.093 76.9554 136.549 76.9554 135.824V135.6C76.9554 135.003 76.7741 134.555 76.4114 134.256C76.0594 133.957 75.5741 133.808 74.9554 133.808C74.3154 133.808 73.8034 133.984 73.4194 134.336C73.0354 134.688 72.7688 135.136 72.6194 135.68L71.4194 135.232C71.5261 134.88 71.6754 134.549 71.8674 134.24C72.0594 133.92 72.2994 133.643 72.5874 133.408C72.8861 133.173 73.2328 132.987 73.6274 132.848C74.0328 132.709 74.4914 132.64 75.0034 132.64C75.5154 132.64 75.9741 132.715 76.3794 132.864C76.7954 133.003 77.1474 133.205 77.4354 133.472C77.7234 133.728 77.9474 134.043 78.1074 134.416C78.2674 134.789 78.3474 135.205 78.3474 135.664C78.3474 136.165 78.2568 136.608 78.0754 136.992C77.8941 137.365 77.6594 137.685 77.3714 137.952C77.0834 138.219 76.7528 138.437 76.3794 138.608C76.0168 138.768 75.6488 138.88 75.2754 138.944V140.56H74.0114ZM74.6994 144.144C74.2621 144.144 73.9528 144.053 73.7714 143.872C73.6008 143.691 73.5154 143.461 73.5154 143.184V142.896C73.5154 142.619 73.6008 142.389 73.7714 142.208C73.9528 142.027 74.2621 141.936 74.6994 141.936C75.1368 141.936 75.4408 142.027 75.6114 142.208C75.7928 142.389 75.8834 142.619 75.8834 142.896V143.184C75.8834 143.461 75.7928 143.691 75.6114 143.872C75.4408 144.053 75.1368 144.144 74.6994 144.144Z" fill="#55575F"/>
<path d="M39.3281 135.337C39.0952 135.337 38.8624 135.38 38.6508 135.485L30.5238 127.351C30.6085 127.139 30.672 126.928 30.672 126.673C30.672 125.741 29.9101 125 29 125C28.0899 125 27.328 125.763 27.328 126.673C27.328 126.906 27.3704 127.139 27.4762 127.351L19.3492 135.464C19.1376 135.38 18.9259 135.316 18.672 135.316C17.7407 135.316 17 136.079 17 136.989C17 137.9 17.7619 138.663 18.672 138.663C18.9048 138.663 19.1376 138.62 19.3492 138.515L27.4762 146.649C27.3915 146.861 27.328 147.072 27.328 147.327C27.328 148.259 28.0899 149 29 149C29.9101 149 30.672 148.237 30.672 147.327C30.672 147.093 30.6296 146.861 30.5238 146.649L38.6508 138.515C38.8624 138.599 39.074 138.663 39.3281 138.663C40.2593 138.663 41 137.9 41 136.989C41 136.079 40.2593 135.337 39.3281 135.337ZM37.7618 136.417L34.6085 137.18C34.3334 136.82 33.9101 136.566 33.4232 136.566C33.0635 136.566 32.746 136.693 32.4921 136.905L30.4391 135.951C30.4391 135.93 30.4391 135.93 30.4391 135.909C30.4391 135.316 30.1005 134.829 29.5926 134.596V128.241C29.6138 128.241 29.6349 128.22 29.6561 128.22L37.783 136.354C37.783 136.354 37.7618 136.396 37.7618 136.417ZM29 145.674C28.9577 145.674 28.9153 145.674 28.873 145.674L25.6984 138.959C25.9101 138.705 26.037 138.387 26.037 138.027L28.1111 137.053C28.3651 137.244 28.6825 137.371 29 137.371C29.3386 137.371 29.6561 137.244 29.9101 137.053L31.9841 138.027C31.9841 138.027 31.9841 138.027 31.9841 138.049C31.9841 138.409 32.1111 138.726 32.3228 138.981L29.1058 145.674C29.0847 145.674 29.0423 145.674 29 145.674ZM28.3862 128.241V134.596C27.8995 134.829 27.5397 135.337 27.5397 135.909C27.5397 135.93 27.5397 135.951 27.5397 135.951L25.4868 136.905C25.2328 136.693 24.9153 136.566 24.5556 136.566C24.0688 136.566 23.6455 136.799 23.3704 137.18L20.2381 136.417C20.2381 136.396 20.2169 136.375 20.2169 136.333L28.3439 128.199C28.3439 128.22 28.3651 128.22 28.3862 128.241ZM20.2169 137.667L23.1587 138.387C23.328 139.023 23.8783 139.489 24.5767 139.489H24.5979L26.9259 144.403L20.2169 137.667ZM33.4021 139.489H33.4232C34.1005 139.489 34.672 139.023 34.8412 138.387L37.783 137.667C37.783 137.667 37.783 137.667 37.783 137.688L31.0741 144.403L33.4021 139.489Z" fill="#6F7380"/>
<path d="M85.52 132.832H88.64C90.0054 132.832 91.024 133.301 91.696 134.24C92.368 135.179 92.704 136.571 92.704 138.416C92.704 140.261 92.368 141.653 91.696 142.592C91.024 143.531 90.0054 144 88.64 144H85.52V132.832ZM88.576 142.832C89.472 142.832 90.144 142.523 90.592 141.904C91.0507 141.285 91.28 140.411 91.28 139.28V137.552C91.28 136.421 91.0507 135.547 90.592 134.928C90.144 134.309 89.472 134 88.576 134H86.864V142.832H88.576Z" fill="#55575F"/>
<path d="M95.0338 144V132.832H101.914V134H96.3778V137.76H101.722V138.928H96.3778V142.832H101.914V144H95.0338Z" fill="#55575F"/>
<path d="M105.812 132.832V139.536C105.812 140.08 105.828 140.565 105.86 140.992C105.892 141.419 105.977 141.787 106.116 142.096C106.254 142.395 106.468 142.624 106.756 142.784C107.054 142.944 107.465 143.024 107.988 143.024C108.51 143.024 108.916 142.944 109.204 142.784C109.502 142.624 109.721 142.395 109.86 142.096C109.998 141.787 110.084 141.419 110.116 140.992C110.148 140.565 110.164 140.08 110.164 139.536V132.832H111.508V139.216C111.508 140.048 111.465 140.773 111.38 141.392C111.305 142.011 111.14 142.528 110.884 142.944C110.638 143.36 110.281 143.675 109.812 143.888C109.353 144.091 108.745 144.192 107.988 144.192C107.23 144.192 106.617 144.091 106.148 143.888C105.689 143.675 105.332 143.36 105.076 142.944C104.83 142.528 104.665 142.011 104.58 141.392C104.505 140.773 104.468 140.048 104.468 139.216V132.832H105.812Z" fill="#55575F"/>
<path d="M117.549 144.192C116.547 144.192 115.725 144.011 115.085 143.648C114.445 143.275 113.917 142.8 113.501 142.224L114.477 141.424C114.915 141.968 115.373 142.373 115.853 142.64C116.344 142.907 116.925 143.04 117.597 143.04C118.408 143.04 119.027 142.853 119.453 142.48C119.88 142.107 120.093 141.584 120.093 140.912C120.093 140.368 119.939 139.947 119.629 139.648C119.32 139.339 118.781 139.12 118.013 138.992L116.765 138.784C116.221 138.688 115.763 138.544 115.389 138.352C115.027 138.16 114.733 137.931 114.509 137.664C114.285 137.387 114.125 137.088 114.029 136.768C113.933 136.437 113.885 136.096 113.885 135.744C113.885 134.72 114.221 133.947 114.893 133.424C115.565 132.901 116.472 132.64 117.613 132.64C118.509 132.64 119.261 132.789 119.869 133.088C120.488 133.387 120.984 133.808 121.357 134.352L120.413 135.168C120.104 134.763 119.731 134.432 119.293 134.176C118.856 133.92 118.291 133.792 117.597 133.792C116.84 133.792 116.259 133.952 115.853 134.272C115.448 134.592 115.245 135.072 115.245 135.712C115.245 136.213 115.395 136.624 115.693 136.944C116.003 137.253 116.552 137.477 117.341 137.616L118.541 137.824C119.085 137.92 119.544 138.064 119.917 138.256C120.291 138.448 120.589 138.677 120.813 138.944C121.048 139.211 121.213 139.509 121.309 139.84C121.405 140.171 121.453 140.517 121.453 140.88C121.453 141.915 121.112 142.725 120.429 143.312C119.757 143.899 118.797 144.192 117.549 144.192Z" fill="#55575F"/>
</svg>
