<svg width="280" height="222" viewBox="0 0 280 222" fill="none" xmlns="http://www.w3.org/2000/svg">
<rect x="1" y="1" width="278" height="100" rx="12" fill="#181A1F" stroke="#23252C"/>
<path d="M29 37C35.65 37 41 31.65 41 25C41 18.35 35.65 13 29 13C22.35 13 17 18.35 17 25C17 31.65 22.35 37 29 37Z" fill="#2775CA"/>
<path d="M32.3001 26.8999C32.3001 25.15 31.2501 24.55 29.1501 24.3C27.6501 24.1 27.3501 23.7 27.3501 22.9999C27.3501 22.2999 27.8501 21.85 28.8501 21.85C29.7501 21.85 30.2501 22.15 30.5001 22.9C30.5501 23.05 30.7001 23.1499 30.8501 23.1499H31.65C31.8501 23.1499 32.0001 22.9999 32.0001 22.8V22.75C31.8 21.6499 30.9 20.8 29.7501 20.7V19.5C29.7501 19.3 29.6001 19.15 29.3501 19.0999H28.6001C28.4001 19.0999 28.2501 19.2499 28.2 19.5V20.65C26.7 20.85 25.7501 21.85 25.7501 23.1C25.7501 24.75 26.7501 25.3999 28.8501 25.65C30.2501 25.9 30.7001 26.2 30.7001 27C30.7001 27.8001 30 28.35 29.0501 28.35C27.75 28.35 27.3 27.7999 27.15 27.0499C27.1001 26.85 26.9501 26.7499 26.8001 26.7499H25.95C25.7501 26.7499 25.6001 26.8999 25.6001 27.1V27.15C25.8 28.3999 26.6001 29.2999 28.2501 29.55V30.75C28.2501 30.9499 28.4001 31.0999 28.65 31.15H29.4C29.6001 31.15 29.7501 31 29.8001 30.75V29.55C31.3001 29.2999 32.3001 28.2499 32.3001 26.8999Z" fill="white"/>
<path d="M26.45 32.15C22.55 30.75 20.55 26.4 22 22.55C22.75 20.45 24.4 18.85 26.45 18.1C26.65 18 26.75 17.85 26.75 17.6V16.9C26.75 16.7 26.65 16.55 26.45 16.5C26.4 16.5 26.3 16.5 26.25 16.55C21.5 18.05 18.9 23.1 20.4 27.85C21.3 30.65 23.45 32.8 26.25 33.7C26.45 33.7999 26.65 33.7 26.7 33.5C26.75 33.45 26.75 33.4 26.75 33.3V32.5999C26.75 32.4499 26.6 32.25 26.45 32.15ZM31.75 16.55C31.55 16.45 31.35 16.55 31.3 16.75C31.25 16.8 31.25 16.85 31.25 16.95V17.65C31.25 17.85 31.4 18.05 31.55 18.15C35.45 19.55 37.45 23.9 36 27.75C35.25 29.85 33.6 31.45 31.55 32.2C31.35 32.3 31.25 32.45 31.25 32.7V33.4C31.25 33.6 31.35 33.75 31.55 33.7999C31.6 33.7999 31.7 33.8 31.75 33.75C36.5 32.25 39.1 27.2 37.6 22.45C36.7 19.6 34.5 17.45 31.75 16.55Z" fill="white"/>
<rect x="17" y="45" width="246" height="40" rx="8" fill="#202229"/>
<path d="M58.66 70L58 61.624H58.9L59.248 66.424L59.428 68.956H59.524L60.628 63.808H61.756L62.86 68.956H62.956L63.136 66.424L63.484 61.624H64.36L63.7 70H62.248L61.228 64.996H61.132L60.112 70H58.66Z" fill="#E69C46"/>
<path d="M70.7153 70C70.3393 70 70.0713 69.904 69.9113 69.712C69.7513 69.52 69.6513 69.28 69.6113 68.992H69.5513C69.4153 69.352 69.1953 69.636 68.8913 69.844C68.5953 70.044 68.1953 70.144 67.6913 70.144C67.0433 70.144 66.5273 69.976 66.1433 69.64C65.7593 69.304 65.5673 68.844 65.5673 68.26C65.5673 67.684 65.7753 67.24 66.1913 66.928C66.6153 66.616 67.2953 66.46 68.2313 66.46H69.5513V65.848C69.5513 65.392 69.4233 65.052 69.1673 64.828C68.9113 64.596 68.5473 64.48 68.0753 64.48C67.6593 64.48 67.3193 64.564 67.0553 64.732C66.7913 64.892 66.5793 65.112 66.4193 65.392L65.7713 64.912C65.8513 64.752 65.9593 64.596 66.0953 64.444C66.2313 64.292 66.3993 64.16 66.5993 64.048C66.7993 63.928 67.0273 63.836 67.2833 63.772C67.5393 63.7 67.8233 63.664 68.1353 63.664C68.8633 63.664 69.4393 63.848 69.8633 64.216C70.2953 64.584 70.5113 65.096 70.5113 65.752V69.16H71.3753V70H70.7153ZM67.8593 69.34C68.1073 69.34 68.3313 69.312 68.5313 69.256C68.7393 69.192 68.9193 69.112 69.0713 69.016C69.2233 68.912 69.3393 68.792 69.4193 68.656C69.5073 68.512 69.5513 68.36 69.5513 68.2V67.18H68.2313C67.6553 67.18 67.2353 67.26 66.9713 67.42C66.7073 67.58 66.5753 67.812 66.5753 68.116V68.368C66.5753 68.688 66.6873 68.932 66.9113 69.1C67.1433 69.26 67.4593 69.34 67.8593 69.34Z" fill="#E69C46"/>
<path d="M72.9306 69.184H75.0906V61.936H72.9306V61.12H76.0506V69.184H78.2106V70H72.9306V69.184Z" fill="#E69C46"/>
<path d="M80.1259 69.184H82.2859V61.936H80.1259V61.12H83.2459V69.184H85.4059V70H80.1259V69.184Z" fill="#E69C46"/>
<path d="M90.0693 70.144C89.6213 70.144 89.2173 70.068 88.8573 69.916C88.5053 69.764 88.2013 69.548 87.9452 69.268C87.6973 68.98 87.5052 68.64 87.3692 68.248C87.2332 67.848 87.1653 67.404 87.1653 66.916C87.1653 66.42 87.2332 65.972 87.3692 65.572C87.5132 65.172 87.7093 64.832 87.9573 64.552C88.2052 64.264 88.5013 64.044 88.8453 63.892C89.1973 63.74 89.5853 63.664 90.0093 63.664C90.4253 63.664 90.8013 63.74 91.1373 63.892C91.4813 64.044 91.7733 64.256 92.0133 64.528C92.2533 64.792 92.4373 65.108 92.5653 65.476C92.6933 65.844 92.7573 66.248 92.7573 66.688V67.144H88.1733V67.432C88.1733 67.704 88.2173 67.956 88.3053 68.188C88.3932 68.42 88.5173 68.62 88.6772 68.788C88.8452 68.956 89.0452 69.088 89.2773 69.184C89.5173 69.272 89.7813 69.316 90.0693 69.316C90.4853 69.316 90.8453 69.22 91.1493 69.028C91.4533 68.836 91.6853 68.572 91.8453 68.236L92.5533 68.716C92.3693 69.132 92.0613 69.476 91.6293 69.748C91.2053 70.012 90.6853 70.144 90.0693 70.144ZM90.0093 64.456C89.7453 64.456 89.5013 64.504 89.2773 64.6C89.0532 64.696 88.8572 64.828 88.6892 64.996C88.5292 65.164 88.4013 65.364 88.3053 65.596C88.2173 65.82 88.1733 66.068 88.1733 66.34V66.424H91.7253V66.292C91.7253 66.02 91.6813 65.772 91.5933 65.548C91.5133 65.324 91.3973 65.132 91.2453 64.972C91.1012 64.804 90.9213 64.676 90.7053 64.588C90.4973 64.5 90.2653 64.456 90.0093 64.456Z" fill="#E69C46"/>
<path d="M97.4566 70C96.9846 70 96.6366 69.868 96.4126 69.604C96.1966 69.34 96.0886 69 96.0886 68.584V64.624H94.0246V63.808H95.5606C95.7686 63.808 95.9126 63.768 95.9926 63.688C96.0806 63.6 96.1246 63.452 96.1246 63.244V61.624H97.0486V63.808H99.8686V64.624H97.0486V69.184H99.8686V70H97.4566Z" fill="#E69C46"/>
<path d="M111.931 62.44C111.651 62.44 111.455 62.384 111.343 62.272C111.231 62.152 111.175 62.004 111.175 61.828V61.636C111.175 61.46 111.231 61.316 111.343 61.204C111.455 61.084 111.651 61.024 111.931 61.024C112.211 61.024 112.407 61.084 112.519 61.204C112.631 61.316 112.687 61.46 112.687 61.636V61.828C112.687 62.004 112.631 62.152 112.519 62.272C112.407 62.384 112.211 62.44 111.931 62.44ZM109.219 69.184H111.451V64.624H109.219V63.808H112.411V69.184H114.499V70H109.219V69.184Z" fill="#E69C46"/>
<path d="M118.815 70.144C118.167 70.144 117.607 70.036 117.135 69.82C116.671 69.596 116.275 69.3 115.947 68.932L116.595 68.368C116.891 68.68 117.215 68.92 117.567 69.088C117.919 69.256 118.343 69.34 118.839 69.34C119.319 69.34 119.711 69.256 120.015 69.088C120.327 68.912 120.483 68.64 120.483 68.272C120.483 68.112 120.451 67.98 120.387 67.876C120.331 67.764 120.251 67.676 120.147 67.612C120.043 67.548 119.926 67.5 119.799 67.468C119.671 67.428 119.535 67.396 119.391 67.372L118.419 67.228C118.203 67.196 117.967 67.152 117.711 67.096C117.463 67.04 117.235 66.952 117.027 66.832C116.819 66.704 116.643 66.536 116.499 66.328C116.362 66.12 116.295 65.848 116.295 65.512C116.295 65.2 116.355 64.932 116.475 64.708C116.603 64.476 116.779 64.284 117.003 64.132C117.227 63.972 117.491 63.856 117.795 63.784C118.099 63.704 118.431 63.664 118.791 63.664C119.351 63.664 119.834 63.752 120.243 63.928C120.659 64.104 121.014 64.348 121.311 64.66L120.687 65.248C120.615 65.16 120.523 65.072 120.411 64.984C120.307 64.888 120.175 64.804 120.015 64.732C119.863 64.652 119.683 64.588 119.475 64.54C119.267 64.492 119.027 64.468 118.755 64.468C118.267 64.468 117.891 64.552 117.627 64.72C117.371 64.888 117.243 65.132 117.243 65.452C117.243 65.612 117.271 65.748 117.327 65.86C117.391 65.964 117.475 66.048 117.579 66.112C117.683 66.176 117.799 66.228 117.927 66.268C118.063 66.3 118.199 66.328 118.335 66.352L119.307 66.496C119.531 66.528 119.767 66.572 120.015 66.628C120.263 66.684 120.491 66.776 120.699 66.904C120.907 67.024 121.078 67.188 121.215 67.396C121.359 67.604 121.431 67.876 121.431 68.212C121.431 68.828 121.191 69.304 120.711 69.64C120.239 69.976 119.607 70.144 118.815 70.144Z" fill="#E69C46"/>
<path d="M130.709 70V63.808H131.669V64.816H131.717C131.781 64.664 131.861 64.52 131.957 64.384C132.053 64.24 132.169 64.116 132.305 64.012C132.449 63.908 132.617 63.824 132.809 63.76C133.001 63.696 133.225 63.664 133.481 63.664C134.129 63.664 134.649 63.872 135.041 64.288C135.433 64.696 135.629 65.276 135.629 66.028V70H134.669V66.196C134.669 65.628 134.545 65.208 134.297 64.936C134.049 64.656 133.685 64.516 133.205 64.516C133.013 64.516 132.825 64.54 132.641 64.588C132.457 64.636 132.293 64.708 132.149 64.804C132.005 64.9 131.889 65.024 131.801 65.176C131.713 65.328 131.669 65.504 131.669 65.704V70H130.709Z" fill="#E69C46"/>
<path d="M140.328 70.144C139.896 70.144 139.504 70.068 139.152 69.916C138.808 69.764 138.512 69.548 138.264 69.268C138.024 68.98 137.84 68.64 137.712 68.248C137.584 67.848 137.52 67.4 137.52 66.904C137.52 66.416 137.584 65.972 137.712 65.572C137.84 65.172 138.024 64.832 138.264 64.552C138.512 64.264 138.808 64.044 139.152 63.892C139.504 63.74 139.896 63.664 140.328 63.664C140.76 63.664 141.148 63.74 141.492 63.892C141.844 64.044 142.14 64.264 142.38 64.552C142.628 64.832 142.816 65.172 142.944 65.572C143.072 65.972 143.136 66.416 143.136 66.904C143.136 67.4 143.072 67.848 142.944 68.248C142.816 68.64 142.628 68.98 142.38 69.268C142.14 69.548 141.844 69.764 141.492 69.916C141.148 70.068 140.76 70.144 140.328 70.144ZM140.328 69.316C140.864 69.316 141.296 69.156 141.624 68.836C141.952 68.516 142.116 68.02 142.116 67.348V66.46C142.116 65.788 141.952 65.292 141.624 64.972C141.296 64.652 140.864 64.492 140.328 64.492C139.792 64.492 139.36 64.652 139.032 64.972C138.704 65.292 138.54 65.788 138.54 66.46V67.348C138.54 68.02 138.704 68.516 139.032 68.836C139.36 69.156 139.792 69.316 140.328 69.316Z" fill="#E69C46"/>
<path d="M147.824 70C147.352 70 147.004 69.868 146.78 69.604C146.564 69.34 146.456 69 146.456 68.584V64.624H144.392V63.808H145.928C146.136 63.808 146.28 63.768 146.36 63.688C146.448 63.6 146.492 63.452 146.492 63.244V61.624H147.416V63.808H150.236V64.624H147.416V69.184H150.236V70H147.824Z" fill="#E69C46"/>
<path d="M162.13 70.144C161.682 70.144 161.282 70.068 160.93 69.916C160.586 69.756 160.294 69.536 160.054 69.256C159.814 68.976 159.63 68.636 159.502 68.236C159.382 67.836 159.322 67.392 159.322 66.904C159.322 66.416 159.386 65.972 159.514 65.572C159.642 65.172 159.826 64.832 160.066 64.552C160.306 64.264 160.598 64.044 160.942 63.892C161.286 63.74 161.678 63.664 162.118 63.664C162.718 63.664 163.206 63.796 163.582 64.06C163.958 64.324 164.234 64.668 164.41 65.092L163.642 65.5C163.53 65.18 163.342 64.932 163.078 64.756C162.822 64.58 162.502 64.492 162.118 64.492C161.838 64.492 161.586 64.54 161.362 64.636C161.146 64.724 160.962 64.852 160.81 65.02C160.658 65.188 160.542 65.388 160.462 65.62C160.39 65.852 160.354 66.104 160.354 66.376V67.432C160.354 67.704 160.39 67.956 160.462 68.188C160.542 68.42 160.658 68.62 160.81 68.788C160.962 68.956 161.15 69.088 161.374 69.184C161.598 69.272 161.854 69.316 162.142 69.316C162.558 69.316 162.902 69.22 163.174 69.028C163.446 68.836 163.662 68.572 163.822 68.236L164.506 68.704C164.322 69.12 164.034 69.464 163.642 69.736C163.258 70.008 162.754 70.144 162.13 70.144Z" fill="#E69C46"/>
<path d="M169.11 70.144C168.678 70.144 168.286 70.068 167.934 69.916C167.59 69.764 167.294 69.548 167.046 69.268C166.806 68.98 166.622 68.64 166.494 68.248C166.366 67.848 166.302 67.4 166.302 66.904C166.302 66.416 166.366 65.972 166.494 65.572C166.622 65.172 166.806 64.832 167.046 64.552C167.294 64.264 167.59 64.044 167.934 63.892C168.286 63.74 168.678 63.664 169.11 63.664C169.542 63.664 169.93 63.74 170.274 63.892C170.626 64.044 170.922 64.264 171.162 64.552C171.41 64.832 171.598 65.172 171.726 65.572C171.854 65.972 171.918 66.416 171.918 66.904C171.918 67.4 171.854 67.848 171.726 68.248C171.598 68.64 171.41 68.98 171.162 69.268C170.922 69.548 170.626 69.764 170.274 69.916C169.93 70.068 169.542 70.144 169.11 70.144ZM169.11 69.316C169.646 69.316 170.078 69.156 170.406 68.836C170.734 68.516 170.898 68.02 170.898 67.348V66.46C170.898 65.788 170.734 65.292 170.406 64.972C170.078 64.652 169.646 64.492 169.11 64.492C168.574 64.492 168.142 64.652 167.814 64.972C167.486 65.292 167.322 65.788 167.322 66.46V67.348C167.322 68.02 167.486 68.516 167.814 68.836C168.142 69.156 168.574 69.316 169.11 69.316Z" fill="#E69C46"/>
<path d="M173.881 70V63.808H174.841V64.816H174.889C174.953 64.664 175.033 64.52 175.129 64.384C175.225 64.24 175.341 64.116 175.477 64.012C175.621 63.908 175.789 63.824 175.981 63.76C176.173 63.696 176.397 63.664 176.653 63.664C177.301 63.664 177.821 63.872 178.213 64.288C178.605 64.696 178.801 65.276 178.801 66.028V70H177.841V66.196C177.841 65.628 177.717 65.208 177.469 64.936C177.221 64.656 176.857 64.516 176.377 64.516C176.185 64.516 175.997 64.54 175.813 64.588C175.629 64.636 175.465 64.708 175.321 64.804C175.177 64.9 175.061 65.024 174.973 65.176C174.885 65.328 174.841 65.504 174.841 65.704V70H173.881Z" fill="#E69C46"/>
<path d="M181.076 70V63.808H182.036V64.816H182.084C182.148 64.664 182.228 64.52 182.324 64.384C182.42 64.24 182.536 64.116 182.672 64.012C182.816 63.908 182.984 63.824 183.176 63.76C183.368 63.696 183.592 63.664 183.848 63.664C184.496 63.664 185.016 63.872 185.408 64.288C185.8 64.696 185.996 65.276 185.996 66.028V70H185.036V66.196C185.036 65.628 184.912 65.208 184.664 64.936C184.416 64.656 184.052 64.516 183.572 64.516C183.38 64.516 183.192 64.54 183.008 64.588C182.824 64.636 182.66 64.708 182.516 64.804C182.372 64.9 182.256 65.024 182.168 65.176C182.08 65.328 182.036 65.504 182.036 65.704V70H181.076Z" fill="#E69C46"/>
<path d="M190.804 70.144C190.356 70.144 189.952 70.068 189.592 69.916C189.24 69.764 188.936 69.548 188.68 69.268C188.432 68.98 188.24 68.64 188.104 68.248C187.968 67.848 187.9 67.404 187.9 66.916C187.9 66.42 187.968 65.972 188.104 65.572C188.248 65.172 188.444 64.832 188.692 64.552C188.94 64.264 189.236 64.044 189.58 63.892C189.932 63.74 190.32 63.664 190.744 63.664C191.16 63.664 191.536 63.74 191.872 63.892C192.216 64.044 192.508 64.256 192.748 64.528C192.988 64.792 193.172 65.108 193.3 65.476C193.428 65.844 193.492 66.248 193.492 66.688V67.144H188.908V67.432C188.908 67.704 188.952 67.956 189.04 68.188C189.128 68.42 189.252 68.62 189.412 68.788C189.58 68.956 189.78 69.088 190.012 69.184C190.252 69.272 190.516 69.316 190.804 69.316C191.22 69.316 191.58 69.22 191.884 69.028C192.188 68.836 192.42 68.572 192.58 68.236L193.288 68.716C193.104 69.132 192.796 69.476 192.364 69.748C191.94 70.012 191.42 70.144 190.804 70.144ZM190.744 64.456C190.48 64.456 190.236 64.504 190.012 64.6C189.788 64.696 189.592 64.828 189.424 64.996C189.264 65.164 189.136 65.364 189.04 65.596C188.952 65.82 188.908 66.068 188.908 66.34V66.424H192.46V66.292C192.46 66.02 192.416 65.772 192.328 65.548C192.248 65.324 192.132 65.132 191.98 64.972C191.836 64.804 191.656 64.676 191.44 64.588C191.232 64.5 191 64.456 190.744 64.456Z" fill="#E69C46"/>
<path d="M198.107 70.144C197.659 70.144 197.259 70.068 196.907 69.916C196.563 69.756 196.271 69.536 196.031 69.256C195.791 68.976 195.607 68.636 195.479 68.236C195.359 67.836 195.299 67.392 195.299 66.904C195.299 66.416 195.363 65.972 195.491 65.572C195.619 65.172 195.803 64.832 196.043 64.552C196.283 64.264 196.575 64.044 196.919 63.892C197.263 63.74 197.655 63.664 198.095 63.664C198.695 63.664 199.183 63.796 199.559 64.06C199.935 64.324 200.211 64.668 200.387 65.092L199.619 65.5C199.507 65.18 199.319 64.932 199.055 64.756C198.799 64.58 198.479 64.492 198.095 64.492C197.815 64.492 197.563 64.54 197.339 64.636C197.123 64.724 196.939 64.852 196.787 65.02C196.635 65.188 196.519 65.388 196.439 65.62C196.367 65.852 196.331 66.104 196.331 66.376V67.432C196.331 67.704 196.367 67.956 196.439 68.188C196.519 68.42 196.635 68.62 196.787 68.788C196.939 68.956 197.127 69.088 197.351 69.184C197.575 69.272 197.831 69.316 198.119 69.316C198.535 69.316 198.879 69.22 199.151 69.028C199.423 68.836 199.639 68.572 199.799 68.236L200.483 68.704C200.299 69.12 200.011 69.464 199.619 69.736C199.235 70.008 198.731 70.144 198.107 70.144Z" fill="#E69C46"/>
<path d="M205.386 70C204.914 70 204.566 69.868 204.342 69.604C204.126 69.34 204.018 69 204.018 68.584V64.624H201.954V63.808H203.49C203.698 63.808 203.842 63.768 203.922 63.688C204.01 63.6 204.054 63.452 204.054 63.244V61.624H204.978V63.808H207.798V64.624H204.978V69.184H207.798V70H205.386Z" fill="#E69C46"/>
<path d="M212.39 70.144C211.942 70.144 211.538 70.068 211.178 69.916C210.826 69.764 210.522 69.548 210.266 69.268C210.018 68.98 209.826 68.64 209.69 68.248C209.554 67.848 209.486 67.404 209.486 66.916C209.486 66.42 209.554 65.972 209.69 65.572C209.834 65.172 210.03 64.832 210.278 64.552C210.526 64.264 210.822 64.044 211.166 63.892C211.518 63.74 211.906 63.664 212.33 63.664C212.746 63.664 213.122 63.74 213.458 63.892C213.802 64.044 214.094 64.256 214.334 64.528C214.574 64.792 214.758 65.108 214.886 65.476C215.014 65.844 215.078 66.248 215.078 66.688V67.144H210.494V67.432C210.494 67.704 210.538 67.956 210.626 68.188C210.714 68.42 210.838 68.62 210.998 68.788C211.166 68.956 211.366 69.088 211.598 69.184C211.838 69.272 212.102 69.316 212.39 69.316C212.806 69.316 213.166 69.22 213.47 69.028C213.774 68.836 214.006 68.572 214.166 68.236L214.874 68.716C214.69 69.132 214.382 69.476 213.95 69.748C213.526 70.012 213.006 70.144 212.39 70.144ZM212.33 64.456C212.066 64.456 211.822 64.504 211.598 64.6C211.374 64.696 211.178 64.828 211.01 64.996C210.85 65.164 210.722 65.364 210.626 65.596C210.538 65.82 210.494 66.068 210.494 66.34V66.424H214.046V66.292C214.046 66.02 214.002 65.772 213.914 65.548C213.834 65.324 213.718 65.132 213.566 64.972C213.422 64.804 213.242 64.676 213.026 64.588C212.818 64.5 212.586 64.456 212.33 64.456Z" fill="#E69C46"/>
<path d="M220.977 68.992H220.929C220.529 69.76 219.893 70.144 219.021 70.144C218.261 70.144 217.665 69.86 217.233 69.292C216.809 68.724 216.597 67.928 216.597 66.904C216.597 65.88 216.809 65.084 217.233 64.516C217.665 63.948 218.261 63.664 219.021 63.664C219.893 63.664 220.529 64.048 220.929 64.816H220.977V61.12H221.937V70H220.977V68.992ZM219.393 69.292C219.609 69.292 219.813 69.264 220.005 69.208C220.197 69.152 220.365 69.072 220.509 68.968C220.653 68.856 220.765 68.724 220.845 68.572C220.933 68.412 220.977 68.228 220.977 68.02V65.788C220.977 65.58 220.933 65.4 220.845 65.248C220.765 65.088 220.653 64.956 220.509 64.852C220.365 64.74 220.197 64.656 220.005 64.6C219.813 64.544 219.609 64.516 219.393 64.516C218.833 64.516 218.397 64.688 218.085 65.032C217.781 65.368 217.629 65.816 217.629 66.376V67.432C217.629 67.992 217.781 68.444 218.085 68.788C218.397 69.124 218.833 69.292 219.393 69.292Z" fill="#E69C46"/>
<path d="M55.8 30.552C55.1173 30.552 54.5307 30.424 54.04 30.168C53.5493 29.9013 53.144 29.5227 52.824 29.032C52.504 28.5413 52.2693 27.9387 52.12 27.224C51.9707 26.5093 51.896 25.6933 51.896 24.776C51.896 23.8693 51.9707 23.0587 52.12 22.344C52.2693 21.6187 52.504 21.0107 52.824 20.52C53.144 20.0293 53.5493 19.656 54.04 19.4C54.5307 19.1333 55.1173 19 55.8 19C56.4827 19 57.0693 19.1333 57.56 19.4C58.0507 19.656 58.456 20.0293 58.776 20.52C59.096 21.0107 59.3307 21.6187 59.48 22.344C59.6293 23.0587 59.704 23.8693 59.704 24.776C59.704 25.6933 59.6293 26.5093 59.48 27.224C59.3307 27.9387 59.096 28.5413 58.776 29.032C58.456 29.5227 58.0507 29.9013 57.56 30.168C57.0693 30.424 56.4827 30.552 55.8 30.552ZM55.8 29.384C56.248 29.384 56.632 29.2987 56.952 29.128C57.272 28.9467 57.528 28.696 57.72 28.376C57.9227 28.056 58.072 27.672 58.168 27.224C58.264 26.7653 58.312 26.2533 58.312 25.688V23.864C58.312 23.3093 58.264 22.8027 58.168 22.344C58.072 21.8853 57.9227 21.496 57.72 21.176C57.528 20.856 57.272 20.6107 56.952 20.44C56.632 20.2587 56.248 20.168 55.8 20.168C55.352 20.168 54.968 20.2587 54.648 20.44C54.328 20.6107 54.0667 20.856 53.864 21.176C53.672 21.496 53.528 21.8853 53.432 22.344C53.336 22.8027 53.288 23.3093 53.288 23.864V25.688C53.288 26.2533 53.336 26.7653 53.432 27.224C53.528 27.672 53.672 28.056 53.864 28.376C54.0667 28.696 54.328 28.9467 54.648 29.128C54.968 29.2987 55.352 29.384 55.8 29.384ZM55.8 25.72C55.4267 25.72 55.1653 25.6453 55.016 25.496C54.8773 25.3467 54.808 25.1653 54.808 24.952V24.6C54.808 24.3867 54.8773 24.2053 55.016 24.056C55.1653 23.9067 55.4267 23.832 55.8 23.832C56.1733 23.832 56.4293 23.9067 56.568 24.056C56.7173 24.2053 56.792 24.3867 56.792 24.6V24.952C56.792 25.1653 56.7173 25.3467 56.568 25.496C56.4293 25.6453 56.1733 25.72 55.8 25.72Z" fill="#55575F"/>
<path d="M65.3937 30.504C64.9564 30.504 64.6471 30.4133 64.4657 30.232C64.2951 30.0507 64.2097 29.8213 64.2097 29.544V29.256C64.2097 28.9787 64.2951 28.7493 64.4657 28.568C64.6471 28.3867 64.9564 28.296 65.3937 28.296C65.8311 28.296 66.1351 28.3867 66.3057 28.568C66.4871 28.7493 66.5777 28.9787 66.5777 29.256V29.544C66.5777 29.8213 66.4871 30.0507 66.3057 30.232C66.1351 30.4133 65.8311 30.504 65.3937 30.504Z" fill="#55575F"/>
<path d="M74.9875 30.552C74.3048 30.552 73.7182 30.424 73.2275 30.168C72.7368 29.9013 72.3315 29.5227 72.0115 29.032C71.6915 28.5413 71.4568 27.9387 71.3075 27.224C71.1582 26.5093 71.0835 25.6933 71.0835 24.776C71.0835 23.8693 71.1582 23.0587 71.3075 22.344C71.4568 21.6187 71.6915 21.0107 72.0115 20.52C72.3315 20.0293 72.7368 19.656 73.2275 19.4C73.7182 19.1333 74.3048 19 74.9875 19C75.6702 19 76.2568 19.1333 76.7475 19.4C77.2382 19.656 77.6435 20.0293 77.9635 20.52C78.2835 21.0107 78.5182 21.6187 78.6675 22.344C78.8168 23.0587 78.8915 23.8693 78.8915 24.776C78.8915 25.6933 78.8168 26.5093 78.6675 27.224C78.5182 27.9387 78.2835 28.5413 77.9635 29.032C77.6435 29.5227 77.2382 29.9013 76.7475 30.168C76.2568 30.424 75.6702 30.552 74.9875 30.552ZM74.9875 29.384C75.4355 29.384 75.8195 29.2987 76.1395 29.128C76.4595 28.9467 76.7155 28.696 76.9075 28.376C77.1102 28.056 77.2595 27.672 77.3555 27.224C77.4515 26.7653 77.4995 26.2533 77.4995 25.688V23.864C77.4995 23.3093 77.4515 22.8027 77.3555 22.344C77.2595 21.8853 77.1102 21.496 76.9075 21.176C76.7155 20.856 76.4595 20.6107 76.1395 20.44C75.8195 20.2587 75.4355 20.168 74.9875 20.168C74.5395 20.168 74.1555 20.2587 73.8355 20.44C73.5155 20.6107 73.2542 20.856 73.0515 21.176C72.8595 21.496 72.7155 21.8853 72.6195 22.344C72.5235 22.8027 72.4755 23.3093 72.4755 23.864V25.688C72.4755 26.2533 72.5235 26.7653 72.6195 27.224C72.7155 27.672 72.8595 28.056 73.0515 28.376C73.2542 28.696 73.5155 28.9467 73.8355 29.128C74.1555 29.2987 74.5395 29.384 74.9875 29.384ZM74.9875 25.72C74.6142 25.72 74.3528 25.6453 74.2035 25.496C74.0648 25.3467 73.9955 25.1653 73.9955 24.952V24.6C73.9955 24.3867 74.0648 24.2053 74.2035 24.056C74.3528 23.9067 74.6142 23.832 74.9875 23.832C75.3608 23.832 75.6168 23.9067 75.7555 24.056C75.9048 24.2053 75.9795 24.3867 75.9795 24.6V24.952C75.9795 25.1653 75.9048 25.3467 75.7555 25.496C75.6168 25.6453 75.3608 25.72 74.9875 25.72Z" fill="#55575F"/>
<path d="M84.5812 30.552C83.8986 30.552 83.3119 30.424 82.8212 30.168C82.3306 29.9013 81.9252 29.5227 81.6052 29.032C81.2852 28.5413 81.0506 27.9387 80.9012 27.224C80.7519 26.5093 80.6772 25.6933 80.6772 24.776C80.6772 23.8693 80.7519 23.0587 80.9012 22.344C81.0506 21.6187 81.2852 21.0107 81.6052 20.52C81.9252 20.0293 82.3306 19.656 82.8212 19.4C83.3119 19.1333 83.8986 19 84.5812 19C85.2639 19 85.8506 19.1333 86.3412 19.4C86.8319 19.656 87.2372 20.0293 87.5572 20.52C87.8772 21.0107 88.1119 21.6187 88.2612 22.344C88.4106 23.0587 88.4852 23.8693 88.4852 24.776C88.4852 25.6933 88.4106 26.5093 88.2612 27.224C88.1119 27.9387 87.8772 28.5413 87.5572 29.032C87.2372 29.5227 86.8319 29.9013 86.3412 30.168C85.8506 30.424 85.2639 30.552 84.5812 30.552ZM84.5812 29.384C85.0292 29.384 85.4132 29.2987 85.7332 29.128C86.0532 28.9467 86.3092 28.696 86.5012 28.376C86.7039 28.056 86.8532 27.672 86.9492 27.224C87.0452 26.7653 87.0932 26.2533 87.0932 25.688V23.864C87.0932 23.3093 87.0452 22.8027 86.9492 22.344C86.8532 21.8853 86.7039 21.496 86.5012 21.176C86.3092 20.856 86.0532 20.6107 85.7332 20.44C85.4132 20.2587 85.0292 20.168 84.5812 20.168C84.1332 20.168 83.7492 20.2587 83.4292 20.44C83.1092 20.6107 82.8479 20.856 82.6452 21.176C82.4532 21.496 82.3092 21.8853 82.2132 22.344C82.1172 22.8027 82.0692 23.3093 82.0692 23.864V25.688C82.0692 26.2533 82.1172 26.7653 82.2132 27.224C82.3092 27.672 82.4532 28.056 82.6452 28.376C82.8479 28.696 83.1092 28.9467 83.4292 29.128C83.7492 29.2987 84.1332 29.384 84.5812 29.384ZM84.5812 25.72C84.2079 25.72 83.9466 25.6453 83.7972 25.496C83.6586 25.3467 83.5892 25.1653 83.5892 24.952V24.6C83.5892 24.3867 83.6586 24.2053 83.7972 24.056C83.9466 23.9067 84.2079 23.832 84.5812 23.832C84.9546 23.832 85.2106 23.9067 85.3492 24.056C85.4986 24.2053 85.5732 24.3867 85.5732 24.6V24.952C85.5732 25.1653 85.4986 25.3467 85.3492 25.496C85.2106 25.6453 84.9546 25.72 84.5812 25.72Z" fill="#55575F"/>
<path d="M94.624 18.832V25.536C94.624 26.08 94.64 26.5653 94.672 26.992C94.704 27.4187 94.7894 27.7867 94.928 28.096C95.0667 28.3947 95.28 28.624 95.568 28.784C95.8667 28.944 96.2774 29.024 96.8 29.024C97.3227 29.024 97.728 28.944 98.016 28.784C98.3147 28.624 98.5334 28.3947 98.672 28.096C98.8107 27.7867 98.896 27.4187 98.928 26.992C98.96 26.5653 98.976 26.08 98.976 25.536V18.832H100.32V25.216C100.32 26.048 100.277 26.7733 100.192 27.392C100.117 28.0107 99.952 28.528 99.696 28.944C99.4507 29.36 99.0934 29.6747 98.624 29.888C98.1654 30.0907 97.5574 30.192 96.8 30.192C96.0427 30.192 95.4294 30.0907 94.96 29.888C94.5014 29.6747 94.144 29.36 93.888 28.944C93.6427 28.528 93.4774 28.0107 93.392 27.392C93.3174 26.7733 93.28 26.048 93.28 25.216V18.832H94.624Z" fill="#55575F"/>
<path d="M106.362 30.192C105.359 30.192 104.538 30.0107 103.898 29.648C103.258 29.2747 102.73 28.8 102.314 28.224L103.29 27.424C103.727 27.968 104.186 28.3733 104.666 28.64C105.156 28.9067 105.738 29.04 106.41 29.04C107.22 29.04 107.839 28.8533 108.266 28.48C108.692 28.1067 108.906 27.584 108.906 26.912C108.906 26.368 108.751 25.9467 108.442 25.648C108.132 25.3387 107.594 25.12 106.826 24.992L105.578 24.784C105.034 24.688 104.575 24.544 104.202 24.352C103.839 24.16 103.546 23.9307 103.322 23.664C103.098 23.3867 102.938 23.088 102.842 22.768C102.746 22.4373 102.698 22.096 102.698 21.744C102.698 20.72 103.034 19.9467 103.706 19.424C104.378 18.9013 105.284 18.64 106.426 18.64C107.322 18.64 108.074 18.7893 108.682 19.088C109.3 19.3867 109.796 19.808 110.17 20.352L109.226 21.168C108.916 20.7627 108.543 20.432 108.106 20.176C107.668 19.92 107.103 19.792 106.41 19.792C105.652 19.792 105.071 19.952 104.666 20.272C104.26 20.592 104.058 21.072 104.058 21.712C104.058 22.2133 104.207 22.624 104.506 22.944C104.815 23.2533 105.364 23.4773 106.154 23.616L107.354 23.824C107.898 23.92 108.356 24.064 108.73 24.256C109.103 24.448 109.402 24.6773 109.626 24.944C109.86 25.2107 110.026 25.5093 110.122 25.84C110.218 26.1707 110.266 26.5173 110.266 26.88C110.266 27.9147 109.924 28.7253 109.242 29.312C108.57 29.8987 107.61 30.192 106.362 30.192Z" fill="#55575F"/>
<path d="M112.708 18.832H115.828C117.193 18.832 118.212 19.3013 118.884 20.24C119.556 21.1787 119.892 22.5707 119.892 24.416C119.892 26.2613 119.556 27.6533 118.884 28.592C118.212 29.5307 117.193 30 115.828 30H112.708V18.832ZM115.764 28.832C116.66 28.832 117.332 28.5227 117.78 27.904C118.238 27.2853 118.468 26.4107 118.468 25.28V23.552C118.468 22.4213 118.238 21.5467 117.78 20.928C117.332 20.3093 116.66 20 115.764 20H114.052V28.832H115.764Z" fill="#55575F"/>
<path d="M125.949 30.192C124.584 30.192 123.565 29.696 122.893 28.704C122.232 27.712 121.901 26.2827 121.901 24.416C121.901 22.5493 122.232 21.12 122.893 20.128C123.565 19.136 124.584 18.64 125.949 18.64C126.461 18.64 126.904 18.7093 127.277 18.848C127.651 18.9867 127.971 19.1733 128.237 19.408C128.504 19.6427 128.728 19.9093 128.909 20.208C129.091 20.496 129.251 20.7893 129.389 21.088L128.237 21.616C128.141 21.3707 128.029 21.1413 127.901 20.928C127.773 20.704 127.619 20.512 127.437 20.352C127.267 20.1813 127.059 20.048 126.813 19.952C126.579 19.856 126.291 19.808 125.949 19.808C125.064 19.808 124.403 20.144 123.965 20.816C123.539 21.488 123.325 22.384 123.325 23.504V25.328C123.325 26.448 123.539 27.344 123.965 28.016C124.403 28.688 125.064 29.024 125.949 29.024C126.291 29.024 126.579 28.976 126.813 28.88C127.059 28.784 127.267 28.656 127.437 28.496C127.619 28.3253 127.773 28.1333 127.901 27.92C128.029 27.696 128.141 27.4613 128.237 27.216L129.389 27.744C129.251 28.0533 129.091 28.352 128.909 28.64C128.728 28.928 128.504 29.1893 128.237 29.424C127.971 29.6587 127.651 29.8453 127.277 29.984C126.904 30.1227 126.461 30.192 125.949 30.192Z" fill="#55575F"/>
<rect x="1" y="113" width="278" height="105" rx="12" fill="#181A1F" stroke="#23252C"/>
<path d="M39.3281 135.337C39.0952 135.337 38.8624 135.38 38.6508 135.485L30.5238 127.351C30.6085 127.139 30.672 126.928 30.672 126.673C30.672 125.741 29.9101 125 29 125C28.0899 125 27.328 125.763 27.328 126.673C27.328 126.906 27.3704 127.139 27.4762 127.351L19.3492 135.464C19.1376 135.38 18.9259 135.316 18.672 135.316C17.7407 135.316 17 136.079 17 136.989C17 137.9 17.7619 138.663 18.672 138.663C18.9048 138.663 19.1376 138.62 19.3492 138.515L27.4762 146.649C27.3915 146.861 27.328 147.072 27.328 147.327C27.328 148.259 28.0899 149 29 149C29.9101 149 30.672 148.237 30.672 147.327C30.672 147.093 30.6296 146.861 30.5238 146.649L38.6508 138.515C38.8624 138.599 39.074 138.663 39.3281 138.663C40.2593 138.663 41 137.9 41 136.989C41 136.079 40.2593 135.337 39.3281 135.337ZM37.7618 136.417L34.6085 137.18C34.3334 136.82 33.9101 136.566 33.4232 136.566C33.0635 136.566 32.746 136.693 32.4921 136.905L30.4391 135.951C30.4391 135.93 30.4391 135.93 30.4391 135.909C30.4391 135.316 30.1005 134.829 29.5926 134.596V128.241C29.6138 128.241 29.6349 128.22 29.6561 128.22L37.783 136.354C37.783 136.354 37.7618 136.396 37.7618 136.417ZM29 145.674C28.9577 145.674 28.9153 145.674 28.873 145.674L25.6984 138.959C25.9101 138.705 26.037 138.387 26.037 138.027L28.1111 137.053C28.3651 137.244 28.6825 137.371 29 137.371C29.3386 137.371 29.6561 137.244 29.9101 137.053L31.9841 138.027C31.9841 138.027 31.9841 138.027 31.9841 138.049C31.9841 138.409 32.1111 138.726 32.3228 138.981L29.1058 145.674C29.0847 145.674 29.0423 145.674 29 145.674ZM28.3862 128.241V134.596C27.8995 134.829 27.5397 135.337 27.5397 135.909C27.5397 135.93 27.5397 135.951 27.5397 135.951L25.4868 136.905C25.2328 136.693 24.9153 136.566 24.5556 136.566C24.0688 136.566 23.6455 136.799 23.3704 137.18L20.2381 136.417C20.2381 136.396 20.2169 136.375 20.2169 136.333L28.3439 128.199C28.3439 128.22 28.3651 128.22 28.3862 128.241ZM20.2169 137.667L23.1587 138.387C23.328 139.023 23.8783 139.489 24.5767 139.489H24.5979L26.9259 144.403L20.2169 137.667ZM33.4021 139.489H33.4232C34.1005 139.489 34.672 139.023 34.8412 138.387L37.783 137.667C37.783 137.667 37.783 137.667 37.783 137.688L31.0741 144.403L33.4021 139.489Z" fill="url(#paint0_linear_1655_6032)"/>
<rect x="17" y="157" width="246" height="40" rx="8" fill="#202229"/>
<path d="M58.66 182L58 173.624H58.9L59.248 178.424L59.428 180.956H59.524L60.628 175.808H61.756L62.86 180.956H62.956L63.136 178.424L63.484 173.624H64.36L63.7 182H62.248L61.228 176.996H61.132L60.112 182H58.66Z" fill="#E69C46"/>
<path d="M70.7153 182C70.3393 182 70.0713 181.904 69.9113 181.712C69.7513 181.52 69.6513 181.28 69.6113 180.992H69.5513C69.4153 181.352 69.1953 181.636 68.8913 181.844C68.5953 182.044 68.1953 182.144 67.6913 182.144C67.0433 182.144 66.5273 181.976 66.1433 181.64C65.7593 181.304 65.5673 180.844 65.5673 180.26C65.5673 179.684 65.7753 179.24 66.1913 178.928C66.6153 178.616 67.2953 178.46 68.2313 178.46H69.5513V177.848C69.5513 177.392 69.4233 177.052 69.1673 176.828C68.9113 176.596 68.5473 176.48 68.0753 176.48C67.6593 176.48 67.3193 176.564 67.0553 176.732C66.7913 176.892 66.5793 177.112 66.4193 177.392L65.7713 176.912C65.8513 176.752 65.9593 176.596 66.0953 176.444C66.2313 176.292 66.3993 176.16 66.5993 176.048C66.7993 175.928 67.0273 175.836 67.2833 175.772C67.5393 175.7 67.8233 175.664 68.1353 175.664C68.8633 175.664 69.4393 175.848 69.8633 176.216C70.2953 176.584 70.5113 177.096 70.5113 177.752V181.16H71.3753V182H70.7153ZM67.8593 181.34C68.1073 181.34 68.3313 181.312 68.5313 181.256C68.7393 181.192 68.9193 181.112 69.0713 181.016C69.2233 180.912 69.3393 180.792 69.4193 180.656C69.5073 180.512 69.5513 180.36 69.5513 180.2V179.18H68.2313C67.6553 179.18 67.2353 179.26 66.9713 179.42C66.7073 179.58 66.5753 179.812 66.5753 180.116V180.368C66.5753 180.688 66.6873 180.932 66.9113 181.1C67.1433 181.26 67.4593 181.34 67.8593 181.34Z" fill="#E69C46"/>
<path d="M72.9306 181.184H75.0906V173.936H72.9306V173.12H76.0506V181.184H78.2106V182H72.9306V181.184Z" fill="#E69C46"/>
<path d="M80.1259 181.184H82.2859V173.936H80.1259V173.12H83.2459V181.184H85.4059V182H80.1259V181.184Z" fill="#E69C46"/>
<path d="M90.0693 182.144C89.6213 182.144 89.2173 182.068 88.8573 181.916C88.5053 181.764 88.2013 181.548 87.9452 181.268C87.6973 180.98 87.5052 180.64 87.3692 180.248C87.2332 179.848 87.1653 179.404 87.1653 178.916C87.1653 178.42 87.2332 177.972 87.3692 177.572C87.5132 177.172 87.7093 176.832 87.9573 176.552C88.2052 176.264 88.5013 176.044 88.8453 175.892C89.1973 175.74 89.5853 175.664 90.0093 175.664C90.4253 175.664 90.8013 175.74 91.1373 175.892C91.4813 176.044 91.7733 176.256 92.0133 176.528C92.2533 176.792 92.4373 177.108 92.5653 177.476C92.6933 177.844 92.7573 178.248 92.7573 178.688V179.144H88.1733V179.432C88.1733 179.704 88.2173 179.956 88.3053 180.188C88.3932 180.42 88.5173 180.62 88.6772 180.788C88.8452 180.956 89.0452 181.088 89.2773 181.184C89.5173 181.272 89.7813 181.316 90.0693 181.316C90.4853 181.316 90.8453 181.22 91.1493 181.028C91.4533 180.836 91.6853 180.572 91.8453 180.236L92.5533 180.716C92.3693 181.132 92.0613 181.476 91.6293 181.748C91.2053 182.012 90.6853 182.144 90.0693 182.144ZM90.0093 176.456C89.7453 176.456 89.5013 176.504 89.2773 176.6C89.0532 176.696 88.8572 176.828 88.6892 176.996C88.5292 177.164 88.4013 177.364 88.3053 177.596C88.2173 177.82 88.1733 178.068 88.1733 178.34V178.424H91.7253V178.292C91.7253 178.02 91.6813 177.772 91.5933 177.548C91.5133 177.324 91.3973 177.132 91.2453 176.972C91.1012 176.804 90.9213 176.676 90.7053 176.588C90.4973 176.5 90.2653 176.456 90.0093 176.456Z" fill="#E69C46"/>
<path d="M97.4566 182C96.9846 182 96.6366 181.868 96.4126 181.604C96.1966 181.34 96.0886 181 96.0886 180.584V176.624H94.0246V175.808H95.5606C95.7686 175.808 95.9126 175.768 95.9926 175.688C96.0806 175.6 96.1246 175.452 96.1246 175.244V173.624H97.0486V175.808H99.8686V176.624H97.0486V181.184H99.8686V182H97.4566Z" fill="#E69C46"/>
<path d="M111.931 174.44C111.651 174.44 111.455 174.384 111.343 174.272C111.231 174.152 111.175 174.004 111.175 173.828V173.636C111.175 173.46 111.231 173.316 111.343 173.204C111.455 173.084 111.651 173.024 111.931 173.024C112.211 173.024 112.407 173.084 112.519 173.204C112.631 173.316 112.687 173.46 112.687 173.636V173.828C112.687 174.004 112.631 174.152 112.519 174.272C112.407 174.384 112.211 174.44 111.931 174.44ZM109.219 181.184H111.451V176.624H109.219V175.808H112.411V181.184H114.499V182H109.219V181.184Z" fill="#E69C46"/>
<path d="M118.815 182.144C118.167 182.144 117.607 182.036 117.135 181.82C116.671 181.596 116.275 181.3 115.947 180.932L116.595 180.368C116.891 180.68 117.215 180.92 117.567 181.088C117.919 181.256 118.343 181.34 118.839 181.34C119.319 181.34 119.711 181.256 120.015 181.088C120.327 180.912 120.483 180.64 120.483 180.272C120.483 180.112 120.451 179.98 120.387 179.876C120.331 179.764 120.251 179.676 120.147 179.612C120.043 179.548 119.926 179.5 119.799 179.468C119.671 179.428 119.535 179.396 119.391 179.372L118.419 179.228C118.203 179.196 117.967 179.152 117.711 179.096C117.463 179.04 117.235 178.952 117.027 178.832C116.819 178.704 116.643 178.536 116.499 178.328C116.362 178.12 116.295 177.848 116.295 177.512C116.295 177.2 116.355 176.932 116.475 176.708C116.603 176.476 116.779 176.284 117.003 176.132C117.227 175.972 117.491 175.856 117.795 175.784C118.099 175.704 118.431 175.664 118.791 175.664C119.351 175.664 119.834 175.752 120.243 175.928C120.659 176.104 121.014 176.348 121.311 176.66L120.687 177.248C120.615 177.16 120.523 177.072 120.411 176.984C120.307 176.888 120.175 176.804 120.015 176.732C119.863 176.652 119.683 176.588 119.475 176.54C119.267 176.492 119.027 176.468 118.755 176.468C118.267 176.468 117.891 176.552 117.627 176.72C117.371 176.888 117.243 177.132 117.243 177.452C117.243 177.612 117.271 177.748 117.327 177.86C117.391 177.964 117.475 178.048 117.579 178.112C117.683 178.176 117.799 178.228 117.927 178.268C118.063 178.3 118.199 178.328 118.335 178.352L119.307 178.496C119.531 178.528 119.767 178.572 120.015 178.628C120.263 178.684 120.491 178.776 120.699 178.904C120.907 179.024 121.078 179.188 121.215 179.396C121.359 179.604 121.431 179.876 121.431 180.212C121.431 180.828 121.191 181.304 120.711 181.64C120.239 181.976 119.607 182.144 118.815 182.144Z" fill="#E69C46"/>
<path d="M130.709 182V175.808H131.669V176.816H131.717C131.781 176.664 131.861 176.52 131.957 176.384C132.053 176.24 132.169 176.116 132.305 176.012C132.449 175.908 132.617 175.824 132.809 175.76C133.001 175.696 133.225 175.664 133.481 175.664C134.129 175.664 134.649 175.872 135.041 176.288C135.433 176.696 135.629 177.276 135.629 178.028V182H134.669V178.196C134.669 177.628 134.545 177.208 134.297 176.936C134.049 176.656 133.685 176.516 133.205 176.516C133.013 176.516 132.825 176.54 132.641 176.588C132.457 176.636 132.293 176.708 132.149 176.804C132.005 176.9 131.889 177.024 131.801 177.176C131.713 177.328 131.669 177.504 131.669 177.704V182H130.709Z" fill="#E69C46"/>
<path d="M140.328 182.144C139.896 182.144 139.504 182.068 139.152 181.916C138.808 181.764 138.512 181.548 138.264 181.268C138.024 180.98 137.84 180.64 137.712 180.248C137.584 179.848 137.52 179.4 137.52 178.904C137.52 178.416 137.584 177.972 137.712 177.572C137.84 177.172 138.024 176.832 138.264 176.552C138.512 176.264 138.808 176.044 139.152 175.892C139.504 175.74 139.896 175.664 140.328 175.664C140.76 175.664 141.148 175.74 141.492 175.892C141.844 176.044 142.14 176.264 142.38 176.552C142.628 176.832 142.816 177.172 142.944 177.572C143.072 177.972 143.136 178.416 143.136 178.904C143.136 179.4 143.072 179.848 142.944 180.248C142.816 180.64 142.628 180.98 142.38 181.268C142.14 181.548 141.844 181.764 141.492 181.916C141.148 182.068 140.76 182.144 140.328 182.144ZM140.328 181.316C140.864 181.316 141.296 181.156 141.624 180.836C141.952 180.516 142.116 180.02 142.116 179.348V178.46C142.116 177.788 141.952 177.292 141.624 176.972C141.296 176.652 140.864 176.492 140.328 176.492C139.792 176.492 139.36 176.652 139.032 176.972C138.704 177.292 138.54 177.788 138.54 178.46V179.348C138.54 180.02 138.704 180.516 139.032 180.836C139.36 181.156 139.792 181.316 140.328 181.316Z" fill="#E69C46"/>
<path d="M147.824 182C147.352 182 147.004 181.868 146.78 181.604C146.564 181.34 146.456 181 146.456 180.584V176.624H144.392V175.808H145.928C146.136 175.808 146.28 175.768 146.36 175.688C146.448 175.6 146.492 175.452 146.492 175.244V173.624H147.416V175.808H150.236V176.624H147.416V181.184H150.236V182H147.824Z" fill="#E69C46"/>
<path d="M162.13 182.144C161.682 182.144 161.282 182.068 160.93 181.916C160.586 181.756 160.294 181.536 160.054 181.256C159.814 180.976 159.63 180.636 159.502 180.236C159.382 179.836 159.322 179.392 159.322 178.904C159.322 178.416 159.386 177.972 159.514 177.572C159.642 177.172 159.826 176.832 160.066 176.552C160.306 176.264 160.598 176.044 160.942 175.892C161.286 175.74 161.678 175.664 162.118 175.664C162.718 175.664 163.206 175.796 163.582 176.06C163.958 176.324 164.234 176.668 164.41 177.092L163.642 177.5C163.53 177.18 163.342 176.932 163.078 176.756C162.822 176.58 162.502 176.492 162.118 176.492C161.838 176.492 161.586 176.54 161.362 176.636C161.146 176.724 160.962 176.852 160.81 177.02C160.658 177.188 160.542 177.388 160.462 177.62C160.39 177.852 160.354 178.104 160.354 178.376V179.432C160.354 179.704 160.39 179.956 160.462 180.188C160.542 180.42 160.658 180.62 160.81 180.788C160.962 180.956 161.15 181.088 161.374 181.184C161.598 181.272 161.854 181.316 162.142 181.316C162.558 181.316 162.902 181.22 163.174 181.028C163.446 180.836 163.662 180.572 163.822 180.236L164.506 180.704C164.322 181.12 164.034 181.464 163.642 181.736C163.258 182.008 162.754 182.144 162.13 182.144Z" fill="#E69C46"/>
<path d="M169.11 182.144C168.678 182.144 168.286 182.068 167.934 181.916C167.59 181.764 167.294 181.548 167.046 181.268C166.806 180.98 166.622 180.64 166.494 180.248C166.366 179.848 166.302 179.4 166.302 178.904C166.302 178.416 166.366 177.972 166.494 177.572C166.622 177.172 166.806 176.832 167.046 176.552C167.294 176.264 167.59 176.044 167.934 175.892C168.286 175.74 168.678 175.664 169.11 175.664C169.542 175.664 169.93 175.74 170.274 175.892C170.626 176.044 170.922 176.264 171.162 176.552C171.41 176.832 171.598 177.172 171.726 177.572C171.854 177.972 171.918 178.416 171.918 178.904C171.918 179.4 171.854 179.848 171.726 180.248C171.598 180.64 171.41 180.98 171.162 181.268C170.922 181.548 170.626 181.764 170.274 181.916C169.93 182.068 169.542 182.144 169.11 182.144ZM169.11 181.316C169.646 181.316 170.078 181.156 170.406 180.836C170.734 180.516 170.898 180.02 170.898 179.348V178.46C170.898 177.788 170.734 177.292 170.406 176.972C170.078 176.652 169.646 176.492 169.11 176.492C168.574 176.492 168.142 176.652 167.814 176.972C167.486 177.292 167.322 177.788 167.322 178.46V179.348C167.322 180.02 167.486 180.516 167.814 180.836C168.142 181.156 168.574 181.316 169.11 181.316Z" fill="#E69C46"/>
<path d="M173.881 182V175.808H174.841V176.816H174.889C174.953 176.664 175.033 176.52 175.129 176.384C175.225 176.24 175.341 176.116 175.477 176.012C175.621 175.908 175.789 175.824 175.981 175.76C176.173 175.696 176.397 175.664 176.653 175.664C177.301 175.664 177.821 175.872 178.213 176.288C178.605 176.696 178.801 177.276 178.801 178.028V182H177.841V178.196C177.841 177.628 177.717 177.208 177.469 176.936C177.221 176.656 176.857 176.516 176.377 176.516C176.185 176.516 175.997 176.54 175.813 176.588C175.629 176.636 175.465 176.708 175.321 176.804C175.177 176.9 175.061 177.024 174.973 177.176C174.885 177.328 174.841 177.504 174.841 177.704V182H173.881Z" fill="#E69C46"/>
<path d="M181.076 182V175.808H182.036V176.816H182.084C182.148 176.664 182.228 176.52 182.324 176.384C182.42 176.24 182.536 176.116 182.672 176.012C182.816 175.908 182.984 175.824 183.176 175.76C183.368 175.696 183.592 175.664 183.848 175.664C184.496 175.664 185.016 175.872 185.408 176.288C185.8 176.696 185.996 177.276 185.996 178.028V182H185.036V178.196C185.036 177.628 184.912 177.208 184.664 176.936C184.416 176.656 184.052 176.516 183.572 176.516C183.38 176.516 183.192 176.54 183.008 176.588C182.824 176.636 182.66 176.708 182.516 176.804C182.372 176.9 182.256 177.024 182.168 177.176C182.08 177.328 182.036 177.504 182.036 177.704V182H181.076Z" fill="#E69C46"/>
<path d="M190.804 182.144C190.356 182.144 189.952 182.068 189.592 181.916C189.24 181.764 188.936 181.548 188.68 181.268C188.432 180.98 188.24 180.64 188.104 180.248C187.968 179.848 187.9 179.404 187.9 178.916C187.9 178.42 187.968 177.972 188.104 177.572C188.248 177.172 188.444 176.832 188.692 176.552C188.94 176.264 189.236 176.044 189.58 175.892C189.932 175.74 190.32 175.664 190.744 175.664C191.16 175.664 191.536 175.74 191.872 175.892C192.216 176.044 192.508 176.256 192.748 176.528C192.988 176.792 193.172 177.108 193.3 177.476C193.428 177.844 193.492 178.248 193.492 178.688V179.144H188.908V179.432C188.908 179.704 188.952 179.956 189.04 180.188C189.128 180.42 189.252 180.62 189.412 180.788C189.58 180.956 189.78 181.088 190.012 181.184C190.252 181.272 190.516 181.316 190.804 181.316C191.22 181.316 191.58 181.22 191.884 181.028C192.188 180.836 192.42 180.572 192.58 180.236L193.288 180.716C193.104 181.132 192.796 181.476 192.364 181.748C191.94 182.012 191.42 182.144 190.804 182.144ZM190.744 176.456C190.48 176.456 190.236 176.504 190.012 176.6C189.788 176.696 189.592 176.828 189.424 176.996C189.264 177.164 189.136 177.364 189.04 177.596C188.952 177.82 188.908 178.068 188.908 178.34V178.424H192.46V178.292C192.46 178.02 192.416 177.772 192.328 177.548C192.248 177.324 192.132 177.132 191.98 176.972C191.836 176.804 191.656 176.676 191.44 176.588C191.232 176.5 191 176.456 190.744 176.456Z" fill="#E69C46"/>
<path d="M198.107 182.144C197.659 182.144 197.259 182.068 196.907 181.916C196.563 181.756 196.271 181.536 196.031 181.256C195.791 180.976 195.607 180.636 195.479 180.236C195.359 179.836 195.299 179.392 195.299 178.904C195.299 178.416 195.363 177.972 195.491 177.572C195.619 177.172 195.803 176.832 196.043 176.552C196.283 176.264 196.575 176.044 196.919 175.892C197.263 175.74 197.655 175.664 198.095 175.664C198.695 175.664 199.183 175.796 199.559 176.06C199.935 176.324 200.211 176.668 200.387 177.092L199.619 177.5C199.507 177.18 199.319 176.932 199.055 176.756C198.799 176.58 198.479 176.492 198.095 176.492C197.815 176.492 197.563 176.54 197.339 176.636C197.123 176.724 196.939 176.852 196.787 177.02C196.635 177.188 196.519 177.388 196.439 177.62C196.367 177.852 196.331 178.104 196.331 178.376V179.432C196.331 179.704 196.367 179.956 196.439 180.188C196.519 180.42 196.635 180.62 196.787 180.788C196.939 180.956 197.127 181.088 197.351 181.184C197.575 181.272 197.831 181.316 198.119 181.316C198.535 181.316 198.879 181.22 199.151 181.028C199.423 180.836 199.639 180.572 199.799 180.236L200.483 180.704C200.299 181.12 200.011 181.464 199.619 181.736C199.235 182.008 198.731 182.144 198.107 182.144Z" fill="#E69C46"/>
<path d="M205.386 182C204.914 182 204.566 181.868 204.342 181.604C204.126 181.34 204.018 181 204.018 180.584V176.624H201.954V175.808H203.49C203.698 175.808 203.842 175.768 203.922 175.688C204.01 175.6 204.054 175.452 204.054 175.244V173.624H204.978V175.808H207.798V176.624H204.978V181.184H207.798V182H205.386Z" fill="#E69C46"/>
<path d="M212.39 182.144C211.942 182.144 211.538 182.068 211.178 181.916C210.826 181.764 210.522 181.548 210.266 181.268C210.018 180.98 209.826 180.64 209.69 180.248C209.554 179.848 209.486 179.404 209.486 178.916C209.486 178.42 209.554 177.972 209.69 177.572C209.834 177.172 210.03 176.832 210.278 176.552C210.526 176.264 210.822 176.044 211.166 175.892C211.518 175.74 211.906 175.664 212.33 175.664C212.746 175.664 213.122 175.74 213.458 175.892C213.802 176.044 214.094 176.256 214.334 176.528C214.574 176.792 214.758 177.108 214.886 177.476C215.014 177.844 215.078 178.248 215.078 178.688V179.144H210.494V179.432C210.494 179.704 210.538 179.956 210.626 180.188C210.714 180.42 210.838 180.62 210.998 180.788C211.166 180.956 211.366 181.088 211.598 181.184C211.838 181.272 212.102 181.316 212.39 181.316C212.806 181.316 213.166 181.22 213.47 181.028C213.774 180.836 214.006 180.572 214.166 180.236L214.874 180.716C214.69 181.132 214.382 181.476 213.95 181.748C213.526 182.012 213.006 182.144 212.39 182.144ZM212.33 176.456C212.066 176.456 211.822 176.504 211.598 176.6C211.374 176.696 211.178 176.828 211.01 176.996C210.85 177.164 210.722 177.364 210.626 177.596C210.538 177.82 210.494 178.068 210.494 178.34V178.424H214.046V178.292C214.046 178.02 214.002 177.772 213.914 177.548C213.834 177.324 213.718 177.132 213.566 176.972C213.422 176.804 213.242 176.676 213.026 176.588C212.818 176.5 212.586 176.456 212.33 176.456Z" fill="#E69C46"/>
<path d="M220.977 180.992H220.929C220.529 181.76 219.893 182.144 219.021 182.144C218.261 182.144 217.665 181.86 217.233 181.292C216.809 180.724 216.597 179.928 216.597 178.904C216.597 177.88 216.809 177.084 217.233 176.516C217.665 175.948 218.261 175.664 219.021 175.664C219.893 175.664 220.529 176.048 220.929 176.816H220.977V173.12H221.937V182H220.977V180.992ZM219.393 181.292C219.609 181.292 219.813 181.264 220.005 181.208C220.197 181.152 220.365 181.072 220.509 180.968C220.653 180.856 220.765 180.724 220.845 180.572C220.933 180.412 220.977 180.228 220.977 180.02V177.788C220.977 177.58 220.933 177.4 220.845 177.248C220.765 177.088 220.653 176.956 220.509 176.852C220.365 176.74 220.197 176.656 220.005 176.6C219.813 176.544 219.609 176.516 219.393 176.516C218.833 176.516 218.397 176.688 218.085 177.032C217.781 177.368 217.629 177.816 217.629 178.376V179.432C217.629 179.992 217.781 180.444 218.085 180.788C218.397 181.124 218.833 181.292 219.393 181.292Z" fill="#E69C46"/>
<path d="M58.904 142.552C58.2213 142.552 57.6347 142.424 57.144 142.168C56.6533 141.901 56.248 141.523 55.928 141.032C55.608 140.541 55.3733 139.939 55.224 139.224C55.0747 138.509 55 137.693 55 136.776C55 135.869 55.0747 135.059 55.224 134.344C55.3733 133.619 55.608 133.011 55.928 132.52C56.248 132.029 56.6533 131.656 57.144 131.4C57.6347 131.133 58.2213 131 58.904 131C59.5867 131 60.1733 131.133 60.664 131.4C61.1547 131.656 61.56 132.029 61.88 132.52C62.2 133.011 62.4347 133.619 62.584 134.344C62.7333 135.059 62.808 135.869 62.808 136.776C62.808 137.693 62.7333 138.509 62.584 139.224C62.4347 139.939 62.2 140.541 61.88 141.032C61.56 141.523 61.1547 141.901 60.664 142.168C60.1733 142.424 59.5867 142.552 58.904 142.552ZM58.904 141.384C59.352 141.384 59.736 141.299 60.056 141.128C60.376 140.947 60.632 140.696 60.824 140.376C61.0267 140.056 61.176 139.672 61.272 139.224C61.368 138.765 61.416 138.253 61.416 137.688V135.864C61.416 135.309 61.368 134.803 61.272 134.344C61.176 133.885 61.0267 133.496 60.824 133.176C60.632 132.856 60.376 132.611 60.056 132.44C59.736 132.259 59.352 132.168 58.904 132.168C58.456 132.168 58.072 132.259 57.752 132.44C57.432 132.611 57.1707 132.856 56.968 133.176C56.776 133.496 56.632 133.885 56.536 134.344C56.44 134.803 56.392 135.309 56.392 135.864V137.688C56.392 138.253 56.44 138.765 56.536 139.224C56.632 139.672 56.776 140.056 56.968 140.376C57.1707 140.696 57.432 140.947 57.752 141.128C58.072 141.299 58.456 141.384 58.904 141.384ZM58.904 137.72C58.5307 137.72 58.2693 137.645 58.12 137.496C57.9813 137.347 57.912 137.165 57.912 136.952V136.6C57.912 136.387 57.9813 136.205 58.12 136.056C58.2693 135.907 58.5307 135.832 58.904 135.832C59.2773 135.832 59.5333 135.907 59.672 136.056C59.8213 136.205 59.896 136.387 59.896 136.6V136.952C59.896 137.165 59.8213 137.347 59.672 137.496C59.5333 137.645 59.2773 137.72 58.904 137.72Z" fill="#55575F"/>
<path d="M68.4978 142.504C68.0604 142.504 67.7511 142.413 67.5697 142.232C67.3991 142.051 67.3138 141.821 67.3138 141.544V141.256C67.3138 140.979 67.3991 140.749 67.5697 140.568C67.7511 140.387 68.0604 140.296 68.4978 140.296C68.9351 140.296 69.2391 140.387 69.4097 140.568C69.5911 140.749 69.6818 140.979 69.6818 141.256V141.544C69.6818 141.821 69.5911 142.051 69.4097 142.232C69.2391 142.413 68.9351 142.504 68.4978 142.504Z" fill="#55575F"/>
<path d="M78.0915 142.552C77.4088 142.552 76.8222 142.424 76.3315 142.168C75.8408 141.901 75.4355 141.523 75.1155 141.032C74.7955 140.541 74.5608 139.939 74.4115 139.224C74.2622 138.509 74.1875 137.693 74.1875 136.776C74.1875 135.869 74.2622 135.059 74.4115 134.344C74.5608 133.619 74.7955 133.011 75.1155 132.52C75.4355 132.029 75.8408 131.656 76.3315 131.4C76.8222 131.133 77.4088 131 78.0915 131C78.7742 131 79.3608 131.133 79.8515 131.4C80.3422 131.656 80.7475 132.029 81.0675 132.52C81.3875 133.011 81.6222 133.619 81.7715 134.344C81.9208 135.059 81.9955 135.869 81.9955 136.776C81.9955 137.693 81.9208 138.509 81.7715 139.224C81.6222 139.939 81.3875 140.541 81.0675 141.032C80.7475 141.523 80.3422 141.901 79.8515 142.168C79.3608 142.424 78.7742 142.552 78.0915 142.552ZM78.0915 141.384C78.5395 141.384 78.9235 141.299 79.2435 141.128C79.5635 140.947 79.8195 140.696 80.0115 140.376C80.2142 140.056 80.3635 139.672 80.4595 139.224C80.5555 138.765 80.6035 138.253 80.6035 137.688V135.864C80.6035 135.309 80.5555 134.803 80.4595 134.344C80.3635 133.885 80.2142 133.496 80.0115 133.176C79.8195 132.856 79.5635 132.611 79.2435 132.44C78.9235 132.259 78.5395 132.168 78.0915 132.168C77.6435 132.168 77.2595 132.259 76.9395 132.44C76.6195 132.611 76.3582 132.856 76.1555 133.176C75.9635 133.496 75.8195 133.885 75.7235 134.344C75.6275 134.803 75.5795 135.309 75.5795 135.864V137.688C75.5795 138.253 75.6275 138.765 75.7235 139.224C75.8195 139.672 75.9635 140.056 76.1555 140.376C76.3582 140.696 76.6195 140.947 76.9395 141.128C77.2595 141.299 77.6435 141.384 78.0915 141.384ZM78.0915 137.72C77.7182 137.72 77.4568 137.645 77.3075 137.496C77.1688 137.347 77.0995 137.165 77.0995 136.952V136.6C77.0995 136.387 77.1688 136.205 77.3075 136.056C77.4568 135.907 77.7182 135.832 78.0915 135.832C78.4648 135.832 78.7208 135.907 78.8595 136.056C79.0088 136.205 79.0835 136.387 79.0835 136.6V136.952C79.0835 137.165 79.0088 137.347 78.8595 137.496C78.7208 137.645 78.4648 137.72 78.0915 137.72Z" fill="#55575F"/>
<path d="M87.6852 142.552C87.0026 142.552 86.4159 142.424 85.9253 142.168C85.4346 141.901 85.0292 141.523 84.7092 141.032C84.3892 140.541 84.1546 139.939 84.0053 139.224C83.8559 138.509 83.7812 137.693 83.7812 136.776C83.7812 135.869 83.8559 135.059 84.0053 134.344C84.1546 133.619 84.3892 133.011 84.7092 132.52C85.0292 132.029 85.4346 131.656 85.9253 131.4C86.4159 131.133 87.0026 131 87.6852 131C88.3679 131 88.9546 131.133 89.4453 131.4C89.9359 131.656 90.3413 132.029 90.6613 132.52C90.9813 133.011 91.2159 133.619 91.3652 134.344C91.5146 135.059 91.5893 135.869 91.5893 136.776C91.5893 137.693 91.5146 138.509 91.3652 139.224C91.2159 139.939 90.9813 140.541 90.6613 141.032C90.3413 141.523 89.9359 141.901 89.4453 142.168C88.9546 142.424 88.3679 142.552 87.6852 142.552ZM87.6852 141.384C88.1332 141.384 88.5173 141.299 88.8372 141.128C89.1572 140.947 89.4132 140.696 89.6053 140.376C89.8079 140.056 89.9572 139.672 90.0532 139.224C90.1493 138.765 90.1973 138.253 90.1973 137.688V135.864C90.1973 135.309 90.1493 134.803 90.0532 134.344C89.9572 133.885 89.8079 133.496 89.6053 133.176C89.4132 132.856 89.1572 132.611 88.8372 132.44C88.5173 132.259 88.1332 132.168 87.6852 132.168C87.2373 132.168 86.8532 132.259 86.5332 132.44C86.2132 132.611 85.9519 132.856 85.7493 133.176C85.5573 133.496 85.4132 133.885 85.3172 134.344C85.2212 134.803 85.1733 135.309 85.1733 135.864V137.688C85.1733 138.253 85.2212 138.765 85.3172 139.224C85.4132 139.672 85.5573 140.056 85.7493 140.376C85.9519 140.696 86.2132 140.947 86.5332 141.128C86.8532 141.299 87.2373 141.384 87.6852 141.384ZM87.6852 137.72C87.3119 137.72 87.0506 137.645 86.9012 137.496C86.7626 137.347 86.6932 137.165 86.6932 136.952V136.6C86.6932 136.387 86.7626 136.205 86.9012 136.056C87.0506 135.907 87.3119 135.832 87.6852 135.832C88.0586 135.832 88.3146 135.907 88.4533 136.056C88.6026 136.205 88.6772 136.387 88.6772 136.6V136.952C88.6772 137.165 88.6026 137.347 88.4533 137.496C88.3146 137.645 88.0586 137.72 87.6852 137.72Z" fill="#55575F"/>
<path d="M96.624 131.192H99.744C101.109 131.192 102.128 131.661 102.8 132.6C103.472 133.539 103.808 134.931 103.808 136.776C103.808 138.621 103.472 140.013 102.8 140.952C102.128 141.891 101.109 142.36 99.744 142.36H96.624V131.192ZM99.68 141.192C100.576 141.192 101.248 140.883 101.696 140.264C102.155 139.645 102.384 138.771 102.384 137.64V135.912C102.384 134.781 102.155 133.907 101.696 133.288C101.248 132.669 100.576 132.36 99.68 132.36H97.968V141.192H99.68Z" fill="#55575F"/>
<path d="M106.138 142.36V131.192H113.018V132.36H107.482V136.12H112.826V137.288H107.482V141.192H113.018V142.36H106.138Z" fill="#55575F"/>
<path d="M116.916 131.192V137.896C116.916 138.44 116.932 138.925 116.964 139.352C116.996 139.779 117.081 140.147 117.22 140.456C117.358 140.755 117.572 140.984 117.86 141.144C118.158 141.304 118.569 141.384 119.092 141.384C119.614 141.384 120.02 141.304 120.308 141.144C120.606 140.984 120.825 140.755 120.964 140.456C121.102 140.147 121.188 139.779 121.22 139.352C121.252 138.925 121.268 138.44 121.268 137.896V131.192H122.612V137.576C122.612 138.408 122.569 139.133 122.484 139.752C122.409 140.371 122.244 140.888 121.988 141.304C121.742 141.72 121.385 142.035 120.916 142.248C120.457 142.451 119.849 142.552 119.092 142.552C118.334 142.552 117.721 142.451 117.252 142.248C116.793 142.035 116.436 141.72 116.18 141.304C115.934 140.888 115.769 140.371 115.684 139.752C115.609 139.133 115.572 138.408 115.572 137.576V131.192H116.916Z" fill="#55575F"/>
<path d="M128.653 142.552C127.651 142.552 126.829 142.371 126.189 142.008C125.549 141.635 125.021 141.16 124.605 140.584L125.581 139.784C126.019 140.328 126.477 140.733 126.957 141C127.448 141.267 128.029 141.4 128.701 141.4C129.512 141.4 130.131 141.213 130.557 140.84C130.984 140.467 131.197 139.944 131.197 139.272C131.197 138.728 131.043 138.307 130.733 138.008C130.424 137.699 129.885 137.48 129.117 137.352L127.869 137.144C127.325 137.048 126.867 136.904 126.493 136.712C126.131 136.52 125.837 136.291 125.613 136.024C125.389 135.747 125.229 135.448 125.133 135.128C125.037 134.797 124.989 134.456 124.989 134.104C124.989 133.08 125.325 132.307 125.997 131.784C126.669 131.261 127.576 131 128.717 131C129.613 131 130.365 131.149 130.973 131.448C131.592 131.747 132.088 132.168 132.461 132.712L131.517 133.528C131.208 133.123 130.835 132.792 130.397 132.536C129.96 132.28 129.395 132.152 128.701 132.152C127.944 132.152 127.363 132.312 126.957 132.632C126.552 132.952 126.349 133.432 126.349 134.072C126.349 134.573 126.499 134.984 126.797 135.304C127.107 135.613 127.656 135.837 128.445 135.976L129.645 136.184C130.189 136.28 130.648 136.424 131.021 136.616C131.395 136.808 131.693 137.037 131.917 137.304C132.152 137.571 132.317 137.869 132.413 138.2C132.509 138.531 132.557 138.877 132.557 139.24C132.557 140.275 132.216 141.085 131.533 141.672C130.861 142.259 129.901 142.552 128.653 142.552Z" fill="#55575F"/>
<defs>
<linearGradient id="paint0_linear_1655_6032" x1="17" y1="137.009" x2="40.997" y2="137.009" gradientUnits="userSpaceOnUse">
<stop stop-color="#0BADF4"/>
<stop offset="0.9341" stop-color="#30EFE4"/>
</linearGradient>
</defs>
</svg>
