<svg width="382" height="150" viewBox="0 0 382 150" fill="none" xmlns="http://www.w3.org/2000/svg">
<rect x="1" y="1" width="380" height="68" rx="12" fill="#181A1F" stroke="#23252C"/>
<path d="M50.9199 42V30.832H52.2639V40.832H57.5599V42H50.9199Z" fill="#55575F"/>
<path d="M63.3937 42.192C62.8177 42.192 62.295 42.0907 61.8257 41.888C61.367 41.6853 60.9723 41.3973 60.6417 41.024C60.3217 40.64 60.0763 40.1867 59.9057 39.664C59.735 39.1307 59.6497 38.5333 59.6497 37.872C59.6497 37.2213 59.735 36.6293 59.9057 36.096C60.0763 35.5627 60.3217 35.1093 60.6417 34.736C60.9723 34.352 61.367 34.0587 61.8257 33.856C62.295 33.6533 62.8177 33.552 63.3937 33.552C63.9697 33.552 64.487 33.6533 64.9457 33.856C65.415 34.0587 65.8097 34.352 66.1297 34.736C66.4603 35.1093 66.711 35.5627 66.8817 36.096C67.0523 36.6293 67.1377 37.2213 67.1377 37.872C67.1377 38.5333 67.0523 39.1307 66.8817 39.664C66.711 40.1867 66.4603 40.64 66.1297 41.024C65.8097 41.3973 65.415 41.6853 64.9457 41.888C64.487 42.0907 63.9697 42.192 63.3937 42.192ZM63.3937 41.088C64.1083 41.088 64.6843 40.8747 65.1217 40.448C65.559 40.0213 65.7777 39.36 65.7777 38.464V37.28C65.7777 36.384 65.559 35.7227 65.1217 35.296C64.6843 34.8693 64.1083 34.656 63.3937 34.656C62.679 34.656 62.103 34.8693 61.6657 35.296C61.2283 35.7227 61.0097 36.384 61.0097 37.28V38.464C61.0097 39.36 61.2283 40.0213 61.6657 40.448C62.103 40.8747 62.679 41.088 63.3937 41.088Z" fill="#55575F"/>
<path d="M76.1074 42C75.6061 42 75.2488 41.872 75.0354 41.616C74.8221 41.36 74.6888 41.04 74.6354 40.656H74.5554C74.3741 41.136 74.0808 41.5147 73.6754 41.792C73.2808 42.0587 72.7474 42.192 72.0754 42.192C71.2114 42.192 70.5234 41.968 70.0114 41.52C69.4994 41.072 69.2434 40.4587 69.2434 39.68C69.2434 38.912 69.5208 38.32 70.0754 37.904C70.6408 37.488 71.5474 37.28 72.7954 37.28H74.5554V36.464C74.5554 35.856 74.3848 35.4027 74.0434 35.104C73.7021 34.7947 73.2168 34.64 72.5874 34.64C72.0328 34.64 71.5794 34.752 71.2274 34.976C70.8754 35.1893 70.5928 35.4827 70.3794 35.856L69.5154 35.216C69.6221 35.0027 69.7661 34.7947 69.9474 34.592C70.1288 34.3893 70.3528 34.2133 70.6194 34.064C70.8861 33.904 71.1901 33.7813 71.5314 33.696C71.8728 33.6 72.2514 33.552 72.6674 33.552C73.6381 33.552 74.4061 33.7973 74.9714 34.288C75.5474 34.7787 75.8354 35.4613 75.8354 36.336V40.88H76.9874V42H76.1074ZM72.2994 41.12C72.6301 41.12 72.9288 41.0827 73.1954 41.008C73.4728 40.9227 73.7128 40.816 73.9154 40.688C74.1181 40.5493 74.2728 40.3893 74.3794 40.208C74.4968 40.016 74.5554 39.8133 74.5554 39.6V38.24H72.7954C72.0274 38.24 71.4674 38.3467 71.1154 38.56C70.7634 38.7733 70.5874 39.0827 70.5874 39.488V39.824C70.5874 40.2507 70.7368 40.576 71.0354 40.8C71.3448 41.0133 71.7661 41.12 72.2994 41.12Z" fill="#55575F"/>
<path d="M84.5812 40.656H84.5172C83.9838 41.68 83.1358 42.192 81.9732 42.192C80.9598 42.192 80.1652 41.8133 79.5892 41.056C79.0238 40.2987 78.7412 39.2373 78.7412 37.872C78.7412 36.5067 79.0238 35.4453 79.5892 34.688C80.1652 33.9307 80.9598 33.552 81.9732 33.552C83.1358 33.552 83.9838 34.064 84.5172 35.088H84.5812V30.16H85.8612V42H84.5812V40.656ZM82.4692 41.056C82.7572 41.056 83.0292 41.0187 83.2852 40.944C83.5412 40.8693 83.7652 40.7627 83.9572 40.624C84.1492 40.4747 84.2985 40.2987 84.4052 40.096C84.5225 39.8827 84.5812 39.6373 84.5812 39.36V36.384C84.5812 36.1067 84.5225 35.8667 84.4052 35.664C84.2985 35.4507 84.1492 35.2747 83.9572 35.136C83.7652 34.9867 83.5412 34.8747 83.2852 34.8C83.0292 34.7253 82.7572 34.688 82.4692 34.688C81.7225 34.688 81.1412 34.9173 80.7252 35.376C80.3198 35.824 80.1172 36.4213 80.1172 37.168V38.576C80.1172 39.3227 80.3198 39.9253 80.7252 40.384C81.1412 40.832 81.7225 41.056 82.4692 41.056Z" fill="#55575F"/>
<path d="M92.6869 31.92C92.3136 31.92 92.0523 31.8453 91.9029 31.696C91.7536 31.536 91.6789 31.3387 91.6789 31.104V30.848C91.6789 30.6133 91.7536 30.4213 91.9029 30.272C92.0523 30.112 92.3136 30.032 92.6869 30.032C93.0603 30.032 93.3216 30.112 93.4709 30.272C93.6203 30.4213 93.6949 30.6133 93.6949 30.848V31.104C93.6949 31.3387 93.6203 31.536 93.4709 31.696C93.3216 31.8453 93.0603 31.92 92.6869 31.92ZM89.0709 40.912H92.0469V34.832H89.0709V33.744H93.3269V40.912H96.1109V42H89.0709V40.912Z" fill="#55575F"/>
<path d="M98.5367 42V33.744H99.8167V35.088H99.8807C99.966 34.8853 100.073 34.6933 100.201 34.512C100.329 34.32 100.483 34.1547 100.665 34.016C100.857 33.8773 101.081 33.7653 101.337 33.68C101.593 33.5947 101.891 33.552 102.233 33.552C103.097 33.552 103.79 33.8293 104.313 34.384C104.835 34.928 105.097 35.7013 105.097 36.704V42H103.817V36.928C103.817 36.1707 103.651 35.6107 103.321 35.248C102.99 34.8747 102.505 34.688 101.865 34.688C101.609 34.688 101.358 34.72 101.113 34.784C100.867 34.848 100.649 34.944 100.457 35.072C100.265 35.2 100.11 35.3653 99.9927 35.568C99.8753 35.7707 99.8167 36.0053 99.8167 36.272V42H98.5367Z" fill="#55575F"/>
<path d="M115.538 42.944C115.538 43.776 115.192 44.3893 114.498 44.784C113.805 45.1893 112.765 45.392 111.378 45.392C110.045 45.392 109.085 45.216 108.498 44.864C107.922 44.512 107.634 44.0053 107.634 43.344C107.634 42.896 107.752 42.5493 107.986 42.304C108.221 42.0587 108.552 41.8773 108.978 41.76V41.568C108.744 41.4507 108.562 41.3013 108.434 41.12C108.306 40.9387 108.242 40.7093 108.242 40.432C108.242 40.0053 108.381 39.6853 108.658 39.472C108.946 39.2587 109.304 39.0987 109.73 38.992V38.928C109.218 38.704 108.818 38.3733 108.53 37.936C108.253 37.4987 108.114 36.9867 108.114 36.4C108.114 35.984 108.189 35.6 108.338 35.248C108.488 34.896 108.701 34.5973 108.978 34.352C109.266 34.096 109.608 33.8987 110.002 33.76C110.397 33.6213 110.834 33.552 111.314 33.552C111.933 33.552 112.477 33.664 112.946 33.888V33.744C112.946 33.424 113.021 33.1573 113.17 32.944C113.32 32.7307 113.576 32.624 113.938 32.624H115.458V33.744H113.602V34.304C113.901 34.56 114.13 34.864 114.29 35.216C114.45 35.568 114.53 35.9627 114.53 36.4C114.53 36.816 114.45 37.2 114.29 37.552C114.141 37.904 113.928 38.208 113.65 38.464C113.373 38.7093 113.032 38.9013 112.626 39.04C112.232 39.1787 111.794 39.248 111.314 39.248C111.176 39.248 111.042 39.2427 110.914 39.232C110.786 39.2213 110.658 39.2053 110.53 39.184C110.402 39.2053 110.269 39.2427 110.13 39.296C109.992 39.3387 109.864 39.4027 109.746 39.488C109.629 39.5627 109.533 39.6533 109.458 39.76C109.384 39.8667 109.346 39.9893 109.346 40.128C109.346 40.3733 109.469 40.5387 109.714 40.624C109.96 40.6987 110.28 40.736 110.674 40.736H112.498C113.565 40.736 114.338 40.9387 114.818 41.344C115.298 41.7387 115.538 42.272 115.538 42.944ZM114.338 43.008C114.338 42.6773 114.205 42.4107 113.938 42.208C113.672 42.016 113.208 41.92 112.546 41.92H109.682C109.128 42.144 108.85 42.5173 108.85 43.04C108.85 43.4027 108.994 43.712 109.282 43.968C109.57 44.2347 110.05 44.368 110.722 44.368H111.97C112.717 44.368 113.298 44.2507 113.714 44.016C114.13 43.792 114.338 43.456 114.338 43.008ZM111.314 38.256C111.954 38.256 112.424 38.1067 112.722 37.808C113.032 37.5093 113.186 37.1147 113.186 36.624V36.16C113.186 35.6693 113.032 35.28 112.722 34.992C112.424 34.6933 111.954 34.544 111.314 34.544C110.674 34.544 110.205 34.6933 109.906 34.992C109.608 35.28 109.458 35.6693 109.458 36.16V36.624C109.458 37.1147 109.608 37.5093 109.906 37.808C110.205 38.1067 110.674 38.256 111.314 38.256Z" fill="#55575F"/>
<path d="M120.956 42.144C120.519 42.144 120.21 42.0533 120.028 41.872C119.858 41.6907 119.772 41.4613 119.772 41.184V40.896C119.772 40.6187 119.858 40.3893 120.028 40.208C120.21 40.0267 120.519 39.936 120.956 39.936C121.394 39.936 121.698 40.0267 121.868 40.208C122.05 40.3893 122.14 40.6187 122.14 40.896V41.184C122.14 41.4613 122.05 41.6907 121.868 41.872C121.698 42.0533 121.394 42.144 120.956 42.144Z" fill="#55575F"/>
<path d="M130.55 42.144C130.113 42.144 129.803 42.0533 129.622 41.872C129.451 41.6907 129.366 41.4613 129.366 41.184V40.896C129.366 40.6187 129.451 40.3893 129.622 40.208C129.803 40.0267 130.113 39.936 130.55 39.936C130.987 39.936 131.291 40.0267 131.462 40.208C131.643 40.3893 131.734 40.6187 131.734 40.896V41.184C131.734 41.4613 131.643 41.6907 131.462 41.872C131.291 42.0533 130.987 42.144 130.55 42.144Z" fill="#55575F"/>
<path d="M140.144 42.144C139.706 42.144 139.397 42.0533 139.216 41.872C139.045 41.6907 138.96 41.4613 138.96 41.184V40.896C138.96 40.6187 139.045 40.3893 139.216 40.208C139.397 40.0267 139.706 39.936 140.144 39.936C140.581 39.936 140.885 40.0267 141.056 40.208C141.237 40.3893 141.328 40.6187 141.328 40.896V41.184C141.328 41.4613 141.237 41.6907 141.056 41.872C140.885 42.0533 140.581 42.144 140.144 42.144Z" fill="#55575F"/>
<path d="M29 47C35.65 47 41 41.65 41 35C41 28.35 35.65 23 29 23C22.35 23 17 28.35 17 35C17 41.65 22.35 47 29 47Z" fill="#55575F"/>
<path d="M32.3001 36.9C32.3001 35.15 31.2501 34.55 29.1501 34.3C27.6501 34.1 27.3501 33.7 27.3501 33C27.3501 32.2999 27.8501 31.85 28.8501 31.85C29.7501 31.85 30.2501 32.15 30.5001 32.9C30.5501 33.05 30.7001 33.15 30.8501 33.15H31.65C31.8501 33.15 32.0001 33 32.0001 32.8V32.75C31.8 31.65 30.9 30.8 29.7501 30.7V29.5C29.7501 29.3 29.6001 29.15 29.3501 29.1H28.6001C28.4001 29.1 28.2501 29.25 28.2 29.5V30.65C26.7 30.85 25.7501 31.85 25.7501 33.1C25.7501 34.75 26.7501 35.4 28.8501 35.65C30.2501 35.9 30.7001 36.2 30.7001 37C30.7001 37.8001 30 38.35 29.0501 38.35C27.75 38.35 27.3 37.8 27.15 37.05C27.1001 36.85 26.9501 36.75 26.8001 36.75H25.95C25.7501 36.75 25.6001 36.9 25.6001 37.1V37.15C25.8 38.4 26.6001 39.3 28.2501 39.55V40.75C28.2501 40.95 28.4001 41.1 28.65 41.15H29.4C29.6001 41.15 29.7501 41 29.8001 40.75V39.55C31.3001 39.3 32.3001 38.25 32.3001 36.9V36.9Z" fill="#6F7380"/>
<path d="M26.45 42.15C22.55 40.75 20.55 36.4 22 32.55C22.75 30.45 24.4 28.85 26.45 28.1C26.65 28 26.75 27.85 26.75 27.6V26.9C26.75 26.7 26.65 26.55 26.45 26.5C26.4 26.5 26.3 26.5 26.25 26.55C21.5 28.05 18.9 33.1 20.4 37.85C21.3 40.65 23.45 42.8 26.25 43.7C26.45 43.8 26.65 43.7 26.7 43.5C26.75 43.45 26.75 43.4 26.75 43.3V42.6C26.75 42.45 26.6 42.25 26.45 42.15ZM31.75 26.55C31.55 26.45 31.35 26.55 31.3 26.75C31.25 26.8 31.25 26.85 31.25 26.95V27.65C31.25 27.85 31.4 28.05 31.55 28.15C35.45 29.55 37.45 33.9 36 37.75C35.25 39.85 33.6 41.45 31.55 42.2C31.35 42.3 31.25 42.45 31.25 42.7V43.4C31.25 43.6 31.35 43.75 31.55 43.8C31.6 43.8 31.7 43.8 31.75 43.75C36.5 42.25 39.1 37.2 37.6 32.45C36.7 29.6 34.5 27.45 31.75 26.55V26.55Z" fill="#6F7380"/>
<rect x="273" y="17" width="92" height="36" rx="8" fill="#55575F"/>
<rect x="1" y="81" width="380" height="68" rx="12" fill="#181A1F" stroke="#23252C"/>
<path d="M50.9199 122V110.832H52.2639V120.832H57.5599V122H50.9199Z" fill="#55575F"/>
<path d="M63.3937 122.192C62.8177 122.192 62.295 122.091 61.8257 121.888C61.367 121.685 60.9723 121.397 60.6417 121.024C60.3217 120.64 60.0763 120.187 59.9057 119.664C59.735 119.131 59.6497 118.533 59.6497 117.872C59.6497 117.221 59.735 116.629 59.9057 116.096C60.0763 115.563 60.3217 115.109 60.6417 114.736C60.9723 114.352 61.367 114.059 61.8257 113.856C62.295 113.653 62.8177 113.552 63.3937 113.552C63.9697 113.552 64.487 113.653 64.9457 113.856C65.415 114.059 65.8097 114.352 66.1297 114.736C66.4603 115.109 66.711 115.563 66.8817 116.096C67.0523 116.629 67.1377 117.221 67.1377 117.872C67.1377 118.533 67.0523 119.131 66.8817 119.664C66.711 120.187 66.4603 120.64 66.1297 121.024C65.8097 121.397 65.415 121.685 64.9457 121.888C64.487 122.091 63.9697 122.192 63.3937 122.192ZM63.3937 121.088C64.1083 121.088 64.6843 120.875 65.1217 120.448C65.559 120.021 65.7777 119.36 65.7777 118.464V117.28C65.7777 116.384 65.559 115.723 65.1217 115.296C64.6843 114.869 64.1083 114.656 63.3937 114.656C62.679 114.656 62.103 114.869 61.6657 115.296C61.2283 115.723 61.0097 116.384 61.0097 117.28V118.464C61.0097 119.36 61.2283 120.021 61.6657 120.448C62.103 120.875 62.679 121.088 63.3937 121.088Z" fill="#55575F"/>
<path d="M76.1074 122C75.6061 122 75.2488 121.872 75.0354 121.616C74.8221 121.36 74.6888 121.04 74.6354 120.656H74.5554C74.3741 121.136 74.0808 121.515 73.6754 121.792C73.2808 122.059 72.7474 122.192 72.0754 122.192C71.2114 122.192 70.5234 121.968 70.0114 121.52C69.4994 121.072 69.2434 120.459 69.2434 119.68C69.2434 118.912 69.5208 118.32 70.0754 117.904C70.6408 117.488 71.5474 117.28 72.7954 117.28H74.5554V116.464C74.5554 115.856 74.3848 115.403 74.0434 115.104C73.7021 114.795 73.2168 114.64 72.5874 114.64C72.0328 114.64 71.5794 114.752 71.2274 114.976C70.8754 115.189 70.5928 115.483 70.3794 115.856L69.5154 115.216C69.6221 115.003 69.7661 114.795 69.9474 114.592C70.1288 114.389 70.3528 114.213 70.6194 114.064C70.8861 113.904 71.1901 113.781 71.5314 113.696C71.8728 113.6 72.2514 113.552 72.6674 113.552C73.6381 113.552 74.4061 113.797 74.9714 114.288C75.5474 114.779 75.8354 115.461 75.8354 116.336V120.88H76.9874V122H76.1074ZM72.2994 121.12C72.6301 121.12 72.9288 121.083 73.1954 121.008C73.4728 120.923 73.7128 120.816 73.9154 120.688C74.1181 120.549 74.2728 120.389 74.3794 120.208C74.4968 120.016 74.5554 119.813 74.5554 119.6V118.24H72.7954C72.0274 118.24 71.4674 118.347 71.1154 118.56C70.7634 118.773 70.5874 119.083 70.5874 119.488V119.824C70.5874 120.251 70.7368 120.576 71.0354 120.8C71.3448 121.013 71.7661 121.12 72.2994 121.12Z" fill="#55575F"/>
<path d="M84.5812 120.656H84.5172C83.9838 121.68 83.1358 122.192 81.9732 122.192C80.9598 122.192 80.1652 121.813 79.5892 121.056C79.0238 120.299 78.7412 119.237 78.7412 117.872C78.7412 116.507 79.0238 115.445 79.5892 114.688C80.1652 113.931 80.9598 113.552 81.9732 113.552C83.1358 113.552 83.9838 114.064 84.5172 115.088H84.5812V110.16H85.8612V122H84.5812V120.656ZM82.4692 121.056C82.7572 121.056 83.0292 121.019 83.2852 120.944C83.5412 120.869 83.7652 120.763 83.9572 120.624C84.1492 120.475 84.2985 120.299 84.4052 120.096C84.5225 119.883 84.5812 119.637 84.5812 119.36V116.384C84.5812 116.107 84.5225 115.867 84.4052 115.664C84.2985 115.451 84.1492 115.275 83.9572 115.136C83.7652 114.987 83.5412 114.875 83.2852 114.8C83.0292 114.725 82.7572 114.688 82.4692 114.688C81.7225 114.688 81.1412 114.917 80.7252 115.376C80.3198 115.824 80.1172 116.421 80.1172 117.168V118.576C80.1172 119.323 80.3198 119.925 80.7252 120.384C81.1412 120.832 81.7225 121.056 82.4692 121.056Z" fill="#55575F"/>
<path d="M92.6869 111.92C92.3136 111.92 92.0523 111.845 91.9029 111.696C91.7536 111.536 91.6789 111.339 91.6789 111.104V110.848C91.6789 110.613 91.7536 110.421 91.9029 110.272C92.0523 110.112 92.3136 110.032 92.6869 110.032C93.0603 110.032 93.3216 110.112 93.4709 110.272C93.6203 110.421 93.6949 110.613 93.6949 110.848V111.104C93.6949 111.339 93.6203 111.536 93.4709 111.696C93.3216 111.845 93.0603 111.92 92.6869 111.92ZM89.0709 120.912H92.0469V114.832H89.0709V113.744H93.3269V120.912H96.1109V122H89.0709V120.912Z" fill="#55575F"/>
<path d="M98.5367 122V113.744H99.8167V115.088H99.8807C99.966 114.885 100.073 114.693 100.201 114.512C100.329 114.32 100.483 114.155 100.665 114.016C100.857 113.877 101.081 113.765 101.337 113.68C101.593 113.595 101.891 113.552 102.233 113.552C103.097 113.552 103.79 113.829 104.313 114.384C104.835 114.928 105.097 115.701 105.097 116.704V122H103.817V116.928C103.817 116.171 103.651 115.611 103.321 115.248C102.99 114.875 102.505 114.688 101.865 114.688C101.609 114.688 101.358 114.72 101.113 114.784C100.867 114.848 100.649 114.944 100.457 115.072C100.265 115.2 100.11 115.365 99.9927 115.568C99.8753 115.771 99.8167 116.005 99.8167 116.272V122H98.5367Z" fill="#55575F"/>
<path d="M115.538 122.944C115.538 123.776 115.192 124.389 114.498 124.784C113.805 125.189 112.765 125.392 111.378 125.392C110.045 125.392 109.085 125.216 108.498 124.864C107.922 124.512 107.634 124.005 107.634 123.344C107.634 122.896 107.752 122.549 107.986 122.304C108.221 122.059 108.552 121.877 108.978 121.76V121.568C108.744 121.451 108.562 121.301 108.434 121.12C108.306 120.939 108.242 120.709 108.242 120.432C108.242 120.005 108.381 119.685 108.658 119.472C108.946 119.259 109.304 119.099 109.73 118.992V118.928C109.218 118.704 108.818 118.373 108.53 117.936C108.253 117.499 108.114 116.987 108.114 116.4C108.114 115.984 108.189 115.6 108.338 115.248C108.488 114.896 108.701 114.597 108.978 114.352C109.266 114.096 109.608 113.899 110.002 113.76C110.397 113.621 110.834 113.552 111.314 113.552C111.933 113.552 112.477 113.664 112.946 113.888V113.744C112.946 113.424 113.021 113.157 113.17 112.944C113.32 112.731 113.576 112.624 113.938 112.624H115.458V113.744H113.602V114.304C113.901 114.56 114.13 114.864 114.29 115.216C114.45 115.568 114.53 115.963 114.53 116.4C114.53 116.816 114.45 117.2 114.29 117.552C114.141 117.904 113.928 118.208 113.65 118.464C113.373 118.709 113.032 118.901 112.626 119.04C112.232 119.179 111.794 119.248 111.314 119.248C111.176 119.248 111.042 119.243 110.914 119.232C110.786 119.221 110.658 119.205 110.53 119.184C110.402 119.205 110.269 119.243 110.13 119.296C109.992 119.339 109.864 119.403 109.746 119.488C109.629 119.563 109.533 119.653 109.458 119.76C109.384 119.867 109.346 119.989 109.346 120.128C109.346 120.373 109.469 120.539 109.714 120.624C109.96 120.699 110.28 120.736 110.674 120.736H112.498C113.565 120.736 114.338 120.939 114.818 121.344C115.298 121.739 115.538 122.272 115.538 122.944ZM114.338 123.008C114.338 122.677 114.205 122.411 113.938 122.208C113.672 122.016 113.208 121.92 112.546 121.92H109.682C109.128 122.144 108.85 122.517 108.85 123.04C108.85 123.403 108.994 123.712 109.282 123.968C109.57 124.235 110.05 124.368 110.722 124.368H111.97C112.717 124.368 113.298 124.251 113.714 124.016C114.13 123.792 114.338 123.456 114.338 123.008ZM111.314 118.256C111.954 118.256 112.424 118.107 112.722 117.808C113.032 117.509 113.186 117.115 113.186 116.624V116.16C113.186 115.669 113.032 115.28 112.722 114.992C112.424 114.693 111.954 114.544 111.314 114.544C110.674 114.544 110.205 114.693 109.906 114.992C109.608 115.28 109.458 115.669 109.458 116.16V116.624C109.458 117.115 109.608 117.509 109.906 117.808C110.205 118.107 110.674 118.256 111.314 118.256Z" fill="#55575F"/>
<path d="M120.956 122.144C120.519 122.144 120.21 122.053 120.028 121.872C119.858 121.691 119.772 121.461 119.772 121.184V120.896C119.772 120.619 119.858 120.389 120.028 120.208C120.21 120.027 120.519 119.936 120.956 119.936C121.394 119.936 121.698 120.027 121.868 120.208C122.05 120.389 122.14 120.619 122.14 120.896V121.184C122.14 121.461 122.05 121.691 121.868 121.872C121.698 122.053 121.394 122.144 120.956 122.144Z" fill="#55575F"/>
<path d="M130.55 122.144C130.113 122.144 129.803 122.053 129.622 121.872C129.451 121.691 129.366 121.461 129.366 121.184V120.896C129.366 120.619 129.451 120.389 129.622 120.208C129.803 120.027 130.113 119.936 130.55 119.936C130.987 119.936 131.291 120.027 131.462 120.208C131.643 120.389 131.734 120.619 131.734 120.896V121.184C131.734 121.461 131.643 121.691 131.462 121.872C131.291 122.053 130.987 122.144 130.55 122.144Z" fill="#55575F"/>
<path d="M140.144 122.144C139.706 122.144 139.397 122.053 139.216 121.872C139.045 121.691 138.96 121.461 138.96 121.184V120.896C138.96 120.619 139.045 120.389 139.216 120.208C139.397 120.027 139.706 119.936 140.144 119.936C140.581 119.936 140.885 120.027 141.056 120.208C141.237 120.389 141.328 120.619 141.328 120.896V121.184C141.328 121.461 141.237 121.691 141.056 121.872C140.885 122.053 140.581 122.144 140.144 122.144Z" fill="#55575F"/>
<path d="M39.3281 113.337C39.0952 113.337 38.8624 113.38 38.6508 113.485L30.5238 105.351C30.6085 105.139 30.672 104.928 30.672 104.673C30.672 103.741 29.9101 103 29 103C28.0899 103 27.328 103.763 27.328 104.673C27.328 104.906 27.3704 105.139 27.4762 105.351L19.3492 113.464C19.1376 113.38 18.9259 113.316 18.672 113.316C17.7407 113.316 17 114.079 17 114.989C17 115.9 17.7619 116.663 18.672 116.663C18.9048 116.663 19.1376 116.62 19.3492 116.515L27.4762 124.649C27.3915 124.861 27.328 125.072 27.328 125.327C27.328 126.259 28.0899 127 29 127C29.9101 127 30.672 126.237 30.672 125.327C30.672 125.093 30.6296 124.861 30.5238 124.649L38.6508 116.515C38.8624 116.599 39.074 116.663 39.3281 116.663C40.2593 116.663 41 115.9 41 114.989C41 114.079 40.2593 113.337 39.3281 113.337ZM37.7618 114.417L34.6085 115.18C34.3334 114.82 33.9101 114.566 33.4232 114.566C33.0635 114.566 32.746 114.693 32.4921 114.905L30.4391 113.951C30.4391 113.93 30.4391 113.93 30.4391 113.909C30.4391 113.316 30.1005 112.829 29.5926 112.596V106.241C29.6138 106.241 29.6349 106.22 29.6561 106.22L37.783 114.354C37.783 114.354 37.7618 114.396 37.7618 114.417ZM29 123.674C28.9577 123.674 28.9153 123.674 28.873 123.674L25.6984 116.959C25.91 116.705 26.037 116.387 26.037 116.027L28.1111 115.053C28.3651 115.244 28.6825 115.371 29 115.371C29.3386 115.371 29.6561 115.244 29.9101 115.053L31.9841 116.027C31.9841 116.027 31.9841 116.027 31.9841 116.049C31.9841 116.409 32.1111 116.726 32.3228 116.981L29.1058 123.674C29.0847 123.674 29.0423 123.674 29 123.674ZM28.3862 106.241V112.596C27.8995 112.829 27.5397 113.337 27.5397 113.909C27.5397 113.93 27.5397 113.951 27.5397 113.951L25.4868 114.905C25.2328 114.693 24.9153 114.566 24.5556 114.566C24.0688 114.566 23.6455 114.799 23.3704 115.18L20.2381 114.417C20.2381 114.396 20.2169 114.375 20.2169 114.333L28.3439 106.199C28.3439 106.22 28.3651 106.22 28.3862 106.241ZM20.2169 115.667L23.1587 116.387C23.328 117.023 23.8783 117.489 24.5767 117.489H24.5979L26.9259 122.403L20.2169 115.667ZM33.4021 117.489H33.4232C34.1005 117.489 34.672 117.023 34.8412 116.387L37.783 115.667C37.783 115.667 37.783 115.667 37.783 115.688L31.0741 122.403L33.4021 117.489Z" fill="#6F7380"/>
<rect x="273" y="97" width="92" height="36" rx="8" fill="#55575F"/>
</svg>
