<svg width="280" height="214" viewBox="0 0 280 214" fill="none" xmlns="http://www.w3.org/2000/svg">
<rect x="1" y="1" width="278" height="100" rx="12" fill="#181A1F" stroke="#23252C"/>
<path d="M50.9199 31V19.832H52.2639V29.832H57.5599V31H50.9199Z" fill="#55575F"/>
<path d="M63.3937 31.192C62.8177 31.192 62.295 31.0907 61.8257 30.888C61.367 30.6853 60.9723 30.3973 60.6417 30.024C60.3217 29.64 60.0763 29.1867 59.9057 28.664C59.735 28.1307 59.6497 27.5333 59.6497 26.872C59.6497 26.2213 59.735 25.6293 59.9057 25.096C60.0763 24.5627 60.3217 24.1093 60.6417 23.736C60.9723 23.352 61.367 23.0587 61.8257 22.856C62.295 22.6533 62.8177 22.552 63.3937 22.552C63.9697 22.552 64.487 22.6533 64.9457 22.856C65.415 23.0587 65.8097 23.352 66.1297 23.736C66.4603 24.1093 66.711 24.5627 66.8817 25.096C67.0523 25.6293 67.1377 26.2213 67.1377 26.872C67.1377 27.5333 67.0523 28.1307 66.8817 28.664C66.711 29.1867 66.4603 29.64 66.1297 30.024C65.8097 30.3973 65.415 30.6853 64.9457 30.888C64.487 31.0907 63.9697 31.192 63.3937 31.192ZM63.3937 30.088C64.1083 30.088 64.6843 29.8747 65.1217 29.448C65.559 29.0213 65.7777 28.36 65.7777 27.464V26.28C65.7777 25.384 65.559 24.7227 65.1217 24.296C64.6843 23.8693 64.1083 23.656 63.3937 23.656C62.679 23.656 62.103 23.8693 61.6657 24.296C61.2283 24.7227 61.0097 25.384 61.0097 26.28V27.464C61.0097 28.36 61.2283 29.0213 61.6657 29.448C62.103 29.8747 62.679 30.088 63.3937 30.088Z" fill="#55575F"/>
<path d="M76.1074 31C75.6061 31 75.2488 30.872 75.0354 30.616C74.8221 30.36 74.6888 30.04 74.6354 29.656H74.5554C74.3741 30.136 74.0808 30.5147 73.6754 30.792C73.2808 31.0587 72.7474 31.192 72.0754 31.192C71.2114 31.192 70.5234 30.968 70.0114 30.52C69.4994 30.072 69.2434 29.4587 69.2434 28.68C69.2434 27.912 69.5208 27.32 70.0754 26.904C70.6408 26.488 71.5474 26.28 72.7954 26.28H74.5554V25.464C74.5554 24.856 74.3848 24.4027 74.0434 24.104C73.7021 23.7947 73.2168 23.64 72.5874 23.64C72.0328 23.64 71.5794 23.752 71.2274 23.976C70.8754 24.1893 70.5928 24.4827 70.3794 24.856L69.5154 24.216C69.6221 24.0027 69.7661 23.7947 69.9474 23.592C70.1288 23.3893 70.3528 23.2133 70.6194 23.064C70.8861 22.904 71.1901 22.7813 71.5314 22.696C71.8728 22.6 72.2514 22.552 72.6674 22.552C73.6381 22.552 74.4061 22.7973 74.9714 23.288C75.5474 23.7787 75.8354 24.4613 75.8354 25.336V29.88H76.9874V31H76.1074ZM72.2994 30.12C72.6301 30.12 72.9288 30.0827 73.1954 30.008C73.4728 29.9227 73.7128 29.816 73.9154 29.688C74.1181 29.5493 74.2728 29.3893 74.3794 29.208C74.4968 29.016 74.5554 28.8133 74.5554 28.6V27.24H72.7954C72.0274 27.24 71.4674 27.3467 71.1154 27.56C70.7634 27.7733 70.5874 28.0827 70.5874 28.488V28.824C70.5874 29.2507 70.7368 29.576 71.0354 29.8C71.3448 30.0133 71.7661 30.12 72.2994 30.12Z" fill="#55575F"/>
<path d="M84.5812 29.656H84.5172C83.9838 30.68 83.1358 31.192 81.9732 31.192C80.9598 31.192 80.1652 30.8133 79.5892 30.056C79.0238 29.2987 78.7412 28.2373 78.7412 26.872C78.7412 25.5067 79.0238 24.4453 79.5892 23.688C80.1652 22.9307 80.9598 22.552 81.9732 22.552C83.1358 22.552 83.9838 23.064 84.5172 24.088H84.5812V19.16H85.8612V31H84.5812V29.656ZM82.4692 30.056C82.7572 30.056 83.0292 30.0187 83.2852 29.944C83.5412 29.8693 83.7652 29.7627 83.9572 29.624C84.1492 29.4747 84.2985 29.2987 84.4052 29.096C84.5225 28.8827 84.5812 28.6373 84.5812 28.36V25.384C84.5812 25.1067 84.5225 24.8667 84.4052 24.664C84.2985 24.4507 84.1492 24.2747 83.9572 24.136C83.7652 23.9867 83.5412 23.8747 83.2852 23.8C83.0292 23.7253 82.7572 23.688 82.4692 23.688C81.7225 23.688 81.1412 23.9173 80.7252 24.376C80.3198 24.824 80.1172 25.4213 80.1172 26.168V27.576C80.1172 28.3227 80.3198 28.9253 80.7252 29.384C81.1412 29.832 81.7225 30.056 82.4692 30.056Z" fill="#55575F"/>
<path d="M92.6869 20.92C92.3136 20.92 92.0523 20.8453 91.9029 20.696C91.7536 20.536 91.6789 20.3387 91.6789 20.104V19.848C91.6789 19.6133 91.7536 19.4213 91.9029 19.272C92.0523 19.112 92.3136 19.032 92.6869 19.032C93.0603 19.032 93.3216 19.112 93.4709 19.272C93.6203 19.4213 93.6949 19.6133 93.6949 19.848V20.104C93.6949 20.3387 93.6203 20.536 93.4709 20.696C93.3216 20.8453 93.0603 20.92 92.6869 20.92ZM89.0709 29.912H92.0469V23.832H89.0709V22.744H93.3269V29.912H96.1109V31H89.0709V29.912Z" fill="#55575F"/>
<path d="M98.5367 31V22.744H99.8167V24.088H99.8807C99.966 23.8853 100.073 23.6933 100.201 23.512C100.329 23.32 100.483 23.1547 100.665 23.016C100.857 22.8773 101.081 22.7653 101.337 22.68C101.593 22.5947 101.891 22.552 102.233 22.552C103.097 22.552 103.79 22.8293 104.313 23.384C104.835 23.928 105.097 24.7013 105.097 25.704V31H103.817V25.928C103.817 25.1707 103.651 24.6107 103.321 24.248C102.99 23.8747 102.505 23.688 101.865 23.688C101.609 23.688 101.358 23.72 101.113 23.784C100.867 23.848 100.649 23.944 100.457 24.072C100.265 24.2 100.11 24.3653 99.9927 24.568C99.8753 24.7707 99.8167 25.0053 99.8167 25.272V31H98.5367Z" fill="#55575F"/>
<path d="M115.538 31.944C115.538 32.776 115.192 33.3893 114.498 33.784C113.805 34.1893 112.765 34.392 111.378 34.392C110.045 34.392 109.085 34.216 108.498 33.864C107.922 33.512 107.634 33.0053 107.634 32.344C107.634 31.896 107.752 31.5493 107.986 31.304C108.221 31.0587 108.552 30.8773 108.978 30.76V30.568C108.744 30.4507 108.562 30.3013 108.434 30.12C108.306 29.9387 108.242 29.7093 108.242 29.432C108.242 29.0053 108.381 28.6853 108.658 28.472C108.946 28.2587 109.304 28.0987 109.73 27.992V27.928C109.218 27.704 108.818 27.3733 108.53 26.936C108.253 26.4987 108.114 25.9867 108.114 25.4C108.114 24.984 108.189 24.6 108.338 24.248C108.488 23.896 108.701 23.5973 108.978 23.352C109.266 23.096 109.608 22.8987 110.002 22.76C110.397 22.6213 110.834 22.552 111.314 22.552C111.933 22.552 112.477 22.664 112.946 22.888V22.744C112.946 22.424 113.021 22.1573 113.17 21.944C113.32 21.7307 113.576 21.624 113.938 21.624H115.458V22.744H113.602V23.304C113.901 23.56 114.13 23.864 114.29 24.216C114.45 24.568 114.53 24.9627 114.53 25.4C114.53 25.816 114.45 26.2 114.29 26.552C114.141 26.904 113.928 27.208 113.65 27.464C113.373 27.7093 113.032 27.9013 112.626 28.04C112.232 28.1787 111.794 28.248 111.314 28.248C111.176 28.248 111.042 28.2427 110.914 28.232C110.786 28.2213 110.658 28.2053 110.53 28.184C110.402 28.2053 110.269 28.2427 110.13 28.296C109.992 28.3387 109.864 28.4027 109.746 28.488C109.629 28.5627 109.533 28.6533 109.458 28.76C109.384 28.8667 109.346 28.9893 109.346 29.128C109.346 29.3733 109.469 29.5387 109.714 29.624C109.96 29.6987 110.28 29.736 110.674 29.736H112.498C113.565 29.736 114.338 29.9387 114.818 30.344C115.298 30.7387 115.538 31.272 115.538 31.944ZM114.338 32.008C114.338 31.6773 114.205 31.4107 113.938 31.208C113.672 31.016 113.208 30.92 112.546 30.92H109.682C109.128 31.144 108.85 31.5173 108.85 32.04C108.85 32.4027 108.994 32.712 109.282 32.968C109.57 33.2347 110.05 33.368 110.722 33.368H111.97C112.717 33.368 113.298 33.2507 113.714 33.016C114.13 32.792 114.338 32.456 114.338 32.008ZM111.314 27.256C111.954 27.256 112.424 27.1067 112.722 26.808C113.032 26.5093 113.186 26.1147 113.186 25.624V25.16C113.186 24.6693 113.032 24.28 112.722 23.992C112.424 23.6933 111.954 23.544 111.314 23.544C110.674 23.544 110.205 23.6933 109.906 23.992C109.608 24.28 109.458 24.6693 109.458 25.16V25.624C109.458 26.1147 109.608 26.5093 109.906 26.808C110.205 27.1067 110.674 27.256 111.314 27.256Z" fill="#55575F"/>
<path d="M120.956 31.144C120.519 31.144 120.21 31.0533 120.028 30.872C119.858 30.6907 119.772 30.4613 119.772 30.184V29.896C119.772 29.6187 119.858 29.3893 120.028 29.208C120.21 29.0267 120.519 28.936 120.956 28.936C121.394 28.936 121.698 29.0267 121.868 29.208C122.05 29.3893 122.14 29.6187 122.14 29.896V30.184C122.14 30.4613 122.05 30.6907 121.868 30.872C121.698 31.0533 121.394 31.144 120.956 31.144Z" fill="#55575F"/>
<path d="M130.55 31.144C130.113 31.144 129.803 31.0533 129.622 30.872C129.451 30.6907 129.366 30.4613 129.366 30.184V29.896C129.366 29.6187 129.451 29.3893 129.622 29.208C129.803 29.0267 130.113 28.936 130.55 28.936C130.987 28.936 131.291 29.0267 131.462 29.208C131.643 29.3893 131.734 29.6187 131.734 29.896V30.184C131.734 30.4613 131.643 30.6907 131.462 30.872C131.291 31.0533 130.987 31.144 130.55 31.144Z" fill="#55575F"/>
<path d="M140.144 31.144C139.706 31.144 139.397 31.0533 139.216 30.872C139.045 30.6907 138.96 30.4613 138.96 30.184V29.896C138.96 29.6187 139.045 29.3893 139.216 29.208C139.397 29.0267 139.706 28.936 140.144 28.936C140.581 28.936 140.885 29.0267 141.056 29.208C141.237 29.3893 141.328 29.6187 141.328 29.896V30.184C141.328 30.4613 141.237 30.6907 141.056 30.872C140.885 31.0533 140.581 31.144 140.144 31.144Z" fill="#55575F"/>
<path d="M29 37C35.65 37 41 31.65 41 25C41 18.35 35.65 13 29 13C22.35 13 17 18.35 17 25C17 31.65 22.35 37 29 37Z" fill="#55575F"/>
<path d="M32.3001 26.9C32.3001 25.15 31.2501 24.55 29.1501 24.3C27.6501 24.1 27.3501 23.7 27.3501 23C27.3501 22.2999 27.8501 21.85 28.8501 21.85C29.7501 21.85 30.2501 22.15 30.5001 22.9C30.5501 23.05 30.7001 23.15 30.8501 23.15H31.65C31.8501 23.15 32.0001 23 32.0001 22.8V22.75C31.8 21.65 30.9 20.8 29.7501 20.7V19.5C29.7501 19.3 29.6001 19.15 29.3501 19.1H28.6001C28.4001 19.1 28.2501 19.25 28.2 19.5V20.65C26.7 20.85 25.7501 21.85 25.7501 23.1C25.7501 24.75 26.7501 25.4 28.8501 25.65C30.2501 25.9 30.7001 26.2 30.7001 27C30.7001 27.8001 30 28.35 29.0501 28.35C27.75 28.35 27.3 27.8 27.15 27.05C27.1001 26.85 26.9501 26.75 26.8001 26.75H25.95C25.7501 26.75 25.6001 26.9 25.6001 27.1V27.15C25.8 28.4 26.6001 29.3 28.2501 29.55V30.75C28.2501 30.95 28.4001 31.1 28.65 31.15H29.4C29.6001 31.15 29.7501 31 29.8001 30.75V29.55C31.3001 29.3 32.3001 28.25 32.3001 26.9Z" fill="#6F7380"/>
<path d="M26.45 32.15C22.55 30.75 20.55 26.4 22 22.55C22.75 20.45 24.4 18.85 26.45 18.1C26.65 18 26.75 17.85 26.75 17.6V16.9C26.75 16.7 26.65 16.55 26.45 16.5C26.4 16.5 26.3 16.5 26.25 16.55C21.5 18.05 18.9 23.1 20.4 27.85C21.3 30.65 23.45 32.8 26.25 33.7C26.45 33.8 26.65 33.7 26.7 33.5C26.75 33.45 26.75 33.4 26.75 33.3V32.6C26.75 32.45 26.6 32.25 26.45 32.15ZM31.75 16.55C31.55 16.45 31.35 16.55 31.3 16.75C31.25 16.8 31.25 16.85 31.25 16.95V17.65C31.25 17.85 31.4 18.05 31.55 18.15C35.45 19.55 37.45 23.9 36 27.75C35.25 29.85 33.6 31.45 31.55 32.2C31.35 32.3 31.25 32.45 31.25 32.7V33.4C31.25 33.6 31.35 33.75 31.55 33.8C31.6 33.8 31.7 33.8 31.75 33.75C36.5 32.25 39.1 27.2 37.6 22.45C36.7 19.6 34.5 17.45 31.75 16.55Z" fill="#6F7380"/>
<rect x="17" y="45" width="246" height="40" rx="8" fill="#55575F"/>
<rect x="1" y="113" width="278" height="100" rx="12" fill="#181A1F" stroke="#23252C"/>
<rect x="17" y="157" width="246" height="40" rx="8" fill="#55575F"/>
<path d="M52.9199 143V131.832H54.2639V141.832H59.5599V143H52.9199Z" fill="#55575F"/>
<path d="M65.3937 143.192C64.8177 143.192 64.295 143.091 63.8257 142.888C63.367 142.685 62.9723 142.397 62.6417 142.024C62.3217 141.64 62.0763 141.187 61.9057 140.664C61.735 140.131 61.6497 139.533 61.6497 138.872C61.6497 138.221 61.735 137.629 61.9057 137.096C62.0763 136.563 62.3217 136.109 62.6417 135.736C62.9723 135.352 63.367 135.059 63.8257 134.856C64.295 134.653 64.8177 134.552 65.3937 134.552C65.9697 134.552 66.487 134.653 66.9457 134.856C67.415 135.059 67.8097 135.352 68.1297 135.736C68.4603 136.109 68.711 136.563 68.8817 137.096C69.0523 137.629 69.1377 138.221 69.1377 138.872C69.1377 139.533 69.0523 140.131 68.8817 140.664C68.711 141.187 68.4603 141.64 68.1297 142.024C67.8097 142.397 67.415 142.685 66.9457 142.888C66.487 143.091 65.9697 143.192 65.3937 143.192ZM65.3937 142.088C66.1083 142.088 66.6843 141.875 67.1217 141.448C67.559 141.021 67.7777 140.36 67.7777 139.464V138.28C67.7777 137.384 67.559 136.723 67.1217 136.296C66.6843 135.869 66.1083 135.656 65.3937 135.656C64.679 135.656 64.103 135.869 63.6657 136.296C63.2283 136.723 63.0097 137.384 63.0097 138.28V139.464C63.0097 140.36 63.2283 141.021 63.6657 141.448C64.103 141.875 64.679 142.088 65.3937 142.088Z" fill="#55575F"/>
<path d="M78.1074 143C77.6061 143 77.2488 142.872 77.0354 142.616C76.8221 142.36 76.6888 142.04 76.6354 141.656H76.5554C76.3741 142.136 76.0808 142.515 75.6754 142.792C75.2808 143.059 74.7474 143.192 74.0754 143.192C73.2114 143.192 72.5234 142.968 72.0114 142.52C71.4994 142.072 71.2434 141.459 71.2434 140.68C71.2434 139.912 71.5208 139.32 72.0754 138.904C72.6408 138.488 73.5474 138.28 74.7954 138.28H76.5554V137.464C76.5554 136.856 76.3848 136.403 76.0434 136.104C75.7021 135.795 75.2168 135.64 74.5874 135.64C74.0328 135.64 73.5794 135.752 73.2274 135.976C72.8754 136.189 72.5928 136.483 72.3794 136.856L71.5154 136.216C71.6221 136.003 71.7661 135.795 71.9474 135.592C72.1288 135.389 72.3528 135.213 72.6194 135.064C72.8861 134.904 73.1901 134.781 73.5314 134.696C73.8728 134.6 74.2514 134.552 74.6674 134.552C75.6381 134.552 76.4061 134.797 76.9714 135.288C77.5474 135.779 77.8354 136.461 77.8354 137.336V141.88H78.9874V143H78.1074ZM74.2994 142.12C74.6301 142.12 74.9288 142.083 75.1954 142.008C75.4728 141.923 75.7128 141.816 75.9154 141.688C76.1181 141.549 76.2728 141.389 76.3794 141.208C76.4968 141.016 76.5554 140.813 76.5554 140.6V139.24H74.7954C74.0274 139.24 73.4674 139.347 73.1154 139.56C72.7634 139.773 72.5874 140.083 72.5874 140.488V140.824C72.5874 141.251 72.7368 141.576 73.0354 141.8C73.3448 142.013 73.7661 142.12 74.2994 142.12Z" fill="#55575F"/>
<path d="M86.5812 141.656H86.5172C85.9838 142.68 85.1358 143.192 83.9732 143.192C82.9598 143.192 82.1652 142.813 81.5892 142.056C81.0238 141.299 80.7412 140.237 80.7412 138.872C80.7412 137.507 81.0238 136.445 81.5892 135.688C82.1652 134.931 82.9598 134.552 83.9732 134.552C85.1358 134.552 85.9838 135.064 86.5172 136.088H86.5812V131.16H87.8612V143H86.5812V141.656ZM84.4692 142.056C84.7572 142.056 85.0292 142.019 85.2852 141.944C85.5412 141.869 85.7652 141.763 85.9572 141.624C86.1492 141.475 86.2985 141.299 86.4052 141.096C86.5225 140.883 86.5812 140.637 86.5812 140.36V137.384C86.5812 137.107 86.5225 136.867 86.4052 136.664C86.2985 136.451 86.1492 136.275 85.9572 136.136C85.7652 135.987 85.5412 135.875 85.2852 135.8C85.0292 135.725 84.7572 135.688 84.4692 135.688C83.7225 135.688 83.1412 135.917 82.7252 136.376C82.3198 136.824 82.1172 137.421 82.1172 138.168V139.576C82.1172 140.323 82.3198 140.925 82.7252 141.384C83.1412 141.832 83.7225 142.056 84.4692 142.056Z" fill="#55575F"/>
<path d="M94.6869 132.92C94.3136 132.92 94.0523 132.845 93.9029 132.696C93.7536 132.536 93.6789 132.339 93.6789 132.104V131.848C93.6789 131.613 93.7536 131.421 93.9029 131.272C94.0523 131.112 94.3136 131.032 94.6869 131.032C95.0603 131.032 95.3216 131.112 95.4709 131.272C95.6203 131.421 95.6949 131.613 95.6949 131.848V132.104C95.6949 132.339 95.6203 132.536 95.4709 132.696C95.3216 132.845 95.0603 132.92 94.6869 132.92ZM91.0709 141.912H94.0469V135.832H91.0709V134.744H95.3269V141.912H98.1109V143H91.0709V141.912Z" fill="#55575F"/>
<path d="M100.537 143V134.744H101.817V136.088H101.881C101.966 135.885 102.073 135.693 102.201 135.512C102.329 135.32 102.483 135.155 102.665 135.016C102.857 134.877 103.081 134.765 103.337 134.68C103.593 134.595 103.891 134.552 104.233 134.552C105.097 134.552 105.79 134.829 106.313 135.384C106.835 135.928 107.097 136.701 107.097 137.704V143H105.817V137.928C105.817 137.171 105.651 136.611 105.321 136.248C104.99 135.875 104.505 135.688 103.865 135.688C103.609 135.688 103.358 135.72 103.113 135.784C102.867 135.848 102.649 135.944 102.457 136.072C102.265 136.2 102.11 136.365 101.993 136.568C101.875 136.771 101.817 137.005 101.817 137.272V143H100.537Z" fill="#55575F"/>
<path d="M117.538 143.944C117.538 144.776 117.192 145.389 116.498 145.784C115.805 146.189 114.765 146.392 113.378 146.392C112.045 146.392 111.085 146.216 110.498 145.864C109.922 145.512 109.634 145.005 109.634 144.344C109.634 143.896 109.752 143.549 109.986 143.304C110.221 143.059 110.552 142.877 110.978 142.76V142.568C110.744 142.451 110.562 142.301 110.434 142.12C110.306 141.939 110.242 141.709 110.242 141.432C110.242 141.005 110.381 140.685 110.658 140.472C110.946 140.259 111.304 140.099 111.73 139.992V139.928C111.218 139.704 110.818 139.373 110.53 138.936C110.253 138.499 110.114 137.987 110.114 137.4C110.114 136.984 110.189 136.6 110.338 136.248C110.488 135.896 110.701 135.597 110.978 135.352C111.266 135.096 111.608 134.899 112.002 134.76C112.397 134.621 112.834 134.552 113.314 134.552C113.933 134.552 114.477 134.664 114.946 134.888V134.744C114.946 134.424 115.021 134.157 115.17 133.944C115.32 133.731 115.576 133.624 115.938 133.624H117.458V134.744H115.602V135.304C115.901 135.56 116.13 135.864 116.29 136.216C116.45 136.568 116.53 136.963 116.53 137.4C116.53 137.816 116.45 138.2 116.29 138.552C116.141 138.904 115.928 139.208 115.65 139.464C115.373 139.709 115.032 139.901 114.626 140.04C114.232 140.179 113.794 140.248 113.314 140.248C113.176 140.248 113.042 140.243 112.914 140.232C112.786 140.221 112.658 140.205 112.53 140.184C112.402 140.205 112.269 140.243 112.13 140.296C111.992 140.339 111.864 140.403 111.746 140.488C111.629 140.563 111.533 140.653 111.458 140.76C111.384 140.867 111.346 140.989 111.346 141.128C111.346 141.373 111.469 141.539 111.714 141.624C111.96 141.699 112.28 141.736 112.674 141.736H114.498C115.565 141.736 116.338 141.939 116.818 142.344C117.298 142.739 117.538 143.272 117.538 143.944ZM116.338 144.008C116.338 143.677 116.205 143.411 115.938 143.208C115.672 143.016 115.208 142.92 114.546 142.92H111.682C111.128 143.144 110.85 143.517 110.85 144.04C110.85 144.403 110.994 144.712 111.282 144.968C111.57 145.235 112.05 145.368 112.722 145.368H113.97C114.717 145.368 115.298 145.251 115.714 145.016C116.13 144.792 116.338 144.456 116.338 144.008ZM113.314 139.256C113.954 139.256 114.424 139.107 114.722 138.808C115.032 138.509 115.186 138.115 115.186 137.624V137.16C115.186 136.669 115.032 136.28 114.722 135.992C114.424 135.693 113.954 135.544 113.314 135.544C112.674 135.544 112.205 135.693 111.906 135.992C111.608 136.28 111.458 136.669 111.458 137.16V137.624C111.458 138.115 111.608 138.509 111.906 138.808C112.205 139.107 112.674 139.256 113.314 139.256Z" fill="#55575F"/>
<path d="M122.956 143.144C122.519 143.144 122.21 143.053 122.028 142.872C121.858 142.691 121.772 142.461 121.772 142.184V141.896C121.772 141.619 121.858 141.389 122.028 141.208C122.21 141.027 122.519 140.936 122.956 140.936C123.394 140.936 123.698 141.027 123.868 141.208C124.05 141.389 124.14 141.619 124.14 141.896V142.184C124.14 142.461 124.05 142.691 123.868 142.872C123.698 143.053 123.394 143.144 122.956 143.144Z" fill="#55575F"/>
<path d="M132.55 143.144C132.113 143.144 131.803 143.053 131.622 142.872C131.451 142.691 131.366 142.461 131.366 142.184V141.896C131.366 141.619 131.451 141.389 131.622 141.208C131.803 141.027 132.113 140.936 132.55 140.936C132.987 140.936 133.291 141.027 133.462 141.208C133.643 141.389 133.734 141.619 133.734 141.896V142.184C133.734 142.461 133.643 142.691 133.462 142.872C133.291 143.053 132.987 143.144 132.55 143.144Z" fill="#55575F"/>
<path d="M142.144 143.144C141.706 143.144 141.397 143.053 141.216 142.872C141.045 142.691 140.96 142.461 140.96 142.184V141.896C140.96 141.619 141.045 141.389 141.216 141.208C141.397 141.027 141.706 140.936 142.144 140.936C142.581 140.936 142.885 141.027 143.056 141.208C143.237 141.389 143.328 141.619 143.328 141.896V142.184C143.328 142.461 143.237 142.691 143.056 142.872C142.885 143.053 142.581 143.144 142.144 143.144Z" fill="#55575F"/>
<path d="M39.3281 135.337C39.0952 135.337 38.8624 135.38 38.6508 135.485L30.5238 127.351C30.6085 127.139 30.672 126.928 30.672 126.673C30.672 125.741 29.9101 125 29 125C28.0899 125 27.328 125.763 27.328 126.673C27.328 126.906 27.3704 127.139 27.4762 127.351L19.3492 135.464C19.1376 135.38 18.9259 135.316 18.672 135.316C17.7407 135.316 17 136.079 17 136.989C17 137.9 17.7619 138.663 18.672 138.663C18.9048 138.663 19.1376 138.62 19.3492 138.515L27.4762 146.649C27.3915 146.861 27.328 147.072 27.328 147.327C27.328 148.259 28.0899 149 29 149C29.9101 149 30.672 148.237 30.672 147.327C30.672 147.093 30.6296 146.861 30.5238 146.649L38.6508 138.515C38.8624 138.599 39.074 138.663 39.3281 138.663C40.2593 138.663 41 137.9 41 136.989C41 136.079 40.2593 135.337 39.3281 135.337ZM37.7618 136.417L34.6085 137.18C34.3334 136.82 33.9101 136.566 33.4232 136.566C33.0635 136.566 32.746 136.693 32.4921 136.905L30.4391 135.951C30.4391 135.93 30.4391 135.93 30.4391 135.909C30.4391 135.316 30.1005 134.829 29.5926 134.596V128.241C29.6138 128.241 29.6349 128.22 29.6561 128.22L37.783 136.354C37.783 136.354 37.7618 136.396 37.7618 136.417ZM29 145.674C28.9577 145.674 28.9153 145.674 28.873 145.674L25.6984 138.959C25.9101 138.705 26.037 138.387 26.037 138.027L28.1111 137.053C28.3651 137.244 28.6825 137.371 29 137.371C29.3386 137.371 29.6561 137.244 29.9101 137.053L31.9841 138.027C31.9841 138.027 31.9841 138.027 31.9841 138.049C31.9841 138.409 32.1111 138.726 32.3228 138.981L29.1058 145.674C29.0847 145.674 29.0423 145.674 29 145.674ZM28.3862 128.241V134.596C27.8995 134.829 27.5397 135.337 27.5397 135.909C27.5397 135.93 27.5397 135.951 27.5397 135.951L25.4868 136.905C25.2328 136.693 24.9153 136.566 24.5556 136.566C24.0688 136.566 23.6455 136.799 23.3704 137.18L20.2381 136.417C20.2381 136.396 20.2169 136.375 20.2169 136.333L28.3439 128.199C28.3439 128.22 28.3651 128.22 28.3862 128.241ZM20.2169 137.667L23.1587 138.387C23.328 139.023 23.8783 139.489 24.5767 139.489H24.5979L26.9259 144.403L20.2169 137.667ZM33.4021 139.489H33.4232C34.1005 139.489 34.672 139.023 34.8412 138.387L37.783 137.667C37.783 137.667 37.783 137.667 37.783 137.688L31.0741 144.403L33.4021 139.489Z" fill="#6F7380"/>
</svg>
