<svg width="382" height="150" viewBox="0 0 382 150" fill="none" xmlns="http://www.w3.org/2000/svg">
<rect x="1" y="1" width="380" height="68" rx="12" fill="#181A1F" stroke="#23252C"/>
<path d="M52.8 40.552C52.1173 40.552 51.5307 40.424 51.04 40.168C50.5493 39.9013 50.144 39.5227 49.824 39.032C49.504 38.5413 49.2693 37.9387 49.12 37.224C48.9707 36.5093 48.896 35.6933 48.896 34.776C48.896 33.8693 48.9707 33.0587 49.12 32.344C49.2693 31.6187 49.504 31.0107 49.824 30.52C50.144 30.0293 50.5493 29.656 51.04 29.4C51.5307 29.1333 52.1173 29 52.8 29C53.4827 29 54.0693 29.1333 54.56 29.4C55.0507 29.656 55.456 30.0293 55.776 30.52C56.096 31.0107 56.3307 31.6187 56.48 32.344C56.6293 33.0587 56.704 33.8693 56.704 34.776C56.704 35.6933 56.6293 36.5093 56.48 37.224C56.3307 37.9387 56.096 38.5413 55.776 39.032C55.456 39.5227 55.0507 39.9013 54.56 40.168C54.0693 40.424 53.4827 40.552 52.8 40.552ZM52.8 39.384C53.248 39.384 53.632 39.2987 53.952 39.128C54.272 38.9467 54.528 38.696 54.72 38.376C54.9227 38.056 55.072 37.672 55.168 37.224C55.264 36.7653 55.312 36.2533 55.312 35.688V33.864C55.312 33.3093 55.264 32.8027 55.168 32.344C55.072 31.8853 54.9227 31.496 54.72 31.176C54.528 30.856 54.272 30.6107 53.952 30.44C53.632 30.2587 53.248 30.168 52.8 30.168C52.352 30.168 51.968 30.2587 51.648 30.44C51.328 30.6107 51.0667 30.856 50.864 31.176C50.672 31.496 50.528 31.8853 50.432 32.344C50.336 32.8027 50.288 33.3093 50.288 33.864V35.688C50.288 36.2533 50.336 36.7653 50.432 37.224C50.528 37.672 50.672 38.056 50.864 38.376C51.0667 38.696 51.328 38.9467 51.648 39.128C51.968 39.2987 52.352 39.384 52.8 39.384ZM52.8 35.72C52.4267 35.72 52.1653 35.6453 52.016 35.496C51.8773 35.3467 51.808 35.1653 51.808 34.952V34.6C51.808 34.3867 51.8773 34.2053 52.016 34.056C52.1653 33.9067 52.4267 33.832 52.8 33.832C53.1733 33.832 53.4293 33.9067 53.568 34.056C53.7173 34.2053 53.792 34.3867 53.792 34.6V34.952C53.792 35.1653 53.7173 35.3467 53.568 35.496C53.4293 35.6453 53.1733 35.72 52.8 35.72Z" fill="#55575F"/>
<path d="M62.3937 40.504C61.9564 40.504 61.6471 40.4133 61.4657 40.232C61.2951 40.0507 61.2097 39.8213 61.2097 39.544V39.256C61.2097 38.9787 61.2951 38.7493 61.4657 38.568C61.6471 38.3867 61.9564 38.296 62.3937 38.296C62.8311 38.296 63.1351 38.3867 63.3057 38.568C63.4871 38.7493 63.5777 38.9787 63.5777 39.256V39.544C63.5777 39.8213 63.4871 40.0507 63.3057 40.232C63.1351 40.4133 62.8311 40.504 62.3937 40.504Z" fill="#55575F"/>
<path d="M71.9875 40.552C71.3048 40.552 70.7182 40.424 70.2275 40.168C69.7368 39.9013 69.3315 39.5227 69.0115 39.032C68.6915 38.5413 68.4568 37.9387 68.3075 37.224C68.1582 36.5093 68.0835 35.6933 68.0835 34.776C68.0835 33.8693 68.1582 33.0587 68.3075 32.344C68.4568 31.6187 68.6915 31.0107 69.0115 30.52C69.3315 30.0293 69.7368 29.656 70.2275 29.4C70.7182 29.1333 71.3048 29 71.9875 29C72.6702 29 73.2568 29.1333 73.7475 29.4C74.2382 29.656 74.6435 30.0293 74.9635 30.52C75.2835 31.0107 75.5182 31.6187 75.6675 32.344C75.8168 33.0587 75.8915 33.8693 75.8915 34.776C75.8915 35.6933 75.8168 36.5093 75.6675 37.224C75.5182 37.9387 75.2835 38.5413 74.9635 39.032C74.6435 39.5227 74.2382 39.9013 73.7475 40.168C73.2568 40.424 72.6702 40.552 71.9875 40.552ZM71.9875 39.384C72.4355 39.384 72.8195 39.2987 73.1395 39.128C73.4595 38.9467 73.7155 38.696 73.9075 38.376C74.1102 38.056 74.2595 37.672 74.3555 37.224C74.4515 36.7653 74.4995 36.2533 74.4995 35.688V33.864C74.4995 33.3093 74.4515 32.8027 74.3555 32.344C74.2595 31.8853 74.1102 31.496 73.9075 31.176C73.7155 30.856 73.4595 30.6107 73.1395 30.44C72.8195 30.2587 72.4355 30.168 71.9875 30.168C71.5395 30.168 71.1555 30.2587 70.8355 30.44C70.5155 30.6107 70.2542 30.856 70.0515 31.176C69.8595 31.496 69.7155 31.8853 69.6195 32.344C69.5235 32.8027 69.4755 33.3093 69.4755 33.864V35.688C69.4755 36.2533 69.5235 36.7653 69.6195 37.224C69.7155 37.672 69.8595 38.056 70.0515 38.376C70.2542 38.696 70.5155 38.9467 70.8355 39.128C71.1555 39.2987 71.5395 39.384 71.9875 39.384ZM71.9875 35.72C71.6142 35.72 71.3528 35.6453 71.2035 35.496C71.0648 35.3467 70.9955 35.1653 70.9955 34.952V34.6C70.9955 34.3867 71.0648 34.2053 71.2035 34.056C71.3528 33.9067 71.6142 33.832 71.9875 33.832C72.3608 33.832 72.6168 33.9067 72.7555 34.056C72.9048 34.2053 72.9795 34.3867 72.9795 34.6V34.952C72.9795 35.1653 72.9048 35.3467 72.7555 35.496C72.6168 35.6453 72.3608 35.72 71.9875 35.72Z" fill="#55575F"/>
<path d="M81.5812 40.552C80.8986 40.552 80.3119 40.424 79.8212 40.168C79.3306 39.9013 78.9252 39.5227 78.6052 39.032C78.2852 38.5413 78.0506 37.9387 77.9012 37.224C77.7519 36.5093 77.6772 35.6933 77.6772 34.776C77.6772 33.8693 77.7519 33.0587 77.9012 32.344C78.0506 31.6187 78.2852 31.0107 78.6052 30.52C78.9252 30.0293 79.3306 29.656 79.8212 29.4C80.3119 29.1333 80.8986 29 81.5812 29C82.2639 29 82.8506 29.1333 83.3412 29.4C83.8319 29.656 84.2372 30.0293 84.5572 30.52C84.8772 31.0107 85.1119 31.6187 85.2612 32.344C85.4106 33.0587 85.4852 33.8693 85.4852 34.776C85.4852 35.6933 85.4106 36.5093 85.2612 37.224C85.1119 37.9387 84.8772 38.5413 84.5572 39.032C84.2372 39.5227 83.8319 39.9013 83.3412 40.168C82.8506 40.424 82.2639 40.552 81.5812 40.552ZM81.5812 39.384C82.0292 39.384 82.4132 39.2987 82.7332 39.128C83.0532 38.9467 83.3092 38.696 83.5012 38.376C83.7039 38.056 83.8532 37.672 83.9492 37.224C84.0452 36.7653 84.0932 36.2533 84.0932 35.688V33.864C84.0932 33.3093 84.0452 32.8027 83.9492 32.344C83.8532 31.8853 83.7039 31.496 83.5012 31.176C83.3092 30.856 83.0532 30.6107 82.7332 30.44C82.4132 30.2587 82.0292 30.168 81.5812 30.168C81.1332 30.168 80.7492 30.2587 80.4292 30.44C80.1092 30.6107 79.8479 30.856 79.6452 31.176C79.4532 31.496 79.3092 31.8853 79.2132 32.344C79.1172 32.8027 79.0692 33.3093 79.0692 33.864V35.688C79.0692 36.2533 79.1172 36.7653 79.2132 37.224C79.3092 37.672 79.4532 38.056 79.6452 38.376C79.8479 38.696 80.1092 38.9467 80.4292 39.128C80.7492 39.2987 81.1332 39.384 81.5812 39.384ZM81.5812 35.72C81.2079 35.72 80.9466 35.6453 80.7972 35.496C80.6586 35.3467 80.5892 35.1653 80.5892 34.952V34.6C80.5892 34.3867 80.6586 34.2053 80.7972 34.056C80.9466 33.9067 81.2079 33.832 81.5812 33.832C81.9546 33.832 82.2106 33.9067 82.3492 34.056C82.4986 34.2053 82.5732 34.3867 82.5732 34.6V34.952C82.5732 35.1653 82.4986 35.3467 82.3492 35.496C82.2106 35.6453 81.9546 35.72 81.5812 35.72Z" fill="#55575F"/>
<path d="M93.6238 29.192V35.896C93.6238 36.44 93.6398 36.9253 93.6718 37.352C93.7038 37.7787 93.7891 38.1467 93.9278 38.456C94.0665 38.7547 94.2798 38.984 94.5678 39.144C94.8665 39.304 95.2771 39.384 95.7998 39.384C96.3225 39.384 96.7278 39.304 97.0158 39.144C97.3145 38.984 97.5331 38.7547 97.6718 38.456C97.8105 38.1467 97.8958 37.7787 97.9278 37.352C97.9598 36.9253 97.9758 36.44 97.9758 35.896V29.192H99.3198V35.576C99.3198 36.408 99.2771 37.1333 99.1918 37.752C99.1171 38.3707 98.9518 38.888 98.6958 39.304C98.4505 39.72 98.0931 40.0347 97.6238 40.248C97.1651 40.4507 96.5571 40.552 95.7998 40.552C95.0425 40.552 94.4291 40.4507 93.9598 40.248C93.5011 40.0347 93.1438 39.72 92.8878 39.304C92.6425 38.888 92.4771 38.3707 92.3918 37.752C92.3171 37.1333 92.2798 36.408 92.2798 35.576V29.192H93.6238Z" fill="#55575F"/>
<path d="M105.362 40.552C104.359 40.552 103.538 40.3707 102.898 40.008C102.258 39.6347 101.73 39.16 101.314 38.584L102.29 37.784C102.727 38.328 103.186 38.7333 103.666 39C104.156 39.2667 104.738 39.4 105.41 39.4C106.22 39.4 106.839 39.2133 107.266 38.84C107.692 38.4667 107.906 37.944 107.906 37.272C107.906 36.728 107.751 36.3067 107.442 36.008C107.132 35.6987 106.594 35.48 105.826 35.352L104.578 35.144C104.034 35.048 103.575 34.904 103.202 34.712C102.839 34.52 102.546 34.2907 102.322 34.024C102.098 33.7467 101.938 33.448 101.842 33.128C101.746 32.7973 101.698 32.456 101.698 32.104C101.698 31.08 102.034 30.3067 102.706 29.784C103.378 29.2613 104.284 29 105.426 29C106.322 29 107.074 29.1493 107.682 29.448C108.3 29.7467 108.796 30.168 109.17 30.712L108.226 31.528C107.916 31.1227 107.543 30.792 107.106 30.536C106.668 30.28 106.103 30.152 105.41 30.152C104.652 30.152 104.071 30.312 103.666 30.632C103.26 30.952 103.058 31.432 103.058 32.072C103.058 32.5733 103.207 32.984 103.506 33.304C103.815 33.6133 104.364 33.8373 105.154 33.976L106.354 34.184C106.898 34.28 107.356 34.424 107.73 34.616C108.103 34.808 108.402 35.0373 108.626 35.304C108.86 35.5707 109.026 35.8693 109.122 36.2C109.218 36.5307 109.266 36.8773 109.266 37.24C109.266 38.2747 108.924 39.0853 108.242 39.672C107.57 40.2587 106.61 40.552 105.362 40.552Z" fill="#55575F"/>
<path d="M111.707 29.192H114.827C116.193 29.192 117.211 29.6613 117.883 30.6C118.555 31.5387 118.891 32.9307 118.891 34.776C118.891 36.6213 118.555 38.0133 117.883 38.952C117.211 39.8907 116.193 40.36 114.827 40.36H111.707V29.192ZM114.763 39.192C115.659 39.192 116.331 38.8827 116.779 38.264C117.238 37.6453 117.467 36.7707 117.467 35.64V33.912C117.467 32.7813 117.238 31.9067 116.779 31.288C116.331 30.6693 115.659 30.36 114.763 30.36H113.051V39.192H114.763Z" fill="#55575F"/>
<path d="M124.949 40.552C123.584 40.552 122.565 40.056 121.893 39.064C121.232 38.072 120.901 36.6427 120.901 34.776C120.901 32.9093 121.232 31.48 121.893 30.488C122.565 29.496 123.584 29 124.949 29C125.461 29 125.904 29.0693 126.277 29.208C126.65 29.3467 126.97 29.5333 127.237 29.768C127.504 30.0027 127.728 30.2693 127.909 30.568C128.09 30.856 128.25 31.1493 128.389 31.448L127.237 31.976C127.141 31.7307 127.029 31.5013 126.901 31.288C126.773 31.064 126.618 30.872 126.437 30.712C126.266 30.5413 126.058 30.408 125.813 30.312C125.578 30.216 125.29 30.168 124.949 30.168C124.064 30.168 123.402 30.504 122.965 31.176C122.538 31.848 122.325 32.744 122.325 33.864V35.688C122.325 36.808 122.538 37.704 122.965 38.376C123.402 39.048 124.064 39.384 124.949 39.384C125.29 39.384 125.578 39.336 125.813 39.24C126.058 39.144 126.266 39.016 126.437 38.856C126.618 38.6853 126.773 38.4933 126.901 38.28C127.029 38.056 127.141 37.8213 127.237 37.576L128.389 38.104C128.25 38.4133 128.09 38.712 127.909 39C127.728 39.288 127.504 39.5493 127.237 39.784C126.97 40.0187 126.65 40.2053 126.277 40.344C125.904 40.4827 125.461 40.552 124.949 40.552Z" fill="#55575F"/>
<path d="M29 47C35.65 47 41 41.65 41 35C41 28.35 35.65 23 29 23C22.35 23 17 28.35 17 35C17 41.65 22.35 47 29 47Z" fill="#2775CA"/>
<path d="M32.3001 36.9C32.3001 35.15 31.2501 34.55 29.1501 34.3C27.6501 34.1 27.3501 33.7 27.3501 33C27.3501 32.2999 27.8501 31.85 28.8501 31.85C29.7501 31.85 30.2501 32.15 30.5001 32.9C30.5501 33.05 30.7001 33.15 30.8501 33.15H31.65C31.8501 33.15 32.0001 33 32.0001 32.8V32.75C31.8 31.65 30.9 30.8 29.7501 30.7V29.5C29.7501 29.3 29.6001 29.15 29.3501 29.1H28.6001C28.4001 29.1 28.2501 29.25 28.2 29.5V30.65C26.7 30.85 25.7501 31.85 25.7501 33.1C25.7501 34.75 26.7501 35.4 28.8501 35.65C30.2501 35.9 30.7001 36.2 30.7001 37C30.7001 37.8001 30 38.35 29.0501 38.35C27.75 38.35 27.3 37.8 27.15 37.05C27.1001 36.85 26.9501 36.75 26.8001 36.75H25.95C25.7501 36.75 25.6001 36.9 25.6001 37.1V37.15C25.8 38.4 26.6001 39.3 28.2501 39.55V40.75C28.2501 40.95 28.4001 41.1 28.65 41.15H29.4C29.6001 41.15 29.7501 41 29.8001 40.75V39.55C31.3001 39.3 32.3001 38.25 32.3001 36.9Z" fill="white"/>
<path d="M26.45 42.15C22.55 40.75 20.55 36.4 22 32.55C22.75 30.45 24.4 28.85 26.45 28.1C26.65 28 26.75 27.85 26.75 27.6V26.9C26.75 26.7 26.65 26.55 26.45 26.5C26.4 26.5 26.3 26.5 26.25 26.55C21.5 28.05 18.9 33.1 20.4 37.85C21.3 40.65 23.45 42.8 26.25 43.7C26.45 43.8 26.65 43.7 26.7 43.5C26.75 43.45 26.75 43.4 26.75 43.3V42.6C26.75 42.45 26.6 42.25 26.45 42.15ZM31.75 26.55C31.55 26.45 31.35 26.55 31.3 26.75C31.25 26.8 31.25 26.85 31.25 26.95V27.65C31.25 27.85 31.4 28.05 31.55 28.15C35.45 29.55 37.45 33.9 36 37.75C35.25 39.85 33.6 41.45 31.55 42.2C31.35 42.3 31.25 42.45 31.25 42.7V43.4C31.25 43.6 31.35 43.75 31.55 43.8C31.6 43.8 31.7 43.8 31.75 43.75C36.5 42.25 39.1 37.2 37.6 32.45C36.7 29.6 34.5 27.45 31.75 26.55Z" fill="white"/>
<rect x="172" y="17" width="193" height="36" rx="8" fill="#202229"/>
<path d="M192.892 38.976V35.688L190 30.6H191.152L192.352 32.784L193.372 34.692H193.42L194.464 32.784L195.664 30.6H196.792L193.9 35.688V38.976H192.892Z" fill="#55575F"/>
<path d="M200.591 39.12C200.159 39.12 199.767 39.044 199.415 38.892C199.071 38.74 198.775 38.524 198.527 38.244C198.287 37.956 198.103 37.616 197.975 37.224C197.847 36.824 197.783 36.376 197.783 35.88C197.783 35.392 197.847 34.948 197.975 34.548C198.103 34.148 198.287 33.808 198.527 33.528C198.775 33.24 199.071 33.02 199.415 32.868C199.767 32.716 200.159 32.64 200.591 32.64C201.023 32.64 201.411 32.716 201.755 32.868C202.107 33.02 202.403 33.24 202.643 33.528C202.891 33.808 203.079 34.148 203.207 34.548C203.335 34.948 203.399 35.392 203.399 35.88C203.399 36.376 203.335 36.824 203.207 37.224C203.079 37.616 202.891 37.956 202.643 38.244C202.403 38.524 202.107 38.74 201.755 38.892C201.411 39.044 201.023 39.12 200.591 39.12ZM200.591 38.292C201.127 38.292 201.559 38.132 201.887 37.812C202.215 37.492 202.379 36.996 202.379 36.324V35.436C202.379 34.764 202.215 34.268 201.887 33.948C201.559 33.628 201.127 33.468 200.591 33.468C200.055 33.468 199.623 33.628 199.295 33.948C198.967 34.268 198.803 34.764 198.803 35.436V36.324C198.803 36.996 198.967 37.492 199.295 37.812C199.623 38.132 200.055 38.292 200.591 38.292Z" fill="#55575F"/>
<path d="M209.251 37.968H209.203C209.139 38.12 209.059 38.268 208.963 38.412C208.867 38.548 208.747 38.668 208.603 38.772C208.467 38.876 208.303 38.96 208.111 39.024C207.919 39.088 207.695 39.12 207.439 39.12C206.791 39.12 206.271 38.916 205.879 38.508C205.487 38.092 205.291 37.508 205.291 36.756V32.784H206.251V36.588C206.251 37.156 206.375 37.58 206.623 37.86C206.871 38.132 207.235 38.268 207.715 38.268C207.907 38.268 208.095 38.244 208.279 38.196C208.463 38.148 208.627 38.076 208.771 37.98C208.915 37.884 209.031 37.764 209.119 37.62C209.207 37.468 209.251 37.288 209.251 37.08V32.784H210.211V38.976H209.251V37.968Z" fill="#55575F"/>
<path d="M219.753 30.096H220.713V33.792H220.761C220.825 33.64 220.905 33.496 221.001 33.36C221.097 33.216 221.213 33.092 221.349 32.988C221.493 32.884 221.661 32.8 221.853 32.736C222.045 32.672 222.269 32.64 222.525 32.64C223.173 32.64 223.693 32.848 224.085 33.264C224.477 33.672 224.673 34.252 224.673 35.004V38.976H223.713V35.172C223.713 34.604 223.589 34.184 223.341 33.912C223.093 33.632 222.729 33.492 222.249 33.492C222.057 33.492 221.869 33.516 221.685 33.564C221.501 33.612 221.337 33.684 221.193 33.78C221.049 33.876 220.933 34 220.845 34.152C220.757 34.304 220.713 34.48 220.713 34.68V38.976H219.753V30.096Z" fill="#55575F"/>
<path d="M231.713 38.976C231.337 38.976 231.069 38.88 230.909 38.688C230.749 38.496 230.649 38.256 230.609 37.968H230.549C230.413 38.328 230.193 38.612 229.889 38.82C229.593 39.02 229.193 39.12 228.689 39.12C228.041 39.12 227.525 38.952 227.141 38.616C226.757 38.28 226.565 37.82 226.565 37.236C226.565 36.66 226.773 36.216 227.189 35.904C227.613 35.592 228.293 35.436 229.229 35.436H230.549V34.824C230.549 34.368 230.421 34.028 230.165 33.804C229.909 33.572 229.545 33.456 229.073 33.456C228.657 33.456 228.317 33.54 228.053 33.708C227.789 33.868 227.577 34.088 227.417 34.368L226.769 33.888C226.849 33.728 226.957 33.572 227.093 33.42C227.229 33.268 227.397 33.136 227.597 33.024C227.797 32.904 228.025 32.812 228.281 32.748C228.537 32.676 228.821 32.64 229.133 32.64C229.861 32.64 230.437 32.824 230.861 33.192C231.293 33.56 231.509 34.072 231.509 34.728V38.136H232.373V38.976H231.713ZM228.857 38.316C229.105 38.316 229.329 38.288 229.529 38.232C229.737 38.168 229.917 38.088 230.069 37.992C230.221 37.888 230.337 37.768 230.417 37.632C230.505 37.488 230.549 37.336 230.549 37.176V36.156H229.229C228.653 36.156 228.233 36.236 227.969 36.396C227.705 36.556 227.573 36.788 227.573 37.092V37.344C227.573 37.664 227.685 37.908 227.909 38.076C228.141 38.236 228.457 38.316 228.857 38.316Z" fill="#55575F"/>
<path d="M235.956 38.976L233.736 32.784H234.708L235.596 35.376L236.556 38.172H236.604L237.564 35.376L238.452 32.784H239.4L237.18 38.976H235.956Z" fill="#55575F"/>
<path d="M243.871 39.12C243.423 39.12 243.019 39.044 242.659 38.892C242.307 38.74 242.003 38.524 241.747 38.244C241.499 37.956 241.307 37.616 241.171 37.224C241.035 36.824 240.967 36.38 240.967 35.892C240.967 35.396 241.035 34.948 241.171 34.548C241.315 34.148 241.511 33.808 241.759 33.528C242.007 33.24 242.303 33.02 242.647 32.868C242.999 32.716 243.387 32.64 243.811 32.64C244.227 32.64 244.603 32.716 244.939 32.868C245.283 33.02 245.575 33.232 245.815 33.504C246.055 33.768 246.239 34.084 246.367 34.452C246.495 34.82 246.559 35.224 246.559 35.664V36.12H241.975V36.408C241.975 36.68 242.019 36.932 242.107 37.164C242.195 37.396 242.319 37.596 242.479 37.764C242.647 37.932 242.847 38.064 243.079 38.16C243.319 38.248 243.583 38.292 243.871 38.292C244.287 38.292 244.647 38.196 244.951 38.004C245.255 37.812 245.487 37.548 245.647 37.212L246.355 37.692C246.171 38.108 245.863 38.452 245.431 38.724C245.007 38.988 244.487 39.12 243.871 39.12ZM243.811 33.432C243.547 33.432 243.303 33.48 243.079 33.576C242.855 33.672 242.659 33.804 242.491 33.972C242.331 34.14 242.203 34.34 242.107 34.572C242.019 34.796 241.975 35.044 241.975 35.316V35.4H245.527V35.268C245.527 34.996 245.483 34.748 245.395 34.524C245.315 34.3 245.199 34.108 245.047 33.948C244.903 33.78 244.723 33.652 244.507 33.564C244.299 33.476 244.067 33.432 243.811 33.432Z" fill="#55575F"/>
<path d="M255.73 38.976V32.784H256.69V33.792H256.738C256.802 33.64 256.882 33.496 256.978 33.36C257.074 33.216 257.19 33.092 257.326 32.988C257.47 32.884 257.638 32.8 257.83 32.736C258.022 32.672 258.246 32.64 258.502 32.64C259.15 32.64 259.67 32.848 260.062 33.264C260.454 33.672 260.65 34.252 260.65 35.004V38.976H259.69V35.172C259.69 34.604 259.566 34.184 259.318 33.912C259.07 33.632 258.706 33.492 258.226 33.492C258.034 33.492 257.846 33.516 257.662 33.564C257.478 33.612 257.314 33.684 257.17 33.78C257.026 33.876 256.91 34 256.822 34.152C256.734 34.304 256.69 34.48 256.69 34.68V38.976H255.73Z" fill="#55575F"/>
<path d="M265.349 39.12C264.917 39.12 264.525 39.044 264.173 38.892C263.829 38.74 263.533 38.524 263.285 38.244C263.045 37.956 262.861 37.616 262.733 37.224C262.605 36.824 262.541 36.376 262.541 35.88C262.541 35.392 262.605 34.948 262.733 34.548C262.861 34.148 263.045 33.808 263.285 33.528C263.533 33.24 263.829 33.02 264.173 32.868C264.525 32.716 264.917 32.64 265.349 32.64C265.781 32.64 266.169 32.716 266.513 32.868C266.865 33.02 267.161 33.24 267.401 33.528C267.649 33.808 267.837 34.148 267.965 34.548C268.093 34.948 268.157 35.392 268.157 35.88C268.157 36.376 268.093 36.824 267.965 37.224C267.837 37.616 267.649 37.956 267.401 38.244C267.161 38.524 266.865 38.74 266.513 38.892C266.169 39.044 265.781 39.12 265.349 39.12ZM265.349 38.292C265.885 38.292 266.317 38.132 266.645 37.812C266.973 37.492 267.137 36.996 267.137 36.324V35.436C267.137 34.764 266.973 34.268 266.645 33.948C266.317 33.628 265.885 33.468 265.349 33.468C264.813 33.468 264.381 33.628 264.053 33.948C263.725 34.268 263.561 34.764 263.561 35.436V36.324C263.561 36.996 263.725 37.492 264.053 37.812C264.381 38.132 264.813 38.292 265.349 38.292Z" fill="#55575F"/>
<path d="M277.064 38.16H278.876V33.6H277.064V32.784H279.836V34.344H279.896C280.024 33.856 280.264 33.476 280.616 33.204C280.976 32.924 281.432 32.784 281.984 32.784H282.848V33.744H281.684C281.132 33.744 280.684 33.904 280.34 34.224C280.004 34.544 279.836 34.964 279.836 35.484V38.16H282.236V38.976H277.064V38.16Z" fill="#55575F"/>
<path d="M287.043 39.12C286.595 39.12 286.191 39.044 285.831 38.892C285.479 38.74 285.175 38.524 284.919 38.244C284.671 37.956 284.479 37.616 284.343 37.224C284.207 36.824 284.139 36.38 284.139 35.892C284.139 35.396 284.207 34.948 284.343 34.548C284.487 34.148 284.683 33.808 284.931 33.528C285.179 33.24 285.475 33.02 285.819 32.868C286.171 32.716 286.559 32.64 286.983 32.64C287.399 32.64 287.775 32.716 288.111 32.868C288.455 33.02 288.747 33.232 288.987 33.504C289.227 33.768 289.411 34.084 289.539 34.452C289.667 34.82 289.731 35.224 289.731 35.664V36.12H285.147V36.408C285.147 36.68 285.191 36.932 285.279 37.164C285.367 37.396 285.491 37.596 285.651 37.764C285.819 37.932 286.019 38.064 286.251 38.16C286.491 38.248 286.755 38.292 287.043 38.292C287.459 38.292 287.819 38.196 288.123 38.004C288.427 37.812 288.659 37.548 288.819 37.212L289.527 37.692C289.343 38.108 289.035 38.452 288.603 38.724C288.179 38.988 287.659 39.12 287.043 39.12ZM286.983 33.432C286.719 33.432 286.475 33.48 286.251 33.576C286.027 33.672 285.831 33.804 285.663 33.972C285.503 34.14 285.375 34.34 285.279 34.572C285.191 34.796 285.147 35.044 285.147 35.316V35.4H288.699V35.268C288.699 34.996 288.655 34.748 288.567 34.524C288.487 34.3 288.371 34.108 288.219 33.948C288.075 33.78 287.895 33.652 287.679 33.564C287.471 33.476 287.239 33.432 286.983 33.432Z" fill="#55575F"/>
<path d="M295.63 37.968H295.582C295.182 38.736 294.546 39.12 293.674 39.12C292.914 39.12 292.318 38.836 291.886 38.268C291.462 37.7 291.25 36.904 291.25 35.88C291.25 34.856 291.462 34.06 291.886 33.492C292.318 32.924 292.914 32.64 293.674 32.64C294.546 32.64 295.182 33.024 295.582 33.792H295.63V30.096H296.59V38.976H295.63V37.968ZM294.046 38.268C294.262 38.268 294.466 38.24 294.658 38.184C294.85 38.128 295.018 38.048 295.162 37.944C295.306 37.832 295.418 37.7 295.498 37.548C295.586 37.388 295.63 37.204 295.63 36.996V34.764C295.63 34.556 295.586 34.376 295.498 34.224C295.418 34.064 295.306 33.932 295.162 33.828C295.018 33.716 294.85 33.632 294.658 33.576C294.466 33.52 294.262 33.492 294.046 33.492C293.486 33.492 293.05 33.664 292.738 34.008C292.434 34.344 292.282 34.792 292.282 35.352V36.408C292.282 36.968 292.434 37.42 292.738 37.764C293.05 38.1 293.486 38.268 294.046 38.268Z" fill="#55575F"/>
<path d="M301.434 39.12C300.986 39.12 300.582 39.044 300.222 38.892C299.87 38.74 299.566 38.524 299.31 38.244C299.062 37.956 298.87 37.616 298.734 37.224C298.598 36.824 298.53 36.38 298.53 35.892C298.53 35.396 298.598 34.948 298.734 34.548C298.878 34.148 299.074 33.808 299.322 33.528C299.57 33.24 299.866 33.02 300.21 32.868C300.562 32.716 300.95 32.64 301.374 32.64C301.79 32.64 302.166 32.716 302.502 32.868C302.846 33.02 303.138 33.232 303.378 33.504C303.618 33.768 303.802 34.084 303.93 34.452C304.058 34.82 304.122 35.224 304.122 35.664V36.12H299.538V36.408C299.538 36.68 299.582 36.932 299.67 37.164C299.758 37.396 299.882 37.596 300.042 37.764C300.21 37.932 300.41 38.064 300.642 38.16C300.882 38.248 301.146 38.292 301.434 38.292C301.85 38.292 302.21 38.196 302.514 38.004C302.818 37.812 303.05 37.548 303.21 37.212L303.918 37.692C303.734 38.108 303.426 38.452 302.994 38.724C302.57 38.988 302.05 39.12 301.434 39.12ZM301.374 33.432C301.11 33.432 300.866 33.48 300.642 33.576C300.418 33.672 300.222 33.804 300.054 33.972C299.894 34.14 299.766 34.34 299.67 34.572C299.582 34.796 299.538 35.044 299.538 35.316V35.4H303.09V35.268C303.09 34.996 303.046 34.748 302.958 34.524C302.878 34.3 302.762 34.108 302.61 33.948C302.466 33.78 302.286 33.652 302.07 33.564C301.862 33.476 301.63 33.432 301.374 33.432Z" fill="#55575F"/>
<path d="M305.569 38.976V32.784H306.457V33.504H306.505C306.601 33.264 306.737 33.06 306.913 32.892C307.089 32.724 307.349 32.64 307.693 32.64C308.053 32.64 308.321 32.732 308.497 32.916C308.673 33.092 308.781 33.324 308.821 33.612H308.857C308.969 33.332 309.129 33.1 309.337 32.916C309.545 32.732 309.833 32.64 310.201 32.64C310.705 32.64 311.041 32.816 311.209 33.168C311.385 33.52 311.473 34.024 311.473 34.68V38.976H310.585V34.836C310.585 34.308 310.529 33.944 310.417 33.744C310.313 33.536 310.117 33.432 309.829 33.432C309.573 33.432 309.365 33.516 309.205 33.684C309.045 33.844 308.965 34.092 308.965 34.428V38.976H308.077V34.836C308.077 34.308 308.021 33.944 307.909 33.744C307.805 33.536 307.613 33.432 307.333 33.432C307.077 33.432 306.865 33.516 306.697 33.684C306.537 33.844 306.457 34.092 306.457 34.428V38.976H305.569Z" fill="#55575F"/>
<path d="M313.256 32.784H314.216V33.792H314.264C314.664 33.024 315.3 32.64 316.172 32.64C316.932 32.64 317.524 32.924 317.948 33.492C318.38 34.06 318.596 34.856 318.596 35.88C318.596 36.904 318.38 37.7 317.948 38.268C317.524 38.836 316.932 39.12 316.172 39.12C315.3 39.12 314.664 38.736 314.264 37.968H314.216V41.376H313.256V32.784ZM315.8 38.268C316.36 38.268 316.792 38.1 317.096 37.764C317.408 37.42 317.564 36.968 317.564 36.408V35.352C317.564 34.792 317.408 34.344 317.096 34.008C316.792 33.664 316.36 33.492 315.8 33.492C315.584 33.492 315.38 33.52 315.188 33.576C314.996 33.632 314.828 33.716 314.684 33.828C314.54 33.932 314.424 34.064 314.336 34.224C314.256 34.376 314.216 34.556 314.216 34.764V36.996C314.216 37.204 314.256 37.388 314.336 37.548C314.424 37.7 314.54 37.832 314.684 37.944C314.828 38.048 314.996 38.128 315.188 38.184C315.38 38.24 315.584 38.268 315.8 38.268Z" fill="#55575F"/>
<path d="M323.212 38.976C322.74 38.976 322.392 38.844 322.168 38.58C321.952 38.316 321.844 37.976 321.844 37.56V33.6H319.78V32.784H321.316C321.524 32.784 321.668 32.744 321.748 32.664C321.836 32.576 321.88 32.428 321.88 32.22V30.6H322.804V32.784H325.624V33.6H322.804V38.16H325.624V38.976H323.212Z" fill="#55575F"/>
<path d="M330.491 31.416C330.211 31.416 330.015 31.36 329.903 31.248C329.791 31.128 329.735 30.98 329.735 30.804V30.612C329.735 30.436 329.791 30.292 329.903 30.18C330.015 30.06 330.211 30 330.491 30C330.771 30 330.967 30.06 331.079 30.18C331.191 30.292 331.247 30.436 331.247 30.612V30.804C331.247 30.98 331.191 31.128 331.079 31.248C330.967 31.36 330.771 31.416 330.491 31.416ZM327.779 38.16H330.011V33.6H327.779V32.784H330.971V38.16H333.059V38.976H327.779V38.16Z" fill="#55575F"/>
<path d="M337.302 39.12C336.87 39.12 336.478 39.044 336.126 38.892C335.782 38.74 335.486 38.524 335.238 38.244C334.998 37.956 334.814 37.616 334.686 37.224C334.558 36.824 334.494 36.376 334.494 35.88C334.494 35.392 334.558 34.948 334.686 34.548C334.814 34.148 334.998 33.808 335.238 33.528C335.486 33.24 335.782 33.02 336.126 32.868C336.478 32.716 336.87 32.64 337.302 32.64C337.734 32.64 338.122 32.716 338.466 32.868C338.818 33.02 339.114 33.24 339.354 33.528C339.602 33.808 339.79 34.148 339.918 34.548C340.046 34.948 340.11 35.392 340.11 35.88C340.11 36.376 340.046 36.824 339.918 37.224C339.79 37.616 339.602 37.956 339.354 38.244C339.114 38.524 338.818 38.74 338.466 38.892C338.122 39.044 337.734 39.12 337.302 39.12ZM337.302 38.292C337.838 38.292 338.27 38.132 338.598 37.812C338.926 37.492 339.09 36.996 339.09 36.324V35.436C339.09 34.764 338.926 34.268 338.598 33.948C338.27 33.628 337.838 33.468 337.302 33.468C336.766 33.468 336.334 33.628 336.006 33.948C335.678 34.268 335.514 34.764 335.514 35.436V36.324C335.514 36.996 335.678 37.492 336.006 37.812C336.334 38.132 336.766 38.292 337.302 38.292Z" fill="#55575F"/>
<path d="M342.074 38.976V32.784H343.034V33.792H343.082C343.146 33.64 343.226 33.496 343.322 33.36C343.418 33.216 343.534 33.092 343.67 32.988C343.814 32.884 343.982 32.8 344.174 32.736C344.366 32.672 344.59 32.64 344.846 32.64C345.494 32.64 346.014 32.848 346.406 33.264C346.798 33.672 346.994 34.252 346.994 35.004V38.976H346.034V35.172C346.034 34.604 345.91 34.184 345.662 33.912C345.414 33.632 345.05 33.492 344.57 33.492C344.378 33.492 344.19 33.516 344.006 33.564C343.822 33.612 343.658 33.684 343.514 33.78C343.37 33.876 343.254 34 343.166 34.152C343.078 34.304 343.034 34.48 343.034 34.68V38.976H342.074Z" fill="#55575F"/>
<rect x="1" y="81" width="380" height="68" rx="12" fill="#181A1F" stroke="#23252C"/>
<path d="M52.8 120.552C52.1173 120.552 51.5307 120.424 51.04 120.168C50.5493 119.901 50.144 119.523 49.824 119.032C49.504 118.541 49.2693 117.939 49.12 117.224C48.9707 116.509 48.896 115.693 48.896 114.776C48.896 113.869 48.9707 113.059 49.12 112.344C49.2693 111.619 49.504 111.011 49.824 110.52C50.144 110.029 50.5493 109.656 51.04 109.4C51.5307 109.133 52.1173 109 52.8 109C53.4827 109 54.0693 109.133 54.56 109.4C55.0507 109.656 55.456 110.029 55.776 110.52C56.096 111.011 56.3307 111.619 56.48 112.344C56.6293 113.059 56.704 113.869 56.704 114.776C56.704 115.693 56.6293 116.509 56.48 117.224C56.3307 117.939 56.096 118.541 55.776 119.032C55.456 119.523 55.0507 119.901 54.56 120.168C54.0693 120.424 53.4827 120.552 52.8 120.552ZM52.8 119.384C53.248 119.384 53.632 119.299 53.952 119.128C54.272 118.947 54.528 118.696 54.72 118.376C54.9227 118.056 55.072 117.672 55.168 117.224C55.264 116.765 55.312 116.253 55.312 115.688V113.864C55.312 113.309 55.264 112.803 55.168 112.344C55.072 111.885 54.9227 111.496 54.72 111.176C54.528 110.856 54.272 110.611 53.952 110.44C53.632 110.259 53.248 110.168 52.8 110.168C52.352 110.168 51.968 110.259 51.648 110.44C51.328 110.611 51.0667 110.856 50.864 111.176C50.672 111.496 50.528 111.885 50.432 112.344C50.336 112.803 50.288 113.309 50.288 113.864V115.688C50.288 116.253 50.336 116.765 50.432 117.224C50.528 117.672 50.672 118.056 50.864 118.376C51.0667 118.696 51.328 118.947 51.648 119.128C51.968 119.299 52.352 119.384 52.8 119.384ZM52.8 115.72C52.4267 115.72 52.1653 115.645 52.016 115.496C51.8773 115.347 51.808 115.165 51.808 114.952V114.6C51.808 114.387 51.8773 114.205 52.016 114.056C52.1653 113.907 52.4267 113.832 52.8 113.832C53.1733 113.832 53.4293 113.907 53.568 114.056C53.7173 114.205 53.792 114.387 53.792 114.6V114.952C53.792 115.165 53.7173 115.347 53.568 115.496C53.4293 115.645 53.1733 115.72 52.8 115.72Z" fill="#55575F"/>
<path d="M62.3937 120.504C61.9564 120.504 61.6471 120.413 61.4657 120.232C61.2951 120.051 61.2097 119.821 61.2097 119.544V119.256C61.2097 118.979 61.2951 118.749 61.4657 118.568C61.6471 118.387 61.9564 118.296 62.3937 118.296C62.8311 118.296 63.1351 118.387 63.3057 118.568C63.4871 118.749 63.5777 118.979 63.5777 119.256V119.544C63.5777 119.821 63.4871 120.051 63.3057 120.232C63.1351 120.413 62.8311 120.504 62.3937 120.504Z" fill="#55575F"/>
<path d="M71.9875 120.552C71.3048 120.552 70.7182 120.424 70.2275 120.168C69.7368 119.901 69.3315 119.523 69.0115 119.032C68.6915 118.541 68.4568 117.939 68.3075 117.224C68.1582 116.509 68.0835 115.693 68.0835 114.776C68.0835 113.869 68.1582 113.059 68.3075 112.344C68.4568 111.619 68.6915 111.011 69.0115 110.52C69.3315 110.029 69.7368 109.656 70.2275 109.4C70.7182 109.133 71.3048 109 71.9875 109C72.6702 109 73.2568 109.133 73.7475 109.4C74.2382 109.656 74.6435 110.029 74.9635 110.52C75.2835 111.011 75.5182 111.619 75.6675 112.344C75.8168 113.059 75.8915 113.869 75.8915 114.776C75.8915 115.693 75.8168 116.509 75.6675 117.224C75.5182 117.939 75.2835 118.541 74.9635 119.032C74.6435 119.523 74.2382 119.901 73.7475 120.168C73.2568 120.424 72.6702 120.552 71.9875 120.552ZM71.9875 119.384C72.4355 119.384 72.8195 119.299 73.1395 119.128C73.4595 118.947 73.7155 118.696 73.9075 118.376C74.1102 118.056 74.2595 117.672 74.3555 117.224C74.4515 116.765 74.4995 116.253 74.4995 115.688V113.864C74.4995 113.309 74.4515 112.803 74.3555 112.344C74.2595 111.885 74.1102 111.496 73.9075 111.176C73.7155 110.856 73.4595 110.611 73.1395 110.44C72.8195 110.259 72.4355 110.168 71.9875 110.168C71.5395 110.168 71.1555 110.259 70.8355 110.44C70.5155 110.611 70.2542 110.856 70.0515 111.176C69.8595 111.496 69.7155 111.885 69.6195 112.344C69.5235 112.803 69.4755 113.309 69.4755 113.864V115.688C69.4755 116.253 69.5235 116.765 69.6195 117.224C69.7155 117.672 69.8595 118.056 70.0515 118.376C70.2542 118.696 70.5155 118.947 70.8355 119.128C71.1555 119.299 71.5395 119.384 71.9875 119.384ZM71.9875 115.72C71.6142 115.72 71.3528 115.645 71.2035 115.496C71.0648 115.347 70.9955 115.165 70.9955 114.952V114.6C70.9955 114.387 71.0648 114.205 71.2035 114.056C71.3528 113.907 71.6142 113.832 71.9875 113.832C72.3608 113.832 72.6168 113.907 72.7555 114.056C72.9048 114.205 72.9795 114.387 72.9795 114.6V114.952C72.9795 115.165 72.9048 115.347 72.7555 115.496C72.6168 115.645 72.3608 115.72 71.9875 115.72Z" fill="#55575F"/>
<path d="M81.5812 120.552C80.8986 120.552 80.3119 120.424 79.8212 120.168C79.3306 119.901 78.9252 119.523 78.6052 119.032C78.2852 118.541 78.0506 117.939 77.9012 117.224C77.7519 116.509 77.6772 115.693 77.6772 114.776C77.6772 113.869 77.7519 113.059 77.9012 112.344C78.0506 111.619 78.2852 111.011 78.6052 110.52C78.9252 110.029 79.3306 109.656 79.8212 109.4C80.3119 109.133 80.8986 109 81.5812 109C82.2639 109 82.8506 109.133 83.3412 109.4C83.8319 109.656 84.2372 110.029 84.5572 110.52C84.8772 111.011 85.1119 111.619 85.2612 112.344C85.4106 113.059 85.4852 113.869 85.4852 114.776C85.4852 115.693 85.4106 116.509 85.2612 117.224C85.1119 117.939 84.8772 118.541 84.5572 119.032C84.2372 119.523 83.8319 119.901 83.3412 120.168C82.8506 120.424 82.2639 120.552 81.5812 120.552ZM81.5812 119.384C82.0292 119.384 82.4132 119.299 82.7332 119.128C83.0532 118.947 83.3092 118.696 83.5012 118.376C83.7039 118.056 83.8532 117.672 83.9492 117.224C84.0452 116.765 84.0932 116.253 84.0932 115.688V113.864C84.0932 113.309 84.0452 112.803 83.9492 112.344C83.8532 111.885 83.7039 111.496 83.5012 111.176C83.3092 110.856 83.0532 110.611 82.7332 110.44C82.4132 110.259 82.0292 110.168 81.5812 110.168C81.1332 110.168 80.7492 110.259 80.4292 110.44C80.1092 110.611 79.8479 110.856 79.6452 111.176C79.4532 111.496 79.3092 111.885 79.2132 112.344C79.1172 112.803 79.0692 113.309 79.0692 113.864V115.688C79.0692 116.253 79.1172 116.765 79.2132 117.224C79.3092 117.672 79.4532 118.056 79.6452 118.376C79.8479 118.696 80.1092 118.947 80.4292 119.128C80.7492 119.299 81.1332 119.384 81.5812 119.384ZM81.5812 115.72C81.2079 115.72 80.9466 115.645 80.7972 115.496C80.6586 115.347 80.5892 115.165 80.5892 114.952V114.6C80.5892 114.387 80.6586 114.205 80.7972 114.056C80.9466 113.907 81.2079 113.832 81.5812 113.832C81.9546 113.832 82.2106 113.907 82.3492 114.056C82.4986 114.205 82.5732 114.387 82.5732 114.6V114.952C82.5732 115.165 82.4986 115.347 82.3492 115.496C82.2106 115.645 81.9546 115.72 81.5812 115.72Z" fill="#55575F"/>
<path d="M93.6238 109.192V115.896C93.6238 116.44 93.6398 116.925 93.6718 117.352C93.7038 117.779 93.7891 118.147 93.9278 118.456C94.0665 118.755 94.2798 118.984 94.5678 119.144C94.8665 119.304 95.2771 119.384 95.7998 119.384C96.3225 119.384 96.7278 119.304 97.0158 119.144C97.3145 118.984 97.5331 118.755 97.6718 118.456C97.8105 118.147 97.8958 117.779 97.9278 117.352C97.9598 116.925 97.9758 116.44 97.9758 115.896V109.192H99.3198V115.576C99.3198 116.408 99.2771 117.133 99.1918 117.752C99.1171 118.371 98.9518 118.888 98.6958 119.304C98.4505 119.72 98.0931 120.035 97.6238 120.248C97.1651 120.451 96.5571 120.552 95.7998 120.552C95.0425 120.552 94.4291 120.451 93.9598 120.248C93.5011 120.035 93.1438 119.72 92.8878 119.304C92.6425 118.888 92.4771 118.371 92.3918 117.752C92.3171 117.133 92.2798 116.408 92.2798 115.576V109.192H93.6238Z" fill="#55575F"/>
<path d="M105.362 120.552C104.359 120.552 103.538 120.371 102.898 120.008C102.258 119.635 101.73 119.16 101.314 118.584L102.29 117.784C102.727 118.328 103.186 118.733 103.666 119C104.156 119.267 104.738 119.4 105.41 119.4C106.22 119.4 106.839 119.213 107.266 118.84C107.692 118.467 107.906 117.944 107.906 117.272C107.906 116.728 107.751 116.307 107.442 116.008C107.132 115.699 106.594 115.48 105.826 115.352L104.578 115.144C104.034 115.048 103.575 114.904 103.202 114.712C102.839 114.52 102.546 114.291 102.322 114.024C102.098 113.747 101.938 113.448 101.842 113.128C101.746 112.797 101.698 112.456 101.698 112.104C101.698 111.08 102.034 110.307 102.706 109.784C103.378 109.261 104.284 109 105.426 109C106.322 109 107.074 109.149 107.682 109.448C108.3 109.747 108.796 110.168 109.17 110.712L108.226 111.528C107.916 111.123 107.543 110.792 107.106 110.536C106.668 110.28 106.103 110.152 105.41 110.152C104.652 110.152 104.071 110.312 103.666 110.632C103.26 110.952 103.058 111.432 103.058 112.072C103.058 112.573 103.207 112.984 103.506 113.304C103.815 113.613 104.364 113.837 105.154 113.976L106.354 114.184C106.898 114.28 107.356 114.424 107.73 114.616C108.103 114.808 108.402 115.037 108.626 115.304C108.86 115.571 109.026 115.869 109.122 116.2C109.218 116.531 109.266 116.877 109.266 117.24C109.266 118.275 108.924 119.085 108.242 119.672C107.57 120.259 106.61 120.552 105.362 120.552Z" fill="#55575F"/>
<path d="M111.707 109.192H114.827C116.193 109.192 117.211 109.661 117.883 110.6C118.555 111.539 118.891 112.931 118.891 114.776C118.891 116.621 118.555 118.013 117.883 118.952C117.211 119.891 116.193 120.36 114.827 120.36H111.707V109.192ZM114.763 119.192C115.659 119.192 116.331 118.883 116.779 118.264C117.238 117.645 117.467 116.771 117.467 115.64V113.912C117.467 112.781 117.238 111.907 116.779 111.288C116.331 110.669 115.659 110.36 114.763 110.36H113.051V119.192H114.763Z" fill="#55575F"/>
<path d="M124.949 120.552C123.584 120.552 122.565 120.056 121.893 119.064C121.232 118.072 120.901 116.643 120.901 114.776C120.901 112.909 121.232 111.48 121.893 110.488C122.565 109.496 123.584 109 124.949 109C125.461 109 125.904 109.069 126.277 109.208C126.65 109.347 126.97 109.533 127.237 109.768C127.504 110.003 127.728 110.269 127.909 110.568C128.09 110.856 128.25 111.149 128.389 111.448L127.237 111.976C127.141 111.731 127.029 111.501 126.901 111.288C126.773 111.064 126.618 110.872 126.437 110.712C126.266 110.541 126.058 110.408 125.813 110.312C125.578 110.216 125.29 110.168 124.949 110.168C124.064 110.168 123.402 110.504 122.965 111.176C122.538 111.848 122.325 112.744 122.325 113.864V115.688C122.325 116.808 122.538 117.704 122.965 118.376C123.402 119.048 124.064 119.384 124.949 119.384C125.29 119.384 125.578 119.336 125.813 119.24C126.058 119.144 126.266 119.016 126.437 118.856C126.618 118.685 126.773 118.493 126.901 118.28C127.029 118.056 127.141 117.821 127.237 117.576L128.389 118.104C128.25 118.413 128.09 118.712 127.909 119C127.728 119.288 127.504 119.549 127.237 119.784C126.97 120.019 126.65 120.205 126.277 120.344C125.904 120.483 125.461 120.552 124.949 120.552Z" fill="#55575F"/>
<path d="M39.3281 113.337C39.0952 113.337 38.8624 113.38 38.6508 113.485L30.5238 105.351C30.6085 105.139 30.672 104.928 30.672 104.673C30.672 103.741 29.9101 103 29 103C28.0899 103 27.328 103.763 27.328 104.673C27.328 104.906 27.3704 105.139 27.4762 105.351L19.3492 113.464C19.1376 113.38 18.9259 113.316 18.672 113.316C17.7407 113.316 17 114.079 17 114.989C17 115.9 17.7619 116.663 18.672 116.663C18.9048 116.663 19.1376 116.62 19.3492 116.515L27.4762 124.649C27.3915 124.861 27.328 125.072 27.328 125.327C27.328 126.259 28.0899 127 29 127C29.9101 127 30.672 126.237 30.672 125.327C30.672 125.093 30.6296 124.861 30.5238 124.649L38.6508 116.515C38.8624 116.599 39.074 116.663 39.3281 116.663C40.2593 116.663 41 115.9 41 114.989C41 114.079 40.2593 113.337 39.3281 113.337ZM37.7618 114.417L34.6085 115.18C34.3334 114.82 33.9101 114.566 33.4232 114.566C33.0635 114.566 32.746 114.693 32.4921 114.905L30.4391 113.951C30.4391 113.93 30.4391 113.93 30.4391 113.909C30.4391 113.316 30.1005 112.829 29.5926 112.596V106.241C29.6138 106.241 29.6349 106.22 29.6561 106.22L37.783 114.354C37.783 114.354 37.7618 114.396 37.7618 114.417ZM29 123.674C28.9577 123.674 28.9153 123.674 28.873 123.674L25.6984 116.959C25.9101 116.705 26.037 116.387 26.037 116.027L28.1111 115.053C28.3651 115.244 28.6825 115.371 29 115.371C29.3386 115.371 29.6561 115.244 29.9101 115.053L31.9841 116.027C31.9841 116.027 31.9841 116.027 31.9841 116.049C31.9841 116.409 32.1111 116.726 32.3228 116.981L29.1058 123.674C29.0847 123.674 29.0423 123.674 29 123.674ZM28.3862 106.241V112.596C27.8995 112.829 27.5397 113.337 27.5397 113.909C27.5397 113.93 27.5397 113.951 27.5397 113.951L25.4868 114.905C25.2328 114.693 24.9153 114.566 24.5556 114.566C24.0688 114.566 23.6455 114.799 23.3704 115.18L20.2381 114.417C20.2381 114.396 20.2169 114.375 20.2169 114.333L28.3439 106.199C28.3439 106.22 28.3651 106.22 28.3862 106.241ZM20.2169 115.667L23.1587 116.387C23.328 117.023 23.8783 117.489 24.5767 117.489H24.5979L26.9259 122.403L20.2169 115.667ZM33.4021 117.489H33.4232C34.1005 117.489 34.672 117.023 34.8412 116.387L37.783 115.667C37.783 115.667 37.783 115.667 37.783 115.688L31.0741 122.403L33.4021 117.489Z" fill="url(#paint0_linear_1636_7897)"/>
<rect x="172" y="97" width="193" height="36" rx="8" fill="#202229"/>
<path d="M192.892 118.976V115.688L190 110.6H191.152L192.352 112.784L193.372 114.692H193.42L194.464 112.784L195.664 110.6H196.792L193.9 115.688V118.976H192.892Z" fill="#55575F"/>
<path d="M200.591 119.12C200.159 119.12 199.767 119.044 199.415 118.892C199.071 118.74 198.775 118.524 198.527 118.244C198.287 117.956 198.103 117.616 197.975 117.224C197.847 116.824 197.783 116.376 197.783 115.88C197.783 115.392 197.847 114.948 197.975 114.548C198.103 114.148 198.287 113.808 198.527 113.528C198.775 113.24 199.071 113.02 199.415 112.868C199.767 112.716 200.159 112.64 200.591 112.64C201.023 112.64 201.411 112.716 201.755 112.868C202.107 113.02 202.403 113.24 202.643 113.528C202.891 113.808 203.079 114.148 203.207 114.548C203.335 114.948 203.399 115.392 203.399 115.88C203.399 116.376 203.335 116.824 203.207 117.224C203.079 117.616 202.891 117.956 202.643 118.244C202.403 118.524 202.107 118.74 201.755 118.892C201.411 119.044 201.023 119.12 200.591 119.12ZM200.591 118.292C201.127 118.292 201.559 118.132 201.887 117.812C202.215 117.492 202.379 116.996 202.379 116.324V115.436C202.379 114.764 202.215 114.268 201.887 113.948C201.559 113.628 201.127 113.468 200.591 113.468C200.055 113.468 199.623 113.628 199.295 113.948C198.967 114.268 198.803 114.764 198.803 115.436V116.324C198.803 116.996 198.967 117.492 199.295 117.812C199.623 118.132 200.055 118.292 200.591 118.292Z" fill="#55575F"/>
<path d="M209.251 117.968H209.203C209.139 118.12 209.059 118.268 208.963 118.412C208.867 118.548 208.747 118.668 208.603 118.772C208.467 118.876 208.303 118.96 208.111 119.024C207.919 119.088 207.695 119.12 207.439 119.12C206.791 119.12 206.271 118.916 205.879 118.508C205.487 118.092 205.291 117.508 205.291 116.756V112.784H206.251V116.588C206.251 117.156 206.375 117.58 206.623 117.86C206.871 118.132 207.235 118.268 207.715 118.268C207.907 118.268 208.095 118.244 208.279 118.196C208.463 118.148 208.627 118.076 208.771 117.98C208.915 117.884 209.031 117.764 209.119 117.62C209.207 117.468 209.251 117.288 209.251 117.08V112.784H210.211V118.976H209.251V117.968Z" fill="#55575F"/>
<path d="M219.753 110.096H220.713V113.792H220.761C220.825 113.64 220.905 113.496 221.001 113.36C221.097 113.216 221.213 113.092 221.349 112.988C221.493 112.884 221.661 112.8 221.853 112.736C222.045 112.672 222.269 112.64 222.525 112.64C223.173 112.64 223.693 112.848 224.085 113.264C224.477 113.672 224.673 114.252 224.673 115.004V118.976H223.713V115.172C223.713 114.604 223.589 114.184 223.341 113.912C223.093 113.632 222.729 113.492 222.249 113.492C222.057 113.492 221.869 113.516 221.685 113.564C221.501 113.612 221.337 113.684 221.193 113.78C221.049 113.876 220.933 114 220.845 114.152C220.757 114.304 220.713 114.48 220.713 114.68V118.976H219.753V110.096Z" fill="#55575F"/>
<path d="M231.713 118.976C231.337 118.976 231.069 118.88 230.909 118.688C230.749 118.496 230.649 118.256 230.609 117.968H230.549C230.413 118.328 230.193 118.612 229.889 118.82C229.593 119.02 229.193 119.12 228.689 119.12C228.041 119.12 227.525 118.952 227.141 118.616C226.757 118.28 226.565 117.82 226.565 117.236C226.565 116.66 226.773 116.216 227.189 115.904C227.613 115.592 228.293 115.436 229.229 115.436H230.549V114.824C230.549 114.368 230.421 114.028 230.165 113.804C229.909 113.572 229.545 113.456 229.073 113.456C228.657 113.456 228.317 113.54 228.053 113.708C227.789 113.868 227.577 114.088 227.417 114.368L226.769 113.888C226.849 113.728 226.957 113.572 227.093 113.42C227.229 113.268 227.397 113.136 227.597 113.024C227.797 112.904 228.025 112.812 228.281 112.748C228.537 112.676 228.821 112.64 229.133 112.64C229.861 112.64 230.437 112.824 230.861 113.192C231.293 113.56 231.509 114.072 231.509 114.728V118.136H232.373V118.976H231.713ZM228.857 118.316C229.105 118.316 229.329 118.288 229.529 118.232C229.737 118.168 229.917 118.088 230.069 117.992C230.221 117.888 230.337 117.768 230.417 117.632C230.505 117.488 230.549 117.336 230.549 117.176V116.156H229.229C228.653 116.156 228.233 116.236 227.969 116.396C227.705 116.556 227.573 116.788 227.573 117.092V117.344C227.573 117.664 227.685 117.908 227.909 118.076C228.141 118.236 228.457 118.316 228.857 118.316Z" fill="#55575F"/>
<path d="M235.956 118.976L233.736 112.784H234.708L235.596 115.376L236.556 118.172H236.604L237.564 115.376L238.452 112.784H239.4L237.18 118.976H235.956Z" fill="#55575F"/>
<path d="M243.871 119.12C243.423 119.12 243.019 119.044 242.659 118.892C242.307 118.74 242.003 118.524 241.747 118.244C241.499 117.956 241.307 117.616 241.171 117.224C241.035 116.824 240.967 116.38 240.967 115.892C240.967 115.396 241.035 114.948 241.171 114.548C241.315 114.148 241.511 113.808 241.759 113.528C242.007 113.24 242.303 113.02 242.647 112.868C242.999 112.716 243.387 112.64 243.811 112.64C244.227 112.64 244.603 112.716 244.939 112.868C245.283 113.02 245.575 113.232 245.815 113.504C246.055 113.768 246.239 114.084 246.367 114.452C246.495 114.82 246.559 115.224 246.559 115.664V116.12H241.975V116.408C241.975 116.68 242.019 116.932 242.107 117.164C242.195 117.396 242.319 117.596 242.479 117.764C242.647 117.932 242.847 118.064 243.079 118.16C243.319 118.248 243.583 118.292 243.871 118.292C244.287 118.292 244.647 118.196 244.951 118.004C245.255 117.812 245.487 117.548 245.647 117.212L246.355 117.692C246.171 118.108 245.863 118.452 245.431 118.724C245.007 118.988 244.487 119.12 243.871 119.12ZM243.811 113.432C243.547 113.432 243.303 113.48 243.079 113.576C242.855 113.672 242.659 113.804 242.491 113.972C242.331 114.14 242.203 114.34 242.107 114.572C242.019 114.796 241.975 115.044 241.975 115.316V115.4H245.527V115.268C245.527 114.996 245.483 114.748 245.395 114.524C245.315 114.3 245.199 114.108 245.047 113.948C244.903 113.78 244.723 113.652 244.507 113.564C244.299 113.476 244.067 113.432 243.811 113.432Z" fill="#55575F"/>
<path d="M255.73 118.976V112.784H256.69V113.792H256.738C256.802 113.64 256.882 113.496 256.978 113.36C257.074 113.216 257.19 113.092 257.326 112.988C257.47 112.884 257.638 112.8 257.83 112.736C258.022 112.672 258.246 112.64 258.502 112.64C259.15 112.64 259.67 112.848 260.062 113.264C260.454 113.672 260.65 114.252 260.65 115.004V118.976H259.69V115.172C259.69 114.604 259.566 114.184 259.318 113.912C259.07 113.632 258.706 113.492 258.226 113.492C258.034 113.492 257.846 113.516 257.662 113.564C257.478 113.612 257.314 113.684 257.17 113.78C257.026 113.876 256.91 114 256.822 114.152C256.734 114.304 256.69 114.48 256.69 114.68V118.976H255.73Z" fill="#55575F"/>
<path d="M265.349 119.12C264.917 119.12 264.525 119.044 264.173 118.892C263.829 118.74 263.533 118.524 263.285 118.244C263.045 117.956 262.861 117.616 262.733 117.224C262.605 116.824 262.541 116.376 262.541 115.88C262.541 115.392 262.605 114.948 262.733 114.548C262.861 114.148 263.045 113.808 263.285 113.528C263.533 113.24 263.829 113.02 264.173 112.868C264.525 112.716 264.917 112.64 265.349 112.64C265.781 112.64 266.169 112.716 266.513 112.868C266.865 113.02 267.161 113.24 267.401 113.528C267.649 113.808 267.837 114.148 267.965 114.548C268.093 114.948 268.157 115.392 268.157 115.88C268.157 116.376 268.093 116.824 267.965 117.224C267.837 117.616 267.649 117.956 267.401 118.244C267.161 118.524 266.865 118.74 266.513 118.892C266.169 119.044 265.781 119.12 265.349 119.12ZM265.349 118.292C265.885 118.292 266.317 118.132 266.645 117.812C266.973 117.492 267.137 116.996 267.137 116.324V115.436C267.137 114.764 266.973 114.268 266.645 113.948C266.317 113.628 265.885 113.468 265.349 113.468C264.813 113.468 264.381 113.628 264.053 113.948C263.725 114.268 263.561 114.764 263.561 115.436V116.324C263.561 116.996 263.725 117.492 264.053 117.812C264.381 118.132 264.813 118.292 265.349 118.292Z" fill="#55575F"/>
<path d="M277.064 118.16H278.876V113.6H277.064V112.784H279.836V114.344H279.896C280.024 113.856 280.264 113.476 280.616 113.204C280.976 112.924 281.432 112.784 281.984 112.784H282.848V113.744H281.684C281.132 113.744 280.684 113.904 280.34 114.224C280.004 114.544 279.836 114.964 279.836 115.484V118.16H282.236V118.976H277.064V118.16Z" fill="#55575F"/>
<path d="M287.043 119.12C286.595 119.12 286.191 119.044 285.831 118.892C285.479 118.74 285.175 118.524 284.919 118.244C284.671 117.956 284.479 117.616 284.343 117.224C284.207 116.824 284.139 116.38 284.139 115.892C284.139 115.396 284.207 114.948 284.343 114.548C284.487 114.148 284.683 113.808 284.931 113.528C285.179 113.24 285.475 113.02 285.819 112.868C286.171 112.716 286.559 112.64 286.983 112.64C287.399 112.64 287.775 112.716 288.111 112.868C288.455 113.02 288.747 113.232 288.987 113.504C289.227 113.768 289.411 114.084 289.539 114.452C289.667 114.82 289.731 115.224 289.731 115.664V116.12H285.147V116.408C285.147 116.68 285.191 116.932 285.279 117.164C285.367 117.396 285.491 117.596 285.651 117.764C285.819 117.932 286.019 118.064 286.251 118.16C286.491 118.248 286.755 118.292 287.043 118.292C287.459 118.292 287.819 118.196 288.123 118.004C288.427 117.812 288.659 117.548 288.819 117.212L289.527 117.692C289.343 118.108 289.035 118.452 288.603 118.724C288.179 118.988 287.659 119.12 287.043 119.12ZM286.983 113.432C286.719 113.432 286.475 113.48 286.251 113.576C286.027 113.672 285.831 113.804 285.663 113.972C285.503 114.14 285.375 114.34 285.279 114.572C285.191 114.796 285.147 115.044 285.147 115.316V115.4H288.699V115.268C288.699 114.996 288.655 114.748 288.567 114.524C288.487 114.3 288.371 114.108 288.219 113.948C288.075 113.78 287.895 113.652 287.679 113.564C287.471 113.476 287.239 113.432 286.983 113.432Z" fill="#55575F"/>
<path d="M295.63 117.968H295.582C295.182 118.736 294.546 119.12 293.674 119.12C292.914 119.12 292.318 118.836 291.886 118.268C291.462 117.7 291.25 116.904 291.25 115.88C291.25 114.856 291.462 114.06 291.886 113.492C292.318 112.924 292.914 112.64 293.674 112.64C294.546 112.64 295.182 113.024 295.582 113.792H295.63V110.096H296.59V118.976H295.63V117.968ZM294.046 118.268C294.262 118.268 294.466 118.24 294.658 118.184C294.85 118.128 295.018 118.048 295.162 117.944C295.306 117.832 295.418 117.7 295.498 117.548C295.586 117.388 295.63 117.204 295.63 116.996V114.764C295.63 114.556 295.586 114.376 295.498 114.224C295.418 114.064 295.306 113.932 295.162 113.828C295.018 113.716 294.85 113.632 294.658 113.576C294.466 113.52 294.262 113.492 294.046 113.492C293.486 113.492 293.05 113.664 292.738 114.008C292.434 114.344 292.282 114.792 292.282 115.352V116.408C292.282 116.968 292.434 117.42 292.738 117.764C293.05 118.1 293.486 118.268 294.046 118.268Z" fill="#55575F"/>
<path d="M301.434 119.12C300.986 119.12 300.582 119.044 300.222 118.892C299.87 118.74 299.566 118.524 299.31 118.244C299.062 117.956 298.87 117.616 298.734 117.224C298.598 116.824 298.53 116.38 298.53 115.892C298.53 115.396 298.598 114.948 298.734 114.548C298.878 114.148 299.074 113.808 299.322 113.528C299.57 113.24 299.866 113.02 300.21 112.868C300.562 112.716 300.95 112.64 301.374 112.64C301.79 112.64 302.166 112.716 302.502 112.868C302.846 113.02 303.138 113.232 303.378 113.504C303.618 113.768 303.802 114.084 303.93 114.452C304.058 114.82 304.122 115.224 304.122 115.664V116.12H299.538V116.408C299.538 116.68 299.582 116.932 299.67 117.164C299.758 117.396 299.882 117.596 300.042 117.764C300.21 117.932 300.41 118.064 300.642 118.16C300.882 118.248 301.146 118.292 301.434 118.292C301.85 118.292 302.21 118.196 302.514 118.004C302.818 117.812 303.05 117.548 303.21 117.212L303.918 117.692C303.734 118.108 303.426 118.452 302.994 118.724C302.57 118.988 302.05 119.12 301.434 119.12ZM301.374 113.432C301.11 113.432 300.866 113.48 300.642 113.576C300.418 113.672 300.222 113.804 300.054 113.972C299.894 114.14 299.766 114.34 299.67 114.572C299.582 114.796 299.538 115.044 299.538 115.316V115.4H303.09V115.268C303.09 114.996 303.046 114.748 302.958 114.524C302.878 114.3 302.762 114.108 302.61 113.948C302.466 113.78 302.286 113.652 302.07 113.564C301.862 113.476 301.63 113.432 301.374 113.432Z" fill="#55575F"/>
<path d="M305.569 118.976V112.784H306.457V113.504H306.505C306.601 113.264 306.737 113.06 306.913 112.892C307.089 112.724 307.349 112.64 307.693 112.64C308.053 112.64 308.321 112.732 308.497 112.916C308.673 113.092 308.781 113.324 308.821 113.612H308.857C308.969 113.332 309.129 113.1 309.337 112.916C309.545 112.732 309.833 112.64 310.201 112.64C310.705 112.64 311.041 112.816 311.209 113.168C311.385 113.52 311.473 114.024 311.473 114.68V118.976H310.585V114.836C310.585 114.308 310.529 113.944 310.417 113.744C310.313 113.536 310.117 113.432 309.829 113.432C309.573 113.432 309.365 113.516 309.205 113.684C309.045 113.844 308.965 114.092 308.965 114.428V118.976H308.077V114.836C308.077 114.308 308.021 113.944 307.909 113.744C307.805 113.536 307.613 113.432 307.333 113.432C307.077 113.432 306.865 113.516 306.697 113.684C306.537 113.844 306.457 114.092 306.457 114.428V118.976H305.569Z" fill="#55575F"/>
<path d="M313.256 112.784H314.216V113.792H314.264C314.664 113.024 315.3 112.64 316.172 112.64C316.932 112.64 317.524 112.924 317.948 113.492C318.38 114.06 318.596 114.856 318.596 115.88C318.596 116.904 318.38 117.7 317.948 118.268C317.524 118.836 316.932 119.12 316.172 119.12C315.3 119.12 314.664 118.736 314.264 117.968H314.216V121.376H313.256V112.784ZM315.8 118.268C316.36 118.268 316.792 118.1 317.096 117.764C317.408 117.42 317.564 116.968 317.564 116.408V115.352C317.564 114.792 317.408 114.344 317.096 114.008C316.792 113.664 316.36 113.492 315.8 113.492C315.584 113.492 315.38 113.52 315.188 113.576C314.996 113.632 314.828 113.716 314.684 113.828C314.54 113.932 314.424 114.064 314.336 114.224C314.256 114.376 314.216 114.556 314.216 114.764V116.996C314.216 117.204 314.256 117.388 314.336 117.548C314.424 117.7 314.54 117.832 314.684 117.944C314.828 118.048 314.996 118.128 315.188 118.184C315.38 118.24 315.584 118.268 315.8 118.268Z" fill="#55575F"/>
<path d="M323.212 118.976C322.74 118.976 322.392 118.844 322.168 118.58C321.952 118.316 321.844 117.976 321.844 117.56V113.6H319.78V112.784H321.316C321.524 112.784 321.668 112.744 321.748 112.664C321.836 112.576 321.88 112.428 321.88 112.22V110.6H322.804V112.784H325.624V113.6H322.804V118.16H325.624V118.976H323.212Z" fill="#55575F"/>
<path d="M330.491 111.416C330.211 111.416 330.015 111.36 329.903 111.248C329.791 111.128 329.735 110.98 329.735 110.804V110.612C329.735 110.436 329.791 110.292 329.903 110.18C330.015 110.06 330.211 110 330.491 110C330.771 110 330.967 110.06 331.079 110.18C331.191 110.292 331.247 110.436 331.247 110.612V110.804C331.247 110.98 331.191 111.128 331.079 111.248C330.967 111.36 330.771 111.416 330.491 111.416ZM327.779 118.16H330.011V113.6H327.779V112.784H330.971V118.16H333.059V118.976H327.779V118.16Z" fill="#55575F"/>
<path d="M337.302 119.12C336.87 119.12 336.478 119.044 336.126 118.892C335.782 118.74 335.486 118.524 335.238 118.244C334.998 117.956 334.814 117.616 334.686 117.224C334.558 116.824 334.494 116.376 334.494 115.88C334.494 115.392 334.558 114.948 334.686 114.548C334.814 114.148 334.998 113.808 335.238 113.528C335.486 113.24 335.782 113.02 336.126 112.868C336.478 112.716 336.87 112.64 337.302 112.64C337.734 112.64 338.122 112.716 338.466 112.868C338.818 113.02 339.114 113.24 339.354 113.528C339.602 113.808 339.79 114.148 339.918 114.548C340.046 114.948 340.11 115.392 340.11 115.88C340.11 116.376 340.046 116.824 339.918 117.224C339.79 117.616 339.602 117.956 339.354 118.244C339.114 118.524 338.818 118.74 338.466 118.892C338.122 119.044 337.734 119.12 337.302 119.12ZM337.302 118.292C337.838 118.292 338.27 118.132 338.598 117.812C338.926 117.492 339.09 116.996 339.09 116.324V115.436C339.09 114.764 338.926 114.268 338.598 113.948C338.27 113.628 337.838 113.468 337.302 113.468C336.766 113.468 336.334 113.628 336.006 113.948C335.678 114.268 335.514 114.764 335.514 115.436V116.324C335.514 116.996 335.678 117.492 336.006 117.812C336.334 118.132 336.766 118.292 337.302 118.292Z" fill="#55575F"/>
<path d="M342.074 118.976V112.784H343.034V113.792H343.082C343.146 113.64 343.226 113.496 343.322 113.36C343.418 113.216 343.534 113.092 343.67 112.988C343.814 112.884 343.982 112.8 344.174 112.736C344.366 112.672 344.59 112.64 344.846 112.64C345.494 112.64 346.014 112.848 346.406 113.264C346.798 113.672 346.994 114.252 346.994 115.004V118.976H346.034V115.172C346.034 114.604 345.91 114.184 345.662 113.912C345.414 113.632 345.05 113.492 344.57 113.492C344.378 113.492 344.19 113.516 344.006 113.564C343.822 113.612 343.658 113.684 343.514 113.78C343.37 113.876 343.254 114 343.166 114.152C343.078 114.304 343.034 114.48 343.034 114.68V118.976H342.074Z" fill="#55575F"/>
<defs>
<linearGradient id="paint0_linear_1636_7897" x1="17" y1="115.009" x2="40.997" y2="115.009" gradientUnits="userSpaceOnUse">
<stop stop-color="#0BADF4"/>
<stop offset="0.9341" stop-color="#30EFE4"/>
</linearGradient>
</defs>
</svg>
