<svg width="524" height="60" viewBox="0 0 524 60" fill="none" xmlns="http://www.w3.org/2000/svg">
<mask id="mask0_366_1598" style="mask-type:alpha" maskUnits="userSpaceOnUse" x="0" y="0" width="524" height="60">
<path d="M0 12C0 5.37258 5.37258 0 12 0H512C518.627 0 524 5.37258 524 12V60H0V12Z" fill="#101116"/>
</mask>
<g mask="url(#mask0_366_1598)">
<path opacity="0.9" fill-rule="evenodd" clip-rule="evenodd" d="M421.514 22.5934H437.74C435.37 31.2742 435.342 40.4274 437.66 49.1223H421.514V62.9876H443.697C448.229 70.2505 454.522 76.2595 461.997 80.4571C469.636 84.7467 478.252 87 487.016 87C495.78 87 504.396 84.7467 512.035 80.4571C519.51 76.2595 525.803 70.2505 530.335 62.9876H552.514V49.1223H536.368C538.684 40.4273 538.658 31.2749 536.292 22.5934H552.514V8.7281H530.154C525.604 1.54258 519.325 -4.39485 511.885 -8.54012C504.283 -12.7762 495.722 -15 487.016 -15C478.31 -15 469.749 -12.7762 462.147 -8.54012C454.707 -4.39485 448.428 1.54258 443.878 8.7281H421.514V22.5934ZM444.432 9.7281C448.914 2.47463 455.18 -3.5134 462.633 -7.66657C470.087 -11.8197 478.481 -14 487.016 -14C495.552 -14 503.945 -11.8197 511.399 -7.66657C518.852 -3.5134 525.118 2.47463 529.6 9.7281H551.514V21.5934H534.965C535.065 21.926 535.162 22.2593 535.255 22.5934C537.669 31.2682 537.696 40.4335 535.332 49.1223C535.242 49.4564 535.147 49.7897 535.049 50.1223H551.514V61.9876H529.777C525.313 69.3191 519.035 75.3795 511.545 79.5852C504.056 83.7908 495.608 86 487.016 86C478.424 86 469.976 83.7908 462.487 79.5852C454.997 75.3795 448.719 69.3191 444.255 61.9876H422.514V50.1223H438.979C438.881 49.7897 438.786 49.4564 438.695 49.1223C436.33 40.4335 436.358 31.2675 438.777 22.5934C438.87 22.2593 438.967 21.926 439.067 21.5934H422.514V9.7281H444.432ZM487.011 68.1934C493.383 68.1907 499.611 66.3026 504.91 62.7676C510.212 59.23 514.344 54.2021 516.784 48.3198C519.224 42.4376 519.862 35.965 518.619 29.7205C517.375 23.476 514.304 17.7399 509.795 13.2376C505.286 8.73525 499.542 5.66895 493.287 4.42668C487.033 3.18441 480.55 3.822 474.659 6.25877C468.767 8.69553 463.732 12.8219 460.189 18.116C456.647 23.41 454.756 29.6339 454.756 36.0007C454.766 44.538 458.168 52.7228 464.216 58.7586C470.263 64.7936 478.461 68.1869 487.011 68.1934ZM453.756 36.0007C453.756 29.4358 455.706 23.0184 459.358 17.5599C463.011 12.1014 468.202 7.84697 474.276 5.33469C480.35 2.82242 487.034 2.1651 493.482 3.44584C499.93 4.72659 505.853 7.88788 510.502 12.53C515.151 17.172 518.317 23.0864 519.599 29.5252C520.882 35.9639 520.224 42.6378 517.708 48.703C515.192 54.7682 510.931 59.9521 505.465 63.5994C500.003 67.2435 493.583 69.19 487.014 69.1934C487.014 69.1934 487.014 69.1934 487.014 69.1934C487.013 69.1934 487.011 69.1934 487.01 69.1934C487.006 69.1934 487.001 69.1934 486.997 69.1934C478.187 69.1834 469.741 65.6855 463.509 59.4664C457.274 53.2432 453.766 44.8038 453.756 36.0007ZM487.015 23.5597L487.014 23.5597L486.997 23.5597C484.534 23.5597 482.125 24.2892 480.077 25.6561C478.028 27.0229 476.431 28.9658 475.488 31.2393C474.545 33.5128 474.298 36.0145 474.779 38.4281C475.26 40.8417 476.446 43.0585 478.189 44.7983C479.931 46.5381 482.151 47.7228 484.567 48.2027C486.983 48.6826 489.488 48.4363 491.764 47.4949C494.04 46.5534 495.986 44.959 497.355 42.9131C498.724 40.8672 499.455 38.4616 499.455 36.0007C499.455 32.7039 498.144 29.5421 495.812 27.2096C493.479 24.8771 490.316 23.5646 487.015 23.5597ZM487.014 24.5597H486.997C484.731 24.5597 482.516 25.2307 480.632 26.4879C478.747 27.745 477.279 29.5319 476.412 31.6225C475.544 33.713 475.318 36.0134 475.76 38.2327C476.202 40.4521 477.293 42.4907 478.895 44.0907C480.498 45.6907 482.539 46.7804 484.762 47.2218C486.984 47.6633 489.288 47.4367 491.382 46.5708C493.475 45.7048 495.265 44.2384 496.524 42.357C497.783 40.4755 498.455 38.2635 498.455 36.0007C498.455 32.9693 497.25 30.0618 495.105 27.9167C492.96 25.7715 490.05 24.5642 487.014 24.5597Z" fill="#23252C"/>
<path opacity="0.8" fill-rule="evenodd" clip-rule="evenodd" d="M443.016 -14C434.395 -14 425.918 -11.798 418.39 -7.60335C410.943 -3.45404 404.67 2.50863 400.154 9.7281H378.014V22.5934H394.399C391.818 31.5847 391.789 41.1154 394.315 50.1223H378.014V62.9876H399.975C404.473 70.2848 410.759 76.3194 418.242 80.5211C425.806 84.7688 434.338 87 443.016 87V86C434.509 86 426.146 83.8128 418.731 79.6492C411.317 75.4855 405.101 69.4857 400.682 62.2276L400.536 61.9876H379.014V51.1223H395.647L395.458 50.4809C392.74 41.2578 392.77 31.4439 395.546 22.2377L395.74 21.5934H379.014V10.7281H400.711L400.857 10.4909C405.294 3.31006 411.497 -2.61811 418.877 -6.7298C426.256 -10.8415 434.566 -13 443.016 -13V-14Z" fill="#23252C"/>
<path opacity="0.7" fill-rule="evenodd" clip-rule="evenodd" d="M402.514 -14C393.893 -14 385.416 -11.798 377.888 -7.60335C370.441 -3.45404 364.168 2.50863 359.652 9.7281H337.512V22.5934H353.897C351.316 31.5847 351.287 41.1154 353.813 50.1223H337.512V62.9876H359.473C363.971 70.2848 370.257 76.3194 377.74 80.5211C385.304 84.7688 393.836 87 402.514 87V86C394.007 86 385.644 83.8128 378.229 79.6492C370.815 75.4855 364.599 69.4857 360.18 62.2276L360.034 61.9876H338.512V51.1223H355.145L354.956 50.4809C352.238 41.2578 352.268 31.4439 355.044 22.2377L355.238 21.5934H338.512V10.7281H360.209L360.355 10.4909C364.792 3.31006 370.995 -2.61811 378.375 -6.7298C385.754 -10.8415 394.064 -13 402.514 -13V-14Z" fill="#23252C"/>
<path opacity="0.6" fill-rule="evenodd" clip-rule="evenodd" d="M362.012 -14C353.391 -14 344.914 -11.798 337.386 -7.60335C329.939 -3.45404 323.666 2.50863 319.15 9.7281H297.01V22.5934H313.395C310.814 31.5847 310.785 41.1154 313.311 50.1223H297.01V62.9876H318.971C323.47 70.2848 329.755 76.3194 337.238 80.5211C344.802 84.7688 353.334 87 362.012 87V86C353.505 86 345.142 83.8128 337.727 79.6492C330.313 75.4855 324.097 69.4857 319.678 62.2276L319.532 61.9876H298.01V51.1223H314.643L314.454 50.4809C311.736 41.2578 311.766 31.4439 314.542 22.2377L314.736 21.5934H298.01V10.7281H319.707L319.853 10.4909C324.29 3.31006 330.493 -2.61811 337.873 -6.7298C345.252 -10.8415 353.562 -13 362.012 -13V-14Z" fill="#23252C"/>
<path opacity="0.5" fill-rule="evenodd" clip-rule="evenodd" d="M321.51 -14C312.889 -14 304.412 -11.798 296.884 -7.60335C289.437 -3.45404 283.164 2.50863 278.648 9.7281H256.508V22.5934H272.893C270.312 31.5847 270.283 41.1154 272.809 50.1223H256.508V62.9876H278.469C282.968 70.2848 289.254 76.3194 296.736 80.5211C304.3 84.7688 312.832 87 321.51 87V86C313.003 86 304.64 83.8128 297.225 79.6492C289.811 75.4855 283.595 69.4857 279.176 62.2276L279.03 61.9876H257.508V51.1223H274.141L273.952 50.4809C271.234 41.2578 271.264 31.4439 274.04 22.2377L274.234 21.5934H257.508V10.7281H279.205L279.351 10.4909C283.788 3.31006 289.992 -2.61811 297.371 -6.7298C304.75 -10.8415 313.06 -13 321.51 -13V-14Z" fill="#23252C"/>
<path opacity="0.35" fill-rule="evenodd" clip-rule="evenodd" d="M281.008 -14C272.387 -14 263.91 -11.798 256.382 -7.60335C248.935 -3.45404 242.662 2.50863 238.146 9.7281H216.006V22.5934H232.391C229.81 31.5847 229.781 41.1154 232.307 50.1223H216.006V62.9876H237.967C242.466 70.2848 248.752 76.3194 256.234 80.5211C263.798 84.7688 272.33 87 281.008 87V86C272.501 86 264.138 83.8128 256.723 79.6492C249.309 75.4855 243.093 69.4857 238.674 62.2276L238.528 61.9876H217.006V51.1223H233.639L233.45 50.4809C230.732 41.2578 230.762 31.4439 233.538 22.2377L233.732 21.5934H217.006V10.7281H238.703L238.849 10.4909C243.286 3.31006 249.49 -2.61811 256.869 -6.7298C264.248 -10.8415 272.558 -13 281.008 -13V-14Z" fill="#23252C"/>
<path opacity="0.25" fill-rule="evenodd" clip-rule="evenodd" d="M240.506 -14C231.885 -14 223.408 -11.798 215.88 -7.60335C208.433 -3.45404 202.161 2.50863 197.644 9.7281H175.504V22.5934H191.889C189.308 31.5847 189.279 41.1154 191.805 50.1223H175.504V62.9876H197.465C201.964 70.2848 208.25 76.3194 215.732 80.5211C223.296 84.7688 231.828 87 240.506 87V86C231.999 86 223.636 83.8128 216.222 79.6492C208.807 75.4855 202.591 69.4857 198.172 62.2276L198.026 61.9876H176.504V51.1223H193.137L192.948 50.4809C190.23 41.2578 190.26 31.4439 193.036 22.2377L193.23 21.5934H176.504V10.7281H198.201L198.347 10.4909C202.785 3.31006 208.988 -2.61811 216.367 -6.7298C223.746 -10.8415 232.056 -13 240.506 -13V-14Z" fill="#23252C"/>
<path opacity="0.15" fill-rule="evenodd" clip-rule="evenodd" d="M200.004 -14C191.383 -14 182.906 -11.798 175.378 -7.60335C167.931 -3.45404 161.659 2.50863 157.142 9.7281H135.002V22.5934H151.387C148.806 31.5847 148.777 41.1154 151.303 50.1223H135.002V62.9876H156.963C161.462 70.2848 167.748 76.3194 175.23 80.5211C182.794 84.7688 191.326 87 200.004 87V86C191.497 86 183.134 83.8128 175.72 79.6492C168.305 75.4855 162.089 69.4857 157.67 62.2276L157.524 61.9876H136.002V51.1223H152.635L152.446 50.4809C149.728 41.2578 149.758 31.4439 152.534 22.2377L152.728 21.5934H136.002V10.7281H157.699L157.845 10.4909C162.283 3.31006 168.486 -2.61811 175.865 -6.7298C183.244 -10.8415 191.554 -13 200.004 -13V-14Z" fill="#23252C"/>
<path opacity="0.05" fill-rule="evenodd" clip-rule="evenodd" d="M159.502 -14C150.882 -14 142.404 -11.798 134.876 -7.60335C127.429 -3.45404 121.157 2.50863 116.64 9.7281H94.5001V22.5934H110.885C108.304 31.5847 108.275 41.1154 110.801 50.1223H94.5001V62.9876H116.461C120.96 70.2848 127.246 76.3194 134.728 80.5211C142.292 84.7688 150.824 87 159.502 87V86C150.996 86 142.632 83.8128 135.218 79.6492C127.803 75.4855 121.587 69.4857 117.168 62.2276L117.022 61.9876H95.5001V51.1223H112.133L111.944 50.4809C109.226 41.2578 109.257 31.4439 112.032 22.2377L112.226 21.5934H95.5001V10.7281H117.197L117.343 10.4909C121.781 3.31006 127.984 -2.61811 135.363 -6.7298C142.742 -10.8415 151.052 -13 159.502 -13V-14Z" fill="#23252C"/>
</g>
</svg>