<svg width="36" height="36" viewBox="0 0 36 36" fill="none" xmlns="http://www.w3.org/2000/svg">
<path d="M33.6048 20.6862L35.7929 18.4986C35.8586 18.4332 35.9106 18.3555 35.9462 18.2699C35.9817 18.1844 36 18.0926 36 18C36 17.9074 35.9817 17.8156 35.9462 17.7301C35.9106 17.6445 35.8586 17.5668 35.7929 17.5014L33.5755 15.2845C33.4769 15.1862 33.4096 15.061 33.3823 14.9245C33.355 14.788 33.3689 14.6465 33.4221 14.5179L34.6222 11.6171C34.6577 11.5316 34.676 11.4399 34.676 11.3473C34.676 11.2548 34.6577 11.1631 34.6221 11.0776C34.5866 10.9921 34.5345 10.9145 34.4688 10.8493C34.4031 10.784 34.3252 10.7323 34.2395 10.6972L31.3767 9.51878C31.2474 9.46576 31.1369 9.37543 31.0592 9.25931C30.9816 9.1432 30.9403 9.00657 30.9407 8.86688V5.77275C30.9407 5.58571 30.8664 5.40634 30.7341 5.27408C30.6018 5.14183 30.4224 5.06753 30.2353 5.06753H27.0978C26.9587 5.06768 26.8226 5.02661 26.7068 4.9495C26.591 4.87239 26.5006 4.76269 26.4471 4.63427L25.2404 1.7361C25.2048 1.65072 25.1527 1.5732 25.0871 1.50796C25.0215 1.44272 24.9437 1.39104 24.8582 1.35588C24.7726 1.32072 24.6809 1.30276 24.5884 1.30304C24.4959 1.30332 24.4044 1.32182 24.319 1.3575L21.4615 2.54796C21.3323 2.60154 21.1901 2.61557 21.0529 2.58828C20.9157 2.56099 20.7897 2.4936 20.6908 2.39465L18.5027 0.207025C18.4373 0.141404 18.3596 0.0893379 18.274 0.0538117C18.1884 0.0182854 18.0967 0 18.004 0C17.9113 0 17.8196 0.0182854 17.734 0.0538117C17.6484 0.0893379 17.5707 0.141404 17.5053 0.207025L15.2879 2.42398C15.1896 2.52259 15.0643 2.5898 14.9278 2.61709C14.7913 2.64439 14.6498 2.63053 14.5212 2.57729L11.6197 1.38416C11.5342 1.34862 11.4425 1.33034 11.3499 1.33035C11.2573 1.33036 11.1656 1.34867 11.0801 1.38422C10.9946 1.41978 10.917 1.47188 10.8517 1.53753C10.7864 1.60318 10.7347 1.68108 10.6996 1.76676L9.52089 4.62894C9.46787 4.75818 9.37751 4.86868 9.26137 4.94632C9.14523 5.02397 9.00857 5.06524 8.86886 5.06487H5.77403C5.6814 5.06487 5.58968 5.08311 5.5041 5.11855C5.41852 5.15399 5.34075 5.20593 5.27526 5.27142C5.20976 5.3369 5.1578 5.41464 5.12235 5.5002C5.0869 5.58576 5.06866 5.67747 5.06866 5.77008V8.90821C5.06881 9.04733 5.02773 9.18337 4.9506 9.29916C4.87347 9.41494 4.76375 9.50528 4.6353 9.55877L1.73648 10.7652C1.65109 10.8008 1.57355 10.8529 1.50829 10.9184C1.44304 10.984 1.39135 11.0618 1.35618 11.1474C1.32101 11.2329 1.30305 11.3245 1.30333 11.417C1.30361 11.5095 1.32212 11.6011 1.3578 11.6864L2.54853 14.5433C2.60212 14.6724 2.61615 14.8146 2.58885 14.9518C2.56155 15.089 2.49415 15.2149 2.39519 15.3138L0.207071 17.5014C0.141436 17.5668 0.0893578 17.6445 0.0538236 17.7301C0.0182894 17.8156 0 17.9074 0 18C0 18.0926 0.0182894 18.1844 0.0538236 18.2699C0.0893578 18.3555 0.141436 18.4332 0.207071 18.4986L2.42452 20.7155C2.52315 20.8138 2.59037 20.939 2.61767 21.0755C2.64497 21.212 2.63112 21.3535 2.57786 21.4821L1.38446 24.3829C1.34892 24.4684 1.33063 24.5601 1.33064 24.6527C1.33066 24.7452 1.34897 24.8369 1.38453 24.9224C1.42009 25.0079 1.47221 25.0855 1.53787 25.1508C1.60353 25.216 1.68145 25.2677 1.76715 25.3028L4.62997 26.4812C4.75923 26.5342 4.86976 26.6246 4.94742 26.7407C5.02509 26.8568 5.06637 26.9934 5.06599 27.1331V30.2273C5.06599 30.4143 5.14031 30.5937 5.27259 30.7259C5.40487 30.8582 5.58429 30.9325 5.77136 30.9325H8.91019C9.04934 30.9323 9.18541 30.9734 9.30122 31.0505C9.41704 31.1276 9.50739 31.2373 9.56089 31.3657L10.7676 34.2639C10.8032 34.3493 10.8553 34.4268 10.9209 34.492C10.9865 34.5573 11.0643 34.609 11.1498 34.6441C11.2354 34.6793 11.3271 34.6972 11.4196 34.697C11.5121 34.6967 11.6036 34.6782 11.689 34.6425L14.5465 33.452C14.6757 33.3985 14.8179 33.3844 14.9551 33.4117C15.0923 33.439 15.2183 33.5064 15.3172 33.6053L17.5053 35.793C17.5707 35.8586 17.6484 35.9107 17.734 35.9462C17.8196 35.9817 17.9113 36 18.004 36C18.0967 36 18.1884 35.9817 18.274 35.9462C18.3596 35.9107 18.4373 35.8586 18.5027 35.793L20.7201 33.576C20.8184 33.4774 20.9437 33.4102 21.0802 33.3829C21.2167 33.3556 21.3582 33.3695 21.4868 33.4227L24.3883 34.6225C24.4738 34.658 24.5655 34.6763 24.6581 34.6763C24.7507 34.6763 24.8424 34.658 24.9279 34.6224C25.0134 34.5869 25.0911 34.5348 25.1563 34.4691C25.2216 34.4035 25.2733 34.3256 25.3084 34.2399L26.4871 31.3777C26.5401 31.2485 26.6305 31.138 26.7466 31.0603C26.8628 30.9827 26.9994 30.9414 27.1391 30.9418H30.234C30.421 30.9418 30.6005 30.8675 30.7327 30.7352C30.865 30.603 30.9393 30.4236 30.9393 30.2366V27.0918C30.9392 26.9527 30.9803 26.8166 31.0574 26.7008C31.1345 26.5851 31.2442 26.4947 31.3727 26.4412L34.2715 25.2348C34.3569 25.1992 34.4345 25.1471 34.4997 25.0816C34.565 25.016 34.6166 24.9382 34.6518 24.8527C34.687 24.7671 34.7049 24.6755 34.7047 24.583C34.7044 24.4905 34.6859 24.3989 34.6502 24.3136L33.4595 21.4567C33.4049 21.3283 33.3896 21.1866 33.4154 21.0495C33.4413 20.9123 33.5072 20.7859 33.6048 20.6862V20.6862Z" fill="url(#paint0_linear_553_12197)"/>
<path d="M25.8309 15.6949H28V13.7965H24.6019C23.907 12.6359 22.9355 11.6779 21.7799 11.0133C20.6243 10.3488 19.323 10 17.9997 10C16.6763 10 15.375 10.3488 14.2194 11.0133C13.0638 11.6779 12.0924 12.6359 11.3975 13.7965H8V15.6949H10.5657C10.1318 17.183 10.1273 18.7689 10.5527 20.2596H8V22.158H11.3701C12.0621 23.3311 13.0355 24.3007 14.1967 24.9736C15.3578 25.6465 16.6675 26 17.9997 26C19.3318 26 20.6415 25.6465 21.8027 24.9736C22.9638 24.3007 23.9373 23.3311 24.6293 22.158H28V20.2596H25.4473C25.873 18.7689 25.8683 17.1828 25.4336 15.6949H25.8309ZM18.0026 23.3109C16.9833 23.3109 15.9869 22.9995 15.1394 22.4159C14.2919 21.8323 13.6313 21.0029 13.2413 20.0325C12.8512 19.0621 12.7492 17.9942 12.948 16.964C13.1469 15.9338 13.6377 14.9875 14.3584 14.2448C15.0792 13.5021 15.9975 12.9963 16.9972 12.7913C17.9969 12.5864 19.0331 12.6916 19.9748 13.0936C20.9165 13.4955 21.7214 14.1762 22.2877 15.0496C22.854 15.9229 23.1562 16.9497 23.1562 18.0001C23.1547 19.4086 22.6109 20.7589 21.6441 21.7546C20.6774 22.7503 19.3668 23.31 18 23.3109H18.0026ZM18.0026 16.1696C18.3539 16.1696 18.6974 16.2769 18.9895 16.4781C19.2816 16.6792 19.5093 16.9651 19.6438 17.2996C19.7782 17.6341 19.8134 18.0021 19.7448 18.3572C19.6763 18.7123 19.5071 19.0385 19.2587 19.2945C19.0103 19.5505 18.6937 19.7249 18.3492 19.7955C18.0046 19.8661 17.6474 19.8299 17.3228 19.6913C16.9982 19.5528 16.7208 19.3181 16.5256 19.0171C16.3304 18.7161 16.2262 18.3622 16.2262 18.0001C16.2262 17.5151 16.413 17.0499 16.7456 16.7067C17.0782 16.3634 17.5293 16.1703 18 16.1696H18.0026Z" fill="#EBEBEC"/>
<defs>
<linearGradient id="paint0_linear_553_12197" x1="0" y1="18.0003" x2="36" y2="18.0003" gradientUnits="userSpaceOnUse">
<stop stop-color="#CF8D49"/>
<stop offset="1" stop-color="#B63562"/>
</linearGradient>
</defs>
</svg>
