<svg width="380" height="200" viewBox="0 0 380 200" fill="none" xmlns="http://www.w3.org/2000/svg">
<rect width="380" height="200" fill="#181A1F"/>
<path d="M362.665 77.8561V76.8481H366.145V77.8561H362.665Z" fill="#EBEBEC"/>
<path d="M13.0559 72.6241H15.8999C16.6199 72.6241 17.1839 72.8201 17.5919 73.2121C17.9999 73.6041 18.2039 74.1281 18.2039 74.7841C18.2039 75.2881 18.0799 75.6841 17.8319 75.9721C17.5919 76.2601 17.2799 76.4641 16.8959 76.5841V76.6201C17.3679 76.7321 17.7559 76.9441 18.0599 77.2561C18.3639 77.5601 18.5159 78.0041 18.5159 78.5881C18.5159 78.9241 18.4599 79.2401 18.3479 79.5361C18.2359 79.8321 18.0759 80.0881 17.8679 80.3041C17.6679 80.5201 17.4279 80.6921 17.1479 80.8201C16.8759 80.9401 16.5799 81.0001 16.2599 81.0001H13.0559V72.6241ZM15.9599 80.1241C16.4239 80.1241 16.7879 80.0201 17.0519 79.8121C17.3159 79.6041 17.4479 79.2841 17.4479 78.8521V78.3601C17.4479 77.9361 17.3159 77.6201 17.0519 77.4121C16.7879 77.1961 16.4239 77.0881 15.9599 77.0881H14.0639V80.1241H15.9599ZM15.7919 76.2601C16.2159 76.2601 16.5479 76.1681 16.7879 75.9841C17.0279 75.7921 17.1479 75.5041 17.1479 75.1201V74.6521C17.1479 74.2681 17.0279 73.9801 16.7879 73.7881C16.5479 73.5961 16.2159 73.5001 15.7919 73.5001H14.0639V76.2601H15.7919Z" fill="#6F7380"/>
<path d="M22.7952 81.1441C22.3632 81.1441 21.9712 81.0681 21.6192 80.9161C21.2752 80.7641 20.9792 80.5481 20.7312 80.2681C20.4912 79.9801 20.3072 79.6401 20.1792 79.2481C20.0512 78.8481 19.9872 78.4001 19.9872 77.9041C19.9872 77.4161 20.0512 76.9721 20.1792 76.5721C20.3072 76.1721 20.4912 75.8321 20.7312 75.5521C20.9792 75.2641 21.2752 75.0441 21.6192 74.8921C21.9712 74.7401 22.3632 74.6641 22.7952 74.6641C23.2272 74.6641 23.6152 74.7401 23.9592 74.8921C24.3112 75.0441 24.6072 75.2641 24.8472 75.5521C25.0952 75.8321 25.2832 76.1721 25.4112 76.5721C25.5392 76.9721 25.6032 77.4161 25.6032 77.9041C25.6032 78.4001 25.5392 78.8481 25.4112 79.2481C25.2832 79.6401 25.0952 79.9801 24.8472 80.2681C24.6072 80.5481 24.3112 80.7641 23.9592 80.9161C23.6152 81.0681 23.2272 81.1441 22.7952 81.1441ZM22.7952 80.3161C23.3312 80.3161 23.7632 80.1561 24.0912 79.8361C24.4192 79.5161 24.5832 79.0201 24.5832 78.3481V77.4601C24.5832 76.7881 24.4192 76.2921 24.0912 75.9721C23.7632 75.6521 23.3312 75.4921 22.7952 75.4921C22.2592 75.4921 21.8272 75.6521 21.4992 75.9721C21.1712 76.2921 21.0072 76.7881 21.0072 77.4601V78.3481C21.0072 79.0201 21.1712 79.5161 21.4992 79.8361C21.8272 80.1561 22.2592 80.3161 22.7952 80.3161Z" fill="#6F7380"/>
<path d="M27.5665 81.0001V74.8081H28.5265V75.8161H28.5745C28.6385 75.6641 28.7185 75.5201 28.8145 75.3841C28.9105 75.2401 29.0265 75.1161 29.1625 75.0121C29.3065 74.9081 29.4745 74.8241 29.6665 74.7601C29.8585 74.6961 30.0825 74.6641 30.3385 74.6641C30.9865 74.6641 31.5065 74.8721 31.8985 75.2881C32.2905 75.6961 32.4865 76.2761 32.4865 77.0281V81.0001H31.5265V77.1961C31.5265 76.6281 31.4025 76.2081 31.1545 75.9361C30.9065 75.6561 30.5425 75.5161 30.0625 75.5161C29.8705 75.5161 29.6825 75.5401 29.4985 75.5881C29.3145 75.6361 29.1505 75.7081 29.0065 75.8041C28.8625 75.9001 28.7465 76.0241 28.6585 76.1761C28.5705 76.3281 28.5265 76.5041 28.5265 76.7041V81.0001H27.5665Z" fill="#6F7380"/>
<path d="M38.6858 79.9921H38.6378C38.2378 80.7601 37.6018 81.1441 36.7298 81.1441C35.9698 81.1441 35.3738 80.8601 34.9418 80.2921C34.5178 79.7241 34.3058 78.9281 34.3058 77.9041C34.3058 76.8801 34.5178 76.0841 34.9418 75.5161C35.3738 74.9481 35.9698 74.6641 36.7298 74.6641C37.6018 74.6641 38.2378 75.0481 38.6378 75.8161H38.6858V72.1201H39.6458V81.0001H38.6858V79.9921ZM37.1018 80.2921C37.3178 80.2921 37.5218 80.2641 37.7138 80.2081C37.9058 80.1521 38.0738 80.0721 38.2178 79.9681C38.3618 79.8561 38.4738 79.7241 38.5538 79.5721C38.6418 79.4121 38.6858 79.2281 38.6858 79.0201V76.7881C38.6858 76.5801 38.6418 76.4001 38.5538 76.2481C38.4738 76.0881 38.3618 75.9561 38.2178 75.8521C38.0738 75.7401 37.9058 75.6561 37.7138 75.6001C37.5218 75.5441 37.3178 75.5161 37.1018 75.5161C36.5418 75.5161 36.1058 75.6881 35.7938 76.0321C35.4898 76.3681 35.3378 76.8161 35.3378 77.3761V78.4321C35.3378 78.9921 35.4898 79.4441 35.7938 79.7881C36.1058 80.1241 36.5418 80.2921 37.1018 80.2921Z" fill="#6F7380"/>
<path d="M50.8925 81.0001L48.4085 72.6241H49.4765L50.6645 76.8121L51.5645 79.9801H51.6245L52.5245 76.8121L53.7125 72.6241H54.7445L52.2605 81.0001H50.8925Z" fill="#6F7380"/>
<path d="M61.1118 81.0001C60.7358 81.0001 60.4678 80.9041 60.3078 80.7121C60.1478 80.5201 60.0478 80.2801 60.0078 79.9921H59.9478C59.8118 80.3521 59.5918 80.6361 59.2878 80.8441C58.9918 81.0441 58.5918 81.1441 58.0878 81.1441C57.4398 81.1441 56.9238 80.9761 56.5398 80.6401C56.1558 80.3041 55.9638 79.8441 55.9638 79.2601C55.9638 78.6841 56.1718 78.2401 56.5878 77.9281C57.0118 77.6161 57.6918 77.4601 58.6278 77.4601H59.9478V76.8481C59.9478 76.3921 59.8198 76.0521 59.5638 75.8281C59.3078 75.5961 58.9438 75.4801 58.4718 75.4801C58.0558 75.4801 57.7158 75.5641 57.4518 75.7321C57.1878 75.8921 56.9758 76.1121 56.8158 76.3921L56.1678 75.9121C56.2478 75.7521 56.3558 75.5961 56.4918 75.4441C56.6278 75.2921 56.7958 75.1601 56.9958 75.0481C57.1958 74.9281 57.4238 74.8361 57.6798 74.7721C57.9358 74.7001 58.2198 74.6641 58.5318 74.6641C59.2598 74.6641 59.8358 74.8481 60.2598 75.2161C60.6918 75.5841 60.9078 76.0961 60.9078 76.7521V80.1601H61.7718V81.0001H61.1118ZM58.2558 80.3401C58.5038 80.3401 58.7278 80.3121 58.9278 80.2561C59.1358 80.1921 59.3158 80.1121 59.4678 80.0161C59.6198 79.9121 59.7358 79.7921 59.8158 79.6561C59.9038 79.5121 59.9478 79.3601 59.9478 79.2001V78.1801H58.6278C58.0518 78.1801 57.6318 78.2601 57.3678 78.4201C57.1038 78.5801 56.9718 78.8121 56.9718 79.1161V79.3681C56.9718 79.6881 57.0838 79.9321 57.3078 80.1001C57.5398 80.2601 57.8558 80.3401 58.2558 80.3401Z" fill="#6F7380"/>
<path d="M63.3271 80.1841H65.4871V72.9361H63.3271V72.1201H66.4471V80.1841H68.6071V81.0001H63.3271V80.1841Z" fill="#6F7380"/>
<path d="M74.6264 79.9921H74.5784C74.5144 80.1441 74.4344 80.2921 74.3384 80.4361C74.2424 80.5721 74.1224 80.6921 73.9784 80.7961C73.8424 80.9001 73.6784 80.9841 73.4864 81.0481C73.2944 81.1121 73.0704 81.1441 72.8144 81.1441C72.1664 81.1441 71.6464 80.9401 71.2544 80.5321C70.8624 80.1161 70.6664 79.5321 70.6664 78.7801V74.8081H71.6264V78.6121C71.6264 79.1801 71.7504 79.6041 71.9984 79.8841C72.2464 80.1561 72.6104 80.2921 73.0904 80.2921C73.2824 80.2921 73.4704 80.2681 73.6544 80.2201C73.8384 80.1721 74.0024 80.1001 74.1464 80.0041C74.2904 79.9081 74.4064 79.7881 74.4944 79.6441C74.5824 79.4921 74.6264 79.3121 74.6264 79.1041V74.8081H75.5864V81.0001H74.6264V79.9921Z" fill="#6F7380"/>
<path d="M80.4657 81.1441C80.0177 81.1441 79.6137 81.0681 79.2537 80.9161C78.9017 80.7641 78.5977 80.5481 78.3417 80.2681C78.0937 79.9801 77.9017 79.6401 77.7657 79.2481C77.6297 78.8481 77.5617 78.4041 77.5617 77.9161C77.5617 77.4201 77.6297 76.9721 77.7657 76.5721C77.9097 76.1721 78.1057 75.8321 78.3537 75.5521C78.6017 75.2641 78.8977 75.0441 79.2417 74.8921C79.5937 74.7401 79.9817 74.6641 80.4057 74.6641C80.8217 74.6641 81.1977 74.7401 81.5337 74.8921C81.8777 75.0441 82.1697 75.2561 82.4097 75.5281C82.6497 75.7921 82.8337 76.1081 82.9617 76.4761C83.0897 76.8441 83.1537 77.2481 83.1537 77.6881V78.1441H78.5697V78.4321C78.5697 78.7041 78.6137 78.9561 78.7017 79.1881C78.7897 79.4201 78.9137 79.6201 79.0737 79.7881C79.2417 79.9561 79.4417 80.0881 79.6737 80.1841C79.9137 80.2721 80.1777 80.3161 80.4657 80.3161C80.8817 80.3161 81.2417 80.2201 81.5457 80.0281C81.8497 79.8361 82.0817 79.5721 82.2417 79.2361L82.9497 79.7161C82.7657 80.1321 82.4577 80.4761 82.0257 80.7481C81.6017 81.0121 81.0817 81.1441 80.4657 81.1441ZM80.4057 75.4561C80.1417 75.4561 79.8977 75.5041 79.6737 75.6001C79.4497 75.6961 79.2537 75.8281 79.0857 75.9961C78.9257 76.1641 78.7977 76.3641 78.7017 76.5961C78.6137 76.8201 78.5697 77.0681 78.5697 77.3401V77.4241H82.1217V77.2921C82.1217 77.0201 82.0777 76.7721 81.9897 76.5481C81.9097 76.3241 81.7937 76.1321 81.6417 75.9721C81.4977 75.8041 81.3177 75.6761 81.1017 75.5881C80.8937 75.5001 80.6617 75.4561 80.4057 75.4561Z" fill="#6F7380"/>
<path d="M362.665 109.856V108.848H366.145V109.856H362.665Z" fill="#EBEBEC"/>
<path d="M13.956 105.908H13.872V113H12.96V104.624H14.388L17.244 111.644H17.328V104.624H18.24V113H16.812L13.956 105.908Z" fill="#6F7380"/>
<path d="M20.2753 113V104.624H25.5553V105.5H21.2833V108.32H25.1953V109.196H21.2833V113H20.2753Z" fill="#6F7380"/>
<path d="M30.4946 105.5V113H29.4866V105.5H26.6906V104.624H33.2906V105.5H30.4946Z" fill="#6F7380"/>
<path d="M43.6972 113L41.2132 104.624H42.2812L43.4692 108.812L44.3692 111.98H44.4292L45.3292 108.812L46.5172 104.624H47.5492L45.0652 113H43.6972Z" fill="#6F7380"/>
<path d="M53.9165 113C53.5405 113 53.2725 112.904 53.1125 112.712C52.9525 112.52 52.8525 112.28 52.8125 111.992H52.7525C52.6165 112.352 52.3965 112.636 52.0925 112.844C51.7965 113.044 51.3965 113.144 50.8925 113.144C50.2445 113.144 49.7285 112.976 49.3445 112.64C48.9605 112.304 48.7685 111.844 48.7685 111.26C48.7685 110.684 48.9765 110.24 49.3925 109.928C49.8165 109.616 50.4965 109.46 51.4325 109.46H52.7525V108.848C52.7525 108.392 52.6245 108.052 52.3685 107.828C52.1125 107.596 51.7485 107.48 51.2765 107.48C50.8605 107.48 50.5205 107.564 50.2565 107.732C49.9925 107.892 49.7805 108.112 49.6205 108.392L48.9725 107.912C49.0525 107.752 49.1605 107.596 49.2965 107.444C49.4325 107.292 49.6005 107.16 49.8005 107.048C50.0005 106.928 50.2285 106.836 50.4845 106.772C50.7405 106.7 51.0245 106.664 51.3365 106.664C52.0645 106.664 52.6405 106.848 53.0645 107.216C53.4965 107.584 53.7125 108.096 53.7125 108.752V112.16H54.5765V113H53.9165ZM51.0605 112.34C51.3085 112.34 51.5325 112.312 51.7325 112.256C51.9405 112.192 52.1205 112.112 52.2725 112.016C52.4245 111.912 52.5405 111.792 52.6205 111.656C52.7085 111.512 52.7525 111.36 52.7525 111.2V110.18H51.4325C50.8565 110.18 50.4365 110.26 50.1725 110.42C49.9085 110.58 49.7765 110.812 49.7765 111.116V111.368C49.7765 111.688 49.8885 111.932 50.1125 112.1C50.3445 112.26 50.6605 112.34 51.0605 112.34Z" fill="#6F7380"/>
<path d="M56.1318 112.184H58.2918V104.936H56.1318V104.12H59.2518V112.184H61.4118V113H56.1318V112.184Z" fill="#6F7380"/>
<path d="M67.4311 111.992H67.3831C67.3191 112.144 67.2392 112.292 67.1432 112.436C67.0471 112.572 66.9272 112.692 66.7831 112.796C66.6471 112.9 66.4832 112.984 66.2911 113.048C66.0991 113.112 65.8751 113.144 65.6191 113.144C64.9711 113.144 64.4511 112.94 64.0592 112.532C63.6672 112.116 63.4711 111.532 63.4711 110.78V106.808H64.4311V110.612C64.4311 111.18 64.5551 111.604 64.8032 111.884C65.0512 112.156 65.4151 112.292 65.8951 112.292C66.0872 112.292 66.2751 112.268 66.4591 112.22C66.6432 112.172 66.8071 112.1 66.9511 112.004C67.0951 111.908 67.2111 111.788 67.2991 111.644C67.3871 111.492 67.4311 111.312 67.4311 111.104V106.808H68.3912V113H67.4311V111.992Z" fill="#6F7380"/>
<path d="M73.2705 113.144C72.8225 113.144 72.4185 113.068 72.0585 112.916C71.7065 112.764 71.4025 112.548 71.1465 112.268C70.8985 111.98 70.7065 111.64 70.5705 111.248C70.4345 110.848 70.3665 110.404 70.3665 109.916C70.3665 109.42 70.4345 108.972 70.5705 108.572C70.7145 108.172 70.9105 107.832 71.1585 107.552C71.4065 107.264 71.7025 107.044 72.0465 106.892C72.3985 106.74 72.7865 106.664 73.2105 106.664C73.6265 106.664 74.0025 106.74 74.3385 106.892C74.6825 107.044 74.9745 107.256 75.2145 107.528C75.4545 107.792 75.6385 108.108 75.7665 108.476C75.8945 108.844 75.9585 109.248 75.9585 109.688V110.144H71.3745V110.432C71.3745 110.704 71.4185 110.956 71.5065 111.188C71.5945 111.42 71.7185 111.62 71.8785 111.788C72.0465 111.956 72.2465 112.088 72.4785 112.184C72.7185 112.272 72.9825 112.316 73.2705 112.316C73.6865 112.316 74.0465 112.22 74.3505 112.028C74.6545 111.836 74.8865 111.572 75.0465 111.236L75.7545 111.716C75.5705 112.132 75.2625 112.476 74.8305 112.748C74.4065 113.012 73.8865 113.144 73.2705 113.144ZM73.2105 107.456C72.9465 107.456 72.7025 107.504 72.4785 107.6C72.2545 107.696 72.0585 107.828 71.8905 107.996C71.7305 108.164 71.6025 108.364 71.5065 108.596C71.4185 108.82 71.3745 109.068 71.3745 109.34V109.424H74.9265V109.292C74.9265 109.02 74.8825 108.772 74.7945 108.548C74.7145 108.324 74.5985 108.132 74.4465 107.972C74.3025 107.804 74.1225 107.676 73.9065 107.588C73.6985 107.5 73.4665 107.456 73.2105 107.456Z" fill="#6F7380"/>
<path d="M362.665 141.856V140.848H366.145V141.856H362.665Z" fill="#EBEBEC"/>
<path d="M15.8761 145.144C14.8521 145.144 14.0881 144.772 13.5841 144.028C13.0881 143.284 12.8401 142.212 12.8401 140.812C12.8401 139.412 13.0881 138.34 13.5841 137.596C14.0881 136.852 14.8521 136.48 15.8761 136.48C16.2601 136.48 16.5921 136.532 16.8721 136.636C17.1521 136.74 17.3921 136.88 17.5921 137.056C17.7921 137.232 17.9601 137.432 18.0961 137.656C18.2321 137.872 18.3521 138.092 18.4561 138.316L17.5921 138.712C17.5201 138.528 17.4361 138.356 17.3401 138.196C17.2441 138.028 17.1281 137.884 16.9921 137.764C16.8641 137.636 16.7081 137.536 16.5241 137.464C16.3481 137.392 16.1321 137.356 15.8761 137.356C15.2121 137.356 14.7161 137.608 14.3881 138.112C14.0681 138.616 13.9081 139.288 13.9081 140.128V141.496C13.9081 142.336 14.0681 143.008 14.3881 143.512C14.7161 144.016 15.2121 144.268 15.8761 144.268C16.1321 144.268 16.3481 144.232 16.5241 144.16C16.7081 144.088 16.8641 143.992 16.9921 143.872C17.1281 143.744 17.2441 143.6 17.3401 143.44C17.4361 143.272 17.5201 143.096 17.5921 142.912L18.4561 143.308C18.3521 143.54 18.2321 143.764 18.0961 143.98C17.9601 144.196 17.7921 144.392 17.5921 144.568C17.3921 144.744 17.1521 144.884 16.8721 144.988C16.5921 145.092 16.2601 145.144 15.8761 145.144Z" fill="#6F7380"/>
<path d="M20.1554 144.184H22.3154V136.936H20.1554V136.12H23.2754V144.184H25.4354V145H20.1554V144.184Z" fill="#6F7380"/>
<path d="M32.3307 145C31.9547 145 31.6867 144.904 31.5267 144.712C31.3667 144.52 31.2667 144.28 31.2267 143.992H31.1667C31.0307 144.352 30.8107 144.636 30.5067 144.844C30.2107 145.044 29.8107 145.144 29.3067 145.144C28.6587 145.144 28.1427 144.976 27.7587 144.64C27.3747 144.304 27.1827 143.844 27.1827 143.26C27.1827 142.684 27.3907 142.24 27.8067 141.928C28.2307 141.616 28.9107 141.46 29.8467 141.46H31.1667V140.848C31.1667 140.392 31.0387 140.052 30.7827 139.828C30.5267 139.596 30.1627 139.48 29.6907 139.48C29.2747 139.48 28.9347 139.564 28.6707 139.732C28.4067 139.892 28.1947 140.112 28.0347 140.392L27.3867 139.912C27.4667 139.752 27.5747 139.596 27.7107 139.444C27.8467 139.292 28.0147 139.16 28.2147 139.048C28.4147 138.928 28.6427 138.836 28.8987 138.772C29.1547 138.7 29.4387 138.664 29.7507 138.664C30.4787 138.664 31.0547 138.848 31.4787 139.216C31.9107 139.584 32.1267 140.096 32.1267 140.752V144.16H32.9907V145H32.3307ZM29.4747 144.34C29.7227 144.34 29.9467 144.312 30.1467 144.256C30.3547 144.192 30.5347 144.112 30.6867 144.016C30.8387 143.912 30.9547 143.792 31.0347 143.656C31.1227 143.512 31.1667 143.36 31.1667 143.2V142.18H29.8467C29.2707 142.18 28.8507 142.26 28.5867 142.42C28.3227 142.58 28.1907 142.812 28.1907 143.116V143.368C28.1907 143.688 28.3027 143.932 28.5267 144.1C28.7587 144.26 29.0747 144.34 29.4747 144.34Z" fill="#6F7380"/>
<path d="M37.57 137.44C37.29 137.44 37.094 137.384 36.982 137.272C36.87 137.152 36.814 137.004 36.814 136.828V136.636C36.814 136.46 36.87 136.316 36.982 136.204C37.094 136.084 37.29 136.024 37.57 136.024C37.85 136.024 38.046 136.084 38.158 136.204C38.27 136.316 38.326 136.46 38.326 136.636V136.828C38.326 137.004 38.27 137.152 38.158 137.272C38.046 137.384 37.85 137.44 37.57 137.44ZM34.858 144.184H37.09V139.624H34.858V138.808H38.05V144.184H40.138V145H34.858V144.184Z" fill="#6F7380"/>
<path d="M41.4293 145V138.808H42.3173V139.528H42.3653C42.4613 139.288 42.5973 139.084 42.7733 138.916C42.9493 138.748 43.2093 138.664 43.5533 138.664C43.9133 138.664 44.1813 138.756 44.3573 138.94C44.5333 139.116 44.6413 139.348 44.6813 139.636H44.7173C44.8293 139.356 44.9893 139.124 45.1973 138.94C45.4053 138.756 45.6933 138.664 46.0613 138.664C46.5653 138.664 46.9013 138.84 47.0693 139.192C47.2453 139.544 47.3333 140.048 47.3333 140.704V145H46.4453V140.86C46.4453 140.332 46.3893 139.968 46.2773 139.768C46.1733 139.56 45.9773 139.456 45.6893 139.456C45.4333 139.456 45.2253 139.54 45.0653 139.708C44.9053 139.868 44.8253 140.116 44.8253 140.452V145H43.9373V140.86C43.9373 140.332 43.8813 139.968 43.7693 139.768C43.6653 139.56 43.4733 139.456 43.1933 139.456C42.9373 139.456 42.7253 139.54 42.5573 139.708C42.3973 139.868 42.3173 140.116 42.3173 140.452V145H41.4293Z" fill="#6F7380"/>
<path d="M53.9166 145C53.5406 145 53.2727 144.904 53.1127 144.712C52.9527 144.52 52.8526 144.28 52.8126 143.992H52.7527C52.6166 144.352 52.3967 144.636 52.0927 144.844C51.7966 145.044 51.3967 145.144 50.8927 145.144C50.2447 145.144 49.7286 144.976 49.3447 144.64C48.9607 144.304 48.7687 143.844 48.7687 143.26C48.7687 142.684 48.9767 142.24 49.3927 141.928C49.8167 141.616 50.4967 141.46 51.4327 141.46H52.7527V140.848C52.7527 140.392 52.6247 140.052 52.3687 139.828C52.1127 139.596 51.7486 139.48 51.2766 139.48C50.8606 139.48 50.5206 139.564 50.2566 139.732C49.9926 139.892 49.7807 140.112 49.6207 140.392L48.9726 139.912C49.0527 139.752 49.1606 139.596 49.2966 139.444C49.4327 139.292 49.6007 139.16 49.8007 139.048C50.0007 138.928 50.2286 138.836 50.4846 138.772C50.7407 138.7 51.0247 138.664 51.3367 138.664C52.0647 138.664 52.6407 138.848 53.0647 139.216C53.4967 139.584 53.7127 140.096 53.7127 140.752V144.16H54.5766V145H53.9166ZM51.0606 144.34C51.3087 144.34 51.5326 144.312 51.7327 144.256C51.9407 144.192 52.1207 144.112 52.2727 144.016C52.4247 143.912 52.5406 143.792 52.6207 143.656C52.7087 143.512 52.7527 143.36 52.7527 143.2V142.18H51.4327C50.8567 142.18 50.4366 142.26 50.1726 142.42C49.9086 142.58 49.7766 142.812 49.7766 143.116V143.368C49.7766 143.688 49.8887 143.932 50.1127 144.1C50.3447 144.26 50.6606 144.34 51.0606 144.34Z" fill="#6F7380"/>
<path d="M56.312 136.12H57.272V139.816H57.32C57.72 139.048 58.356 138.664 59.228 138.664C59.988 138.664 60.58 138.948 61.004 139.516C61.436 140.084 61.652 140.88 61.652 141.904C61.652 142.928 61.436 143.724 61.004 144.292C60.58 144.86 59.988 145.144 59.228 145.144C58.356 145.144 57.72 144.76 57.32 143.992H57.272V145H56.312V136.12ZM58.856 144.292C59.416 144.292 59.848 144.124 60.152 143.788C60.464 143.444 60.62 142.992 60.62 142.432V141.376C60.62 140.816 60.464 140.368 60.152 140.032C59.848 139.688 59.416 139.516 58.856 139.516C58.64 139.516 58.436 139.544 58.244 139.6C58.052 139.656 57.884 139.74 57.74 139.852C57.596 139.956 57.48 140.088 57.392 140.248C57.312 140.4 57.272 140.58 57.272 140.788V143.02C57.272 143.228 57.312 143.412 57.392 143.572C57.48 143.724 57.596 143.856 57.74 143.968C57.884 144.072 58.052 144.152 58.244 144.208C58.436 144.264 58.64 144.292 58.856 144.292Z" fill="#6F7380"/>
<path d="M63.3273 144.184H65.4873V136.936H63.3273V136.12H66.4473V144.184H68.6073V145H63.3273V144.184Z" fill="#6F7380"/>
<path d="M73.2706 145.144C72.8226 145.144 72.4186 145.068 72.0586 144.916C71.7066 144.764 71.4026 144.548 71.1466 144.268C70.8986 143.98 70.7066 143.64 70.5706 143.248C70.4346 142.848 70.3666 142.404 70.3666 141.916C70.3666 141.42 70.4346 140.972 70.5706 140.572C70.7146 140.172 70.9106 139.832 71.1586 139.552C71.4066 139.264 71.7026 139.044 72.0466 138.892C72.3986 138.74 72.7866 138.664 73.2106 138.664C73.6266 138.664 74.0026 138.74 74.3386 138.892C74.6826 139.044 74.9746 139.256 75.2146 139.528C75.4546 139.792 75.6386 140.108 75.7666 140.476C75.8946 140.844 75.9586 141.248 75.9586 141.688V142.144H71.3746V142.432C71.3746 142.704 71.4186 142.956 71.5066 143.188C71.5946 143.42 71.7186 143.62 71.8786 143.788C72.0466 143.956 72.2466 144.088 72.4786 144.184C72.7186 144.272 72.9826 144.316 73.2706 144.316C73.6866 144.316 74.0466 144.22 74.3506 144.028C74.6546 143.836 74.8866 143.572 75.0466 143.236L75.7546 143.716C75.5706 144.132 75.2626 144.476 74.8306 144.748C74.4066 145.012 73.8866 145.144 73.2706 145.144ZM73.2106 139.456C72.9466 139.456 72.7026 139.504 72.4786 139.6C72.2546 139.696 72.0586 139.828 71.8906 139.996C71.7306 140.164 71.6026 140.364 71.5066 140.596C71.4186 140.82 71.3746 141.068 71.3746 141.34V141.424H74.9266V141.292C74.9266 141.02 74.8826 140.772 74.7946 140.548C74.7146 140.324 74.5986 140.132 74.4466 139.972C74.3026 139.804 74.1226 139.676 73.9066 139.588C73.6986 139.5 73.4666 139.456 73.2106 139.456Z" fill="#6F7380"/>
<path d="M85.0932 136.624H87.4332C88.4572 136.624 89.2212 136.976 89.7252 137.68C90.2292 138.384 90.4812 139.428 90.4812 140.812C90.4812 142.196 90.2292 143.24 89.7252 143.944C89.2212 144.648 88.4572 145 87.4332 145H85.0932V136.624ZM87.3852 144.124C88.0572 144.124 88.5612 143.892 88.8972 143.428C89.2412 142.964 89.4132 142.308 89.4132 141.46V140.164C89.4132 139.316 89.2412 138.66 88.8972 138.196C88.5612 137.732 88.0572 137.5 87.3852 137.5H86.1012V144.124H87.3852Z" fill="#6F7380"/>
<path d="M92.2285 145V136.624H97.3885V137.5H93.2365V140.32H97.2445V141.196H93.2365V144.124H97.3885V145H92.2285Z" fill="#6F7380"/>
<path d="M99.3518 145V144.196H101.44V137.428H99.3518V136.624H104.536V137.428H102.448V144.196H104.536V145H99.3518Z" fill="#6F7380"/>
<path d="M362.665 173.856V172.848H366.145V173.856H362.665Z" fill="#EBEBEC"/>
<path d="M17.4599 172.8V170.148H17.3639L15.5999 174.456L13.8359 170.148H13.7399V172.8V177H12.8159V168.624H14.1119L15.5879 172.32H15.6599L17.1359 168.624H18.3839V177H17.4599V172.8Z" fill="#6F7380"/>
<path d="M25.1352 177C24.7592 177 24.4912 176.904 24.3312 176.712C24.1712 176.52 24.0712 176.28 24.0312 175.992H23.9712C23.8352 176.352 23.6152 176.636 23.3112 176.844C23.0152 177.044 22.6152 177.144 22.1112 177.144C21.4632 177.144 20.9472 176.976 20.5632 176.64C20.1792 176.304 19.9872 175.844 19.9872 175.26C19.9872 174.684 20.1952 174.24 20.6112 173.928C21.0352 173.616 21.7152 173.46 22.6512 173.46H23.9712V172.848C23.9712 172.392 23.8432 172.052 23.5872 171.828C23.3312 171.596 22.9672 171.48 22.4952 171.48C22.0792 171.48 21.7392 171.564 21.4752 171.732C21.2112 171.892 20.9992 172.112 20.8392 172.392L20.1912 171.912C20.2712 171.752 20.3792 171.596 20.5152 171.444C20.6512 171.292 20.8192 171.16 21.0192 171.048C21.2192 170.928 21.4472 170.836 21.7032 170.772C21.9592 170.7 22.2432 170.664 22.5552 170.664C23.2832 170.664 23.8592 170.848 24.2832 171.216C24.7152 171.584 24.9312 172.096 24.9312 172.752V176.16H25.7952V177H25.1352ZM22.2792 176.34C22.5272 176.34 22.7512 176.312 22.9512 176.256C23.1592 176.192 23.3392 176.112 23.4912 176.016C23.6432 175.912 23.7592 175.792 23.8392 175.656C23.9272 175.512 23.9712 175.36 23.9712 175.2V174.18H22.6512C22.0752 174.18 21.6552 174.26 21.3912 174.42C21.1272 174.58 20.9952 174.812 20.9952 175.116V175.368C20.9952 175.688 21.1072 175.932 21.3312 176.1C21.5632 176.26 21.8792 176.34 22.2792 176.34Z" fill="#6F7380"/>
<path d="M30.2905 177C29.8185 177 29.4705 176.868 29.2465 176.604C29.0305 176.34 28.9225 176 28.9225 175.584V171.624H26.8585V170.808H28.3945C28.6025 170.808 28.7465 170.768 28.8265 170.688C28.9145 170.6 28.9585 170.452 28.9585 170.244V168.624H29.8825V170.808H32.7025V171.624H29.8825V176.184H32.7025V177H30.2905Z" fill="#6F7380"/>
<path d="M38.6499 175.992H38.6019C38.5379 176.144 38.4579 176.292 38.3619 176.436C38.2659 176.572 38.1459 176.692 38.0019 176.796C37.8659 176.9 37.7019 176.984 37.5099 177.048C37.3179 177.112 37.0939 177.144 36.8379 177.144C36.1899 177.144 35.6699 176.94 35.2779 176.532C34.8859 176.116 34.6899 175.532 34.6899 174.78V170.808H35.6499V174.612C35.6499 175.18 35.7739 175.604 36.0219 175.884C36.2699 176.156 36.6339 176.292 37.1139 176.292C37.3059 176.292 37.4939 176.268 37.6779 176.22C37.8619 176.172 38.0259 176.1 38.1699 176.004C38.3139 175.908 38.4299 175.788 38.5179 175.644C38.6059 175.492 38.6499 175.312 38.6499 175.104V170.808H39.6099V177H38.6499V175.992Z" fill="#6F7380"/>
<path d="M41.7052 176.184H43.5172V171.624H41.7052V170.808H44.4772V172.368H44.5372C44.6652 171.88 44.9052 171.5 45.2572 171.228C45.6172 170.948 46.0732 170.808 46.6252 170.808H47.4892V171.768H46.3252C45.7732 171.768 45.3252 171.928 44.9812 172.248C44.6452 172.568 44.4772 172.988 44.4772 173.508V176.184H46.8772V177H41.7052V176.184Z" fill="#6F7380"/>
<path d="M51.9605 169.44C51.6805 169.44 51.4845 169.384 51.3725 169.272C51.2605 169.152 51.2045 169.004 51.2045 168.828V168.636C51.2045 168.46 51.2605 168.316 51.3725 168.204C51.4845 168.084 51.6805 168.024 51.9605 168.024C52.2405 168.024 52.4365 168.084 52.5485 168.204C52.6605 168.316 52.7165 168.46 52.7165 168.636V168.828C52.7165 169.004 52.6605 169.152 52.5485 169.272C52.4365 169.384 52.2405 169.44 51.9605 169.44ZM49.2485 176.184H51.4805V171.624H49.2485V170.808H52.4405V176.184H54.5285V177H49.2485V176.184Z" fill="#6F7380"/>
<path d="M59.0718 177C58.5998 177 58.2518 176.868 58.0278 176.604C57.8118 176.34 57.7038 176 57.7038 175.584V171.624H55.6398V170.808H57.1758C57.3838 170.808 57.5278 170.768 57.6078 170.688C57.6958 170.6 57.7398 170.452 57.7398 170.244V168.624H58.6638V170.808H61.4838V171.624H58.6638V176.184H61.4838V177H59.0718Z" fill="#6F7380"/>
<path d="M67.9711 170.808H68.9311L65.8591 178.356C65.7871 178.532 65.7071 178.684 65.6191 178.812C65.5311 178.948 65.4271 179.056 65.3071 179.136C65.1871 179.224 65.0431 179.288 64.8751 179.328C64.7071 179.376 64.5071 179.4 64.2751 179.4H63.3631V178.584H64.8031L65.4991 176.88L63.0031 170.808H63.9871L65.0311 173.4L65.9551 175.752H66.0031L66.9271 173.4L67.9711 170.808Z" fill="#6F7380"/>
<path d="M80.8617 169.5V177H79.8537V169.5H77.0577V168.624H83.6577V169.5H80.8617Z" fill="#6F7380"/>
<path d="M87.937 169.44C87.657 169.44 87.461 169.384 87.349 169.272C87.237 169.152 87.181 169.004 87.181 168.828V168.636C87.181 168.46 87.237 168.316 87.349 168.204C87.461 168.084 87.657 168.024 87.937 168.024C88.217 168.024 88.413 168.084 88.525 168.204C88.637 168.316 88.693 168.46 88.693 168.636V168.828C88.693 169.004 88.637 169.152 88.525 169.272C88.413 169.384 88.217 169.44 87.937 169.44ZM85.225 176.184H87.457V171.624H85.225V170.808H88.417V176.184H90.505V177H85.225V176.184Z" fill="#6F7380"/>
<path d="M91.7964 177V170.808H92.6844V171.528H92.7324C92.8284 171.288 92.9643 171.084 93.1404 170.916C93.3164 170.748 93.5764 170.664 93.9204 170.664C94.2804 170.664 94.5483 170.756 94.7243 170.94C94.9004 171.116 95.0084 171.348 95.0484 171.636H95.0844C95.1964 171.356 95.3564 171.124 95.5644 170.94C95.7724 170.756 96.0603 170.664 96.4284 170.664C96.9324 170.664 97.2684 170.84 97.4364 171.192C97.6124 171.544 97.7004 172.048 97.7004 172.704V177H96.8124V172.86C96.8124 172.332 96.7564 171.968 96.6444 171.768C96.5404 171.56 96.3444 171.456 96.0564 171.456C95.8004 171.456 95.5923 171.54 95.4324 171.708C95.2723 171.868 95.1924 172.116 95.1924 172.452V177H94.3044V172.86C94.3044 172.332 94.2484 171.968 94.1364 171.768C94.0324 171.56 93.8404 171.456 93.5604 171.456C93.3044 171.456 93.0924 171.54 92.9244 171.708C92.7644 171.868 92.6844 172.116 92.6844 172.452V177H91.7964Z" fill="#6F7380"/>
<path d="M102.052 177.144C101.604 177.144 101.2 177.068 100.84 176.916C100.488 176.764 100.184 176.548 99.9277 176.268C99.6797 175.98 99.4877 175.64 99.3517 175.248C99.2157 174.848 99.1477 174.404 99.1477 173.916C99.1477 173.42 99.2157 172.972 99.3517 172.572C99.4957 172.172 99.6917 171.832 99.9397 171.552C100.188 171.264 100.484 171.044 100.828 170.892C101.18 170.74 101.568 170.664 101.992 170.664C102.408 170.664 102.784 170.74 103.12 170.892C103.464 171.044 103.756 171.256 103.996 171.528C104.236 171.792 104.42 172.108 104.548 172.476C104.676 172.844 104.74 173.248 104.74 173.688V174.144H100.156V174.432C100.156 174.704 100.2 174.956 100.288 175.188C100.376 175.42 100.5 175.62 100.66 175.788C100.828 175.956 101.028 176.088 101.26 176.184C101.5 176.272 101.764 176.316 102.052 176.316C102.468 176.316 102.828 176.22 103.132 176.028C103.436 175.836 103.668 175.572 103.828 175.236L104.536 175.716C104.352 176.132 104.044 176.476 103.612 176.748C103.188 177.012 102.668 177.144 102.052 177.144ZM101.992 171.456C101.728 171.456 101.484 171.504 101.26 171.6C101.036 171.696 100.84 171.828 100.672 171.996C100.512 172.164 100.384 172.364 100.288 172.596C100.2 172.82 100.156 173.068 100.156 173.34V173.424H103.708V173.292C103.708 173.02 103.664 172.772 103.576 172.548C103.496 172.324 103.38 172.132 103.228 171.972C103.084 171.804 102.904 171.676 102.688 171.588C102.48 171.5 102.248 171.456 101.992 171.456Z" fill="#6F7380"/>
<path d="M45.52 27.8322H48.64C50.0054 27.8322 51.024 28.3015 51.696 29.2402C52.368 30.1788 52.704 31.5708 52.704 33.4162C52.704 35.2615 52.368 36.6535 51.696 37.5922C51.024 38.5308 50.0054 39.0002 48.64 39.0002H45.52V27.8322ZM48.576 37.8322C49.472 37.8322 50.144 37.5228 50.592 36.9042C51.0507 36.2855 51.28 35.4108 51.28 34.2802V32.5522C51.28 31.4215 51.0507 30.5468 50.592 29.9282C50.144 29.3095 49.472 29.0002 48.576 29.0002H46.864V37.8322H48.576Z" fill="#6F7380"/>
<path d="M55.0338 39.0002V27.8322H61.9138V29.0002H56.3778V32.7602H61.7218V33.9282H56.3778V37.8322H61.9138V39.0002H55.0338Z" fill="#6F7380"/>
<path d="M64.5315 39.0002V37.9282H67.3155V28.9042H64.5315V27.8322H71.4435V28.9042H68.6595V37.9282H71.4435V39.0002H64.5315Z" fill="#6F7380"/>
<path d="M83.783 27.8322H87.575C88.535 27.8322 89.287 28.0935 89.831 28.6162C90.375 29.1388 90.647 29.8375 90.647 30.7122C90.647 31.3842 90.4817 31.9122 90.151 32.2962C89.831 32.6802 89.415 32.9522 88.903 33.1122V33.1602C89.5324 33.3095 90.0497 33.5922 90.455 34.0082C90.8604 34.4135 91.063 35.0055 91.063 35.7842C91.063 36.2322 90.9884 36.6535 90.839 37.0482C90.6897 37.4428 90.4764 37.7842 90.199 38.0722C89.9324 38.3602 89.6124 38.5895 89.239 38.7602C88.8764 38.9202 88.4817 39.0002 88.055 39.0002H83.783V27.8322ZM87.655 37.8322C88.2737 37.8322 88.759 37.6935 89.111 37.4162C89.463 37.1388 89.639 36.7122 89.639 36.1362V35.4802C89.639 34.9148 89.463 34.4935 89.111 34.2162C88.759 33.9282 88.2737 33.7842 87.655 33.7842H85.127V37.8322H87.655ZM87.431 32.6802C87.9964 32.6802 88.439 32.5575 88.759 32.3122C89.079 32.0562 89.239 31.6722 89.239 31.1602V30.5362C89.239 30.0242 89.079 29.6402 88.759 29.3842C88.439 29.1282 87.9964 29.0002 87.431 29.0002H85.127V32.6802H87.431Z" fill="#6F7380"/>
<path d="M96.7688 39.1922C96.1928 39.1922 95.6701 39.0908 95.2008 38.8882C94.7421 38.6855 94.3474 38.3975 94.0168 38.0242C93.6968 37.6402 93.4514 37.1868 93.2808 36.6642C93.1101 36.1308 93.0248 35.5335 93.0248 34.8722C93.0248 34.2215 93.1101 33.6295 93.2808 33.0962C93.4514 32.5628 93.6968 32.1095 94.0168 31.7362C94.3474 31.3522 94.7421 31.0588 95.2008 30.8562C95.6701 30.6535 96.1928 30.5522 96.7688 30.5522C97.3448 30.5522 97.8621 30.6535 98.3208 30.8562C98.7901 31.0588 99.1848 31.3522 99.5048 31.7362C99.8354 32.1095 100.086 32.5628 100.257 33.0962C100.427 33.6295 100.513 34.2215 100.513 34.8722C100.513 35.5335 100.427 36.1308 100.257 36.6642C100.086 37.1868 99.8354 37.6402 99.5048 38.0242C99.1848 38.3975 98.7901 38.6855 98.3208 38.8882C97.8621 39.0908 97.3448 39.1922 96.7688 39.1922ZM96.7688 38.0882C97.4834 38.0882 98.0594 37.8748 98.4968 37.4482C98.9341 37.0215 99.1528 36.3602 99.1528 35.4642V34.2802C99.1528 33.3842 98.9341 32.7228 98.4968 32.2962C98.0594 31.8695 97.4834 31.6562 96.7688 31.6562C96.0541 31.6562 95.4781 31.8695 95.0408 32.2962C94.6034 32.7228 94.3848 33.3842 94.3848 34.2802V35.4642C94.3848 36.3602 94.6034 37.0215 95.0408 37.4482C95.4781 37.8748 96.0541 38.0882 96.7688 38.0882Z" fill="#6F7380"/>
<path d="M103.131 39.0002V30.7442H104.411V32.0882H104.475C104.56 31.8855 104.667 31.6935 104.795 31.5122C104.923 31.3202 105.077 31.1548 105.259 31.0162C105.451 30.8775 105.675 30.7655 105.931 30.6802C106.187 30.5948 106.485 30.5522 106.827 30.5522C107.691 30.5522 108.384 30.8295 108.907 31.3842C109.429 31.9282 109.691 32.7015 109.691 33.7042V39.0002H108.411V33.9282C108.411 33.1708 108.245 32.6108 107.915 32.2482C107.584 31.8748 107.099 31.6882 106.459 31.6882C106.203 31.6882 105.952 31.7202 105.707 31.7842C105.461 31.8482 105.243 31.9442 105.051 32.0722C104.859 32.2002 104.704 32.3655 104.587 32.5682C104.469 32.7708 104.411 33.0055 104.411 33.2722V39.0002H103.131Z" fill="#6F7380"/>
<path d="M117.956 37.6562H117.892C117.359 38.6802 116.511 39.1922 115.348 39.1922C114.335 39.1922 113.54 38.8135 112.964 38.0562C112.399 37.2988 112.116 36.2375 112.116 34.8722C112.116 33.5068 112.399 32.4455 112.964 31.6882C113.54 30.9308 114.335 30.5522 115.348 30.5522C116.511 30.5522 117.359 31.0642 117.892 32.0882H117.956V27.1602H119.236V39.0002H117.956V37.6562ZM115.844 38.0562C116.132 38.0562 116.404 38.0188 116.66 37.9442C116.916 37.8695 117.14 37.7628 117.332 37.6242C117.524 37.4748 117.674 37.2988 117.78 37.0962C117.898 36.8828 117.956 36.6375 117.956 36.3602V33.3842C117.956 33.1068 117.898 32.8668 117.78 32.6642C117.674 32.4508 117.524 32.2748 117.332 32.1362C117.14 31.9868 116.916 31.8748 116.66 31.8002C116.404 31.7255 116.132 31.6882 115.844 31.6882C115.098 31.6882 114.516 31.9175 114.1 32.3762C113.695 32.8242 113.492 33.4215 113.492 34.1682V35.5762C113.492 36.3228 113.695 36.9255 114.1 37.3842C114.516 37.8322 115.098 38.0562 115.844 38.0562Z" fill="#6F7380"/>
<path d="M34.4032 33.7908L35.8619 32.3324C35.9057 32.2888 35.9404 32.237 35.9641 32.1799C35.9878 32.1229 36 32.0618 36 32C36 31.9382 35.9878 31.8771 35.9641 31.8201C35.9404 31.763 35.9057 31.7112 35.8619 31.6676L34.3837 30.1896C34.3179 30.1242 34.2731 30.0406 34.2549 29.9497C34.2367 29.8587 34.2459 29.7643 34.2814 29.6786L35.0815 27.7447C35.1052 27.6877 35.1174 27.6266 35.1173 27.5649C35.1173 27.5032 35.1051 27.4421 35.0814 27.3851C35.0577 27.3281 35.023 27.2764 34.9792 27.2328C34.9354 27.1893 34.8835 27.1549 34.8263 27.1315L32.9178 26.3459C32.8316 26.3105 32.7579 26.2503 32.7062 26.1729C32.6544 26.0955 32.6269 26.0044 32.6271 25.9113V23.8485C32.6271 23.7238 32.5776 23.6042 32.4894 23.5161C32.4012 23.4279 32.2816 23.3784 32.1569 23.3784H30.0652C29.9724 23.3785 29.8817 23.3511 29.8045 23.2997C29.7273 23.2483 29.6671 23.1751 29.6314 23.0895L28.8269 21.1574C28.8032 21.1005 28.7685 21.0488 28.7248 21.0053C28.681 20.9618 28.6292 20.9274 28.5721 20.9039C28.5151 20.8805 28.454 20.8685 28.3923 20.8687C28.3306 20.8689 28.2696 20.8812 28.2127 20.905L26.3077 21.6986C26.2215 21.7344 26.1267 21.7437 26.0353 21.7255C25.9438 21.7073 25.8598 21.6624 25.7939 21.5964L24.3351 20.138C24.2915 20.0943 24.2397 20.0596 24.1827 20.0359C24.1256 20.0122 24.0644 20 24.0027 20C23.9409 20 23.8797 20.0122 23.8227 20.0359C23.7656 20.0596 23.7138 20.0943 23.6702 20.138L22.1919 21.616C22.1264 21.6817 22.0429 21.7265 21.9519 21.7447C21.8609 21.7629 21.7665 21.7537 21.6808 21.7182L19.7464 20.9228C19.6894 20.8991 19.6283 20.8869 19.5666 20.8869C19.5048 20.8869 19.4437 20.8991 19.3867 20.9228C19.3297 20.9465 19.278 20.9813 19.2344 21.025C19.1909 21.0688 19.1565 21.1207 19.1331 21.1778L18.3473 23.086C18.3119 23.1721 18.2517 23.2458 18.1742 23.2975C18.0968 23.3493 18.0057 23.3768 17.9126 23.3766H15.8494C15.7876 23.3766 15.7265 23.3887 15.6694 23.4124C15.6123 23.436 15.5605 23.4706 15.5168 23.5143C15.4732 23.5579 15.4385 23.6098 15.4149 23.6668C15.3913 23.7238 15.3791 23.785 15.3791 23.8467V25.9388C15.3792 26.0316 15.3518 26.1222 15.3004 26.1994C15.249 26.2766 15.1758 26.3369 15.0902 26.3725L13.1577 27.1768C13.1007 27.2005 13.049 27.2353 13.0055 27.279C12.962 27.3227 12.9276 27.3745 12.9041 27.4316C12.8807 27.4886 12.8687 27.5497 12.8689 27.6114C12.8691 27.673 12.8814 27.734 12.9052 27.7909L13.699 29.6955C13.7347 29.7816 13.7441 29.8764 13.7259 29.9679C13.7077 30.0593 13.6628 30.1433 13.5968 30.2092L12.138 31.6676C12.0943 31.7112 12.0596 31.763 12.0359 31.8201C12.0122 31.8771 12 31.9382 12 32C12 32.0618 12.0122 32.1229 12.0359 32.1799C12.0596 32.237 12.0943 32.2888 12.138 32.3324L13.6163 33.8104C13.6821 33.8758 13.7269 33.9594 13.7451 34.0503C13.7633 34.1413 13.7541 34.2357 13.7186 34.3214L12.923 36.2553C12.8993 36.3123 12.8871 36.3734 12.8871 36.4351C12.8871 36.4968 12.8993 36.5579 12.923 36.6149C12.9467 36.6719 12.9815 36.7236 13.0252 36.7672C13.069 36.8107 13.121 36.8451 13.1781 36.8685L15.0866 37.6542C15.1728 37.6895 15.2465 37.7497 15.2983 37.8271C15.3501 37.9045 15.3776 37.9956 15.3773 38.0887V40.1515C15.3773 40.2762 15.4269 40.3958 15.5151 40.4839C15.6032 40.5721 15.7229 40.6216 15.8476 40.6216H17.9401C18.0329 40.6215 18.1236 40.6489 18.2008 40.7003C18.278 40.7517 18.3383 40.8249 18.3739 40.9105L19.1784 42.8426C19.2021 42.8995 19.2369 42.9512 19.2806 42.9947C19.3243 43.0382 19.3762 43.0726 19.4332 43.0961C19.4903 43.1195 19.5514 43.1315 19.6131 43.1313C19.6747 43.1311 19.7358 43.1188 19.7927 43.095L21.6977 42.3014C21.7838 42.2656 21.8786 42.2563 21.9701 42.2745C22.0615 42.2927 22.1456 42.3376 22.2115 42.4036L23.6702 43.862C23.7138 43.9057 23.7656 43.9404 23.8227 43.9641C23.8797 43.9878 23.9409 44 24.0027 44C24.0644 44 24.1256 43.9878 24.1827 43.9641C24.2397 43.9404 24.2915 43.9057 24.3351 43.862L25.8134 42.384C25.8789 42.3183 25.9625 42.2735 26.0535 42.2553C26.1445 42.2371 26.2388 42.2463 26.3246 42.2818L28.2589 43.0817C28.3159 43.1054 28.377 43.1176 28.4388 43.1175C28.5005 43.1175 28.5616 43.1053 28.6186 43.0816C28.6756 43.0579 28.7274 43.0232 28.7709 42.9794C28.8144 42.9357 28.8489 42.8837 28.8723 42.8266L29.6581 40.9185C29.6934 40.8323 29.7537 40.7587 29.8311 40.7069C29.9085 40.6551 29.9996 40.6276 30.0928 40.6279H32.156C32.2807 40.6279 32.4003 40.5783 32.4885 40.4902C32.5767 40.402 32.6262 40.2824 32.6262 40.1577V38.0612C32.6261 37.9685 32.6535 37.8778 32.7049 37.8006C32.7564 37.7234 32.8295 37.6631 32.9151 37.6275L34.8477 36.8232C34.9046 36.7995 34.9563 36.7647 34.9998 36.721C35.0433 36.6773 35.0778 36.6255 35.1012 36.5684C35.1247 36.5114 35.1366 36.4503 35.1364 36.3886C35.1363 36.327 35.1239 36.266 35.1001 36.2091L34.3063 34.3045C34.2699 34.2189 34.2597 34.1244 34.2769 34.033C34.2942 33.9416 34.3381 33.8573 34.4032 33.7908Z" fill="#55575F"/>
<path d="M29.2208 30.4636H30.6668V29.198H28.4014C27.9381 28.4243 27.2905 27.7856 26.5201 27.3426C25.7497 26.8996 24.8822 26.667 23.9999 26.667C23.1177 26.667 22.2502 26.8996 21.4798 27.3426C20.7094 27.7856 20.0617 28.4243 19.5985 29.198H17.3335V30.4636H19.044C18.7547 31.4556 18.7517 32.5129 19.0353 33.5067H17.3335V34.7723H19.5802C20.0416 35.5544 20.6905 36.2008 21.4646 36.6494C22.2387 37.098 23.1118 37.3337 23.9999 37.3337C24.888 37.3337 25.7612 37.098 26.5353 36.6494C27.3094 36.2008 27.9583 35.5544 28.4197 34.7723H30.6668V33.5067H28.965C29.2489 32.513 29.2457 31.4555 28.9559 30.4636H29.2208ZM24.0019 35.541C23.3224 35.541 22.6581 35.3333 22.0931 34.9443C21.5281 34.5552 21.0877 34.0023 20.8277 33.3553C20.5676 32.7084 20.4996 31.9965 20.6322 31.3097C20.7647 30.6229 21.092 29.992 21.5725 29.4969C22.053 29.0017 22.6651 28.6645 23.3316 28.5279C23.9981 28.3913 24.6889 28.4614 25.3167 28.7294C25.9445 28.9973 26.4811 29.4511 26.8586 30.0334C27.2362 30.6156 27.4377 31.3001 27.4377 32.0004C27.4366 32.9394 27.0741 33.8396 26.4296 34.5034C25.7851 35.1672 24.9114 35.5404 24.0002 35.541H24.0019ZM24.0019 30.78C24.2361 30.78 24.4651 30.8516 24.6598 30.9857C24.8546 31.1198 25.0064 31.3104 25.096 31.5334C25.1856 31.7564 25.2091 32.0018 25.1634 32.2385C25.1177 32.4752 25.0049 32.6927 24.8393 32.8633C24.6737 33.034 24.4627 33.1502 24.2329 33.1973C24.0032 33.2444 23.7651 33.2202 23.5487 33.1279C23.3323 33.0355 23.1474 32.8791 23.0172 32.6784C22.8871 32.4777 22.8177 32.2418 22.8177 32.0004C22.8177 31.677 22.9422 31.3669 23.1639 31.1381C23.3856 30.9093 23.6864 30.7805 24.0002 30.78H24.0019Z" fill="#EBEBEC"/>
<g filter="url(#filter0_b_1679_7101)">
<rect x="259" y="16" width="109" height="32" rx="8" fill="#55575F"/>
</g>
<defs>
<filter id="filter0_b_1679_7101" x="241" y="-2" width="145" height="68" filterUnits="userSpaceOnUse" color-interpolation-filters="sRGB">
<feFlood flood-opacity="0" result="BackgroundImageFix"/>
<feGaussianBlur in="BackgroundImage" stdDeviation="9"/>
<feComposite in2="SourceAlpha" operator="in" result="effect1_backgroundBlur_1679_7101"/>
<feBlend mode="normal" in="SourceGraphic" in2="effect1_backgroundBlur_1679_7101" result="shape"/>
</filter>
</defs>
</svg>
