<svg width="34" height="28" viewBox="0 0 34 28" fill="currentColor" xmlns="http://www.w3.org/2000/svg">
<path d="M28.7824 2.28381C26.6154 1.22673 24.2916 0.447926 21.8619 0.00187114C21.8176 -0.00673758 21.7734 0.0147761 21.7506 0.0578045C21.4517 0.622901 21.1207 1.36012 20.8889 1.93956C18.2756 1.52364 15.6757 1.52364 13.116 1.93956C12.8841 1.34724 12.541 0.622901 12.2408 0.0578045C12.218 0.0162117 12.1738 -0.00530195 12.1296 0.00187114C9.70121 0.446501 7.37738 1.22531 5.20899 2.28381C5.19022 2.29241 5.17413 2.30677 5.16345 2.3254C0.755638 9.32612 -0.451846 16.1548 0.140505 22.8987C0.143185 22.9317 0.160607 22.9633 0.184731 22.9833C3.09288 25.2538 5.90992 26.6322 8.67465 27.5458C8.71889 27.5601 8.76577 27.5429 8.79393 27.5042C9.44793 26.5547 10.0309 25.5536 10.5308 24.5008C10.5603 24.4391 10.5321 24.366 10.4718 24.3416C9.5471 23.9687 8.6666 23.514 7.81962 22.9977C7.75262 22.9561 7.74726 22.8542 7.80889 22.8055C7.98713 22.6635 8.16541 22.5157 8.3356 22.3666C8.36639 22.3393 8.4093 22.3336 8.4455 22.3508C14.0098 25.0516 20.0339 25.0516 25.5325 22.3508C25.5687 22.3322 25.6116 22.3379 25.6438 22.3652C25.814 22.5143 25.9922 22.6635 26.1718 22.8055C26.2334 22.8542 26.2294 22.9561 26.1624 22.9977C25.3154 23.5241 24.4349 23.9687 23.5089 24.3402C23.4486 24.3646 23.4218 24.4391 23.4513 24.5008C23.9619 25.5521 24.5448 26.5532 25.1868 27.5028C25.2136 27.5429 25.2618 27.5601 25.3061 27.5458C28.0842 26.6322 30.9012 25.2538 33.8094 22.9833C33.8348 22.9633 33.8509 22.9332 33.8536 22.9002C34.5625 15.1034 32.6662 8.33074 28.8266 2.32683C28.8173 2.30677 28.8012 2.29241 28.7824 2.28381ZM11.3617 18.7924C9.68646 18.7924 8.3061 17.1573 8.3061 15.1493C8.3061 13.1413 9.65969 11.5062 11.3617 11.5062C13.0771 11.5062 14.4441 13.1557 14.4172 15.1493C14.4172 17.1573 13.0637 18.7924 11.3617 18.7924ZM22.6592 18.7924C20.984 18.7924 19.6037 17.1573 19.6037 15.1493C19.6037 13.1413 20.9572 11.5062 22.6592 11.5062C24.3746 11.5062 25.7416 13.1557 25.7148 15.1493C25.7148 17.1573 24.3746 18.7924 22.6592 18.7924Z" fill="#55575F"/>
</svg>
