<svg width="31" height="30" viewBox="0 0 31 30" fill="currentColor" xmlns="http://www.w3.org/2000/svg">
<path d="M31 15.4084C31 6.8985 24.0605 0 15.5 0C6.93951 0 0 6.8985 0 15.4084C0 22.1634 4.37211 27.902 10.456 29.9825C10.8269 29.7163 11.2547 29.3881 11.2547 28.8368C11.2547 27.9889 11.2357 25.8087 11.2357 25.8087C10.6947 25.8875 10.1485 25.9251 9.60182 25.9213C7.18222 25.9213 6.41545 24.3955 6.05275 23.5409C5.57818 22.4282 4.96803 21.9059 4.31177 21.4881C3.9111 21.232 3.8189 20.9294 4.28262 20.8431C6.42427 20.4441 6.97137 23.2437 8.40185 23.6905C9.42284 24.0086 10.7354 23.8711 11.3882 23.4533C11.4743 22.5987 12.098 21.8587 12.6174 21.4692C8.97946 21.1241 6.8229 19.8746 5.70225 17.867L5.58225 17.6419L5.30158 17.0043L5.21819 16.7758C4.86837 15.7568 4.71312 14.5896 4.71312 13.2855C4.71312 10.9712 5.44259 10.0977 6.42223 8.86373C5.6731 6.22523 6.69341 4.42175 6.69341 4.42175C6.69341 4.42175 8.26829 4.09893 11.2445 6.20636C12.8573 5.52298 17.1589 5.46502 19.1942 6.05405C20.4423 5.2379 22.727 4.08006 23.649 4.40423C23.8985 4.80119 24.4361 5.9597 23.9757 8.50317C24.2883 9.06119 25.9147 10.25 25.9208 13.6097C25.895 14.849 25.7642 15.8957 25.5222 16.7806L25.3866 17.2328C25.3866 17.2328 25.31 17.4464 25.2259 17.65L25.1269 17.8744C24.0476 20.2177 21.8341 21.0925 18.2572 21.4564C19.4165 22.1775 19.7487 23.0826 19.7487 25.5317C19.7487 27.9809 19.7162 28.3097 19.7236 28.8732C19.7304 29.3712 20.1304 29.7291 20.4911 30C26.6042 27.9337 31 22.1816 31 15.4084Z" fill="#55575F"/>
</svg>
