<svg width="32" height="32" viewBox="0 0 32 32" fill="currentColor" xmlns="http://www.w3.org/2000/svg">
<path d="M17.7937 15.9511C17.7937 20.3423 14.2581 23.902 9.89698 23.902C5.53585 23.902 2 20.3423 2 15.9511C2 11.56 5.53558 7.99997 9.89698 7.99997C14.2584 7.99997 17.7937 11.56 17.7937 15.9511Z" fill="#4E5053"/>
<path d="M26.4567 15.9512C26.4567 20.0845 24.6889 23.4366 22.5082 23.4366C20.3275 23.4366 18.5597 20.0845 18.5597 15.9512C18.5597 11.8178 20.3272 8.46576 22.5079 8.46576C24.6886 8.46576 26.4567 11.8168 26.4567 15.9512Z" fill="#4E5053"/>
<path d="M28.6113 22.6569C29.3784 22.6569 30 19.6536 30 15.9512C30 12.2477 29.3781 9.24544 28.6113 9.24544C27.8445 9.24544 27.2229 12.2479 27.2229 15.9512C27.2229 19.6545 27.8443 22.6569 28.6113 22.6569Z" fill="#4E5053"/>
</svg>
