<svg width="32" height="32" viewBox="0 0 32 32" fill="none" xmlns="http://www.w3.org/2000/svg">
<path d="M16 32C24.8366 32 32 24.8366 32 16C32 7.16344 24.8366 0 16 0C7.16344 0 0 7.16344 0 16C0 24.8366 7.16344 32 16 32Z" fill="#55575F"/>
<path d="M7.32132 15.6534L22.748 9.70537C23.464 9.4467 24.0893 9.88003 23.8573 10.9627L23.8587 10.9614L21.232 23.336C21.0373 24.2134 20.516 24.4267 19.7867 24.0134L15.7867 21.0654L13.8573 22.924C13.644 23.1374 13.464 23.3174 13.0507 23.3174L13.3347 19.2467L20.748 12.5494C21.0707 12.2654 20.676 12.1054 20.2507 12.388L11.0893 18.156L7.13998 16.924C6.28265 16.652 6.26398 16.0667 7.32132 15.6534Z" fill="#181A1F"/>
</svg>
