<svg width="34" height="28" viewBox="0 0 34 28" fill="none" xmlns="http://www.w3.org/2000/svg">
<path d="M34 3.31477C32.7356 3.87692 31.3884 4.24954 29.9837 4.43046C31.4287 3.556 32.5316 2.18185 33.0501 0.525538C31.7029 1.33969 30.2154 1.91477 28.6301 2.23569C27.3509 0.855077 25.5276 0 23.5386 0C19.6796 0 16.5729 3.17477 16.5729 7.06677C16.5729 7.62677 16.6196 8.16523 16.7344 8.67785C10.9395 8.39139 5.81187 5.57631 2.36725 1.288C1.76587 2.34554 1.41313 3.556 1.41313 4.85908C1.41313 7.30585 2.65625 9.47477 4.50925 10.7305C3.38937 10.7089 2.29075 10.3794 1.36 9.86031C1.36 9.88185 1.36 9.90985 1.36 9.93785C1.36 13.3711 3.77612 16.2228 6.9445 16.8797C6.37712 17.0369 5.75875 17.1123 5.117 17.1123C4.67075 17.1123 4.22025 17.0865 3.79737 16.9917C4.7005 19.7895 7.26325 21.8465 10.3105 21.9132C7.939 23.7935 4.92788 24.9265 1.66813 24.9265C1.0965 24.9265 0.54825 24.9006 0 24.8295C3.08762 26.8477 6.74688 28 10.693 28C23.5195 28 30.532 17.2308 30.532 7.896C30.532 7.58369 30.5214 7.28215 30.5065 6.98277C31.8899 5.98769 33.0522 4.74492 34 3.31477Z" fill="#55575F"/>
</svg>
