<svg width="81" height="78" viewBox="0 0 81 78" fill="none" xmlns="http://www.w3.org/2000/svg">
<path d="M5.82521 21.4927L6.7968 25.0141C6.79758 25.0069 6.79758 24.9996 6.7968 24.9924L5.8125 21.4709V21.4927" fill="url(#paint0_linear_479_4132)"/>
<path d="M5.82521 21.4927L6.7968 25.0141C6.79758 25.0069 6.79758 24.9996 6.7968 24.9924L5.8125 21.4709V21.4927" stroke="#FFBA93" stroke-width="0.5"/>
<path d="M7.55952 27.4613L8.53111 30.9827L6.79678 25.0141L5.8252 21.4927L7.55952 27.4613Z" fill="url(#paint1_linear_479_4132)" stroke="#FFBA93" stroke-width="0.5"/>
<path d="M7.56128 27.4739L8.5365 30.9953V30.9826L7.56491 27.4612V27.4739" fill="url(#paint2_linear_479_4132)"/>
<path d="M7.56128 27.4739L8.5365 30.9953V30.9826L7.56491 27.4612V27.4739" stroke="#FFBA93" stroke-width="0.5"/>
<path d="M71.6406 14.4553L72.6122 17.9767C72.6465 18.1042 72.6618 18.2361 72.6576 18.368L71.686 14.8466C71.6911 14.7146 71.6758 14.5826 71.6406 14.4553Z" fill="url(#paint3_linear_479_4132)"/>
<path d="M71.6406 14.4553L72.6122 17.9767C72.6465 18.1042 72.6618 18.2361 72.6576 18.368L71.686 14.8466C71.6911 14.7146 71.6758 14.5826 71.6406 14.4553" stroke="#FFBA93" stroke-width="0.5"/>
<path d="M71.686 14.8411L72.6576 18.3625V18.4404L71.686 14.919V14.8411Z" fill="url(#paint4_linear_479_4132)" stroke="#FFBA93" stroke-width="0.5"/>
<path d="M71.6807 14.9189L72.6522 18.4403C72.6522 18.4639 72.6522 18.4874 72.6522 18.511L71.6825 14.9878C71.6825 14.966 71.6825 14.9425 71.6825 14.9189" fill="url(#paint5_linear_479_4132)"/>
<path d="M71.6807 14.9189L72.6522 18.4403C72.6522 18.4639 72.6522 18.4874 72.6522 18.511L71.6825 14.9878C71.6825 14.966 71.6825 14.9425 71.6825 14.9189" stroke="#FFBA93" stroke-width="0.5"/>
<path d="M1.31398 34.9968L2.28375 38.5183C2.16294 38.3752 2.07326 38.2086 2.02042 38.0292C2.01957 38.0238 2.01957 38.0183 2.02042 38.0129L1.04883 34.4915C1.04883 34.4915 1.04883 34.5023 1.04883 34.5078C1.10202 34.6875 1.19234 34.8541 1.31398 34.9968Z" fill="url(#paint6_linear_479_4132)"/>
<path d="M1.31398 34.9968L2.28375 38.5183C2.16294 38.3752 2.07326 38.2086 2.02042 38.0292C2.01957 38.0238 2.01957 38.0183 2.02042 38.0129L1.04883 34.4915C1.04883 34.4915 1.04883 34.5023 1.04883 34.5078C1.10202 34.6875 1.19234 34.8541 1.31398 34.9968" stroke="#FFBA93" stroke-width="0.5"/>
<path d="M71.6733 14.9878L72.6449 18.5092L71.7278 24.7369L70.7581 21.2155L71.6733 14.9878Z" fill="url(#paint7_linear_479_4132)" stroke="#FFBA93" stroke-width="0.5"/>
<path d="M70.7562 21.2156L71.7351 24.737C71.7351 24.7623 71.7351 24.7859 71.726 24.8112L70.7544 21.2898C70.7544 21.2645 70.7544 21.2409 70.7635 21.2156" fill="url(#paint8_linear_479_4132)"/>
<path d="M70.7562 21.2156L71.7351 24.737C71.7351 24.7623 71.7351 24.7859 71.726 24.8112L70.7544 21.2898C70.7544 21.2645 70.7544 21.2409 70.7635 21.2156" stroke="#FFBA93" stroke-width="0.5"/>
<path d="M70.7471 21.2898L71.7187 24.8112C71.7168 24.8389 71.7168 24.8668 71.7187 24.8945L70.7471 21.3731V21.2898Z" fill="url(#paint9_linear_479_4132)" stroke="#FFBA93" stroke-width="0.5"/>
<path d="M70.7416 21.3733L71.7132 24.8947C71.7091 25.0242 71.7244 25.1537 71.7586 25.2787L70.787 21.7573C70.7528 21.6323 70.7375 21.5028 70.7416 21.3733Z" fill="url(#paint10_linear_479_4132)"/>
<path d="M70.7416 21.3733L71.7132 24.8947C71.7091 25.0242 71.7244 25.1537 71.7586 25.2787L70.787 21.7573C70.7528 21.6323 70.7375 21.5028 70.7416 21.3733" stroke="#FFBA93" stroke-width="0.5"/>
<path d="M5.46182 39.8623L6.43341 43.3837L2.28555 38.5182L1.31396 34.9968L5.46182 39.8623Z" fill="url(#paint11_linear_479_4132)" stroke="#FFBA93" stroke-width="0.5"/>
<path d="M5.73069 40.3586L6.70227 43.88C6.65101 43.6949 6.55922 43.5236 6.4335 43.3782L5.46191 39.855C5.58732 40.0012 5.67906 40.1731 5.73069 40.3586Z" fill="url(#paint12_linear_479_4132)"/>
<path d="M5.73069 40.3586L6.70227 43.88C6.65101 43.6949 6.55922 43.5236 6.4335 43.3782L5.46191 39.855C5.58732 40.0012 5.67906 40.1731 5.73069 40.3586" stroke="#FFBA93" stroke-width="0.5"/>
<path d="M78.0913 26.3562L79.0629 29.8776C79.0977 30.0026 79.1136 30.132 79.1101 30.2616L78.1385 26.7402C78.142 26.6106 78.1261 26.4812 78.0913 26.3562Z" fill="url(#paint13_linear_479_4132)" stroke="#FFBA93" stroke-width="0.5"/>
<path d="M78.1294 26.7402L79.101 30.2616V30.3504L78.1294 26.8272V26.7402Z" fill="url(#paint14_linear_479_4132)" stroke="#FFBA93" stroke-width="0.5"/>
<path d="M78.1238 26.8271L79.0954 30.3504C79.0954 30.3703 79.0954 30.392 79.0954 30.412C79.0706 30.5763 79.0172 30.7351 78.9374 30.8811L77.9658 27.3597C78.0456 27.2137 78.099 27.0549 78.1238 26.8905C78.1238 26.8706 78.1238 26.8489 78.1238 26.8271Z" fill="url(#paint15_linear_479_4132)"/>
<path d="M78.1238 26.8271L79.0954 30.3504C79.0954 30.3703 79.0954 30.392 79.0954 30.412C79.0706 30.5763 79.0172 30.7351 78.9374 30.8811L77.9658 27.3597C78.0456 27.2137 78.099 27.0549 78.1238 26.8905C78.1238 26.8706 78.1238 26.8489 78.1238 26.8271" stroke="#FFBA93" stroke-width="0.5"/>
<path d="M77.9568 27.3596L78.9284 30.881L78.8903 30.9462L77.9187 27.423L77.9568 27.3596Z" fill="url(#paint16_linear_479_4132)" stroke="#FFBA93" stroke-width="0.5"/>
<path d="M2.67974 48.9774L3.65133 52.4952C3.47833 52.4113 3.32442 52.293 3.19913 52.1474C3.07754 52.0053 2.98721 51.8393 2.93399 51.6601C2.9333 51.6541 2.9333 51.648 2.93399 51.642L1.9624 48.1206C1.9624 48.1206 1.9624 48.1315 1.9624 48.1387C2.01562 48.3179 2.10596 48.4839 2.22755 48.626C2.35333 48.7711 2.50712 48.8893 2.67974 48.9738" fill="url(#paint17_linear_479_4132)"/>
<path d="M2.67974 48.9774L3.65133 52.4952C3.47833 52.4113 3.32442 52.293 3.19913 52.1474C3.07754 52.0053 2.98721 51.8393 2.93399 51.6601C2.9333 51.6541 2.9333 51.648 2.93399 51.642L1.9624 48.1206C1.9624 48.1206 1.9624 48.1315 1.9624 48.1387C2.01562 48.3179 2.10596 48.4839 2.22755 48.626C2.35333 48.7711 2.50712 48.8893 2.67974 48.9738" stroke="#FFBA93" stroke-width="0.5"/>
<path d="M77.9188 27.4231L78.8904 30.9445L75.4308 36.5653L74.4592 33.0439L77.9188 27.4231Z" fill="url(#paint18_linear_479_4132)" stroke="#FFBA93" stroke-width="0.5"/>
<path d="M8.53282 51.8719L9.5044 55.3934L3.65127 52.4987L2.67969 48.9773L8.53282 51.8719Z" fill="url(#paint19_linear_479_4132)" stroke="#FFBA93" stroke-width="0.5"/>
<path d="M74.4591 33.0439L75.4306 36.5672C75.4179 36.5853 75.407 36.6052 75.3961 36.6233L74.4246 33.1019L74.4591 33.0439Z" fill="url(#paint20_linear_479_4132)" stroke="#FFBA93" stroke-width="0.5"/>
<path d="M74.4245 33.1018L75.3961 36.6232C75.3037 36.7912 75.2462 36.976 75.2272 37.1666L74.2556 33.6452C74.2746 33.4546 74.3321 33.2698 74.4245 33.1018Z" fill="url(#paint21_linear_479_4132)"/>
<path d="M74.4245 33.1018L75.3961 36.6232C75.3037 36.7912 75.2462 36.976 75.2272 37.1666L74.2556 33.6452C74.2746 33.4546 74.3321 33.2698 74.4245 33.1018" stroke="#FFBA93" stroke-width="0.5"/>
<path d="M74.2556 33.6399L75.2272 37.1613V37.2519L74.2556 33.7305V33.6399Z" fill="url(#paint22_linear_479_4132)" stroke="#FFBA93" stroke-width="0.5"/>
<path d="M74.2502 33.7305L75.2218 37.2519C75.2218 37.2935 75.2218 37.3352 75.2218 37.3769C75.227 37.4639 75.2417 37.5502 75.2654 37.6341L74.2938 34.1127C74.2716 34.0285 74.2576 33.9423 74.2521 33.8555C74.2521 33.8138 74.2521 33.7721 74.2521 33.7305" fill="url(#paint23_linear_479_4132)"/>
<path d="M74.2502 33.7305L75.2218 37.2519C75.2218 37.2935 75.2218 37.3352 75.2218 37.3769C75.227 37.4639 75.2417 37.5502 75.2654 37.6341L74.2938 34.1127C74.2716 34.0285 74.2576 33.9423 74.2521 33.8555C74.2521 33.8138 74.2521 33.7721 74.2521 33.7305" stroke="#FFBA93" stroke-width="0.5"/>
<path d="M9.25215 52.7234L10.2237 56.2448C10.1982 56.1503 10.1616 56.0591 10.1148 55.9731C9.97644 55.7216 9.76323 55.519 9.50457 55.3935L8.53662 51.8721C8.79562 51.9971 9.00897 52.1998 9.14681 52.4517C9.19366 52.5377 9.23023 52.6289 9.25578 52.7234" fill="url(#paint24_linear_479_4132)"/>
<path d="M9.25215 52.7234L10.2237 56.2448C10.1982 56.1503 10.1616 56.0591 10.1148 55.9731C9.97644 55.7216 9.76323 55.519 9.50457 55.3935L8.53662 51.8721C8.79562 51.9971 9.00897 52.1998 9.14681 52.4517C9.19366 52.5377 9.23023 52.6289 9.25578 52.7234" stroke="#FFBA93" stroke-width="0.5"/>
<path d="M78.9812 39.9963L79.9528 43.5177C79.987 43.6416 80.0023 43.7698 79.9982 43.8981L79.0266 40.3767C79.0307 40.2484 79.0154 40.1201 78.9812 39.9963Z" fill="url(#paint25_linear_479_4132)"/>
<path d="M78.9812 39.9963L79.9528 43.5177C79.987 43.6416 80.0023 43.7698 79.9982 43.8981L79.0266 40.3767C79.0307 40.2484 79.0154 40.1201 78.9812 39.9963" stroke="#FFBA93" stroke-width="0.5"/>
<path d="M79.0266 40.3677L79.9982 43.8891C80.0001 43.9192 80.0001 43.9495 79.9982 43.9797L79.0266 40.4582C79.0285 40.4281 79.0285 40.3978 79.0266 40.3677Z" fill="url(#paint26_linear_479_4132)"/>
<path d="M79.0266 40.3677L79.9982 43.8891C80.0001 43.9192 80.0001 43.9495 79.9982 43.9797L79.0266 40.4582C79.0285 40.4281 79.0285 40.3978 79.0266 40.3677" stroke="#FFBA93" stroke-width="0.5"/>
<path d="M79.0211 40.4583L79.9927 43.9815C79.9927 44.005 79.9927 44.0268 79.9836 44.0485C79.9597 44.2137 79.9061 44.3732 79.8256 44.5195L78.854 40.9981C78.9343 40.8515 78.9884 40.6921 79.0138 40.5271C79.0138 40.5053 79.0138 40.4836 79.0138 40.4601" fill="url(#paint27_linear_479_4132)"/>
<path d="M79.0211 40.4583L79.9927 43.9815C79.9927 44.005 79.9927 44.0268 79.9836 44.0485C79.9597 44.2137 79.9061 44.3732 79.8256 44.5195L78.854 40.9981C78.9343 40.8515 78.9884 40.6921 79.0138 40.5271C79.0138 40.5053 79.0138 40.4836 79.0138 40.4601" stroke="#FFBA93" stroke-width="0.5"/>
<path d="M78.854 40.9963L79.8256 44.525L79.7892 44.5866C79.7507 44.65 79.7077 44.7105 79.6603 44.7677L78.6887 41.2463C78.7361 41.1891 78.7792 41.1286 78.8177 41.0652L78.854 41.0036" fill="url(#paint28_linear_479_4132)"/>
<path d="M78.854 40.9963L79.8256 44.525L79.7892 44.5866C79.7507 44.65 79.7077 44.7105 79.6603 44.7677L78.6887 41.2463C78.7361 41.1891 78.7792 41.1286 78.8177 41.0652L78.854 41.0036" stroke="#FFBA93" stroke-width="0.5"/>
<path d="M78.6887 41.2354L79.6603 44.7568C79.6053 44.8224 79.5445 44.883 79.4787 44.9379L78.5071 41.4165C78.5729 41.3616 78.6337 41.301 78.6887 41.2354Z" fill="url(#paint29_linear_479_4132)"/>
<path d="M78.6887 41.2354L79.6603 44.7568C79.6053 44.8224 79.5445 44.883 79.4787 44.9379L78.5071 41.4165C78.5729 41.3616 78.6337 41.301 78.6887 41.2354" stroke="#FFBA93" stroke-width="0.5"/>
<path d="M78.5072 41.4182L79.4788 44.9396L79.3898 45.0121L78.4182 41.4907L78.5072 41.4182Z" fill="url(#paint30_linear_479_4132)" stroke="#FFBA93" stroke-width="0.5"/>
<path d="M9.68797 61.0415L10.6596 64.5629C10.2657 64.5342 9.89907 64.352 9.63894 64.0557C9.51384 63.9067 9.42274 63.7324 9.37198 63.5448L8.40039 60.0234C8.45202 60.2089 8.54376 60.3808 8.66917 60.527C8.92837 60.8235 9.29458 61.0059 9.68797 61.0342" fill="url(#paint31_linear_479_4132)"/>
<path d="M9.68797 61.0415L10.6596 64.5629C10.2657 64.5342 9.89907 64.352 9.63894 64.0557C9.51384 63.9067 9.42274 63.7324 9.37198 63.5448L8.40039 60.0234C8.45202 60.2089 8.54376 60.3808 8.66917 60.527C8.92837 60.8235 9.29458 61.0059 9.68797 61.0342" stroke="#FFBA93" stroke-width="0.5"/>
<path d="M78.418 41.4907L79.3896 45.0121L73.9996 49.0154L73.0298 45.494L78.418 41.4907Z" fill="url(#paint32_linear_479_4132)" stroke="#FFBA93" stroke-width="0.5"/>
<path d="M16.4982 61.6138L17.4698 65.1352L10.6596 64.561L9.68799 61.0396L16.4982 61.6138Z" fill="url(#paint33_linear_479_4132)" stroke="#FFBA93" stroke-width="0.5"/>
<path d="M73.0282 45.4939L73.9998 49.0153C73.9725 49.0352 73.9471 49.057 73.9235 49.0769L72.9519 45.5555L73.0282 45.4939Z" fill="url(#paint34_linear_479_4132)" stroke="#FFBA93" stroke-width="0.5"/>
<path d="M72.9519 45.5554L73.9235 49.0768C73.8581 49.1322 73.7974 49.1928 73.7418 49.258L72.7703 45.7366C72.8258 45.6714 72.8865 45.6108 72.9519 45.5554Z" fill="url(#paint35_linear_479_4132)"/>
<path d="M72.9519 45.5554L73.9235 49.0768C73.8581 49.1322 73.7974 49.1928 73.7418 49.258L72.7703 45.7366C72.8258 45.6714 72.8865 45.6108 72.9519 45.5554" stroke="#FFBA93" stroke-width="0.5"/>
<path d="M72.7702 45.7402L73.7418 49.2616C73.6788 49.3361 73.6234 49.4168 73.5766 49.5025L72.605 45.9738C72.6518 45.8882 72.7072 45.8075 72.7702 45.7329" fill="url(#paint36_linear_479_4132)"/>
<path d="M72.7702 45.7402L73.7418 49.2616C73.6788 49.3361 73.6234 49.4168 73.5766 49.5025L72.605 45.9738C72.6518 45.8882 72.7072 45.8075 72.7702 45.7329" stroke="#FFBA93" stroke-width="0.5"/>
<path d="M72.6051 45.9739L73.5767 49.4953C73.5389 49.5624 73.5073 49.6327 73.4822 49.7054C73.4443 49.8101 73.4194 49.919 73.4078 50.0297L72.438 46.5173C72.4481 46.4065 72.4725 46.2976 72.5106 46.1931C72.5365 46.1206 72.568 46.0504 72.6051 45.9829" fill="url(#paint37_linear_479_4132)"/>
<path d="M72.6051 45.9739L73.5767 49.4953C73.5389 49.5624 73.5073 49.6327 73.4822 49.7054C73.4443 49.8101 73.4194 49.919 73.4078 50.0297L72.438 46.5173C72.4481 46.4065 72.4725 46.2976 72.5106 46.1931C72.5365 46.1206 72.568 46.0504 72.6051 45.9829" stroke="#FFBA93" stroke-width="0.5"/>
<path d="M72.4379 46.5173L73.4076 50.0387V50.1293L72.436 46.6079C72.436 46.5771 72.436 46.5481 72.436 46.5173" fill="url(#paint38_linear_479_4132)"/>
<path d="M72.4379 46.5173L73.4076 50.0387V50.1293L72.436 46.6079C72.436 46.5771 72.436 46.5481 72.436 46.5173" stroke="#FFBA93" stroke-width="0.5"/>
<path d="M72.4306 46.6062L73.4022 50.1276C73.3988 50.2566 73.4148 50.3855 73.4494 50.5098L72.4778 46.9884C72.4432 46.864 72.4273 46.7352 72.4306 46.6062Z" fill="url(#paint39_linear_479_4132)"/>
<path d="M72.4306 46.6062L73.4022 50.1276C73.3988 50.2566 73.4148 50.3855 73.4494 50.5098L72.4778 46.9884C72.4432 46.864 72.4273 46.7352 72.4306 46.6062" stroke="#FFBA93" stroke-width="0.5"/>
<path d="M17.7712 62.6028L18.7428 66.1242C18.6622 65.8532 18.4975 65.6148 18.2724 65.4431C18.0392 65.266 17.7601 65.1592 17.4679 65.1352L16.4963 61.6138C16.7885 61.6378 17.0676 61.7446 17.3009 61.9217C17.526 62.0933 17.6907 62.3318 17.7712 62.6028Z" fill="url(#paint40_linear_479_4132)" stroke="#FFBA93" stroke-width="0.5"/>
<path d="M19.5292 68.6584L20.4989 72.1798L18.7428 66.1242L17.7712 62.6028L19.5292 68.6584Z" fill="url(#paint41_linear_479_4132)" stroke="#FFBA93" stroke-width="0.5"/>
<path d="M74.2249 53.0095L75.1964 56.5309C75.2306 56.6541 75.2459 56.7817 75.2418 56.9095L74.2775 53.3881C74.2816 53.2603 74.2663 53.1327 74.2321 53.0095" fill="url(#paint42_linear_479_4132)"/>
<path d="M74.2249 53.0095L75.1964 56.5309C75.2306 56.6541 75.2459 56.7817 75.2418 56.9095L74.2775 53.3881C74.2816 53.2603 74.2663 53.1327 74.2321 53.0095" stroke="#FFBA93" stroke-width="0.5"/>
<path d="M74.2776 53.3882L75.2492 56.9096C75.2492 56.9386 75.2492 56.9676 75.2492 56.9983L74.2776 53.4769C74.2793 53.4474 74.2793 53.4177 74.2776 53.3882Z" fill="url(#paint43_linear_479_4132)"/>
<path d="M74.2776 53.3882L75.2492 56.9096C75.2492 56.9386 75.2492 56.9676 75.2492 56.9983L74.2776 53.4769C74.2793 53.4474 74.2793 53.4177 74.2776 53.3882" stroke="#FFBA93" stroke-width="0.5"/>
<path d="M74.2648 53.4768L75.2364 56.9982C75.2364 57.0181 75.2364 57.0399 75.2364 57.0598C75.2109 57.2276 75.1556 57.3896 75.073 57.538L74.0959 54.0166C74.1772 53.8677 74.2319 53.7059 74.2576 53.5384C74.2576 53.5185 74.2576 53.4967 74.2576 53.4768" fill="url(#paint44_linear_479_4132)"/>
<path d="M74.2648 53.4768L75.2364 56.9982C75.2364 57.0181 75.2364 57.0399 75.2364 57.0598C75.2109 57.2276 75.1556 57.3896 75.073 57.538L74.0959 54.0166C74.1772 53.8677 74.2319 53.7059 74.2576 53.5384C74.2576 53.5185 74.2576 53.4967 74.2576 53.4768" stroke="#FFBA93" stroke-width="0.5"/>
<path d="M74.096 54.0166L75.0657 57.538C75.0565 57.5573 75.0462 57.576 75.0349 57.5942C74.9963 57.6576 74.9532 57.7181 74.9059 57.7753L73.9343 54.2539C73.9816 54.1967 74.0247 54.1361 74.0633 54.0728L74.096 54.0166Z" fill="url(#paint45_linear_479_4132)" stroke="#FFBA93" stroke-width="0.5"/>
<path d="M73.9343 54.2522L74.9059 57.7736C74.8505 57.8389 74.7898 57.8995 74.7243 57.9547L73.7527 54.4333C73.8182 54.3781 73.8789 54.3175 73.9343 54.2522Z" fill="url(#paint46_linear_479_4132)" stroke="#FFBA93" stroke-width="0.5"/>
<path d="M73.7547 54.4333L74.7262 57.9548L74.6373 58.0272C74.5973 58.0562 74.5574 58.0834 74.5156 58.1087L73.5513 54.5873C73.593 54.562 73.633 54.5348 73.6729 54.5058L73.7619 54.4333" fill="url(#paint47_linear_479_4132)"/>
<path d="M73.7547 54.4333L74.7262 57.9548L74.6373 58.0272C74.5973 58.0562 74.5574 58.0834 74.5156 58.1087L73.5513 54.5873C73.593 54.562 73.633 54.5348 73.6729 54.5058L73.7619 54.4333" stroke="#FFBA93" stroke-width="0.5"/>
<path d="M73.5511 54.5872L74.5154 58.1104C74.4308 58.1633 74.3414 58.2082 74.2484 58.2444L73.2769 54.723C73.3698 54.6867 73.4592 54.6419 73.5438 54.589" fill="url(#paint48_linear_479_4132)"/>
<path d="M73.5511 54.5872L74.5154 58.1104C74.4308 58.1633 74.3414 58.2082 74.2484 58.2444L73.2769 54.723C73.3698 54.6867 73.4592 54.6419 73.5438 54.589" stroke="#FFBA93" stroke-width="0.5"/>
<path d="M73.277 54.7212L74.2485 58.2426C74.1995 58.2607 74.1487 58.2788 74.0978 58.2933L73.1262 54.7719C73.1771 54.7574 73.2279 54.7393 73.277 54.7212Z" fill="url(#paint49_linear_479_4132)" stroke="#FFBA93" stroke-width="0.5"/>
<path d="M73.1262 54.772L74.0978 58.2934L67.4601 60.1936L66.4885 56.6722L73.1262 54.772Z" fill="url(#paint50_linear_479_4132)" stroke="#FFBA93" stroke-width="0.5"/>
<path d="M27.9554 67.7129L28.927 71.2343L22.382 73.1091L21.4104 69.5877L27.9554 67.7129Z" fill="url(#paint51_linear_479_4132)" stroke="#FFBA93" stroke-width="0.5"/>
<path d="M21.4106 69.5877L22.3822 73.1091C22.1878 73.1659 21.9846 73.1862 21.7829 73.1689C21.5852 73.1549 21.3921 73.1026 21.2145 73.0149C21.0413 72.9305 20.8874 72.8115 20.7623 72.6653C20.6405 72.5242 20.5507 72.3587 20.4989 72.1799L19.5273 68.6584C19.5789 68.8377 19.6694 69.0035 19.7925 69.1439C19.9175 69.2895 20.0707 69.4084 20.2429 69.4935C20.4205 69.5812 20.6136 69.6335 20.8113 69.6475C21.013 69.6648 21.2163 69.6445 21.4106 69.5877Z" fill="url(#paint52_linear_479_4132)" stroke="#FFBA93" stroke-width="0.5"/>
<path d="M66.4867 56.6721L67.4583 60.1935C67.4071 60.2077 67.3568 60.2246 67.3075 60.2442L66.3359 56.7228C66.3852 56.7032 66.4355 56.6863 66.4867 56.6721Z" fill="url(#paint53_linear_479_4132)" stroke="#FFBA93" stroke-width="0.5"/>
<path d="M66.3358 56.7229L67.3074 60.2443C67.2144 60.2806 67.125 60.3254 67.0404 60.3783L66.0688 56.8569C66.1534 56.804 66.2428 56.7592 66.3358 56.7229Z" fill="url(#paint54_linear_479_4132)" stroke="#FFBA93" stroke-width="0.5"/>
<path d="M66.0689 56.8569L67.0405 60.3783C66.9669 60.4233 66.897 60.4742 66.8317 60.5305L65.8601 57.0091C65.9254 56.9528 65.9953 56.9019 66.0689 56.8569Z" fill="url(#paint55_linear_479_4132)"/>
<path d="M66.0689 56.8569L67.0405 60.3783C66.9669 60.4233 66.897 60.4742 66.8317 60.5305L65.8601 57.0091C65.9254 56.9528 65.9953 56.9019 66.0689 56.8569" stroke="#FFBA93" stroke-width="0.5"/>
<path d="M65.86 57.009L66.8316 60.5304C66.7852 60.5704 66.7409 60.6127 66.699 60.6572L66.65 60.7134L65.6802 57.192C65.6949 57.1725 65.7107 57.1537 65.7274 57.1358C65.7689 57.0908 65.8131 57.0485 65.86 57.009Z" fill="url(#paint56_linear_479_4132)" stroke="#FFBA93" stroke-width="0.5"/>
<path d="M65.6803 57.1919L66.6501 60.7133C66.5886 60.787 66.5345 60.8665 66.4884 60.9506L65.5168 57.4292C65.5629 57.3446 65.6177 57.2651 65.6803 57.1919Z" fill="url(#paint57_linear_479_4132)"/>
<path d="M65.6803 57.1919L66.6501 60.7133C66.5886 60.787 66.5345 60.8665 66.4884 60.9506L65.5168 57.4292C65.5629 57.3446 65.6177 57.2651 65.6803 57.1919" stroke="#FFBA93" stroke-width="0.5"/>
<path d="M65.5169 57.4292L66.4884 60.9506C66.4073 61.0976 66.3526 61.2576 66.3268 61.4234L65.3552 57.902C65.381 57.7362 65.4357 57.5762 65.5169 57.4292Z" fill="url(#paint58_linear_479_4132)"/>
<path d="M65.5169 57.4292L66.4884 60.9506C66.4073 61.0976 66.3526 61.2576 66.3268 61.4234L65.3552 57.902C65.381 57.7362 65.4357 57.5762 65.5169 57.4292" stroke="#FFBA93" stroke-width="0.5"/>
<path d="M29.5791 68.1621L30.5507 71.6835C30.3599 71.4625 30.1068 71.304 29.8243 71.2288C29.7276 71.2014 29.6285 71.1838 29.5283 71.1763C29.326 71.1585 29.1222 71.1782 28.9272 71.2343L27.9556 67.7111C28.1506 67.6549 28.3544 67.6353 28.5567 67.6531C28.6569 67.6606 28.7561 67.6782 28.8527 67.7056C29.1352 67.7808 29.3884 67.9393 29.5791 68.1603" fill="url(#paint59_linear_479_4132)"/>
<path d="M29.5791 68.1621L30.5507 71.6835C30.3599 71.4625 30.1068 71.304 29.8243 71.2288C29.7276 71.2014 29.6285 71.1838 29.5283 71.1763C29.326 71.1585 29.1222 71.1782 28.9272 71.2343L27.9556 67.7111C28.1506 67.6549 28.3544 67.6353 28.5567 67.6531C28.6569 67.6606 28.7561 67.6782 28.8527 67.7056C29.1352 67.7808 29.3884 67.9393 29.5791 68.1603" stroke="#FFBA93" stroke-width="0.5"/>
<path d="M55.9809 64.9576L56.9524 68.479C56.6967 68.4583 56.4395 68.4961 56.2006 68.5895L55.229 65.0681C55.468 64.9748 55.7251 64.937 55.9809 64.9576Z" fill="url(#paint60_linear_479_4132)"/>
<path d="M55.9809 64.9576L56.9524 68.479C56.6967 68.4583 56.4395 68.4961 56.2006 68.5895L55.229 65.0681C55.468 64.9748 55.7251 64.937 55.9809 64.9576" stroke="#FFBA93" stroke-width="0.5"/>
<path d="M55.2291 65.0681L56.2007 68.5895C56.1554 68.6062 56.1111 68.6256 56.0681 68.6475C56.0209 68.671 55.9737 68.6964 55.9301 68.7236L54.9585 65.2022C55.0021 65.175 55.0493 65.1496 55.0965 65.1261C55.1395 65.1042 55.1838 65.0848 55.2291 65.0681Z" fill="url(#paint61_linear_479_4132)" stroke="#FFBA93" stroke-width="0.5"/>
<path d="M54.9586 65.2021L55.9356 68.7236C55.862 68.7685 55.7921 68.8194 55.7268 68.8757L54.7498 65.3561C54.8151 65.2998 54.8849 65.2489 54.9586 65.204" fill="url(#paint62_linear_479_4132)"/>
<path d="M54.9586 65.2021L55.9356 68.7236C55.862 68.7685 55.7921 68.8194 55.7268 68.8757L54.7498 65.3561C54.8151 65.2998 54.8849 65.2489 54.9586 65.204" stroke="#FFBA93" stroke-width="0.5"/>
<path d="M54.7497 65.3562L55.7213 68.8776C55.6559 68.9328 55.5951 68.9934 55.5397 69.0587L54.5718 65.5373C54.6266 65.4715 54.6874 65.4109 54.7534 65.3562" fill="url(#paint63_linear_479_4132)"/>
<path d="M54.7497 65.3562L55.7213 68.8776C55.6559 68.9328 55.5951 68.9934 55.5397 69.0587L54.5718 65.5373C54.6266 65.4715 54.6874 65.4109 54.7534 65.3562" stroke="#FFBA93" stroke-width="0.5"/>
<path d="M54.5717 65.5374L55.5414 69.0588C55.4939 69.1158 55.4508 69.1763 55.4125 69.2399L54.4409 65.7185C54.4796 65.6547 54.5233 65.5941 54.5717 65.5374Z" fill="url(#paint64_linear_479_4132)" stroke="#FFBA93" stroke-width="0.5"/>
<path d="M42.9997 68.921L43.9713 72.4424C43.7939 72.3551 43.6018 72.3016 43.4047 72.2848C43.3044 72.2757 43.2035 72.2757 43.1033 72.2848C42.9494 72.2991 42.7984 72.3351 42.6547 72.3916L41.6831 68.8702C41.8269 68.8139 41.9779 68.7779 42.1317 68.7634C42.2319 68.7543 42.3329 68.7543 42.4331 68.7634C42.6302 68.7802 42.8224 68.8337 42.9997 68.921Z" fill="url(#paint65_linear_479_4132)"/>
<path d="M42.9997 68.921L43.9713 72.4424C43.7939 72.3551 43.6018 72.3016 43.4047 72.2848C43.3044 72.2757 43.2035 72.2757 43.1033 72.2848C42.9494 72.2991 42.7984 72.3351 42.6547 72.3916L41.6831 68.8702C41.8269 68.8139 41.9779 68.7779 42.1317 68.7634C42.2319 68.7543 42.3329 68.7543 42.4331 68.7634C42.6302 68.7802 42.8224 68.8337 42.9997 68.921" stroke="#FFBA93" stroke-width="0.5"/>
<path d="M41.683 68.8738L42.6546 72.3952C42.5608 72.4322 42.4703 72.477 42.384 72.5292L41.407 69.0078C41.4922 68.9549 41.5822 68.91 41.6758 68.8738" fill="url(#paint66_linear_479_4132)"/>
<path d="M41.683 68.8738L42.6546 72.3952C42.5608 72.4322 42.4703 72.477 42.384 72.5292L41.407 69.0078C41.4922 68.9549 41.5822 68.91 41.6758 68.8738" stroke="#FFBA93" stroke-width="0.5"/>
<path d="M41.4071 69.0078L42.3768 72.5292L42.257 72.6107L41.2854 69.0893C41.3254 69.0603 41.3653 69.0332 41.4071 69.0078Z" fill="url(#paint67_linear_479_4132)" stroke="#FFBA93" stroke-width="0.5"/>
<path d="M65.3572 57.9021L66.3288 61.4235L65.3971 67.7526L64.4255 64.2312L65.3572 57.9021Z" fill="url(#paint68_linear_479_4132)" stroke="#FFBA93" stroke-width="0.5"/>
<path d="M33.6724 72.9642L34.644 76.4856L30.5506 71.6835L29.5808 68.1621L33.6724 72.9642Z" fill="url(#paint69_linear_479_4132)" stroke="#FFBA93" stroke-width="0.5"/>
<path d="M62.6893 65.5229L63.6591 69.0443L56.9542 68.4792L55.9827 64.9578L62.6893 65.5229Z" fill="url(#paint70_linear_479_4132)" stroke="#FFBA93" stroke-width="0.5"/>
<path d="M64.4237 64.2332L65.3953 67.7546C65.3713 67.92 65.3171 68.0796 65.2355 68.2255L64.2639 64.7041C64.3456 64.5582 64.3997 64.3986 64.4237 64.2332Z" fill="url(#paint71_linear_479_4132)"/>
<path d="M64.4237 64.2332L65.3953 67.7546C65.3713 67.92 65.3171 68.0796 65.2355 68.2255L64.2639 64.7041C64.3456 64.5582 64.3997 64.3986 64.4237 64.2332" stroke="#FFBA93" stroke-width="0.5"/>
<path d="M64.2638 64.7041L65.2354 68.2255C65.1888 68.3103 65.134 68.3903 65.072 68.4646L64.1077 64.9432C64.1703 64.8694 64.2251 64.7892 64.2711 64.7041" fill="url(#paint72_linear_479_4132)"/>
<path d="M64.2638 64.7041L65.2354 68.2255C65.1888 68.3103 65.134 68.3903 65.072 68.4646L64.1077 64.9432C64.1703 64.8694 64.2251 64.7892 64.2711 64.7041" stroke="#FFBA93" stroke-width="0.5"/>
<path d="M64.1076 64.9431L65.0792 68.4645C65.0233 68.5294 64.9626 68.5899 64.8976 68.6457L63.926 65.1261C63.991 65.0703 64.0517 65.0098 64.1076 64.9449" fill="url(#paint73_linear_479_4132)"/>
<path d="M64.1076 64.9431L65.0792 68.4645C65.0233 68.5294 64.9626 68.5899 64.8976 68.6457L63.926 65.1261C63.991 65.0703 64.0517 65.0098 64.1076 64.9449" stroke="#FFBA93" stroke-width="0.5"/>
<path d="M63.926 65.1262L64.8976 68.6476C64.8685 68.673 64.8376 68.6965 64.8068 68.7201L64.6869 68.8016L63.7153 65.2784C63.7568 65.2541 63.7968 65.2275 63.8352 65.1987C63.8661 65.1751 63.8969 65.1516 63.926 65.1262Z" fill="url(#paint74_linear_479_4132)" stroke="#FFBA93" stroke-width="0.5"/>
<path d="M63.7099 65.2783L64.6815 68.7979C64.5961 68.8499 64.5061 68.8941 64.4127 68.9301L63.4412 65.4087C63.5349 65.3728 63.6249 65.3279 63.7099 65.2747" fill="url(#paint75_linear_479_4132)"/>
<path d="M63.7099 65.2783L64.6815 68.7979C64.5961 68.8499 64.5061 68.8941 64.4127 68.9301L63.4412 65.4087C63.5349 65.3728 63.6249 65.3279 63.7099 65.2747" stroke="#FFBA93" stroke-width="0.5"/>
<path d="M63.4412 65.4124L64.4127 68.9338C64.1734 69.0281 63.9155 69.0659 63.6591 69.0443L62.6875 65.5228C62.9439 65.5447 63.2019 65.5068 63.4412 65.4124Z" fill="url(#paint76_linear_479_4132)" stroke="#FFBA93" stroke-width="0.5"/>
<path d="M41.2944 69.0896L42.2659 72.611L36.8051 76.6686L35.8335 73.1472L41.2944 69.0896Z" fill="url(#paint77_linear_479_4132)" stroke="#FFBA93" stroke-width="0.5"/>
<path d="M35.8316 73.1453L36.8032 76.6667C36.7633 76.6957 36.7233 76.7246 36.6815 76.75L35.71 73.2286C35.7519 73.2029 35.7925 73.1751 35.8316 73.1453Z" fill="url(#paint78_linear_479_4132)"/>
<path d="M35.8316 73.1453L36.8032 76.6667C36.7633 76.6957 36.7233 76.7246 36.6815 76.75L35.71 73.2286C35.7519 73.2029 35.7925 73.1751 35.8316 73.1453" stroke="#FFBA93" stroke-width="0.5"/>
<path d="M35.7099 73.2305L36.6851 76.7519C36.6003 76.8038 36.5109 76.8481 36.4181 76.8841L35.4465 73.3627C35.5393 73.3267 35.6287 73.2824 35.7135 73.2305" fill="url(#paint79_linear_479_4132)"/>
<path d="M35.7099 73.2305L36.6851 76.7519C36.6003 76.8038 36.5109 76.8481 36.4181 76.8841L35.4465 73.3627C35.5393 73.3267 35.6287 73.2824 35.7135 73.2305" stroke="#FFBA93" stroke-width="0.5"/>
<path d="M35.443 73.3626L36.4146 76.884C36.3653 76.9036 36.315 76.9206 36.2639 76.9347C36.0689 76.9915 35.8651 77.0117 35.6628 76.9945C35.465 76.9785 35.272 76.925 35.0943 76.8369C34.9216 76.7518 34.7678 76.6329 34.6421 76.4873L33.6724 72.9641C33.797 73.1101 33.9503 73.2291 34.1227 73.3137C34.3004 73.4018 34.4934 73.4553 34.6912 73.4713C34.8935 73.4886 35.0973 73.4683 35.2923 73.4115C35.3434 73.3973 35.3937 73.3804 35.443 73.3608" fill="url(#paint80_linear_479_4132)"/>
<path d="M35.443 73.3626L36.4146 76.884C36.3653 76.9036 36.315 76.9206 36.2639 76.9347C36.0689 76.9915 35.8651 77.0117 35.6628 76.9945C35.465 76.9785 35.272 76.925 35.0943 76.8369C34.9216 76.7518 34.7678 76.6329 34.6421 76.4873L33.6724 72.9641C33.797 73.1101 33.9503 73.2291 34.1227 73.3137C34.3004 73.4018 34.4934 73.4553 34.6912 73.4713C34.8935 73.4886 35.0973 73.4683 35.2923 73.4115C35.3434 73.3973 35.3937 73.3804 35.443 73.3608" stroke="#FFBA93" stroke-width="0.5"/>
<path d="M54.4408 65.7166L55.4124 69.238L52.0109 74.7845L51.0393 71.2631L54.4408 65.7166Z" fill="url(#paint81_linear_479_4132)" stroke="#FFBA93" stroke-width="0.5"/>
<path d="M48.9327 71.8647L49.9043 75.3861L43.9731 72.4425L43.0015 68.9211L48.9327 71.8647Z" fill="url(#paint82_linear_479_4132)" stroke="#FFBA93" stroke-width="0.5"/>
<path d="M51.032 71.2632L52.0036 74.7846C51.965 74.8479 51.9219 74.9085 51.8747 74.9657L50.9031 71.4443C50.9503 71.3871 50.9934 71.3265 51.032 71.2632Z" fill="url(#paint83_linear_479_4132)"/>
<path d="M51.032 71.2632L52.0036 74.7846C51.965 74.8479 51.9219 74.9085 51.8747 74.9657L50.9031 71.4443C50.9503 71.3871 50.9934 71.3265 51.032 71.2632" stroke="#FFBA93" stroke-width="0.5"/>
<path d="M50.9104 71.4443L51.8819 74.9657C51.826 75.0305 51.7653 75.0911 51.7003 75.1469L50.7288 71.6255C50.7941 71.5701 50.8549 71.5095 50.9104 71.4443Z" fill="url(#paint84_linear_479_4132)"/>
<path d="M50.9104 71.4443L51.8819 74.9657C51.826 75.0305 51.7653 75.0911 51.7003 75.1469L50.7288 71.6255C50.7941 71.5701 50.8549 71.5095 50.9104 71.4443" stroke="#FFBA93" stroke-width="0.5"/>
<path d="M50.7288 71.6272L51.7003 75.1486L51.6132 75.2192C51.5732 75.2482 51.5333 75.2754 51.4915 75.3008L50.5217 71.7794L50.6416 71.6978L50.7288 71.6272Z" fill="url(#paint85_linear_479_4132)" stroke="#FFBA93" stroke-width="0.5"/>
<path d="M50.5216 71.7795L51.4913 75.3009C51.4061 75.3539 51.3161 75.3987 51.2226 75.435L50.251 71.9136C50.345 71.877 50.4355 71.8321 50.5216 71.7795Z" fill="url(#paint86_linear_479_4132)" stroke="#FFBA93" stroke-width="0.5"/>
<path d="M50.2511 71.9134L51.2227 75.4348C51.1736 75.4547 51.1228 75.471 51.0737 75.4855C50.8786 75.5413 50.675 75.5616 50.4726 75.5453C50.2748 75.5295 50.0818 75.476 49.9042 75.3877L48.9326 71.8645C49.1098 71.9542 49.3029 72.0084 49.501 72.0239C49.7034 72.0402 49.907 72.0199 50.1022 71.9641C50.1527 71.9499 50.2024 71.933 50.2511 71.9134Z" fill="url(#paint87_linear_479_4132)"/>
<path d="M50.2511 71.9134L51.2227 75.4348C51.1736 75.4547 51.1228 75.471 51.0737 75.4855C50.8786 75.5413 50.675 75.5616 50.4726 75.5453C50.2748 75.5295 50.0818 75.476 49.9042 75.3877L48.9326 71.8645C49.1098 71.9542 49.3029 72.0084 49.501 72.0239C49.7034 72.0402 49.907 72.0199 50.1022 71.9641C50.1527 71.9499 50.2024 71.933 50.2511 71.9134" stroke="#FFBA93" stroke-width="0.5"/>
<path d="M45.3513 1.00561C45.5497 1.02285 45.7431 1.07691 45.9216 1.16502C46.0932 1.25016 46.2458 1.36908 46.3702 1.51462L50.4654 6.31851C50.6565 6.53909 50.9095 6.69746 51.1918 6.77318C51.2886 6.79972 51.3877 6.81731 51.4878 6.82571C51.6901 6.8419 51.8937 6.82165 52.0889 6.76593L58.6267 4.89111C58.8218 4.8352 59.0255 4.81494 59.2278 4.83133C59.4253 4.84786 59.618 4.90068 59.7962 4.98712C59.9683 5.07161 60.1215 5.1899 60.2466 5.33491C60.3686 5.47679 60.4589 5.64287 60.5117 5.82218L62.2679 11.8778C62.3489 12.1485 62.5135 12.3869 62.7382 12.5589C62.9732 12.738 63.2551 12.8455 63.55 12.8686L70.3475 13.441C70.5424 13.4547 70.7327 13.5065 70.9075 13.5935C71.0823 13.6806 71.2382 13.8011 71.3663 13.9482C71.4885 14.0897 71.5788 14.2558 71.6308 14.4353C71.6828 14.6147 71.6954 14.8032 71.6677 14.988L70.7597 21.2156C70.7167 21.4941 70.7658 21.779 70.8996 22.0272C71.038 22.2797 71.2519 22.483 71.5116 22.6086L77.3647 25.5051C77.537 25.59 77.6907 25.7083 77.8169 25.8529C77.9392 25.9945 78.0296 26.1607 78.082 26.3402C78.1319 26.5168 78.1442 26.7019 78.1184 26.8836C78.09 27.0726 78.0233 27.2538 77.9222 27.4161L74.4717 33.0315C74.3202 33.2741 74.2485 33.5578 74.2665 33.8431C74.2829 34.1234 74.3921 34.3903 74.5771 34.602L78.7249 39.4711C78.8472 39.6128 78.9377 39.7789 78.9901 39.9584C79.0412 40.1386 79.0536 40.3275 79.0264 40.5127C78.9977 40.7016 78.931 40.8828 78.8302 41.0453C78.7252 41.2131 78.5897 41.3599 78.4307 41.4782L73.0407 45.4814C72.8042 45.6591 72.6244 45.9013 72.5231 46.1788C72.4257 46.445 72.4174 46.7354 72.4995 47.0067L74.232 52.9844C74.2835 53.1607 74.2965 53.346 74.2701 53.5278C74.2425 53.7201 74.1765 53.9049 74.0758 54.0712C73.9715 54.239 73.8366 54.3859 73.6781 54.5041C73.5142 54.6251 73.3296 54.7153 73.1333 54.7704L66.4865 56.6724C66.1954 56.754 65.9326 56.9145 65.7274 57.1361C65.5325 57.3497 65.406 57.6166 65.3642 57.9024L64.4326 64.2333C64.402 64.4252 64.3338 64.6093 64.2319 64.7749C64.1301 64.9406 63.9964 65.0846 63.8388 65.1988C63.5103 65.442 63.1041 65.5573 62.6964 65.523L55.9898 64.9578C55.6851 64.9327 55.3793 64.9909 55.1054 65.1263C54.835 65.2571 54.6076 65.4619 54.4498 65.7168L51.032 71.2634C50.9283 71.4322 50.7933 71.5797 50.6342 71.6982C50.3064 71.9413 49.901 72.0572 49.4938 72.0242C49.2957 72.0087 49.1025 71.9545 48.9254 71.8648L42.9923 68.9212C42.8149 68.834 42.6228 68.7805 42.4257 68.7636C42.0186 68.7325 41.6139 68.8482 41.2852 69.0897L35.8316 73.1455C35.5037 73.3886 35.0984 73.5045 34.6911 73.4715C34.4933 73.4555 34.3004 73.4021 34.1227 73.3139C33.9502 73.2293 33.797 73.1103 33.6723 72.9643L29.579 68.1604C29.3882 67.9394 29.135 67.781 28.8525 67.7058C28.7559 67.6783 28.6567 67.6607 28.5565 67.6532C28.3543 67.6354 28.1505 67.6551 27.9554 67.7112L21.4176 69.586C21.2233 69.6428 21.0201 69.6631 20.8183 69.6458C20.6206 69.6319 20.4275 69.5796 20.2499 69.4918C20.0777 69.4067 19.9246 69.2878 19.7995 69.1422C19.6764 69.0018 19.5859 68.8361 19.5344 68.6568L17.7783 62.6012C17.6977 62.3302 17.533 62.0917 17.3079 61.9201C17.0747 61.743 16.7955 61.6362 16.5034 61.6122L9.69503 61.0397C9.30164 61.0114 8.93543 60.8291 8.67622 60.5325C8.55424 60.3905 8.4642 60.2241 8.4122 60.0444C8.3602 59.8647 8.34743 59.676 8.37476 59.491L9.29187 53.2615C9.33418 52.9828 9.28446 52.698 9.15021 52.45C9.01237 52.198 8.79902 51.9954 8.54002 51.8703L2.68689 48.9721C2.51427 48.8876 2.36047 48.7693 2.23469 48.6243C2.11198 48.4827 2.02149 48.3163 1.96945 48.1364C1.91741 47.9566 1.90505 47.7677 1.93323 47.5827C1.96159 47.3937 2.02833 47.2125 2.12936 47.0501L5.57986 41.4347C5.73109 41.1926 5.80341 40.9098 5.78689 40.625C5.76823 40.3443 5.65861 40.0773 5.47453 39.8642L1.31396 34.9969C1.19232 34.8542 1.102 34.6876 1.04881 34.5079C0.997809 34.3283 0.985434 34.14 1.01249 33.9554C1.04182 33.7661 1.10848 33.5844 1.20863 33.421C1.31415 33.2535 1.44957 33.1068 1.60816 32.9881L6.99819 28.9848C7.23712 28.809 7.42001 28.5681 7.52485 28.2911C7.62425 28.0251 7.6357 27.7344 7.55754 27.4614L5.82503 21.4928C5.77242 21.3135 5.7594 21.125 5.78689 20.9403C5.81377 20.7512 5.87996 20.5698 5.9812 20.4077C6.08435 20.2396 6.21872 20.0927 6.3771 19.9748C6.54115 19.8541 6.72572 19.7638 6.92192 19.7085L13.5596 17.8084C13.8511 17.7254 14.1142 17.5644 14.3205 17.3428C14.5176 17.1303 14.6471 16.8643 14.6928 16.5784L15.619 10.2602C15.6473 10.0712 15.7141 9.88996 15.8151 9.72761C15.9201 9.55974 16.0556 9.41291 16.2146 9.29468C16.3785 9.17357 16.5631 9.08333 16.7595 9.0284C16.9549 8.97398 17.1583 8.95435 17.3606 8.97043L24.0636 9.5356C24.3695 9.56051 24.6763 9.5023 24.9517 9.36714C25.2216 9.23589 25.4489 9.03117 25.6073 8.77661L29.0033 3.2246C29.1069 3.0558 29.2419 2.90826 29.401 2.78986C29.7285 2.54616 30.1343 2.43079 30.5415 2.46562C30.7395 2.48052 30.9326 2.53407 31.1099 2.62321L37.0484 5.55953C37.2257 5.64659 37.418 5.69944 37.615 5.71531C37.7158 5.72526 37.8174 5.72526 37.9183 5.71531C38.2216 5.68466 38.5109 5.57261 38.7555 5.39106L44.2163 1.33529C44.5437 1.09107 44.9493 0.974483 45.3568 1.00743L45.3513 1.00561Z" fill="url(#paint88_linear_479_4132)" stroke="#FFBA93" stroke-width="0.5"/>
<path d="M62.4371 33.977L57.7153 33.6473L56.8527 33.5876C57.41 36.7078 57.0126 39.9231 55.7122 42.8149L61.2585 43.2008L60.7699 47.0392L53.4458 46.5284C51.6164 48.8084 49.2618 50.6138 46.5823 51.7908C43.9029 52.9679 40.978 53.4817 38.0566 53.2886C35.2068 53.1017 32.4526 52.1893 30.0569 50.6385C27.7311 49.1271 25.8606 47.0141 24.6451 44.5249L17.3228 44.0141L17.8095 40.1775L23.3557 40.5652C22.8209 37.44 23.2391 34.2267 24.5561 31.3414L18.9808 30.9393L19.4693 27.1027L26.8498 27.6171C28.6822 25.3637 31.0298 23.5817 33.6955 22.4205C36.3613 21.2594 39.2674 20.753 42.17 20.9438C45.0022 21.1318 47.7397 22.0363 50.1243 23.5722C52.4427 25.0665 54.3137 27.1574 55.5397 29.6242L62.9238 30.1386L62.4371 33.977ZM47.0715 45.2604C49.3949 43.4528 50.9196 40.8122 51.321 37.9006C51.5946 35.8009 51.1994 33.6685 50.1914 31.8051C49.1671 29.936 47.5856 28.4308 45.6659 27.4976C44.3592 26.8592 42.9406 26.4802 41.4889 26.3817C40.7521 26.3311 40.0122 26.3493 39.2788 26.4361C37.0475 26.7014 34.9339 27.5793 33.1732 28.9721C31.4365 30.3359 30.1302 32.1696 29.4104 34.2542C28.7143 36.2712 28.6617 38.4537 29.2596 40.5017C29.8623 42.5307 31.0906 44.3188 32.7701 45.6118C34.5011 46.9343 36.587 47.7142 38.763 47.8525C41.761 48.0487 44.7247 47.1247 47.0769 45.2604" fill="#EBEBEC"/>
<path d="M42.6586 34.1998C43.2383 34.6436 43.6618 35.2595 43.8681 35.9587C44.0747 36.664 44.0569 37.4159 43.8172 38.1107C43.5689 38.8294 43.1188 39.4619 42.5205 39.933C41.9133 40.4128 41.1848 40.7156 40.4157 40.8079C40.1631 40.8365 39.9085 40.8425 39.6548 40.826C39.1539 40.7918 38.6642 40.6614 38.2129 40.442C37.5516 40.1194 37.0067 39.6005 36.6529 38.9566C36.3053 38.3149 36.1687 37.5805 36.2624 36.8572C36.3997 35.8541 36.9243 34.9441 37.7244 34.3212C38.5337 33.6782 39.5539 33.3585 40.5864 33.4245C41.3388 33.473 42.0599 33.7428 42.6586 34.1998Z" fill="#EBEBEC"/>
<defs>
<linearGradient id="paint0_linear_479_4132" x1="5.8125" y1="23.2425" x2="6.79739" y2="23.2425" gradientUnits="userSpaceOnUse">
<stop stop-color="#CF8D49"/>
<stop offset="1" stop-color="#B63562"/>
</linearGradient>
<linearGradient id="paint1_linear_479_4132" x1="5.8252" y1="26.2378" x2="8.53111" y2="26.2378" gradientUnits="userSpaceOnUse">
<stop stop-color="#CF8D49"/>
<stop offset="1" stop-color="#B63562"/>
</linearGradient>
<linearGradient id="paint2_linear_479_4132" x1="7.56128" y1="29.2282" x2="8.5365" y2="29.2282" gradientUnits="userSpaceOnUse">
<stop stop-color="#CF8D49"/>
<stop offset="1" stop-color="#B63562"/>
</linearGradient>
<linearGradient id="paint3_linear_479_4132" x1="71.6406" y1="16.4117" x2="72.6583" y2="16.4117" gradientUnits="userSpaceOnUse">
<stop stop-color="#CF8D49"/>
<stop offset="1" stop-color="#B63562"/>
</linearGradient>
<linearGradient id="paint4_linear_479_4132" x1="71.686" y1="16.6407" x2="72.6576" y2="16.6407" gradientUnits="userSpaceOnUse">
<stop stop-color="#CF8D49"/>
<stop offset="1" stop-color="#B63562"/>
</linearGradient>
<linearGradient id="paint5_linear_479_4132" x1="71.6807" y1="16.715" x2="72.6522" y2="16.715" gradientUnits="userSpaceOnUse">
<stop stop-color="#CF8D49"/>
<stop offset="1" stop-color="#B63562"/>
</linearGradient>
<linearGradient id="paint6_linear_479_4132" x1="1.04883" y1="36.5049" x2="2.28375" y2="36.5049" gradientUnits="userSpaceOnUse">
<stop stop-color="#CF8D49"/>
<stop offset="1" stop-color="#B63562"/>
</linearGradient>
<linearGradient id="paint7_linear_479_4132" x1="70.7581" y1="19.8624" x2="72.6449" y2="19.8624" gradientUnits="userSpaceOnUse">
<stop stop-color="#CF8D49"/>
<stop offset="1" stop-color="#B63562"/>
</linearGradient>
<linearGradient id="paint8_linear_479_4132" x1="70.7544" y1="23.0134" x2="71.7351" y2="23.0134" gradientUnits="userSpaceOnUse">
<stop stop-color="#CF8D49"/>
<stop offset="1" stop-color="#B63562"/>
</linearGradient>
<linearGradient id="paint9_linear_479_4132" x1="70.7471" y1="23.0922" x2="71.7187" y2="23.0922" gradientUnits="userSpaceOnUse">
<stop stop-color="#CF8D49"/>
<stop offset="1" stop-color="#B63562"/>
</linearGradient>
<linearGradient id="paint10_linear_479_4132" x1="70.741" y1="23.326" x2="71.7586" y2="23.326" gradientUnits="userSpaceOnUse">
<stop stop-color="#CF8D49"/>
<stop offset="1" stop-color="#B63562"/>
</linearGradient>
<linearGradient id="paint11_linear_479_4132" x1="1.31396" y1="39.1903" x2="6.43341" y2="39.1903" gradientUnits="userSpaceOnUse">
<stop stop-color="#CF8D49"/>
<stop offset="1" stop-color="#B63562"/>
</linearGradient>
<linearGradient id="paint12_linear_479_4132" x1="5.46191" y1="41.8675" x2="6.70227" y2="41.8675" gradientUnits="userSpaceOnUse">
<stop stop-color="#CF8D49"/>
<stop offset="1" stop-color="#B63562"/>
</linearGradient>
<linearGradient id="paint13_linear_479_4132" x1="78.0913" y1="28.3089" x2="79.1106" y2="28.3089" gradientUnits="userSpaceOnUse">
<stop stop-color="#CF8D49"/>
<stop offset="1" stop-color="#B63562"/>
</linearGradient>
<linearGradient id="paint14_linear_479_4132" x1="78.1294" y1="28.5453" x2="79.101" y2="28.5453" gradientUnits="userSpaceOnUse">
<stop stop-color="#CF8D49"/>
<stop offset="1" stop-color="#B63562"/>
</linearGradient>
<linearGradient id="paint15_linear_479_4132" x1="77.9658" y1="28.8542" x2="79.0954" y2="28.8542" gradientUnits="userSpaceOnUse">
<stop stop-color="#CF8D49"/>
<stop offset="1" stop-color="#B63562"/>
</linearGradient>
<linearGradient id="paint16_linear_479_4132" x1="77.9187" y1="29.153" x2="78.9284" y2="29.153" gradientUnits="userSpaceOnUse">
<stop stop-color="#CF8D49"/>
<stop offset="1" stop-color="#B63562"/>
</linearGradient>
<linearGradient id="paint17_linear_479_4132" x1="1.9624" y1="50.3079" x2="3.65133" y2="50.3079" gradientUnits="userSpaceOnUse">
<stop stop-color="#CF8D49"/>
<stop offset="1" stop-color="#B63562"/>
</linearGradient>
<linearGradient id="paint18_linear_479_4132" x1="74.4592" y1="31.9943" x2="78.8904" y2="31.9943" gradientUnits="userSpaceOnUse">
<stop stop-color="#CF8D49"/>
<stop offset="1" stop-color="#B63562"/>
</linearGradient>
<linearGradient id="paint19_linear_479_4132" x1="2.67969" y1="52.1854" x2="9.5044" y2="52.1854" gradientUnits="userSpaceOnUse">
<stop stop-color="#CF8D49"/>
<stop offset="1" stop-color="#B63562"/>
</linearGradient>
<linearGradient id="paint20_linear_479_4132" x1="74.4246" y1="34.8337" x2="75.4306" y2="34.8337" gradientUnits="userSpaceOnUse">
<stop stop-color="#CF8D49"/>
<stop offset="1" stop-color="#B63562"/>
</linearGradient>
<linearGradient id="paint21_linear_479_4132" x1="74.2556" y1="35.1343" x2="75.3961" y2="35.1343" gradientUnits="userSpaceOnUse">
<stop stop-color="#CF8D49"/>
<stop offset="1" stop-color="#B63562"/>
</linearGradient>
<linearGradient id="paint22_linear_479_4132" x1="74.2556" y1="35.4459" x2="75.2272" y2="35.4459" gradientUnits="userSpaceOnUse">
<stop stop-color="#CF8D49"/>
<stop offset="1" stop-color="#B63562"/>
</linearGradient>
<linearGradient id="paint23_linear_479_4132" x1="74.2502" y1="35.6823" x2="75.2654" y2="35.6823" gradientUnits="userSpaceOnUse">
<stop stop-color="#CF8D49"/>
<stop offset="1" stop-color="#B63562"/>
</linearGradient>
<linearGradient id="paint24_linear_479_4132" x1="8.53662" y1="54.0585" x2="10.2237" y2="54.0585" gradientUnits="userSpaceOnUse">
<stop stop-color="#CF8D49"/>
<stop offset="1" stop-color="#B63562"/>
</linearGradient>
<linearGradient id="paint25_linear_479_4132" x1="78.9812" y1="41.9473" x2="79.9988" y2="41.9473" gradientUnits="userSpaceOnUse">
<stop stop-color="#CF8D49"/>
<stop offset="1" stop-color="#B63562"/>
</linearGradient>
<linearGradient id="paint26_linear_479_4132" x1="79.0266" y1="42.1737" x2="79.9996" y2="42.1737" gradientUnits="userSpaceOnUse">
<stop stop-color="#CF8D49"/>
<stop offset="1" stop-color="#B63562"/>
</linearGradient>
<linearGradient id="paint27_linear_479_4132" x1="78.854" y1="42.4889" x2="79.9927" y2="42.4889" gradientUnits="userSpaceOnUse">
<stop stop-color="#CF8D49"/>
<stop offset="1" stop-color="#B63562"/>
</linearGradient>
<linearGradient id="paint28_linear_479_4132" x1="78.6887" y1="42.8821" x2="79.8256" y2="42.8821" gradientUnits="userSpaceOnUse">
<stop stop-color="#CF8D49"/>
<stop offset="1" stop-color="#B63562"/>
</linearGradient>
<linearGradient id="paint29_linear_479_4132" x1="78.5071" y1="43.0867" x2="79.6603" y2="43.0867" gradientUnits="userSpaceOnUse">
<stop stop-color="#CF8D49"/>
<stop offset="1" stop-color="#B63562"/>
</linearGradient>
<linearGradient id="paint30_linear_479_4132" x1="78.4182" y1="43.2152" x2="79.4788" y2="43.2152" gradientUnits="userSpaceOnUse">
<stop stop-color="#CF8D49"/>
<stop offset="1" stop-color="#B63562"/>
</linearGradient>
<linearGradient id="paint31_linear_479_4132" x1="8.40039" y1="62.2932" x2="10.6596" y2="62.2932" gradientUnits="userSpaceOnUse">
<stop stop-color="#CF8D49"/>
<stop offset="1" stop-color="#B63562"/>
</linearGradient>
<linearGradient id="paint32_linear_479_4132" x1="73.0298" y1="45.2531" x2="79.3896" y2="45.2531" gradientUnits="userSpaceOnUse">
<stop stop-color="#CF8D49"/>
<stop offset="1" stop-color="#B63562"/>
</linearGradient>
<linearGradient id="paint33_linear_479_4132" x1="9.68799" y1="63.0874" x2="17.4698" y2="63.0874" gradientUnits="userSpaceOnUse">
<stop stop-color="#CF8D49"/>
<stop offset="1" stop-color="#B63562"/>
</linearGradient>
<linearGradient id="paint34_linear_479_4132" x1="72.9519" y1="47.2854" x2="73.9998" y2="47.2854" gradientUnits="userSpaceOnUse">
<stop stop-color="#CF8D49"/>
<stop offset="1" stop-color="#B63562"/>
</linearGradient>
<linearGradient id="paint35_linear_479_4132" x1="72.7703" y1="47.4067" x2="73.9235" y2="47.4067" gradientUnits="userSpaceOnUse">
<stop stop-color="#CF8D49"/>
<stop offset="1" stop-color="#B63562"/>
</linearGradient>
<linearGradient id="paint36_linear_479_4132" x1="72.605" y1="47.6177" x2="73.7418" y2="47.6177" gradientUnits="userSpaceOnUse">
<stop stop-color="#CF8D49"/>
<stop offset="1" stop-color="#B63562"/>
</linearGradient>
<linearGradient id="paint37_linear_479_4132" x1="72.438" y1="48.0018" x2="73.5767" y2="48.0018" gradientUnits="userSpaceOnUse">
<stop stop-color="#CF8D49"/>
<stop offset="1" stop-color="#B63562"/>
</linearGradient>
<linearGradient id="paint38_linear_479_4132" x1="72.436" y1="48.3233" x2="73.4076" y2="48.3233" gradientUnits="userSpaceOnUse">
<stop stop-color="#CF8D49"/>
<stop offset="1" stop-color="#B63562"/>
</linearGradient>
<linearGradient id="paint39_linear_479_4132" x1="72.4302" y1="48.558" x2="73.4494" y2="48.558" gradientUnits="userSpaceOnUse">
<stop stop-color="#CF8D49"/>
<stop offset="1" stop-color="#B63562"/>
</linearGradient>
<linearGradient id="paint40_linear_479_4132" x1="16.4963" y1="63.869" x2="18.7428" y2="63.869" gradientUnits="userSpaceOnUse">
<stop stop-color="#CF8D49"/>
<stop offset="1" stop-color="#B63562"/>
</linearGradient>
<linearGradient id="paint41_linear_479_4132" x1="17.7712" y1="67.3913" x2="20.4989" y2="67.3913" gradientUnits="userSpaceOnUse">
<stop stop-color="#CF8D49"/>
<stop offset="1" stop-color="#B63562"/>
</linearGradient>
<linearGradient id="paint42_linear_479_4132" x1="74.2249" y1="54.9595" x2="75.2425" y2="54.9595" gradientUnits="userSpaceOnUse">
<stop stop-color="#CF8D49"/>
<stop offset="1" stop-color="#B63562"/>
</linearGradient>
<linearGradient id="paint43_linear_479_4132" x1="74.2776" y1="55.1933" x2="75.2492" y2="55.1933" gradientUnits="userSpaceOnUse">
<stop stop-color="#CF8D49"/>
<stop offset="1" stop-color="#B63562"/>
</linearGradient>
<linearGradient id="paint44_linear_479_4132" x1="74.0959" y1="55.5074" x2="75.2364" y2="55.5074" gradientUnits="userSpaceOnUse">
<stop stop-color="#CF8D49"/>
<stop offset="1" stop-color="#B63562"/>
</linearGradient>
<linearGradient id="paint45_linear_479_4132" x1="73.9343" y1="55.896" x2="75.0657" y2="55.896" gradientUnits="userSpaceOnUse">
<stop stop-color="#CF8D49"/>
<stop offset="1" stop-color="#B63562"/>
</linearGradient>
<linearGradient id="paint46_linear_479_4132" x1="73.7527" y1="56.1035" x2="74.9059" y2="56.1035" gradientUnits="userSpaceOnUse">
<stop stop-color="#CF8D49"/>
<stop offset="1" stop-color="#B63562"/>
</linearGradient>
<linearGradient id="paint47_linear_479_4132" x1="73.5513" y1="56.2711" x2="74.7262" y2="56.2711" gradientUnits="userSpaceOnUse">
<stop stop-color="#CF8D49"/>
<stop offset="1" stop-color="#B63562"/>
</linearGradient>
<linearGradient id="paint48_linear_479_4132" x1="73.2769" y1="56.4158" x2="74.5154" y2="56.4158" gradientUnits="userSpaceOnUse">
<stop stop-color="#CF8D49"/>
<stop offset="1" stop-color="#B63562"/>
</linearGradient>
<linearGradient id="paint49_linear_479_4132" x1="73.1262" y1="56.5073" x2="74.2485" y2="56.5073" gradientUnits="userSpaceOnUse">
<stop stop-color="#CF8D49"/>
<stop offset="1" stop-color="#B63562"/>
</linearGradient>
<linearGradient id="paint50_linear_479_4132" x1="66.4885" y1="57.4828" x2="74.0978" y2="57.4828" gradientUnits="userSpaceOnUse">
<stop stop-color="#CF8D49"/>
<stop offset="1" stop-color="#B63562"/>
</linearGradient>
<linearGradient id="paint51_linear_479_4132" x1="21.4104" y1="70.411" x2="28.927" y2="70.411" gradientUnits="userSpaceOnUse">
<stop stop-color="#CF8D49"/>
<stop offset="1" stop-color="#B63562"/>
</linearGradient>
<linearGradient id="paint52_linear_479_4132" x1="19.5273" y1="70.9167" x2="22.3822" y2="70.9167" gradientUnits="userSpaceOnUse">
<stop stop-color="#CF8D49"/>
<stop offset="1" stop-color="#B63562"/>
</linearGradient>
<linearGradient id="paint53_linear_479_4132" x1="66.3359" y1="58.4582" x2="67.4583" y2="58.4582" gradientUnits="userSpaceOnUse">
<stop stop-color="#CF8D49"/>
<stop offset="1" stop-color="#B63562"/>
</linearGradient>
<linearGradient id="paint54_linear_479_4132" x1="66.0688" y1="58.5506" x2="67.3074" y2="58.5506" gradientUnits="userSpaceOnUse">
<stop stop-color="#CF8D49"/>
<stop offset="1" stop-color="#B63562"/>
</linearGradient>
<linearGradient id="paint55_linear_479_4132" x1="65.8601" y1="58.6937" x2="67.0405" y2="58.6937" gradientUnits="userSpaceOnUse">
<stop stop-color="#CF8D49"/>
<stop offset="1" stop-color="#B63562"/>
</linearGradient>
<linearGradient id="paint56_linear_479_4132" x1="65.6802" y1="58.8612" x2="66.8316" y2="58.8612" gradientUnits="userSpaceOnUse">
<stop stop-color="#CF8D49"/>
<stop offset="1" stop-color="#B63562"/>
</linearGradient>
<linearGradient id="paint57_linear_479_4132" x1="65.5168" y1="59.0713" x2="66.6501" y2="59.0713" gradientUnits="userSpaceOnUse">
<stop stop-color="#CF8D49"/>
<stop offset="1" stop-color="#B63562"/>
</linearGradient>
<linearGradient id="paint58_linear_479_4132" x1="65.3552" y1="59.4263" x2="66.4884" y2="59.4263" gradientUnits="userSpaceOnUse">
<stop stop-color="#CF8D49"/>
<stop offset="1" stop-color="#B63562"/>
</linearGradient>
<linearGradient id="paint59_linear_479_4132" x1="27.9556" y1="69.6651" x2="30.5507" y2="69.6651" gradientUnits="userSpaceOnUse">
<stop stop-color="#CF8D49"/>
<stop offset="1" stop-color="#B63562"/>
</linearGradient>
<linearGradient id="paint60_linear_479_4132" x1="55.229" y1="66.7708" x2="56.9524" y2="66.7708" gradientUnits="userSpaceOnUse">
<stop stop-color="#CF8D49"/>
<stop offset="1" stop-color="#B63562"/>
</linearGradient>
<linearGradient id="paint61_linear_479_4132" x1="54.9585" y1="66.8959" x2="56.2007" y2="66.8959" gradientUnits="userSpaceOnUse">
<stop stop-color="#CF8D49"/>
<stop offset="1" stop-color="#B63562"/>
</linearGradient>
<linearGradient id="paint62_linear_479_4132" x1="54.7498" y1="67.039" x2="55.9356" y2="67.039" gradientUnits="userSpaceOnUse">
<stop stop-color="#CF8D49"/>
<stop offset="1" stop-color="#B63562"/>
</linearGradient>
<linearGradient id="paint63_linear_479_4132" x1="54.5718" y1="67.2075" x2="55.7213" y2="67.2075" gradientUnits="userSpaceOnUse">
<stop stop-color="#CF8D49"/>
<stop offset="1" stop-color="#B63562"/>
</linearGradient>
<linearGradient id="paint64_linear_479_4132" x1="54.4409" y1="67.3887" x2="55.5414" y2="67.3887" gradientUnits="userSpaceOnUse">
<stop stop-color="#CF8D49"/>
<stop offset="1" stop-color="#B63562"/>
</linearGradient>
<linearGradient id="paint65_linear_479_4132" x1="41.6831" y1="70.5995" x2="43.9713" y2="70.5995" gradientUnits="userSpaceOnUse">
<stop stop-color="#CF8D49"/>
<stop offset="1" stop-color="#B63562"/>
</linearGradient>
<linearGradient id="paint66_linear_479_4132" x1="41.407" y1="70.7015" x2="42.6546" y2="70.7015" gradientUnits="userSpaceOnUse">
<stop stop-color="#CF8D49"/>
<stop offset="1" stop-color="#B63562"/>
</linearGradient>
<linearGradient id="paint67_linear_479_4132" x1="41.2854" y1="70.8093" x2="42.3768" y2="70.8093" gradientUnits="userSpaceOnUse">
<stop stop-color="#CF8D49"/>
<stop offset="1" stop-color="#B63562"/>
</linearGradient>
<linearGradient id="paint68_linear_479_4132" x1="64.4255" y1="62.8274" x2="66.3288" y2="62.8274" gradientUnits="userSpaceOnUse">
<stop stop-color="#CF8D49"/>
<stop offset="1" stop-color="#B63562"/>
</linearGradient>
<linearGradient id="paint69_linear_479_4132" x1="29.5808" y1="72.3239" x2="34.644" y2="72.3239" gradientUnits="userSpaceOnUse">
<stop stop-color="#CF8D49"/>
<stop offset="1" stop-color="#B63562"/>
</linearGradient>
<linearGradient id="paint70_linear_479_4132" x1="55.9827" y1="67.0011" x2="63.6591" y2="67.0011" gradientUnits="userSpaceOnUse">
<stop stop-color="#CF8D49"/>
<stop offset="1" stop-color="#B63562"/>
</linearGradient>
<linearGradient id="paint71_linear_479_4132" x1="64.2639" y1="66.2294" x2="65.3953" y2="66.2294" gradientUnits="userSpaceOnUse">
<stop stop-color="#CF8D49"/>
<stop offset="1" stop-color="#B63562"/>
</linearGradient>
<linearGradient id="paint72_linear_479_4132" x1="64.1077" y1="66.5844" x2="65.2354" y2="66.5844" gradientUnits="userSpaceOnUse">
<stop stop-color="#CF8D49"/>
<stop offset="1" stop-color="#B63562"/>
</linearGradient>
<linearGradient id="paint73_linear_479_4132" x1="63.926" y1="66.7944" x2="65.0792" y2="66.7944" gradientUnits="userSpaceOnUse">
<stop stop-color="#CF8D49"/>
<stop offset="1" stop-color="#B63562"/>
</linearGradient>
<linearGradient id="paint74_linear_479_4132" x1="63.7153" y1="66.9639" x2="64.8976" y2="66.9639" gradientUnits="userSpaceOnUse">
<stop stop-color="#CF8D49"/>
<stop offset="1" stop-color="#B63562"/>
</linearGradient>
<linearGradient id="paint75_linear_479_4132" x1="63.4412" y1="67.1024" x2="64.6815" y2="67.1024" gradientUnits="userSpaceOnUse">
<stop stop-color="#CF8D49"/>
<stop offset="1" stop-color="#B63562"/>
</linearGradient>
<linearGradient id="paint76_linear_479_4132" x1="62.6875" y1="67.2313" x2="64.4127" y2="67.2313" gradientUnits="userSpaceOnUse">
<stop stop-color="#CF8D49"/>
<stop offset="1" stop-color="#B63562"/>
</linearGradient>
<linearGradient id="paint77_linear_479_4132" x1="35.8335" y1="72.8791" x2="42.2659" y2="72.8791" gradientUnits="userSpaceOnUse">
<stop stop-color="#CF8D49"/>
<stop offset="1" stop-color="#B63562"/>
</linearGradient>
<linearGradient id="paint78_linear_479_4132" x1="35.71" y1="74.9477" x2="36.8032" y2="74.9477" gradientUnits="userSpaceOnUse">
<stop stop-color="#CF8D49"/>
<stop offset="1" stop-color="#B63562"/>
</linearGradient>
<linearGradient id="paint79_linear_479_4132" x1="35.4465" y1="75.0573" x2="36.6851" y2="75.0573" gradientUnits="userSpaceOnUse">
<stop stop-color="#CF8D49"/>
<stop offset="1" stop-color="#B63562"/>
</linearGradient>
<linearGradient id="paint80_linear_479_4132" x1="33.6724" y1="74.9823" x2="36.4146" y2="74.9823" gradientUnits="userSpaceOnUse">
<stop stop-color="#CF8D49"/>
<stop offset="1" stop-color="#B63562"/>
</linearGradient>
<linearGradient id="paint81_linear_479_4132" x1="51.0393" y1="70.2506" x2="55.4124" y2="70.2506" gradientUnits="userSpaceOnUse">
<stop stop-color="#CF8D49"/>
<stop offset="1" stop-color="#B63562"/>
</linearGradient>
<linearGradient id="paint82_linear_479_4132" x1="43.0015" y1="72.1537" x2="49.9043" y2="72.1537" gradientUnits="userSpaceOnUse">
<stop stop-color="#CF8D49"/>
<stop offset="1" stop-color="#B63562"/>
</linearGradient>
<linearGradient id="paint83_linear_479_4132" x1="50.9031" y1="73.1145" x2="52.0036" y2="73.1145" gradientUnits="userSpaceOnUse">
<stop stop-color="#CF8D49"/>
<stop offset="1" stop-color="#B63562"/>
</linearGradient>
<linearGradient id="paint84_linear_479_4132" x1="50.7288" y1="73.2956" x2="51.8819" y2="73.2956" gradientUnits="userSpaceOnUse">
<stop stop-color="#CF8D49"/>
<stop offset="1" stop-color="#B63562"/>
</linearGradient>
<linearGradient id="paint85_linear_479_4132" x1="50.5217" y1="73.464" x2="51.7003" y2="73.464" gradientUnits="userSpaceOnUse">
<stop stop-color="#CF8D49"/>
<stop offset="1" stop-color="#B63562"/>
</linearGradient>
<linearGradient id="paint86_linear_479_4132" x1="50.251" y1="73.6073" x2="51.4913" y2="73.6073" gradientUnits="userSpaceOnUse">
<stop stop-color="#CF8D49"/>
<stop offset="1" stop-color="#B63562"/>
</linearGradient>
<linearGradient id="paint87_linear_479_4132" x1="48.9326" y1="73.7077" x2="51.2227" y2="73.7077" gradientUnits="userSpaceOnUse">
<stop stop-color="#CF8D49"/>
<stop offset="1" stop-color="#B63562"/>
</linearGradient>
<linearGradient id="paint88_linear_479_4132" x1="0.998535" y1="37.24" x2="79.0404" y2="37.24" gradientUnits="userSpaceOnUse">
<stop stop-color="#CF8D49"/>
<stop offset="1" stop-color="#B63562"/>
</linearGradient>
</defs>
</svg>
