<svg width="1168" height="96" viewBox="0 0 1168 96" fill="none" xmlns="http://www.w3.org/2000/svg">
<rect width="1168" height="96" fill="#181A1F"/>
<path d="M61.52 43.8322H64.64C66.0054 43.8322 67.024 44.3015 67.696 45.2402C68.368 46.1788 68.704 47.5708 68.704 49.4162C68.704 51.2615 68.368 52.6535 67.696 53.5922C67.024 54.5308 66.0054 55.0002 64.64 55.0002H61.52V43.8322ZM64.576 53.8322C65.472 53.8322 66.144 53.5228 66.592 52.9042C67.0507 52.2855 67.28 51.4108 67.28 50.2802V48.5522C67.28 47.4215 67.0507 46.5468 66.592 45.9282C66.144 45.3095 65.472 45.0002 64.576 45.0002H62.864V53.8322H64.576Z" fill="#55575F"/>
<path d="M71.0338 55.0002V43.8322H77.9138V45.0002H72.3778V48.7602H77.7218V49.9282H72.3778V53.8322H77.9138V55.0002H71.0338Z" fill="#55575F"/>
<path d="M80.5315 55.0002V53.9282H83.3155V44.9042H80.5315V43.8322H87.4435V44.9042H84.6595V53.9282H87.4435V55.0002H80.5315Z" fill="#55575F"/>
<path d="M99.783 43.8322H103.575C104.535 43.8322 105.287 44.0935 105.831 44.6162C106.375 45.1388 106.647 45.8375 106.647 46.7122C106.647 47.3842 106.482 47.9122 106.151 48.2962C105.831 48.6802 105.415 48.9522 104.903 49.1122V49.1602C105.532 49.3095 106.05 49.5922 106.455 50.0082C106.86 50.4135 107.063 51.0055 107.063 51.7842C107.063 52.2322 106.988 52.6535 106.839 53.0482C106.69 53.4428 106.476 53.7842 106.199 54.0722C105.932 54.3602 105.612 54.5895 105.239 54.7602C104.876 54.9202 104.482 55.0002 104.055 55.0002H99.783V43.8322ZM103.655 53.8322C104.274 53.8322 104.759 53.6935 105.111 53.4162C105.463 53.1388 105.639 52.7122 105.639 52.1362V51.4802C105.639 50.9148 105.463 50.4935 105.111 50.2162C104.759 49.9282 104.274 49.7842 103.655 49.7842H101.127V53.8322H103.655ZM103.431 48.6802C103.996 48.6802 104.439 48.5575 104.759 48.3122C105.079 48.0562 105.239 47.6722 105.239 47.1602V46.5362C105.239 46.0242 105.079 45.6402 104.759 45.3842C104.439 45.1282 103.996 45.0002 103.431 45.0002H101.127V48.6802H103.431Z" fill="#55575F"/>
<path d="M112.769 55.1922C112.193 55.1922 111.67 55.0908 111.201 54.8882C110.742 54.6855 110.347 54.3975 110.017 54.0242C109.697 53.6402 109.451 53.1868 109.281 52.6642C109.11 52.1308 109.025 51.5335 109.025 50.8722C109.025 50.2215 109.11 49.6295 109.281 49.0962C109.451 48.5628 109.697 48.1095 110.017 47.7362C110.347 47.3522 110.742 47.0588 111.201 46.8562C111.67 46.6535 112.193 46.5522 112.769 46.5522C113.345 46.5522 113.862 46.6535 114.321 46.8562C114.79 47.0588 115.185 47.3522 115.505 47.7362C115.835 48.1095 116.086 48.5628 116.257 49.0962C116.427 49.6295 116.513 50.2215 116.513 50.8722C116.513 51.5335 116.427 52.1308 116.257 52.6642C116.086 53.1868 115.835 53.6402 115.505 54.0242C115.185 54.3975 114.79 54.6855 114.321 54.8882C113.862 55.0908 113.345 55.1922 112.769 55.1922ZM112.769 54.0882C113.483 54.0882 114.059 53.8748 114.497 53.4482C114.934 53.0215 115.153 52.3602 115.153 51.4642V50.2802C115.153 49.3842 114.934 48.7228 114.497 48.2962C114.059 47.8695 113.483 47.6562 112.769 47.6562C112.054 47.6562 111.478 47.8695 111.041 48.2962C110.603 48.7228 110.385 49.3842 110.385 50.2802V51.4642C110.385 52.3602 110.603 53.0215 111.041 53.4482C111.478 53.8748 112.054 54.0882 112.769 54.0882Z" fill="#55575F"/>
<path d="M119.131 55.0002V46.7442H120.411V48.0882H120.475C120.56 47.8855 120.667 47.6935 120.795 47.5122C120.923 47.3202 121.077 47.1548 121.259 47.0162C121.451 46.8775 121.675 46.7655 121.931 46.6802C122.187 46.5948 122.485 46.5522 122.827 46.5522C123.691 46.5522 124.384 46.8295 124.907 47.3842C125.429 47.9282 125.691 48.7015 125.691 49.7042V55.0002H124.411V49.9282C124.411 49.1708 124.245 48.6108 123.915 48.2482C123.584 47.8748 123.099 47.6882 122.459 47.6882C122.203 47.6882 121.952 47.7202 121.707 47.7842C121.461 47.8482 121.243 47.9442 121.051 48.0722C120.859 48.2002 120.704 48.3655 120.587 48.5682C120.469 48.7708 120.411 49.0055 120.411 49.2722V55.0002H119.131Z" fill="#55575F"/>
<path d="M133.956 53.6562H133.892C133.359 54.6802 132.511 55.1922 131.348 55.1922C130.335 55.1922 129.54 54.8135 128.964 54.0562C128.399 53.2988 128.116 52.2375 128.116 50.8722C128.116 49.5068 128.399 48.4455 128.964 47.6882C129.54 46.9308 130.335 46.5522 131.348 46.5522C132.511 46.5522 133.359 47.0642 133.892 48.0882H133.956V43.1602H135.236V55.0002H133.956V53.6562ZM131.844 54.0562C132.132 54.0562 132.404 54.0188 132.66 53.9442C132.916 53.8695 133.14 53.7628 133.332 53.6242C133.524 53.4748 133.674 53.2988 133.78 53.0962C133.898 52.8828 133.956 52.6375 133.956 52.3602V49.3842C133.956 49.1068 133.898 48.8668 133.78 48.6642C133.674 48.4508 133.524 48.2748 133.332 48.1362C133.14 47.9868 132.916 47.8748 132.66 47.8002C132.404 47.7255 132.132 47.6882 131.844 47.6882C131.098 47.6882 130.516 47.9175 130.1 48.3762C129.695 48.8242 129.492 49.4215 129.492 50.1682V51.5762C129.492 52.3228 129.695 52.9255 130.1 53.3842C130.516 53.8322 131.098 54.0562 131.844 54.0562Z" fill="#55575F"/>
<path d="M46.4032 49.7908L47.8619 48.3324C47.9057 48.2888 47.9404 48.237 47.9641 48.1799C47.9878 48.1229 48 48.0618 48 48C48 47.9382 47.9878 47.8771 47.9641 47.8201C47.9404 47.763 47.9057 47.7112 47.8619 47.6676L46.3837 46.1896C46.3179 46.1242 46.2731 46.0406 46.2549 45.9497C46.2367 45.8587 46.2459 45.7643 46.2814 45.6786L47.0815 43.7447C47.1052 43.6877 47.1174 43.6266 47.1173 43.5649C47.1173 43.5032 47.1051 43.4421 47.0814 43.3851C47.0577 43.3281 47.023 43.2764 46.9792 43.2328C46.9354 43.1893 46.8835 43.1549 46.8263 43.1315L44.9178 42.3459C44.8316 42.3105 44.7579 42.2503 44.7062 42.1729C44.6544 42.0955 44.6269 42.0044 44.6271 41.9113V39.8485C44.6271 39.7238 44.5776 39.6042 44.4894 39.5161C44.4012 39.4279 44.2816 39.3784 44.1569 39.3784H42.0652C41.9724 39.3785 41.8817 39.3511 41.8045 39.2997C41.7273 39.2483 41.6671 39.1751 41.6314 39.0895L40.8269 37.1574C40.8032 37.1005 40.7685 37.0488 40.7248 37.0053C40.681 36.9618 40.6292 36.9274 40.5721 36.9039C40.5151 36.8805 40.454 36.8685 40.3923 36.8687C40.3306 36.8689 40.2696 36.8812 40.2127 36.905L38.3077 37.6986C38.2215 37.7344 38.1267 37.7437 38.0353 37.7255C37.9438 37.7073 37.8598 37.6624 37.7939 37.5964L36.3351 36.138C36.2915 36.0943 36.2397 36.0596 36.1827 36.0359C36.1256 36.0122 36.0644 36 36.0027 36C35.9409 36 35.8797 36.0122 35.8227 36.0359C35.7656 36.0596 35.7138 36.0943 35.6702 36.138L34.1919 37.616C34.1264 37.6817 34.0429 37.7265 33.9519 37.7447C33.8609 37.7629 33.7665 37.7537 33.6808 37.7182L31.7464 36.9228C31.6894 36.8991 31.6283 36.8869 31.5666 36.8869C31.5048 36.8869 31.4437 36.8991 31.3867 36.9228C31.3297 36.9465 31.278 36.9813 31.2344 37.025C31.1909 37.0688 31.1565 37.1207 31.1331 37.1778L30.3473 39.086C30.3119 39.1721 30.2517 39.2458 30.1742 39.2975C30.0968 39.3493 30.0057 39.3768 29.9126 39.3766H27.8494C27.7876 39.3766 27.7265 39.3887 27.6694 39.4124C27.6123 39.436 27.5605 39.4706 27.5168 39.5143C27.4732 39.5579 27.4385 39.6098 27.4149 39.6668C27.3913 39.7238 27.3791 39.785 27.3791 39.8467V41.9388C27.3792 42.0316 27.3518 42.1222 27.3004 42.1994C27.249 42.2766 27.1758 42.3369 27.0902 42.3725L25.1577 43.1768C25.1007 43.2005 25.049 43.2353 25.0055 43.279C24.962 43.3227 24.9276 43.3745 24.9041 43.4316C24.8807 43.4886 24.8687 43.5497 24.8689 43.6114C24.8691 43.673 24.8814 43.734 24.9052 43.7909L25.699 45.6955C25.7347 45.7816 25.7441 45.8764 25.7259 45.9679C25.7077 46.0593 25.6628 46.1433 25.5968 46.2092L24.138 47.6676C24.0943 47.7112 24.0596 47.763 24.0359 47.8201C24.0122 47.8771 24 47.9382 24 48C24 48.0618 24.0122 48.1229 24.0359 48.1799C24.0596 48.237 24.0943 48.2888 24.138 48.3324L25.6163 49.8104C25.6821 49.8758 25.7269 49.9594 25.7451 50.0503C25.7633 50.1413 25.7541 50.2357 25.7186 50.3214L24.923 52.2553C24.8993 52.3123 24.8871 52.3734 24.8871 52.4351C24.8871 52.4968 24.8993 52.5579 24.923 52.6149C24.9467 52.6719 24.9815 52.7236 25.0252 52.7672C25.069 52.8107 25.121 52.8451 25.1781 52.8685L27.0866 53.6542C27.1728 53.6895 27.2465 53.7497 27.2983 53.8271C27.3501 53.9045 27.3776 53.9956 27.3773 54.0887V56.1515C27.3773 56.2762 27.4269 56.3958 27.5151 56.4839C27.6032 56.5721 27.7229 56.6216 27.8476 56.6216H29.9401C30.0329 56.6215 30.1236 56.6489 30.2008 56.7003C30.278 56.7517 30.3383 56.8249 30.3739 56.9105L31.1784 58.8426C31.2021 58.8995 31.2369 58.9512 31.2806 58.9947C31.3243 59.0382 31.3762 59.0726 31.4332 59.0961C31.4903 59.1195 31.5514 59.1315 31.6131 59.1313C31.6747 59.1311 31.7358 59.1188 31.7927 59.095L33.6977 58.3014C33.7838 58.2656 33.8786 58.2563 33.9701 58.2745C34.0615 58.2927 34.1456 58.3376 34.2115 58.4036L35.6702 59.862C35.7138 59.9057 35.7656 59.9404 35.8227 59.9641C35.8797 59.9878 35.9409 60 36.0027 60C36.0644 60 36.1256 59.9878 36.1827 59.9641C36.2397 59.9404 36.2915 59.9057 36.3351 59.862L37.8134 58.384C37.8789 58.3183 37.9625 58.2735 38.0535 58.2553C38.1445 58.2371 38.2388 58.2463 38.3246 58.2818L40.2589 59.0817C40.3159 59.1054 40.377 59.1176 40.4388 59.1175C40.5005 59.1175 40.5616 59.1053 40.6186 59.0816C40.6756 59.0579 40.7274 59.0232 40.7709 58.9794C40.8144 58.9357 40.8489 58.8837 40.8723 58.8266L41.6581 56.9185C41.6934 56.8323 41.7537 56.7587 41.8311 56.7069C41.9085 56.6551 41.9996 56.6276 42.0928 56.6279H44.156C44.2807 56.6279 44.4003 56.5783 44.4885 56.4902C44.5767 56.402 44.6262 56.2824 44.6262 56.1577V54.0612C44.6261 53.9685 44.6535 53.8778 44.7049 53.8006C44.7564 53.7234 44.8295 53.6631 44.9151 53.6275L46.8477 52.8232C46.9046 52.7995 46.9563 52.7647 46.9998 52.721C47.0433 52.6773 47.0778 52.6255 47.1012 52.5684C47.1247 52.5114 47.1366 52.4503 47.1364 52.3886C47.1363 52.327 47.1239 52.266 47.1001 52.2091L46.3063 50.3045C46.2699 50.2189 46.2597 50.1244 46.2769 50.033C46.2942 49.9416 46.3381 49.8573 46.4032 49.7908Z" fill="#55575F"/>
<path d="M41.2206 46.4636H42.6667V45.198H40.4013C39.938 44.4243 39.2904 43.7856 38.52 43.3426C37.7496 42.8996 36.882 42.667 35.9998 42.667C35.1176 42.667 34.25 42.8996 33.4796 43.3426C32.7092 43.7856 32.0616 44.4243 31.5984 45.198H29.3334V46.4636H31.0439C30.7546 47.4556 30.7516 48.5129 31.0352 49.5067H29.3334V50.7723H31.5801C32.0414 51.5544 32.6904 52.2008 33.4645 52.6494C34.2386 53.098 35.1117 53.3337 35.9998 53.3337C36.8879 53.3337 37.7611 53.098 38.5352 52.6494C39.3093 52.2008 39.9582 51.5544 40.4195 50.7723H42.6667V49.5067H40.9649C41.2487 48.513 41.2456 47.4555 40.9558 46.4636H41.2206ZM36.0018 51.541C35.3223 51.541 34.658 51.3333 34.093 50.9443C33.528 50.5552 33.0876 50.0023 32.8276 49.3553C32.5675 48.7084 32.4995 47.9965 32.632 47.3097C32.7646 46.6229 33.0918 45.992 33.5723 45.4969C34.0528 45.0017 34.665 44.6645 35.3315 44.5279C35.998 44.3913 36.6888 44.4614 37.3166 44.7294C37.9444 44.9973 38.481 45.4511 38.8585 46.0334C39.236 46.6156 39.4375 47.3001 39.4375 48.0004C39.4365 48.9394 39.0739 49.8396 38.4295 50.5034C37.785 51.1672 36.9112 51.5404 36 51.541H36.0018ZM36.0018 46.78C36.236 46.78 36.465 46.8516 36.6597 46.9857C36.8545 47.1198 37.0062 47.3104 37.0959 47.5334C37.1855 47.7564 37.209 48.0018 37.1633 48.2385C37.1176 48.4752 37.0048 48.6927 36.8392 48.8633C36.6736 49.034 36.4625 49.1502 36.2328 49.1973C36.0031 49.2444 35.765 49.2202 35.5486 49.1279C35.3322 49.0355 35.1472 48.8791 35.0171 48.6784C34.887 48.4777 34.8175 48.2418 34.8175 48.0004C34.8175 47.677 34.9421 47.3669 35.1638 47.1381C35.3855 46.9093 35.6863 46.7805 36 46.78H36.0018Z" fill="#EBEBEC"/>
<g filter="url(#filter0_b_1677_6894)">
<rect x="995" y="24" width="149" height="48" rx="8" fill="#202229"/>
</g>
<path d="M274.86 49.8561V48.8481H278.34V49.8561H274.86Z" fill="#EBEBEC"/>
<path d="M274.86 73.8561V72.8481H278.34V73.8561H274.86Z" fill="#EBEBEC"/>
<path d="M274.056 20.6241H276.9C277.62 20.6241 278.184 20.8201 278.592 21.2121C279 21.6041 279.204 22.1281 279.204 22.7841C279.204 23.2881 279.08 23.6841 278.832 23.9721C278.592 24.2601 278.28 24.4641 277.896 24.5841V24.6201C278.368 24.7321 278.756 24.9441 279.06 25.2561C279.364 25.5601 279.516 26.0041 279.516 26.5881C279.516 26.9241 279.46 27.2401 279.348 27.5361C279.236 27.8321 279.076 28.0881 278.868 28.3041C278.668 28.5201 278.428 28.6921 278.148 28.8201C277.876 28.9401 277.58 29.0001 277.26 29.0001H274.056V20.6241ZM276.96 28.1241C277.424 28.1241 277.788 28.0201 278.052 27.8121C278.316 27.6041 278.448 27.2841 278.448 26.8521V26.3601C278.448 25.9361 278.316 25.6201 278.052 25.4121C277.788 25.1961 277.424 25.0881 276.96 25.0881H275.064V28.1241H276.96ZM276.792 24.2601C277.216 24.2601 277.548 24.1681 277.788 23.9841C278.028 23.7921 278.148 23.5041 278.148 23.1201V22.6521C278.148 22.2681 278.028 21.9801 277.788 21.7881C277.548 21.5961 277.216 21.5001 276.792 21.5001H275.064V24.2601H276.792Z" fill="#6F7380"/>
<path d="M283.795 29.1441C283.363 29.1441 282.971 29.0681 282.619 28.9161C282.275 28.7641 281.979 28.5481 281.731 28.2681C281.491 27.9801 281.307 27.6401 281.179 27.2481C281.051 26.8481 280.987 26.4001 280.987 25.9041C280.987 25.4161 281.051 24.9721 281.179 24.5721C281.307 24.1721 281.491 23.8321 281.731 23.5521C281.979 23.2641 282.275 23.0441 282.619 22.8921C282.971 22.7401 283.363 22.6641 283.795 22.6641C284.227 22.6641 284.615 22.7401 284.959 22.8921C285.311 23.0441 285.607 23.2641 285.847 23.5521C286.095 23.8321 286.283 24.1721 286.411 24.5721C286.539 24.9721 286.603 25.4161 286.603 25.9041C286.603 26.4001 286.539 26.8481 286.411 27.2481C286.283 27.6401 286.095 27.9801 285.847 28.2681C285.607 28.5481 285.311 28.7641 284.959 28.9161C284.615 29.0681 284.227 29.1441 283.795 29.1441ZM283.795 28.3161C284.331 28.3161 284.763 28.1561 285.091 27.8361C285.419 27.5161 285.583 27.0201 285.583 26.3481V25.4601C285.583 24.7881 285.419 24.2921 285.091 23.9721C284.763 23.6521 284.331 23.4921 283.795 23.4921C283.259 23.4921 282.827 23.6521 282.499 23.9721C282.171 24.2921 282.007 24.7881 282.007 25.4601V26.3481C282.007 27.0201 282.171 27.5161 282.499 27.8361C282.827 28.1561 283.259 28.3161 283.795 28.3161Z" fill="#6F7380"/>
<path d="M288.567 29.0001V22.8081H289.527V23.8161H289.575C289.639 23.6641 289.719 23.5201 289.815 23.3841C289.911 23.2401 290.027 23.1161 290.163 23.0121C290.307 22.9081 290.475 22.8241 290.667 22.7601C290.859 22.6961 291.083 22.6641 291.339 22.6641C291.987 22.6641 292.507 22.8721 292.899 23.2881C293.291 23.6961 293.487 24.2761 293.487 25.0281V29.0001H292.527V25.1961C292.527 24.6281 292.403 24.2081 292.155 23.9361C291.907 23.6561 291.543 23.5161 291.063 23.5161C290.871 23.5161 290.683 23.5401 290.499 23.5881C290.315 23.6361 290.151 23.7081 290.007 23.8041C289.863 23.9001 289.747 24.0241 289.659 24.1761C289.571 24.3281 289.527 24.5041 289.527 24.7041V29.0001H288.567Z" fill="#6F7380"/>
<path d="M299.686 27.9921H299.638C299.238 28.7601 298.602 29.1441 297.73 29.1441C296.97 29.1441 296.374 28.8601 295.942 28.2921C295.518 27.7241 295.306 26.9281 295.306 25.9041C295.306 24.8801 295.518 24.0841 295.942 23.5161C296.374 22.9481 296.97 22.6641 297.73 22.6641C298.602 22.6641 299.238 23.0481 299.638 23.8161H299.686V20.1201H300.646V29.0001H299.686V27.9921ZM298.102 28.2921C298.318 28.2921 298.522 28.2641 298.714 28.2081C298.906 28.1521 299.074 28.0721 299.218 27.9681C299.362 27.8561 299.474 27.7241 299.554 27.5721C299.642 27.4121 299.686 27.2281 299.686 27.0201V24.7881C299.686 24.5801 299.642 24.4001 299.554 24.2481C299.474 24.0881 299.362 23.9561 299.218 23.8521C299.074 23.7401 298.906 23.6561 298.714 23.6001C298.522 23.5441 298.318 23.5161 298.102 23.5161C297.542 23.5161 297.106 23.6881 296.794 24.0321C296.49 24.3681 296.338 24.8161 296.338 25.3761V26.4321C296.338 26.9921 296.49 27.4441 296.794 27.7881C297.106 28.1241 297.542 28.2921 298.102 28.2921Z" fill="#6F7380"/>
<path d="M311.892 29.0001L309.408 20.6241H310.476L311.664 24.8121L312.564 27.9801H312.624L313.524 24.8121L314.712 20.6241H315.744L313.26 29.0001H311.892Z" fill="#6F7380"/>
<path d="M322.112 29.0001C321.736 29.0001 321.468 28.9041 321.308 28.7121C321.148 28.5201 321.048 28.2801 321.008 27.9921H320.948C320.812 28.3521 320.592 28.6361 320.288 28.8441C319.992 29.0441 319.592 29.1441 319.088 29.1441C318.44 29.1441 317.924 28.9761 317.54 28.6401C317.156 28.3041 316.964 27.8441 316.964 27.2601C316.964 26.6841 317.172 26.2401 317.588 25.9281C318.012 25.6161 318.692 25.4601 319.628 25.4601H320.948V24.8481C320.948 24.3921 320.82 24.0521 320.564 23.8281C320.308 23.5961 319.944 23.4801 319.472 23.4801C319.056 23.4801 318.716 23.5641 318.452 23.7321C318.188 23.8921 317.976 24.1121 317.816 24.3921L317.168 23.9121C317.248 23.7521 317.356 23.5961 317.492 23.4441C317.628 23.2921 317.796 23.1601 317.996 23.0481C318.196 22.9281 318.424 22.8361 318.68 22.7721C318.936 22.7001 319.22 22.6641 319.532 22.6641C320.26 22.6641 320.836 22.8481 321.26 23.2161C321.692 23.5841 321.908 24.0961 321.908 24.7521V28.1601H322.772V29.0001H322.112ZM319.256 28.3401C319.504 28.3401 319.728 28.3121 319.928 28.2561C320.136 28.1921 320.316 28.1121 320.468 28.0161C320.62 27.9121 320.736 27.7921 320.816 27.6561C320.904 27.5121 320.948 27.3601 320.948 27.2001V26.1801H319.628C319.052 26.1801 318.632 26.2601 318.368 26.4201C318.104 26.5801 317.972 26.8121 317.972 27.1161V27.3681C317.972 27.6881 318.084 27.9321 318.308 28.1001C318.54 28.2601 318.856 28.3401 319.256 28.3401Z" fill="#6F7380"/>
<path d="M324.327 28.1841H326.487V20.9361H324.327V20.1201H327.447V28.1841H329.607V29.0001H324.327V28.1841Z" fill="#6F7380"/>
<path d="M335.626 27.9921H335.578C335.514 28.1441 335.434 28.2921 335.338 28.4361C335.242 28.5721 335.122 28.6921 334.978 28.7961C334.842 28.9001 334.678 28.9841 334.486 29.0481C334.294 29.1121 334.07 29.1441 333.814 29.1441C333.166 29.1441 332.646 28.9401 332.254 28.5321C331.862 28.1161 331.666 27.5321 331.666 26.7801V22.8081H332.626V26.6121C332.626 27.1801 332.75 27.6041 332.998 27.8841C333.246 28.1561 333.61 28.2921 334.09 28.2921C334.282 28.2921 334.47 28.2681 334.654 28.2201C334.838 28.1721 335.002 28.1001 335.146 28.0041C335.29 27.9081 335.406 27.7881 335.494 27.6441C335.582 27.4921 335.626 27.3121 335.626 27.1041V22.8081H336.586V29.0001H335.626V27.9921Z" fill="#6F7380"/>
<path d="M341.466 29.1441C341.018 29.1441 340.614 29.0681 340.254 28.9161C339.902 28.7641 339.598 28.5481 339.342 28.2681C339.094 27.9801 338.902 27.6401 338.766 27.2481C338.63 26.8481 338.562 26.4041 338.562 25.9161C338.562 25.4201 338.63 24.9721 338.766 24.5721C338.91 24.1721 339.106 23.8321 339.354 23.5521C339.602 23.2641 339.898 23.0441 340.242 22.8921C340.594 22.7401 340.982 22.6641 341.406 22.6641C341.822 22.6641 342.198 22.7401 342.534 22.8921C342.878 23.0441 343.17 23.2561 343.41 23.5281C343.65 23.7921 343.834 24.1081 343.962 24.4761C344.09 24.8441 344.154 25.2481 344.154 25.6881V26.1441H339.57V26.4321C339.57 26.7041 339.614 26.9561 339.702 27.1881C339.79 27.4201 339.914 27.6201 340.074 27.7881C340.242 27.9561 340.442 28.0881 340.674 28.1841C340.914 28.2721 341.178 28.3161 341.466 28.3161C341.882 28.3161 342.242 28.2201 342.546 28.0281C342.85 27.8361 343.082 27.5721 343.242 27.2361L343.95 27.7161C343.766 28.1321 343.458 28.4761 343.026 28.7481C342.602 29.0121 342.082 29.1441 341.466 29.1441ZM341.406 23.4561C341.142 23.4561 340.898 23.5041 340.674 23.6001C340.45 23.6961 340.254 23.8281 340.086 23.9961C339.926 24.1641 339.798 24.3641 339.702 24.5961C339.614 24.8201 339.57 25.0681 339.57 25.3401V25.4241H343.122V25.2921C343.122 25.0201 343.078 24.7721 342.99 24.5481C342.91 24.3241 342.794 24.1321 342.642 23.9721C342.498 23.8041 342.318 23.6761 342.102 23.5881C341.894 23.5001 341.662 23.4561 341.406 23.4561Z" fill="#6F7380"/>
<path d="M520.86 61.8561V60.8481H524.34V61.8561H520.86Z" fill="#EBEBEC"/>
<path d="M522.876 41.1439C521.852 41.1439 521.088 40.7719 520.584 40.0279C520.088 39.2839 519.84 38.2119 519.84 36.8119C519.84 35.4119 520.088 34.3399 520.584 33.5959C521.088 32.8519 521.852 32.4799 522.876 32.4799C523.26 32.4799 523.592 32.5319 523.872 32.6359C524.152 32.7399 524.392 32.8799 524.592 33.0559C524.792 33.2319 524.96 33.4319 525.096 33.6559C525.232 33.8719 525.352 34.0919 525.456 34.3159L524.592 34.7119C524.52 34.5279 524.436 34.3559 524.34 34.1959C524.244 34.0279 524.128 33.8839 523.992 33.7639C523.864 33.6359 523.708 33.5359 523.524 33.4639C523.348 33.3919 523.132 33.3559 522.876 33.3559C522.212 33.3559 521.716 33.6079 521.388 34.1119C521.068 34.6159 520.908 35.2879 520.908 36.1279V37.4959C520.908 38.3359 521.068 39.0079 521.388 39.5119C521.716 40.0159 522.212 40.2679 522.876 40.2679C523.132 40.2679 523.348 40.2319 523.524 40.1599C523.708 40.0879 523.864 39.9919 523.992 39.8719C524.128 39.7439 524.244 39.5999 524.34 39.4399C524.436 39.2719 524.52 39.0959 524.592 38.9119L525.456 39.3079C525.352 39.5399 525.232 39.7639 525.096 39.9799C524.96 40.1959 524.792 40.3919 524.592 40.5679C524.392 40.7439 524.152 40.8839 523.872 40.9879C523.592 41.0919 523.26 41.1439 522.876 41.1439Z" fill="#6F7380"/>
<path d="M527.155 40.1839H529.315V32.9359H527.155V32.1199H530.275V40.1839H532.435V40.9999H527.155V40.1839Z" fill="#6F7380"/>
<path d="M539.331 40.9999C538.955 40.9999 538.687 40.9039 538.527 40.7119C538.367 40.5199 538.267 40.2799 538.227 39.9919H538.167C538.031 40.3519 537.811 40.6359 537.507 40.8439C537.211 41.0439 536.811 41.1439 536.307 41.1439C535.659 41.1439 535.143 40.9759 534.759 40.6399C534.375 40.3039 534.183 39.8439 534.183 39.2599C534.183 38.6839 534.391 38.2399 534.807 37.9279C535.231 37.6159 535.911 37.4599 536.847 37.4599H538.167V36.8479C538.167 36.3919 538.039 36.0519 537.783 35.8279C537.527 35.5959 537.163 35.4799 536.691 35.4799C536.275 35.4799 535.935 35.5639 535.671 35.7319C535.407 35.8919 535.195 36.1119 535.035 36.3919L534.387 35.9119C534.467 35.7519 534.575 35.5959 534.711 35.4439C534.847 35.2919 535.015 35.1599 535.215 35.0479C535.415 34.9279 535.643 34.8359 535.899 34.7719C536.155 34.6999 536.439 34.6639 536.751 34.6639C537.479 34.6639 538.055 34.8479 538.479 35.2159C538.911 35.5839 539.127 36.0959 539.127 36.7519V40.1599H539.991V40.9999H539.331ZM536.475 40.3399C536.723 40.3399 536.947 40.3119 537.147 40.2559C537.355 40.1919 537.535 40.1119 537.687 40.0159C537.839 39.9119 537.955 39.7919 538.035 39.6559C538.123 39.5119 538.167 39.3599 538.167 39.1999V38.1799H536.847C536.271 38.1799 535.851 38.2599 535.587 38.4199C535.323 38.5799 535.191 38.8119 535.191 39.1159V39.3679C535.191 39.6879 535.303 39.9319 535.527 40.0999C535.759 40.2599 536.075 40.3399 536.475 40.3399Z" fill="#6F7380"/>
<path d="M544.57 33.4399C544.29 33.4399 544.094 33.3839 543.982 33.2719C543.87 33.1519 543.814 33.0039 543.814 32.8279V32.6359C543.814 32.4599 543.87 32.3159 543.982 32.2039C544.094 32.0839 544.29 32.0239 544.57 32.0239C544.85 32.0239 545.046 32.0839 545.158 32.2039C545.27 32.3159 545.326 32.4599 545.326 32.6359V32.8279C545.326 33.0039 545.27 33.1519 545.158 33.2719C545.046 33.3839 544.85 33.4399 544.57 33.4399ZM541.858 40.1839H544.09V35.6239H541.858V34.8079H545.05V40.1839H547.138V40.9999H541.858V40.1839Z" fill="#6F7380"/>
<path d="M548.429 40.9999V34.8079H549.317V35.5279H549.365C549.461 35.2879 549.597 35.0839 549.773 34.9159C549.949 34.7479 550.209 34.6639 550.553 34.6639C550.913 34.6639 551.181 34.7559 551.357 34.9399C551.533 35.1159 551.641 35.3479 551.681 35.6359H551.717C551.829 35.3559 551.989 35.1239 552.197 34.9399C552.405 34.7559 552.693 34.6639 553.061 34.6639C553.565 34.6639 553.901 34.8399 554.069 35.1919C554.245 35.5439 554.333 36.0479 554.333 36.7039V40.9999H553.445V36.8599C553.445 36.3319 553.389 35.9679 553.277 35.7679C553.173 35.5599 552.977 35.4559 552.689 35.4559C552.433 35.4559 552.225 35.5399 552.065 35.7079C551.905 35.8679 551.825 36.1159 551.825 36.4519V40.9999H550.937V36.8599C550.937 36.3319 550.881 35.9679 550.769 35.7679C550.665 35.5599 550.473 35.4559 550.193 35.4559C549.937 35.4559 549.725 35.5399 549.557 35.7079C549.397 35.8679 549.317 36.1159 549.317 36.4519V40.9999H548.429Z" fill="#6F7380"/>
<path d="M560.917 40.9999C560.541 40.9999 560.273 40.9039 560.113 40.7119C559.953 40.5199 559.853 40.2799 559.813 39.9919H559.753C559.617 40.3519 559.397 40.6359 559.093 40.8439C558.797 41.0439 558.397 41.1439 557.893 41.1439C557.245 41.1439 556.729 40.9759 556.345 40.6399C555.961 40.3039 555.769 39.8439 555.769 39.2599C555.769 38.6839 555.977 38.2399 556.393 37.9279C556.817 37.6159 557.497 37.4599 558.433 37.4599H559.753V36.8479C559.753 36.3919 559.625 36.0519 559.369 35.8279C559.113 35.5959 558.749 35.4799 558.277 35.4799C557.861 35.4799 557.521 35.5639 557.257 35.7319C556.993 35.8919 556.781 36.1119 556.621 36.3919L555.973 35.9119C556.053 35.7519 556.161 35.5959 556.297 35.4439C556.433 35.2919 556.601 35.1599 556.801 35.0479C557.001 34.9279 557.229 34.8359 557.485 34.7719C557.741 34.6999 558.025 34.6639 558.337 34.6639C559.065 34.6639 559.641 34.8479 560.065 35.2159C560.497 35.5839 560.713 36.0959 560.713 36.7519V40.1599H561.577V40.9999H560.917ZM558.061 40.3399C558.309 40.3399 558.533 40.3119 558.733 40.2559C558.941 40.1919 559.121 40.1119 559.273 40.0159C559.425 39.9119 559.541 39.7919 559.621 39.6559C559.709 39.5119 559.753 39.3599 559.753 39.1999V38.1799H558.433C557.857 38.1799 557.437 38.2599 557.173 38.4199C556.909 38.5799 556.777 38.8119 556.777 39.1159V39.3679C556.777 39.6879 556.889 39.9319 557.113 40.0999C557.345 40.2599 557.661 40.3399 558.061 40.3399Z" fill="#6F7380"/>
<path d="M563.312 32.1199H564.272V35.8159H564.32C564.72 35.0479 565.356 34.6639 566.228 34.6639C566.988 34.6639 567.58 34.9479 568.004 35.5159C568.436 36.0839 568.652 36.8799 568.652 37.9039C568.652 38.9279 568.436 39.7239 568.004 40.2919C567.58 40.8599 566.988 41.1439 566.228 41.1439C565.356 41.1439 564.72 40.7599 564.32 39.9919H564.272V40.9999H563.312V32.1199ZM565.856 40.2919C566.416 40.2919 566.848 40.1239 567.152 39.7879C567.464 39.4439 567.62 38.9919 567.62 38.4319V37.3759C567.62 36.8159 567.464 36.3679 567.152 36.0319C566.848 35.6879 566.416 35.5159 565.856 35.5159C565.64 35.5159 565.436 35.5439 565.244 35.5999C565.052 35.6559 564.884 35.7399 564.74 35.8519C564.596 35.9559 564.48 36.0879 564.392 36.2479C564.312 36.3999 564.272 36.5799 564.272 36.7879V39.0199C564.272 39.2279 564.312 39.4119 564.392 39.5719C564.48 39.7239 564.596 39.8559 564.74 39.9679C564.884 40.0719 565.052 40.1519 565.244 40.2079C565.436 40.2639 565.64 40.2919 565.856 40.2919Z" fill="#6F7380"/>
<path d="M570.327 40.1839H572.487V32.9359H570.327V32.1199H573.447V40.1839H575.607V40.9999H570.327V40.1839Z" fill="#6F7380"/>
<path d="M580.271 41.1439C579.823 41.1439 579.419 41.0679 579.059 40.9159C578.707 40.7639 578.403 40.5479 578.147 40.2679C577.899 39.9799 577.707 39.6399 577.571 39.2479C577.435 38.8479 577.367 38.4039 577.367 37.9159C577.367 37.4199 577.435 36.9719 577.571 36.5719C577.715 36.1719 577.911 35.8319 578.159 35.5519C578.407 35.2639 578.703 35.0439 579.047 34.8919C579.399 34.7399 579.787 34.6639 580.211 34.6639C580.627 34.6639 581.003 34.7399 581.339 34.8919C581.683 35.0439 581.975 35.2559 582.215 35.5279C582.455 35.7919 582.639 36.1079 582.767 36.4759C582.895 36.8439 582.959 37.2479 582.959 37.6879V38.1439H578.375V38.4319C578.375 38.7039 578.419 38.9559 578.507 39.1879C578.595 39.4199 578.719 39.6199 578.879 39.7879C579.047 39.9559 579.247 40.0879 579.479 40.1839C579.719 40.2719 579.983 40.3159 580.271 40.3159C580.687 40.3159 581.047 40.2199 581.351 40.0279C581.655 39.8359 581.887 39.5719 582.047 39.2359L582.755 39.7159C582.571 40.1319 582.263 40.4759 581.831 40.7479C581.407 41.0119 580.887 41.1439 580.271 41.1439ZM580.211 35.4559C579.947 35.4559 579.703 35.5039 579.479 35.5999C579.255 35.6959 579.059 35.8279 578.891 35.9959C578.731 36.1639 578.603 36.3639 578.507 36.5959C578.419 36.8199 578.375 37.0679 578.375 37.3399V37.4239H581.927V37.2919C581.927 37.0199 581.883 36.7719 581.795 36.5479C581.715 36.3239 581.599 36.1319 581.447 35.9719C581.303 35.8039 581.123 35.6759 580.907 35.5879C580.699 35.4999 580.467 35.4559 580.211 35.4559Z" fill="#6F7380"/>
<path d="M592.093 32.6239H594.433C595.457 32.6239 596.221 32.9759 596.725 33.6799C597.229 34.3839 597.481 35.4279 597.481 36.8119C597.481 38.1959 597.229 39.2399 596.725 39.9439C596.221 40.6479 595.457 40.9999 594.433 40.9999H592.093V32.6239ZM594.385 40.1239C595.057 40.1239 595.561 39.8919 595.897 39.4279C596.241 38.9639 596.413 38.3079 596.413 37.4599V36.1639C596.413 35.3159 596.241 34.6599 595.897 34.1959C595.561 33.7319 595.057 33.4999 594.385 33.4999H593.101V40.1239H594.385Z" fill="#6F7380"/>
<path d="M599.229 40.9999V32.6239H604.389V33.4999H600.237V36.3199H604.245V37.1959H600.237V40.1239H604.389V40.9999H599.229Z" fill="#6F7380"/>
<path d="M606.352 40.9999V40.1959H608.44V33.4279H606.352V32.6239H611.536V33.4279H609.448V40.1959H611.536V40.9999H606.352Z" fill="#6F7380"/>
<path d="M730.86 61.8561V60.8481H734.34V61.8561H730.86Z" fill="#EBEBEC"/>
<path d="M734.46 36.7999V34.1479H734.364L732.6 38.4559L730.836 34.1479H730.74V36.7999V40.9999H729.816V32.6239H731.112L732.588 36.3199H732.66L734.136 32.6239H735.384V40.9999H734.46V36.7999Z" fill="#6F7380"/>
<path d="M742.135 40.9999C741.759 40.9999 741.491 40.9039 741.331 40.7119C741.171 40.5199 741.071 40.2799 741.031 39.9919H740.971C740.835 40.3519 740.615 40.6359 740.311 40.8439C740.015 41.0439 739.615 41.1439 739.111 41.1439C738.463 41.1439 737.947 40.9759 737.563 40.6399C737.179 40.3039 736.987 39.8439 736.987 39.2599C736.987 38.6839 737.195 38.2399 737.611 37.9279C738.035 37.6159 738.715 37.4599 739.651 37.4599H740.971V36.8479C740.971 36.3919 740.843 36.0519 740.587 35.8279C740.331 35.5959 739.967 35.4799 739.495 35.4799C739.079 35.4799 738.739 35.5639 738.475 35.7319C738.211 35.8919 737.999 36.1119 737.839 36.3919L737.191 35.9119C737.271 35.7519 737.379 35.5959 737.515 35.4439C737.651 35.2919 737.819 35.1599 738.019 35.0479C738.219 34.9279 738.447 34.8359 738.703 34.7719C738.959 34.6999 739.243 34.6639 739.555 34.6639C740.283 34.6639 740.859 34.8479 741.283 35.2159C741.715 35.5839 741.931 36.0959 741.931 36.7519V40.1599H742.795V40.9999H742.135ZM739.279 40.3399C739.527 40.3399 739.751 40.3119 739.951 40.2559C740.159 40.1919 740.339 40.1119 740.491 40.0159C740.643 39.9119 740.759 39.7919 740.839 39.6559C740.927 39.5119 740.971 39.3599 740.971 39.1999V38.1799H739.651C739.075 38.1799 738.655 38.2599 738.391 38.4199C738.127 38.5799 737.995 38.8119 737.995 39.1159V39.3679C737.995 39.6879 738.107 39.9319 738.331 40.0999C738.563 40.2599 738.879 40.3399 739.279 40.3399Z" fill="#6F7380"/>
<path d="M747.291 40.9999C746.819 40.9999 746.471 40.8679 746.247 40.6039C746.031 40.3399 745.923 39.9999 745.923 39.5839V35.6239H743.859V34.8079H745.395C745.603 34.8079 745.747 34.7679 745.827 34.6879C745.915 34.5999 745.959 34.4519 745.959 34.2439V32.6239H746.883V34.8079H749.703V35.6239H746.883V40.1839H749.703V40.9999H747.291Z" fill="#6F7380"/>
<path d="M755.65 39.9919H755.602C755.538 40.1439 755.458 40.2919 755.362 40.4359C755.266 40.5719 755.146 40.6919 755.002 40.7959C754.866 40.8999 754.702 40.9839 754.51 41.0479C754.318 41.1119 754.094 41.1439 753.838 41.1439C753.19 41.1439 752.67 40.9399 752.278 40.5319C751.886 40.1159 751.69 39.5319 751.69 38.7799V34.8079H752.65V38.6119C752.65 39.1799 752.774 39.6039 753.022 39.8839C753.27 40.1559 753.634 40.2919 754.114 40.2919C754.306 40.2919 754.494 40.2679 754.678 40.2199C754.862 40.1719 755.026 40.0999 755.17 40.0039C755.314 39.9079 755.43 39.7879 755.518 39.6439C755.606 39.4919 755.65 39.3119 755.65 39.1039V34.8079H756.61V40.9999H755.65V39.9919Z" fill="#6F7380"/>
<path d="M758.705 40.1839H760.517V35.6239H758.705V34.8079H761.477V36.3679H761.537C761.665 35.8799 761.905 35.4999 762.257 35.2279C762.617 34.9479 763.073 34.8079 763.625 34.8079H764.489V35.7679H763.325C762.773 35.7679 762.325 35.9279 761.981 36.2479C761.645 36.5679 761.477 36.9879 761.477 37.5079V40.1839H763.877V40.9999H758.705V40.1839Z" fill="#6F7380"/>
<path d="M768.96 33.4399C768.68 33.4399 768.484 33.3839 768.372 33.2719C768.26 33.1519 768.204 33.0039 768.204 32.8279V32.6359C768.204 32.4599 768.26 32.3159 768.372 32.2039C768.484 32.0839 768.68 32.0239 768.96 32.0239C769.24 32.0239 769.436 32.0839 769.548 32.2039C769.66 32.3159 769.716 32.4599 769.716 32.6359V32.8279C769.716 33.0039 769.66 33.1519 769.548 33.2719C769.436 33.3839 769.24 33.4399 768.96 33.4399ZM766.248 40.1839H768.48V35.6239H766.248V34.8079H769.44V40.1839H771.528V40.9999H766.248V40.1839Z" fill="#6F7380"/>
<path d="M776.072 40.9999C775.6 40.9999 775.252 40.8679 775.028 40.6039C774.812 40.3399 774.704 39.9999 774.704 39.5839V35.6239H772.64V34.8079H774.176C774.384 34.8079 774.528 34.7679 774.608 34.6879C774.696 34.5999 774.74 34.4519 774.74 34.2439V32.6239H775.664V34.8079H778.484V35.6239H775.664V40.1839H778.484V40.9999H776.072Z" fill="#6F7380"/>
<path d="M784.971 34.8079H785.931L782.859 42.3559C782.787 42.5319 782.707 42.6839 782.619 42.8119C782.531 42.9479 782.427 43.0559 782.307 43.1359C782.187 43.2239 782.043 43.2879 781.875 43.3279C781.707 43.3759 781.507 43.3999 781.275 43.3999H780.363V42.5839H781.803L782.499 40.8799L780.003 34.8079H780.987L782.031 37.3999L782.955 39.7519H783.003L783.927 37.3999L784.971 34.8079Z" fill="#6F7380"/>
<path d="M797.862 33.4999V40.9999H796.854V33.4999H794.058V32.6239H800.658V33.4999H797.862Z" fill="#6F7380"/>
<path d="M804.937 33.4399C804.657 33.4399 804.461 33.3839 804.349 33.2719C804.237 33.1519 804.181 33.0039 804.181 32.8279V32.6359C804.181 32.4599 804.237 32.3159 804.349 32.2039C804.461 32.0839 804.657 32.0239 804.937 32.0239C805.217 32.0239 805.413 32.0839 805.525 32.2039C805.637 32.3159 805.693 32.4599 805.693 32.6359V32.8279C805.693 33.0039 805.637 33.1519 805.525 33.2719C805.413 33.3839 805.217 33.4399 804.937 33.4399ZM802.225 40.1839H804.457V35.6239H802.225V34.8079H805.417V40.1839H807.505V40.9999H802.225V40.1839Z" fill="#6F7380"/>
<path d="M808.796 40.9999V34.8079H809.684V35.5279H809.732C809.828 35.2879 809.964 35.0839 810.14 34.9159C810.316 34.7479 810.576 34.6639 810.92 34.6639C811.28 34.6639 811.548 34.7559 811.724 34.9399C811.9 35.1159 812.008 35.3479 812.048 35.6359H812.084C812.196 35.3559 812.356 35.1239 812.564 34.9399C812.772 34.7559 813.06 34.6639 813.428 34.6639C813.932 34.6639 814.268 34.8399 814.436 35.1919C814.612 35.5439 814.7 36.0479 814.7 36.7039V40.9999H813.812V36.8599C813.812 36.3319 813.756 35.9679 813.644 35.7679C813.54 35.5599 813.344 35.4559 813.056 35.4559C812.8 35.4559 812.592 35.5399 812.432 35.7079C812.272 35.8679 812.192 36.1159 812.192 36.4519V40.9999H811.304V36.8599C811.304 36.3319 811.248 35.9679 811.136 35.7679C811.032 35.5599 810.84 35.4559 810.56 35.4559C810.304 35.4559 810.092 35.5399 809.924 35.7079C809.764 35.8679 809.684 36.1159 809.684 36.4519V40.9999H808.796Z" fill="#6F7380"/>
<path d="M819.052 41.1439C818.604 41.1439 818.2 41.0679 817.84 40.9159C817.488 40.7639 817.184 40.5479 816.928 40.2679C816.68 39.9799 816.488 39.6399 816.352 39.2479C816.216 38.8479 816.148 38.4039 816.148 37.9159C816.148 37.4199 816.216 36.9719 816.352 36.5719C816.496 36.1719 816.692 35.8319 816.94 35.5519C817.188 35.2639 817.484 35.0439 817.828 34.8919C818.18 34.7399 818.568 34.6639 818.992 34.6639C819.408 34.6639 819.784 34.7399 820.12 34.8919C820.464 35.0439 820.756 35.2559 820.996 35.5279C821.236 35.7919 821.42 36.1079 821.548 36.4759C821.676 36.8439 821.74 37.2479 821.74 37.6879V38.1439H817.156V38.4319C817.156 38.7039 817.2 38.9559 817.288 39.1879C817.376 39.4199 817.5 39.6199 817.66 39.7879C817.828 39.9559 818.028 40.0879 818.26 40.1839C818.5 40.2719 818.764 40.3159 819.052 40.3159C819.468 40.3159 819.828 40.2199 820.132 40.0279C820.436 39.8359 820.668 39.5719 820.828 39.2359L821.536 39.7159C821.352 40.1319 821.044 40.4759 820.612 40.7479C820.188 41.0119 819.668 41.1439 819.052 41.1439ZM818.992 35.4559C818.728 35.4559 818.484 35.5039 818.26 35.5999C818.036 35.6959 817.84 35.8279 817.672 35.9959C817.512 36.1639 817.384 36.3639 817.288 36.5959C817.2 36.8199 817.156 37.0679 817.156 37.3399V37.4239H820.708V37.2919C820.708 37.0199 820.664 36.7719 820.576 36.5479C820.496 36.3239 820.38 36.1319 820.228 35.9719C820.084 35.8039 819.904 35.6759 819.688 35.5879C819.48 35.4999 819.248 35.4559 818.992 35.4559Z" fill="#6F7380"/>
<defs>
<filter id="filter0_b_1677_6894" x="977" y="6" width="185" height="84" filterUnits="userSpaceOnUse" color-interpolation-filters="sRGB">
<feFlood flood-opacity="0" result="BackgroundImageFix"/>
<feGaussianBlur in="BackgroundImage" stdDeviation="9"/>
<feComposite in2="SourceAlpha" operator="in" result="effect1_backgroundBlur_1677_6894"/>
<feBlend mode="normal" in="SourceGraphic" in2="effect1_backgroundBlur_1677_6894" result="shape"/>
</filter>
</defs>
</svg>
